<svg width="24" height="24" version="1.1" viewBox="0 0 24 24" xmlns="http://www.w3.org/2000/svg">
 <path d="m8.5017287 4.5c-2.4485602 0-4.4978188 2.0502524-4.4978188 4.5 0 1.047756 0.4296316 1.981459 1.0502719 2.753906l-2.354327 2.826172c-1.6259597 1.954033-0.2377456 4.918954 2.3035704 4.919922h13.993214c2.314304 0 3.756386-2.511547 2.590541-4.511719l-3.498303-5.9999998c-1.131148-1.9334132-3.904353-1.989561-5.112756-0.1035156-0.06638-2.3956572-2.066429-4.3847656-4.4743923-4.3847656z" style="opacity:.2"/>
 <path d="m8.5017287 4c-2.4485602 0-4.4978188 2.0502524-4.4978188 4.5 0 1.047756 0.4296316 1.981459 1.0502719 2.753906l-2.354327 2.826172c-1.6259597 1.954033-0.2377456 4.918954 2.3035704 4.919922h13.993214c2.314304 0 3.756386-2.511547 2.590541-4.511719l-3.498303-5.9999998c-1.131148-1.9334132-3.904353-1.989561-5.112756-0.1035156-0.06638-2.3956572-2.066429-4.3847656-4.4743923-4.3847656z" style="fill:#a1252b"/>
 <path d="m8.5 7.5c-0.8284271 0-1.5 0.6715729-1.5 1.5s0.6715729 1.5 1.5 1.5 1.5-0.6715729 1.5-1.5-0.6715729-1.5-1.5-1.5zm7 3-2 3.5-2-1.5l-2.5 2.5-1.5-1.5-2.5 3h14z" style="opacity:.2"/>
 <path d="m8.5 7c-0.8284271 0-1.5 0.6715729-1.5 1.5s0.6715729 1.5 1.5 1.5 1.5-0.6715729 1.5-1.5-0.6715729-1.5-1.5-1.5zm7 3-2 3.5l-2-1.5-2.5 2.5-1.5-1.5-2.5 3h14z" style="fill:#ffffff"/>
 <path d="m8.5019531 4c-2.4485602 0-4.4980469 2.0502524-4.4980469 4.5 0 0.0877552 0.0195032 0.1697321 0.0253907 0.2558594 0.1329154-2.3382408 2.1074435-4.2558594 4.4726562-4.2558594 2.4079629 0 4.4082299 1.9891084 4.4746089 4.3847656 1.208404-1.8860454 3.982134-1.8298975 5.113282 0.1035156l3.498047 5.9999998c0.224064 0.384414 0.348851 0.786768 0.392578 1.1875 0.034963-0.560507-0.074463-1.141728-0.392578-1.6875l-3.498047-5.9999998c-1.131148-1.9334131-3.904878-1.989561-5.113282-0.1035156-0.066379-2.3956572-2.066646-4.3847656-4.4746089-4.3847656zm-3.6367187 7.482422l-2.1660156 2.597656c-0.5380905 0.646662-0.7402246 1.402932-0.6855469 2.126953 0.0534423-0.563924 0.2708624-1.128597 0.6855469-1.626953l2.3554687-2.826172c-0.0690974-0.085998-0.1254201-0.181553-0.1894531-0.271484z" style="fill:#ffffff;opacity:.1"/>
</svg>
