<svg width="24" height="24" version="1" xmlns="http://www.w3.org/2000/svg">
 <path d="M 9.5527346,2 10.001953,4.7011719 7.496094,2.5 8.2597659,4.9121094 6.3906252,3 6.8027346,5.5 4.996094,4 5.7500002,6.6914062 2.996094,5 4.3164065,7.7851562 1.996094,7 c 0.047362,0.1705541 2,7 2,7 h 8 l 0.002,-5.9921875 L 12,14 h 8 c 0,0 1.95264,-6.8294459 2,-7 L 19.679688,7.7851562 21,5 18.246094,6.6914062 19,4 17.19336,5.5 17.605469,3 15.736328,4.9121094 16.5,2.5 13.992188,4.7011719 14.44336,2 13.152344,3.1855469 12.955078,3.953125 V 3.5117188 L 12,2 v 0.017578 l -0.002,0.00195 -0.002,-0.00195 V 2 L 11.039063,3.5117188 V 3.953125 L 10.84375,3.1855469 Z" style="fill:#4f4f4f"/>
 <path d="m9.5527344 2l0.0976562 0.5898438 1.1933594 1.0957031 0.195312 0.7675781v-0.4414062l0.957032-1.5117188v0.0175781l0.001953 0.0019531 0.001953-0.0019531v-0.0175781l0.955078 1.5117188v0.4414062l0.197266-0.7675781 1.191406-1.0957031 0.099609-0.5898438-1.291015 1.1855469-0.197266 0.7675781v-0.4414062l-0.955078-1.5117188v0.0175781l-0.001953 0.0019531-0.001953-0.0019531v-0.0175781l-0.957032 1.5117188v0.4414062l-0.195312-0.7675781-1.2910156-1.1855469zm-2.0566406 0.5l0.21875 0.6933594 2.2871092 2.0078125-0.0976561-0.5859375-2.4082031-2.1152344zm9.0039062 0l-2.410156 2.1152344-0.097656 0.5859375 2.289062-2.0078125 0.21875-0.6933594zm-10.109375 0.5l0.0996094 0.6015625 1.7695312 1.8105469-0.234375-0.7402344-1.6347656-1.671875zm11.214844 0l-1.634766 1.671875-0.234375 0.7402344 1.769531-1.8105469 0.09961-0.6015625zm-12.609375 1l0.1816406 0.6523438 1.625 1.3476562-0.0957032-0.5800781-1.7109374-1.4199219zm14.003906 0l-1.710938 1.4199219-0.095703 0.5800781 1.625-1.3476562 0.181641-0.6523438zm-16.003906 1l0.3339843 0.7050781 2.4199219 1.4863281-0.1699219-0.6035156-2.5839843-1.5878906zm18.003906 0l-2.583984 1.5878906-0.169922 0.6035156 2.419922-1.4863281 0.333984-0.7050781zm-19.003906 2c0.0037402 0.0134691 0.1325977 0.46285 0.1582031 0.5527344l2.1621093 0.7324218-0.2832031-0.5957031-2.0371093-0.6894531zm20.003906 0l-2.037109 0.6894531-0.283203 0.5957031 2.162109-0.7324218c0.025605-0.0898844 0.154463-0.5392653 0.158203-0.5527344z" style="fill:#ffffff;opacity:.1"/>
 <rect x="2" y="14.5" width="20" height="8" rx="2" ry="2" style="opacity:.2"/>
 <rect x="2" y="14" width="20" height="8" rx="2" ry="2" style="fill:#4f4f4f"/>
 <path d="m6.000485 10.999758h4.999515c-2.283929 2.388121-3 3.90013-3 7" style="fill:none;stroke-linecap:round;stroke-linejoin:round;stroke-width:2;stroke:#ffb73c"/>
 <path d="m14.000243 10.999758v7" style="fill:none;stroke-linecap:round;stroke-linejoin:round;stroke-width:2;stroke:#ffb73c"/>
 <path d="m18 10.999758-3.999758 4.499999" style="fill:none;stroke-linecap:round;stroke-linejoin:round;stroke-width:2;stroke:#ffb73c"/>
 <path d="m18 17.999758-3.999758-3.500001" style="fill:none;stroke-linecap:round;stroke-linejoin:round;stroke-width:2;stroke:#ffb73c"/>
 <path transform="matrix(.38357062 0 0 .38754554 2.1914579 .94981792)" d="m25.571673 22.062393-10.428328-18.062393 20.856655-6e-7z" style="opacity:.2"/>
 <path transform="matrix(.38357062 0 0 .38754554 2.1914579 .44981792)" d="m25.571673 22.062393-10.428328-18.062393 20.856655-6e-7z" style="fill:#f43e3e"/>
 <path d="m13.984375 10.486419a1.0001 1.0001 0 0 0 -0.984375 1.013672v3.349609a1.0001 1.0001 0 0 0 0 0.279297v0.740235a1.0001 1.0001 0 0 0 0 0.265625v2.365234a1.0001 1.0001 0 1 0 2 0v-1.296875l2.341797 2.048828a1.0001 1.0001 0 1 0 1.316406 -1.503906l-2.742187-2.398438 2.832031-3.185547a1.0002763 1.0002763 0 1 0 -1.496094 -1.328124l-2.251953 2.533203v-1.869141a1.0001 1.0001 0 0 0 -1.015625 -1.013672zm-7.984375 0.013672a1.0001 1.0001 0 1 0 0 2h3.0742188c-1.296062 1.775396-2.0742188 3.521636-2.0742188 6a1.0001 1.0001 0 1 0 2 0c0-2.94587 0.5122891-3.99739 2.722656-6.308594a1.0001 1.0001 0 0 0 -0.722656 -1.691406z" style="opacity:.2"/>
 <path d="m18 17.999758-3.999758-3.500001m3.999758-3.499999-3.999758 4.499999m1e-6 -4.499999v7m-7.999758-7h4.999515c-2.283929 2.388121-3 3.90013-3 7" style="fill:none;stroke-linecap:round;stroke-linejoin:round;stroke-width:2;stroke:#ffb73c"/>
 <path d="m8 2l0.2851562 0.5h7.4296878l0.285156-0.5h-8z" style="fill:#ffffff;opacity:.1"/>
</svg>
