<svg width="24" height="24" version="1" xmlns="http://www.w3.org/2000/svg">
 <rect transform="matrix(0,-1,-1,0,0,0)" x="-22" y="-22" width="20" height="20" rx="1" ry="1" fill="#4f4f4f"/>
 <path d="m3 2c-0.554 0-1 0.446-1 1v0.5c0-0.554 0.446-1 1-1h18c0.554 0 1 0.446 1 1v-0.5c0-0.554-0.446-1-1-1h-18z" fill="#fff" opacity=".1"/>
 <path d="m3 22.5c-0.554 0-1-0.446-1-1v-0.5c0 0.554 0.446 1 1 1h18c0.554 0 1-0.446 1-1v0.5c0 0.554-0.446 1-1 1h-18z" opacity=".2"/>
 <rect x="4" y="16.5" width="4" height="4" rx=".927" ry=".87" opacity=".2"/>
 <rect x="4" y="10.5" width="4" height="4" rx=".927" ry=".87" opacity=".2"/>
 <rect x="10" y="16.5" width="4" height="4" rx=".927" ry=".87" opacity=".2"/>
 <rect x="10" y="10.5" width="4" height="4" rx=".927" ry=".87" opacity=".2"/>
 <g style="fill:#ed3d3d">
  <rect x="4" y="16" width="4" height="4" rx=".927" ry=".87" style="fill:#ed3d3d"/>
  <rect x="4" y="10" width="4" height="4" rx=".927" ry=".87" style="fill:#ed3d3d"/>
  <rect x="10" y="16" width="4" height="4" rx=".927" ry=".87" style="fill:#ed3d3d"/>
  <rect x="10" y="10" width="4" height="4" rx=".927" ry=".87" style="fill:#ed3d3d"/>
 </g>
</svg>
