<svg width="24" height="24" version="1" xmlns="http://www.w3.org/2000/svg">
 <path d="m23 15c0 4.5-3 7.5-7.5 7.5h-3c-4.5 0-7.1397-2.34853-7.4385-6h-0.8115c-2.25 0-2.25-2.25-2.25-2.25v-1.5c0-2.25 2.25-2.25 2.25-2.25h0.75 18zm-18.735-3.52343c-1.265 0.02343-1.265 1.3203-1.265 1.3203v1.5c0 1.20313 1 1.20313 1 1.20313h1v-4z" style="opacity:.2"/>
 <path d="M 23,14.5 C 23,19 20,22 15.5,22 l -3,0 C 8,22 5.3603,19.65147 5.0615,16 L 4.25,16 C 2,16 2,13.75 2,13.75 l 0,-1.5 C 2,10 4.25,10 4.25,10 L 5,10 23,10 Z M 4.265,10.97657 C 3,11 3,12.29687 3,12.29687 l 0,1.5 C 3,15 4,15 4,15 l 1,0 0,-4 z" style="fill:#e4e4e4"/>
 <path d="m23 10v0.5h-18-0.75s-2.25 0-2.25 2.25v-0.5c0-2.25 2.25-2.25 2.25-2.25h0.75 18zm-20 3.796875c0 1.20313 1 1.203125 1 1.203125h1v0.5h-1s-1 5e-6 -1-1.203125v-0.5z" style="fill:#ffffff;opacity:.2"/>
 <path d="m9.788662 2.5c-1.647301 1.6149234-2.141025 2.4097981-1.546875 3.4377171 0.53865 0.9317777 1.930368 1.4074107 1.230468 3.5622829 1.1496-1.0499066 2.06481-2.38338 1.16211-3.4589844-0.9183-1.0939832-1.423203-1.758349-0.845703-3.5410156zm4.499999 0c-1.6473 1.6149234-2.141025 2.4097981-1.546875 3.4377171 0.538651 0.9317777 1.930369 1.4074107 1.230469 3.5622829 1.1496-1.0499066 2.06481-2.38338 1.16211-3.4589844-0.9183-1.0939832-1.423204-1.758349-0.845704-3.5410156zm4.5 0c-1.647299 1.6149234-2.141025 2.4097981-1.546874 3.4377171 0.53865 0.9317777 1.930368 1.4074107 1.230468 3.5622829 1.1496-1.0499066 2.06481-2.38338 1.16211-3.4589844-0.9183-1.0939832-1.423204-1.758349-0.845704-3.5410156z" style="opacity:.2"/>
 <path d="m9.788662 2c-1.647301 1.6149234-2.141025 2.4097981-1.546875 3.4377171 0.53865 0.9317777 1.930368 1.4074107 1.230468 3.5622829 1.1496-1.0499066 2.06481-2.38338 1.16211-3.4589844-0.9183-1.0939832-1.423203-1.758349-0.845703-3.5410156zm4.499999 0c-1.6473 1.6149234-2.141025 2.4097981-1.546875 3.4377171 0.538651 0.9317777 1.930369 1.4074107 1.230469 3.5622829 1.1496-1.0499066 2.06481-2.38338 1.16211-3.4589844-0.9183-1.0939832-1.423204-1.758349-0.845704-3.5410156zm4.5 0c-1.647299 1.6149234-2.141025 2.4097981-1.546874 3.4377171 0.53865 0.9317777 1.930368 1.4074107 1.230468 3.5622829 1.1496-1.0499066 2.06481-2.38338 1.16211-3.4589844-0.9183-1.0939832-1.423204-1.758349-0.845704-3.5410156z" style="fill:#956b5f"/>
 <path d="m9.788662 2c-1.330726 1.304571-1.896092 2.0738449-1.75586 2.8632812 0.119853-0.5929145 0.658358-1.2568511 1.578125-2.1757812 0.040265-0.2112806 0.096283-0.4360704 0.177735-0.6875zm4.499999 0c-1.330725 1.304571-1.896091 2.0738449-1.755859 2.8632812 0.119853-0.5929145 0.658358-1.2568511 1.578125-2.1757812 0.040265-0.2112806 0.096283-0.4360704 0.177734-0.6875zm4.5 0c-1.330724 1.304571-1.896091 2.0738449-1.755859 2.8632812 0.119853-0.5929145 0.658358-1.2568511 1.578125-2.1757812 0.040265-0.2112806 0.096283-0.4360704 0.177734-0.6875zm-9.230468 1.5742188c-0.085903 1.0352926 0.370652 1.6263012 1.076172 2.4667968 0.198126 0.2360762 0.296214 0.4850384 0.335937 0.7402344 0.07316-0.429705-0.0103-0.852226-0.335937-1.2402344-0.584115-0.6958632-0.998754-1.2202095-1.076172-1.9667968zm4.5 0c-0.085903 1.0352926 0.370652 1.6263012 1.076172 2.4667968 0.198126 0.2360762 0.296214 0.4850384 0.335937 0.7402344 0.07316-0.429705-0.0103-0.852226-0.335937-1.2402344-0.584115-0.6958632-0.998754-1.2202095-1.076172-1.9667968zm4.5 0c-0.085903 1.0352926 0.370652 1.6263012 1.076172 2.4667968 0.198126 0.2360762 0.296214 0.4850384 0.335937 0.7402344 0.073159-0.429705-0.010302-0.852226-0.335937-1.2402344-0.584115-0.6958632-0.998754-1.2202095-1.076172-1.9667968zm-8.914063 4.5605468c-0.019973 0.2578035-0.065294 0.5370915-0.171875 0.8652344 0.055271-0.0504774 0.098333-0.108428 0.152344-0.1601562 0.038878-0.2626792 0.046193-0.4968119 0.019531-0.7050782zm4.5 0c-0.019973 0.2578035-0.065294 0.5370915-0.171875 0.8652344 0.05527-0.050477 0.09833-0.108428 0.152344-0.1601562 0.03888-0.2626792 0.04619-0.4968119 0.01953-0.7050782zm4.5 0c-0.019973 0.2578035-0.065294 0.5370915-0.171875 0.8652344 0.05527-0.050477 0.09833-0.108428 0.152344-0.1601562 0.03888-0.2626792 0.04619-0.4968119 0.01953-0.7050782z" style="fill:#ffffff;opacity:.1"/>
</svg>
