<svg width="24" height="24" version="1" xmlns="http://www.w3.org/2000/svg">
 <g transform="translate(1 .75)">
  <text x="877.22626" y="-15.187399" font-size="12.666px" style="font-family:'Bitstream Vera Sans';font-size:12.666px;opacity:.8" xml:space="preserve"><tspan x="877.22626" y="-15.187399"/></text>
  <text x="901.18719" y="-55.929108" font-size="12.666px" style="font-family:'Bitstream Vera Sans';font-size:12.666px;opacity:.8" xml:space="preserve"><tspan x="901.18719" y="-55.929108"/></text>
  <text x="-569.37115" y="-86.007248" font-size="12.666px" style="font-family:'Bitstream Vera Sans';font-size:12.666px;opacity:.8" xml:space="preserve"><tspan x="-569.37115" y="-86.007248"/></text>
  <text x="-2393.0571" y="659.5462" font-size="12.666px" style="font-family:'Bitstream Vera Sans';font-size:12.666px;opacity:.8" xml:space="preserve"><tspan x="-2393.0571" y="659.5462"/></text>
  <text x="-454.88007" y="-471.32822" font-size="12.666px" style="font-family:'Bitstream Vera Sans';font-size:12.666px;opacity:.8" xml:space="preserve"><tspan x="-454.88007" y="-471.32822"/></text>
  <text x="352.72208" y="-884.79834" font-size="12.666px" style="font-family:'Bitstream Vera Sans';font-size:12.666px;opacity:.8" xml:space="preserve"><tspan x="352.72208" y="-884.79834"/></text>
  <text x="376.68301" y="-925.54004" font-size="12.666px" style="font-family:'Bitstream Vera Sans';font-size:12.666px;opacity:.8" xml:space="preserve"><tspan x="376.68301" y="-925.54004"/></text>
  <text x="-1114.7802" y="-932.74994" font-size="12.666px" style="font-family:'Bitstream Vera Sans';font-size:12.666px;opacity:.8" xml:space="preserve"><tspan x="-1114.7802" y="-932.74994"/></text>
  <text x="345.7626" y="-1205.9841" font-size="12.666px" style="font-family:'Bitstream Vera Sans';font-size:12.666px;opacity:.8" xml:space="preserve"><tspan x="345.7626" y="-1205.9841"/></text>
  <text x="1831.8861" y="-579.29272" font-size="12.666px" style="font-family:'Bitstream Vera Sans';font-size:12.666px;opacity:.8" xml:space="preserve"><tspan x="1831.8861" y="-579.29272"/></text>
  <text x="1855.8469" y="-620.03448" font-size="12.666px" style="font-family:'Bitstream Vera Sans';font-size:12.666px;opacity:.8" xml:space="preserve"><tspan x="1855.8469" y="-620.03448"/></text>
  <text x="364.38376" y="-627.24438" font-size="12.666px" style="font-family:'Bitstream Vera Sans';font-size:12.666px;opacity:.8" xml:space="preserve"><tspan x="364.38376" y="-627.24438"/></text>
  <text x="1824.9266" y="-900.47839" font-size="12.666px" style="font-family:'Bitstream Vera Sans';font-size:12.666px;opacity:.8" xml:space="preserve"><tspan x="1824.9266" y="-900.47839"/></text>
  <text x="-573.43256" y="-675.33569" font-size="12.666px" style="font-family:'Bitstream Vera Sans';font-size:12.666px;opacity:.8" xml:space="preserve"><tspan x="-573.43256" y="-675.33569"/></text>
  <text x="-2397.1182" y="70.217857" font-size="12.666px" style="font-family:'Bitstream Vera Sans';font-size:12.666px;opacity:.8" xml:space="preserve"><tspan x="-2397.1182" y="70.217857"/></text>
  <text x="-682.36279" y="163.09" font-size="12.666px" style="font-family:'Bitstream Vera Sans';font-size:12.666px;opacity:.8" xml:space="preserve"><tspan x="-682.36279" y="163.09"/></text>
  <text x="426.66153" y="-16.092148" font-size="12.666px" style="font-family:'Bitstream Vera Sans';font-size:12.666px;opacity:.8" xml:space="preserve"><tspan x="426.66153" y="-16.092148"/></text>
  <text x="450.62247" y="-56.833855" font-size="12.666px" style="font-family:'Bitstream Vera Sans';font-size:12.666px;opacity:.8" xml:space="preserve"><tspan x="450.62247" y="-56.833855"/></text>
  <text x="-1040.8407" y="-64.043823" font-size="12.666px" style="font-family:'Bitstream Vera Sans';font-size:12.666px;opacity:.8" xml:space="preserve"><tspan x="-1040.8407" y="-64.043823"/></text>
  <text x="419.70206" y="-337.27789" font-size="12.666px" style="font-family:'Bitstream Vera Sans';font-size:12.666px;opacity:.8" xml:space="preserve"><tspan x="419.70206" y="-337.27789"/></text>
  <text x="-608.03253" y="-66.758072" font-size="12.666px" style="font-family:'Bitstream Vera Sans';font-size:12.666px;opacity:.8" xml:space="preserve"><tspan x="-608.03253" y="-66.758072"/></text>
  <text x="-2431.7185" y="678.79541" font-size="12.666px" style="font-family:'Bitstream Vera Sans';font-size:12.666px;opacity:.8" xml:space="preserve"><tspan x="-2431.7185" y="678.79541"/></text>
  <text x="-456.93948" y="-928.28857" font-size="12.666px" style="font-family:'Bitstream Vera Sans';font-size:12.666px;opacity:.8" xml:space="preserve"><tspan x="-456.93948" y="-928.28857"/></text>
  <text x="350.66266" y="-1341.7588" font-size="12.666px" style="font-family:'Bitstream Vera Sans';font-size:12.666px;opacity:.8" xml:space="preserve"><tspan x="350.66266" y="-1341.7588"/></text>
  <text x="374.62357" y="-1382.5005" font-size="12.666px" style="font-family:'Bitstream Vera Sans';font-size:12.666px;opacity:.8" xml:space="preserve"><tspan x="374.62357" y="-1382.5005"/></text>
  <text x="-1116.8396" y="-1389.7104" font-size="12.666px" style="font-family:'Bitstream Vera Sans';font-size:12.666px;opacity:.8" xml:space="preserve"><tspan x="-1116.8396" y="-1389.7104"/></text>
  <text x="343.70316" y="-1662.9446" font-size="12.666px" style="font-family:'Bitstream Vera Sans';font-size:12.666px;opacity:.8" xml:space="preserve"><tspan x="343.70316" y="-1662.9446"/></text>
  <text x="1829.8265" y="-1036.2533" font-size="12.666px" style="font-family:'Bitstream Vera Sans';font-size:12.666px;opacity:.8" xml:space="preserve"><tspan x="1829.8265" y="-1036.2533"/></text>
  <text x="1853.7874" y="-1076.9949" font-size="12.666px" style="font-family:'Bitstream Vera Sans';font-size:12.666px;opacity:.8" xml:space="preserve"><tspan x="1853.7874" y="-1076.9949"/></text>
  <text x="362.32431" y="-1084.2048" font-size="12.666px" style="font-family:'Bitstream Vera Sans';font-size:12.666px;opacity:.8" xml:space="preserve"><tspan x="362.32431" y="-1084.2048"/></text>
  <text x="1822.8671" y="-1357.439" font-size="12.666px" style="font-family:'Bitstream Vera Sans';font-size:12.666px;opacity:.8" xml:space="preserve"><tspan x="1822.8671" y="-1357.439"/></text>
  <text x="-575.492" y="-1132.2961" font-size="12.666px" style="font-family:'Bitstream Vera Sans';font-size:12.666px;opacity:.8" xml:space="preserve"><tspan x="-575.492" y="-1132.2961"/></text>
  <text x="-2399.1777" y="-386.74261" font-size="12.666px" style="font-family:'Bitstream Vera Sans';font-size:12.666px;opacity:.8" xml:space="preserve"><tspan x="-2399.1777" y="-386.74261"/></text>
  <text x="-684.42224" y="-293.87045" font-size="12.666px" style="font-family:'Bitstream Vera Sans';font-size:12.666px;opacity:.8" xml:space="preserve"><tspan x="-684.42224" y="-293.87045"/></text>
  <text x="155.5923" y="-52.956276" font-size="12.666px" style="font-family:'Bitstream Vera Sans';font-size:12.666px;opacity:.8" xml:space="preserve"><tspan x="155.5923" y="-52.956276"/></text>
  <text x="179.55324" y="-93.697998" font-size="12.666px" style="font-family:'Bitstream Vera Sans';font-size:12.666px;opacity:.8" xml:space="preserve"><tspan x="179.55324" y="-93.697998"/></text>
  <text x="-1090.2634" y="-287.72662" font-size="12.666px" style="font-family:'Bitstream Vera Sans';font-size:12.666px;opacity:.8" xml:space="preserve"><tspan x="-1090.2634" y="-287.72662"/></text>
  <text x="-282.66141" y="-701.19678" font-size="12.666px" style="font-family:'Bitstream Vera Sans';font-size:12.666px;opacity:.8" xml:space="preserve"><tspan x="-282.66141" y="-701.19678"/></text>
  <text x="-258.70047" y="-741.93848" font-size="12.666px" style="font-family:'Bitstream Vera Sans';font-size:12.666px;opacity:.8" xml:space="preserve"><tspan x="-258.70047" y="-741.93848"/></text>
  <text x="-1750.1636" y="-749.14838" font-size="12.666px" style="font-family:'Bitstream Vera Sans';font-size:12.666px;opacity:.8" xml:space="preserve"><tspan x="-1750.1636" y="-749.14838"/></text>
  <text x="-289.62085" y="-1022.3825" font-size="12.666px" style="font-family:'Bitstream Vera Sans';font-size:12.666px;opacity:.8" xml:space="preserve"><tspan x="-289.62085" y="-1022.3825"/></text>
  <text x="1196.5026" y="-395.69113" font-size="12.666px" style="font-family:'Bitstream Vera Sans';font-size:12.666px;opacity:.8" xml:space="preserve"><tspan x="1196.5026" y="-395.69113"/></text>
  <text x="1220.4634" y="-436.43286" font-size="12.666px" style="font-family:'Bitstream Vera Sans';font-size:12.666px;opacity:.8" xml:space="preserve"><tspan x="1220.4634" y="-436.43286"/></text>
  <text x="-270.99973" y="-443.64282" font-size="12.666px" style="font-family:'Bitstream Vera Sans';font-size:12.666px;opacity:.8" xml:space="preserve"><tspan x="-270.99973" y="-443.64282"/></text>
  <text x="1189.5431" y="-716.87689" font-size="12.666px" style="font-family:'Bitstream Vera Sans';font-size:12.666px;opacity:.8" xml:space="preserve"><tspan x="1189.5431" y="-716.87689"/></text>
  <text x="-1208.816" y="-491.7341" font-size="12.666px" style="font-family:'Bitstream Vera Sans';font-size:12.666px;opacity:.8" xml:space="preserve"><tspan x="-1208.816" y="-491.7341"/></text>
  <text x="-3032.5017" y="253.81946" font-size="12.666px" style="font-family:'Bitstream Vera Sans';font-size:12.666px;opacity:.8" xml:space="preserve"><tspan x="-3032.5017" y="253.81946"/></text>
  <g transform="matrix(.90475 0 0 .90475 -716.75 -702.29)">
   <text x="-664.2738" y="1159.4154" font-size="14px" style="font-family:'Bitstream Vera Sans';font-size:14px;opacity:.8" xml:space="preserve"><tspan x="-664.2738" y="1159.4154"/></text>
  </g>
  <text x="877.22626" y="-7.9494114" font-size="12.666px" style="font-family:'Bitstream Vera Sans';font-size:12.666px;opacity:.8" xml:space="preserve"><tspan x="877.22626" y="-7.9494114"/></text>
  <text x="901.18719" y="-48.691116" font-size="12.666px" style="font-family:'Bitstream Vera Sans';font-size:12.666px;opacity:.8" xml:space="preserve"><tspan x="901.18719" y="-48.691116"/></text>
  <text x="-569.37115" y="-78.769257" font-size="12.666px" style="font-family:'Bitstream Vera Sans';font-size:12.666px;opacity:.8" xml:space="preserve"><tspan x="-569.37115" y="-78.769257"/></text>
  <text x="-2393.0571" y="666.78418" font-size="12.666px" style="font-family:'Bitstream Vera Sans';font-size:12.666px;opacity:.8" xml:space="preserve"><tspan x="-2393.0571" y="666.78418"/></text>
  <text x="-454.88007" y="-464.09021" font-size="12.666px" style="font-family:'Bitstream Vera Sans';font-size:12.666px;opacity:.8" xml:space="preserve"><tspan x="-454.88007" y="-464.09021"/></text>
  <text x="352.72208" y="-877.5603" font-size="12.666px" style="font-family:'Bitstream Vera Sans';font-size:12.666px;opacity:.8" xml:space="preserve"><tspan x="352.72208" y="-877.5603"/></text>
  <text x="376.68301" y="-918.30206" font-size="12.666px" style="font-family:'Bitstream Vera Sans';font-size:12.666px;opacity:.8" xml:space="preserve"><tspan x="376.68301" y="-918.30206"/></text>
  <text x="-1114.7802" y="-925.51196" font-size="12.666px" style="font-family:'Bitstream Vera Sans';font-size:12.666px;opacity:.8" xml:space="preserve"><tspan x="-1114.7802" y="-925.51196"/></text>
  <text x="345.7626" y="-1198.7461" font-size="12.666px" style="font-family:'Bitstream Vera Sans';font-size:12.666px;opacity:.8" xml:space="preserve"><tspan x="345.7626" y="-1198.7461"/></text>
  <text x="1831.8861" y="-572.05475" font-size="12.666px" style="font-family:'Bitstream Vera Sans';font-size:12.666px;opacity:.8" xml:space="preserve"><tspan x="1831.8861" y="-572.05475"/></text>
  <text x="1855.8469" y="-612.79651" font-size="12.666px" style="font-family:'Bitstream Vera Sans';font-size:12.666px;opacity:.8" xml:space="preserve"><tspan x="1855.8469" y="-612.79651"/></text>
  <text x="364.38376" y="-620.00641" font-size="12.666px" style="font-family:'Bitstream Vera Sans';font-size:12.666px;opacity:.8" xml:space="preserve"><tspan x="364.38376" y="-620.00641"/></text>
  <text x="1824.9266" y="-893.24036" font-size="12.666px" style="font-family:'Bitstream Vera Sans';font-size:12.666px;opacity:.8" xml:space="preserve"><tspan x="1824.9266" y="-893.24036"/></text>
  <text x="-573.43256" y="-668.09772" font-size="12.666px" style="font-family:'Bitstream Vera Sans';font-size:12.666px;opacity:.8" xml:space="preserve"><tspan x="-573.43256" y="-668.09772"/></text>
  <text x="-2397.1182" y="77.455849" font-size="12.666px" style="font-family:'Bitstream Vera Sans';font-size:12.666px;opacity:.8" xml:space="preserve"><tspan x="-2397.1182" y="77.455849"/></text>
  <text x="-682.36279" y="170.32799" font-size="12.666px" style="font-family:'Bitstream Vera Sans';font-size:12.666px;opacity:.8" xml:space="preserve"><tspan x="-682.36279" y="170.32799"/></text>
  <text x="426.66153" y="-8.8541603" font-size="12.666px" style="font-family:'Bitstream Vera Sans';font-size:12.666px;opacity:.8" xml:space="preserve"><tspan x="426.66153" y="-8.8541603"/></text>
  <text x="450.62247" y="-49.595863" font-size="12.666px" style="font-family:'Bitstream Vera Sans';font-size:12.666px;opacity:.8" xml:space="preserve"><tspan x="450.62247" y="-49.595863"/></text>
  <text x="-1040.8407" y="-56.805836" font-size="12.666px" style="font-family:'Bitstream Vera Sans';font-size:12.666px;opacity:.8" xml:space="preserve"><tspan x="-1040.8407" y="-56.805836"/></text>
  <text x="419.70206" y="-330.03989" font-size="12.666px" style="font-family:'Bitstream Vera Sans';font-size:12.666px;opacity:.8" xml:space="preserve"><tspan x="419.70206" y="-330.03989"/></text>
  <text x="-608.03253" y="-59.520081" font-size="12.666px" style="font-family:'Bitstream Vera Sans';font-size:12.666px;opacity:.8" xml:space="preserve"><tspan x="-608.03253" y="-59.520081"/></text>
  <text x="-2431.7185" y="686.03345" font-size="12.666px" style="font-family:'Bitstream Vera Sans';font-size:12.666px;opacity:.8" xml:space="preserve"><tspan x="-2431.7185" y="686.03345"/></text>
  <text x="-456.93948" y="-921.0506" font-size="12.666px" style="font-family:'Bitstream Vera Sans';font-size:12.666px;opacity:.8" xml:space="preserve"><tspan x="-456.93948" y="-921.0506"/></text>
  <text x="350.66266" y="-1334.5208" font-size="12.666px" style="font-family:'Bitstream Vera Sans';font-size:12.666px;opacity:.8" xml:space="preserve"><tspan x="350.66266" y="-1334.5208"/></text>
  <text x="374.62357" y="-1375.2626" font-size="12.666px" style="font-family:'Bitstream Vera Sans';font-size:12.666px;opacity:.8" xml:space="preserve"><tspan x="374.62357" y="-1375.2626"/></text>
  <text x="-1116.8396" y="-1382.4724" font-size="12.666px" style="font-family:'Bitstream Vera Sans';font-size:12.666px;opacity:.8" xml:space="preserve"><tspan x="-1116.8396" y="-1382.4724"/></text>
  <text x="343.70316" y="-1655.7065" font-size="12.666px" style="font-family:'Bitstream Vera Sans';font-size:12.666px;opacity:.8" xml:space="preserve"><tspan x="343.70316" y="-1655.7065"/></text>
  <text x="1829.8265" y="-1029.0154" font-size="12.666px" style="font-family:'Bitstream Vera Sans';font-size:12.666px;opacity:.8" xml:space="preserve"><tspan x="1829.8265" y="-1029.0154"/></text>
  <text x="1853.7874" y="-1069.757" font-size="12.666px" style="font-family:'Bitstream Vera Sans';font-size:12.666px;opacity:.8" xml:space="preserve"><tspan x="1853.7874" y="-1069.757"/></text>
  <text x="362.32431" y="-1076.9668" font-size="12.666px" style="font-family:'Bitstream Vera Sans';font-size:12.666px;opacity:.8" xml:space="preserve"><tspan x="362.32431" y="-1076.9668"/></text>
  <text x="1822.8671" y="-1350.2009" font-size="12.666px" style="font-family:'Bitstream Vera Sans';font-size:12.666px;opacity:.8" xml:space="preserve"><tspan x="1822.8671" y="-1350.2009"/></text>
  <text x="-575.492" y="-1125.0581" font-size="12.666px" style="font-family:'Bitstream Vera Sans';font-size:12.666px;opacity:.8" xml:space="preserve"><tspan x="-575.492" y="-1125.0581"/></text>
  <text x="-2399.1777" y="-379.50461" font-size="12.666px" style="font-family:'Bitstream Vera Sans';font-size:12.666px;opacity:.8" xml:space="preserve"><tspan x="-2399.1777" y="-379.50461"/></text>
  <text x="-684.42224" y="-286.63245" font-size="12.666px" style="font-family:'Bitstream Vera Sans';font-size:12.666px;opacity:.8" xml:space="preserve"><tspan x="-684.42224" y="-286.63245"/></text>
  <text x="155.5923" y="-45.718292" font-size="12.666px" style="font-family:'Bitstream Vera Sans';font-size:12.666px;opacity:.8" xml:space="preserve"><tspan x="155.5923" y="-45.718292"/></text>
  <text x="179.55324" y="-86.460007" font-size="12.666px" style="font-family:'Bitstream Vera Sans';font-size:12.666px;opacity:.8" xml:space="preserve"><tspan x="179.55324" y="-86.460007"/></text>
  <text x="-1090.2634" y="-280.48859" font-size="12.666px" style="font-family:'Bitstream Vera Sans';font-size:12.666px;opacity:.8" xml:space="preserve"><tspan x="-1090.2634" y="-280.48859"/></text>
  <text x="-282.66141" y="-693.9588" font-size="12.666px" style="font-family:'Bitstream Vera Sans';font-size:12.666px;opacity:.8" xml:space="preserve"><tspan x="-282.66141" y="-693.9588"/></text>
  <text x="-258.70047" y="-734.7005" font-size="12.666px" style="font-family:'Bitstream Vera Sans';font-size:12.666px;opacity:.8" xml:space="preserve"><tspan x="-258.70047" y="-734.7005"/></text>
  <text x="-1750.1636" y="-741.91046" font-size="12.666px" style="font-family:'Bitstream Vera Sans';font-size:12.666px;opacity:.8" xml:space="preserve"><tspan x="-1750.1636" y="-741.91046"/></text>
  <text x="-289.62085" y="-1015.1445" font-size="12.666px" style="font-family:'Bitstream Vera Sans';font-size:12.666px;opacity:.8" xml:space="preserve"><tspan x="-289.62085" y="-1015.1445"/></text>
  <text x="1196.5026" y="-388.45316" font-size="12.666px" style="font-family:'Bitstream Vera Sans';font-size:12.666px;opacity:.8" xml:space="preserve"><tspan x="1196.5026" y="-388.45316"/></text>
  <text x="1220.4634" y="-429.19489" font-size="12.666px" style="font-family:'Bitstream Vera Sans';font-size:12.666px;opacity:.8" xml:space="preserve"><tspan x="1220.4634" y="-429.19489"/></text>
  <text x="-270.99973" y="-436.40482" font-size="12.666px" style="font-family:'Bitstream Vera Sans';font-size:12.666px;opacity:.8" xml:space="preserve"><tspan x="-270.99973" y="-436.40482"/></text>
  <text x="1189.5431" y="-709.63892" font-size="12.666px" style="font-family:'Bitstream Vera Sans';font-size:12.666px;opacity:.8" xml:space="preserve"><tspan x="1189.5431" y="-709.63892"/></text>
  <text x="-1208.816" y="-484.49609" font-size="12.666px" style="font-family:'Bitstream Vera Sans';font-size:12.666px;opacity:.8" xml:space="preserve"><tspan x="-1208.816" y="-484.49609"/></text>
  <text x="-3032.5017" y="261.05743" font-size="12.666px" style="font-family:'Bitstream Vera Sans';font-size:12.666px;opacity:.8" xml:space="preserve"><tspan x="-3032.5017" y="261.05743"/></text>
  <g transform="matrix(.90475 0 0 .90475 -716.75 -695.05)">
   <text x="-664.2738" y="1159.4154" font-size="14px" style="font-family:'Bitstream Vera Sans';font-size:14px;opacity:.8" xml:space="preserve"><tspan x="-664.2738" y="1159.4154"/></text>
  </g>
  <text x="435.90427" y="-387.22546" font-size="12.666px" style="font-family:'Droid Sans';font-size:12.666px" xml:space="preserve"><tspan x="435.90427" y="-387.22546"/><tspan x="435.90427" y="-371.3924"/></text>
  <text x="901.0882" y="-869.27002" font-size="12.666px" style="font-family:'Bitstream Vera Sans';font-size:12.666px;opacity:.8" xml:space="preserve"><tspan x="901.0882" y="-869.27002"/></text>
  <text x="-922.59778" y="-123.71655" font-size="12.666px" style="font-family:'Bitstream Vera Sans';font-size:12.666px;opacity:.8" xml:space="preserve"><tspan x="-922.59778" y="-123.71655"/></text>
  <text x="1628.1677" y="-1154.2659" font-size="12.666px" style="font-family:'Bitstream Vera Sans';font-size:12.666px;opacity:.8" xml:space="preserve"><tspan x="1628.1677" y="-1154.2659"/></text>
  <text x="1652.1285" y="-1195.0076" font-size="12.666px" style="font-family:'Bitstream Vera Sans';font-size:12.666px;opacity:.8" xml:space="preserve"><tspan x="1652.1285" y="-1195.0076"/></text>
  <text x="160.66542" y="-1202.2175" font-size="12.666px" style="font-family:'Bitstream Vera Sans';font-size:12.666px;opacity:.8" xml:space="preserve"><tspan x="160.66542" y="-1202.2175"/></text>
  <text x="1621.2083" y="-1475.4517" font-size="12.666px" style="font-family:'Bitstream Vera Sans';font-size:12.666px;opacity:.8" xml:space="preserve"><tspan x="1621.2083" y="-1475.4517"/></text>
  <path d="m21 19v-17c0-0.554-0.446-1-1-1h-18c-0.554 0-1 0.446-1 1v17c0 0.554 0.446 1 1 1h18c0.554 0 1-0.446 1-1z" style="fill:#624393"/>
  <rect x="2" y="11.5" width="18" height="8" rx="1.01" ry=".86186999" style="opacity:.2"/>
  <rect x="2" y="2.5" width="18" height="8" rx="1.01" ry=".86186999" style="opacity:.2"/>
  <rect x="2" y="2" width="18" height="8" rx="1.01" ry=".86186999" style="fill:#7773c0"/>
  <rect x="8" y="5.5" width="6" height="2" rx="0" ry=".49998999" style="opacity:.2"/>
  <rect x="8" y="5" width="6" height="2" rx="0" ry=".49998999" style="fill:#ffffff"/>
  <rect x="2" y="11" width="18" height="8" rx="1.01" ry=".86186999" style="fill:#7773c0"/>
  <rect x="8" y="14.5" width="6" height="2" rx="0" ry=".49998999" style="opacity:.2"/>
  <rect x="8" y="14" width="6" height="2" rx="0" ry=".49998999" style="fill:#ffffff"/>
  <path d="m2 1c-0.554 0-1 0.446-1 1v0.5c0-0.554 0.446-1 1-1h18c0.554 0 1 0.446 1 1v-0.5c0-0.554-0.446-1-1-1z" style="fill:#ffffff;opacity:.1"/>
  <path d="m1 19v0.5c0 0.554 0.446 1 1 1h18c0.554 0 1-0.446 1-1v-0.5c0 0.554-0.446 1-1 1h-18c-0.554 0-1-0.446-1-1z" style="opacity:.2"/>
  <circle cx="17" cy="17" r="5" style="fill:#6ec149"/>
  <path d="m16.223 14-0.06613 0.7902a2.3572 2.3572 0 0 0 -0.6889 0.39844l-0.7182-0.33818-0.75 1.2991 0.65205 0.45285a2.3572 2.3572 0 0 0 -0.036 0.3976 2.3572 2.3572 0 0 0 0.0343 0.39928l-0.6505 0.4515 0.75 1.2991 0.7165-0.33733a2.3572 2.3572 0 0 0 0.69055 0.39592l0.06613 0.79185h1.5l0.06612-0.7902a2.3572 2.3572 0 0 0 0.6889 -0.39844l0.7182 0.33817 0.75-1.2991-0.65205-0.45285a2.3572 2.3572 0 0 0 0.036 -0.3976 2.3572 2.3572 0 0 0 -0.0343 -0.39928l0.6504-0.45118-0.75-1.2991-0.7165 0.33734a2.3572 2.3572 0 0 0 -0.6905 -0.395l-0.06612-0.79185h-1.5zm0.75 2.1428a0.85715 0.85715 0 0 1 0.857 0.857 0.85715 0.85715 0 0 1 -0.857 0.857 0.85715 0.85715 0 0 1 -0.857 -0.857 0.85715 0.85715 0 0 1 0.857 -0.857z" style="fill:#ffffff"/>
 </g>
</svg>
