<svg width="24" height="24" version="1" xmlns="http://www.w3.org/2000/svg">
 <g transform="translate(1.0001 1)">
  <path d="m11 1c-5.54 0-10 4.46-10 10s4.46 10 10 10 10-4.46 10-10-4.46-10-10-10z" fill="#d2d2d2"/>
  <path d="m5 6.5v3h3v-3h-3zm4.5 0v3h3v-3h-3zm4.5 0v3h3v-3h-3zm-9 4v3h3v-3h-3zm4.5 0v3h3v-3h-3zm4.5 0v3h3v-3h-3zm-9 4v3h3v-3h-3zm4.5 0v3h3v-3h-3zm4.5 0v3h3v-3h-3z" opacity=".1"/>
  <path d="m11 1c5.535 0 9.991 4.46 9.991 10 0 0.08394-4e-3 0.16657-0.0058 0.25-0.132-5.423-4.534-9.75-9.985-9.75s-9.853 4.327-9.985 9.75c-2e-3 -0.08343-0.00584-0.16606-0.00584-0.25 0-5.54 4.456-10 9.991-10z" fill="#fff" opacity=".2"/>
  <path d="m1.0059 11.25c-0.00205 0.0835-0.00585 0.166-0.00585 0.25 0 5.54 4.46 10 10 10s10-4.46 10-10c0-0.084-4e-3 -0.1665-6e-3 -0.25-0.132 5.423-4.538 9.75-9.994 9.75s-9.862-4.327-9.994-9.75z" opacity=".2"/>
  <g transform="translate(-1.4999 -.5)">
   <path d="m11 6.5h3v3h-3m0-3" fill="#4a99e4"/>
   <path d="m15.5 6.5h3v3h-3m0-3" fill="#4a99e4"/>
   <path d="m15.5 10.5h3v3h-3m0-3" fill="#4a99e4"/>
   <path d="m6.4999 10.5h3v3h-3m0-3" fill="#5eaf3e"/>
   <path d="m6.4999 14.5h3v3h-3m0-3" fill="#5eaf3e"/>
   <path d="m11 14.5h3v3h-3m0-3" fill="#5eaf3e"/>
   <path d="m6.4999 6.5h3v3h-3m0-3" fill="#eb6253"/>
   <path d="m11 10.5h3v3h-3m0-3" fill="#eb6253"/>
   <path d="m15.5 14.5h3v3h-3m0-3" fill="#eb6253"/>
  </g>
 </g>
</svg>
