<svg width="24" height="24" version="1" xmlns="http://www.w3.org/2000/svg">
 <path d="m11.499693 1.5000209c-0.550023 0-1.100415 0.2050106-1.5115718 0.6161573l-8.3719729 8.3729068c-0.82231376 0.822293-0.82114731 2.198409 0.0012 3.020703l8.3719729 8.372904c0.8223138 0.822294 2.1996538 0.823461 3.0219678 0.0012l8.371974-8.372905c0.822312-0.822294 0.822313-2.199587 0-3.021881l-8.371995-8.3729278c-0.411158-0.4111467-0.961549-0.6161573-1.511575-0.6161573z" style="opacity:.2"/>
 <path d="m11.499693 1.0000087c-0.550023 0-1.100415 0.2050106-1.5115718 0.6161573l-8.3719729 8.3729056c-0.82231376 0.8222934-0.82114731 2.1984094 0.0012 3.0207034l8.3719729 8.372904c0.8223138 0.822294 2.1996538 0.823461 3.0219678 0.0012l8.371974-8.372905c0.822312-0.822294 0.822313-2.199587 0-3.0218814l-8.371995-8.3729266c-0.411158-0.4111467-0.961549-0.6161573-1.511575-0.6161573z" style="fill:#696853"/>
 <path d="m11.5 3.4995188c-0.18334 0-0.366855 0.06803-0.503906 0.2050781l-2.7910159 2.7910157c-0.2741038 0.2740963-0.2741427 0.733715 0 1.0078124l2.7910159 2.791016c0.274103 0.274096 0.733709 0.274058 1.007812 0l2.791016-2.791016c0.274104-0.2740968 0.274104-0.7337157 0-1.0078124l-2.791016-2.7910157c-0.137051-0.1370485-0.320565-0.2050781-0.503906-0.2050781zm-5 5c-0.1832001 1.021e-4 -0.3668575 0.0680067-0.5039062 0.2050781l-2.7910157 2.7910161c-0.2740968 0.274103-0.2740579 0.733708 0 1.007812l2.7910157 2.791016c0.274097 0.274104 0.7337156 0.274104 1.0078124 0l2.7910157-2.791016c0.1370487-0.137052 0.2050781-0.320565 0.2050781-0.503906 0-0.18334-0.0680315-0.366856-0.2050781-0.503906l-2.7910157-2.7910161c-0.1370481-0.137052-0.3207061-0.2051802-0.5039062-0.2050781zm10 0c-0.1832 1.021e-4 -0.366857 0.068007-0.503906 0.2050781l-2.791016 2.7910161c-0.274096 0.274103-0.274057 0.733708 0 1.007812l2.791016 2.791016c0.274097 0.274104 0.733715 0.274104 1.007812 0l2.791016-2.791016c0.137049-0.137051 0.205078-0.320565 0.205078-0.503906 0-0.18334-0.06803-0.366856-0.205078-0.503906l-2.791016-2.7910161c-0.137048-0.137052-0.320706-0.2051802-0.503906-0.2050781zm-5 5.0000002c-0.183341 0-0.366855 0.06803-0.503906 0.205078l-2.7910159 2.791016c-0.2741049 0.274097-0.2741438 0.733715 0 1.007812l2.7910159 2.791016c0.274104 0.274098 0.733708 0.274059 1.007812 0l2.791016-2.791016c0.274105-0.274097 0.274105-0.733715 0-1.007812l-2.791016-2.791016c-0.137052-0.137048-0.320565-0.205078-0.503906-0.205078z" style="opacity:.2"/>
 <path d="m11.499886 3.0000337c-0.18334 0-0.366804 0.068337-0.503855 0.2053851l-2.7906486 2.7909598c-0.2741038 0.2740963-0.2737148 0.7327997 4.279e-4 1.0068971l2.7906487 2.7909579c0.274103 0.2740964 0.733216 0.2744864 1.007319 4.28e-4l2.790648-2.7909581c0.274104-0.2740969 0.274104-0.7331931 0-1.0072899l-2.790684-2.7909948c-0.137051-0.1370485-0.320515-0.2053851-0.503856-0.2053851z" style="fill:#3fa7e2"/>
 <path d="m11.4999 12.999997c-0.183341 0-0.366806 0.06834-0.503857 0.205385l-2.7906598 2.790971c-0.2741049 0.274097-0.2737159 0.732803 4.279e-4 1.0069l2.7906599 2.790971c0.274104 0.274098 0.733219 0.274487 1.007323 4.28e-4l2.790659-2.790971c0.274105-0.274097 0.274105-0.733196 0-1.007293l-2.790678-2.79099c-0.137052-0.137048-0.320517-0.205385-0.503858-0.205385z" style="fill:#3f3f3f"/>
 <path d="m19.999974 11.499898c0-0.18334-0.06834-0.366804-0.205386-0.503854l-2.79096-2.7906489c-0.274096-0.274104-0.732799-0.273715-1.006897 4.278e-4l-2.79096 2.7906481c-0.274096 0.274103-0.274485 0.733216-4.28e-4 1.00732l2.79096 2.790648c0.274097 0.274104 0.733193 0.274104 1.00729 0l2.790995-2.790684c0.137049-0.137051 0.205386-0.320516 0.205386-0.503857z" style="fill:#f1ca42"/>
 <path d="m9.999997 11.499898c0-0.18334-0.068338-0.366804-0.2053846-0.503854l-2.7909601-2.7906489c-0.2740964-0.274104-0.7327998-0.273715-1.0068972 4.278e-4l-2.7909593 2.7906481c-0.2740968 0.274103-0.2744857 0.733216-4.278e-4 1.00732l2.7909592 2.790648c0.274097 0.274104 0.7331933 0.274104 1.0072901 0l2.7909785-2.790667c0.1370487-0.137052 0.2053846-0.320516 0.2053846-0.503857z" style="fill:#ea72bb"/>
 <path d="m11.5 2.9999996c-0.18334 0-0.366855 0.06803-0.503906 0.2050781l-2.7910159 2.7910157c-0.2006017 0.2005962-0.2512245 0.500019-0.1582031 0.7539062 0.0340856-0.0930262 0.0847011-0.1804062 0.1582031-0.2539062l2.7910159-2.7910157c0.137051-0.1370481 0.320566-0.2050781 0.503906-0.2050781 0.183341 0 0.366855 0.06803 0.503906 0.2050781l2.791016 2.7910157c0.0735 0.0735 0.124121 0.16088 0.158203 0.2539062 0.09302-0.253887 0.0424-0.5533097-0.158203-0.7539062l-2.791016-2.7910157c-0.137051-0.1370485-0.320565-0.2050781-0.503906-0.2050781zm-5 5c-0.1832001 1.021e-4 -0.3668575 0.0680067-0.5039062 0.2050781l-2.7910157 2.7910163c-0.2005966 0.200601-0.251214 0.50002-0.1582031 0.753906 0.034078-0.09303 0.084703-0.180404 0.1582031-0.253906l2.7910157-2.7910163c0.1370487-0.1370714 0.3207061-0.204976 0.5039062-0.2050781s0.3668581 0.0680261 0.5039062 0.2050781l2.7910157 2.7910163c0.0734992 0.073501 0.1242533 0.16087 0.1582031 0.253906 0.0293527-0.080438 0.046875-0.164986 0.046875-0.25 0-0.18334-0.0680315-0.366856-0.2050781-0.503906l-2.7910157-2.7910163c-0.1370481-0.137052-0.3207061-0.2051802-0.5039062-0.2050781zm10 0c-0.1832 1.021e-4 -0.366857 0.068007-0.503906 0.2050781l-2.791016 2.7910163c-0.200596 0.200601-0.251214 0.50002-0.158203 0.753906 0.03408-0.09303 0.0847-0.180404 0.158203-0.253906l2.791016-2.7910163c0.137049-0.1370711 0.320706-0.204976 0.503906-0.2050781s0.366858 0.068026 0.503906 0.2050781l2.791016 2.7910163c0.0735 0.0735 0.124253 0.16087 0.158203 0.253906 0.029353-0.080439 0.046875-0.164986 0.046875-0.25 0-0.18334-0.068032-0.366856-0.205078-0.503906l-2.791016-2.7910163c-0.137048-0.137052-0.320706-0.2051802-0.503906-0.2050781zm-5 5.0000004c-0.183341 0-0.366855 0.06803-0.503906 0.205078l-2.7910159 2.791016c-0.2006025 0.200596-0.2512249 0.500019-0.1582031 0.753906 0.034086-0.09303 0.084701-0.180406 0.1582031-0.253906l2.7910159-2.791016c0.137051-0.137048 0.320565-0.205078 0.503906-0.205078s0.366854 0.06803 0.503906 0.205078l2.791016 2.791016c0.0735 0.0735 0.124121 0.16088 0.158203 0.253906 0.09302-0.253887 0.0424-0.55331-0.158203-0.753906l-2.791016-2.791016c-0.137052-0.137048-0.320565-0.205078-0.503906-0.205078z" style="fill:#ffffff;opacity:.1"/>
 <path d="m11.5 0.99999956c-0.550023 0-1.100562 0.20408774-1.5117188 0.61523444l-8.3730468 8.3730466c-0.4738006 0.4737894-0.6643196 1.1320834-0.5917969 1.7617194 0.0528553-0.463141 0.2432837-0.913214 0.5917969-1.261719l8.3730468-8.373047c0.4111568-0.4111467 0.9616958-0.6152344 1.5117188-0.6152344 0.550026 0 1.100561 0.2040877 1.511719 0.6152344l8.371093 8.373047c0.348513 0.348505 0.540651 0.798334 0.59375 1.261719 0.07219-0.629967-0.119949-1.28793-0.59375-1.7617194l-8.371093-8.3730466c-0.411158-0.4111467-0.961693-0.61523444-1.511719-0.61523444z" style="fill:#ffffff;opacity:.1"/>
</svg>
