<svg width="24" height="24" version="1.1" viewBox="0 0 24 24" xmlns="http://www.w3.org/2000/svg">
 <rect transform="rotate(-90)" x="-21.5" y="2" width="6" height="20" rx="1" ry="1" style="opacity:.2"/>
 <rect transform="rotate(-90)" x="-21" y="2" width="6" height="20" rx="1" ry="1" style="fill:#8e8e8e"/>
 <path d="m15.5 16.5 1 3" style="opacity:.5;stroke-linecap:round;stroke:#000000"/>
 <path d="m17.5 16.5 1 3" style="opacity:.5;stroke-linecap:round;stroke:#000000"/>
 <path d="m19.5 16.5 1 3" style="opacity:.5;stroke-linecap:round;stroke:#000000"/>
 <path d="m13.5 16.5 1 3" style="opacity:.5;stroke-linecap:round;stroke:#000000"/>
 <circle transform="scale(-1,1)" cx="-9" cy="17.5" r="1" style="opacity:.2"/>
 <circle transform="scale(-1,1)" cx="-6.5" cy="17.5" r="1" style="opacity:.2"/>
 <circle transform="scale(-1,1)" cx="-4" cy="17.5" r="1" style="opacity:.2"/>
 <circle transform="scale(-1,1)" cx="-9" cy="17" r="1" style="fill:#76ff03"/>
 <circle transform="scale(-1,1)" cx="-6.5" cy="17" r="1" style="fill:#ffff00"/>
 <circle transform="scale(-1,1)" cx="-4" cy="17" r="1" style="fill:#ffcd40"/>
 <rect transform="rotate(-90)" x="-15.5" y="2" width="6" height="20" rx="1" ry="1" style="opacity:.2"/>
 <rect transform="rotate(-90)" x="-15" y="2" width="6" height="20" rx="1" ry="1" style="fill:#8e8e8e"/>
 <path d="m15.5 10.5 1 3" style="opacity:.5;stroke-linecap:round;stroke:#000000"/>
 <path d="m17.5 10.5 1 3" style="opacity:.5;stroke-linecap:round;stroke:#000000"/>
 <path d="m19.5 10.5 1 3" style="opacity:.5;stroke-linecap:round;stroke:#000000"/>
 <path d="m13.5 10.5 1 3" style="opacity:.5;stroke-linecap:round;stroke:#000000"/>
 <circle transform="scale(-1,1)" cx="-6.5" cy="11.5" r="1" style="opacity:.2"/>
 <circle transform="scale(-1,1)" cx="-4" cy="11.5" r="1" style="opacity:.2"/>
 <circle transform="scale(-1,1)" cx="-6.5" cy="11" r="1" style="fill:#ffff00"/>
 <circle transform="scale(-1,1)" cx="-4" cy="11" r="1" style="fill:#ffcd40"/>
 <rect transform="rotate(-90)" x="-9.5" y="2" width="6" height="20" rx="1" ry="1" style="opacity:.2"/>
 <rect transform="rotate(-90)" x="-9" y="2" width="6" height="20" rx="1" ry="1" style="fill:#8e8e8e"/>
 <path d="m15.5 4.5 1 3" style="opacity:.5;stroke-linecap:round;stroke:#000000"/>
 <path d="m17.5 4.5 1 3" style="opacity:.5;stroke-linecap:round;stroke:#000000"/>
 <path d="m19.5 4.5 1 3" style="opacity:.5;stroke-linecap:round;stroke:#000000"/>
 <path d="m13.5 4.5 1 3" style="opacity:.5;stroke-linecap:round;stroke:#000000"/>
 <circle transform="scale(-1,1)" cx="-4" cy="5.5" r="1" style="opacity:.2"/>
 <circle transform="scale(-1,1)" cx="-4" cy="5" r="1" style="fill:#ffcd40"/>
 <path d="m21 3c0.554 0 1 0.446 1 1v0.5c0-0.554-0.446-1-1-1h-18c-0.554 0-1 0.446-1 1v-0.5c0-0.554 0.446-1 1-1z" style="fill:#ffffff;opacity:.2"/>
</svg>
