<svg width="24" height="24" version="1.1" viewBox="0 0 24 24" xmlns="http://www.w3.org/2000/svg">
 <g transform="translate(0,-1028.3622)">
  <path d="m5.1428572 1038.8628s-1.1428572-0.057-1.1428572 1.0141v4.3635c1.0194038 3.8008 3.4792737 4.7222 5.3939734 5.8109 0.6854496 0.3898 1.6396896 0.8143 2.6060266 0.8109 0.966337 0 1.920578-0.4211 2.606027-0.8109 1.914699-1.0887 4.374569-2.0101 5.393973-5.8109v-4.3635c0-1.0713-1.142858-1.0141-1.142858-1.0141h-6.857142z" style="fill-rule:evenodd;opacity:.2"/>
  <path d="m12 1030.8622c-3.3137083 0-5.9999998 2.6863-5.9999998 6v6h5.9999998 6v-6c0-3.3137-2.686291-6-6-6zm0 2c2.20914 0 4 1.7907 4 4v4h-4-3.9999998v-4c0-2.2093 1.7908604-4 3.9999998-4z" style="opacity:.2"/>
  <path d="m12 1030.3622c-3.3137083 0-5.9999998 2.6863-5.9999998 6v6h5.9999998 6v-6c0-3.3137-2.686291-6-6-6zm0 2c2.20914 0 4 1.7906 4 4v4h-4-3.9999998v-4c0-2.2094 1.7908604-4 3.9999998-4z" style="fill:#cccccc"/>
  <path d="m5.1428572 1038.3628s-1.1428572-0.057-1.1428572 1.0141v4.3635c1.0194038 3.8008 3.4792737 4.7222 5.3939734 5.8109 0.6854496 0.3898 1.6396896 0.8143 2.6060266 0.8109 0.966337 0 1.920578-0.4211 2.606027-0.8109 1.914699-1.0887 4.374569-2.0101 5.393973-5.8109v-4.3635c0-1.0713-1.142858-1.0141-1.142858-1.0141h-6.857142z" style="fill-rule:evenodd;fill:#385455"/>
  <path d="m6.5 1043.8618-2.1230469 1.498c0.6687531 1.6492 1.6588075 2.633 2.7050781 3.3516l2.4179688-2.8496-0.5-1-1.5 0.5-1-1.5z" style="fill-rule:evenodd;opacity:.2"/>
  <path transform="translate(0,1028.3622)" d="m6.5 15l-2.1230469 1.498047c0.6687531 1.649168 1.6588075 2.63298 2.7050781 3.351562l2.4179688-2.849609-0.5-1-1.5 0.5-1-1.5z" style="fill-rule:evenodd;fill:#a2db44"/>
  <path d="m10.5 1046.8618-1.4765625 2.9844c0.1214486 0.066 0.253309 0.1381 0.3710937 0.2051 0.4490918 0.2553 1.0173398 0.5148 1.6249998 0.6699l0.480469-3.3594-1-0.5z" style="fill-rule:evenodd;opacity:.2"/>
  <path transform="translate(0,1028.3622)" d="m10.5 18l-1.4765625 2.984375c0.1214486 0.066416 0.253309 0.138106 0.3710937 0.205078 0.4490918 0.255389 1.0173398 0.514845 1.6249998 0.669922l0.480469-3.359375-1-0.5z" style="fill-rule:evenodd;fill:#a2db44"/>
  <path d="m6.0000002 1039.8618v2h3v-1.25z" style="fill-rule:evenodd;opacity:.2"/>
  <path d="m6.0000002 1039.3622v2h3v-1.25z" style="fill-rule:evenodd;fill:#a2db44"/>
  <path d="m17.5 1043.8618 2.123047 1.498c-0.668753 1.6492-1.658808 2.633-2.705078 3.3516l-2.417969-2.8496 0.5-1 1.5 0.5 1-1.5z" style="fill-rule:evenodd;opacity:.2"/>
  <path transform="translate(0,1028.3622)" d="m 12,11 c -0.05021,7.15e-4 -0.100377,0.0033 -0.150391,0.0078 C 10.807165,11.086421 10.001124,11.954596 10,13 c 1.53e-4,0.745519 0.414953,1.429072 1.076172,1.773438 L 10.5,16.5 l 1.5,1 1.5,-1 -0.576172,-1.726562 C 13.585047,14.429072 13.999847,13.745519 14,13 13.998972,11.944719 13.178218,11.071814 12.125,11.005859 12.083433,11.002168 12.04173,11.000213 12,11 Z" style="opacity:.3"/>
  <path d="m12 1030.3622c-3.3137083 0-5.9999998 2.6863-5.9999998 6v0.5c0-3.3137 2.6862915-6 5.9999998-6 3.313709 0 6 2.6863 6 6v-0.5c0-3.3137-2.686291-6-6-6z" style="fill:#ffffff;opacity:.1"/>
  <path d="m13.5 1046.8618 1.476563 2.9844c-0.121449 0.066-0.253309 0.1381-0.371094 0.2051-0.449092 0.2553-1.01734 0.5148-1.625 0.6699l-0.480469-3.3594 1-0.5z" style="fill-rule:evenodd;opacity:.2"/>
  <path d="m17.5 1043.3622 2.123047 1.498c-0.668753 1.6492-1.658808 2.633-2.705078 3.3516l-2.417969-2.8496 0.5-1 1.5 0.5 1-1.5z" style="fill-rule:evenodd;fill:#a2db44"/>
  <path d="m18 1039.8618v2h-3v-1.25z" style="fill-rule:evenodd;opacity:.2"/>
  <path d="m13.5 1046.3622 1.476563 2.9844c-0.121449 0.066-0.253309 0.1381-0.371094 0.2051-0.449092 0.2553-1.01734 0.5148-1.625 0.6699l-0.480469-3.3594 1-0.5z" style="fill-rule:evenodd;fill:#a2db44"/>
  <path d="m18 1039.3622v2h-3v-1.25z" style="fill-rule:evenodd;fill:#a2db44"/>
  <path transform="translate(0,1028.3622)" d="m5.1425781 10s-1.1425781-0.055475-1.1425781 1.015625v0.5c0-1.0711 1.1425781-1.015625 1.1425781-1.015625h6.8574219 6.857422s1.142578-0.055675 1.142578 1.015625v-0.5c0-1.0713-1.142578-1.015625-1.142578-1.015625h-6.857422-6.8574219z" style="fill-rule:evenodd;fill:#ffffff;opacity:.1"/>
 </g>
</svg>
