<svg width="24" height="24" version="1" xmlns="http://www.w3.org/2000/svg">
 <path d="m12 2h-9c-0.554 0-1 0.446-1 1v9h10z" style="fill:#21d789"/>
 <path d="m12 2h9c0.554 0 1 0.446 1 1v9h-10z" style="fill:#cf4f8c"/>
 <path d="m12 22h-9c-0.554 0-1-0.446-1-1v-9h10z" style="fill:#2086e7"/>
 <path d="m12 22h9c0.554 0 1-0.446 1-1v-9h-10z" style="fill:#6655e4"/>
 <path d="m3 2c-0.554 0-1 0.446-1 1v0.5c0-0.554 0.446-1 1-1h18c0.554 0 1 0.446 1 1v-0.5c0-0.554-0.446-1-1-1z" style="fill:#ffffff;opacity:.2"/>
 <path d="m3 22.5c-0.554 0-1-0.446-1-1v-0.5c0 0.554 0.446 1 1 1h18c0.554 0 1-0.446 1-1v0.5c0 0.554-0.446 1-1 1z" style="opacity:.2"/>
 <rect x="5" y="5" width="14" height="14" style="fill:#3f3f3f"/>
 <path d="m7.5071212 15.99995h3.9999998" style="fill:none;opacity:.2;stroke-linecap:round;stroke:#000000"/>
 <path d="m7.5071212 15.5h3.9999998" style="fill:none;stroke-linecap:round;stroke:#ffffff"/>
 <path d="m7.5141702 12.003157s2.021892 0.175125 2-1.999999c-0.02189-2.175132-2-2.0000015-2-2.0000015m-0.007049 3.9967935v-3.999999" style="fill:none;opacity:.2;stroke-linecap:round;stroke-linejoin:bevel;stroke-width:.99999994;stroke:#000000"/>
 <path d="m7.5141702 11.503207s2.021892 0.175125 2-1.999999c-0.02189-2.175132-2-2.0000015-2-2.0000015m-0.007049 3.9967935v-3.999999" style="fill:none;stroke-linecap:round;stroke-linejoin:bevel;stroke-width:.99999994;stroke:#ffffff"/>
 <path d="m13.007121 10h0.999999m-0.499999 0s0.245452 2-1.000001 2c-0.999999 0-0.999999-1-0.999999-2.000001 0-0.999999 0-1.9999995 0.999999-1.9999995 1.000001 0 0.996189 0.4999995 0.996189 0.4999995" style="fill:none;opacity:.2;stroke-linecap:round;stroke-linejoin:bevel;stroke-width:.99999994;stroke:#000000"/>
 <path d="m13.007121 9.5h0.999999m-0.499999 0s0.245452 2-1.000001 2c-0.999999 0-0.999999-1-0.999999-2.000001 0-0.999999 0-1.9999995 0.999999-1.9999995 1.000001 0 0.996189 0.4999995 0.996189 0.4999995" style="fill:none;stroke-linecap:round;stroke-linejoin:bevel;stroke-width:.99999994;stroke:#ffffff"/>
</svg>
