<svg width="24" height="24" version="1.1" viewBox="0 0 24 24" xmlns="http://www.w3.org/2000/svg">
 <path d="m3.3609995 2.8843576c0.4847381 0.3384662 1.0303 0.8472873 1.6183109 1.3064166 0.4485551 0.4196406 0.5206896 0.6249905 0.5206896 1.2929768v7.697482c0 2.049926 0.23959 3.536907-0.449 5.089581-0.7599643 1.713615-2.6459531 1.946099-3.7563791 3.465764-1.0573123 1.307542 1.009599 0.683842 1.8204456 0.273856 1.737838-0.878696 3.401696-1.220191 5.4835085-1.447428 2.624667-0.05187 4.699401-0.01 7.084613-0.0635 4.316812 0 6.316812-4 6.316812-9.428046 0-4.5719564-2-8.5719564-6.722235-8.5498425-4.0384-0.0186918-10.079072-0.0215843-11.944765-0.022032-0.5331611-8.19e-5 -0.3095518 0.1503656 0.0279991 0.3847721z" style="fill-rule:evenodd;opacity:.2"/>
 <path d="m3.3609995 2.3848536c0.4847381 0.3384662 1.0303 0.8472873 1.6183109 1.3064166 0.4485551 0.4196406 0.5206896 0.6249905 0.5206896 1.2929768v7.69748c0 2.049926 0.23959 3.536907-0.449 5.089581-0.7599643 1.713615-2.6459531 1.946099-3.7563791 3.465764-1.0573123 1.307542 1.009599 0.683842 1.8204456 0.273856 1.737838-0.878696 3.401696-1.220191 5.4835085-1.447428 2.624667-0.051873 4.699401-0.01 7.084613-0.0635 4.316812 0 6.316812-4 6.316812-9.428044 0-4.5719564-2-8.5719564-6.722235-8.5498425-4.0384-0.0186918-10.079072-0.0215843-11.944765-0.022032-0.5331611-8.19e-5 -0.3095518 0.1503656 0.0279991 0.3847721z" style="fill-rule:evenodd;fill:#e97e10"/>
 <path d="m9.8267855 5.5001969c1.5038885 0.00279 4.5874795 0.043395 5.1922135 0.3258296 2.641368 1.427829 3.036601 3.14031 2.981001 5.5802365 0.07326 2.207769-0.771698 4.588211-2.981001 5.717157-0.806312 0.37658-5.885138 0.37658-5.885138 0.37658l-0.133861-11.997597s0.3254905-0.00314 0.8267855-0.00224z" style="fill-rule:evenodd;opacity:.2"/>
 <path d="m 9.8267855,5.0001969 c 1.5038885,0.00279 4.5874795,0.043395 5.1922135,0.3258296 C 17.660367,6.7538555 18.0556,8.4663365 18,10.906263 18.07326,13.114032 17.228302,15.494474 15.018999,16.62342 14.212687,17 9.133861,17 9.133861,17 L 9,5.0024034 c 0,0 0.3254905,-0.00314 0.8267855,-0.00224 z" style="fill-rule:evenodd;fill:#ffffff"/>
 <path d="m7.0133447 10.5c-0.065843 0.03275 0.1226965 0.496116 0.330078 0.785156 0.316137 0.440621 0.525693 0.698586 0.963867 1.097657 0.5735363 0.522353 0.7237576 0.608739 0.9648446 0.852539s0.7409497 0.609375 0.7409497 0.609375v7.314452c0 0.487599-0.6375467 0.794863-0.7978517 0.853516-0.2262768 0.08279-1.215493 0.243164-1.215493 0.243164v0.244141h7.0002607v-0.244141s-1.060833-0.160372-1.28711-0.243164c-0.160305-0.05865-0.635433-0.372108-0.71289-0.853516v-7.435546c0-0.524814 0.464391-0.652643 0.647461-0.731445 0.24801-0.106756 1.202601-0.122412 1.323145-0.366211 0.120542-0.2438-0.151366-0.122621-0.241211-0.122071-0.865653 5e-3 -3.872561 0-3.872561 0-0.588917 1e-6 -1.3499467 0.01348-1.8259107-0.243164-0.3363623-0.18137-0.6565411-0.42066-0.9638676-0.731445l-0.964844-0.975586c-0.045204-0.04571-0.073672-0.061271-0.088867-0.053711z" style="fill-rule:evenodd;opacity:.2"/>
 <path d="m7.0133447 9.9999996c-0.065843 0.03275 0.1226965 0.4961164 0.330078 0.7851564 0.316137 0.440621 0.525693 0.698586 0.963867 1.097657 0.5735363 0.522353 0.7237576 0.608739 0.9648446 0.852539s0.7409497 0.609375 0.7409497 0.609375v7.314452c0 0.487599-0.6375467 0.794863-0.7978517 0.853516-0.2262768 0.08279-1.215493 0.243164-1.215493 0.243164v0.244141h7.0002607v-0.244141s-1.060833-0.160372-1.28711-0.243164c-0.160305-0.05865-0.635433-0.372108-0.71289-0.853516v-7.435546c0-0.524814 0.464391-0.652643 0.647461-0.731445 0.24801-0.106756 1.202601-0.122412 1.323145-0.366211 0.120542-0.2438-0.151366-0.122621-0.241211-0.122071-0.865653 5e-3 -3.872561 0-3.872561 0-0.588917 1e-6 -1.3499467 0.01348-1.8259107-0.243164-0.3363623-0.18137-0.6565411-0.42066-0.9638676-0.731445l-0.964844-0.975586c-0.045204-0.04571-0.073672-0.061271-0.088867-0.0537114z" style="fill-rule:evenodd;fill:#c2352a"/>
 <path d="m3.3320312 1.9999996c-0.5331611-8.19e-5 -0.308254 0.1503591 0.029297 0.3847656 0.046076 0.032173 0.099325 0.080172 0.1464844 0.1152344 1.9579849 5.149e-4 7.7905585 0.00307 11.769532 0.021484 4.642009-0.021738 6.641978 3.8480645 6.708984 8.322266 0.0011979-0.0929876 0.0136719-0.1776296 0.0136719-0.2714846 0-4.5719558-2.000421-8.5728949-6.722656-8.550781-4.0384-0.0186918-10.079621-0.0210367-11.945313-0.0214844zm2.1992188 13.447266c-0.028282 0.808423-0.1411538 1.559111-0.4804688 2.324218-0.7599643 1.713615-2.6454333 1.945179-3.7558593 3.464844-0.3589773 0.443935-0.34221063 0.653685-0.1523438 0.736328 0.045619-0.07581 0.075014-0.140697 0.1523438-0.236328 1.110426-1.519665 2.995895-1.751229 3.7558593-3.464844 0.4063724-0.916312 0.4806069-1.824456 0.4804688-2.824218z" style="fill-rule:evenodd;fill:#ffffff;opacity:.2"/>
 <path d="m22.98757 10.5c0.06584 0.03275-0.122696 0.496116-0.330078 0.785156-0.316137 0.440621-0.525693 0.698586-0.963867 1.097657-0.573536 0.522353-0.723757 0.608739-0.964844 0.852539s-0.74095 0.609375-0.74095 0.609375v7.314452c0 0.487599 0.637547 0.794863 0.797852 0.853516 0.226276 0.08279 1.215493 0.243164 1.215493 0.243164v0.244141h-7.000261v-0.244141s1.060833-0.160372 1.28711-0.243164c0.160305-0.05865 0.635433-0.372108 0.71289-0.853516v-7.435546c0-0.524814-0.464391-0.652643-0.647461-0.731445-0.24801-0.106756-1.202601-0.122412-1.323145-0.366211-0.120542-0.2438 0.151366-0.122621 0.241211-0.122071 0.865653 5e-3 3.872561 0 3.872561 0 0.588917 1e-6 1.349947 0.01348 1.825911-0.243164 0.336362-0.18137 0.656541-0.42066 0.963867-0.731445l0.964844-0.975586c0.0452-0.04571 0.07367-0.06127 0.08887-0.05371z" style="fill-rule:evenodd;opacity:.2"/>
 <path d="m22.98757 9.9999996c0.06584 0.03275-0.122696 0.4961164-0.330078 0.7851564-0.316137 0.440621-0.525693 0.698586-0.963867 1.097657-0.573536 0.522353-0.723757 0.608739-0.964844 0.852539s-0.74095 0.609375-0.74095 0.609375v7.314452c0 0.487599 0.637547 0.794863 0.797852 0.853516 0.226276 0.08279 1.215493 0.243164 1.215493 0.243164v0.244141h-7.000261v-0.244141s1.060833-0.160372 1.28711-0.243164c0.160305-0.05865 0.635433-0.372108 0.71289-0.853516v-7.435546c0-0.524814-0.464391-0.652643-0.647461-0.731445-0.24801-0.106756-1.202601-0.122412-1.323145-0.366211-0.120542-0.2438 0.151366-0.122621 0.241211-0.122071 0.865653 5e-3 3.872561 0 3.872561 0 0.588917 1e-6 1.349947 0.01348 1.825911-0.243164 0.336362-0.18137 0.656541-0.42066 0.963867-0.731445l0.964844-0.975586c0.0452-0.04571 0.07367-0.061271 0.08887-0.05371z" style="fill-rule:evenodd;fill:#c2352a"/>
</svg>
