<svg width="24" height="24" version="1" xmlns="http://www.w3.org/2000/svg">
 <g transform="translate(1 1)">
  <rect transform="rotate(45)" x="8.19" y="-7.36" width="14.727" height="14.727" rx="1" ry="1" fill="#ffc35a"/>
  <path d="m11 5.5001v3.493l-2 2 7e-3 7e-3h-7e-3v5.0001h1v-4.5931l1-1v5.5931h1v-10.5z" fill="#2e2e2e" stroke-opacity=".55" stroke-width="2.8"/>
  <path d="m1.0361 11.25c-0.086101 0.3315-0.0028 0.69651 0.2578 0.95701l8.9991 8.9991c0.3915 0.392 1.0225 0.392 1.414 0l8.9991-8.9991c0.2605-0.2605 0.344-0.62551 0.258-0.95701-0.0435 0.167-0.127 0.326-0.258 0.457l-8.9991 8.9991c-0.3915 0.392-1.0225 0.392-1.414 0l-8.9991-8.999c-0.1313-0.131-0.2146-0.29-0.2579-0.457z" opacity=".2"/>
  <path d="m11 1c-0.2555 0-0.51101 0.098051-0.70701 0.29395l-8.9991 8.999c-0.26065 0.2605-0.34395 0.62551-0.25785 0.95701 0.0433-0.167 0.1266-0.326 0.2578-0.45701l8.9992-8.999c0.3915-0.3918 1.0225-0.3918 1.414-5e-5l8.9991 8.9991c0.131 0.131 0.2145 0.29 0.258 0.45701 0.086-0.3315 0.0025-0.69651-0.258-0.95701l-8.999-8.9991c-0.196-0.1959-0.452-0.29398-0.707-0.29398z" fill="#fff" opacity=".2"/>
 </g>
</svg>
