<svg width="24" height="24" version="1" xmlns="http://www.w3.org/2000/svg">
 <path d="m15 2.5c-3.866 0-7 3.134-7 7s3.134 7 7 7 7-3.134 7-7v-6c0-0.55-0.446-1-1-1z" style="opacity:.2"/>
 <path d="m9 8.5c-3.866 0-7 3.134-7 7v6c0 0.55 0.446 1 1 1h6c3.866 0 7-3.134 7-7s-3.134-7-7-7z" style="opacity:.2"/>
 <path d="m15 2c-3.866 0-7 3.134-7 7s3.134 7 7 7 7-3.134 7-7v-6c0-0.55-0.446-1-1-1z" style="fill:#666666"/>
 <path d="m15 14.5c2.77 0 5-2.23 5-5v-5h-5c-2.77 0-5 2.23-5 5s2.23 5 5 5z" style="opacity:.2"/>
 <path d="m15 14c2.77 0 5-2.23 5-5v-5h-5c-2.77 0-5 2.23-5 5s2.23 5 5 5z" style="fill:#ececec"/>
 <path d="m15 2c-3.866 0-7 3.134-7 7 0 0.0845 0.0107 0.1662 0.0137 0.25 0.1329-3.7491 3.2053-6.75 6.9863-6.75h6c0.554 0 1 0.45 1 1v-0.5c0-0.55-0.446-1-1-1h-6z" style="fill:#ffffff;opacity:.1"/>
 <path d="m9 8c-3.866 0-7 3.134-7 7v6c0 0.55 0.446 1 1 1h6c3.866 0 7-3.134 7-7s-3.134-7-7-7z" style="fill:#808080"/>
 <path d="m9 10.5c-2.77 0-5 2.23-5 5v5h5c2.77 0 5-2.23 5-5s-2.23-5-5-5z" style="opacity:.2"/>
 <path d="m9 10c-2.77 0-5 2.23-5 5v5h5c2.77 0 5-2.23 5-5s-2.23-5-5-5z" style="fill:#ffffff"/>
 <path d="m9 8c-3.866 0-7 3.134-7 7v0.5c0-3.866 3.134-7 7-7 3.781 0 6.853 3.001 6.986 6.75 3e-3 -0.084 0.014-0.165 0.014-0.25 0-3.866-3.134-7-7-7z" style="fill:#ffffff;opacity:.2"/>
</svg>
