<svg width="24" height="24" version="1" xmlns="http://www.w3.org/2000/svg">
 <path d="m3 3.5c-1.1045238 1.104e-4 -1.9998896 0.8954762-2 2v14c1.104e-4 1.104524 0.8954762 1.99989 2 2h1c1.1045238-1.1e-4 1.9998896-0.895476 2-2h12c1.1e-4 1.104524 0.895476 1.99989 2 2h1c1.104524-1.1e-4 1.99989-0.895476 2-2v-14c-1.1e-4 -1.1045238-0.895476-1.9998896-2-2h-1c-1.104524 1.104e-4 -1.99989 0.8954762-2 2h-12c-1.104e-4 -1.1045238-0.8954762-1.9998896-2-2z" style="opacity:.2"/>
 <path d="m3 3c-1.1045238 1.104e-4 -1.9998896 0.8954762-2 2v14c1.104e-4 1.104524 0.8954762 1.99989 2 2h1c1.1045238-1.1e-4 1.9998896-0.895476 2-2h12c1.1e-4 1.104524 0.895476 1.99989 2 2h1c1.104524-1.1e-4 1.99989-0.895476 2-2v-14c-1.1e-4 -1.1045238-0.895476-1.9998896-2-2h-1c-1.104524 1.104e-4 -1.99989 0.8954762-2 2h-12c-1.104e-4 -1.1045238-0.8954762-1.9998896-2-2z" style="fill:#37a0f2"/>
 <path d="m3 5.5v14h1v-14zm17 0v14h1v-14zm-15 2v10h1v-10zm2 0v10h10v-10zm11 0v10h1v-10zm-10 1h8v8h-8z" style="opacity:.2"/>
 <path d="m3 5v14h1v-14zm17 0v14h1v-14zm-15 2v10h1v-10zm2 0v10h10v-10zm11 0v10h1v-10zm-10 1h8v8h-8z" style="fill:#ffffff"/>
 <path d="m3 3c-1.1045238 1.104e-4 -1.9998896 0.8954762-2 2v0.5c1.104e-4 -1.1045238 0.8954762-1.9998896 2-2h1c1.1045238 1.104e-4 1.9998896 0.8954762 2 2h12c1.1e-4 -1.1045238 0.895476-1.9998896 2-2h1c1.104524 1.104e-4 1.99989 0.8954762 2 2v-0.5c-1.1e-4 -1.1045238-0.895476-1.9998896-2-2h-1c-1.104524 1.104e-4 -1.99989 0.8954762-2 2h-12c-1.104e-4 -1.1045238-0.8954762-1.9998896-2-2h-1z" style="fill:#ffffff;opacity:.2"/>
</svg>
