<svg width="24" height="24" version="1.1" viewBox="0 0 24 24" xmlns="http://www.w3.org/2000/svg">
 <circle cx="12" cy="12.5" r="10" style="opacity:.2"/>
 <path d="M 22,12 C 22,17.522847 17.522847,22 12,22 6.4771525,22 2,17.522847 2,12 2,6.4771525 6.4771525,2 12,2 c 0.11214,0 0.318545,0.8304443 0.429794,0.8341072 2.503245,0.082421 3.637303,1.4636555 5.34764,3.0588668 1.892081,1.764722 3.406488,3.0238185 3.484625,5.796347 C 21.264746,11.784662 22,11.90401 22,12 Z" style="fill:#8e8e8e"/>
 <path d="m22 12h-10v-10c5.522847 0 10 4.4771525 10 10z" style="fill:#ff9044"/>
 <path d="M 12,2 A 10,10 0 0 0 2,12 10,10 0 0 0 2.01075,12.291 10,10 0 0 1 12,2.5 10,10 0 0 1 21.9895,12.209 10,10 0 0 0 22,12 10,10 0 0 0 12,2 Z" style="fill:#ffffff;opacity:.2"/>
 <path d="m12 5.5a7 7 0 0 0 -7 7 7 7 0 0 0 7 7 7 7 0 0 0 7 -7 7 7 0 0 0 -7 -7zm0 1a6 6 0 0 1 6 6 6 6 0 0 1 -6 6 6 6 0 0 1 -6 -6 6 6 0 0 1 6 -6z" style="opacity:.2"/>
 <path d="m12 5a7 7 0 0 0 -7 7 7 7 0 0 0 7 7 7 7 0 0 0 7 -7 7 7 0 0 0 -7 -7zm0 1a6 6 0 0 1 6 6 6 6 0 0 1 -6 6 6 6 0 0 1 -6 -6 6 6 0 0 1 6 -6z" style="fill:#ffffff"/>
 <circle cx="12" cy="12.5" r="4" style="opacity:.2"/>
 <circle cx="12" cy="12" r="4" style="fill:#ffffff"/>
 <circle cx="12" cy="12" r="3" style="fill:#3f3f3f"/>
</svg>
