<svg width="24" height="24" version="1" xmlns="http://www.w3.org/2000/svg">
 <rect transform="matrix(0,-1,-1,0,0,0)" x="-22.5" y="-22" width="21" height="21" rx="1.05" ry="1.05" style="opacity:.2"/>
 <rect transform="matrix(0,-1,-1,0,0,0)" x="-22" y="-22" width="21" height="21" rx="1.05" ry="1.05" style="fill:#4f4f4f"/>
 <path d="m3 6.5v2 2 2 5h2v-5h3v-2h-3v-2h3v-2h-3-2zm6 0v11h2 3v-2h-3v-3h3v-2h-3v-2h3v-2h-3-2zm6 0v11h2v-5h1v5h2v-5-2-4h-2v4h-1v-4h-2z" style="opacity:.2"/>
 <rect x="3" y="6" width="2" height="11" style="fill:#df4545"/>
 <rect transform="rotate(90)" x="6" y="-8" width="2" height="5" style="fill:#df4545"/>
 <rect transform="rotate(90)" x="10" y="-8" width="2" height="5" style="fill:#df4545"/>
 <rect x="9" y="6" width="2" height="11" style="fill:#df4545"/>
 <rect transform="rotate(90)" x="6" y="-14" width="2" height="5" style="fill:#df4545"/>
 <rect transform="rotate(90)" x="10" y="-14" width="2" height="5" style="fill:#df4545"/>
 <rect x="15" y="6" width="2" height="11" style="fill:#df4545"/>
 <rect transform="rotate(90)" x="10" y="-20" width="2" height="5" style="fill:#df4545"/>
 <rect transform="rotate(90)" x="15" y="-14" width="2" height="5" style="fill:#df4545"/>
 <rect x="18" y="6" width="2" height="11" style="fill:#df4545"/>
 <path d="M 2.0507812,1 C 1.4690813,1 1,1.4690813 1,2.0507812 l 0,0.5 C 1,1.9690813 1.4690813,1.5 2.0507812,1.5 l 18.8984378,0 C 21.530919,1.5 22,1.9690813 22,2.5507812 l 0,-0.5 C 22,1.4690813 21.530919,1 20.949219,1 L 2.0507812,1 Z" style="fill:#ffffff;opacity:.1"/>
 <path d="m3 6v0.5h2 3v-0.5h-3-2zm6 0v0.5h2 3v-0.5h-3-2zm6 0v0.5h2v-0.5h-2zm3 0v0.5h2v-0.5h-2zm-13 4v0.5h3v-0.5h-3zm6 0v0.5h3v-0.5h-3zm6 0v0.5h1v-0.5h-1zm-6 5v0.5h3v-0.5h-3z" style="fill:#ffffff;opacity:.1"/>
</svg>
