<svg width="24" height="24" version="1" xmlns="http://www.w3.org/2000/svg">
 <path d="m14.05905 2.5c-0.278138-0.00161-0.57971 0.0066-0.904147 0.033203-0.580752 0.047637-1.550263 0.1689683-2.548407 0.6914063-1.4918821 0.7808577-2.6108971 2.066743-2.6108971 4.2441407v0.2285156c-0.75792 0.2034292-1.4902817 0.5373887-1.9840472 1.0917969-0.7240716 0.8129996-1.0115517 1.7725385-1.0115517 2.6894535 0 0.916914 0.2874801 1.878406 1.0115517 2.691406 0.099967 0.112246 0.263605 0.167311 0.3807964 0.267578-0.2394281 0.650896-0.3976264 1.333653-0.3983717 2.050781a2.9998044 3.0003 0 0 0 0 0.0039c6e-7 3.268287 2.6996386 6.007819 5.9814336 6.007819 3.281794 0 5.979481-2.739533 5.979481-6.007812a2.9998044 3.0003 0 0 0 0 -0.0039c-7.63e-4 -0.711859-0.156368-1.390104-0.392513-2.037109 0.124625-0.105106 0.296745-0.162757 0.402277-0.28125 0.724072-0.813 1.011552-1.774492 1.011552-2.691406 0-0.839545-0.284212-1.702843-0.880714-2.4687504 0.454543-0.5907547 0.774468-1.2333196 0.865092-1.9003976 0.1245-0.9164492-0.033199-1.9166755-0.656142-2.828125-0.617336-0.9032443-1.769661-1.5615357-2.862809-1.6835938-0.08819-0.0127286-0.619136-0.0932151-1.382584-0.0976562z" style="opacity:.2"/>
 <path d="m14.05905 2c-0.278138-0.00161-0.57971 0.0066-0.904147 0.033203-0.580752 0.047637-1.550263 0.1689683-2.548407 0.6914063-1.4918821 0.7808577-2.6108971 2.066743-2.6108971 4.2441407v0.2285156c-0.75792 0.2034292-1.4902817 0.5373887-1.9840472 1.0917969-0.7240716 0.8129996-1.0115517 1.7725385-1.0115517 2.6894535 0 0.916914 0.2874801 1.878406 1.0115517 2.691406 0.099967 0.112246 0.263605 0.167311 0.3807964 0.267578-0.2394281 0.650896-0.3976264 1.333653-0.3983717 2.050781a2.9998044 3.0003 0 0 0 0 0.0039c6e-7 3.268287 2.6996386 6.007819 5.9814336 6.007819 3.281794 0 5.979481-2.739533 5.979481-6.007812a2.9998044 3.0003 0 0 0 0 -0.0039c-7.63e-4 -0.711859-0.156368-1.390104-0.392513-2.037109 0.124625-0.105106 0.296745-0.162757 0.402277-0.28125 0.724072-0.813 1.011552-1.774492 1.011552-2.691406 0-0.839545-0.284212-1.7028432-0.880714-2.4687504 0.454543-0.5907547 0.774468-1.2333196 0.865092-1.9003976 0.1245-0.9164492-0.033199-1.9166755-0.656142-2.828125-0.617336-0.9032443-1.769661-1.5615357-2.862809-1.6835938-0.08819-0.0127286-0.619136-0.0932151-1.382584-0.0976562z" style="fill:#c2352a"/>
 <path d="m14.043042 5.5001335c-0.201619-0.00117-0.420276 0.00528-0.642486 0.0235-0.444422 0.036448-0.919209 0.1060081-1.401436 0.3583684-0.482231 0.2523602-1.003522 0.8752561-1.003522 1.5862207v3.0079444h-1.9876321a0.99391546 1.0027484 0 1 0 0 2.005296h1.9876321v1.17302a2.9814482 3.0079445 0 0 0 -2.0012195 2.837573 2.9814482 3.0079445 0 0 0 2.9814485 3.007944 2.9814482 3.0079445 0 0 0 2.981448 -3.007944 2.9814482 3.0079445 0 0 0 -1.974045 -2.827781v-1.182812h1.987632a0.99391546 1.0027484 0 1 0 0 -2.005296h-1.987632v-2.8297398c0.104046-0.041555 0.309992-0.1013576 0.578432-0.1233727 0.601881-0.049361 1.275268 0.035249 1.275268 0.035249a0.99391546 1.0027484 0 1 0 0.269806 -1.985713s-0.458837-0.068939-1.063694-0.072457zm-2.170091 9.9951485a0.99391546 1.0027484 0 0 0 0.22128 2e-3 0.99381607 1.0026482 0 0 1 0.875412 0.994769 0.99381607 1.0026482 0 0 1 -0.993816 1.002648 0.99381607 1.0026482 0 0 1 -0.993816 -1.002648 0.99381607 1.0026482 0 0 1 0.89094 -0.996774z" style="opacity:.2"/>
 <path d="m14.043042 5.0001335c-0.201619-0.00117-0.420276 0.00528-0.642486 0.0235-0.444422 0.036448-0.919209 0.1060081-1.401436 0.3583684-0.482231 0.2523602-1.003522 0.8752561-1.003522 1.5862207v3.007944h-1.9876321a0.99391546 1.0027484 0 1 0 0 2.0052964h1.9876321v1.17302a2.9814482 3.0079445 0 0 0 -2.0012195 2.837573 2.9814482 3.0079445 0 0 0 2.9814485 3.007944 2.9814482 3.0079445 0 0 0 2.981448 -3.007944 2.9814482 3.0079445 0 0 0 -1.974045 -2.827781v-1.182812h1.987632a0.99391546 1.0027484 0 1 0 0 -2.0052964h-1.987632v-2.8297394c0.104046-0.041555 0.309992-0.1013576 0.578432-0.1233727 0.601881-0.049361 1.275268 0.035249 1.275268 0.035249a0.99391546 1.0027484 0 1 0 0.269806 -1.985713s-0.458837-0.068939-1.063694-0.072457zm-2.170091 9.9951485a0.99391546 1.0027484 0 0 0 0.22128 2e-3 0.99381607 1.0026482 0 0 1 0.875412 0.994769 0.99381607 1.0026482 0 0 1 -0.993816 1.002648 0.99381607 1.0026482 0 0 1 -0.993816 -1.002648 0.99381607 1.0026482 0 0 1 0.89094 -0.996774z" style="fill:#ffffff"/>
 <path d="m14.058594 2c-0.278138-0.00161-0.57986 0.0066001-0.904297 0.0332031-0.580752 0.047637-1.548731 0.1689683-2.546875 0.6914063-1.4918822 0.7808577-2.6113283 2.0667429-2.6113282 4.2441406v0.2285156c-0.7579201 0.2034292-1.4906096 0.5373887-1.984375 1.0917969-0.7240717 0.8129996-1.0117188 1.7725385-1.0117188 2.6894535 0 0.082627 0.0147531 0.166789 0.0195312 0.25 0.0482452-0.83988 0.3333655-1.6997172 0.9921876-2.4394535 0.4937654-0.5544082 1.2264549-0.8883677 1.984375-1.0917969v-0.2285156c-1e-7 -2.1773977 1.119446-3.4632829 2.6113282-4.2441406 0.998144-0.522438 1.966123-0.6437693 2.546875-0.6914063 0.324437-0.026603 0.626159-0.0348131 0.904297-0.0332031 0.763448 0.0044411 1.294622 0.0849277 1.382812 0.0976562 1.093148 0.1220581 2.245946 0.7803495 2.863282 1.6835938 0.434036 0.6350541 0.631547 1.3117254 0.675781 1.9746094 0.044084-0.8169845-0.131367-1.6780572-0.675781-2.4746094-0.617336-0.9032443-1.770134-1.5615357-2.863282-1.6835938-0.08819-0.0127285-0.619364-0.0932151-1.382812-0.0976562zm4.207031 6.765625c-0.056158 0.0814662-0.108637 0.1644912-0.169922 0.2441406 0.539418 0.6926116 0.809951 1.4642524 0.859375 2.2265624 0.00509-0.085861 0.021484-0.172567 0.021484-0.257812 0-0.748285-0.239493-1.5126436-0.710937-2.212891zm-11.994141 5.591797c-0.1595683 0.524914-0.2767549 1.064272-0.2773438 1.630859a2.9998044 3.0003 0 0 0 0 0.003907c0 0.086327 0.0099439 0.17031 0.0136719 0.255859 0.0313754-0.629183 0.1724078-1.233243 0.3847656-1.810547-0.0360985-0.030885-0.0793996-0.054778-0.1210937-0.080078zm11.41211 0.015625c-0.041311 0.025121-0.084983 0.047669-0.121094 0.078125 0.209467 0.57391 0.348037 1.174101 0.378906 1.798828 0.003782-0.086194 0.013672-0.170828 0.013672-0.257812a2.9998044 3.0003 0 0 0 0 -0.003907c-6.01e-4 -0.560808-0.11501-1.09499-0.271484-1.615234z" style="fill:#ffffff;opacity:.2"/>
</svg>
