<svg width="24" height="24" version="1" xmlns="http://www.w3.org/2000/svg">
 <g transform="translate(1,1)">
  <path d="m1.5 1c-0.277 0-0.5 0.223-0.5 0.5v5c0 0.277 0.223 0.5 0.5 0.5h5c0.277 0 0.5-0.223 0.5-0.5v-5c0-0.277-0.223-0.5-0.5-0.5h-5zm14 0c-0.277 0-0.5 0.223-0.5 0.5v5c0 0.277 0.223 0.5 0.5 0.5h5c0.277 0 0.5-0.223 0.5-0.5v-5c0-0.277-0.223-0.5-0.5-0.5h-5zm-7 7c-0.277 0-0.5 0.223-0.5 0.5v5c0 0.277 0.223 0.5 0.5 0.5h5c0.277 0 0.5-0.223 0.5-0.5v-5c0-0.277-0.223-0.5-0.5-0.5h-5zm-7 7c-0.277 0-0.5 0.223-0.5 0.5v5c0 0.277 0.223 0.5 0.5 0.5h5c0.277 0 0.5-0.223 0.5-0.5v-5c0-0.277-0.223-0.5-0.5-0.5h-5zm14 0c-0.277 0-0.5 0.223-0.5 0.5v5c0 0.277 0.223 0.5 0.5 0.5h5c0.277 0 0.5-0.223 0.5-0.5v-5c0-0.277-0.223-0.5-0.5-0.5h-5z" fill="#ccc"/>
  <rect x="8" y="1" width="6" height="6" rx=".5" ry=".5" fill="#adadad"/>
  <path d="m1.5 8h5c0.277 0 0.5 0.223 0.5 0.5v5c0 0.277-0.223 0.5-0.5 0.5h-5c-0.277 0-0.5-0.223-0.5-0.5v-5c0-0.277 0.223-0.5 0.5-0.5z" fill="#adadad"/>
  <path d="m15.5 8h5c0.277 0 0.5 0.223 0.5 0.5v5c0 0.277-0.223 0.5-0.5 0.5h-5c-0.277 0-0.5-0.223-0.5-0.5v-5c0-0.277 0.223-0.5 0.5-0.5z" fill="#adadad"/>
  <rect x="8" y="15" width="6" height="6" rx=".5" ry=".5" fill="#adadad"/>
  <path d="m1 6.5v0.5c0 0.277 0.223 0.5 0.5 0.5h5c0.277 0 0.5-0.223 0.5-0.5v-0.5c0 0.277-0.223 0.5-0.5 0.5h-5c-0.277 0-0.5-0.223-0.5-0.5zm7 0v0.5c0 0.277 0.223 0.5 0.5 0.5h5c0.277 0 0.5-0.223 0.5-0.5v-0.5c0 0.277-0.223 0.5-0.5 0.5h-5c-0.277 0-0.5-0.223-0.5-0.5zm7 0v0.5c0 0.277 0.223 0.5 0.5 0.5h5c0.277 0 0.5-0.223 0.5-0.5v-0.5c0 0.277-0.223 0.5-0.5 0.5h-5c-0.277 0-0.5-0.223-0.5-0.5zm-14 7v0.5c0 0.277 0.223 0.5 0.5 0.5h5c0.277 0 0.5-0.223 0.5-0.5v-0.5c0 0.277-0.223 0.5-0.5 0.5h-5c-0.277 0-0.5-0.223-0.5-0.5zm7 0v0.5c0 0.277 0.223 0.5 0.5 0.5h5c0.277 0 0.5-0.223 0.5-0.5v-0.5c0 0.277-0.223 0.5-0.5 0.5h-5c-0.277 0-0.5-0.223-0.5-0.5zm7 0v0.5c0 0.277 0.223 0.5 0.5 0.5h5c0.277 0 0.5-0.223 0.5-0.5v-0.5c0 0.277-0.223 0.5-0.5 0.5h-5c-0.277 0-0.5-0.223-0.5-0.5zm-14 7v0.5c0 0.277 0.223 0.5 0.5 0.5h5c0.277 0 0.5-0.223 0.5-0.5v-0.5c0 0.277-0.223 0.5-0.5 0.5h-5c-0.277 0-0.5-0.223-0.5-0.5zm7 0v0.5c0 0.277 0.223 0.5 0.5 0.5h5c0.277 0 0.5-0.223 0.5-0.5v-0.5c0 0.277-0.223 0.5-0.5 0.5h-5c-0.277 0-0.5-0.223-0.5-0.5zm7 0v0.5c0 0.277 0.223 0.5 0.5 0.5h5c0.277 0 0.5-0.223 0.5-0.5v-0.5c0 0.277-0.223 0.5-0.5 0.5h-5c-0.277 0-0.5-0.223-0.5-0.5z" opacity=".2"/>
  <path d="m1.5 1c-0.277 0-0.5 0.223-0.5 0.5v0.5c0-0.277 0.223-0.5 0.5-0.5h5c0.277 0 0.5 0.223 0.5 0.5v-0.5c0-0.277-0.223-0.5-0.5-0.5h-5zm7 0c-0.277 0-0.5 0.223-0.5 0.5v0.5c0-0.277 0.223-0.5 0.5-0.5h5c0.277 0 0.5 0.223 0.5 0.5v-0.5c0-0.277-0.223-0.5-0.5-0.5h-5zm7 0c-0.277 0-0.5 0.223-0.5 0.5v0.5c0-0.277 0.223-0.5 0.5-0.5h5c0.277 0 0.5 0.223 0.5 0.5v-0.5c0-0.277-0.223-0.5-0.5-0.5h-5zm-14 7c-0.277 0-0.5 0.223-0.5 0.5v0.5c0-0.277 0.223-0.5 0.5-0.5h5c0.277 0 0.5 0.223 0.5 0.5v-0.5c0-0.277-0.223-0.5-0.5-0.5h-5zm7 0c-0.277 0-0.5 0.223-0.5 0.5v0.5c0-0.277 0.223-0.5 0.5-0.5h5c0.277 0 0.5 0.223 0.5 0.5v-0.5c0-0.277-0.223-0.5-0.5-0.5h-5zm7 0c-0.277 0-0.5 0.223-0.5 0.5v0.5c0-0.277 0.223-0.5 0.5-0.5h5c0.277 0 0.5 0.223 0.5 0.5v-0.5c0-0.277-0.223-0.5-0.5-0.5h-5zm-14 7c-0.277 0-0.5 0.223-0.5 0.5v0.5c0-0.277 0.223-0.5 0.5-0.5h5c0.277 0 0.5 0.223 0.5 0.5v-0.5c0-0.277-0.223-0.5-0.5-0.5h-5zm7 0c-0.277 0-0.5 0.223-0.5 0.5v0.5c0-0.277 0.223-0.5 0.5-0.5h5c0.277 0 0.5 0.223 0.5 0.5v-0.5c0-0.277-0.223-0.5-0.5-0.5h-5zm7 0c-0.277 0-0.5 0.223-0.5 0.5v0.5c0-0.277 0.223-0.5 0.5-0.5h5c0.277 0 0.5 0.223 0.5 0.5v-0.5c0-0.277-0.223-0.5-0.5-0.5h-5z" fill="#fff" opacity=".2"/>
 </g>
</svg>
