<svg width="24" height="24" version="1" xmlns="http://www.w3.org/2000/svg">
 <g transform="matrix(.99844162 0 0 1 2.0311676 1.5)" style="opacity:.2">
  <path d="m8.5 4c-1.9329166 1.933e-4 -3.4998067 1.5670834-3.5 3.5v2.5h-1c-5.3812913 0-5.3686149 7 0 7h12.5c1.932917-1.93e-4 3.499807-1.567083 3.5-3.5v-3c-1.81e-4 -1.9283499-1.559943-3.4933512-3.488281-3.5-0.251133-1.7399694-1.75388-3.0237398-3.511719-3z"/>
 </g>
 <g transform="matrix(.99844162 0 0 1 2.0311676 1)" style="fill:none">
  <path d="m8.5 4c-1.9329166 1.933e-4 -3.4998067 1.5670834-3.5 3.5v2.5h-1c-5.3812913 0-5.3686149 7 0 7h12.5c1.932917-1.93e-4 3.499807-1.567083 3.5-3.5v-3c-1.81e-4 -1.9283499-1.559943-3.4933512-3.488281-3.5-0.251133-1.7399694-1.75388-3.0237398-3.511719-3z" style="fill:#cccccc"/>
 </g>
 <g transform="translate(2,1)">
  <path d="m4 13.5h12.5v-3h-8v-3h4.5" style="fill:none;stroke:#ee8827"/>
 </g>
 <g transform="matrix(.99844162 0 0 1 2.0311676 1)" style="fill:#ffffff;opacity:.2">
  <path transform="matrix(1.0015608,0,0,1,-2.0343379,-1)" d="m10.517578 5c-1.9299043 1.933e-4 -3.4939475 1.5670834-3.4941405 3.5v0.5c1.93e-4 -1.9329166 1.5642362-3.4998067 3.4941405-3.5h4.494141c1.755099-0.0237398 3.255117 1.2600306 3.505859 3 1.925333 0.0066488 3.482241 1.57165 3.482422 3.5v-0.5c-1.81e-4 -1.9283499-1.557089-3.4933512-3.482422-3.5-0.250742-1.7399694-1.75076-3.0237398-3.505859-3h-4.494141zm-4.4921874 6c-2.8151198 0-4.1382704 1.920391-4.0019531 3.75 0.1208645-1.662362 1.4441677-3.25 4.0019531-3.25h0.9980469v-0.5h-0.9980469z" style="fill:#fcfcfc"/>
 </g>
</svg>
