<svg width="24" height="24" version="1" xmlns="http://www.w3.org/2000/svg">
 <path d="M 12.000132,2.5 C 7.5,2.5 7,6.5 7.000133,11 H 9.0529215 C 9,6.5 10.118125,4.5 12.000132,4.5 13.882141,4.5 15,6.5 14.947344,11 h 2.052789 C 17,6.5 16.5,2.5 12.000132,2.5 Z" style="opacity:.2"/>
 <rect transform="matrix(0,-1,-1,0,0,0)" x="-21.5" y="-19" width="14" height="14" rx="7" ry="7" style="opacity:.2"/>
 <path d="M 12.000132,2 C 7.5,2 7,6 7.000133,10.5 H 9.0529215 C 9,6 10.118125,4 12.000132,4 13.882141,4 15,6 14.947344,10.5 h 2.052789 C 17,6 16.5,2 12.000132,2 Z" style="fill:#cccccc"/>
 <path d="m12 2c-4.5001325 0-5.000133 4-5 8.5h0.00879c0.040962-4.28921 0.6607915-8 4.99121-8 4.330163 0 4.950011 3.71079 4.991211 8h0.008789c-1.33e-4 -4.5-0.500133-8.5-5-8.5z" style="fill:#ffffff;opacity:.2"/>
 <rect transform="matrix(0,-1,-1,0,0,0)" x="-21" y="-19" width="14" height="14" rx="7" ry="7" style="fill:#a0a0a0"/>
 <rect transform="matrix(0,-1,-1,0,0,0)" x="-19" y="-17" width="10" height="10" rx="5" ry="5" style="fill:#4f4f4f"/>
 <path d="m14.47461 12.025693-1.060548 0.353515-0.731445 0.244141a2 2 0 0 0 -2.09668 0.462891 2 2 0 0 0 0 2.828125 2 2 0 0 0 2.828125 0 2 2 0 0 0 0.462891 -2.09668l0.244141-0.731445z" style="opacity:.2"/>
 <path d="m14.47461 11.525391-1.060547 0.353515-0.731446 0.244141a2 2 0 0 0 -2.096679 0.462891 2 2 0 0 0 0 2.828125 2 2 0 0 0 2.828125 0 2 2 0 0 0 0.46289 -2.09668l0.244141-0.731445z" style="fill:#ff5969"/>
</svg>
