<svg width="24" height="24" version="1" xmlns="http://www.w3.org/2000/svg">
 <path d="m12 2h-9c-0.554 0-1 0.446-1 1v9h10z" style="fill:#2086e7"/>
 <path d="m12 2h9c0.554 0 1 0.446 1 1v9h-10z" style="fill:#21d789"/>
 <path d="m12 22h-9c-0.554 0-1-0.446-1-1v-9h10z" style="fill:#21d789"/>
 <path d="m12 22h9c0.554 0 1-0.446 1-1v-9h-10z" style="fill:#6655e4"/>
 <path d="m3 2c-0.554 0-1 0.446-1 1v0.5c0-0.554 0.446-1 1-1h18c0.554 0 1 0.446 1 1v-0.5c0-0.554-0.446-1-1-1h-18z" style="fill:#ffffff;opacity:.2"/>
 <path d="m3 22.5c-0.554 0-1-0.446-1-1v-0.5c0 0.554 0.446 1 1 1h18c0.554 0 1-0.446 1-1v0.5c0 0.554-0.446 1-1 1h-18z" style="opacity:.2"/>
 <rect x="5" y="5" width="14" height="14" style="fill:#3f3f3f"/>
 <path d="m7.5001212 15.99995h3.9999998" style="fill:none;opacity:.2;stroke-linecap:round;stroke:#000000"/>
 <path d="m7.5001212 15.5h3.9999998" style="fill:none;stroke-linecap:round;stroke:#ffffff"/>
 <path d="m9.0004447 10h0.9999353m-0.4999678 0s0.2454358 1.999734-0.999938 1.999734c-0.9999355 0-0.9999355-0.999937-0.9999355-1.999875 0-0.999936 0-1.999874 0.9999355-1.999874 0.999938 0 0.996127 0.499968 0.996127 0.499968" style="fill:none;opacity:.2;stroke-linecap:round;stroke-linejoin:bevel;stroke-width:.999937;stroke:#000000"/>
 <path d="m9.0004447 9.5h0.9999353m-0.4999678 0s0.2454358 1.999875-0.999938 1.999875c-0.9999355 0-0.9999355-0.999938-0.9999355-1.999876 0-0.9999355 0-1.9998735 0.9999355-1.9998735 0.999938 0 0.996127 0.499968 0.996127 0.499968" style="fill:none;stroke-linecap:round;stroke-linejoin:bevel;stroke-width:.999937;stroke:#ffffff"/>
 <path d="m12.501435 7.9996535c1.199764 0 0.999937 0.999938 0.999937 1.9998735 0 0.999938 0.177778 2.030424-0.999937 1.999876-1.17422 0-0.999936-0.999938-0.999936-1.999876 0-0.9999355-0.217712-1.9998735 0.999936-1.9998735" style="fill:none;opacity:.2;stroke-linecap:round;stroke-linejoin:bevel;stroke-width:.999937;stroke:#000000"/>
 <path d="m12.501435 7.499794c1.199764 0 0.999937 0.999938 0.999937 1.9998735 0 0.9999375 0.177778 2.0304235-0.999937 1.9998755-1.17422 0-0.999936-0.999938-0.999936-1.9998755 0-0.9999355-0.217712-1.9998735 0.999936-1.9998735" style="fill:none;stroke-linecap:round;stroke-linejoin:bevel;stroke-width:.999937;stroke:#ffffff"/>
</svg>
