<svg width="24" height="24" version="1.1" viewBox="0 0 24 24" xmlns="http://www.w3.org/2000/svg">
 <path d="m12 2.5v5h-5l-5 5h5v5l5 5v-5h5l4.5-4.5 0.5-0.5h-5v-5z" style="opacity:.2"/>
 <path d="m7 7-5 5h10v-5" style="fill:#fec006"/>
 <path d="m17 7-5-5v10h5" style="fill:#f34235"/>
 <path d="m7 17 5 5v-10h-5" style="fill:#4bae4f"/>
 <path d="m17 17 5-5h-10v5" style="fill:#2095f2"/>
 <path d="m12 12v0.5h9.5l0.5-0.5z" style="fill:#ffffff;opacity:.2"/>
 <path d="m17 7-5 5h5z" style="fill:#9c27b0"/>
 <path d="m7 12v5l5-5z" style="fill:#1ea362"/>
 <path d="m12 12v5h5z" style="fill:#3e50b4"/>
 <path d="m7 7 5 5v-5z" style="fill:#fe9700"/>
 <path d="m12 2v0.5l5 5v-0.5zm-5 5-5 5h0.5l4.5-4.5h5v-0.5z" style="fill:#ffffff;opacity:.2"/>
 <path d="m12 9.5-1 2-2 1 2 1 1 2 1-2 2-1-2-1z" style="opacity:.2"/>
 <path d="m12 9-1 2-2 1 2 1 1 2 1-2 2-1-2-1z" style="fill:#ffffff"/>
 <path d="m9 12 2 1 1 2v-3z" style="fill:#ebebeb"/>
 <path d="m15 12-2 1-1 2v-3z" style="fill:#dfdfdf"/>
</svg>
