<svg width="24" height="24" version="1" xmlns="http://www.w3.org/2000/svg">
 <path d="m5.4820443 3.5000009c-2.5222274 0.001188-3.9163432 2.9266728-2.3288671 4.887015 1.8433879 2.2749561 1.9826631 4.3683191 1.9072114 6.1365901-1.9613241-0.742591-4.059484 0.706209-4.0603886 2.803737 0 2.752014 2.6803297 5.166217 5.5322794 5.166217 2.5608655 0 4.4983446-1.521083 5.4951896-3.526148 0.120767 0.10653 0.209805 0.247627 0.331858 0.351444 1.692745 1.439817 3.722544 2.581795 5.955888 3.098558 2.767202 0.638932 4.789572-2.569726 3.019914-4.791345-0.811344-1.01781-1.992642-2.362723-2.764188-3.459764-0.08625-0.122635-0.07598-0.133964-0.14836-0.247962 0.664649-0.736722 1.215575-1.549926 1.454322-2.573347 0.397069-1.7020976-0.313455-3.51419-1.270824-4.572667-2.123486-1.9853182-4.745472-2.7734627-7.134962-3.2332788-0.0033-6.552e-4 -0.0065-0.00131-0.0098-0.00195-0.0021-3.233e-4 -0.0038-0.00163-0.0059-0.00195v0.00195c-0.530877-0.082823-1.07426-0.02146-1.573317 0.177671h-0.001949c-0.2628019 0.1059293-0.5092675 0.2485758-0.7320443 0.4236852-0.8204218-0.2958995-2.0078473-0.6384555-3.6660624-0.6384555z" style="fill-rule:evenodd;opacity:.2"/>
 <path d="m5.4820443 3.0000001c-2.5222274 0.001188-3.9163432 2.9266728-2.3288671 4.887015 1.8433879 2.2749569 1.9826631 4.3683199 1.9072114 6.1365909-1.9613241-0.742591-4.059484 0.706209-4.0603886 2.803737 0 2.752014 2.6803297 5.166217 5.5322794 5.166217 2.5608655 0 4.4983446-1.521083 5.4951896-3.526148 0.120767 0.10653 0.209805 0.247627 0.331858 0.351444 1.692745 1.439817 3.722544 2.581795 5.955888 3.098558 2.767202 0.638932 4.789572-2.569726 3.019914-4.791345-0.811344-1.01781-1.992642-2.362723-2.764188-3.459764-0.08625-0.122635-0.07598-0.133964-0.14836-0.247962 0.664649-0.736722 1.215575-1.549926 1.454322-2.573347 0.397069-1.7020984-0.313455-3.5141908-1.270824-4.5726678-2.123486-1.9853182-4.745472-2.7734627-7.134962-3.2332788-0.0033-6.552e-4 -0.0065-0.00131-0.0098-0.00195-0.0021-3.233e-4 -0.0038-0.00163-0.0059-0.00195v0.00195c-0.530877-0.082823-1.07426-0.02146-1.573317 0.177671h-0.001949c-0.2628019 0.1059293-0.5092675 0.2485758-0.7320443 0.4236852-0.8204218-0.2958995-2.0078473-0.6384555-3.6660624-0.6384555z" style="fill-rule:evenodd;fill:#55648f"/>
 <path d="m5.4844 6.5000008c2.5922 3.1985 2.7337 6.4989992 2.5966 8.6659992-0.12 1.899-0.1358211 2.820588-1.204 3.301-0.9402159 0.422861-1.877 0.033-2.877-1.135 0 1.167 0.9254 2.168 2.5352 2.168 1.6097 0 2.9271-1.399 3.1953-2.977 0.9291-8.1425992-0.8379-9.2866992-0.8379-9.2866992s-1.6186-0.7363-3.4082-0.7363zm5.5156 0c0.47059 2.161 4 3.0101 4 4.0370992 0 1.0275-3.039 1.2061-3 2.8711 0.039 2.303 3.7835 5.348 6.9995 6.092-1.412-1.771-4.981-5.631-3.805-6.623 4.236-3.1171992 0.354-5.6685992-4.195-6.3769992z" style="fill-rule:evenodd;opacity:.2"/>
 <path d="m5.4844 6c2.5922 3.1985 2.7337 6.499 2.5966 8.666-0.12 1.899-0.1358211 2.820588-1.204 3.301-0.9402159 0.422861-1.877 0.033-2.877-1.135 0 1.167 0.9254 2.168 2.5352 2.168 1.6097 0 2.9271-1.399 3.1953-2.977 0.9291-8.1426-0.8379-9.2867-0.8379-9.2867s-1.6186-0.7363-3.4082-0.7363zm5.5156 0c0.47059 2.161 4 3.0101 4 4.0371 0 1.0275-3.039 1.2061-3 2.8711 0.039 2.303 3.7835 5.348 6.9995 6.092-1.412-1.771-4.981-5.631-3.805-6.623 4.236-3.1172 0.354-5.6686-4.195-6.377z" style="fill-rule:evenodd;fill:#ffffff"/>
 <path d="m5.4824219 3c-1.8916706 8.91e-4 -3.1496264 1.6470073-2.9902344 3.296875 0.1077956-1.4665752 1.2904724-2.7960744 2.9902344-2.796875 1.6582151 0 2.8455938 0.3427724 3.6660156 0.6386719 0.2227768-0.1751094 0.46962-0.3178988 0.7324219-0.4238281h0.0019531c0.4990575-0.199131 1.0413885-0.2605574 1.5722655-0.1777344v-0.0019532c0.0021 3.201e-4 0.003759 0.0016299 0.00586 0.0019532 0.0033 6.4e-4 0.006465 0.0012979 0.009765 0.0019531 2.38949 0.4598161 5.01128 1.2471037 7.134766 3.2324219 0.711368 0.7864959 1.285418 1.9895378 1.371093 3.2539066 0.055047-1.4415072-0.566496-2.8643362-1.371093-3.7539066-2.123486-1.9853182-4.745276-2.7726058-7.134766-3.2324219-0.0033-6.552e-4 -0.006466-0.0013131-0.009765-0.0019531-0.002101-3.233e-4 -0.00376-0.0016332-0.00586-0.0019532v0.0019532c-0.530877-0.082823-1.073208-0.0213967-1.5722655 0.1777344h-0.0019531c-0.2628019 0.1059293-0.5096451 0.2487187-0.7324219 0.4238281-0.8204218-0.2958995-2.0078005-0.6386719-3.6660156-0.6386719zm13.117187 10.705078c-0.060076 0.070433-0.1155 0.143909-0.177734 0.212891 0.07238 0.113998 0.062188 0.125412 0.148437 0.248047 0.771547 1.097041 1.954282 2.443127 2.765626 3.460937 0.40398 0.507156 0.601478 1.064672 0.646484 1.617188 0.065025-0.708894-0.119557-1.455686-0.646484-2.117188-0.802457-1.006661-1.964448-2.331548-2.736329-3.421875zm-14.277343 0.140625c-1.7155472-0.191491-3.3214741 1.147085-3.3222656 2.982422 0 0.112896 0.010683 0.224321 0.0195312 0.335937 0.1101995-2.005087 2.133009-3.363029 4.0410157-2.640624 0.0068108-0.159617-0.0041692-0.335192-0.0019531-0.5-0.2445631-0.092421-0.4918628-0.150447-0.7363282-0.177735z" style="fill-rule:evenodd;fill:#ffffff;opacity:.1"/>
</svg>
