<svg width="24" height="24" version="1" xmlns="http://www.w3.org/2000/svg">
 <g transform="translate(1.0001 1)">
  <path d="m11 1-2.929 2.929h-4.142v4.142l-2.929 2.929 2.929 2.929v4.142h4.142l2.929 2.929 2.929-2.929h4.142v-4.142l2.929-2.929-2.929-2.929v-4.142h-4.142l-2.929-2.929z" fill="#fe8406"/>
  <path d="m7.1729 1.7609-1.5859 3.8266-3.8266 1.5859 1.5848 3.8266-1.5848 3.8266 3.8266 1.5859 1.5859 3.8266 3.8266-1.5848 3.8266 1.5848 1.5859-3.8266 3.8266-1.5859-1.5839-3.8266 1.5845-3.8272-3.826-1.5855-1.586-3.8268-3.827 1.5848-3.8265-1.5848z" fill="#fe8406"/>
  <rect transform="matrix(0,-1,-1,0,0,0)" x="-19.5" y="-19" width="16" height="16" rx="8" ry="8" opacity=".2"/>
  <rect transform="matrix(0,-1,-1,0,0,0)" x="-19" y="-19" width="16" height="16" rx="8" ry="8" fill="#ffdf4c"/>
  <ellipse cx="7.428" cy="8.928" rx="1.429" ry="1.429" fill="#fff" opacity=".2"/>
  <circle cx="14.571" cy="8.928" r="1.429" fill="#fff" opacity=".2"/>
  <ellipse cx="7.5" cy="8.5" rx="1.5" ry="1.5" fill="#3f3f3f"/>
  <circle cx="14.5" cy="8.5" r="1.5" fill="#3f3f3f"/>
  <path d="m8 13.5c0.61916 1.2366 1.7631 1.9989 3.0013 2 1.2373-0.0022 2.38-0.76432 2.9987-2z" fill="#fff" opacity=".2"/>
  <path d="m8 13c0.61916 1.2366 1.7631 1.9989 3.0013 2 1.2373-0.0022 2.38-0.76432 2.9987-2z" fill="#913b3b"/>
  <path d="m20.062 7.5997-0.7207 1.7422 0.14648 0.14648 0.751-1.8154-0.177-0.073zm-18.125 1e-3 -0.17676 0.07324 0.751 1.8144 0.14645-0.146-0.7207-1.7415zm-0.6875 3.6495-0.25 0.25 1.5127 1.5125 0.1465-0.3535-1.4092-1.409zm19.5 0-1.4082 1.4082 0.14648 0.35352 1.5115-1.5115-0.25-0.25zm-18.813 3.6504-0.17676 0.42676 2.168 0.89845v-0.5l-1.9912-0.8255zm18.125 0-1.9912 0.8252v0.5l2.168-0.89845-0.177-0.4265zm-16.134 3.1709v0.5h2.3457l0.89845 2.168 2.1679-0.89845 1.6595 1.659 1.6582-1.6582 2.168 0.89745 0.89845-2.168h2.3467v-0.5h-2.3467l-0.89845 2.168-2.1685-0.897-1.658 1.658-1.6592-1.6592-2.1679 0.89845-0.89845-2.168h-2.3457z" opacity=".2"/>
  <path d="m11 1-1.6583 1.6582-2.168-0.8974h-1e-3l-0.89845 2.168h-2.3457v0.5h2.3457l0.89845-2.168h1e-3l2.1679 0.89745 1.658-1.658 1.6592 1.6592 2.168-0.89845 0.89845 2.168h2.3457v-0.5h-2.3457l-0.899-2.168-2.168 0.89845-1.659-1.6592zm7.0715 5.2745v0.5l1.9912 0.8252 0.17676-0.42676-2.168-0.89845zm-14.143 1e-3 -2.168 0.89845 0.17676 0.42676 1.9912-0.8252v-0.5zm-1.4173 3.213-1.5117 1.5115 0.25 0.25 1.4082-1.408-0.1465-0.3535zm16.977 0-0.14648 0.35352 1.4085 1.408 0.25-0.25-1.5115-1.5115zm0 3.5234-0.14648 0.14648 0.7207 1.7422 0.17676-0.07324-0.751-1.8154zm-16.976 5e-4 -0.75195 1.8145 0.17675 0.0735 0.7217-1.7415-0.1465-0.1465z" fill="#fff" opacity=".2"/>
 </g>
</svg>
