<svg width="24" height="24" version="1.1" viewBox="0 0 24 24" xmlns="http://www.w3.org/2000/svg">
 <path d="M 12,2 A 10,10 0 0 0 2,12 10,10 0 0 0 12,22 10,10 0 0 0 22,12 10,10 0 0 0 12,2 Z" style="fill:#5ca742"/>
 <path d="M 2.01075,12.209 A 10,10 0 0 0 2,12.5 10,10 0 0 0 12,22.5 10,10 0 0 0 22,12.5 10,10 0 0 0 21.9895,12.291 10,10 0 0 1 12,22 10,10 0 0 1 2.011,12.209 Z" style="opacity:.2"/>
 <path d="m12 2a10 10 0 0 0 -10 10 10 10 0 0 0 0.01075 0.209 10 10 0 0 1 9.989 -9.709 10 10 0 0 1 9.9895 9.791 10 10 0 0 0 0.0105 -0.291 10 10 0 0 0 -10 -10z" style="fill:#ffffff;opacity:.2"/>
 <g transform="translate(0 .5)" style="opacity:.2">
  <path d="m12 4a5 5 0 0 0 -5 5 5 5 0 0 0 5 5 5 5 0 0 0 5 -5 5 5 0 0 0 -5 -5zm0 1a2.0000002 2.0000002 0 0 1 2 2 2.0000002 2.0000002 0 0 1 -2 2 2.0000002 2.0000002 0 0 1 -2 -2 2.0000002 2.0000002 0 0 1 2 -2z"/>
  <path d="m10 12v7l2 2 2-2v-0.7l1-0.75-1-0.75v-0.75l1-1-1-1v-2.05zm1 2h1v4h-1z"/>
 </g>
 <path d="m12 4a5 5 0 0 0 -5 5 5 5 0 0 0 5 5 5 5 0 0 0 5 -5 5 5 0 0 0 -5 -5zm0 1a2.0000002 2.0000002 0 0 1 2 2 2.0000002 2.0000002 0 0 1 -2 2 2.0000002 2.0000002 0 0 1 -2 -2 2.0000002 2.0000002 0 0 1 2 -2z" style="fill:#ffffff"/>
 <path d="m10 12v7l2 2 2-2v-0.7l1-0.75-1-0.75v-0.75l1-1-1-1v-2.05zm1 2h1v4h-1z" style="fill:#ffffff"/>
</svg>
