<svg width="24" height="24" version="1" xmlns="http://www.w3.org/2000/svg">
 <g transform="translate(1,1)">
  <rect transform="matrix(0,-1,-1,0,0,0)" x="-21" y="-21" width="20" height="20" rx="1" ry="1" fill="#f4b400"/>
  <path d="m1 2.5v-0.5c0-0.554 0.446-1 1-1h18c0.554 0 1 0.446 1 1v0.5c0-0.554-0.446-1-1-1h-18c-0.554 0-1 0.446-1 1z" fill="#fff" opacity=".2"/>
  <path d="m1 20v0.5c0 0.554 0.446 1 1 1h18c0.554 0 1-0.446 1-1v-0.5c0 0.554-0.446 1-1 1h-18c-0.554 0-1-0.446-1-1z" opacity=".2"/>
  <path d="m11 3.5a5 5 0 0 0 -5 5 5 5 0 0 0 2.0098 4h-0.0098v5h1v1h4v-1h1v-5h-0.0098a5 5 0 0 0 2.01 -4 5 5 0 0 0 -5 -5zm0 1a4 4 0 0 1 4 4 4 4 0 0 1 -4 4 4 4 0 0 1 -4 -4 4 4 0 0 1 4 -4zm-2 9h4v1h-4v-1zm0 2h4v1h-4v-1z" opacity=".2"/>
  <path d="m11 3a5 5 0 0 0 -5 5 5 5 0 0 0 2.0098 4h-0.0098v5h1v1h4v-1h1v-5h-0.0098a5 5 0 0 0 2.01 -4 5 5 0 0 0 -5 -5zm0 1a4 4 0 0 1 4 4 4 4 0 0 1 -4 4 4 4 0 0 1 -4 -4 4 4 0 0 1 4 -4zm-2 9h4v1h-4v-1zm0 2h4v1h-4v-1z" fill="#fff"/>
 </g>
</svg>
