<svg width="24" height="24" version="1" xmlns="http://www.w3.org/2000/svg">
 <path d="m3 22.5c-0.554 0-1-0.446-1-1v-0.5c0 0.554 0.446 1 1 1h18c0.554 0 1-0.446 1-1v0.5c0 0.554-0.446 1-1 1h-18z" opacity=".2"/>
 <path d="m3 2c-0.554 0-1 0.446-1 1v18c0 0.554 0.446 1 1 1h18c0.554 0 1-0.446 1-1v-14a5 5 0 0 0 -5 -5z" style="fill:#44579d"/>
 <path d="m4 5.5v15h3v-3.5l2.5 3.5h3.5l-5-7.5 5-7.5h-3.5l-2.5 3.5v-3.5h-3zm13.5 0a1.5 1.5 0 0 0 -1.5 1.5 1.5 1.5 0 0 0 1.5 1.5 1.5 1.5 0 0 0 1.5 -1.5 1.5 1.5 0 0 0 -1.5 -1.5zm-1.5 5v10h3v-10h-3z" opacity=".2"/>
 <path d="m4 5v15h3v-3.5l2.5 3.5h3.5l-5-7.5 5-7.5h-3.5l-2.5 3.5v-3.5z" fill="#ffd676"/>
 <path d="m16 10h3v10h-3z" fill="#ffd676"/>
 <circle cx="17.5" cy="6.5" r="1.5" fill="#f70"/>
 <path d="m3 2c-0.554 0-1 0.446-1 1v0.5c0-0.554 0.446-1 1-1h14a5 5 0 0 1 5 5v-0.5a5 5 0 0 0 -5 -5h-14z" style="fill:#ffffff;opacity:.1"/>
</svg>
