<svg width="24" height="24" version="1" xmlns="http://www.w3.org/2000/svg">
 <g transform="translate(1,1)">
  <path d="m21 19v-16c0-0.554-0.446-1-1-1h-18c-0.554 0-1 0.446-1 1v16c0 0.554 0.446 1 1 1h18c0.554 0 1-0.446 1-1z" fill="#85ac45"/>
  <path d="m2 2c-0.554 0-1 0.446-1 1v0.5c0-0.554 0.446-1 1-1h18c0.554 0 1 0.446 1 1v-0.5c0-0.554-0.446-1-1-1h-18z" fill="#fff" opacity=".2"/>
  <path d="m1 19v0.5c0 0.554 0.446 1 1 1h18c0.554 0 1-0.446 1-1v-0.5c0 0.554-0.446 1-1 1h-18c-0.554 0-1-0.446-1-1z" opacity=".2"/>
  <circle cx="11" cy="14.5" r="2" opacity=".2"/>
  <circle cx="11" cy="14" r="2" fill="#fff"/>
  <circle cx="17" cy="14.5" r="2" opacity=".2"/>
  <circle cx="17" cy="14" r="2" fill="#fff"/>
  <circle cx="5" cy="14" r="2" fill="#4d4d4d"/>
  <circle cx="11" cy="7" r="2" fill="#4d4d4d"/>
 </g>
</svg>
