<svg width="24" height="24" version="1" xmlns="http://www.w3.org/2000/svg">
 <g transform="translate(1.0009 1)">
  <rect transform="matrix(0,-1,-1,0,0,0)" x="-21" y="-21" width="20" height="20" rx="10" ry="10" fill="#f5b35d"/>
  <path d="m11 1c-5.54 0-10 4.46-10 10 0 0.084-2e-3 0.1665 0 0.25 0.1322-5.423 4.544-9.75 10-9.75s9.868 4.327 10 9.75c2e-3 -0.084 0-0.166 0-0.25 0-5.54-4.46-10-10-10z" fill="#fff" opacity=".2"/>
  <path d="m10.999 5c-1.6568 0-3 1.3432-3 3s1.3432 3 3 3 3-1.3432 3-3-1.3432-3-3-3zm0 8c-5 0.0027-5 3.2012-5 3.2012v0.79883h10v-0.79883s0-3.2037-5-3.2012z" fill="#4d4d4d"/>
  <path d="m1.0058 11.25c-0.00205 0.0835-0.00585 0.166-0.00585 0.25 0 5.54 4.46 10 10 10s10-4.46 10-10c0-0.084-4e-3 -0.1665-6e-3 -0.25-0.132 5.423-4.538 9.75-9.994 9.75s-9.862-4.327-9.994-9.75z" opacity=".2"/>
 </g>
</svg>
