<svg width="24" height="24" version="1" xmlns="http://www.w3.org/2000/svg">
 <rect transform="matrix(0,-1,-1,0,0,0)" x="-21.5" y="-22" width="16" height="20" rx="1" ry="1" style="opacity:.2"/>
 <rect x="4" y="4" width="3.5" height="2" rx=".5" ry=".5" style="fill:#4f4f4f"/>
 <rect transform="matrix(0,-1,-1,0,0,0)" x="-21" y="-22" width="16" height="20" rx="1" ry="1" style="fill:#4f4f4f"/>
 <circle cx="12" cy="13" r="7" style="opacity:.4"/>
 <circle transform="scale(1,-1)" cx="12" cy="-13.5" r="5" style="opacity:.2"/>
 <circle transform="scale(1,-1)" cx="12" cy="-13" r="5" style="fill:#009587"/>
 <circle cx="19.5" cy="8" r="1" style="opacity:.4"/>
 <circle cx="12" cy="13.5" r="3" style="opacity:.2"/>
 <circle cx="12" cy="13" r="3" style="fill:#66bfb7"/>
 <path d="m21 5c0.554 0 1 0.446 1 1v0.5c0-0.554-0.446-1-1-1h-18c-0.554 0-1 0.446-1 1v-0.5c0-0.554 0.446-1 1-1z" style="fill:#ffffff;opacity:.1"/>
</svg>
