<svg width="24" height="24" version="1.1" viewBox="0 0 24 24" xmlns="http://www.w3.org/2000/svg">
 <circle cx="12" cy="12.5" r="10" style="opacity:.2"/>
 <circle cx="12" cy="12" r="10" style="fill:#8bc34a"/>
 <path d="M 12,2 A 10,10 0 0 0 2,12 10,10 0 0 0 2.01075,12.291 10,10 0 0 1 12,2.5 10,10 0 0 1 21.9895,12.209 10,10 0 0 0 22,12 10,10 0 0 0 12,2 Z" style="fill:#ffffff;opacity:.2"/>
 <circle cx="12" cy="12.5" r="7" style="opacity:.2"/>
 <circle cx="12" cy="12" r="7" style="fill:#ffffff"/>
 <path d="m2.0498047 11.5a10 10 0 0 0 -0.0498047 1 10 10 0 0 0 0.060547 1h19.889648a10 10 0 0 0 0.0498 -1 10 10 0 0 0 -0.06055 -1z" style="opacity:.2"/>
 <path d="M 2.0498047,11 A 10,10 0 0 0 2,12 10,10 0 0 0 2.0605469,13 H 21.950195 A 10,10 0 0 0 22,12 10,10 0 0 0 21.939453,11 Z" style="fill:#4f4f4f"/>
 <rect x="1" y="9.5" width="6" height="6" rx="1" ry="1" style="opacity:.2"/>
 <rect x="1" y="9" width="6" height="6" rx="1" ry="1" style="fill:#4f4f4f"/>
</svg>
