<svg width="24" height="24" version="1" xmlns="http://www.w3.org/2000/svg">
 <rect transform="matrix(0,-1,-1,0,0,0)" x="-22" y="-22" width="20" height="20" rx="1" ry="1" style="fill:#ec8c38"/>
 <path d="m22 21v-18c0-0.554-0.446-1-1-1h-9v20h9c0.554 0 1-0.446 1-1z" style="fill:#ffffff;opacity:.2"/>
 <path d="m3 2c-0.554 0-1 0.446-1 1v0.5c0-0.554 0.446-1 1-1h18c0.554 0 1 0.446 1 1v-0.5c0-0.554-0.446-1-1-1h-18z" style="fill:#ffffff;opacity:.2"/>
 <path d="m3 22.5c-0.554 0-1-0.446-1-1v-0.5c0 0.554 0.446 1 1 1h18c0.554 0 1-0.446 1-1v0.5c0 0.554-0.446 1-1 1h-18z" style="opacity:.2"/>
 <g transform="translate(0,1.5)" style="opacity:.2">
  <path d="m7 5a4 4 0 0 0 -4 4 4 4 0 0 0 4 4 4 4 0 0 0 4 -4 4 4 0 0 0 -4 -4zm0 2a2 2 0 0 1 2 2 2 2 0 0 1 -2 2 2 2 0 0 1 -2 -2 2 2 0 0 1 2 -2z"/>
  <rect transform="scale(1,-1)" x="6" y="-18" width="2" height="7"/>
  <rect transform="scale(1,-1)" x="8" y="-17" width="2" height="2"/>
 </g>
 <g transform="translate(0,1)" style="fill:#ffef78">
  <path d="m7 5a4 4 0 0 0 -4 4 4 4 0 0 0 4 4 4 4 0 0 0 4 -4 4 4 0 0 0 -4 -4zm0 2a2 2 0 0 1 2 2 2 2 0 0 1 -2 2 2 2 0 0 1 -2 -2 2 2 0 0 1 2 -2z" style="fill:#ffef78"/>
  <rect transform="scale(1,-1)" x="6" y="-18" width="2" height="7" style="fill:#ffef78"/>
  <rect transform="scale(1,-1)" x="8" y="-17" width="2" height="2" style="fill:#ffef78"/>
 </g>
</svg>
