<svg width="24" height="24" version="1" xmlns="http://www.w3.org/2000/svg">
 <rect transform="matrix(0,-1,-1,0,0,0)" x="-21.5" y="-18" width="16" height="12" rx="1" ry="1" style="opacity:.2"/>
 <rect transform="matrix(0,-1,-1,0,0,0)" x="-21" y="-18" width="16" height="12" rx="1" ry="1" style="fill:#8e8e8e"/>
 <rect transform="matrix(0,-1,-1,0,0,0)" x="-19.5" y="-22" width="16" height="20" rx="1" ry="1" style="opacity:.2"/>
 <rect transform="matrix(0,-1,-1,0,0,0)" x="-19" y="-22" width="16" height="20" rx="1" ry="1" style="fill:#4f4f4f"/>
 <path d="m3 3c-0.554 0-1 0.446-1 1v0.5c0-0.554 0.446-1 1-1h18c0.554 0 1 0.446 1 1v-0.5c0-0.554-0.446-1-1-1z" style="fill:#ffffff;opacity:.1"/>
 <rect transform="matrix(0,-1,-1,0,0,0)" x="-18" y="-21" width="14" height="18" rx="0" ry="0" style="fill:#1d83af"/>
 <path d="m16.5 5.5a2.5 2.5 0 0 0 -2.5 2.5 2.5 2.5 0 0 0 2.5 2.5 2.5 2.5 0 0 0 2.5 -2.5 2.5 2.5 0 0 0 -2.5 -2.5zm-5.5 2a1 1 0 0 0 -1 1 1 1 0 0 0 1 1 1 1 0 0 0 1 -1 1 1 0 0 0 -1 -1zm-4 2a2 2 0 0 0 -2 2 2 2 0 0 0 2 2 2 2 0 0 0 2 -2 2 2 0 0 0 -2 -2zm11 3a1 1 0 0 0 -1 1 1 1 0 0 0 1 1 1 1 0 0 0 1 -1 1 1 0 0 0 -1 -1zm-4.5 1a1.5 1.5 0 0 0 -1.5 1.5 1.5 1.5 0 0 0 1.5 1.5 1.5 1.5 0 0 0 1.5 -1.5 1.5 1.5 0 0 0 -1.5 -1.5z" style="opacity:.2"/>
 <circle cx="16.5" cy="7.5" r="2.5" style="fill:#f0f9fd"/>
 <circle cx="7" cy="11" r="2" style="fill:#c4e7f5"/>
 <circle cx="13.5" cy="14.5" r="1.5" style="fill:#a6daf0"/>
 <circle cx="11" cy="8" r="1" style="fill:#c4e7f5"/>
 <circle cx="18" cy="13" r="1" style="fill:#d3edf8"/>
 <circle cx="18" cy="18" r="5" style="fill:#c149c0"/>
 <path d="m17.223 15-0.066 0.79a2.3572 2.3572 0 0 0 -0.689 0.399l-0.718-0.339-0.75 1.3 0.652 0.452a2.3572 2.3572 0 0 0 -0.036 0.398 2.3572 2.3572 0 0 0 0.034 0.399l-0.65 0.452 0.75 1.299 0.716-0.337a2.3572 2.3572 0 0 0 0.691 0.395l0.066 0.792h1.5l0.066-0.79a2.3572 2.3572 0 0 0 0.689 -0.398l0.718 0.338 0.75-1.299-0.652-0.453a2.3572 2.3572 0 0 0 0.036 -0.398 2.3572 2.3572 0 0 0 -0.034 -0.399l0.65-0.451-0.75-1.299-0.716 0.337a2.3572 2.3572 0 0 0 -0.691 -0.395l-0.066-0.792h-1.5zm0.75 2.143a0.85715 0.85715 0 0 1 0.857 0.857 0.85715 0.85715 0 0 1 -0.857 0.857 0.85715 0.85715 0 0 1 -0.857 -0.857 0.85715 0.85715 0 0 1 0.857 -0.857z" style="fill:#ffffff"/>
</svg>
