<svg width="24" height="24" version="1.1" viewBox="0 0 24 24" xmlns="http://www.w3.org/2000/svg">
 <rect x="2" y="2.5" width="14" height="14" rx="1" ry="1" style="opacity:.2"/>
 <rect x="2" y="2" width="14" height="14" rx="1" ry="1" style="fill:#fecd38"/>
 <path d="m2 5.5v7.5h5.625c-1.9429285-5.4696454-3.885808-7.3944615-5.625-7.5z" style="opacity:.2"/>
 <rect x="5" y="5.5" width="14" height="14" rx="1" ry="1" style="opacity:.2"/>
 <path d="m2 5v7.5h5.625c-1.9429285-5.4696454-3.885808-7.3944615-5.625-7.5z" style="fill:#9d9d9d"/>
 <rect x="5" y="5" width="14" height="14" rx="1" ry="1" style="fill:#e97e10"/>
 <path d="m5 8.5000001v7.4999999h5.625c-1.9429285-5.469645-3.885808-7.3944614-5.625-7.4999999z" style="opacity:.2"/>
 <rect x="8" y="8.5" width="14" height="14" rx="1" ry="1" style="opacity:.2"/>
 <path d="m5 8.0000001v7.4999999h5.625c-1.9429285-5.469645-3.885808-7.3944614-5.625-7.4999999z" style="fill:#7d7d7d"/>
 <rect x="8" y="8" width="14" height="14" rx="1" ry="1" style="fill:#df574d"/>
 <g transform="scale(.5)" style="opacity:.2">
  <g transform="translate(0,1)">
   <path d="m16 22v15h11.25c-3.885857-10.939291-7.771616-14.788923-11.25-15z"/>
   <path d="m16 22v1c3.478384 0.197005 7.364143 3.789995 11.25 14-3.885857-10.939291-7.771616-14.788923-11.25-15z" style="opacity:.1"/>
  </g>
  <path d="m20 38h24c-11.999998-33.75-24 0-24 0z"/>
 </g>
 <path d="m3 2c-0.554 0-1 0.446-1 1v0.5c0-0.554 0.446-1 1-1h12c0.554 0 1 0.446 1 1v-0.5c0-0.554-0.446-1-1-1z" style="fill:#ffffff;opacity:.2"/>
 <circle cx="12" cy="14" r="2" style="fill:#fecd38"/>
 <path d="m12 12a2 2 0 0 0 -2 2 2 2 0 0 0 0.018 0.244 2 2 0 0 1 1.982 -1.744 2 2 0 0 1 1.982 1.756 2 2 0 0 0 0.018 -0.256 2 2 0 0 0 -2 -2z" style="fill:#ffffff;opacity:.2"/>
 <path d="m8 11v7.5h5.625c-1.942929-5.469645-3.885808-7.394461-5.625-7.5z" style="fill:#5d5d5d"/>
 <path d="m10 18.5h12c-5.999999-16.875-12 0-12 0z" style="fill:#e4e4e4"/>
 <path d="m16.305664 11.000977c-3.597221-0.119026-6.305664 7.499023-6.305664 7.499023s6.000001-15.75 12 0c-1.96875-5.537109-3.937554-7.440895-5.694336-7.499023z" style="fill:#ffffff;opacity:.2"/>
</svg>
