<svg width="24" height="24" version="1" xmlns="http://www.w3.org/2000/svg">
 <g transform="translate(1,1)">
  <rect transform="matrix(0,-1,-1,0,0,0)" x="-21" y="-21" width="20" height="19.998" rx="10" ry="9.999" fill="#246e9a"/>
  <path d="m11 1c-5.5395 0-9.999 4.46-9.999 10 0 0.08386-2e-3 0.16664 0 0.25 0.1321-5.423 4.5435-9.75 9.999-9.75s9.867 4.3268 9.999 9.75c2e-3 -0.08335 0-0.16614 0-0.25 0-5.54-4.459-10-9.999-10z" fill="#fff" opacity=".2"/>
  <path d="m1.0058 11.25c-2e-3 0.084-0.0058 0.166-0.0058 0.25 0 5.54 4.46 10 10 10s10-4.46 10-10c0-0.084-4e-3 -0.1665-6e-3 -0.25-0.132 5.423-4.538 9.75-9.994 9.75s-9.862-4.327-9.994-9.75z" opacity=".2"/>
  <path d="m11 3.5a8 8 0 0 0 -8 8 8 8 0 0 0 8 8 8 8 0 0 0 8 -8 8 8 0 0 0 -8 -8zm0 2c1.108 0 2 0.669 2 1.5v7c0 0.831-0.892 1.5-2 1.5s-2-0.669-2-1.5v-7c0-0.831 0.892-1.5 2-1.5zm-5 4c1.108 0 2 0.669 2 1.5v3c0 0.831-0.892 1.5-2 1.5s-2-0.669-2-1.5v-3c0-0.831 0.892-1.5 2-1.5zm10 0c1.108 0 2 0.669 2 1.5v3c0 0.831-0.892 1.5-2 1.5s-2-0.669-2-1.5v-3c0-0.831 0.892-1.5 2-1.5z" opacity=".2"/>
  <path d="m11 3a8 8 0 0 0 -8 8 8 8 0 0 0 8 8 8 8 0 0 0 8 -8 8 8 0 0 0 -8 -8zm0 2c1.108 0 2 0.669 2 1.5v7c0 0.831-0.892 1.5-2 1.5s-2-0.669-2-1.5v-7c0-0.831 0.892-1.5 2-1.5zm-5 4c1.108 0 2 0.669 2 1.5v3c0 0.831-0.892 1.5-2 1.5s-2-0.669-2-1.5v-3c0-0.831 0.892-1.5 2-1.5zm10 0c1.108 0 2 0.669 2 1.5v3c0 0.831-0.892 1.5-2 1.5s-2-0.669-2-1.5v-3c0-0.831 0.892-1.5 2-1.5z" fill="#fff"/>
 </g>
</svg>
