<svg width="24" height="24" version="1" xmlns="http://www.w3.org/2000/svg">
 <path d="m20 21.5v-14h-16v14c0 0.554 0.446 1 1 1h14c0.554 0 1-0.446 1-1z" style="opacity:.2"/>
 <path d="m20 21v-14h-16v14c0 0.554 0.446 1 1 1h14c0.554 0 1-0.446 1-1z" style="fill:#cccccc"/>
 <path d="m7 4h10l3 3h-16z" style="fill:#b8b8b8"/>
 <rect x="7" y="2" width="10" height="2" style="fill:#a3a3a3"/>
 <path d="m17 4l3 3h-7z" style="fill:#a3a3a3"/>
 <path d="m13 7v15h6c0.554 0 1-0.446 1-1v-14z" style="fill:#b8b8b8"/>
 <path d="m10.5 16.999879v-5m-3.9952192 0 1.9952192 3 2-3m-3.9952192 5v-5" style="fill:none;opacity:.2;stroke-linecap:round;stroke-linejoin:round;stroke:#000000"/>
 <path d="m10.5 16.499879v-5m-3.9952192 0 1.9952192 3 2-3m-3.9952192 5v-5" style="fill:none;stroke-linecap:round;stroke-linejoin:round;stroke:#3a86c5"/>
 <path d="m14.5 11.999879h4m-2 5v-5" style="fill:none;opacity:.2;stroke-linecap:round;stroke:#000000"/>
 <path d="m14.5 11.499879h4m-2 5v-5" style="fill:none;stroke-linecap:round;stroke:#3a86c5"/>
 <path d="m7 2v0.5h10v-0.5z" style="fill:#ffffff;opacity:.1"/>
</svg>
