<svg width="24" height="24" version="1" xmlns="http://www.w3.org/2000/svg">
 <g transform="translate(1,1)">
  <rect transform="matrix(0,-1,-1,0,0,0)" x="-21" y="-21" width="20" height="20" rx="1" ry="1" fill="#c2352a"/>
  <path d="m2 1c-0.554 0-1 0.446-1 1v0.5c0-0.554 0.446-1 1-1h18c0.554 0 1 0.446 1 1v-0.5c0-0.554-0.446-1-1-1h-18z" fill="#fff" opacity=".2"/>
  <path d="m2 21.5c-0.554 0-1-0.446-1-1v-0.5c0 0.554 0.446 1 1 1h18c0.554 0 1-0.446 1-1v0.5c0 0.554-0.446 1-1 1h-18z" opacity=".2"/>
  <path d="m4 6.5v11h3v-7h2v7h4v-7h2v7h3v-9.075c0-1.078-0.834-1.925-1.896-1.925" opacity=".2"/>
  <path d="m4 6v11h3v-7h2v7h4v-7h2v7h3v-9.075c0-1.078-0.834-1.925-1.896-1.925" fill="#fff"/>
 </g>
</svg>
