<svg width="24" height="24" version="1" xmlns="http://www.w3.org/2000/svg">
 <circle cx="12" cy="12.5" r="10" style="opacity:.2"/>
 <circle cx="12" cy="12" r="10" style="fill:#cccccc"/>
 <path d="m17.09 9.5481a6.4169 4.7612 59 0 1 -8.1622 4.9039 6.4169 4.7612 59 1 1 8.1622 -4.9039z" style="fill:none;stroke-width:.53399998;stroke:#474747"/>
 <path d="m13 8.4923c-2.1236 0-3.8442 1.7201-3.8442 3.8442s1.7201 3.8442 3.8442 3.8442 3.8442-1.7201 3.8442-3.8442-1.7201-3.8442-3.8442-3.8442zm-0.68753 2.0316c1.4441 0 2.6251 1.1656 2.6251 2.6096 0 1.4441-1.1811 2.6251-2.6251 2.6251-1.4441 0-2.6096-1.1811-2.6096-2.6251 0-1.4441 1.1656-2.6096 2.6096-2.6096z" style="fill:#2a58ae"/>
 <path d="m5.1735 12.371s-1.5004 1.4328-1.3832 2.3276c0.1617 1.2342 1.7116 1.4311 2.9348 1.4168 2.9656-0.0341 13.528-3.4996 13.493-7.6571-0.011-1.3442-2.4288-1.463-2.4288-1.3832 0 0 1.793 0.4499 1.754 1.3156-0.146 3.2263-8.9684 6.8493-12.887 6.9483-0.8218 0.021-1.9664-0.156-2.2936-0.911-0.2932-0.676 0.8096-2.057 0.8096-2.057z" style="fill:#474747"/>
 <path d="m17.048 8.5067a1.87235 1.87235 0 0 1 -3.7447 0 1.87235 1.87235 0 1 1 3.7447 0z" style="fill:#d24646"/>
 <path d="m11.938 14.731a1.1976 1.1976 0 0 1 -2.3952 0 1.1976 1.1976 0 1 1 2.3952 0z" style="fill:#606060"/>
 <circle cx="18" cy="18" r="5" style="fill:#009545"/>
 <rect x="17" y="17" width="2" height="4" style="fill:#ffffff"/>
 <rect x="17" y="14" width="2" height="2" style="fill:#ffffff"/>
 <path d="M 12 2 A 10 10 0 0 0 2 12 A 10 10 0 0 0 2.0097656 12.292969 A 10 10 0 0 1 12 2.5 A 10 10 0 0 1 21.990234 12.207031 A 10 10 0 0 0 22 12 A 10 10 0 0 0 12 2 z" style="fill:#ffffff;opacity:.1"/>
</svg>
