<svg width="24" height="24" version="1.1" viewBox="0 0 24 24" xmlns="http://www.w3.org/2000/svg">
 <path d="M 12,2 A 10,10 0 0 0 2,12 10,10 0 0 0 12,22 10,10 0 0 0 22,12 10,10 0 0 0 12,2 Z" style="fill:#ff7c40"/>
 <path d="m14.525391 6.5019531a4.5 1.5 0 0 0 -4.5 1.5 4.5 1.5 0 0 0 4.5 1.5 4.5 1.5 0 0 0 4.5 -1.5 4.5 1.5 0 0 0 -4.5 -1.5zm4.236328 3a4.5 1.499268 0 0 1 -4.236328 0.9999999 4.5 1.499268 0 0 1 -4.236329 -0.9980468 4.5 1.499268 0 0 0 -0.263671 0.4980468 4.5 1.499268 0 0 0 4.5 1.5 4.5 1.499268 0 0 0 4.5 -1.5 4.5 1.499268 0 0 0 -0.263672 -0.4999999zm0 1.9999999a4.5 1.499268 0 0 1 -4.236328 1 4.5 1.499268 0 0 1 -0.822266 -0.02539c0.183294 0.163445 0.296875 0.338678 0.296875 0.523437 0 0 3.2e-5 0.388975 0 0.490234a4.5 1.499268 0 0 0 0.525391 0.01172 4.5 1.499268 0 0 0 4.5 -1.5 4.5 1.499268 0 0 0 -0.263672 -0.500001zm-8.472657 2e-3a4.5 1.499268 0 0 0 -0.02148 0.02344c0.01593 9.18e-4 0.03295-9.74e-4 0.04883 0a4.5 1.499268 0 0 1 -0.02734 -0.02344zm8.472657 1.996047a4.5 1.499268 0 0 1 -4.236328 1 4.5 1.499268 0 0 1 -0.525391 -0.011719c-1.07e-4 0.453259 2.7e-5 0.533348 0 1a4.5 1.499268 0 0 0 0.525391 0.01172 4.5 1.499268 0 0 0 4.5 -1.5 4.5 1.499268 0 0 0 -0.263672 -0.500001zm0 2a4.5 1.499268 0 0 1 -4.236328 1 4.5 1.499268 0 0 1 -0.525391 -0.011719c8.9e-5 0.125894-1.66e-4 0.489918 0 0.511719 2.46e-4 0.167981-0.101189 0.327713-0.253906 0.478516a4.5 1.499268 0 0 0 0.779297 0.02148 4.5 1.499268 0 0 0 4.5 -1.5 4.5 1.499268 0 0 0 -0.263672 -0.5z" style="opacity:.2"/>
 <path d="M 2.01075,12.209 A 10,10 0 0 0 2,12.5 10,10 0 0 0 12,22.5 10,10 0 0 0 22,12.5 10,10 0 0 0 21.9895,12.291 10,10 0 0 1 12,22 10,10 0 0 1 2.011,12.209 Z" style="opacity:.2"/>
 <path d="m12 2a10 10 0 0 0 -10 10 10 10 0 0 0 0.01075 0.209 10 10 0 0 1 9.989 -9.709 10 10 0 0 1 9.9895 9.791 10 10 0 0 0 0.0105 -0.291 10 10 0 0 0 -10 -10z" style="fill:#ffffff;opacity:.2"/>
 <path d="m14.525391 6.0019531a4.5 1.5 0 0 0 -4.5 1.5 4.5 1.5 0 0 0 4.5 1.5 4.5 1.5 0 0 0 4.5 -1.5 4.5 1.5 0 0 0 -4.5 -1.5zm4.236328 3a4.5 1.499268 0 0 1 -4.236328 0.9999999 4.5 1.499268 0 0 1 -4.236329 -0.9980468 4.5 1.499268 0 0 0 -0.263671 0.4980469 4.5 1.499268 0 0 0 4.5 1.4999999 4.5 1.499268 0 0 0 4.5 -1.4999999 4.5 1.499268 0 0 0 -0.263672 -0.5zm0 1.9999999a4.5 1.499268 0 0 1 -4.236328 1 4.5 1.499268 0 0 1 -0.822266 -0.025391c0.183294 0.163446 0.296875 0.338679 0.296875 0.523438 0 0 3.2e-5 0.388975 0 0.490234a4.5 1.499268 0 0 0 0.525391 0.011719 4.5 1.499268 0 0 0 4.5 -1.5 4.5 1.499268 0 0 0 -0.263672 -0.5zm-8.472657 0.001953a4.5 1.499268 0 0 0 -0.021484 0.023438c0.015932 9.18e-4 0.032955-9.74e-4 0.048828 0a4.5 1.499268 0 0 1 -0.027344 -0.023438zm8.472657 1.996094a4.5 1.499268 0 0 1 -4.236328 1 4.5 1.499268 0 0 1 -0.525391 -0.011719c-1.07e-4 0.453259 2.7e-5 0.533348 0 1a4.5 1.499268 0 0 0 0.525391 0.011719 4.5 1.499268 0 0 0 4.5 -1.5 4.5 1.499268 0 0 0 -0.263672 -0.5zm0 2a4.5 1.499268 0 0 1 -4.236328 1 4.5 1.499268 0 0 1 -0.525391 -0.011719c8.9e-5 0.125894-1.66e-4 0.489918 0 0.511719 2.46e-4 0.167981-0.101189 0.327713-0.253906 0.478516a4.5 1.499268 0 0 0 0.779297 0.021484 4.5 1.499268 0 0 0 4.5 -1.5 4.5 1.499268 0 0 0 -0.263672 -0.5z" style="fill:#ffd8c6"/>
 <path d="M 9.5,11.5 A 4.5,1.5 0 0 0 5,13 4.5,1.5 0 0 0 9.5,14.5 4.5,1.5 0 0 0 14,13 4.5,1.5 0 0 0 9.5,11.5 Z m 4.238281,3 A 4.5,1.499268 0 0 1 9.5,15.5 4.5,1.499268 0 0 1 5.2636719,14.501953 4.5,1.499268 0 0 0 5,15 4.5,1.499268 0 0 0 9.5,16.5 4.5,1.499268 0 0 0 14,15 4.5,1.499268 0 0 0 13.738281,14.5 Z m 0,2 A 4.5,1.499268 0 0 1 9.5,17.5 4.5,1.499268 0 0 1 5.2636719,16.501953 4.5,1.499268 0 0 0 5,17 4.5,1.499268 0 0 0 9.5,18.5 4.5,1.499268 0 0 0 14,17 4.5,1.499268 0 0 0 13.738281,16.5 Z" style="opacity:.2"/>
 <path d="M 9.5 11 A 4.5 1.5 0 0 0 5 12.5 A 4.5 1.5 0 0 0 9.5 14 A 4.5 1.5 0 0 0 14 12.5 A 4.5 1.5 0 0 0 9.5 11 z M 13.738281 14 A 4.5 1.499268 0 0 1 9.5 15 A 4.5 1.499268 0 0 1 5.2636719 14.001953 A 4.5 1.499268 0 0 0 5 14.5 A 4.5 1.499268 0 0 0 9.5 16 A 4.5 1.499268 0 0 0 14 14.5 A 4.5 1.499268 0 0 0 13.738281 14 z M 13.738281 16 A 4.5 1.499268 0 0 1 9.5 17 A 4.5 1.499268 0 0 1 5.2636719 16.001953 A 4.5 1.499268 0 0 0 5 16.5 A 4.5 1.499268 0 0 0 9.5 18 A 4.5 1.499268 0 0 0 14 16.5 A 4.5 1.499268 0 0 0 13.738281 16 z" style="fill:#ffffff"/>
</svg>
