<svg width="24" height="24" version="1" xmlns="http://www.w3.org/2000/svg">
 <path transform="matrix(.12368025 .21422047 -.24736049 .14281364 16.623018 -.07953805)" d="m23.723231 13.979746 3.032011 5.251599 3.032012 5.251599h-6.064024-6.064024l3.032012-5.251599z" style="fill:#9c9c9c"/>
 <rect x="5" y="19.5" width="14" height="2" style="opacity:.2"/>
 <path d="m10 13h4l2 8h-8z" style="fill:#4f4f4f"/>
 <path d="m17.501168 14.561009c-3.348047 1.932996-7.6291805 0.785871-9.562177-2.562177-1.9329965-3.348049-0.7858705-7.629182 2.562178-9.5621784z" style="opacity:.2"/>
 <path d="m17.501168 14.061009c-3.348047 1.932997-7.6291805 0.785871-9.562177-2.562177-1.9329965-3.348049-0.7858705-7.629182 2.562178-9.5621785z" style="fill:#686868"/>
 <circle transform="matrix(.5 .8660254 -.8660254 .5 0 0)" cx="14.495" cy="-10.106" r="1" style="opacity:.2"/>
 <circle transform="matrix(.5 .8660254 -.8660254 .5 0 0)" cx="14.062" cy="-10.356" r="1" style="fill:#cccccc"/>
 <path d="m10.500977 1.9365235c-2.3382655 1.349998-3.598501 3.845265-3.490235 6.368164 0.067527-2.347791 1.3068565-4.60759 3.490235-5.868164l6.777343 11.738282c0.07392-0.03926 0.14959-0.07207 0.222656-0.114258l-6.999999-12.124024z" style="fill:#ffffff;opacity:.1"/>
 <rect x="5" y="19" width="14" height="2" style="fill:#4f4f4f"/>
</svg>
