<svg width="24" height="24" version="1" xmlns="http://www.w3.org/2000/svg">
 <g transform="translate(1,1)">
  <rect transform="matrix(0,-1,-1,0,0,0)" x="-21" y="-21" width="20" height="20" rx="10" ry="10" fill="#672168"/>
  <rect transform="matrix(0,-1,-1,0,0,0)" x="-19.5" y="-19" width="16" height="16" rx="8" ry="8" opacity=".2"/>
  <rect transform="matrix(0,-1,-1,0,0,0)" x="-19" y="-19" width="16" height="16" rx="8" ry="8" fill="#a95bd5"/>
  <path d="m11 1c-5.4505 0-9.844 4.3185-9.9845 9.734 0.2669-5.298 4.6175-9.484 9.9845-9.484s9.7175 4.186 9.9845 9.4845c-0.14-5.4155-4.534-9.734-9.984-9.734z" fill="#fff" opacity=".2"/>
  <path d="m11 3c-4.432 0-8 3.568-8 8 0 0.0425-5e-4 0.0825 0 0.125 0.0675-4.373 3.6105-7.875 8-7.875s7.9325 3.502 8 7.875c5e-4 -0.0425 0-0.0825 0-0.125 0-4.432-3.568-8-8-8z" fill="#fff" opacity=".2"/>
  <path d="m8.51 7.4996a0.50005 0.50005 0 0 0 -0.51 0.5v8a0.50005 0.50005 0 0 0 0.74805 0.43457l7-4a0.50005 0.50005 0 0 0 0 -0.86915l-7-4a0.50005 0.50005 0 0 0 -0.238 -0.0655z" opacity=".2"/>
  <path d="m8.51 6.9996a0.50005 0.50005 0 0 0 -0.51 0.5v8a0.50005 0.50005 0 0 0 0.74805 0.43457l7-4a0.50005 0.50005 0 0 0 0 -0.86915l-7-4a0.50005 0.50005 0 0 0 -0.238 -0.0655z" fill="#e3dfe8"/>
  <path d="m1.0058 11.25c-2e-3 0.084-0.0058 0.166-0.0058 0.25 0 5.54 4.46 10 10 10s10-4.46 10-10c0-0.084-4e-3 -0.1665-6e-3 -0.25-0.132 5.423-4.538 9.75-9.994 9.75s-9.862-4.327-9.994-9.75z" opacity=".2"/>
 </g>
</svg>
