<svg width="24" height="24" version="1" xmlns="http://www.w3.org/2000/svg">
 <circle cx="12" cy="12" r="10" style="fill:#e65a2f"/>
 <rect transform="matrix(0,-1,-1,0,0,0)" x="-19.5" y="-19" width="14" height="14" rx="7" ry="7" style="opacity:.2"/>
 <rect transform="matrix(0,-1,-1,0,0,0)" x="-19" y="-19" width="14" height="14" rx="7" ry="7" style="fill:#ff9907"/>
 <g transform="matrix(.5 0 0 .5 -234.5 -82.99975)" style="enable-background:new;opacity:.2">
  <path d="m489 183v8.1875c-0.32-0.12-0.64-0.19-1-0.19-1.6568 0-3 1.3432-3 3s1.3432 3 3 3 3-1.3432 3-3v-7h6v4.1875c-0.32-0.12-0.64-0.19-1-0.19-1.6568 0-3 1.3432-3 3s1.3432 3 3 3 3-1.3432 3-3v-11h-1z"/>
 </g>
 <g transform="matrix(.5 0 0 .5 -234.5 -83.49975)" style="enable-background:new;fill:#ffffff">
  <path d="m489 183v8.1875c-0.32-0.12-0.64-0.19-1-0.19-1.6568 0-3 1.3432-3 3s1.3432 3 3 3 3-1.3432 3-3v-7h6v4.1875c-0.32-0.12-0.64-0.19-1-0.19-1.6568 0-3 1.3432-3 3s1.3432 3 3 3 3-1.3432 3-3v-11h-1z" style="fill:#ffffff"/>
 </g>
 <path d="M 12,2 A 10,10 0 0 0 2,12 10,10 0 0 0 2.0107,12.291 10,10 0 0 1 12,2.5 10,10 0 0 1 21.989,12.209 10,10 0 0 0 22,12 10,10 0 0 0 12,2 Z" style="fill:#ffffff;opacity:.2"/>
 <path d="M 21.989,12.209 A 10,10 0 0 1 12,22 10,10 0 0 1 2.0107,12.291 10,10 0 0 0 2,12.5 a 10,10 0 0 0 10,10 10,10 0 0 0 10,-10 10,10 0 0 0 -0.01074,-0.29102 z" style="opacity:.2"/>
 <path d="m12 5c-3.878 0-7 3.122-7 7 0 0.084525 0.0087769 0.166218 0.0117188 0.25 0.1320286-3.7601381 3.1948063-6.75 6.9882812-6.75 3.793475 0 6.856253 2.9898619 6.988281 6.75 0.002942-0.083782 0.011719-0.165475 0.011719-0.25 0-3.878-3.122-7-7-7z" style="fill:#ffffff;opacity:.2"/>
</svg>
