<svg width="24" height="24" version="1" xmlns="http://www.w3.org/2000/svg">
 <path d="m7.0009523 2.4988968a3.0003 3.0003 0 0 0 -3 3v9.0000012a3.0003 3.0003 0 0 0 3 3h1.75l2.8496087 3.800781a3.0003 3.0003 0 0 0 4.800782 0l3-4a3.0003 3.0003 0 0 0 -1.400391 -4.625v-0.675781c0-1.411188-0.140925-2.7254214-0.609375-3.9902356-0.495947-1.3390557-1.374763-2.5238424-2.601563-3.3125-1.225373-0.78774-2.410407-1.0399778-3.498046-1.1347656a3.0003 3.0003 0 0 0 -2.2910157 -1.0625z" style="opacity:.2"/>
 <path d="m7.0009523 1.9999996a3.0003 3.0003 0 0 0 -3 3v9.0000004a3.0003 3.0003 0 0 0 3 3h1.75l2.8496087 3.800781a3.0003 3.0003 0 0 0 4.800782 0l3-4a3.0003 3.0003 0 0 0 -1.400391 -4.625v-0.675781c0-1.411188-0.140925-2.7254211-0.609375-3.9902348-0.495947-1.3390557-1.374763-2.5238424-2.601563-3.3125-1.225373-0.78774-2.410407-1.0399778-3.498046-1.1347656a3.0003 3.0003 0 0 0 -2.2910157 -1.0625z" style="fill:#e14343"/>
 <path d="m7.0009523 5.4999996v9.0000004h2v-6.0000004c1.4999997 0 2.5733937 0.07606 3.0839837 0.4042969 0.255296 0.1641181 0.445096 0.3718741 0.619141 0.8417971 0.174045 0.4699224 0.296875 1.2029804 0.296875 2.2539064v3.5h-2l3 4 3-4h-2v-3.5c0-1.199074-0.12717-2.1535164-0.421875-2.9492194-0.294705-0.7957022-0.792405-1.4316963-1.412109-1.8300779-1.23941-0.7967632-2.666016-0.7207031-4.1660157-0.7207031v-1z" style="opacity:.2"/>
 <path d="m7.0009523 4.9999996v9.0000004h2v-6.0000004c1.4999997 0 2.5733937 0.07606 3.0839837 0.4042969 0.255296 0.1641184 0.445096 0.3718742 0.619141 0.8417971 0.174045 0.469922 0.296875 1.2029804 0.296875 2.2539064v3.5h-2l3 4 3-4h-2v-3.5c0-1.199074-0.12717-2.1535164-0.421875-2.9492192-0.294705-0.7957024-0.792405-1.4316965-1.412109-1.8300781-1.23941-0.7967632-2.666016-0.7207031-4.1660157-0.7207031v-1z" style="fill:#ffffff"/>
 <path d="m7.0009523 1.9999996a3.0003 3.0003 0 0 0 -3 3v0.5a3.0003 3.0003 0 0 1 3 -3h2a3.0003 3.0003 0 0 1 2.2910157 1.0625c1.087639 0.094788 2.272674 0.3470256 3.498046 1.1347656 1.2268 0.7886576 2.105616 1.9734443 2.601563 3.3125 0.46845 1.2648144 0.609375 2.5790468 0.609375 3.9902348v-0.5c0-1.411188-0.140925-2.7254211-0.609375-3.9902348-0.495947-1.3390557-1.374763-2.5238424-2.601563-3.3125-1.225372-0.78774-2.410407-1.0399778-3.498046-1.1347656a3.0003 3.0003 0 0 0 -2.2910157 -1.0625zm11 10.175781v0.5a3.0003 3.0003 0 0 1 1.984375 2.582031 3.0003 3.0003 0 0 0 -1.984375 -3.082031z" style="fill:#ffffff;opacity:.2"/>
</svg>
