<svg width="24" height="24" version="1" xmlns="http://www.w3.org/2000/svg">
 <g transform="translate(1,-1)">
  <path d="m11 3c-5.54 0-10 4.46-10 10s4.46 10 10 10 10-4.46 10-10-4.46-10-10-10z" fill="#ccc"/>
  <path d="m11 3c5.535 0 9.991 4.46 9.991 10 0 0.08394-4e-3 0.16657-0.0058 0.25-0.132-5.423-4.534-9.75-9.985-9.75s-9.853 4.327-9.985 9.75c-2e-3 -0.083-0.0058-0.166-0.0058-0.25 0-5.54 4.4559-10 9.991-10z" fill="#fff" opacity=".2"/>
  <path d="m1.0059 13.25c-0.0021 0.084-0.0059 0.166-0.0059 0.25 0 5.54 4.46 10 10 10s10-4.46 10-10c0-0.084-4e-3 -0.1665-6e-3 -0.25-0.132 5.423-4.538 9.75-9.994 9.75s-9.862-4.327-9.994-9.75z" opacity=".2"/>
  <path d="m11 5a8 8 0 0 0 -8 8 8 8 0 0 0 8 8 8 8 0 0 0 8 -8 8 8 0 0 0 -8 -8zm1 1.5a6 6 0 0 1 6 6 6 6 0 0 1 -6 6 6 6 0 0 1 -6 -6 6 6 0 0 1 6 -6z" fill="#2971d5"/>
  <rect x="2" y="11" width="5" height="5" rx="1" ry="1" fill="#fc924d"/>
  <rect x="15" y="15" width="4" height="4" rx=".8" ry=".8" fill="#fc924d"/>
  <rect x="14" y="6" width="3" height="3" rx=".6" ry=".6" fill="#fc924d"/>
  <path d="m14 8.4004v0.5c0 0.3324 0.267 0.5996 0.6 0.5996h1.8008c0.332 0 0.599-0.2672 0.599-0.5996v-0.5c0 0.3324-0.267 0.5996-0.6 0.5996h-1.8c-0.333 0-0.6-0.2672-0.6-0.5996zm-12 6.5996v0.5c0 0.554 0.446 1 1 1h3c0.554 0 1-0.446 1-1v-0.5c0 0.554-0.446 1-1 1h-3c-0.554 0-1-0.446-1-1zm13 3.1992v0.5c0 0.443 0.358 0.801 0.801 0.801h2.3984c0.443 0 0.801-0.358 0.801-0.801v-0.5c0 0.443-0.358 0.801-0.801 0.801h-2.3984c-0.443 0-0.801-0.358-0.801-0.801z" opacity=".2"/>
  <path d="m14.6 6c-0.333 0-0.6 0.2672-0.6 0.5996v0.5c0-0.3324 0.267-0.5996 0.6-0.5996h1.8008c0.332 0 0.599 0.2672 0.599 0.5996v-0.5c0-0.3324-0.267-0.5996-0.6-0.5996h-1.8zm-11.6 5c-0.554 0-1 0.446-1 1v0.5c0-0.554 0.446-1 1-1h3c0.554 0 1 0.446 1 1v-0.5c0-0.554-0.446-1-1-1h-3zm12.801 4c-0.443 0-0.801 0.358-0.801 0.801v0.5c0-0.443 0.358-0.801 0.801-0.801h2.3984c0.443 0 0.801 0.358 0.801 0.801v-0.5c0-0.443-0.358-0.801-0.801-0.801h-2.3984z" fill="#fff" opacity=".2"/>
 </g>
</svg>
