<svg width="24" height="24" version="1" xmlns="http://www.w3.org/2000/svg">
 <path d="m2 9v12c0 0.554 0.446 1 1 1h18c0.554 0 1-0.446 1-1v-12h-20z" style="fill:#ffffbf"/>
 <path d="m22 9v-6c0-0.554-0.446-1-1-1h-18c-0.554 0-1 0.446-1 1v6z" style="fill:#6765f6"/>
 <path d="m3 2c-0.554 0-1 0.446-1 1v0.5c0-0.554 0.446-1 1-1h18c0.554 0 1 0.446 1 1v-0.5c0-0.554-0.446-1-1-1h-18z" style="fill:#ffffff;opacity:.1"/>
 <path d="m3 22.5c-0.554 0-1-0.446-1-1v-0.5c0 0.554 0.446 1 1 1h18c0.554 0 1-0.446 1-1v0.5c0 0.554-0.446 1-1 1h-18z" style="opacity:.2"/>
 <rect x="6" y="9.5" width="4" height="4" style="opacity:.1"/>
 <rect x="6" y="9" width="4" height="4" style="fill:#3f3f3f"/>
 <rect x="14" y="9.5" width="4" height="4" style="opacity:.1"/>
 <rect x="14" y="9" width="4" height="4" style="fill:#3f3f3f"/>
</svg>
