<svg width="24" height="24" version="1.1" viewBox="0 0 24 24" xmlns="http://www.w3.org/2000/svg">
 <path d="m12 2.5c-5.1012485-8.7e-6 -8.9999228 4.635952-9 10 7.72e-5 5.364048 3.8987515 10.000008 9 10 5.101248 8e-6 8.999923-4.635952 9-10-7.7e-5 -5.364048-3.898752-10.000009-9-10z" style="opacity:.2"/>
 <path d="m12 2c-5.1012485-8.8e-6 -8.9999228 4.635952-9 10 7.72e-5 5.364048 3.8987515 10.000008 9 10 5.101248 8e-6 8.999923-4.635952 9-10-7.7e-5 -5.364048-3.898752-10.000009-9-10z" style="fill:#3a4b37"/>
 <path d="m12 4.5a6.9999895 8.0001315 0 0 0 -7 8 6.9999895 8.0001315 0 0 0 7 8 6.9999895 8.0001315 0 0 0 7 -8 6.9999895 8.0001315 0 0 0 -7 -8zm0 3a3.9998858 4.9999448 0 0 1 4 5 3.9998858 4.9999448 0 0 1 -4 5 3.9998858 4.9999448 0 0 1 -4 -5 3.9998858 4.9999448 0 0 1 4 -5z" style="opacity:.2"/>
 <path d="m12 4a6.9999895 8.0001315 0 0 0 -7 8 6.9999895 8.0001315 0 0 0 7 8 6.9999895 8.0001315 0 0 0 7 -8 6.9999895 8.0001315 0 0 0 -7 -8zm0 3a3.9998858 4.9999448 0 0 1 4 5 3.9998858 4.9999448 0 0 1 -4 5 3.9998858 4.9999448 0 0 1 -4 -5 3.9998858 4.9999448 0 0 1 4 -5z" style="fill:#a1eaa4"/>
 <path d="m12 2c-5.1012485-8.8e-6 -8.9999228 4.635952-9 10 1.2e-6 0.08415 0.00981 0.166225 0.011719 0.25 0.1198224-5.2564675 3.9670585-9.7500086 8.988281-9.75 5.021222-8.6e-6 8.868458 4.4935325 8.988281 9.75 0.00191-0.083775 0.011718-0.165851 0.011719-0.25-7.7e-5 -5.364048-3.898752-10.000009-9-10z" style="fill:#ffffff;opacity:.1"/>
 <path d="M 12 4 A 6.9999895 8.0001315 0 0 0 5 12 A 6.9999895 8.0001315 0 0 0 5.0097656 12.207031 A 6.9999895 8.0001315 0 0 1 12 4.5 A 6.9999895 8.0001315 0 0 1 18.990234 12.292969 A 6.9999895 8.0001315 0 0 0 19 12 A 6.9999895 8.0001315 0 0 0 12 4 z M 15.992188 12.207031 A 3.9998858 4.9999448 0 0 1 12 17 A 3.9998858 4.9999448 0 0 1 8.0078125 12.292969 A 3.9998858 4.9999448 0 0 0 8 12.5 A 3.9998858 4.9999448 0 0 0 12 17.5 A 3.9998858 4.9999448 0 0 0 16 12.5 A 3.9998858 4.9999448 0 0 0 15.992188 12.207031 z" style="fill:#ffffff;opacity:.1"/>
</svg>
