<svg width="24" height="24" version="1" xmlns="http://www.w3.org/2000/svg">
 <rect transform="matrix(0,-1,-1,0,0,0)" x="-16.5" y="-16" width="14" height="14" rx="2" ry="2" style="opacity:.2"/>
 <rect transform="matrix(0,-1,-1,0,0,0)" x="-16" y="-16" width="14" height="14" rx="2" ry="2" style="fill:#db7da0"/>
 <rect transform="matrix(0,-1,-1,0,0,0)" x="-19.5" y="-19" width="14" height="14" rx="2" ry="2" style="opacity:.2"/>
 <rect transform="matrix(0,-1,-1,0,0,0)" x="-19" y="-19" width="14" height="14" rx="2" ry="2" style="fill:#a6eb7d"/>
 <rect transform="matrix(0,-1,-1,0,0,0)" x="-22.5" y="-22" width="14" height="14" rx="2" ry="2" style="opacity:.2"/>
 <rect transform="matrix(0,-1,-1,0,0,0)" x="-22" y="-22" width="14" height="14" rx="2" ry="2" style="fill:#5fa6fa"/>
 <path d="m4 2c-1.108 0-2 0.892-2 2v0.5c0-1.108 0.892-2 2-2h10c1.108 0 2 0.892 2 2v-0.5c0-1.108-0.892-2-2-2h-10z" style="fill:#ffffff;opacity:.1"/>
 <path d="m7 5c-1.108 0-2 0.892-2 2v0.5c0-1.108 0.892-2 2-2h10c1.108 0 2 0.892 2 2v-0.5c0-1.108-0.892-2-2-2h-10z" style="fill:#ffffff;opacity:.1"/>
 <path d="m10 8c-1.108 0-2 0.892-2 2v0.5c0-1.108 0.892-2 2-2h10c1.108 0 2 0.892 2 2v-0.5c0-1.108-0.892-2-2-2h-10z" style="fill:#ffffff;opacity:.1"/>
 <path d="m14.514014 17.992879s2.084121-0.771768 2.018293-3.493c-0.0472-1.951193-2.018293-2.507233-2.018293-2.507233m-0.0141 5.993233v-5.999647" style="fill:none;opacity:.2;stroke-linecap:round;stroke-linejoin:bevel;stroke-width:.99999994;stroke:#000000"/>
 <path d="m14.514014 17.493s2.084121-0.771768 2.018293-3.493c-0.0472-1.951193-2.018293-2.507233-2.018293-2.507233m-0.0141 5.993233v-5.999647" style="fill:none;stroke-linecap:round;stroke-linejoin:bevel;stroke-width:.99999994;stroke:#ffffff"/>
 <path d="m18.506985 14.992879h1.999879m-1.999879-3.00022h1.999879m-1.99978 6.00022v-6.000122" style="fill:none;opacity:.2;stroke-linecap:round;stroke-linejoin:bevel;stroke-width:.99999994;stroke:#000000"/>
 <path d="m18.506985 14.493h1.999879m-1.999879-3.00022h1.999879m-1.99978 6.00022v-6.000122" style="fill:none;stroke-linecap:round;stroke-linejoin:bevel;stroke-width:.99999994;stroke:#ffffff"/>
 <path d="m10.506938 15.992658s1.999926 0.4645 1.999926-2.000002c0-2.464497-1.999926-1.999997-1.999926-1.999997m9.8e-5 6.00022v-6.000122" style="fill:none;opacity:.2;stroke-linecap:round;stroke-linejoin:bevel;stroke-width:.99999994;stroke:#000000"/>
 <path d="m10.506938 15.492779s1.999926 0.4645 1.999926-2.000002c0-2.464497-1.999926-1.999997-1.999926-1.999997m9.8e-5 6.00022v-6.000122" style="fill:none;stroke-linecap:round;stroke-linejoin:bevel;stroke-width:.99999994;stroke:#ffffff"/>
</svg>
