<svg width="24" height="24" version="1" xmlns="http://www.w3.org/2000/svg">
 <rect x="2" y="2.5" width="20" height="20" rx="1" ry="1" style="opacity:.2"/>
 <rect x="2" y="2" width="20" height="20" rx="1" ry="1" style="fill:#4f4f4f"/>
 <path d="m3 2c-0.554 0-1 0.446-1 1v0.5c0-0.554 0.446-1 1-1h18c0.554 0 1 0.446 1 1v-0.5c0-0.554-0.446-1-1-1z" style="fill:#ffffff;opacity:.1"/>
 <path d="m4.5070766 12.992871s2.9998466 0.338925 2.9998466-1.499906c0-1.8388323-2.9998466-1.4999418-2.9998466-1.4999418m7.2e-5 5.9998558v-5.9997818" style="fill:none;opacity:.2;stroke-linecap:round;stroke-linejoin:bevel;stroke:#000000"/>
 <path d="m4.5070766 12.492871s2.9998466 0.338925 2.9998466-1.499906c0-1.8388317-2.9998466-1.4999412-2.9998466-1.4999412m7.2e-5 5.9998552v-5.9997812" style="fill:none;stroke-linecap:round;stroke-linejoin:bevel;stroke:#a287e9"/>
 <path d="m14.5 15.992879v-5.9997458m-4.9957073 0l2.4957073 2.9998118 2.5-2.9998118m-4.9957073 5.9997458v-5.9997458" style="fill:none;opacity:.2;stroke-linecap:round;stroke-linejoin:round;stroke:#000000"/>
 <path d="m14.497851 15.492879v-5.9997452m-4.9957067 0 2.4957067 2.9998112 2.5-2.9998112m-4.9957067 5.9997452v-5.9997452" style="fill:none;stroke-linecap:round;stroke-linejoin:round;stroke:#ffb145"/>
 <path d="m16.507121 13.492913h2.999848m-2.999774 2.499966v-4.476767m2.999774 4.476767v-4.476767m-2.999848 0s0.0077-1.5229788 1.499942-1.5229788c1.492256 0 1.499906 1.5229788 1.499906 1.5229788" style="fill:none;opacity:.2;stroke-linecap:round;stroke-linejoin:bevel;stroke:#000000"/>
 <path d="m16.507121 12.992913h2.999848m-2.999774 2.499966v-4.476767m2.999774 4.476767v-4.476767m-2.999848 0s0.0077-1.5229782 1.499942-1.5229782c1.492256 0 1.499906 1.5229782 1.499906 1.5229782" style="fill:none;stroke-linecap:round;stroke-linejoin:bevel;stroke:#ffb145"/>
</svg>
