<svg width="24" height="24" version="1" xmlns="http://www.w3.org/2000/svg">
 <rect transform="matrix(0,-1,-1,0,0,0)" x="-22" y="-22" width="20" height="20" rx="1" ry="1" style="fill:#dd9f59"/>
 <rect transform="matrix(0,-1,-1,0,0,0)" x="-20.5" y="-20" width="16.5" height="16" rx="1" ry="1" style="opacity:.2"/>
 <rect transform="matrix(0,-1,-1,0,0,0)" x="-20" y="-20" width="16" height="16" rx=".97" ry="1" style="fill:#ffffff"/>
 <path d="m3 2c-0.554 0-1 0.446-1 1v0.5c0-0.554 0.446-1 1-1h18c0.554 0 1 0.446 1 1v-0.5c0-0.554-0.446-1-1-1h-18z" style="fill:#ffffff;opacity:.2"/>
 <path d="m2 21v0.5c0 0.554 0.446 1 1 1h18c0.554 0 1-0.446 1-1v-0.5c0 0.554-0.446 1-1 1h-18c-0.554 0-1-0.446-1-1z" style="opacity:.2"/>
 <path d="m8.5149297 5.5c-0.5278465 0.324216-2.140403 0.739479-3.0146485 0.993164l0.027345 0.077148c0.415792-0.041525 1.009827-0.100367 1.4267575-0.170898v0.6132815h-1.448242l0.035155 0.517578h1.211914c-0.208181 0.856044-0.689958 1.7160075-1.238281 2.376953l0.083007 0.077148c0.514195-0.372564 1.029547-0.7034615 1.355469-1.194336v2.209961h0.1328125c0.3537935 0 0.933198-0.136621 0.939453-0.178711v-2.2421875c0.2639235 0.237759 0.314367 0.515748 0.363282 0.811524 0.08987 0.075648 0.187473 0.111328 0.2773435 0.111328 0.187135 0 0.34668-0.135377 0.34668-0.3242185 0-0.2553915-0.092014-0.4915965-0.987305-0.692383v-0.955078h1.171875c0.187704 0 0.277822-0.429641 0.326172-0.5058595l-1.008789-0.524414-0.2246095 0.511719h-0.2646485v-0.7539065c0.31284-0.0711 0.604768-0.1417905 0.8408205-0.2128905 0.1371235 0.00349 0.6484375-0.044922 0.6484375-0.044922zm1.4855383 1.015625v4.484375c0.652414 0 0.991274-0.236553 0.986328-0.248047v-0.232422h1.010743v0.368165c0.549461 0 0.993164-0.159523 0.993164-0.170899v-3.634766c0.145613-0.02901 0.257305-0.075846 0.298828-0.1298825l-0.802735-0.4326175-0.557617 0.480469h-0.907226zm0.986328 1.001953h1.010743v2.501953h-1.010743zm2.013204 6.482422v1.5 1 1.5h1v-1.5h1.066406c0.227729 0.881993 1.022677 1.49868 1.933594 1.5 1.104569 0 2-0.895431 2-2s-0.895431-2-2-2c-0.911281 8.76e-4 -1.70675 0.617655-1.93457 1.5h-1.06543v-1.5zm4 1c0.552285 0 1 0.447715 1 1s-0.447715 1-1 1-1-0.447715-1-1 0.447715-1 1-1z" style="fill:#6b6b6b"/>
</svg>
