<svg width="24" height="24" version="1" xmlns="http://www.w3.org/2000/svg">
 <path d="m3 2.5h18c0.554 0 1 0.446 1 1v16.370483l-0.985453 1.347959c-0.326957 0.447231-0.215344 0.980674-0.765368 1.046926l-1.947912 0.234632h-15.301267c-0.554 0-1-0.446-1-1v-18c0-0.554 0.446-1 1-1z" style="opacity:.2"/>
 <rect x="2" y="2" width="20" height="20" rx="1" ry="1" style="fill:#cccccc"/>
 <path d="m3 2c-0.554 0-1 0.446-1 1v0.5c0-0.554 0.446-1 1-1h18c0.554 0 1 0.446 1 1v-0.5c0-0.554-0.446-1-1-1h-18z" style="fill:#ffffff;opacity:.2"/>
 <circle cx="7.5" cy="12" r="4" style="fill:#2b8ede"/>
 <circle cx="16.5" cy="12" r="4" style="fill:#d74c94"/>
 <circle cx="18" cy="19" r="5" style="opacity:.2"/>
 <circle cx="18" cy="18.5" r="5" style="fill:#9a3cdb"/>
 <path d="m18 15-2.5 3h1.5v3l2-0.01446v-2.98555h1.5z" style="fill:#ffffff"/>
</svg>
