<svg width="24" height="24" version="1" xmlns="http://www.w3.org/2000/svg">
 <g transform="translate(1,1)">
  <path d="m11 1c-3.324 0-6 2.676-6 6v2h2v-2c0-2.216 1.784-4 4-4s4 1.784 4 4v2h2v-2c0-3.324-2.676-6-6-6z" fill="#d2d2d2"/>
  <rect transform="matrix(0,-1,-1,0,0,0)" x="-21" y="-19" width="12" height="16" rx="1" ry="1" fill="#fecd38"/>
  <path d="m11 1c-3.324 0-6 2.676-6 6v0.5c0-3.324 2.676-6 6-6s6 2.676 6 6v-0.5c0-3.324-2.676-6-6-6z" fill="#fff" opacity=".2"/>
  <path d="m4 9c-0.554 0-1 0.446-1 1v0.5c0-0.554 0.446-1 1-1h14c0.554 0 1 0.446 1 1v-0.5c0-0.554-0.446-1-1-1h-14z" fill="#fff" opacity=".2"/>
  <path d="m11 3c-2.216 0-4 1.784-4 4v0.5c0-2.216 1.784-4 4-4s4 1.784 4 4v-0.5c0-2.216-1.784-4-4-4z" opacity=".2"/>
  <path d="m3 18.5v1c0 0.554 0.446 1 1 1h14c0.554 0 1-0.446 1-1v-1c0 0.554-0.446 1-1 1h-14c-0.554 0-1-0.446-1-1z" fill="#fff" opacity=".1"/>
  <path d="m3 19v1c0 0.554 0.446 1 1 1h14c0.554 0 1-0.446 1-1v-1c0 0.554-0.446 1-1 1h-14c-0.554 0-1-0.446-1-1z" fill="#cb9a05"/>
  <rect x="3" y="11" width="16" height="7" rx="0" ry="0" fill="#fed96a"/>
  <path d="m3 20v0.5c0 0.554 0.446 1 1 1h14c0.554 0 1-0.446 1-1v-0.5c0 0.554-0.446 1-1 1h-14c-0.554 0-1-0.446-1-1z" opacity=".2"/>
 </g>
</svg>
