<svg width="24" height="24" version="1" xmlns="http://www.w3.org/2000/svg">
 <path d="m12 2.5000013c-0.0094 0-0.01945 0.00143-0.02877 0.00143h-0.0031c-3.4891301 0.0199986-6.9681302 3.340713-6.9681302 5.8328555v8.2392852c0 3.386428 2.6250001 5.926428 7.0000002 5.926428 4.375 7e-4 7-2.538571 7-5.925v-8.0135702c0-2.59-3.495334-6.037857-7-6.0585713z" style="opacity:.2"/>
 <path d="m12 2.0000004c-0.0094 0-0.01945 0.00143-0.02877 0.00143h-0.0031c-3.4891301 0.0199986-6.9681302 3.340713-6.9681302 5.8328555v8.2392851c0 3.386428 2.6250001 5.926428 7.0000002 5.926428 4.375 7e-4 7-2.538571 7-5.925v-8.0135701c0-2.59-3.495334-6.037857-7-6.0585713z" style="fill:#4f4f4f"/>
 <path d="m12 2.0000004c-0.0094 0-0.01906 9.75e-4 -0.0284 9.75e-4h-0.0032c-3.4890232 0.02-6.9683712 3.340867-6.9683712 5.8330095v4.1660151h13.999971v-3.9384761c0-2.59-3.495334-6.0378795-7-6.0585938z" style="opacity:.1"/>
 <path d="m12 2.0000004c-0.0094 0-0.01906 9.75e-4 -0.0284 9.75e-4h-0.0032c-3.4890232 0.02-6.9683712 3.340867-6.9683712 5.8330095v4.1660151h6.9999712v-9.9970699z" style="opacity:.1"/>
 <path d="m12 5.5002499c0.551 0 1 0.480033 1 1.0714885v2.8573575c0 0.5908721-0.449 1.0709041-1 1.0709041s-1-0.480032-1-1.0717376v-2.8573575c0-0.5908725 0.449-1.0709045 1-1.0709045" style="opacity:.2"/>
 <path d="m12 5.0002499c0.551 0 1 0.480033 1 1.0714885v2.8573575c0 0.5908725-0.449 1.0709041-1 1.0709041s-1-0.4800316-1-1.0717376v-2.8573575c0-0.5908725 0.449-1.0709045 1-1.0709045" style="fill:#e4e4e4"/>
 <path d="m12 2c-0.0094 0-0.019977 0.0019531-0.029297 0.0019531h-0.001953c-3.4891301 0.0199986-6.96875 3.3398888-6.96875 5.8320313v0.5c0-2.4921425 3.4796199-5.8120327 6.96875-5.8320313h0.001953c0.00932 0 0.019897-0.0019531 0.029297-0.0019531v0.0019531c3.504666 0.0207143 7 3.4685938 7 6.0585938v-0.5c0-2.59-3.495334-6.0378795-7-6.0585938v-0.0019531z" style="fill:#ffffff;opacity:.1"/>
</svg>
