<svg width="24" height="24" version="1" xmlns="http://www.w3.org/2000/svg">
 <rect transform="matrix(0,-1,-1,0,0,0)" x="-22" y="-22" width="20" height="20" rx="1" ry="1" style="fill:#325f78"/>
 <path d="m3 2c-0.554 0-1 0.446-1 1v0.5c0-0.554 0.446-1 1-1h18c0.554 0 1 0.446 1 1v-0.5c0-0.554-0.446-1-1-1h-18z" style="fill:#ffffff;opacity:.1"/>
 <path d="m3 22.5c-0.554 0-1-0.446-1-1v-0.5c0 0.554 0.446 1 1 1h18c0.554 0 1-0.446 1-1v0.5c0 0.554-0.446 1-1 1h-18z" style="opacity:.2"/>
 <g transform="translate(0 .5)" style="opacity:.2">
  <rect x="4" y="4" width="4" height="4" rx=".5" ry=".5"/>
  <rect x="4" y="10" width="4" height="4" rx=".5" ry=".5"/>
  <rect x="4" y="16" width="4" height="4" rx=".5" ry=".5"/>
  <rect x="10" y="4" width="4" height="4" rx=".5" ry=".5"/>
  <rect x="10" y="10" width="4" height="4" rx=".5" ry=".5"/>
 </g>
 <g style="fill:#ffffff">
  <rect x="4" y="4" width="4" height="4" rx=".5" ry=".5"/>
  <rect x="4" y="10" width="4" height="4" rx=".5" ry=".5"/>
  <rect x="4" y="16" width="4" height="4" rx=".5" ry=".5"/>
  <rect x="10" y="4" width="4" height="4" rx=".5" ry=".5"/>
  <rect x="10" y="10" width="4" height="4" rx=".5" ry=".5"/>
 </g>
</svg>
