<svg width="24" height="24" version="1.1" xmlns="http://www.w3.org/2000/svg">
 <path d="m12 2.5000002c-5.5176535 0-10 4.4823448-10 9.9999998s4.4823465 10.000001 10 10c5.517654 0 10.000005-4.482345 10-10 0-5.517655-4.482346-9.9999998-10-9.9999998z" style="opacity:.2"/>
 <path d="m12 2.0000002c-5.5176535 0-10 4.4823448-10 9.9999998s4.4823465 10.000001 10 10c5.517654 0 10.000005-4.482345 10-10 0-5.517655-4.482346-9.9999998-10-9.9999998z" style="fill:#4f4f4f"/>
 <path d="M 12,2 C 6.4823465,2 2,6.482345 2,12 c 0,0.08392 0.0038,0.166575 0.00586,0.25 C 2.1393415,6.8480585 6.5662625,2.5 12,2.5 c 5.433737,0 9.860658,4.3480585 9.99414,9.75 C 21.996202,12.166575 22,12.083916 22,12 22,6.482345 17.517654,2 12,2 Z" style="fill:#ffffff;opacity:.1"/>
 <path d="m12.000001 4.5c-4.414125 0-8.000001 3.5858755-8.000001 8 0 4.414124 3.585876 8.000001 8.000001 8 4.414123 0 8.000002-3.585876 7.999999-8 0-4.4141245-3.585876-8-7.999999-8z" style="opacity:.2"/>
 <path d="M 12.000001,4 C 7.585876,4 4,7.5858755 4,12 4,16.414124 7.585876,20.000001 12.000001,20 16.414124,20 20.000003,16.414124 20,12 20,7.5858755 16.414124,4 12.000001,4 Z" style="fill:#ef8a24"/>
 <path d="m 12,4 c -4.4141245,0 -8,3.585876 -8,8 0,0.08438 0.010094,0.166242 0.012696,0.25 C 4.1461845,7.952308 7.670258,4.5 12,4.5 c 4.329741,0 7.853815,3.452308 7.987304,7.75 C 19.989906,12.166242 20,12.084383 20,12 20,7.585876 16.414123,4 12,4 Z" style="fill:#ffffff;opacity:.1"/>
 <path d="m12 10.5c-1.103531 0-2 0.896469-2 2s0.896469 2 2 2 2-0.896469 2-2-0.896469-2-2-2z" style="opacity:.2"/>
 <path d="m12 12.4999 8-8.0000003" style="fill:none;opacity:.2;stroke-linecap:round;stroke-linejoin:round;stroke-width:2;stroke:#000000"/>
 <path d="m12 12 8-8" style="fill:none;stroke-linecap:round;stroke-linejoin:round;stroke-width:2;stroke:#e4e4e4"/>
 <path d="m8 9.4999 4 3" style="fill:none;opacity:.2;stroke-linecap:round;stroke-linejoin:round;stroke-width:2;stroke:#000000"/>
 <path d="m8 9 4 3" style="fill:none;stroke-linecap:round;stroke-linejoin:round;stroke-width:2;stroke:#e4e4e4"/>
 <path d="m12 10c-1.103531 0-2 0.896469-2 2s0.896469 2 2 2 2-0.896469 2-2-0.896469-2-2-2z" style="fill:#4f4f4f"/>
</svg>
