<svg width="24" height="24" version="1.1" viewBox="0 0 24 24" xmlns="http://www.w3.org/2000/svg">
 <rect transform="matrix(0,-1,-1,0,0,0)" x="-16.5" y="-19" width="12" height="9" rx=".75" ry=".75" style="opacity:.2"/>
 <rect transform="matrix(0,-1,-1,0,0,0)" x="-16" y="-19" width="12" height="9" rx=".75" ry=".75" style="fill:#8e8e8e"/>
 <rect transform="matrix(0,-1,-1,0,0,0)" x="-14.5" y="-22" width="12" height="15" rx=".75" ry=".75" style="opacity:.2"/>
 <rect transform="matrix(0,-1,-1,0,0,0)" x="-14" y="-22" width="12" height="15" rx=".75" ry=".75" style="fill:#4f4f4f"/>
 <rect transform="matrix(0,-1,-1,0,0,0)" x="-12" y="-20" width="8" height="11" rx="0" ry="0" style="fill:#266ad7"/>
 <rect transform="matrix(0,-1,-1,0,0,0)" x="-22.5" y="-14" width="12" height="9" rx=".75" ry=".75" style="opacity:.2"/>
 <rect transform="matrix(0,-1,-1,0,0,0)" x="-22" y="-14" width="12" height="9" rx=".75" ry=".75" style="fill:#8e8e8e"/>
 <rect transform="matrix(0,-1,-1,0,0,0)" x="-20.5" y="-17" width="12" height="15" rx=".75" ry=".75" style="opacity:.2"/>
 <rect transform="matrix(0,-1,-1,0,0,0)" x="-20" y="-17" width="12" height="15" rx=".75" ry=".75" style="fill:#4f4f4f"/>
 <rect transform="matrix(0,-1,-1,0,0,0)" x="-18" y="-15" width="8" height="11" rx="0" ry="0" style="fill:#ffbe47"/>
 <path d="m2.75 8c-0.4155 0-0.75 0.3345-0.75 0.75v0.5c0-0.4155 0.3345-0.75 0.75-0.75h13.5c0.416 0 0.75 0.3345 0.75 0.75v-0.5c0-0.4155-0.334-0.75-0.75-0.75h-13.5z" style="fill:#ffffff;opacity:.1"/>
 <path d="m7.75 2c-0.4155 0-0.75 0.3345-0.75 0.75v0.5c0-0.4155 0.3345-0.75 0.75-0.75h13.5c0.416 0 0.75 0.3345 0.75 0.75v-0.5c0-0.4155-0.334-0.75-0.75-0.75h-13.5z" style="fill:#ffffff;opacity:.1"/>
</svg>
