<svg width="24" height="24" version="1" xmlns="http://www.w3.org/2000/svg">
 <rect transform="matrix(0,-1,-1,0,0,0)" x="-22" y="-22" width="20" height="20" rx="1" ry="1" fill="#4694d7"/>
 <path d="m10 7.5a3 3 0 0 1 -3 3 3 3 0 0 1 -3 -3 3 3 0 0 1 3 -3 3 3 0 0 1 3 3z" opacity=".2"/>
 <path d="m10 7a3 3 0 0 1 -3 3 3 3 0 0 1 -3 -3 3 3 0 0 1 3 -3 3 3 0 0 1 3 3z" fill="#fff"/>
 <path d="m10 17a3 3 0 0 1 -3 3 3 3 0 0 1 -3 -3 3 3 0 0 1 3 -3 3 3 0 0 1 3 3z" fill="#4d4d4d"/>
 <path d="m20 17.5a3 3 0 0 0 -3 -3 3 3 0 0 0 -3 3 3 3 0 0 0 3 3 3 3 0 0 0 3 -3z" opacity=".2"/>
 <path d="m20 17a3 3 0 0 0 -3 -3 3 3 0 0 0 -3 3 3 3 0 0 0 3 3 3 3 0 0 0 3 -3z" fill="#fff"/>
 <path d="m20 7a3 3 0 0 0 -3 -3 3 3 0 0 0 -3 3 3 3 0 0 0 3 3 3 3 0 0 0 3 -3z" fill="#4d4d4d"/>
 <path d="m3 2c-0.554 0-1 0.446-1 1v0.5c0-0.554 0.446-1 1-1h18c0.554 0 1 0.446 1 1v-0.5c0-0.554-0.446-1-1-1h-18z" fill="#fff" opacity=".2"/>
 <path d="m3 22.5c-0.554 0-1-0.446-1-1v-0.5c0 0.554 0.446 1 1 1h18c0.554 0 1-0.446 1-1v0.5c0 0.554-0.446 1-1 1h-18z" opacity=".2"/>
</svg>
