<svg width="24" height="24" version="1" xmlns="http://www.w3.org/2000/svg">
 <g transform="matrix(.5 0 0 .48387 2.0001e-5 .69359)" style="opacity:.2">
  <path d="m13 12c-4.9706 0-9 4.925-9 11 0.0039 4.714 2.465 8.901 6.119 10.41-0.079 0.523-0.1192 1.056-0.119 1.59 0 4.4183 2.6863 8 6 8 3.3137 3e-6 6-3.5817 6-8v-12c0-6.075-4.029-11-9-11z"/>
  <path d="m35 12c4.9706 0 9 4.9249 9 11-0.0039 4.7141-2.465 8.9012-6.1191 10.41 0.079 0.523 0.119 1.056 0.119 1.59 0 4.4183-2.6863 8-6 8-3.3137 3e-6 -6-3.5817-6-8v-12c0-6.0751 4.0294-11 9-11z"/>
 </g>
 <path d="m9.3584 4.50034c-0.1975 0-0.3585 0.17665-0.3585 0.39455 0 0.17809 0.10714 0.32786 0.25488 0.37695 0.222 0.8329 0.7448 1.6174 1.4672 2.1874a1.5 2 0 0 0 -0.222 1.041 1.5 2 0 0 0 0.5 1.4885v10.011c0 0.86804 0.39907 1.5 0.99999 1.5s0.99864-0.65769 0.99999-1.5v-10.012a1.5 2 0 0 0 0.5 -1.4879 1.5 2 0 0 0 -0.22 -1.041c0.72149-0.56999 1.2435-1.355 1.4655-2.1875 0.148-0.049099 0.255-0.1989 0.255-0.37695 0-0.2179-0.161-0.39455-0.3585-0.39455-0.19829 0-0.35937 0.17702-0.35937 0.39453 0 0.12004 0.04899 0.2268 0.12597 0.29883-0.20251 0.73544-0.67054 1.4299-1.3125 1.9433a1.5 2 0 0 0 -1.096 -0.6363 1.5 2 0 0 0 -1.094 0.6365c-0.643-0.5135-1.1113-1.2075-1.3138-1.9432 0.077-0.072 0.126-0.1788 0.126-0.2988 0-0.2175-0.1615-0.3945-0.3595-0.3945z" style="opacity:.2"/>
 <path d="m9.3584 4.0002c-0.1975 0-0.3585 0.17665-0.3585 0.39455 0 0.17809 0.10714 0.32786 0.25488 0.37695 0.222 0.8329 0.7448 1.6174 1.4672 2.1874a1.5 2 0 0 0 -0.222 1.041 1.5 2 0 0 0 0.5 1.4885v10.011c0 0.86804 0.39907 1.5 0.99999 1.5s0.99864-0.65769 0.99999-1.5v-10.012a1.5 2 0 0 0 0.5 -1.4879 1.5 2 0 0 0 -0.22 -1.041c0.72149-0.56999 1.2435-1.355 1.4655-2.1875 0.148-0.049099 0.255-0.1989 0.255-0.37695 0-0.2179-0.161-0.39455-0.3585-0.39455-0.19829 0-0.35937 0.17702-0.35937 0.39453 0 0.12004 0.04899 0.2268 0.12597 0.29883-0.20251 0.73544-0.67054 1.4299-1.3125 1.9433a1.5 2 0 0 0 -1.096 -0.6363 1.5 2 0 0 0 -1.094 0.6365c-0.643-0.5135-1.1113-1.2075-1.3138-1.9432 0.077-0.072 0.126-0.1788 0.126-0.2988 0-0.2175-0.1615-0.3945-0.3595-0.3945z" fill="#4f4f4f"/>
 <g transform="matrix(.5 0 0 .48387 2.0001e-5 .19345)" fill="#e75177">
  <path d="m13 12c-4.9706 0-9 4.925-9 11 0.0039 4.714 2.465 8.901 6.119 10.41-0.079 0.523-0.1192 1.056-0.119 1.59 0 4.4183 2.6863 8 6 8 3.3137 3e-6 6-3.5817 6-8v-12c0-6.075-4.029-11-9-11z"/>
  <path d="m35 12c4.9706 0 9 4.9249 9 11-0.0039 4.7141-2.465 8.9012-6.1191 10.41 0.079 0.523 0.119 1.056 0.119 1.59 0 4.4183-2.6863 8-6 8-3.3137 3e-6 -6-3.5817-6-8v-12c0-6.0751 4.0294-11 9-11z"/>
 </g>
 <path d="m5.9921875 7.5015765a4.0673307 2.3887266 77.04598 0 0 -0.4765625 0.0527344 4.0673307 2.3887266 77.04598 0 0 -1.3125 4.6054691 4.0673307 2.3887266 77.04598 0 0 3.28125 3.285156 4.0673307 2.3887266 77.04598 0 0 1.3144531 -4.605468 4.0673307 2.3887266 77.04598 0 0 -2.8066406 -3.3378915zm12.017578 0a2.3887266 4.0673307 12.95402 0 0 -2.806641 3.3378915 2.3887266 4.0673307 12.95402 0 0 1.3125 4.605468 2.3887266 4.0673307 12.95402 0 0 3.283203 -3.285156 2.3887266 4.0673307 12.95402 0 0 -1.314453 -4.6054691 2.3887266 4.0673307 12.95402 0 0 -0.474609 -0.052734zm-10.72461 8.9980475a2.0251 1.4658 76.838 0 0 -0.2890624 0.03906 2.0251 1.4658 76.838 0 0 -0.9082032 2.355469 2.0251 1.4658 76.838 0 0 1.9160156 1.566407 2.0251 1.4658 76.838 0 0 0.9082032 -2.355469 2.0251 1.4658 76.838 0 0 -1.6269532 -1.605469zm9.4277348 0a1.4658 2.0251 13.162 0 0 -1.625 1.605469 1.4658 2.0251 13.162 0 0 0.90625 2.355469 1.4658 2.0251 13.162 0 0 1.917968 -1.566407 1.4658 2.0251 13.162 0 0 -0.908203 -2.355469 1.4658 2.0251 13.162 0 0 -0.291015 -0.03906z" style="opacity:.2"/>
 <path d="m5.9921875 7.0019531a4.0673307 2.3887266 77.04598 0 0 -0.4765625 0.0527344 4.0673307 2.3887266 77.04598 0 0 -1.3125 4.6054685 4.0673307 2.3887266 77.04598 0 0 3.28125 3.285156 4.0673307 2.3887266 77.04598 0 0 1.3144531 -4.605468 4.0673307 2.3887266 77.04598 0 0 -2.8066406 -3.3378909zm12.017578 0a2.3887266 4.0673307 12.95402 0 0 -2.806641 3.3378909 2.3887266 4.0673307 12.95402 0 0 1.3125 4.605468 2.3887266 4.0673307 12.95402 0 0 3.283203 -3.285156 2.3887266 4.0673307 12.95402 0 0 -1.314453 -4.6054685 2.3887266 4.0673307 12.95402 0 0 -0.474609 -0.0527344zm-10.72461 8.9980469a2.0251 1.4658 76.838 0 0 -0.2890624 0.039062 2.0251 1.4658 76.838 0 0 -0.9082032 2.355469 2.0251 1.4658 76.838 0 0 1.9160156 1.566407 2.0251 1.4658 76.838 0 0 0.9082032 -2.355469 2.0251 1.4658 76.838 0 0 -1.6269532 -1.605469zm9.4277348 0a1.4658 2.0251 13.162 0 0 -1.625 1.605469 1.4658 2.0251 13.162 0 0 0.90625 2.355469 1.4658 2.0251 13.162 0 0 1.917968 -1.566407 1.4658 2.0251 13.162 0 0 -0.908203 -2.355469 1.4658 2.0251 13.162 0 0 -0.291015 -0.039062z" style="fill:#ff85aa"/>
 <path d="m5.9921875 7.0019531a4.0673307 2.3887266 77.04598 0 0 -0.4765625 0.0527344 4.0673307 2.3887266 77.04598 0 0 -1.5078125 3.2265625 4.0673307 2.3887266 77.04598 0 1 1.5078125 -2.7265625 4.0673307 2.3887266 77.04598 0 1 0.4765625 -0.0527344 4.0673307 2.3887266 77.04598 0 1 2.8066406 3.3378909 4.0673307 2.3887266 77.04598 0 1 0.1953125 1.380859 4.0673307 2.3887266 77.04598 0 0 -0.1953125 -1.880859 4.0673307 2.3887266 77.04598 0 0 -2.8066406 -3.3378909zm12.017578 0a2.3887266 4.0673307 12.95402 0 0 -2.806641 3.3378909 2.3887266 4.0673307 12.95402 0 0 -0.195313 1.871094 2.3887266 4.0673307 12.95402 0 1 0.195313 -1.371094 2.3887266 4.0673307 12.95402 0 1 2.806641 -3.3378909 2.3887266 4.0673307 12.95402 0 1 0.474609 0.0527344 2.3887266 4.0673307 12.95402 0 1 1.507813 2.7285155 2.3887266 4.0673307 12.95402 0 0 -1.507813 -3.2285155 2.3887266 4.0673307 12.95402 0 0 -0.474609 -0.0527344zm-10.72461 8.9980469a2.0251 1.4658 76.838 0 0 -0.2890624 0.039062 2.0251 1.4658 76.838 0 0 -0.9824219 1.916016 2.0251 1.4658 76.838 0 1 0.9824219 -1.416016 2.0251 1.4658 76.838 0 1 0.2890624 -0.039062 2.0251 1.4658 76.838 0 1 1.6269532 1.605469 2.0251 1.4658 76.838 0 1 0.0761718 0.439453 2.0251 1.4658 76.838 0 0 -0.0761718 -0.939453 2.0251 1.4658 76.838 0 0 -1.6269532 -1.605469zm9.4277348 0a1.4658 2.0251 13.162 0 0 -1.625 1.605469 1.4658 2.0251 13.162 0 0 -0.074219 0.933593 1.4658 2.0251 13.162 0 1 0.074219 -0.433593 1.4658 2.0251 13.162 0 1 1.625 -1.605469 1.4658 2.0251 13.162 0 1 0.291015 0.039062 1.4658 2.0251 13.162 0 1 0.982422 1.431641 1.4658 2.0251 13.162 0 0 -0.982422 -1.931641 1.4658 2.0251 13.162 0 0 -0.291015 -0.039062z" style="fill:#ffffff;opacity:.1"/>
 <g transform="matrix(.5 0 0 .48387 2.0001e-5 .19345)" style="fill:#ffffff;opacity:.2">
  <path transform="matrix(2 0 0 2.0666708 -4.0002e-5 -.39979747)" d="m6.5 6c-2.4853 0-4.5 2.3827554-4.5 5.322266 8.09e-5 0.094615 0.0152675 0.185632 0.0195312 0.279296 0.1000314-2.8347798 2.0591278-5.101562 4.4804688-5.101562 2.4855 0 4.5 2.3827554 4.5 5.322266v-0.5c0-2.9395106-2.0145-5.322266-4.5-5.322266zm-1.4785156 10.839844c-0.005619 0.096678-0.021522 0.192017-0.0214844 0.289062 0 0.085067 0.015343 0.164346 0.0195312 0.248047 0.0087722-0.173252 0.0124966-0.347379 0.0390626-0.517578-0.0130512-0.005216-0.0241194-0.014183-0.0371094-0.019531z" style="fill:#ffffff"/>
  <path transform="matrix(2 0 0 2.0666708 -4.0002e-5 -.39979747)" d="m17.5 6c-2.4853 0-4.5 2.382707-4.5 5.322266v0.5c0-2.939559 2.0147-5.322266 4.5-5.322266 2.421341 0 4.380437 2.2667398 4.480469 5.101562 0.004263-0.093666 0.01945-0.184678 0.019531-0.279296 0-2.939559-2.0147-5.322266-4.5-5.322266zm1.478516 10.839844c-0.012991 0.005347-0.024058 0.014316-0.03711 0.019531 0.026566 0.170199 0.03029 0.344326 0.039063 0.517578 0.004188-0.083701 0.019531-0.16298 0.019531-0.248047 0-0.097045-0.015868-0.192384-0.021484-0.289062z" style="fill:#ffffff"/>
 </g>
 <path d="m9.359375 4c-0.1975 0-0.359375 0.1766313-0.359375 0.3945312 0 0.0966151 0.0354493 0.1796553 0.0878906 0.2480469 0.0658422-0.0855463 0.1619694-0.1425781 0.2714844-0.1425781 0.1089672 0 0.2035092 0.0561601 0.2695312 0.140625 0.0517699-0.0679828 0.0898438-0.150298 0.0898438-0.2460938 0-0.2175-0.161375-0.3945312-0.359375-0.3945312zm5.283203 0c-0.19829 0-0.359375 0.1770213-0.359375 0.3945312 0 0.0968493 0.037094 0.1797518 0.089844 0.2480469 0.065947-0.0851237 0.159918-0.1425781 0.269531-0.1425781 0.109638 0 0.203688 0.0568663 0.269531 0.1425781 0.052446-0.0683968 0.087891-0.1514535 0.087891-0.2480469 0-0.2179-0.159922-0.3945312-0.357422-0.3945312zm-4.9433592 0.984375c-0.0181164 0.0815426-0.0510483 0.1562714-0.1074219 0.2089844 0.1491819 0.5419909 0.4444311 1.0607219 0.8457031 1.5019531 0.094016 0.0888601 0.182845 0.1829449 0.285156 0.2636719a1.5 2 0 0 0 -0.001953 0.0058594c0.062578 0.0567277 0.119143 0.1188444 0.185547 0.171875a1.5 2 0 0 1 1.09375 -0.6367188 1.5 2 0 0 1 1.095703 0.6367188c0.066452-0.0531444 0.122924-0.1150059 0.185547-0.171875a1.5 2 0 0 0 -0.001953 -0.0058594c0.100941-0.0797451 0.188393-0.1720619 0.28125-0.2597656 0.402283-0.4420034 0.698103-0.9627376 0.847656-1.5058594-0.0564-0.0527736-0.08933-0.1273612-0.107422-0.2089844-0.235659 0.6247762-0.649472 1.2080041-1.205078 1.6523438a1.5 2 0 0 0 -1.095703 -0.6367188 1.5 2 0 0 0 -1.09375 0.6367188c-0.556608-0.4445076-0.9713342-1.0273593-1.2070312-1.6523438zm0.8886722 2.3496094a1.5 2 0 0 0 -0.087891 0.6660156 1.5 2 0 0 0 0.013672 0.2539062 1.5 2 0 0 1 0.208984 -0.7949218c-0.048421-0.0382065-0.088168-0.0849161-0.134765-0.125zm2.824218 0.0019531c-0.045959 0.039545-0.085078 0.0853357-0.132812 0.1230469a1.5 2 0 0 1 0.207031 0.7890625 1.5 2 0 0 0 0.013672 -0.2480469 1.5 2 0 0 0 -0.087891 -0.6640625z" style="fill:#ffffff;opacity:.1"/>
</svg>
