<svg width="24" height="24" version="1.1" xmlns="http://www.w3.org/2000/svg">
 <rect transform="matrix(0,-1,-1,0,0,0)" x="-22" y="-22" width="20" height="19.998" rx="10" ry="9.999" fill="#0286c2"/>
 <path d="m12 2c-5.5395 0-9.999 4.46-9.999 10 0 0.08386-2e-3 0.16664 0 0.25 0.1321-5.423 4.5435-9.75 9.999-9.75s9.867 4.3268 9.999 9.75c2e-3 -0.08335 0-0.16614 0-0.25 0-5.54-4.459-10-9.999-10z" fill="#fff" opacity=".2"/>
 <path d="m2.0058 12.25c-2e-3 0.084-0.0058 0.166-0.0058 0.25 0 5.54 4.46 10 10 10s10-4.46 10-10c0-0.084-4e-3 -0.1665-6e-3 -0.25-0.132 5.423-4.538 9.75-9.994 9.75s-9.862-4.327-9.994-9.75z" opacity=".2"/>
 <path d="m12 6.5a6 6 0 0 0 -6 6 6 6 0 0 0 6 6 6 6 0 0 0 2.4042 -0.51 3.2308 3.2308 0 0 1 -0.558 0.04846 3.2308 3.2308 0 0 1 -3.2308 -3.2308 3.2308 3.2308 0 0 1 3.2308 -3.2308 3.2308 3.2308 0 0 1 3.2308 3.2308 3.2308 3.2308 0 0 1 -0.24969 1.2438 6 6 0 0 0 1.173 -3.551 6 6 0 0 0 -6 -6z" opacity=".2"/>
 <path d="m12 6a6 6 0 0 0 -6 6 6 6 0 0 0 6 6 6 6 0 0 0 2.4042 -0.51 3.2308 3.2308 0 0 1 -0.558 0.04846 3.2308 3.2308 0 0 1 -3.2308 -3.2308 3.2308 3.2308 0 0 1 3.2308 -3.2308 3.2308 3.2308 0 0 1 3.2308 3.2308 3.2308 3.2308 0 0 1 -0.24969 1.2438 6 6 0 0 0 1.173 -3.551 6 6 0 0 0 -6 -6z" fill="#fff"/>
</svg>
