<svg width="24" height="24" version="1" xmlns="http://www.w3.org/2000/svg">
 <rect transform="matrix(0,-1,-1,0,0,0)" x="-22" y="-22" width="20" height="20" rx="10" ry="10" fill="#355871"/>
 <path d="m12.001 2c-5.5401 0-10 4.46-10 10 0 0.084-2e-3 0.1665 0 0.25 0.1322-5.423 4.544-9.75 10-9.75s9.868 4.327 10 9.75c2e-3 -0.0835 0-0.166 0-0.25 0-5.54-4.46-10-10-10z" fill="#fff" opacity=".1"/>
 <path d="m2.0067 12.25c-0.00205 0.0835-0.00585 0.166-0.00585 0.25 0 5.54 4.46 10 10 10s10-4.46 10-10c0-0.084-4e-3 -0.1665-6e-3 -0.25-0.132 5.423-4.538 9.75-9.994 9.75s-9.862-4.327-9.994-9.75z" opacity=".2"/>
 <path d="m19.001 4.5-6.5 6.5 7 1.5-13.5 9l5.5-7.5-7.0001-2z" opacity=".2"/>
 <path d="m19.001 4-6.5 6.5 7 1.5-13.5 9 5.5-7.5-7-2z" fill="#3bb8d6"/>
</svg>
