<svg width="24" height="24" version="1" xmlns="http://www.w3.org/2000/svg">
 <g transform="translate(1,1)">
  <rect transform="matrix(0,-1,-1,0,0,0)" x="-21.5" y="-21" width="20" height="20" rx="10" ry="10" opacity=".2"/>
  <rect transform="matrix(0,-1,-1,0,0,0)" x="-21" y="-21" width="20" height="20" rx="10" ry="10" fill="#c4c4c4"/>
  <circle cx="11" cy="11.5" r="5.5" opacity=".5"/>
  <circle cx="11" cy="11" r="6" fill="#3f3f3f"/>
  <circle transform="scale(1,-1)" cx="11" cy="-11.5" r="5" opacity=".2"/>
  <circle transform="scale(1,-1)" cx="11" cy="-11" r="5" fill="#ba174e"/>
  <circle cx="17" cy="17" r="5" fill="#55cc98"/>
  <path d="m16.244 14-0.06673 0.7902a2.3784 2.3572 0 0 0 -0.6951 0.39844l-0.72465-0.33818-0.75675 1.2991 0.65795 0.45285a2.3784 2.3572 0 0 0 -0.03632 0.3976 2.3784 2.3572 0 0 0 0.03461 0.39928l-0.65625 0.45117 0.75675 1.2991 0.72295-0.33733a2.3784 2.3572 0 0 0 0.6968 0.39592l0.06672 0.79185h1.5135l0.06672-0.7902a2.3784 2.3572 0 0 0 0.6951 -0.39844l0.72465 0.33817 0.75675-1.2991-0.65795-0.45285a2.3784 2.3572 0 0 0 0.03632 -0.3976 2.3784 2.3572 0 0 0 -0.03461 -0.39928l0.65625-0.45118-0.75675-1.2991-0.723 0.33734a2.3784 2.3572 0 0 0 -0.6968 -0.39592l-0.06672-0.79185h-1.5135zm0.75675 2.1428a0.86485 0.85715 0 0 1 0.864 0.857 0.86485 0.85715 0 0 1 -0.865 0.857 0.86485 0.85715 0 0 1 -0.864 -0.857 0.86485 0.85715 0 0 1 0.864 -0.857z" fill="#fff"/>
  <circle cx="11" cy="11.5" r="3" opacity=".2"/>
  <circle cx="11" cy="11" r="3" fill="#d67495"/>
  <path d="m11 1c-5.54 0-10 4.46-10 10 0 0.084 0.0097 0.166 0.0117 0.25 0.1331-5.4224 4.5327-9.75 9.9883-9.75s9.8552 4.3276 9.9883 9.75c2e-3 -0.084 0.012-0.166 0.012-0.25 0-5.54-4.46-10-10-10z" fill="#fff" opacity=".2"/>
 </g>
</svg>
