<svg width="24" height="24" version="1" xmlns="http://www.w3.org/2000/svg">
 <path d="m21 4h-18c-0.554 0-1 0.446-1 1v14c0 0.554 0.446 1 1 1h18c0.554 0 1-0.446 1-1v-14c0-0.554-0.446-1-1-1z" fill="#ccc"/>
 <path d="m2 5c0-0.554 0.446-1 1-1h9v16h-9c-0.554 0-1-0.446-1-1z" opacity=".15"/>
 <rect x="3" y="5" width="4" height="1" opacity=".6"/>
 <rect x="3" y="7" width="6" height="1" opacity=".6"/>
 <rect x="3" y="9" width="7" height="1" opacity=".6"/>
 <rect x="3" y="11" width="5" height="1" opacity=".6"/>
 <rect x="3" y="13" width="6" height="1" opacity=".6"/>
 <path d="m13 6v12h2v-5l2 5h3v-2h-1l-2-3h3v-7zm2 2h3v3h-3z" fill="#c2352a"/>
 <path d="m3 4c-0.554 0-1 0.446-1 1v0.5c0-0.554 0.446-1 1-1h18c0.554 0 1 0.446 1 1v-0.5c0-0.554-0.446-1-1-1h-18z" fill="#fff" opacity=".2"/>
 <path d="m2 19v0.5c0 0.554 0.446 1 1 1h18c0.554 0 1-0.446 1-1v-0.5c0 0.554-0.446 1-1 1h-18c-0.554 0-1-0.446-1-1z" opacity=".2"/>
</svg>
