<svg width="24" height="24" version="1.1" viewBox="0 0 24 24" xmlns="http://www.w3.org/2000/svg">
 <rect transform="matrix(.8660254 -.5 .5 .8660254 0 0)" x="1.14" y="5.83" width="6" height="22" rx="2" ry="2.2" style="opacity:.2"/>
 <rect transform="matrix(.8660254 -.5 .5 .8660254 0 0)" x="1.39" y="5.39" width="6" height="22" rx="2" ry="2.2" style="fill:#008ca2"/>
 <rect transform="matrix(-.8660254 -.5 -.5 .8660254 0 0)" x="-19.64" y="-6.17" width="6" height="22" rx="2" ry="2.2" style="opacity:.2"/>
 <path d="m8.1279295 1.7338984c-0.2628745 0.0235629-0.5218295 0.1017344-0.7617185 0.2402344l-1.732422 1c-0.6920679 0.3995656-1.0247396 1.1854433-0.9316406 1.9882812 0.0675782-0.615034 0.3853461-1.172878 0.9316406-1.4882812l1.732422-1c0.959556-0.554 2.222631-0.1502384 2.832031 0.9052734l8.799805 15.242188c0.169877 0.294237 0.263821 0.606691 0.299804 0.916992 0.05112-0.465262-0.03735-0.962404-0.299804-1.416992l-8.799805-15.242188c-0.45705-0.7916338-1.2816885-1.2161964-2.0703125-1.1455078z" style="fill:#ffffff;opacity:.1"/>
 <rect transform="matrix(-.8660254 -.5 -.5 .8660254 0 0)" x="-19.39" y="-6.61" width="6" height="22" rx="2" ry="2.2" style="fill:#57c6d7"/>
 <path d="m15.872071 1.7338984c-0.788624-0.070689-1.613263 0.353874-2.070313 1.1455078l-8.799805 15.242188c-0.2624563 0.454588-0.3509262 0.95173-0.2998046 1.416992 0.0359836-0.310301 0.1299269-0.622755 0.2998046-0.916992l8.799805-15.242188c0.6094-1.0555118 1.872475-1.4592734 2.832031-0.9052734l1.732422 1c0.546295 0.3154032 0.864062 0.8732472 0.93164 1.4882812 0.0931-0.8028379-0.239572-1.5887156-0.93164-1.9882812l-1.732422-1c-0.239889-0.1385-0.498844-0.2166715-0.761718-0.2402344z" style="fill:#ffffff;opacity:.1"/>
 <rect transform="matrix(0,-1,-1,0,0,0)" x="-15.5" y="-23" width="6" height="22" rx="2" ry="2.2" style="opacity:.2"/>
 <rect transform="matrix(0,-1,-1,0,0,0)" x="-15" y="-23" width="6" height="22" rx="2" ry="2.2" style="fill:#94d4de"/>
 <path d="m3.2001953 9.0005c-1.2188 0-2.2001953 0.892-2.2001953 2v0.5c0-1.108 0.9813953-2 2.2001953-2h17.599609c1.2188 0 2.200196 0.892 2.200196 2v-0.5c0-1.108-0.981396-2-2.200196-2h-17.599609z" style="fill:#ffffff;opacity:.1"/>
</svg>
