<svg width="24" height="24" version="1" xmlns="http://www.w3.org/2000/svg">
 <path d="m20 21v-18c0-0.554-0.446-1-1-1h-14c-0.554 0-1 0.446-1 1v18c0 0.554 0.446 1 1 1h14c0.554 0 1-0.446 1-1z" style="fill:#00679a"/>
 <path d="m5 2c-0.554 0-1 0.446-1 1v0.5c0-0.554 0.446-1 1-1h14c0.554 0 1 0.446 1 1v-0.5c0-0.554-0.446-1-1-1z" style="fill:#ffffff;opacity:.2"/>
 <path d="m4 21v0.5c0 0.554 0.446 1 1 1h14c0.554 0 1-0.446 1-1v-0.5c0 0.554-0.446 1-1 1h-14c-0.554 0-1-0.446-1-1z" style="opacity:.2"/>
 <path d="m17.499986 5.999879c0 1.447348-4 6.5-4 6.5s4.013451 5.187932 4 6.5" style="fill:none;opacity:.2;stroke-linecap:round;stroke-linejoin:round;stroke:#000000"/>
 <path d="m15.5 4.4998784c0 1.5-5 10.500001-8 10.500001-1.5 0-2-1.5-2-2.5s0.5-2.5000006 2-2.5000006c3.019216-0.01076 8 9.0000006 8 10.500001" style="fill:none;opacity:.2;stroke-linecap:round;stroke-linejoin:round;stroke:#000000"/>
 <path d="m15.5 4c0 1.5-5 10.5-8 10.5-1.5 0-2-1.5-2-2.5s0.5-2.5 2-2.5c3.019216-0.01076 8 9 8 10.5" style="fill:none;stroke-linecap:round;stroke-linejoin:round;stroke:#ffffff"/>
 <path d="m17.499986 5.5c0 1.447348-4 6.5-4 6.5s4.013451 5.187932 4 6.5" style="fill:none;stroke-linecap:round;stroke-linejoin:round;stroke:#ffffff"/>
 <path d="M 18.499997,9.0002408 C 18,10.500242 16.5,12.500242 16.5,12.500242 c 0,0 1.5,2 1.999997,3.5" style="fill:none;opacity:.2;stroke-linecap:round;stroke-linejoin:round;stroke:#000000"/>
 <path d="M 18.499997,8.5 C 18,10 16.5,12 16.5,12 c 0,0 1.5,2 1.999997,3.5" style="fill:none;stroke-linecap:round;stroke-linejoin:round;stroke:#ffffff"/>
</svg>
