<svg width="24" height="24" version="1" xmlns="http://www.w3.org/2000/svg">
 <rect transform="matrix(0,-1,-1,0,0,0)" x="-22" y="-22" width="20" height="20" rx="1" ry="1" style="fill:#704b91"/>
 <path d="m2 3.5v-0.5c0-0.554 0.446-1 1-1h18c0.554 0 1 0.446 1 1v0.5c0-0.554-0.446-1-1-1h-18c-0.554 0-1 0.446-1 1z" style="fill:#ffffff;opacity:.1"/>
 <path d="m2 21v0.5c0 0.554 0.446 1 1 1h18c0.554 0 1-0.446 1-1v-0.5c0 0.554-0.446 1-1 1h-18c-0.554 0-1-0.446-1-1z" style="opacity:.2"/>
 <rect x="6" y="12" width="2" height="2" style="fill:#4c8a4c"/>
 <rect x="8" y="12" width="2" height="2" style="fill:#e45e5e"/>
 <rect x="10" y="12" width="2" height="2" style="fill:#7079ff"/>
 <rect x="12" y="12" width="2" height="2" style="fill:#cdcdcd"/>
 <rect x="14" y="12" width="2" height="2" style="fill:#ffbd1a"/>
 <rect x="16" y="12" width="2" height="2" style="fill:#f3f3f3"/>
 <rect x="6" y="10" width="2" height="2" style="fill:#7079ff"/>
 <rect x="8" y="10" width="2" height="2" style="fill:#f3f3f3"/>
 <rect x="10" y="10" width="2" height="2" style="fill:#4c8a4c"/>
 <rect x="12" y="10" width="2" height="2" style="fill:#f3f3f3"/>
 <rect x="14" y="10" width="2" height="2" style="fill:#cdcdcd"/>
 <rect x="16" y="10" width="2" height="2" style="fill:#7079ff"/>
 <rect x="6" y="8" width="2" height="2" style="fill:#f3f3f3"/>
 <rect x="8" y="8" width="2" height="2" style="fill:#ffee35"/>
 <rect x="10" y="8" width="2" height="2" style="fill:#ffbd1a"/>
 <rect x="12" y="8" width="2" height="2" style="fill:#db5fe8"/>
 <rect x="14" y="8" width="2" height="2" style="fill:#ffee35"/>
 <rect x="8" y="14" width="2" height="2" style="fill:#ffbd1a"/>
 <rect x="10" y="14" width="2" height="2" style="fill:#db5fe8"/>
 <rect x="12" y="14" width="2" height="2" style="fill:#e45e5e"/>
 <rect x="14" y="14" width="2" height="2" style="fill:#ffee35"/>
 <rect x="16" y="14" width="2" height="2" style="fill:#e45e5e"/>
 <rect x="10" y="16" width="2" height="2" style="fill:#7079ff"/>
 <rect x="12" y="16" width="2" height="2" style="fill:#f3f3f3"/>
 <rect x="14" y="16" width="2" height="2" style="fill:#4c8a4c"/>
 <rect x="16" y="16" width="2" height="2" style="fill:#db5fe8"/>
 <rect x="6" y="6" width="2" height="2" style="fill:#ffbd1a"/>
 <rect x="8" y="6" width="2" height="2" style="fill:#e45e5e"/>
 <rect x="10" y="6" width="2" height="2" style="fill:#ffee35"/>
 <rect x="12" y="6" width="2" height="2" style="fill:#7079ff"/>
 <path d="m6 8v0.5h10v-0.5zm0 2v0.5h12v-0.5zm0 2v0.5h12v-0.5zm0 2v0.5h12v-0.5zm2 2v0.5h10v-0.5zm2 2v0.5h8v-0.5z" style="opacity:.2"/>
</svg>
