<svg width="24" height="24" version="1" xmlns="http://www.w3.org/2000/svg">
 <rect transform="matrix(0,-1,-1,0,0,0)" x="-22" y="-22" width="20" height="20" rx="1" ry="1" style="fill:#029499"/>
 <path d="m2 3.5v-0.5c0-0.554 0.446-1 1-1h18c0.554 0 1 0.446 1 1v0.5c0-0.554-0.446-1-1-1h-18c-0.554 0-1 0.446-1 1z" style="fill:#ffffff;opacity:.2"/>
 <path d="m2 21v0.5c0 0.554 0.446 1 1 1h18c0.554 0 1-0.446 1-1v-0.5c0 0.554-0.446 1-1 1h-18c-0.554 0-1-0.446-1-1z" style="opacity:.2"/>
 <path d="m9.3671875 5.937-1.734375 1 1.5644531 2.7089844a4 4 0 0 0 -1.0644531 1.8535156h-3.1328125v2h3.1308594a4 4 0 0 0 1.0683594 1.851562l-1.5664063 2.710938 1.734375 1 1.5644535-2.710938a4 4 0 0 0 1.068359 0.148438 4 4 0 0 0 1.070312 -0.146484l1.5625 2.708984 1.734376-1-1.564454-2.708984a4 4 0 0 0 1.064454 -1.853516h3.132812v-2h-3.130859a4 4 0 0 0 -1.06836 -1.8515625l1.566407-2.7109375-1.734376-1-1.564453 2.7109375a4 4 0 0 0 -1.068359 -0.1484375 4 4 0 0 0 -1.070312 0.1464844l-1.5625005-2.7089844zm2.6328125 4.5625a2 2 0 0 1 2 2 2 2 0 0 1 -2 2 2 2 0 0 1 -2 -2 2 2 0 0 1 2 -2z" style="opacity:.2"/>
 <path d="m9.3671875 5.4375l-1.734375 1 1.5644531 2.7089844a4 4 0 0 0 -1.0644531 1.8535156h-3.1328125v2h3.1308594a4 4 0 0 0 1.0683594 1.851562l-1.5664063 2.710938 1.734375 1 1.5644535-2.710938a4 4 0 0 0 1.068359 0.148438 4 4 0 0 0 1.070312 -0.146484l1.5625 2.708984 1.734376-1-1.564454-2.708984a4 4 0 0 0 1.064454 -1.853516h3.132812v-2h-3.130859a4 4 0 0 0 -1.06836 -1.8515625l1.566407-2.7109375-1.734376-1-1.564453 2.7109375a4 4 0 0 0 -1.068359 -0.1484375 4 4 0 0 0 -1.070312 0.1464844l-1.5625005-2.7089844zm2.6328125 4.5625a2 2 0 0 1 2 2 2 2 0 0 1 -2 2 2 2 0 0 1 -2 -2 2 2 0 0 1 2 -2z" style="fill:#ffffff"/>
</svg>
