<svg width="24" height="24" version="1" xmlns="http://www.w3.org/2000/svg">
 <g transform="translate(1.0009 1)">
  <rect transform="matrix(0,-1,-1,0,0,0)" x="-21" y="-21" width="20" height="20" rx="10" ry="10" fill="#e05048"/>
  <path d="m11 1c-5.54 0-10 4.46-10 10 0 0.084-2e-3 0.166 0 0.25 0.1322-5.423 4.544-9.75 10-9.75s9.868 4.327 10 9.75c2e-3 -0.084 0-0.166 0-0.25 0-5.54-4.46-10-10-10z" fill="#fff" opacity=".2"/>
  <path d="m11 5.5c-1.108 0-2 0.89199-2 2v4c0 1.108 0.89199 2 2 2s2-0.892 2-2v-4c0-1.108-0.89199-2-2-2zm-4.002 6v0.49805c0 2.0675 1.5263 3.7572 3.5 3.9746v1.5254h1v-1.5254c1.9737-0.21744 3.5-1.9071 3.5-3.9746v-0.49805h-1v0.49805c0 1.662-1.338 3-3 3s-3-1.338-3-3v-0.49805h-1z" opacity=".2"/>
  <path d="m11 5c-1.108 0-2 0.892-2 2v4c0 1.108 0.89199 2 2 2s2-0.892 2-2v-4c0-1.108-0.892-2-2-2zm-4.002 6v0.49805c0 2.0675 1.5263 3.7572 3.5 3.9746v1.5254h1v-1.5254c1.9737-0.21744 3.5-1.9071 3.5-3.9746v-0.49805h-1v0.49805c0 1.662-1.338 3-3 3s-3-1.338-3-3v-0.49805h-1z" fill="#fff"/>
  <path d="m1.0058 11.25c-2e-3 0.084-0.0058 0.166-0.0058 0.25 0 5.54 4.46 10 10 10s10-4.46 10-10c0-0.084-4e-3 -0.1665-6e-3 -0.25-0.132 5.423-4.538 9.75-9.994 9.75s-9.862-4.327-9.994-9.75z" opacity=".2"/>
 </g>
</svg>
