<svg width="24" height="24" version="1" xmlns="http://www.w3.org/2000/svg">
 <rect x="2" y="9.5" width="20" height="12" rx="1" ry="1" style="opacity:.2"/>
 <path d="m2 17c0 0.554 0.446 1 1 1h18c0.554 0 1-0.446 1-1v-11c0-0.554-0.446-1-1-1h-10v-1c0-0.554-0.446-1-1-1h-7c-0.554 0-1 0.446-1 1" style="fill:#dd772f"/>
 <rect x="2" y="8.5" width="20" height="12" rx="1" ry="1" style="opacity:.2"/>
 <rect x="4" y="7" width="16" height="8" rx="1" ry="1" style="fill:#dcdcdc"/>
 <rect x="2" y="9" width="20" height="12" rx="1" ry="1" style="fill:#ee923a"/>
 <path d="m3 3c-0.554 0-1 0.446-1 1v0.5c0-0.554 0.446-1 1-1h7c0.554 0 1 0.446 1 1v-0.5c0-0.554-0.446-1-1-1zm8 2v0.5h10c0.554 0 1 0.446 1 1v-0.5c0-0.554-0.446-1-1-1z" style="fill:#ffffff;opacity:.1"/>
 <path d="m12.029297 10.494081c-0.441482-0.01481-0.841609 0.241901-0.986328 0.632812l-0.757813 2.341246-2.3066404 0.04297c-0.9551771 0.01653-1.3500269 1.153858-0.5878906 1.693358l1.8398438 1.304687-0.6699219 2.169999c-0.2766441 0.855937 0.7565301 1.557394 1.5390621 1.044922l1.892579-1.234375 1.894531 1.234375c0.782184 0.508982 1.81142-0.19069 1.537109-1.044922l-0.667969-2.169999 1.837891-1.304687c0.761435-0.538934 0.36828-1.675151-0.585938-1.69336l-2.308593-0.04297-0.757813-2.341245c-0.13576-0.366812-0.49789-0.618053-0.912109-0.632811zm-0.04883 0.980468c-0.01259 0.03401-0.0094 0.01983 0.01367 0.01758 0.02332 0.0028 0.02222 0.01618 0.0098-0.01758h2e-3l0.75586 2.341246c0.143112 0.386088 0.508229 0.645003 0.919922 0.652344l2.166015 0.04101-1.671875 1.185546c-0.356247 0.252722-0.50728 0.707401-0.373047 1.123047l0.636719 2.068437c-0.0039-0.0022-8.92e-4 0.0032-0.0059 0h-2e-3l-1.892579-1.234375c-0.331831-0.216172-0.759965-0.216172-1.091796 0l-1.8945316 1.234375c-0.00635 0.0041-0.00318-0.0024-0.00781 0l0.6367186-2.068437c0.134232-0.415643-0.0168-0.870318-0.3730392-1.123041l-1.671875-1.185547 2.1679692-0.04101c0.410974-0.0081 0.775116-0.266911 0.917968-0.652344z" style="opacity:.2"/>
 <path d="m12.029297 9.9941406c-0.441482-0.014813-0.841609 0.2419014-0.986328 0.6328124l-0.757813 2.341246-2.3066404 0.04297c-0.9551771 0.01653-1.3500269 1.153858-0.5878906 1.693358l1.8398438 1.304687-0.6699219 2.169999c-0.2766441 0.855937 0.7565301 1.557394 1.5390621 1.044922l1.892579-1.234375 1.894531 1.234375c0.782184 0.508982 1.81142-0.19069 1.537109-1.044922l-0.667969-2.169999 1.837891-1.304687c0.761435-0.538934 0.36828-1.675151-0.585938-1.69336l-2.308593-0.04297-0.757813-2.341245c-0.13576-0.366812-0.49789-0.618053-0.912109-0.6328114zm-0.04883 0.9804684c-0.01259 0.03401-0.0094 0.01983 0.01367 0.01758 0.02332 0.0028 0.02222 0.01618 0.0098-0.01758h2e-3l0.75586 2.341246c0.143112 0.386088 0.508229 0.645003 0.919922 0.652344l2.166015 0.04101-1.671875 1.185546c-0.356247 0.252722-0.50728 0.707401-0.373047 1.123047l0.636719 2.068437c-0.0039-0.0022-8.92e-4 0.0032-0.0059 0h-2e-3l-1.892579-1.234375c-0.331831-0.216172-0.759965-0.216172-1.091796 0l-1.8945316 1.234375c-0.00635 0.0041-0.00318-0.0024-0.00781 0l0.6367186-2.068437c0.134232-0.415643-0.0168-0.870318-0.3730392-1.123041l-1.671875-1.185547 2.1679692-0.04101c0.410974-0.0081 0.775116-0.266911 0.917968-0.652344z" style="fill:#ffffff"/>
</svg>
