<svg width="24" height="24" version="1" xmlns="http://www.w3.org/2000/svg">
 <g transform="translate(1,1)">
  <rect transform="matrix(0,-1,-1,0,0,0)" x="-21" y="-21" width="20" height="20" rx="1" ry="1" fill="#f57635"/>
  <path d="m2 1c-0.554 0-1 0.446-1 1v0.5c0-0.554 0.446-1 1-1h18c0.554 0 1 0.446 1 1v-0.5c0-0.554-0.446-1-1-1h-18z" fill="#fff" opacity=".2"/>
  <path d="m2 21.5c-0.554 0-1-0.446-1-1v-0.5c0 0.554 0.446 1 1 1h18c0.554 0 1-0.446 1-1v0.5c0 0.554-0.446 1-1 1h-18z" opacity=".2"/>
  <path d="m11.725 6.5c-1.467 2e-3 -2.807 0.8612-3.4574 2.2168-0.2743-0.1474-0.5794-0.2258-0.8887-0.2266-1.0665 0-1.9297 0.89275-1.9297 1.9922 5.793e-4 0.06951 0.00409 0.13796 0.011719 0.20703-0.8531 0.354-1.4609 1.254-1.4609 2.323 0 1.378 1.0039 2.488 2.252 2.488h9.0137c0.20117 0 0.39085-0.03766 0.57617-0.0918 1.2511-0.2462 2.1573-1.3744 2.1582-2.6875-9.66e-4 -1.4314-1.0725-2.6193-2.457-2.7266 6.5e-5 -2.57e-4 0.0078-0.0098 0.0078-0.0098-0.243-1.9892-1.882-3.4819-3.826-3.4843zm-0.725 2l1.5 1.5 1.5 1.5h-2v3h-2v-3h-2l1.5-1.5 1.5-1.5z" opacity=".2"/>
  <path d="m11.725 6c-1.467 2e-3 -2.807 0.8612-3.4574 2.2168-0.2743-0.1474-0.5794-0.2258-0.8887-0.2266-1.0665 0-1.9297 0.89275-1.9297 1.9922 5.793e-4 0.06951 0.00409 0.13796 0.011719 0.20703-0.8531 0.354-1.4609 1.254-1.4609 2.323 0 1.378 1.0039 2.488 2.252 2.488h9.0137c0.20117 0 0.39085-0.03766 0.57617-0.0918 1.251-0.246 2.157-1.374 2.158-2.687-1e-3 -1.432-1.072-2.6196-2.457-2.7269 6.5e-5 -2.57e-4 0.0078-0.0098 0.0078-0.0098-0.243-1.9892-1.882-3.4819-3.826-3.4843zm-0.725 2 1.5 1.5 1.5 1.5h-2v3h-2v-3h-2l1.5-1.5 1.5-1.5z" fill="#fff"/>
 </g>
</svg>
