<svg width="24" height="24" version="1.1" viewBox="0 0 24 24" xmlns="http://www.w3.org/2000/svg">
 <rect transform="matrix(0,-1,-1,0,0,0)" x="-22.5" y="-23" width="21" height="21" rx="10.5" ry="10.5" style="opacity:.2"/>
 <rect transform="matrix(0,-1,-1,0,0,0)" x="-22" y="-23" width="21" height="21" rx="10.5" ry="10.5" style="fill:#20b293"/>
 <path d="m12.000063 5.4999993v1.0253906a5.5 5.5 0 0 0 -4.789063 3.9746091h1.0527344a4.5 4.5 0 0 1 4.2363286 -2.9999997 4.5 4.5 0 0 1 4.236327 2.9999997h1.048828a5.5 5.5 0 0 0 -4.785156 -3.9746091v-1.0253906h-0.999999zm0.5 3a3.5 3.5 0 0 0 -3.5000005 3.4999997 3.5 3.5 0 0 0 0.041016 0.5h0.9589845 0.05469 4.894531a2.5 2.5 0 0 1 -2.449218 2 2.5 2.5 0 0 1 -1.998047 -1h-1.1601562a3.5 3.5 0 0 0 3.1582032 2 3.5 3.5 0 0 0 3.499999 -3.5 3.5 3.5 0 0 0 -0.04102 -0.5h-0.958984-0.05469-4.89453a2.5 2.5 0 0 1 2.449219 -1.9999997 2.5 2.5 0 0 1 1.998046 0.9999997h1.160156a3.5 3.5 0 0 0 -3.158199 -1.9999997zm-5.2851567 4.9999997a5.5 5.5 0 0 0 4.7851567 3.974609v1.025391h0.999999v-1.025391a5.5 5.5 0 0 0 4.789062 -3.974609h-1.052734a4.5 4.5 0 0 1 -4.236327 3 4.5 4.5 0 0 1 -4.2363286 -3h-1.0488281z" style="opacity:.2"/>
 <path d="m12.000063 5v1.0253906a5.5 5.5 0 0 0 -4.789063 3.9746094h1.0527344a4.5 4.5 0 0 1 4.2363286 -3 4.5 4.5 0 0 1 4.236327 3h1.048828a5.5 5.5 0 0 0 -4.785156 -3.9746094v-1.0253906h-0.999999zm0.5 3a3.5 3.5 0 0 0 -3.5000005 3.5 3.5 3.5 0 0 0 0.041016 0.5h0.9589845 0.05469 4.894531a2.5 2.5 0 0 1 -2.449218 2 2.5 2.5 0 0 1 -1.998047 -1h-1.1601562a3.5 3.5 0 0 0 3.1582032 2 3.5 3.5 0 0 0 3.499999 -3.5 3.5 3.5 0 0 0 -0.04102 -0.5h-0.958984-0.05469-4.89453a2.5 2.5 0 0 1 2.449219 -2 2.5 2.5 0 0 1 1.998046 1h1.160156a3.5 3.5 0 0 0 -3.158199 -2zm-5.2851567 5a5.5 5.5 0 0 0 4.7851567 3.974609v1.025391h0.999999v-1.025391a5.5 5.5 0 0 0 4.789062 -3.974609h-1.052734a4.5 4.5 0 0 1 -4.236327 3 4.5 4.5 0 0 1 -4.2363286 -3h-1.0488281z" style="fill:#ffffff"/>
 <path d="M 12.5 1 C 6.683 1 2 5.683 2 11.5 C 2 11.584474 2.0117076 11.666015 2.0136719 11.75 C 2.1469713 6.0506689 6.7674739 1.5 12.5 1.5 C 18.232526 1.5 22.853029 6.0506689 22.986328 11.75 C 22.988292 11.666015 23 11.584474 23 11.5 C 23 5.683 18.317 1 12.5 1 z" style="fill:#ffffff;opacity:.2"/>
</svg>
