<svg width="24" height="24" version="1" xmlns="http://www.w3.org/2000/svg">
 <g transform="translate(1,1)">
  <rect transform="matrix(0,-1,-1,0,0,0)" x="-21" y="-21" width="20" height="19.998" rx="10" ry="9.999" fill="#1ca4d4"/>
  <path d="m11 4.5a7 7 0 0 0 -7 7 7 7 0 0 0 7 7 7 7 0 0 0 7 -7 7 7 0 0 0 -7 -7zm0 1a6 6 0 0 1 5.3672 3.3213l-4.0459 2.6973-7.2461 0.90527a6 6 0 0 1 -0.075 -0.924 6 6 0 0 1 6 -6zm5.7412 4.2734a6 6 0 0 1 0.259 1.7266 6 6 0 0 1 -1.381 3.825l-2.4023-3.2031 3.5244-2.3486zm-4.4678 2.7588 2.6338 3.5117a6 6 0 0 1 -3.907 1.456 6 6 0 0 1 -5.6826 -4.099l6.9561-0.86914z" opacity=".2"/>
  <path d="m11 1c-5.5395 0-9.999 4.46-9.999 10 0 0.08386-2e-3 0.16664 0 0.25 0.1321-5.423 4.5435-9.75 9.999-9.75s9.867 4.3268 9.999 9.75c2e-3 -0.08335 0-0.16614 0-0.25 0-5.54-4.459-10-9.999-10z" fill="#fff" opacity=".2"/>
  <path d="m1.0058 11.25c-2e-3 0.084-0.0058 0.166-0.0058 0.25 0 5.54 4.46 10 10 10s10-4.46 10-10c0-0.084-4e-3 -0.1665-6e-3 -0.25-0.132 5.423-4.538 9.75-9.994 9.75s-9.862-4.327-9.994-9.75z" opacity=".2"/>
  <path d="m11 4a7 7 0 0 0 -7 7 7 7 0 0 0 7 7 7 7 0 0 0 7 -7 7 7 0 0 0 -7 -7zm0 1a6 6 0 0 1 6 6 6 6 0 0 1 -6 6 6 6 0 0 1 -6 -6 6 6 0 0 1 6 -6z" fill="#fff"/>
  <path d="m4.5 12.5 8-1 4.5-3" fill="none" stroke="#fff"/>
  <path d="m15.5 15.5-3-4" fill="none" stroke="#fff"/>
  <g transform="matrix(.5 0 0 .5 -1 -.5)" opacity=".2">
   <circle cx="11" cy="27" r="3"/>
   <circle cx="33" cy="33" r="3"/>
   <circle cx="36" cy="19" r="3"/>
   <circle cx="27" cy="25" r="3"/>
  </g>
  <circle cx="15.5" cy="15.5" r="1.5" fill="#fff"/>
  <circle cx="17" cy="8.5" r="1.5" fill="#fff"/>
  <circle cx="12.5" cy="11.5" r="1.5" fill="#fff"/>
  <circle cx="4.5" cy="12.5" r="1.5" fill="#fff"/>
 </g>
</svg>
