<svg width="24" height="24" version="1" xmlns="http://www.w3.org/2000/svg">
 <g transform="translate(1,1)">
  <circle cx="11" cy="11" r="10" fill="#36bb94"/>
  <path d="m8 5.5s-1 2.781e-4 -1 0.64258v8.3574h-2l3 3 3-3h-2v-8.3574c0-0.6423-1-0.6424-1-0.6426zm6 0-3 3h2v8.3574c0 0.6423 1 0.64258 1 0.64258 0-2e-4 1-2.78e-4 1-0.64258v-8.357h2l-3-3z" fill-rule="evenodd" opacity=".2"/>
  <path d="m8 5s-1 3e-4 -1 0.6426v8.3574h-2l3 3 3-3h-2v-8.3574c0-0.6423-1-0.6424-1-0.6426zm6 0-3 3h2v8.3574c0 0.643 1 0.643 1 0.643 0-2e-4 1-2.78e-4 1-0.64258v-8.357h2l-3-3z" fill="#fff" fill-rule="evenodd"/>
  <path d="m11 1a10 10 0 0 0 -10 10 10 10 0 0 0 0.0098 0.293 10 10 0 0 1 9.9902 -9.793 10 10 0 0 1 9.99 9.707 10 10 0 0 0 0.01 -0.207 10 10 0 0 0 -10 -10z" fill="#fff" opacity=".2"/>
  <path d="m20.99 11.207a10 10 0 0 1 -9.99 9.793 10 10 0 0 1 -9.9902 -9.707 10 10 0 0 0 -0.0098 0.207 10 10 0 0 0 10 10 10 10 0 0 0 10 -10 10 10 0 0 0 -0.0098 -0.29297z" opacity=".2"/>
 </g>
</svg>
