<svg width="24" height="24" version="1" xmlns="http://www.w3.org/2000/svg">
 <rect transform="matrix(0,-1,-1,0,0,0)" x="-22.5" y="-23" width="21" height="21" rx="1.05" ry="1.05" style="opacity:.2"/>
 <rect transform="matrix(0,-1,-1,0,0,0)" x="-22" y="-23" width="21" height="21" rx="1.05" ry="1.05" style="fill:#4e91d9"/>
 <path d="m12.5 3.5000004c-4.6944202 0-8.4999998 3.8055794-8.5 8.4999996 0 4.69442 3.8055796 8.5 8.5 8.5 4.69442 0 8.5-3.80558 8.5-8.5 0-4.6944202-3.80558-8.4999996-8.5-8.4999996zm-2.5 5.1999998v1.7999998h5v-1.7999998l5 3.2999998-5 3.3v-1.8h-5v1.8l-5-3.3z" style="opacity:.2"/>
 <path d="m12.5 3c-4.6944204 0-8.5 3.8055796-8.5 8.5 0 4.69442 3.8055796 8.5 8.5 8.5 4.69442 0 8.5-3.80558 8.5-8.5 0-4.6944204-3.80558-8.5-8.5-8.5zm-2.5 5.1999998v1.8000002h5v-1.8000002l5 3.3000002-5 3.3v-1.8h-5v1.8l-5-3.3z" style="fill:#ffffff"/>
 <path d="M 3.0507812 1 C 2.4690813 1 2 1.4690813 2 2.0507812 L 2 2.5507812 C 2 1.9690813 2.4690813 1.5 3.0507812 1.5 L 21.949219 1.5 C 22.530919 1.5 23 1.9690813 23 2.5507812 L 23 2.0507812 C 23 1.4690813 22.530919 1 21.949219 1 L 3.0507812 1 z" style="fill:#ffffff;opacity:.2"/>
</svg>
