<svg width="24" height="24" version="1" xmlns="http://www.w3.org/2000/svg">
 <rect x="2" y="2.5" width="20" height="20" rx="1" ry="1" style="opacity:.2"/>
 <rect x="2" y="2" width="20" height="20" rx="1" ry="1" style="fill:#cccccc"/>
 <path d="m12 5.4786365v4.4997575m-5-1.4997575h10m-7 6.9999005h4m-2 4.007221v-11.5c1.700339 2.754794 3.616861 6.850416 7 7.500001m-6.989899 3.985756v-11.5c-1.700339 2.7547935-3.626962 6.8504155-7.010101 7.5000005" style="fill:none;opacity:.1;stroke-linecap:round;stroke-linejoin:round;stroke-width:2;stroke:#000000"/>
 <path d="m3 2c-0.554 0-1 0.446-1 1v0.5c0-0.554 0.446-1 1-1h18c0.554 0 1 0.446 1 1v-0.5c0-0.554-0.446-1-1-1h-18z" style="fill:#ffffff;opacity:.2"/>
 <path d="m12 19.007121v-11.5c1.700339 2.7547935 3.616861 6.8504155 7 7.5000005m-6.989899 3.985756v-11.499999c-1.700339 2.754793-3.626962 6.850415-7.010101 7.5" style="fill:none;stroke-linecap:round;stroke-linejoin:round;stroke-width:2;stroke:#3f3f3f"/>
 <path d="m10 14.9999h4" style="fill:none;stroke-linecap:round;stroke-linejoin:round;stroke-width:2;stroke:#3f3f3f"/>
 <path d="m7 8h10" style="fill:none;stroke-linecap:round;stroke-linejoin:round;stroke-width:2;stroke:#3f3f3f"/>
 <path d="m12 5v4.4997575" style="fill:none;stroke-linecap:round;stroke-linejoin:round;stroke-width:2;stroke:#3f3f3f"/>
</svg>
