<svg width="24" height="24" version="1" xmlns="http://www.w3.org/2000/svg">
 <rect x="2" y="2.5" width="20" height="20" rx="1" ry="1" style="opacity:.2"/>
 <rect x="2" y="2" width="20" height="20" rx="1" ry="1" style="fill:#cccccc"/>
 <path d="m3 2c-0.554 0-1 0.446-1 1v0.5c0-0.554 0.446-1 1-1h18c0.554 0 1 0.446 1 1v-0.5c0-0.554-0.446-1-1-1h-18z" style="fill:#ffffff;opacity:.2"/>
 <rect x="11" y="11" width="2" height="2" ry=".481" style="fill:#d07517"/>
 <rect x="11" y="8" width="2" height="2" ry=".481" style="fill:#d07517"/>
 <rect x="11" y="14" width="2" height="2" ry=".481" style="fill:#d07517"/>
 <rect x="11" y="17" width="2" height="2" ry=".481" style="fill:#d07517"/>
 <rect x="11" y="5" width="2" height="2" ry=".481" style="fill:#d07517"/>
 <rect x="8" y="5" width="2" height="2" ry=".481" style="fill:#d07517"/>
 <rect x="5" y="5" width="2" height="2" ry=".481" style="fill:#d07517"/>
 <rect x="17" y="5" width="2" height="2" ry=".481" style="fill:#d07517"/>
 <rect x="14" y="5" width="2" height="2" ry=".481" style="fill:#d07517"/>
</svg>
