<svg width="24" height="24" version="1" xmlns="http://www.w3.org/2000/svg">
 <g transform="translate(1.0041616,1)">
  <path d="m1 1.5s-1.1688e-4 3.9999219 0.017578 4.0449219c-0.1710732 1.6542035 0.677909 1.8913004 2.1796875 1.984375 0.4252-0.0281 0.7781125-0.1094 1.1328125-0.4375 0.5622001-0.6762 0.669922-0.5917969 0.669922-0.5917969h-1c0.1179 0.4731-0.7268094 0.6852094-0.9746094 0.2871094-0.933-1.6405 2.1639585-3.0977603 4.9746094-1.7871094l-0.0742188 13.548828c-0.4645 1.058-0.7610812 1.478172-1.9257812 1.951172v1c2.4714-0.786 5-1 8-1v-1c-1.034-0.183-1.878-1.051-2-2v-12h4.175781c0.4957 0.011003 0.698319-0.15631 0.824219 1h2c-0.559-1.3089-0.933594-4-0.933594-4s-5.218528 0.027775-9.925781-0.2480469c-3.7056668-0.2171337-7.1403255-0.7518936-7.140625-0.7519531zm16.201172 9c-1.20093 0-2.154451 0.06217-2.201172 1 0 0.86743 0.10364 1.2939 1 1.5 0 0-0.107911-0.373583-0.01953-0.658203 0.4194-1.1778 1.694699-0.841591 1.80664-0.462891 0.723982 2.965153-0.898358 6.029908-2.78711 7.621094v1c3 0 3.7142 0.40162 5 1 0.18093-0.74781 2.344169-2.415913 1.980469-3.132812-0.563863-1.582631-1.980856-0.591252-1.949219 0.132812 1.071325 0.04386 0.46875 1 0.46875 1h-3.5c2.2317-2.2259 4.32903-5.725191 2.439453-7.982422-0.76124-0.70906-1.305881-1.021628-2.238281-1.017578z" style="opacity:.2"/>
  <path d="m1 1s-1.1688e-4 3.9999219 0.017578 4.0449219c-0.1710732 1.6542035 0.677909 1.8913004 2.1796875 1.984375 0.4252-0.0281 0.7781125-0.1094 1.1328125-0.4375 0.5622001-0.6762 0.669922-0.5917969 0.669922-0.5917969h-1c0.1179 0.4731-0.7268094 0.6852094-0.9746094 0.2871094-0.933-1.6405 2.1639585-3.0977603 4.9746094-1.7871094l-0.0742188 13.548828c-0.4645 1.058-0.7610812 1.478172-1.9257812 1.951172v1c2.4714-0.786 5-1 8-1v-1c-1.034-0.183-1.878-1.051-2-2v-12h4.175781c0.4957 0.011003 0.698319-0.15631 0.824219 1h2c-0.559-1.3089-0.933594-4-0.933594-4s-5.218528 0.027775-9.925781-0.2480469c-3.7056668-0.2171337-7.1403255-0.7518936-7.140625-0.7519531zm16.201172 9c-1.20093 0-2.154451 0.06217-2.201172 1 0 0.86743 0.10364 1.2939 1 1.5 0 0-0.107911-0.373583-0.01953-0.658203 0.4194-1.1778 1.694699-0.841591 1.80664-0.462891 0.723982 2.965153-0.898358 6.029908-2.78711 7.621094v1c3 0 3.7142 0.40162 5 1 0.18093-0.74781 2.344169-2.415913 1.980469-3.132812-0.563863-1.582631-1.980856-0.591252-1.949219 0.132812 1.071325 0.043864 0.46875 1 0.46875 1h-3.5c2.2317-2.2259 4.32903-5.725191 2.439453-7.982422-0.76124-0.70906-1.305881-1.021628-2.238281-1.017578z" style="fill:#fecd38"/>
  <path d="m1 1s0.00192 0.3927887 0.00195 0.5c0.00332 5.292e-4 3.4346372 0.5349149 7.138675 0.7519531 4.707253 0.2758219 9.925781 0.2480469 9.925781 0.2480469s0.308742 2.108771 0.771485 3.5h0.162109c-0.559-1.3089-0.933594-4-0.933594-4s-5.218528 0.027775-9.925781-0.2480469c-3.7056668-0.2171337-7.1403255-0.7518936-7.140625-0.7519531zm6.9980469 3.9980469-0.0722657 13.050781c-0.4645 1.058-0.7610812 1.478172-1.9257812 1.951172v0.5c1.1647-0.473 1.4612812-0.893172 1.9257812-1.951172l0.0742188-13.548828c-7.824e-4 -3.649e-4 -0.00117-0.00159-0.00195-0.00195zm-6.9824219 0.1074219c-0.0191792 0.2161178-0.0182092 0.405133-0.00195 0.5742187 0.00332-0.047497-0.00127-0.084708 0.00391-0.1347656-0.00192-0.00489-4.282e-4 -0.3514025-0.00195-0.4394531zm1.875 0.8359374c-0.065736 0.2664669-0.031786 0.552855 0.1347656 0.8457032 0.099809 0.1603473 0.2967011 0.2003722 0.4882813 0.1855468 0.074709-0.013383 0.1551589-0.016723 0.2265625-0.039062 0.1807331-0.0792917 0.3103662-0.230548 0.2597656-0.4335942h0.4140625c0.4768841-0.5505257 0.5859375-0.5 0.5859375-0.5h-1c0.1179 0.4731-0.7268094 0.6852094-0.9746094 0.2871094-0.0663739-0.1167058-0.1076285-0.2317827-0.1347656-0.3457032zm14.310547 4.0585938c-1.20093 0-2.154451 0.06217-2.201172 1 0 0.148755 0.01 0.268647 0.01953 0.392578 0.11806-0.827061 1.032261-0.892578 2.181642-0.892578 0.9324-4e-3 1.477041 0.308518 2.238281 1.017578 0.456784 0.54566 0.677419 1.165022 0.722656 1.820313 0.05152-0.840668-0.150953-1.637374-0.722656-2.320313-0.76124-0.70906-1.305881-1.021628-2.238281-1.017578zm-1.226563 2.373047c-0.0094 0.03629-0.01342 0.07367-0.01758 0.111328 0.01731 0.0043 0.02503 0.0115 0.04297 0.01563 0 0-0.01488-0.07683-0.02539-0.126953zm1.966797 0.509765c-0.008603 2.454126-1.372178 4.795186-2.941406 6.117188v0.5c1.675866-1.411839 3.137927-3.984056 2.941406-6.617188zm-5.941406 4.117188v0.5c0.122 0.949 0.966 1.817 2 2v-0.5c-1.034-0.183-1.878-1.051-2-2zm9.107422 0.02344c-0.550016-0.032306-1.095945 0.52402-1.076172 0.97656 0.06773 0.0028 0.111089 0.01775 0.166016 0.02734 0.372908-0.545709 1.300228-0.878282 1.753906 0.283203 0.06125-0.166635 0.09082-0.322097 0.0293-0.443359-0.211449-0.593487-0.543038-0.824369-0.873047-0.84375zm-0.503906 1.732421c-0.048827 0.134726-0.103516 0.244139-0.103516 0.244139h-3.037109c-0.154324 0.168314-0.305897 0.343414-0.462891 0.5h3.5s0.272752-0.447424 0.103516-0.744141z" style="fill:#ffffff;opacity:.2"/>
 </g>
</svg>
