<svg width="24" height="24" version="1.1" viewBox="0 0 24 24" xmlns="http://www.w3.org/2000/svg">
 <rect transform="matrix(0,-1,-1,0,0,0)" x="-22" y="-22" width="20" height="20" rx="1.5" ry="1.5" style="fill:#7cca3e"/>
 <path d="m3.5 2c-0.831 0-1.5 0.669-1.5 1.5v0.5c0-0.831 0.669-1.5 1.5-1.5h17c0.831 0 1.5 0.669 1.5 1.5v-0.5c0-0.831-0.669-1.5-1.5-1.5h-17z" style="fill:#ffffff;opacity:.2"/>
 <path d="m2 20.5v0.5c0 0.831 0.669 1.5 1.5 1.5h17c0.831 0 1.5-0.669 1.5-1.5v-0.5c0 0.831-0.669 1.5-1.5 1.5h-17c-0.831 0-1.5-0.669-1.5-1.5z" style="opacity:.2"/>
 <path d="m5 8.5v5c0 1 0 3 3 3s3-2 3.000029-3v-2l1.412082 1.591007c-0.389182 2.131741-0.41211 4.937691-0.41211 5.408993h2c0-0.350671 0.05674-1.585151 0.200196-2.944336 0.681329 0.517784 1.413724 0.944336 2.299802 0.944336 1.516666 0 2.18362-0.711446 2.78113-1.65039 0.59751-0.938945 0.71875-1.988499 0.71875-2.84961-0.295998-1.941988-1.828034-3.4793304-3.49988-3.5-1.499999 0-2.354998 0.101195-2.864258 1.0246015-0.216144 0.3919185-0.416488 0.7993085-0.583984 1.2246095l-2.05173-2.249219v8e-6h-1.9999997v1 4.361859s-0.2669905 0.666586-1.0000273 0.638141-1-0.638141-1-0.638141v-5.361859zm11.499999 2c1.500001 0 1.500001 1 1.586535 1.962161-0.086534 1.037839-0.086534 2.037839-1.586535 2.037839-1.333228-0.105333-1.109008-0.446806-1.873047-1.259765 0.543612-1.87267 0.373048-2.740235 1.873047-2.740235z" style="fill-rule:evenodd;opacity:.2"/>
 <path d="m5 8v5c0 1 0 3 3 3s3-2 3.000029-3v-2l1.412082 1.591007c-0.389182 2.131741-0.41211 4.937691-0.41211 5.408993h2c0-0.350671 0.05674-1.585151 0.200196-2.944336 0.681329 0.517784 1.413724 0.944336 2.299802 0.944336 1.516666 0 2.18362-0.711446 2.78113-1.65039 0.59751-0.938945 0.71875-1.988499 0.71875-2.84961-0.295998-1.9419882-1.828034-3.4793304-3.49988-3.5-1.499999 0-2.354998 0.101195-2.864258 1.0246015-0.216144 0.3919186-0.416488 0.799308-0.583984 1.2246095l-2.05173-2.249219v8e-6h-1.9999997v1 4.361859s-0.2669905 0.666586-1.0000273 0.638141-1-0.638141-1-0.638141v-5.361859zm11.499999 2c1.500001 0 1.500001 1 1.586535 1.962161-0.086534 1.037839-0.086534 2.037839-1.586535 2.037839-1.333228-0.105333-1.109008-0.446806-1.873047-1.259765 0.543612-1.87267 0.373048-2.740235 1.873047-2.740235z" style="fill-rule:evenodd;fill:#ffffff"/>
</svg>
