<svg width="24" height="24" version="1" xmlns="http://www.w3.org/2000/svg">
 <g transform="translate(1.0009 1)">
  <rect transform="matrix(0,-1,-1,0,0,0)" x="-21" y="-21" width="20" height="20" rx="10" ry="10" fill="#5db43e"/>
  <path d="m11 1c-5.54 0-10 4.46-10 10 0 0.084-2e-3 0.166 0 0.25 0.1322-5.423 4.544-9.75 10-9.75s9.868 4.327 10 9.75c2e-3 -0.084 0-0.166 0-0.25 0-5.54-4.46-10-10-10z" fill="#fff" opacity=".2"/>
  <path d="m1.0058 11.25c-2e-3 0.084-0.0058 0.166-0.0058 0.25 0 5.54 4.46 10 10 10s10-4.46 10-10c0-0.084-4e-3 -0.1665-6e-3 -0.25-0.132 5.423-4.538 9.75-9.994 9.75s-9.862-4.327-9.994-9.75z" opacity=".2"/>
  <path d="m7 5.5c-0.5 0-1 0.5-1 1s0.5 1 1 1c4.9706-5e-6 9 4.0294 9 9 0 0.5 0.45347 1 1 1 0.5 0 1-0.5 1-1 0-6.075-4.9248-11-11-11zm7 0 3 3v-2c0-0.554-0.446-1-1-1h-2zm-7 4c-0.5 0-1 0.5-1 1s0.5 1 1 1c2.7614-3e-6 5 2.2386 5 5 0 0.5 0.5 1 1 1s1-0.5 1-1c0-3.866-3.134-7-7-7zm0.5 4c-1.3807 0-2.5 1.119-2.5 2.5s1.1194 2.5 2.5 2.5c1.3807 0 2.5-1.119 2.5-2.5s-1.1193-2.5-2.5-2.5z" opacity=".2"/>
  <path d="m7 5c-0.5 0-1 0.5-1 1s0.5 1 1 1c4.9706-5e-6 9 4.0294 9 9 0 0.5 0.45347 1 1 1 0.5 0 1-0.5 1-1 0-6.075-4.925-11-11-11zm7 0 3 3v-2c0-0.554-0.446-1-1-1h-2zm-7 4c-0.5 0-1 0.5-1 1s0.5 1 1 1c2.7614-3e-6 5 2.2386 5 5 0 0.5 0.5 1 1 1s1-0.5 1-1c0-3.866-3.134-7-7-7zm0.5 4c-1.3807 0-2.5 1.119-2.5 2.5s1.1194 2.5 2.5 2.5c1.3807 0 2.5-1.119 2.5-2.5s-1.1193-2.5-2.5-2.5z" fill="#fff"/>
 </g>
</svg>
