<svg width="24" height="24" version="1" xmlns="http://www.w3.org/2000/svg">
 <rect transform="rotate(30)" x="15.86" y="-6.92" width="1" height="4" rx=".131" ry=".178" style="fill:#ffd38d"/>
 <path d="m14.518 2.9068c-0.24-0.1385-0.5445-0.0569-0.683 0.183l-0.68 1.1773a9 9 0 0 0 -9.9493 4.233 9 9 0 0 0 3.294 12.294 9 9 0 0 0 12.294 -3.294 9 9 0 0 0 -1.31 -10.731l0.681-1.1794c0.138-0.2399 0.057-0.5445-0.183-0.683l-3.464-2z" fill="#4f4f4f"/>
 <path d="m18.16 5.5977-0.6755 1.1709a9 9 0 0 1 0.1735 0.1985l0.507-0.877c0.092-0.1593 0.079-0.3436-5e-3 -0.4923zm-16.148 7.5583a9 9 0 0 0 4.4873 8.138 9 9 0 0 0 12.294 -3.294 9 9 0 0 0 1.19 -4.653 9 9 0 0 1 -1.19 4.153 9 9 0 0 1 -12.294 3.294 9 9 0 0 1 -4.4878 -7.638z" opacity=".2"/>
 <path d="m14.329 2.8428c-0.193-0.0242-0.39 0.0672-0.494 0.2471l-0.68 1.1768a9 9 0 0 0 -9.9493 4.2334 9 9 0 0 0 -1.1933 4.6559 9 9 0 0 1 1.1934 -4.1559 9 9 0 0 1 9.9492 -4.2334l0.679-1.1768c0.139-0.2399 0.443-0.3221 0.683-0.1836l3.465 2c0.0805 0.0466 0.135 0.11575 0.1775 0.19125l5e-3 -0.0075c0.138-0.2401 0.057-0.5453-0.183-0.6838l-3.463-2.0001c-0.06-0.0346-0.124-0.0554-0.189-0.0635zm3.329 4.1243-0.1735 0.3015a9 9 0 0 1 2.5 6.078 9 9 0 0 0 -2.3265 -6.3795z" fill="#fff" opacity=".1"/>
 <path d="m10.458984 7.5004735c-0.121532-8.471e-4 -0.23132 0.00333-0.328125 0.011719-0.9109167 0.078574-2.0983699 0.8652684-3.1054684 2.0585937-0.973501 1.1535218-1.2551277 2.0752268-0.8398437 2.7539078 0.4676748 0.764306 1.0085295 1.198934 1.7636719 1.417969 0.6460195 0.187378 0.8392055 0.301048 1.3925781 0.820312 0.8932281 0.838179 1.2020641 0.932469 3.0800781 0.9375 0.793275 0.0022 1.748559-0.02861 2.123047-0.06836 0.553689-0.05877 0.786824-0.128695 1.24414-0.371094 1.21313-0.643008 1.408084-1.080075 1.050782-2.339844-0.111434-0.392893-0.293601-1.223716-0.404297-1.845702-0.110696-0.621989-0.250213-1.2260672-0.310547-1.3437515-0.268513-0.5237518-1.132498-1.0272252-2.621094-1.5292969-0.815817-0.2751587-2.194204-0.4960931-3.044922-0.5019531zm-0.3125 2c0.699775 0.033143 0.857179 0.7238625 0.853516 1.3144545 0 0.83397-0.107381 1.155781-0.490234 1.474609-0.285947 0.23813-0.9842608 0.287657-1.1933598 0.08399-0.2184945-0.212834-0.3164062-0.610868-0.3164062-1.287114 0-1.018431 0.4095876-1.5856395 1.146484-1.5859395zm3.388672 1.0000015c0.19464-0.0027 0.40131 0.04647 0.650391 0.146484 0.257105 0.10324 0.544662 0.269015 0.640625 0.369141 0.228876 0.238808 0.231936 0.778504 0.0059 1.376953-0.341179 0.903179-1.02133 1.266933-1.955078 1.044922-0.359314-0.08543-0.783007-0.492094-0.859375-0.824219-0.123401-0.536656 0.426256-1.671135 0.94336-1.949219 0.197548-0.106234 0.379579-0.161352 0.574218-0.164062zm-6.5703122 4c-0.2522933-0.0016-0.5197436 0.0915-0.7773438 0.28125-0.3157198 0.232561-0.9320483 1.041638-1.0957031 1.439453-0.3096905 0.752802 0.204804 1.914295 0.9765625 2.205078 0.2714705 0.102284 0.2757358 0.102321 0.5214844-0.0293 0.2921603-0.156485 0.434774-0.36625 0.9414062-1.384765 0.3422434-0.688031 0.4342693-0.946714 0.4589844-1.296875 0.027963-0.396162 0.00883-0.466133-0.1894532-0.75-0.2141368-0.306575-0.5115605-0.462848-0.8359374-0.464841zm2.8632812 2c-0.7279588 0-1.2471299 0.489048-1.5839844 1.490234-0.2919593 0.867767-0.3235649 1.603332-0.082031 1.861328 0.420714 0.449388 1.9776924 0.813105 2.4531244 0.572266 0.198469-0.100541 0.261178-0.249963 0.355469-0.859375 0.09025-0.583353-0.03579-1.885831-0.230469-2.388672-0.173611-0.448391-0.478941-0.675781-0.912109-0.675781zm3.664063 0c-0.06528-5e-4 -0.142013 0.0029-0.232422 0.0098-0.539347 0.04117-0.829561 0.225023-1.089844 0.6875-0.173527 0.308314-0.190056 0.420167-0.154297 1.044922 0.04462 0.779309 0.164609 1.180347 0.375 1.238281 0.225982 0.06222 1.241686-0.03106 1.6875-0.154297 0.548229-0.151561 0.921875-0.448041 0.921875-0.732456 0-0.303651-0.789799-1.746498-1.068359-1.951172-0.139676-0.102663-0.243625-0.140926-0.439453-0.142578z" style="opacity:.2"/>
 <path d="m10.458984 7c-0.121532-8.471e-4 -0.23132 0.0033288-0.328125 0.0117188-0.9109167 0.0785739-2.0983699 0.8652684-3.1054684 2.0585937-0.973501 1.1535205-1.2551277 2.0752255-0.8398437 2.7539065 0.4676748 0.764306 1.0085295 1.198934 1.7636719 1.417969 0.6460195 0.187378 0.8392055 0.301048 1.3925781 0.820312 0.8932281 0.838179 1.2020641 0.932469 3.0800781 0.9375 0.793275 0.0022 1.748559-0.028609 2.123047-0.068359 0.553689-0.05877 0.786824-0.128695 1.24414-0.371094 1.21313-0.643008 1.408084-1.080075 1.050782-2.339844-0.111434-0.392894-0.293601-1.223717-0.404297-1.845703-0.110696-0.6219876-0.250213-1.2260657-0.310547-1.34375-0.268513-0.5237518-1.132498-1.0272252-2.621094-1.5292969-0.815817-0.2751587-2.194204-0.4960931-3.044922-0.5019531zm-0.3125 2c0.699775 0.033143 0.857179 0.7238623 0.853516 1.314453 0 0.83397-0.107381 1.155781-0.490234 1.474609-0.285947 0.23813-0.9842608 0.287657-1.1933598 0.083985-0.2184945-0.212829-0.3164062-0.610863-0.3164062-1.287109 0-1.0184291 0.4095876-1.585638 1.146484-1.585938zm3.388672 1c0.19464-0.00266 0.40131 0.046466 0.650391 0.146484 0.257105 0.10324 0.544662 0.269015 0.640625 0.369141 0.228876 0.238808 0.231936 0.778504 0.005859 1.376953-0.341179 0.903179-1.02133 1.266933-1.955078 1.044922-0.359314-0.08543-0.783007-0.492094-0.859375-0.824219-0.123401-0.536656 0.426256-1.671135 0.94336-1.949219 0.197548-0.106234 0.379579-0.161352 0.574218-0.164062zm-6.5703122 4c-0.2522933-0.0016-0.5197436 0.091502-0.7773438 0.28125-0.3157198 0.232561-0.9320483 1.041638-1.0957031 1.439453-0.3096905 0.752802 0.204804 1.914295 0.9765625 2.205078 0.2714705 0.102284 0.2757358 0.102321 0.5214844-0.029297 0.2921603-0.156485 0.434774-0.36625 0.9414062-1.384765 0.3422434-0.688031 0.4342693-0.946714 0.4589844-1.296875 0.0279634-0.396162 0.008829-0.466133-0.1894532-0.75-0.2141368-0.306578-0.5115605-0.462851-0.8359374-0.464844zm2.8632812 2c-0.7279588 0-1.2471299 0.489048-1.5839844 1.490234-0.2919593 0.867767-0.3235649 1.603332-0.0820312 1.861328 0.420714 0.449388 1.9776926 0.813105 2.4531246 0.572266 0.198469-0.100541 0.261178-0.249963 0.355469-0.859375 0.09025-0.583353-0.035785-1.885831-0.230469-2.388672-0.173611-0.448391-0.478941-0.675781-0.912109-0.675781zm3.664063 0c-0.06528-5e-4 -0.142013 0.002866-0.232422 0.009766-0.539347 0.04117-0.829561 0.225023-1.089844 0.6875-0.173527 0.308314-0.190056 0.420167-0.154297 1.044922 0.04462 0.779309 0.164609 1.180347 0.375 1.238281 0.225982 0.06222 1.241686-0.031063 1.6875-0.154297 0.548229-0.151527 0.921875-0.448007 0.921875-0.732422 0-0.303651-0.789799-1.746498-1.068359-1.951172-0.139676-0.102663-0.243625-0.140926-0.439453-0.142578z" style="fill:#cbcbcb"/>
 <path d="m10.458984 7c-0.121532-8.471e-4 -0.23132 0.0033288-0.328125 0.0117188-0.9109163 0.0785739-2.0983699 0.8652684-3.1054684 2.0585937-0.7794326 0.923565-1.1082357 1.6957995-0.9980468 2.3164065 0.086274-0.521585 0.4159379-1.126653 0.9980468-1.8164065 1.0070985-1.1933253 2.1945521-1.9800198 3.1054684-2.0585937 0.096805-0.0083891 0.206593-0.0125659 0.328125-0.0117188 0.850718 0.00586 2.229105 0.2267944 3.044922 0.5019531 1.488596 0.5020717 2.352581 1.0055451 2.621094 1.5292969 0.060334 0.1176843 0.199851 0.721761 0.310547 1.34375 0.110696 0.621986 0.292863 1.45281 0.404297 1.845703 0.074625 0.263112 0.108659 0.47312 0.130859 0.673828 0.061459-0.305204 0.011025-0.673575-0.130859-1.173828-0.111434-0.392894-0.293601-1.223717-0.404297-1.845703-0.110696-0.6219876-0.250213-1.2260657-0.310547-1.34375-0.268513-0.5237518-1.132498-1.0272252-2.621094-1.5292969-0.815817-0.2751587-2.194204-0.4960931-3.044922-0.5019531zm0.527344 3.628906c-0.029906 0.59324-0.149745 0.887993-0.476562 1.160156-0.285947 0.23813-0.9842608 0.287657-1.1933598 0.083985-0.181906-0.177189-0.2631855-0.526071-0.2910156-1.013672-0.0056731 0.078741-0.0253906 0.141452-0.0253906 0.226563 0 0.676246 0.0979117 1.074275 0.3164062 1.287109 0.2090991 0.203667 0.9074128 0.154145 1.1933598-0.083985 0.382853-0.318828 0.490234-0.640639 0.490234-1.474609 3.78e-4 -0.060984-0.010196-0.123262-0.013672-0.185547zm3.984375 0.726563c-0.025764 0.169874-0.067162 0.347816-0.138672 0.537109-0.341179 0.903179-1.02133 1.266933-1.955078 1.044922-0.345121-0.082056-0.742707-0.459134-0.841797-0.783203-0.035912 0.172678-0.046492 0.333241-0.017578 0.458984 0.076368 0.332125 0.500061 0.738789 0.859375 0.824219 0.933748 0.222011 1.613899-0.141743 1.955078-1.044922 0.150675-0.398925 0.190624-0.76212 0.138672-1.037109zm-8.0058592 2.644531c-0.2522933-0.0016-0.5197436 0.091502-0.7773438 0.28125-0.3157198 0.232561-0.9320483 1.041638-1.0957031 1.439453-0.0923201 0.224414-0.103599 0.484889-0.0644531 0.748047 0.0150208-0.085444 0.0323327-0.169968 0.0644531-0.248047 0.1636548-0.397815 0.7799833-1.206892 1.0957031-1.439453 0.2576002-0.18975 0.5250505-0.28285 0.7773438-0.28125 0.3243769 0.001993 0.6218006 0.158269 0.8359374 0.464844 0.0957182 0.137032 0.1467505 0.224167 0.1738282 0.322265 0.0024214-0.023569 0.0139115-0.04799 0.015625-0.072265 0.0279634-0.396162 0.0088291-0.466133-0.1894532-0.75-0.2141368-0.306578-0.5115605-0.462851-0.8359374-0.464844zm2.8632812 2c-0.7279588 0-1.2471299 0.489048-1.5839844 1.490234-0.2034963 0.604836-0.272549 1.134702-0.21875 1.494141 0.0293587-0.293624 0.0952462-0.62706 0.21875-0.994141 0.3368545-1.001186 0.8560256-1.490234 1.5839844-1.490234 0.433168 0 0.738498 0.22739 0.912109 0.675781 0.128285 0.331351 0.219667 1.002528 0.246094 1.59375 0.030128-0.648516-0.077563-1.65846-0.246094-2.09375-0.173611-0.448391-0.478941-0.675781-0.912109-0.675781zm3.664063 0c-0.065281-5e-4 -0.142013 0.002866-0.232422 0.009766-0.539347 0.04117-0.829561 0.225023-1.089844 0.6875-0.153953 0.273535-0.174374 0.440763-0.154297 0.90039 0.02166-0.142369 0.068404-0.24778 0.154297-0.40039 0.260283-0.462477 0.550497-0.64633 1.089844-0.6875 0.090409-0.0069 0.167142-0.010266 0.232422-0.009766 0.195828 0.001652 0.299777 0.039915 0.439453 0.142578 0.232471 0.17081 0.79599 1.169899 0.984375 1.683594 0.05188-0.076419 0.083984-0.154593 0.083984-0.232422 0-0.303651-0.789799-1.746498-1.068359-1.951172-0.139676-0.102663-0.243626-0.140926-0.439453-0.142578z" style="fill:#ffffff;opacity:.2"/>
</svg>
