<svg width="24" height="24" version="1" xmlns="http://www.w3.org/2000/svg">
 <g transform="matrix(.93333 0 0 1 .8 0)">
  <path d="m4.5 3h15v7h-15z" style="fill:#b7b7b7"/>
  <path d="m4.5 3v0.5h15v-0.5z" style="fill:#ffffff;opacity:.2"/>
 </g>
 <rect x="2" y="9" width="20" height="12" rx="1" ry="1" style="fill:#4f4f4f"/>
 <g transform="matrix(.5 0 0 .5 0 -2)" style="opacity:.4">
  <rect x="12" y="26" width="24" height="4"/>
  <rect x="14" y="32" width="20" height="4"/>
  <rect x="16" y="38" width="16" height="4"/>
 </g>
 <path d="m2 20v0.5c0 0.554 0.446 1 1 1h18c0.554 0 1-0.446 1-1v-0.5c0 0.554-0.446 1-1 1h-18c-0.554 0-1-0.446-1-1z" style="opacity:.2"/>
 <rect x="6" y="5" width="4" height="2" style="opacity:.5"/>
 <rect x="14" y="5" width="4" height="2" style="opacity:.5"/>
 <g transform="translate(-1,-1)">
  <circle cx="18" cy="18" r="6" style="fill:#48aeff"/>
  <path d="m 15.142857,15 h 1.714286 C 16.936287,15 17,15.063712 17,15.142857 v 1.714286 C 17,16.936286 16.93628,17 16.857143,17 H 15.142857 C 15.063714,17 15,16.936286 15,16.857143 V 15.142857 C 15,15.063714 15.063714,15 15.142857,15 Z" style="fill:#ffffff"/>
  <path d="m 19.142857,15 h 1.714286 C 20.936283,15 21,15.06371 21,15.142857 v 1.714286 C 21,16.936286 20.93628,17 20.857143,17 H 19.142857 C 19.063714,17 19,16.93628 19,16.857143 V 15.142857 C 19,15.063714 19.063713,15 19.142857,15 Z" style="fill:#ffffff"/>
  <path d="m 15.142857,19 h 1.714286 C 16.936287,19 17,19.06372 17,19.142857 v 1.714286 C 17,20.936286 16.936286,21 16.857143,21 H 15.142857 C 15.063714,21 15,20.936286 15,20.857143 V 19.142857 C 15,19.063714 15.063713,19 15.142857,19 Z" style="fill:#ffffff"/>
  <path d="m 19.142857,19 h 1.714286 C 20.936283,19 21,19.06372 21,19.142857 v 1.714286 C 21,20.936286 20.936286,21 20.857143,21 H 19.142857 C 19.063714,21 19,20.936282 19,20.857143 V 19.142857 C 19,19.063714 19.06372,19 19.142857,19 Z" style="fill:#ffffff"/>
 </g>
</svg>
