<svg width="24" height="24" version="1.1" xmlns="http://www.w3.org/2000/svg">
 <g transform="translate(1,1)">
  <rect transform="matrix(0,-1,-1,0,0,0)" x="-21" y="-21" width="20" height="20" rx="1" ry="1" fill="#e79d67"/>
  <path d="m3.247 3.4999c-0.13686 0-0.24707 0.11022-0.24707 0.24707v15.506c0 0.137 0.1102 0.247 0.24705 0.247h15.506c0.137 0 0.247-0.11 0.247-0.247v-15.506c0-0.1368-0.11-0.247-0.247-0.247z" opacity=".2"/>
  <path d="m3.247 3c-0.1368 0-0.247 0.1102-0.247 0.2471v15.506c0 0.137 0.1102 0.247 0.24705 0.247h15.506c0.137 0 0.247-0.11 0.247-0.247v-15.506c0-0.1368-0.11-0.247-0.247-0.247z" fill="#fff"/>
  <path d="m6 3v17l5-3 5 3v-17z" fill="#e84228"/>
  <path d="m1 2.5v-0.5c0-0.554 0.446-1 1-1h18c0.554 0 1 0.446 1 1v0.5c0-0.554-0.446-1-1-1h-18c-0.554 0-1 0.446-1 1z" fill="#fff" opacity=".2"/>
  <path d="m1 20v0.5c0 0.554 0.446 1 1 1h18c0.554 0 1-0.446 1-1v-0.5c0 0.554-0.446 1-1 1h-18c-0.554 0-1-0.446-1-1z" opacity=".2"/>
  <path d="m11 6.5 1.236 2.6334 2.764 0.4223-2 2.0503 0.472 2.894-2.472-1.367-2.4721 1.367 0.4721-2.894-2-2.0503 2.7639-0.4223z" opacity=".2"/>
  <path d="m11 6 1.236 2.6334 2.764 0.4223-2 2.0503 0.472 2.894-2.472-1.367-2.4721 1.367 0.4721-2.894-2-2.0503 2.7639-0.4223z" fill="#fff"/>
  <path d="m11 6 1.236 2.6334 2.764 0.4223-2 2.0503 0.472 2.894-2.472-1.367-2.4721 1.367 0.4721-2.894-2-2.0503 2.7639-0.4223z" fill="#fff"/>
 </g>
</svg>
