<svg width="24" height="24" version="1" xmlns="http://www.w3.org/2000/svg">
 <g transform="translate(1,1)">
  <rect transform="matrix(0,-1,-1,0,0,0)" x="-21" y="-21" width="20" height="20" rx="1" ry="1" fill="#d2d2d2"/>
  <path d="m2 1c-0.554 0-1 0.446-1 1v0.5c0-0.554 0.446-1 1-1h18c0.554 0 1 0.446 1 1v-0.5c0-0.554-0.446-1-1-1h-18z" fill="#fff" opacity=".2"/>
  <path d="m2 21.5c-0.554 0-1-0.446-1-1v-0.5c0 0.554 0.446 1 1 1h18c0.554 0 1-0.446 1-1v0.5c0 0.554-0.446 1-1 1h-18z" opacity=".2"/>
  <path d="m7.5 12.75v-3.5l3-1.75 3 1.75-1e-6 3.5-3 1.75-3-1.75z" fill="#d6ac12"/>
  <path d="m11 4v2.8716l3 1.6284 2.5-1.5z" fill="#8fb635"/>
  <path d="m10 4v2.8716l-3 1.6284-2.5-1.5z" fill="#3895bd"/>
  <path d="m16.987 7.7369-2.487 1.4358 0.09 3.4123 2.549 1.415z" fill="#d18c3b"/>
  <path d="m4.1519 7.7369 2.4869 1.4358-0.0898 3.4123-2.549 1.415z" fill="#3941bf"/>
  <path d="m11 18v-2.872l3-1.628 2.5 1.5z" fill="#a02c35"/>
  <path d="m10 18v-2.872l-3-1.628-2.5 1.5z" fill="#bb3a84"/>
 </g>
</svg>
