<svg width="24" height="24" version="1" xmlns="http://www.w3.org/2000/svg">
 <g style="fill:#8e8e8e">
  <rect transform="rotate(90)" x="15" y="-21" width="1" height="19"/>
  <rect transform="rotate(90)" x="13" y="-21" width="1" height="19"/>
  <rect transform="rotate(90)" x="11" y="-21" width="1" height="19"/>
  <rect transform="rotate(90)" x="9" y="-21" width="1" height="19"/>
  <rect transform="rotate(90)" x="17" y="-21" width="1" height="19"/>
  <rect transform="rotate(90)" x="19" y="-21" width="1" height="19"/>
  <rect transform="rotate(90)" x="7" y="-21" width="1" height="19"/>
  <rect transform="rotate(90)" x="5" y="-21" width="1" height="19"/>
  <rect x="12" y="3" width="1" height="19"/>
  <rect x="10" y="3" width="1" height="19"/>
  <rect x="8" y="3" width="1" height="19"/>
  <rect x="6" y="3" width="1" height="19"/>
  <rect x="14" y="3" width="1" height="19"/>
  <rect x="16" y="3" width="1" height="19"/>
  <rect x="18" y="3" width="1" height="19"/>
  <rect x="4" y="3" width="1" height="19"/>
 </g>
 <rect transform="matrix(0,-1,-1,0,0,0)" x="-21.5" y="-20" width="17" height="17" rx=".944" ry=".944" style="opacity:.2"/>
 <rect transform="matrix(0,-1,-1,0,0,0)" x="-21" y="-20" width="17" height="17" rx=".944" ry=".944" style="fill:#b7b7b7"/>
 <path d="M 3.9453,4 C 3.4221,4 3,4.4221 3,4.9453 V 5.4453 C 3,4.9221 3.4221,4.5 3.9453,4.5 H 19.055 C 19.578,4.5 20,4.9221 20,5.4453 V 4.9453 C 20,4.4221 19.578,4 19.055,4 Z" style="fill:#ffffff;opacity:.2"/>
 <rect x="5" y="9" width="4" height="1" style="opacity:.5"/>
 <rect x="10" y="9" width="2" height="1" style="opacity:.5"/>
 <rect x="13" y="9" width="5" height="1" style="opacity:.5"/>
 <rect x="5" y="12" width="5" height="1" style="opacity:.5"/>
 <rect x="11" y="12" width="5" height="1" style="opacity:.5"/>
 <rect x="5" y="15" width="2" height="1" style="opacity:.5"/>
 <rect x="8" y="15" width="2" height="1" style="opacity:.5"/>
 <rect x="11" y="15" width="4" height="1" style="opacity:.5"/>
</svg>
