<svg width="48" height="48" version="1" xmlns="http://www.w3.org/2000/svg">
 <rect transform="matrix(0,-1,-1,0,0,0)" x="-44" y="-44" width="40" height="40" rx="2" ry="2" style="fill:#355681"/>
 <path d="m6 4c-1.108 0-2 0.892-2 2v1c0-1.108 0.892-2 2-2h36c1.108 0 2 0.892 2 2v-1c0-1.108-0.892-2-2-2h-36z" style="fill:#ffffff;opacity:.1"/>
 <path d="m4 42v1c0 1.108 0.892 2 2 2h36c1.108 0 2-0.892 2-2v-1c0 1.108-0.892 2-2 2h-36c-1.108 0-2-0.892-2-2z" style="opacity:.2"/>
 <path d="m24 21c0-3-2-10 7-10s9 14 0 14h-14c-9 0-9 14 0 14s7.041425-8 7-10" style="fill:none;opacity:.2;stroke-linejoin:round;stroke-width:4;stroke:#000000"/>
 <path d="m24 20c0-3-2-10 7-10s9 14 0 14h-14c-9 0-9 14 0 14s7.041425-8 7-10" style="fill:none;stroke-linejoin:round;stroke-width:4;stroke:#ffffff"/>
</svg>
