<svg width="48" height="48" version="1.0" xmlns="http://www.w3.org/2000/svg">
 <text x="877.22626" y="10.812601" font-family="'Bitstream Vera Sans'" font-size="12.666px" opacity=".8" xml:space="preserve"><tspan x="877.22626" y="10.812601"/></text>
 <text x="901.18719" y="-29.929106" font-family="'Bitstream Vera Sans'" font-size="12.666px" opacity=".8" xml:space="preserve"><tspan x="901.18719" y="-29.929106"/></text>
 <text x="-569.37115" y="-60.007248" font-family="'Bitstream Vera Sans'" font-size="12.666px" opacity=".8" xml:space="preserve"><tspan x="-569.37115" y="-60.007248"/></text>
 <text x="-2393.0571" y="685.5462" font-family="'Bitstream Vera Sans'" font-size="12.666px" opacity=".8" xml:space="preserve"><tspan x="-2393.0571" y="685.5462"/></text>
 <text x="-454.88007" y="-445.32822" font-family="'Bitstream Vera Sans'" font-size="12.666px" opacity=".8" xml:space="preserve"><tspan x="-454.88007" y="-445.32822"/></text>
 <text x="352.72208" y="-858.79834" font-family="'Bitstream Vera Sans'" font-size="12.666px" opacity=".8" xml:space="preserve"><tspan x="352.72208" y="-858.79834"/></text>
 <text x="376.68301" y="-899.54004" font-family="'Bitstream Vera Sans'" font-size="12.666px" opacity=".8" xml:space="preserve"><tspan x="376.68301" y="-899.54004"/></text>
 <text x="-1114.7802" y="-906.74994" font-family="'Bitstream Vera Sans'" font-size="12.666px" opacity=".8" xml:space="preserve"><tspan x="-1114.7802" y="-906.74994"/></text>
 <text x="345.7626" y="-1179.9841" font-family="'Bitstream Vera Sans'" font-size="12.666px" opacity=".8" xml:space="preserve"><tspan x="345.7626" y="-1179.9841"/></text>
 <text x="1831.8861" y="-553.29272" font-family="'Bitstream Vera Sans'" font-size="12.666px" opacity=".8" xml:space="preserve"><tspan x="1831.8861" y="-553.29272"/></text>
 <text x="1855.8469" y="-594.03448" font-family="'Bitstream Vera Sans'" font-size="12.666px" opacity=".8" xml:space="preserve"><tspan x="1855.8469" y="-594.03448"/></text>
 <text x="364.38376" y="-601.24438" font-family="'Bitstream Vera Sans'" font-size="12.666px" opacity=".8" xml:space="preserve"><tspan x="364.38376" y="-601.24438"/></text>
 <text x="1824.9266" y="-874.47839" font-family="'Bitstream Vera Sans'" font-size="12.666px" opacity=".8" xml:space="preserve"><tspan x="1824.9266" y="-874.47839"/></text>
 <text x="-573.43256" y="-649.33569" font-family="'Bitstream Vera Sans'" font-size="12.666px" opacity=".8" xml:space="preserve"><tspan x="-573.43256" y="-649.33569"/></text>
 <text x="-2397.1182" y="96.217857" font-family="'Bitstream Vera Sans'" font-size="12.666px" opacity=".8" xml:space="preserve"><tspan x="-2397.1182" y="96.217857"/></text>
 <text x="-682.36279" y="189.09" font-family="'Bitstream Vera Sans'" font-size="12.666px" opacity=".8" xml:space="preserve"><tspan x="-682.36279" y="189.09"/></text>
 <text x="426.66153" y="9.9078522" font-family="'Bitstream Vera Sans'" font-size="12.666px" opacity=".8" xml:space="preserve"><tspan x="426.66153" y="9.9078522"/></text>
 <text x="450.62247" y="-30.833855" font-family="'Bitstream Vera Sans'" font-size="12.666px" opacity=".8" xml:space="preserve"><tspan x="450.62247" y="-30.833855"/></text>
 <text x="-1040.8407" y="-38.043827" font-family="'Bitstream Vera Sans'" font-size="12.666px" opacity=".8" xml:space="preserve"><tspan x="-1040.8407" y="-38.043827"/></text>
 <text x="419.70206" y="-311.27789" font-family="'Bitstream Vera Sans'" font-size="12.666px" opacity=".8" xml:space="preserve"><tspan x="419.70206" y="-311.27789"/></text>
 <text x="-608.03253" y="-40.758072" font-family="'Bitstream Vera Sans'" font-size="12.666px" opacity=".8" xml:space="preserve"><tspan x="-608.03253" y="-40.758072"/></text>
 <text x="-2431.7185" y="704.79541" font-family="'Bitstream Vera Sans'" font-size="12.666px" opacity=".8" xml:space="preserve"><tspan x="-2431.7185" y="704.79541"/></text>
 <text x="-456.93948" y="-902.28857" font-family="'Bitstream Vera Sans'" font-size="12.666px" opacity=".8" xml:space="preserve"><tspan x="-456.93948" y="-902.28857"/></text>
 <text x="350.66266" y="-1315.7588" font-family="'Bitstream Vera Sans'" font-size="12.666px" opacity=".8" xml:space="preserve"><tspan x="350.66266" y="-1315.7588"/></text>
 <text x="374.62357" y="-1356.5005" font-family="'Bitstream Vera Sans'" font-size="12.666px" opacity=".8" xml:space="preserve"><tspan x="374.62357" y="-1356.5005"/></text>
 <text x="-1116.8396" y="-1363.7104" font-family="'Bitstream Vera Sans'" font-size="12.666px" opacity=".8" xml:space="preserve"><tspan x="-1116.8396" y="-1363.7104"/></text>
 <text x="343.70316" y="-1636.9446" font-family="'Bitstream Vera Sans'" font-size="12.666px" opacity=".8" xml:space="preserve"><tspan x="343.70316" y="-1636.9446"/></text>
 <text x="1829.8265" y="-1010.2533" font-family="'Bitstream Vera Sans'" font-size="12.666px" opacity=".8" xml:space="preserve"><tspan x="1829.8265" y="-1010.2533"/></text>
 <text x="1853.7874" y="-1050.9949" font-family="'Bitstream Vera Sans'" font-size="12.666px" opacity=".8" xml:space="preserve"><tspan x="1853.7874" y="-1050.9949"/></text>
 <text x="362.32431" y="-1058.2048" font-family="'Bitstream Vera Sans'" font-size="12.666px" opacity=".8" xml:space="preserve"><tspan x="362.32431" y="-1058.2048"/></text>
 <text x="1822.8671" y="-1331.439" font-family="'Bitstream Vera Sans'" font-size="12.666px" opacity=".8" xml:space="preserve"><tspan x="1822.8671" y="-1331.439"/></text>
 <text x="-575.492" y="-1106.2961" font-family="'Bitstream Vera Sans'" font-size="12.666px" opacity=".8" xml:space="preserve"><tspan x="-575.492" y="-1106.2961"/></text>
 <text x="-2399.1777" y="-360.74261" font-family="'Bitstream Vera Sans'" font-size="12.666px" opacity=".8" xml:space="preserve"><tspan x="-2399.1777" y="-360.74261"/></text>
 <text x="-684.42224" y="-267.87045" font-family="'Bitstream Vera Sans'" font-size="12.666px" opacity=".8" xml:space="preserve"><tspan x="-684.42224" y="-267.87045"/></text>
 <text x="155.5923" y="-26.956278" font-family="'Bitstream Vera Sans'" font-size="12.666px" opacity=".8" xml:space="preserve"><tspan x="155.5923" y="-26.956278"/></text>
 <text x="179.55324" y="-67.697998" font-family="'Bitstream Vera Sans'" font-size="12.666px" opacity=".8" xml:space="preserve"><tspan x="179.55324" y="-67.697998"/></text>
 <text x="-1090.2634" y="-261.72662" font-family="'Bitstream Vera Sans'" font-size="12.666px" opacity=".8" xml:space="preserve"><tspan x="-1090.2634" y="-261.72662"/></text>
 <text x="-282.66141" y="-675.19678" font-family="'Bitstream Vera Sans'" font-size="12.666px" opacity=".8" xml:space="preserve"><tspan x="-282.66141" y="-675.19678"/></text>
 <text x="-258.70047" y="-715.93848" font-family="'Bitstream Vera Sans'" font-size="12.666px" opacity=".8" xml:space="preserve"><tspan x="-258.70047" y="-715.93848"/></text>
 <text x="-1750.1636" y="-723.14838" font-family="'Bitstream Vera Sans'" font-size="12.666px" opacity=".8" xml:space="preserve"><tspan x="-1750.1636" y="-723.14838"/></text>
 <text x="-289.62085" y="-996.38251" font-family="'Bitstream Vera Sans'" font-size="12.666px" opacity=".8" xml:space="preserve"><tspan x="-289.62085" y="-996.38251"/></text>
 <text x="1196.5026" y="-369.69113" font-family="'Bitstream Vera Sans'" font-size="12.666px" opacity=".8" xml:space="preserve"><tspan x="1196.5026" y="-369.69113"/></text>
 <text x="1220.4634" y="-410.43286" font-family="'Bitstream Vera Sans'" font-size="12.666px" opacity=".8" xml:space="preserve"><tspan x="1220.4634" y="-410.43286"/></text>
 <text x="-270.99973" y="-417.64282" font-family="'Bitstream Vera Sans'" font-size="12.666px" opacity=".8" xml:space="preserve"><tspan x="-270.99973" y="-417.64282"/></text>
 <text x="1189.5431" y="-690.87689" font-family="'Bitstream Vera Sans'" font-size="12.666px" opacity=".8" xml:space="preserve"><tspan x="1189.5431" y="-690.87689"/></text>
 <text x="-1208.816" y="-465.7341" font-family="'Bitstream Vera Sans'" font-size="12.666px" opacity=".8" xml:space="preserve"><tspan x="-1208.816" y="-465.7341"/></text>
 <text x="-3032.5017" y="279.81946" font-family="'Bitstream Vera Sans'" font-size="12.666px" opacity=".8" xml:space="preserve"><tspan x="-3032.5017" y="279.81946"/></text>
 <g transform="matrix(.90475 0 0 .90475 -716.75 -676.29)">
  <text x="-664.2738" y="1159.4154" font-family="'Bitstream Vera Sans'" font-size="14px" opacity=".8" xml:space="preserve"><tspan x="-664.2738" y="1159.4154"/></text>
 </g>
 <text x="877.22626" y="18.050589" font-family="'Bitstream Vera Sans'" font-size="12.666px" opacity=".8" xml:space="preserve"><tspan x="877.22626" y="18.050589"/></text>
 <text x="901.18719" y="-22.691116" font-family="'Bitstream Vera Sans'" font-size="12.666px" opacity=".8" xml:space="preserve"><tspan x="901.18719" y="-22.691116"/></text>
 <text x="-569.37115" y="-52.76926" font-family="'Bitstream Vera Sans'" font-size="12.666px" opacity=".8" xml:space="preserve"><tspan x="-569.37115" y="-52.76926"/></text>
 <text x="-2393.0571" y="692.78418" font-family="'Bitstream Vera Sans'" font-size="12.666px" opacity=".8" xml:space="preserve"><tspan x="-2393.0571" y="692.78418"/></text>
 <text x="-454.88007" y="-438.09021" font-family="'Bitstream Vera Sans'" font-size="12.666px" opacity=".8" xml:space="preserve"><tspan x="-454.88007" y="-438.09021"/></text>
 <text x="352.72208" y="-851.5603" font-family="'Bitstream Vera Sans'" font-size="12.666px" opacity=".8" xml:space="preserve"><tspan x="352.72208" y="-851.5603"/></text>
 <text x="376.68301" y="-892.30206" font-family="'Bitstream Vera Sans'" font-size="12.666px" opacity=".8" xml:space="preserve"><tspan x="376.68301" y="-892.30206"/></text>
 <text x="-1114.7802" y="-899.51196" font-family="'Bitstream Vera Sans'" font-size="12.666px" opacity=".8" xml:space="preserve"><tspan x="-1114.7802" y="-899.51196"/></text>
 <text x="345.7626" y="-1172.7461" font-family="'Bitstream Vera Sans'" font-size="12.666px" opacity=".8" xml:space="preserve"><tspan x="345.7626" y="-1172.7461"/></text>
 <text x="1831.8861" y="-546.05475" font-family="'Bitstream Vera Sans'" font-size="12.666px" opacity=".8" xml:space="preserve"><tspan x="1831.8861" y="-546.05475"/></text>
 <text x="1855.8469" y="-586.79651" font-family="'Bitstream Vera Sans'" font-size="12.666px" opacity=".8" xml:space="preserve"><tspan x="1855.8469" y="-586.79651"/></text>
 <text x="364.38376" y="-594.00641" font-family="'Bitstream Vera Sans'" font-size="12.666px" opacity=".8" xml:space="preserve"><tspan x="364.38376" y="-594.00641"/></text>
 <text x="1824.9266" y="-867.24036" font-family="'Bitstream Vera Sans'" font-size="12.666px" opacity=".8" xml:space="preserve"><tspan x="1824.9266" y="-867.24036"/></text>
 <text x="-573.43256" y="-642.09772" font-family="'Bitstream Vera Sans'" font-size="12.666px" opacity=".8" xml:space="preserve"><tspan x="-573.43256" y="-642.09772"/></text>
 <text x="-2397.1182" y="103.45585" font-family="'Bitstream Vera Sans'" font-size="12.666px" opacity=".8" xml:space="preserve"><tspan x="-2397.1182" y="103.45585"/></text>
 <text x="-682.36279" y="196.32799" font-family="'Bitstream Vera Sans'" font-size="12.666px" opacity=".8" xml:space="preserve"><tspan x="-682.36279" y="196.32799"/></text>
 <text x="426.66153" y="17.14584" font-family="'Bitstream Vera Sans'" font-size="12.666px" opacity=".8" xml:space="preserve"><tspan x="426.66153" y="17.14584"/></text>
 <text x="450.62247" y="-23.595865" font-family="'Bitstream Vera Sans'" font-size="12.666px" opacity=".8" xml:space="preserve"><tspan x="450.62247" y="-23.595865"/></text>
 <text x="-1040.8407" y="-30.805836" font-family="'Bitstream Vera Sans'" font-size="12.666px" opacity=".8" xml:space="preserve"><tspan x="-1040.8407" y="-30.805836"/></text>
 <text x="419.70206" y="-304.03989" font-family="'Bitstream Vera Sans'" font-size="12.666px" opacity=".8" xml:space="preserve"><tspan x="419.70206" y="-304.03989"/></text>
 <text x="-608.03253" y="-33.520081" font-family="'Bitstream Vera Sans'" font-size="12.666px" opacity=".8" xml:space="preserve"><tspan x="-608.03253" y="-33.520081"/></text>
 <text x="-2431.7185" y="712.03345" font-family="'Bitstream Vera Sans'" font-size="12.666px" opacity=".8" xml:space="preserve"><tspan x="-2431.7185" y="712.03345"/></text>
 <text x="-456.93948" y="-895.0506" font-family="'Bitstream Vera Sans'" font-size="12.666px" opacity=".8" xml:space="preserve"><tspan x="-456.93948" y="-895.0506"/></text>
 <text x="350.66266" y="-1308.5208" font-family="'Bitstream Vera Sans'" font-size="12.666px" opacity=".8" xml:space="preserve"><tspan x="350.66266" y="-1308.5208"/></text>
 <text x="374.62357" y="-1349.2626" font-family="'Bitstream Vera Sans'" font-size="12.666px" opacity=".8" xml:space="preserve"><tspan x="374.62357" y="-1349.2626"/></text>
 <text x="-1116.8396" y="-1356.4724" font-family="'Bitstream Vera Sans'" font-size="12.666px" opacity=".8" xml:space="preserve"><tspan x="-1116.8396" y="-1356.4724"/></text>
 <text x="343.70316" y="-1629.7065" font-family="'Bitstream Vera Sans'" font-size="12.666px" opacity=".8" xml:space="preserve"><tspan x="343.70316" y="-1629.7065"/></text>
 <text x="1829.8265" y="-1003.0153" font-family="'Bitstream Vera Sans'" font-size="12.666px" opacity=".8" xml:space="preserve"><tspan x="1829.8265" y="-1003.0153"/></text>
 <text x="1853.7874" y="-1043.757" font-family="'Bitstream Vera Sans'" font-size="12.666px" opacity=".8" xml:space="preserve"><tspan x="1853.7874" y="-1043.757"/></text>
 <text x="362.32431" y="-1050.9668" font-family="'Bitstream Vera Sans'" font-size="12.666px" opacity=".8" xml:space="preserve"><tspan x="362.32431" y="-1050.9668"/></text>
 <text x="1822.8671" y="-1324.2009" font-family="'Bitstream Vera Sans'" font-size="12.666px" opacity=".8" xml:space="preserve"><tspan x="1822.8671" y="-1324.2009"/></text>
 <text x="-575.492" y="-1099.0581" font-family="'Bitstream Vera Sans'" font-size="12.666px" opacity=".8" xml:space="preserve"><tspan x="-575.492" y="-1099.0581"/></text>
 <text x="-2399.1777" y="-353.50461" font-family="'Bitstream Vera Sans'" font-size="12.666px" opacity=".8" xml:space="preserve"><tspan x="-2399.1777" y="-353.50461"/></text>
 <text x="-684.42224" y="-260.63245" font-family="'Bitstream Vera Sans'" font-size="12.666px" opacity=".8" xml:space="preserve"><tspan x="-684.42224" y="-260.63245"/></text>
 <text x="155.5923" y="-19.71829" font-family="'Bitstream Vera Sans'" font-size="12.666px" opacity=".8" xml:space="preserve"><tspan x="155.5923" y="-19.71829"/></text>
 <text x="179.55324" y="-60.460011" font-family="'Bitstream Vera Sans'" font-size="12.666px" opacity=".8" xml:space="preserve"><tspan x="179.55324" y="-60.460011"/></text>
 <text x="-1090.2634" y="-254.4886" font-family="'Bitstream Vera Sans'" font-size="12.666px" opacity=".8" xml:space="preserve"><tspan x="-1090.2634" y="-254.4886"/></text>
 <text x="-282.66141" y="-667.9588" font-family="'Bitstream Vera Sans'" font-size="12.666px" opacity=".8" xml:space="preserve"><tspan x="-282.66141" y="-667.9588"/></text>
 <text x="-258.70047" y="-708.7005" font-family="'Bitstream Vera Sans'" font-size="12.666px" opacity=".8" xml:space="preserve"><tspan x="-258.70047" y="-708.7005"/></text>
 <text x="-1750.1636" y="-715.91046" font-family="'Bitstream Vera Sans'" font-size="12.666px" opacity=".8" xml:space="preserve"><tspan x="-1750.1636" y="-715.91046"/></text>
 <text x="-289.62085" y="-989.14447" font-family="'Bitstream Vera Sans'" font-size="12.666px" opacity=".8" xml:space="preserve"><tspan x="-289.62085" y="-989.14447"/></text>
 <text x="1196.5026" y="-362.45316" font-family="'Bitstream Vera Sans'" font-size="12.666px" opacity=".8" xml:space="preserve"><tspan x="1196.5026" y="-362.45316"/></text>
 <text x="1220.4634" y="-403.19489" font-family="'Bitstream Vera Sans'" font-size="12.666px" opacity=".8" xml:space="preserve"><tspan x="1220.4634" y="-403.19489"/></text>
 <text x="-270.99973" y="-410.40482" font-family="'Bitstream Vera Sans'" font-size="12.666px" opacity=".8" xml:space="preserve"><tspan x="-270.99973" y="-410.40482"/></text>
 <text x="1189.5431" y="-683.63892" font-family="'Bitstream Vera Sans'" font-size="12.666px" opacity=".8" xml:space="preserve"><tspan x="1189.5431" y="-683.63892"/></text>
 <text x="-1208.816" y="-458.49609" font-family="'Bitstream Vera Sans'" font-size="12.666px" opacity=".8" xml:space="preserve"><tspan x="-1208.816" y="-458.49609"/></text>
 <text x="-3032.5017" y="287.05743" font-family="'Bitstream Vera Sans'" font-size="12.666px" opacity=".8" xml:space="preserve"><tspan x="-3032.5017" y="287.05743"/></text>
 <g transform="matrix(.90475 0 0 .90475 -716.75 -669.05)">
  <text x="-664.2738" y="1159.4154" font-family="'Bitstream Vera Sans'" font-size="14px" opacity=".8" xml:space="preserve"><tspan x="-664.2738" y="1159.4154"/></text>
 </g>
 <text x="435.90427" y="-361.22546" font-family="'Droid Sans'" font-size="12.666px" xml:space="preserve"><tspan x="435.90427" y="-361.22546"/><tspan x="435.90427" y="-345.3924"/></text>
 <text x="901.0882" y="-843.27002" font-family="'Bitstream Vera Sans'" font-size="12.666px" opacity=".8" xml:space="preserve"><tspan x="901.0882" y="-843.27002"/></text>
 <text x="-922.59778" y="-97.716553" font-family="'Bitstream Vera Sans'" font-size="12.666px" opacity=".8" xml:space="preserve"><tspan x="-922.59778" y="-97.716553"/></text>
 <text x="1628.1677" y="-1128.2659" font-family="'Bitstream Vera Sans'" font-size="12.666px" opacity=".8" xml:space="preserve"><tspan x="1628.1677" y="-1128.2659"/></text>
 <text x="1652.1285" y="-1169.0076" font-family="'Bitstream Vera Sans'" font-size="12.666px" opacity=".8" xml:space="preserve"><tspan x="1652.1285" y="-1169.0076"/></text>
 <text x="160.66542" y="-1176.2175" font-family="'Bitstream Vera Sans'" font-size="12.666px" opacity=".8" xml:space="preserve"><tspan x="160.66542" y="-1176.2175"/></text>
 <text x="1621.2083" y="-1449.4517" font-family="'Bitstream Vera Sans'" font-size="12.666px" opacity=".8" xml:space="preserve"><tspan x="1621.2083" y="-1449.4517"/></text>
 <g transform="matrix(.11222 0 0 .11343 4.2138 4)" fill="#7e97de">
  <path d="m324.48 51.943-146.49-51.658c-1.076-0.38-2.25-0.38-3.326 0l-146.49 51.658c-1.999 0.705-3.337 2.595-3.337 4.715 0 52.278 13.834 112.71 37.956 165.8 19.566 43.069 54.751 100.52 111.25 129.62 0.719 0.37 1.504 0.555 2.29 0.555s1.571-0.185 2.29-0.555c56.496-29.106 91.68-86.556 111.25-129.62 24.121-53.094 37.955-113.53 37.955-165.8 0-2.12-1.338-4.01-3.337-4.715z" fill="#7e97de"/>
 </g>
 <g transform="matrix(.059409 0 0 .062386 13.525 14.001)" opacity=".2">
  <path d="m324.48 51.943-146.49-51.658c-1.076-0.38-2.25-0.38-3.326 0l-146.49 51.658c-1.999 0.705-3.337 2.595-3.337 4.715 0 52.278 13.834 112.71 37.956 165.8 19.566 43.069 54.751 100.52 111.25 129.62 0.719 0.37 1.504 0.555 2.29 0.555s1.571-0.185 2.29-0.555c56.496-29.106 91.68-86.556 111.25-129.62 24.121-53.094 37.955-113.53 37.955-165.8 0-2.12-1.338-4.01-3.337-4.715z"/>
 </g>
 <g transform="matrix(.059409 0 0 .062386 13.525 13)" fill="#fff">
  <path d="m324.48 51.943-146.49-51.658c-1.076-0.38-2.25-0.38-3.326 0l-146.49 51.658c-1.999 0.705-3.337 2.595-3.337 4.715 0 52.278 13.834 112.71 37.956 165.8 19.566 43.069 54.751 100.52 111.25 129.62 0.719 0.37 1.504 0.555 2.29 0.555s1.571-0.185 2.29-0.555c56.496-29.106 91.68-86.556 111.25-129.62 24.121-53.094 37.955-113.53 37.955-165.8 0-2.12-1.338-4.01-3.337-4.715z" fill="#fff"/>
 </g>
 <g transform="matrix(.11222 0 0 .11343 4.2138 4)" fill="#5c7bd5">
  <path transform="matrix(8.9114 0 0 8.8161 -37.55 -35.264)" d="m24 4c-0.063 0-0.125 0.0117-0.186 0.0332l-16.439 5.8594c-0.2243 0.0799-0.375 0.2924-0.375 0.5334 0 0.27 0.0209 0.552 0.0273 0.826 0.0528-0.166 0.1795-0.299 0.3477-0.359l16.439-5.8598c0.121-0.0431 0.253-0.0431 0.374 0l16.437 5.8598c0.168 0.06 0.295 0.193 0.348 0.359 6e-3 -0.274 0.027-0.556 0.027-0.826 0-0.241-0.151-0.4535-0.375-0.5334l-16.437-5.8594c-0.061-0.0215-0.125-0.0332-0.188-0.0332z" fill="#fff" opacity=".2"/>
 </g>
 <g transform="matrix(.11222 0 0 .11343 4.2138 4.9995)" opacity=".2">
  <path transform="matrix(8.9114,0,0,8.8161,-37.55,-35.264)" d="m7.0273 10.258c-0.0164 0.053-0.0273 0.11-0.0273 0.168 0 5.93 1.5529 12.786 4.26 18.808 2.195 4.886 6.142 11.402 12.482 14.704 0.081 0.041 0.17 0.062 0.258 0.062s0.177-0.021 0.258-0.062c6.34-3.302 10.286-9.818 12.482-14.704 2.707-6.022 4.26-12.878 4.26-18.808 0-0.058-0.011-0.115-0.027-0.168-0.136 5.735-1.65 12.231-4.233 17.976-2.196 4.886-6.142 11.402-12.482 14.704-0.081 0.041-0.17 0.062-0.258 0.062s-0.177-0.021-0.258-0.062c-6.34-3.302-10.287-9.818-12.482-14.704-2.5827-5.745-4.0974-12.241-4.2327-17.976z"/>
 </g>
 <circle cx="36" cy="37" r="11" opacity=".2"/>
 <g transform="matrix(1.375,0,0,1.375,3,4.375)">
  <text x="877.22626" y="-5.1873989" font-size="12.666px" style="font-family:'Bitstream Vera Sans';font-size:12.666px;opacity:.8" xml:space="preserve"><tspan x="877.22626" y="-5.1873989"/></text>
  <text x="901.18719" y="-45.929108" font-size="12.666px" style="font-family:'Bitstream Vera Sans';font-size:12.666px;opacity:.8" xml:space="preserve"><tspan x="901.18719" y="-45.929108"/></text>
  <text x="-569.37115" y="-76.007248" font-size="12.666px" style="font-family:'Bitstream Vera Sans';font-size:12.666px;opacity:.8" xml:space="preserve"><tspan x="-569.37115" y="-76.007248"/></text>
  <text x="-2393.0571" y="669.5462" font-size="12.666px" style="font-family:'Bitstream Vera Sans';font-size:12.666px;opacity:.8" xml:space="preserve"><tspan x="-2393.0571" y="669.5462"/></text>
  <text x="-454.88007" y="-461.32822" font-size="12.666px" style="font-family:'Bitstream Vera Sans';font-size:12.666px;opacity:.8" xml:space="preserve"><tspan x="-454.88007" y="-461.32822"/></text>
  <text x="352.72208" y="-874.79834" font-size="12.666px" style="font-family:'Bitstream Vera Sans';font-size:12.666px;opacity:.8" xml:space="preserve"><tspan x="352.72208" y="-874.79834"/></text>
  <text x="376.68301" y="-915.54004" font-size="12.666px" style="font-family:'Bitstream Vera Sans';font-size:12.666px;opacity:.8" xml:space="preserve"><tspan x="376.68301" y="-915.54004"/></text>
  <text x="-1114.7802" y="-922.74994" font-size="12.666px" style="font-family:'Bitstream Vera Sans';font-size:12.666px;opacity:.8" xml:space="preserve"><tspan x="-1114.7802" y="-922.74994"/></text>
  <text x="345.7626" y="-1195.9841" font-size="12.666px" style="font-family:'Bitstream Vera Sans';font-size:12.666px;opacity:.8" xml:space="preserve"><tspan x="345.7626" y="-1195.9841"/></text>
  <text x="1831.8861" y="-569.29272" font-size="12.666px" style="font-family:'Bitstream Vera Sans';font-size:12.666px;opacity:.8" xml:space="preserve"><tspan x="1831.8861" y="-569.29272"/></text>
  <text x="1855.8469" y="-610.03448" font-size="12.666px" style="font-family:'Bitstream Vera Sans';font-size:12.666px;opacity:.8" xml:space="preserve"><tspan x="1855.8469" y="-610.03448"/></text>
  <text x="364.38376" y="-617.24438" font-size="12.666px" style="font-family:'Bitstream Vera Sans';font-size:12.666px;opacity:.8" xml:space="preserve"><tspan x="364.38376" y="-617.24438"/></text>
  <text x="1824.9266" y="-890.47839" font-size="12.666px" style="font-family:'Bitstream Vera Sans';font-size:12.666px;opacity:.8" xml:space="preserve"><tspan x="1824.9266" y="-890.47839"/></text>
  <text x="-573.43256" y="-665.33569" font-size="12.666px" style="font-family:'Bitstream Vera Sans';font-size:12.666px;opacity:.8" xml:space="preserve"><tspan x="-573.43256" y="-665.33569"/></text>
  <text x="-2397.1182" y="80.217857" font-size="12.666px" style="font-family:'Bitstream Vera Sans';font-size:12.666px;opacity:.8" xml:space="preserve"><tspan x="-2397.1182" y="80.217857"/></text>
  <text x="-682.36279" y="173.09" font-size="12.666px" style="font-family:'Bitstream Vera Sans';font-size:12.666px;opacity:.8" xml:space="preserve"><tspan x="-682.36279" y="173.09"/></text>
  <text x="426.66153" y="-6.0921478" font-size="12.666px" style="font-family:'Bitstream Vera Sans';font-size:12.666px;opacity:.8" xml:space="preserve"><tspan x="426.66153" y="-6.0921478"/></text>
  <text x="450.62247" y="-46.833855" font-size="12.666px" style="font-family:'Bitstream Vera Sans';font-size:12.666px;opacity:.8" xml:space="preserve"><tspan x="450.62247" y="-46.833855"/></text>
  <text x="-1040.8407" y="-54.043827" font-size="12.666px" style="font-family:'Bitstream Vera Sans';font-size:12.666px;opacity:.8" xml:space="preserve"><tspan x="-1040.8407" y="-54.043827"/></text>
  <text x="419.70206" y="-327.27789" font-size="12.666px" style="font-family:'Bitstream Vera Sans';font-size:12.666px;opacity:.8" xml:space="preserve"><tspan x="419.70206" y="-327.27789"/></text>
  <text x="-608.03253" y="-56.758072" font-size="12.666px" style="font-family:'Bitstream Vera Sans';font-size:12.666px;opacity:.8" xml:space="preserve"><tspan x="-608.03253" y="-56.758072"/></text>
  <text x="-2431.7185" y="688.79541" font-size="12.666px" style="font-family:'Bitstream Vera Sans';font-size:12.666px;opacity:.8" xml:space="preserve"><tspan x="-2431.7185" y="688.79541"/></text>
  <text x="-456.93948" y="-918.28857" font-size="12.666px" style="font-family:'Bitstream Vera Sans';font-size:12.666px;opacity:.8" xml:space="preserve"><tspan x="-456.93948" y="-918.28857"/></text>
  <text x="350.66266" y="-1331.7588" font-size="12.666px" style="font-family:'Bitstream Vera Sans';font-size:12.666px;opacity:.8" xml:space="preserve"><tspan x="350.66266" y="-1331.7588"/></text>
  <text x="374.62357" y="-1372.5005" font-size="12.666px" style="font-family:'Bitstream Vera Sans';font-size:12.666px;opacity:.8" xml:space="preserve"><tspan x="374.62357" y="-1372.5005"/></text>
  <text x="-1116.8396" y="-1379.7104" font-size="12.666px" style="font-family:'Bitstream Vera Sans';font-size:12.666px;opacity:.8" xml:space="preserve"><tspan x="-1116.8396" y="-1379.7104"/></text>
  <text x="343.70316" y="-1652.9446" font-size="12.666px" style="font-family:'Bitstream Vera Sans';font-size:12.666px;opacity:.8" xml:space="preserve"><tspan x="343.70316" y="-1652.9446"/></text>
  <text x="1829.8265" y="-1026.2533" font-size="12.666px" style="font-family:'Bitstream Vera Sans';font-size:12.666px;opacity:.8" xml:space="preserve"><tspan x="1829.8265" y="-1026.2533"/></text>
  <text x="1853.7874" y="-1066.9949" font-size="12.666px" style="font-family:'Bitstream Vera Sans';font-size:12.666px;opacity:.8" xml:space="preserve"><tspan x="1853.7874" y="-1066.9949"/></text>
  <text x="362.32431" y="-1074.2048" font-size="12.666px" style="font-family:'Bitstream Vera Sans';font-size:12.666px;opacity:.8" xml:space="preserve"><tspan x="362.32431" y="-1074.2048"/></text>
  <text x="1822.8671" y="-1347.439" font-size="12.666px" style="font-family:'Bitstream Vera Sans';font-size:12.666px;opacity:.8" xml:space="preserve"><tspan x="1822.8671" y="-1347.439"/></text>
  <text x="-575.492" y="-1122.2961" font-size="12.666px" style="font-family:'Bitstream Vera Sans';font-size:12.666px;opacity:.8" xml:space="preserve"><tspan x="-575.492" y="-1122.2961"/></text>
  <text x="-2399.1777" y="-376.74261" font-size="12.666px" style="font-family:'Bitstream Vera Sans';font-size:12.666px;opacity:.8" xml:space="preserve"><tspan x="-2399.1777" y="-376.74261"/></text>
  <text x="-684.42224" y="-283.87045" font-size="12.666px" style="font-family:'Bitstream Vera Sans';font-size:12.666px;opacity:.8" xml:space="preserve"><tspan x="-684.42224" y="-283.87045"/></text>
  <text x="155.5923" y="-42.956276" font-size="12.666px" style="font-family:'Bitstream Vera Sans';font-size:12.666px;opacity:.8" xml:space="preserve"><tspan x="155.5923" y="-42.956276"/></text>
  <text x="179.55324" y="-83.697998" font-size="12.666px" style="font-family:'Bitstream Vera Sans';font-size:12.666px;opacity:.8" xml:space="preserve"><tspan x="179.55324" y="-83.697998"/></text>
  <text x="-1090.2634" y="-277.72662" font-size="12.666px" style="font-family:'Bitstream Vera Sans';font-size:12.666px;opacity:.8" xml:space="preserve"><tspan x="-1090.2634" y="-277.72662"/></text>
  <text x="-282.66141" y="-691.19678" font-size="12.666px" style="font-family:'Bitstream Vera Sans';font-size:12.666px;opacity:.8" xml:space="preserve"><tspan x="-282.66141" y="-691.19678"/></text>
  <text x="-258.70047" y="-731.93848" font-size="12.666px" style="font-family:'Bitstream Vera Sans';font-size:12.666px;opacity:.8" xml:space="preserve"><tspan x="-258.70047" y="-731.93848"/></text>
  <text x="-1750.1636" y="-739.14838" font-size="12.666px" style="font-family:'Bitstream Vera Sans';font-size:12.666px;opacity:.8" xml:space="preserve"><tspan x="-1750.1636" y="-739.14838"/></text>
  <text x="-289.62085" y="-1012.3825" font-size="12.666px" style="font-family:'Bitstream Vera Sans';font-size:12.666px;opacity:.8" xml:space="preserve"><tspan x="-289.62085" y="-1012.3825"/></text>
  <text x="1196.5026" y="-385.69113" font-size="12.666px" style="font-family:'Bitstream Vera Sans';font-size:12.666px;opacity:.8" xml:space="preserve"><tspan x="1196.5026" y="-385.69113"/></text>
  <text x="1220.4634" y="-426.43286" font-size="12.666px" style="font-family:'Bitstream Vera Sans';font-size:12.666px;opacity:.8" xml:space="preserve"><tspan x="1220.4634" y="-426.43286"/></text>
  <text x="-270.99973" y="-433.64282" font-size="12.666px" style="font-family:'Bitstream Vera Sans';font-size:12.666px;opacity:.8" xml:space="preserve"><tspan x="-270.99973" y="-433.64282"/></text>
  <text x="1189.5431" y="-706.87689" font-size="12.666px" style="font-family:'Bitstream Vera Sans';font-size:12.666px;opacity:.8" xml:space="preserve"><tspan x="1189.5431" y="-706.87689"/></text>
  <text x="-1208.816" y="-481.7341" font-size="12.666px" style="font-family:'Bitstream Vera Sans';font-size:12.666px;opacity:.8" xml:space="preserve"><tspan x="-1208.816" y="-481.7341"/></text>
  <text x="-3032.5017" y="263.81946" font-size="12.666px" style="font-family:'Bitstream Vera Sans';font-size:12.666px;opacity:.8" xml:space="preserve"><tspan x="-3032.5017" y="263.81946"/></text>
  <g transform="matrix(.90475 0 0 .90475 -716.75 -692.29)">
   <text x="-664.2738" y="1159.4154" font-size="14px" style="font-family:'Bitstream Vera Sans';font-size:14px;opacity:.8" xml:space="preserve"><tspan x="-664.2738" y="1159.4154"/></text>
  </g>
  <text x="877.22626" y="2.0505886" font-size="12.666px" style="font-family:'Bitstream Vera Sans';font-size:12.666px;opacity:.8" xml:space="preserve"><tspan x="877.22626" y="2.0505886"/></text>
  <text x="901.18719" y="-38.691116" font-size="12.666px" style="font-family:'Bitstream Vera Sans';font-size:12.666px;opacity:.8" xml:space="preserve"><tspan x="901.18719" y="-38.691116"/></text>
  <text x="-569.37115" y="-68.769257" font-size="12.666px" style="font-family:'Bitstream Vera Sans';font-size:12.666px;opacity:.8" xml:space="preserve"><tspan x="-569.37115" y="-68.769257"/></text>
  <text x="-2393.0571" y="676.78418" font-size="12.666px" style="font-family:'Bitstream Vera Sans';font-size:12.666px;opacity:.8" xml:space="preserve"><tspan x="-2393.0571" y="676.78418"/></text>
  <text x="-454.88007" y="-454.09021" font-size="12.666px" style="font-family:'Bitstream Vera Sans';font-size:12.666px;opacity:.8" xml:space="preserve"><tspan x="-454.88007" y="-454.09021"/></text>
  <text x="352.72208" y="-867.5603" font-size="12.666px" style="font-family:'Bitstream Vera Sans';font-size:12.666px;opacity:.8" xml:space="preserve"><tspan x="352.72208" y="-867.5603"/></text>
  <text x="376.68301" y="-908.30206" font-size="12.666px" style="font-family:'Bitstream Vera Sans';font-size:12.666px;opacity:.8" xml:space="preserve"><tspan x="376.68301" y="-908.30206"/></text>
  <text x="-1114.7802" y="-915.51196" font-size="12.666px" style="font-family:'Bitstream Vera Sans';font-size:12.666px;opacity:.8" xml:space="preserve"><tspan x="-1114.7802" y="-915.51196"/></text>
  <text x="345.7626" y="-1188.7461" font-size="12.666px" style="font-family:'Bitstream Vera Sans';font-size:12.666px;opacity:.8" xml:space="preserve"><tspan x="345.7626" y="-1188.7461"/></text>
  <text x="1831.8861" y="-562.05475" font-size="12.666px" style="font-family:'Bitstream Vera Sans';font-size:12.666px;opacity:.8" xml:space="preserve"><tspan x="1831.8861" y="-562.05475"/></text>
  <text x="1855.8469" y="-602.79651" font-size="12.666px" style="font-family:'Bitstream Vera Sans';font-size:12.666px;opacity:.8" xml:space="preserve"><tspan x="1855.8469" y="-602.79651"/></text>
  <text x="364.38376" y="-610.00641" font-size="12.666px" style="font-family:'Bitstream Vera Sans';font-size:12.666px;opacity:.8" xml:space="preserve"><tspan x="364.38376" y="-610.00641"/></text>
  <text x="1824.9266" y="-883.24036" font-size="12.666px" style="font-family:'Bitstream Vera Sans';font-size:12.666px;opacity:.8" xml:space="preserve"><tspan x="1824.9266" y="-883.24036"/></text>
  <text x="-573.43256" y="-658.09772" font-size="12.666px" style="font-family:'Bitstream Vera Sans';font-size:12.666px;opacity:.8" xml:space="preserve"><tspan x="-573.43256" y="-658.09772"/></text>
  <text x="-2397.1182" y="87.455849" font-size="12.666px" style="font-family:'Bitstream Vera Sans';font-size:12.666px;opacity:.8" xml:space="preserve"><tspan x="-2397.1182" y="87.455849"/></text>
  <text x="-682.36279" y="180.32799" font-size="12.666px" style="font-family:'Bitstream Vera Sans';font-size:12.666px;opacity:.8" xml:space="preserve"><tspan x="-682.36279" y="180.32799"/></text>
  <text x="426.66153" y="1.1458397" font-size="12.666px" style="font-family:'Bitstream Vera Sans';font-size:12.666px;opacity:.8" xml:space="preserve"><tspan x="426.66153" y="1.1458397"/></text>
  <text x="450.62247" y="-39.595863" font-size="12.666px" style="font-family:'Bitstream Vera Sans';font-size:12.666px;opacity:.8" xml:space="preserve"><tspan x="450.62247" y="-39.595863"/></text>
  <text x="-1040.8407" y="-46.805836" font-size="12.666px" style="font-family:'Bitstream Vera Sans';font-size:12.666px;opacity:.8" xml:space="preserve"><tspan x="-1040.8407" y="-46.805836"/></text>
  <text x="419.70206" y="-320.03989" font-size="12.666px" style="font-family:'Bitstream Vera Sans';font-size:12.666px;opacity:.8" xml:space="preserve"><tspan x="419.70206" y="-320.03989"/></text>
  <text x="-608.03253" y="-49.520081" font-size="12.666px" style="font-family:'Bitstream Vera Sans';font-size:12.666px;opacity:.8" xml:space="preserve"><tspan x="-608.03253" y="-49.520081"/></text>
  <text x="-2431.7185" y="696.03345" font-size="12.666px" style="font-family:'Bitstream Vera Sans';font-size:12.666px;opacity:.8" xml:space="preserve"><tspan x="-2431.7185" y="696.03345"/></text>
  <text x="-456.93948" y="-911.0506" font-size="12.666px" style="font-family:'Bitstream Vera Sans';font-size:12.666px;opacity:.8" xml:space="preserve"><tspan x="-456.93948" y="-911.0506"/></text>
  <text x="350.66266" y="-1324.5208" font-size="12.666px" style="font-family:'Bitstream Vera Sans';font-size:12.666px;opacity:.8" xml:space="preserve"><tspan x="350.66266" y="-1324.5208"/></text>
  <text x="374.62357" y="-1365.2626" font-size="12.666px" style="font-family:'Bitstream Vera Sans';font-size:12.666px;opacity:.8" xml:space="preserve"><tspan x="374.62357" y="-1365.2626"/></text>
  <text x="-1116.8396" y="-1372.4724" font-size="12.666px" style="font-family:'Bitstream Vera Sans';font-size:12.666px;opacity:.8" xml:space="preserve"><tspan x="-1116.8396" y="-1372.4724"/></text>
  <text x="343.70316" y="-1645.7065" font-size="12.666px" style="font-family:'Bitstream Vera Sans';font-size:12.666px;opacity:.8" xml:space="preserve"><tspan x="343.70316" y="-1645.7065"/></text>
  <text x="1829.8265" y="-1019.0153" font-size="12.666px" style="font-family:'Bitstream Vera Sans';font-size:12.666px;opacity:.8" xml:space="preserve"><tspan x="1829.8265" y="-1019.0153"/></text>
  <text x="1853.7874" y="-1059.757" font-size="12.666px" style="font-family:'Bitstream Vera Sans';font-size:12.666px;opacity:.8" xml:space="preserve"><tspan x="1853.7874" y="-1059.757"/></text>
  <text x="362.32431" y="-1066.9668" font-size="12.666px" style="font-family:'Bitstream Vera Sans';font-size:12.666px;opacity:.8" xml:space="preserve"><tspan x="362.32431" y="-1066.9668"/></text>
  <text x="1822.8671" y="-1340.2009" font-size="12.666px" style="font-family:'Bitstream Vera Sans';font-size:12.666px;opacity:.8" xml:space="preserve"><tspan x="1822.8671" y="-1340.2009"/></text>
  <text x="-575.492" y="-1115.0581" font-size="12.666px" style="font-family:'Bitstream Vera Sans';font-size:12.666px;opacity:.8" xml:space="preserve"><tspan x="-575.492" y="-1115.0581"/></text>
  <text x="-2399.1777" y="-369.50461" font-size="12.666px" style="font-family:'Bitstream Vera Sans';font-size:12.666px;opacity:.8" xml:space="preserve"><tspan x="-2399.1777" y="-369.50461"/></text>
  <text x="-684.42224" y="-276.63245" font-size="12.666px" style="font-family:'Bitstream Vera Sans';font-size:12.666px;opacity:.8" xml:space="preserve"><tspan x="-684.42224" y="-276.63245"/></text>
  <text x="155.5923" y="-35.718292" font-size="12.666px" style="font-family:'Bitstream Vera Sans';font-size:12.666px;opacity:.8" xml:space="preserve"><tspan x="155.5923" y="-35.718292"/></text>
  <text x="179.55324" y="-76.460007" font-size="12.666px" style="font-family:'Bitstream Vera Sans';font-size:12.666px;opacity:.8" xml:space="preserve"><tspan x="179.55324" y="-76.460007"/></text>
  <text x="-1090.2634" y="-270.48859" font-size="12.666px" style="font-family:'Bitstream Vera Sans';font-size:12.666px;opacity:.8" xml:space="preserve"><tspan x="-1090.2634" y="-270.48859"/></text>
  <text x="-282.66141" y="-683.9588" font-size="12.666px" style="font-family:'Bitstream Vera Sans';font-size:12.666px;opacity:.8" xml:space="preserve"><tspan x="-282.66141" y="-683.9588"/></text>
  <text x="-258.70047" y="-724.7005" font-size="12.666px" style="font-family:'Bitstream Vera Sans';font-size:12.666px;opacity:.8" xml:space="preserve"><tspan x="-258.70047" y="-724.7005"/></text>
  <text x="-1750.1636" y="-731.91046" font-size="12.666px" style="font-family:'Bitstream Vera Sans';font-size:12.666px;opacity:.8" xml:space="preserve"><tspan x="-1750.1636" y="-731.91046"/></text>
  <text x="-289.62085" y="-1005.1445" font-size="12.666px" style="font-family:'Bitstream Vera Sans';font-size:12.666px;opacity:.8" xml:space="preserve"><tspan x="-289.62085" y="-1005.1445"/></text>
  <text x="1196.5026" y="-378.45316" font-size="12.666px" style="font-family:'Bitstream Vera Sans';font-size:12.666px;opacity:.8" xml:space="preserve"><tspan x="1196.5026" y="-378.45316"/></text>
  <text x="1220.4634" y="-419.19489" font-size="12.666px" style="font-family:'Bitstream Vera Sans';font-size:12.666px;opacity:.8" xml:space="preserve"><tspan x="1220.4634" y="-419.19489"/></text>
  <text x="-270.99973" y="-426.40482" font-size="12.666px" style="font-family:'Bitstream Vera Sans';font-size:12.666px;opacity:.8" xml:space="preserve"><tspan x="-270.99973" y="-426.40482"/></text>
  <text x="1189.5431" y="-699.63892" font-size="12.666px" style="font-family:'Bitstream Vera Sans';font-size:12.666px;opacity:.8" xml:space="preserve"><tspan x="1189.5431" y="-699.63892"/></text>
  <text x="-1208.816" y="-474.49609" font-size="12.666px" style="font-family:'Bitstream Vera Sans';font-size:12.666px;opacity:.8" xml:space="preserve"><tspan x="-1208.816" y="-474.49609"/></text>
  <text x="-3032.5017" y="271.05743" font-size="12.666px" style="font-family:'Bitstream Vera Sans';font-size:12.666px;opacity:.8" xml:space="preserve"><tspan x="-3032.5017" y="271.05743"/></text>
  <g transform="matrix(.90475 0 0 .90475 -716.75 -685.05)">
   <text x="-664.2738" y="1159.4154" font-size="14px" style="font-family:'Bitstream Vera Sans';font-size:14px;opacity:.8" xml:space="preserve"><tspan x="-664.2738" y="1159.4154"/></text>
  </g>
  <text x="435.90427" y="-377.22546" font-size="12.666px" style="font-family:'Droid Sans';font-size:12.666px" xml:space="preserve"><tspan x="435.90427" y="-377.22546"/><tspan x="435.90427" y="-361.3924"/></text>
  <text x="901.0882" y="-859.27002" font-size="12.666px" style="font-family:'Bitstream Vera Sans';font-size:12.666px;opacity:.8" xml:space="preserve"><tspan x="901.0882" y="-859.27002"/></text>
  <text x="-922.59778" y="-113.71655" font-size="12.666px" style="font-family:'Bitstream Vera Sans';font-size:12.666px;opacity:.8" xml:space="preserve"><tspan x="-922.59778" y="-113.71655"/></text>
  <text x="1628.1677" y="-1144.2659" font-size="12.666px" style="font-family:'Bitstream Vera Sans';font-size:12.666px;opacity:.8" xml:space="preserve"><tspan x="1628.1677" y="-1144.2659"/></text>
  <text x="1652.1285" y="-1185.0076" font-size="12.666px" style="font-family:'Bitstream Vera Sans';font-size:12.666px;opacity:.8" xml:space="preserve"><tspan x="1652.1285" y="-1185.0076"/></text>
  <text x="160.66542" y="-1192.2175" font-size="12.666px" style="font-family:'Bitstream Vera Sans';font-size:12.666px;opacity:.8" xml:space="preserve"><tspan x="160.66542" y="-1192.2175"/></text>
  <text x="1621.2083" y="-1465.4517" font-size="12.666px" style="font-family:'Bitstream Vera Sans';font-size:12.666px;opacity:.8" xml:space="preserve"><tspan x="1621.2083" y="-1465.4517"/></text>
  <circle cx="24" cy="23" r="8" style="fill:#6ecd42"/>
  <path d="m23.061913 18.199998v3.927459h-3.86191v1.745083h3.86191v3.927458h1.876178v-3.927458h3.861912v-1.745083h-3.861912v-3.927459z" style="fill:#ffffff"/>
 </g>
</svg>
