<svg width="48" height="48" version="1" xmlns="http://www.w3.org/2000/svg">
 <path d="m4 11v29c0 1.1088 0.89125 2 2 2h36.001c1.108 0 1.999-0.891 1.999-2v-29z" style="fill:#c7c7c7"/>
 <rect x="8" y="31" width="32" height="4" rx="1.523" ry="1.658" style="opacity:.2"/>
 <path d="m6 6c-1.1088 0-2 0.8915-2 1.9995v3.0005h40v-3.0005c0-1.108-0.891-1.9995-2-1.9995h-36z" fill="#5a6367"/>
 <path d="m6 6c-1.1088 0-2 0.892-2 2v1c0-1.108 0.8912-2 2-2h36c1.1088 0 2 0.892 2 2v-1c0-1.108-0.891-2-2-2h-36z" fill="#fff" opacity=".1"/>
 <path d="m4 40v1c0 1.1088 0.89125 2 2 2h36.002c1.107 0 1.998-0.891 1.998-2v-1c0 1.1088-0.89055 2-1.998 2h-36.002c-1.1088 0-2-0.891-2-2z" style="opacity:.2"/>
 <rect x="8" y="30" width="32" height="4" rx="1.523" ry="1.658" style="fill:#ffffff"/>
 <path d="m36 33c0 3.311997-2.688003 6-6 6-3.312 0-6-2.688003-6-6 0-3.312 2.688-6 6-6 3.311997 0 6 2.688 6 6z" style="fill-rule:evenodd;opacity:.1"/>
 <path d="m36 32c0 3.311997-2.688003 6-6 6-3.312 0-6-2.688003-6-6 0-3.312 2.688-6 6-6 3.311997 0 6 2.688 6 6z" style="fill-rule:evenodd;fill:#5294e2"/>
 <circle cx="10" cy="17" r="2" style="opacity:.2"/>
 <circle cx="10" cy="16" r="2" style="fill:#fffff7"/>
 <rect x="16" y="22" width="4" height="4" rx=".629" ry=".687" style="opacity:.1"/>
 <rect x="16" y="21" width="4" height="4" rx=".629" ry=".687" style="fill:#5294e2"/>
 <circle cx="10" cy="24" r="2" style="opacity:.1"/>
 <circle cx="10" cy="23" r="2" style="fill:#5294e2"/>
 <rect x="16" y="15" width="4" height="4" rx=".629" ry=".687" style="opacity:.2"/>
 <rect x="16" y="14" width="4" height="4" rx=".629" ry=".687" style="fill:#ffffff"/>
</svg>
