<svg width="48" height="48" version="1.1" viewBox="0 0 48 48" xmlns="http://www.w3.org/2000/svg">
 <rect transform="matrix(0,-1,-1,0,0,0)" x="-44" y="-44" width="40" height="40" rx="2" ry="2" style="fill:#345784"/>
 <path d="m6 3.9999996c-1.108 0-2 0.892-2 2v1c0-1.108 0.892-2 2-2h36c1.108 0 2 0.892 2 2v-1c0-1.108-0.892-2-2-2z" style="fill:#ffffff;opacity:.1"/>
 <path d="m6 45c-1.108 0-2-0.892-2-2v-1c0 1.108 0.892 2 2 2h36c1.108 0 2-0.892 2-2v1c0 1.108-0.892 2-2 2z" style="opacity:.2"/>
 <path d="m24.537109 13.001953c-0.104254 0.0034-0.212009 0.01383-0.328125 0.0293-1.305949 0.173944-1.664412 0.489917-2.46289 2.166016-0.53857 1.130514-0.808002 1.409389-1.501953 1.558593-3.244141-2.363311-3.244141 1.244138-3.882813 2.244138-0.875445-0.768111-2.012376-2.005808-3.136635-2.934357-1.005155-0.830179-2.000181-1.333157-2.789146-0.809198-0.6252011 0.438395-1.1563885 1.378996-1.3496095 3.537109-0.26397 2.948306 0.00276 4.044064 1.8750005 6.485746 2.11712 2.761033 5.271415 5.523061 10.265624 8.990234 2.163199 1.501775 3.976007 2.730466 4.029297 2.730466 0.299544 0-2.895199-4.14993-4.830078-6.273438-2.891692-3.173595-3.425291-4.160707-3.487781-5.585937-0.056433-1.287653 0.494827-2.140625 1.233875-2.140625 0.268547 0 1.483985 0.770837 2.824219 2.291016 1.116891 1.20689 2.137445 2.480352 3.029297 3.722656 1.88862 2.358225 4.078834 2.658997 4.892578 0.671875 0.788278-1.933566-0.01236-5.329155-1.814453-7.695313-0.202741-0.865347 0.180503-0.997003 1.066406-0.996093 1.120556 0.0011 3.248662 1.185501 4.527344 2.292968 1.580163 1.36858 1.846442 1.644098 3.605468 5.132813 1.038335 2.059352 2.068199 3.980042 2.289063 4.267578 0.393337 0.512095 0.401603 0.509262 0.408203-0.130859-0.331923-5.330315-2.181943-10.685425-6.181641-14.326172-0.676571-0.591395-2.661869-2.033982-4.412109-3.205078-2.550055-1.706264-3.139361-2.047533-3.869141-2.023438z" style="opacity:.2"/>
 <path d="m24.537109 12.001953c-0.104254 0.0034-0.212009 0.01383-0.328125 0.0293-1.305949 0.173944-1.664412 0.489917-2.46289 2.166016-0.53857 1.130514-0.808002 1.409389-1.501953 1.558593-3.244141-2.363311-3.244141 1.244138-3.882813 2.244138-0.875445-0.768111-2.012376-2.005808-3.136635-2.934357-1.005155-0.830179-2.000181-1.333157-2.789146-0.809198-0.6252011 0.438395-1.1563885 1.378996-1.3496095 3.537109-0.26397 2.948306 0.00276 4.044064 1.8750005 6.485746 2.11712 2.761033 5.271415 5.523061 10.265624 8.990234 2.163199 1.501775 3.976007 2.730466 4.029297 2.730466 0.299544 0-2.895199-4.14993-4.830078-6.273438-2.891692-3.173595-3.425291-4.160707-3.487781-5.585937-0.056433-1.287653 0.494827-2.140625 1.233875-2.140625 0.268547 0 1.483985 0.770837 2.824219 2.291016 1.116891 1.20689 2.137445 2.480352 3.029297 3.722656 1.88862 2.358225 4.078834 2.658997 4.892578 0.671875 0.788278-1.933566-0.01236-5.329155-1.814453-7.695313-0.202741-0.865347 0.180503-0.997003 1.066406-0.996093 1.120556 0.0011 3.248662 1.185501 4.527344 2.292968 1.580163 1.36858 1.846442 1.644098 3.605468 5.132813 1.038335 2.059352 2.068199 3.980042 2.289063 4.267578 0.393337 0.512095 0.401603 0.509262 0.408203-0.130859-0.331923-5.330315-2.181943-10.685425-6.181641-14.326172-0.676571-0.591395-2.661869-2.033982-4.412109-3.205078-2.550055-1.706264-3.139361-2.047533-3.869141-2.023438z" style="fill:#8d8069"/>
 <ellipse transform="matrix(.37859229 -.92556355 .62510083 .78054401 0 0)" cx="4.624" cy="38.793" rx="2.089" ry="2.939" style="opacity:.2"/>
 <ellipse transform="matrix(.37859229 -.92556355 .62510083 .78054401 0 0)" cx="5.339" cy="38.36" rx="2.089" ry="2.939" style="fill:#ffffff"/>
 <path d="m24.537109 12.001953c-0.104254 0.0034-0.212009 0.013827-0.328125 0.029297-1.305949 0.173944-1.664412 0.489917-2.46289 2.166016-0.53857 1.130514-0.808002 1.409389-1.501953 1.558593-3.244141-2.363311-3.244141 1.244141-3.882813 2.244141-0.875445-0.768111-2.01246-2.005045-3.136719-2.933594-1.005155-0.830179-2.000097-1.334506-2.789062-0.810547-0.6252012 0.438395-1.1563885 1.378997-1.3496095 3.53711-0.0706379 0.788961-0.0982292 1.440456-0.0722656 2.02539 0.0143126-0.316893 0.0392693-0.656852 0.0722656-1.02539 0.193221-2.158113 0.7244083-3.098715 1.3496095-3.53711 0.788965-0.523959 1.783907-0.019632 2.789062 0.810547 1.124259 0.928549 2.261274 2.165483 3.136719 2.933594 0.638672-1 0.638672-4.607452 3.882813-2.244141 0.693951-0.149204 0.963383-0.428079 1.501953-1.558593 0.798478-1.676099 1.156941-1.992072 2.46289-2.166016 0.116116-0.01547 0.223871-0.025897 0.328125-0.029297 0.72978-0.024095 1.319086 0.317174 3.869141 2.023438 1.75024 1.171096 3.735538 2.613683 4.412109 3.205078 3.869101 3.521869 5.713223 8.648645 6.13086 13.804687 0.04187-0.035207 0.047724-0.182023 0.050781-0.478515-0.331923-5.330315-2.181943-10.685425-6.181641-14.326172-0.676571-0.591395-2.661869-2.033982-4.412109-3.205078-2.550055-1.706264-3.139361-2.047533-3.869141-2.023438zm2.6875 9.169922c-0.177497 0.14158-0.221631 0.389242-0.121093 0.818359 1.209812 1.588491 1.952664 3.633911 2.082031 5.396485 0.1464-1.879768-0.594189-4.33226-1.960938-6.214844zm-10.253906 3.326172c-0.026625 0.200768-0.043337 0.411355-0.033203 0.642578 0.06249 1.42523 0.596589 2.412342 3.488281 5.585937 1.125653 1.235392 2.609982 3.085606 3.652344 4.476563 0.28079 0.185915 1.162166 0.796875 1.177734 0.796875 0.299544 0-2.895199-4.14993-4.830078-6.273438-2.643042-2.900705-3.311156-3.976966-3.455078-5.228515z" style="fill:#ffffff;opacity:.1"/>
</svg>
