<svg width="48" height="48" version="1" xmlns="http://www.w3.org/2000/svg">
 <path d="m16 8c-1.704135 0.0027-3.326745 0.72986-4.462891 2h-1.537109c-3.3135713 3.31e-4 -5.9996687 2.686429-6 6v13c3.313e-4 3.313571 2.6864287 5.999669 6 6h0.810547c1.07069 1.854245 3.048286 2.997485 5.189453 3h0.351562c0.846685 2.394256 3.108887 3.996258 5.648438 4h4c2.540268-0.0029 4.803467-1.60507 5.650391-4h0.349609c2.140468-0.0032 4.11716-1.146358 5.1875-3h0.8125c3.313571-3.31e-4 5.999669-2.686429 6-6v-13c-3.31e-4 -3.313571-2.686429-5.999669-6-6h-1.537109c-1.136146-1.27014-2.758756-1.9972964-4.462891-2h-4c-1.477073 0.0026-2.901294 0.5498937-4 1.5371094-1.098706-0.9872157-2.522927-1.5345117-4-1.5371094z" style="opacity:.2"/>
 <path d="m16 7c-1.704135 0.0027-3.326745 0.72986-4.462891 2h-1.537109c-3.3135713 3.313e-4 -5.9996687 2.686429-6 6v13c3.313e-4 3.313571 2.6864287 5.999669 6 6h0.810547c1.07069 1.854245 3.048286 2.997485 5.189453 3h0.351562c0.846685 2.394256 3.108887 3.996258 5.648438 4h4c2.540268-0.0029 4.803467-1.60507 5.650391-4h0.349609c2.140468-0.0032 4.11716-1.146358 5.1875-3h0.8125c3.313571-3.31e-4 5.999669-2.686429 6-6v-13c-3.31e-4 -3.313571-2.686429-5.9996687-6-6h-1.537109c-1.136146-1.27014-2.758756-1.9972964-4.462891-2h-4c-1.477073 0.0026-2.901294 0.5498937-4 1.5371094-1.098706-0.9872157-2.522927-1.5345117-4-1.5371094z" style="fill:#f85b79"/>
 <g transform="translate(3,-1)" style="opacity:.2">
  <path d="m7 17v3h4v-3h-4z"/>
  <path d="m7 22v3h4v-3h-4z"/>
  <path d="m7 27v3h4v-3h-4z"/>
  <path d="m13 15v3h4v-3h-4z"/>
  <path d="m13 20v3h4v-3h-4z"/>
  <path d="m13 25v3h4v-3h-4z"/>
  <path d="m13 30v3h4v-3h-4z"/>
  <path d="m19 19v3h4v-3h-4z"/>
  <path d="m19 24v3h4v-3h-4z"/>
  <path d="m19 29v3h4v-3h-4z"/>
  <path d="m19 34v3h4v-3h-4z"/>
  <path d="m35 17v3h-4v-3h4z"/>
  <path d="m35 22v3h-4v-3h4z"/>
  <path d="m35 27v3h-4v-3h4z"/>
  <path d="m29 15v3h-4v-3h4z"/>
  <path d="m29 20v3h-4v-3h4z"/>
  <path d="m29 25v3h-4v-3h4z"/>
  <path d="m29 30v3h-4v-3h4z"/>
 </g>
 <path d="m16 13v3h4v-3h-4zm12 0v3h4v-3h-4zm-18 2v3h4v-3h-4zm24 0v3h4v-3h-4zm-12 2v3h4v-3h-4zm-6 1v3h4v-3h-4zm12 0v3h4v-3h-4zm-18 2v3h4v-3h-4zm24 0v3h4v-3h-4zm-12 2v3h4v-3h-4zm-6 1v3h4v-3h-4zm12 0v3h4v-3h-4zm-18 2v3h4v-3h-4zm24 0v3h4v-3h-4zm-12 2v3h4v-3h-4zm-6 1v3h4v-3h-4zm12 0v3h4v-3h-4zm-6 4v3h4v-3h-4z" style="fill:#ffffff"/>
 <path d="m16 7c-1.704135 0.0027-3.326745 0.72986-4.462891 2h-1.537109c-3.3135713 3.313e-4 -5.9996687 2.686429-6 6v1c3.313e-4 -3.313571 2.6864287-5.999669 6-6h1.537109c1.136146-1.27014 2.758756-1.9973 4.462891-2h4c1.477073 0.0025977 2.901294 0.5498937 4 1.5371094 1.098706-0.9872157 2.522927-1.5345094 4-1.5371094h4c1.704135 0.0027036 3.326745 0.72986 4.462891 2h1.537109c3.313571 3.31e-4 5.999669 2.686429 6 6v-1c-3.31e-4 -3.313571-2.686429-5.9996687-6-6h-1.537109c-1.136146-1.27014-2.758756-1.9972964-4.462891-2h-4c-1.477073 0.0026-2.901294 0.5498937-4 1.5371094-1.098706-0.9872157-2.522927-1.5345117-4-1.5371094h-4z" style="fill:#ffffff;opacity:.29"/>
</svg>
