<svg width="48" height="48" version="1" xmlns="http://www.w3.org/2000/svg">
 <path d="m4.0117 24.5c-0.0041 0.167-0.0117 0.332-0.0117 0.5 0 11.08 8.92 20 20 20s20-8.92 20-20c0-0.16787-0.0076-0.33314-0.01172-0.5-0.264 10.846-9.076 19.5-19.988 19.5s-19.724-8.654-19.988-19.5z" opacity=".2"/>
 <circle cx="24" cy="24" r="20" style="fill:#cccccc"/>
 <path d="m21.464844 5.1640625c-0.605663 0.076004-1.199859 0.1839634-1.78711 0.3125-0.855816 5.9076845 0.145074 12.243376 3.337891 17.808594-1.64 2.613463-3.608297 5.062518-5.904297 6.859375-4.747359-6.147027-6.432858-13.813133-5.367187-20.947265-0.672171 0.5212238-1.320403 1.0704474-1.9199222 1.6718754-0.5916322 7.089044 1.3900302 14.284548 5.8125002 20.419921-2.49357 1.753184-5.254748 3.099852-8.1562502 3.951172a20 20 0 0 0 1.0507812 1.416016c6.44856-2.102155 12.235637-6.370583 15.960938-12.554688 3.116042 2e-6 6.231488 0.652732 9.019531 1.632813-3.515165 8.220216-10.453107 14.010252-18.548828 16.083984a20 20 0 0 0 2.548828 1.078125c7.653354-2.673118 14.159996-8.535738 17.476562-16.34375 2.811611 1.326568 5.337851 3.065364 7.494141 5.070313a20 20 0 0 0 0.677734 -1.916016c-4.997259-4.378377-11.453323-7.082027-18.667968-7.238281-1.640002-2.776853-2.623192-5.717961-3.115235-8.658203 1.086495-0.12251 2.164825-0.182995 3.232422-0.185547 7.178551-0.01716 13.843931 2.625502 18.9375 7.140625-0.213948-0.999371-0.514702-1.963345-0.871094-2.900391-5.97149-4.548001-13.561978-6.789274-21.46289-5.6875-0.152956-2.2857526-0.146796-4.7087981 0.251953-7.0136715z" style="opacity:.2"/>
 <path d="m21.464844 4.1640625c-0.605663 0.0760041-1.199859 0.1839634-1.78711 0.3125-0.855816 5.9076845 0.145074 12.243376 3.337891 17.808594-1.64 2.613463-3.608297 5.062518-5.904297 6.859375-4.747359-6.147027-6.432858-13.813133-5.367187-20.947265-0.672171 0.5212238-1.320403 1.0704474-1.9199222 1.671875-0.5916322 7.0890444 1.3900302 14.284547 5.8125002 20.419921-2.652646 1.865027-5.605505 3.278276-8.7109378 4.115235 0.3050118 0.500925 0.6299678 0.986565 0.9765626 1.457031 6.7013582-2.02428 12.74338-6.374527 16.589844-12.759766 3.116042 2e-6 6.231488 0.652732 9.019531 1.632813-3.700341 8.653252-11.191755 14.622578-19.835938 16.388672 0.764321 0.460474 1.553684 0.883591 2.38086 1.240234 8.278411-2.409858 15.406809-8.512229 18.93164-16.810547 2.932569 1.383638 5.566582 3.206679 7.78125 5.322266 0.235589-0.646341 0.438343-1.306448 0.607422-1.982422-5.026167-4.489515-11.566925-7.265339-18.884765-7.423828-1.640001-2.776853-2.623192-5.717961-3.115235-8.658203 1.086495-0.12251 2.164825-0.182995 3.232422-0.185547 7.178551-0.017161 13.843931 2.625502 18.9375 7.140625-0.213948-0.999371-0.514702-1.963345-0.871094-2.900391-5.97149-4.548001-13.561978-6.789274-21.46289-5.6875-0.152956-2.285753-0.146796-4.7087981 0.251953-7.0136715z" style="fill:#4f4f4f"/>
 <path d="m24 4c-11.08 0-20 8.92-20 20 0 0.168 8e-3 0.333 0.0117 0.5 0.2647-10.846 9.0763-19.5 19.988-19.5s19.724 8.6539 19.988 19.5c4e-3 -0.16686 0.0117-0.33213 0.0117-0.5 0-11.08-8.92-20-20-20z" fill="#fff" opacity=".2"/>
</svg>
