<svg width="48" height="48" version="1" xmlns="http://www.w3.org/2000/svg">
 <rect x="4" y="5" width="40" height="40" rx="2" ry="2" style="opacity:.2"/>
 <rect x="4" y="4" width="40" height="40" rx="2" ry="2" style="fill:#e65100"/>
 <rect x="8" y="9" width="32" height="32" rx="2" ry="2" style="opacity:.2"/>
 <rect x="8" y="8" width="32" height="32" rx="2" ry="2" style="fill:#ffffff"/>
 <path d="m11 11v26h10v-5h-5v-16h5v-5h-10zm16 0v5h5v16h-5v5h10v-26h-10z" style="fill:#424242"/>
 <path d="m6 4c-1.108 0-2 0.892-2 2v1c0-1.108 0.892-2 2-2h36c1.108 0 2 0.892 2 2v-1c0-1.108-0.892-2-2-2h-36z" style="fill:#ffffff;opacity:.2"/>
</svg>
