<svg width="48" height="48" version="1.1" viewBox="0 0 48 48" xmlns="http://www.w3.org/2000/svg">
 <path d="m24 6-1.904762 2-2.095238-1-1.416667 2.3155c-4.387047 0.9028-7.486876 3.023-10.0558 6.3746-4.4932666 5.8622-4.5275333 15.9766-4.5275333 21.6909 0 5.7142 10.47619 7.619 20 7.619s20-1.9048 20-7.619c0-5.7143-0.03429-15.8287-4.527533-21.6909-2.568924-3.3516-5.668753-5.4718-10.0558-6.3746l-1.416667-2.3155-2.095238 1z" style="opacity:.2"/>
 <path d="M 24,5 22.095238,7 20,6 18.583333,8.3155 C 14.196286,9.2183 11.096457,11.3385 8.5275333,14.6901 4.0342667,20.5523 4,30.6667 4,36.381 4,42.0952 14.47619,44 24,44 33.52381,44 44,42.0952 44,36.381 44,30.6667 43.96571,20.5523 39.472467,14.6901 36.903543,11.3385 33.803714,9.2183 29.416667,8.3155 L 28,6 25.904762,7 Z" style="fill:#81b427"/>
 <path d="m19.27783 35.2691c0.97425 1.6875 2.77368 2.7281 4.72217 2.7309 1.94849 0 3.74792-1.0434 4.72217-2.7309h-4.72217z" style="fill:#86572f"/>
 <path d="m24.000001 29c-0.229754 2e-4 -0.451542 0.093-0.614225 0.2594l-5.103651 4.6352c-0.546124 0.5601-0.258903 2.2162 0.513715 2.2165l5.204161 0.8889 5.204161-0.8889c0.772608-3e-4 1.059839-1.6564 0.513715-2.2165l-5.103651-4.6352c-0.162683-0.1668-0.384471-0.2592-0.614225-0.2594z" style="opacity:.2"/>
 <path d="m24.000001 28c-0.229754 2e-4 -0.451542 0.093-0.614225 0.2594l-5.103651 4.6352c-0.546124 0.5601-0.258903 2.2162 0.513715 2.2165l5.204161 0.8889 5.204161-0.8889c0.772608-3e-4 1.059839-1.6564 0.513715-2.2165l-5.103651-4.6352c-0.162683-0.1668-0.384471-0.2592-0.614225-0.2594z" style="fill:#ffc12e"/>
 <path d="m24 28c-0.229754 2e-4 -0.450598 0.09337-0.613281 0.259766l-5.105469 4.634765c-0.290892 0.298336-0.338374 0.903817-0.208984 1.408203 0.04625-0.159468 0.108829-0.305485 0.208984-0.408203l5.105469-4.634765c0.162683-0.1664 0.383527-0.259566 0.613281-0.259766 0.229754 2e-4 0.450598 0.09297 0.613281 0.259766l5.105469 4.634765c0.100155 0.102718 0.162739 0.248735 0.208984 0.408203 0.129391-0.504386 0.08191-1.109867-0.208984-1.408203l-5.105469-4.634765c-0.162683-0.1668-0.383527-0.259566-0.613281-0.259766z" style="fill:#ffffff;opacity:.2"/>
 <path d="M 24,5 22.095703,7 20,6 18.583984,8.3164062 C 14.196937,9.2192062 11.096267,11.337853 8.5273438,14.689453 4.0340771,20.551653 4,30.666559 4,36.380859 c 0,0.02257 0.00358,0.04396 0.00391,0.06641 C 4.017694,30.621165 4.2589324,21.258301 8.5273476,15.689456 11.096271,12.337856 14.196941,10.219209 18.583988,9.3164092 L 20,7 22.095703,8 24,6 25.904297,8 28,7 29.416016,9.3164062 c 4.387047,0.9027998 7.487716,3.0214468 10.05664,6.3730468 4.268393,5.568845 4.509652,14.931709 4.523438,20.757813 3.26e-4,-0.02245 0.0039,-0.04384 0.0039,-0.06641 0,-5.7143 -0.0341,-15.829206 -4.527344,-21.691406 C 36.903726,11.33785 33.803057,9.2192032 29.41601,8.3164032 L 28,6 25.904297,7 24,5 Z" style="fill:#ffffff;opacity:.2"/>
 <circle cx="34" cy="25" r="4" style="opacity:.2"/>
 <circle cx="34" cy="24" r="4" style="fill:#ffffff"/>
 <path d="m 14,23.998047 a 4,4 0 0 0 -4,4 A 4,4 0 0 0 10.130859,29 4,4 0 0 1 14,25.998047 4,4 0 0 1 17.869141,28.996094 4,4 0 0 0 18,27.998047 a 4,4 0 0 0 -4,-4 z" style="opacity:.2"/>
 <path d="m 14,22.998047 a 4,4 0 0 0 -4,4 A 4,4 0 0 0 10.130859,28 4,4 0 0 1 14,24.998047 4,4 0 0 1 17.869141,27.996094 4,4 0 0 0 18,26.998047 a 4,4 0 0 0 -4,-4 z" style="fill:#ffffff"/>
 <circle cx="34" cy="24" r="3" style="fill:#3f3f3f"/>
</svg>
