<svg width="48" height="48" version="1" xmlns="http://www.w3.org/2000/svg">
 <rect transform="scale(1,-1)" x="4" y="-45" width="40" height="40" rx="2" ry="2" style="opacity:.2"/>
 <rect transform="scale(1,-1)" x="4" y="-44" width="40" height="40" rx="2" ry="2" style="fill:#fecd38"/>
 <path d="m6 7v4h4v-4h-4zm8 0v4h4v-4h-4zm8 0v4h4v-4h-4zm8 0v4h4v-4h-4zm8 0v4h4v-4h-4zm-30 8v20h14v-20h-14zm18 0v20h14v-20h-14zm-20 24v4h4v-4h-4zm8 0v4h4v-4h-4zm8 0v4h4v-4h-4zm8 0v4h4v-4h-4zm8 0v4h4v-4h-4z" style="opacity:.2"/>
 <path d="m6 6v4h4v-4h-4zm8 0v4h4v-4h-4zm8 0v4h4v-4h-4zm8 0v4h4v-4h-4zm8 0v4h4v-4h-4zm-30 8v20h14v-20h-14zm18 0v20h14v-20h-14zm-20 24v4h4v-4h-4zm8 0v4h4v-4h-4zm8 0v4h4v-4h-4zm8 0v4h4v-4h-4zm8 0v4h4v-4h-4z" style="fill:#336894"/>
 <path d="m6 4c-1.108 0-2 0.892-2 2v1c0-1.108 0.892-2 2-2h36c1.108 0 2 0.892 2 2v-1c0-1.108-0.892-2-2-2h-36z" style="fill:#ffffff;opacity:.2"/>
</svg>
