<svg width="48" height="48" version="1.0" xmlns="http://www.w3.org/2000/svg">
 <text x="877.22626" y="10.812601" font-family="'Bitstream Vera Sans'" font-size="12.666px" opacity=".8" xml:space="preserve"><tspan x="877.22626" y="10.812601"/></text>
 <text x="901.18719" y="-29.929106" font-family="'Bitstream Vera Sans'" font-size="12.666px" opacity=".8" xml:space="preserve"><tspan x="901.18719" y="-29.929106"/></text>
 <text x="-569.37115" y="-60.007248" font-family="'Bitstream Vera Sans'" font-size="12.666px" opacity=".8" xml:space="preserve"><tspan x="-569.37115" y="-60.007248"/></text>
 <text x="-2393.0571" y="685.5462" font-family="'Bitstream Vera Sans'" font-size="12.666px" opacity=".8" xml:space="preserve"><tspan x="-2393.0571" y="685.5462"/></text>
 <text x="-454.88007" y="-445.32822" font-family="'Bitstream Vera Sans'" font-size="12.666px" opacity=".8" xml:space="preserve"><tspan x="-454.88007" y="-445.32822"/></text>
 <text x="352.72208" y="-858.79834" font-family="'Bitstream Vera Sans'" font-size="12.666px" opacity=".8" xml:space="preserve"><tspan x="352.72208" y="-858.79834"/></text>
 <text x="376.68301" y="-899.54004" font-family="'Bitstream Vera Sans'" font-size="12.666px" opacity=".8" xml:space="preserve"><tspan x="376.68301" y="-899.54004"/></text>
 <text x="-1114.7802" y="-906.74994" font-family="'Bitstream Vera Sans'" font-size="12.666px" opacity=".8" xml:space="preserve"><tspan x="-1114.7802" y="-906.74994"/></text>
 <text x="345.7626" y="-1179.9841" font-family="'Bitstream Vera Sans'" font-size="12.666px" opacity=".8" xml:space="preserve"><tspan x="345.7626" y="-1179.9841"/></text>
 <text x="1831.8861" y="-553.29272" font-family="'Bitstream Vera Sans'" font-size="12.666px" opacity=".8" xml:space="preserve"><tspan x="1831.8861" y="-553.29272"/></text>
 <text x="1855.8469" y="-594.03448" font-family="'Bitstream Vera Sans'" font-size="12.666px" opacity=".8" xml:space="preserve"><tspan x="1855.8469" y="-594.03448"/></text>
 <text x="364.38376" y="-601.24438" font-family="'Bitstream Vera Sans'" font-size="12.666px" opacity=".8" xml:space="preserve"><tspan x="364.38376" y="-601.24438"/></text>
 <text x="1824.9266" y="-874.47839" font-family="'Bitstream Vera Sans'" font-size="12.666px" opacity=".8" xml:space="preserve"><tspan x="1824.9266" y="-874.47839"/></text>
 <text x="-573.43256" y="-649.33569" font-family="'Bitstream Vera Sans'" font-size="12.666px" opacity=".8" xml:space="preserve"><tspan x="-573.43256" y="-649.33569"/></text>
 <text x="-2397.1182" y="96.217857" font-family="'Bitstream Vera Sans'" font-size="12.666px" opacity=".8" xml:space="preserve"><tspan x="-2397.1182" y="96.217857"/></text>
 <text x="-682.36279" y="189.09" font-family="'Bitstream Vera Sans'" font-size="12.666px" opacity=".8" xml:space="preserve"><tspan x="-682.36279" y="189.09"/></text>
 <text x="426.66153" y="9.9078522" font-family="'Bitstream Vera Sans'" font-size="12.666px" opacity=".8" xml:space="preserve"><tspan x="426.66153" y="9.9078522"/></text>
 <text x="450.62247" y="-30.833855" font-family="'Bitstream Vera Sans'" font-size="12.666px" opacity=".8" xml:space="preserve"><tspan x="450.62247" y="-30.833855"/></text>
 <text x="-1040.8407" y="-38.043827" font-family="'Bitstream Vera Sans'" font-size="12.666px" opacity=".8" xml:space="preserve"><tspan x="-1040.8407" y="-38.043827"/></text>
 <text x="419.70206" y="-311.27789" font-family="'Bitstream Vera Sans'" font-size="12.666px" opacity=".8" xml:space="preserve"><tspan x="419.70206" y="-311.27789"/></text>
 <text x="-608.03253" y="-40.758072" font-family="'Bitstream Vera Sans'" font-size="12.666px" opacity=".8" xml:space="preserve"><tspan x="-608.03253" y="-40.758072"/></text>
 <text x="-2431.7185" y="704.79541" font-family="'Bitstream Vera Sans'" font-size="12.666px" opacity=".8" xml:space="preserve"><tspan x="-2431.7185" y="704.79541"/></text>
 <text x="-456.93948" y="-902.28857" font-family="'Bitstream Vera Sans'" font-size="12.666px" opacity=".8" xml:space="preserve"><tspan x="-456.93948" y="-902.28857"/></text>
 <text x="350.66266" y="-1315.7588" font-family="'Bitstream Vera Sans'" font-size="12.666px" opacity=".8" xml:space="preserve"><tspan x="350.66266" y="-1315.7588"/></text>
 <text x="374.62357" y="-1356.5005" font-family="'Bitstream Vera Sans'" font-size="12.666px" opacity=".8" xml:space="preserve"><tspan x="374.62357" y="-1356.5005"/></text>
 <text x="-1116.8396" y="-1363.7104" font-family="'Bitstream Vera Sans'" font-size="12.666px" opacity=".8" xml:space="preserve"><tspan x="-1116.8396" y="-1363.7104"/></text>
 <text x="343.70316" y="-1636.9446" font-family="'Bitstream Vera Sans'" font-size="12.666px" opacity=".8" xml:space="preserve"><tspan x="343.70316" y="-1636.9446"/></text>
 <text x="1829.8265" y="-1010.2533" font-family="'Bitstream Vera Sans'" font-size="12.666px" opacity=".8" xml:space="preserve"><tspan x="1829.8265" y="-1010.2533"/></text>
 <text x="1853.7874" y="-1050.9949" font-family="'Bitstream Vera Sans'" font-size="12.666px" opacity=".8" xml:space="preserve"><tspan x="1853.7874" y="-1050.9949"/></text>
 <text x="362.32431" y="-1058.2048" font-family="'Bitstream Vera Sans'" font-size="12.666px" opacity=".8" xml:space="preserve"><tspan x="362.32431" y="-1058.2048"/></text>
 <text x="1822.8671" y="-1331.439" font-family="'Bitstream Vera Sans'" font-size="12.666px" opacity=".8" xml:space="preserve"><tspan x="1822.8671" y="-1331.439"/></text>
 <text x="-575.492" y="-1106.2961" font-family="'Bitstream Vera Sans'" font-size="12.666px" opacity=".8" xml:space="preserve"><tspan x="-575.492" y="-1106.2961"/></text>
 <text x="-2399.1777" y="-360.74261" font-family="'Bitstream Vera Sans'" font-size="12.666px" opacity=".8" xml:space="preserve"><tspan x="-2399.1777" y="-360.74261"/></text>
 <text x="-684.42224" y="-267.87045" font-family="'Bitstream Vera Sans'" font-size="12.666px" opacity=".8" xml:space="preserve"><tspan x="-684.42224" y="-267.87045"/></text>
 <text x="155.5923" y="-26.956278" font-family="'Bitstream Vera Sans'" font-size="12.666px" opacity=".8" xml:space="preserve"><tspan x="155.5923" y="-26.956278"/></text>
 <text x="179.55324" y="-67.697998" font-family="'Bitstream Vera Sans'" font-size="12.666px" opacity=".8" xml:space="preserve"><tspan x="179.55324" y="-67.697998"/></text>
 <text x="-1090.2634" y="-261.72662" font-family="'Bitstream Vera Sans'" font-size="12.666px" opacity=".8" xml:space="preserve"><tspan x="-1090.2634" y="-261.72662"/></text>
 <text x="-282.66141" y="-675.19678" font-family="'Bitstream Vera Sans'" font-size="12.666px" opacity=".8" xml:space="preserve"><tspan x="-282.66141" y="-675.19678"/></text>
 <text x="-258.70047" y="-715.93848" font-family="'Bitstream Vera Sans'" font-size="12.666px" opacity=".8" xml:space="preserve"><tspan x="-258.70047" y="-715.93848"/></text>
 <text x="-1750.1636" y="-723.14838" font-family="'Bitstream Vera Sans'" font-size="12.666px" opacity=".8" xml:space="preserve"><tspan x="-1750.1636" y="-723.14838"/></text>
 <text x="-289.62085" y="-996.38251" font-family="'Bitstream Vera Sans'" font-size="12.666px" opacity=".8" xml:space="preserve"><tspan x="-289.62085" y="-996.38251"/></text>
 <text x="1196.5026" y="-369.69113" font-family="'Bitstream Vera Sans'" font-size="12.666px" opacity=".8" xml:space="preserve"><tspan x="1196.5026" y="-369.69113"/></text>
 <text x="1220.4634" y="-410.43286" font-family="'Bitstream Vera Sans'" font-size="12.666px" opacity=".8" xml:space="preserve"><tspan x="1220.4634" y="-410.43286"/></text>
 <text x="-270.99973" y="-417.64282" font-family="'Bitstream Vera Sans'" font-size="12.666px" opacity=".8" xml:space="preserve"><tspan x="-270.99973" y="-417.64282"/></text>
 <text x="1189.5431" y="-690.87689" font-family="'Bitstream Vera Sans'" font-size="12.666px" opacity=".8" xml:space="preserve"><tspan x="1189.5431" y="-690.87689"/></text>
 <text x="-1208.816" y="-465.7341" font-family="'Bitstream Vera Sans'" font-size="12.666px" opacity=".8" xml:space="preserve"><tspan x="-1208.816" y="-465.7341"/></text>
 <text x="-3032.5017" y="279.81946" font-family="'Bitstream Vera Sans'" font-size="12.666px" opacity=".8" xml:space="preserve"><tspan x="-3032.5017" y="279.81946"/></text>
 <g transform="matrix(.90475 0 0 .90475 -716.75 -676.29)">
  <text x="-664.2738" y="1159.4154" font-family="'Bitstream Vera Sans'" font-size="14px" opacity=".8" xml:space="preserve"><tspan x="-664.2738" y="1159.4154"/></text>
 </g>
 <text x="877.22626" y="18.050589" font-family="'Bitstream Vera Sans'" font-size="12.666px" opacity=".8" xml:space="preserve"><tspan x="877.22626" y="18.050589"/></text>
 <text x="901.18719" y="-22.691116" font-family="'Bitstream Vera Sans'" font-size="12.666px" opacity=".8" xml:space="preserve"><tspan x="901.18719" y="-22.691116"/></text>
 <text x="-569.37115" y="-52.76926" font-family="'Bitstream Vera Sans'" font-size="12.666px" opacity=".8" xml:space="preserve"><tspan x="-569.37115" y="-52.76926"/></text>
 <text x="-2393.0571" y="692.78418" font-family="'Bitstream Vera Sans'" font-size="12.666px" opacity=".8" xml:space="preserve"><tspan x="-2393.0571" y="692.78418"/></text>
 <text x="-454.88007" y="-438.09021" font-family="'Bitstream Vera Sans'" font-size="12.666px" opacity=".8" xml:space="preserve"><tspan x="-454.88007" y="-438.09021"/></text>
 <text x="352.72208" y="-851.5603" font-family="'Bitstream Vera Sans'" font-size="12.666px" opacity=".8" xml:space="preserve"><tspan x="352.72208" y="-851.5603"/></text>
 <text x="376.68301" y="-892.30206" font-family="'Bitstream Vera Sans'" font-size="12.666px" opacity=".8" xml:space="preserve"><tspan x="376.68301" y="-892.30206"/></text>
 <text x="-1114.7802" y="-899.51196" font-family="'Bitstream Vera Sans'" font-size="12.666px" opacity=".8" xml:space="preserve"><tspan x="-1114.7802" y="-899.51196"/></text>
 <text x="345.7626" y="-1172.7461" font-family="'Bitstream Vera Sans'" font-size="12.666px" opacity=".8" xml:space="preserve"><tspan x="345.7626" y="-1172.7461"/></text>
 <text x="1831.8861" y="-546.05475" font-family="'Bitstream Vera Sans'" font-size="12.666px" opacity=".8" xml:space="preserve"><tspan x="1831.8861" y="-546.05475"/></text>
 <text x="1855.8469" y="-586.79651" font-family="'Bitstream Vera Sans'" font-size="12.666px" opacity=".8" xml:space="preserve"><tspan x="1855.8469" y="-586.79651"/></text>
 <text x="364.38376" y="-594.00641" font-family="'Bitstream Vera Sans'" font-size="12.666px" opacity=".8" xml:space="preserve"><tspan x="364.38376" y="-594.00641"/></text>
 <text x="1824.9266" y="-867.24036" font-family="'Bitstream Vera Sans'" font-size="12.666px" opacity=".8" xml:space="preserve"><tspan x="1824.9266" y="-867.24036"/></text>
 <text x="-573.43256" y="-642.09772" font-family="'Bitstream Vera Sans'" font-size="12.666px" opacity=".8" xml:space="preserve"><tspan x="-573.43256" y="-642.09772"/></text>
 <text x="-2397.1182" y="103.45585" font-family="'Bitstream Vera Sans'" font-size="12.666px" opacity=".8" xml:space="preserve"><tspan x="-2397.1182" y="103.45585"/></text>
 <text x="-682.36279" y="196.32799" font-family="'Bitstream Vera Sans'" font-size="12.666px" opacity=".8" xml:space="preserve"><tspan x="-682.36279" y="196.32799"/></text>
 <text x="426.66153" y="17.14584" font-family="'Bitstream Vera Sans'" font-size="12.666px" opacity=".8" xml:space="preserve"><tspan x="426.66153" y="17.14584"/></text>
 <text x="450.62247" y="-23.595865" font-family="'Bitstream Vera Sans'" font-size="12.666px" opacity=".8" xml:space="preserve"><tspan x="450.62247" y="-23.595865"/></text>
 <text x="-1040.8407" y="-30.805836" font-family="'Bitstream Vera Sans'" font-size="12.666px" opacity=".8" xml:space="preserve"><tspan x="-1040.8407" y="-30.805836"/></text>
 <text x="419.70206" y="-304.03989" font-family="'Bitstream Vera Sans'" font-size="12.666px" opacity=".8" xml:space="preserve"><tspan x="419.70206" y="-304.03989"/></text>
 <text x="-608.03253" y="-33.520081" font-family="'Bitstream Vera Sans'" font-size="12.666px" opacity=".8" xml:space="preserve"><tspan x="-608.03253" y="-33.520081"/></text>
 <text x="-2431.7185" y="712.03345" font-family="'Bitstream Vera Sans'" font-size="12.666px" opacity=".8" xml:space="preserve"><tspan x="-2431.7185" y="712.03345"/></text>
 <text x="-456.93948" y="-895.0506" font-family="'Bitstream Vera Sans'" font-size="12.666px" opacity=".8" xml:space="preserve"><tspan x="-456.93948" y="-895.0506"/></text>
 <text x="350.66266" y="-1308.5208" font-family="'Bitstream Vera Sans'" font-size="12.666px" opacity=".8" xml:space="preserve"><tspan x="350.66266" y="-1308.5208"/></text>
 <text x="374.62357" y="-1349.2626" font-family="'Bitstream Vera Sans'" font-size="12.666px" opacity=".8" xml:space="preserve"><tspan x="374.62357" y="-1349.2626"/></text>
 <text x="-1116.8396" y="-1356.4724" font-family="'Bitstream Vera Sans'" font-size="12.666px" opacity=".8" xml:space="preserve"><tspan x="-1116.8396" y="-1356.4724"/></text>
 <text x="343.70316" y="-1629.7065" font-family="'Bitstream Vera Sans'" font-size="12.666px" opacity=".8" xml:space="preserve"><tspan x="343.70316" y="-1629.7065"/></text>
 <text x="1829.8265" y="-1003.0153" font-family="'Bitstream Vera Sans'" font-size="12.666px" opacity=".8" xml:space="preserve"><tspan x="1829.8265" y="-1003.0153"/></text>
 <text x="1853.7874" y="-1043.757" font-family="'Bitstream Vera Sans'" font-size="12.666px" opacity=".8" xml:space="preserve"><tspan x="1853.7874" y="-1043.757"/></text>
 <text x="362.32431" y="-1050.9668" font-family="'Bitstream Vera Sans'" font-size="12.666px" opacity=".8" xml:space="preserve"><tspan x="362.32431" y="-1050.9668"/></text>
 <text x="1822.8671" y="-1324.2009" font-family="'Bitstream Vera Sans'" font-size="12.666px" opacity=".8" xml:space="preserve"><tspan x="1822.8671" y="-1324.2009"/></text>
 <text x="-575.492" y="-1099.0581" font-family="'Bitstream Vera Sans'" font-size="12.666px" opacity=".8" xml:space="preserve"><tspan x="-575.492" y="-1099.0581"/></text>
 <text x="-2399.1777" y="-353.50461" font-family="'Bitstream Vera Sans'" font-size="12.666px" opacity=".8" xml:space="preserve"><tspan x="-2399.1777" y="-353.50461"/></text>
 <text x="-684.42224" y="-260.63245" font-family="'Bitstream Vera Sans'" font-size="12.666px" opacity=".8" xml:space="preserve"><tspan x="-684.42224" y="-260.63245"/></text>
 <text x="155.5923" y="-19.71829" font-family="'Bitstream Vera Sans'" font-size="12.666px" opacity=".8" xml:space="preserve"><tspan x="155.5923" y="-19.71829"/></text>
 <text x="179.55324" y="-60.460011" font-family="'Bitstream Vera Sans'" font-size="12.666px" opacity=".8" xml:space="preserve"><tspan x="179.55324" y="-60.460011"/></text>
 <text x="-1090.2634" y="-254.4886" font-family="'Bitstream Vera Sans'" font-size="12.666px" opacity=".8" xml:space="preserve"><tspan x="-1090.2634" y="-254.4886"/></text>
 <text x="-282.66141" y="-667.9588" font-family="'Bitstream Vera Sans'" font-size="12.666px" opacity=".8" xml:space="preserve"><tspan x="-282.66141" y="-667.9588"/></text>
 <text x="-258.70047" y="-708.7005" font-family="'Bitstream Vera Sans'" font-size="12.666px" opacity=".8" xml:space="preserve"><tspan x="-258.70047" y="-708.7005"/></text>
 <text x="-1750.1636" y="-715.91046" font-family="'Bitstream Vera Sans'" font-size="12.666px" opacity=".8" xml:space="preserve"><tspan x="-1750.1636" y="-715.91046"/></text>
 <text x="-289.62085" y="-989.14447" font-family="'Bitstream Vera Sans'" font-size="12.666px" opacity=".8" xml:space="preserve"><tspan x="-289.62085" y="-989.14447"/></text>
 <text x="1196.5026" y="-362.45316" font-family="'Bitstream Vera Sans'" font-size="12.666px" opacity=".8" xml:space="preserve"><tspan x="1196.5026" y="-362.45316"/></text>
 <text x="1220.4634" y="-403.19489" font-family="'Bitstream Vera Sans'" font-size="12.666px" opacity=".8" xml:space="preserve"><tspan x="1220.4634" y="-403.19489"/></text>
 <text x="-270.99973" y="-410.40482" font-family="'Bitstream Vera Sans'" font-size="12.666px" opacity=".8" xml:space="preserve"><tspan x="-270.99973" y="-410.40482"/></text>
 <text x="1189.5431" y="-683.63892" font-family="'Bitstream Vera Sans'" font-size="12.666px" opacity=".8" xml:space="preserve"><tspan x="1189.5431" y="-683.63892"/></text>
 <text x="-1208.816" y="-458.49609" font-family="'Bitstream Vera Sans'" font-size="12.666px" opacity=".8" xml:space="preserve"><tspan x="-1208.816" y="-458.49609"/></text>
 <text x="-3032.5017" y="287.05743" font-family="'Bitstream Vera Sans'" font-size="12.666px" opacity=".8" xml:space="preserve"><tspan x="-3032.5017" y="287.05743"/></text>
 <g transform="matrix(.90475 0 0 .90475 -716.75 -669.05)">
  <text x="-664.2738" y="1159.4154" font-family="'Bitstream Vera Sans'" font-size="14px" opacity=".8" xml:space="preserve"><tspan x="-664.2738" y="1159.4154"/></text>
 </g>
 <text x="435.90427" y="-361.22546" font-family="'Droid Sans'" font-size="12.666px" xml:space="preserve"><tspan x="435.90427" y="-361.22546"/><tspan x="435.90427" y="-345.3924"/></text>
 <text x="901.0882" y="-843.27002" font-family="'Bitstream Vera Sans'" font-size="12.666px" opacity=".8" xml:space="preserve"><tspan x="901.0882" y="-843.27002"/></text>
 <text x="-922.59778" y="-97.716553" font-family="'Bitstream Vera Sans'" font-size="12.666px" opacity=".8" xml:space="preserve"><tspan x="-922.59778" y="-97.716553"/></text>
 <text x="1628.1677" y="-1128.2659" font-family="'Bitstream Vera Sans'" font-size="12.666px" opacity=".8" xml:space="preserve"><tspan x="1628.1677" y="-1128.2659"/></text>
 <text x="1652.1285" y="-1169.0076" font-family="'Bitstream Vera Sans'" font-size="12.666px" opacity=".8" xml:space="preserve"><tspan x="1652.1285" y="-1169.0076"/></text>
 <text x="160.66542" y="-1176.2175" font-family="'Bitstream Vera Sans'" font-size="12.666px" opacity=".8" xml:space="preserve"><tspan x="160.66542" y="-1176.2175"/></text>
 <text x="1621.2083" y="-1449.4517" font-family="'Bitstream Vera Sans'" font-size="12.666px" opacity=".8" xml:space="preserve"><tspan x="1621.2083" y="-1449.4517"/></text>
 <text x="877.22626" y="10.812601" font-family="'Bitstream Vera Sans'" font-size="12.666px" opacity=".8" xml:space="preserve"><tspan x="877.22626" y="10.812601"/></text>
 <text x="901.18719" y="-29.929106" font-family="'Bitstream Vera Sans'" font-size="12.666px" opacity=".8" xml:space="preserve"><tspan x="901.18719" y="-29.929106"/></text>
 <text x="-569.37115" y="-60.007248" font-family="'Bitstream Vera Sans'" font-size="12.666px" opacity=".8" xml:space="preserve"><tspan x="-569.37115" y="-60.007248"/></text>
 <text x="-2393.0571" y="685.5462" font-family="'Bitstream Vera Sans'" font-size="12.666px" opacity=".8" xml:space="preserve"><tspan x="-2393.0571" y="685.5462"/></text>
 <text x="-454.88007" y="-445.32822" font-family="'Bitstream Vera Sans'" font-size="12.666px" opacity=".8" xml:space="preserve"><tspan x="-454.88007" y="-445.32822"/></text>
 <text x="352.72208" y="-858.79834" font-family="'Bitstream Vera Sans'" font-size="12.666px" opacity=".8" xml:space="preserve"><tspan x="352.72208" y="-858.79834"/></text>
 <text x="376.68301" y="-899.54004" font-family="'Bitstream Vera Sans'" font-size="12.666px" opacity=".8" xml:space="preserve"><tspan x="376.68301" y="-899.54004"/></text>
 <text x="-1114.7802" y="-906.74994" font-family="'Bitstream Vera Sans'" font-size="12.666px" opacity=".8" xml:space="preserve"><tspan x="-1114.7802" y="-906.74994"/></text>
 <text x="345.7626" y="-1179.9841" font-family="'Bitstream Vera Sans'" font-size="12.666px" opacity=".8" xml:space="preserve"><tspan x="345.7626" y="-1179.9841"/></text>
 <text x="1831.8861" y="-553.29272" font-family="'Bitstream Vera Sans'" font-size="12.666px" opacity=".8" xml:space="preserve"><tspan x="1831.8861" y="-553.29272"/></text>
 <text x="1855.8469" y="-594.03448" font-family="'Bitstream Vera Sans'" font-size="12.666px" opacity=".8" xml:space="preserve"><tspan x="1855.8469" y="-594.03448"/></text>
 <text x="364.38376" y="-601.24438" font-family="'Bitstream Vera Sans'" font-size="12.666px" opacity=".8" xml:space="preserve"><tspan x="364.38376" y="-601.24438"/></text>
 <text x="1824.9266" y="-874.47839" font-family="'Bitstream Vera Sans'" font-size="12.666px" opacity=".8" xml:space="preserve"><tspan x="1824.9266" y="-874.47839"/></text>
 <text x="-573.43256" y="-649.33569" font-family="'Bitstream Vera Sans'" font-size="12.666px" opacity=".8" xml:space="preserve"><tspan x="-573.43256" y="-649.33569"/></text>
 <text x="-2397.1182" y="96.217857" font-family="'Bitstream Vera Sans'" font-size="12.666px" opacity=".8" xml:space="preserve"><tspan x="-2397.1182" y="96.217857"/></text>
 <text x="-682.36279" y="189.09" font-family="'Bitstream Vera Sans'" font-size="12.666px" opacity=".8" xml:space="preserve"><tspan x="-682.36279" y="189.09"/></text>
 <text x="426.66153" y="9.9078522" font-family="'Bitstream Vera Sans'" font-size="12.666px" opacity=".8" xml:space="preserve"><tspan x="426.66153" y="9.9078522"/></text>
 <text x="450.62247" y="-30.833855" font-family="'Bitstream Vera Sans'" font-size="12.666px" opacity=".8" xml:space="preserve"><tspan x="450.62247" y="-30.833855"/></text>
 <text x="-1040.8407" y="-38.043827" font-family="'Bitstream Vera Sans'" font-size="12.666px" opacity=".8" xml:space="preserve"><tspan x="-1040.8407" y="-38.043827"/></text>
 <text x="419.70206" y="-311.27789" font-family="'Bitstream Vera Sans'" font-size="12.666px" opacity=".8" xml:space="preserve"><tspan x="419.70206" y="-311.27789"/></text>
 <text x="-608.03253" y="-40.758072" font-family="'Bitstream Vera Sans'" font-size="12.666px" opacity=".8" xml:space="preserve"><tspan x="-608.03253" y="-40.758072"/></text>
 <text x="-2431.7185" y="704.79541" font-family="'Bitstream Vera Sans'" font-size="12.666px" opacity=".8" xml:space="preserve"><tspan x="-2431.7185" y="704.79541"/></text>
 <text x="-456.93948" y="-902.28857" font-family="'Bitstream Vera Sans'" font-size="12.666px" opacity=".8" xml:space="preserve"><tspan x="-456.93948" y="-902.28857"/></text>
 <text x="350.66266" y="-1315.7588" font-family="'Bitstream Vera Sans'" font-size="12.666px" opacity=".8" xml:space="preserve"><tspan x="350.66266" y="-1315.7588"/></text>
 <text x="374.62357" y="-1356.5005" font-family="'Bitstream Vera Sans'" font-size="12.666px" opacity=".8" xml:space="preserve"><tspan x="374.62357" y="-1356.5005"/></text>
 <text x="-1116.8396" y="-1363.7104" font-family="'Bitstream Vera Sans'" font-size="12.666px" opacity=".8" xml:space="preserve"><tspan x="-1116.8396" y="-1363.7104"/></text>
 <text x="343.70316" y="-1636.9446" font-family="'Bitstream Vera Sans'" font-size="12.666px" opacity=".8" xml:space="preserve"><tspan x="343.70316" y="-1636.9446"/></text>
 <text x="1829.8265" y="-1010.2533" font-family="'Bitstream Vera Sans'" font-size="12.666px" opacity=".8" xml:space="preserve"><tspan x="1829.8265" y="-1010.2533"/></text>
 <text x="1853.7874" y="-1050.9949" font-family="'Bitstream Vera Sans'" font-size="12.666px" opacity=".8" xml:space="preserve"><tspan x="1853.7874" y="-1050.9949"/></text>
 <text x="362.32431" y="-1058.2048" font-family="'Bitstream Vera Sans'" font-size="12.666px" opacity=".8" xml:space="preserve"><tspan x="362.32431" y="-1058.2048"/></text>
 <text x="1822.8671" y="-1331.439" font-family="'Bitstream Vera Sans'" font-size="12.666px" opacity=".8" xml:space="preserve"><tspan x="1822.8671" y="-1331.439"/></text>
 <text x="-575.492" y="-1106.2961" font-family="'Bitstream Vera Sans'" font-size="12.666px" opacity=".8" xml:space="preserve"><tspan x="-575.492" y="-1106.2961"/></text>
 <text x="-2399.1777" y="-360.74261" font-family="'Bitstream Vera Sans'" font-size="12.666px" opacity=".8" xml:space="preserve"><tspan x="-2399.1777" y="-360.74261"/></text>
 <text x="-684.42224" y="-267.87045" font-family="'Bitstream Vera Sans'" font-size="12.666px" opacity=".8" xml:space="preserve"><tspan x="-684.42224" y="-267.87045"/></text>
 <text x="155.5923" y="-26.956278" font-family="'Bitstream Vera Sans'" font-size="12.666px" opacity=".8" xml:space="preserve"><tspan x="155.5923" y="-26.956278"/></text>
 <text x="179.55324" y="-67.697998" font-family="'Bitstream Vera Sans'" font-size="12.666px" opacity=".8" xml:space="preserve"><tspan x="179.55324" y="-67.697998"/></text>
 <text x="-1090.2634" y="-261.72662" font-family="'Bitstream Vera Sans'" font-size="12.666px" opacity=".8" xml:space="preserve"><tspan x="-1090.2634" y="-261.72662"/></text>
 <text x="-282.66141" y="-675.19678" font-family="'Bitstream Vera Sans'" font-size="12.666px" opacity=".8" xml:space="preserve"><tspan x="-282.66141" y="-675.19678"/></text>
 <text x="-258.70047" y="-715.93848" font-family="'Bitstream Vera Sans'" font-size="12.666px" opacity=".8" xml:space="preserve"><tspan x="-258.70047" y="-715.93848"/></text>
 <text x="-1750.1636" y="-723.14838" font-family="'Bitstream Vera Sans'" font-size="12.666px" opacity=".8" xml:space="preserve"><tspan x="-1750.1636" y="-723.14838"/></text>
 <text x="-289.62085" y="-996.38251" font-family="'Bitstream Vera Sans'" font-size="12.666px" opacity=".8" xml:space="preserve"><tspan x="-289.62085" y="-996.38251"/></text>
 <text x="1196.5026" y="-369.69113" font-family="'Bitstream Vera Sans'" font-size="12.666px" opacity=".8" xml:space="preserve"><tspan x="1196.5026" y="-369.69113"/></text>
 <text x="1220.4634" y="-410.43286" font-family="'Bitstream Vera Sans'" font-size="12.666px" opacity=".8" xml:space="preserve"><tspan x="1220.4634" y="-410.43286"/></text>
 <text x="-270.99973" y="-417.64282" font-family="'Bitstream Vera Sans'" font-size="12.666px" opacity=".8" xml:space="preserve"><tspan x="-270.99973" y="-417.64282"/></text>
 <text x="1189.5431" y="-690.87689" font-family="'Bitstream Vera Sans'" font-size="12.666px" opacity=".8" xml:space="preserve"><tspan x="1189.5431" y="-690.87689"/></text>
 <text x="-1208.816" y="-465.7341" font-family="'Bitstream Vera Sans'" font-size="12.666px" opacity=".8" xml:space="preserve"><tspan x="-1208.816" y="-465.7341"/></text>
 <text x="-3032.5017" y="279.81946" font-family="'Bitstream Vera Sans'" font-size="12.666px" opacity=".8" xml:space="preserve"><tspan x="-3032.5017" y="279.81946"/></text>
 <text x="-1317.7462" y="372.69156" font-family="'Bitstream Vera Sans'" font-size="12.666px" opacity=".8" xml:space="preserve"><tspan x="-1317.7462" y="372.69156"/></text>
 <text x="877.22626" y="18.050589" font-family="'Bitstream Vera Sans'" font-size="12.666px" opacity=".8" xml:space="preserve"><tspan x="877.22626" y="18.050589"/></text>
 <text x="901.18719" y="-22.691116" font-family="'Bitstream Vera Sans'" font-size="12.666px" opacity=".8" xml:space="preserve"><tspan x="901.18719" y="-22.691116"/></text>
 <text x="-569.37115" y="-52.76926" font-family="'Bitstream Vera Sans'" font-size="12.666px" opacity=".8" xml:space="preserve"><tspan x="-569.37115" y="-52.76926"/></text>
 <text x="-2393.0571" y="692.78418" font-family="'Bitstream Vera Sans'" font-size="12.666px" opacity=".8" xml:space="preserve"><tspan x="-2393.0571" y="692.78418"/></text>
 <text x="-454.88007" y="-438.09021" font-family="'Bitstream Vera Sans'" font-size="12.666px" opacity=".8" xml:space="preserve"><tspan x="-454.88007" y="-438.09021"/></text>
 <text x="352.72208" y="-851.5603" font-family="'Bitstream Vera Sans'" font-size="12.666px" opacity=".8" xml:space="preserve"><tspan x="352.72208" y="-851.5603"/></text>
 <text x="376.68301" y="-892.30206" font-family="'Bitstream Vera Sans'" font-size="12.666px" opacity=".8" xml:space="preserve"><tspan x="376.68301" y="-892.30206"/></text>
 <text x="-1114.7802" y="-899.51196" font-family="'Bitstream Vera Sans'" font-size="12.666px" opacity=".8" xml:space="preserve"><tspan x="-1114.7802" y="-899.51196"/></text>
 <text x="345.7626" y="-1172.7461" font-family="'Bitstream Vera Sans'" font-size="12.666px" opacity=".8" xml:space="preserve"><tspan x="345.7626" y="-1172.7461"/></text>
 <text x="1831.8861" y="-546.05475" font-family="'Bitstream Vera Sans'" font-size="12.666px" opacity=".8" xml:space="preserve"><tspan x="1831.8861" y="-546.05475"/></text>
 <text x="1855.8469" y="-586.79651" font-family="'Bitstream Vera Sans'" font-size="12.666px" opacity=".8" xml:space="preserve"><tspan x="1855.8469" y="-586.79651"/></text>
 <text x="364.38376" y="-594.00641" font-family="'Bitstream Vera Sans'" font-size="12.666px" opacity=".8" xml:space="preserve"><tspan x="364.38376" y="-594.00641"/></text>
 <text x="1824.9266" y="-867.24036" font-family="'Bitstream Vera Sans'" font-size="12.666px" opacity=".8" xml:space="preserve"><tspan x="1824.9266" y="-867.24036"/></text>
 <text x="-573.43256" y="-642.09772" font-family="'Bitstream Vera Sans'" font-size="12.666px" opacity=".8" xml:space="preserve"><tspan x="-573.43256" y="-642.09772"/></text>
 <text x="-2397.1182" y="103.45585" font-family="'Bitstream Vera Sans'" font-size="12.666px" opacity=".8" xml:space="preserve"><tspan x="-2397.1182" y="103.45585"/></text>
 <text x="-682.36279" y="196.32799" font-family="'Bitstream Vera Sans'" font-size="12.666px" opacity=".8" xml:space="preserve"><tspan x="-682.36279" y="196.32799"/></text>
 <text x="426.66153" y="17.14584" font-family="'Bitstream Vera Sans'" font-size="12.666px" opacity=".8" xml:space="preserve"><tspan x="426.66153" y="17.14584"/></text>
 <text x="450.62247" y="-23.595865" font-family="'Bitstream Vera Sans'" font-size="12.666px" opacity=".8" xml:space="preserve"><tspan x="450.62247" y="-23.595865"/></text>
 <text x="-1040.8407" y="-30.805836" font-family="'Bitstream Vera Sans'" font-size="12.666px" opacity=".8" xml:space="preserve"><tspan x="-1040.8407" y="-30.805836"/></text>
 <text x="419.70206" y="-304.03989" font-family="'Bitstream Vera Sans'" font-size="12.666px" opacity=".8" xml:space="preserve"><tspan x="419.70206" y="-304.03989"/></text>
 <text x="-608.03253" y="-33.520081" font-family="'Bitstream Vera Sans'" font-size="12.666px" opacity=".8" xml:space="preserve"><tspan x="-608.03253" y="-33.520081"/></text>
 <text x="-2431.7185" y="712.03345" font-family="'Bitstream Vera Sans'" font-size="12.666px" opacity=".8" xml:space="preserve"><tspan x="-2431.7185" y="712.03345"/></text>
 <text x="-456.93948" y="-895.0506" font-family="'Bitstream Vera Sans'" font-size="12.666px" opacity=".8" xml:space="preserve"><tspan x="-456.93948" y="-895.0506"/></text>
 <text x="350.66266" y="-1308.5208" font-family="'Bitstream Vera Sans'" font-size="12.666px" opacity=".8" xml:space="preserve"><tspan x="350.66266" y="-1308.5208"/></text>
 <text x="374.62357" y="-1349.2626" font-family="'Bitstream Vera Sans'" font-size="12.666px" opacity=".8" xml:space="preserve"><tspan x="374.62357" y="-1349.2626"/></text>
 <text x="-1116.8396" y="-1356.4724" font-family="'Bitstream Vera Sans'" font-size="12.666px" opacity=".8" xml:space="preserve"><tspan x="-1116.8396" y="-1356.4724"/></text>
 <text x="343.70316" y="-1629.7065" font-family="'Bitstream Vera Sans'" font-size="12.666px" opacity=".8" xml:space="preserve"><tspan x="343.70316" y="-1629.7065"/></text>
 <text x="1829.8265" y="-1003.0153" font-family="'Bitstream Vera Sans'" font-size="12.666px" opacity=".8" xml:space="preserve"><tspan x="1829.8265" y="-1003.0153"/></text>
 <text x="1853.7874" y="-1043.757" font-family="'Bitstream Vera Sans'" font-size="12.666px" opacity=".8" xml:space="preserve"><tspan x="1853.7874" y="-1043.757"/></text>
 <text x="362.32431" y="-1050.9668" font-family="'Bitstream Vera Sans'" font-size="12.666px" opacity=".8" xml:space="preserve"><tspan x="362.32431" y="-1050.9668"/></text>
 <text x="1822.8671" y="-1324.2009" font-family="'Bitstream Vera Sans'" font-size="12.666px" opacity=".8" xml:space="preserve"><tspan x="1822.8671" y="-1324.2009"/></text>
 <text x="-575.492" y="-1099.0581" font-family="'Bitstream Vera Sans'" font-size="12.666px" opacity=".8" xml:space="preserve"><tspan x="-575.492" y="-1099.0581"/></text>
 <text x="-2399.1777" y="-353.50461" font-family="'Bitstream Vera Sans'" font-size="12.666px" opacity=".8" xml:space="preserve"><tspan x="-2399.1777" y="-353.50461"/></text>
 <text x="-684.42224" y="-260.63245" font-family="'Bitstream Vera Sans'" font-size="12.666px" opacity=".8" xml:space="preserve"><tspan x="-684.42224" y="-260.63245"/></text>
 <text x="155.5923" y="-19.71829" font-family="'Bitstream Vera Sans'" font-size="12.666px" opacity=".8" xml:space="preserve"><tspan x="155.5923" y="-19.71829"/></text>
 <text x="179.55324" y="-60.460011" font-family="'Bitstream Vera Sans'" font-size="12.666px" opacity=".8" xml:space="preserve"><tspan x="179.55324" y="-60.460011"/></text>
 <text x="-1090.2634" y="-254.4886" font-family="'Bitstream Vera Sans'" font-size="12.666px" opacity=".8" xml:space="preserve"><tspan x="-1090.2634" y="-254.4886"/></text>
 <text x="-282.66141" y="-667.9588" font-family="'Bitstream Vera Sans'" font-size="12.666px" opacity=".8" xml:space="preserve"><tspan x="-282.66141" y="-667.9588"/></text>
 <text x="-258.70047" y="-708.7005" font-family="'Bitstream Vera Sans'" font-size="12.666px" opacity=".8" xml:space="preserve"><tspan x="-258.70047" y="-708.7005"/></text>
 <text x="-1750.1636" y="-715.91046" font-family="'Bitstream Vera Sans'" font-size="12.666px" opacity=".8" xml:space="preserve"><tspan x="-1750.1636" y="-715.91046"/></text>
 <text x="-289.62085" y="-989.14447" font-family="'Bitstream Vera Sans'" font-size="12.666px" opacity=".8" xml:space="preserve"><tspan x="-289.62085" y="-989.14447"/></text>
 <text x="1196.5026" y="-362.45316" font-family="'Bitstream Vera Sans'" font-size="12.666px" opacity=".8" xml:space="preserve"><tspan x="1196.5026" y="-362.45316"/></text>
 <text x="1220.4634" y="-403.19489" font-family="'Bitstream Vera Sans'" font-size="12.666px" opacity=".8" xml:space="preserve"><tspan x="1220.4634" y="-403.19489"/></text>
 <text x="-270.99973" y="-410.40482" font-family="'Bitstream Vera Sans'" font-size="12.666px" opacity=".8" xml:space="preserve"><tspan x="-270.99973" y="-410.40482"/></text>
 <text x="1189.5431" y="-683.63892" font-family="'Bitstream Vera Sans'" font-size="12.666px" opacity=".8" xml:space="preserve"><tspan x="1189.5431" y="-683.63892"/></text>
 <text x="-1208.816" y="-458.49609" font-family="'Bitstream Vera Sans'" font-size="12.666px" opacity=".8" xml:space="preserve"><tspan x="-1208.816" y="-458.49609"/></text>
 <text x="-3032.5017" y="287.05743" font-family="'Bitstream Vera Sans'" font-size="12.666px" opacity=".8" xml:space="preserve"><tspan x="-3032.5017" y="287.05743"/></text>
 <text x="-1317.7462" y="379.92953" font-family="'Bitstream Vera Sans'" font-size="12.666px" opacity=".8" xml:space="preserve"><tspan x="-1317.7462" y="379.92953"/></text>
 <text x="435.90427" y="-361.22546" font-family="'Droid Sans'" font-size="12.666px" xml:space="preserve"><tspan x="435.90427" y="-361.22546"/><tspan x="435.90427" y="-345.3924"/></text>
 <text x="901.0882" y="-843.27002" font-family="'Bitstream Vera Sans'" font-size="12.666px" opacity=".8" xml:space="preserve"><tspan x="901.0882" y="-843.27002"/></text>
 <text x="-922.59778" y="-97.716553" font-family="'Bitstream Vera Sans'" font-size="12.666px" opacity=".8" xml:space="preserve"><tspan x="-922.59778" y="-97.716553"/></text>
 <text x="1628.1677" y="-1128.2659" font-family="'Bitstream Vera Sans'" font-size="12.666px" opacity=".8" xml:space="preserve"><tspan x="1628.1677" y="-1128.2659"/></text>
 <text x="1652.1285" y="-1169.0076" font-family="'Bitstream Vera Sans'" font-size="12.666px" opacity=".8" xml:space="preserve"><tspan x="1652.1285" y="-1169.0076"/></text>
 <text x="160.66542" y="-1176.2175" font-family="'Bitstream Vera Sans'" font-size="12.666px" opacity=".8" xml:space="preserve"><tspan x="160.66542" y="-1176.2175"/></text>
 <text x="1621.2083" y="-1449.4517" font-family="'Bitstream Vera Sans'" font-size="12.666px" opacity=".8" xml:space="preserve"><tspan x="1621.2083" y="-1449.4517"/></text>
 <path d="m40.654 35.596c-0.60783 0.35359-1.2046 0.67667-1.6059 0.85275-0.66482 0.41101-1.1111-0.12842-0.68068-0.38408 0.90598-0.53348 1.5003-0.93591 1.9764-1.2945l-1.6367-4.3514c-1.6412 1.7627-4.2255 3.6567-7.6792 4.0212-0.6915 0.07339-1.001 0.02335-1.56-0.01239-0.2491-0.01573-0.15388-0.0098-0.40514-0.02549-1.8307-0.11508-4.1435-0.69121-5.5734-1.6259-0.55181-0.36097-1.5258-0.95044-2.5638-1.8804-0.81172-0.72909-1.0411-1.1022-1.4046-1.7017-0.17841-0.28759-0.23106-0.58732 0.02404-0.60424 0.3823-0.02454 0.65736 0.41101 1.2407 0.88563 1.3231 1.0729 3.2596 1.5475 4.2565 1.2259-1.2582-1.1646-2.1808-2.6717-2.6294-4.3574-0.09714-0.37217-0.37533-1.3336-0.93267-1.9707-0.41788-0.47462-0.74608-1.0507-0.96897-1.7191-0.44626-1.3462-0.04881-2.5616 0.07838-2.853 1.6497-3.7758 5.2921-5.8501 9.6561-5.6128v-2.38e-4c0.05819 2.38e-4 0.10122 5e-3 0.10435 5e-3 0.25054 0.01596 0.27194 0.01716 0.52151 0.03312 0.18971 0.01215 2.7795 0.08625 6.4765 0.8599 2.433 0.078 3.606-0.925 4.654-2.586-0.837-0.597-1.947-0.945-2.339-2.036-0.212-0.59 0.031-1.4346-0.904-2.9111-0.425-0.6674-1.613-1.4001-2.565-1.8711-1.085-0.5371-5.443-1.3701-7.511-1.4809l-2.4e-4 -0.022635s-0.65328-0.040267-2.2-0.13819c-9.732-0.608-18.303 5.7613-20.751 14.754-0.00409 0.01406-0.00697 0.02931-0.01106 0.04408-0.055542 0.20729-0.11301 0.4153-0.16278 0.6264-0.26112 1.0522-0.4388 2.1611-0.5131 3.3343v0.02144c-0.00168 0.01096-0.00313 0.02383-0.00313 0.0355-0.69559 10.927 7.7061 20.376 18.725 21.065 0.07285 0.0026 0.1445 0.0026 0.21568 0.0086 0.04256 0.0026 0.08247 0.0098 0.12503 0.01239 0.01154 0 0.02188-0.0062 0.03462-0.0086 0.0087 2.38e-4 0.01731 2.38e-4 0.02525 2.38e-4 0.43952 0.02692-0.2979-0.0086 0.19548 0.02216 1.7901 0.11127 4.2481 0.05266 6.8304-0.61401 1.9355-0.4994 3.3974-1.5697 5.9533-2.8246 0.6451-0.31689 2.6294-0.71194 4.7785-1.5437l-1.2666-3.3753z" fill="#556780"/>
 <path d="m37.063 10.002c0.5503 0.03279 0.96989 0.51022 0.93503 1.0599-0.03358 0.55171-0.5093 0.96921-1.0614 0.93642-0.55184-0.03689-0.96964-0.51099-0.93452-1.0606 0.03486-0.55171 0.51083-0.96921 1.0609-0.93566" opacity=".2"/>
 <path d="m37.063 9.0019c0.5503 0.032786 0.96989 0.51022 0.93503 1.0599-0.03358 0.55171-0.5093 0.96921-1.0614 0.93642-0.55184-0.03689-0.96964-0.51099-0.93452-1.0606 0.03486-0.55171 0.51083-0.96921 1.0609-0.93566" fill="#fff"/>
 <path d="m24.012 23.56c0.2411-3.8499 3.5744-6.7875 7.4249-6.5459 3.8556 0.24286 6.7903 3.5754 6.5489 7.4264-0.24417 3.8525-3.5772 6.7888-7.4275 6.5457-3.8531-0.24286-6.7875-3.5716-6.5446-7.4264" fill="#fa930d"/>
 <path d="m24.67 4.0059c-8.969 0.2316-16.645 6.3571-18.94 14.787-0.0036 0.014-0.0072 0.03-0.0112 0.045-0.0556 0.207-0.1124 0.416-0.1622 0.627-0.2611 1.052-0.4393 2.161-0.5136 3.334v0.021c-0.0017 0.011-2e-3 0.024-2e-3 0.035-0.0376 0.592-0.0439 1.177-0.0293 1.758 0.0064-0.252 0.0132-0.504 0.0293-0.758 0-0.011 3e-4 -0.024 2e-3 -0.035v-0.021c0.0743-1.173 0.2525-2.282 0.5136-3.334 0.0498-0.211 0.1066-0.42 0.1622-0.627 4e-3 -0.015 0.0076-0.031 0.0117-0.045 2.4476-8.992 11.02-15.36 20.75-14.752 1.547 0.0979 2.2 0.1367 2.2 0.1367v0.0235c2.068 0.1108 6.426 0.9434 7.511 1.4804 0.953 0.4711 2.142 1.2038 2.567 1.8711 0.935 1.4763 0.692 2.3203 0.904 2.9103 0.321 0.893 1.113 1.293 1.852 1.734 0.167-0.218 0.329-0.448 0.486-0.697-0.837-0.597-1.946-0.945-2.338-2.037-0.212-0.5898 0.031-1.4337-0.904-2.9103-0.425-0.6673-1.614-1.4-2.567-1.8711-1.085-0.537-5.443-1.3696-7.511-1.4804v-0.0235s-0.653-0.0388-2.2-0.1367c-0.608-0.038-1.212-0.0506-1.81-0.0351zm-4.332 17.82c-0.061 0.51-0.05 1.152 0.174 1.828 0.223 0.669 0.551 1.244 0.968 1.719 0.558 0.637 0.835 1.599 0.932 1.971 0.34 1.277 0.956 2.45 1.779 3.451 0.322 0.011 0.615-0.017 0.852-0.094-1.258-1.164-2.182-2.672-2.631-4.357-0.097-0.372-0.374-1.334-0.932-1.971-0.417-0.475-0.745-1.05-0.968-1.719-0.095-0.285-0.145-0.562-0.174-0.828zm-0.793 7.764c-0.255 0.017-0.202 0.318-0.024 0.605 0.364 0.6 0.593 0.972 1.405 1.701 1.038 0.93 2.012 1.52 2.564 1.881 1.43 0.935 3.742 1.51 5.572 1.625 0.252 0.016 0.158 0.01 0.407 0.026 0.559 0.035 0.867 0.085 1.558 0.011 3.454-0.364 6.039-2.256 7.68-4.019l1.34 3.56c0.094-0.067 0.211-0.144 0.297-0.209l-1.637-4.351c-1.641 1.763-4.226 3.655-7.68 4.019-0.691 0.074-0.999 0.024-1.558-0.011-0.249-0.016-0.155-0.01-0.407-0.026-1.83-0.115-4.142-0.69-5.572-1.625-0.552-0.361-1.526-0.951-2.564-1.881-0.575-0.516-0.849-0.868-1.094-1.234-0.093-0.049-0.187-0.079-0.287-0.072zm21.109 6.006c-0.119 0.069-0.198 0.1-0.314 0.166l4e-3 9e-3c-0.476 0.359-1.071 0.76-1.977 1.293-0.43 0.256 0.017 0.796 0.682 0.385 0.401-0.176 0.997-0.5 1.605-0.853l4e-3 2e-3 0.934 2.49c0.113-0.042 0.218-0.071 0.332-0.115l-1.266-3.375-4e-3 -2e-3z" fill="#fff" opacity=".1"/>
 <path d="m41.514 13.197c-0.944 1.236-2.1 1.955-4.166 1.889-3.697-0.774-6.287-0.847-6.477-0.859-0.249-0.016-0.271-0.018-0.521-0.034-4e-3 0-0.046-3e-3 -0.104-4e-3 -4.364-0.237-8.006 1.836-9.656 5.612-0.1 0.229-0.361 1.036-0.252 2.025 0.06-0.505 0.189-0.88 0.252-1.025 1.65-3.776 5.292-5.849 9.656-5.612 0.058 1e-3 0.1 4e-3 0.104 4e-3 0.25 0.016 0.272 0.018 0.521 0.034 0.19 0.012 2.78 0.085 6.477 0.859 2.431 0.077 3.604-0.925 4.652-2.586-0.152-0.109-0.322-0.205-0.486-0.303zm-36.502 11.416c-0.27 10.603 7.9903 19.634 18.754 20.307 0.072 3e-3 0.143 4e-3 0.214 0.01 0.043 2e-3 0.083 9e-3 0.125 0.011 0.012 0 0.023-5e-3 0.036-7e-3h0.025c0.44 0.027-0.298-0.01 0.195 0.021 1.79 0.111 4.248 0.053 6.83-0.613 1.936-0.5 3.398-1.571 5.954-2.826 0.645-0.317 2.63-0.712 4.779-1.543l-0.332-0.885c-2.016 0.745-3.837 1.128-4.447 1.428-2.556 1.255-4.018 2.326-5.954 2.826-2.582 0.666-5.04 0.724-6.83 0.613-0.493-0.031 0.245 6e-3 -0.195-0.021h-0.025c-0.013 2e-3 -0.024 7e-3 -0.036 7e-3 -0.042-2e-3 -0.082-9e-3 -0.125-0.011-0.071-6e-3 -0.142-7e-3 -0.214-0.01-10.424-0.651-18.499-9.142-18.754-19.307zm14.533 3.977c-0.255 0.017-0.202 0.318-0.024 0.605 0.106 0.175 0.21 0.316 0.311 0.467 0.262 0.139 0.523 0.465 0.953 0.815 1.323 1.072 3.261 1.546 4.258 1.224-0.305-0.282-0.588-0.586-0.852-0.906-1.033-0.035-2.397-0.5-3.406-1.318-0.583-0.475-0.858-0.912-1.24-0.887zm20.502 6.39c-0.431 0.31-0.937 0.647-1.68 1.084-0.43 0.256 0.017 0.796 0.682 0.385 0.323-0.141 0.811-0.416 1.291-0.687l-0.293-0.782z" opacity=".2"/>
 <path d="m30.723 17.006c-3.54 0.138-6.485 2.945-6.711 6.555l2e-3 -2e-3c-0.02 0.306-0.01 0.608 9e-3 0.906 0.291-3.802 3.596-6.691 7.415-6.451 3.546 0.223 6.305 3.062 6.539 6.511 2e-3 -0.029 7e-3 -0.056 9e-3 -0.086 0.242-3.851-2.693-7.182-6.548-7.425-0.241-0.015-0.479-0.017-0.715-8e-3z" fill="#fff" opacity=".2"/>
 <path d="m24.023 24.465c-2e-3 0.032-9e-3 0.063-0.011 0.096l2e-3 -2e-3c-0.243 3.854 2.692 7.184 6.545 7.427 3.85 0.243 7.183-2.694 7.427-6.547 0.02-0.309 0.011-0.612-9e-3 -0.914-0.289 3.81-3.597 6.703-7.418 6.461-3.547-0.223-6.308-3.064-6.536-6.521z" opacity=".2"/>
</svg>
