<svg width="48" height="48" version="1" xmlns="http://www.w3.org/2000/svg">
 <circle cx="24" cy="24" r="20" style="fill:#4f4f4f"/>
 <path d="m24 12c-7.1797 0-13 5.8203-13 13s5.8203 13 13 13 13-5.8203 13-13-5.8203-13-13-13zm0 3c5.5228 0 10 4.4772 10 10s-4.4772 10-10 10-10-4.4772-10-10 4.4772-10 10-10zm0 4c-1.108 0-2 0.93613-2 2.0938v7.8125c0 1.158 0.892 2.094 2 2.094s2-0.93613 2-2.0938v-7.8125c0-1.158-0.892-2.094-2-2.094z" style="fill-rule:evenodd;opacity:.2"/>
 <path d="m24 11c-7.18 0-13 5.82-13 13s5.82 13 13 13 13-5.82 13-13-5.82-13-13-13zm0 3c5.523 0 10 4.477 10 10s-4.477 10-10 10-10-4.477-10-10 4.477-10 10-10zm0 4c-1.108 0-2 0.936-2 2.094v7.812c0 1.158 0.892 2.094 2 2.094s2-0.936 2-2.094v-7.812c0-1.158-0.892-2.094-2-2.094z" style="fill-rule:evenodd;fill:#ffffff"/>
 <path d="M 24,4 A 20,20 0 0 0 4,24 20,20 0 0 0 4.0215,24.582 20,20 0 0 1 23.9995,5 20,20 0 0 1 43.9785,24.418 20,20 0 0 0 43.9995,24 a 20,20 0 0 0 -20,-20 z" style="fill:#ffffff;opacity:.1"/>
 <path d="M 43.979,24.418 A 20,20 0 0 1 24,44 20,20 0 0 1 4.022,24.582 20,20 0 0 0 4,25 20,20 0 0 0 24,45 20,20 0 0 0 44,25 20,20 0 0 0 43.979,24.418 Z" style="opacity:.2"/>
 <circle cx="37" cy="36" r="11" style="opacity:.2"/>
 <circle cx="37" cy="35" r="11" style="fill:#cd4242"/>
 <path d="m37 28a1 1 0 0 0 -1 1v5 1 1h7a1 1 0 0 0 1 -1 1 1 0 0 0 -1 -1h-5v-5a1 1 0 0 0 -1 -1z" style="fill:#ffffff"/>
</svg>
