<svg width="48" height="48" version="1" xmlns="http://www.w3.org/2000/svg">
 <path d="m40 42v-36c0-1.108-0.892-2-2-2h-28c-1.108 0-2 0.892-2 2v36c0 1.108 0.892 2 2 2h28c1.108 0 2-0.892 2-2z" fill="#ccc"/>
 <path d="m10 4c-1.108 0-2 0.892-2 2v1c0-1.108 0.892-2 2-2h28c1.108 0 2 0.892 2 2v-1c0-1.108-0.892-2-2-2z" fill="#fff" opacity=".2"/>
 <path d="m8 42v1c0 1.108 0.892 2 2 2h28c1.108 0 2-0.892 2-2v-1c0 1.108-0.892 2-2 2h-28c-1.108 0-2-0.892-2-2z" opacity=".2"/>
 <circle cx="36" cy="37" r="11" opacity=".2"/>
 <path d="m14.5 17c-0.813703 0-1.5 0.686297-1.5 1.5v10c0 0.813703 0.686297 1.5 1.5 1.5h19c0.813703 0 1.5-0.686297 1.5-1.5v-10c0-0.813703-0.686297-1.5-1.5-1.5h-19zm0.5 2h18v9h-18v-9zm2 1v7h2v-4.199219l2 2 2-2v4.199219h2v-7h-2l-2 2-2-2h-2zm11 0v4h-2l2.5 3h1l2.5-3h-2v-4h-2z" style="opacity:.5"/>
 <circle cx="36" cy="36" r="11" fill="#ff8c50"/>
 <path d="m30 39.327v2.673h2.6728l6.7507-6.7507-2.6728-2.6728zm11.788-6.4337c0.28271-0.28271 0.28271-0.72818 0-1.0109l-1.6705-1.6705c-0.28271-0.28271-0.72818-0.28271-1.0109 0l-1.3964 1.405 2.6728 2.6728z" fill="#fff"/>
</svg>
