<svg width="48" height="48" version="1" xmlns="http://www.w3.org/2000/svg">
 <rect transform="matrix(0,-1,-1,0,0,0)" x="-45" y="-45" width="40" height="42" rx="2" ry="2.1" style="opacity:.2"/>
 <rect transform="matrix(0,-1,-1,0,0,0)" x="-44" y="-45" width="40" height="42" rx="2" ry="2.1" style="fill:#4f4f4f"/>
 <g transform="translate(0,1)" style="opacity:.2">
  <path d="m5 38h6v3h-6z"/>
  <path d="m5 33h6v3h-6z"/>
  <path d="m5 28h6v3h-6z"/>
  <path d="m5 23h6v3h-6z"/>
  <path d="m5 18h6v3h-6z"/>
  <path d="m13 38h6v3h-6z"/>
  <path d="m13 33h6v3h-6z"/>
  <path d="m13 28h6v3h-6z"/>
  <path d="m21 38h6v3h-6z"/>
  <path d="m21 33h6v3h-6z"/>
  <path d="m21 28h6v3h-6z"/>
  <path d="m21 23h6v3h-6z"/>
  <path d="m21 18h6v3h-6z"/>
  <path d="m21 13h6v3h-6z"/>
  <path d="m29 38h6v3h-6z"/>
  <path d="m29 33h6v3h-6z"/>
  <path d="m29 28h6v3h-6z"/>
  <path d="m29 23h6v3h-6z"/>
  <path d="m29 18h6v3h-6z"/>
  <path d="m37 38h6v3h-6z"/>
  <path d="m37 33h6v3h-6z"/>
  <path d="m37 28h6v3h-6z"/>
  <path d="m37 23h6v3h-6z"/>
  <path d="m37 18h6v3h-6z"/>
  <path d="m37 13h6v3h-6z"/>
  <path d="m37 8h6v3h-6z"/>
  <path d="m5 38h6v3h-6z"/>
  <path d="m5 33h6v3h-6z"/>
  <path d="m5 28h6v3h-6z"/>
  <path d="m5 23h6v3h-6z"/>
  <path d="m5 18h6v3h-6z"/>
  <path d="m13 38h6v3h-6z"/>
  <path d="m13 33h6v3h-6z"/>
  <path d="m13 28h6v3h-6z"/>
  <path d="m21 38h6v3h-6z"/>
  <path d="m21 33h6v3h-6z"/>
  <path d="m21 28h6v3h-6z"/>
  <path d="m21 23h6v3h-6z"/>
  <path d="m21 18h6v3h-6z"/>
  <path d="m21 13h6v3h-6z"/>
  <path d="m29 38h6v3h-6z"/>
  <path d="m29 33h6v3h-6z"/>
  <path d="m29 28h6v3h-6z"/>
  <path d="m29 23h6v3h-6z"/>
  <path d="m29 18h6v3h-6z"/>
  <path d="m37 38h6v3h-6z"/>
  <path d="m37 33h6v3h-6z"/>
  <path d="m37 28h6v3h-6z"/>
  <path d="m37 23h6v3h-6z"/>
  <path d="m37 18h6v3h-6z"/>
  <path d="m37 13h6v3h-6z"/>
  <path d="m37 8h6v3h-6z"/>
 </g>
 <path d="m5 38h6v3h-6z" style="fill:#933333"/>
 <path d="m5 33h6v3h-6z" style="fill:#933333"/>
 <path d="m5 28h6v3h-6z" style="fill:#933333"/>
 <path d="m5 23h6v3h-6z" style="fill:#f88383"/>
 <path d="m5 18h6v3h-6z" style="fill:#f88383"/>
 <path d="m13 38h6v3h-6z" style="fill:#e8aa34"/>
 <path d="m13 33h6v3h-6z" style="fill:#e8aa34"/>
 <path d="m13 28h6v3h-6z" style="fill:#e8aa34"/>
 <path d="m21 38h6v3h-6z" style="fill:#76185e"/>
 <path d="m21 33h6v3h-6z" style="fill:#76185e"/>
 <path d="m21 28h6v3h-6z" style="fill:#76185e"/>
 <path d="m21 23h6v3h-6z" style="fill:#e272c5"/>
 <path d="m21 18h6v3h-6z" style="fill:#e272c5"/>
 <path d="m21 13h6v3h-6z" style="fill:#e272c5"/>
 <path d="m29 38h6v3h-6z" style="fill:#4ab225"/>
 <path d="m29 33h6v3h-6z" style="fill:#4ab225"/>
 <path d="m29 28h6v3h-6z" style="fill:#4ab225"/>
 <path d="m29 23h6v3h-6z" style="fill:#98e97b"/>
 <path d="m29 18h6v3h-6z" style="fill:#98e97b"/>
 <path d="m37 38h6v3h-6z" style="fill:#0f3b95"/>
 <path d="m37 33h6v3h-6z" style="fill:#0f3b95"/>
 <path d="m37 28h6v3h-6z" style="fill:#0f3b95"/>
 <path d="m37 23h6v3h-6z" style="fill:#4fc2e1"/>
 <path d="m37 18h6v3h-6z" style="fill:#4fc2e1"/>
 <path d="m37 13h6v3h-6z" style="fill:#4fc2e1"/>
 <path d="m37 8h6v3h-6z" style="fill:#4fc2e1"/>
 <path d="m5 38h6v3h-6z" style="fill:#933333"/>
 <path d="m5 33h6v3h-6z" style="fill:#933333"/>
 <path d="m5 28h6v3h-6z" style="fill:#933333"/>
 <path d="m5 23h6v3h-6z" style="fill:#f88383"/>
 <path d="m5 18h6v3h-6z" style="fill:#f88383"/>
 <path d="m13 38h6v3h-6z" style="fill:#e8aa34"/>
 <path d="m13 33h6v3h-6z" style="fill:#e8aa34"/>
 <path d="m13 28h6v3h-6z" style="fill:#e8aa34"/>
 <path d="m21 38h6v3h-6z" style="fill:#76185e"/>
 <path d="m21 33h6v3h-6z" style="fill:#76185e"/>
 <path d="m21 28h6v3h-6z" style="fill:#76185e"/>
 <path d="m21 23h6v3h-6z" style="fill:#e272c5"/>
 <path d="m21 18h6v3h-6z" style="fill:#e272c5"/>
 <path d="m21 13h6v3h-6z" style="fill:#e272c5"/>
 <path d="m29 38h6v3h-6z" style="fill:#4ab225"/>
 <path d="m29 33h6v3h-6z" style="fill:#4ab225"/>
 <path d="m29 28h6v3h-6z" style="fill:#4ab225"/>
 <path d="m29 23h6v3h-6z" style="fill:#98e97b"/>
 <path d="m29 18h6v3h-6z" style="fill:#98e97b"/>
 <path d="m37 38h6v3h-6z" style="fill:#0f3b95"/>
 <path d="m37 33h6v3h-6z" style="fill:#0f3b95"/>
 <path d="m37 28h6v3h-6z" style="fill:#0f3b95"/>
 <path d="m37 23h6v3h-6z" style="fill:#4fc2e1"/>
 <path d="m37 18h6v3h-6z" style="fill:#4fc2e1"/>
 <path d="m37 13h6v3h-6z" style="fill:#4fc2e1"/>
 <path d="m37 8h6v3h-6z" style="fill:#4fc2e1"/>
 <path d="m5.0996094 4c-1.1634 0-2.0996094 0.892-2.0996094 2v1c0-1.108 0.9362094-2 2.0996094-2h37.800782c1.1634 0 2.099609 0.892 2.099609 2v-1c0-1.108-0.936209-2-2.099609-2h-37.800782z" style="fill:#ffffff;opacity:.1"/>
</svg>
