<svg width="48" height="48" version="1" xmlns="http://www.w3.org/2000/svg">
 <path d="m24 4h-18c-1.108 0-2 0.892-2 2v18h20z" style="fill:#cf4f8c"/>
 <path d="m24 4h18c1.108 0 2 0.892 2 2v18h-20z" style="fill:#c72566"/>
 <path d="m24 44h-18c-1.108 0-2-0.892-2-2v-18h20z" style="fill:#6655e4"/>
 <path d="m24 44h18c1.108 0 2-0.892 2-2v-18h-20z" style="fill:#cf4f8c"/>
 <path d="m6 4c-1.108 0-2 0.892-2 2v1c0-1.108 0.892-2 2-2h36c1.108 0 2 0.892 2 2v-1c0-1.108-0.892-2-2-2h-36z" fill="#fff" opacity=".2"/>
 <path d="m6 45c-1.108 0-2-0.892-2-2v-1c0 1.108 0.892 2 2 2h36c1.108 0 2-0.892 2-2v1c0 1.108-0.892 2-2 2h-36z" opacity=".2"/>
 <rect x="10" y="10" width="28" height="28" style="fill:#3f3f3f"/>
 <path d="m16 32.9999h8" style="fill:none;opacity:.2;stroke-linecap:round;stroke-width:2;stroke:#000000"/>
 <path d="m16 32h8" style="fill:none;stroke-linecap:round;stroke-width:2;stroke:#ffffff"/>
 <path d="m16 24.9999s4.043782 0.350249 3.999999-3.999999c-0.04378-4.350263-3.999999-4.000002-3.999999-4.000002m-0.0141 7.993587v-7.999998" style="fill:none;opacity:.2;stroke-linecap:round;stroke-linejoin:bevel;stroke-width:1.9999999;stroke:#000000"/>
 <path d="m16 24s4.043782 0.350249 3.999999-3.999999c-0.04378-4.350263-3.999999-4.000002-3.999999-4.000002m-0.0141 7.993587v-7.999998" style="fill:none;stroke-linecap:round;stroke-linejoin:bevel;stroke-width:1.9999999;stroke:#ffffff"/>
 <path d="m 23.999998,16.9999 h 3.999999 M 26,24.999902 V 16.9999" style="fill:none;opacity:.2;stroke-linecap:round;stroke-width:1.9999999;stroke:#000000"/>
 <path d="m 23.999998,16 h 3.999999 M 26,24.000002 V 16" style="fill:none;stroke-linecap:round;stroke-width:1.9999999;stroke:#ffffff"/>
</svg>
