<svg version="1.1" viewBox="0 0 48 48" xmlns="http://www.w3.org/2000/svg">
 <path d="m6 11h36c1.069 0 2 0.93096 2 2v22c0 1.069-0.93096 2-2 2h-36c-1.069 0-2-0.931-2-2v-22c0-1.069 0.93096-2 2-2z" fill="#ccc"/>
 <path d="m36.859 16c3.4283 7.9e-4 3.1287 3.5563 3.1287 3.5563v3.1109c0 1.1444-1.488 3.3328-1.488 3.3328v2l3.4995 1.7128v2.2872h-12v-2.2872l3.5004-1.7128v-2s-1.4923-2.186-1.484-3.3328v-3.1109s-0.3-3.5555 3.1283-3.5563" opacity=".2"/>
 <path d="m8 27-3-3 3-3z" fill="#289b36"/>
 <path d="m4 35v1c0 1.108 0.892 2 2 2h36c1.108 0 2-0.892 2-2v-1c0 1.108-0.892 2-2 2h-36c-1.108 0-2-0.892-2-2z" opacity=".2"/>
 <path d="m6 11c-1.108 0-2 0.892-2 2v1c0-1.108 0.892-2 2-2h36c1.108 0 2 0.892 2 2v-1c0-1.108-0.892-2-2-2z" fill="#fff" opacity=".2"/>
 <path d="m10.25 20h7.5c0.63449 0 1.25 0.65655 1.25 1.3333v5.3333c0 0.677-0.616 1.334-1.25 1.334h-7.5c-0.6345 0-1.25-0.657-1.25-1.333v-5.334c0-0.676 0.6155-1.333 1.25-1.333z" fill="#ecb64e"/>
 <circle transform="rotate(-45)" cx="-.70109" cy="30.4" r="8" fill="#484848"/>
 <rect transform="rotate(-45)" x="-2.7011" y="36.4" width="4" height="11" rx="2" ry="2" fill="#484848"/>
 <path d="m21 18c-2.782 0-5 2.2212-5 5 0 2.7787 2.218 5 5 5s5-2.2212 5-5-2.218-5-5-5z" opacity=".2" stroke-width="1.555"/>
 <path d="m21 17c-2.782 0-5 2.2212-5 5 0 2.7787 2.218 5 5 5s5-2.2212 5-5-2.218-5-5-5z" fill="#5d99ff" stroke-width="1.555"/>
</svg>
