<svg width="48" height="48" version="1" xmlns="http://www.w3.org/2000/svg">
 <rect transform="matrix(0,-1,-1,0,0,0)" x="-44" y="-44" width="40" height="40" rx="2" ry="2" style="fill:#6493a6"/>
 <path d="m4 7v-1c0-1.108 0.892-2 2-2h36c1.108 0 2 0.892 2 2v1c0-1.108-0.892-2-2-2h-36c-1.108 0-2 0.892-2 2z" fill="#fff" opacity=".2"/>
 <path d="m4 42v1c0 1.108 0.892 2 2 2h36c1.108 0 2-0.892 2-2v-1c0 1.108-0.892 2-2 2h-36c-1.108 0-2-0.892-2-2z" opacity=".2"/>
 <path d="m24 11v4h2c2.285189 0 4 1.714811 4 4v4c0 2.285189-1.714811 4-4 4h-2v4h2c4.432 0 8-3.568 8-8v-4c0-4.432-3.568-8-8-8h-2z" style="opacity:.2"/>
 <path d="m24 10v4h2c2.285189 0 4 1.714811 4 4v4c0 2.285189-1.714811 4-4 4h-2v4h2c4.432 0 8-3.568 8-8v-4c0-4.432-3.568-8-8-8h-2z" style="fill:#ffffff"/>
 <path d="m22 11c-4.432 0-8 3.568-8 8v4 4 4 6.355469 1.644531c0 1.108 0.892 2 2 2s2-0.892 2-2v-8h4 2v-4h-2c-2.285189 0-4-1.714811-4-4v-4c0-2.285189 1.714811-4 4-4h2v-4h-2z" style="opacity:.2"/>
 <path d="m22 10c-4.432 0-8 3.568-8 8v4 4 4 6.355469 1.644531c0 1.108 0.892 2 2 2s2-0.892 2-2v-8h4 2v-4h-2c-2.285189 0-4-1.714811-4-4v-4c0-2.285189 1.714811-4 4-4h2v-4h-2z" style="fill:#3f3f3f"/>
</svg>
