<svg width="48" height="48" version="1" xmlns="http://www.w3.org/2000/svg">
 <rect transform="matrix(0,-1,-1,0,0,0)" x="-44.2" y="-44.2" width="40" height="40" rx="2" ry="2" style="fill:#29679e"/>
 <path d="m6 4c-1.108 0-2 0.892-2 2v1c0-1.108 0.892-2 2-2h36c1.108 0 2 0.892 2 2v-1c0-1.108-0.892-2-2-2h-36z" style="fill:#ffffff;opacity:.1"/>
 <path d="m6 45c-1.108 0-2-0.892-2-2v-1c0 1.108 0.892 2 2 2h36c1.108 0 2-0.892 2-2v1c0 1.108-0.892 2-2 2h-36z" style="opacity:.2"/>
 <path d="m9.5996 9c-0.8864 0-1.5996 0.7132-1.5996 1.6v28.8c0 0.887 0.7132 1.6 1.5996 1.6h28.8c0.887 0 1.6-0.713 1.6-1.6v-28.8c0-0.8868-0.713-1.6-1.6-1.6h-28.8zm7.4004 7l8 4.5 8 4.5-8 4.5-8 4.5v-18z" style="opacity:.2"/>
 <path d="m9.5996 8c-0.8864 0-1.5996 0.7132-1.5996 1.5996v28.8c0 0.887 0.7132 1.6 1.5996 1.6h28.8c0.887 0 1.6-0.713 1.6-1.6v-28.8c0-0.8868-0.713-1.6-1.6-1.6h-28.8z" style="fill:#ffffff"/>
 <path d="m17 15 8 4.5 8 4.5-8 4.5-8 4.5v-18z" style="fill:#29679e"/>
</svg>
