<svg width="48" height="48" version="1.0" xmlns="http://www.w3.org/2000/svg">
 <text x="877.22626" y="10.812601" font-family="'Bitstream Vera Sans'" font-size="12.666px" opacity=".8" xml:space="preserve"><tspan x="877.22626" y="10.812601"/></text>
 <text x="901.18719" y="-29.929106" font-family="'Bitstream Vera Sans'" font-size="12.666px" opacity=".8" xml:space="preserve"><tspan x="901.18719" y="-29.929106"/></text>
 <text x="-569.37115" y="-60.007248" font-family="'Bitstream Vera Sans'" font-size="12.666px" opacity=".8" xml:space="preserve"><tspan x="-569.37115" y="-60.007248"/></text>
 <text x="-2393.0571" y="685.5462" font-family="'Bitstream Vera Sans'" font-size="12.666px" opacity=".8" xml:space="preserve"><tspan x="-2393.0571" y="685.5462"/></text>
 <text x="-454.88007" y="-445.32822" font-family="'Bitstream Vera Sans'" font-size="12.666px" opacity=".8" xml:space="preserve"><tspan x="-454.88007" y="-445.32822"/></text>
 <text x="352.72208" y="-858.79834" font-family="'Bitstream Vera Sans'" font-size="12.666px" opacity=".8" xml:space="preserve"><tspan x="352.72208" y="-858.79834"/></text>
 <text x="376.68301" y="-899.54004" font-family="'Bitstream Vera Sans'" font-size="12.666px" opacity=".8" xml:space="preserve"><tspan x="376.68301" y="-899.54004"/></text>
 <text x="-1114.7802" y="-906.74994" font-family="'Bitstream Vera Sans'" font-size="12.666px" opacity=".8" xml:space="preserve"><tspan x="-1114.7802" y="-906.74994"/></text>
 <text x="345.7626" y="-1179.9841" font-family="'Bitstream Vera Sans'" font-size="12.666px" opacity=".8" xml:space="preserve"><tspan x="345.7626" y="-1179.9841"/></text>
 <text x="1831.8861" y="-553.29272" font-family="'Bitstream Vera Sans'" font-size="12.666px" opacity=".8" xml:space="preserve"><tspan x="1831.8861" y="-553.29272"/></text>
 <text x="1855.8469" y="-594.03448" font-family="'Bitstream Vera Sans'" font-size="12.666px" opacity=".8" xml:space="preserve"><tspan x="1855.8469" y="-594.03448"/></text>
 <text x="364.38376" y="-601.24438" font-family="'Bitstream Vera Sans'" font-size="12.666px" opacity=".8" xml:space="preserve"><tspan x="364.38376" y="-601.24438"/></text>
 <text x="1824.9266" y="-874.47839" font-family="'Bitstream Vera Sans'" font-size="12.666px" opacity=".8" xml:space="preserve"><tspan x="1824.9266" y="-874.47839"/></text>
 <text x="-573.43256" y="-649.33569" font-family="'Bitstream Vera Sans'" font-size="12.666px" opacity=".8" xml:space="preserve"><tspan x="-573.43256" y="-649.33569"/></text>
 <text x="-2397.1182" y="96.217857" font-family="'Bitstream Vera Sans'" font-size="12.666px" opacity=".8" xml:space="preserve"><tspan x="-2397.1182" y="96.217857"/></text>
 <text x="-682.36279" y="189.09" font-family="'Bitstream Vera Sans'" font-size="12.666px" opacity=".8" xml:space="preserve"><tspan x="-682.36279" y="189.09"/></text>
 <text x="426.66153" y="9.9078522" font-family="'Bitstream Vera Sans'" font-size="12.666px" opacity=".8" xml:space="preserve"><tspan x="426.66153" y="9.9078522"/></text>
 <text x="450.62247" y="-30.833855" font-family="'Bitstream Vera Sans'" font-size="12.666px" opacity=".8" xml:space="preserve"><tspan x="450.62247" y="-30.833855"/></text>
 <text x="-1040.8407" y="-38.043827" font-family="'Bitstream Vera Sans'" font-size="12.666px" opacity=".8" xml:space="preserve"><tspan x="-1040.8407" y="-38.043827"/></text>
 <text x="419.70206" y="-311.27789" font-family="'Bitstream Vera Sans'" font-size="12.666px" opacity=".8" xml:space="preserve"><tspan x="419.70206" y="-311.27789"/></text>
 <text x="-608.03253" y="-40.758072" font-family="'Bitstream Vera Sans'" font-size="12.666px" opacity=".8" xml:space="preserve"><tspan x="-608.03253" y="-40.758072"/></text>
 <text x="-2431.7185" y="704.79541" font-family="'Bitstream Vera Sans'" font-size="12.666px" opacity=".8" xml:space="preserve"><tspan x="-2431.7185" y="704.79541"/></text>
 <text x="-456.93948" y="-902.28857" font-family="'Bitstream Vera Sans'" font-size="12.666px" opacity=".8" xml:space="preserve"><tspan x="-456.93948" y="-902.28857"/></text>
 <text x="350.66266" y="-1315.7588" font-family="'Bitstream Vera Sans'" font-size="12.666px" opacity=".8" xml:space="preserve"><tspan x="350.66266" y="-1315.7588"/></text>
 <text x="374.62357" y="-1356.5005" font-family="'Bitstream Vera Sans'" font-size="12.666px" opacity=".8" xml:space="preserve"><tspan x="374.62357" y="-1356.5005"/></text>
 <text x="-1116.8396" y="-1363.7104" font-family="'Bitstream Vera Sans'" font-size="12.666px" opacity=".8" xml:space="preserve"><tspan x="-1116.8396" y="-1363.7104"/></text>
 <text x="343.70316" y="-1636.9446" font-family="'Bitstream Vera Sans'" font-size="12.666px" opacity=".8" xml:space="preserve"><tspan x="343.70316" y="-1636.9446"/></text>
 <text x="1829.8265" y="-1010.2533" font-family="'Bitstream Vera Sans'" font-size="12.666px" opacity=".8" xml:space="preserve"><tspan x="1829.8265" y="-1010.2533"/></text>
 <text x="1853.7874" y="-1050.9949" font-family="'Bitstream Vera Sans'" font-size="12.666px" opacity=".8" xml:space="preserve"><tspan x="1853.7874" y="-1050.9949"/></text>
 <text x="362.32431" y="-1058.2048" font-family="'Bitstream Vera Sans'" font-size="12.666px" opacity=".8" xml:space="preserve"><tspan x="362.32431" y="-1058.2048"/></text>
 <text x="1822.8671" y="-1331.439" font-family="'Bitstream Vera Sans'" font-size="12.666px" opacity=".8" xml:space="preserve"><tspan x="1822.8671" y="-1331.439"/></text>
 <text x="-575.492" y="-1106.2961" font-family="'Bitstream Vera Sans'" font-size="12.666px" opacity=".8" xml:space="preserve"><tspan x="-575.492" y="-1106.2961"/></text>
 <text x="-2399.1777" y="-360.74261" font-family="'Bitstream Vera Sans'" font-size="12.666px" opacity=".8" xml:space="preserve"><tspan x="-2399.1777" y="-360.74261"/></text>
 <text x="-684.42224" y="-267.87045" font-family="'Bitstream Vera Sans'" font-size="12.666px" opacity=".8" xml:space="preserve"><tspan x="-684.42224" y="-267.87045"/></text>
 <text x="155.5923" y="-26.956278" font-family="'Bitstream Vera Sans'" font-size="12.666px" opacity=".8" xml:space="preserve"><tspan x="155.5923" y="-26.956278"/></text>
 <text x="179.55324" y="-67.697998" font-family="'Bitstream Vera Sans'" font-size="12.666px" opacity=".8" xml:space="preserve"><tspan x="179.55324" y="-67.697998"/></text>
 <text x="-1090.2634" y="-261.72662" font-family="'Bitstream Vera Sans'" font-size="12.666px" opacity=".8" xml:space="preserve"><tspan x="-1090.2634" y="-261.72662"/></text>
 <text x="-282.66141" y="-675.19678" font-family="'Bitstream Vera Sans'" font-size="12.666px" opacity=".8" xml:space="preserve"><tspan x="-282.66141" y="-675.19678"/></text>
 <text x="-258.70047" y="-715.93848" font-family="'Bitstream Vera Sans'" font-size="12.666px" opacity=".8" xml:space="preserve"><tspan x="-258.70047" y="-715.93848"/></text>
 <text x="-1750.1636" y="-723.14838" font-family="'Bitstream Vera Sans'" font-size="12.666px" opacity=".8" xml:space="preserve"><tspan x="-1750.1636" y="-723.14838"/></text>
 <text x="-289.62085" y="-996.38251" font-family="'Bitstream Vera Sans'" font-size="12.666px" opacity=".8" xml:space="preserve"><tspan x="-289.62085" y="-996.38251"/></text>
 <text x="1196.5026" y="-369.69113" font-family="'Bitstream Vera Sans'" font-size="12.666px" opacity=".8" xml:space="preserve"><tspan x="1196.5026" y="-369.69113"/></text>
 <text x="1220.4634" y="-410.43286" font-family="'Bitstream Vera Sans'" font-size="12.666px" opacity=".8" xml:space="preserve"><tspan x="1220.4634" y="-410.43286"/></text>
 <text x="-270.99973" y="-417.64282" font-family="'Bitstream Vera Sans'" font-size="12.666px" opacity=".8" xml:space="preserve"><tspan x="-270.99973" y="-417.64282"/></text>
 <text x="1189.5431" y="-690.87689" font-family="'Bitstream Vera Sans'" font-size="12.666px" opacity=".8" xml:space="preserve"><tspan x="1189.5431" y="-690.87689"/></text>
 <text x="-1208.816" y="-465.7341" font-family="'Bitstream Vera Sans'" font-size="12.666px" opacity=".8" xml:space="preserve"><tspan x="-1208.816" y="-465.7341"/></text>
 <text x="-3032.5017" y="279.81946" font-family="'Bitstream Vera Sans'" font-size="12.666px" opacity=".8" xml:space="preserve"><tspan x="-3032.5017" y="279.81946"/></text>
 <g transform="matrix(.90475 0 0 .90475 -716.75 -676.29)">
  <text x="-664.2738" y="1159.4154" font-family="'Bitstream Vera Sans'" font-size="14px" opacity=".8" xml:space="preserve"><tspan x="-664.2738" y="1159.4154"/></text>
 </g>
 <text x="877.22626" y="18.050589" font-family="'Bitstream Vera Sans'" font-size="12.666px" opacity=".8" xml:space="preserve"><tspan x="877.22626" y="18.050589"/></text>
 <text x="901.18719" y="-22.691116" font-family="'Bitstream Vera Sans'" font-size="12.666px" opacity=".8" xml:space="preserve"><tspan x="901.18719" y="-22.691116"/></text>
 <text x="-569.37115" y="-52.76926" font-family="'Bitstream Vera Sans'" font-size="12.666px" opacity=".8" xml:space="preserve"><tspan x="-569.37115" y="-52.76926"/></text>
 <text x="-2393.0571" y="692.78418" font-family="'Bitstream Vera Sans'" font-size="12.666px" opacity=".8" xml:space="preserve"><tspan x="-2393.0571" y="692.78418"/></text>
 <text x="-454.88007" y="-438.09021" font-family="'Bitstream Vera Sans'" font-size="12.666px" opacity=".8" xml:space="preserve"><tspan x="-454.88007" y="-438.09021"/></text>
 <text x="352.72208" y="-851.5603" font-family="'Bitstream Vera Sans'" font-size="12.666px" opacity=".8" xml:space="preserve"><tspan x="352.72208" y="-851.5603"/></text>
 <text x="376.68301" y="-892.30206" font-family="'Bitstream Vera Sans'" font-size="12.666px" opacity=".8" xml:space="preserve"><tspan x="376.68301" y="-892.30206"/></text>
 <text x="-1114.7802" y="-899.51196" font-family="'Bitstream Vera Sans'" font-size="12.666px" opacity=".8" xml:space="preserve"><tspan x="-1114.7802" y="-899.51196"/></text>
 <text x="345.7626" y="-1172.7461" font-family="'Bitstream Vera Sans'" font-size="12.666px" opacity=".8" xml:space="preserve"><tspan x="345.7626" y="-1172.7461"/></text>
 <text x="1831.8861" y="-546.05475" font-family="'Bitstream Vera Sans'" font-size="12.666px" opacity=".8" xml:space="preserve"><tspan x="1831.8861" y="-546.05475"/></text>
 <text x="1855.8469" y="-586.79651" font-family="'Bitstream Vera Sans'" font-size="12.666px" opacity=".8" xml:space="preserve"><tspan x="1855.8469" y="-586.79651"/></text>
 <text x="364.38376" y="-594.00641" font-family="'Bitstream Vera Sans'" font-size="12.666px" opacity=".8" xml:space="preserve"><tspan x="364.38376" y="-594.00641"/></text>
 <text x="1824.9266" y="-867.24036" font-family="'Bitstream Vera Sans'" font-size="12.666px" opacity=".8" xml:space="preserve"><tspan x="1824.9266" y="-867.24036"/></text>
 <text x="-573.43256" y="-642.09772" font-family="'Bitstream Vera Sans'" font-size="12.666px" opacity=".8" xml:space="preserve"><tspan x="-573.43256" y="-642.09772"/></text>
 <text x="-2397.1182" y="103.45585" font-family="'Bitstream Vera Sans'" font-size="12.666px" opacity=".8" xml:space="preserve"><tspan x="-2397.1182" y="103.45585"/></text>
 <text x="-682.36279" y="196.32799" font-family="'Bitstream Vera Sans'" font-size="12.666px" opacity=".8" xml:space="preserve"><tspan x="-682.36279" y="196.32799"/></text>
 <text x="426.66153" y="17.14584" font-family="'Bitstream Vera Sans'" font-size="12.666px" opacity=".8" xml:space="preserve"><tspan x="426.66153" y="17.14584"/></text>
 <text x="450.62247" y="-23.595865" font-family="'Bitstream Vera Sans'" font-size="12.666px" opacity=".8" xml:space="preserve"><tspan x="450.62247" y="-23.595865"/></text>
 <text x="-1040.8407" y="-30.805836" font-family="'Bitstream Vera Sans'" font-size="12.666px" opacity=".8" xml:space="preserve"><tspan x="-1040.8407" y="-30.805836"/></text>
 <text x="419.70206" y="-304.03989" font-family="'Bitstream Vera Sans'" font-size="12.666px" opacity=".8" xml:space="preserve"><tspan x="419.70206" y="-304.03989"/></text>
 <text x="-608.03253" y="-33.520081" font-family="'Bitstream Vera Sans'" font-size="12.666px" opacity=".8" xml:space="preserve"><tspan x="-608.03253" y="-33.520081"/></text>
 <text x="-2431.7185" y="712.03345" font-family="'Bitstream Vera Sans'" font-size="12.666px" opacity=".8" xml:space="preserve"><tspan x="-2431.7185" y="712.03345"/></text>
 <text x="-456.93948" y="-895.0506" font-family="'Bitstream Vera Sans'" font-size="12.666px" opacity=".8" xml:space="preserve"><tspan x="-456.93948" y="-895.0506"/></text>
 <text x="350.66266" y="-1308.5208" font-family="'Bitstream Vera Sans'" font-size="12.666px" opacity=".8" xml:space="preserve"><tspan x="350.66266" y="-1308.5208"/></text>
 <text x="374.62357" y="-1349.2626" font-family="'Bitstream Vera Sans'" font-size="12.666px" opacity=".8" xml:space="preserve"><tspan x="374.62357" y="-1349.2626"/></text>
 <text x="-1116.8396" y="-1356.4724" font-family="'Bitstream Vera Sans'" font-size="12.666px" opacity=".8" xml:space="preserve"><tspan x="-1116.8396" y="-1356.4724"/></text>
 <text x="343.70316" y="-1629.7065" font-family="'Bitstream Vera Sans'" font-size="12.666px" opacity=".8" xml:space="preserve"><tspan x="343.70316" y="-1629.7065"/></text>
 <text x="1829.8265" y="-1003.0153" font-family="'Bitstream Vera Sans'" font-size="12.666px" opacity=".8" xml:space="preserve"><tspan x="1829.8265" y="-1003.0153"/></text>
 <text x="1853.7874" y="-1043.757" font-family="'Bitstream Vera Sans'" font-size="12.666px" opacity=".8" xml:space="preserve"><tspan x="1853.7874" y="-1043.757"/></text>
 <text x="362.32431" y="-1050.9668" font-family="'Bitstream Vera Sans'" font-size="12.666px" opacity=".8" xml:space="preserve"><tspan x="362.32431" y="-1050.9668"/></text>
 <text x="1822.8671" y="-1324.2009" font-family="'Bitstream Vera Sans'" font-size="12.666px" opacity=".8" xml:space="preserve"><tspan x="1822.8671" y="-1324.2009"/></text>
 <text x="-575.492" y="-1099.0581" font-family="'Bitstream Vera Sans'" font-size="12.666px" opacity=".8" xml:space="preserve"><tspan x="-575.492" y="-1099.0581"/></text>
 <text x="-2399.1777" y="-353.50461" font-family="'Bitstream Vera Sans'" font-size="12.666px" opacity=".8" xml:space="preserve"><tspan x="-2399.1777" y="-353.50461"/></text>
 <text x="-684.42224" y="-260.63245" font-family="'Bitstream Vera Sans'" font-size="12.666px" opacity=".8" xml:space="preserve"><tspan x="-684.42224" y="-260.63245"/></text>
 <text x="155.5923" y="-19.71829" font-family="'Bitstream Vera Sans'" font-size="12.666px" opacity=".8" xml:space="preserve"><tspan x="155.5923" y="-19.71829"/></text>
 <text x="179.55324" y="-60.460011" font-family="'Bitstream Vera Sans'" font-size="12.666px" opacity=".8" xml:space="preserve"><tspan x="179.55324" y="-60.460011"/></text>
 <text x="-1090.2634" y="-254.4886" font-family="'Bitstream Vera Sans'" font-size="12.666px" opacity=".8" xml:space="preserve"><tspan x="-1090.2634" y="-254.4886"/></text>
 <text x="-282.66141" y="-667.9588" font-family="'Bitstream Vera Sans'" font-size="12.666px" opacity=".8" xml:space="preserve"><tspan x="-282.66141" y="-667.9588"/></text>
 <text x="-258.70047" y="-708.7005" font-family="'Bitstream Vera Sans'" font-size="12.666px" opacity=".8" xml:space="preserve"><tspan x="-258.70047" y="-708.7005"/></text>
 <text x="-1750.1636" y="-715.91046" font-family="'Bitstream Vera Sans'" font-size="12.666px" opacity=".8" xml:space="preserve"><tspan x="-1750.1636" y="-715.91046"/></text>
 <text x="-289.62085" y="-989.14447" font-family="'Bitstream Vera Sans'" font-size="12.666px" opacity=".8" xml:space="preserve"><tspan x="-289.62085" y="-989.14447"/></text>
 <text x="1196.5026" y="-362.45316" font-family="'Bitstream Vera Sans'" font-size="12.666px" opacity=".8" xml:space="preserve"><tspan x="1196.5026" y="-362.45316"/></text>
 <text x="1220.4634" y="-403.19489" font-family="'Bitstream Vera Sans'" font-size="12.666px" opacity=".8" xml:space="preserve"><tspan x="1220.4634" y="-403.19489"/></text>
 <text x="-270.99973" y="-410.40482" font-family="'Bitstream Vera Sans'" font-size="12.666px" opacity=".8" xml:space="preserve"><tspan x="-270.99973" y="-410.40482"/></text>
 <text x="1189.5431" y="-683.63892" font-family="'Bitstream Vera Sans'" font-size="12.666px" opacity=".8" xml:space="preserve"><tspan x="1189.5431" y="-683.63892"/></text>
 <text x="-1208.816" y="-458.49609" font-family="'Bitstream Vera Sans'" font-size="12.666px" opacity=".8" xml:space="preserve"><tspan x="-1208.816" y="-458.49609"/></text>
 <text x="-3032.5017" y="287.05743" font-family="'Bitstream Vera Sans'" font-size="12.666px" opacity=".8" xml:space="preserve"><tspan x="-3032.5017" y="287.05743"/></text>
 <g transform="matrix(.90475 0 0 .90475 -716.75 -669.05)">
  <text x="-664.2738" y="1159.4154" font-family="'Bitstream Vera Sans'" font-size="14px" opacity=".8" xml:space="preserve"><tspan x="-664.2738" y="1159.4154"/></text>
 </g>
 <text x="435.90427" y="-361.22546" font-family="'Droid Sans'" font-size="12.666px" xml:space="preserve"><tspan x="435.90427" y="-361.22546"/><tspan x="435.90427" y="-345.3924"/></text>
 <text x="901.0882" y="-843.27002" font-family="'Bitstream Vera Sans'" font-size="12.666px" opacity=".8" xml:space="preserve"><tspan x="901.0882" y="-843.27002"/></text>
 <text x="-922.59778" y="-97.716553" font-family="'Bitstream Vera Sans'" font-size="12.666px" opacity=".8" xml:space="preserve"><tspan x="-922.59778" y="-97.716553"/></text>
 <text x="1628.1677" y="-1128.2659" font-family="'Bitstream Vera Sans'" font-size="12.666px" opacity=".8" xml:space="preserve"><tspan x="1628.1677" y="-1128.2659"/></text>
 <text x="1652.1285" y="-1169.0076" font-family="'Bitstream Vera Sans'" font-size="12.666px" opacity=".8" xml:space="preserve"><tspan x="1652.1285" y="-1169.0076"/></text>
 <text x="160.66542" y="-1176.2175" font-family="'Bitstream Vera Sans'" font-size="12.666px" opacity=".8" xml:space="preserve"><tspan x="160.66542" y="-1176.2175"/></text>
 <text x="1621.2083" y="-1449.4517" font-family="'Bitstream Vera Sans'" font-size="12.666px" opacity=".8" xml:space="preserve"><tspan x="1621.2083" y="-1449.4517"/></text>
 <text x="945.76862" y="4.9142962" font-family="'Bitstream Vera Sans'" font-size="12.666px" opacity=".8" xml:space="preserve"><tspan x="945.76862" y="4.9142962"/></text>
 <text x="969.72955" y="-35.827412" font-family="'Bitstream Vera Sans'" font-size="12.666px" opacity=".8" xml:space="preserve"><tspan x="969.72955" y="-35.827412"/></text>
 <text x="-500.8288" y="-65.905556" font-family="'Bitstream Vera Sans'" font-size="12.666px" opacity=".8" xml:space="preserve"><tspan x="-500.8288" y="-65.905556"/></text>
 <text x="-2324.5146" y="679.64789" font-family="'Bitstream Vera Sans'" font-size="12.666px" opacity=".8" xml:space="preserve"><tspan x="-2324.5146" y="679.64789"/></text>
 <text x="-386.33771" y="-451.22653" font-family="'Bitstream Vera Sans'" font-size="12.666px" opacity=".8" xml:space="preserve"><tspan x="-386.33771" y="-451.22653"/></text>
 <text x="421.26443" y="-864.69666" font-family="'Bitstream Vera Sans'" font-size="12.666px" opacity=".8" xml:space="preserve"><tspan x="421.26443" y="-864.69666"/></text>
 <text x="445.22537" y="-905.43835" font-family="'Bitstream Vera Sans'" font-size="12.666px" opacity=".8" xml:space="preserve"><tspan x="445.22537" y="-905.43835"/></text>
 <text x="-1046.2378" y="-912.64825" font-family="'Bitstream Vera Sans'" font-size="12.666px" opacity=".8" xml:space="preserve"><tspan x="-1046.2378" y="-912.64825"/></text>
 <text x="414.30496" y="-1185.8824" font-family="'Bitstream Vera Sans'" font-size="12.666px" opacity=".8" xml:space="preserve"><tspan x="414.30496" y="-1185.8824"/></text>
 <text x="1900.4285" y="-559.19104" font-family="'Bitstream Vera Sans'" font-size="12.666px" opacity=".8" xml:space="preserve"><tspan x="1900.4285" y="-559.19104"/></text>
 <text x="1924.3893" y="-599.9328" font-family="'Bitstream Vera Sans'" font-size="12.666px" opacity=".8" xml:space="preserve"><tspan x="1924.3893" y="-599.9328"/></text>
 <text x="432.92612" y="-607.1427" font-family="'Bitstream Vera Sans'" font-size="12.666px" opacity=".8" xml:space="preserve"><tspan x="432.92612" y="-607.1427"/></text>
 <text x="1893.469" y="-880.37671" font-family="'Bitstream Vera Sans'" font-size="12.666px" opacity=".8" xml:space="preserve"><tspan x="1893.469" y="-880.37671"/></text>
 <text x="-504.8902" y="-655.23401" font-family="'Bitstream Vera Sans'" font-size="12.666px" opacity=".8" xml:space="preserve"><tspan x="-504.8902" y="-655.23401"/></text>
 <text x="-2328.5757" y="90.31955" font-family="'Bitstream Vera Sans'" font-size="12.666px" opacity=".8" xml:space="preserve"><tspan x="-2328.5757" y="90.31955"/></text>
 <text x="-613.82043" y="183.1917" font-family="'Bitstream Vera Sans'" font-size="12.666px" opacity=".8" xml:space="preserve"><tspan x="-613.82043" y="183.1917"/></text>
 <text x="495.20389" y="4.0095472" font-family="'Bitstream Vera Sans'" font-size="12.666px" opacity=".8" xml:space="preserve"><tspan x="495.20389" y="4.0095472"/></text>
 <text x="519.16486" y="-36.732159" font-family="'Bitstream Vera Sans'" font-size="12.666px" opacity=".8" xml:space="preserve"><tspan x="519.16486" y="-36.732159"/></text>
 <text x="-972.29834" y="-43.942131" font-family="'Bitstream Vera Sans'" font-size="12.666px" opacity=".8" xml:space="preserve"><tspan x="-972.29834" y="-43.942131"/></text>
 <text x="488.24442" y="-317.17621" font-family="'Bitstream Vera Sans'" font-size="12.666px" opacity=".8" xml:space="preserve"><tspan x="488.24442" y="-317.17621"/></text>
 <text x="-539.49017" y="-46.656376" font-family="'Bitstream Vera Sans'" font-size="12.666px" opacity=".8" xml:space="preserve"><tspan x="-539.49017" y="-46.656376"/></text>
 <text x="-2363.176" y="698.89709" font-family="'Bitstream Vera Sans'" font-size="12.666px" opacity=".8" xml:space="preserve"><tspan x="-2363.176" y="698.89709"/></text>
 <text x="-388.39713" y="-908.18689" font-family="'Bitstream Vera Sans'" font-size="12.666px" opacity=".8" xml:space="preserve"><tspan x="-388.39713" y="-908.18689"/></text>
 <text x="419.20502" y="-1321.6571" font-family="'Bitstream Vera Sans'" font-size="12.666px" opacity=".8" xml:space="preserve"><tspan x="419.20502" y="-1321.6571"/></text>
 <text x="443.16592" y="-1362.3988" font-family="'Bitstream Vera Sans'" font-size="12.666px" opacity=".8" xml:space="preserve"><tspan x="443.16592" y="-1362.3988"/></text>
 <text x="-1048.2972" y="-1369.6088" font-family="'Bitstream Vera Sans'" font-size="12.666px" opacity=".8" xml:space="preserve"><tspan x="-1048.2972" y="-1369.6088"/></text>
 <text x="412.24551" y="-1642.8429" font-family="'Bitstream Vera Sans'" font-size="12.666px" opacity=".8" xml:space="preserve"><tspan x="412.24551" y="-1642.8429"/></text>
 <text x="1898.3689" y="-1016.1516" font-family="'Bitstream Vera Sans'" font-size="12.666px" opacity=".8" xml:space="preserve"><tspan x="1898.3689" y="-1016.1516"/></text>
 <text x="1922.3297" y="-1056.8932" font-family="'Bitstream Vera Sans'" font-size="12.666px" opacity=".8" xml:space="preserve"><tspan x="1922.3297" y="-1056.8932"/></text>
 <text x="430.86667" y="-1064.1031" font-family="'Bitstream Vera Sans'" font-size="12.666px" opacity=".8" xml:space="preserve"><tspan x="430.86667" y="-1064.1031"/></text>
 <text x="1891.4094" y="-1337.3373" font-family="'Bitstream Vera Sans'" font-size="12.666px" opacity=".8" xml:space="preserve"><tspan x="1891.4094" y="-1337.3373"/></text>
 <text x="-506.94965" y="-1112.1945" font-family="'Bitstream Vera Sans'" font-size="12.666px" opacity=".8" xml:space="preserve"><tspan x="-506.94965" y="-1112.1945"/></text>
 <text x="-2330.6353" y="-366.64093" font-family="'Bitstream Vera Sans'" font-size="12.666px" opacity=".8" xml:space="preserve"><tspan x="-2330.6353" y="-366.64093"/></text>
 <text x="-615.87988" y="-273.76877" font-family="'Bitstream Vera Sans'" font-size="12.666px" opacity=".8" xml:space="preserve"><tspan x="-615.87988" y="-273.76877"/></text>
 <text x="224.13467" y="-32.854584" font-family="'Bitstream Vera Sans'" font-size="12.666px" opacity=".8" xml:space="preserve"><tspan x="224.13467" y="-32.854584"/></text>
 <text x="248.09561" y="-73.596306" font-family="'Bitstream Vera Sans'" font-size="12.666px" opacity=".8" xml:space="preserve"><tspan x="248.09561" y="-73.596306"/></text>
 <text x="-1021.7211" y="-267.62494" font-family="'Bitstream Vera Sans'" font-size="12.666px" opacity=".8" xml:space="preserve"><tspan x="-1021.7211" y="-267.62494"/></text>
 <text x="-214.11903" y="-681.09509" font-family="'Bitstream Vera Sans'" font-size="12.666px" opacity=".8" xml:space="preserve"><tspan x="-214.11903" y="-681.09509"/></text>
 <text x="-190.1581" y="-721.83679" font-family="'Bitstream Vera Sans'" font-size="12.666px" opacity=".8" xml:space="preserve"><tspan x="-190.1581" y="-721.83679"/></text>
 <text x="-1681.6212" y="-729.04669" font-family="'Bitstream Vera Sans'" font-size="12.666px" opacity=".8" xml:space="preserve"><tspan x="-1681.6212" y="-729.04669"/></text>
 <text x="-221.07848" y="-1002.2808" font-family="'Bitstream Vera Sans'" font-size="12.666px" opacity=".8" xml:space="preserve"><tspan x="-221.07848" y="-1002.2808"/></text>
 <text x="1265.0449" y="-375.58945" font-family="'Bitstream Vera Sans'" font-size="12.666px" opacity=".8" xml:space="preserve"><tspan x="1265.0449" y="-375.58945"/></text>
 <text x="1289.0057" y="-416.33118" font-family="'Bitstream Vera Sans'" font-size="12.666px" opacity=".8" xml:space="preserve"><tspan x="1289.0057" y="-416.33118"/></text>
 <text x="-202.45735" y="-423.54114" font-family="'Bitstream Vera Sans'" font-size="12.666px" opacity=".8" xml:space="preserve"><tspan x="-202.45735" y="-423.54114"/></text>
 <text x="1258.0854" y="-696.77521" font-family="'Bitstream Vera Sans'" font-size="12.666px" opacity=".8" xml:space="preserve"><tspan x="1258.0854" y="-696.77521"/></text>
 <text x="-1140.2737" y="-471.63242" font-family="'Bitstream Vera Sans'" font-size="12.666px" opacity=".8" xml:space="preserve"><tspan x="-1140.2737" y="-471.63242"/></text>
 <text x="-2963.9592" y="273.92114" font-family="'Bitstream Vera Sans'" font-size="12.666px" opacity=".8" xml:space="preserve"><tspan x="-2963.9592" y="273.92114"/></text>
 <g transform="matrix(.90475 0 0 .90475 -648.21 -682.19)">
  <text x="-664.2738" y="1159.4154" font-family="'Bitstream Vera Sans'" font-size="14px" opacity=".8" xml:space="preserve"><tspan x="-664.2738" y="1159.4154"/></text>
 </g>
 <text x="945.76862" y="12.152284" font-family="'Bitstream Vera Sans'" font-size="12.666px" opacity=".8" xml:space="preserve"><tspan x="945.76862" y="12.152284"/></text>
 <text x="969.72955" y="-28.58942" font-family="'Bitstream Vera Sans'" font-size="12.666px" opacity=".8" xml:space="preserve"><tspan x="969.72955" y="-28.58942"/></text>
 <text x="-500.8288" y="-58.667564" font-family="'Bitstream Vera Sans'" font-size="12.666px" opacity=".8" xml:space="preserve"><tspan x="-500.8288" y="-58.667564"/></text>
 <text x="-2324.5146" y="686.88586" font-family="'Bitstream Vera Sans'" font-size="12.666px" opacity=".8" xml:space="preserve"><tspan x="-2324.5146" y="686.88586"/></text>
 <text x="-386.33771" y="-443.98853" font-family="'Bitstream Vera Sans'" font-size="12.666px" opacity=".8" xml:space="preserve"><tspan x="-386.33771" y="-443.98853"/></text>
 <text x="421.26443" y="-857.45862" font-family="'Bitstream Vera Sans'" font-size="12.666px" opacity=".8" xml:space="preserve"><tspan x="421.26443" y="-857.45862"/></text>
 <text x="445.22537" y="-898.20038" font-family="'Bitstream Vera Sans'" font-size="12.666px" opacity=".8" xml:space="preserve"><tspan x="445.22537" y="-898.20038"/></text>
 <text x="-1046.2378" y="-905.41028" font-family="'Bitstream Vera Sans'" font-size="12.666px" opacity=".8" xml:space="preserve"><tspan x="-1046.2378" y="-905.41028"/></text>
 <text x="414.30496" y="-1178.6444" font-family="'Bitstream Vera Sans'" font-size="12.666px" opacity=".8" xml:space="preserve"><tspan x="414.30496" y="-1178.6444"/></text>
 <text x="1900.4285" y="-551.95306" font-family="'Bitstream Vera Sans'" font-size="12.666px" opacity=".8" xml:space="preserve"><tspan x="1900.4285" y="-551.95306"/></text>
 <text x="1924.3893" y="-592.69482" font-family="'Bitstream Vera Sans'" font-size="12.666px" opacity=".8" xml:space="preserve"><tspan x="1924.3893" y="-592.69482"/></text>
 <text x="432.92612" y="-599.90472" font-family="'Bitstream Vera Sans'" font-size="12.666px" opacity=".8" xml:space="preserve"><tspan x="432.92612" y="-599.90472"/></text>
 <text x="1893.469" y="-873.13867" font-family="'Bitstream Vera Sans'" font-size="12.666px" opacity=".8" xml:space="preserve"><tspan x="1893.469" y="-873.13867"/></text>
 <text x="-504.8902" y="-647.99603" font-family="'Bitstream Vera Sans'" font-size="12.666px" opacity=".8" xml:space="preserve"><tspan x="-504.8902" y="-647.99603"/></text>
 <text x="-2328.5757" y="97.557541" font-family="'Bitstream Vera Sans'" font-size="12.666px" opacity=".8" xml:space="preserve"><tspan x="-2328.5757" y="97.557541"/></text>
 <text x="-613.82043" y="190.42969" font-family="'Bitstream Vera Sans'" font-size="12.666px" opacity=".8" xml:space="preserve"><tspan x="-613.82043" y="190.42969"/></text>
 <text x="495.20389" y="11.247535" font-family="'Bitstream Vera Sans'" font-size="12.666px" opacity=".8" xml:space="preserve"><tspan x="495.20389" y="11.247535"/></text>
 <text x="519.16486" y="-29.494169" font-family="'Bitstream Vera Sans'" font-size="12.666px" opacity=".8" xml:space="preserve"><tspan x="519.16486" y="-29.494169"/></text>
 <text x="-972.29834" y="-36.70414" font-family="'Bitstream Vera Sans'" font-size="12.666px" opacity=".8" xml:space="preserve"><tspan x="-972.29834" y="-36.70414"/></text>
 <text x="488.24442" y="-309.9382" font-family="'Bitstream Vera Sans'" font-size="12.666px" opacity=".8" xml:space="preserve"><tspan x="488.24442" y="-309.9382"/></text>
 <text x="-539.49017" y="-39.418385" font-family="'Bitstream Vera Sans'" font-size="12.666px" opacity=".8" xml:space="preserve"><tspan x="-539.49017" y="-39.418385"/></text>
 <text x="-2363.176" y="706.13513" font-family="'Bitstream Vera Sans'" font-size="12.666px" opacity=".8" xml:space="preserve"><tspan x="-2363.176" y="706.13513"/></text>
 <text x="-388.39713" y="-900.94891" font-family="'Bitstream Vera Sans'" font-size="12.666px" opacity=".8" xml:space="preserve"><tspan x="-388.39713" y="-900.94891"/></text>
 <text x="419.20502" y="-1314.4191" font-family="'Bitstream Vera Sans'" font-size="12.666px" opacity=".8" xml:space="preserve"><tspan x="419.20502" y="-1314.4191"/></text>
 <text x="443.16592" y="-1355.1609" font-family="'Bitstream Vera Sans'" font-size="12.666px" opacity=".8" xml:space="preserve"><tspan x="443.16592" y="-1355.1609"/></text>
 <text x="-1048.2972" y="-1362.3707" font-family="'Bitstream Vera Sans'" font-size="12.666px" opacity=".8" xml:space="preserve"><tspan x="-1048.2972" y="-1362.3707"/></text>
 <text x="412.24551" y="-1635.6049" font-family="'Bitstream Vera Sans'" font-size="12.666px" opacity=".8" xml:space="preserve"><tspan x="412.24551" y="-1635.6049"/></text>
 <text x="1898.3689" y="-1008.9136" font-family="'Bitstream Vera Sans'" font-size="12.666px" opacity=".8" xml:space="preserve"><tspan x="1898.3689" y="-1008.9136"/></text>
 <text x="1922.3297" y="-1049.6553" font-family="'Bitstream Vera Sans'" font-size="12.666px" opacity=".8" xml:space="preserve"><tspan x="1922.3297" y="-1049.6553"/></text>
 <text x="430.86667" y="-1056.8651" font-family="'Bitstream Vera Sans'" font-size="12.666px" opacity=".8" xml:space="preserve"><tspan x="430.86667" y="-1056.8651"/></text>
 <text x="1891.4094" y="-1330.0992" font-family="'Bitstream Vera Sans'" font-size="12.666px" opacity=".8" xml:space="preserve"><tspan x="1891.4094" y="-1330.0992"/></text>
 <text x="-506.94965" y="-1104.9564" font-family="'Bitstream Vera Sans'" font-size="12.666px" opacity=".8" xml:space="preserve"><tspan x="-506.94965" y="-1104.9564"/></text>
 <text x="-2330.6353" y="-359.40292" font-family="'Bitstream Vera Sans'" font-size="12.666px" opacity=".8" xml:space="preserve"><tspan x="-2330.6353" y="-359.40292"/></text>
 <text x="-615.87988" y="-266.53076" font-family="'Bitstream Vera Sans'" font-size="12.666px" opacity=".8" xml:space="preserve"><tspan x="-615.87988" y="-266.53076"/></text>
 <text x="224.13467" y="-25.616594" font-family="'Bitstream Vera Sans'" font-size="12.666px" opacity=".8" xml:space="preserve"><tspan x="224.13467" y="-25.616594"/></text>
 <text x="248.09561" y="-66.358315" font-family="'Bitstream Vera Sans'" font-size="12.666px" opacity=".8" xml:space="preserve"><tspan x="248.09561" y="-66.358315"/></text>
 <text x="-1021.7211" y="-260.3869" font-family="'Bitstream Vera Sans'" font-size="12.666px" opacity=".8" xml:space="preserve"><tspan x="-1021.7211" y="-260.3869"/></text>
 <text x="-214.11903" y="-673.85712" font-family="'Bitstream Vera Sans'" font-size="12.666px" opacity=".8" xml:space="preserve"><tspan x="-214.11903" y="-673.85712"/></text>
 <text x="-190.1581" y="-714.59882" font-family="'Bitstream Vera Sans'" font-size="12.666px" opacity=".8" xml:space="preserve"><tspan x="-190.1581" y="-714.59882"/></text>
 <text x="-1681.6212" y="-721.80878" font-family="'Bitstream Vera Sans'" font-size="12.666px" opacity=".8" xml:space="preserve"><tspan x="-1681.6212" y="-721.80878"/></text>
 <text x="-221.07848" y="-995.04279" font-family="'Bitstream Vera Sans'" font-size="12.666px" opacity=".8" xml:space="preserve"><tspan x="-221.07848" y="-995.04279"/></text>
 <text x="1265.0449" y="-368.35147" font-family="'Bitstream Vera Sans'" font-size="12.666px" opacity=".8" xml:space="preserve"><tspan x="1265.0449" y="-368.35147"/></text>
 <text x="1289.0057" y="-409.0932" font-family="'Bitstream Vera Sans'" font-size="12.666px" opacity=".8" xml:space="preserve"><tspan x="1289.0057" y="-409.0932"/></text>
 <text x="-202.45735" y="-416.30313" font-family="'Bitstream Vera Sans'" font-size="12.666px" opacity=".8" xml:space="preserve"><tspan x="-202.45735" y="-416.30313"/></text>
 <text x="1258.0854" y="-689.53723" font-family="'Bitstream Vera Sans'" font-size="12.666px" opacity=".8" xml:space="preserve"><tspan x="1258.0854" y="-689.53723"/></text>
 <text x="-1140.2737" y="-464.39441" font-family="'Bitstream Vera Sans'" font-size="12.666px" opacity=".8" xml:space="preserve"><tspan x="-1140.2737" y="-464.39441"/></text>
 <text x="-2963.9592" y="281.15912" font-family="'Bitstream Vera Sans'" font-size="12.666px" opacity=".8" xml:space="preserve"><tspan x="-2963.9592" y="281.15912"/></text>
 <g transform="matrix(.90475 0 0 .90475 -648.21 -674.95)">
  <text x="-664.2738" y="1159.4154" font-family="'Bitstream Vera Sans'" font-size="14px" opacity=".8" xml:space="preserve"><tspan x="-664.2738" y="1159.4154"/></text>
 </g>
 <text x="504.44662" y="-367.12378" font-family="'Droid Sans'" font-size="12.666px" xml:space="preserve"><tspan x="504.44662" y="-367.12378"/><tspan x="504.44662" y="-351.29071"/></text>
 <text x="969.63055" y="-849.16833" font-family="'Bitstream Vera Sans'" font-size="12.666px" opacity=".8" xml:space="preserve"><tspan x="969.63055" y="-849.16833"/></text>
 <text x="-854.05542" y="-103.61486" font-family="'Bitstream Vera Sans'" font-size="12.666px" opacity=".8" xml:space="preserve"><tspan x="-854.05542" y="-103.61486"/></text>
 <text x="1696.7101" y="-1134.1642" font-family="'Bitstream Vera Sans'" font-size="12.666px" opacity=".8" xml:space="preserve"><tspan x="1696.7101" y="-1134.1642"/></text>
 <text x="1720.6709" y="-1174.9059" font-family="'Bitstream Vera Sans'" font-size="12.666px" opacity=".8" xml:space="preserve"><tspan x="1720.6709" y="-1174.9059"/></text>
 <text x="229.20779" y="-1182.1158" font-family="'Bitstream Vera Sans'" font-size="12.666px" opacity=".8" xml:space="preserve"><tspan x="229.20779" y="-1182.1158"/></text>
 <text x="1689.7506" y="-1455.35" font-family="'Bitstream Vera Sans'" font-size="12.666px" opacity=".8" xml:space="preserve"><tspan x="1689.7506" y="-1455.35"/></text>
 <rect transform="matrix(0,-1,-1,0,0,0)" x="-44" y="-44" width="40" height="40" rx="2" ry="2" fill="#959595"/>
 <path d="m6 4c-1.108 0-2 0.892-2 2v1c0-1.108 0.892-2 2-2h36c1.108 0 2 0.892 2 2v-1c0-1.108-0.892-2-2-2h-36z" fill="#fff" opacity=".2"/>
 <path d="m6 45c-1.108 0-2-0.892-2-2v-1c0 1.108 0.892 2 2 2h36c1.108 0 2-0.892 2-2v1c0 1.108-0.892 2-2 2h-36z" opacity=".2"/>
 <path d="m24 16c-2.9364 0-5.4451 1.0351-6.4844 2.5-0.08726 0.12299-0.16463 0.24824-0.23047 0.37695-0.06257 0.12232-0.11607 0.24618-0.1582 0.37305a7 4 0 0 0 -0.0293 0.11719c-0.02399 0.08598-0.05021 0.17205-0.06445 0.25976a7 4 0 0 0 -0.034 0.373c3.85e-4 0.12998 0.01276 0.25978 0.03516 0.38867a7 4 0 0 0 0.0957 0.375 7 4 0 0 0 0.16211 0.37305 7 4 0 0 0 0.223 0.363 7 4 0 0 0 6.484 2.5 7 4 0 0 0 6.4844 -2.5 7 4 0 0 0 2e-3 -0.0039 7 4 0 0 0 0.18945 -0.30859c0.01111-0.02028 0.02462-0.04018 0.03516-0.06055a7 4 0 0 0 0.11523 -0.26562c0.01631-0.04185 0.03683-0.08288 0.05078-0.125a7 4 0 0 0 0.05664 -0.22266c0.01348-0.05865 0.02819-0.11679 0.03711-0.17578a7 4 0 0 0 0.029 -0.337 7 4 0 0 0 -0.037 -0.398c-0.067-0.387-0.233-0.756-0.479-1.102-1.039-1.465-3.548-2.5-6.484-2.5zm-6.4844 7.5a7 4 0 0 0 -0.51562 1.5 7 4 0 0 0 7 4 7 4 0 0 0 7 -4 7 4 0 0 0 -0.51562 -1.5 7 4 0 0 1 -6.4844 2.5 7 4 0 0 1 -6.4844 -2.5zm0 5a7 4 0 0 0 -0.51562 1.5 7 4 0 0 0 7 4 7 4 0 0 0 7 -4 7 4 0 0 0 -0.51562 -1.5 7 4 0 0 1 -6.4844 2.5 7 4 0 0 1 -6.4844 -2.5z" opacity=".1"/>
 <path d="m24 15c-2.9364 0-5.4451 1.0351-6.4844 2.5-0.08726 0.12299-0.16463 0.24824-0.23047 0.37695-0.06257 0.12232-0.11607 0.24618-0.1582 0.37305a7 4 0 0 0 -0.0293 0.11719c-0.02399 0.08598-0.05021 0.17205-0.06445 0.25976a7 4 0 0 0 -0.034 0.373c3.85e-4 0.12998 0.01276 0.25978 0.03516 0.38867a7 4 0 0 0 0.0957 0.375 7 4 0 0 0 0.16211 0.37305 7 4 0 0 0 0.223 0.363 7 4 0 0 0 6.484 2.5 7 4 0 0 0 6.4844 -2.5 7 4 0 0 0 2e-3 -0.0039 7 4 0 0 0 0.18945 -0.30859c0.01111-0.02028 0.02462-0.04018 0.03516-0.06055a7 4 0 0 0 0.11523 -0.26562c0.01631-0.04185 0.03683-0.08288 0.05078-0.125a7 4 0 0 0 0.05664 -0.22266c0.01348-0.05865 0.02819-0.11679 0.03711-0.17578a7 4 0 0 0 0.029 -0.337 7 4 0 0 0 -0.037 -0.398c-0.067-0.387-0.233-0.756-0.479-1.102-1.039-1.465-3.548-2.5-6.484-2.5zm-6.4844 7.5a7 4 0 0 0 -0.51562 1.5 7 4 0 0 0 7 4 7 4 0 0 0 7 -4 7 4 0 0 0 -0.51562 -1.5 7 4 0 0 1 -6.4844 2.5 7 4 0 0 1 -6.4844 -2.5zm0 5a7 4 0 0 0 -0.51562 1.5 7 4 0 0 0 7 4 7 4 0 0 0 7 -4 7 4 0 0 0 -0.51562 -1.5 7 4 0 0 1 -6.4844 2.5 7 4 0 0 1 -6.4844 -2.5z" fill="#4d4d4d"/>
</svg>
