<svg version="1.1" viewBox="0 0 48 48" xmlns="http://www.w3.org/2000/svg">
 <path d="m13.5 6-1.5 4v31.971l1.6 2.029h-0.1v1h21v-1h-0.09961l1.6-2.029v-31.971l-1.5-4h-21z" opacity=".2"/>
 <path d="m13.5 5h21l1.5 4v31.971l-1.6 2.029h-20.8l-1.6-2.029v-31.971z" fill="#c2352a"/>
 <path d="m13.5 4h21v1h-21z" fill="#808080"/>
 <path d="m12 9h24v2h-24z" fill="#fff"/>
 <path d="m13.5 43h21v1h-21z" fill="#808080"/>
 <path d="m12 39h24v2h-24z" fill="#fff"/>
 <text x="833.88983" y="6.485589" font-family="'Bitstream Vera Sans'" font-size="12.666px" opacity=".8" xml:space="preserve"><tspan x="833.88983" y="6.485589"/></text>
 <text x="857.85077" y="-34.256119" font-family="'Bitstream Vera Sans'" font-size="12.666px" opacity=".8" xml:space="preserve"><tspan x="857.85077" y="-34.256119"/></text>
 <text x="-612.70758" y="-64.334259" font-family="'Bitstream Vera Sans'" font-size="12.666px" opacity=".8" xml:space="preserve"><tspan x="-612.70758" y="-64.334259"/></text>
 <text x="-2436.3936" y="681.21918" font-family="'Bitstream Vera Sans'" font-size="12.666px" opacity=".8" xml:space="preserve"><tspan x="-2436.3936" y="681.21918"/></text>
 <text x="-498.21652" y="-449.65524" font-family="'Bitstream Vera Sans'" font-size="12.666px" opacity=".8" xml:space="preserve"><tspan x="-498.21652" y="-449.65524"/></text>
 <text x="309.38562" y="-863.12537" font-family="'Bitstream Vera Sans'" font-size="12.666px" opacity=".8" xml:space="preserve"><tspan x="309.38562" y="-863.12537"/></text>
 <text x="333.34656" y="-903.86707" font-family="'Bitstream Vera Sans'" font-size="12.666px" opacity=".8" xml:space="preserve"><tspan x="333.34656" y="-903.86707"/></text>
 <text x="-1158.1166" y="-911.07697" font-family="'Bitstream Vera Sans'" font-size="12.666px" opacity=".8" xml:space="preserve"><tspan x="-1158.1166" y="-911.07697"/></text>
 <text x="302.42615" y="-1184.3112" font-family="'Bitstream Vera Sans'" font-size="12.666px" opacity=".8" xml:space="preserve"><tspan x="302.42615" y="-1184.3112"/></text>
 <text x="1788.5497" y="-557.61975" font-family="'Bitstream Vera Sans'" font-size="12.666px" opacity=".8" xml:space="preserve"><tspan x="1788.5497" y="-557.61975"/></text>
 <text x="1812.5105" y="-598.36151" font-family="'Bitstream Vera Sans'" font-size="12.666px" opacity=".8" xml:space="preserve"><tspan x="1812.5105" y="-598.36151"/></text>
 <text x="321.0473" y="-605.57141" font-family="'Bitstream Vera Sans'" font-size="12.666px" opacity=".8" xml:space="preserve"><tspan x="321.0473" y="-605.57141"/></text>
 <text x="1781.5902" y="-878.80542" font-family="'Bitstream Vera Sans'" font-size="12.666px" opacity=".8" xml:space="preserve"><tspan x="1781.5902" y="-878.80542"/></text>
 <text x="-616.76898" y="-653.66272" font-family="'Bitstream Vera Sans'" font-size="12.666px" opacity=".8" xml:space="preserve"><tspan x="-616.76898" y="-653.66272"/></text>
 <text x="-2440.4546" y="91.890846" font-family="'Bitstream Vera Sans'" font-size="12.666px" opacity=".8" xml:space="preserve"><tspan x="-2440.4546" y="91.890846"/></text>
 <text x="-725.69922" y="184.76299" font-family="'Bitstream Vera Sans'" font-size="12.666px" opacity=".8" xml:space="preserve"><tspan x="-725.69922" y="184.76299"/></text>
 <text x="383.32507" y="5.5808401" font-family="'Bitstream Vera Sans'" font-size="12.666px" opacity=".8" xml:space="preserve"><tspan x="383.32507" y="5.5808401"/></text>
 <text x="407.28601" y="-35.160866" font-family="'Bitstream Vera Sans'" font-size="12.666px" opacity=".8" xml:space="preserve"><tspan x="407.28601" y="-35.160866"/></text>
 <text x="-1084.1771" y="-42.370838" font-family="'Bitstream Vera Sans'" font-size="12.666px" opacity=".8" xml:space="preserve"><tspan x="-1084.1771" y="-42.370838"/></text>
 <text x="376.3656" y="-315.60492" font-family="'Bitstream Vera Sans'" font-size="12.666px" opacity=".8" xml:space="preserve"><tspan x="376.3656" y="-315.60492"/></text>
 <text x="-651.36896" y="-45.085083" font-family="'Bitstream Vera Sans'" font-size="12.666px" opacity=".8" xml:space="preserve"><tspan x="-651.36896" y="-45.085083"/></text>
 <text x="-2475.0549" y="700.46838" font-family="'Bitstream Vera Sans'" font-size="12.666px" opacity=".8" xml:space="preserve"><tspan x="-2475.0549" y="700.46838"/></text>
 <text x="-500.27594" y="-906.6156" font-family="'Bitstream Vera Sans'" font-size="12.666px" opacity=".8" xml:space="preserve"><tspan x="-500.27594" y="-906.6156"/></text>
 <text x="307.3262" y="-1320.0858" font-family="'Bitstream Vera Sans'" font-size="12.666px" opacity=".8" xml:space="preserve"><tspan x="307.3262" y="-1320.0858"/></text>
 <text x="331.28711" y="-1360.8275" font-family="'Bitstream Vera Sans'" font-size="12.666px" opacity=".8" xml:space="preserve"><tspan x="331.28711" y="-1360.8275"/></text>
 <text x="-1160.176" y="-1368.0375" font-family="'Bitstream Vera Sans'" font-size="12.666px" opacity=".8" xml:space="preserve"><tspan x="-1160.176" y="-1368.0375"/></text>
 <text x="300.3667" y="-1641.2716" font-family="'Bitstream Vera Sans'" font-size="12.666px" opacity=".8" xml:space="preserve"><tspan x="300.3667" y="-1641.2716"/></text>
 <text x="1786.4901" y="-1014.5803" font-family="'Bitstream Vera Sans'" font-size="12.666px" opacity=".8" xml:space="preserve"><tspan x="1786.4901" y="-1014.5803"/></text>
 <text x="1810.4509" y="-1055.3219" font-family="'Bitstream Vera Sans'" font-size="12.666px" opacity=".8" xml:space="preserve"><tspan x="1810.4509" y="-1055.3219"/></text>
 <text x="318.98785" y="-1062.5319" font-family="'Bitstream Vera Sans'" font-size="12.666px" opacity=".8" xml:space="preserve"><tspan x="318.98785" y="-1062.5319"/></text>
 <text x="1779.5306" y="-1335.766" font-family="'Bitstream Vera Sans'" font-size="12.666px" opacity=".8" xml:space="preserve"><tspan x="1779.5306" y="-1335.766"/></text>
 <text x="-618.82843" y="-1110.6232" font-family="'Bitstream Vera Sans'" font-size="12.666px" opacity=".8" xml:space="preserve"><tspan x="-618.82843" y="-1110.6232"/></text>
 <text x="-2442.5142" y="-365.06964" font-family="'Bitstream Vera Sans'" font-size="12.666px" opacity=".8" xml:space="preserve"><tspan x="-2442.5142" y="-365.06964"/></text>
 <text x="-727.75867" y="-272.19748" font-family="'Bitstream Vera Sans'" font-size="12.666px" opacity=".8" xml:space="preserve"><tspan x="-727.75867" y="-272.19748"/></text>
 <text x="112.25585" y="-31.283287" font-family="'Bitstream Vera Sans'" font-size="12.666px" opacity=".8" xml:space="preserve"><tspan x="112.25585" y="-31.283287"/></text>
 <text x="136.21678" y="-72.025009" font-family="'Bitstream Vera Sans'" font-size="12.666px" opacity=".8" xml:space="preserve"><tspan x="136.21678" y="-72.025009"/></text>
 <text x="-1133.5999" y="-266.05365" font-family="'Bitstream Vera Sans'" font-size="12.666px" opacity=".8" xml:space="preserve"><tspan x="-1133.5999" y="-266.05365"/></text>
 <text x="-325.99786" y="-679.5238" font-family="'Bitstream Vera Sans'" font-size="12.666px" opacity=".8" xml:space="preserve"><tspan x="-325.99786" y="-679.5238"/></text>
 <text x="-302.03693" y="-720.2655" font-family="'Bitstream Vera Sans'" font-size="12.666px" opacity=".8" xml:space="preserve"><tspan x="-302.03693" y="-720.2655"/></text>
 <text x="-1793.5" y="-727.4754" font-family="'Bitstream Vera Sans'" font-size="12.666px" opacity=".8" xml:space="preserve"><tspan x="-1793.5" y="-727.4754"/></text>
 <text x="-332.95731" y="-1000.7095" font-family="'Bitstream Vera Sans'" font-size="12.666px" opacity=".8" xml:space="preserve"><tspan x="-332.95731" y="-1000.7095"/></text>
 <text x="1153.1661" y="-374.01816" font-family="'Bitstream Vera Sans'" font-size="12.666px" opacity=".8" xml:space="preserve"><tspan x="1153.1661" y="-374.01816"/></text>
 <text x="1177.127" y="-414.75989" font-family="'Bitstream Vera Sans'" font-size="12.666px" opacity=".8" xml:space="preserve"><tspan x="1177.127" y="-414.75989"/></text>
 <text x="-314.33618" y="-421.96985" font-family="'Bitstream Vera Sans'" font-size="12.666px" opacity=".8" xml:space="preserve"><tspan x="-314.33618" y="-421.96985"/></text>
 <text x="1146.2067" y="-695.20392" font-family="'Bitstream Vera Sans'" font-size="12.666px" opacity=".8" xml:space="preserve"><tspan x="1146.2067" y="-695.20392"/></text>
 <text x="-1252.1525" y="-470.06113" font-family="'Bitstream Vera Sans'" font-size="12.666px" opacity=".8" xml:space="preserve"><tspan x="-1252.1525" y="-470.06113"/></text>
 <text x="-3075.8381" y="275.49243" font-family="'Bitstream Vera Sans'" font-size="12.666px" opacity=".8" xml:space="preserve"><tspan x="-3075.8381" y="275.49243"/></text>
 <text x="-1361.0881" y="368.36407" font-family="'Bitstream Vera Sans'" font-size="12.667px" opacity=".8" xml:space="preserve"><tspan x="-1361.0881" y="368.36407"/></text>
 <text x="833.88983" y="13.723577" font-family="'Bitstream Vera Sans'" font-size="12.666px" opacity=".8" xml:space="preserve"><tspan x="833.88983" y="13.723577"/></text>
 <text x="857.85077" y="-27.018127" font-family="'Bitstream Vera Sans'" font-size="12.666px" opacity=".8" xml:space="preserve"><tspan x="857.85077" y="-27.018127"/></text>
 <text x="-612.70758" y="-57.096268" font-family="'Bitstream Vera Sans'" font-size="12.666px" opacity=".8" xml:space="preserve"><tspan x="-612.70758" y="-57.096268"/></text>
 <text x="-2436.3936" y="688.45715" font-family="'Bitstream Vera Sans'" font-size="12.666px" opacity=".8" xml:space="preserve"><tspan x="-2436.3936" y="688.45715"/></text>
 <text x="-498.21652" y="-442.41724" font-family="'Bitstream Vera Sans'" font-size="12.666px" opacity=".8" xml:space="preserve"><tspan x="-498.21652" y="-442.41724"/></text>
 <text x="309.38562" y="-855.88733" font-family="'Bitstream Vera Sans'" font-size="12.666px" opacity=".8" xml:space="preserve"><tspan x="309.38562" y="-855.88733"/></text>
 <text x="333.34656" y="-896.62909" font-family="'Bitstream Vera Sans'" font-size="12.666px" opacity=".8" xml:space="preserve"><tspan x="333.34656" y="-896.62909"/></text>
 <text x="-1158.1166" y="-903.83899" font-family="'Bitstream Vera Sans'" font-size="12.666px" opacity=".8" xml:space="preserve"><tspan x="-1158.1166" y="-903.83899"/></text>
 <text x="302.42615" y="-1177.0731" font-family="'Bitstream Vera Sans'" font-size="12.666px" opacity=".8" xml:space="preserve"><tspan x="302.42615" y="-1177.0731"/></text>
 <text x="1788.5497" y="-550.38177" font-family="'Bitstream Vera Sans'" font-size="12.666px" opacity=".8" xml:space="preserve"><tspan x="1788.5497" y="-550.38177"/></text>
 <text x="1812.5105" y="-591.12354" font-family="'Bitstream Vera Sans'" font-size="12.666px" opacity=".8" xml:space="preserve"><tspan x="1812.5105" y="-591.12354"/></text>
 <text x="321.0473" y="-598.33344" font-family="'Bitstream Vera Sans'" font-size="12.666px" opacity=".8" xml:space="preserve"><tspan x="321.0473" y="-598.33344"/></text>
 <text x="1781.5902" y="-871.56738" font-family="'Bitstream Vera Sans'" font-size="12.666px" opacity=".8" xml:space="preserve"><tspan x="1781.5902" y="-871.56738"/></text>
 <text x="-616.76898" y="-646.42474" font-family="'Bitstream Vera Sans'" font-size="12.666px" opacity=".8" xml:space="preserve"><tspan x="-616.76898" y="-646.42474"/></text>
 <text x="-2440.4546" y="99.128838" font-family="'Bitstream Vera Sans'" font-size="12.666px" opacity=".8" xml:space="preserve"><tspan x="-2440.4546" y="99.128838"/></text>
 <text x="-725.69922" y="192.00098" font-family="'Bitstream Vera Sans'" font-size="12.666px" opacity=".8" xml:space="preserve"><tspan x="-725.69922" y="192.00098"/></text>
 <text x="383.32507" y="12.818828" font-family="'Bitstream Vera Sans'" font-size="12.666px" opacity=".8" xml:space="preserve"><tspan x="383.32507" y="12.818828"/></text>
 <text x="407.28601" y="-27.922874" font-family="'Bitstream Vera Sans'" font-size="12.666px" opacity=".8" xml:space="preserve"><tspan x="407.28601" y="-27.922874"/></text>
 <text x="-1084.1771" y="-35.132847" font-family="'Bitstream Vera Sans'" font-size="12.666px" opacity=".8" xml:space="preserve"><tspan x="-1084.1771" y="-35.132847"/></text>
 <text x="376.3656" y="-308.36691" font-family="'Bitstream Vera Sans'" font-size="12.666px" opacity=".8" xml:space="preserve"><tspan x="376.3656" y="-308.36691"/></text>
 <text x="-651.36896" y="-37.847092" font-family="'Bitstream Vera Sans'" font-size="12.666px" opacity=".8" xml:space="preserve"><tspan x="-651.36896" y="-37.847092"/></text>
 <text x="-2475.0549" y="707.70642" font-family="'Bitstream Vera Sans'" font-size="12.666px" opacity=".8" xml:space="preserve"><tspan x="-2475.0549" y="707.70642"/></text>
 <text x="-500.27594" y="-899.37762" font-family="'Bitstream Vera Sans'" font-size="12.666px" opacity=".8" xml:space="preserve"><tspan x="-500.27594" y="-899.37762"/></text>
 <text x="307.3262" y="-1312.8478" font-family="'Bitstream Vera Sans'" font-size="12.666px" opacity=".8" xml:space="preserve"><tspan x="307.3262" y="-1312.8478"/></text>
 <text x="331.28711" y="-1353.5896" font-family="'Bitstream Vera Sans'" font-size="12.666px" opacity=".8" xml:space="preserve"><tspan x="331.28711" y="-1353.5896"/></text>
 <text x="-1160.176" y="-1360.7994" font-family="'Bitstream Vera Sans'" font-size="12.666px" opacity=".8" xml:space="preserve"><tspan x="-1160.176" y="-1360.7994"/></text>
 <text x="300.3667" y="-1634.0336" font-family="'Bitstream Vera Sans'" font-size="12.666px" opacity=".8" xml:space="preserve"><tspan x="300.3667" y="-1634.0336"/></text>
 <text x="1786.4901" y="-1007.3423" font-family="'Bitstream Vera Sans'" font-size="12.666px" opacity=".8" xml:space="preserve"><tspan x="1786.4901" y="-1007.3423"/></text>
 <text x="1810.4509" y="-1048.084" font-family="'Bitstream Vera Sans'" font-size="12.666px" opacity=".8" xml:space="preserve"><tspan x="1810.4509" y="-1048.084"/></text>
 <text x="318.98785" y="-1055.2938" font-family="'Bitstream Vera Sans'" font-size="12.666px" opacity=".8" xml:space="preserve"><tspan x="318.98785" y="-1055.2938"/></text>
 <text x="1779.5306" y="-1328.528" font-family="'Bitstream Vera Sans'" font-size="12.666px" opacity=".8" xml:space="preserve"><tspan x="1779.5306" y="-1328.528"/></text>
 <text x="-618.82843" y="-1103.3851" font-family="'Bitstream Vera Sans'" font-size="12.666px" opacity=".8" xml:space="preserve"><tspan x="-618.82843" y="-1103.3851"/></text>
 <text x="-2442.5142" y="-357.83163" font-family="'Bitstream Vera Sans'" font-size="12.666px" opacity=".8" xml:space="preserve"><tspan x="-2442.5142" y="-357.83163"/></text>
 <text x="-727.75867" y="-264.95947" font-family="'Bitstream Vera Sans'" font-size="12.666px" opacity=".8" xml:space="preserve"><tspan x="-727.75867" y="-264.95947"/></text>
 <text x="112.25585" y="-24.045303" font-family="'Bitstream Vera Sans'" font-size="12.666px" opacity=".8" xml:space="preserve"><tspan x="112.25585" y="-24.045303"/></text>
 <text x="136.21678" y="-64.787018" font-family="'Bitstream Vera Sans'" font-size="12.666px" opacity=".8" xml:space="preserve"><tspan x="136.21678" y="-64.787018"/></text>
 <text x="-1133.5999" y="-258.81561" font-family="'Bitstream Vera Sans'" font-size="12.666px" opacity=".8" xml:space="preserve"><tspan x="-1133.5999" y="-258.81561"/></text>
 <text x="-325.99786" y="-672.28583" font-family="'Bitstream Vera Sans'" font-size="12.666px" opacity=".8" xml:space="preserve"><tspan x="-325.99786" y="-672.28583"/></text>
 <text x="-302.03693" y="-713.02753" font-family="'Bitstream Vera Sans'" font-size="12.666px" opacity=".8" xml:space="preserve"><tspan x="-302.03693" y="-713.02753"/></text>
 <text x="-1793.5" y="-720.23749" font-family="'Bitstream Vera Sans'" font-size="12.666px" opacity=".8" xml:space="preserve"><tspan x="-1793.5" y="-720.23749"/></text>
 <text x="-332.95731" y="-993.4715" font-family="'Bitstream Vera Sans'" font-size="12.666px" opacity=".8" xml:space="preserve"><tspan x="-332.95731" y="-993.4715"/></text>
 <text x="1153.1661" y="-366.78018" font-family="'Bitstream Vera Sans'" font-size="12.666px" opacity=".8" xml:space="preserve"><tspan x="1153.1661" y="-366.78018"/></text>
 <text x="1177.127" y="-407.52191" font-family="'Bitstream Vera Sans'" font-size="12.666px" opacity=".8" xml:space="preserve"><tspan x="1177.127" y="-407.52191"/></text>
 <text x="-314.33618" y="-414.73184" font-family="'Bitstream Vera Sans'" font-size="12.666px" opacity=".8" xml:space="preserve"><tspan x="-314.33618" y="-414.73184"/></text>
 <text x="1146.2067" y="-687.96594" font-family="'Bitstream Vera Sans'" font-size="12.666px" opacity=".8" xml:space="preserve"><tspan x="1146.2067" y="-687.96594"/></text>
 <text x="-1252.1525" y="-462.82312" font-family="'Bitstream Vera Sans'" font-size="12.666px" opacity=".8" xml:space="preserve"><tspan x="-1252.1525" y="-462.82312"/></text>
 <text x="-3075.8381" y="282.73041" font-family="'Bitstream Vera Sans'" font-size="12.666px" opacity=".8" xml:space="preserve"><tspan x="-3075.8381" y="282.73041"/></text>
 <text x="-1361.0881" y="375.60406" font-family="'Bitstream Vera Sans'" font-size="12.667px" opacity=".8" xml:space="preserve"><tspan x="-1361.0881" y="375.60406"/></text>
 <text x="392.56781" y="-365.55249" font-family="'Droid Sans'" font-size="12.666px" xml:space="preserve"><tspan x="392.56781" y="-365.55249"/><tspan x="392.56781" y="-349.71942"/></text>
 <text x="857.75177" y="-847.59705" font-family="'Bitstream Vera Sans'" font-size="12.666px" opacity=".8" xml:space="preserve"><tspan x="857.75177" y="-847.59705"/></text>
 <text x="-965.9342" y="-102.04356" font-family="'Bitstream Vera Sans'" font-size="12.666px" opacity=".8" xml:space="preserve"><tspan x="-965.9342" y="-102.04356"/></text>
 <text x="1584.8313" y="-1132.5929" font-family="'Bitstream Vera Sans'" font-size="12.666px" opacity=".8" xml:space="preserve"><tspan x="1584.8313" y="-1132.5929"/></text>
 <text x="1608.7921" y="-1173.3346" font-family="'Bitstream Vera Sans'" font-size="12.666px" opacity=".8" xml:space="preserve"><tspan x="1608.7921" y="-1173.3346"/></text>
 <text x="117.32897" y="-1180.5446" font-family="'Bitstream Vera Sans'" font-size="12.666px" opacity=".8" xml:space="preserve"><tspan x="117.32897" y="-1180.5446"/></text>
 <text x="1577.8718" y="-1453.7787" font-family="'Bitstream Vera Sans'" font-size="12.666px" opacity=".8" xml:space="preserve"><tspan x="1577.8718" y="-1453.7787"/></text>
 <text x="877.22754" y="10.812464" font-family="'Bitstream Vera Sans'" font-size="12.666px" opacity=".8" xml:space="preserve"><tspan x="877.22754" y="10.812464"/></text>
 <text x="901.18848" y="-29.929243" font-family="'Bitstream Vera Sans'" font-size="12.666px" opacity=".8" xml:space="preserve"><tspan x="901.18848" y="-29.929243"/></text>
 <text x="-569.36987" y="-60.007385" font-family="'Bitstream Vera Sans'" font-size="12.666px" opacity=".8" xml:space="preserve"><tspan x="-569.36987" y="-60.007385"/></text>
 <text x="-2393.0559" y="685.54608" font-family="'Bitstream Vera Sans'" font-size="12.666px" opacity=".8" xml:space="preserve"><tspan x="-2393.0559" y="685.54608"/></text>
 <text x="-454.87878" y="-445.32834" font-family="'Bitstream Vera Sans'" font-size="12.666px" opacity=".8" xml:space="preserve"><tspan x="-454.87878" y="-445.32834"/></text>
 <text x="352.72336" y="-858.79846" font-family="'Bitstream Vera Sans'" font-size="12.666px" opacity=".8" xml:space="preserve"><tspan x="352.72336" y="-858.79846"/></text>
 <text x="376.6843" y="-899.54016" font-family="'Bitstream Vera Sans'" font-size="12.666px" opacity=".8" xml:space="preserve"><tspan x="376.6843" y="-899.54016"/></text>
 <text x="-1114.7788" y="-906.75006" font-family="'Bitstream Vera Sans'" font-size="12.666px" opacity=".8" xml:space="preserve"><tspan x="-1114.7788" y="-906.75006"/></text>
 <text x="345.76389" y="-1179.9843" font-family="'Bitstream Vera Sans'" font-size="12.666px" opacity=".8" xml:space="preserve"><tspan x="345.76389" y="-1179.9843"/></text>
 <text x="1831.8875" y="-553.29285" font-family="'Bitstream Vera Sans'" font-size="12.666px" opacity=".8" xml:space="preserve"><tspan x="1831.8875" y="-553.29285"/></text>
 <text x="1855.8483" y="-594.03461" font-family="'Bitstream Vera Sans'" font-size="12.666px" opacity=".8" xml:space="preserve"><tspan x="1855.8483" y="-594.03461"/></text>
 <text x="364.38504" y="-601.24451" font-family="'Bitstream Vera Sans'" font-size="12.666px" opacity=".8" xml:space="preserve"><tspan x="364.38504" y="-601.24451"/></text>
 <text x="1824.928" y="-874.47852" font-family="'Bitstream Vera Sans'" font-size="12.666px" opacity=".8" xml:space="preserve"><tspan x="1824.928" y="-874.47852"/></text>
 <text x="-573.43127" y="-649.33582" font-family="'Bitstream Vera Sans'" font-size="12.666px" opacity=".8" xml:space="preserve"><tspan x="-573.43127" y="-649.33582"/></text>
 <text x="-2397.1169" y="96.21772" font-family="'Bitstream Vera Sans'" font-size="12.666px" opacity=".8" xml:space="preserve"><tspan x="-2397.1169" y="96.21772"/></text>
 <text x="-682.36151" y="189.08986" font-family="'Bitstream Vera Sans'" font-size="12.666px" opacity=".8" xml:space="preserve"><tspan x="-682.36151" y="189.08986"/></text>
 <text x="426.66281" y="9.9077148" font-family="'Bitstream Vera Sans'" font-size="12.666px" opacity=".8" xml:space="preserve"><tspan x="426.66281" y="9.9077148"/></text>
 <text x="450.62375" y="-30.833992" font-family="'Bitstream Vera Sans'" font-size="12.666px" opacity=".8" xml:space="preserve"><tspan x="450.62375" y="-30.833992"/></text>
 <text x="-1040.8394" y="-38.043964" font-family="'Bitstream Vera Sans'" font-size="12.666px" opacity=".8" xml:space="preserve"><tspan x="-1040.8394" y="-38.043964"/></text>
 <text x="419.70334" y="-311.27802" font-family="'Bitstream Vera Sans'" font-size="12.666px" opacity=".8" xml:space="preserve"><tspan x="419.70334" y="-311.27802"/></text>
 <text x="-608.03125" y="-40.758209" font-family="'Bitstream Vera Sans'" font-size="12.666px" opacity=".8" xml:space="preserve"><tspan x="-608.03125" y="-40.758209"/></text>
 <text x="-2431.7173" y="704.79529" font-family="'Bitstream Vera Sans'" font-size="12.666px" opacity=".8" xml:space="preserve"><tspan x="-2431.7173" y="704.79529"/></text>
 <text x="-456.9382" y="-902.2887" font-family="'Bitstream Vera Sans'" font-size="12.666px" opacity=".8" xml:space="preserve"><tspan x="-456.9382" y="-902.2887"/></text>
 <text x="350.66394" y="-1315.7589" font-family="'Bitstream Vera Sans'" font-size="12.666px" opacity=".8" xml:space="preserve"><tspan x="350.66394" y="-1315.7589"/></text>
 <text x="374.62485" y="-1356.5006" font-family="'Bitstream Vera Sans'" font-size="12.666px" opacity=".8" xml:space="preserve"><tspan x="374.62485" y="-1356.5006"/></text>
 <text x="-1116.8383" y="-1363.7106" font-family="'Bitstream Vera Sans'" font-size="12.666px" opacity=".8" xml:space="preserve"><tspan x="-1116.8383" y="-1363.7106"/></text>
 <text x="343.70444" y="-1636.9447" font-family="'Bitstream Vera Sans'" font-size="12.666px" opacity=".8" xml:space="preserve"><tspan x="343.70444" y="-1636.9447"/></text>
 <text x="1829.8279" y="-1010.2534" font-family="'Bitstream Vera Sans'" font-size="12.666px" opacity=".8" xml:space="preserve"><tspan x="1829.8279" y="-1010.2534"/></text>
 <text x="1853.7887" y="-1050.995" font-family="'Bitstream Vera Sans'" font-size="12.666px" opacity=".8" xml:space="preserve"><tspan x="1853.7887" y="-1050.995"/></text>
 <text x="362.32559" y="-1058.205" font-family="'Bitstream Vera Sans'" font-size="12.666px" opacity=".8" xml:space="preserve"><tspan x="362.32559" y="-1058.205"/></text>
 <text x="1822.8684" y="-1331.4391" font-family="'Bitstream Vera Sans'" font-size="12.666px" opacity=".8" xml:space="preserve"><tspan x="1822.8684" y="-1331.4391"/></text>
 <text x="-575.49072" y="-1106.2963" font-family="'Bitstream Vera Sans'" font-size="12.666px" opacity=".8" xml:space="preserve"><tspan x="-575.49072" y="-1106.2963"/></text>
 <text x="-2399.1765" y="-360.74274" font-family="'Bitstream Vera Sans'" font-size="12.666px" opacity=".8" xml:space="preserve"><tspan x="-2399.1765" y="-360.74274"/></text>
 <text x="-684.42096" y="-267.87057" font-family="'Bitstream Vera Sans'" font-size="12.666px" opacity=".8" xml:space="preserve"><tspan x="-684.42096" y="-267.87057"/></text>
 <text x="155.5936" y="-26.956415" font-family="'Bitstream Vera Sans'" font-size="12.666px" opacity=".8" xml:space="preserve"><tspan x="155.5936" y="-26.956415"/></text>
 <text x="179.55453" y="-67.698135" font-family="'Bitstream Vera Sans'" font-size="12.666px" opacity=".8" xml:space="preserve"><tspan x="179.55453" y="-67.698135"/></text>
 <text x="-1090.2621" y="-261.72675" font-family="'Bitstream Vera Sans'" font-size="12.666px" opacity=".8" xml:space="preserve"><tspan x="-1090.2621" y="-261.72675"/></text>
 <text x="-282.66013" y="-675.1969" font-family="'Bitstream Vera Sans'" font-size="12.666px" opacity=".8" xml:space="preserve"><tspan x="-282.66013" y="-675.1969"/></text>
 <text x="-258.69919" y="-715.9386" font-family="'Bitstream Vera Sans'" font-size="12.666px" opacity=".8" xml:space="preserve"><tspan x="-258.69919" y="-715.9386"/></text>
 <text x="-1750.1622" y="-723.1485" font-family="'Bitstream Vera Sans'" font-size="12.666px" opacity=".8" xml:space="preserve"><tspan x="-1750.1622" y="-723.1485"/></text>
 <text x="-289.61957" y="-996.38263" font-family="'Bitstream Vera Sans'" font-size="12.666px" opacity=".8" xml:space="preserve"><tspan x="-289.61957" y="-996.38263"/></text>
 <text x="1196.5039" y="-369.69125" font-family="'Bitstream Vera Sans'" font-size="12.666px" opacity=".8" xml:space="preserve"><tspan x="1196.5039" y="-369.69125"/></text>
 <text x="1220.4647" y="-410.43298" font-family="'Bitstream Vera Sans'" font-size="12.666px" opacity=".8" xml:space="preserve"><tspan x="1220.4647" y="-410.43298"/></text>
 <text x="-270.99844" y="-417.64294" font-family="'Bitstream Vera Sans'" font-size="12.666px" opacity=".8" xml:space="preserve"><tspan x="-270.99844" y="-417.64294"/></text>
 <text x="1189.5444" y="-690.87701" font-family="'Bitstream Vera Sans'" font-size="12.666px" opacity=".8" xml:space="preserve"><tspan x="1189.5444" y="-690.87701"/></text>
 <text x="-1208.8147" y="-465.73422" font-family="'Bitstream Vera Sans'" font-size="12.666px" opacity=".8" xml:space="preserve"><tspan x="-1208.8147" y="-465.73422"/></text>
 <text x="-3032.5005" y="279.81934" font-family="'Bitstream Vera Sans'" font-size="12.666px" opacity=".8" xml:space="preserve"><tspan x="-3032.5005" y="279.81934"/></text>
 <text x="-1317.7505" y="372.69095" font-family="'Bitstream Vera Sans'" font-size="12.667px" opacity=".8" xml:space="preserve"><tspan x="-1317.7505" y="372.69095"/></text>
 <text x="877.22754" y="18.050451" font-family="'Bitstream Vera Sans'" font-size="12.666px" opacity=".8" xml:space="preserve"><tspan x="877.22754" y="18.050451"/></text>
 <text x="901.18848" y="-22.691254" font-family="'Bitstream Vera Sans'" font-size="12.666px" opacity=".8" xml:space="preserve"><tspan x="901.18848" y="-22.691254"/></text>
 <text x="-569.36987" y="-52.769398" font-family="'Bitstream Vera Sans'" font-size="12.666px" opacity=".8" xml:space="preserve"><tspan x="-569.36987" y="-52.769398"/></text>
 <text x="-2393.0559" y="692.78406" font-family="'Bitstream Vera Sans'" font-size="12.666px" opacity=".8" xml:space="preserve"><tspan x="-2393.0559" y="692.78406"/></text>
 <text x="-454.87878" y="-438.09033" font-family="'Bitstream Vera Sans'" font-size="12.666px" opacity=".8" xml:space="preserve"><tspan x="-454.87878" y="-438.09033"/></text>
 <text x="352.72336" y="-851.56042" font-family="'Bitstream Vera Sans'" font-size="12.666px" opacity=".8" xml:space="preserve"><tspan x="352.72336" y="-851.56042"/></text>
 <text x="376.6843" y="-892.30219" font-family="'Bitstream Vera Sans'" font-size="12.666px" opacity=".8" xml:space="preserve"><tspan x="376.6843" y="-892.30219"/></text>
 <text x="-1114.7788" y="-899.51208" font-family="'Bitstream Vera Sans'" font-size="12.666px" opacity=".8" xml:space="preserve"><tspan x="-1114.7788" y="-899.51208"/></text>
 <text x="345.76389" y="-1172.7462" font-family="'Bitstream Vera Sans'" font-size="12.666px" opacity=".8" xml:space="preserve"><tspan x="345.76389" y="-1172.7462"/></text>
 <text x="1831.8875" y="-546.05487" font-family="'Bitstream Vera Sans'" font-size="12.666px" opacity=".8" xml:space="preserve"><tspan x="1831.8875" y="-546.05487"/></text>
 <text x="1855.8483" y="-586.79663" font-family="'Bitstream Vera Sans'" font-size="12.666px" opacity=".8" xml:space="preserve"><tspan x="1855.8483" y="-586.79663"/></text>
 <text x="364.38504" y="-594.00653" font-family="'Bitstream Vera Sans'" font-size="12.666px" opacity=".8" xml:space="preserve"><tspan x="364.38504" y="-594.00653"/></text>
 <text x="1824.928" y="-867.24048" font-family="'Bitstream Vera Sans'" font-size="12.666px" opacity=".8" xml:space="preserve"><tspan x="1824.928" y="-867.24048"/></text>
 <text x="-573.43127" y="-642.09784" font-family="'Bitstream Vera Sans'" font-size="12.666px" opacity=".8" xml:space="preserve"><tspan x="-573.43127" y="-642.09784"/></text>
 <text x="-2397.1169" y="103.45571" font-family="'Bitstream Vera Sans'" font-size="12.666px" opacity=".8" xml:space="preserve"><tspan x="-2397.1169" y="103.45571"/></text>
 <text x="-682.36151" y="196.32785" font-family="'Bitstream Vera Sans'" font-size="12.666px" opacity=".8" xml:space="preserve"><tspan x="-682.36151" y="196.32785"/></text>
 <text x="426.66281" y="17.145702" font-family="'Bitstream Vera Sans'" font-size="12.666px" opacity=".8" xml:space="preserve"><tspan x="426.66281" y="17.145702"/></text>
 <text x="450.62375" y="-23.596003" font-family="'Bitstream Vera Sans'" font-size="12.666px" opacity=".8" xml:space="preserve"><tspan x="450.62375" y="-23.596003"/></text>
 <text x="-1040.8394" y="-30.805973" font-family="'Bitstream Vera Sans'" font-size="12.666px" opacity=".8" xml:space="preserve"><tspan x="-1040.8394" y="-30.805973"/></text>
 <text x="419.70334" y="-304.04001" font-family="'Bitstream Vera Sans'" font-size="12.666px" opacity=".8" xml:space="preserve"><tspan x="419.70334" y="-304.04001"/></text>
 <text x="-608.03125" y="-33.520218" font-family="'Bitstream Vera Sans'" font-size="12.666px" opacity=".8" xml:space="preserve"><tspan x="-608.03125" y="-33.520218"/></text>
 <text x="-2431.7173" y="712.03333" font-family="'Bitstream Vera Sans'" font-size="12.666px" opacity=".8" xml:space="preserve"><tspan x="-2431.7173" y="712.03333"/></text>
 <text x="-456.9382" y="-895.05072" font-family="'Bitstream Vera Sans'" font-size="12.666px" opacity=".8" xml:space="preserve"><tspan x="-456.9382" y="-895.05072"/></text>
 <text x="350.66394" y="-1308.5209" font-family="'Bitstream Vera Sans'" font-size="12.666px" opacity=".8" xml:space="preserve"><tspan x="350.66394" y="-1308.5209"/></text>
 <text x="374.62485" y="-1349.2627" font-family="'Bitstream Vera Sans'" font-size="12.666px" opacity=".8" xml:space="preserve"><tspan x="374.62485" y="-1349.2627"/></text>
 <text x="-1116.8383" y="-1356.4725" font-family="'Bitstream Vera Sans'" font-size="12.666px" opacity=".8" xml:space="preserve"><tspan x="-1116.8383" y="-1356.4725"/></text>
 <text x="343.70444" y="-1629.7067" font-family="'Bitstream Vera Sans'" font-size="12.666px" opacity=".8" xml:space="preserve"><tspan x="343.70444" y="-1629.7067"/></text>
 <text x="1829.8279" y="-1003.0154" font-family="'Bitstream Vera Sans'" font-size="12.666px" opacity=".8" xml:space="preserve"><tspan x="1829.8279" y="-1003.0154"/></text>
 <text x="1853.7887" y="-1043.7571" font-family="'Bitstream Vera Sans'" font-size="12.666px" opacity=".8" xml:space="preserve"><tspan x="1853.7887" y="-1043.7571"/></text>
 <text x="362.32559" y="-1050.9669" font-family="'Bitstream Vera Sans'" font-size="12.666px" opacity=".8" xml:space="preserve"><tspan x="362.32559" y="-1050.9669"/></text>
 <text x="1822.8684" y="-1324.201" font-family="'Bitstream Vera Sans'" font-size="12.666px" opacity=".8" xml:space="preserve"><tspan x="1822.8684" y="-1324.201"/></text>
 <text x="-575.49072" y="-1099.0582" font-family="'Bitstream Vera Sans'" font-size="12.666px" opacity=".8" xml:space="preserve"><tspan x="-575.49072" y="-1099.0582"/></text>
 <text x="-2399.1765" y="-353.50473" font-family="'Bitstream Vera Sans'" font-size="12.666px" opacity=".8" xml:space="preserve"><tspan x="-2399.1765" y="-353.50473"/></text>
 <text x="-684.42096" y="-260.63257" font-family="'Bitstream Vera Sans'" font-size="12.666px" opacity=".8" xml:space="preserve"><tspan x="-684.42096" y="-260.63257"/></text>
 <text x="155.5936" y="-19.718428" font-family="'Bitstream Vera Sans'" font-size="12.666px" opacity=".8" xml:space="preserve"><tspan x="155.5936" y="-19.718428"/></text>
 <text x="179.55453" y="-60.460148" font-family="'Bitstream Vera Sans'" font-size="12.666px" opacity=".8" xml:space="preserve"><tspan x="179.55453" y="-60.460148"/></text>
 <text x="-1090.2621" y="-254.48874" font-family="'Bitstream Vera Sans'" font-size="12.666px" opacity=".8" xml:space="preserve"><tspan x="-1090.2621" y="-254.48874"/></text>
 <text x="-282.66013" y="-667.95892" font-family="'Bitstream Vera Sans'" font-size="12.666px" opacity=".8" xml:space="preserve"><tspan x="-282.66013" y="-667.95892"/></text>
 <text x="-258.69919" y="-708.70062" font-family="'Bitstream Vera Sans'" font-size="12.666px" opacity=".8" xml:space="preserve"><tspan x="-258.69919" y="-708.70062"/></text>
 <text x="-1750.1622" y="-715.91058" font-family="'Bitstream Vera Sans'" font-size="12.666px" opacity=".8" xml:space="preserve"><tspan x="-1750.1622" y="-715.91058"/></text>
 <text x="-289.61957" y="-989.14459" font-family="'Bitstream Vera Sans'" font-size="12.666px" opacity=".8" xml:space="preserve"><tspan x="-289.61957" y="-989.14459"/></text>
 <text x="1196.5039" y="-362.45328" font-family="'Bitstream Vera Sans'" font-size="12.666px" opacity=".8" xml:space="preserve"><tspan x="1196.5039" y="-362.45328"/></text>
 <text x="1220.4647" y="-403.19501" font-family="'Bitstream Vera Sans'" font-size="12.666px" opacity=".8" xml:space="preserve"><tspan x="1220.4647" y="-403.19501"/></text>
 <text x="-270.99844" y="-410.40494" font-family="'Bitstream Vera Sans'" font-size="12.666px" opacity=".8" xml:space="preserve"><tspan x="-270.99844" y="-410.40494"/></text>
 <text x="1189.5444" y="-683.63904" font-family="'Bitstream Vera Sans'" font-size="12.666px" opacity=".8" xml:space="preserve"><tspan x="1189.5444" y="-683.63904"/></text>
 <text x="-1208.8147" y="-458.49622" font-family="'Bitstream Vera Sans'" font-size="12.666px" opacity=".8" xml:space="preserve"><tspan x="-1208.8147" y="-458.49622"/></text>
 <text x="-3032.5005" y="287.05731" font-family="'Bitstream Vera Sans'" font-size="12.666px" opacity=".8" xml:space="preserve"><tspan x="-3032.5005" y="287.05731"/></text>
 <text x="-1317.7505" y="379.93094" font-family="'Bitstream Vera Sans'" font-size="12.667px" opacity=".8" xml:space="preserve"><tspan x="-1317.7505" y="379.93094"/></text>
 <text x="435.90555" y="-361.22559" font-family="'Droid Sans'" font-size="12.666px" xml:space="preserve"><tspan x="435.90555" y="-361.22559"/><tspan x="435.90555" y="-345.39252"/></text>
 <text x="901.08948" y="-843.27014" font-family="'Bitstream Vera Sans'" font-size="12.666px" opacity=".8" xml:space="preserve"><tspan x="901.08948" y="-843.27014"/></text>
 <text x="-922.5965" y="-97.71669" font-family="'Bitstream Vera Sans'" font-size="12.666px" opacity=".8" xml:space="preserve"><tspan x="-922.5965" y="-97.71669"/></text>
 <text x="1628.1691" y="-1128.266" font-family="'Bitstream Vera Sans'" font-size="12.666px" opacity=".8" xml:space="preserve"><tspan x="1628.1691" y="-1128.266"/></text>
 <text x="1652.1299" y="-1169.0077" font-family="'Bitstream Vera Sans'" font-size="12.666px" opacity=".8" xml:space="preserve"><tspan x="1652.1299" y="-1169.0077"/></text>
 <text x="160.66672" y="-1176.2177" font-family="'Bitstream Vera Sans'" font-size="12.666px" opacity=".8" xml:space="preserve"><tspan x="160.66672" y="-1176.2177"/></text>
 <text x="1621.2096" y="-1449.4518" font-family="'Bitstream Vera Sans'" font-size="12.666px" opacity=".8" xml:space="preserve"><tspan x="1621.2096" y="-1449.4518"/></text>
 <path d="m15.619 9.4336l-1.455 1.3734 3.617 3.828a4 4 0 0 0 -0.779 2.365 4 4 0 0 0 3 3.867v7.264a4 4 0 0 0 -3 3.869 4 4 0 0 0 4 4 4 4 0 0 0 4 -4 4 4 0 0 0 -3 -3.867v-7.264a4 4 0 0 0 1.18 -0.517l2.416 2.556a4 4 0 0 0 -0.596 2.092 4 4 0 0 0 4 4 4 4 0 0 0 4 -4 4 4 0 0 0 -4 -4 4 4 0 0 0 -1.965 0.521l-2.502-2.65a4 4 0 0 0 0.467 -1.871 4 4 0 0 0 -4 -4 4 4 0 0 0 -1.666 0.369l-3.717-3.9354z" fill="#fff" fill-rule="evenodd"/>
 <path d="m13.5 5l-1.5 4v1l1.5-4h21l1.5 4v-1l-1.5-4h-21z" fill="#fff" opacity=".1"/>
</svg>
