<svg width="48" height="48" version="1.1" viewBox="0 0 48 48.000001" xmlns="http://www.w3.org/2000/svg">
 <rect transform="matrix(0,-1,-1,0,0,0)" x="-44" y="-44" width="40" height="40" rx="2" ry="2" fill="#7b5ab7"/>
 <path d="m12 10-1 5v22h5v3h4l3-3h4l10-10v-17h-25zm3 2h20v13.918l-4 4.082h-7l-4 4v-4h-5v-18zm6 5v8h3v-8h-3zm7 0v8h3v-8h-3z" fill-rule="evenodd" opacity=".2"/>
 <path d="m12 9-1 5v22h5v3h4l3-3h4l10-10v-17h-25zm3 2h20v13.918l-4 4.082h-7l-4 4v-4h-5v-18zm6 5v8h3v-8h-3zm7 0v8h3v-8h-3z" fill="#fff" fill-rule="evenodd"/>
 <path d="m6 4c-1.108 0-2 0.892-2 2v1c0-1.108 0.892-2 2-2h36c1.108 0 2 0.892 2 2v-1c0-1.108-0.892-2-2-2h-36z" fill="#fff" opacity=".2"/>
 <path d="m6 45c-1.108 0-2-0.892-2-2v-1c0 1.108 0.892 2 2 2h36c1.108 0 2-0.892 2-2v1c0 1.108-0.892 2-2 2h-36z" opacity=".2"/>
</svg>
