<svg width="48" height="48" version="1" xmlns="http://www.w3.org/2000/svg">
 <path d="m6 5c-1.108 0-2 0.892-2 2v17h40v-17c0-1.108-0.892-2-2-2h-36z" opacity=".05"/>
 <rect transform="matrix(0,-1,-1,0,0,0)" x="-44" y="-44" width="40" height="40" rx="2" ry="2" fill="#fabd7f"/>
 <path d="m22 12c-0.554 0-1 0.446-1 1v16h-4l7 9 7-9h-4v-16c0-0.554-0.446-1-1-1h-4z" fill="#3f3f3f"/>
 <path d="m4 7v-1c0-1.108 0.892-2 2-2h36c1.108 0 2 0.892 2 2v1c0-1.108-0.892-2-2-2h-36c-1.108 0-2 0.892-2 2z" fill="#fff" opacity=".2"/>
 <path d="m4 42v1c0 1.108 0.892 2 2 2h36c1.108 0 2-0.892 2-2v-1c0 1.108-0.892 2-2 2h-36c-1.108 0-2-0.892-2-2z" opacity=".2"/>
 <rect transform="matrix(0,-1,-1,0,0,0)" x="-48" y="-47" width="22" height="22" rx="1.179" ry="1.179" style="opacity:.2"/>
 <rect transform="matrix(0,-1,-1,0,0,0)" x="-47" y="-47" width="22" height="22" rx="1.179" ry="1.179" style="fill:#cccccc"/>
 <path d="m28 28v4h16v-4zm0 6v4h16v-4zm0 6v4h16v-4z" style="fill:#3f3f3f"/>
</svg>
