<svg width="48" height="48" version="1" xmlns="http://www.w3.org/2000/svg">
 <path d="m20 5v3.4882812c-6.187251 1.4843703-11.027348 6.3244678-12.511719 12.511719h-3.4882812v8h3.4882812c1.4843703 6.187251 6.3244678 11.027349 12.511719 12.511719v3.488281h8v-3.488281c6.187251-1.48437 11.027349-6.324468 12.511719-12.511719h3.488281v-8h-3.488281c-1.48437-6.187251-6.324468-11.027348-12.511719-12.511719v-3.4882812h-8z" style="opacity:.2"/>
 <path d="m20 4v3.4882812c-6.187251 1.4843703-11.027348 6.3244678-12.511719 12.511719h-3.4882812v8h3.4882812c1.4843703 6.187251 6.3244678 11.027349 12.511719 12.511719v3.488281h8v-3.488281c6.187251-1.48437 11.027349-6.324468 12.511719-12.511719h3.488281v-8h-3.488281c-1.48437-6.187251-6.324468-11.027348-12.511719-12.511719v-3.4882812h-8z" style="fill:#1e80ff"/>
 <rect transform="matrix(0,-1,-1,0,0,0)" x="-35" y="-34" width="20" height="20" rx="10" ry="10" style="opacity:.2"/>
 <rect transform="matrix(0,-1,-1,0,0,0)" x="-34" y="-34" width="20" height="20" rx="10" ry="10" style="fill:#ffffff"/>
 <path d="m20 4v1h8v-1h-8zm0 3.4882812c-6.187251 1.4843703-11.027348 6.3244678-12.511719 12.511719h-3.4882812v1h3.4882812c1.4843703-6.187251 6.3244678-11.027348 12.511719-12.511719v-1zm8 0v1c6.187251 1.4843703 11.027349 6.3244678 12.511719 12.511719h3.488281v-1h-3.488281c-1.48437-6.187251-6.324468-11.027348-12.511719-12.511719z" style="fill:#ffffff;opacity:.2"/>
</svg>
