<svg width="48" height="48" version="1" xmlns="http://www.w3.org/2000/svg">
 <path d="m24 4h-18c-1.108 0-2 0.892-2 2v18h20z" style="fill:#fe4b71"/>
 <path d="m24 4h18c1.108 0 2 0.892 2 2v18h-20z" style="fill:#2086e7"/>
 <path d="m24 44h-18c-1.108 0-2-0.892-2-2v-18h20z" style="fill:#ff8c2a"/>
 <path d="m24 44h18c1.108 0 2-0.892 2-2v-18h-20z" style="fill:#6655e4"/>
 <path d="m6 4c-1.108 0-2 0.892-2 2v1c0-1.108 0.892-2 2-2h36c1.108 0 2 0.892 2 2v-1c0-1.108-0.892-2-2-2h-36z" fill="#fff" opacity=".2"/>
 <path d="m6 45c-1.108 0-2-0.892-2-2v-1c0 1.108 0.892 2 2 2h36c1.108 0 2-0.892 2-2v1c0 1.108-0.892 2-2 2h-36z" opacity=".2"/>
 <rect x="10" y="10" width="28" height="28" style="fill:#3f3f3f"/>
 <path d="m16 32.9999h8" style="fill:none;opacity:.2;stroke-linecap:round;stroke-width:2;stroke:#000000"/>
 <path d="m16 32h8" style="fill:none;stroke-linecap:round;stroke-width:2;stroke:#ffffff"/>
 <path d="m15.999999 24.999902h3.999998m-3.999998-8.000002h3.999998m-1.999997 8.000002v-8.000002" style="fill:none;opacity:.2;stroke-linecap:round;stroke-width:1.9999999;stroke:#000000"/>
 <path d="m 15.999999,24.000002 h 3.999998 M 15.999999,16 h 3.999998 M 18,24.000002 V 16" style="fill:none;stroke-linecap:round;stroke-width:1.9999999;stroke:#ffffff"/>
 <path d="m24.000001 23.999899v1.000003h0.999999c3.915832-0.115049 2.999191-6.887989 3-8.000002" style="fill:none;opacity:.2;stroke-linecap:round;stroke-linejoin:round;stroke-width:1.9999999;stroke:#000000"/>
 <path d="m24.000001 22.999999v1.000003h0.999999c3.915832-0.115049 2.999191-6.887989 3-8.000002" style="fill:none;stroke-linecap:round;stroke-linejoin:round;stroke-width:1.9999999;stroke:#ffffff"/>
</svg>
