<svg width="48" height="48" version="1.1" viewBox="0 0 48 48" xmlns="http://www.w3.org/2000/svg">
 <g transform="matrix(1.25,0,0,-1.25,0,48.00033)">
  <path d="m21.6 33.600269a15.2 15.197723 0 0 1 -1.08125 -0.03906c-0.0456-9.07e-4 -0.09029 0.0044-0.135937 0.0031-0.89582-0.02558-1.803439-0.127444-2.709375-0.310891h-0.0016c-0.906248-0.184366-1.78903-0.443821-2.635937-0.776446-0.09356-0.03679-0.185324-0.07799-0.275-0.123419-0.75714 0.24694-1.543992 0.425581-2.375 0.432748-0.43282 0.0037-0.874365-0.02918-1.317188-0.101548-3.8986577-0.634711-6.3457624-4.014299-6.862463-7.744124-0.3216647-0.16456-0.6588952-0.290998-0.975-0.46868-1.1264088-0.633386-1.761278-1.88198-1.609375-3.165151 0.1450574-1.221482 0.4245918-2.691613 0.959375-4.294669 0.2737418-0.820788 0.6145991-1.669798 1.034375-2.53712l0.00156-0.0031 0.00156-0.0016v-0.0016c0.072782-0.147913 0.1568862-0.289982 0.2515625-0.424937 0.4412746-0.862474 0.9230314-1.731038 1.5375-2.593361 0 0 0.00156-0.0016 0.00156-0.0016 7.104e-4 -9.97e-4 8.544e-4 -0.0021 0.00156-0.0031 0.2315348-0.32557 0.4727495-0.646136 0.7265725-0.962292 2.6661864-3.3325926 5.809143-5.2010999 8.184375-6.2193802 0.304723-0.1303372 0.627847-0.2125553 0.957812-0.2437138 0.206303-0.0857144 0.421015-0.1495952 0.640626-0.1905963l1.310937-0.2421509-0.145312 0.0296827c0.552311-0.1287391 0.961375-0.1749082 1.206249-0.2171546l-0.154687 0.0296827c0.72164-0.1612862 1.237466-0.161315 1.521875-0.1796603 0.01822-0.0012 0.03645-0.00223 0.05469-0.00313 0.180395-0.00854 0.671696-0.086493 1.446876-0.020309l-0.117188-0.00781 0.146875 0.00625a15.2 15.197723 0 0 1 0.409372 -0.020307 15.2 15.197723 0 0 1 15.2 15.197724 15.2 15.197723 0 0 1 -15.2 15.197723z" style="opacity:.2"/>
  <path d="m21.6 34.400269a15.2 15.197723 0 0 1 -1.08125 -0.03906c-0.0456-9.07e-4 -0.09029 0.0044-0.135937 0.0031-0.89582-0.02558-1.803439-0.127444-2.709375-0.310891h-0.0016c-0.906248-0.184366-1.78903-0.443821-2.635937-0.776446-0.09356-0.03679-0.185324-0.07799-0.275-0.123419-0.75714 0.24694-1.543992 0.425581-2.375 0.432748-0.43282 0.0037-0.874365-0.02918-1.317188-0.101548-3.8986577-0.634711-6.3457624-4.014299-6.862463-7.744124-0.3216647-0.16456-0.6588952-0.290998-0.975-0.46868-1.1264088-0.633386-1.761278-1.88198-1.609375-3.165151 0.1450574-1.221482 0.4245918-2.691613 0.959375-4.294669 0.2737418-0.820788 0.6145991-1.669798 1.034375-2.53712l0.00156-0.0031 0.00156-0.0016v-0.0016c0.072782-0.147913 0.1568862-0.289982 0.2515625-0.424937 0.4412746-0.862474 0.9230314-1.731038 1.5375-2.593361 0 0 0.00156-0.0016 0.00156-0.0016 7.104e-4 -9.97e-4 8.544e-4 -0.0021 0.00156-0.0031 0.2315348-0.32557 0.4727495-0.646136 0.7265725-0.962292 2.6661864-3.3325926 5.809143-5.2010999 8.184375-6.2193802 0.304723-0.1303372 0.627847-0.2125553 0.957812-0.2437138 0.206303-0.0857144 0.421015-0.1495952 0.640626-0.1905963l1.310937-0.2421509-0.145312 0.0296827c0.552311-0.1287391 0.961375-0.1749082 1.206249-0.2171546l-0.154687 0.0296827c0.72164-0.1612862 1.237466-0.161315 1.521875-0.1796603 0.01822-0.0012 0.03645-0.00223 0.05469-0.00313 0.180395-0.00854 0.671696-0.086493 1.446876-0.020309l-0.117188-0.00781 0.146875 0.00625a15.2 15.197723 0 0 1 0.409372 -0.020307 15.2 15.197723 0 0 1 15.2 15.197724 15.2 15.197723 0 0 1 -15.2 15.197723z" style="fill:#cccccc"/>
  <path d="m21.561927 22.606679c-4e-3 0.0907-0.01323 0.184287-0.01885 0.272988-0.05155 0.665265-0.137149 1.282051-0.234006 1.838884-0.01885 0.08549-0.03284 0.170828-0.04851 0.251884-0.0064 0.03685-0.01399 0.07111-0.02052 0.108277-0.0094 0.03379-0.01582 0.07066-0.02311 0.103077-1.021173 0.192239-2.048124 0.318104-3.078572 0.377749-0.571422 0.03441-1.146372 0.04542-1.718402 0.0387-1.171673-0.01407-2.345855-0.114241-3.516342-0.301586-0.12158-0.01713-0.245836-0.03915-0.367963-0.05995-0.04631-0.0091-0.0927-0.01498-0.136952-0.02569-0.807305-0.144794-1.603261-0.329844-2.386444-0.557105-0.1695066-0.046491-0.3372946-0.095277-0.505919-0.150028-0.0962785-0.027988-0.1934542-0.058268-0.286707-0.088243-0.5510625-0.178322-1.0863269-0.373925-1.6204661-0.587116-0.9568404-0.387535-1.8908276-0.835633-2.7991639-1.346282 0.1236629-1.041483 0.3629149-2.296386 0.817638-3.65966 0.2320599-0.695913 0.5191622-1.415958 0.877257-2.155947l0.00517-0.0073c0.4078032-0.845299 0.907138-1.704669 1.5163599-2.559251 0.2011024-0.283097 0.4047136-0.55318 0.6158665-0.816227 2.2644766-2.832804 4.9359946-4.4200957 6.9498456-5.283579 0.01509 0.014514 0.03207 0.026947 0.04656 0.041461 0.03427 0.03285 0.07181 0.066847 0.106269 0.098934 0.556643 0.508507 1.148516 1.1185625 1.74311 1.8353815 0.04418 0.055805 0.09046 0.1099293 0.13423 0.1665603 0.03648 0.04218 0.06932 0.08687 0.105615 0.129032 0.07821 0.103123 0.161646 0.207546 0.243144 0.314478 0.659141 0.876269 1.295169 1.884917 1.853196 3.038915 0.0409 0.08305 0.07967 0.163334 0.117079 0.246072 0.294826 0.634372 0.56426 1.313263 0.797811 2.038508 0.02584 0.08011 0.05261 0.161469 0.08028 0.246775 0.0038 0.01548 0.0074 0.03048 0.01445 0.04577l-4.56e-4 2e-3c0.215304 0.706833 0.376173 1.403051 0.494469 2.072858 0.0078 0.03889 0.01399 0.07993 0.02204 0.11571 0.01612 0.09289 0.03041 0.182451 0.04288 0.273371 0.108259 0.682775 0.171361 1.338054 0.200099 1.969183 0.0033 0.09512 0.0068 0.186886 0.0064 0.2814 0.0222 0.592162 0.0082 1.155879-0.02736 1.690078" style="fill:#4282de"/>
  <path d="m13.6 19.999889a1.6 1.6 0 0 1 -1.6 -1.6 1.6 1.6 0 0 1 0.810938 -1.390625c-0.003964-0.068579-0.010938-0.109375-0.010938-0.209375v-1.6l-0.02969-0.01563 2.2375 0.0078-0.60781 1.60783s0.02773 0.125082 0.0625 0.253125c5.5e-5 2.03e-4 0.0015-2.03e-4 0.0016 0a1.6 1.6 0 0 1 0.7359 1.346875 1.6 1.6 0 0 1 -1.6 1.6z" style="opacity:.2"/>
  <path transform="matrix(.8 0 0 -.8 0 38.400264)" d="m17 22a2 2 0 0 0 -2 2 2 2 0 0 0 1.013672 1.738281c-0.004955 0.085724-0.013672 0.136719-0.013672 0.261719v2l-0.037109 0.019531 2.796875-0.009765-0.759766-2.009766s0.034669-0.156353 0.078125-0.316406c6.9e-5 -2.54e-4 0.001884 2.53e-4 0.001953 0a2 2 0 0 0 0.919922 -1.683594 2 2 0 0 0 -2 -2z" style="fill:#ffffff"/>
  <path transform="matrix(.8 0 0 -.8 0 38.400264)" d="m25.591797 9.0429688c-0.894467 0.0255469-1.799018 0.1270481-2.705078 0.3105468-0.912118 0.1855888-1.79279 0.4450015-2.628907 0.7734374 0.794346 0.53321 1.527484 1.18977 2.171876 1.949219 0.315709-0.08814 0.634726-0.163875 0.958984-0.226563 3.634071-0.736845 7.224991 0.091091 10.085937 2.00586l2.503907-1.207031 0.074218-0.03711c-2.890485-2.354923-6.584915-3.6790635-10.460937-3.5683592zm11.542969 4.5390622l-0.035157 0.017578c-0.239726 0.117204-0.470641 0.233547-0.710937 0.34961-0.245615 0.108086-0.488678 0.219634-0.738281 0.333984-0.31077 0.141329-0.625449 0.273743-0.953125 0.402344-0.195657 0.078452-0.399965 0.161181-0.59961 0.246094-0.2667 0.108085-0.544957 0.20135-0.816406 0.304687-0.276389 0.0908-0.551761 0.201928-0.835938 0.291016-1.128916 0.379155-2.308447 0.700306-3.515624 0.988281-0.440562 0.099102-0.888776 0.18383-1.335938 0.267578 0.006109 0.03277 0.013899 0.077982 0.019531 0.103516l0.003907 0.021484 0.005859 0.023438c0.120599 0.693324 0.225098 1.465871 0.292969 2.296875 0.559514-0.181641 1.117175-0.368194 1.662109-0.56836 1.231683-0.468624 2.417531-0.971095 3.53125-1.52539 0.279808-0.128412 0.554913-0.284946 0.826172-0.416016 0.269929-0.150256 0.537447-0.278564 0.798828-0.425781 0.350091-0.202494 0.694403-0.395761 1.029297-0.591797 0.165074-0.095929 0.322045-0.192938 0.480469-0.289063 0.239346-0.150256 0.4771-0.299318 0.710937-0.441406 0.230608-0.145887 0.453341-0.304662 0.675781-0.449219 0.078073-0.052235 0.154241-0.104387 0.228516-0.15625-0.096119-0.120623-0.198834-0.232625-0.302734-0.34375-0.13582-0.145317-0.276179-0.295085-0.421875-0.439453zm4.851562 8.283203l-0.269531 0.142578c-0.232319 0.122138-0.465601 0.253346-0.693359 0.378907-0.22548 0.122775-0.449596 0.239046-0.677735 0.34375l-1.40625 0.666015-2.818359 1.330078-0.701172 0.332032c-0.228139 0.108275-0.479486 0.19617-0.714844 0.291015-2.440087 1.047918-4.990647 1.710764-7.630859 2.322266-0.006952 0.024256-0.012514 0.047996-0.019531 0.072266l0.02539 0.111328-0.117187 0.257812c-0.035413 0.109188-0.068522 0.210285-0.09961 0.306641-0.292895 0.909526-0.632424 1.761678-1 2.5625 1.507836 0.010133 7.442827-0.016434 12.769531-4.59375 0.166593 1.081806-1.688469 3.693207-2.367187 4.52539-2.863089 3.52269-8.178581 4.414636-12.736328 4.066407-0.093143 0.129056-0.185374 0.26381-0.279297 0.388672v0.001953l-0.003906 0.001953c-0.111029 0.145596-0.213535 0.275586-0.300782 0.390625l-0.019531 0.027344-0.019531 0.021484c-0.00875 0.010175-0.055934 0.066171-0.099609 0.119141l-0.035157 0.044921c-0.054762 0.068799-0.10909 0.135941-0.140625 0.175782l-0.005859 0.007812-0.007812 0.009766c-0.675925 0.814988-1.344391 1.504806-1.990235 2.115234l1.638672 0.302735c0.422731 0.09855 0.854362 0.153239 1.279297 0.226562 0.420565 0.09401 0.851347 0.108606 1.287109 0.136719 0.432723 0.020477 0.859161 0.073965 1.294922 0.035156l1.3125-0.058594 1.251953-0.1875 0.3125-0.044922c0.0625-0.012917 0.086309-0.009063 0.175782-0.03125l0.15625-0.037109 0.628906-0.160156c0.206484-0.054689 0.418759-0.098049 0.626953-0.166016l0.611328-0.210937 0.607422-0.212891 0.591797-0.265625 0.589844-0.263672c0.192236-0.099271 0.376503-0.204117 0.568359-0.308594l0.568359-0.308593c0.185019-0.105218 0.36042-0.23975 0.542969-0.353516 0.3594-0.233438 0.720962-0.467708 1.048828-0.748047 0.340784-0.265579 0.684022-0.525077 0.990235-0.833984 0.319887-0.292876 0.642423-0.583938 0.914062-0.902344l0.429688-0.464844 0.105468-0.121093 0.115235-0.13086c0.06535-0.083925 0.133682-0.169055 0.199218-0.251953 0.252833-0.342664 0.533231-0.673892 0.75586-1.037109l0.355469-0.53711c0.112262-0.184696 0.216269-0.376945 0.322265-0.564453 0.227189-0.374196 0.407242-0.7558 0.587891-1.134765 0.188817-0.367967 0.356095-0.807104 0.496094-1.191407l0.21875-0.603515c0.063825-0.201527 0.117383-0.411898 0.179687-0.619141l0.171875-0.621094 0.128906-0.623046c0.093463-0.405958 0.146898-0.851432 0.203125-1.271485 0.0604-0.429551 0.067041-0.836619 0.103516-1.279297 0.0152-0.417468-0.002891-0.856649-0.009766-1.27539l-0.001953-0.300782z" style="fill:#3f3f3f"/>
  <path transform="matrix(.8 0 0 -.8 0 38.400264)" d="m34.798828 19.080078c-2.08601 1.060948-4.578966 1.878129-6.810547 2.525391-0.001863 0.082578 9.91e-4 0.16067-0.001953 0.24414v0.019532c5.3e-5 0.136675-0.003937 0.26024-0.007812 0.371093v0.00586 0.003906c-0.036455 0.800474-0.115849 1.635429-0.25 2.5 0.713069-0.177905 1.515371-0.388948 1.896484-0.476562l0.917969-0.199219 0.908203-0.246094c0.600265-0.155974 1.215737-0.312456 1.808594-0.521484 0.590957-0.200937 1.196615-0.366475 1.783203-0.59961 0.48762-0.194421 0.985933-0.363211 1.470703-0.554687-0.982839-0.780155-1.571995-1.894151-1.714844-3.072266z" style="fill:#4282de"/>
  <path d="m33.200895 21.872062c-0.607548-0.908295-1.726388-1.275037-2.717719-0.961853-0.209792 0.06298-0.417386 0.160047-0.609433 0.290252-0.794416 0.526789-1.171759 1.439011-1.051945 2.322175 0.04617 0.347109 0.16865 0.693747 0.377186 1.005517 0.732702 1.102739 2.224488 1.404613 3.328724 0.671758 1.102822-0.732541 1.404162-2.22244 0.673187-3.327849" style="fill:#4282de"/>
  <path transform="matrix(.8 0 0 -.8 0 38.400264)" d="m15.447266 10.017578c-0.320987-0.00275-0.644725 0.021119-0.96875 0.074219-3.168592 0.515945-5.3866921 3.601702-5.4746098 7.248047 0.0401271-0.016444 0.0789518-0.036458 0.1191407-0.052735h0.0019531l0.0039062-0.001953c0.6498256-0.259364 1.3038658-0.498154 1.9765628-0.71875 0.31611-2.31159 1.730596-4.15971 3.699219-4.482422 0.446627-0.07295 0.892846-0.0592 1.322265 0.023438 0.173849 0.032475 0.341676 0.07635 0.507813 0.130859 0.709738 0.233078 1.370186 0.654626 1.941406 1.234375 0.108562 0.10885 0.211982 0.220411 0.308594 0.341797 0.3049 0.357366 0.55853 0.781611 0.787109 1.228516 0.280581-0.011117 0.561352-0.037648 0.841797-0.041016 0.455947-0.005345 0.91586 0.016942 1.375 0.03125-0.301358-0.779566-0.681229-1.507526-1.15625-2.134765-0.112113-0.148548-0.225344-0.288579-0.339844-0.423829-0.498561-0.57671-1.0645-1.069031-1.675781-1.453125-0.162719-0.106375-0.333761-0.204884-0.503906-0.294922-0.862643-0.447496-1.802667-0.700678-2.765625-0.708984z" style="fill:#3f3f3f"/>
  <path transform="matrix(.8 0 0 -.8 0 38.400264)" d="m27 5a19 18.997154 0 0 0 -1.351562 0.0488281c-0.057 0.0011338-0.112864-0.0055312-0.169922-0.0039062-1.119775 0.031975-2.254299 0.1593631-3.386719 0.3886719h-0.001953c-1.13281 0.2304574-2.236288 0.5549218-3.294922 0.9707031-0.11695 0.0459875-0.231655 0.0975106-0.34375 0.1542969-0.946425-0.3086751-1.92999-0.5320569-2.96875-0.5410157-0.541025-0.004625-1.092956 0.0364931-1.646484 0.1269531-4.8733226 0.7933888-7.9322497 5.0174068-8.5781255 9.6796878-0.4020809 0.2057-0.823619 0.363835-1.21875 0.585937-1.408011 0.791733-2.2015975 2.353068-2.0117187 3.957032 0.0026525 0.022336 0.0070406 0.047843 0.0097656 0.070312 0.1456743-1.253868 0.8696693-2.390654 2.0019531-3.027344 0.395131-0.222102 0.8166691-0.380237 1.21875-0.585937 0.6458758-4.662281 3.7048029-8.886299 8.5781255-9.6796878 0.553528-0.09046 1.105459-0.1315781 1.646484-0.1269531 1.03876 0.0089588 2.022325 0.2323406 2.96875 0.5410157 0.112095-0.0567863 0.2268-0.1083094 0.34375-0.1542969 1.058634-0.4157813 2.162112-0.7402457 3.294922-0.9707031h0.001953c1.13242-0.2293088 2.266944-0.3566969 3.386719-0.3886719 0.057058-0.001625 0.112922 0.00504 0.169922 0.0039062a19 18.997154 0 0 1 1.351562 -0.0488281 19 18.997154 0 0 1 18.978516 18.589844 19 18.997154 0 0 0 0.021484 -0.591797 19 18.997154 0 0 0 -19 -18.998047z" style="fill:#ffffff;opacity:.2"/>
 </g>
</svg>
