<svg width="48" height="48" version="1.1" viewBox="0 0 48 48" xmlns="http://www.w3.org/2000/svg">
 <circle cx="13" cy="36" r="9" style="opacity:.3"/>
 <circle cx="13" cy="35" r="9" style="fill:#c2352a"/>
 <circle cx="13" cy="36" r="7" style="opacity:.2"/>
 <circle cx="13" cy="35" r="7" style="fill:#e67a73"/>
 <path d="M 13,26 A 9,9 0 0 0 4,35 9,9 0 0 0 4.0214844,35.576172 9,9 0 0 1 13,27 9,9 0 0 1 21.978516,35.423828 9,9 0 0 0 22,35 9,9 0 0 0 13,26 Z" style="fill:#ffffff;opacity:.1"/>
 <path d="M 13,28 A 7,7 0 0 0 6,35 7,7 0 0 0 6.0234375,35.541016 7,7 0 0 1 13,29 7,7 0 0 1 19.976562,35.458984 7,7 0 0 0 20,35 7,7 0 0 0 13,28 Z" style="fill:#ffffff;opacity:.1"/>
 <ellipse cx="24" cy="13.85" rx="9" ry="9.15" style="opacity:.3"/>
 <circle cx="24" cy="13" r="9" style="fill:#46a249"/>
 <circle cx="24" cy="14" r="7" style="opacity:.2"/>
 <circle cx="24" cy="13" r="7" style="fill:#7bde7f"/>
 <path d="m 24,4 a 9,9 0 0 0 -9,9 9,9 0 0 0 0.02148,0.576172 A 9,9 0 0 1 24,5 9,9 0 0 1 32.978516,13.423828 9,9 0 0 0 33,13 9,9 0 0 0 24,4 Z" style="fill:#ffffff;opacity:.1"/>
 <path d="m 24,6 a 7,7 0 0 0 -7,7 7,7 0 0 0 0.02344,0.541016 A 7,7 0 0 1 24,7 7,7 0 0 1 30.976562,13.458984 7,7 0 0 0 31,13 7,7 0 0 0 24,6 Z" style="fill:#ffffff;opacity:.1"/>
 <circle cx="35" cy="36" r="9" style="opacity:.3"/>
 <circle cx="35" cy="35" r="9" style="fill:#8e53ab"/>
 <circle cx="35" cy="36" r="7" style="opacity:.2"/>
 <circle cx="35" cy="35" r="7" style="fill:#ba96cc"/>
 <path d="m 35,28 a 7,7 0 0 0 -7,7 7,7 0 0 0 0.02344,0.541016 A 7,7 0 0 1 35,29 7,7 0 0 1 41.976562,35.458984 7,7 0 0 0 42,35 7,7 0 0 0 35,28 Z" style="fill:#ffffff;opacity:.1"/>
 <path d="m 35,26 a 9,9 0 0 0 -9,9 9,9 0 0 0 0.02148,0.576172 A 9,9 0 0 1 35,27 9,9 0 0 1 43.978516,35.423828 9,9 0 0 0 44,35 9,9 0 0 0 35,26 Z" style="fill:#ffffff;opacity:.1"/>
</svg>
