<svg width="48" height="48" version="1.1" viewBox="0 0 48.000001 48.000001" xmlns="http://www.w3.org/2000/svg">
 <rect transform="rotate(45)" x="19.467" y="-14.474" width="28.948" height="28.948" rx="1.0914" ry="1.1833" fill="#fff"/>
 <path d="m23.98 4c-0.29 0.0117-0.584 0.1354-0.816 0.3672l-6.164 6.1638v16.934l15.467-15.467-7.696-7.6953c-0.213-0.2133-0.499-0.3139-0.789-0.3027a1.8185 1.8183 0 0 0 -2e-3 0zm-11.98 11.531l-7.6328 7.633c-0.2297 0.23-0.3516 0.521-0.3652 0.809a1.8185 1.8183 0 0 0 0 0.015c-0.0096 0.288 0.089 0.572 0.3007 0.783l7.6953 7.696h2e-3v-16.936zm24.002 2e-3l-8.35 8.35 8.467 8.467 7.514-7.514c0.229-0.23 0.351-0.521 0.365-0.809a1.8185 1.8183 0 0 0 0 -0.015c0.01-0.288-0.089-0.572-0.301-0.783l-7.695-7.696zm-11.885 11.885l-8.584 8.584 7.696 7.695c0.213 0.214 0.499 0.314 0.789 0.303a1.8185 1.8183 0 0 0 2e-3 0c0.29-0.012 0.584-0.135 0.816-0.367l7.748-7.748-8.467-8.467z" fill="#31afe1"/>
 <path d="m23.98 4c-0.29 0.0117-0.584 0.1354-0.816 0.3672l-18.797 18.797c-0.3797 0.38-0.4501 0.92-0.2342 1.342 0.0598-0.121 0.132-0.24 0.2344-0.342l18.797-18.797c0.464-0.4633 1.18-0.4918 1.607-0.0643l18.926 18.926c0.077 0.077 0.123 0.172 0.17 0.265 0.211-0.428 0.163-0.932-0.17-1.265l-18.926-18.926c-0.213-0.214-0.5-0.3147-0.791-0.303z" fill="#fff" opacity=".2"/>
 <path d="m43.867 24.494c-0.05974 0.12127-0.13201 0.23943-0.23438 0.3418l-18.797 18.797c-0.46352 0.46352-1.1799 0.49199-1.6074 0.06445l-18.926-18.926c-0.0774-0.077-0.1226-0.172-0.1702-0.265-0.2108 0.428-0.1632 0.932 0.1699 1.265l18.926 18.926c0.42754 0.42754 1.1439 0.39907 1.6074-0.06445l18.797-18.797c0.38-0.38 0.45-0.92 0.234-1.342z" opacity=".2"/>
</svg>
