<svg width="48" height="48" version="1.1" viewBox="0 0 48 48" xmlns="http://www.w3.org/2000/svg">
 <path d="m24 4a20 20 0 0 0 -20 20 20 20 0 0 0 20 20 20 20 0 0 0 20 -20 20 20 0 0 0 -20 -20z" style="fill:#d66829"/>
 <path d="m4.0215 24.418a20 20 0 0 0 -0.0215 0.582 20 20 0 0 0 20 20 20 20 0 0 0 20 -20 20 20 0 0 0 -0.021 -0.418 20 20 0 0 1 -19.979 19.418 20 20 0 0 1 -19.978 -19.582z" opacity=".2"/>
 <path d="m24 4a20 20 0 0 0 -20 20 20 20 0 0 0 0.0215 0.418 20 20 0 0 1 19.978 -19.418 20 20 0 0 1 19.979 19.582 20 20 0 0 0 0.021 -0.582 20 20 0 0 0 -20 -20z" fill="#ffffff" opacity=".2"/>
 <path d="m21.00025 33.971515v-10s0-2 4-2 4 2 4 2v10m-16.0002 0v-10s0-2 4-2 4 2 4 2v10" style="fill:none;opacity:.2;stroke-linecap:round;stroke-linejoin:round;stroke-width:4;stroke:#000000"/>
 <path d="m21.00025 32.971515v-10s0-2 4-2 4 2 4 2v10m-16.0002 0v-10s0-2 4-2 4 2 4 2v10" style="fill:none;stroke-linecap:round;stroke-linejoin:round;stroke-width:4;stroke:#f8bf94"/>
 <path d="m34 13c-0.554 0-1 0.446-1 1v3h-3c-0.554 0-1 0.446-1 1s0.446 1 1 1h3v3c0 0.554 0.446 1 1 1s1-0.446 1-1v-3h3c0.554 0 1-0.446 1-1s-0.446-1-1-1h-3v-3c0-0.554-0.446-1-1-1z" style="opacity:.2"/>
 <rect x="33" y="12" width="2" height="10" rx="1" ry="1" style="fill:#ffffff"/>
 <rect transform="rotate(90)" x="16" y="-39" width="2" height="10" rx="1" ry="1" style="fill:#ffffff"/>
 <path d="m17 18.970703c-2.333333 0-3.942658 0.614533-4.914062 1.585938-0.485704 0.485702-0.773095 1.030221-0.919922 1.470703-0.146828 0.440482-0.166016 0.943359-0.166016 0.943359v1s0.019188-0.502877 0.166016-0.943359c0.146827-0.440482 0.434218-0.985001 0.919922-1.470703 0.971404-0.971405 2.580729-1.585938 4.914062-1.585938 1.785227 0 3.023807 0.438945 4 1.042969 0.97624-0.604272 2.214366-1.042969 4-1.042969 2.333333 0 3.942659 0.614533 4.914062 1.585938 0.485703 0.485702 0.775048 1.030221 0.921876 1.470703 0.146831 0.440482 0.164062 0.943359 0.164062 0.943359v-1s-0.017231-0.502877-0.164062-0.943359c-0.146828-0.440482-0.436173-0.985001-0.921876-1.470703-0.971403-0.971405-2.580729-1.585938-4.914062-1.585938-1.785634 0-3.02376 0.438697-4 1.042969-0.976193-0.604024-2.214773-1.042969-4-1.042969z" style="fill:#ffffff;opacity:.1"/>
</svg>
