<svg width="48" height="48" version="1.0" xmlns="http://www.w3.org/2000/svg">
 <defs>
  <radialGradient id="radialGradient2429" cx="19.063" cy="8.4179" r="11" gradientTransform="matrix(1.0343 0 0 .79462 -.17248 5.8754)" gradientUnits="userSpaceOnUse">
   <stop stop-color="#484848" offset="0"/>
   <stop stop-color="#333" offset="1"/>
  </radialGradient>
  <linearGradient id="linearGradient4721" x1="24.756" x2="24.102" y1="26.512" y2="5.9236" gradientTransform="matrix(.6875 0 0 .66667 7.5 4)" gradientUnits="userSpaceOnUse">
   <stop stop-color="#fff" offset="0"/>
   <stop stop-color="#fff" stop-opacity="0" offset="1"/>
  </linearGradient>
 </defs>
 <rect transform="scale(-1,1)" x="-40" y="3" width="32" height="40" rx="2" ry="2" fill="#ccc"/>
 <rect x="13" y="8" width="22" height="14" rx=".4125" ry=".4" fill="url(#linearGradient4721)" fill-rule="evenodd" opacity=".15"/>
 <rect x="14.5" y="9.4999" width="19" height="11" rx="0" ry="0" fill="url(#radialGradient2429)" fill-rule="evenodd" stroke="#363636" stroke-linecap="round" stroke-linejoin="round" stroke-miterlimit="3.4286" stroke-width=".99974"/>
 <path d="m10 3c-1.108 0-2 0.892-2 2v1c0-1.108 0.892-2 2-2h28c1.108 0 2 0.892 2 2v-1c0-1.108-0.892-2-2-2h-28z" fill="#fff" opacity=".2"/>
 <path d="m8 41v1c0 1.108 0.892 2 2 2h28c1.108 0 2-0.892 2-2v-1c0 1.108-0.892 2-2 2h-28c-1.108 0-2-0.892-2-2z" opacity=".2"/>
 <path d="m15 28c-0.554 0-1 0.446-1 1v2h-2c-0.554 0-1 0.446-1 1v2c0 0.554 0.446 1 1 1h2v2c0 0.554 0.446 1 1 1h2c0.554 0 1-0.446 1-1v-2h2c0.554 0 1-0.446 1-1v-2c0-0.554-0.446-1-1-1h-2v-2c0-0.554-0.446-1-1-1h-2z" fill="#fff" opacity=".2"/>
 <path d="m15 27c-0.554 0-1 0.446-1 1v2h-2c-0.554 0-1 0.446-1 1v2c0 0.554 0.446 1 1 1h2v2c0 0.554 0.446 1 1 1h2c0.554 0 1-0.446 1-1v-2h2c0.554 0 1-0.446 1-1v-2c0-0.554-0.446-1-1-1h-2v-2c0-0.554-0.446-1-1-1h-2z" fill="#697e83"/>
 <circle cx="35" cy="30" r="2" fill="#fff" opacity=".2"/>
 <circle cx="29" cy="30" r="2" fill="#fff" opacity=".2"/>
 <circle cx="35" cy="36" r="2" fill="#fff" opacity=".2"/>
 <circle cx="29" cy="36" r="2" fill="#fff" opacity=".2"/>
 <circle cx="35" cy="29" r="2" fill="#ef5646"/>
 <circle cx="29" cy="29" r="2" fill="#ef5646"/>
 <circle cx="35" cy="35" r="2" fill="#eb9200"/>
 <circle cx="29" cy="35" r="2" fill="#eb9200"/>
</svg>
