<svg width="48" height="48" version="1.0" xmlns="http://www.w3.org/2000/svg">
 <text x="877.22626" y="10.812601" font-family="'Bitstream Vera Sans'" font-size="12.666px" opacity=".8" xml:space="preserve"><tspan x="877.22626" y="10.812601"/></text>
 <text x="901.18719" y="-29.929106" font-family="'Bitstream Vera Sans'" font-size="12.666px" opacity=".8" xml:space="preserve"><tspan x="901.18719" y="-29.929106"/></text>
 <text x="-569.37115" y="-60.007248" font-family="'Bitstream Vera Sans'" font-size="12.666px" opacity=".8" xml:space="preserve"><tspan x="-569.37115" y="-60.007248"/></text>
 <text x="-2393.0571" y="685.5462" font-family="'Bitstream Vera Sans'" font-size="12.666px" opacity=".8" xml:space="preserve"><tspan x="-2393.0571" y="685.5462"/></text>
 <text x="-454.88007" y="-445.32822" font-family="'Bitstream Vera Sans'" font-size="12.666px" opacity=".8" xml:space="preserve"><tspan x="-454.88007" y="-445.32822"/></text>
 <text x="352.72208" y="-858.79834" font-family="'Bitstream Vera Sans'" font-size="12.666px" opacity=".8" xml:space="preserve"><tspan x="352.72208" y="-858.79834"/></text>
 <text x="376.68301" y="-899.54004" font-family="'Bitstream Vera Sans'" font-size="12.666px" opacity=".8" xml:space="preserve"><tspan x="376.68301" y="-899.54004"/></text>
 <text x="-1114.7802" y="-906.74994" font-family="'Bitstream Vera Sans'" font-size="12.666px" opacity=".8" xml:space="preserve"><tspan x="-1114.7802" y="-906.74994"/></text>
 <text x="345.7626" y="-1179.9841" font-family="'Bitstream Vera Sans'" font-size="12.666px" opacity=".8" xml:space="preserve"><tspan x="345.7626" y="-1179.9841"/></text>
 <text x="1831.8861" y="-553.29272" font-family="'Bitstream Vera Sans'" font-size="12.666px" opacity=".8" xml:space="preserve"><tspan x="1831.8861" y="-553.29272"/></text>
 <text x="1855.8469" y="-594.03448" font-family="'Bitstream Vera Sans'" font-size="12.666px" opacity=".8" xml:space="preserve"><tspan x="1855.8469" y="-594.03448"/></text>
 <text x="364.38376" y="-601.24438" font-family="'Bitstream Vera Sans'" font-size="12.666px" opacity=".8" xml:space="preserve"><tspan x="364.38376" y="-601.24438"/></text>
 <text x="1824.9266" y="-874.47839" font-family="'Bitstream Vera Sans'" font-size="12.666px" opacity=".8" xml:space="preserve"><tspan x="1824.9266" y="-874.47839"/></text>
 <text x="-573.43256" y="-649.33569" font-family="'Bitstream Vera Sans'" font-size="12.666px" opacity=".8" xml:space="preserve"><tspan x="-573.43256" y="-649.33569"/></text>
 <text x="-2397.1182" y="96.217857" font-family="'Bitstream Vera Sans'" font-size="12.666px" opacity=".8" xml:space="preserve"><tspan x="-2397.1182" y="96.217857"/></text>
 <text x="-682.36279" y="189.09" font-family="'Bitstream Vera Sans'" font-size="12.666px" opacity=".8" xml:space="preserve"><tspan x="-682.36279" y="189.09"/></text>
 <text x="426.66153" y="9.9078522" font-family="'Bitstream Vera Sans'" font-size="12.666px" opacity=".8" xml:space="preserve"><tspan x="426.66153" y="9.9078522"/></text>
 <text x="450.62247" y="-30.833855" font-family="'Bitstream Vera Sans'" font-size="12.666px" opacity=".8" xml:space="preserve"><tspan x="450.62247" y="-30.833855"/></text>
 <text x="-1040.8407" y="-38.043827" font-family="'Bitstream Vera Sans'" font-size="12.666px" opacity=".8" xml:space="preserve"><tspan x="-1040.8407" y="-38.043827"/></text>
 <text x="419.70206" y="-311.27789" font-family="'Bitstream Vera Sans'" font-size="12.666px" opacity=".8" xml:space="preserve"><tspan x="419.70206" y="-311.27789"/></text>
 <text x="-608.03253" y="-40.758072" font-family="'Bitstream Vera Sans'" font-size="12.666px" opacity=".8" xml:space="preserve"><tspan x="-608.03253" y="-40.758072"/></text>
 <text x="-2431.7185" y="704.79541" font-family="'Bitstream Vera Sans'" font-size="12.666px" opacity=".8" xml:space="preserve"><tspan x="-2431.7185" y="704.79541"/></text>
 <text x="-456.93948" y="-902.28857" font-family="'Bitstream Vera Sans'" font-size="12.666px" opacity=".8" xml:space="preserve"><tspan x="-456.93948" y="-902.28857"/></text>
 <text x="350.66266" y="-1315.7588" font-family="'Bitstream Vera Sans'" font-size="12.666px" opacity=".8" xml:space="preserve"><tspan x="350.66266" y="-1315.7588"/></text>
 <text x="374.62357" y="-1356.5005" font-family="'Bitstream Vera Sans'" font-size="12.666px" opacity=".8" xml:space="preserve"><tspan x="374.62357" y="-1356.5005"/></text>
 <text x="-1116.8396" y="-1363.7104" font-family="'Bitstream Vera Sans'" font-size="12.666px" opacity=".8" xml:space="preserve"><tspan x="-1116.8396" y="-1363.7104"/></text>
 <text x="343.70316" y="-1636.9446" font-family="'Bitstream Vera Sans'" font-size="12.666px" opacity=".8" xml:space="preserve"><tspan x="343.70316" y="-1636.9446"/></text>
 <text x="1829.8265" y="-1010.2533" font-family="'Bitstream Vera Sans'" font-size="12.666px" opacity=".8" xml:space="preserve"><tspan x="1829.8265" y="-1010.2533"/></text>
 <text x="1853.7874" y="-1050.9949" font-family="'Bitstream Vera Sans'" font-size="12.666px" opacity=".8" xml:space="preserve"><tspan x="1853.7874" y="-1050.9949"/></text>
 <text x="362.32431" y="-1058.2048" font-family="'Bitstream Vera Sans'" font-size="12.666px" opacity=".8" xml:space="preserve"><tspan x="362.32431" y="-1058.2048"/></text>
 <text x="1822.8671" y="-1331.439" font-family="'Bitstream Vera Sans'" font-size="12.666px" opacity=".8" xml:space="preserve"><tspan x="1822.8671" y="-1331.439"/></text>
 <text x="-575.492" y="-1106.2961" font-family="'Bitstream Vera Sans'" font-size="12.666px" opacity=".8" xml:space="preserve"><tspan x="-575.492" y="-1106.2961"/></text>
 <text x="-2399.1777" y="-360.74261" font-family="'Bitstream Vera Sans'" font-size="12.666px" opacity=".8" xml:space="preserve"><tspan x="-2399.1777" y="-360.74261"/></text>
 <text x="-684.42224" y="-267.87045" font-family="'Bitstream Vera Sans'" font-size="12.666px" opacity=".8" xml:space="preserve"><tspan x="-684.42224" y="-267.87045"/></text>
 <text x="155.5923" y="-26.956278" font-family="'Bitstream Vera Sans'" font-size="12.666px" opacity=".8" xml:space="preserve"><tspan x="155.5923" y="-26.956278"/></text>
 <text x="179.55324" y="-67.697998" font-family="'Bitstream Vera Sans'" font-size="12.666px" opacity=".8" xml:space="preserve"><tspan x="179.55324" y="-67.697998"/></text>
 <text x="-1090.2634" y="-261.72662" font-family="'Bitstream Vera Sans'" font-size="12.666px" opacity=".8" xml:space="preserve"><tspan x="-1090.2634" y="-261.72662"/></text>
 <text x="-282.66141" y="-675.19678" font-family="'Bitstream Vera Sans'" font-size="12.666px" opacity=".8" xml:space="preserve"><tspan x="-282.66141" y="-675.19678"/></text>
 <text x="-258.70047" y="-715.93848" font-family="'Bitstream Vera Sans'" font-size="12.666px" opacity=".8" xml:space="preserve"><tspan x="-258.70047" y="-715.93848"/></text>
 <text x="-1750.1636" y="-723.14838" font-family="'Bitstream Vera Sans'" font-size="12.666px" opacity=".8" xml:space="preserve"><tspan x="-1750.1636" y="-723.14838"/></text>
 <text x="-289.62085" y="-996.38251" font-family="'Bitstream Vera Sans'" font-size="12.666px" opacity=".8" xml:space="preserve"><tspan x="-289.62085" y="-996.38251"/></text>
 <text x="1196.5026" y="-369.69113" font-family="'Bitstream Vera Sans'" font-size="12.666px" opacity=".8" xml:space="preserve"><tspan x="1196.5026" y="-369.69113"/></text>
 <text x="1220.4634" y="-410.43286" font-family="'Bitstream Vera Sans'" font-size="12.666px" opacity=".8" xml:space="preserve"><tspan x="1220.4634" y="-410.43286"/></text>
 <text x="-270.99973" y="-417.64282" font-family="'Bitstream Vera Sans'" font-size="12.666px" opacity=".8" xml:space="preserve"><tspan x="-270.99973" y="-417.64282"/></text>
 <text x="1189.5431" y="-690.87689" font-family="'Bitstream Vera Sans'" font-size="12.666px" opacity=".8" xml:space="preserve"><tspan x="1189.5431" y="-690.87689"/></text>
 <text x="-1208.816" y="-465.7341" font-family="'Bitstream Vera Sans'" font-size="12.666px" opacity=".8" xml:space="preserve"><tspan x="-1208.816" y="-465.7341"/></text>
 <text x="-3032.5017" y="279.81946" font-family="'Bitstream Vera Sans'" font-size="12.666px" opacity=".8" xml:space="preserve"><tspan x="-3032.5017" y="279.81946"/></text>
 <g transform="matrix(.90475 0 0 .90475 -716.75 -676.29)">
  <text x="-664.2738" y="1159.4154" font-family="'Bitstream Vera Sans'" font-size="14px" opacity=".8" xml:space="preserve"><tspan x="-664.2738" y="1159.4154"/></text>
 </g>
 <text x="877.22626" y="18.050589" font-family="'Bitstream Vera Sans'" font-size="12.666px" opacity=".8" xml:space="preserve"><tspan x="877.22626" y="18.050589"/></text>
 <text x="901.18719" y="-22.691116" font-family="'Bitstream Vera Sans'" font-size="12.666px" opacity=".8" xml:space="preserve"><tspan x="901.18719" y="-22.691116"/></text>
 <text x="-569.37115" y="-52.76926" font-family="'Bitstream Vera Sans'" font-size="12.666px" opacity=".8" xml:space="preserve"><tspan x="-569.37115" y="-52.76926"/></text>
 <text x="-2393.0571" y="692.78418" font-family="'Bitstream Vera Sans'" font-size="12.666px" opacity=".8" xml:space="preserve"><tspan x="-2393.0571" y="692.78418"/></text>
 <text x="-454.88007" y="-438.09021" font-family="'Bitstream Vera Sans'" font-size="12.666px" opacity=".8" xml:space="preserve"><tspan x="-454.88007" y="-438.09021"/></text>
 <text x="352.72208" y="-851.5603" font-family="'Bitstream Vera Sans'" font-size="12.666px" opacity=".8" xml:space="preserve"><tspan x="352.72208" y="-851.5603"/></text>
 <text x="376.68301" y="-892.30206" font-family="'Bitstream Vera Sans'" font-size="12.666px" opacity=".8" xml:space="preserve"><tspan x="376.68301" y="-892.30206"/></text>
 <text x="-1114.7802" y="-899.51196" font-family="'Bitstream Vera Sans'" font-size="12.666px" opacity=".8" xml:space="preserve"><tspan x="-1114.7802" y="-899.51196"/></text>
 <text x="345.7626" y="-1172.7461" font-family="'Bitstream Vera Sans'" font-size="12.666px" opacity=".8" xml:space="preserve"><tspan x="345.7626" y="-1172.7461"/></text>
 <text x="1831.8861" y="-546.05475" font-family="'Bitstream Vera Sans'" font-size="12.666px" opacity=".8" xml:space="preserve"><tspan x="1831.8861" y="-546.05475"/></text>
 <text x="1855.8469" y="-586.79651" font-family="'Bitstream Vera Sans'" font-size="12.666px" opacity=".8" xml:space="preserve"><tspan x="1855.8469" y="-586.79651"/></text>
 <text x="364.38376" y="-594.00641" font-family="'Bitstream Vera Sans'" font-size="12.666px" opacity=".8" xml:space="preserve"><tspan x="364.38376" y="-594.00641"/></text>
 <text x="1824.9266" y="-867.24036" font-family="'Bitstream Vera Sans'" font-size="12.666px" opacity=".8" xml:space="preserve"><tspan x="1824.9266" y="-867.24036"/></text>
 <text x="-573.43256" y="-642.09772" font-family="'Bitstream Vera Sans'" font-size="12.666px" opacity=".8" xml:space="preserve"><tspan x="-573.43256" y="-642.09772"/></text>
 <text x="-2397.1182" y="103.45585" font-family="'Bitstream Vera Sans'" font-size="12.666px" opacity=".8" xml:space="preserve"><tspan x="-2397.1182" y="103.45585"/></text>
 <text x="-682.36279" y="196.32799" font-family="'Bitstream Vera Sans'" font-size="12.666px" opacity=".8" xml:space="preserve"><tspan x="-682.36279" y="196.32799"/></text>
 <text x="426.66153" y="17.14584" font-family="'Bitstream Vera Sans'" font-size="12.666px" opacity=".8" xml:space="preserve"><tspan x="426.66153" y="17.14584"/></text>
 <text x="450.62247" y="-23.595865" font-family="'Bitstream Vera Sans'" font-size="12.666px" opacity=".8" xml:space="preserve"><tspan x="450.62247" y="-23.595865"/></text>
 <text x="-1040.8407" y="-30.805836" font-family="'Bitstream Vera Sans'" font-size="12.666px" opacity=".8" xml:space="preserve"><tspan x="-1040.8407" y="-30.805836"/></text>
 <text x="419.70206" y="-304.03989" font-family="'Bitstream Vera Sans'" font-size="12.666px" opacity=".8" xml:space="preserve"><tspan x="419.70206" y="-304.03989"/></text>
 <text x="-608.03253" y="-33.520081" font-family="'Bitstream Vera Sans'" font-size="12.666px" opacity=".8" xml:space="preserve"><tspan x="-608.03253" y="-33.520081"/></text>
 <text x="-2431.7185" y="712.03345" font-family="'Bitstream Vera Sans'" font-size="12.666px" opacity=".8" xml:space="preserve"><tspan x="-2431.7185" y="712.03345"/></text>
 <text x="-456.93948" y="-895.0506" font-family="'Bitstream Vera Sans'" font-size="12.666px" opacity=".8" xml:space="preserve"><tspan x="-456.93948" y="-895.0506"/></text>
 <text x="350.66266" y="-1308.5208" font-family="'Bitstream Vera Sans'" font-size="12.666px" opacity=".8" xml:space="preserve"><tspan x="350.66266" y="-1308.5208"/></text>
 <text x="374.62357" y="-1349.2626" font-family="'Bitstream Vera Sans'" font-size="12.666px" opacity=".8" xml:space="preserve"><tspan x="374.62357" y="-1349.2626"/></text>
 <text x="-1116.8396" y="-1356.4724" font-family="'Bitstream Vera Sans'" font-size="12.666px" opacity=".8" xml:space="preserve"><tspan x="-1116.8396" y="-1356.4724"/></text>
 <text x="343.70316" y="-1629.7065" font-family="'Bitstream Vera Sans'" font-size="12.666px" opacity=".8" xml:space="preserve"><tspan x="343.70316" y="-1629.7065"/></text>
 <text x="1829.8265" y="-1003.0153" font-family="'Bitstream Vera Sans'" font-size="12.666px" opacity=".8" xml:space="preserve"><tspan x="1829.8265" y="-1003.0153"/></text>
 <text x="1853.7874" y="-1043.757" font-family="'Bitstream Vera Sans'" font-size="12.666px" opacity=".8" xml:space="preserve"><tspan x="1853.7874" y="-1043.757"/></text>
 <text x="362.32431" y="-1050.9668" font-family="'Bitstream Vera Sans'" font-size="12.666px" opacity=".8" xml:space="preserve"><tspan x="362.32431" y="-1050.9668"/></text>
 <text x="1822.8671" y="-1324.2009" font-family="'Bitstream Vera Sans'" font-size="12.666px" opacity=".8" xml:space="preserve"><tspan x="1822.8671" y="-1324.2009"/></text>
 <text x="-575.492" y="-1099.0581" font-family="'Bitstream Vera Sans'" font-size="12.666px" opacity=".8" xml:space="preserve"><tspan x="-575.492" y="-1099.0581"/></text>
 <text x="-2399.1777" y="-353.50461" font-family="'Bitstream Vera Sans'" font-size="12.666px" opacity=".8" xml:space="preserve"><tspan x="-2399.1777" y="-353.50461"/></text>
 <text x="-684.42224" y="-260.63245" font-family="'Bitstream Vera Sans'" font-size="12.666px" opacity=".8" xml:space="preserve"><tspan x="-684.42224" y="-260.63245"/></text>
 <text x="155.5923" y="-19.71829" font-family="'Bitstream Vera Sans'" font-size="12.666px" opacity=".8" xml:space="preserve"><tspan x="155.5923" y="-19.71829"/></text>
 <text x="179.55324" y="-60.460011" font-family="'Bitstream Vera Sans'" font-size="12.666px" opacity=".8" xml:space="preserve"><tspan x="179.55324" y="-60.460011"/></text>
 <text x="-1090.2634" y="-254.4886" font-family="'Bitstream Vera Sans'" font-size="12.666px" opacity=".8" xml:space="preserve"><tspan x="-1090.2634" y="-254.4886"/></text>
 <text x="-282.66141" y="-667.9588" font-family="'Bitstream Vera Sans'" font-size="12.666px" opacity=".8" xml:space="preserve"><tspan x="-282.66141" y="-667.9588"/></text>
 <text x="-258.70047" y="-708.7005" font-family="'Bitstream Vera Sans'" font-size="12.666px" opacity=".8" xml:space="preserve"><tspan x="-258.70047" y="-708.7005"/></text>
 <text x="-1750.1636" y="-715.91046" font-family="'Bitstream Vera Sans'" font-size="12.666px" opacity=".8" xml:space="preserve"><tspan x="-1750.1636" y="-715.91046"/></text>
 <text x="-289.62085" y="-989.14447" font-family="'Bitstream Vera Sans'" font-size="12.666px" opacity=".8" xml:space="preserve"><tspan x="-289.62085" y="-989.14447"/></text>
 <text x="1196.5026" y="-362.45316" font-family="'Bitstream Vera Sans'" font-size="12.666px" opacity=".8" xml:space="preserve"><tspan x="1196.5026" y="-362.45316"/></text>
 <text x="1220.4634" y="-403.19489" font-family="'Bitstream Vera Sans'" font-size="12.666px" opacity=".8" xml:space="preserve"><tspan x="1220.4634" y="-403.19489"/></text>
 <text x="-270.99973" y="-410.40482" font-family="'Bitstream Vera Sans'" font-size="12.666px" opacity=".8" xml:space="preserve"><tspan x="-270.99973" y="-410.40482"/></text>
 <text x="1189.5431" y="-683.63892" font-family="'Bitstream Vera Sans'" font-size="12.666px" opacity=".8" xml:space="preserve"><tspan x="1189.5431" y="-683.63892"/></text>
 <text x="-1208.816" y="-458.49609" font-family="'Bitstream Vera Sans'" font-size="12.666px" opacity=".8" xml:space="preserve"><tspan x="-1208.816" y="-458.49609"/></text>
 <text x="-3032.5017" y="287.05743" font-family="'Bitstream Vera Sans'" font-size="12.666px" opacity=".8" xml:space="preserve"><tspan x="-3032.5017" y="287.05743"/></text>
 <g transform="matrix(.90475 0 0 .90475 -716.75 -669.05)">
  <text x="-664.2738" y="1159.4154" font-family="'Bitstream Vera Sans'" font-size="14px" opacity=".8" xml:space="preserve"><tspan x="-664.2738" y="1159.4154"/></text>
 </g>
 <text x="435.90427" y="-361.22546" font-family="'Droid Sans'" font-size="12.666px" xml:space="preserve"><tspan x="435.90427" y="-361.22546"/><tspan x="435.90427" y="-345.3924"/></text>
 <text x="901.0882" y="-843.27002" font-family="'Bitstream Vera Sans'" font-size="12.666px" opacity=".8" xml:space="preserve"><tspan x="901.0882" y="-843.27002"/></text>
 <text x="-922.59778" y="-97.716553" font-family="'Bitstream Vera Sans'" font-size="12.666px" opacity=".8" xml:space="preserve"><tspan x="-922.59778" y="-97.716553"/></text>
 <text x="1628.1677" y="-1128.2659" font-family="'Bitstream Vera Sans'" font-size="12.666px" opacity=".8" xml:space="preserve"><tspan x="1628.1677" y="-1128.2659"/></text>
 <text x="1652.1285" y="-1169.0076" font-family="'Bitstream Vera Sans'" font-size="12.666px" opacity=".8" xml:space="preserve"><tspan x="1652.1285" y="-1169.0076"/></text>
 <text x="160.66542" y="-1176.2175" font-family="'Bitstream Vera Sans'" font-size="12.666px" opacity=".8" xml:space="preserve"><tspan x="160.66542" y="-1176.2175"/></text>
 <text x="1621.2083" y="-1449.4517" font-family="'Bitstream Vera Sans'" font-size="12.666px" opacity=".8" xml:space="preserve"><tspan x="1621.2083" y="-1449.4517"/></text>
 <path d="m43 39.111v-30.222c0-1.0466-0.87-1.889-1.95-1.889h-35.1c-1.0803 0-1.95 0.8424-1.95 1.8889v30.222c0 1.047 0.8697 1.889 1.95 1.889h35.1c1.08 0 1.95-0.842 1.95-1.889z" fill="#4d4d4d"/>
 <rect x="6" y="9" width="5" height="30" ry="1" fill="#da6156"/>
 <rect x="11" y="9" width="5" height="30" ry="1" fill="#eb8644"/>
 <rect x="16" y="9" width="5" height="30" ry="1" fill="#ecb554"/>
 <rect x="21" y="9" width="5" height="30" ry="1" fill="#40a95d"/>
 <rect x="26" y="9" width="5" height="30" ry="1" fill="#4cb094"/>
 <rect x="31" y="9" width="5" height="30" ry="1" fill="#476eb9"/>
 <rect x="36" y="9" width="5" height="30" ry="1" fill="#a860a2"/>
 <path d="m9.9902 8c-0.5484 0-0.9902 0.4418-0.9902 0.9902v16.02c0 0.548 0.4418 0.99 0.9902 0.99h2.0198c0.548 0 0.99-0.442 0.99-0.99v-16.02c0-0.5482-0.442-0.99-0.99-0.99h-2.0198zm4.9998 0c-0.548 0-0.99 0.4418-0.99 0.9902v16.02c0 0.548 0.442 0.99 0.99 0.99h2.02c0.548 0 0.99-0.442 0.99-0.99v-16.02c0-0.5482-0.442-0.99-0.99-0.99h-2.02zm10 0c-0.548 0-0.99 0.4418-0.99 0.9902v16.02c0 0.548 0.442 0.99 0.99 0.99h2.02c0.548 0 0.99-0.442 0.99-0.99v-16.02c0-0.5482-0.442-0.99-0.99-0.99h-2.02zm5 0c-0.548 0-0.99 0.4418-0.99 0.9902v16.02c0 0.548 0.442 0.99 0.99 0.99h2.02c0.548 0 0.99-0.442 0.99-0.99v-16.02c0-0.5482-0.442-0.99-0.99-0.99h-2.02zm5 0c-0.548 0-0.99 0.4418-0.99 0.9902v16.02c0 0.548 0.442 0.99 0.99 0.99h2.02c0.548 0 0.99-0.442 0.99-0.99v-16.02c0-0.5482-0.442-0.99-0.99-0.99h-2.02z" fill="#4d4d4d"/>
 <text x="829.77411" y="9.2028446" font-family="'Bitstream Vera Sans'" font-size="12.666px" opacity=".8" xml:space="preserve"><tspan x="829.77411" y="9.2028446"/></text>
 <text x="853.73505" y="-31.538862" font-family="'Bitstream Vera Sans'" font-size="12.666px" opacity=".8" xml:space="preserve"><tspan x="853.73505" y="-31.538862"/></text>
 <text x="-616.8233" y="-61.617004" font-family="'Bitstream Vera Sans'" font-size="12.666px" opacity=".8" xml:space="preserve"><tspan x="-616.8233" y="-61.617004"/></text>
 <text x="-2440.5093" y="683.93646" font-family="'Bitstream Vera Sans'" font-size="12.666px" opacity=".8" xml:space="preserve"><tspan x="-2440.5093" y="683.93646"/></text>
 <text x="-502.33221" y="-446.93796" font-family="'Bitstream Vera Sans'" font-size="12.666px" opacity=".8" xml:space="preserve"><tspan x="-502.33221" y="-446.93796"/></text>
 <text x="305.26993" y="-860.40808" font-family="'Bitstream Vera Sans'" font-size="12.666px" opacity=".8" xml:space="preserve"><tspan x="305.26993" y="-860.40808"/></text>
 <text x="329.23087" y="-901.14978" font-family="'Bitstream Vera Sans'" font-size="12.666px" opacity=".8" xml:space="preserve"><tspan x="329.23087" y="-901.14978"/></text>
 <text x="-1162.2323" y="-908.35968" font-family="'Bitstream Vera Sans'" font-size="12.666px" opacity=".8" xml:space="preserve"><tspan x="-1162.2323" y="-908.35968"/></text>
 <text x="298.31046" y="-1181.5939" font-family="'Bitstream Vera Sans'" font-size="12.666px" opacity=".8" xml:space="preserve"><tspan x="298.31046" y="-1181.5939"/></text>
 <text x="1784.434" y="-554.90247" font-family="'Bitstream Vera Sans'" font-size="12.666px" opacity=".8" xml:space="preserve"><tspan x="1784.434" y="-554.90247"/></text>
 <text x="1808.3948" y="-595.64423" font-family="'Bitstream Vera Sans'" font-size="12.666px" opacity=".8" xml:space="preserve"><tspan x="1808.3948" y="-595.64423"/></text>
 <text x="316.93161" y="-602.85413" font-family="'Bitstream Vera Sans'" font-size="12.666px" opacity=".8" xml:space="preserve"><tspan x="316.93161" y="-602.85413"/></text>
 <text x="1777.4745" y="-876.08813" font-family="'Bitstream Vera Sans'" font-size="12.666px" opacity=".8" xml:space="preserve"><tspan x="1777.4745" y="-876.08813"/></text>
 <text x="-620.8847" y="-650.94543" font-family="'Bitstream Vera Sans'" font-size="12.666px" opacity=".8" xml:space="preserve"><tspan x="-620.8847" y="-650.94543"/></text>
 <text x="-2444.5703" y="94.608101" font-family="'Bitstream Vera Sans'" font-size="12.666px" opacity=".8" xml:space="preserve"><tspan x="-2444.5703" y="94.608101"/></text>
 <text x="-729.81494" y="187.48024" font-family="'Bitstream Vera Sans'" font-size="12.666px" opacity=".8" xml:space="preserve"><tspan x="-729.81494" y="187.48024"/></text>
 <text x="379.20938" y="8.2980957" font-family="'Bitstream Vera Sans'" font-size="12.666px" opacity=".8" xml:space="preserve"><tspan x="379.20938" y="8.2980957"/></text>
 <text x="403.17032" y="-32.443611" font-family="'Bitstream Vera Sans'" font-size="12.666px" opacity=".8" xml:space="preserve"><tspan x="403.17032" y="-32.443611"/></text>
 <text x="-1088.2928" y="-39.653584" font-family="'Bitstream Vera Sans'" font-size="12.666px" opacity=".8" xml:space="preserve"><tspan x="-1088.2928" y="-39.653584"/></text>
 <text x="372.24991" y="-312.88763" font-family="'Bitstream Vera Sans'" font-size="12.666px" opacity=".8" xml:space="preserve"><tspan x="372.24991" y="-312.88763"/></text>
 <text x="-655.48468" y="-42.367828" font-family="'Bitstream Vera Sans'" font-size="12.666px" opacity=".8" xml:space="preserve"><tspan x="-655.48468" y="-42.367828"/></text>
 <text x="-2479.1707" y="703.18567" font-family="'Bitstream Vera Sans'" font-size="12.666px" opacity=".8" xml:space="preserve"><tspan x="-2479.1707" y="703.18567"/></text>
 <text x="-504.39163" y="-903.89832" font-family="'Bitstream Vera Sans'" font-size="12.666px" opacity=".8" xml:space="preserve"><tspan x="-504.39163" y="-903.89832"/></text>
 <text x="303.21051" y="-1317.3685" font-family="'Bitstream Vera Sans'" font-size="12.666px" opacity=".8" xml:space="preserve"><tspan x="303.21051" y="-1317.3685"/></text>
 <text x="327.17142" y="-1358.1102" font-family="'Bitstream Vera Sans'" font-size="12.666px" opacity=".8" xml:space="preserve"><tspan x="327.17142" y="-1358.1102"/></text>
 <text x="-1164.2917" y="-1365.3202" font-family="'Bitstream Vera Sans'" font-size="12.666px" opacity=".8" xml:space="preserve"><tspan x="-1164.2917" y="-1365.3202"/></text>
 <text x="296.25101" y="-1638.5543" font-family="'Bitstream Vera Sans'" font-size="12.666px" opacity=".8" xml:space="preserve"><tspan x="296.25101" y="-1638.5543"/></text>
 <text x="1782.3744" y="-1011.863" font-family="'Bitstream Vera Sans'" font-size="12.666px" opacity=".8" xml:space="preserve"><tspan x="1782.3744" y="-1011.863"/></text>
 <text x="1806.3352" y="-1052.6046" font-family="'Bitstream Vera Sans'" font-size="12.666px" opacity=".8" xml:space="preserve"><tspan x="1806.3352" y="-1052.6046"/></text>
 <text x="314.87216" y="-1059.8146" font-family="'Bitstream Vera Sans'" font-size="12.666px" opacity=".8" xml:space="preserve"><tspan x="314.87216" y="-1059.8146"/></text>
 <text x="1775.4149" y="-1333.0487" font-family="'Bitstream Vera Sans'" font-size="12.666px" opacity=".8" xml:space="preserve"><tspan x="1775.4149" y="-1333.0487"/></text>
 <text x="-622.94415" y="-1107.9059" font-family="'Bitstream Vera Sans'" font-size="12.666px" opacity=".8" xml:space="preserve"><tspan x="-622.94415" y="-1107.9059"/></text>
 <text x="-2446.6299" y="-362.35236" font-family="'Bitstream Vera Sans'" font-size="12.666px" opacity=".8" xml:space="preserve"><tspan x="-2446.6299" y="-362.35236"/></text>
 <text x="-731.87439" y="-269.48019" font-family="'Bitstream Vera Sans'" font-size="12.666px" opacity=".8" xml:space="preserve"><tspan x="-731.87439" y="-269.48019"/></text>
 <text x="108.14014" y="-28.566034" font-family="'Bitstream Vera Sans'" font-size="12.666px" opacity=".8" xml:space="preserve"><tspan x="108.14014" y="-28.566034"/></text>
 <text x="132.10107" y="-69.307755" font-family="'Bitstream Vera Sans'" font-size="12.666px" opacity=".8" xml:space="preserve"><tspan x="132.10107" y="-69.307755"/></text>
 <text x="-1137.7156" y="-263.33636" font-family="'Bitstream Vera Sans'" font-size="12.666px" opacity=".8" xml:space="preserve"><tspan x="-1137.7156" y="-263.33636"/></text>
 <text x="-330.11356" y="-676.80652" font-family="'Bitstream Vera Sans'" font-size="12.666px" opacity=".8" xml:space="preserve"><tspan x="-330.11356" y="-676.80652"/></text>
 <text x="-306.15262" y="-717.54822" font-family="'Bitstream Vera Sans'" font-size="12.666px" opacity=".8" xml:space="preserve"><tspan x="-306.15262" y="-717.54822"/></text>
 <text x="-1797.6157" y="-724.75812" font-family="'Bitstream Vera Sans'" font-size="12.666px" opacity=".8" xml:space="preserve"><tspan x="-1797.6157" y="-724.75812"/></text>
 <text x="-337.073" y="-997.99225" font-family="'Bitstream Vera Sans'" font-size="12.666px" opacity=".8" xml:space="preserve"><tspan x="-337.073" y="-997.99225"/></text>
 <text x="1149.0504" y="-371.30087" font-family="'Bitstream Vera Sans'" font-size="12.666px" opacity=".8" xml:space="preserve"><tspan x="1149.0504" y="-371.30087"/></text>
 <text x="1173.0112" y="-412.0426" font-family="'Bitstream Vera Sans'" font-size="12.666px" opacity=".8" xml:space="preserve"><tspan x="1173.0112" y="-412.0426"/></text>
 <text x="-318.45187" y="-419.25256" font-family="'Bitstream Vera Sans'" font-size="12.666px" opacity=".8" xml:space="preserve"><tspan x="-318.45187" y="-419.25256"/></text>
 <text x="1142.0909" y="-692.48663" font-family="'Bitstream Vera Sans'" font-size="12.666px" opacity=".8" xml:space="preserve"><tspan x="1142.0909" y="-692.48663"/></text>
 <text x="-1256.2682" y="-467.34384" font-family="'Bitstream Vera Sans'" font-size="12.666px" opacity=".8" xml:space="preserve"><tspan x="-1256.2682" y="-467.34384"/></text>
 <text x="-3079.9539" y="278.20972" font-family="'Bitstream Vera Sans'" font-size="12.666px" opacity=".8" xml:space="preserve"><tspan x="-3079.9539" y="278.20972"/></text>
 <text x="-1365.1984" y="371.08179" font-family="'Bitstream Vera Sans'" font-size="12.666px" opacity=".8" xml:space="preserve"><tspan x="-1365.1984" y="371.08179"/></text>
 <text x="829.77411" y="16.440832" font-family="'Bitstream Vera Sans'" font-size="12.666px" opacity=".8" xml:space="preserve"><tspan x="829.77411" y="16.440832"/></text>
 <text x="853.73505" y="-24.300873" font-family="'Bitstream Vera Sans'" font-size="12.666px" opacity=".8" xml:space="preserve"><tspan x="853.73505" y="-24.300873"/></text>
 <text x="-616.8233" y="-54.379017" font-family="'Bitstream Vera Sans'" font-size="12.666px" opacity=".8" xml:space="preserve"><tspan x="-616.8233" y="-54.379017"/></text>
 <text x="-2440.5093" y="691.17444" font-family="'Bitstream Vera Sans'" font-size="12.666px" opacity=".8" xml:space="preserve"><tspan x="-2440.5093" y="691.17444"/></text>
 <text x="-502.33221" y="-439.69995" font-family="'Bitstream Vera Sans'" font-size="12.666px" opacity=".8" xml:space="preserve"><tspan x="-502.33221" y="-439.69995"/></text>
 <text x="305.26993" y="-853.17004" font-family="'Bitstream Vera Sans'" font-size="12.666px" opacity=".8" xml:space="preserve"><tspan x="305.26993" y="-853.17004"/></text>
 <text x="329.23087" y="-893.9118" font-family="'Bitstream Vera Sans'" font-size="12.666px" opacity=".8" xml:space="preserve"><tspan x="329.23087" y="-893.9118"/></text>
 <text x="-1162.2323" y="-901.1217" font-family="'Bitstream Vera Sans'" font-size="12.666px" opacity=".8" xml:space="preserve"><tspan x="-1162.2323" y="-901.1217"/></text>
 <text x="298.31046" y="-1174.3558" font-family="'Bitstream Vera Sans'" font-size="12.666px" opacity=".8" xml:space="preserve"><tspan x="298.31046" y="-1174.3558"/></text>
 <text x="1784.434" y="-547.66449" font-family="'Bitstream Vera Sans'" font-size="12.666px" opacity=".8" xml:space="preserve"><tspan x="1784.434" y="-547.66449"/></text>
 <text x="1808.3948" y="-588.40625" font-family="'Bitstream Vera Sans'" font-size="12.666px" opacity=".8" xml:space="preserve"><tspan x="1808.3948" y="-588.40625"/></text>
 <text x="316.93161" y="-595.61615" font-family="'Bitstream Vera Sans'" font-size="12.666px" opacity=".8" xml:space="preserve"><tspan x="316.93161" y="-595.61615"/></text>
 <text x="1777.4745" y="-868.8501" font-family="'Bitstream Vera Sans'" font-size="12.666px" opacity=".8" xml:space="preserve"><tspan x="1777.4745" y="-868.8501"/></text>
 <text x="-620.8847" y="-643.70746" font-family="'Bitstream Vera Sans'" font-size="12.666px" opacity=".8" xml:space="preserve"><tspan x="-620.8847" y="-643.70746"/></text>
 <text x="-2444.5703" y="101.84609" font-family="'Bitstream Vera Sans'" font-size="12.666px" opacity=".8" xml:space="preserve"><tspan x="-2444.5703" y="101.84609"/></text>
 <text x="-729.81494" y="194.71823" font-family="'Bitstream Vera Sans'" font-size="12.666px" opacity=".8" xml:space="preserve"><tspan x="-729.81494" y="194.71823"/></text>
 <text x="379.20938" y="15.536083" font-family="'Bitstream Vera Sans'" font-size="12.666px" opacity=".8" xml:space="preserve"><tspan x="379.20938" y="15.536083"/></text>
 <text x="403.17032" y="-25.205622" font-family="'Bitstream Vera Sans'" font-size="12.666px" opacity=".8" xml:space="preserve"><tspan x="403.17032" y="-25.205622"/></text>
 <text x="-1088.2928" y="-32.415592" font-family="'Bitstream Vera Sans'" font-size="12.666px" opacity=".8" xml:space="preserve"><tspan x="-1088.2928" y="-32.415592"/></text>
 <text x="372.24991" y="-305.64963" font-family="'Bitstream Vera Sans'" font-size="12.666px" opacity=".8" xml:space="preserve"><tspan x="372.24991" y="-305.64963"/></text>
 <text x="-655.48468" y="-35.129837" font-family="'Bitstream Vera Sans'" font-size="12.666px" opacity=".8" xml:space="preserve"><tspan x="-655.48468" y="-35.129837"/></text>
 <text x="-2479.1707" y="710.42371" font-family="'Bitstream Vera Sans'" font-size="12.666px" opacity=".8" xml:space="preserve"><tspan x="-2479.1707" y="710.42371"/></text>
 <text x="-504.39163" y="-896.66034" font-family="'Bitstream Vera Sans'" font-size="12.666px" opacity=".8" xml:space="preserve"><tspan x="-504.39163" y="-896.66034"/></text>
 <text x="303.21051" y="-1310.1305" font-family="'Bitstream Vera Sans'" font-size="12.666px" opacity=".8" xml:space="preserve"><tspan x="303.21051" y="-1310.1305"/></text>
 <text x="327.17142" y="-1350.8723" font-family="'Bitstream Vera Sans'" font-size="12.666px" opacity=".8" xml:space="preserve"><tspan x="327.17142" y="-1350.8723"/></text>
 <text x="-1164.2917" y="-1358.0822" font-family="'Bitstream Vera Sans'" font-size="12.666px" opacity=".8" xml:space="preserve"><tspan x="-1164.2917" y="-1358.0822"/></text>
 <text x="296.25101" y="-1631.3163" font-family="'Bitstream Vera Sans'" font-size="12.666px" opacity=".8" xml:space="preserve"><tspan x="296.25101" y="-1631.3163"/></text>
 <text x="1782.3744" y="-1004.6251" font-family="'Bitstream Vera Sans'" font-size="12.666px" opacity=".8" xml:space="preserve"><tspan x="1782.3744" y="-1004.6251"/></text>
 <text x="1806.3352" y="-1045.3667" font-family="'Bitstream Vera Sans'" font-size="12.666px" opacity=".8" xml:space="preserve"><tspan x="1806.3352" y="-1045.3667"/></text>
 <text x="314.87216" y="-1052.5765" font-family="'Bitstream Vera Sans'" font-size="12.666px" opacity=".8" xml:space="preserve"><tspan x="314.87216" y="-1052.5765"/></text>
 <text x="1775.4149" y="-1325.8107" font-family="'Bitstream Vera Sans'" font-size="12.666px" opacity=".8" xml:space="preserve"><tspan x="1775.4149" y="-1325.8107"/></text>
 <text x="-622.94415" y="-1100.6678" font-family="'Bitstream Vera Sans'" font-size="12.666px" opacity=".8" xml:space="preserve"><tspan x="-622.94415" y="-1100.6678"/></text>
 <text x="-2446.6299" y="-355.11435" font-family="'Bitstream Vera Sans'" font-size="12.666px" opacity=".8" xml:space="preserve"><tspan x="-2446.6299" y="-355.11435"/></text>
 <text x="-731.87439" y="-262.24219" font-family="'Bitstream Vera Sans'" font-size="12.666px" opacity=".8" xml:space="preserve"><tspan x="-731.87439" y="-262.24219"/></text>
 <text x="108.14014" y="-21.328047" font-family="'Bitstream Vera Sans'" font-size="12.666px" opacity=".8" xml:space="preserve"><tspan x="108.14014" y="-21.328047"/></text>
 <text x="132.10107" y="-62.069767" font-family="'Bitstream Vera Sans'" font-size="12.666px" opacity=".8" xml:space="preserve"><tspan x="132.10107" y="-62.069767"/></text>
 <text x="-1137.7156" y="-256.09836" font-family="'Bitstream Vera Sans'" font-size="12.666px" opacity=".8" xml:space="preserve"><tspan x="-1137.7156" y="-256.09836"/></text>
 <text x="-330.11356" y="-669.56854" font-family="'Bitstream Vera Sans'" font-size="12.666px" opacity=".8" xml:space="preserve"><tspan x="-330.11356" y="-669.56854"/></text>
 <text x="-306.15262" y="-710.31024" font-family="'Bitstream Vera Sans'" font-size="12.666px" opacity=".8" xml:space="preserve"><tspan x="-306.15262" y="-710.31024"/></text>
 <text x="-1797.6157" y="-717.5202" font-family="'Bitstream Vera Sans'" font-size="12.666px" opacity=".8" xml:space="preserve"><tspan x="-1797.6157" y="-717.5202"/></text>
 <text x="-337.073" y="-990.75421" font-family="'Bitstream Vera Sans'" font-size="12.666px" opacity=".8" xml:space="preserve"><tspan x="-337.073" y="-990.75421"/></text>
 <text x="1149.0504" y="-364.0629" font-family="'Bitstream Vera Sans'" font-size="12.666px" opacity=".8" xml:space="preserve"><tspan x="1149.0504" y="-364.0629"/></text>
 <text x="1173.0112" y="-404.80463" font-family="'Bitstream Vera Sans'" font-size="12.666px" opacity=".8" xml:space="preserve"><tspan x="1173.0112" y="-404.80463"/></text>
 <text x="-318.45187" y="-412.01456" font-family="'Bitstream Vera Sans'" font-size="12.666px" opacity=".8" xml:space="preserve"><tspan x="-318.45187" y="-412.01456"/></text>
 <text x="1142.0909" y="-685.24866" font-family="'Bitstream Vera Sans'" font-size="12.666px" opacity=".8" xml:space="preserve"><tspan x="1142.0909" y="-685.24866"/></text>
 <text x="-1256.2682" y="-460.10583" font-family="'Bitstream Vera Sans'" font-size="12.666px" opacity=".8" xml:space="preserve"><tspan x="-1256.2682" y="-460.10583"/></text>
 <text x="-3079.9539" y="285.44769" font-family="'Bitstream Vera Sans'" font-size="12.666px" opacity=".8" xml:space="preserve"><tspan x="-3079.9539" y="285.44769"/></text>
 <text x="-1365.1984" y="378.31979" font-family="'Bitstream Vera Sans'" font-size="12.666px" opacity=".8" xml:space="preserve"><tspan x="-1365.1984" y="378.31979"/></text>
 <text x="388.45212" y="-362.83521" font-family="'Droid Sans'" font-size="12.666px" xml:space="preserve"><tspan x="388.45212" y="-362.83521"/><tspan x="388.45212" y="-347.00214"/></text>
 <text x="853.63605" y="-844.87976" font-family="'Bitstream Vera Sans'" font-size="12.666px" opacity=".8" xml:space="preserve"><tspan x="853.63605" y="-844.87976"/></text>
 <text x="-970.04993" y="-99.326309" font-family="'Bitstream Vera Sans'" font-size="12.666px" opacity=".8" xml:space="preserve"><tspan x="-970.04993" y="-99.326309"/></text>
 <text x="1580.7156" y="-1129.8756" font-family="'Bitstream Vera Sans'" font-size="12.666px" opacity=".8" xml:space="preserve"><tspan x="1580.7156" y="-1129.8756"/></text>
 <text x="1604.6764" y="-1170.6173" font-family="'Bitstream Vera Sans'" font-size="12.666px" opacity=".8" xml:space="preserve"><tspan x="1604.6764" y="-1170.6173"/></text>
 <text x="113.21326" y="-1177.8273" font-family="'Bitstream Vera Sans'" font-size="12.666px" opacity=".8" xml:space="preserve"><tspan x="113.21326" y="-1177.8273"/></text>
 <text x="1573.7561" y="-1451.0614" font-family="'Bitstream Vera Sans'" font-size="12.666px" opacity=".8" xml:space="preserve"><tspan x="1573.7561" y="-1451.0614"/></text>
 <path d="m5.9492 7c-1.0803 0-1.9492 0.8422-1.9492 1.8887v1c0-1.0465 0.8689-1.8887 1.9492-1.8887h35.102c1.08 0 1.949 0.8422 1.949 1.8887v-1c0-1.0465-0.869-1.8887-1.949-1.8887h-35.102z" fill="#fff" opacity=".1"/>
 <path d="m9.9902 8c-0.5484 0-0.9902 0.4418-0.9902 0.9902v1c0-0.5484 0.4418-0.9902 0.9902-0.9902h2.0198c0.548 0 0.99 0.4418 0.99 0.9902v-1c0-0.5484-0.442-0.9902-0.99-0.9902h-2.0198zm4.9998 0c-0.548 0-0.99 0.4418-0.99 0.9902v1c0-0.5484 0.442-0.9902 0.99-0.9902h2.02c0.548 0 0.99 0.4418 0.99 0.9902v-1c0-0.5484-0.442-0.9902-0.99-0.9902h-2.02zm10 0c-0.548 0-0.99 0.4418-0.99 0.9902v1c0-0.5484 0.442-0.9902 0.99-0.9902h2.02c0.548 0 0.99 0.4418 0.99 0.9902v-1c0-0.5484-0.442-0.9902-0.99-0.9902h-2.02zm5 0c-0.548 0-0.99 0.4418-0.99 0.9902v1c0-0.5484 0.442-0.9902 0.99-0.9902h2.02c0.548 0 0.99 0.4418 0.99 0.9902v-1c0-0.5484-0.442-0.9902-0.99-0.9902h-2.02zm5 0c-0.548 0-0.99 0.4418-0.99 0.9902v1c0-0.5484 0.442-0.9902 0.99-0.9902h2.02c0.548 0 0.99 0.4418 0.99 0.9902v-1c0-0.5484-0.442-0.9902-0.99-0.9902h-2.02z" fill="#fff" opacity=".1"/>
 <path d="m4 39.111v1c0 1.047 0.8689 1.889 1.9492 1.889h35.102c1.08 0 1.949-0.842 1.949-1.889v-1c0 1.047-0.869 1.889-1.949 1.889h-35.102c-1.0801 0-1.949-0.842-1.949-1.889z" opacity=".2"/>
 <path d="m9 24.01v1c0 0.548 0.4418 0.99 0.9902 0.99h2.0198c0.548 0 0.99-0.442 0.99-0.99v-1c0 0.548-0.442 0.99-0.99 0.99h-2.0198c-0.5484 0-0.9902-0.442-0.9902-0.99zm5 0v1c0 0.548 0.442 0.99 0.99 0.99h2.02c0.548 0 0.99-0.442 0.99-0.99v-1c0 0.548-0.442 0.99-0.99 0.99h-2.02c-0.548 0-0.99-0.442-0.99-0.99zm10 0v1c0 0.548 0.442 0.99 0.99 0.99h2.02c0.548 0 0.99-0.442 0.99-0.99v-1c0 0.548-0.442 0.99-0.99 0.99h-2.02c-0.548 0-0.99-0.442-0.99-0.99zm5 0v1c0 0.548 0.442 0.99 0.99 0.99h2.02c0.548 0 0.99-0.442 0.99-0.99v-1c0 0.548-0.442 0.99-0.99 0.99h-2.02c-0.548 0-0.99-0.442-0.99-0.99zm5 0v1c0 0.548 0.442 0.99 0.99 0.99h2.02c0.548 0 0.99-0.442 0.99-0.99v-1c0 0.548-0.442 0.99-0.99 0.99h-2.02c-0.548 0-0.99-0.442-0.99-0.99z" opacity=".2"/>
</svg>
