<svg width="48" height="48" version="1.1" viewBox="0 0 48 48" xmlns="http://www.w3.org/2000/svg">
 <path d="M 18,5 C 11.352,5 6,10.430561 6,17.175781 v 6.648438 c 0,0.144485 0.016613,0.284496 0.021484,0.427734 0.07553,4.681749 0.6485998,13.189434 3.7851562,16.761719 C 12.865595,44.497574 20.000733,45 22.882812,45 28.004687,45 31,42.994141 31,42.994141 v -3.007813 c 0,0 -3.802747,1.078474 -7.451172,1.013672 C 21.043431,40.9555 18.610509,40.299064 17.533203,38.675781 17.077381,37.988948 17.231959,37.113613 17,36 c -0.0034,-0.01627 -0.0064,-0.03444 -0.0098,-0.05078 C 17.323834,35.977232 17.659035,36 18,36 h 12 c 6.648,0 12,-5.430561 12,-12.175781 V 17.175781 C 42,10.430561 36.648,5 30,5 Z" style="opacity:.2"/>
 <rect x="6" y="4" width="36" height="31" rx="12" ry="12.175" style="fill:#3088d4"/>
 <path d="m 6.032951,20 h 10.566226 c 0,0 -0.74784,9.485369 0.400823,15 0.231959,1.113613 0.0773,1.988257 0.533122,2.67509 C 18.610428,39.298373 21.042714,39.9555 23.548111,40 27.196536,40.064802 31,38.985559 31,38.985559 v 3.008665 C 31,41.994224 28.003954,44 22.88208,44 20,44 12.865804,43.498342 9.8068499,40.01444 5.3878012,34.9815 6.032951,20 6.032951,20 Z" style="fill:#3088d4"/>
 <circle cx="16" cy="17" r="2" style="opacity:.2"/>
 <circle cx="16" cy="16" r="2" style="fill:#ffffff"/>
 <path d="m18 4c-6.648 0-12 5.4305608-12 12.175781v1c0-6.74522 5.352-12.175781 12-12.175781h12c6.648 0 12 5.430561 12 12.175781v-1c0-6.7452202-5.352-12.175781-12-12.175781h-12zm-1.009766 31.949219c0.0034 0.01634 0.006366 0.034511 0.009766 0.050781 0.231959 1.113613 0.077381 1.988948 0.533203 2.675781 1.077306 1.623283 3.510228 2.279719 6.015625 2.324219 3.648425 0.064802 7.451172-1.013672 7.451172-1.013672v-1s-3.802747 1.078474-7.451172 1.013672c-2.505397-0.0445-4.938319-0.700936-6.015625-2.324219-0.315108-0.474806-0.339339-1.047333-0.400391-1.71875-0.047193-0.003697-0.095458-0.003856-0.142578-0.007812z" style="fill:#ffffff;opacity:.2"/>
</svg>
