<svg width="48" height="48" version="1" xmlns="http://www.w3.org/2000/svg">
 <rect transform="scale(-1,1)" x="-40" y="4" width="32" height="40" rx="2" ry="2" style="opacity:.2"/>
 <rect transform="scale(-1,1)" x="-40" y="3" width="32" height="40" rx="2" ry="2" style="fill:#8e8e8e"/>
 <rect x="14" y="9" width="20" height="12" rx="0" ry="0" style="opacity:.5"/>
 <path d="m19 27v12l12-6" style="opacity:.2"/>
 <path d="m19 26v12l12-6" style="fill:#e4e4e4"/>
 <path d="m10 3c-1.108 0-2 0.892-2 2v1c0-1.108 0.892-2 2-2h28c1.108 0 2 0.892 2 2v-1c0-1.108-0.892-2-2-2h-28z" style="fill:#ffffff;opacity:.2"/>
</svg>
