<svg width="48" height="48" version="1" xmlns="http://www.w3.org/2000/svg">
 <rect transform="matrix(0,-1,-1,0,0,0)" x="-44" y="-44" width="40" height="40" rx="2" ry="2" style="fill:#aedeec"/>
 <path d="m6 4c-1.108 0-2 0.892-2 2v1c0-1.108 0.892-2 2-2h36c1.108 0 2 0.892 2 2v-1c0-1.108-0.892-2-2-2h-36z" fill="#fff" opacity=".2"/>
 <path d="m6 45c-1.108 0-2-0.892-2-2v-1c0 1.108 0.892 2 2 2h36c1.108 0 2-0.892 2-2v1c0 1.108-0.892 2-2 2h-36z" opacity=".2"/>
 <path d="m11 15.0001v2h8e-3l4.5918 7.9492-4.5996 7.9648v2.0859h16v-4h-2v2h-11.738l4.041-7 0.60547-1.0488v-2e-3l-0.60547-1.0488-3.9844-6.9004h9.6816v1h2v-3h-14z" style="opacity:.2"/>
 <path d="m11 14v2h8e-3l4.5918 7.9492-4.5996 7.9648v2.0859h16v-4h-2v2h-11.738l4.041-7 0.60547-1.0488v-2e-3l-0.60547-1.0488-3.9844-6.9004h9.6816v1h2v-3h-14z" style="fill:#e37739"/>
 <rect x="32" y="4" width="2" height="40" style="fill:#ffffff"/>
</svg>
