<svg width="48" height="48" version="1" xmlns="http://www.w3.org/2000/svg">
 <path d="m40 42v-36c0-1.108-0.892-2-2-2h-28c-1.108 0-2 0.892-2 2v36c0 1.108 0.892 2 2 2h28c1.108 0 2-0.892 2-2z" fill="#4f4f4f"/>
 <path d="m22 7v8h4v-8zm0 14v8h4v-8zm0 14v8h4v-8z" style="opacity:.2"/>
 <path d="m22 6v8h4v-8h-4zm0 14v8h4v-8h-4zm0 14v8h4v-8h-4z" style="fill:#ffffff"/>
 <path d="m10 4c-1.108 0-2 0.892-2 2v1c0-1.108 0.892-2 2-2h28c1.108 0 2 0.892 2 2v-1c0-1.108-0.892-2-2-2z" fill="#fff" opacity=".1"/>
 <path d="m8 42v1c0 1.108 0.892 2 2 2h28c1.108 0 2-0.892 2-2v-1c0 1.108-0.892 2-2 2h-28c-1.108 0-2-0.892-2-2z" opacity=".2"/>
 <circle cx="36" cy="37" r="11" fill-rule="evenodd" opacity=".2"/>
 <circle cx="36" cy="36" r="11" fill-rule="evenodd" style="fill:#3f8ce6"/>
 <path d="m35 27v2.080078a7 7 0 0 0 -5.921875 5.919922h-2.078125v2h2.080078a7 7 0 0 0 5.919922 5.921875v2.078125h2v-2.080078a7 7 0 0 0 5.921875 -5.919922h2.078125v-2h-2.080078a7 7 0 0 0 -5.919922 -5.921875v-2.078125h-2zm1 5a4 4 0 0 1 4 4 4 4 0 0 1 -4 4 4 4 0 0 1 -4 -4 4 4 0 0 1 4 -4z" style="fill:#ffffff"/>
</svg>
