<svg width="48" height="48" version="1.1" viewBox="0 0 48 48" xmlns="http://www.w3.org/2000/svg">
 <path d="m4.0215 24.418a20 20 0 0 0 -0.0215 0.582 20 20 0 0 0 20 20 20 20 0 0 0 20 -20 20 20 0 0 0 -0.021 -0.418 20 20 0 0 1 -19.979 19.418 20 20 0 0 1 -19.978 -19.582z" opacity=".2"/>
 <path d="M 34,6.6794918 A 20,20 0 0 0 6.6794918,14 20,20 0 0 0 14,41.320508 20,20 0 0 0 41.320508,34 20,20 0 0 0 34,6.6794918 Z" style="fill:#42b8fe"/>
 <path d="m24 4a20 20 0 0 0 -20 20 20 20 0 0 0 0.0215 0.418 20 20 0 0 1 19.978 -19.418 20 20 0 0 1 19.979 19.582 20 20 0 0 0 0.021 -0.582 20 20 0 0 0 -20 -20z" fill="#ffffff" opacity=".2"/>
 <path transform="matrix(.79277569 .61020802 -.61020802 .79277569 18.478075 -9.5589467)" d="m26.721132 7.139029 1.350113 3.796569 3.639254-1.7299056-1.729906 3.6392536 3.796569 1.350113-3.796569 1.350113 1.729906 3.639253-3.639254-1.729906-1.350113 3.79657-1.350113-3.79657-3.639253 1.729906 1.729906-3.639254-3.79657-1.350112 3.79657-1.350113-1.729906-3.6392538 3.639254 1.7299058z" style="opacity:.2"/>
 <path transform="matrix(.79277569 .61020802 -.61020802 .79277569 18.478075 -10.558947)" d="m26.721132 7.139029 1.350113 3.796569 3.639254-1.7299056-1.729906 3.6392536 3.796569 1.350113-3.796569 1.350113 1.729906 3.639253-3.639254-1.729906-1.350113 3.79657-1.350113-3.79657-3.639253 1.729906 1.729906-3.639254-3.79657-1.350112 3.79657-1.350113-1.729906-3.6392538 3.639254 1.7299058z" style="fill:#ffffff"/>
 <path d="m14 6.9998236c-5 16 0.05932 26.890731 11 38" style="fill:none;opacity:.2;stroke-linecap:round;stroke-linejoin:round;stroke-width:2;stroke:#000000"/>
 <path d="m14 6c-5 16 0.05932 26.890731 11 38" style="fill:none;stroke-linecap:round;stroke-linejoin:round;stroke-width:2;stroke:#3f3f3f"/>
 <path d="m44 25.999824c-11.265171 11.207928-23 13-38 9" style="fill:none;opacity:.2;stroke-linecap:round;stroke-linejoin:round;stroke-width:2;stroke:#000000"/>
 <path d="m44 25c-11.265171 11.207928-23 13-38 9" style="fill:none;stroke-linecap:round;stroke-linejoin:round;stroke-width:2;stroke:#3f3f3f"/>
</svg>
