<svg width="48" height="48" version="1.0" xmlns="http://www.w3.org/2000/svg">
 <text x="877.22626" y="10.812601" font-family="'Bitstream Vera Sans'" font-size="12.666px" opacity=".8" xml:space="preserve"><tspan x="877.22626" y="10.812601"/></text>
 <text x="901.18719" y="-29.929106" font-family="'Bitstream Vera Sans'" font-size="12.666px" opacity=".8" xml:space="preserve"><tspan x="901.18719" y="-29.929106"/></text>
 <text x="-569.37115" y="-60.007248" font-family="'Bitstream Vera Sans'" font-size="12.666px" opacity=".8" xml:space="preserve"><tspan x="-569.37115" y="-60.007248"/></text>
 <text x="-2393.0571" y="685.5462" font-family="'Bitstream Vera Sans'" font-size="12.666px" opacity=".8" xml:space="preserve"><tspan x="-2393.0571" y="685.5462"/></text>
 <text x="-454.88007" y="-445.32822" font-family="'Bitstream Vera Sans'" font-size="12.666px" opacity=".8" xml:space="preserve"><tspan x="-454.88007" y="-445.32822"/></text>
 <text x="352.72208" y="-858.79834" font-family="'Bitstream Vera Sans'" font-size="12.666px" opacity=".8" xml:space="preserve"><tspan x="352.72208" y="-858.79834"/></text>
 <text x="376.68301" y="-899.54004" font-family="'Bitstream Vera Sans'" font-size="12.666px" opacity=".8" xml:space="preserve"><tspan x="376.68301" y="-899.54004"/></text>
 <text x="-1114.7802" y="-906.74994" font-family="'Bitstream Vera Sans'" font-size="12.666px" opacity=".8" xml:space="preserve"><tspan x="-1114.7802" y="-906.74994"/></text>
 <text x="345.7626" y="-1179.9841" font-family="'Bitstream Vera Sans'" font-size="12.666px" opacity=".8" xml:space="preserve"><tspan x="345.7626" y="-1179.9841"/></text>
 <text x="1831.8861" y="-553.29272" font-family="'Bitstream Vera Sans'" font-size="12.666px" opacity=".8" xml:space="preserve"><tspan x="1831.8861" y="-553.29272"/></text>
 <text x="1855.8469" y="-594.03448" font-family="'Bitstream Vera Sans'" font-size="12.666px" opacity=".8" xml:space="preserve"><tspan x="1855.8469" y="-594.03448"/></text>
 <text x="364.38376" y="-601.24438" font-family="'Bitstream Vera Sans'" font-size="12.666px" opacity=".8" xml:space="preserve"><tspan x="364.38376" y="-601.24438"/></text>
 <text x="1824.9266" y="-874.47839" font-family="'Bitstream Vera Sans'" font-size="12.666px" opacity=".8" xml:space="preserve"><tspan x="1824.9266" y="-874.47839"/></text>
 <text x="-573.43256" y="-649.33569" font-family="'Bitstream Vera Sans'" font-size="12.666px" opacity=".8" xml:space="preserve"><tspan x="-573.43256" y="-649.33569"/></text>
 <text x="-2397.1182" y="96.217857" font-family="'Bitstream Vera Sans'" font-size="12.666px" opacity=".8" xml:space="preserve"><tspan x="-2397.1182" y="96.217857"/></text>
 <text x="-682.36279" y="189.09" font-family="'Bitstream Vera Sans'" font-size="12.666px" opacity=".8" xml:space="preserve"><tspan x="-682.36279" y="189.09"/></text>
 <text x="426.66153" y="9.9078522" font-family="'Bitstream Vera Sans'" font-size="12.666px" opacity=".8" xml:space="preserve"><tspan x="426.66153" y="9.9078522"/></text>
 <text x="450.62247" y="-30.833855" font-family="'Bitstream Vera Sans'" font-size="12.666px" opacity=".8" xml:space="preserve"><tspan x="450.62247" y="-30.833855"/></text>
 <text x="-1040.8407" y="-38.043827" font-family="'Bitstream Vera Sans'" font-size="12.666px" opacity=".8" xml:space="preserve"><tspan x="-1040.8407" y="-38.043827"/></text>
 <text x="419.70206" y="-311.27789" font-family="'Bitstream Vera Sans'" font-size="12.666px" opacity=".8" xml:space="preserve"><tspan x="419.70206" y="-311.27789"/></text>
 <text x="-608.03253" y="-40.758072" font-family="'Bitstream Vera Sans'" font-size="12.666px" opacity=".8" xml:space="preserve"><tspan x="-608.03253" y="-40.758072"/></text>
 <text x="-2431.7185" y="704.79541" font-family="'Bitstream Vera Sans'" font-size="12.666px" opacity=".8" xml:space="preserve"><tspan x="-2431.7185" y="704.79541"/></text>
 <text x="-456.93948" y="-902.28857" font-family="'Bitstream Vera Sans'" font-size="12.666px" opacity=".8" xml:space="preserve"><tspan x="-456.93948" y="-902.28857"/></text>
 <text x="350.66266" y="-1315.7588" font-family="'Bitstream Vera Sans'" font-size="12.666px" opacity=".8" xml:space="preserve"><tspan x="350.66266" y="-1315.7588"/></text>
 <text x="374.62357" y="-1356.5005" font-family="'Bitstream Vera Sans'" font-size="12.666px" opacity=".8" xml:space="preserve"><tspan x="374.62357" y="-1356.5005"/></text>
 <text x="-1116.8396" y="-1363.7104" font-family="'Bitstream Vera Sans'" font-size="12.666px" opacity=".8" xml:space="preserve"><tspan x="-1116.8396" y="-1363.7104"/></text>
 <text x="343.70316" y="-1636.9446" font-family="'Bitstream Vera Sans'" font-size="12.666px" opacity=".8" xml:space="preserve"><tspan x="343.70316" y="-1636.9446"/></text>
 <text x="1829.8265" y="-1010.2533" font-family="'Bitstream Vera Sans'" font-size="12.666px" opacity=".8" xml:space="preserve"><tspan x="1829.8265" y="-1010.2533"/></text>
 <text x="1853.7874" y="-1050.9949" font-family="'Bitstream Vera Sans'" font-size="12.666px" opacity=".8" xml:space="preserve"><tspan x="1853.7874" y="-1050.9949"/></text>
 <text x="362.32431" y="-1058.2048" font-family="'Bitstream Vera Sans'" font-size="12.666px" opacity=".8" xml:space="preserve"><tspan x="362.32431" y="-1058.2048"/></text>
 <text x="1822.8671" y="-1331.439" font-family="'Bitstream Vera Sans'" font-size="12.666px" opacity=".8" xml:space="preserve"><tspan x="1822.8671" y="-1331.439"/></text>
 <text x="-575.492" y="-1106.2961" font-family="'Bitstream Vera Sans'" font-size="12.666px" opacity=".8" xml:space="preserve"><tspan x="-575.492" y="-1106.2961"/></text>
 <text x="-2399.1777" y="-360.74261" font-family="'Bitstream Vera Sans'" font-size="12.666px" opacity=".8" xml:space="preserve"><tspan x="-2399.1777" y="-360.74261"/></text>
 <text x="-684.42224" y="-267.87045" font-family="'Bitstream Vera Sans'" font-size="12.666px" opacity=".8" xml:space="preserve"><tspan x="-684.42224" y="-267.87045"/></text>
 <text x="155.5923" y="-26.956278" font-family="'Bitstream Vera Sans'" font-size="12.666px" opacity=".8" xml:space="preserve"><tspan x="155.5923" y="-26.956278"/></text>
 <text x="179.55324" y="-67.697998" font-family="'Bitstream Vera Sans'" font-size="12.666px" opacity=".8" xml:space="preserve"><tspan x="179.55324" y="-67.697998"/></text>
 <text x="-1090.2634" y="-261.72662" font-family="'Bitstream Vera Sans'" font-size="12.666px" opacity=".8" xml:space="preserve"><tspan x="-1090.2634" y="-261.72662"/></text>
 <text x="-282.66141" y="-675.19678" font-family="'Bitstream Vera Sans'" font-size="12.666px" opacity=".8" xml:space="preserve"><tspan x="-282.66141" y="-675.19678"/></text>
 <text x="-258.70047" y="-715.93848" font-family="'Bitstream Vera Sans'" font-size="12.666px" opacity=".8" xml:space="preserve"><tspan x="-258.70047" y="-715.93848"/></text>
 <text x="-1750.1636" y="-723.14838" font-family="'Bitstream Vera Sans'" font-size="12.666px" opacity=".8" xml:space="preserve"><tspan x="-1750.1636" y="-723.14838"/></text>
 <text x="-289.62085" y="-996.38251" font-family="'Bitstream Vera Sans'" font-size="12.666px" opacity=".8" xml:space="preserve"><tspan x="-289.62085" y="-996.38251"/></text>
 <text x="1196.5026" y="-369.69113" font-family="'Bitstream Vera Sans'" font-size="12.666px" opacity=".8" xml:space="preserve"><tspan x="1196.5026" y="-369.69113"/></text>
 <text x="1220.4634" y="-410.43286" font-family="'Bitstream Vera Sans'" font-size="12.666px" opacity=".8" xml:space="preserve"><tspan x="1220.4634" y="-410.43286"/></text>
 <text x="-270.99973" y="-417.64282" font-family="'Bitstream Vera Sans'" font-size="12.666px" opacity=".8" xml:space="preserve"><tspan x="-270.99973" y="-417.64282"/></text>
 <text x="1189.5431" y="-690.87689" font-family="'Bitstream Vera Sans'" font-size="12.666px" opacity=".8" xml:space="preserve"><tspan x="1189.5431" y="-690.87689"/></text>
 <text x="-1208.816" y="-465.7341" font-family="'Bitstream Vera Sans'" font-size="12.666px" opacity=".8" xml:space="preserve"><tspan x="-1208.816" y="-465.7341"/></text>
 <text x="-3032.5017" y="279.81946" font-family="'Bitstream Vera Sans'" font-size="12.666px" opacity=".8" xml:space="preserve"><tspan x="-3032.5017" y="279.81946"/></text>
 <g transform="matrix(.90475 0 0 .90475 -716.75 -676.29)">
  <text x="-664.2738" y="1159.4154" font-family="'Bitstream Vera Sans'" font-size="14px" opacity=".8" xml:space="preserve"><tspan x="-664.2738" y="1159.4154"/></text>
 </g>
 <text x="877.22626" y="18.050589" font-family="'Bitstream Vera Sans'" font-size="12.666px" opacity=".8" xml:space="preserve"><tspan x="877.22626" y="18.050589"/></text>
 <text x="901.18719" y="-22.691116" font-family="'Bitstream Vera Sans'" font-size="12.666px" opacity=".8" xml:space="preserve"><tspan x="901.18719" y="-22.691116"/></text>
 <text x="-569.37115" y="-52.76926" font-family="'Bitstream Vera Sans'" font-size="12.666px" opacity=".8" xml:space="preserve"><tspan x="-569.37115" y="-52.76926"/></text>
 <text x="-2393.0571" y="692.78418" font-family="'Bitstream Vera Sans'" font-size="12.666px" opacity=".8" xml:space="preserve"><tspan x="-2393.0571" y="692.78418"/></text>
 <text x="-454.88007" y="-438.09021" font-family="'Bitstream Vera Sans'" font-size="12.666px" opacity=".8" xml:space="preserve"><tspan x="-454.88007" y="-438.09021"/></text>
 <text x="352.72208" y="-851.5603" font-family="'Bitstream Vera Sans'" font-size="12.666px" opacity=".8" xml:space="preserve"><tspan x="352.72208" y="-851.5603"/></text>
 <text x="376.68301" y="-892.30206" font-family="'Bitstream Vera Sans'" font-size="12.666px" opacity=".8" xml:space="preserve"><tspan x="376.68301" y="-892.30206"/></text>
 <text x="-1114.7802" y="-899.51196" font-family="'Bitstream Vera Sans'" font-size="12.666px" opacity=".8" xml:space="preserve"><tspan x="-1114.7802" y="-899.51196"/></text>
 <text x="345.7626" y="-1172.7461" font-family="'Bitstream Vera Sans'" font-size="12.666px" opacity=".8" xml:space="preserve"><tspan x="345.7626" y="-1172.7461"/></text>
 <text x="1831.8861" y="-546.05475" font-family="'Bitstream Vera Sans'" font-size="12.666px" opacity=".8" xml:space="preserve"><tspan x="1831.8861" y="-546.05475"/></text>
 <text x="1855.8469" y="-586.79651" font-family="'Bitstream Vera Sans'" font-size="12.666px" opacity=".8" xml:space="preserve"><tspan x="1855.8469" y="-586.79651"/></text>
 <text x="364.38376" y="-594.00641" font-family="'Bitstream Vera Sans'" font-size="12.666px" opacity=".8" xml:space="preserve"><tspan x="364.38376" y="-594.00641"/></text>
 <text x="1824.9266" y="-867.24036" font-family="'Bitstream Vera Sans'" font-size="12.666px" opacity=".8" xml:space="preserve"><tspan x="1824.9266" y="-867.24036"/></text>
 <text x="-573.43256" y="-642.09772" font-family="'Bitstream Vera Sans'" font-size="12.666px" opacity=".8" xml:space="preserve"><tspan x="-573.43256" y="-642.09772"/></text>
 <text x="-2397.1182" y="103.45585" font-family="'Bitstream Vera Sans'" font-size="12.666px" opacity=".8" xml:space="preserve"><tspan x="-2397.1182" y="103.45585"/></text>
 <text x="-682.36279" y="196.32799" font-family="'Bitstream Vera Sans'" font-size="12.666px" opacity=".8" xml:space="preserve"><tspan x="-682.36279" y="196.32799"/></text>
 <text x="426.66153" y="17.14584" font-family="'Bitstream Vera Sans'" font-size="12.666px" opacity=".8" xml:space="preserve"><tspan x="426.66153" y="17.14584"/></text>
 <text x="450.62247" y="-23.595865" font-family="'Bitstream Vera Sans'" font-size="12.666px" opacity=".8" xml:space="preserve"><tspan x="450.62247" y="-23.595865"/></text>
 <text x="-1040.8407" y="-30.805836" font-family="'Bitstream Vera Sans'" font-size="12.666px" opacity=".8" xml:space="preserve"><tspan x="-1040.8407" y="-30.805836"/></text>
 <text x="419.70206" y="-304.03989" font-family="'Bitstream Vera Sans'" font-size="12.666px" opacity=".8" xml:space="preserve"><tspan x="419.70206" y="-304.03989"/></text>
 <text x="-608.03253" y="-33.520081" font-family="'Bitstream Vera Sans'" font-size="12.666px" opacity=".8" xml:space="preserve"><tspan x="-608.03253" y="-33.520081"/></text>
 <text x="-2431.7185" y="712.03345" font-family="'Bitstream Vera Sans'" font-size="12.666px" opacity=".8" xml:space="preserve"><tspan x="-2431.7185" y="712.03345"/></text>
 <text x="-456.93948" y="-895.0506" font-family="'Bitstream Vera Sans'" font-size="12.666px" opacity=".8" xml:space="preserve"><tspan x="-456.93948" y="-895.0506"/></text>
 <text x="350.66266" y="-1308.5208" font-family="'Bitstream Vera Sans'" font-size="12.666px" opacity=".8" xml:space="preserve"><tspan x="350.66266" y="-1308.5208"/></text>
 <text x="374.62357" y="-1349.2626" font-family="'Bitstream Vera Sans'" font-size="12.666px" opacity=".8" xml:space="preserve"><tspan x="374.62357" y="-1349.2626"/></text>
 <text x="-1116.8396" y="-1356.4724" font-family="'Bitstream Vera Sans'" font-size="12.666px" opacity=".8" xml:space="preserve"><tspan x="-1116.8396" y="-1356.4724"/></text>
 <text x="343.70316" y="-1629.7065" font-family="'Bitstream Vera Sans'" font-size="12.666px" opacity=".8" xml:space="preserve"><tspan x="343.70316" y="-1629.7065"/></text>
 <text x="1829.8265" y="-1003.0153" font-family="'Bitstream Vera Sans'" font-size="12.666px" opacity=".8" xml:space="preserve"><tspan x="1829.8265" y="-1003.0153"/></text>
 <text x="1853.7874" y="-1043.757" font-family="'Bitstream Vera Sans'" font-size="12.666px" opacity=".8" xml:space="preserve"><tspan x="1853.7874" y="-1043.757"/></text>
 <text x="362.32431" y="-1050.9668" font-family="'Bitstream Vera Sans'" font-size="12.666px" opacity=".8" xml:space="preserve"><tspan x="362.32431" y="-1050.9668"/></text>
 <text x="1822.8671" y="-1324.2009" font-family="'Bitstream Vera Sans'" font-size="12.666px" opacity=".8" xml:space="preserve"><tspan x="1822.8671" y="-1324.2009"/></text>
 <text x="-575.492" y="-1099.0581" font-family="'Bitstream Vera Sans'" font-size="12.666px" opacity=".8" xml:space="preserve"><tspan x="-575.492" y="-1099.0581"/></text>
 <text x="-2399.1777" y="-353.50461" font-family="'Bitstream Vera Sans'" font-size="12.666px" opacity=".8" xml:space="preserve"><tspan x="-2399.1777" y="-353.50461"/></text>
 <text x="-684.42224" y="-260.63245" font-family="'Bitstream Vera Sans'" font-size="12.666px" opacity=".8" xml:space="preserve"><tspan x="-684.42224" y="-260.63245"/></text>
 <text x="155.5923" y="-19.71829" font-family="'Bitstream Vera Sans'" font-size="12.666px" opacity=".8" xml:space="preserve"><tspan x="155.5923" y="-19.71829"/></text>
 <text x="179.55324" y="-60.460011" font-family="'Bitstream Vera Sans'" font-size="12.666px" opacity=".8" xml:space="preserve"><tspan x="179.55324" y="-60.460011"/></text>
 <text x="-1090.2634" y="-254.4886" font-family="'Bitstream Vera Sans'" font-size="12.666px" opacity=".8" xml:space="preserve"><tspan x="-1090.2634" y="-254.4886"/></text>
 <text x="-282.66141" y="-667.9588" font-family="'Bitstream Vera Sans'" font-size="12.666px" opacity=".8" xml:space="preserve"><tspan x="-282.66141" y="-667.9588"/></text>
 <text x="-258.70047" y="-708.7005" font-family="'Bitstream Vera Sans'" font-size="12.666px" opacity=".8" xml:space="preserve"><tspan x="-258.70047" y="-708.7005"/></text>
 <text x="-1750.1636" y="-715.91046" font-family="'Bitstream Vera Sans'" font-size="12.666px" opacity=".8" xml:space="preserve"><tspan x="-1750.1636" y="-715.91046"/></text>
 <text x="-289.62085" y="-989.14447" font-family="'Bitstream Vera Sans'" font-size="12.666px" opacity=".8" xml:space="preserve"><tspan x="-289.62085" y="-989.14447"/></text>
 <text x="1196.5026" y="-362.45316" font-family="'Bitstream Vera Sans'" font-size="12.666px" opacity=".8" xml:space="preserve"><tspan x="1196.5026" y="-362.45316"/></text>
 <text x="1220.4634" y="-403.19489" font-family="'Bitstream Vera Sans'" font-size="12.666px" opacity=".8" xml:space="preserve"><tspan x="1220.4634" y="-403.19489"/></text>
 <text x="-270.99973" y="-410.40482" font-family="'Bitstream Vera Sans'" font-size="12.666px" opacity=".8" xml:space="preserve"><tspan x="-270.99973" y="-410.40482"/></text>
 <text x="1189.5431" y="-683.63892" font-family="'Bitstream Vera Sans'" font-size="12.666px" opacity=".8" xml:space="preserve"><tspan x="1189.5431" y="-683.63892"/></text>
 <text x="-1208.816" y="-458.49609" font-family="'Bitstream Vera Sans'" font-size="12.666px" opacity=".8" xml:space="preserve"><tspan x="-1208.816" y="-458.49609"/></text>
 <text x="-3032.5017" y="287.05743" font-family="'Bitstream Vera Sans'" font-size="12.666px" opacity=".8" xml:space="preserve"><tspan x="-3032.5017" y="287.05743"/></text>
 <g transform="matrix(.90475 0 0 .90475 -716.75 -669.05)">
  <text x="-664.2738" y="1159.4154" font-family="'Bitstream Vera Sans'" font-size="14px" opacity=".8" xml:space="preserve"><tspan x="-664.2738" y="1159.4154"/></text>
 </g>
 <text x="435.90427" y="-361.22546" font-family="'Droid Sans'" font-size="12.666px" xml:space="preserve"><tspan x="435.90427" y="-361.22546"/><tspan x="435.90427" y="-345.3924"/></text>
 <text x="901.0882" y="-843.27002" font-family="'Bitstream Vera Sans'" font-size="12.666px" opacity=".8" xml:space="preserve"><tspan x="901.0882" y="-843.27002"/></text>
 <text x="-922.59778" y="-97.716553" font-family="'Bitstream Vera Sans'" font-size="12.666px" opacity=".8" xml:space="preserve"><tspan x="-922.59778" y="-97.716553"/></text>
 <text x="1628.1677" y="-1128.2659" font-family="'Bitstream Vera Sans'" font-size="12.666px" opacity=".8" xml:space="preserve"><tspan x="1628.1677" y="-1128.2659"/></text>
 <text x="1652.1285" y="-1169.0076" font-family="'Bitstream Vera Sans'" font-size="12.666px" opacity=".8" xml:space="preserve"><tspan x="1652.1285" y="-1169.0076"/></text>
 <text x="160.66542" y="-1176.2175" font-family="'Bitstream Vera Sans'" font-size="12.666px" opacity=".8" xml:space="preserve"><tspan x="160.66542" y="-1176.2175"/></text>
 <text x="1621.2083" y="-1449.4517" font-family="'Bitstream Vera Sans'" font-size="12.666px" opacity=".8" xml:space="preserve"><tspan x="1621.2083" y="-1449.4517"/></text>
 <text x="815.97375" y="9.8175516" font-family="'Bitstream Vera Sans'" font-size="12.666px" opacity=".8" xml:space="preserve"><tspan x="815.97375" y="9.8175516"/></text>
 <text x="839.93469" y="-30.924156" font-family="'Bitstream Vera Sans'" font-size="12.666px" opacity=".8" xml:space="preserve"><tspan x="839.93469" y="-30.924156"/></text>
 <text x="-630.62366" y="-61.002296" font-family="'Bitstream Vera Sans'" font-size="12.666px" opacity=".8" xml:space="preserve"><tspan x="-630.62366" y="-61.002296"/></text>
 <text x="-2454.3096" y="684.55115" font-family="'Bitstream Vera Sans'" font-size="12.666px" opacity=".8" xml:space="preserve"><tspan x="-2454.3096" y="684.55115"/></text>
 <text x="-516.13257" y="-446.32327" font-family="'Bitstream Vera Sans'" font-size="12.666px" opacity=".8" xml:space="preserve"><tspan x="-516.13257" y="-446.32327"/></text>
 <text x="291.4696" y="-859.7934" font-family="'Bitstream Vera Sans'" font-size="12.666px" opacity=".8" xml:space="preserve"><tspan x="291.4696" y="-859.7934"/></text>
 <text x="315.43054" y="-900.5351" font-family="'Bitstream Vera Sans'" font-size="12.666px" opacity=".8" xml:space="preserve"><tspan x="315.43054" y="-900.5351"/></text>
 <text x="-1176.0326" y="-907.745" font-family="'Bitstream Vera Sans'" font-size="12.666px" opacity=".8" xml:space="preserve"><tspan x="-1176.0326" y="-907.745"/></text>
 <text x="284.51013" y="-1180.9791" font-family="'Bitstream Vera Sans'" font-size="12.666px" opacity=".8" xml:space="preserve"><tspan x="284.51013" y="-1180.9791"/></text>
 <text x="1770.6337" y="-554.28778" font-family="'Bitstream Vera Sans'" font-size="12.666px" opacity=".8" xml:space="preserve"><tspan x="1770.6337" y="-554.28778"/></text>
 <text x="1794.5945" y="-595.02954" font-family="'Bitstream Vera Sans'" font-size="12.666px" opacity=".8" xml:space="preserve"><tspan x="1794.5945" y="-595.02954"/></text>
 <text x="303.13129" y="-602.23944" font-family="'Bitstream Vera Sans'" font-size="12.666px" opacity=".8" xml:space="preserve"><tspan x="303.13129" y="-602.23944"/></text>
 <text x="1763.6742" y="-875.47345" font-family="'Bitstream Vera Sans'" font-size="12.666px" opacity=".8" xml:space="preserve"><tspan x="1763.6742" y="-875.47345"/></text>
 <text x="-634.68506" y="-650.33075" font-family="'Bitstream Vera Sans'" font-size="12.666px" opacity=".8" xml:space="preserve"><tspan x="-634.68506" y="-650.33075"/></text>
 <text x="-2458.3706" y="95.222809" font-family="'Bitstream Vera Sans'" font-size="12.666px" opacity=".8" xml:space="preserve"><tspan x="-2458.3706" y="95.222809"/></text>
 <text x="-743.6153" y="188.09494" font-family="'Bitstream Vera Sans'" font-size="12.666px" opacity=".8" xml:space="preserve"><tspan x="-743.6153" y="188.09494"/></text>
 <text x="365.40906" y="8.9128027" font-family="'Bitstream Vera Sans'" font-size="12.666px" opacity=".8" xml:space="preserve"><tspan x="365.40906" y="8.9128027"/></text>
 <text x="389.37" y="-31.828905" font-family="'Bitstream Vera Sans'" font-size="12.666px" opacity=".8" xml:space="preserve"><tspan x="389.37" y="-31.828905"/></text>
 <text x="-1102.0931" y="-39.038876" font-family="'Bitstream Vera Sans'" font-size="12.666px" opacity=".8" xml:space="preserve"><tspan x="-1102.0931" y="-39.038876"/></text>
 <text x="358.44958" y="-312.27295" font-family="'Bitstream Vera Sans'" font-size="12.666px" opacity=".8" xml:space="preserve"><tspan x="358.44958" y="-312.27295"/></text>
 <text x="-669.28503" y="-41.75312" font-family="'Bitstream Vera Sans'" font-size="12.666px" opacity=".8" xml:space="preserve"><tspan x="-669.28503" y="-41.75312"/></text>
 <text x="-2492.9709" y="703.80035" font-family="'Bitstream Vera Sans'" font-size="12.666px" opacity=".8" xml:space="preserve"><tspan x="-2492.9709" y="703.80035"/></text>
 <text x="-518.19196" y="-903.28363" font-family="'Bitstream Vera Sans'" font-size="12.666px" opacity=".8" xml:space="preserve"><tspan x="-518.19196" y="-903.28363"/></text>
 <text x="289.41019" y="-1316.7538" font-family="'Bitstream Vera Sans'" font-size="12.666px" opacity=".8" xml:space="preserve"><tspan x="289.41019" y="-1316.7538"/></text>
 <text x="313.37109" y="-1357.4955" font-family="'Bitstream Vera Sans'" font-size="12.666px" opacity=".8" xml:space="preserve"><tspan x="313.37109" y="-1357.4955"/></text>
 <text x="-1178.092" y="-1364.7054" font-family="'Bitstream Vera Sans'" font-size="12.666px" opacity=".8" xml:space="preserve"><tspan x="-1178.092" y="-1364.7054"/></text>
 <text x="282.45068" y="-1637.9396" font-family="'Bitstream Vera Sans'" font-size="12.666px" opacity=".8" xml:space="preserve"><tspan x="282.45068" y="-1637.9396"/></text>
 <text x="1768.5741" y="-1011.2484" font-family="'Bitstream Vera Sans'" font-size="12.666px" opacity=".8" xml:space="preserve"><tspan x="1768.5741" y="-1011.2484"/></text>
 <text x="1792.5349" y="-1051.9899" font-family="'Bitstream Vera Sans'" font-size="12.666px" opacity=".8" xml:space="preserve"><tspan x="1792.5349" y="-1051.9899"/></text>
 <text x="301.07184" y="-1059.1998" font-family="'Bitstream Vera Sans'" font-size="12.666px" opacity=".8" xml:space="preserve"><tspan x="301.07184" y="-1059.1998"/></text>
 <text x="1761.6146" y="-1332.434" font-family="'Bitstream Vera Sans'" font-size="12.666px" opacity=".8" xml:space="preserve"><tspan x="1761.6146" y="-1332.434"/></text>
 <text x="-636.74451" y="-1107.2911" font-family="'Bitstream Vera Sans'" font-size="12.666px" opacity=".8" xml:space="preserve"><tspan x="-636.74451" y="-1107.2911"/></text>
 <text x="-2460.4302" y="-361.73767" font-family="'Bitstream Vera Sans'" font-size="12.666px" opacity=".8" xml:space="preserve"><tspan x="-2460.4302" y="-361.73767"/></text>
 <text x="-745.67474" y="-268.86551" font-family="'Bitstream Vera Sans'" font-size="12.666px" opacity=".8" xml:space="preserve"><tspan x="-745.67474" y="-268.86551"/></text>
 <text x="94.339828" y="-27.951328" font-family="'Bitstream Vera Sans'" font-size="12.666px" opacity=".8" xml:space="preserve"><tspan x="94.339828" y="-27.951328"/></text>
 <text x="118.30077" y="-68.693047" font-family="'Bitstream Vera Sans'" font-size="12.666px" opacity=".8" xml:space="preserve"><tspan x="118.30077" y="-68.693047"/></text>
 <text x="-1151.5159" y="-262.72168" font-family="'Bitstream Vera Sans'" font-size="12.666px" opacity=".8" xml:space="preserve"><tspan x="-1151.5159" y="-262.72168"/></text>
 <text x="-343.91388" y="-676.19183" font-family="'Bitstream Vera Sans'" font-size="12.666px" opacity=".8" xml:space="preserve"><tspan x="-343.91388" y="-676.19183"/></text>
 <text x="-319.95294" y="-716.93353" font-family="'Bitstream Vera Sans'" font-size="12.666px" opacity=".8" xml:space="preserve"><tspan x="-319.95294" y="-716.93353"/></text>
 <text x="-1811.416" y="-724.14343" font-family="'Bitstream Vera Sans'" font-size="12.666px" opacity=".8" xml:space="preserve"><tspan x="-1811.416" y="-724.14343"/></text>
 <text x="-350.87332" y="-997.37756" font-family="'Bitstream Vera Sans'" font-size="12.666px" opacity=".8" xml:space="preserve"><tspan x="-350.87332" y="-997.37756"/></text>
 <text x="1135.2501" y="-370.68619" font-family="'Bitstream Vera Sans'" font-size="12.666px" opacity=".8" xml:space="preserve"><tspan x="1135.2501" y="-370.68619"/></text>
 <text x="1159.2109" y="-411.42792" font-family="'Bitstream Vera Sans'" font-size="12.666px" opacity=".8" xml:space="preserve"><tspan x="1159.2109" y="-411.42792"/></text>
 <text x="-332.2522" y="-418.63788" font-family="'Bitstream Vera Sans'" font-size="12.666px" opacity=".8" xml:space="preserve"><tspan x="-332.2522" y="-418.63788"/></text>
 <text x="1128.2906" y="-691.87195" font-family="'Bitstream Vera Sans'" font-size="12.666px" opacity=".8" xml:space="preserve"><tspan x="1128.2906" y="-691.87195"/></text>
 <text x="-1270.0685" y="-466.72916" font-family="'Bitstream Vera Sans'" font-size="12.666px" opacity=".8" xml:space="preserve"><tspan x="-1270.0685" y="-466.72916"/></text>
 <text x="-3093.7542" y="278.8244" font-family="'Bitstream Vera Sans'" font-size="12.666px" opacity=".8" xml:space="preserve"><tspan x="-3093.7542" y="278.8244"/></text>
 <text x="-1378.9988" y="371.6965" font-family="'Bitstream Vera Sans'" font-size="12.666px" opacity=".8" xml:space="preserve"><tspan x="-1378.9988" y="371.6965"/></text>
 <text x="815.97375" y="17.055538" font-family="'Bitstream Vera Sans'" font-size="12.666px" opacity=".8" xml:space="preserve"><tspan x="815.97375" y="17.055538"/></text>
 <text x="839.93469" y="-23.686167" font-family="'Bitstream Vera Sans'" font-size="12.666px" opacity=".8" xml:space="preserve"><tspan x="839.93469" y="-23.686167"/></text>
 <text x="-630.62366" y="-53.764309" font-family="'Bitstream Vera Sans'" font-size="12.666px" opacity=".8" xml:space="preserve"><tspan x="-630.62366" y="-53.764309"/></text>
 <text x="-2454.3096" y="691.78912" font-family="'Bitstream Vera Sans'" font-size="12.666px" opacity=".8" xml:space="preserve"><tspan x="-2454.3096" y="691.78912"/></text>
 <text x="-516.13257" y="-439.08527" font-family="'Bitstream Vera Sans'" font-size="12.666px" opacity=".8" xml:space="preserve"><tspan x="-516.13257" y="-439.08527"/></text>
 <text x="291.4696" y="-852.55536" font-family="'Bitstream Vera Sans'" font-size="12.666px" opacity=".8" xml:space="preserve"><tspan x="291.4696" y="-852.55536"/></text>
 <text x="315.43054" y="-893.29712" font-family="'Bitstream Vera Sans'" font-size="12.666px" opacity=".8" xml:space="preserve"><tspan x="315.43054" y="-893.29712"/></text>
 <text x="-1176.0326" y="-900.50702" font-family="'Bitstream Vera Sans'" font-size="12.666px" opacity=".8" xml:space="preserve"><tspan x="-1176.0326" y="-900.50702"/></text>
 <text x="284.51013" y="-1173.7411" font-family="'Bitstream Vera Sans'" font-size="12.666px" opacity=".8" xml:space="preserve"><tspan x="284.51013" y="-1173.7411"/></text>
 <text x="1770.6337" y="-547.0498" font-family="'Bitstream Vera Sans'" font-size="12.666px" opacity=".8" xml:space="preserve"><tspan x="1770.6337" y="-547.0498"/></text>
 <text x="1794.5945" y="-587.79156" font-family="'Bitstream Vera Sans'" font-size="12.666px" opacity=".8" xml:space="preserve"><tspan x="1794.5945" y="-587.79156"/></text>
 <text x="303.13129" y="-595.00146" font-family="'Bitstream Vera Sans'" font-size="12.666px" opacity=".8" xml:space="preserve"><tspan x="303.13129" y="-595.00146"/></text>
 <text x="1763.6742" y="-868.23541" font-family="'Bitstream Vera Sans'" font-size="12.666px" opacity=".8" xml:space="preserve"><tspan x="1763.6742" y="-868.23541"/></text>
 <text x="-634.68506" y="-643.09277" font-family="'Bitstream Vera Sans'" font-size="12.666px" opacity=".8" xml:space="preserve"><tspan x="-634.68506" y="-643.09277"/></text>
 <text x="-2458.3706" y="102.4608" font-family="'Bitstream Vera Sans'" font-size="12.666px" opacity=".8" xml:space="preserve"><tspan x="-2458.3706" y="102.4608"/></text>
 <text x="-743.6153" y="195.33293" font-family="'Bitstream Vera Sans'" font-size="12.666px" opacity=".8" xml:space="preserve"><tspan x="-743.6153" y="195.33293"/></text>
 <text x="365.40906" y="16.150789" font-family="'Bitstream Vera Sans'" font-size="12.666px" opacity=".8" xml:space="preserve"><tspan x="365.40906" y="16.150789"/></text>
 <text x="389.37" y="-24.590916" font-family="'Bitstream Vera Sans'" font-size="12.666px" opacity=".8" xml:space="preserve"><tspan x="389.37" y="-24.590916"/></text>
 <text x="-1102.0931" y="-31.800886" font-family="'Bitstream Vera Sans'" font-size="12.666px" opacity=".8" xml:space="preserve"><tspan x="-1102.0931" y="-31.800886"/></text>
 <text x="358.44958" y="-305.03494" font-family="'Bitstream Vera Sans'" font-size="12.666px" opacity=".8" xml:space="preserve"><tspan x="358.44958" y="-305.03494"/></text>
 <text x="-669.28503" y="-34.515129" font-family="'Bitstream Vera Sans'" font-size="12.666px" opacity=".8" xml:space="preserve"><tspan x="-669.28503" y="-34.515129"/></text>
 <text x="-2492.9709" y="711.03839" font-family="'Bitstream Vera Sans'" font-size="12.666px" opacity=".8" xml:space="preserve"><tspan x="-2492.9709" y="711.03839"/></text>
 <text x="-518.19196" y="-896.04565" font-family="'Bitstream Vera Sans'" font-size="12.666px" opacity=".8" xml:space="preserve"><tspan x="-518.19196" y="-896.04565"/></text>
 <text x="289.41019" y="-1309.5157" font-family="'Bitstream Vera Sans'" font-size="12.666px" opacity=".8" xml:space="preserve"><tspan x="289.41019" y="-1309.5157"/></text>
 <text x="313.37109" y="-1350.2576" font-family="'Bitstream Vera Sans'" font-size="12.666px" opacity=".8" xml:space="preserve"><tspan x="313.37109" y="-1350.2576"/></text>
 <text x="-1178.092" y="-1357.4674" font-family="'Bitstream Vera Sans'" font-size="12.666px" opacity=".8" xml:space="preserve"><tspan x="-1178.092" y="-1357.4674"/></text>
 <text x="282.45068" y="-1630.7015" font-family="'Bitstream Vera Sans'" font-size="12.666px" opacity=".8" xml:space="preserve"><tspan x="282.45068" y="-1630.7015"/></text>
 <text x="1768.5741" y="-1004.0104" font-family="'Bitstream Vera Sans'" font-size="12.666px" opacity=".8" xml:space="preserve"><tspan x="1768.5741" y="-1004.0104"/></text>
 <text x="1792.5349" y="-1044.752" font-family="'Bitstream Vera Sans'" font-size="12.666px" opacity=".8" xml:space="preserve"><tspan x="1792.5349" y="-1044.752"/></text>
 <text x="301.07184" y="-1051.9618" font-family="'Bitstream Vera Sans'" font-size="12.666px" opacity=".8" xml:space="preserve"><tspan x="301.07184" y="-1051.9618"/></text>
 <text x="1761.6146" y="-1325.1959" font-family="'Bitstream Vera Sans'" font-size="12.666px" opacity=".8" xml:space="preserve"><tspan x="1761.6146" y="-1325.1959"/></text>
 <text x="-636.74451" y="-1100.0531" font-family="'Bitstream Vera Sans'" font-size="12.666px" opacity=".8" xml:space="preserve"><tspan x="-636.74451" y="-1100.0531"/></text>
 <text x="-2460.4302" y="-354.49966" font-family="'Bitstream Vera Sans'" font-size="12.666px" opacity=".8" xml:space="preserve"><tspan x="-2460.4302" y="-354.49966"/></text>
 <text x="-745.67474" y="-261.6275" font-family="'Bitstream Vera Sans'" font-size="12.666px" opacity=".8" xml:space="preserve"><tspan x="-745.67474" y="-261.6275"/></text>
 <text x="94.339828" y="-20.713341" font-family="'Bitstream Vera Sans'" font-size="12.666px" opacity=".8" xml:space="preserve"><tspan x="94.339828" y="-20.713341"/></text>
 <text x="118.30077" y="-61.455059" font-family="'Bitstream Vera Sans'" font-size="12.666px" opacity=".8" xml:space="preserve"><tspan x="118.30077" y="-61.455059"/></text>
 <text x="-1151.5159" y="-255.48366" font-family="'Bitstream Vera Sans'" font-size="12.666px" opacity=".8" xml:space="preserve"><tspan x="-1151.5159" y="-255.48366"/></text>
 <text x="-343.91388" y="-668.95386" font-family="'Bitstream Vera Sans'" font-size="12.666px" opacity=".8" xml:space="preserve"><tspan x="-343.91388" y="-668.95386"/></text>
 <text x="-319.95294" y="-709.69556" font-family="'Bitstream Vera Sans'" font-size="12.666px" opacity=".8" xml:space="preserve"><tspan x="-319.95294" y="-709.69556"/></text>
 <text x="-1811.416" y="-716.90552" font-family="'Bitstream Vera Sans'" font-size="12.666px" opacity=".8" xml:space="preserve"><tspan x="-1811.416" y="-716.90552"/></text>
 <text x="-350.87332" y="-990.13953" font-family="'Bitstream Vera Sans'" font-size="12.666px" opacity=".8" xml:space="preserve"><tspan x="-350.87332" y="-990.13953"/></text>
 <text x="1135.2501" y="-363.44821" font-family="'Bitstream Vera Sans'" font-size="12.666px" opacity=".8" xml:space="preserve"><tspan x="1135.2501" y="-363.44821"/></text>
 <text x="1159.2109" y="-404.18994" font-family="'Bitstream Vera Sans'" font-size="12.666px" opacity=".8" xml:space="preserve"><tspan x="1159.2109" y="-404.18994"/></text>
 <text x="-332.2522" y="-411.39987" font-family="'Bitstream Vera Sans'" font-size="12.666px" opacity=".8" xml:space="preserve"><tspan x="-332.2522" y="-411.39987"/></text>
 <text x="1128.2906" y="-684.63397" font-family="'Bitstream Vera Sans'" font-size="12.666px" opacity=".8" xml:space="preserve"><tspan x="1128.2906" y="-684.63397"/></text>
 <text x="-1270.0685" y="-459.49115" font-family="'Bitstream Vera Sans'" font-size="12.666px" opacity=".8" xml:space="preserve"><tspan x="-1270.0685" y="-459.49115"/></text>
 <text x="-3093.7542" y="286.06238" font-family="'Bitstream Vera Sans'" font-size="12.666px" opacity=".8" xml:space="preserve"><tspan x="-3093.7542" y="286.06238"/></text>
 <text x="-1378.9988" y="378.93451" font-family="'Bitstream Vera Sans'" font-size="12.666px" opacity=".8" xml:space="preserve"><tspan x="-1378.9988" y="378.93451"/></text>
 <text x="374.65179" y="-362.22052" font-family="'Droid Sans'" font-size="12.666px" xml:space="preserve"><tspan x="374.65179" y="-362.22052"/><tspan x="374.65179" y="-346.38745"/></text>
 <text x="839.83569" y="-844.26508" font-family="'Bitstream Vera Sans'" font-size="12.666px" opacity=".8" xml:space="preserve"><tspan x="839.83569" y="-844.26508"/></text>
 <text x="-983.85028" y="-98.711601" font-family="'Bitstream Vera Sans'" font-size="12.666px" opacity=".8" xml:space="preserve"><tspan x="-983.85028" y="-98.711601"/></text>
 <text x="1566.9153" y="-1129.2609" font-family="'Bitstream Vera Sans'" font-size="12.666px" opacity=".8" xml:space="preserve"><tspan x="1566.9153" y="-1129.2609"/></text>
 <text x="1590.8761" y="-1170.0026" font-family="'Bitstream Vera Sans'" font-size="12.666px" opacity=".8" xml:space="preserve"><tspan x="1590.8761" y="-1170.0026"/></text>
 <text x="99.412949" y="-1177.2125" font-family="'Bitstream Vera Sans'" font-size="12.666px" opacity=".8" xml:space="preserve"><tspan x="99.412949" y="-1177.2125"/></text>
 <text x="1559.9558" y="-1450.4467" font-family="'Bitstream Vera Sans'" font-size="12.666px" opacity=".8" xml:space="preserve"><tspan x="1559.9558" y="-1450.4467"/></text>
 <path d="m44 24a20 20 0 0 1 -20 20 20 20 0 0 1 -20 -20 20 20 0 0 1 20 -20 20 20 0 0 1 20 20z" fill="#4d4d4d"/>
 <path d="m24 4a20 20 0 0 0 -20 20 20 20 0 0 0 0.0215 0.582 20 20 0 0 1 19.978 -19.582 20 20 0 0 1 19.978 19.418 20 20 0 0 0 0.022 -0.418 20 20 0 0 0 -20 -20z" fill="#fff" opacity=".1"/>
 <path d="m43.979 24.418a20 20 0 0 1 -19.979 19.582 20 20 0 0 1 -19.978 -19.418 20 20 0 0 0 -0.022 0.418 20 20 0 0 0 20 20 20 20 0 0 0 20 -20 20 20 0 0 0 -0.021 -0.582z" opacity=".2"/>
 <path d="m20.036 11c-0.0785 0.0021-0.16249 0.02697-0.2426 0.0851-0.0801 0.05813-0.14583 0.16457-0.16173 0.25529-0.03181 0.18143 7e-3 0.26826 0.08086 0.42548 0.34019 0.64502 0.67648 1.1483 0.80866 1.5317 0.22707 0.53174 0.22385 1.0259 0.16173 1.3615l-0.40433 2.0423c-2.0414 0.49747-4.0118 1.0002-5.9841 1.7019-0.38388 0.12921-0.67634 0.25928-0.97039 0.42548-0.02677-0.0046-0.05409-0.0046-0.08086 0-0.10333 0.06476-0.10816 0.16011-0.16173 0.25529-0.02678 0.04759-0.07345 0.10304-0.08087 0.17019-0.0074 0.06715 0.02284 0.17679 0.08087 0.25529 0.17224 0.24973 0.40377 0.35295 0.7278 0.51057 0.32402 0.15763 0.6962 0.32019 0.97039 0.42548 1.3717 0.52678 3.1356 0.95264 4.5285 1.1062-0.37506 1.7806-0.73746 3.5408-1.2939 5.2759-0.13546 0.42244-0.30814 0.86244-0.4852 1.2764-0.50853 1.1891-1.1535 2.2746-1.7791 3.3187-0.66074 0.9749-1.2175 1.9252-1.9408 2.8082-0.13492 0.15034-0.35269 0.27911-0.4852 0.42548-0.06625 0.07318-0.11349 0.19038-0.16173 0.25529-0.02412 0.03245-0.06023 0.04569-0.08086 0.0851-0.02064 0.0394-0.0079 0.06007 0 0.17019-0.0044 0.02817-0.0044 0.05692 0 0.08509 0.02032 0.03458 0.048 0.06371 0.08086 0.0851 0.02032 0.03458 0.048 0.06371 0.08087 0.0851 0.02677 0.0046 0.05409 0.0046 0.08086 0 0.14447 0.02315 0.26405-0.0391 0.40433-0.0851 0.14028-0.04599 0.23679-0.08747 0.40433-0.17019 0.33508-0.16544 0.7673-0.35282 1.1321-0.59567 0.52411-0.34888 0.91078-0.70364 1.213-0.93605 0.53258-0.40958 1.732-1.5844 2.3451-2.3827 0.7045-0.84359 1.4546-1.7487 2.0216-2.8933 0.01088-0.02195-0.01079-0.06296 0-0.0851 0.03867-0.07019 0.2627-0.52122 0.32346-0.68077 0.12154-0.31909 0.20283-0.63572 0.2426-0.76586l1.7791-5.7014 6.2267-1.5317c-0.15446 1.3749-0.32774 2.7067-0.4852 4.0846-0.12 1.1359-0.20195 1.5933-0.32347 2.8082-0.0037 0.0363 0.0038 0.04736 0 0.0851-0.06896 0.37442-0.26956 1.4262-0.32346 1.7019-0.41332 2.1136-0.85735 4.0302-1.7791 5.7014-0.22052 0.326-0.47562 0.66882-0.7278 0.93606-0.25504-0.13019-0.61284-0.31157-1.1321-0.34038-9e-3 -0.0012-0.05592 0.0011-0.08086 0-0.02677-0.0046-0.05409-0.0046-0.08086 0-0.0011 3.49e-4 -0.08031 0.0845-0.08087 0.0851-0.03286 0.02137-0.06054 0.05051-0.08086 0.0851-0.0343 0.19325 0.02748 0.34267 0.08086 0.51058 0.05339 0.16791 0.09691 0.35617 0.16173 0.51058 0.46755 1.1137 1.0162 2.0735 1.5365 3.0634 0.02032 0.03458 0.048 0.06372 0.08087 0.0851 0.02032 0.03458 0.04801 0.06372 0.08086 0.0851 0.02677 0.0046 0.05409 0.0046 0.08087 0 0.02677 0.0046 0.05409 0.0046 0.08086 0 0.03286-0.02151 0.06054-0.05051 0.08086-0.0851 0.77683-0.77482 1.689-2.0223 2.3451-3.0635 1.2904-2.0367 2.3814-4.3137 3.1538-6.8928 0.11541-0.4012 0.20945-0.80729 0.32347-1.2764l2.426-9.786c0.10257-0.43247 0.22116-0.91314 0.2426-1.2764 0.0044-0.02817 0.0044-0.05692 0-0.0851-0.05019-0.12598-0.15999-0.19174-0.2426-0.25529-0.08261-0.06356-0.13819-0.11535-0.2426-0.17019-0.20883-0.10969-0.48547-0.24388-0.7278-0.34038-1.1636-0.41245-2.4284-0.7835-3.8007-1.1062-0.14678-0.06717-0.24684-0.09407-0.40433-0.0851-0.15749 9e-3 -0.3905 0.05057-0.56606 0.0851-0.35112 0.06904-0.71272 0.19779-0.97039 0.25529l-3.2346 0.76586c0.13766-0.45253 0.36115-1.1195 0.16173-1.9572-0.27609-0.95086-0.98832-1.5055-1.7791-1.787-0.67351-0.23975-1.3312-0.45312-2.0217-0.68077-0.11182-0.03687-0.61998-0.22586-1.1321-0.25529z" opacity=".2"/>
 <path d="m20.036 10c-0.0785 0.0021-0.16249 0.02697-0.2426 0.0851-0.0801 0.05813-0.14583 0.16457-0.16173 0.25529-0.03181 0.18143 7e-3 0.26826 0.08086 0.42548 0.34019 0.64502 0.67648 1.1483 0.80866 1.5317 0.22707 0.53174 0.22385 1.0259 0.16173 1.3615l-0.40433 2.0423c-2.0414 0.49747-4.0118 1.0002-5.9841 1.7019-0.38388 0.12921-0.67634 0.25928-0.97039 0.42548-0.02677-0.0046-0.05409-0.0046-0.08086 0-0.10333 0.06476-0.10816 0.16011-0.16173 0.25529-0.02678 0.04759-0.07345 0.10304-0.08087 0.17019-0.0074 0.06715 0.02284 0.17679 0.08087 0.25529 0.17224 0.24973 0.40377 0.35295 0.7278 0.51057 0.32402 0.15763 0.6962 0.32019 0.97039 0.42548 1.3717 0.52678 3.1356 0.95264 4.5285 1.1062-0.37506 1.7806-0.73746 3.5408-1.2939 5.2759-0.13546 0.42244-0.30814 0.86244-0.4852 1.2764-0.50853 1.1891-1.1535 2.2746-1.7791 3.3187-0.66074 0.9749-1.2175 1.9252-1.9408 2.8082-0.13492 0.15034-0.35269 0.27911-0.4852 0.42548-0.06625 0.07318-0.11349 0.19038-0.16173 0.25529-0.02412 0.03245-0.06023 0.04569-0.08086 0.0851-0.02064 0.0394-0.0079 0.06007 0 0.17019-0.0044 0.02817-0.0044 0.05692 0 0.08509 0.02032 0.03458 0.048 0.06371 0.08086 0.0851 0.02032 0.03458 0.048 0.06371 0.08087 0.0851 0.02677 0.0046 0.05409 0.0046 0.08086 0 0.14447 0.02315 0.26405-0.0391 0.40433-0.0851 0.14028-0.04599 0.23679-0.08747 0.40433-0.17019 0.33508-0.16544 0.7673-0.35282 1.1321-0.59567 0.52411-0.34888 0.91078-0.70364 1.213-0.93605 0.53258-0.40958 1.732-1.5844 2.3451-2.3827 0.7045-0.84359 1.4546-1.7487 2.0216-2.8933 0.01088-0.02195-0.01079-0.06296 0-0.0851 0.03867-0.07019 0.2627-0.52122 0.32346-0.68077 0.12154-0.31909 0.20283-0.63572 0.2426-0.76586l1.7791-5.7014 6.2267-1.5317c-0.15446 1.3749-0.32774 2.7067-0.4852 4.0846-0.12 1.1359-0.20195 1.5933-0.32347 2.8082-0.0037 0.0363 0.0038 0.04736 0 0.0851-0.06896 0.37442-0.26956 1.4262-0.32346 1.7019-0.41332 2.1136-0.85735 4.0302-1.7791 5.7014-0.22052 0.326-0.47562 0.66882-0.7278 0.93606-0.25504-0.13019-0.61284-0.31157-1.1321-0.34038-9e-3 -0.0012-0.05592 0.0011-0.08086 0-0.02677-0.0046-0.05409-0.0046-0.08086 0-0.0011 3.49e-4 -0.08031 0.0845-0.08087 0.0851-0.03286 0.02137-0.06054 0.05051-0.08086 0.0851-0.0343 0.19325 0.02748 0.34267 0.08086 0.51058 0.05339 0.16791 0.09691 0.35617 0.16173 0.51058 0.46755 1.1137 1.0162 2.0735 1.5365 3.0634 0.02032 0.03458 0.048 0.06372 0.08087 0.0851 0.02032 0.03458 0.04801 0.06372 0.08086 0.0851 0.02677 0.0046 0.05409 0.0046 0.08087 0 0.02677 0.0046 0.05409 0.0046 0.08086 0 0.03286-0.02151 0.06054-0.05051 0.08086-0.0851 0.77683-0.77482 1.689-2.0223 2.3451-3.0635 1.2904-2.0367 2.3814-4.3137 3.1538-6.8928 0.11541-0.4012 0.20945-0.80729 0.32347-1.2764l2.426-9.786c0.10257-0.43247 0.22116-0.91314 0.2426-1.2764 0.0044-0.02817 0.0044-0.05692 0-0.0851-0.05019-0.12598-0.15999-0.19174-0.2426-0.25529-0.08261-0.06356-0.13819-0.11535-0.2426-0.17019-0.20883-0.10969-0.48547-0.24388-0.7278-0.34038-1.1636-0.41245-2.4284-0.7835-3.8007-1.1062-0.14678-0.06717-0.24684-0.09407-0.40433-0.0851-0.15749 9e-3 -0.3905 0.05057-0.56606 0.0851-0.35112 0.06904-0.71272 0.19779-0.97039 0.25529l-3.2346 0.76586c0.13766-0.45253 0.36115-1.1195 0.16173-1.9572-0.27609-0.95086-0.98832-1.5055-1.7791-1.787-0.67351-0.23975-1.3312-0.45312-2.0217-0.68077-0.11182-0.03687-0.61998-0.22586-1.1321-0.25529z" fill="#b7b7b7"/>
</svg>
