<svg width="48" height="48" version="1.1" viewBox="0 0 48 48" xmlns="http://www.w3.org/2000/svg">
 <circle cx="31" cy="25" r="13" style="opacity:.2"/>
 <circle cx="31" cy="24" r="13" style="fill:#5792f1"/>
 <path d="M 31,11 A 13,13 0 0 0 18,24 13,13 0 0 0 18.021484,24.580078 13,13 0 0 1 31,12 13,13 0 0 1 43.978516,24.419922 13,13 0 0 0 44,24 13,13 0 0 0 31,11 Z" style="fill:#ffffff;opacity:.1"/>
 <circle cx="31" cy="24" r="10" style="fill:#006ec9"/>
 <circle cx="24" cy="17" r="13" style="fill:#5792f1"/>
 <path d="M 24,4 A 13,13 0 0 0 11,17 13,13 0 0 0 11.021484,17.580078 13,13 0 0 1 24,5 13,13 0 0 1 36.978516,17.419922 13,13 0 0 0 37,17 13,13 0 0 0 24,4 Z" style="fill:#ffffff;opacity:.1"/>
 <circle cx="24" cy="17" r="10" style="fill:#006ec9"/>
 <circle cx="17" cy="25" r="13" style="opacity:.2"/>
 <circle cx="17" cy="24" r="13" style="fill:#5792f1"/>
 <path d="M 17,11 A 13,13 0 0 0 4,24 13,13 0 0 0 4.021484,24.580078 13,13 0 0 1 17,12 13,13 0 0 1 29.978516,24.419922 13,13 0 0 0 30,24 13,13 0 0 0 17,11 Z" style="fill:#ffffff;opacity:.1"/>
 <circle cx="17" cy="24" r="10" style="fill:#006ec9"/>
 <circle cx="24" cy="32" r="13" style="opacity:.2"/>
 <circle cx="24" cy="31" r="13" style="fill:#5792f1"/>
 <path d="M 24,18 A 13,13 0 0 0 11,31 13,13 0 0 0 11.021484,31.580078 13,13 0 0 1 24,19 13,13 0 0 1 36.978516,31.419922 13,13 0 0 0 37,31 13,13 0 0 0 24,18 Z" style="fill:#ffffff;opacity:.2"/>
 <circle cx="24" cy="31" r="10" style="fill:#006ec9"/>
 <circle cx="24" cy="25" r="13" style="opacity:.2"/>
 <circle cx="24" cy="24" r="13" style="fill:#5792f1"/>
 <path d="M 24,11 A 13,13 0 0 0 11,24 13,13 0 0 0 11.021484,24.580078 13,13 0 0 1 24,12 13,13 0 0 1 36.978516,24.419922 13,13 0 0 0 37,24 13,13 0 0 0 24,11 Z" style="fill:#ffffff;opacity:.1"/>
 <circle cx="24" cy="24" r="10" style="fill:#006ec9"/>
</svg>
