<svg width="48" height="48" version="1.0" xmlns="http://www.w3.org/2000/svg">
 <defs>
  <clipPath id="clipPath4186">
   <circle cx="286" cy="26" r="10" fill="url(#linearGradient4190)"/>
  </clipPath>
 </defs>
 <circle cx="24" cy="24" r="20" fill="#37a0f2"/>
 <circle transform="matrix(2,0,0,2,-548,-28)" cx="286" cy="26" r="10" clip-path="url(#clipPath4186)" opacity="0" stroke-width=".45455"/>
 <circle transform="matrix(2,0,0,2,-548,-28)" cx="286" cy="26" r="10" clip-path="url(#clipPath4186)" opacity="0" stroke-width=".90909"/>
 <path d="m24 4c-11.079 0-19.998 8.92-19.998 20 0 0.16772-4e-3 0.33329 0 0.5 0.2642-10.846 9.087-19.5 19.998-19.5s19.734 8.6536 19.998 19.5c4e-3 -0.16671 0-0.33228 0-0.5 0-11.08-8.919-20-19.998-20z" fill="#fff" opacity=".2"/>
 <path d="m43.979 24.418a20 20 0 0 1 -19.979 19.582 20 20 0 0 1 -19.978 -19.418 20 20 0 0 0 -0.022 0.418 20 20 0 0 0 20 20 20 20 0 0 0 20 -20 20 20 0 0 0 -0.021 -0.582z" opacity=".2"/>
 <g transform="translate(0,1)" fill-rule="evenodd" opacity=".2">
  <path d="m11 27 12 4v3l-12-4z"/>
  <path d="m11 21 12 4v3l-12-4z"/>
  <path d="m11 15 12 4v3l-12-4z"/>
  <path d="m25 25.5 12 4v3l-12-4z"/>
  <path d="m25 19.5 12 4v3l-12-4z"/>
  <path d="m25 13.5 12 4v3l-12-4z"/>
 </g>
 <g fill="#fff" fill-rule="evenodd">
  <path d="m11 27 12 4v3l-12-4z"/>
  <path d="m11 21 12 4v3l-12-4z"/>
  <path d="m11 15 12 4v3l-12-4z"/>
  <path d="m25 25.5 12 4v3l-12-4z"/>
  <path d="m25 19.5 12 4v3l-12-4z"/>
  <path d="m25 13.5 12 4v3l-12-4z"/>
 </g>
</svg>
