<svg width="48" height="48" version="1.1" viewBox="0 0 48 48.000001" xmlns="http://www.w3.org/2000/svg">
 <circle cx="24" cy="24" r="20" fill="#87a556"/>
 <path d="m24 4a20 20 0 0 0 -20 20 20 20 0 0 0 0.0215 0.582 20 20 0 0 1 19.978 -19.582 20 20 0 0 1 19.979 19.418 20 20 0 0 0 0.021 -0.418 20 20 0 0 0 -20 -20z" fill="#fff" opacity=".2"/>
 <path d="m43.979 24.418a20 20 0 0 1 -19.979 19.582 20 20 0 0 1 -19.978 -19.418 20 20 0 0 0 -0.022 0.418 20 20 0 0 0 20 20 20 20 0 0 0 20 -20 20 20 0 0 0 -0.022 -0.582z" opacity=".2"/>
 <path d="m23.346978 37.965806c-2.188115-0.149312-4.261628-0.887629-6.213099-2.212297-1.072321-0.727896-2.805423-2.434451-2.805423-2.762447 0-0.184595 0.163087-0.33184 0.842417-0.760477 0.463329-0.29235 0.896739-0.531549 0.963135-0.531549 0.06643 0 0.539851 0.402286 1.052112 0.893967 1.39671 1.3406 2.796538 2.134598 4.657252 2.641661 0.703432 0.191679 1.024519 0.219619 2.51802 0.219124 1.577527-5.69e-4 1.786369-0.02135 2.662769-0.264156 6.132239-1.699667 9.304756-8.400819 6.711015-14.175365-1.149682-2.559602-3.473232-4.647134-6.140417-5.516706-3.838861-1.251571-8.001012-0.19483-10.769857 2.734425-0.326853 0.345784-0.637504 0.628698-0.690334 0.628698-0.124027 0-1.737971-1.037789-1.823759-1.172704-0.113142-0.177956 0.225765-0.62023 1.206387-1.574354 1.492343-1.452011 3.010232-2.374775 4.953425-3.011318 2.471874-0.809723 5.369095-0.802667 7.837382 0.01901 4.509409 1.501307 7.840326 5.40809 8.611633 10.100483 0.195897 1.191785 0.144937 3.554395-0.100852 4.673202-0.60864 2.770732-2.148311 5.348268-4.231326 7.083578-2.673414 2.227156-5.759246 3.224703-9.240477 2.987146zm-12.346983-12.77087c0-4.529927 0.03211-8.235438 0.07132-8.234467 0.125173 0.0031 13.831255 8.125972 13.846264 8.205953 0.01198 0.06349-13.424418 8.064085-13.798713 8.216379-0.09455 0.03849-0.118871-1.636484-0.118871-8.187865zm12.220209 7.928611c-0.895641-0.136057-2.062913-0.549165-2.844449-1.006657-0.820094-0.480065-1.958042-1.498314-1.958042-1.752081 0-0.194022 1.54936-1.232392 1.839835-1.233046 0.09658-1.91e-4 0.362153 0.163815 0.590149 0.364503 1.778325 1.565341 4.602332 1.693848 6.587444 0.299759 1.469405-1.031922 2.325211-2.677874 2.319255-4.460571-0.0049-1.586553-0.4934-2.782425-1.579532-3.869911-1.32933-1.330999-3.143061-1.896201-4.890772-1.524086-0.879905 0.187356-1.523224 0.484296-2.264212 1.045143-0.321005 0.242976-0.64916 0.441756-0.729237 0.441756-0.08007 0-0.53425-0.242455-1.009263-0.538785-1.109941-0.692412-1.115349-0.760612-0.126657-1.597386 0.834242-0.706051 2.286448-1.469497 3.257138-1.712327 3.217693-0.80494 6.665232 0.539462 8.506797 3.317316 0.940753 1.41904 1.338381 2.770714 1.317269 4.477784-0.01588 1.290479-0.24545 2.238625-0.828678 3.4237-0.47816 0.971567-1.271652 1.968956-2.104038 2.644668-0.687797 0.558344-2.238723 1.325289-3.100954 1.533445-0.787913 0.190194-2.229164 0.261153-2.982058 0.146786z" style="opacity:.2"/>
 <path d="m23.346983 36.965806c-2.188115-0.149312-4.261628-0.887629-6.213099-2.212297-1.072321-0.727896-2.805423-2.434451-2.805423-2.762447 0-0.184595 0.163087-0.33184 0.842417-0.760477 0.463329-0.29235 0.896739-0.531549 0.963135-0.531549 0.06643 0 0.539851 0.402286 1.052112 0.893967 1.39671 1.3406 2.796538 2.134598 4.657252 2.641661 0.703432 0.191679 1.024519 0.219619 2.51802 0.219124 1.577527-5.69e-4 1.786369-0.02135 2.662769-0.264156 6.132239-1.699667 9.304756-8.400819 6.711015-14.175365-1.149682-2.559602-3.473232-4.647134-6.140417-5.516706-3.838861-1.251571-8.001012-0.19483-10.769857 2.734425-0.326853 0.345784-0.637504 0.628698-0.690334 0.628698-0.124027 0-1.737971-1.037789-1.823759-1.172704-0.113142-0.177956 0.225765-0.62023 1.206387-1.574354 1.492343-1.452011 3.010232-2.374775 4.953425-3.011318 2.471874-0.809723 5.369095-0.802667 7.837382 0.01901 4.509409 1.501307 7.840326 5.40809 8.611633 10.100483 0.195897 1.191785 0.144937 3.554395-0.100852 4.673202-0.60864 2.770732-2.148311 5.348268-4.231326 7.083578-2.673414 2.227156-5.759246 3.224703-9.240477 2.987146zm-12.346983-12.77087c0-4.529927 0.03211-8.235438 0.07132-8.234467 0.125173 0.0031 13.831255 8.125972 13.846264 8.205953 0.01198 0.06349-13.424418 8.064085-13.798713 8.216379-0.09455 0.03849-0.118871-1.636484-0.118871-8.187865zm12.220209 7.928611c-0.895641-0.136057-2.062913-0.549165-2.844449-1.006657-0.820094-0.480065-1.958042-1.498314-1.958042-1.752081 0-0.194022 1.54936-1.232392 1.839835-1.233046 0.09658-1.91e-4 0.362153 0.163815 0.590149 0.364503 1.778325 1.565341 4.602332 1.693848 6.587444 0.299759 1.469405-1.031922 2.325211-2.677874 2.319255-4.460571-0.0049-1.586553-0.4934-2.782425-1.579532-3.869911-1.32933-1.330999-3.143061-1.896201-4.890772-1.524086-0.879905 0.187356-1.523224 0.484296-2.264212 1.045143-0.321005 0.242976-0.64916 0.441756-0.729237 0.441756-0.08007 0-0.53425-0.242455-1.009263-0.538785-1.109941-0.692412-1.115349-0.760612-0.126657-1.597386 0.834242-0.706051 2.286448-1.469497 3.257138-1.712327 3.217693-0.80494 6.665232 0.539462 8.506797 3.317316 0.940753 1.41904 1.338381 2.770714 1.317269 4.477784-0.01588 1.290479-0.24545 2.238625-0.828678 3.4237-0.47816 0.971567-1.271652 1.968956-2.104038 2.644668-0.687797 0.558344-2.238723 1.325289-3.100954 1.533445-0.787913 0.190194-2.229164 0.261153-2.982058 0.146786z" style="fill:#ffffff"/>
</svg>
