<svg width="48" height="48" version="1.1" viewBox="0 0 48 48" xmlns="http://www.w3.org/2000/svg">
 <rect transform="matrix(0,-1,-1,0,0,0)" x="-45" y="-44" width="13" height="40" rx="2" ry="2" style="opacity:.2"/>
 <rect transform="matrix(0,-1,-1,0,0,0)" x="-44" y="-44" width="13" height="40" rx="2" ry="2" style="fill:#8e8e8e"/>
 <path d="m19 35-3 5" style="opacity:.5;stroke-linecap:round;stroke-width:2;stroke:#000000"/>
 <path d="m15 35-3 5" style="opacity:.5;stroke-linecap:round;stroke-width:2;stroke:#000000"/>
 <path d="m11 35-3 5" style="opacity:.5;stroke-linecap:round;stroke-width:2;stroke:#000000"/>
 <path d="m23 35-3 5" style="opacity:.5;stroke-linecap:round;stroke-width:2;stroke:#000000"/>
 <circle cx="30" cy="36" r="2" style="opacity:.2"/>
 <circle cx="35" cy="36" r="2" style="opacity:.2"/>
 <circle cx="40" cy="36" r="2" style="opacity:.2"/>
 <circle cx="30" cy="35" r="2" style="fill:#76ff03"/>
 <circle cx="35" cy="35" r="2" style="fill:#ffff00"/>
 <circle cx="40" cy="35" r="2" style="fill:#ffcd40"/>
 <rect transform="matrix(0,-1,-1,0,0,0)" x="-32" y="-44" width="13" height="40" rx="2" ry="2" style="opacity:.2"/>
 <rect transform="matrix(0,-1,-1,0,0,0)" x="-31" y="-44" width="13" height="40" rx="2" ry="2" style="fill:#8e8e8e"/>
 <path d="m19 22-3 5" style="opacity:.5;stroke-linecap:round;stroke-width:2;stroke:#000000"/>
 <path d="m15 22-3 5" style="opacity:.5;stroke-linecap:round;stroke-width:2;stroke:#000000"/>
 <path d="m11 22-3 5" style="opacity:.5;stroke-linecap:round;stroke-width:2;stroke:#000000"/>
 <path d="m23 22-3 5" style="opacity:.5;stroke-linecap:round;stroke-width:2;stroke:#000000"/>
 <circle cx="30" cy="23" r="2" style="opacity:.2"/>
 <circle cx="35" cy="23" r="2" style="opacity:.2"/>
 <circle cx="40" cy="23" r="2" style="opacity:.2"/>
 <circle cx="30" cy="22" r="2" style="fill:#76ff03"/>
 <circle cx="35" cy="22" r="2" style="fill:#ffff00"/>
 <circle cx="40" cy="22" r="2" style="fill:#ffcd40"/>
 <rect transform="matrix(0,-1,-1,0,0,0)" x="-19" y="-44" width="13" height="40" rx="2" ry="2" style="opacity:.2"/>
 <rect transform="matrix(0,-1,-1,0,0,0)" x="-18" y="-44" width="13" height="40" rx="2" ry="2" style="fill:#8e8e8e"/>
 <path d="m19 9-3 5" style="opacity:.5;stroke-linecap:round;stroke-width:2;stroke:#000000"/>
 <path d="m15 9-3 5" style="opacity:.5;stroke-linecap:round;stroke-width:2;stroke:#000000"/>
 <path d="m11 9-3 5" style="opacity:.5;stroke-linecap:round;stroke-width:2;stroke:#000000"/>
 <path d="m23 9-3 5" style="opacity:.5;stroke-linecap:round;stroke-width:2;stroke:#000000"/>
 <circle cx="30" cy="10" r="2" style="opacity:.2"/>
 <circle cx="35" cy="10" r="2" style="opacity:.2"/>
 <circle cx="40" cy="10" r="2" style="opacity:.2"/>
 <circle cx="30" cy="9" r="2" style="fill:#76ff03"/>
 <circle cx="35" cy="9" r="2" style="fill:#ffff00"/>
 <circle cx="40" cy="9" r="2" style="fill:#ffcd40"/>
 <path d="m6 5c-1.108 0-2 0.892-2 2v1c0-1.108 0.892-2 2-2h36c1.108 0 2 0.892 2 2v-1c0-1.108-0.892-2-2-2z" style="fill:#ffffff;opacity:.2"/>
 <rect transform="matrix(0,-1,-1,0,0,0)" x="-48" y="-47" width="22" height="22" rx="11" ry="11" style="opacity:.2"/>
 <rect transform="matrix(0,-1,-1,0,0,0)" x="-47" y="-47" width="22" height="22" rx="11" ry="11" style="fill:#02a8f3"/>
 <path d="m36.0209 28.299999c-3.247915 0-6.02415 2.020535-7.1445 4.862825-0.05963 0.144573-0.112002 0.292655-0.162816 0.441496-0.01 0.03081-0.02147 0.06074-0.03106 0.09171-0.24365 0.74415-0.3828 1.5345-0.3828 2.35895 0 4.21685 3.44355 7.645 7.6791 7.645 3.21728 0 5.9741-1.98044 7.1159-4.779665 2.97e-4 -7.15e-4 7.7e-4 -0.0014 0.0011-0.0021 0.08203-0.192775 0.15125-0.391429 0.217442-0.591855 0.247759-0.7502 0.386689-1.549515 0.386689-2.38128 0-4.215915-3.44443-7.644999-7.6791-7.644999zm-0.552695 1.193335v2.57323c-0.733205-0.02575-1.434345-0.103098-2.0823-0.225011 0.09732-0.227067 0.199353-0.445758 0.310635-0.64515 0.512974-0.91927 1.13245-1.4927 1.771715-1.703075zm1.096865 0.04266c0.05764 0.0095 0.116265 0.01617 0.173525 0.02666 0.57761 0.251664 1.132725 0.797775 1.599235 1.63372 0.109219 0.195723 0.20949 0.410003 0.305278 0.63239-0.64504 0.125109-1.345575 0.206311-2.07801 0.235675v-2.52846zm-3.437335 0.526806c-0.137582 0.191241-0.270253 0.389175-0.3899 0.60357-0.159269 0.285417-0.301703 0.594605-0.432746 0.917125-0.321068-0.09375-0.61809-0.199881-0.89551-0.314589 0.500627-0.489335 1.080805-0.895565 1.718145-1.206095zm5.89765 0.16423c0.29953 0.119609 0.529166 0.231187 0.75944 0.343382 0.29238 0.203098 0.567765 0.42845 0.822635 0.675015-0.274048 0.116-0.56881 0.223597-0.88693 0.318857-0.128969-0.31526-0.26813-0.618255-0.424176-0.89793-0.08521-0.152697-0.176996-0.297473-0.271002-0.439362zm2.29867 1.842775c0.69982 0.948475 1.14895 2.089175 1.251085 3.332505h-2.065195c-0.04032-0.998525-0.190778-1.942985-0.433818-2.80148 0.438009-0.133666 0.849365-0.287039 1.2254-0.461752 0.01019-0.02381 0.01594-0.04647 0.02249-0.06932zm-10.6601 0.07252c0.393696 0.18238 0.82753 0.34034 1.288595 0.477752-0.239871 0.853435-0.388443 1.79113-0.428461 2.782285h-2.05766c0.09958-1.21165 0.528138-2.32606 1.19757-3.260015zm8.34735 0.728365c0.218246 0.76472 0.359612 1.620795 0.400609 2.53165h-2.84713v-2.24587c0.861795-0.03147 1.6852-0.128376 2.44651-0.285797zm-5.99335 0.01599c0.763125 0.153296 1.587795 0.244777 2.449755 0.271931v2.243725h-2.84603c0.04072-0.90464 0.18062-1.75494 0.39633-2.515645zm-3.551955 3.60767h2.05766c0.04112 1.01838 0.196147 1.981485 0.447744 2.85373-0.450664 0.133435-0.87362 0.287771-1.260765 0.463886-0.69498-0.945175-1.1418-2.08043-1.244705-3.3176zm3.155625 0h2.84603v2.320505c-0.854645 0.02684-1.67277 0.116677-2.43045 0.267668-0.227304-0.778855-0.373615-1.655115-0.415607-2.58819zm3.942895 0h2.84713c-0.04227 0.93929-0.189997 1.821435-0.419892 2.604195-0.75592-0.155084-1.57267-0.250388-2.42726-0.281534v-2.32265zm3.94504 0h2.065195c-0.104082 1.25169-0.560285 2.39899-1.26929 3.350655-2e-3 -0.0034-0.0021-0.0073-0.0043-0.01067-0.381447-0.177221-0.79959-0.332134-1.244705-0.467087 0.254826-0.877195 0.411686-1.847175 0.453101-2.872925zm-5.041905 3.41253v2.495405c-0.638935-0.210694-1.25884-0.781935-1.771715-1.70093-0.0999-0.179014-0.191917-0.373329-0.280643-0.574805 0.639705-0.118778 1.330395-0.194266 2.052325-0.219681zm1.096865 0.0021c0.72182 0.02868 1.411795 0.107206 2.049135 0.229278-0.0873 0.197335-0.178321 0.387376-0.276358 0.56309-0.51304 0.91938-1.13322 1.490445-1.77276 1.70093v-2.49326zm-4.23104 0.472417c0.123668 0.297346 0.255866 0.58476 0.403827 0.849915 0.11633 0.208466 0.24382 0.403062 0.377047 0.58971-0.60544-0.296665-1.15753-0.680955-1.639935-1.139985 0.268614-0.108086 0.55132-0.210782 0.859045-0.299662zm7.359 0.01919c0.304464 0.09023 0.58465 0.193561 0.84942 0.302863-0.479198 0.451385-1.02586 0.82951-1.62492 1.121835 0.13376-0.188546 0.262081-0.384131 0.379187-0.594 0.144798-0.259485 0.274769-0.54037 0.396324-0.83072z" style="fill-rule:evenodd;fill:#ffffff"/>
</svg>
