<svg width="48" height="48" version="1.1" viewBox="0 0 48 48" xmlns="http://www.w3.org/2000/svg">
 <path d="M 24,5 A 20,20 0 0 0 4,25 20,20 0 0 0 24,45 20,20 0 0 0 44,25 20,20 0 0 0 24,5 Z" style="opacity:.2"/>
 <path d="m24 4a20 20 0 0 0 -20 20 20 20 0 0 0 20 20 20 20 0 0 0 20 -20 20 20 0 0 0 -20 -20z" style="fill:#ff8e20"/>
 <path d="m24 5c-3.263818 0.00394-6.47708 0.8065847-9.359375 2.3378906l-5.8457031 29.644531a20 20 0 0 0 7.1093751 5.279297l2.136719-11.207031c2.139223 0.121559 4.766598 0.130548 7.5-0.242188 3.162678-0.431275 6.563535-1.334696 9.466796-3.578125 2.903262-2.24343 4.992188-5.686756 4.992188-10.234375 0-1.763072-0.256297-3.401578-0.710938-4.892578-3.799916-4.5064983-9.394328-7.1071712-15.289062-7.107422zm0.53125 5.837891c0.805988-0.0032 1.599707 0.04315 2.386719 0.11914 1.59332 0.234312 2.858322 0.764144 3.640625 1.523438s1.441406 1.829055 1.441406 4.519531c0 2.452381-0.661074 3.759055-1.882812 4.703125-1.221739 0.944071-3.320882 1.765259-5.658204 2.083984-1.650857 0.225117-3.340932 0.257473-4.849609 0.212891l2.460937-12.982422c0.836695-0.123738 1.65495-0.176487 2.460938-0.179687z" style="opacity:.2"/>
 <path d="m24 4c-3.263818 0.00394-6.47708 0.8065847-9.359375 2.3378906l-6.0058594 30.457031c1.9295994 2.305984 4.3543084 4.147214 7.0937504 5.386719l2.3125-12.126485c2.139223 0.121559 4.766598 0.130549 7.5-0.242187 3.162678-0.431275 6.563535-1.334696 9.466796-3.578125 2.903262-2.24343 4.992188-5.687225 4.992188-10.234844 0-1.763072-0.256297-3.401578-0.710938-4.892578-3.799916-4.5064982-9.394328-7.1071712-15.289062-7.107422zm0.53125 5.8378906c0.805988-0.0032 1.599707 0.043148 2.386719 0.1191406 1.59332 0.2343118 2.858322 0.7641438 3.640625 1.5234378s1.441406 1.829055 1.441406 4.519531c0 2.452381-0.661074 3.759055-1.882812 4.703125-1.221739 0.944071-3.320882 1.765705-5.658204 2.08443-1.650857 0.225117-3.340932 0.257473-4.849609 0.212891l2.460937-12.982868c0.836695-0.1237377 1.65495-0.1764869 2.460938-0.1796874z" style="fill:#ffffff"/>
 <path d="m24 4a20 20 0 0 0 -19.859 17.852 20 19 0 0 1 19.859 -16.852 20 19 0 0 1 19.922 17.447 20 20 0 0 0 -19.922 -18.447zm19.922 18.447a20 20 0 0 1 0.078 1.553 20 19 0 0 0 -0.078 -1.553zm-39.781-0.595a20 19 0 0 0 -0.0488 0.392 20 20 0 0 1 0.0488 -0.392zm-0.0488 0.392a20 20 0 0 0 -0.0918 1.756 20 19 0 0 1 0.0918 -1.756z" fill="#ffffff" opacity=".2"/>
</svg>
