<svg width="48" height="48" version="1" xmlns="http://www.w3.org/2000/svg">
 <rect x="4" y="5" width="40" height="40" rx="2" ry="2" style="opacity:.2"/>
 <rect x="4" y="4" width="40" height="40" rx="2" ry="2" style="fill:#cccccc"/>
 <path d="m6 4c-1.108 0-2 0.892-2 2v1c0-1.108 0.892-2 2-2h36c1.108 0 2 0.892 2 2v-1c0-1.108-0.892-2-2-2h-36z" style="fill:#ffffff;opacity:.2"/>
 <circle cx="15" cy="24" r="8" style="fill:#2b8ede"/>
 <circle cx="33" cy="24" r="8" style="fill:#d74c94"/>
 <circle cx="36.5" cy="37.5" r="10.5" style="opacity:.2"/>
 <circle cx="36.5" cy="36.5" r="10.5" style="fill:#9a3cdb"/>
 <path d="m36.474 30-4.474 6h3v6l3-0.02892v-5.9711h3z" style="fill:#ffffff"/>
</svg>
