<svg width="48" height="48" version="1.1" viewBox="0 0 48 48" xmlns="http://www.w3.org/2000/svg">
 <path d="m6 6c-1.108 0-2 0.892-2 2v30 2c0 1.108 0.892 2 2 2h36c1.108 0 2-0.892 2-2v-2-30c0-1.108-0.892-2-2-2h-36z" style="fill:#8b346f"/>
 <path d="m6 6c-1.108 0-2 0.892-2 2v30 2c0 1.108 0.892 2 2 2h8v-36h-8z" style="opacity:.2"/>
 <path d="m6 6c-1.108 0-2 0.892-2 2v1c0-1.108 0.892-2 2-2h36c1.108 0 2 0.892 2 2v-1c0-1.108-0.892-2-2-2z" fill="#fff" opacity=".1"/>
 <g transform="translate(2 -1002.4)" opacity=".2">
  <rect x="5" y="1012.4" width="4" height="4" rx=".5" ry=".5"/>
  <rect x="5" y="1018.4" width="4" height="4" rx=".5" ry=".5"/>
  <rect x="5" y="1024.4" width="4" height="4" rx=".5" ry=".5"/>
  <rect x="5" y="1030.4" width="4" height="4" rx=".5" ry=".5"/>
 </g>
 <rect x="7" y="9" width="4" height="4" rx=".5" ry=".5" fill="#fff" fill-opacity=".973"/>
 <rect x="7" y="15" width="4" height="4" rx=".5" ry=".5" fill="#fff" fill-opacity=".973"/>
 <rect x="7" y="21" width="4" height="4" rx=".5" ry=".5" fill="#fff" fill-opacity=".973"/>
 <rect x="7" y="27" width="4" height="4" rx=".5" ry=".5" fill="#fff" fill-opacity=".973"/>
 <path d="m4 40v1c0 1.108 0.892 2 2 2h36c1.108 0 2-0.892 2-2v-1c0 1.108-0.892 2-2 2h-36c-1.108 0-2-0.892-2-2z" opacity=".2"/>
</svg>
