<svg version="1.1" viewBox="0 0 48 48" xmlns="http://www.w3.org/2000/svg">
 <path d="M 24,4 A 20,20 0 0 0 4,24 20,20 0 0 0 24,44 20,20 0 0 0 44,24 20,20 0 0 0 24,4 Z" style="fill:#4f4f4f"/>
 <path d="M 4.0214845,24.417969 A 20,20 0 0 0 4,25 20,20 0 0 0 24,45 20,20 0 0 0 44,25 20,20 0 0 0 43.978515,24.582031 20,20 0 0 1 24,44 20,20 0 0 1 4.0214845,24.417969 Z" style="opacity:.2"/>
 <path d="m27.181818 33.909091c0 1.331346-1.384363 5.090909-3.636363 5.090909-2.811636 0-6.545455-3.082618-6.545455-5.090909 0-2.008292 2.279273-2.909091 5.090909-2.909091 2.811637 0 5.090909 1.48669 5.090909 2.909091zm7.218181-10.909091a2.3999999 2 0 0 1 -2.399999 2 2.3999999 2 0 0 1 -2.4 -2 2.3999999 2 0 0 1 2.4 -2 2.3999999 2 0 0 1 2.399999 2zm3.429436-12.431197s-10.588078 8.839022-21.577871 9.181773c-3.013962 0.0939-5.247021-0.599447-6.728052-1.305155-1.4810305-0.70573-3.3875445-2.438549-3.3875445-2.438549l-0.647863 1.422809s1.090641 0.95148 1.573028 1.298469c0.3900015 2.086883 2.096783 8.27185 8.4637835 8.27185 5.390346 0 7.277653-4.695611 7.856281-6.89807 7.987531-2.276184 15.398692-8.556821 15.398692-8.556821z" style="opacity:.1"/>
 <path d="m27.181818 32.909091c0 1.331346-1.384363 5.090909-3.636363 5.090909-2.811636 0-6.545455-3.082618-6.545455-5.090909 0-2.008292 2.279273-2.909091 5.090909-2.909091 2.811637 0 5.090909 1.486691 5.090909 2.909091zm7.218181-10.909091a2.3999999 2 0 0 1 -2.399999 2 2.3999999 2 0 0 1 -2.4 -2 2.3999999 2 0 0 1 2.4 -2 2.3999999 2 0 0 1 2.399999 2zm2.831727-11.982269s-9.990369 8.390094-20.980163 8.732845c-3.013961 0.0939-5.24702-0.599447-6.728051-1.305155-1.4810305-0.705731-3.01046-2.127952-3.01046-2.127952l-0.6865405 1.369018s0.752234 0.694674 1.234621 1.041663c0.3900015 2.086883 2.096783 8.27185 8.4637835 8.27185 5.390346 0 7.277653-4.695611 7.856281-6.89807 7.987531-2.276184 14.916307-8.10193 14.916307-8.10193z" style="fill:#e6e6e6"/>
 <path d="M 24,4 A 20,20 0 0 0 4,24 20,20 0 0 0 4.0214844,24.417969 20,20 0 0 1 24,5 20,20 0 0 1 43.978516,24.582031 20,20 0 0 0 44,24 20,20 0 0 0 24,4 Z" style="fill:#ffffff;opacity:.1"/>
</svg>
