<svg width="48" height="48" version="1" xmlns="http://www.w3.org/2000/svg">
 <rect transform="matrix(0,-1,-1,0,0,0)" x="-44" y="-44" width="40" height="40" rx="2" ry="2" fill="#ccc"/>
 <path d="m6 4c-1.108 0-2 0.892-2 2v1c0-1.108 0.892-2 2-2h36c1.108 0 2 0.892 2 2v-1c0-1.108-0.892-2-2-2h-36z" fill="#fff" opacity=".2"/>
 <path d="m6 45c-1.108 0-2-0.892-2-2v-1c0 1.108 0.892 2 2 2h36c1.108 0 2-0.892 2-2v1c0 1.108-0.892 2-2 2h-36z" opacity=".2"/>
 <path d="m17 15 3 4h-6l-0.623047 3h-3.376953l1-4h-2l-2 8h2 3.623047l-0.623047 3h4l-3 4h4l3-4h8l3 4h4l-3-4h4l-0.623047-3h5.623047l-2-8h-2l1 4h-3.376953l-0.623047-3h-6l3-4h-2l-3 4h-4l-3-4z" style="fill:#565656"/>
 <path d="m16 22v4h4v-4h-4zm12 0v4h4v-4h-4z" style="opacity:.2"/>
 <path d="m16 21v4h4v-4h-4zm12 0v4h4v-4h-4z" style="fill:#ffffff"/>
</svg>
