<svg width="48" height="48" version="1.1" viewBox="0 0 48 48" xmlns="http://www.w3.org/2000/svg">
 <circle cx="24" cy="25" r="20" style="opacity:.2"/>
 <circle cx="24" cy="24" r="20" style="fill:#4f4f4f"/>
 <path d="m 24,8 a 3,3 0 0 0 -3,3 3,3 0 0 0 3,3 3,3 0 0 0 3,-3 3,3 0 0 0 -3,-3 z M 16.929688,9.8769531 A 3,3 0 0 0 15.5,10.277344 3,3 0 0 0 14.402344,14.375 3,3 0 0 0 18.5,15.474609 3,3 0 0 0 19.597656,11.375 3,3 0 0 0 16.929688,9.8769531 Z m 13.929687,0.00195 A 3,3 0 0 0 28.402344,11.375 3,3 0 0 0 29.5,15.474609 3,3 0 0 0 33.597656,14.375 3,3 0 0 0 32.5,10.277344 3,3 0 0 0 30.859375,9.8789062 Z M 36.052734,15 A 3,3 0 0 0 34.625,15.402344 3,3 0 0 0 33.525391,19.5 3,3 0 0 0 37.625,20.597656 3,3 0 0 0 38.722656,16.5 3,3 0 0 0 36.052734,15 Z m -24.318359,0.0039 A 3,3 0 0 0 9.2773438,16.5 3,3 0 0 0 10.375,20.597656 3,3 0 0 0 14.474609,19.5 3,3 0 0 0 13.375,15.402344 3,3 0 0 0 11.734375,15.003906 Z M 10,22 a 3,3 0 0 0 -3,3 3,3 0 0 0 3,3 3,3 0 0 0 3,-3 3,3 0 0 0 -3,-3 z m 28,0 a 3,3 0 0 0 -3,3 3,3 0 0 0 3,3 3,3 0 0 0 3,-3 3,3 0 0 0 -3,-3 z M 11.804688,29 A 3,3 0 0 0 10.375,29.402344 3,3 0 0 0 9.2773438,33.5 3,3 0 0 0 13.375,34.597656 3,3 0 0 0 14.474609,30.5 3,3 0 0 0 11.804688,29 Z m 24.177734,0.0039 A 3,3 0 0 0 33.525391,30.5 3,3 0 0 0 34.625,34.597656 3,3 0 0 0 38.722656,33.5 3,3 0 0 0 37.625,29.402344 3,3 0 0 0 35.982422,29.003906 Z M 30.929688,34.125 A 3,3 0 0 0 29.5,34.525391 3,3 0 0 0 28.402344,38.625 3,3 0 0 0 32.5,39.722656 3,3 0 0 0 33.597656,35.625 a 3,3 0 0 0 -2.667968,-1.5 z m -14.070313,0.002 A 3,3 0 0 0 14.402344,35.625 3,3 0 0 0 15.5,39.722656 3,3 0 0 0 19.597656,38.625 3,3 0 0 0 18.5,34.525391 3,3 0 0 0 16.859375,34.126953 Z M 24,36 a 3,3 0 0 0 -3,3 3,3 0 0 0 3,3 3,3 0 0 0 3,-3 3,3 0 0 0 -3,-3 z" style="opacity:.2"/>
 <path d="M 24 4 A 20 20 0 0 0 4 24 A 20 20 0 0 0 4.0215 24.582 A 20 20 0 0 1 24 5 A 20 20 0 0 1 43.979 24.418 A 20 20 0 0 0 44 24 A 20 20 0 0 0 24 4 z" style="fill:#ffffff;opacity:.1"/>
 <path d="m24 7a3 3 0 0 0 -3 3 3 3 0 0 0 3 3 3 3 0 0 0 3 -3 3 3 0 0 0 -3 -3zm-7.070312 1.8769531a3 3 0 0 0 -1.429688 0.4003907 3 3 0 0 0 -1.097656 4.0976562 3 3 0 0 0 4.097656 1.099609 3 3 0 0 0 1.097656 -4.099609 3 3 0 0 0 -2.667968 -1.4980469zm13.929687 0.0019531a3 3 0 0 0 -2.457031 1.4960938 3 3 0 0 0 1.097656 4.099609 3 3 0 0 0 4.097656 -1.099609 3 3 0 0 0 -1.097656 -4.0976562 3 3 0 0 0 -1.640625 -0.3984376zm5.193359 5.1210938a3 3 0 0 0 -1.427734 0.402344 3 3 0 0 0 -1.099609 4.097656 3 3 0 0 0 4.099609 1.097656 3 3 0 0 0 1.097656 -4.097656 3 3 0 0 0 -2.669922 -1.5zm-24.318359 0.003906a3 3 0 0 0 -2.4570312 1.496094 3 3 0 0 0 1.0976562 4.097656 3 3 0 0 0 4.099609 -1.097656 3 3 0 0 0 -1.099609 -4.097656 3 3 0 0 0 -1.640625 -0.398438zm-1.734375 6.996094a3 3 0 0 0 -3 3 3 3 0 0 0 3 3 3 3 0 0 0 3 -3 3 3 0 0 0 -3 -3zm28 0a3 3 0 0 0 -3 3 3 3 0 0 0 3 3 3 3 0 0 0 3 -3 3 3 0 0 0 -3 -3zm-26.195312 7a3 3 0 0 0 -1.429688 0.402344 3 3 0 0 0 -1.0976562 4.097656 3 3 0 0 0 4.0976562 1.097656 3 3 0 0 0 1.099609 -4.097656 3 3 0 0 0 -2.669921 -1.5zm24.177734 0.003906a3 3 0 0 0 -2.457031 1.496094 3 3 0 0 0 1.099609 4.097656 3 3 0 0 0 4.097656 -1.097656 3 3 0 0 0 -1.097656 -4.097656 3 3 0 0 0 -1.642578 -0.398438zm-5.052734 5.121094a3 3 0 0 0 -1.429688 0.400391 3 3 0 0 0 -1.097656 4.099609 3 3 0 0 0 4.097656 1.097656 3 3 0 0 0 1.097656 -4.097656 3 3 0 0 0 -2.667968 -1.5zm-14.070313 0.001953a3 3 0 0 0 -2.457031 1.498047 3 3 0 0 0 1.097656 4.097656 3 3 0 0 0 4.097656 -1.097656 3 3 0 0 0 -1.097656 -4.099609 3 3 0 0 0 -1.640625 -0.398438zm7.140625 1.873047a3 3 0 0 0 -3 3 3 3 0 0 0 3 3 3 3 0 0 0 3 -3 3 3 0 0 0 -3 -3z" style="fill:#ffffff"/>
 <circle cx="24" cy="24" r="7" style="opacity:.3"/>
 <path d="M 20,13 A 8,8 0 0 1 12,21 8,8 0 0 1 4.0000007,13 8,8 0 0 1 12,5.0000005 8,8 0 0 1 20,13 Z" style="opacity:.2"/>
 <path d="M 20,12 A 8,8 0 0 1 12,20 8,8 0 0 1 4.0000007,12 8,8 0 0 1 12,4.0000005 8,8 0 0 1 20,12 Z" style="fill:#ffae4a"/>
 <path d="m32.736383 28.000681c-0.461895-0.01591-0.523306 0.245438-0.659644 0.937625-0.686116 4.557123 3.314344 7.08556 8.570562 9.055482 1.53621 0.14177 1.853978-2.177434 2.347495-3.436818 0.639493-1.631891 1.66406-3.095577 0.415356-3.768088l-10.061928-2.684568c-0.261246-0.06107-0.457875-0.09834-0.611841-0.103633z" style="opacity:.2"/>
 <path d="m32.736383 27.000681c-0.461895-0.01591-0.523306 0.245438-0.659644 0.937625-0.686116 4.557123 3.314344 7.08556 8.570562 9.055482 1.53621 0.14177 1.853978-2.177434 2.347495-3.436818 0.639493-1.631891 1.66406-3.095577 0.415356-3.768088l-10.061928-2.684568c-0.261246-0.06107-0.457875-0.09834-0.611841-0.103633z" style="fill:#8e8e8e"/>
 <path d="M 12 4 A 8 8 0 0 0 4 12 A 8 8 0 0 0 4.0214844 12.576172 A 8 8 0 0 1 12 5 A 8 8 0 0 1 19.978516 12.423828 A 8 8 0 0 0 20 12 A 8 8 0 0 0 12 4 z" style="fill:#ffffff;opacity:.2"/>
 <path d="m32.736328 27c-0.461895-0.01591-0.523818 0.245313-0.660156 0.9375-0.080644 0.535629-0.09015 1.041473-0.046875 1.523438 0.012695-0.173005 0.019896-0.34425 0.046875-0.523438 0.136338-0.692187 0.198261-0.95341 0.660156-0.9375 0.153966 0.005293 0.350082 0.042446 0.611328 0.103516l10.0625 2.685546c0.26423 0.142306 0.410253 0.325949 0.496094 0.533204 0.183009-0.65811 0.131146-1.195393-0.496094-1.533204l-10.0625-2.685546c-0.261246-0.06107-0.457362-0.098223-0.611328-0.103516z" style="fill:#ffffff;opacity:.2"/>
</svg>
