<svg width="48" height="48" version="1" xmlns="http://www.w3.org/2000/svg">
 <rect transform="matrix(0,-1,-1,0,0,0)" x="-44" y="-44" width="40" height="40" rx="2" ry="2" style="fill:#52845f"/>
 <path d="m6 4c-1.108 0-2 0.892-2 2v1c0-1.108 0.892-2 2-2h36c1.108 0 2 0.892 2 2v-1c0-1.108-0.892-2-2-2h-36z" fill="#fff" opacity=".2"/>
 <path d="m6 45c-1.108 0-2-0.892-2-2v-1c0 1.108 0.892 2 2 2h36c1.108 0 2-0.892 2-2v1c0 1.108-0.892 2-2 2h-36z" opacity=".2"/>
 <path d="m12.427734 17c-1.300881 0-2.427734 1.105151-2.427734 2.423828v9.152344c0 1.318677 1.126853 2.423828 2.427734 2.423828h11.572266v14h4v-16a2.0002 2.0002 0 0 0 -2 -2h-12v-6h20v24h4v-25.576172c0-1.318677-1.126853-2.423828-2.427734-2.423828z" style="opacity:.2"/>
 <path d="m12.427734 16c-1.300881 0-2.427734 1.105151-2.427734 2.423828v9.152344c0 1.318677 1.126853 2.423828 2.427734 2.423828h11.572266v14h4v-16a2.0002 2.0002 0 0 0 -2 -2h-12v-6h20v2.427734 5.148438 16.423828h4v-16.423828-5.148438-4.003906c0-1.318677-1.126853-2.423828-2.427734-2.423828h-23.144532z" style="fill:#fbc295"/>
 <path d="m12.427734 16c-1.300881 0-2.427734 1.105151-2.427734 2.423828v1c0-1.318677 1.126853-2.423828 2.427734-2.423828h23.144532c1.300881 0 2.427734 1.105151 2.427734 2.423828v-1c0-1.318677-1.126853-2.423828-2.427734-2.423828h-23.144532zm1.572266 10v1h12a2.0002 2.0002 0 0 1 2 2v-1a2.0002 2.0002 0 0 0 -2 -2h-12z" style="fill:#ffffff;opacity:.2"/>
</svg>
