<svg width="48" height="48" version="1.1" viewBox="0 0 48 48" xmlns="http://www.w3.org/2000/svg">
 <path d="m13 5a5 5 0 0 0 -5 5 5 5 0 0 0 5 5 5 5 0 0 0 5 -5 5 5 0 0 0 -5 -5zm4.877 0c1.306 1.2744 2.123 3.0478 2.123 5 0 3.8423-3.1577 7-7 7-1.9522 0-3.7256-0.8171-5-2.123v25.123c0 3 2 5 5.0352 5 2.965 0 4.965-2 4.965-5v-7h3.4082l-2.002-2.803c-0.909-1.209-1.403-2.68-1.406-4.193v-4e-3c0-3.8423 3.1577-7 7-7h2e-3c2.2006 3e-3 4.2771 1.0429 5.5957 2.8047l0.02539 0.03711 5.2871 7.4043c2.612-2.679 4.087-6.457 4.09-10.246-4e-3 -7-5-14-13-14zm7.123 16c-2.7614 0-5 2.2386-5 5 2e-3 1.081 0.3542 2.1322 1.0039 2.9961l10 14c0.943 1.259 2.423 2.002 3.996 2.004 2.7614 0 5-2.2386 5-5-2e-3 -1.081-0.3542-2.1322-1.0039-2.9961l-10-14c-0.943-1.259-2.423-2.002-3.996-2.004z" style="opacity:.2"/>
 <path d="m17.877 4c1.306 1.2744 2.123 3.0478 2.123 5 0 3.842-3.158 7-7 7-1.952 0-3.7256-0.817-5-2.123v25.123c0 3 2 5 5.035 5 2.965 0 4.965-2 4.965-5v-7h3.408l-2.002-2.803c-0.909-1.209-1.403-2.68-1.406-4.193v-4e-3c0-3.842 3.158-7 7-7h2e-3c2.201 3e-3 4.277 1.043 5.596 2.805l0.025 0.037 5.287 7.404c2.612-2.679 4.087-6.457 4.09-10.246-4e-3 -7-5-14-13-14h-9.123z" style="fill:#3eb07b"/>
 <circle cx="13" cy="9" r="5" style="fill:#764d80"/>
 <path d="m25 20c-2.7614 0-5 2.2386-5 5 2e-3 1.081 0.3542 2.1322 1.0039 2.9961l10 14c0.943 1.259 2.423 2.002 3.996 2.004 2.7614 0 5-2.2386 5-5-2e-3 -1.081-0.3542-2.1322-1.0039-2.9961l-10-14c-0.943-1.259-2.423-2.002-3.996-2.004z" style="fill:#764d80"/>
 <path d="m17.876953 4c0.312918 0.3053463 0.595396 0.6417646 0.847656 1h8.275391c7.799554 0 12.729991 6.654284 12.976562 13.474609 0.005255-0.158407 0.023312-0.316083 0.023438-0.474609-4e-3 -7-5-14-13-14h-9.123047zm2.097656 5.4960938c-0.25893 3.6128922-3.30016 6.5039062-6.974609 6.5039062-1.952 0-3.7256-0.817047-5-2.123047v1c1.2744 1.306 3.048 2.123047 5 2.123047 3.842 0 7-3.158 7-7 0-0.1701496-0.013195-0.3366852-0.025391-0.5039062zm-1.943359 15.890625c-0.017969 0.202763-0.03125 0.406154-0.03125 0.613281v0.003906c3e-3 1.513 0.49725 2.98436 1.40625 4.19336l1.287109 1.802734h0.714844l-2.001953-2.802734c-0.831549-1.105988-1.296219-2.43447-1.375-3.810547z" style="fill:#ffffff;opacity:.1"/>
 <path d="M 13 4 A 5 5 0 0 0 8 9 A 5 5 0 0 0 8.0273438 9.484375 A 5 5 0 0 1 13 5 A 5 5 0 0 1 17.972656 9.515625 A 5 5 0 0 0 18 9 A 5 5 0 0 0 13 4 z" style="fill:#ffffff;opacity:.1"/>
 <path d="m25 20c-2.7614 0-5 2.2386-5 5 2.64e-4 0.142689 0.02281 0.282539 0.035156 0.423828 0.28589-2.489821 2.398447-4.423828 4.964844-4.423828 1.573 2e-3 3.053094 0.744906 3.996094 2.003906l10 14c0.563941 0.749868 0.887563 1.643166 0.96875 2.572266 0.021723-0.189185 0.035156-0.381169 0.035156-0.576172-2e-3 -1.081-0.354206-2.132194-1.003906-2.996094l-10-14c-0.943-1.259-2.423094-2.001906-3.996094-2.003906z" style="fill:#ffffff;opacity:.1"/>
</svg>
