<svg width="48" height="48" version="1" xmlns="http://www.w3.org/2000/svg">
 <rect transform="matrix(0,-1,-1,0,0,0)" x="-44" y="-44" width="40" height="40" rx="2" ry="2" style="fill:#4f4f4f"/>
 <path d="m6 4c-1.108 0-2 0.892-2 2v1c0-1.108 0.892-2 2-2h36c1.108 0 2 0.892 2 2v-1c0-1.108-0.892-2-2-2h-36z" style="fill:#ffffff;opacity:.1"/>
 <path d="m6 45c-1.108 0-2-0.892-2-2v-1c0 1.108 0.892 2 2 2h36c1.108 0 2-0.892 2-2v1c0 1.108-0.892 2-2 2h-36z" style="opacity:.2"/>
 <g transform="translate(-4,-5)">
  <path d="m38 14c-6.025541 0-10.822438 2.654568-14.052734 6.341797-3.230297 3.687229-4.947266 8.386113-4.947266 12.658203v12h2 8v-2-10c0-1.75 0.687614-4.0688 2.150391-5.869141 1.462777-1.80034 3.635323-3.130859 6.849609-3.130859v-1-1-2-2-2-1-1zm-2 2.109375v2.046875c-6.79755 0.951937-13 6.654387-13 14.84375v10h-2v-10c0-3.72791 1.54893-8.029026 4.451172-11.341797 2.536115-2.894854 6.065983-5.050879 10.548828-5.548828zm0 4.064453v2.009766c-2.78961 0.473263-4.945407 1.894797-6.400391 3.685547-1.787223 2.199659-2.599609 4.880859-2.599609 7.130859v10h-2v-10c0-7.066982 5.250967-11.89983 11-12.826172z" style="opacity:.2"/>
  <rect x="19" y="42" width="10" height="2" style="fill:#ffba40"/>
  <rect transform="rotate(90)" x="14" y="-38" width="8" height="2" style="fill:#ffba40"/>
  <path d="m20 44v-12c0-8 6.530152-18 18-18" style="fill:none;stroke-width:2;stroke:#ffba40"/>
  <path d="m24 44v-12c0-8.435137 7-14 14-14" style="fill:none;stroke-width:2;stroke:#ffba40"/>
  <path d="m28 44v-12c0-4 3-10 10-10" style="fill:none;stroke-width:2;stroke:#ffba40"/>
 </g>
</svg>
