<svg width="48" height="48" version="1.1" viewBox="0 0 48.000001 48.000001" xmlns="http://www.w3.org/2000/svg">
 <g transform="translate(0,-1004.3622)">
  <circle cx="24" cy="1029.3622" r="20" style="opacity:.2"/>
  <circle cx="24" cy="1028.3622" r="20" style="fill:#4d4d4d"/>
  <path d="m18 1019.3622v2h3v2h-5v5h-2v-3h-2v8h2v-3h2v3l4 4h9l2-2 2 0.016v0.9844h2l1-1v-8l-1-1h-2v1h-0.75l-4-4h-5.25v-2h3v-2zm0 6h9l4 4h3v4h-4l-2 2h-6.75l-3.25-3.25z" style="opacity:.2"/>
  <path d="m18 1018.3622v2h3v2h-5v5h-2v-3h-2v8h2v-3h2v3l4 4h9l2-2 2 0.016v0.9844h2l1-1v-8l-1-1h-2v1h-0.75l-4-4h-5.25v-2h3v-2zm0 6h9l4 4h3v4h-4l-2 2h-6.75l-3.25-3.25z" style="fill:#ffa92c"/>
  <path transform="translate(0,1004.3622)" d="M 24 4 A 20 20 0 0 0 4 24 A 20 20 0 0 0 4.0214844 24.582031 A 20 20 0 0 1 24 5 A 20 20 0 0 1 43.978516 24.417969 A 20 20 0 0 0 44 24 A 20 20 0 0 0 24 4 z " style="fill:#ffffff;opacity:.1"/>
 </g>
</svg>
