<svg width="48" height="48" version="1" xmlns="http://www.w3.org/2000/svg">
 <path d="m40 42v-36c0-1.108-0.892-2-2-2h-28c-1.108 0-2 0.892-2 2v36c0 1.108 0.892 2 2 2h28c1.108 0 2-0.892 2-2z" style="fill:#00679a"/>
 <path d="m31 8.9997575c0 3.0000005-10 20-16 20-3 0-4-2-4-4s1-4 4-4c6.038432-0.02152 16 17 16 20" style="fill:none;opacity:.2;stroke-linecap:round;stroke-linejoin:round;stroke-width:2;stroke:#000000"/>
 <path d="m10 4c-1.108 0-2 0.892-2 2v1c0-1.108 0.892-2 2-2h28c1.108 0 2 0.892 2 2v-1c0-1.108-0.892-2-2-2z" fill="#fff" opacity=".2"/>
 <path d="m8 42v1c0 1.108 0.892 2 2 2h28c1.108 0 2-0.892 2-2v-1c0 1.108-0.892 2-2 2h-28c-1.108 0-2-0.892-2-2z" opacity=".2"/>
 <path d="m34.999973 11.999758c0 2.894696-8 13-8 13s8.026902 10.375865 8 13" style="fill:none;opacity:.2;stroke-linecap:round;stroke-linejoin:round;stroke-width:2;stroke:#000000"/>
 <path d="m31 8c0 3-10 20-16 20-3 0-4-2-4-4s1-4 4-4c6.038432-0.02152 16 17 16 20" style="fill:none;stroke-linecap:round;stroke-linejoin:round;stroke-width:2;stroke:#ffffff"/>
 <path d="m34.999973 11c0 2.894696-8 13-8 13s8.026902 10.375865 8 13" style="fill:none;stroke-linecap:round;stroke-linejoin:round;stroke-width:2;stroke:#ffffff"/>
 <path d="m37 17.999779c0 1-5.000023 7-5.000023 7s5.04883 6.115854 5.000023 7" style="fill:none;opacity:.2;stroke-linecap:round;stroke-linejoin:round;stroke-width:2;stroke:#000000"/>
 <path d="m37 17c0 1-5.000023 7-5.000023 7s5.04883 6.115854 5.000023 7" style="fill:none;stroke-linecap:round;stroke-linejoin:round;stroke-width:2;stroke:#ffffff"/>
</svg>
