<svg width="48" height="48" version="1.0" xmlns="http://www.w3.org/2000/svg">
 <text x="877.22626" y="10.812601" font-family="'Bitstream Vera Sans'" font-size="12.666px" opacity=".8" xml:space="preserve"><tspan x="877.22626" y="10.812601"/></text>
 <text x="901.18719" y="-29.929106" font-family="'Bitstream Vera Sans'" font-size="12.666px" opacity=".8" xml:space="preserve"><tspan x="901.18719" y="-29.929106"/></text>
 <text x="-569.37115" y="-60.007248" font-family="'Bitstream Vera Sans'" font-size="12.666px" opacity=".8" xml:space="preserve"><tspan x="-569.37115" y="-60.007248"/></text>
 <text x="-2393.0571" y="685.5462" font-family="'Bitstream Vera Sans'" font-size="12.666px" opacity=".8" xml:space="preserve"><tspan x="-2393.0571" y="685.5462"/></text>
 <text x="-454.88007" y="-445.32822" font-family="'Bitstream Vera Sans'" font-size="12.666px" opacity=".8" xml:space="preserve"><tspan x="-454.88007" y="-445.32822"/></text>
 <text x="352.72208" y="-858.79834" font-family="'Bitstream Vera Sans'" font-size="12.666px" opacity=".8" xml:space="preserve"><tspan x="352.72208" y="-858.79834"/></text>
 <text x="376.68301" y="-899.54004" font-family="'Bitstream Vera Sans'" font-size="12.666px" opacity=".8" xml:space="preserve"><tspan x="376.68301" y="-899.54004"/></text>
 <text x="-1114.7802" y="-906.74994" font-family="'Bitstream Vera Sans'" font-size="12.666px" opacity=".8" xml:space="preserve"><tspan x="-1114.7802" y="-906.74994"/></text>
 <text x="345.7626" y="-1179.9841" font-family="'Bitstream Vera Sans'" font-size="12.666px" opacity=".8" xml:space="preserve"><tspan x="345.7626" y="-1179.9841"/></text>
 <text x="1831.8861" y="-553.29272" font-family="'Bitstream Vera Sans'" font-size="12.666px" opacity=".8" xml:space="preserve"><tspan x="1831.8861" y="-553.29272"/></text>
 <text x="1855.8469" y="-594.03448" font-family="'Bitstream Vera Sans'" font-size="12.666px" opacity=".8" xml:space="preserve"><tspan x="1855.8469" y="-594.03448"/></text>
 <text x="364.38376" y="-601.24438" font-family="'Bitstream Vera Sans'" font-size="12.666px" opacity=".8" xml:space="preserve"><tspan x="364.38376" y="-601.24438"/></text>
 <text x="1824.9266" y="-874.47839" font-family="'Bitstream Vera Sans'" font-size="12.666px" opacity=".8" xml:space="preserve"><tspan x="1824.9266" y="-874.47839"/></text>
 <text x="-573.43256" y="-649.33569" font-family="'Bitstream Vera Sans'" font-size="12.666px" opacity=".8" xml:space="preserve"><tspan x="-573.43256" y="-649.33569"/></text>
 <text x="-2397.1182" y="96.217857" font-family="'Bitstream Vera Sans'" font-size="12.666px" opacity=".8" xml:space="preserve"><tspan x="-2397.1182" y="96.217857"/></text>
 <text x="-682.36279" y="189.09" font-family="'Bitstream Vera Sans'" font-size="12.666px" opacity=".8" xml:space="preserve"><tspan x="-682.36279" y="189.09"/></text>
 <text x="426.66153" y="9.9078522" font-family="'Bitstream Vera Sans'" font-size="12.666px" opacity=".8" xml:space="preserve"><tspan x="426.66153" y="9.9078522"/></text>
 <text x="450.62247" y="-30.833855" font-family="'Bitstream Vera Sans'" font-size="12.666px" opacity=".8" xml:space="preserve"><tspan x="450.62247" y="-30.833855"/></text>
 <text x="-1040.8407" y="-38.043827" font-family="'Bitstream Vera Sans'" font-size="12.666px" opacity=".8" xml:space="preserve"><tspan x="-1040.8407" y="-38.043827"/></text>
 <text x="419.70206" y="-311.27789" font-family="'Bitstream Vera Sans'" font-size="12.666px" opacity=".8" xml:space="preserve"><tspan x="419.70206" y="-311.27789"/></text>
 <text x="-608.03253" y="-40.758072" font-family="'Bitstream Vera Sans'" font-size="12.666px" opacity=".8" xml:space="preserve"><tspan x="-608.03253" y="-40.758072"/></text>
 <text x="-2431.7185" y="704.79541" font-family="'Bitstream Vera Sans'" font-size="12.666px" opacity=".8" xml:space="preserve"><tspan x="-2431.7185" y="704.79541"/></text>
 <text x="-456.93948" y="-902.28857" font-family="'Bitstream Vera Sans'" font-size="12.666px" opacity=".8" xml:space="preserve"><tspan x="-456.93948" y="-902.28857"/></text>
 <text x="350.66266" y="-1315.7588" font-family="'Bitstream Vera Sans'" font-size="12.666px" opacity=".8" xml:space="preserve"><tspan x="350.66266" y="-1315.7588"/></text>
 <text x="374.62357" y="-1356.5005" font-family="'Bitstream Vera Sans'" font-size="12.666px" opacity=".8" xml:space="preserve"><tspan x="374.62357" y="-1356.5005"/></text>
 <text x="-1116.8396" y="-1363.7104" font-family="'Bitstream Vera Sans'" font-size="12.666px" opacity=".8" xml:space="preserve"><tspan x="-1116.8396" y="-1363.7104"/></text>
 <text x="343.70316" y="-1636.9446" font-family="'Bitstream Vera Sans'" font-size="12.666px" opacity=".8" xml:space="preserve"><tspan x="343.70316" y="-1636.9446"/></text>
 <text x="1829.8265" y="-1010.2533" font-family="'Bitstream Vera Sans'" font-size="12.666px" opacity=".8" xml:space="preserve"><tspan x="1829.8265" y="-1010.2533"/></text>
 <text x="1853.7874" y="-1050.9949" font-family="'Bitstream Vera Sans'" font-size="12.666px" opacity=".8" xml:space="preserve"><tspan x="1853.7874" y="-1050.9949"/></text>
 <text x="362.32431" y="-1058.2048" font-family="'Bitstream Vera Sans'" font-size="12.666px" opacity=".8" xml:space="preserve"><tspan x="362.32431" y="-1058.2048"/></text>
 <text x="1822.8671" y="-1331.439" font-family="'Bitstream Vera Sans'" font-size="12.666px" opacity=".8" xml:space="preserve"><tspan x="1822.8671" y="-1331.439"/></text>
 <text x="-575.492" y="-1106.2961" font-family="'Bitstream Vera Sans'" font-size="12.666px" opacity=".8" xml:space="preserve"><tspan x="-575.492" y="-1106.2961"/></text>
 <text x="-2399.1777" y="-360.74261" font-family="'Bitstream Vera Sans'" font-size="12.666px" opacity=".8" xml:space="preserve"><tspan x="-2399.1777" y="-360.74261"/></text>
 <text x="-684.42224" y="-267.87045" font-family="'Bitstream Vera Sans'" font-size="12.666px" opacity=".8" xml:space="preserve"><tspan x="-684.42224" y="-267.87045"/></text>
 <text x="155.5923" y="-26.956278" font-family="'Bitstream Vera Sans'" font-size="12.666px" opacity=".8" xml:space="preserve"><tspan x="155.5923" y="-26.956278"/></text>
 <text x="179.55324" y="-67.697998" font-family="'Bitstream Vera Sans'" font-size="12.666px" opacity=".8" xml:space="preserve"><tspan x="179.55324" y="-67.697998"/></text>
 <text x="-1090.2634" y="-261.72662" font-family="'Bitstream Vera Sans'" font-size="12.666px" opacity=".8" xml:space="preserve"><tspan x="-1090.2634" y="-261.72662"/></text>
 <text x="-282.66141" y="-675.19678" font-family="'Bitstream Vera Sans'" font-size="12.666px" opacity=".8" xml:space="preserve"><tspan x="-282.66141" y="-675.19678"/></text>
 <text x="-258.70047" y="-715.93848" font-family="'Bitstream Vera Sans'" font-size="12.666px" opacity=".8" xml:space="preserve"><tspan x="-258.70047" y="-715.93848"/></text>
 <text x="-1750.1636" y="-723.14838" font-family="'Bitstream Vera Sans'" font-size="12.666px" opacity=".8" xml:space="preserve"><tspan x="-1750.1636" y="-723.14838"/></text>
 <text x="-289.62085" y="-996.38251" font-family="'Bitstream Vera Sans'" font-size="12.666px" opacity=".8" xml:space="preserve"><tspan x="-289.62085" y="-996.38251"/></text>
 <text x="1196.5026" y="-369.69113" font-family="'Bitstream Vera Sans'" font-size="12.666px" opacity=".8" xml:space="preserve"><tspan x="1196.5026" y="-369.69113"/></text>
 <text x="1220.4634" y="-410.43286" font-family="'Bitstream Vera Sans'" font-size="12.666px" opacity=".8" xml:space="preserve"><tspan x="1220.4634" y="-410.43286"/></text>
 <text x="-270.99973" y="-417.64282" font-family="'Bitstream Vera Sans'" font-size="12.666px" opacity=".8" xml:space="preserve"><tspan x="-270.99973" y="-417.64282"/></text>
 <text x="1189.5431" y="-690.87689" font-family="'Bitstream Vera Sans'" font-size="12.666px" opacity=".8" xml:space="preserve"><tspan x="1189.5431" y="-690.87689"/></text>
 <text x="-1208.816" y="-465.7341" font-family="'Bitstream Vera Sans'" font-size="12.666px" opacity=".8" xml:space="preserve"><tspan x="-1208.816" y="-465.7341"/></text>
 <text x="-3032.5017" y="279.81946" font-family="'Bitstream Vera Sans'" font-size="12.666px" opacity=".8" xml:space="preserve"><tspan x="-3032.5017" y="279.81946"/></text>
 <g transform="matrix(.90475 0 0 .90475 -716.75 -676.29)">
  <text x="-664.2738" y="1159.4154" font-family="'Bitstream Vera Sans'" font-size="14px" opacity=".8" xml:space="preserve"><tspan x="-664.2738" y="1159.4154"/></text>
 </g>
 <text x="877.22626" y="18.050589" font-family="'Bitstream Vera Sans'" font-size="12.666px" opacity=".8" xml:space="preserve"><tspan x="877.22626" y="18.050589"/></text>
 <text x="901.18719" y="-22.691116" font-family="'Bitstream Vera Sans'" font-size="12.666px" opacity=".8" xml:space="preserve"><tspan x="901.18719" y="-22.691116"/></text>
 <text x="-569.37115" y="-52.76926" font-family="'Bitstream Vera Sans'" font-size="12.666px" opacity=".8" xml:space="preserve"><tspan x="-569.37115" y="-52.76926"/></text>
 <text x="-2393.0571" y="692.78418" font-family="'Bitstream Vera Sans'" font-size="12.666px" opacity=".8" xml:space="preserve"><tspan x="-2393.0571" y="692.78418"/></text>
 <text x="-454.88007" y="-438.09021" font-family="'Bitstream Vera Sans'" font-size="12.666px" opacity=".8" xml:space="preserve"><tspan x="-454.88007" y="-438.09021"/></text>
 <text x="352.72208" y="-851.5603" font-family="'Bitstream Vera Sans'" font-size="12.666px" opacity=".8" xml:space="preserve"><tspan x="352.72208" y="-851.5603"/></text>
 <text x="376.68301" y="-892.30206" font-family="'Bitstream Vera Sans'" font-size="12.666px" opacity=".8" xml:space="preserve"><tspan x="376.68301" y="-892.30206"/></text>
 <text x="-1114.7802" y="-899.51196" font-family="'Bitstream Vera Sans'" font-size="12.666px" opacity=".8" xml:space="preserve"><tspan x="-1114.7802" y="-899.51196"/></text>
 <text x="345.7626" y="-1172.7461" font-family="'Bitstream Vera Sans'" font-size="12.666px" opacity=".8" xml:space="preserve"><tspan x="345.7626" y="-1172.7461"/></text>
 <text x="1831.8861" y="-546.05475" font-family="'Bitstream Vera Sans'" font-size="12.666px" opacity=".8" xml:space="preserve"><tspan x="1831.8861" y="-546.05475"/></text>
 <text x="1855.8469" y="-586.79651" font-family="'Bitstream Vera Sans'" font-size="12.666px" opacity=".8" xml:space="preserve"><tspan x="1855.8469" y="-586.79651"/></text>
 <text x="364.38376" y="-594.00641" font-family="'Bitstream Vera Sans'" font-size="12.666px" opacity=".8" xml:space="preserve"><tspan x="364.38376" y="-594.00641"/></text>
 <text x="1824.9266" y="-867.24036" font-family="'Bitstream Vera Sans'" font-size="12.666px" opacity=".8" xml:space="preserve"><tspan x="1824.9266" y="-867.24036"/></text>
 <text x="-573.43256" y="-642.09772" font-family="'Bitstream Vera Sans'" font-size="12.666px" opacity=".8" xml:space="preserve"><tspan x="-573.43256" y="-642.09772"/></text>
 <text x="-2397.1182" y="103.45585" font-family="'Bitstream Vera Sans'" font-size="12.666px" opacity=".8" xml:space="preserve"><tspan x="-2397.1182" y="103.45585"/></text>
 <text x="-682.36279" y="196.32799" font-family="'Bitstream Vera Sans'" font-size="12.666px" opacity=".8" xml:space="preserve"><tspan x="-682.36279" y="196.32799"/></text>
 <text x="426.66153" y="17.14584" font-family="'Bitstream Vera Sans'" font-size="12.666px" opacity=".8" xml:space="preserve"><tspan x="426.66153" y="17.14584"/></text>
 <text x="450.62247" y="-23.595865" font-family="'Bitstream Vera Sans'" font-size="12.666px" opacity=".8" xml:space="preserve"><tspan x="450.62247" y="-23.595865"/></text>
 <text x="-1040.8407" y="-30.805836" font-family="'Bitstream Vera Sans'" font-size="12.666px" opacity=".8" xml:space="preserve"><tspan x="-1040.8407" y="-30.805836"/></text>
 <text x="419.70206" y="-304.03989" font-family="'Bitstream Vera Sans'" font-size="12.666px" opacity=".8" xml:space="preserve"><tspan x="419.70206" y="-304.03989"/></text>
 <text x="-608.03253" y="-33.520081" font-family="'Bitstream Vera Sans'" font-size="12.666px" opacity=".8" xml:space="preserve"><tspan x="-608.03253" y="-33.520081"/></text>
 <text x="-2431.7185" y="712.03345" font-family="'Bitstream Vera Sans'" font-size="12.666px" opacity=".8" xml:space="preserve"><tspan x="-2431.7185" y="712.03345"/></text>
 <text x="-456.93948" y="-895.0506" font-family="'Bitstream Vera Sans'" font-size="12.666px" opacity=".8" xml:space="preserve"><tspan x="-456.93948" y="-895.0506"/></text>
 <text x="350.66266" y="-1308.5208" font-family="'Bitstream Vera Sans'" font-size="12.666px" opacity=".8" xml:space="preserve"><tspan x="350.66266" y="-1308.5208"/></text>
 <text x="374.62357" y="-1349.2626" font-family="'Bitstream Vera Sans'" font-size="12.666px" opacity=".8" xml:space="preserve"><tspan x="374.62357" y="-1349.2626"/></text>
 <text x="-1116.8396" y="-1356.4724" font-family="'Bitstream Vera Sans'" font-size="12.666px" opacity=".8" xml:space="preserve"><tspan x="-1116.8396" y="-1356.4724"/></text>
 <text x="343.70316" y="-1629.7065" font-family="'Bitstream Vera Sans'" font-size="12.666px" opacity=".8" xml:space="preserve"><tspan x="343.70316" y="-1629.7065"/></text>
 <text x="1829.8265" y="-1003.0153" font-family="'Bitstream Vera Sans'" font-size="12.666px" opacity=".8" xml:space="preserve"><tspan x="1829.8265" y="-1003.0153"/></text>
 <text x="1853.7874" y="-1043.757" font-family="'Bitstream Vera Sans'" font-size="12.666px" opacity=".8" xml:space="preserve"><tspan x="1853.7874" y="-1043.757"/></text>
 <text x="362.32431" y="-1050.9668" font-family="'Bitstream Vera Sans'" font-size="12.666px" opacity=".8" xml:space="preserve"><tspan x="362.32431" y="-1050.9668"/></text>
 <text x="1822.8671" y="-1324.2009" font-family="'Bitstream Vera Sans'" font-size="12.666px" opacity=".8" xml:space="preserve"><tspan x="1822.8671" y="-1324.2009"/></text>
 <text x="-575.492" y="-1099.0581" font-family="'Bitstream Vera Sans'" font-size="12.666px" opacity=".8" xml:space="preserve"><tspan x="-575.492" y="-1099.0581"/></text>
 <text x="-2399.1777" y="-353.50461" font-family="'Bitstream Vera Sans'" font-size="12.666px" opacity=".8" xml:space="preserve"><tspan x="-2399.1777" y="-353.50461"/></text>
 <text x="-684.42224" y="-260.63245" font-family="'Bitstream Vera Sans'" font-size="12.666px" opacity=".8" xml:space="preserve"><tspan x="-684.42224" y="-260.63245"/></text>
 <text x="155.5923" y="-19.71829" font-family="'Bitstream Vera Sans'" font-size="12.666px" opacity=".8" xml:space="preserve"><tspan x="155.5923" y="-19.71829"/></text>
 <text x="179.55324" y="-60.460011" font-family="'Bitstream Vera Sans'" font-size="12.666px" opacity=".8" xml:space="preserve"><tspan x="179.55324" y="-60.460011"/></text>
 <text x="-1090.2634" y="-254.4886" font-family="'Bitstream Vera Sans'" font-size="12.666px" opacity=".8" xml:space="preserve"><tspan x="-1090.2634" y="-254.4886"/></text>
 <text x="-282.66141" y="-667.9588" font-family="'Bitstream Vera Sans'" font-size="12.666px" opacity=".8" xml:space="preserve"><tspan x="-282.66141" y="-667.9588"/></text>
 <text x="-258.70047" y="-708.7005" font-family="'Bitstream Vera Sans'" font-size="12.666px" opacity=".8" xml:space="preserve"><tspan x="-258.70047" y="-708.7005"/></text>
 <text x="-1750.1636" y="-715.91046" font-family="'Bitstream Vera Sans'" font-size="12.666px" opacity=".8" xml:space="preserve"><tspan x="-1750.1636" y="-715.91046"/></text>
 <text x="-289.62085" y="-989.14447" font-family="'Bitstream Vera Sans'" font-size="12.666px" opacity=".8" xml:space="preserve"><tspan x="-289.62085" y="-989.14447"/></text>
 <text x="1196.5026" y="-362.45316" font-family="'Bitstream Vera Sans'" font-size="12.666px" opacity=".8" xml:space="preserve"><tspan x="1196.5026" y="-362.45316"/></text>
 <text x="1220.4634" y="-403.19489" font-family="'Bitstream Vera Sans'" font-size="12.666px" opacity=".8" xml:space="preserve"><tspan x="1220.4634" y="-403.19489"/></text>
 <text x="-270.99973" y="-410.40482" font-family="'Bitstream Vera Sans'" font-size="12.666px" opacity=".8" xml:space="preserve"><tspan x="-270.99973" y="-410.40482"/></text>
 <text x="1189.5431" y="-683.63892" font-family="'Bitstream Vera Sans'" font-size="12.666px" opacity=".8" xml:space="preserve"><tspan x="1189.5431" y="-683.63892"/></text>
 <text x="-1208.816" y="-458.49609" font-family="'Bitstream Vera Sans'" font-size="12.666px" opacity=".8" xml:space="preserve"><tspan x="-1208.816" y="-458.49609"/></text>
 <text x="-3032.5017" y="287.05743" font-family="'Bitstream Vera Sans'" font-size="12.666px" opacity=".8" xml:space="preserve"><tspan x="-3032.5017" y="287.05743"/></text>
 <g transform="matrix(.90475 0 0 .90475 -716.75 -669.05)">
  <text x="-664.2738" y="1159.4154" font-family="'Bitstream Vera Sans'" font-size="14px" opacity=".8" xml:space="preserve"><tspan x="-664.2738" y="1159.4154"/></text>
 </g>
 <text x="435.90427" y="-361.22546" font-family="'Droid Sans'" font-size="12.666px" xml:space="preserve"><tspan x="435.90427" y="-361.22546"/><tspan x="435.90427" y="-345.3924"/></text>
 <text x="901.0882" y="-843.27002" font-family="'Bitstream Vera Sans'" font-size="12.666px" opacity=".8" xml:space="preserve"><tspan x="901.0882" y="-843.27002"/></text>
 <text x="-922.59778" y="-97.716553" font-family="'Bitstream Vera Sans'" font-size="12.666px" opacity=".8" xml:space="preserve"><tspan x="-922.59778" y="-97.716553"/></text>
 <text x="1628.1677" y="-1128.2659" font-family="'Bitstream Vera Sans'" font-size="12.666px" opacity=".8" xml:space="preserve"><tspan x="1628.1677" y="-1128.2659"/></text>
 <text x="1652.1285" y="-1169.0076" font-family="'Bitstream Vera Sans'" font-size="12.666px" opacity=".8" xml:space="preserve"><tspan x="1652.1285" y="-1169.0076"/></text>
 <text x="160.66542" y="-1176.2175" font-family="'Bitstream Vera Sans'" font-size="12.666px" opacity=".8" xml:space="preserve"><tspan x="160.66542" y="-1176.2175"/></text>
 <text x="1621.2083" y="-1449.4517" font-family="'Bitstream Vera Sans'" font-size="12.666px" opacity=".8" xml:space="preserve"><tspan x="1621.2083" y="-1449.4517"/></text>
 <rect x="4" y="4" width="40" height="40" rx="16" ry="16" fill="#e73c4f"/>
 <path d="m24 4.9993 0.01953 15.48 0.02148 15.482h4.8457l0.01172-4.0723c0.0088-3.2232 0.02028-4.0666 0.0625-4.0527 0.02936 0.01 0.81935 1.2448 1.7559 2.7422 0.9365 1.4974 1.8209 2.8897 1.9648 3.0977 0.29775 0.42998 0.88342 1.0234 1.2637 1.2793 0.79582 0.53558 1.6253 0.81223 2.9062 0.96484 0.68582 0.08173 3.003 0.10952 3.0742 0.03711 0.03113-0.0316 0.04272-0.76773 0.03516-2.334l-0.01172-2.2871-0.85742-0.02734c-0.97048-0.0313-1.1792-0.07219-1.7324-0.34766-0.42972-0.21398-0.92993-0.6756-1.2988-1.2012-0.13136-0.18716-0.79312-1.2401-1.4707-2.3379-1.1947-1.9356-1.2301-1.9982-1.166-2.0977 0.03633-0.05642 1.5266-2.1689 3.3105-4.6934 1.783-2.523 3.253-4.615 3.265-4.647 0.01895-0.05024-0.43846-0.06055-2.873-0.06055h-2.8965l-2.6113 3.6934c-1.4364 2.0313-2.6346 3.7016-2.6621 3.7109-0.05557 0.01884-0.06521-15.748-0.01953-18.27-0.38502-0.028427-0.76969-0.058594-1.1621-0.058594h-3.7754zm-8.9 11c-0.62272 0.0045-1.2312 0.03052-1.5234 0.07812-2.4017 0.39131-4.1014 1.4984-5.0215 3.2715-0.29138 0.56152-0.47101 1.1046-0.58398 1.7656-0.075244 0.44015-0.082285 0.62849-0.0625 1.3438 0.016179 0.5839 0.046453 0.95275 0.10547 1.2383 0.40326 1.9504 1.555 3.1874 3.5625 3.832 0.64787 0.20803 1.0533 0.28711 2.7871 0.53516 0.96349 0.13784 1.6974 0.26241 1.8516 0.31641 0.66317 0.23228 0.97463 0.65178 1.0312 1.3887 0.06969 0.90716-0.44756 1.5293-1.4863 1.7871-0.41653 0.10337-1.1785 0.16095-1.7148 0.13086-1.7624-0.09889-2.912-0.47188-3.9082-1.2676l-0.11719-0.09375-1.5098 1.5117c-0.8307 0.833-1.51 1.547-1.51 1.587 0 0.1018 0.69659 0.70321 1.2305 1.0625 1.3475 0.90688 2.779 1.3324 5.0469 1.502 0.47641 0.03566 2.2317-0.01507 2.6387-0.07617 3.0509-0.45794 5.1577-2.0242 5.8477-4.3516 0.32064-1.0817 0.31406-2.7158-0.01563-3.9277-0.24204-0.88973-0.55723-1.4481-1.1699-2.0664-0.63929-0.6452-1.1911-0.97736-2.1562-1.3008-0.65134-0.21826-1.198-0.32433-2.9355-0.56836-1.8535-0.26032-2.0733-0.3247-2.4961-0.7207-0.47918-0.44886-0.56313-1.0461-0.24219-1.6992 0.22694-0.46184 0.69218-0.79762 1.3594-0.98047 0.34842-0.09549 1.7426-0.10551 2.2988-0.01758 0.74705 0.11808 1.4467 0.41007 1.9453 0.81445 0.14501 0.11759 0.28986 0.21484 0.32031 0.21484 0.08265 0 2.9707-2.909 2.9707-2.9922 0-0.09666-0.55957-0.57152-1.1016-0.93555-1.0454-0.70216-2.287-1.1313-3.8359-1.3242-0.34547-0.04302-0.98275-0.06109-1.6055-0.05664z" opacity=".2"/>
 <path d="m24 4 0.01953 15.48 0.02148 15.482h4.8457l0.01172-4.0723c0.0088-3.2232 0.02028-4.0666 0.0625-4.0527 0.02936 0.01 0.81935 1.2448 1.7559 2.7422 0.9365 1.4974 1.8209 2.8897 1.9648 3.0977 0.29775 0.42998 0.88342 1.0234 1.2637 1.2793 0.79582 0.53558 1.6253 0.81223 2.9062 0.96484 0.68582 0.08173 3.003 0.10952 3.0742 0.03711 0.03113-0.0316 0.04272-0.76773 0.03516-2.334l-0.01172-2.2871-0.85742-0.02734c-0.97048-0.0313-1.1792-0.07219-1.7324-0.34766-0.43-0.213-0.931-0.675-1.299-1.2-0.132-0.187-0.794-1.24-1.471-2.338-1.195-1.936-1.23-1.998-1.166-2.098 0.03633-0.05642 1.5266-2.1689 3.3105-4.6934 1.784-2.525 3.254-4.616 3.266-4.649 0.01895-0.05024-0.43846-0.06055-2.873-0.06055h-2.8965l-2.6113 3.6934c-1.4364 2.0313-2.6346 3.7016-2.6621 3.7109-0.056 0.02-0.065-15.747-0.019-18.268-0.386-0.0288-0.77-0.059-1.163-0.059h-3.775zm-8.9004 11c-0.62272 0.0045-1.2312 0.03053-1.5234 0.07813-2.4017 0.39131-4.1014 1.4984-5.0215 3.2715-0.29138 0.56152-0.47101 1.1046-0.58398 1.7656-0.075244 0.44015-0.082285 0.62849-0.0625 1.3438 0.016179 0.5839 0.046453 0.95275 0.10547 1.2383 0.40326 1.9504 1.555 3.1874 3.5625 3.832 0.64787 0.20803 1.0533 0.28711 2.7871 0.53516 0.96349 0.13784 1.6974 0.26241 1.8516 0.31641 0.66317 0.23228 0.97463 0.65178 1.0312 1.3887 0.06969 0.90716-0.44756 1.5293-1.4863 1.7871-0.41653 0.10337-1.1785 0.16095-1.7148 0.13086-1.7624-0.09889-2.912-0.47188-3.9082-1.2676l-0.11719-0.09375-1.5098 1.5117c-0.8307 0.832-1.51 1.546-1.51 1.587 0 0.1018 0.69659 0.70321 1.2305 1.0625 1.3475 0.90688 2.779 1.3324 5.0469 1.502 0.47641 0.03566 2.2317-0.01507 2.6387-0.07617 3.0509-0.45794 5.1577-2.0242 5.8477-4.3516 0.32064-1.0817 0.31406-2.7158-0.01563-3.9277-0.24204-0.88973-0.55723-1.4481-1.1699-2.0664-0.63929-0.6452-1.1911-0.97736-2.1562-1.3008-0.65134-0.21826-1.198-0.32433-2.9355-0.56836-1.8535-0.26032-2.0733-0.3247-2.4961-0.7207-0.47918-0.44886-0.56313-1.0461-0.24219-1.6992 0.22694-0.46184 0.69218-0.79762 1.3594-0.98047 0.34842-0.09549 1.7426-0.10551 2.2988-0.01758 0.74705 0.11808 1.4467 0.41007 1.9453 0.81445 0.14501 0.11759 0.28986 0.21484 0.32031 0.21484 0.08265 0 2.9707-2.909 2.9707-2.9922 0-0.09666-0.55957-0.57152-1.1016-0.93555-1.045-0.702-2.287-1.131-3.836-1.324-0.345-0.043-0.983-0.061-1.605-0.057z" fill="#fff"/>
 <path d="m20 4c-8.864 0-16 7.136-16 16v1c0-8.864 7.136-16 16-16h8c8.864 0 16 7.136 16 16v-1c0-8.864-7.136-16-16-16h-8z" fill="#fff" opacity=".2"/>
 <path d="m4 28v1c0 8.864 7.136 16 16 16h8c8.864 0 16-7.136 16-16v-1c0 8.864-7.136 16-16 16h-8c-8.864 0-16-7.136-16-16z" opacity=".2"/>
</svg>
