<svg width="48" height="48" version="1" xmlns="http://www.w3.org/2000/svg">
 <rect transform="matrix(0,-1,-1,0,0,0)" x="-44" y="-44" width="40" height="39.996" rx="20" ry="19.998" fill-opacity=".992" style="fill-opacity:.99199998;fill:#8366b2"/>
 <path d="m24 4c-11.079 0-19.998 8.92-19.998 20 0 0.16772-4e-3 0.33329 0 0.5 0.2642-10.846 9.087-19.5 19.998-19.5s19.734 8.6536 19.998 19.5c4e-3 -0.16671 0-0.33228 0-0.5 0-11.08-8.919-20-19.998-20z" fill="#fff" style="opacity:.1"/>
 <path d="m4.0117 24.5c-0.0041 0.167-0.0117 0.332-0.0117 0.5 0 11.08 8.92 20 20 20s20-8.92 20-20c0-0.168-8e-3 -0.333-0.012-0.5-0.264 10.846-9.076 19.5-19.988 19.5s-19.724-8.654-19.988-19.5z" opacity=".2"/>
 <path d="m9.8183594 4.0019531c-1.2059561-0.0238522-2.1571942 0.3142106-2.9902344 1.0507813-2.1088963 1.8742836-2.4134402 5.7504406-0.7988281 11.164063 0.1153232-0.236565 0.2312075-0.471959 0.3554687-0.703125-1.1009078-4.338557-1.0455609-5.5869802 0.7382813-7.1523439 1.4332578-1.2520938 3.7034681-1.3545557 6.5410151-0.2949219 5.043045 1.8831952 10.675122 4.9643358 16.410157 12.304688 0.541262 0.692766 0.923236 1.161886 1.384765 1.742187-1.468917 0.02659-3.698466-0.118701-5.61914-0.466797-7.225559-1.309369-14.030146-3.856517-17.220703-7.21289-0.2856986-0.300546-0.5203742-0.52494-0.5214844-0.5-0.00131 0.0256 0.6423094 1.342768 1.4296876 2.925781l1.1855472 2.767578 1.759765 0.859375c1.914184 0.948186 4.35286 2.056976 9.648438 4.384766 5.801512 2.55014 8.398675 3.775839 11.033203 5.208984 2.111336 1.148543 4.257162 2.549212 5.339844 3.484375 0.368908 0.319948 0.453928 0.401857 0.486328 0.435547 0.0012-0.02409 0.0283-0.141128 0.01758-0.236328-0.07015-0.519236-0.474314-2.572477-0.849609-4.472656-0.0812-0.430414-0.169364-0.859322-0.253907-1.289063-0.03886-0.195837-0.09041-0.462419-0.125-0.636719-0.05502-0.277225-0.117296-0.539403-0.173828-0.8125-0.79561-3.852314-1.722917-7.676432-2.900393-11.441406-0.542985-1.714814-0.884285-2.546908-1.443359-3.564453-0.206921-0.376727-2.493496-1.9212221-2.886719-2.1289062-0.0064-0.00328-0.03267-0.030195-0.03711-0.03125l-2e-3 0.00586c-0.014369-0.0071877-0.114493-0.0784237-0.121046-0.0800788l-2e-3 0.00391c-0.0051-0.00171-0.0086-0.00347-0.0098-0.00391-0.02318 0.02138 0.156628 0.4156128 0.34961 0.757813 1.976739 3.505822 3.275569 8.767482 2.615234 11.71289-0.01104 0.04576-0.02043 0.09142-0.03711 0.138672-8.42e-4 0.0024-0.0033 8e-3 -0.0039 0.0098v2e-3c-0.0016-5e-4 -0.0045-0.0016-0.0059-2e-3 -0.01542 0.0057-0.06045 0.01203-0.08008 0.01758-0.539473-0.697548-1.010899-1.296871-1.669804-2.166052-4.046873-5.239178-11.436399-12.93287-19.068359-15.355469-0.935576-0.2676867-1.751036-0.4114699-2.4746096-0.4257813z" style="opacity:.2"/>
 <path d="m9.8183594 3.0019531c-1.2059561-0.0238522-2.1571942 0.3142106-2.9902344 1.0507813-2.1088963 1.8742836-2.4134402 5.7504403-0.7988281 11.164063 0.1153232-0.236565 0.2312075-0.471959 0.3554687-0.703125-1.1009078-4.338557-1.0455609-5.5869802 0.7382813-7.1523439 1.4332578-1.2520938 3.7034681-1.3545557 6.5410151-0.2949219 5.043045 1.8831952 10.675122 4.9643358 16.410157 12.304688 0.541262 0.692766 0.923236 1.161886 1.384765 1.742187-1.468917 0.026588-3.698466-0.118701-5.61914-0.466797-7.225559-1.309369-14.030146-3.856517-17.220703-7.21289-0.2856986-0.300546-0.5203742-0.52494-0.5214844-0.5-0.0013132 0.0256 0.6423094 1.342768 1.4296876 2.925781l1.1855472 2.767578 1.759765 0.859375c1.914184 0.948186 4.35286 2.056976 9.648438 4.384766 5.801512 2.55014 8.398675 3.775839 11.033203 5.208984 2.111336 1.148543 4.257162 2.549212 5.339844 3.484375 0.368908 0.319948 0.453928 0.401857 0.486328 0.435547 0.00124-0.024088 0.028298-0.141128 0.017578-0.236328-0.070155-0.519236-0.474314-2.572477-0.849609-4.472656-0.0812-0.430414-0.169364-0.859322-0.253907-1.289063-0.038859-0.195837-0.090406-0.462419-0.125-0.636719-0.055021-0.277225-0.117296-0.539403-0.173828-0.8125-0.795608-3.852314-1.722915-7.676432-2.900391-11.441406-0.542985-1.714814-0.884285-2.546908-1.443359-3.564453-0.206921-0.376727-2.493496-1.9212221-2.886719-2.1289062-0.006433-0.0032792-0.032667-0.0301949-0.037109-0.03125l-0.001953 0.0058593c-0.014417-0.007187-0.114541-0.078423-0.121094-0.0800781l-0.001953 0.0039062c-0.0051-0.0017099-0.008566-0.0034704-0.009766-0.0039062-0.023181 0.0213795 0.156628 0.4156128 0.34961 0.7578125 1.976739 3.5058225 3.275569 8.7674825 2.615234 11.71289-0.011042 0.045762-0.020431 0.091417-0.037109 0.138672-8.42e-4 0.002352-0.00328 0.007964-0.003906 0.009766v0.001953c-0.001602-5e-4 -0.00446-0.001642-0.00586-0.001953-0.015418 0.005652-0.060449 0.012027-0.080078 0.017578-0.539591-0.697512-1.011017-1.296835-1.669922-2.166016-4.046873-5.239178-11.436399-12.93287-19.068359-15.355469-0.935576-0.2676867-1.751036-0.4114699-2.4746096-0.4257813z" style="fill:#ffffff"/>
</svg>
