<svg width="48" height="48" version="1.1" viewBox="0 0 48 48" xmlns="http://www.w3.org/2000/svg">
 <path d="m23.846154 25a20 10 0 0 0 -20 10 20 10 0 0 0 20 10 20 10 0 0 0 20 -10 20 10 0 0 0 -20 -10z" style="opacity:.2"/>
 <path d="m23.846154 24a20 10 0 0 0 -20 10 20 10 0 0 0 20 10 20 10 0 0 0 20 -10 20 10 0 0 0 -20 -10z" style="fill:#696969"/>
 <path d="m23.846154 15a20 10 0 0 0 -20 10 20 10 0 0 0 20 10 20 10 0 0 0 20 -10 20 10 0 0 0 -20 -10z" style="opacity:.2"/>
 <path d="m23.846154 14a20 10 0 0 0 -20 10 20 10 0 0 0 20 10 20 10 0 0 0 20 -10 20 10 0 0 0 -20 -10z" style="fill:#919191"/>
 <path d="m23.846154 5a20 10 0 0 0 -20 10 20 10 0 0 0 20 10 20 10 0 0 0 20 -10 20 10 0 0 0 -20 -10z" style="opacity:.2"/>
 <path d="m23.846154 4a20 10 0 0 0 -20 10 20 10 0 0 0 20 10 20 10 0 0 0 20 -10 20 10 0 0 0 -20 -10z" style="fill:#cccccc"/>
 <path d="m23.845703 4a20 10 0 0 0 -20 10 20 10 0 0 0 0.0410157 0.417969 20 10 0 0 1 19.958984 -9.417969 20 10 0 0 1 19.958985 9.591797 20 10 0 0 0 0.041015 -0.591797 20 10 0 0 0 -20 -10z" style="fill:#ffffff;opacity:.2"/>
</svg>
