<svg width="48" height="48" version="1.1" viewBox="0 0 48 48" xmlns="http://www.w3.org/2000/svg">
 <rect transform="matrix(0,-1,-1,0,0,0)" x="-44" y="-44" width="40" height="40" rx="2" ry="2" style="fill:#e4e4e4"/>
 <path d="m22 10.999515c-4.134137 5.441199-13 4-13 9.5 0 6.66823 9.581139 5.594306 8 13.5-1 5-6 4-9 4" style="fill:none;opacity:.2;stroke-linecap:round;stroke-linejoin:round;stroke-width:4;stroke:#000000"/>
 <path d="m6 3.9999996c-1.108 0-2 0.892-2 2v1c0-1.108 0.892-2 2-2h36c1.108 0 2 0.892 2 2v-1c0-1.108-0.892-2-2-2z" style="fill:#ffffff;opacity:.2"/>
 <path d="m6 45c-1.108 0-2-0.892-2-2v-1c0 1.108 0.892 2 2 2h36c1.108 0 2-0.892 2-2v1c0 1.108-0.892 2-2 2z" style="opacity:.2"/>
 <path d="m22 10c-4.134137 5.441199-13 4-13 9.5 0 6.66823 9.581139 5.594306 8 13.5-1 5-6 4-9 4" style="fill:none;stroke-linecap:round;stroke-linejoin:round;stroke-width:4;stroke:#4f4f4f"/>
 <path d="m25 38.999515v-22c1.092649-3.583729 2.502421-6 6-6 4 0 6 2 6 6s-8 7-8 9.5 8 10.5 10 12.5" style="fill:none;opacity:.2;stroke-linecap:round;stroke-linejoin:round;stroke-width:4;stroke:#000000"/>
 <path d="m25 38v-22c1.092649-3.583729 2.502421-6 6-6 4 0 6 2 6 6s-8 7-8 9.5 8 10.5 10 12.5" style="fill:none;stroke-linecap:round;stroke-linejoin:round;stroke-width:4;stroke:#85722f"/>
 <circle cx="36" cy="37" r="11" style="fill-rule:evenodd;opacity:.2"/>
 <path d="m36 29c-3.866 0-7 3.134-7 7s3.134 7 7 7c3.1748 0 5.8615-2.1032 6.7188-5h-2.1562c-0.77427 1.7595-2.5168 3-4.5625 3-2.7614 0-5-2.2386-5-5s2.2386-5 5-5c1.3816 0 2.6155 0.57505 3.5156 1.4844l-2.516 2.516h6v-6l-2.0527 2.0527c-1.268-1.265-3.013-2.053-4.947-2.053z" style="fill:#ffffff"/>
 <circle cx="36" cy="36" r="11" style="fill-rule:evenodd;fill:#61b12f"/>
 <path d="m34.488281 29.998047-2e-3 0.0039h2e-3v-0.0039zm0 0.0039-0.132812 1.578125a4.7567 4.7143 0 0 0 -1.390625 0.796875l-1.449219-0.677734-1.513672 2.599609 1.316406 0.904297a4.7567 4.7143 0 0 0 -0.07422 0.796881 4.7567 4.7143 0 0 0 0.07031 0.796875l-1.314449 0.904297 1.513672 2.597656 1.445312-0.673828a4.7567 4.7143 0 0 0 1.392578 0.791016l0.134766 1.583984h3.025391l0.134765-1.580078a4.7567 4.7143 0 0 0 1.388672 -0.796875l1.451172 0.675781 1.511719-2.597656-1.314453-0.90625a4.7567 4.7143 0 0 0 0.07226 -0.794922 4.7567 4.7143 0 0 0 -0.07031 -0.798828l1.314456-0.900391-1.513672-2.597656-1.447266 0.673828a4.7567 4.7143 0 0 0 -1.392578 -0.791015l-0.132812-1.583985h-3.025391zm1.511719 3.998053a2 2 0 0 1 2 2 2 2 0 0 1 -2 2 2 2 0 0 1 -2 -2 2 2 0 0 1 2 -2z" style="fill:#ffffff"/>
</svg>
