<svg width="48" height="48" version="1.1" viewBox="0 0 36 36" xmlns="http://www.w3.org/2000/svg">
 <g transform="translate(33.967978 .45664088)" style="opacity:.2">
  <path transform="matrix(.74999998 0 0 .74999998 -33.967978 .29335906)" d="m11 4c-3.8780001 0-7 3.1219999-7 7 0 3.878 3.1219999 7 7 7h9.099609l-14.042968 14.042969c-2.7421601 2.74216-2.7421601 7.15823 0 9.90039 2.7421602 2.742161 7.1582304 2.742161 9.9003904 0l14.042969-14.042968v9.099609c0 3.878 3.122 7 7 7s7-3.122 7-7v-26c0-3.8780001-3.122-7-7-7z"/>
 </g>
 <g transform="translate(33.967978 -.29335906)" style="fill:#e7b212">
  <path transform="matrix(.74999998 0 0 .74999998 -33.967978 .29335906)" d="m11 4c-3.8780001 0-7 3.1219999-7 7 0 3.878 3.1219999 7 7 7h9.099609l-14.042968 14.042969c-2.7421601 2.74216-2.7421601 7.15823 0 9.90039 2.7421602 2.742161 7.1582304 2.742161 9.9003904 0l14.042969-14.042968v9.099609c0 3.878 3.122 7 7 7s7-3.122 7-7v-26c0-3.8780001-3.122-7-7-7h-26z" style="fill:#e7b212"/>
 </g>
 <g transform="translate(33.967978 -.29335906)" style="fill:#ffffff">
  <path transform="matrix(.74999998 0 0 .74999998 -33.967978 .29335906)" d="m11 4c-3.8780001 0-7 3.1219999-7 7 0 0.169082 0.0137169 0.333988 0.0253906 0.5 0.2560696-3.6415664 3.2656918-6.5 6.9746094-6.5h26c3.878 0 7 3.1219999 7 7v-1c0-3.8780001-3.122-7-7-7h-26zm8.099609 15l-13.042968 13.042969c-1.4986245 1.498624-2.1726124 3.497146-2.0332031 5.449219 0.1159816-1.619298 0.7900386-3.206055 2.0332031-4.449219l14.042968-14.042969h-1z" style="fill:#ffffff;opacity:.2"/>
 </g>
</svg>
