<svg width="48" height="48" version="1.1" viewBox="0 0 48 48" xmlns="http://www.w3.org/2000/svg">
 <path d="m15.579682 7.9999997c-0.853204 8.46e-5 -1.54484 0.6845448-1.544926 1.5288951 0 6.9372882-1.294 11.563787-2.62215 13.590106-0.752589 1.148202-1.327572 1.755394-2.2329012 2.185842-0.9053282 0.430447-2.2957957 0.697259-4.6347787 0.697259-0.8532042 8.5e-5 -1.5448414 0.684546-1.5449262 1.528896v12.940107c8.54e-5 0.84435 0.6917224 1.528811 1.5449262 1.528895 8.4246929 0 16.069857-3.692002 20.260561-10.085631 4.115417-6.278766 5.194513-13.895748 5.194513-22.385474-8.6e-5 -0.8443507-0.691723-1.528811-1.544927-1.5288951z" style="fill-rule:evenodd;opacity:.2"/>
 <path d="m15.579682 7c-0.853204 8.46e-5 -1.54484 0.6845448-1.544926 1.5288951 0 6.9372879-1.294 11.563787-2.62215 13.590106-0.752589 1.148202-1.327572 1.755394-2.2329012 2.185842-0.9053282 0.430447-2.2957957 0.697259-4.6347787 0.697259-0.8532042 8.5e-5 -1.5448414 0.684546-1.5449262 1.528896v12.940107c8.54e-5 0.84435 0.6917224 1.528811 1.5449262 1.528895 8.4246929 0 16.069857-3.692002 20.260561-10.085631 4.115417-6.278766 5.194513-13.895748 5.194513-22.385474-8.6e-5 -0.8443507-0.691723-1.528811-1.544927-1.5288951z" style="fill-rule:evenodd;fill:#115ccc"/>
 <path d="m15.580078 7c-0.853204 8.46e-5 -1.544836 0.6849466-1.544922 1.5292969 0 6.9372881-1.294897 11.563525-2.623047 13.589844-0.752589 1.148202-1.327092 1.755099-2.2324215 2.185547-0.9053282 0.430447-2.2957826 0.697265-4.6347656 0.697265-0.8532042 8.5e-5 -1.5448371 0.684947-1.5449219 1.529297v1c8.48e-5 -0.84435 0.6917177-1.529212 1.5449219-1.529297 2.338983 0 3.7294374-0.266818 4.6347656-0.697265 0.9053295-0.430448 1.4798325-1.037345 2.2324215-2.185547 1.32815-2.026319 2.623047-6.652556 2.623047-13.589844 8.6e-5 -0.8443503 0.691718-1.5292123 1.544922-1.5292969h12.875c0.802551 7.91e-5 1.453736 0.6081852 1.529297 1.3828125 0.002567-0.2863744 0.015625-0.5651086 0.015625-0.8535156-8.6e-5 -0.8443507-0.691718-1.5292128-1.544922-1.5292969h-12.875z" style="fill-rule:evenodd;fill:#ffffff;opacity:.1"/>
 <path d="m15.560691 7.9999997a1.5613757 1.5711343 0 0 0 -1.404183 2.2567453l14.868177 30.858045a1.5613757 1.5711343 0 0 0 1.405707 0.88521h13.009655a1.5613757 1.5711343 0 0 0 1.404182 -2.255212l-14.868176-30.859579a1.5613757 1.5711343 0 0 0 -1.404183 -0.885209h-13.011179z" style="opacity:.2"/>
 <path d="m15.560691 7a1.5613757 1.5711343 0 0 0 -1.404183 2.2567458l14.868177 30.858044a1.5613757 1.5711343 0 0 0 1.405707 0.88521h13.009655a1.5613757 1.5711343 0 0 0 1.404182 -2.255212l-14.868176-30.859579a1.5613757 1.5711343 0 0 0 -1.404183 -0.885209h-13.011179z" style="fill:#3387f5"/>
 <path d="m15.560547 7a1.5613757 1.5711343 0 0 0 -1.478516 2.0742188 1.5613757 1.5711343 0 0 1 1.478516 -1.0742188h13.011719a1.5613757 1.5711343 0 0 1 1.404296 0.8847656l14.867188 30.859375a1.5613757 1.5711343 0 0 1 0.074219 0.18164 1.5613757 1.5711343 0 0 0 -0.074219 -1.18164l-14.867188-30.859375a1.5613757 1.5711343 0 0 0 -1.404296 -0.8847656h-13.011719z" style="fill:#ffffff;opacity:.2"/>
</svg>
