<svg width="48" height="48" version="1.0" xmlns="http://www.w3.org/2000/svg">
 <text x="877.22626" y="10.812601" font-family="'Bitstream Vera Sans'" font-size="12.666px" opacity=".8" xml:space="preserve"><tspan x="877.22626" y="10.812601"/></text>
 <text x="901.18719" y="-29.929106" font-family="'Bitstream Vera Sans'" font-size="12.666px" opacity=".8" xml:space="preserve"><tspan x="901.18719" y="-29.929106"/></text>
 <text x="-569.37115" y="-60.007248" font-family="'Bitstream Vera Sans'" font-size="12.666px" opacity=".8" xml:space="preserve"><tspan x="-569.37115" y="-60.007248"/></text>
 <text x="-2393.0571" y="685.5462" font-family="'Bitstream Vera Sans'" font-size="12.666px" opacity=".8" xml:space="preserve"><tspan x="-2393.0571" y="685.5462"/></text>
 <text x="-454.88007" y="-445.32822" font-family="'Bitstream Vera Sans'" font-size="12.666px" opacity=".8" xml:space="preserve"><tspan x="-454.88007" y="-445.32822"/></text>
 <text x="352.72208" y="-858.79834" font-family="'Bitstream Vera Sans'" font-size="12.666px" opacity=".8" xml:space="preserve"><tspan x="352.72208" y="-858.79834"/></text>
 <text x="376.68301" y="-899.54004" font-family="'Bitstream Vera Sans'" font-size="12.666px" opacity=".8" xml:space="preserve"><tspan x="376.68301" y="-899.54004"/></text>
 <text x="-1114.7802" y="-906.74994" font-family="'Bitstream Vera Sans'" font-size="12.666px" opacity=".8" xml:space="preserve"><tspan x="-1114.7802" y="-906.74994"/></text>
 <text x="345.7626" y="-1179.9841" font-family="'Bitstream Vera Sans'" font-size="12.666px" opacity=".8" xml:space="preserve"><tspan x="345.7626" y="-1179.9841"/></text>
 <text x="1831.8861" y="-553.29272" font-family="'Bitstream Vera Sans'" font-size="12.666px" opacity=".8" xml:space="preserve"><tspan x="1831.8861" y="-553.29272"/></text>
 <text x="1855.8469" y="-594.03448" font-family="'Bitstream Vera Sans'" font-size="12.666px" opacity=".8" xml:space="preserve"><tspan x="1855.8469" y="-594.03448"/></text>
 <text x="364.38376" y="-601.24438" font-family="'Bitstream Vera Sans'" font-size="12.666px" opacity=".8" xml:space="preserve"><tspan x="364.38376" y="-601.24438"/></text>
 <text x="1824.9266" y="-874.47839" font-family="'Bitstream Vera Sans'" font-size="12.666px" opacity=".8" xml:space="preserve"><tspan x="1824.9266" y="-874.47839"/></text>
 <text x="-573.43256" y="-649.33569" font-family="'Bitstream Vera Sans'" font-size="12.666px" opacity=".8" xml:space="preserve"><tspan x="-573.43256" y="-649.33569"/></text>
 <text x="-2397.1182" y="96.217857" font-family="'Bitstream Vera Sans'" font-size="12.666px" opacity=".8" xml:space="preserve"><tspan x="-2397.1182" y="96.217857"/></text>
 <text x="-682.36279" y="189.09" font-family="'Bitstream Vera Sans'" font-size="12.666px" opacity=".8" xml:space="preserve"><tspan x="-682.36279" y="189.09"/></text>
 <text x="426.66153" y="9.9078522" font-family="'Bitstream Vera Sans'" font-size="12.666px" opacity=".8" xml:space="preserve"><tspan x="426.66153" y="9.9078522"/></text>
 <text x="450.62247" y="-30.833855" font-family="'Bitstream Vera Sans'" font-size="12.666px" opacity=".8" xml:space="preserve"><tspan x="450.62247" y="-30.833855"/></text>
 <text x="-1040.8407" y="-38.043827" font-family="'Bitstream Vera Sans'" font-size="12.666px" opacity=".8" xml:space="preserve"><tspan x="-1040.8407" y="-38.043827"/></text>
 <text x="419.70206" y="-311.27789" font-family="'Bitstream Vera Sans'" font-size="12.666px" opacity=".8" xml:space="preserve"><tspan x="419.70206" y="-311.27789"/></text>
 <text x="-608.03253" y="-40.758072" font-family="'Bitstream Vera Sans'" font-size="12.666px" opacity=".8" xml:space="preserve"><tspan x="-608.03253" y="-40.758072"/></text>
 <text x="-2431.7185" y="704.79541" font-family="'Bitstream Vera Sans'" font-size="12.666px" opacity=".8" xml:space="preserve"><tspan x="-2431.7185" y="704.79541"/></text>
 <text x="-456.93948" y="-902.28857" font-family="'Bitstream Vera Sans'" font-size="12.666px" opacity=".8" xml:space="preserve"><tspan x="-456.93948" y="-902.28857"/></text>
 <text x="350.66266" y="-1315.7588" font-family="'Bitstream Vera Sans'" font-size="12.666px" opacity=".8" xml:space="preserve"><tspan x="350.66266" y="-1315.7588"/></text>
 <text x="374.62357" y="-1356.5005" font-family="'Bitstream Vera Sans'" font-size="12.666px" opacity=".8" xml:space="preserve"><tspan x="374.62357" y="-1356.5005"/></text>
 <text x="-1116.8396" y="-1363.7104" font-family="'Bitstream Vera Sans'" font-size="12.666px" opacity=".8" xml:space="preserve"><tspan x="-1116.8396" y="-1363.7104"/></text>
 <text x="343.70316" y="-1636.9446" font-family="'Bitstream Vera Sans'" font-size="12.666px" opacity=".8" xml:space="preserve"><tspan x="343.70316" y="-1636.9446"/></text>
 <text x="1829.8265" y="-1010.2533" font-family="'Bitstream Vera Sans'" font-size="12.666px" opacity=".8" xml:space="preserve"><tspan x="1829.8265" y="-1010.2533"/></text>
 <text x="1853.7874" y="-1050.9949" font-family="'Bitstream Vera Sans'" font-size="12.666px" opacity=".8" xml:space="preserve"><tspan x="1853.7874" y="-1050.9949"/></text>
 <text x="362.32431" y="-1058.2048" font-family="'Bitstream Vera Sans'" font-size="12.666px" opacity=".8" xml:space="preserve"><tspan x="362.32431" y="-1058.2048"/></text>
 <text x="1822.8671" y="-1331.439" font-family="'Bitstream Vera Sans'" font-size="12.666px" opacity=".8" xml:space="preserve"><tspan x="1822.8671" y="-1331.439"/></text>
 <text x="-575.492" y="-1106.2961" font-family="'Bitstream Vera Sans'" font-size="12.666px" opacity=".8" xml:space="preserve"><tspan x="-575.492" y="-1106.2961"/></text>
 <text x="-2399.1777" y="-360.74261" font-family="'Bitstream Vera Sans'" font-size="12.666px" opacity=".8" xml:space="preserve"><tspan x="-2399.1777" y="-360.74261"/></text>
 <text x="-684.42224" y="-267.87045" font-family="'Bitstream Vera Sans'" font-size="12.666px" opacity=".8" xml:space="preserve"><tspan x="-684.42224" y="-267.87045"/></text>
 <text x="155.5923" y="-26.956278" font-family="'Bitstream Vera Sans'" font-size="12.666px" opacity=".8" xml:space="preserve"><tspan x="155.5923" y="-26.956278"/></text>
 <text x="179.55324" y="-67.697998" font-family="'Bitstream Vera Sans'" font-size="12.666px" opacity=".8" xml:space="preserve"><tspan x="179.55324" y="-67.697998"/></text>
 <text x="-1090.2634" y="-261.72662" font-family="'Bitstream Vera Sans'" font-size="12.666px" opacity=".8" xml:space="preserve"><tspan x="-1090.2634" y="-261.72662"/></text>
 <text x="-282.66141" y="-675.19678" font-family="'Bitstream Vera Sans'" font-size="12.666px" opacity=".8" xml:space="preserve"><tspan x="-282.66141" y="-675.19678"/></text>
 <text x="-258.70047" y="-715.93848" font-family="'Bitstream Vera Sans'" font-size="12.666px" opacity=".8" xml:space="preserve"><tspan x="-258.70047" y="-715.93848"/></text>
 <text x="-1750.1636" y="-723.14838" font-family="'Bitstream Vera Sans'" font-size="12.666px" opacity=".8" xml:space="preserve"><tspan x="-1750.1636" y="-723.14838"/></text>
 <text x="-289.62085" y="-996.38251" font-family="'Bitstream Vera Sans'" font-size="12.666px" opacity=".8" xml:space="preserve"><tspan x="-289.62085" y="-996.38251"/></text>
 <text x="1196.5026" y="-369.69113" font-family="'Bitstream Vera Sans'" font-size="12.666px" opacity=".8" xml:space="preserve"><tspan x="1196.5026" y="-369.69113"/></text>
 <text x="1220.4634" y="-410.43286" font-family="'Bitstream Vera Sans'" font-size="12.666px" opacity=".8" xml:space="preserve"><tspan x="1220.4634" y="-410.43286"/></text>
 <text x="-270.99973" y="-417.64282" font-family="'Bitstream Vera Sans'" font-size="12.666px" opacity=".8" xml:space="preserve"><tspan x="-270.99973" y="-417.64282"/></text>
 <text x="1189.5431" y="-690.87689" font-family="'Bitstream Vera Sans'" font-size="12.666px" opacity=".8" xml:space="preserve"><tspan x="1189.5431" y="-690.87689"/></text>
 <text x="-1208.816" y="-465.7341" font-family="'Bitstream Vera Sans'" font-size="12.666px" opacity=".8" xml:space="preserve"><tspan x="-1208.816" y="-465.7341"/></text>
 <text x="-3032.5017" y="279.81946" font-family="'Bitstream Vera Sans'" font-size="12.666px" opacity=".8" xml:space="preserve"><tspan x="-3032.5017" y="279.81946"/></text>
 <g transform="matrix(.90475 0 0 .90475 -716.75 -676.29)">
  <text x="-664.2738" y="1159.4154" font-family="'Bitstream Vera Sans'" font-size="14px" opacity=".8" xml:space="preserve"><tspan x="-664.2738" y="1159.4154"/></text>
 </g>
 <text x="877.22626" y="18.050589" font-family="'Bitstream Vera Sans'" font-size="12.666px" opacity=".8" xml:space="preserve"><tspan x="877.22626" y="18.050589"/></text>
 <text x="901.18719" y="-22.691116" font-family="'Bitstream Vera Sans'" font-size="12.666px" opacity=".8" xml:space="preserve"><tspan x="901.18719" y="-22.691116"/></text>
 <text x="-569.37115" y="-52.76926" font-family="'Bitstream Vera Sans'" font-size="12.666px" opacity=".8" xml:space="preserve"><tspan x="-569.37115" y="-52.76926"/></text>
 <text x="-2393.0571" y="692.78418" font-family="'Bitstream Vera Sans'" font-size="12.666px" opacity=".8" xml:space="preserve"><tspan x="-2393.0571" y="692.78418"/></text>
 <text x="-454.88007" y="-438.09021" font-family="'Bitstream Vera Sans'" font-size="12.666px" opacity=".8" xml:space="preserve"><tspan x="-454.88007" y="-438.09021"/></text>
 <text x="352.72208" y="-851.5603" font-family="'Bitstream Vera Sans'" font-size="12.666px" opacity=".8" xml:space="preserve"><tspan x="352.72208" y="-851.5603"/></text>
 <text x="376.68301" y="-892.30206" font-family="'Bitstream Vera Sans'" font-size="12.666px" opacity=".8" xml:space="preserve"><tspan x="376.68301" y="-892.30206"/></text>
 <text x="-1114.7802" y="-899.51196" font-family="'Bitstream Vera Sans'" font-size="12.666px" opacity=".8" xml:space="preserve"><tspan x="-1114.7802" y="-899.51196"/></text>
 <text x="345.7626" y="-1172.7461" font-family="'Bitstream Vera Sans'" font-size="12.666px" opacity=".8" xml:space="preserve"><tspan x="345.7626" y="-1172.7461"/></text>
 <text x="1831.8861" y="-546.05475" font-family="'Bitstream Vera Sans'" font-size="12.666px" opacity=".8" xml:space="preserve"><tspan x="1831.8861" y="-546.05475"/></text>
 <text x="1855.8469" y="-586.79651" font-family="'Bitstream Vera Sans'" font-size="12.666px" opacity=".8" xml:space="preserve"><tspan x="1855.8469" y="-586.79651"/></text>
 <text x="364.38376" y="-594.00641" font-family="'Bitstream Vera Sans'" font-size="12.666px" opacity=".8" xml:space="preserve"><tspan x="364.38376" y="-594.00641"/></text>
 <text x="1824.9266" y="-867.24036" font-family="'Bitstream Vera Sans'" font-size="12.666px" opacity=".8" xml:space="preserve"><tspan x="1824.9266" y="-867.24036"/></text>
 <text x="-573.43256" y="-642.09772" font-family="'Bitstream Vera Sans'" font-size="12.666px" opacity=".8" xml:space="preserve"><tspan x="-573.43256" y="-642.09772"/></text>
 <text x="-2397.1182" y="103.45585" font-family="'Bitstream Vera Sans'" font-size="12.666px" opacity=".8" xml:space="preserve"><tspan x="-2397.1182" y="103.45585"/></text>
 <text x="-682.36279" y="196.32799" font-family="'Bitstream Vera Sans'" font-size="12.666px" opacity=".8" xml:space="preserve"><tspan x="-682.36279" y="196.32799"/></text>
 <text x="426.66153" y="17.14584" font-family="'Bitstream Vera Sans'" font-size="12.666px" opacity=".8" xml:space="preserve"><tspan x="426.66153" y="17.14584"/></text>
 <text x="450.62247" y="-23.595865" font-family="'Bitstream Vera Sans'" font-size="12.666px" opacity=".8" xml:space="preserve"><tspan x="450.62247" y="-23.595865"/></text>
 <text x="-1040.8407" y="-30.805836" font-family="'Bitstream Vera Sans'" font-size="12.666px" opacity=".8" xml:space="preserve"><tspan x="-1040.8407" y="-30.805836"/></text>
 <text x="419.70206" y="-304.03989" font-family="'Bitstream Vera Sans'" font-size="12.666px" opacity=".8" xml:space="preserve"><tspan x="419.70206" y="-304.03989"/></text>
 <text x="-608.03253" y="-33.520081" font-family="'Bitstream Vera Sans'" font-size="12.666px" opacity=".8" xml:space="preserve"><tspan x="-608.03253" y="-33.520081"/></text>
 <text x="-2431.7185" y="712.03345" font-family="'Bitstream Vera Sans'" font-size="12.666px" opacity=".8" xml:space="preserve"><tspan x="-2431.7185" y="712.03345"/></text>
 <text x="-456.93948" y="-895.0506" font-family="'Bitstream Vera Sans'" font-size="12.666px" opacity=".8" xml:space="preserve"><tspan x="-456.93948" y="-895.0506"/></text>
 <text x="350.66266" y="-1308.5208" font-family="'Bitstream Vera Sans'" font-size="12.666px" opacity=".8" xml:space="preserve"><tspan x="350.66266" y="-1308.5208"/></text>
 <text x="374.62357" y="-1349.2626" font-family="'Bitstream Vera Sans'" font-size="12.666px" opacity=".8" xml:space="preserve"><tspan x="374.62357" y="-1349.2626"/></text>
 <text x="-1116.8396" y="-1356.4724" font-family="'Bitstream Vera Sans'" font-size="12.666px" opacity=".8" xml:space="preserve"><tspan x="-1116.8396" y="-1356.4724"/></text>
 <text x="343.70316" y="-1629.7065" font-family="'Bitstream Vera Sans'" font-size="12.666px" opacity=".8" xml:space="preserve"><tspan x="343.70316" y="-1629.7065"/></text>
 <text x="1829.8265" y="-1003.0153" font-family="'Bitstream Vera Sans'" font-size="12.666px" opacity=".8" xml:space="preserve"><tspan x="1829.8265" y="-1003.0153"/></text>
 <text x="1853.7874" y="-1043.757" font-family="'Bitstream Vera Sans'" font-size="12.666px" opacity=".8" xml:space="preserve"><tspan x="1853.7874" y="-1043.757"/></text>
 <text x="362.32431" y="-1050.9668" font-family="'Bitstream Vera Sans'" font-size="12.666px" opacity=".8" xml:space="preserve"><tspan x="362.32431" y="-1050.9668"/></text>
 <text x="1822.8671" y="-1324.2009" font-family="'Bitstream Vera Sans'" font-size="12.666px" opacity=".8" xml:space="preserve"><tspan x="1822.8671" y="-1324.2009"/></text>
 <text x="-575.492" y="-1099.0581" font-family="'Bitstream Vera Sans'" font-size="12.666px" opacity=".8" xml:space="preserve"><tspan x="-575.492" y="-1099.0581"/></text>
 <text x="-2399.1777" y="-353.50461" font-family="'Bitstream Vera Sans'" font-size="12.666px" opacity=".8" xml:space="preserve"><tspan x="-2399.1777" y="-353.50461"/></text>
 <text x="-684.42224" y="-260.63245" font-family="'Bitstream Vera Sans'" font-size="12.666px" opacity=".8" xml:space="preserve"><tspan x="-684.42224" y="-260.63245"/></text>
 <text x="155.5923" y="-19.71829" font-family="'Bitstream Vera Sans'" font-size="12.666px" opacity=".8" xml:space="preserve"><tspan x="155.5923" y="-19.71829"/></text>
 <text x="179.55324" y="-60.460011" font-family="'Bitstream Vera Sans'" font-size="12.666px" opacity=".8" xml:space="preserve"><tspan x="179.55324" y="-60.460011"/></text>
 <text x="-1090.2634" y="-254.4886" font-family="'Bitstream Vera Sans'" font-size="12.666px" opacity=".8" xml:space="preserve"><tspan x="-1090.2634" y="-254.4886"/></text>
 <text x="-282.66141" y="-667.9588" font-family="'Bitstream Vera Sans'" font-size="12.666px" opacity=".8" xml:space="preserve"><tspan x="-282.66141" y="-667.9588"/></text>
 <text x="-258.70047" y="-708.7005" font-family="'Bitstream Vera Sans'" font-size="12.666px" opacity=".8" xml:space="preserve"><tspan x="-258.70047" y="-708.7005"/></text>
 <text x="-1750.1636" y="-715.91046" font-family="'Bitstream Vera Sans'" font-size="12.666px" opacity=".8" xml:space="preserve"><tspan x="-1750.1636" y="-715.91046"/></text>
 <text x="-289.62085" y="-989.14447" font-family="'Bitstream Vera Sans'" font-size="12.666px" opacity=".8" xml:space="preserve"><tspan x="-289.62085" y="-989.14447"/></text>
 <text x="1196.5026" y="-362.45316" font-family="'Bitstream Vera Sans'" font-size="12.666px" opacity=".8" xml:space="preserve"><tspan x="1196.5026" y="-362.45316"/></text>
 <text x="1220.4634" y="-403.19489" font-family="'Bitstream Vera Sans'" font-size="12.666px" opacity=".8" xml:space="preserve"><tspan x="1220.4634" y="-403.19489"/></text>
 <text x="-270.99973" y="-410.40482" font-family="'Bitstream Vera Sans'" font-size="12.666px" opacity=".8" xml:space="preserve"><tspan x="-270.99973" y="-410.40482"/></text>
 <text x="1189.5431" y="-683.63892" font-family="'Bitstream Vera Sans'" font-size="12.666px" opacity=".8" xml:space="preserve"><tspan x="1189.5431" y="-683.63892"/></text>
 <text x="-1208.816" y="-458.49609" font-family="'Bitstream Vera Sans'" font-size="12.666px" opacity=".8" xml:space="preserve"><tspan x="-1208.816" y="-458.49609"/></text>
 <text x="-3032.5017" y="287.05743" font-family="'Bitstream Vera Sans'" font-size="12.666px" opacity=".8" xml:space="preserve"><tspan x="-3032.5017" y="287.05743"/></text>
 <g transform="matrix(.90475 0 0 .90475 -716.75 -669.05)">
  <text x="-664.2738" y="1159.4154" font-family="'Bitstream Vera Sans'" font-size="14px" opacity=".8" xml:space="preserve"><tspan x="-664.2738" y="1159.4154"/></text>
 </g>
 <text x="435.90427" y="-361.22546" font-family="'Droid Sans'" font-size="12.666px" xml:space="preserve"><tspan x="435.90427" y="-361.22546"/><tspan x="435.90427" y="-345.3924"/></text>
 <text x="901.0882" y="-843.27002" font-family="'Bitstream Vera Sans'" font-size="12.666px" opacity=".8" xml:space="preserve"><tspan x="901.0882" y="-843.27002"/></text>
 <text x="-922.59778" y="-97.716553" font-family="'Bitstream Vera Sans'" font-size="12.666px" opacity=".8" xml:space="preserve"><tspan x="-922.59778" y="-97.716553"/></text>
 <text x="1628.1677" y="-1128.2659" font-family="'Bitstream Vera Sans'" font-size="12.666px" opacity=".8" xml:space="preserve"><tspan x="1628.1677" y="-1128.2659"/></text>
 <text x="1652.1285" y="-1169.0076" font-family="'Bitstream Vera Sans'" font-size="12.666px" opacity=".8" xml:space="preserve"><tspan x="1652.1285" y="-1169.0076"/></text>
 <text x="160.66542" y="-1176.2175" font-family="'Bitstream Vera Sans'" font-size="12.666px" opacity=".8" xml:space="preserve"><tspan x="160.66542" y="-1176.2175"/></text>
 <text x="1621.2083" y="-1449.4517" font-family="'Bitstream Vera Sans'" font-size="12.666px" opacity=".8" xml:space="preserve"><tspan x="1621.2083" y="-1449.4517"/></text>
 <path d="m6.0293 32c-1.1242 0-2.0293 0.892-2.0293 2v8c0 1.1077 0.90509 2 2.0293 2h1.9414c1.1242 0 2.0293-0.892 2.0293-2v-8c0-1.108-0.9051-2-2.0293-2h-1.9414zm34 0c-1.124 0-2.029 0.892-2.029 2v8c0 1.1077 0.90509 2 2.0293 2h1.9414c1.125 0 2.03-0.892 2.03-2v-8c0-1.1077-0.90509-2-2.0293-2h-1.9414z" fill="#303030"/>
 <path d="m4 42v1c0 1.1077 0.90509 2 2.0293 2h1.9414c1.1242 0 2.0293-0.892 2.0293-2v-1c0 1.1077-0.90509 2-2.0293 2h-1.9414c-1.1242 0-2.0293-0.892-2.0293-2zm34 0v1c0 1.1077 0.90509 2 2.0293 2h1.9414c1.125 0 2.03-0.892 2.03-2v-1c0 1.1077-0.90509 2-2.0293 2h-1.941c-1.125 0-2.03-0.892-2.03-2z" opacity=".2"/>
 <g transform="matrix(1.2981,0,0,1.2651,3.4781,4)" fill="#4d4d4d">
  <g fill="#4d4d4d">
   <path transform="matrix(.77036 0 0 .79045 -2.6794 -3.1618)" d="m24.002 4c-7.384 0-13.371 5.8328-13.371 13.031 0 1.2664 0.19247 2.487 0.53906 3.6445 0 0-2.0468 7.2865-1.3867 10.883 0.19231 1.0477 0.5872 2.0562 1.1094 3.0059 2.034-2.741 7.26-4.561 13.107-4.565 5.8442 0.0017 11.071 1.8183 13.111 4.5566 0.52053-0.94737 0.91546-1.9531 1.1074-2.998 0.66062-3.5962-1.3867-10.883-1.3867-10.883 0.34789-1.1576 0.53906-2.3782 0.53906-3.6445 1e-3 -7.1969-5.982-13.031-13.368-13.031z" fill="#4d4d4d"/>
  </g>
 </g>
 <circle cx="17" cy="14" r="3" opacity=".2"/>
 <circle cx="17" cy="13" r="3" fill="#fff"/>
 <circle cx="31" cy="14" r="3" opacity=".2"/>
 <circle cx="31" cy="13" r="3" fill="#fff"/>
 <ellipse cx="24" cy="29" rx="10" ry="11" fill="#fff"/>
 <g transform="matrix(1.2981,0,0,1.2651,3.4781,4)">
  <path transform="matrix(.77036 0 0 .79045 -2.6794 -3.1618)" d="m10.652 16.609c-0.0047 0.14138-0.02149 0.27939-0.02149 0.42188 0 1.0876 0.14856 2.1393 0.4082 3.1484 0.04005-0.14956 0.13086-0.50391 0.13086-0.50391-0.29338-0.97985-0.46832-2.0067-0.51758-3.0664zm26.697 0c-0.049 1.0597-0.2231 2.0866-0.51758 3.0664 0 0 0.0911 0.35354 0.13086 0.50195 0.25989-1.0086 0.4082-2.0595 0.4082-3.1465 0-0.14246-0.01683-0.28052-0.02148-0.42188zm-13.349 12.391c-5.8467 0.0037-11.073 1.8237-13.107 4.5645-0.52218-0.94962-0.91707-1.9581-1.1094-3.0059-0.058498-0.31871-0.090086-0.67394-0.10938-1.043-0.016777 0.74262 7.672e-4 1.4513 0.10938 2.043 0.19231 1.0477 0.5872 2.0562 1.1094 3.0059 2.034-2.74 7.26-4.56 13.107-4.564 5.8442 0.0017 11.071 1.8183 13.111 4.5566 0.52053-0.94737 0.91546-1.9531 1.1074-2.998 0.10869-0.59169 0.12612-1.3004 0.10938-2.043-0.01932 0.36902-0.05083 0.72428-0.10938 1.043-0.19196 1.045-0.58689 2.0507-1.1074 2.998-2.04-2.739-7.267-4.555-13.111-4.557z" opacity=".3"/>
 </g>
 <path d="m21 16h6c-0.481 4.109-3 8-3 8s-3-4.6183-3-8z" opacity=".2"/>
 <g transform="translate(-2,-1)" fill="#303030">
  <circle cx="18.5" cy="14.5" r="1.5"/>
  <circle cx="32.5" cy="14.5" r="1.5"/>
 </g>
 <path d="m21 15h6c-0.481 4.109-3 8-3 8s-3-4.6183-3-8z" fill="#cd5252"/>
 <path d="m24 25a5 5 0 0 0 -5 5 5 5 0 0 0 5 5 5 5 0 0 0 5 -5 5 5 0 0 0 -5 -5zm0 2a3 3 0 0 1 1.9492 0.7207l-1.9492 1.125-1.9473-1.123a3 3 0 0 1 1.948 -0.723zm2.9492 2.4512a3 3 0 0 1 0.051 0.549 3 3 0 0 1 -2 2.8262v-2.25l1.9492-1.125zm-5.8965 2e-3 1.9473 1.123v2.248a3 3 0 0 1 -2 -2.8242 3 3 0 0 1 0.05273 -0.54688z" fill="#303030"/>
 <path d="m24 30a14 7 0 0 0 -14 7 14 7 0 0 0 0.59375 2h-5.594v3h9.2207a14 7 0 0 0 9.779 2 14 7 0 0 0 9.793 -2h9.207v-3h-5.59a14 7 0 0 0 0.59 -2 14 7 0 0 0 -14 -7z" fill="#f5432a"/>
 <ellipse transform="matrix(.70175 -.71242 .86961 .49374 0 0)" cx="-12.916" cy="29.972" rx="3.5496" ry="6.277" fill="#4d4d4d"/>
 <ellipse transform="matrix(-.70175 -.71242 -.86961 .49374 0 0)" cx="-37.449" cy="-5.4276" rx="3.5496" ry="6.277" fill="#4d4d4d"/>
 <ellipse cx="16" cy="37" rx="2" ry="2" opacity=".2"/>
 <ellipse cx="16" cy="36" rx="2" ry="2" fill="#fff"/>
 <ellipse cx="32" cy="37" rx="2" ry="2" opacity=".2"/>
 <ellipse cx="32" cy="36" rx="2" ry="2" fill="#fff"/>
 <path d="m23.5 33c-0.277 0-0.5 0.669-0.5 1.5v3c0 0.831 0.223 1.5 0.5 1.5s0.5-0.669 0.5-1.5v-3c0-0.831-0.223-1.5-0.5-1.5zm-2 1c-0.277 0-0.5 0.446-0.5 1v2c0 0.554 0.223 1 0.5 1s0.5-0.446 0.5-1v-2c0-0.554-0.223-1-0.5-1z" opacity=".5"/>
 <path d="m25.5 33c0.277 0 0.5 0.669 0.5 1.5v3c0 0.831-0.223 1.5-0.5 1.5s-0.5-0.669-0.5-1.5v-3c0-0.831 0.223-1.5 0.5-1.5zm2 1c0.277 0 0.5 0.446 0.5 1v2c0 0.554-0.223 1-0.5 1s-0.5-0.446-0.5-1v-2c0-0.554 0.223-1 0.5-1z" opacity=".5"/>
 <path d="m24.002 4c-7.384 0-13.371 5.8328-13.371 13.031 0 0.19442 0.01255 0.38592 0.02149 0.57812 0.231-7.001 6.112-12.609 13.35-12.609 7.24 0 13.117 5.6093 13.348 12.609 0.0089-0.1922 0.02148-0.3837 0.02148-0.57812 1e-3 -7.1969-5.982-13.031-13.368-13.031zm12.961 17.178c-0.04283 0.16614-0.08167 0.33438-0.13086 0.49805 0 0 1.4112 5.069 1.4961 8.8398 0.17579-3.3578-1.0608-8.2015-1.3652-9.3379zm-25.924 2e-3c-0.305 1.14-1.5407 5.98-1.3652 9.336 0.0851-3.771 1.4962-8.84 1.4962-8.84-0.049-0.163-0.088-0.33-0.131-0.496z" fill="#fff" opacity=".1"/>
 <path d="m24 30a14 7 0 0 0 -14 7 14 7 0 0 0 0.049 0.451 14 7 0 0 1 13.951 -6.451 14 7 0 0 1 13.951 6.518 14 7 0 0 0 0.049 -0.518 14 7 0 0 0 -14 -7zm-19 9v1h5.5938a14 7 0 0 1 -0.428 -1h-5.166zm32.836 0a14 7 0 0 1 -0.42578 1h5.59v-1h-5.1641z" fill="#fff" opacity=".2"/>
 <path d="m10.049 37.451a14 7 0 0 0 -0.049 0.549 14 7 0 0 0 0.16602 1h0.42773a14 7 0 0 1 -0.54492 -1.5488zm27.902 0.066a14 7 0 0 1 -0.541 1.483h0.42578a14 7 0 0 0 0.164 -1 14 7 0 0 0 -0.049 -0.482zm-32.951 4.483v1h9.2207a14 7 0 0 0 9.779 2 14 7 0 0 0 9.793 -2h9.207v-1h-9.207a14 7 0 0 1 -9.793 2 14 7 0 0 1 -9.779 -2h-9.221z" opacity=".2"/>
 <path d="m6.0293 32c-1.1242 0-2.0293 0.892-2.0293 2v1c0-1.1077 0.90509-2 2.0293-2h1.9414c1.1242 0 2.0293 0.892 2.0293 2v-1c0-1.108-0.9051-2-2.0293-2h-1.9414zm34 0c-1.124 0-2.029 0.892-2.029 2v1c0-1.1077 0.90509-2 2.0293-2h1.9414c1.125 0 2.03 0.892 2.03 2v-1c0-1.1077-0.90509-2-2.0293-2h-1.9414z" fill="#fff" opacity=".1"/>
</svg>
