<svg width="48" height="48" version="1.1" viewBox="0 0 48 48" xmlns="http://www.w3.org/2000/svg">
 <circle cx="24" cy="25" r="20" style="opacity:.2"/>
 <path d="m24 4a20 20 0 0 1 20 20h-20z" style="fill:#196260"/>
 <path d="m24 44a20 20 0 0 1 -20 -20h20z" style="fill:#97c33d"/>
 <path d="M 4,24 8.0000002,27 12,24 Z" style="fill:#5d7dbd"/>
 <path d="m24 4a20 20 0 0 0 -20 20h20z" style="fill:#5d7dbd"/>
 <path d="M 44,24 39.999999,21 36,24 Z" style="fill:#3f96b9"/>
 <path d="m24 44a20 20 0 0 0 20 -20h-20z" style="fill:#3f96b9"/>
 <path d="M 24,44 27,39.999999 24,36 Z" style="fill:#97c33d"/>
 <path d="M 24,4 21,8.0000002 24,12 Z" style="fill:#196260"/>
 <circle cx="24" cy="25" r="12" style="opacity:.2"/>
 <circle cx="24" cy="24" r="12" style="fill:#f9f9f9"/>
 <path d="M 24 4 A 20 20 0 0 0 4 24 A 20 20 0 0 0 4.0214844 24.582031 A 20 20 0 0 1 24 5 A 20 20 0 0 1 43.978516 24.417969 A 20 20 0 0 0 44 24 A 20 20 0 0 0 24 4 z" style="fill:#ffffff;opacity:.1"/>
</svg>
