<svg width="48" height="48" version="1.1" viewBox="0 0 12.7 12.7" xmlns="http://www.w3.org/2000/svg">
 <g transform="translate(0,-284.29998)">
  <rect transform="matrix(0,-1,-1,0,0,0)" x="-295.94" y="-11.64" width="10.054" height="10.583" rx=".799" ry=".805" style="opacity:.2"/>
  <path transform="matrix(0,-1,-1,0,0,0)" d="m-292.44388-11.641666h6.02198c0.44265 0 0.799 0.358848 0.799 0.804592v8.9741172c0 0.4457439-0.35635 0.8045919-0.799 0.8045919h-6.02198c-0.44265 0-0.799-0.358848-0.799-0.8045919v-8.9741172c0-0.445744 0.35635-0.804592 0.799-0.804592z" style="fill:#0088b5"/>
  <path d="m9.2701415 288.05452c-0.2141696 0.58942-0.7594618 1.09165-0.7594615 1.09165 0.3115146 0.087 0.3895603 0 0.3895603 0-0.1557576 0.3865-0.7398026 0.8309-0.7398026 0.8309 0.292046 0.058 0.6425417-0.0579 0.6425417-0.0579-0.077871 0.3865-0.9736421 0.65758-0.9736421 0.65758 0.311517 0.15459 0.9151822 0 0.9151822 0-0.2141732 0.34784-1.4020034 0.65654-1.4020034 0.65654 0.3504565 0.17393 1.2654245 0.0967 1.2654245 0.0967-0.4478049 0.5411-0.9394975 0.72277-0.9394975 0.72277s-0.2981957 0.3119-0.7460106-0.2292c0 0 0.5109298-0.091 0.8613785-0.26489 0 0-0.8846684-0.21662-1.0988397-0.56445 0 0 0.603146 0.15459 0.9146649 0 0 0-0.8952479-0.27056-0.9731248-0.65707 0 0 0.3504862 0.11593 0.6425419 0.058 0 0-0.5845586-0.4444-0.7403199-0.8309 0 0 0.078037 0.087 0.3895604 0 0 0-0.5447792-0.50224-0.7589445-1.09165-0.2141687 0.58941-0.7594615 1.09165-0.7594615 1.09165 0.3115131 0.087 0.3895603 0 0.3895603 0-0.1557576 0.3865-0.7398026 0.8309-0.7398026 0.8309 0.292046 0.058 0.6425418-0.058 0.6425418-0.058-0.077871 0.38651-0.9736422 0.65707-0.9736422 0.65707 0.311517 0.15459 0.9151823 0 0.9151823 0-0.2141746 0.34783-1.4020033 0.65706-1.4020033 0.65706 0.3504571 0.17392 1.2654243 0.0967 1.2654243 0.0967-0.4478051 0.54108-1.0796976 0.65344-1.0796978 0.65344 0 0-0.3918352 0.14893-0.8396498-0.39217 0 0 0.5109287-0.091 0.8613784-0.26489 0 0-0.885184-0.21661-1.099357-0.56446 0 0 0.6036637 0.1546 0.9151823 0 0 0-0.8952498-0.27056-0.9731249-0.65706 0 0 0.3504865 0.11592 0.6425418 0.058 0 0-0.5845584-0.4444-0.74032-0.8309 0 0 0.07804 0.087 0.3895606 0 1.9e-6 0-0.5452986-0.50224-0.7594617-1.09166-0.2141709 0.58942-0.7589443 1.09166-0.7589443 1.09166 0.3115131 0.087 0.3895604 0 0.3895604 0-0.1557575 0.3865-0.7403199 0.8309-0.7403199 0.8309 0.2920459 0.058 0.6430591-0.058 0.6430591-0.058-0.077873 0.3865-0.9736422 0.65706-0.9736422 0.65706 0.3115169 0.1546 0.9146649 0 0.9146649 0-0.1655984 0.26895-0.8158494 0.51076-1.1464352 0.60843v0.10555c0.4118093 0.0966 1.0103737 0.0398 1.0103737 0.0398-0.2227575 0.26916-0.7118923 0.45552-1.0941835 0.57946v2.36491c0 0.44264 0.3587266 0.79882 0.8044706 0.79882h8.9743741c0.445744 0 0.80447-0.35618 0.80447-0.79882v-2.31162c-0.56829 0.28507-1.377171 0.39165-1.377171 0.39165s0.216561-1.01102-0.231253-1.55212c0 0 0.510929-0.0915 0.861379-0.26541 0 0-0.884668-0.21609-1.0988396-0.56393 0 0 0.6036636 0.15459 0.9151826 0 0 0-0.8957674-0.27108-0.9736425-0.65758 0 0 0.3504865 0.11591 0.6425415 0.0579 0 0-0.5840405-0.4444-0.7398023-0.8309 0 0 0.07752 0.087 0.3890433 0 0 0-0.5447795-0.50223-0.7589445-1.09165zm2.3715065 3.30031c-0.184684 0.077-0.374557 0.12728-0.374557 0.12728 0.09169 0.0456 0.245967 0.0602 0.374557 0.0636v-0.19091zm0 0.5091c-0.390997 0.1632-0.860861 0.27524-0.860861 0.27524 0.188565 0.0935 0.572178 0.11161 0.860861 0.11072v-0.38596z" style="fill-rule:evenodd;fill:#003c56"/>
  <rect x="7.94" y="293.56" width=".794" height="2.117" style="fill:#625323"/>
  <path d="m11.641659 293.2271v-3.57866c0-0.16193-0.01048-0.58596-0.01048-0.58596s-0.395097 1e-3 -0.550483 1e-3h-3.640573c-0.3107706 0-0.5609565 0.26072-0.5609565 0.58456v3.57867c0 0.32384 0.2501859 0.58457 0.5609565 0.58457h3.640574c0.155386 0 0.550484 0.0137 0.550484 0.0137s0.01048-0.43633 0.01048-0.59826z" style="opacity:.2"/>
  <path d="m11.641659 292.96252v-3.57866c0-0.16193-0.01048-0.58596-0.01048-0.58596s-0.395097 1e-3 -0.550483 1e-3h-3.640573c-0.3107706 0-0.5609565 0.26072-0.5609565 0.58456v3.57867c0 0.32384 0.2501859 0.58457 0.5609565 0.58457h3.640574c0.155386 0 0.550484 0.0137 0.550484 0.0137s0.01048-0.43633 0.01048-0.59826z" style="fill:#08c688"/>
  <path d="m8.0367186 289.59165c-0.3372654 0-0.6283854 0.22446-0.6283854 0.52555v2.65306c0 0.30109 0.29112 0.52555 0.6283854 0.52555h3.6049484v-0.26355h-3.6044316c-0.2199624 0-0.3632854-0.13159-0.3632854-0.262v-2.6541c0-0.1304 0.143323-0.25993 0.3632854-0.25993h3.6044316v-0.26458h-3.6049484z" style="opacity:.2"/>
  <path transform="matrix(.26458333 0 0 .26458333 0 284.29998)" d="m30.375 19c-1.274704 0-2.375 0.84835-2.375 1.986328v10.027344c0 1.137978 1.100296 1.986328 2.375 1.986328h13.625v-0.996094h-13.623047c-0.831354 0-1.373047-0.497346-1.373047-0.990234v-10.03125c0-0.492851 0.541693-0.982422 1.373047-0.982422h13.623047v-1h-13.625z" style="fill:#ffffff"/>
  <path transform="matrix(.26458333 0 0 .26458333 0 284.29998)" d="M 7.0410156 5 C 5.3563141 5 4 6.346539 4 8.0195312 L 4 9.0195312 C 4 7.346539 5.3563141 6 7.0410156 6 L 40.958984 6 C 42.643686 6 44 7.346539 44 9.0195312 L 44 8.0195312 C 44 6.346539 42.643686 5 40.958984 5 L 7.0410156 5 z" style="fill:#ffffff;opacity:.2"/>
 </g>
</svg>
