<svg width="48" height="48" version="1.1" viewBox="0 0 48 48" xmlns="http://www.w3.org/2000/svg">
 <g transform="translate(0,-1004.3622)">
  <path d="m24 1009.3622c-3.878 0-7 3.568-7 8 0 10-6 11-6 18 0 7.732 5.820298 14 13 14s13-6.268 13-14c0-7-6-8-6-18 0-4.432-3.122-8-7-8z" style="opacity:.2"/>
  <path transform="translate(0,1004.3622)" d="m24 4c-3.878 0-7 3.568-7 8 0 10-6 11-6 18 0 7.731986 5.820298 14 13 14s13-6.268014 13-14c0-7-6-8-6-18 0-4.432-3.122-8-7-8z" style="fill:#3d7284"/>
  <path d="m24 1021.3622c-2.386461 0-4 2.1408-4 4.8 0 6-4 6.6-4 10.8 0 4.6391 3.581722 8.4 8 8.4s8-3.7609 8-8.4c0-4.2-4-4.8-4-10.8 0-2.6592-1.613539-4.8-4-4.8z" style="opacity:.1"/>
  <path d="m24 1020.3622c-2.386461 0-4 2.1408-4 4.8 0 6-4 6.6-4 10.8 0 4.6391 3.581722 8.4 8 8.4s8-3.7609 8-8.4c0-4.2-4-4.8-4-10.8 0-2.6592-1.613539-4.8-4-4.8z" style="fill:#ffffff"/>
  <path d="m16.525707 1050.3336c-0.421851-0.067-0.794886-0.1923-1.612234-0.5441-1.216896-0.5239-1.784338-0.6938-4.01158-1.2008-1.1109592-0.2528-1.5249948-0.3652-2.4892369-0.6763-0.350756-0.1131-0.8182592-0.2575-1.0388955-0.3208-0.5989465-0.1719-0.7577379-0.2387-0.9771806-0.4111-0.29936-0.2351-0.4388718-0.5978-0.3853659-1.0017 0.034282-0.2589 0.1248833-0.5077 0.3749637-1.0296 0.3342404-0.6977 0.6044266-0.9487 0.6553392-1.6353 0.029953-0.404 0.0054-0.8584-0.097406-1.8044-0.060841-0.5597-0.074738-0.766-0.075628-1.1223-9.174e-4 -0.3865 0.00404-0.9556 0.043924-1.1028 0.1498588-0.5536 0.2639111-0.873 0.794414-1.0108 0.153555-0.04 0.2526244-0.046 0.9732728-0.06 0.4486061-0.01 0.8476629-0.026 0.9051759-0.039 0.3108235-0.07 0.5371193-0.187 0.7480123-0.3875 0.200888-0.191 0.338375-0.3858 0.600587-0.851 0.408175-0.7181 1.213399-0.711 1.870951-0.7376 0.186425 0.039 0.248408 0.065 0.452588 0.1821 0.205495 0.1184 0.263612 0.165 0.442302 0.3548 0.449674 0.4777 0.664341 0.7725 1.672904 2.2962 0.799367 1.208 1.043608 1.5944 1.365827 2.1612 0.351012 0.6175 0.983786 1.6081 1.218366 1.9074 0.03975 0.051 0.283124 0.359 0.540827 0.6849 0.257714 0.3262 0.493395 0.6313 0.523746 0.6782 0.483963 0.6734 0.82371 1.4471 0.944566 2.2204 0.04062 0.2694 0.04204 0.315 0.0193 0.6235-0.02884 0.3916-0.05391 0.559-0.09647 0.6445-0.01708 0.034-0.05461 0.1279-0.08339 0.2078-0.370032 1.0283-1.292374 1.7998-2.360919 1.975-0.227227 0.037-0.677811 0.037-0.918758 0z" style="opacity:.2"/>
  <path d="m16.525707 1049.3336c-0.421851-0.067-0.794886-0.1923-1.612234-0.5441-1.216896-0.5239-1.784338-0.6938-4.01158-1.2008-1.1109592-0.2528-1.5249948-0.3652-2.4892369-0.6763-0.350756-0.1131-0.8182592-0.2575-1.0388955-0.3208-0.5989465-0.1719-0.7577379-0.2387-0.9771806-0.4111-0.29936-0.2351-0.4388718-0.5978-0.3853659-1.0017 0.034282-0.2589 0.1248833-0.5077 0.3749637-1.0296 0.3342404-0.6977 0.6044266-0.9487 0.6553392-1.6353 0.029953-0.404 0.0054-0.8584-0.097406-1.8044-0.060841-0.5597-0.074738-0.766-0.075628-1.1223-9.174e-4 -0.3865 0.00404-0.9556 0.043924-1.1028 0.1498588-0.5536 0.2639111-0.873 0.794414-1.0108 0.153555-0.04 0.2526244-0.046 0.9732728-0.06 0.4486061-0.01 0.8476629-0.026 0.9051759-0.039 0.3108235-0.07 0.5371193-0.187 0.7480123-0.3875 0.200888-0.191 0.338375-0.3858 0.600587-0.851 0.408175-0.7181 1.213399-0.711 1.870951-0.7376 0.186425 0.039 0.248408 0.065 0.452588 0.1821 0.205495 0.1184 0.263612 0.165 0.442302 0.3548 0.449674 0.4777 0.664341 0.7725 1.672904 2.2962 0.799367 1.208 1.043608 1.5944 1.365827 2.1612 0.351012 0.6175 0.983786 1.6081 1.218366 1.9074 0.03975 0.051 0.283124 0.359 0.540827 0.6849 0.257714 0.3262 0.493395 0.6313 0.523746 0.6782 0.483963 0.6734 0.82371 1.4471 0.944566 2.2204 0.04062 0.2694 0.04204 0.315 0.0193 0.6235-0.02884 0.3916-0.05391 0.559-0.09647 0.6445-0.01708 0.034-0.05461 0.1279-0.08339 0.2078-0.370032 1.0283-1.292374 1.7998-2.360919 1.975-0.227227 0.037-0.677811 0.037-0.918758 0z" style="fill:#eab108"/>
  <path d="m34.620226 1049.8531c0.330904-0.2324 0.595279-0.4931 1.141514-1.1285 0.813205-0.9461 1.224208-1.3253 2.905751-2.6803 0.838813-0.6756 1.143647-0.9426 1.832482-1.6056 0.250603-0.2411 0.587322-0.5572 0.748309-0.7024 0.437006-0.3939 0.543782-0.5161 0.657114-0.7518 0.154648-0.3213 0.118502-0.6822-0.09972-0.9968-0.139893-0.2016-0.32348-0.3713-0.759734-0.702-0.58314-0.4422-0.749917-0.8225-1.086834-1.3739-0.198238-0.3245-0.371566-0.7139-0.688355-1.5461-0.187416-0.4924-0.263762-0.6702-0.415316-0.9678-0.164448-0.3228-0.198133-0.3783-0.295083-0.4843-0.364391-0.3992-0.768944-0.534-1.280004-0.427-0.14797 0.031-0.234941 0.067-0.855177 0.3572-0.386626 0.1793-0.733585 0.333-0.788164 0.3461-0.294796 0.072-0.537759 0.068-0.803174-0.01-0.252867-0.075-0.45333 0.02-0.875685-0.2585-0.288934-0.1892-0.599051-0.4253-0.820967-0.4866-0.308331-0.085-0.307315-0.085-0.595437-0.053-0.277353 0.034-0.481698 0.114-0.707327 0.2898-0.142223 0.1105-0.183934 0.1582-0.3079 0.3413-0.124524 0.1848-0.154138 0.248-0.225296 0.4811-0.179049 0.5866-0.235983 0.9223-0.444213 2.6154-0.164882 1.3423-0.20787 1.7667-0.24019 2.3744-0.03519 0.6619-0.151033 1.7531-0.223011 2.1009-0.01208 0.059-0.08784 0.4179-0.168159 0.7977-0.08021 0.3799-0.150643 0.733-0.156465 0.7848-0.124612 0.7643-0.08342 1.5518 0.144155 2.2475 0.08055 0.2417 0.09884 0.2804 0.250096 0.5282 0.191994 0.3147 0.28492 0.4438 0.357743 0.4972 0.02906 0.021 0.101213 0.084 0.159914 0.1386 0.754975 0.703 1.870902 0.9605 2.856527 0.6597 0.209452-0.064 0.593527-0.2528 0.783065-0.3844z" style="opacity:.2"/>
  <path d="m34.620226 1048.8531c0.330904-0.2324 0.595279-0.4931 1.141514-1.1285 0.813205-0.9461 1.224208-1.3253 2.905751-2.6803 0.838813-0.6756 1.143647-0.9426 1.832482-1.6056 0.250603-0.2411 0.587322-0.5572 0.748309-0.7024 0.437006-0.3939 0.543782-0.5161 0.657114-0.7518 0.154648-0.3213 0.118502-0.6822-0.09972-0.9968-0.139893-0.2016-0.32348-0.3713-0.759734-0.702-0.58314-0.4422-0.749917-0.8225-1.086834-1.3739-0.198238-0.3245-0.371566-0.7139-0.688355-1.5461-0.187416-0.4924-0.263762-0.6702-0.415316-0.9678-0.164448-0.3228-0.198133-0.3783-0.295083-0.4843-0.364391-0.3992-0.768944-0.534-1.280004-0.427-0.14797 0.031-0.234941 0.067-0.855177 0.3572-0.386626 0.1793-0.733585 0.333-0.788164 0.3461-0.294796 0.072-0.537759 0.068-0.803174-0.01-0.252867-0.075-0.45333 0.02-0.875685-0.2585-0.288934-0.1892-0.599051-0.4253-0.820967-0.4866-0.308331-0.085-0.307315-0.085-0.595437-0.053-0.277353 0.034-0.481698 0.114-0.707327 0.2898-0.142223 0.1105-0.183934 0.1582-0.3079 0.3413-0.124524 0.1848-0.154138 0.248-0.225296 0.4811-0.179049 0.5866-0.235983 0.9223-0.444213 2.6154-0.164882 1.3423-0.20787 1.7667-0.24019 2.3744-0.03519 0.6619-0.151033 1.7531-0.223011 2.1009-0.01208 0.059-0.08784 0.4179-0.168159 0.7977-0.08021 0.3799-0.150643 0.733-0.156465 0.7848-0.124612 0.7643-0.08342 1.5518 0.144155 2.2475 0.08055 0.2417 0.09884 0.2804 0.250096 0.5282 0.191994 0.3147 0.28492 0.4438 0.357743 0.4972 0.02906 0.021 0.101213 0.084 0.159914 0.1386 0.754975 0.703 1.870902 0.9605 2.856527 0.6597 0.209452-0.064 0.593527-0.2528 0.783065-0.3844z" style="fill:#eab108"/>
  <circle cx="21" cy="1017.362" r="3" style="opacity:.1"/>
  <circle cx="21" cy="1016.362" r="3" style="fill:#ffffff"/>
  <circle cx="21" cy="1016.362" r="1" style="fill:#323232"/>
  <circle cx="27" cy="1017.362" r="3" style="opacity:.1"/>
  <circle cx="27" cy="1016.362" r="3" style="fill:#ffffff"/>
  <path d="m28 1020.3622c0 2.7614-1.790861 5-4 5s-4-2.2386-4-5z" style="opacity:.1"/>
  <path d="m28 1019.3622c0 2.7614-1.790861 5-4 5s-4-2.2386-4-5z" style="fill:#f77d00"/>
  <circle cx="27" cy="1016.362" r="1" style="fill:#323232"/>
  <path d="m28 1019.8622c0 0.5-1.790861 3.5-4 3.5s-4-3-4-3.5c0-1.3807 1.790861-2.5 4-2.5s4 1.1193 4 2.5z" style="fill:#eab108"/>
  <path transform="translate(0,1004.3622)" d="m32.832031 31.001953c-0.074302-0.006625-0.146954 0.001578-0.291015 0.017578-0.277353 0.034-0.481403 0.113263-0.707032 0.289063-0.142223 0.1105-0.182674 0.158697-0.30664 0.341797-0.124524 0.1848-0.155405 0.247368-0.226563 0.480468-0.179049 0.5866-0.235129 0.924088-0.443359 2.617188-0.164882 1.3423-0.207914 1.765347-0.240234 2.373047-0.035191 0.6619-0.150679 1.753762-0.222657 2.101562-0.01208 0.059-0.087649 0.417075-0.167969 0.796875-0.08021 0.3799-0.152381 0.733357-0.158203 0.785157-0.07273 0.446087-0.07948 0.898862-0.035156 1.33789 0.011076-0.112677 0.016889-0.225848 0.035156-0.33789 0.005822-0.0518 0.077993-0.405257 0.158203-0.785157 0.08032-0.3798 0.155889-0.737875 0.167969-0.796875 0.071978-0.3478 0.187466-1.439662 0.222657-2.101562 0.03232-0.6077 0.075352-1.030747 0.240234-2.373047 0.20823-1.6931 0.26431-2.030588 0.443359-2.617188 0.071158-0.2331 0.102039-0.295668 0.226563-0.480468 0.123966-0.1831 0.164417-0.231297 0.30664-0.341797 0.225629-0.1758 0.429679-0.255063 0.707032-0.289063 0.288122-0.032 0.287372-0.032265 0.595703 0.052735 0.221916 0.0613 0.533331 0.297128 0.822265 0.486328 0.422355 0.2785 0.622133 0.184765 0.875 0.259765 0.265415 0.078 0.507939 0.081766 0.802735 0.009766 0.054579-0.0131 0.402436-0.166403 0.789062-0.345703 0.620236-0.2902 0.707499-0.326422 0.855469-0.357422 0.51106-0.107 0.914906 0.026581 1.279297 0.425781 0.09695 0.106 0.130474 0.161575 0.294922 0.484375 0.151554 0.2976 0.228599 0.47635 0.416015 0.96875 0.316789 0.8322 0.489262 1.220422 0.6875 1.544922 0.336917 0.5514 0.504751 0.9328 1.087891 1.375 0.436254 0.3307 0.619873 0.499572 0.759766 0.701172 0.018299 0.026381 0.027235 0.05505 0.042968 0.082031 0.015706-0.028349 0.041504-0.052503 0.056641-0.083984 0.154648-0.3213 0.118613-0.683447-0.099609-0.998047-0.139893-0.2016-0.323512-0.370472-0.759766-0.701172-0.58314-0.4422-0.750974-0.8236-1.087891-1.375-0.198238-0.3245-0.370711-0.712722-0.6875-1.544922-0.187416-0.4924-0.264461-0.67115-0.416015-0.96875-0.164448-0.3228-0.197972-0.378375-0.294922-0.484375-0.364391-0.3992-0.768237-0.532781-1.279297-0.425781-0.14797 0.031-0.235233 0.067222-0.855469 0.357422-0.386626 0.1793-0.734483 0.332603-0.789062 0.345703-0.294796 0.072-0.53732 0.068234-0.802735-0.009766-0.252867-0.075-0.452645 0.018735-0.875-0.259765-0.288934-0.1892-0.600349-0.425028-0.822265-0.486328-0.154166-0.0425-0.230385-0.063688-0.304688-0.070313z" style="fill:#ffffff;opacity:.2"/>
  <path d="m34 1039.3622c-1.656854 0-1.939151-1.3442-2-3-0.06638-1.8063 0.115905-2.8506 3-3 3.237629-1.2319 2.163923 5.9038-1 6z" style="fill:#3d7284"/>
  <path transform="translate(0,1004.3622)" d="m24 4c-3.878 0-7 3.568-7 8 0 10-6 11-6 18 0 0.18065 0.019093 0.356165 0.025391 0.535156 0.266904-6.571471 5.974609-7.768323 5.974609-17.535156 0-4.432 3.122-8 7-8s7 3.568 7 8c0 9.766833 5.707705 10.963685 5.974609 17.535156 0.006298-0.178991 0.025391-0.354506 0.025391-0.535156 0-7-6-8-6-18 0-4.432-3.122-8-7-8z" style="fill:#ffffff;opacity:.1"/>
  <path transform="translate(0,1004.3622)" d="m12.804688 31.037109c-0.657553 0.0266-1.462919 0.018228-1.871094 0.736329-0.262212 0.4652-0.398722 0.660562-0.59961 0.851562-0.210893 0.2005-0.437223 0.316719-0.7480465 0.386719-0.057513 0.013-0.4576439 0.029062-0.90625 0.039062-0.7206484 0.014-0.8191013 0.020547-0.9726563 0.060547-0.5305029 0.1378-0.645063 0.458119-0.7949218 1.011719-0.039884 0.1472-0.0438862 0.715062-0.0429688 1.101562 1.889e-4 0.075595 0.0139411 0.171383 0.015625 0.238282 0.0066655-0.138651 0.0126408-0.28558 0.0273438-0.339844 0.1498588-0.5536 0.2644189-0.873919 0.7949218-1.011719 0.153555-0.04 0.2520079-0.046547 0.9726563-0.060547 0.4486061-0.01 0.848737-0.026062 0.90625-0.039062 0.3108235-0.07 0.5371535-0.186219 0.7480465-0.386719 0.200888-0.191 0.337398-0.386362 0.59961-0.851562 0.408175-0.718101 1.213541-0.709729 1.871094-0.736329 0.186424 0.039 0.248944 0.064541 0.453124 0.181641 0.205496 0.1184 0.262717 0.163716 0.441407 0.353516 0.449674 0.4777 0.665265 0.773175 1.673828 2.296875 0.799367 1.208 1.043015 1.595309 1.365234 2.162109 0.351012 0.6175 0.98417 1.60695 1.21875 1.90625 0.03975 0.051 0.283313 0.359647 0.541016 0.685547 0.257714 0.3262 0.493086 0.630834 0.523437 0.677734 0.462688 0.643797 0.788071 1.379988 0.921875 2.119141 0.012606-0.096562 0.028693-0.10806 0.041016-0.275391 0.02274-0.3085 0.023042-0.353647-0.017578-0.623047-0.120856-0.7733-0.46135-1.547303-0.945313-2.220703-0.030351-0.0469-0.265723-0.351534-0.523437-0.677734-0.257703-0.3259-0.501266-0.634547-0.541016-0.685547-0.23458-0.2993-0.867738-1.28875-1.21875-1.90625-0.322219-0.5668-0.565867-0.954109-1.365234-2.162109-1.008563-1.5237-1.224154-1.819175-1.673828-2.296875-0.17869-0.1898-0.235911-0.235116-0.441407-0.353516-0.20418-0.1171-0.2667-0.142641-0.453124-0.181641zm-5.7792974 7.210938c-0.0699529 0.608236-0.3222903 0.878641-0.6386718 1.539062-0.2500805 0.5219-0.340718 0.770397-0.375 1.029297-0.030235 0.228235 0.0067039 0.44062 0.09375 0.626953 0.0582086-0.169271 0.1432357-0.368224 0.28125-0.65625 0.3342403-0.6977 0.6033842-0.948165 0.6542968-1.634765 0.0177538-0.239459 0.0098639-0.537553-0.015625-0.904297z" style="fill:#ffffff;opacity:.2"/>
 </g>
</svg>
