<svg width="48" height="48" version="1" xmlns="http://www.w3.org/2000/svg">
 <path d="m9 6h30v14h-30z" fill="#b7b7b7"/>
 <rect x="4" y="18" width="40" height="24" rx="2" ry="2" fill="#4f4f4f"/>
 <rect x="12" y="23" width="24" height="4" style="opacity:.4"/>
 <rect x="14" y="29" width="20" height="4" style="opacity:.4"/>
 <rect x="16" y="35" width="16" height="4" style="opacity:.4"/>
 <path d="m9 6v1h30v-1h-30z" fill="#fff" opacity=".2"/>
 <path d="m4 40v1c0 1.108 0.892 2 2 2h36c1.108 0 2-0.892 2-2v-1c0 1.108-0.892 2-2 2h-36c-1.108 0-2-0.892-2-2z" opacity=".2"/>
 <circle cx="36" cy="37" r="11" opacity=".2"/>
 <circle cx="36" cy="36" r="11" fill="#3cd240"/>
 <path d="m31.5 38 4.5 5 4.5-5h-2.5v-9h-4v9z" style="fill:#ffffff"/>
 <rect x="12" y="9" width="6" height="4" style="opacity:.5"/>
 <rect x="30" y="9" width="6" height="4" style="opacity:.5"/>
</svg>
