<svg width="48" height="48" version="1" xmlns="http://www.w3.org/2000/svg">
 <path d="m17.99082 12c-2.141948 0-4.053815 0.672266-5.368945 2h-4.021875c-3.6564 0-6.6 3.065667-6.6 6.666667v8.666666c0 3.601 2.9436 6.666667 6.6 6.666667h4.021875c1.31513 1.327701 3.226997 2 5.368945 2h12.01836c2.141948 0 4.053815-0.672266 5.368945-2h4.021875c3.6564 0 6.6-3.065667 6.6-6.666667v-8.666666c0-3.601-2.9436-6.666667-6.6-6.666667h-4.021875c-1.31513-1.327701-3.226997-2-5.368945-2z" style="opacity:.2"/>
 <path d="m17.99082 11c-2.141948 0-4.053815 0.672266-5.368945 2h-4.021875c-3.6564 0-6.6 3.065667-6.6 6.666667v8.666666c0 3.601 2.9436 6.666667 6.6 6.666667h4.021875c1.31513 1.327701 3.226997 2 5.368945 2h12.01836c2.141948 0 4.053815-0.672266 5.368945-2h4.021875c3.6564 0 6.6-3.065667 6.6-6.666667v-8.666666c0-3.601-2.9436-6.666667-6.6-6.666667h-4.021875c-1.31513-1.327701-3.226997-2-5.368945-2z" style="fill:#7f4fc8"/>
 <circle cx="42" cy="23" r="2" style="opacity:.2"/>
 <circle cx="42" cy="22" r="2" style="fill:#ffffff"/>
 <circle transform="rotate(90)" cx="25" cy="-36" r="2" style="opacity:.2"/>
 <circle transform="rotate(90)" cx="24" cy="-36" r="2" style="fill:#ffffff"/>
 <path d="m8 20c-0.554 0-1 0.446-1 1v2h-2c-0.554 0-1 0.446-1 1v2c0 0.554 0.446 1 1 1h2v2c0 0.554 0.446 1 1 1h2c0.554 0 1-0.446 1-1v-2h2c0.554 0 1-0.446 1-1v-2c0-0.554-0.446-1-1-1h-2v-2c0-0.554-0.446-1-1-1h-2z" style="opacity:.2"/>
 <path d="m8 19c-0.554 0-1 0.446-1 1v2h-2c-0.554 0-1 0.446-1 1v2c0 0.554 0.446 1 1 1h2v2c0 0.554 0.446 1 1 1h2c0.554 0 1-0.446 1-1v-2h2c0.554 0 1-0.446 1-1v-2c0-0.554-0.446-1-1-1h-2v-2c0-0.554-0.446-1-1-1h-2z" style="fill:#ffffff"/>
 <path d="m17.990234 11c-2.141948 0-4.05401 0.672266-5.36914 2h-4.0214846c-3.6564 0-6.5996094 3.065016-6.5996094 6.666016v1c0-3.601 2.9432094-6.666016 6.5996094-6.666016h4.0214846c1.31513-1.327734 3.227192-2 5.36914-2h12.019532c2.141948 0 4.05401 0.672299 5.36914 2h4.021485c3.6564 0 6.599609 3.065016 6.599609 6.666016v-1c0-3.601-2.943209-6.666016-6.599609-6.666016h-4.021485c-1.31513-1.327701-3.227192-2-5.36914-2h-12.019532z" style="fill:#ffffff;opacity:.1"/>
 <rect x="16" y="16" width="16" height="16" style="fill:#7b92ed"/>
 <circle transform="rotate(90)" cx="17" cy="-41" r="1" style="opacity:.2"/>
 <circle transform="rotate(90)" cx="16" cy="-41" r="1" style="fill:#52ff41"/>
</svg>
