<svg width="48" height="48" version="1" xmlns="http://www.w3.org/2000/svg">
 <path d="m32.023438 5.0006395a5.0005 5.0005 0 0 0 -3.478516 1.3867188l-9.310547 8.9062507-4.164063-3.240235a5.0005 5.0005 0 0 0 -5.8437495 -0.21289l-3 2a5.0005 5.0005 0 0 0 -2.2265625 4.160156v14a5.0005 5.0005 0 0 0 2.2265625 4.160156l3 2a5.0005 5.0005 0 0 0 5.8437495 -0.21289l4.164063-3.240235 9.310547 8.90625a5.0005 5.0005 0 0 0 5.423828 0.982422l7-3a5.0005 5.0005 0 0 0 3.03125 -4.595703v-24a5.0005 5.0005 0 0 0 -3.03125 -4.5957036l-7-3a5.0005 5.0005 0 0 0 -1.945312 -0.4042969z" style="opacity:.2"/>
 <path d="m32.023438 4a5.0005 5.0005 0 0 0 -3.478516 1.3867188l-9.310547 8.9062502-4.164063-3.240235a5.0005 5.0005 0 0 0 -5.8437495 -0.21289l-3 2a5.0005 5.0005 0 0 0 -2.2265625 4.160156v14a5.0005 5.0005 0 0 0 2.2265625 4.160156l3 2a5.0005 5.0005 0 0 0 5.8437495 -0.21289l4.164063-3.240235 9.310547 8.90625a5.0005 5.0005 0 0 0 5.423828 0.982422l7-3a5.0005 5.0005 0 0 0 3.03125 -4.595703v-24a5.0005 5.0005 0 0 0 -3.03125 -4.5957031l-7-3a5.0005 5.0005 0 0 0 -1.945312 -0.4042969z" style="fill:#009d3d"/>
 <path d="m32 10-12.43 11.889-7.57-5.889-3 2v14l3 2 7.57-5.889 12.43 11.889 7-3v-24l-7-3zm0 8.4453v13.109l-8.428-6.554 8.428-6.555zm-20 2.424 4.318 4.131-4.318 4.131v-8.262z" fill-rule="evenodd" opacity=".2"/>
 <g fill="#fff" fill-rule="evenodd">
  <path d="m32 9l-12.429688 11.888672-7.570312-5.888672-3 2v14l3 2 7.570312-5.888672 12.429688 11.888672 7-3v-24l-7-3zm0 8.445312v13.109376l-8.427734-6.554688 8.427734-6.554688zm-20 2.423829l4.318359 4.130859-4.318359 4.130859v-8.261718z"/>
  <path d="m32 9l-12.429688 11.888672-7.570312-5.888672-3 2v14l3 2 7.570312-5.888672 12.429688 11.888672 7-3v-24l-7-3zm0 8.445312v13.109376l-8.427734-6.554688 8.427734-6.554688zm-20 2.423829l4.318359 4.130859-4.318359 4.130859v-8.261718z" style="fill:none"/>
 </g>
 <path d="m32.023438 4a5.0005 5.0005 0 0 0 -3.478516 1.3867188l-9.310547 8.9062502-4.164063-3.240235a5.0005 5.0005 0 0 0 -5.8437495 -0.21289l-3 2a5.0005 5.0005 0 0 0 -2.2265625 4.160156v1a5.0005 5.0005 0 0 1 2.2265625 -4.160156l3-2a5.0005 5.0005 0 0 1 5.8437495 0.21289l4.164063 3.240235 9.310547-8.9062502a5.0005 5.0005 0 0 1 3.478516 -1.3867188 5.0005 5.0005 0 0 1 1.945312 0.4042969l7 3a5.0005 5.0005 0 0 1 3.03125 4.5957031v-1a5.0005 5.0005 0 0 0 -3.03125 -4.5957031l-7-3a5.0005 5.0005 0 0 0 -1.945312 -0.4042969z" style="fill:#ffffff;opacity:.1"/>
</svg>
