<svg width="48" height="48" version="1" xmlns="http://www.w3.org/2000/svg">
 <rect transform="matrix(0,-1,-1,0,0,0)" x="-44" y="-44" width="40" height="40" rx="2" ry="2" fill="#407ec2"/>
 <path d="m6 4c-1.108 0-2 0.892-2 2v1c0-1.108 0.892-2 2-2h36c1.108 0 2 0.892 2 2v-1c0-1.108-0.892-2-2-2h-36z" fill="#fff" opacity=".2"/>
 <path d="m6 45c-1.108 0-2-0.892-2-2v-1c0 1.108 0.892 2 2 2h36c1.108 0 2-0.892 2-2v1c0 1.108-0.892 2-2 2h-36z" opacity=".2"/>
 <path d="m15 15v1h18v-1z" opacity=".2"/>
 <path d="m30.6 38c1.33 0 2.4-1.07 2.4-2.4v-18.2c0-1.33-1.07-2.4-2.4-2.4h-18.2c-1.33 0-2.4 1.07-2.4 2.4v18.2c0 1.3296 1.0704 2.4 2.4 2.4zm-2.6-5h-13v-13h13z" fill="#f7870d"/>
 <path d="m35.6 33c1.33 0 2.4-1.07 2.4-2.4v-18.2c0-1.33-1.07-2.4-2.4-2.4h-18.2c-1.33 0-2.4 1.07-2.4 2.4v2.6h18v13h-13v-8h-5v10.6c0 1.3296 1.0704 2.4 2.4 2.4z" style="fill:#ffe270"/>
 <path d="m15 30.6v1c0 1.329 1.071 2.4 2.4 2.4h18.199c1.33 0 2.401-1.071 2.401-2.4v-1c0 1.329-1.071 2.4-2.4 2.4h-18.2c-1.329 0-2.4-1.071-2.4-2.4z" opacity=".2"/>
 <path d="m15 20v1h13v-1h-13zm-5 15.6v1c0 1.329 1.071 2.4 2.4 2.4h18.199c1.33 0 2.401-1.071 2.401-2.4v-1c0 1.329-1.071 2.4-2.4 2.4h-18.2c-1.329 0-2.4-1.071-2.4-2.4z" opacity=".2"/>
</svg>
