<svg width="48" height="48" version="1" xmlns="http://www.w3.org/2000/svg">
 <path d="m40.626946 9.8918945-16.439108-5.859567c-0.120749-0.043103-0.252495-0.043103-0.373244 0l-16.439108 5.859567c-0.2243278 0.079968-0.3744782 0.2943505-0.3744782 0.5348225 0 5.929893 1.5524515 12.784695 4.2594219 18.806694 2.195697 4.885317 6.144158 11.401984 12.484475 14.702797 0.08069 0.04197 0.168779 0.06295 0.256984 0.06295 0.08821 0 0.176298-0.02098 0.256984-0.06295 6.339981-3.301494 10.28833-9.818048 12.484475-14.702797 2.706859-6.022452 4.25931-12.877708 4.25931-18.806694 0-0.240472-0.15015-0.4548544-0.374478-0.5348225z" style="fill:#4f4f4f"/>
 <path d="m32.802032 17.241516-8.702824-3.222736c-0.06392-0.02371-0.13367-0.02371-0.197594 0l-8.702825 3.222736c-0.118758 0.04398-0.198248 0.161892-0.198248 0.29415 0 3.261415 0.821864 7.031526 2.254928 10.343599 1.162397 2.686902 3.252702 6.271041 6.609252 8.086473 0.04272 0.02308 0.08935 0.03462 0.136046 0.03462 0.0467 0 0.09333-0.01154 0.136047-0.03462 3.356371-1.815807 5.446617-5.399883 6.609251-8.086473 1.433005-3.312322 2.254869-7.082683 2.254869-10.343599 0-0.132258-0.07949-0.250168-0.198248-0.29415z" style="opacity:.2"/>
 <path d="m32.802032 16.240516-8.702824-3.222736c-0.06392-0.02371-0.13367-0.02371-0.197594 0l-8.702825 3.222736c-0.118758 0.04398-0.198248 0.161892-0.198248 0.29415 0 3.261415 0.821864 7.031526 2.254928 10.343599 1.162397 2.686902 3.252702 6.271041 6.609252 8.086473 0.04272 0.02308 0.08935 0.03462 0.136046 0.03462 0.0467 0 0.09333-0.01154 0.136047-0.03462 3.356371-1.815807 5.446617-5.399883 6.609251-8.086473 1.433005-3.312322 2.254869-7.082683 2.254869-10.343599 0-0.132258-0.07949-0.250168-0.198248-0.29415z" style="fill:#ffb706"/>
 <path d="m24.000834 4.0000453c-0.063 0-0.125004 0.0117-0.186007 0.0332l-16.439613 5.8594601c-0.2243084 0.079901-0.375014 0.2924026-0.375014 0.5334056 0 0.270003 0.020901 0.552005 0.027301 0.826008 0.052802-0.166001 0.1795067-0.299003 0.347713-0.359003l16.439613-5.8598602c0.121005-0.0431 0.25301-0.0431 0.374014 0l16.437613 5.8598602c0.168007 0.06 0.295011 0.193002 0.348013 0.359003 6e-3 -0.274003 0.027-0.556005 0.027-0.826008 0-0.241003-0.151005-0.4535048-0.375014-0.5334056l-16.437612-5.8594598c-0.061-0.0215-0.125004-0.0332-0.188007-0.0332z" style="fill:#ffffff;opacity:.1"/>
 <path d="m7.0275011 11.257609c-0.016401 0.053-0.027301 0.110001-0.027301 0.168002 0 5.93006 1.5529579 12.78613 4.2601589 18.808192 2.195082 4.88605 6.142229 11.402116 12.482466 14.70415 0.081 0.041 0.170006 0.062 0.258009 0.062 0.088 0 0.177007-0.021 0.25801-0.062 6.340236-3.302034 10.286383-9.8181 12.482465-14.70415 2.707101-6.022062 4.260159-12.878132 4.260159-18.808192 0-0.058-0.011-0.115001-0.027-0.168002-0.136005 5.735059-1.650061 12.231125-4.233158 17.976183-2.196082 4.88605-6.142229 11.402117-12.482465 14.70415-0.081 0.041-0.170007 0.062-0.25801 0.062-0.088 0-0.177006-0.021-0.258009-0.062-6.340238-3.302033-10.287385-9.8181-12.482467-14.70415-2.5827963-5.745058-4.0975528-12.241124-4.2328579-17.976183z" style="opacity:.2"/>
 <path d="m16.14547 14.15706 3.464101-2 16 27.712813l0.76795 5.330127-4.232051-3.330127z" style="opacity:.2"/>
 <path d="m16.14547 13.15706 3.464101-2 16 27.712813l0.76795 5.330127-4.232051-3.330127z" style="fill:#ffffff"/>
 <path d="m13.634766 2.9921875c-0.125164 0.015682-0.248779 0.057765-0.365235 0.125l-1.783203 1.0273437c-0.465821 0.2689418-0.62441 0.860351-0.355469 1.3261719l3.015625 5.2207029-2.625 1.515625c-0.465821 0.268942-0.62441 0.860351-0.355468 1.326172l1.029296 1.783203c0.268942 0.465821 0.860351 0.624411 1.326172 0.355469l8.710938-5.029297c0.465821-0.268942 0.62441-0.8603508 0.355469-1.3261718l-1.029297-1.7832031c-0.268942-0.4658209-0.860351-0.6244106-1.326172-0.3554687l-2.623047 1.5136718-3.013672-5.2207031c-0.201706-0.3493657-0.585446-0.5255624-0.960937-0.4785156z" style="opacity:.2"/>
 <path d="m13.634766 1.9921875c-0.125164 0.015682-0.248779 0.057765-0.365235 0.125l-1.783203 1.0273437c-0.465821 0.2689418-0.62441 0.860351-0.355469 1.3261719l3.015625 5.2207031-2.625 1.5156248c-0.465821 0.268942-0.62441 0.860351-0.355468 1.326172l1.029296 1.783203c0.268942 0.465821 0.860351 0.624411 1.326172 0.355469l8.710938-5.0292969c0.465821-0.2689418 0.62441-0.8603509 0.355469-1.3261719l-1.029297-1.7832031c-0.268942-0.4658209-0.860351-0.6244106-1.326172-0.3554687l-2.623047 1.5136718-3.013672-5.2207031c-0.201706-0.3493657-0.585446-0.5255624-0.960937-0.4785156z" style="fill:#3f3f3f"/>
 <path d="m31.732051 14.15706-3.464101-2-16 27.712813l-0.76795 5.330127 4.232051-3.330127z" style="opacity:.2"/>
 <path d="m31.732051 13.15706-3.464101-2-16 27.712813l-0.76795 5.330127 4.232051-3.330127z" style="fill:#ffffff"/>
 <path d="m34.242755 2.9921875c0.125164 0.015682 0.248779 0.057765 0.365235 0.125l1.783203 1.0273437c0.465821 0.2689418 0.62441 0.860351 0.355469 1.3261719l-3.015625 5.2207029 2.625 1.515625c0.465821 0.268942 0.62441 0.860351 0.355468 1.326172l-1.029296 1.783203c-0.268942 0.465821-0.860351 0.624411-1.326172 0.355469l-8.710938-5.029297c-0.465821-0.268942-0.62441-0.8603508-0.355469-1.3261718l1.029297-1.7832031c0.268942-0.4658209 0.860351-0.6244106 1.326172-0.3554687l2.623047 1.5136718 3.013672-5.2207031c0.201706-0.3493657 0.585446-0.5255624 0.960937-0.4785156z" style="opacity:.2"/>
 <path d="m34.242755 1.9921875c0.125164 0.015682 0.248779 0.057765 0.365235 0.125l1.783203 1.0273437c0.465821 0.2689418 0.62441 0.860351 0.355469 1.3261719l-3.015625 5.2207031 2.625 1.5156248c0.465821 0.268942 0.62441 0.860351 0.355468 1.326172l-1.029296 1.783203c-0.268942 0.465821-0.860351 0.624411-1.326172 0.355469l-8.710938-5.0292969c-0.465821-0.2689418-0.62441-0.8603509-0.355469-1.3261719l1.029297-1.7832031c0.268942-0.4658209 0.860351-0.6244106 1.326172-0.3554687l2.623047 1.5136718 3.013672-5.2207031c0.201706-0.3493657 0.585446-0.5255624 0.960937-0.4785156z" style="fill:#3f3f3f"/>
</svg>
