<svg width="48" height="48" version="1.1" viewBox="0 0 48 48" xmlns="http://www.w3.org/2000/svg">
 <rect x="4" y="5" width="40" height="40" rx="3" ry="3" style="opacity:.2"/>
 <rect x="4" y="4" width="40" height="40" rx="3" ry="3" style="fill:#ab47bc"/>
 <path d="m7 4c-1.662 0-3 1.338-3 3v1c0-1.662 1.338-3 3-3h34c1.662 0 3 1.338 3 3v-1c0-1.662-1.338-3-3-3z" style="fill:#ffffff;opacity:.2"/>
 <path d="m11 15c9 0 5 9 13 9s4-9 13-9" style="fill:none;stroke-linecap:round;stroke-width:2;stroke:#ffffff"/>
 <path d="m11 33c9 0 5-9 13-9s4 9 13 9" style="fill:none;stroke-linecap:round;stroke-width:2;stroke:#ffffff"/>
</svg>
