<svg width="48" height="48" version="1.0" xmlns="http://www.w3.org/2000/svg">
 <text x="877.22626" y="10.812601" font-family="'Bitstream Vera Sans'" font-size="12.666px" opacity=".8" xml:space="preserve"><tspan x="877.22626" y="10.812601"/></text>
 <text x="901.18719" y="-29.929106" font-family="'Bitstream Vera Sans'" font-size="12.666px" opacity=".8" xml:space="preserve"><tspan x="901.18719" y="-29.929106"/></text>
 <text x="-569.37115" y="-60.007248" font-family="'Bitstream Vera Sans'" font-size="12.666px" opacity=".8" xml:space="preserve"><tspan x="-569.37115" y="-60.007248"/></text>
 <text x="-2393.0571" y="685.5462" font-family="'Bitstream Vera Sans'" font-size="12.666px" opacity=".8" xml:space="preserve"><tspan x="-2393.0571" y="685.5462"/></text>
 <text x="-454.88007" y="-445.32822" font-family="'Bitstream Vera Sans'" font-size="12.666px" opacity=".8" xml:space="preserve"><tspan x="-454.88007" y="-445.32822"/></text>
 <text x="352.72208" y="-858.79834" font-family="'Bitstream Vera Sans'" font-size="12.666px" opacity=".8" xml:space="preserve"><tspan x="352.72208" y="-858.79834"/></text>
 <text x="376.68301" y="-899.54004" font-family="'Bitstream Vera Sans'" font-size="12.666px" opacity=".8" xml:space="preserve"><tspan x="376.68301" y="-899.54004"/></text>
 <text x="-1114.7802" y="-906.74994" font-family="'Bitstream Vera Sans'" font-size="12.666px" opacity=".8" xml:space="preserve"><tspan x="-1114.7802" y="-906.74994"/></text>
 <text x="345.7626" y="-1179.9841" font-family="'Bitstream Vera Sans'" font-size="12.666px" opacity=".8" xml:space="preserve"><tspan x="345.7626" y="-1179.9841"/></text>
 <text x="1831.8861" y="-553.29272" font-family="'Bitstream Vera Sans'" font-size="12.666px" opacity=".8" xml:space="preserve"><tspan x="1831.8861" y="-553.29272"/></text>
 <text x="1855.8469" y="-594.03448" font-family="'Bitstream Vera Sans'" font-size="12.666px" opacity=".8" xml:space="preserve"><tspan x="1855.8469" y="-594.03448"/></text>
 <text x="364.38376" y="-601.24438" font-family="'Bitstream Vera Sans'" font-size="12.666px" opacity=".8" xml:space="preserve"><tspan x="364.38376" y="-601.24438"/></text>
 <text x="1824.9266" y="-874.47839" font-family="'Bitstream Vera Sans'" font-size="12.666px" opacity=".8" xml:space="preserve"><tspan x="1824.9266" y="-874.47839"/></text>
 <text x="-573.43256" y="-649.33569" font-family="'Bitstream Vera Sans'" font-size="12.666px" opacity=".8" xml:space="preserve"><tspan x="-573.43256" y="-649.33569"/></text>
 <text x="-2397.1182" y="96.217857" font-family="'Bitstream Vera Sans'" font-size="12.666px" opacity=".8" xml:space="preserve"><tspan x="-2397.1182" y="96.217857"/></text>
 <text x="-682.36279" y="189.09" font-family="'Bitstream Vera Sans'" font-size="12.666px" opacity=".8" xml:space="preserve"><tspan x="-682.36279" y="189.09"/></text>
 <text x="426.66153" y="9.9078522" font-family="'Bitstream Vera Sans'" font-size="12.666px" opacity=".8" xml:space="preserve"><tspan x="426.66153" y="9.9078522"/></text>
 <text x="450.62247" y="-30.833855" font-family="'Bitstream Vera Sans'" font-size="12.666px" opacity=".8" xml:space="preserve"><tspan x="450.62247" y="-30.833855"/></text>
 <text x="-1040.8407" y="-38.043827" font-family="'Bitstream Vera Sans'" font-size="12.666px" opacity=".8" xml:space="preserve"><tspan x="-1040.8407" y="-38.043827"/></text>
 <text x="419.70206" y="-311.27789" font-family="'Bitstream Vera Sans'" font-size="12.666px" opacity=".8" xml:space="preserve"><tspan x="419.70206" y="-311.27789"/></text>
 <text x="-608.03253" y="-40.758072" font-family="'Bitstream Vera Sans'" font-size="12.666px" opacity=".8" xml:space="preserve"><tspan x="-608.03253" y="-40.758072"/></text>
 <text x="-2431.7185" y="704.79541" font-family="'Bitstream Vera Sans'" font-size="12.666px" opacity=".8" xml:space="preserve"><tspan x="-2431.7185" y="704.79541"/></text>
 <text x="-456.93948" y="-902.28857" font-family="'Bitstream Vera Sans'" font-size="12.666px" opacity=".8" xml:space="preserve"><tspan x="-456.93948" y="-902.28857"/></text>
 <text x="350.66266" y="-1315.7588" font-family="'Bitstream Vera Sans'" font-size="12.666px" opacity=".8" xml:space="preserve"><tspan x="350.66266" y="-1315.7588"/></text>
 <text x="374.62357" y="-1356.5005" font-family="'Bitstream Vera Sans'" font-size="12.666px" opacity=".8" xml:space="preserve"><tspan x="374.62357" y="-1356.5005"/></text>
 <text x="-1116.8396" y="-1363.7104" font-family="'Bitstream Vera Sans'" font-size="12.666px" opacity=".8" xml:space="preserve"><tspan x="-1116.8396" y="-1363.7104"/></text>
 <text x="343.70316" y="-1636.9446" font-family="'Bitstream Vera Sans'" font-size="12.666px" opacity=".8" xml:space="preserve"><tspan x="343.70316" y="-1636.9446"/></text>
 <text x="1829.8265" y="-1010.2533" font-family="'Bitstream Vera Sans'" font-size="12.666px" opacity=".8" xml:space="preserve"><tspan x="1829.8265" y="-1010.2533"/></text>
 <text x="1853.7874" y="-1050.9949" font-family="'Bitstream Vera Sans'" font-size="12.666px" opacity=".8" xml:space="preserve"><tspan x="1853.7874" y="-1050.9949"/></text>
 <text x="362.32431" y="-1058.2048" font-family="'Bitstream Vera Sans'" font-size="12.666px" opacity=".8" xml:space="preserve"><tspan x="362.32431" y="-1058.2048"/></text>
 <text x="1822.8671" y="-1331.439" font-family="'Bitstream Vera Sans'" font-size="12.666px" opacity=".8" xml:space="preserve"><tspan x="1822.8671" y="-1331.439"/></text>
 <text x="-575.492" y="-1106.2961" font-family="'Bitstream Vera Sans'" font-size="12.666px" opacity=".8" xml:space="preserve"><tspan x="-575.492" y="-1106.2961"/></text>
 <text x="-2399.1777" y="-360.74261" font-family="'Bitstream Vera Sans'" font-size="12.666px" opacity=".8" xml:space="preserve"><tspan x="-2399.1777" y="-360.74261"/></text>
 <text x="-684.42224" y="-267.87045" font-family="'Bitstream Vera Sans'" font-size="12.666px" opacity=".8" xml:space="preserve"><tspan x="-684.42224" y="-267.87045"/></text>
 <text x="155.5923" y="-26.956278" font-family="'Bitstream Vera Sans'" font-size="12.666px" opacity=".8" xml:space="preserve"><tspan x="155.5923" y="-26.956278"/></text>
 <text x="179.55324" y="-67.697998" font-family="'Bitstream Vera Sans'" font-size="12.666px" opacity=".8" xml:space="preserve"><tspan x="179.55324" y="-67.697998"/></text>
 <text x="-1090.2634" y="-261.72662" font-family="'Bitstream Vera Sans'" font-size="12.666px" opacity=".8" xml:space="preserve"><tspan x="-1090.2634" y="-261.72662"/></text>
 <text x="-282.66141" y="-675.19678" font-family="'Bitstream Vera Sans'" font-size="12.666px" opacity=".8" xml:space="preserve"><tspan x="-282.66141" y="-675.19678"/></text>
 <text x="-258.70047" y="-715.93848" font-family="'Bitstream Vera Sans'" font-size="12.666px" opacity=".8" xml:space="preserve"><tspan x="-258.70047" y="-715.93848"/></text>
 <text x="-1750.1636" y="-723.14838" font-family="'Bitstream Vera Sans'" font-size="12.666px" opacity=".8" xml:space="preserve"><tspan x="-1750.1636" y="-723.14838"/></text>
 <text x="-289.62085" y="-996.38251" font-family="'Bitstream Vera Sans'" font-size="12.666px" opacity=".8" xml:space="preserve"><tspan x="-289.62085" y="-996.38251"/></text>
 <text x="1196.5026" y="-369.69113" font-family="'Bitstream Vera Sans'" font-size="12.666px" opacity=".8" xml:space="preserve"><tspan x="1196.5026" y="-369.69113"/></text>
 <text x="1220.4634" y="-410.43286" font-family="'Bitstream Vera Sans'" font-size="12.666px" opacity=".8" xml:space="preserve"><tspan x="1220.4634" y="-410.43286"/></text>
 <text x="-270.99973" y="-417.64282" font-family="'Bitstream Vera Sans'" font-size="12.666px" opacity=".8" xml:space="preserve"><tspan x="-270.99973" y="-417.64282"/></text>
 <text x="1189.5431" y="-690.87689" font-family="'Bitstream Vera Sans'" font-size="12.666px" opacity=".8" xml:space="preserve"><tspan x="1189.5431" y="-690.87689"/></text>
 <text x="-1208.816" y="-465.7341" font-family="'Bitstream Vera Sans'" font-size="12.666px" opacity=".8" xml:space="preserve"><tspan x="-1208.816" y="-465.7341"/></text>
 <text x="-3032.5017" y="279.81946" font-family="'Bitstream Vera Sans'" font-size="12.666px" opacity=".8" xml:space="preserve"><tspan x="-3032.5017" y="279.81946"/></text>
 <g transform="matrix(.90475 0 0 .90475 -716.75 -676.29)">
  <text x="-664.2738" y="1159.4154" font-family="'Bitstream Vera Sans'" font-size="14px" opacity=".8" xml:space="preserve"><tspan x="-664.2738" y="1159.4154"/></text>
 </g>
 <text x="877.22626" y="18.050589" font-family="'Bitstream Vera Sans'" font-size="12.666px" opacity=".8" xml:space="preserve"><tspan x="877.22626" y="18.050589"/></text>
 <text x="901.18719" y="-22.691116" font-family="'Bitstream Vera Sans'" font-size="12.666px" opacity=".8" xml:space="preserve"><tspan x="901.18719" y="-22.691116"/></text>
 <text x="-569.37115" y="-52.76926" font-family="'Bitstream Vera Sans'" font-size="12.666px" opacity=".8" xml:space="preserve"><tspan x="-569.37115" y="-52.76926"/></text>
 <text x="-2393.0571" y="692.78418" font-family="'Bitstream Vera Sans'" font-size="12.666px" opacity=".8" xml:space="preserve"><tspan x="-2393.0571" y="692.78418"/></text>
 <text x="-454.88007" y="-438.09021" font-family="'Bitstream Vera Sans'" font-size="12.666px" opacity=".8" xml:space="preserve"><tspan x="-454.88007" y="-438.09021"/></text>
 <text x="352.72208" y="-851.5603" font-family="'Bitstream Vera Sans'" font-size="12.666px" opacity=".8" xml:space="preserve"><tspan x="352.72208" y="-851.5603"/></text>
 <text x="376.68301" y="-892.30206" font-family="'Bitstream Vera Sans'" font-size="12.666px" opacity=".8" xml:space="preserve"><tspan x="376.68301" y="-892.30206"/></text>
 <text x="-1114.7802" y="-899.51196" font-family="'Bitstream Vera Sans'" font-size="12.666px" opacity=".8" xml:space="preserve"><tspan x="-1114.7802" y="-899.51196"/></text>
 <text x="345.7626" y="-1172.7461" font-family="'Bitstream Vera Sans'" font-size="12.666px" opacity=".8" xml:space="preserve"><tspan x="345.7626" y="-1172.7461"/></text>
 <text x="1831.8861" y="-546.05475" font-family="'Bitstream Vera Sans'" font-size="12.666px" opacity=".8" xml:space="preserve"><tspan x="1831.8861" y="-546.05475"/></text>
 <text x="1855.8469" y="-586.79651" font-family="'Bitstream Vera Sans'" font-size="12.666px" opacity=".8" xml:space="preserve"><tspan x="1855.8469" y="-586.79651"/></text>
 <text x="364.38376" y="-594.00641" font-family="'Bitstream Vera Sans'" font-size="12.666px" opacity=".8" xml:space="preserve"><tspan x="364.38376" y="-594.00641"/></text>
 <text x="1824.9266" y="-867.24036" font-family="'Bitstream Vera Sans'" font-size="12.666px" opacity=".8" xml:space="preserve"><tspan x="1824.9266" y="-867.24036"/></text>
 <text x="-573.43256" y="-642.09772" font-family="'Bitstream Vera Sans'" font-size="12.666px" opacity=".8" xml:space="preserve"><tspan x="-573.43256" y="-642.09772"/></text>
 <text x="-2397.1182" y="103.45585" font-family="'Bitstream Vera Sans'" font-size="12.666px" opacity=".8" xml:space="preserve"><tspan x="-2397.1182" y="103.45585"/></text>
 <text x="-682.36279" y="196.32799" font-family="'Bitstream Vera Sans'" font-size="12.666px" opacity=".8" xml:space="preserve"><tspan x="-682.36279" y="196.32799"/></text>
 <text x="426.66153" y="17.14584" font-family="'Bitstream Vera Sans'" font-size="12.666px" opacity=".8" xml:space="preserve"><tspan x="426.66153" y="17.14584"/></text>
 <text x="450.62247" y="-23.595865" font-family="'Bitstream Vera Sans'" font-size="12.666px" opacity=".8" xml:space="preserve"><tspan x="450.62247" y="-23.595865"/></text>
 <text x="-1040.8407" y="-30.805836" font-family="'Bitstream Vera Sans'" font-size="12.666px" opacity=".8" xml:space="preserve"><tspan x="-1040.8407" y="-30.805836"/></text>
 <text x="419.70206" y="-304.03989" font-family="'Bitstream Vera Sans'" font-size="12.666px" opacity=".8" xml:space="preserve"><tspan x="419.70206" y="-304.03989"/></text>
 <text x="-608.03253" y="-33.520081" font-family="'Bitstream Vera Sans'" font-size="12.666px" opacity=".8" xml:space="preserve"><tspan x="-608.03253" y="-33.520081"/></text>
 <text x="-2431.7185" y="712.03345" font-family="'Bitstream Vera Sans'" font-size="12.666px" opacity=".8" xml:space="preserve"><tspan x="-2431.7185" y="712.03345"/></text>
 <text x="-456.93948" y="-895.0506" font-family="'Bitstream Vera Sans'" font-size="12.666px" opacity=".8" xml:space="preserve"><tspan x="-456.93948" y="-895.0506"/></text>
 <text x="350.66266" y="-1308.5208" font-family="'Bitstream Vera Sans'" font-size="12.666px" opacity=".8" xml:space="preserve"><tspan x="350.66266" y="-1308.5208"/></text>
 <text x="374.62357" y="-1349.2626" font-family="'Bitstream Vera Sans'" font-size="12.666px" opacity=".8" xml:space="preserve"><tspan x="374.62357" y="-1349.2626"/></text>
 <text x="-1116.8396" y="-1356.4724" font-family="'Bitstream Vera Sans'" font-size="12.666px" opacity=".8" xml:space="preserve"><tspan x="-1116.8396" y="-1356.4724"/></text>
 <text x="343.70316" y="-1629.7065" font-family="'Bitstream Vera Sans'" font-size="12.666px" opacity=".8" xml:space="preserve"><tspan x="343.70316" y="-1629.7065"/></text>
 <text x="1829.8265" y="-1003.0153" font-family="'Bitstream Vera Sans'" font-size="12.666px" opacity=".8" xml:space="preserve"><tspan x="1829.8265" y="-1003.0153"/></text>
 <text x="1853.7874" y="-1043.757" font-family="'Bitstream Vera Sans'" font-size="12.666px" opacity=".8" xml:space="preserve"><tspan x="1853.7874" y="-1043.757"/></text>
 <text x="362.32431" y="-1050.9668" font-family="'Bitstream Vera Sans'" font-size="12.666px" opacity=".8" xml:space="preserve"><tspan x="362.32431" y="-1050.9668"/></text>
 <text x="1822.8671" y="-1324.2009" font-family="'Bitstream Vera Sans'" font-size="12.666px" opacity=".8" xml:space="preserve"><tspan x="1822.8671" y="-1324.2009"/></text>
 <text x="-575.492" y="-1099.0581" font-family="'Bitstream Vera Sans'" font-size="12.666px" opacity=".8" xml:space="preserve"><tspan x="-575.492" y="-1099.0581"/></text>
 <text x="-2399.1777" y="-353.50461" font-family="'Bitstream Vera Sans'" font-size="12.666px" opacity=".8" xml:space="preserve"><tspan x="-2399.1777" y="-353.50461"/></text>
 <text x="-684.42224" y="-260.63245" font-family="'Bitstream Vera Sans'" font-size="12.666px" opacity=".8" xml:space="preserve"><tspan x="-684.42224" y="-260.63245"/></text>
 <text x="155.5923" y="-19.71829" font-family="'Bitstream Vera Sans'" font-size="12.666px" opacity=".8" xml:space="preserve"><tspan x="155.5923" y="-19.71829"/></text>
 <text x="179.55324" y="-60.460011" font-family="'Bitstream Vera Sans'" font-size="12.666px" opacity=".8" xml:space="preserve"><tspan x="179.55324" y="-60.460011"/></text>
 <text x="-1090.2634" y="-254.4886" font-family="'Bitstream Vera Sans'" font-size="12.666px" opacity=".8" xml:space="preserve"><tspan x="-1090.2634" y="-254.4886"/></text>
 <text x="-282.66141" y="-667.9588" font-family="'Bitstream Vera Sans'" font-size="12.666px" opacity=".8" xml:space="preserve"><tspan x="-282.66141" y="-667.9588"/></text>
 <text x="-258.70047" y="-708.7005" font-family="'Bitstream Vera Sans'" font-size="12.666px" opacity=".8" xml:space="preserve"><tspan x="-258.70047" y="-708.7005"/></text>
 <text x="-1750.1636" y="-715.91046" font-family="'Bitstream Vera Sans'" font-size="12.666px" opacity=".8" xml:space="preserve"><tspan x="-1750.1636" y="-715.91046"/></text>
 <text x="-289.62085" y="-989.14447" font-family="'Bitstream Vera Sans'" font-size="12.666px" opacity=".8" xml:space="preserve"><tspan x="-289.62085" y="-989.14447"/></text>
 <text x="1196.5026" y="-362.45316" font-family="'Bitstream Vera Sans'" font-size="12.666px" opacity=".8" xml:space="preserve"><tspan x="1196.5026" y="-362.45316"/></text>
 <text x="1220.4634" y="-403.19489" font-family="'Bitstream Vera Sans'" font-size="12.666px" opacity=".8" xml:space="preserve"><tspan x="1220.4634" y="-403.19489"/></text>
 <text x="-270.99973" y="-410.40482" font-family="'Bitstream Vera Sans'" font-size="12.666px" opacity=".8" xml:space="preserve"><tspan x="-270.99973" y="-410.40482"/></text>
 <text x="1189.5431" y="-683.63892" font-family="'Bitstream Vera Sans'" font-size="12.666px" opacity=".8" xml:space="preserve"><tspan x="1189.5431" y="-683.63892"/></text>
 <text x="-1208.816" y="-458.49609" font-family="'Bitstream Vera Sans'" font-size="12.666px" opacity=".8" xml:space="preserve"><tspan x="-1208.816" y="-458.49609"/></text>
 <text x="-3032.5017" y="287.05743" font-family="'Bitstream Vera Sans'" font-size="12.666px" opacity=".8" xml:space="preserve"><tspan x="-3032.5017" y="287.05743"/></text>
 <g transform="matrix(.90475 0 0 .90475 -716.75 -669.05)">
  <text x="-664.2738" y="1159.4154" font-family="'Bitstream Vera Sans'" font-size="14px" opacity=".8" xml:space="preserve"><tspan x="-664.2738" y="1159.4154"/></text>
 </g>
 <text x="435.90427" y="-361.22546" font-family="'Droid Sans'" font-size="12.666px" xml:space="preserve"><tspan x="435.90427" y="-361.22546"/><tspan x="435.90427" y="-345.3924"/></text>
 <text x="901.0882" y="-843.27002" font-family="'Bitstream Vera Sans'" font-size="12.666px" opacity=".8" xml:space="preserve"><tspan x="901.0882" y="-843.27002"/></text>
 <text x="-922.59778" y="-97.716553" font-family="'Bitstream Vera Sans'" font-size="12.666px" opacity=".8" xml:space="preserve"><tspan x="-922.59778" y="-97.716553"/></text>
 <text x="1628.1677" y="-1128.2659" font-family="'Bitstream Vera Sans'" font-size="12.666px" opacity=".8" xml:space="preserve"><tspan x="1628.1677" y="-1128.2659"/></text>
 <text x="1652.1285" y="-1169.0076" font-family="'Bitstream Vera Sans'" font-size="12.666px" opacity=".8" xml:space="preserve"><tspan x="1652.1285" y="-1169.0076"/></text>
 <text x="160.66542" y="-1176.2175" font-family="'Bitstream Vera Sans'" font-size="12.666px" opacity=".8" xml:space="preserve"><tspan x="160.66542" y="-1176.2175"/></text>
 <text x="1621.2083" y="-1449.4517" font-family="'Bitstream Vera Sans'" font-size="12.666px" opacity=".8" xml:space="preserve"><tspan x="1621.2083" y="-1449.4517"/></text>
 <rect transform="matrix(0,-1,-1,0,0,0)" x="-44" y="-44" width="40" height="40" rx="20" ry="20" fill="#02a8f3"/>
 <path d="m24.038 11c-5.9053 0-10.953 3.6737-12.99 8.8415-0.10842 0.26286-0.20364 0.5321-0.29603 0.80272-0.01814 0.05601-0.03904 0.11043-0.05648 0.16675-0.443 1.353-0.696 2.79-0.696 4.289 0 7.667 6.261 13.9 13.962 13.9 5.8496 0 10.862-3.6008 12.938-8.6903 5.41e-4 -0.0013 0.0014-0.0025 2e-3 -0.0039 0.14915-0.3505 0.275-0.71169 0.39535-1.0761 0.45047-1.364 0.70307-2.8173 0.70307-4.3296 0-7.6653-6.2626-13.9-13.962-13.9zm-1.0049 2.1697v4.6786c-1.3331-0.04682-2.6079-0.18745-3.786-0.40911 0.17695-0.41285 0.36246-0.81047 0.56479-1.173 0.93268-1.6714 2.059-2.714 3.2213-3.0965zm1.9943 0.07756c0.10479 0.01728 0.21139 0.0294 0.3155 0.04847 1.0502 0.45757 2.0595 1.4505 2.9077 2.9704 0.19858 0.35586 0.38089 0.74546 0.55505 1.1498-1.1728 0.22747-2.4465 0.37511-3.7782 0.4285v-4.5972zm-6.2497 0.95783c-0.25015 0.34771-0.49137 0.70759-0.70891 1.0974-0.28958 0.51894-0.54855 1.0811-0.78681 1.6675-0.58376-0.17046-1.1238-0.36342-1.6282-0.57198 0.91023-0.8897 1.9651-1.6283 3.1239-2.1929zm10.723 0.2986c0.5446 0.21747 0.96212 0.42034 1.3808 0.62433 0.5316 0.36927 1.0323 0.779 1.4957 1.2273-0.49827 0.21091-1.0342 0.40654-1.6126 0.57974-0.23449-0.5732-0.48751-1.1241-0.77123-1.6326-0.15492-0.27763-0.32181-0.54086-0.49273-0.79884zm4.1794 3.3505c1.2724 1.7245 2.089 3.7985 2.2747 6.0591h-3.7549c-0.07331-1.8155-0.34687-3.5327-0.78876-5.0936 0.79638-0.24303 1.5443-0.52189 2.228-0.83955 0.01852-0.04329 0.02899-0.08449 0.0409-0.12603zm-19.382 0.13185c0.71581 0.3316 1.5046 0.6188 2.3429 0.86864-0.43613 1.5517-0.70626 3.2566-0.77902 5.0587h-3.7412c0.18105-2.203 0.96025-4.2292 2.1774-5.9273zm15.177 1.3243c0.39681 1.3904 0.65384 2.9469 0.72838 4.603h-5.1766v-4.0834c1.5669-0.05722 3.064-0.23341 4.4482-0.51963zm-10.897 0.02908c1.3875 0.27872 2.8869 0.44505 4.4541 0.49442v4.0795h-5.1746c0.07403-1.6448 0.3284-3.1908 0.7206-4.5739zm-6.4581 6.5594h3.7412c0.07476 1.8516 0.35663 3.6027 0.81408 5.1886-0.81939 0.24261-1.5884 0.52322-2.2923 0.84343-1.2636-1.7185-2.076-3.7826-2.2631-6.032zm5.7375 0h5.1746v4.2191c-1.5539 0.0488-3.0414 0.21214-4.419 0.48667-0.41328-1.4161-0.6793-3.0093-0.75565-4.7058zm7.1689 0h5.1766c-0.07686 1.7078-0.34545 3.3117-0.76344 4.7349-1.3744-0.28197-2.8594-0.45525-4.4132-0.51188v-4.223zm7.1728 0h3.7549c-0.18924 2.2758-1.0187 4.3618-2.3078 6.0921-0.0037-0.0061-0.0039-0.01334-0.0078-0.01939-0.69354-0.32222-1.4538-0.60388-2.2631-0.84925 0.46332-1.5949 0.74852-3.3585 0.82382-5.2235zm-9.1671 6.2046v4.5371c-1.1617-0.38308-2.2888-1.4217-3.2213-3.0926-0.18163-0.32548-0.34894-0.67878-0.51026-1.0451 1.1631-0.21596 2.4189-0.35321 3.7315-0.39942zm1.9943 0.0039c1.3124 0.05215 2.5669 0.19492 3.7257 0.41687-0.15872 0.35879-0.32422 0.70432-0.50247 1.0238-0.9328 1.6716-2.0604 2.7099-3.2232 3.0926v-4.5332zm-7.6928 0.85894c0.22485 0.54063 0.46521 1.0632 0.73423 1.5453 0.21151 0.37903 0.44331 0.73284 0.68554 1.0722-1.1008-0.53939-2.1046-1.2381-2.9817-2.0727 0.48839-0.19652 1.0024-0.38324 1.5619-0.54484zm13.38 0.0349c0.55357 0.16405 1.063 0.35193 1.5444 0.55066-0.87127 0.8207-1.8652 1.5082-2.9544 2.0397 0.2432-0.34281 0.47651-0.69842 0.68943-1.08 0.26327-0.47179 0.49958-0.98249 0.72059-1.5104z" fill-rule="evenodd" opacity=".2"/>
 <path d="m24.037109 10c-5.9053 0-10.951281 3.673997-12.988281 8.841797-0.10842 0.26286-0.204485 0.532114-0.296875 0.802734-0.01814 0.05601-0.0392 0.109696-0.056641 0.166016-0.442999 1.353-0.695312 2.790062-0.695312 4.289062 0 7.667 6.259938 13.900391 13.960938 13.900391 5.849599 0 10.863453-3.599953 12.939453-8.689453 5.41e-4 -0.0013 0.001353-0.002506 0.001953-0.003906 0.14915-0.3505 0.274181-0.711762 0.394531-1.076172 0.45047-1.364 0.703125-2.817778 0.703125-4.330078 0-7.6653-6.263491-13.900391-13.962891-13.900391zm-1.003906 2.169922v4.677734c-1.3331-0.04682-2.607056-0.186543-3.785156-0.408203 0.17695-0.41285 0.362123-0.811298 0.564453-1.173828 0.93268-1.6714 2.058403-2.713203 3.220703-3.095703zm1.994141 0.078125c0.10479 0.01728 0.212296 0.027805 0.316406 0.046875 1.0502 0.45757 2.05805 1.450803 2.90625 2.970703 0.19858 0.35586 0.380528 0.746051 0.554688 1.150391-1.1728 0.22747-2.445644 0.374344-3.777344 0.427734v-4.595703zm-6.25 0.957031c-0.25015 0.34771-0.491445 0.707846-0.708985 1.097656-0.28958 0.51894-0.548849 1.081569-0.787109 1.667969-0.58376-0.17046-1.122553-0.363706-1.626953-0.572265 0.91023-0.8897 1.964247-1.62876 3.123047-2.19336zm10.722656 0.298828c0.5446 0.21747 0.962179 0.42101 1.380859 0.625 0.5316 0.36927 1.032694 0.778263 1.496094 1.226563-0.49827 0.21091-1.034881 0.406878-1.613281 0.580078-0.23449-0.5732-0.485811-1.124313-0.769531-1.632813-0.15492-0.27763-0.323221-0.540848-0.494141-0.798828zm4.179688 3.34961c1.272399 1.7245 2.08969 3.799947 2.27539 6.060546h-3.755859c-0.07331-1.8155-0.34522-3.53285-0.78711-5.09375 0.79638-0.24303 1.542863-0.522183 2.226563-0.839843 0.01852-0.04329 0.029106-0.085413 0.041016-0.126953zm-19.38086 0.132812c0.71581 0.3316 1.503497 0.619301 2.341797 0.869141-0.43613 1.5517-0.706537 3.256493-0.779297 5.058593h-3.740234c0.18105-2.202999 0.960584-4.229634 2.177734-5.927734zm5.201172 0.513672h9v0.966797c0.324155-0.053379 0.661509-0.091508 0.974609-0.15625 0.39681 1.3904 0.653976 2.947416 0.728516 4.603515h-1.703125v1.984376h1.703125c-0.07686 1.707799-0.345682 3.311175-0.763672 4.734374-0.301824-0.061921-0.627404-0.097083-0.939453-0.148437v1.015625h-9v-1.03125c-0.294137 0.047262-0.60161 0.079902-0.886719 0.136719-0.41328-1.4161-0.679509-3.010531-0.755859-4.707031h1.642578v-1.984376h-1.642578c0.07403-1.6448 0.328503-3.191118 0.720703-4.574218 0.296109 0.059482 0.616001 0.093378 0.921875 0.142578v-0.982422zm-7.380859 7.398438h3.742187c0.07476 1.8516 0.357003 3.603553 0.814453 5.189453-0.81939 0.24261-1.589068 0.52354-2.292969 0.84375-1.2636-1.7185-2.076571-3.783803-2.263671-6.033203zm20.080078 0h3.753906c-0.18924 2.2758-1.017541 4.361496-2.306641 6.091796-0.0037-0.0061-0.003912-0.013481-0.007812-0.019531-0.69354-0.32222-1.454372-0.602286-2.263672-0.847656 0.46332-1.5949 0.748919-3.359609 0.824219-5.224609zm-9.167969 6.205078v4.537109c-1.1617-0.38308-2.288203-1.420897-3.220703-3.091797-0.18163-0.32548-0.348446-0.680555-0.509766-1.046875 1.1631-0.21596 2.417869-0.352227 3.730469-0.398437zm1.996094 0.003906c1.3124 0.05215 2.565809 0.194066 3.724609 0.416016-0.15872 0.358789-0.323703 0.70591-0.501953 1.02539-0.9328 1.6716-2.059856 2.709097-3.222656 3.091797v-4.533203zm-7.69336 0.859375c0.22485 0.54063 0.465355 1.062822 0.734375 1.544922 0.21151 0.37903 0.443317 0.732905 0.685547 1.072265-1.1008-0.53939-2.105322-1.237665-2.982422-2.072265 0.48839-0.19652 1.003-0.383322 1.5625-0.544922zm13.378907 0.035156c0.55357 0.16405 1.063522 0.352051 1.544921 0.550781-0.871269 0.8207-1.865878 1.507563-2.955078 2.039063 0.2432-0.34281 0.476533-0.698498 0.689454-1.080078 0.263269-0.47179 0.499693-0.981856 0.720703-1.509766z" style="fill:#ffffff"/>
 <path d="m24 4c-11.08 0-20 8.92-20 20 0 0.168 0.0076 0.333 0.0117 0.5 0.2647-10.846 9.0763-19.5 19.988-19.5s19.724 8.654 19.988 19.5c4e-3 -0.167 0.012-0.332 0.012-0.5 0-11.08-8.92-20-20-20z" fill="#fff" opacity=".2"/>
 <path d="m4.0117 24.5c-0.0041 0.167-0.0117 0.332-0.0117 0.5 0 11.08 8.92 20 20 20s20-8.92 20-20c0-0.16787-0.0076-0.33314-0.01172-0.5-0.264 10.846-9.076 19.5-19.988 19.5s-19.724-8.654-19.988-19.5z" opacity=".2"/>
 <rect x="19.5" y="17.5" width="9" height="13" style="opacity:.2"/>
</svg>
