<svg width="48" height="48" version="1.1" viewBox="0 0 48 48" xmlns="http://www.w3.org/2000/svg">
 <path d="m8.914632 8.7906956c-1.6146491 0-2.914632 1.2983934-2.914632 2.9110664v22.642986c0 1.61267 1.2999829 2.911064 2.914632 2.911064h3.418702v2.362783c0 2.381402 0 2.381402 2.381324 2.381402h20.56359c2.388419 0 2.388419 0.01707 2.388419-2.372094v-2.372091h3.418701c1.61465 0 2.914632-1.298394 2.914632-2.911064v-22.642986c0-1.612673-1.299982-2.9110664-2.914632-2.9110664z" style="opacity:.2"/>
 <path d="m8.914632 7.9999996c-1.6146491 0-2.914632 1.298393-2.914632 2.9110674v22.642984c0 1.612675 1.2999829 2.911067 2.914632 2.911067h3.418702v2.362781c0 2.381403 0 2.381403 2.381324 2.381403h20.56359c2.388419 0 2.388419 0.01707 2.388419-2.372092v-2.372092h3.418701c1.61465 0 2.914632-1.298392 2.914632-2.911067v-22.642984c0-1.6126744-1.299982-2.9110674-2.914632-2.9110674z" style="fill:#69797e"/>
 <g transform="matrix(.79166147 0 0 .80258252 -.0602435 .27391701)">
  <path transform="matrix(1.2631662 0 0 1.2459778 .07609755 -.34129451)" d="m11.869141 9.9042969c-1.345532 0-2.4296879 1.0987971-2.4296879 2.4628911v19.152343c0 1.364094 1.0841559 2.462891 2.4296879 2.462891h26.808593c1.345532 0 2.427735-1.098797 2.427735-2.462891v-19.152343c0-1.364094-1.082203-2.4628911-2.427735-2.4628911h-26.808593z" style="opacity:.5"/>
  <path d="M 15.068359,12 C 13.368729,12 12,13.368729 12,15.068359 v 1 C 12,14.368729 13.368729,13 15.068359,13 H 48.931641 C 50.631271,13 52,14.368729 52,16.068359 v -1 C 52,13.368729 50.631271,12 48.931641,12 Z" style="fill:#1b1b1b;opacity:.2"/>
  <path d="m48.93164 43c1.69963 0 3.068359-1.368729 3.068359-3.068359v-1c0 1.69963-1.368729 3.068359-3.068359 3.068359h-33.863281c-1.69963 0-3.068359-1.368729-3.068359-3.068359v1c0 1.69963 1.368729 3.068359 3.068359 3.068359z" style="fill:#ffffff;opacity:.2"/>
  <path transform="matrix(1.4210526,0,0,1.4,-2.2631579,-1.6000021)" d="m12.851562 14.714844 4.103516 12.857422h1.894531l4.064453-12.857422h-1.662109l-2.050781 6.9375c-0.449345 1.528745-0.761587 2.74476-1.230469 4.253906h-0.07813c-0.488418-1.509146-0.781118-2.725161-1.25-4.253906l-2.052734-6.9375zm11.832032 0v12.857422h1.464844v-7.076172c0-1.13676-0.117166-2.665975-0.195313-3.802735h0.07813l1.015625 2.919922 2.423828 6.664063h1.074219l2.421875-6.664063 1.015625-2.919922h0.07813c-0.07815 1.13676-0.214844 2.665975-0.214844 3.802735v7.076172h1.525391v-12.857422h-1.97461l-2.421875 6.859375c-0.312587 0.881968-0.566318 1.803578-0.878906 2.685547h-0.07813c-0.312587-0.881969-0.605381-1.803579-0.917969-2.685547l-2.46289-6.859375z" style="opacity:.2"/>
  <path transform="matrix(1.4210526,0,0,1.4,-2.2631579,-1.6000021)" d="m12.851562 14 4.103516 12.857422h1.894531l4.064453-12.857422h-1.662109l-2.050781 6.9375c-0.449345 1.528746-0.761587 2.74476-1.230469 4.253906h-0.07813c-0.488413-1.509146-0.781113-2.72516-1.249995-4.253906l-2.052734-6.9375zm11.832032 0v12.857422h1.464844v-7.076172c0-1.13676-0.117166-2.664022-0.195313-3.800781h0.07813l1.015625 2.919922 2.423828 6.664062h1.074219l2.421875-6.664062 1.015625-2.919922h0.07813c-0.07815 1.136759-0.214844 2.664021-0.214844 3.800781v7.076172h1.525391v-12.857422h-1.97461l-2.421875 6.859375c-0.312587 0.881969-0.566318 1.803578-0.878906 2.685547h-0.07813c-0.312592-0.881969-0.605386-1.803578-0.917974-2.685547l-2.46289-6.859375z" style="fill:#ffffff"/>
 </g>
 <rect x="12.333333" y="36.465115" width="25.333334" height=".79069763" rx="0" ry="0" style="opacity:.2"/>
 <circle cx="36" cy="37" r="11" opacity=".2"/>
 <circle cx="36" cy="36" r="11" style="fill:#37a0f2"/>
 <path d="m34.488 29.999-0.13345 1.5804a4.7567 4.7143 0 0 0 -1.3902 0.79689l-1.4493-0.67635-1.5135 2.5982 1.3159 0.9057a4.7567 4.7143 0 0 0 -0.07265 0.7952 4.7567 4.7143 0 0 0 0.06922 0.79855l-1.314 0.903 1.5135 2.5982 1.4459-0.67466a4.7567 4.7143 0 0 0 1.393 0.792l0.133 1.584h3.027l0.13344-1.5804a4.7567 4.7143 0 0 0 1.3902 -0.79688l1.4493 0.67634 1.5135-2.5982-1.3159-0.9057a4.7567 4.7143 0 0 0 0.0726 -0.79519 4.7567 4.7143 0 0 0 -0.0692 -0.79855l1.313-0.901-1.5135-2.5982-1.446 0.67467a4.7567 4.7143 0 0 0 -1.393 -0.792l-0.13344-1.5837h-3.027zm1.5135 4.2857a1.7297 1.7143 0 0 1 1.7297 1.7143 1.7297 1.7143 0 0 1 -1.7297 1.7143 1.7297 1.7143 0 0 1 -1.7297 -1.7143 1.7297 1.7143 0 0 1 1.7297 -1.7143z" fill="#fff"/>
</svg>
