<svg width="48" height="48" version="1.0" xmlns="http://www.w3.org/2000/svg">
 <g transform="translate(-52.273 -2.186)" display="none">
  <rect x="2" y="2" width="44" height="44" rx="9" ry="9" fill="#abe1ad"/>
 </g>
 <rect transform="matrix(0,-1,-1,0,0,0)" x="-40" y="-44" width="32" height="40" rx="2" ry="2" fill="#816130"/>
 <path d="m6 8c-1.108 0-2 0.892-2 2v1c0-1.108 0.892-2 2-2h36c1.108 0 2 0.892 2 2v-1c0-1.108-0.892-2-2-2z" fill="#fff" opacity=".1"/>
 <path d="m4 38v1c0 1.108 0.892 2 2 2h36c1.108 0 2-0.892 2-2v-1c0 1.108-0.892 2-2 2h-36c-1.108 0-2-0.892-2-2z" opacity=".2"/>
 <text x="810.50818" y="10.812601" font-family="'Bitstream Vera Sans'" font-size="12.666px" opacity=".8" xml:space="preserve"><tspan x="810.50818" y="10.812601"/></text>
 <text x="834.46912" y="-29.929106" font-family="'Bitstream Vera Sans'" font-size="12.666px" opacity=".8" xml:space="preserve"><tspan x="834.46912" y="-29.929106"/></text>
 <text x="-636.08923" y="-60.007248" font-family="'Bitstream Vera Sans'" font-size="12.666px" opacity=".8" xml:space="preserve"><tspan x="-636.08923" y="-60.007248"/></text>
 <text x="-2459.7751" y="685.5462" font-family="'Bitstream Vera Sans'" font-size="12.666px" opacity=".8" xml:space="preserve"><tspan x="-2459.7751" y="685.5462"/></text>
 <text x="-521.59814" y="-445.32822" font-family="'Bitstream Vera Sans'" font-size="12.666px" opacity=".8" xml:space="preserve"><tspan x="-521.59814" y="-445.32822"/></text>
 <text x="286.004" y="-858.79834" font-family="'Bitstream Vera Sans'" font-size="12.666px" opacity=".8" xml:space="preserve"><tspan x="286.004" y="-858.79834"/></text>
 <text x="309.96494" y="-899.54004" font-family="'Bitstream Vera Sans'" font-size="12.666px" opacity=".8" xml:space="preserve"><tspan x="309.96494" y="-899.54004"/></text>
 <text x="-1181.4982" y="-906.74994" font-family="'Bitstream Vera Sans'" font-size="12.666px" opacity=".8" xml:space="preserve"><tspan x="-1181.4982" y="-906.74994"/></text>
 <text x="279.04453" y="-1179.9841" font-family="'Bitstream Vera Sans'" font-size="12.666px" opacity=".8" xml:space="preserve"><tspan x="279.04453" y="-1179.9841"/></text>
 <text x="1765.1681" y="-553.29272" font-family="'Bitstream Vera Sans'" font-size="12.666px" opacity=".8" xml:space="preserve"><tspan x="1765.1681" y="-553.29272"/></text>
 <text x="1789.1289" y="-594.03448" font-family="'Bitstream Vera Sans'" font-size="12.666px" opacity=".8" xml:space="preserve"><tspan x="1789.1289" y="-594.03448"/></text>
 <text x="297.66568" y="-601.24438" font-family="'Bitstream Vera Sans'" font-size="12.666px" opacity=".8" xml:space="preserve"><tspan x="297.66568" y="-601.24438"/></text>
 <text x="1758.2086" y="-874.47839" font-family="'Bitstream Vera Sans'" font-size="12.666px" opacity=".8" xml:space="preserve"><tspan x="1758.2086" y="-874.47839"/></text>
 <text x="-640.15063" y="-649.33569" font-family="'Bitstream Vera Sans'" font-size="12.666px" opacity=".8" xml:space="preserve"><tspan x="-640.15063" y="-649.33569"/></text>
 <text x="-2463.8362" y="96.217857" font-family="'Bitstream Vera Sans'" font-size="12.666px" opacity=".8" xml:space="preserve"><tspan x="-2463.8362" y="96.217857"/></text>
 <text x="-749.08087" y="189.09" font-family="'Bitstream Vera Sans'" font-size="12.666px" opacity=".8" xml:space="preserve"><tspan x="-749.08087" y="189.09"/></text>
 <text x="359.94345" y="9.9078522" font-family="'Bitstream Vera Sans'" font-size="12.666px" opacity=".8" xml:space="preserve"><tspan x="359.94345" y="9.9078522"/></text>
 <text x="383.90439" y="-30.833855" font-family="'Bitstream Vera Sans'" font-size="12.666px" opacity=".8" xml:space="preserve"><tspan x="383.90439" y="-30.833855"/></text>
 <text x="-1107.5587" y="-38.043827" font-family="'Bitstream Vera Sans'" font-size="12.666px" opacity=".8" xml:space="preserve"><tspan x="-1107.5587" y="-38.043827"/></text>
 <text x="352.98398" y="-311.27789" font-family="'Bitstream Vera Sans'" font-size="12.666px" opacity=".8" xml:space="preserve"><tspan x="352.98398" y="-311.27789"/></text>
 <text x="-674.75061" y="-40.758072" font-family="'Bitstream Vera Sans'" font-size="12.666px" opacity=".8" xml:space="preserve"><tspan x="-674.75061" y="-40.758072"/></text>
 <text x="-2498.4365" y="704.79541" font-family="'Bitstream Vera Sans'" font-size="12.666px" opacity=".8" xml:space="preserve"><tspan x="-2498.4365" y="704.79541"/></text>
 <text x="-523.65753" y="-902.28857" font-family="'Bitstream Vera Sans'" font-size="12.666px" opacity=".8" xml:space="preserve"><tspan x="-523.65753" y="-902.28857"/></text>
 <text x="283.94458" y="-1315.7588" font-family="'Bitstream Vera Sans'" font-size="12.666px" opacity=".8" xml:space="preserve"><tspan x="283.94458" y="-1315.7588"/></text>
 <text x="307.90549" y="-1356.5005" font-family="'Bitstream Vera Sans'" font-size="12.666px" opacity=".8" xml:space="preserve"><tspan x="307.90549" y="-1356.5005"/></text>
 <text x="-1183.5576" y="-1363.7104" font-family="'Bitstream Vera Sans'" font-size="12.666px" opacity=".8" xml:space="preserve"><tspan x="-1183.5576" y="-1363.7104"/></text>
 <text x="276.98508" y="-1636.9446" font-family="'Bitstream Vera Sans'" font-size="12.666px" opacity=".8" xml:space="preserve"><tspan x="276.98508" y="-1636.9446"/></text>
 <text x="1763.1085" y="-1010.2533" font-family="'Bitstream Vera Sans'" font-size="12.666px" opacity=".8" xml:space="preserve"><tspan x="1763.1085" y="-1010.2533"/></text>
 <text x="1787.0693" y="-1050.9949" font-family="'Bitstream Vera Sans'" font-size="12.666px" opacity=".8" xml:space="preserve"><tspan x="1787.0693" y="-1050.9949"/></text>
 <text x="295.60623" y="-1058.2048" font-family="'Bitstream Vera Sans'" font-size="12.666px" opacity=".8" xml:space="preserve"><tspan x="295.60623" y="-1058.2048"/></text>
 <text x="1756.149" y="-1331.439" font-family="'Bitstream Vera Sans'" font-size="12.666px" opacity=".8" xml:space="preserve"><tspan x="1756.149" y="-1331.439"/></text>
 <text x="-642.21008" y="-1106.2961" font-family="'Bitstream Vera Sans'" font-size="12.666px" opacity=".8" xml:space="preserve"><tspan x="-642.21008" y="-1106.2961"/></text>
 <text x="-2465.8958" y="-360.74261" font-family="'Bitstream Vera Sans'" font-size="12.666px" opacity=".8" xml:space="preserve"><tspan x="-2465.8958" y="-360.74261"/></text>
 <text x="-751.14032" y="-267.87045" font-family="'Bitstream Vera Sans'" font-size="12.666px" opacity=".8" xml:space="preserve"><tspan x="-751.14032" y="-267.87045"/></text>
 <text x="88.874229" y="-26.956278" font-family="'Bitstream Vera Sans'" font-size="12.666px" opacity=".8" xml:space="preserve"><tspan x="88.874229" y="-26.956278"/></text>
 <text x="112.83517" y="-67.697998" font-family="'Bitstream Vera Sans'" font-size="12.666px" opacity=".8" xml:space="preserve"><tspan x="112.83517" y="-67.697998"/></text>
 <text x="-1156.9814" y="-261.72662" font-family="'Bitstream Vera Sans'" font-size="12.666px" opacity=".8" xml:space="preserve"><tspan x="-1156.9814" y="-261.72662"/></text>
 <text x="-349.37949" y="-675.19678" font-family="'Bitstream Vera Sans'" font-size="12.666px" opacity=".8" xml:space="preserve"><tspan x="-349.37949" y="-675.19678"/></text>
 <text x="-325.41855" y="-715.93848" font-family="'Bitstream Vera Sans'" font-size="12.666px" opacity=".8" xml:space="preserve"><tspan x="-325.41855" y="-715.93848"/></text>
 <text x="-1816.8816" y="-723.14838" font-family="'Bitstream Vera Sans'" font-size="12.666px" opacity=".8" xml:space="preserve"><tspan x="-1816.8816" y="-723.14838"/></text>
 <text x="-356.33893" y="-996.38251" font-family="'Bitstream Vera Sans'" font-size="12.666px" opacity=".8" xml:space="preserve"><tspan x="-356.33893" y="-996.38251"/></text>
 <text x="1129.7845" y="-369.69113" font-family="'Bitstream Vera Sans'" font-size="12.666px" opacity=".8" xml:space="preserve"><tspan x="1129.7845" y="-369.69113"/></text>
 <text x="1153.7454" y="-410.43286" font-family="'Bitstream Vera Sans'" font-size="12.666px" opacity=".8" xml:space="preserve"><tspan x="1153.7454" y="-410.43286"/></text>
 <text x="-337.7178" y="-417.64282" font-family="'Bitstream Vera Sans'" font-size="12.666px" opacity=".8" xml:space="preserve"><tspan x="-337.7178" y="-417.64282"/></text>
 <text x="1122.8251" y="-690.87689" font-family="'Bitstream Vera Sans'" font-size="12.666px" opacity=".8" xml:space="preserve"><tspan x="1122.8251" y="-690.87689"/></text>
 <text x="-1275.5341" y="-465.7341" font-family="'Bitstream Vera Sans'" font-size="12.666px" opacity=".8" xml:space="preserve"><tspan x="-1275.5341" y="-465.7341"/></text>
 <text x="-3099.2197" y="279.81946" font-family="'Bitstream Vera Sans'" font-size="12.666px" opacity=".8" xml:space="preserve"><tspan x="-3099.2197" y="279.81946"/></text>
 <g transform="matrix(.90475 0 0 .90475 -783.47 -676.29)">
  <text x="-664.2738" y="1159.4154" font-family="'Bitstream Vera Sans'" font-size="14px" opacity=".8" xml:space="preserve"><tspan x="-664.2738" y="1159.4154"/></text>
 </g>
 <text x="810.50818" y="18.050589" font-family="'Bitstream Vera Sans'" font-size="12.666px" opacity=".8" xml:space="preserve"><tspan x="810.50818" y="18.050589"/></text>
 <text x="834.46912" y="-22.691116" font-family="'Bitstream Vera Sans'" font-size="12.666px" opacity=".8" xml:space="preserve"><tspan x="834.46912" y="-22.691116"/></text>
 <text x="-636.08923" y="-52.76926" font-family="'Bitstream Vera Sans'" font-size="12.666px" opacity=".8" xml:space="preserve"><tspan x="-636.08923" y="-52.76926"/></text>
 <text x="-2459.7751" y="692.78418" font-family="'Bitstream Vera Sans'" font-size="12.666px" opacity=".8" xml:space="preserve"><tspan x="-2459.7751" y="692.78418"/></text>
 <text x="-521.59814" y="-438.09021" font-family="'Bitstream Vera Sans'" font-size="12.666px" opacity=".8" xml:space="preserve"><tspan x="-521.59814" y="-438.09021"/></text>
 <text x="286.004" y="-851.5603" font-family="'Bitstream Vera Sans'" font-size="12.666px" opacity=".8" xml:space="preserve"><tspan x="286.004" y="-851.5603"/></text>
 <text x="309.96494" y="-892.30206" font-family="'Bitstream Vera Sans'" font-size="12.666px" opacity=".8" xml:space="preserve"><tspan x="309.96494" y="-892.30206"/></text>
 <text x="-1181.4982" y="-899.51196" font-family="'Bitstream Vera Sans'" font-size="12.666px" opacity=".8" xml:space="preserve"><tspan x="-1181.4982" y="-899.51196"/></text>
 <text x="279.04453" y="-1172.7461" font-family="'Bitstream Vera Sans'" font-size="12.666px" opacity=".8" xml:space="preserve"><tspan x="279.04453" y="-1172.7461"/></text>
 <text x="1765.1681" y="-546.05475" font-family="'Bitstream Vera Sans'" font-size="12.666px" opacity=".8" xml:space="preserve"><tspan x="1765.1681" y="-546.05475"/></text>
 <text x="1789.1289" y="-586.79651" font-family="'Bitstream Vera Sans'" font-size="12.666px" opacity=".8" xml:space="preserve"><tspan x="1789.1289" y="-586.79651"/></text>
 <text x="297.66568" y="-594.00641" font-family="'Bitstream Vera Sans'" font-size="12.666px" opacity=".8" xml:space="preserve"><tspan x="297.66568" y="-594.00641"/></text>
 <text x="1758.2086" y="-867.24036" font-family="'Bitstream Vera Sans'" font-size="12.666px" opacity=".8" xml:space="preserve"><tspan x="1758.2086" y="-867.24036"/></text>
 <text x="-640.15063" y="-642.09772" font-family="'Bitstream Vera Sans'" font-size="12.666px" opacity=".8" xml:space="preserve"><tspan x="-640.15063" y="-642.09772"/></text>
 <text x="-2463.8362" y="103.45585" font-family="'Bitstream Vera Sans'" font-size="12.666px" opacity=".8" xml:space="preserve"><tspan x="-2463.8362" y="103.45585"/></text>
 <text x="-749.08087" y="196.32799" font-family="'Bitstream Vera Sans'" font-size="12.666px" opacity=".8" xml:space="preserve"><tspan x="-749.08087" y="196.32799"/></text>
 <text x="359.94345" y="17.14584" font-family="'Bitstream Vera Sans'" font-size="12.666px" opacity=".8" xml:space="preserve"><tspan x="359.94345" y="17.14584"/></text>
 <text x="383.90439" y="-23.595865" font-family="'Bitstream Vera Sans'" font-size="12.666px" opacity=".8" xml:space="preserve"><tspan x="383.90439" y="-23.595865"/></text>
 <text x="-1107.5587" y="-30.805836" font-family="'Bitstream Vera Sans'" font-size="12.666px" opacity=".8" xml:space="preserve"><tspan x="-1107.5587" y="-30.805836"/></text>
 <text x="352.98398" y="-304.03989" font-family="'Bitstream Vera Sans'" font-size="12.666px" opacity=".8" xml:space="preserve"><tspan x="352.98398" y="-304.03989"/></text>
 <text x="-674.75061" y="-33.520081" font-family="'Bitstream Vera Sans'" font-size="12.666px" opacity=".8" xml:space="preserve"><tspan x="-674.75061" y="-33.520081"/></text>
 <text x="-2498.4365" y="712.03345" font-family="'Bitstream Vera Sans'" font-size="12.666px" opacity=".8" xml:space="preserve"><tspan x="-2498.4365" y="712.03345"/></text>
 <text x="-523.65753" y="-895.0506" font-family="'Bitstream Vera Sans'" font-size="12.666px" opacity=".8" xml:space="preserve"><tspan x="-523.65753" y="-895.0506"/></text>
 <text x="283.94458" y="-1308.5208" font-family="'Bitstream Vera Sans'" font-size="12.666px" opacity=".8" xml:space="preserve"><tspan x="283.94458" y="-1308.5208"/></text>
 <text x="307.90549" y="-1349.2626" font-family="'Bitstream Vera Sans'" font-size="12.666px" opacity=".8" xml:space="preserve"><tspan x="307.90549" y="-1349.2626"/></text>
 <text x="-1183.5576" y="-1356.4724" font-family="'Bitstream Vera Sans'" font-size="12.666px" opacity=".8" xml:space="preserve"><tspan x="-1183.5576" y="-1356.4724"/></text>
 <text x="276.98508" y="-1629.7065" font-family="'Bitstream Vera Sans'" font-size="12.666px" opacity=".8" xml:space="preserve"><tspan x="276.98508" y="-1629.7065"/></text>
 <text x="1763.1085" y="-1003.0153" font-family="'Bitstream Vera Sans'" font-size="12.666px" opacity=".8" xml:space="preserve"><tspan x="1763.1085" y="-1003.0153"/></text>
 <text x="1787.0693" y="-1043.757" font-family="'Bitstream Vera Sans'" font-size="12.666px" opacity=".8" xml:space="preserve"><tspan x="1787.0693" y="-1043.757"/></text>
 <text x="295.60623" y="-1050.9668" font-family="'Bitstream Vera Sans'" font-size="12.666px" opacity=".8" xml:space="preserve"><tspan x="295.60623" y="-1050.9668"/></text>
 <text x="1756.149" y="-1324.2009" font-family="'Bitstream Vera Sans'" font-size="12.666px" opacity=".8" xml:space="preserve"><tspan x="1756.149" y="-1324.2009"/></text>
 <text x="-642.21008" y="-1099.0581" font-family="'Bitstream Vera Sans'" font-size="12.666px" opacity=".8" xml:space="preserve"><tspan x="-642.21008" y="-1099.0581"/></text>
 <text x="-2465.8958" y="-353.50461" font-family="'Bitstream Vera Sans'" font-size="12.666px" opacity=".8" xml:space="preserve"><tspan x="-2465.8958" y="-353.50461"/></text>
 <text x="-751.14032" y="-260.63245" font-family="'Bitstream Vera Sans'" font-size="12.666px" opacity=".8" xml:space="preserve"><tspan x="-751.14032" y="-260.63245"/></text>
 <text x="88.874229" y="-19.71829" font-family="'Bitstream Vera Sans'" font-size="12.666px" opacity=".8" xml:space="preserve"><tspan x="88.874229" y="-19.71829"/></text>
 <text x="112.83517" y="-60.460011" font-family="'Bitstream Vera Sans'" font-size="12.666px" opacity=".8" xml:space="preserve"><tspan x="112.83517" y="-60.460011"/></text>
 <text x="-1156.9814" y="-254.4886" font-family="'Bitstream Vera Sans'" font-size="12.666px" opacity=".8" xml:space="preserve"><tspan x="-1156.9814" y="-254.4886"/></text>
 <text x="-349.37949" y="-667.9588" font-family="'Bitstream Vera Sans'" font-size="12.666px" opacity=".8" xml:space="preserve"><tspan x="-349.37949" y="-667.9588"/></text>
 <text x="-325.41855" y="-708.7005" font-family="'Bitstream Vera Sans'" font-size="12.666px" opacity=".8" xml:space="preserve"><tspan x="-325.41855" y="-708.7005"/></text>
 <text x="-1816.8816" y="-715.91046" font-family="'Bitstream Vera Sans'" font-size="12.666px" opacity=".8" xml:space="preserve"><tspan x="-1816.8816" y="-715.91046"/></text>
 <text x="-356.33893" y="-989.14447" font-family="'Bitstream Vera Sans'" font-size="12.666px" opacity=".8" xml:space="preserve"><tspan x="-356.33893" y="-989.14447"/></text>
 <text x="1129.7845" y="-362.45316" font-family="'Bitstream Vera Sans'" font-size="12.666px" opacity=".8" xml:space="preserve"><tspan x="1129.7845" y="-362.45316"/></text>
 <text x="1153.7454" y="-403.19489" font-family="'Bitstream Vera Sans'" font-size="12.666px" opacity=".8" xml:space="preserve"><tspan x="1153.7454" y="-403.19489"/></text>
 <text x="-337.7178" y="-410.40482" font-family="'Bitstream Vera Sans'" font-size="12.666px" opacity=".8" xml:space="preserve"><tspan x="-337.7178" y="-410.40482"/></text>
 <text x="1122.8251" y="-683.63892" font-family="'Bitstream Vera Sans'" font-size="12.666px" opacity=".8" xml:space="preserve"><tspan x="1122.8251" y="-683.63892"/></text>
 <text x="-1275.5341" y="-458.49609" font-family="'Bitstream Vera Sans'" font-size="12.666px" opacity=".8" xml:space="preserve"><tspan x="-1275.5341" y="-458.49609"/></text>
 <text x="-3099.2197" y="287.05743" font-family="'Bitstream Vera Sans'" font-size="12.666px" opacity=".8" xml:space="preserve"><tspan x="-3099.2197" y="287.05743"/></text>
 <g transform="matrix(.90475 0 0 .90475 -783.47 -669.05)">
  <text x="-664.2738" y="1159.4154" font-family="'Bitstream Vera Sans'" font-size="14px" opacity=".8" xml:space="preserve"><tspan x="-664.2738" y="1159.4154"/></text>
 </g>
 <text x="369.18619" y="-361.22546" font-family="'Droid Sans'" font-size="12.666px" xml:space="preserve"><tspan x="369.18619" y="-361.22546"/><tspan x="369.18619" y="-345.3924"/></text>
 <text x="834.37012" y="-843.27002" font-family="'Bitstream Vera Sans'" font-size="12.666px" opacity=".8" xml:space="preserve"><tspan x="834.37012" y="-843.27002"/></text>
 <text x="-989.31586" y="-97.716553" font-family="'Bitstream Vera Sans'" font-size="12.666px" opacity=".8" xml:space="preserve"><tspan x="-989.31586" y="-97.716553"/></text>
 <text x="1561.4497" y="-1128.2659" font-family="'Bitstream Vera Sans'" font-size="12.666px" opacity=".8" xml:space="preserve"><tspan x="1561.4497" y="-1128.2659"/></text>
 <text x="1585.4105" y="-1169.0076" font-family="'Bitstream Vera Sans'" font-size="12.666px" opacity=".8" xml:space="preserve"><tspan x="1585.4105" y="-1169.0076"/></text>
 <text x="93.94735" y="-1176.2175" font-family="'Bitstream Vera Sans'" font-size="12.666px" opacity=".8" xml:space="preserve"><tspan x="93.94735" y="-1176.2175"/></text>
 <text x="1554.4902" y="-1449.4517" font-family="'Bitstream Vera Sans'" font-size="12.666px" opacity=".8" xml:space="preserve"><tspan x="1554.4902" y="-1449.4517"/></text>
 <g transform="translate(-1,1.0001)" opacity=".2">
  <g transform="translate(-6)">
   <path d="m24 13c2.7614 0 5 2.2387 5 5s-2.2386 5-5 5-5-2.2387-5-5 2.2386-5 5-5z"/>
   <path d="m24 27c10-5e-3 10 6.401 10 6.401v1.5989h-20v-1.5989s0-6.3957 10-6.4011z"/>
  </g>
  <path d="m34 13c2.2092 0 4 1.7909 4 4s-1.7908 4-4 4c-2.2091 0-4-1.7909-4-4s1.7909-4 4-4z"/>
  <path d="m34 23c7-3e-3 7 4.801 7 4.801v1.199h-14v-1.199s0-4.7968 7.0003-4.8008z"/>
 </g>
 <g transform="translate(-1,5e-5)" fill="#fff">
  <g transform="translate(-6)">
   <path d="m24 13c2.7614 0 5 2.2387 5 5s-2.2386 5-5 5-5-2.2387-5-5 2.2386-5 5-5z"/>
   <path d="m24 27c10-5e-3 10 6.401 10 6.401v1.5989h-20v-1.5989s0-6.3957 10-6.4011z"/>
  </g>
  <path d="m34 13c2.2092 0 4 1.7909 4 4s-1.7908 4-4 4c-2.2091 0-4-1.7909-4-4s1.7909-4 4-4z"/>
  <path d="m34 23c7-3e-3 7 4.801 7 4.801v1.199h-14v-1.199s0-4.7968 7.0003-4.8008z"/>
 </g>
</svg>
