<svg width="48" height="48" version="1" xmlns="http://www.w3.org/2000/svg">
 <rect x="4" y="25" width="40" height="20" rx="3" ry="3" style="opacity:.2"/>
 <rect transform="rotate(90)" x="4" y="-14" width="24" height="4" ry="2" style="fill:#8e8e8e"/>
 <rect x="4" y="24" width="40" height="20" rx="3" ry="3" style="fill:#4f4f4f"/>
 <circle cx="36" cy="35" r="4" style="opacity:.2"/>
 <circle cx="36" cy="34" r="4" style="fill:#c0f957"/>
 <circle cx="24" cy="35" r="4" style="opacity:.2"/>
 <circle cx="24" cy="34" r="4" style="fill:#91af5b"/>
 <path d="m7 24c-1.662 0-3 1.338-3 3v1c0-1.662 1.338-3 3-3h34c1.662 0 3 1.338 3 3v-1c0-1.662-1.338-3-3-3h-34z" style="fill:#ffffff;opacity:.1"/>
 <path d="m12 4c-1.108 0-2 0.892-2 2v1c0-1.108 0.892-2 2-2s2 0.892 2 2v-1c0-1.108-0.892-2-2-2z" style="fill:#ffffff;opacity:.1"/>
</svg>
