<svg width="48" height="48" version="1" xmlns="http://www.w3.org/2000/svg">
 <path d="m24 4h-18c-1.108 0-2 0.892-2 2v18h20z" style="fill:#cf4f8c"/>
 <path d="m24 4h18c1.108 0 2 0.892 2 2v18h-20z" style="fill:#2086e7"/>
 <path d="m24 44h-18c-1.108 0-2-0.892-2-2v-18h20z" style="fill:#2086e7"/>
 <path d="m24 44h18c1.108 0 2-0.892 2-2v-18h-20z" style="fill:#6655e4"/>
 <path d="m6 4c-1.108 0-2 0.892-2 2v1c0-1.108 0.892-2 2-2h36c1.108 0 2 0.892 2 2v-1c0-1.108-0.892-2-2-2h-36z" fill="#fff" opacity=".2"/>
 <path d="m6 45c-1.108 0-2-0.892-2-2v-1c0 1.108 0.892 2 2 2h36c1.108 0 2-0.892 2-2v1c0 1.108-0.892 2-2 2h-36z" opacity=".2"/>
 <rect x="10" y="10" width="28" height="28" style="fill:#3f3f3f"/>
 <path d="m16 32.9999h8" style="fill:none;opacity:.2;stroke-linecap:round;stroke-width:2;stroke:#000000"/>
 <path d="m16 32h8" style="fill:none;stroke-linecap:round;stroke-width:2;stroke:#ffffff"/>
 <path d="m19 24.999902v-4.000002m3-3.999999-3 3.999999m-3-3.999999 3 3.999999" style="fill:none;opacity:.2;stroke-linecap:round;stroke-width:1.9999999;stroke:#000000"/>
 <path d="M 19,24.000002 V 20 M 22,16.000001 19,20 M 16,16.000001 19,20" style="fill:none;stroke-linecap:round;stroke-width:1.9999999;stroke:#ffffff"/>
 <path d="m 25.999998,16.9999 h 3.999999 M 28,24.999902 V 16.9999" style="fill:none;opacity:.2;stroke-linecap:round;stroke-width:1.9999999;stroke:#000000"/>
 <path d="m 25.999998,16 h 3.999999 M 28,24.000002 V 16" style="fill:none;stroke-linecap:round;stroke-width:1.9999999;stroke:#ffffff"/>
</svg>
