<svg width="48" height="48" version="1.1" viewBox="0 0 48 48" xmlns="http://www.w3.org/2000/svg">
 <circle cx="24" cy="25" r="20" style="opacity:.2"/>
 <circle cx="24" cy="24" r="20" style="fill:#138de7"/>
 <path d="M 24,4 A 20,20 0 0 0 4,24 20,20 0 0 0 4.0215,24.582 20,20 0 0 1 24,5 20,20 0 0 1 43.979,24.418 20,20 0 0 0 44,24 20,20 0 0 0 24,4 Z" style="fill:#ffffff;opacity:.2"/>
 <path d="m13 18v3 8c0 1.662 1.338 3 3 3h11 3v-3-8c0-1.662-1.338-3-3-3h-11-3zm24 0-6 3.5v7l6 3.5v-7-7z" style="opacity:.2"/>
 <path d="m13 17v3 8c0 1.662 1.338 3 3 3h11 3v-3-8c0-1.662-1.338-3-3-3h-11-3zm24 0-6 3.5v7l6 3.5v-7-7z" style="fill:#ffffff"/>
</svg>
