<svg width="64" height="64" version="1.1" viewBox="0 0 64 64" xmlns="http://www.w3.org/2000/svg">
 <path d="m22.005809 10.000005c-7.610047 0-13.993578 6.384832-13.993578 13.996432 0 2.999006 1.0158378 5.787109 2.6823626 8.089736l-5.2534481 8.745818c-3.9978851 6.661036 0.7949586 15.138209 8.5624771 15.144578l35.983484 0.02343c7.430361 0.0027 12.266433-7.815996 8.947065-14.465064l-7.99633-16.00764c-2.83708-5.663639-10.157836-7.294375-15.129774-3.370233-0.934366-6.765523-6.820182-12.157057-13.802259-12.157057z" style="opacity:.2"/>
 <path d="m22.005809 9.0000043c-7.610047 0-13.993578 6.3848327-13.993578 13.996433 0 2.999006 1.0158378 5.787109 2.6823626 8.089736l-5.2534481 8.745818c-3.9978851 6.661036 0.7949586 15.138209 8.5624771 15.144578l35.983484 0.02343c7.430361 0.0027 12.266433-7.815996 8.947065-14.465064l-7.99633-16.00764c-2.83708-5.663639-10.157836-7.294375-15.129774-3.370233-0.934366-6.765523-6.820182-12.157058-13.802259-12.157058z" style="fill:#a1252b"/>
 <path class="ColorScheme-Text" d="m22 19.988282a4 4 0 0 0 -4 4 4 4 0 0 0 4 4 4 4 0 0 0 4 -4 4 4 0 0 0 -4 -4zm20 10-6 9-6-5-6 8-4-6-6 9.988282l36 0.023436z" style="fill:currentColor;opacity:.2"/>
 <path d="m22 19a4 4 0 0 0 -4 4 4 4 0 0 0 4 4 4 4 0 0 0 4 -4 4 4 0 0 0 -4 -4zm20 10-6 9-6-5-6 8-4-6-6 9.988282 36 0.02344z" style="fill:#ffffff"/>
 <path d="m22.005859 9c-7.610047 0-13.99414 6.384494-13.99414 13.996094 0 0.186455 0.015672 0.369929 0.0234374 0.554687 0.2447105-7.412209 6.5106478-13.550781 13.970703-13.550781 6.982077 0 12.868369 5.390727 13.802735 12.15625 4.971938-3.924142 12.291826-2.292545 15.128906 3.371094l7.996094 16.007812c0.669019 1.340122 0.992959 2.726357 1.044922 4.087891 0.107229-1.675282-0.211128-3.417706-1.044922-5.087891l-7.996094-16.007812c-2.83708-5.663639-10.156968-7.295236-15.128906-3.371094-0.934366-6.765523-6.820658-12.15625-13.802735-12.15625zm-11.626953 22.613281l-4.9374998 8.21875c-1.090467 1.816871-1.5077457 3.766178-1.4082031 5.644531 0.0770678-1.562421 0.5104721-3.148785 1.4082031-4.644531l5.2539058-8.746093c-0.1112-0.153645-0.211108-0.314771-0.316406-0.472657z" style="fill:#ffffff;opacity:.1"/>
</svg>
