<svg width="64" height="64" version="1" xmlns="http://www.w3.org/2000/svg">
 <path d="m17.679548 6.8842715a6.5938326 6.8438139 2.5927977 0 0 -2.555106 2.5869768l-11.235236 20.1555a6.5938326 6.8438139 2.5927977 0 0 -0.01104 6.843978l11.170632 20.117587a6.5938326 6.8438139 2.5927977 0 0 5.705331 3.411677l22.405432-0.0387a6.5938326 6.8438139 2.5927977 0 0 5.71641 -3.431629l11.234943-20.156023a6.5938326 6.8438139 2.5927977 0 0 0.0108 -6.843976l-11.170389-20.117582a6.5938326 6.8438139 2.5927977 0 0 -5.70587 -3.4120478l-22.405144 0.039217a6.5938326 6.8438139 2.5927977 0 0 -3.161803 0.8449528z" style="opacity:.2"/>
 <path d="m17.679548 5.8842633a6.5938326 6.8438139 2.5927977 0 0 -2.555106 2.5869769l-11.235236 20.1555a6.5938326 6.8438139 2.5927977 0 0 -0.01104 6.843979l11.170632 20.117587a6.5938326 6.8438139 2.5927977 0 0 5.705331 3.411677l22.405432-0.0387a6.5938326 6.8438139 2.5927977 0 0 5.71641 -3.431629l11.234943-20.156023a6.5938326 6.8438139 2.5927977 0 0 0.0108 -6.843977l-11.170389-20.117582a6.5938326 6.8438139 2.5927977 0 0 -5.70587 -3.4120477l-22.405144 0.039217a6.5938326 6.8438139 2.5927977 0 0 -3.161803 0.8449528z" style="fill:#ff4141"/>
 <path d="m18.684073 5.42744a6.5938326 6.8438139 2.5927977 0 0 -1.006047 0.4579563 6.5938326 6.8438139 2.5927977 0 0 -2.554223 2.5867589l-11.233732 20.155625a6.5938326 6.8438139 2.5927977 0 0 -0.01078 6.841589l11.168995 20.119543a6.5938326 6.8438139 2.5927977 0 0 5.704525 3.411081l22.405428-0.03886a6.5938326 6.8438139 2.5927977 0 0 4.51507 -1.867906l-28.989236-51.665787z" style="opacity:.2"/>
 <path d="m45.74752 5.5190314-28.937983 51.574198s-0.185172 0.294178-0.226562 0.358038a6.5938326 6.8438139 2.5927977 0 0 4.16983 1.548726l22.405428-0.03886a6.5938326 6.8438139 2.5927977 0 0 5.71801 -3.430507l11.233731-20.155631a6.5938326 6.8438139 2.5927977 0 0 0.0108 -6.844365l-11.169009-20.119536a6.5938326 6.8438139 2.5927977 0 0 -3.204245 -2.8920628z" style="opacity:.2"/>
 <path d="m3.0742294 33.000007a6.5938326 6.8438139 2.5927977 0 0 0.8046872 2.46875l11.167966 20.121089a6.5938326 6.8438139 2.5927977 0 0 5.707029 3.410155l22.406245-0.03906a6.5938326 6.8438139 2.5927977 0 0 5.714842 -3.429687l11.234373-20.156247a6.5938326 6.8438139 2.5927977 0 0 0.80078 -2.375h-57.835923z" style="opacity:.2"/>
 <path d="m32 20.000007c-12.375 0-22 10.111107-22 13.236974 0 4.096353 9.625 12.763019 22 12.763019s22-10.111109 22-12.763019c0-3.125867-9.625-13.236974-22-13.236974z" style="opacity:.2"/>
 <path d="m32 19.000011c-12.375 0-22 10.111107-22 13.236974 0 4.096353 9.625 12.763019 22 12.763019s22-10.111109 22-12.763019c0-3.125867-9.625-13.236974-22-13.236974z" style="fill:#ffffff"/>
 <circle cx="32" cy="32" r="11" style="fill:#1b87e6"/>
 <circle cx="32" cy="32" r="6" style="fill:#3f3f3f"/>
 <path d="m43.246094 5l-22.40625 0.0390625a6.5938326 6.8438139 2.5927977 0 0 -3.16211 0.8457031 6.5938326 6.8438139 2.5927977 0 0 -2.552734 2.5859375l-11.236328 20.15625a6.5938326 6.8438139 2.5927977 0 0 -0.8671875 3.982422 6.5938326 6.8438139 2.5927977 0 1 0.8671875 -2.982422l11.236328-20.15625a6.5938326 6.8438139 2.5927977 0 1 2.552734 -2.5859375 6.5938326 6.8438139 2.5927977 0 1 3.16211 -0.8457031l22.40625-0.0390625a6.5938326 6.8438139 2.5927977 0 1 5.705078 3.4121094l11.169922 20.117188a6.5938326 6.8438139 2.5927977 0 1 0.857422 2.861328 6.5938326 6.8438139 2.5927977 0 0 -0.857422 -3.861328l-11.169922-20.117188a6.5938326 6.8438139 2.5927977 0 0 -5.705078 -3.4121094z" style="fill:#ffffff;opacity:.2"/>
</svg>
