<svg width="64" height="64" version="1" xmlns="http://www.w3.org/2000/svg">
 <path d="m3.5938 33.356c-0.0296 0.05-0.065 0.094-0.0938 0.144 0 15.74 12.7598 28.5 28.5 28.5s28.5-12.7598 28.5-28.5c-0.03054-0.012-0.0708-0.02318-0.10156-0.03516-1.014 14.82-13.322 26.536-28.398 26.536-15.1138 0-27.446-11.774-28.406-26.644z" style="opacity:.2"/>
 <path d="M 57.5,33 A 25.5,25.5 0 0 1 32,58.5 25.5,25.5 0 0 1 6.5,33 25.5,25.5 0 0 1 32,7.5 25.5,25.5 0 0 1 57.5,33 Z" style="fill:#cddff0"/>
 <path d="M 32 7.5 A 25.5 25.5 0 0 0 6.5 33 A 25.5 25.5 0 0 0 6.5175781 33.498047 A 25.5 25.5 0 0 1 32 8.5 A 25.5 25.5 0 0 1 57.474609 33.501953 A 25.5 25.5 0 0 0 57.5 33 A 25.5 25.5 0 0 0 32 7.5 z" style="fill:#ffffff;opacity:.2"/>
 <path d="m47.754 56.176c-13.63 7.872-31.06 3.2-38.932-10.43-7.869-13.632-3.1986-31.062 10.4328-38.932 16.0612-0.0742 26.26 34.632 28.5 49.362z" style="fill:#62b4e7"/>
 <path d="m60.5 32.5c0 15.74-12.76 28.5-28.5 28.5-15.7402 0-28.5-12.76-28.5-28.5 7.967-13.9468 43.124-5.426 57 0z" style="fill:#357dc5"/>
</svg>
