<svg width="64" height="64" version="1" xmlns="http://www.w3.org/2000/svg">
 <rect transform="matrix(0,-1,-1,0,0,0)" x="-61" y="-60" width="55.999" height="55.999" rx="28" ry="28" style="opacity:.2"/>
 <rect transform="matrix(0,-1,-1,0,0,0)" x="-60" y="-60" width="55.999" height="55.999" rx="28" ry="28" style="fill:#32867d"/>
 <path d="M 32 4 C 16.488221 4 4 16.488222 4 32 C 4 32.113554 4.0112846 32.224034 4.0175781 32.335938 C 4.3691162 17.134398 16.710945 5 32 5 C 47.289054 5 59.630884 17.134398 59.982422 32.335938 C 59.988797 32.224034 60 32.113554 60 32 C 60 16.488222 47.511778 4 32 4 z" style="fill:#ffffff;opacity:.1"/>
 <path d="m26.73 14.806601-1.73 1 2.394 4.148599c-4.376 2.1142-4.394 7.0468-4.394 7.0468h18s-0.02-4.932999-4.394-7.0468l2.394-4.148599-1.73046-1-2.5898 4.484399c-0.794-0.1776-1.67-0.289-2.676-0.289-1.008 0-1.888 0.111-2.684 0.289l-2.59-4.484399zm1.274 8.195399c0.554 0 0.996 0.446 0.996 0.996s-0.448 1.004-0.996 1.004c-0.554 0-1.004-0.448-1.004-1.004 0-0.55 0.45-0.996 1.004-0.996zm8 0c0.554 0 0.996 0.446 0.996 0.996s-0.448 1.004-0.996 1.004c-0.554 0-1.004-0.448-1.004-1.004 0-0.55 0.45-0.996 1.004-0.996zm8.084 4.9974c-1.15 0-2.088 1.060001-2.088 2.366v9.261c0 1.306 0.938 2.372 2.088 2.372s1.912-1.066 1.912-2.372v-9.261c0-1.308-0.76-2.368-1.912-2.368m-21.088 2e-3l-4.9e-4 17c-1.4e-5 0.47146 0.52878 1 1.00024 1h3v3.7502c0 1.244 0.792 2.25 2 2.25 1.20038 0 2.0398-1.00718 2-2.2498v-3.75h2v3.7502c0 1.244 0.792 2.25 2 2.25 1.20038 0 2-1.02346 2-2.2498v-3.75h3c0.472 0 1-0.528 1-1v-17zm-2.912 0c-1.1506 0-2.088 1.060001-2.088 2.366v9.261c0 1.306 0.9374 2.372 2.088 2.372s1.912-1.066 1.912-2.372v-9.261c0-1.308-0.76-2.368-1.912-2.368m15.834-4.44m-16.7538 3.52" style="opacity:.2"/>
 <path d="m26.73 13.806601-1.73 1 2.394 4.148599c-4.376 2.1142-4.394 7.0468-4.394 7.0468h18s-0.02-4.932999-4.394-7.0468l2.394-4.148599-1.73046-1-2.5898 4.484399c-0.794-0.1776-1.67-0.289-2.676-0.289-1.008 0-1.888 0.111-2.684 0.289l-2.59-4.484399zm1.274 8.195399c0.554 0 0.996 0.446 0.996 0.996s-0.448 1.004-0.996 1.004c-0.554 0-1.004-0.448-1.004-1.004 0-0.55 0.45-0.996 1.004-0.996zm8 0c0.554 0 0.996 0.446 0.996 0.996s-0.448 1.004-0.996 1.004c-0.554 0-1.004-0.448-1.004-1.004 0-0.55 0.45-0.996 1.004-0.996zm8.084 4.9974c-1.15 0-2.088 1.060001-2.088 2.366v9.261c0 1.306 0.938 2.372 2.088 2.372s1.912-1.066 1.912-2.372v-9.261c0-1.308-0.76-2.368-1.912-2.368m-21.088 2e-3l-4.9e-4 17c-1.4e-5 0.47146 0.52878 1 1.00024 1h3v3.7502c0 1.244 0.792 2.25 2 2.25 1.20038 0 2.0398-1.00718 2-2.2498v-3.75h2v3.7502c0 1.244 0.792 2.25 2 2.25 1.20038 0 2-1.02346 2-2.2498v-3.75h3c0.472 0 1-0.528 1-1v-17zm-2.912 0c-1.1506 0-2.088 1.060001-2.088 2.366v9.261c0 1.306 0.9374 2.372 2.088 2.372s1.912-1.066 1.912-2.372v-9.261c0-1.308-0.76-2.368-1.912-2.368m15.834-4.44m-16.7538 3.52" style="fill:#7dff7c"/>
</svg>
