<svg width="64" height="64" version="1" xmlns="http://www.w3.org/2000/svg">
 <path d="m4.0000004 56.200069v1.999971c0 1.549978 1.2495821 2.79996 2.80076 2.79996h50.39928c1.549977 0 2.79996-1.249982 2.79996-2.79996v-1.999971c0 1.549977-1.249983 2.79996-2.79996 2.79996h-50.39928c-1.5503779 0-2.79996-1.249983-2.79996-2.79996z" style="opacity:.2"/>
 <rect transform="matrix(0,-1,-1,0,0,0)" x="-60" y="-60" width="55.999" height="55.999" rx="2.8" ry="2.8" style="fill:#4f4f4f"/>
 <path d="M 12.779297,25 C 11.239199,25 10,26.165409 10,27.611328 l 0,6.779297 C 10,35.836544 11.239199,37 12.779297,37 l 6.441406,0 C 20.760801,37 22,35.836544 22,34.390625 l 0,-6.779297 C 22,26.165409 20.760801,25 19.220703,25 l -6.441406,0 z m 18,0 C 29.239199,25 28,26.165409 28,27.611328 l 0,6.779297 C 28,35.836544 29.239199,37 30.779297,37 l 6.439453,0 C 38.758848,37 40,35.836544 40,34.390625 l 0,-6.779297 C 40,26.165409 38.758848,25 37.21875,25 l -6.439453,0 z m -18,18 C 11.239199,43 10,44.163456 10,45.609375 l 0,6.78125 C 10,53.836544 11.239199,55 12.779297,55 l 6.441406,0 C 20.760801,55 22,53.836544 22,52.390625 l 0,-6.78125 C 22,44.163456 20.760801,43 19.220703,43 l -6.441406,0 z m 18,0 C 29.239199,43 28,44.163456 28,45.609375 l 0,6.78125 C 28,53.836544 29.239199,55 30.779297,55 l 6.439453,0 C 38.758848,55 40,53.836544 40,52.390625 l 0,-6.78125 C 40,44.163456 38.758848,43 37.21875,43 l -6.439453,0 z" style="opacity:.2"/>
 <path d="m6.8007812 4c-1.5511778 0-2.8007812 1.2496034-2.8007812 2.8007812v1.0019532c0-1.5511778 1.2496034-2.8007813 2.8007812-2.8007813h50.398438c1.549977 0 2.800781 1.2496035 2.800781 2.8007813v-1.0019532c0-1.5511777-1.250804-2.8007812-2.800781-2.8007812h-50.398438z" style="fill:#ffffff;opacity:.1"/>
 <g transform="matrix(1.9999714,0,0,1.9999714,5.760572e-5,8.866e-4)" style="fill:#ed3d3d">
  <rect x="5" y="21" width="6" height="6" rx="1.39" ry="1.305" style="fill:#ed3d3d"/>
  <rect x="5" y="12" width="6" height="6" rx="1.39" ry="1.305" style="fill:#ed3d3d"/>
  <rect x="14" y="21" width="6" height="6" rx="1.39" ry="1.305" style="fill:#ed3d3d"/>
  <rect x="14" y="12" width="6" height="6" rx="1.39" ry="1.305" style="fill:#ed3d3d"/>
 </g>
</svg>
