<svg width="64" height="64" version="1" xmlns="http://www.w3.org/2000/svg">
 <path d="m4.050798 32.000828c-0.0118 0.33399-0.050799 0.661981-0.050799 0.999971 4e-7 15.511558 12.487644 27.999201 27.999201 27.999201s27.999201-12.487643 27.999201-27.999201c0-0.33767-0.03904-0.665261-0.05078-0.999971-0.527985 15.041571-12.775635 26.999229-27.949202 26.999229-15.173967 0-27.421217-11.957658-27.949202-26.999229z" style="opacity:.2"/>
 <rect transform="matrix(0,-1,-1,0,0,0)" x="-60" y="-60" width="55.998" height="55.998" rx="27.999" ry="27.999" style="fill:#0286c2"/>
 <path d="m28.845703 17c-0.326749 0.03696-0.614118 0.31486-0.673828 0.650391l-0.650391 3.425781c-1.167288 0.473886-2.264048 1.123871-3.226562 1.923828l-3.203125-1.123047c-0.332748-0.119197-0.737237 0.03482-0.916016 0.349609l-3.082031 5.548829c-0.173638 0.319191-0.09971 0.760967 0.167969 1l2.552734 2.326171c-0.08985 0.623403-0.144531 1.249057-0.144531 1.898438 0 0.649382 0.05469 1.277009 0.144531 1.900391l-2.552734 2.324218c-0.267736 0.239013-0.341602 0.680809-0.167969 1l3.082031 5.550782c0.178779 0.314731 0.583268 0.468725 0.916016 0.349609l3.203125-1.125c0.96265 0.799957 2.059274 1.451895 3.226562 1.925781l0.650391 3.423828c0.06581 0.35851 0.394533 0.645431 0.746094 0.650391h6.164062c0.35156-0.0048 0.680191-0.291881 0.746094-0.650391l0.650391-3.423828c1.167268-0.473906 2.264049-1.125824 3.226562-1.925781l3.203125 1.125c0.332747 0.119196 0.737255-0.03496 0.916016-0.349609l3.082031-5.550782c0.173612-0.319191 0.09971-0.760987-0.167969-1l-2.552734-2.324218c0.08985-0.623402 0.144531-1.251009 0.144531-1.900391 0-0.649401-0.05469-1.275056-0.144531-1.898438l2.552734-2.326171c0.267715-0.239033 0.341601-0.680809 0.167969-1l-3.082031-5.548829c-0.178781-0.31473-0.583269-0.468726-0.916016-0.349609l-3.203125 1.125c-0.963868-0.799976-2.059468-1.449842-3.226562-1.923828l-0.650391-3.425781c-0.06596-0.35851-0.396486-0.645432-0.748047-0.650391h-6.164062c-0.02404-8.16e-4 -0.04825-8.16e-4 -0.07227 0l0.001957-0.001953zm3.154297 10c3.313826 0 6 2.686209 6 6s-2.686174 6-6 6c-3.313827 0-6-2.686209-6-6s2.686173-6 6-6z" style="opacity:.2"/>
 <path d="M 32 4.0019531 C 16.488443 4.0019531 4 16.488443 4 32 C 4 32.113553 4.0112846 32.224036 4.0175781 32.335938 C 4.3691113 17.134615 16.711164 5 32 5 C 47.288836 5 59.630889 17.134615 59.982422 32.335938 C 59.988693 32.224116 60 32.113445 60 32 C 60 16.488443 47.511557 4.0019531 32 4.0019531 z" style="fill:#ffffff;opacity:.1"/>
 <path d="m28.845703 16c-0.326749 0.03696-0.614118 0.31486-0.673828 0.650391l-0.650391 3.425781c-1.167288 0.473886-2.264048 1.123871-3.226562 1.923828l-3.203125-1.123047c-0.332748-0.119197-0.737237 0.03482-0.916016 0.349609l-3.082031 5.548829c-0.173638 0.319191-0.09971 0.760967 0.167969 1l2.552734 2.326171c-0.08985 0.623403-0.144531 1.249057-0.144531 1.898438 0 0.649382 0.05469 1.277009 0.144531 1.900391l-2.552734 2.324218c-0.267736 0.239013-0.341602 0.680809-0.167969 1l3.082031 5.550782c0.178779 0.314731 0.583268 0.468725 0.916016 0.349609l3.203125-1.125c0.96265 0.799957 2.059274 1.451895 3.226562 1.925781l0.650391 3.423828c0.06581 0.35851 0.394533 0.645431 0.746094 0.650391h6.164062c0.35156-0.0048 0.680191-0.291881 0.746094-0.650391l0.650391-3.423828c1.167268-0.473906 2.264049-1.125824 3.226562-1.925781l3.203125 1.125c0.332747 0.119196 0.737255-0.03496 0.916016-0.349609l3.082031-5.550782c0.173612-0.319191 0.09971-0.760987-0.167969-1l-2.552734-2.324218c0.08985-0.623402 0.144531-1.251009 0.144531-1.900391 0-0.649401-0.05469-1.275056-0.144531-1.898438l2.552734-2.326171c0.267715-0.239033 0.341601-0.680809 0.167969-1l-3.082031-5.548829c-0.178781-0.31473-0.583269-0.468726-0.916016-0.349609l-3.203125 1.125c-0.963868-0.799976-2.059468-1.449842-3.226562-1.923828l-0.650391-3.425781c-0.06596-0.35851-0.396486-0.645432-0.748047-0.650391h-6.164062c-0.02404-8.16e-4 -0.048246-8.16e-4 -0.072266 0l0.001953-0.001953zm3.154297 10c3.313826 0 6 2.686209 6 6s-2.686174 6-6 6c-3.313827 0-6-2.686209-6-6s2.686173-6 6-6z" style="fill:#ffffff"/>
</svg>
