<svg width="64" height="64" version="1" xmlns="http://www.w3.org/2000/svg">
 <path d="m10 56v2c0 1.662 1.338 3 3 3h38c1.662 0 3-1.338 3-3v-2c0 1.662-1.338 3-3 3h-38c-1.662 0-3-1.338-3-3z" style="opacity:.2"/>
 <path d="m54 57v-50c0-1.662-1.338-3-3-3h-38c-1.662 0-3 1.338-3 3v50c0 1.662 1.338 3 3 3h38c1.662 0 3-1.338 3-3z" style="fill:#636e73"/>
 <path d="m13 4c-1.662 0-3 1.338-3 3v1c0-1.662 1.338-3 3-3h38c1.662 0 3 1.338 3 3v-1c0-1.662-1.338-3-3-3h-38z" style="fill:#ffffff;opacity:.1"/>
 <path d="M 31.884766,22 27.527344,37.3125 24.289062,29 18,29 l 0,3 4.457031,0 4.359375,11 2.033203,0 L 34.033203,25 43,25 43,22 31.884766,22 Z m 1.560546,8 4.761719,6.197266 L 33,43 35.599609,43 39.5,37.890625 43.400391,43 46,43 40.898438,36.324219 45.748047,30 43.150391,30 39.597656,34.628906 36.041016,30 33.445312,30 Z" style="opacity:.2"/>
 <path d="m31.884766 21l-4.357422 15.3125-3.238282-8.3125h-6.289062v3h4.457031l4.359375 11h2.033203l5.183594-18h8.966797v-3h-11.115234zm1.560546 8l4.761719 6.197266-5.207031 6.802734h2.599609l3.900391-5.109375 3.900391 5.109375h2.599609l-5.101562-6.675781 4.849609-6.324219h-2.597656l-3.552735 4.628906-3.55664-4.628906h-2.595704z" style="fill:#ee8a8a"/>
</svg>
