<svg width="64" height="64" version="1" xmlns="http://www.w3.org/2000/svg">
 <rect transform="matrix(0,-1,-1,0,0,0)" x="-61" y="-60" width="56" height="56" rx="3" ry="3" style="opacity:.2"/>
 <rect transform="matrix(0,-1,-1,0,0,0)" x="-60" y="-60" width="56" height="56" rx="3" ry="3" style="fill:#8bc34a"/>
 <path d="m32 25c-2.210666 0-4 1.8-4 4v8c0 2.2 1.79 4 4 4s4-1.8 4-4v-8c0-2.2-1.789334-4-4-4zm0 2c1.104 0 2 0.8 2 2 0 0.999998-0.896 2-2 2s-2-1.000002-2-2c0-1.2 0.896-2 2-2zm0 6c1.10457 0 2 0.89543 2 2v2c0 1.10457-0.89543 2-2 2s-2-0.89543-2-2v-2c0-1.10457 0.89543-2 2-2z" style="opacity:.2"/>
 <path d="m7 4c-1.662 0-3 1.338-3 3v1c0-1.662 1.338-3 3-3h50c1.662 0 3 1.338 3 3v-1c0-1.662-1.338-3-3-3h-50z" style="fill:#ffffff;opacity:.2"/>
 <path d="m30 4v20c0 1.1 0.895 2 2 2s2-0.9 2-2v-20z" style="opacity:.2"/>
 <path d="m32 4v1h1v-1zm0 1h-1v1h1zm0 1v1h1v-1zm0 1h-1v1h1zm0 1v1h1v-1zm0 1h-1v1h1zm0 1v1h1v-1zm0 1h-1v1h1zm0 1v1h1v-1zm0 1h-1v1h1zm0 1v1h1v-1zm0 1h-1v1h1zm0 1v1h1v-1zm0 1h-1z" style="opacity:.2"/>
 <path d="m31 4v1h1v-1zm0 2v1h1v-1zm0 2v1h1v-1zm0 2v1h1v-1zm0 2v1h1v-1zm0 2v1h1v-1zm0 2v1h1v-1z" style="fill:#dddddd"/>
 <path d="m31 18h1c0.04125-0.367529 0-1 0-1h-1zm1 0v1h1v-1zm0 1h-1v1h1zm0 1v1h1v-1zm0 1h-1v1h1zm0 1v1h1v-1zm0 1h-1v1h1zm0 1v1h1v-1zm0 1h-1c-0.1561 1.390912 1 1.390912 1 0z" style="opacity:.2"/>
 <path d="m31 18v1h1v-1zm0 2v1h1v-1zm0 2v1h1v-1zm0 2v1h1v-1z" style="fill:#dddddd"/>
 <path d="m32 24c-2.210666 0-4 1.8-4 4v8c0 2.2 1.79 4 4 4s4-1.8 4-4v-8c0-2.2-1.789334-4-4-4zm0 2c1.104 0 2 0.8 2 2 0 0.999998-0.896 2-2 2s-2-1.000002-2-2c0-1.2 0.896-2 2-2zm0 6c1.10457 0 2 0.89543 2 2v2c0 1.10457-0.89543 2-2 2s-2-0.89543-2-2v-2c0-1.10457 0.89543-2 2-2z" style="fill:#ffffff"/>
</svg>
