<svg width="64" height="64" version="1" xmlns="http://www.w3.org/2000/svg">
 <path d="m9.7780333 10.999472c-1.5390184 0-2.7778333 1.226615-2.7778333 2.750033v33.000396c0 1.524018 1.2388149 2.250027 2.7778333 2.250027h25.222303l6.000072 6.000072 5.00006-6.000072h8.223299c1.538018 0 2.776033-0.726009 2.776033-2.250027v-33.000396c0-1.523418-1.238015-2.750033-2.778033-2.750033z" style="opacity:.2"/>
 <path d="m9.7780333 9.999448c-1.5390184 0-2.7778333 1.226615-2.7778333 2.750033v33.000396c0 1.524018 1.2388149 2.250027 2.7778333 2.250027h25.222303l6.000072 6.000072 5.00006-6.000072h8.223299c1.538018 0 2.776033-0.726009 2.776033-2.250027v-33.000396c0-1.523418-1.238015-2.750033-2.778033-2.750033z" style="fill:#02a8f3"/>
 <path d="m9.7773438 10c-1.5390184 0-2.7773438 1.226582-2.7773438 2.75v1c0-1.523418 1.2383254-2.75 2.7773438-2.75h44.445312c1.540018 0 2.777344 1.226582 2.777344 2.75v-1c0-1.523418-1.237326-2.75-2.777344-2.75h-44.445312z" style="fill:#ffffff;opacity:.2"/>
 <path d="m31.9997 15.99952a13.000156 13.000156 0 0 0 -13.000156 13.000156 13.000156 13.000156 0 0 0 13.000156 13.000156 13.000156 13.000156 0 0 0 13.000156 -13.000156 13.000156 13.000156 0 0 0 -13.000156 -13.000156zm2.48803 2.304028a11.000132 11.000132 0 0 1 5.02806 2.692032c-0.458005 0.430005-0.940011 0.83601-1.466017 1.184014-0.940012-1.522018-2.178027-2.840034-3.644044-3.860046 0.028-6e-3 0.056-8e-3 0.082-0.016zm-4.96806 4e-3c0.024 6e-3 0.05 6e-3 0.074 0.012-1.466017 1.020012-2.704032 2.338028-3.644044 3.860046-0.528005-0.348004-1.008011-0.754009-1.466016-1.184014a11.000132 11.000132 0 0 1 5.03606 -2.688032zm1.480018 1.500018v4.142049c-1.158014-0.104001-2.266027-0.382004-3.29204-0.818009 0.844011-1.332016 1.972024-2.46003 3.29204-3.32404zm2.000024 0c1.320016 0.86401 2.448029 1.992024 3.29204 3.32404-1.026013 0.436005-2.134026 0.714008-3.29204 0.818009v-4.142049zm-9.836118 2.676032c0.578007 0.538006 1.186014 1.042012 1.856022 1.470017-0.532006 1.258016-0.86001 2.622032-0.970011 4.046049h-3.000036a11.000132 11.000132 0 0 1 2.114025 -5.516066zm17.672212 4e-3a11.000132 11.000132 0 0 1 2.110025 5.512066h-2.996036c-0.110001-1.424017-0.438005-2.788033-0.970011-4.046049 0.668008-0.428005 1.278015-0.930011 1.856022-1.466017zm-14.040168 2.418029c1.304015 0.572007 2.720032 0.924011 4.20405 1.040012v2.054025h-4.950059c0.100001-1.084013 0.356004-2.122025 0.746009-3.094037zm10.408124 0c0.390005 0.972012 0.646008 2.010024 0.746009 3.094037h-4.950059v-2.054025c1.484018-0.116001 2.900035-0.468005 4.20405-1.040012zm-16.150193 5.094061h2.996036c0.110001 1.424017 0.438005 2.788033 0.970011 4.046049-0.644007 0.412004-1.444017 0.766009-1.984024 1.290015a11.000132 11.000132 0 0 1 -1.982023 -5.336064zm4.99606 0h4.950059v2.054025c-1.484018 0.116001-2.900035 0.468005-4.20405 1.040012-0.390005-0.972012-0.646008-2.010024-0.746009-3.094037zm6.950083 0h4.950059c-0.100001 1.084013-0.356004 2.122025-0.746009 3.094037-1.304015-0.572007-2.720032-0.924011-4.20405-1.040012v-2.054025zm6.950083 0h3.000036a11.000132 11.000132 0 0 1 -2.126025 5.528066c-0.578007-0.538006-1.174014-1.054012-1.844022-1.482017 0.532006-1.258016 0.86001-2.622032 0.970011-4.046049zm-8.950107 4.050049v4.142049c-1.320016-0.86401-2.448029-1.992024-3.29204-3.32404 1.026013-0.436005 2.134026-0.714008 3.29204-0.818009zm2.000024 0c1.158014 0.104001 2.266027 0.382004 3.29204 0.818009-0.844011 1.332016-1.972024 2.46003-3.29204 3.32404v-4.142049zm-7.050085 1.770021c0.940012 1.522018 2.178027 2.840034 3.644044 3.860046-0.028 6e-3 -0.056 8e-3 -0.082 0.016a11.000132 11.000132 0 0 1 -5.01606 -2.684032c0.456005-0.432005 0.928011-0.84401 1.454017-1.192014zm12.100146 0c0.526006 0.348004 1.008012 0.754009 1.466017 1.184014a11.000132 11.000132 0 0 1 -5.03606 2.688032c-0.024-6e-3 -0.05-6e-3 -0.074-0.012 1.466017-1.020012 2.704032-2.338028 3.644044-3.860046z" style="opacity:.4"/>
</svg>
