<svg width="64" height="64" version="1.1" viewBox="0 0 64 64" xmlns="http://www.w3.org/2000/svg">
 <path d="m32.001206 33.000002c-1.724566-2.84e-4 -3.44922 0.344603-4.725434 1.031793l-19.362634 10.424265c-2.552429 1.374374-2.550058 3.714517 0.00236 5.088895l19.360256 10.424264c2.552428 1.374375 6.898444 1.374375 9.450868 0l19.360262-10.424264c2.552422-1.374372 2.550018-3.714526-0.0024-5.088895l-19.35779-10.424265c-1.276214-0.68719-3.000866-1.031514-4.725432-1.031793z" style="opacity:.2"/>
 <path d="m32.001206 32.000002c-1.724566-2.84e-4 -3.44922 0.344604-4.725434 1.031794l-19.362634 10.424264c-2.552429 1.374374-2.550058 3.714518 0.00236 5.088896l19.360256 10.424264c2.552428 1.374374 6.898444 1.374374 9.450868 0l19.360262-10.424264c2.552422-1.374372 2.550018-3.714526-0.0024-5.088896l-19.35779-10.424264c-1.276214-0.68719-3.000866-1.031514-4.725432-1.031794z" style="fill:#ea6e41"/>
 <path d="m32 32c-1.724566-2.84e-4 -3.446442 0.34406-4.722656 1.03125l-19.363282 10.425781c-1.5022891 0.808919-2.0930465 1.948203-1.8203125 3.03125 0.1823786-0.749967 0.7782586-1.470148 1.8203125-2.03125l19.363282-10.425781c1.276214-0.68719 2.99809-1.031534 4.722656-1.03125 1.724566 2.8e-4 3.450348 0.34406 4.726562 1.03125l19.359376 10.425781c1.042265 0.561213 1.63806 1.281332 1.820312 2.03125 0.272451-1.083092-0.317719-2.222171-1.820312-3.03125l-19.359376-10.425781c-1.276214-0.68719-3.001996-1.03097-4.726562-1.03125z" style="fill:#ffffff;opacity:.2"/>
 <path d="m32.001206 18.999998c-1.724566-2.81e-4 -3.44922 0.344606-4.725434 1.031795l-19.362634 10.424264c-2.552429 1.374378-2.550058 3.714523 0.00236 5.088901l19.360256 10.424259c2.552428 1.374376 6.898444 1.374376 9.450868 0l19.360262-10.42426c2.552422-1.374374 2.550018-3.714528-0.0024-5.0889l-19.357846-10.424263c-1.276214-0.68719-3.000866-1.031514-4.725432-1.031795z" style="opacity:.2"/>
 <path d="m32.001206 18c-1.724566-2.82e-4 -3.44922 0.344605-4.725434 1.031794l-19.362634 10.424264c-2.552429 1.374378-2.550058 3.714522 0.00236 5.0889l19.360256 10.42426c2.552428 1.374376 6.898444 1.374376 9.450868 0l19.360262-10.42426c2.552422-1.374374 2.550018-3.714528-0.0024-5.0889l-19.357846-10.424264c-1.276214-0.687189-3.000866-1.031513-4.725432-1.031794z" style="fill:#aed351"/>
 <path d="m32 18c-1.724566-2.81e-4 -3.446442 0.344061-4.722656 1.03125l-19.363282 10.425781c-1.5022891 0.80892-2.0930465 1.948203-1.8203125 3.03125 0.1823786-0.749967 0.7782586-1.470147 1.8203125-2.03125l19.363282-10.425781c1.276214-0.687189 2.99809-1.031531 4.722656-1.03125s3.450348 0.344061 4.726562 1.03125l19.359376 10.425781c1.042265 0.561214 1.63806 1.281332 1.820312 2.03125 0.272451-1.083092-0.317719-2.222169-1.820312-3.03125l-19.359376-10.425781c-1.276214-0.687189-3.001996-1.030969-4.726562-1.03125z" style="fill:#ffffff;opacity:.2"/>
 <path d="m32.001206 4.9999987c-1.724566-2.814e-4 -3.44922 0.3446058-4.725434 1.0317944l-19.362634 10.424264c-2.552429 1.374376-2.550058 3.714521 0.00236 5.088898l19.360256 10.424264c2.552428 1.374375 6.898444 1.374373 9.450868 0l19.360262-10.424264c2.552422-1.374374 2.550018-3.714527-0.0024-5.088898l-19.357846-10.424264c-1.276214-0.6871886-3.000866-1.031513-4.725432-1.0317944z" style="opacity:.2"/>
 <path d="m32.001206 3.9999998c-1.724566-2.814e-4 -3.44922 0.3446058-4.725434 1.0317944l-19.362634 10.424264c-2.552429 1.374376-2.550058 3.714521 0.00236 5.088898l19.360256 10.424264c2.552428 1.374374 6.898444 1.374372 9.450868 0l19.360262-10.424264c2.552422-1.374373 2.550018-3.714526-0.0024-5.088898l-19.357846-10.424264c-1.276214-0.6871886-3.000866-1.031513-4.725432-1.0317944z" style="fill:#3b9dda"/>
 <path d="m32 4c-1.724566-2.814e-4 -3.446442 0.3440614-4.722656 1.03125l-19.363282 10.425781c-1.5022891 0.80892-2.0930465 1.948203-1.8203125 3.03125 0.1823786-0.749967 0.7782586-1.470147 1.8203125-2.03125l19.363282-10.425781c1.276214-0.6871886 2.99809-1.0315314 4.722656-1.03125s3.450348 0.3440614 4.726562 1.03125l19.359376 10.425781c1.04226 0.561215 1.638058 1.281332 1.820312 2.03125 0.272449-1.083091-0.317726-2.222168-1.820312-3.03125l-19.359376-10.425781c-1.276214-0.6871886-3.001996-1.0309686-4.726562-1.03125z" style="fill:#ffffff;opacity:.2"/>
</svg>
