<svg width="64" height="64" version="1.1" viewBox="0 0 64 64" xmlns="http://www.w3.org/2000/svg">
 <path d="m13 4c-1.662 0-3 1.338-3 3v50c0 1.662 1.338 3 3 3h38c1.662 0 3-1.338 3-3v-50c0-1.662-1.338-3-3-3z" style="opacity:.2"/>
 <path d="m13 3c-1.662 0-3 1.338-3 3v50c0 1.662 1.338 3 3 3h38c1.662 0 3-1.338 3-3v-50c0-1.662-1.338-3-3-3z" style="fill:#3d65c2"/>
 <path d="m13 3c-1.662 0-3 1.338-3 3v50c0 1.662 1.338 3 3 3h5v-56z" style="opacity:.2"/>
 <path d="m32 12v10h-10v8h10v22h8v-22h10v-8h-10v-10z" style="opacity:.2"/>
 <rect x="32" y="11" width="8" height="40" style="fill:#ffd972"/>
 <rect transform="rotate(90)" x="21" y="-50" width="8" height="28" style="fill:#ffd972"/>
 <path d="m13 3c-1.662 0-3 1.338-3 3v1c0-1.662 1.338-3 3-3h38c1.662 0 3 1.338 3 3v-1c0-1.662-1.338-3-3-3h-38z" style="fill:#ffffff;opacity:.1"/>
 <path d="M 63.958,45.848 A 16,16 0 0 1 48,61 16,16 0 0 1 32.042,46.152 16,16 0 0 0 32,47 16,16 0 0 0 48,63 16,16 0 0 0 64,47 16,16 0 0 0 63.958,45.848 Z" style="fill-rule:evenodd;opacity:.2"/>
 <circle cx="48" cy="46" r="16" style="fill-rule:evenodd;fill:#ff982d"/>
 <path d="m48 36c-5.522847 0-10 4.477153-10 10s4.477153 10 10 10 10-4.477153 10-10-4.477153-10-10-10zm0 2c4.418278 0 8 3.581722 8 8s-3.581722 8-8 8-8-3.581722-8-8 3.581722-8 8-8zm-1 2v7h7v-2h-5v-5z" style="fill:#ffffff"/>
</svg>
