<svg width="64" height="64" version="1" xmlns="http://www.w3.org/2000/svg">
 <path d="m4.0507982 32.000818c-0.0118 0.33399-0.050799 0.661981-0.050799 0.999972 4e-7 15.511562 12.487648 27.99921 27.999211 27.99921s27.99921-12.487648 27.99921-27.99921c0-0.337671-0.03904-0.665262-0.05078-0.999972-0.527985 15.041576-12.77564 26.999238-27.949212 26.999238-15.173972 0-27.421227-11.957662-27.949212-26.999238z" style="opacity:.2"/>
 <rect transform="matrix(0,-1,-1,0,0,0)" x="-60" y="-60" width="55.998" height="55.998" rx="27.999" ry="27.999" style="fill:#e32037"/>
 <path d="M 32 4.0019531 C 16.488437 4.0019531 4 16.488437 4 32 C 4 32.113445 4.0112809 32.224116 4.0175781 32.335938 C 4.3691114 17.134609 16.711158 5 32 5 C 47.288842 5 59.630889 17.134609 59.982422 32.335938 C 59.988693 32.224116 60 32.113445 60 32 C 60 16.488437 47.511563 4.0019531 32 4.0019531 z" style="fill:#ffffff;opacity:.1"/>
 <g transform="matrix(1.9999436,0,0,1.9999436,56.998646,-3.9986464)" style="opacity:.2">
  <circle cx="-18.5" cy="14.5" r="1.5"/>
  <circle cx="-14.5" cy="14.5" r="1.5"/>
  <circle cx="-10.5" cy="14.5" r="1.5"/>
  <circle cx="-6.5" cy="14.5" r="1.5"/>
  <circle cx="-22.5" cy="18.5" r="1.5"/>
  <circle cx="-18.5" cy="18.5" r="1.5"/>
  <circle cx="-14.5" cy="18.5" r="1.5"/>
  <circle cx="-10.5" cy="18.5" r="1.5"/>
  <circle cx="-6.5" cy="18.5" r="1.5"/>
  <circle cx="-2.5" cy="18.5" r="1.5"/>
  <circle cx="-22.5" cy="22.5" r="1.5"/>
  <circle cx="-18.5" cy="22.5" r="1.5"/>
  <circle cx="-6.5" cy="22.5" r="1.5"/>
  <circle cx="-2.5" cy="22.5" r="1.5"/>
 </g>
 <path d="m20.000976 21.001953a2.9999154 2.9999154 0 0 0 -3 3 2.9999154 2.9999154 0 0 0 3 2.998047 2.9999154 2.9999154 0 0 0 3 -2.998047 2.9999154 2.9999154 0 0 0 -3 -3zm8 0a2.9999154 2.9999154 0 0 0 -3 3 2.9999154 2.9999154 0 0 0 3 2.998047 2.9999154 2.9999154 0 0 0 3 -2.998047 2.9999154 2.9999154 0 0 0 -3 -3zm8 0a2.9999154 2.9999154 0 0 0 -3 3 2.9999154 2.9999154 0 0 0 3 2.998047 2.9999154 2.9999154 0 0 0 3 -2.998047 2.9999154 2.9999154 0 0 0 -3 -3zm7.998047 0a2.9999154 2.9999154 0 0 0 -3 3 2.9999154 2.9999154 0 0 0 3 2.998047 2.9999154 2.9999154 0 0 0 3 -2.998047 2.9999154 2.9999154 0 0 0 -3 -3zm-31.998046 7.998047a2.9999154 2.9999154 0 0 0 -3.0000005 3 2.9999154 2.9999154 0 0 0 3.0000005 3 2.9999154 2.9999154 0 0 0 3 -3 2.9999154 2.9999154 0 0 0 -3 -3zm7.999999 0a2.9999154 2.9999154 0 0 0 -3 3 2.9999154 2.9999154 0 0 0 3 3 2.9999154 2.9999154 0 0 0 3 -3 2.9999154 2.9999154 0 0 0 -3 -3zm8 0a2.9999154 2.9999154 0 0 0 -3 3 2.9999154 2.9999154 0 0 0 3 3 2.9999154 2.9999154 0 0 0 3 -3 2.9999154 2.9999154 0 0 0 -3 -3zm8 0a2.9999154 2.9999154 0 0 0 -3 3 2.9999154 2.9999154 0 0 0 3 3 2.9999154 2.9999154 0 0 0 3 -3 2.9999154 2.9999154 0 0 0 -3 -3zm7.998047 0a2.9999154 2.9999154 0 0 0 -3 3 2.9999154 2.9999154 0 0 0 3 3 2.9999154 2.9999154 0 0 0 3 -3 2.9999154 2.9999154 0 0 0 -3 -3zm8 0a2.9999154 2.9999154 0 0 0 -3 3 2.9999154 2.9999154 0 0 0 3 3 2.9999154 2.9999154 0 0 0 3 -3 2.9999154 2.9999154 0 0 0 -3 -3zm-39.998046 8a2.9999154 2.9999154 0 0 0 -3.0000005 3 2.9999154 2.9999154 0 0 0 3.0000005 3 2.9999154 2.9999154 0 0 0 3 -3 2.9999154 2.9999154 0 0 0 -3 -3zm7.999999 0a2.9999154 2.9999154 0 0 0 -3 3 2.9999154 2.9999154 0 0 0 3 3 2.9999154 2.9999154 0 0 0 3 -3 2.9999154 2.9999154 0 0 0 -3 -3zm23.998047 0a2.9999154 2.9999154 0 0 0 -3 3 2.9999154 2.9999154 0 0 0 3 3 2.9999154 2.9999154 0 0 0 3 -3 2.9999154 2.9999154 0 0 0 -3 -3zm8 0a2.9999154 2.9999154 0 0 0 -3 3 2.9999154 2.9999154 0 0 0 3 3 2.9999154 2.9999154 0 0 0 3 -3 2.9999154 2.9999154 0 0 0 -3 -3z" style="fill:#ffffff"/>
</svg>
