<svg width="64" height="64" version="1" xmlns="http://www.w3.org/2000/svg">
 <path d="m21.138672 5.0063095c-1.962127 0.046667-3.580057 0.3169488-5.134766 0.8535156-0.970914 0.3350903-2.01926 0.827777-2.484375 1.1679688-0.341415 0.2496988-0.623047 0.8194054-0.623047 1.2597656 0 0.2315646 0.108461 0.614346 0.232422 0.8203125 0.05127 0.085214 0.359303 0.4551219 0.685547 0.8203125 0.326258 0.3651925 0.713239 0.8041865 0.859375 0.9746095 2.699422 3.147866 3.299015 6.111681 3.44425 9.783203-0.185481 1.899445-0.922104 3.784662-2.410156 5.539062-3.125461 4.087003-3.954557 5.782695-4.936438 8.447266-0.387631 1.051932-0.60135 1.945907-0.726562 3.033203-0.061427 0.529641-0.060437 2.359652 2e-3 3.244141 0.194612 2.75819 0.716944 5.263442 1.623047 7.777343 0.100918 0.279976 0.249099 0.69578 0.330078 0.923829 0.821823 2.311906 2.665018 5.461975 4.496094 7.6875 0.439934 0.534695 1.682794 1.820188 2.326172 2.40625 0.771586 0.702851 1.590925 1.14716 2.27539 1.232421v-2e-3c0.15422 0.01904 4.020132 0.02904 8.589844 0.02344l8.306641-0.0078 0.308593-0.09375c0.668725-0.203716 1.531295-0.747225 2.214844-1.396484 0.17574-0.166924 0.604098-0.622178 0.953125-1.011719 2.265797-2.528854 5.205758-6.247412 6.429688-9.339843 1.142882-2.887636 1.675003-4.853284 1.972656-7.304688 0.350426-2.88611 0.192189-4.832397-0.554688-6.773438-0.580457-1.356351-2.194218-2.78962-2.220703-4.357421 2.77e-4 -0.617758 0.01477-0.839976 0.08008-1.083985 0.174286-0.650911 1.065205-1.2465 1.519532-1.796875 0.110527-0.133912 0.646602-0.699813 1.191406-1.259765 1.295827-1.331851 1.712597-1.877249 2.21289-2.890625 0.403549-0.817386 0.696848-1.787998 0.833985-2.761719 0.0868-0.612388 0.08675-1.776371-2e-3 -2.398438-0.508011-3.564986-3.075977-6.440387-6.45508-7.304655-0.953096-0.243778-1.796923-0.257002-4.710938-0.292969-4.009686-0.052571-8.512944-0.860995-12.320312-3.3066404-2.406747-1.2957869-3.242619-1.6884655-4.384766-2.0625-1.38213-0.4526189-2.335494-0.5866005-3.923828-0.5488281zm20.652344 10.99414c1.02946 9.86e-4 1.524842 0.01733 1.757812 0.05664 1.219807 0.205861 2.249843 0.890342 2.876953 1.916015 0.573469 0.937966 0.723893 2.036779 0.421875 3.06836-0.242637 0.828784-0.509531 1.198113-1.714844 2.359375-1.232286 1.187281-1.664448 1.67664-2.097656 2.371093-0.07824 0.125531-0.1668 0.228517-0.195312 0.228517-0.02847 0-0.131438-0.102995-0.228516-0.228516l-0.392578-0.505859c-1.034514-1.33606-1.812348-2.549392-2.056641-3.212891-0.09881-0.268236-0.118772-0.415828-0.146484-0.935546-0.07268-1.361585 0.129441-4.739673 0.302734-5.050782 0.0357-0.06421 0.148219-0.06766 1.472657-0.06641z" style="opacity:.2"/>
 <path d="m21.138672 4.0058594c-1.962127 0.046667-3.580057 0.3169488-5.134766 0.8535156-0.970914 0.3350903-2.01926 0.827777-2.484375 1.1679688-0.341415 0.2496988-0.623047 0.8194054-0.623047 1.2597656 0 0.2315646 0.108461 0.614346 0.232422 0.8203125 0.05127 0.085214 0.359303 0.4551219 0.685547 0.8203125 0.326258 0.3651921 0.713239 0.8041863 0.859375 0.9746094 2.699422 3.1478662 3.299015 6.1116812 3.44425 9.7832032-0.185481 1.899445-0.922104 3.784662-2.410156 5.539062-3.125461 4.087003-3.954557 5.782695-4.936438 8.447266-0.387631 1.051932-0.60135 1.945907-0.726562 3.033203-0.061427 0.529641-0.060437 2.359652 2e-3 3.244141 0.194612 2.75819 0.716944 5.263442 1.623047 7.777343 0.100918 0.279976 0.249099 0.69578 0.330078 0.923829 0.821823 2.311906 2.665018 5.461975 4.496094 7.6875 0.439934 0.534695 1.682794 1.820188 2.326172 2.40625 0.771586 0.702851 1.590925 1.14716 2.27539 1.232421v-2e-3c0.15422 0.01904 4.020132 0.02904 8.589844 0.02344l8.306641-0.0078 0.308593-0.09375c0.668725-0.203716 1.531295-0.747225 2.214844-1.396484 0.17574-0.166924 0.604098-0.622178 0.953125-1.011719 2.265797-2.528854 5.205758-6.247412 6.429688-9.339843 1.142882-2.887636 1.675003-4.853284 1.972656-7.304688 0.350426-2.88611 0.192189-4.832397-0.554688-6.773438-0.580457-1.356351-2.194218-2.78962-2.220703-4.357421 2.77e-4 -0.617758 0.01477-0.839976 0.08008-1.083985 0.174286-0.650911 1.065205-1.2465 1.519532-1.796875 0.110527-0.133912 0.646602-0.699813 1.191406-1.259765 1.295827-1.331851 1.712597-1.877249 2.21289-2.890625 0.403549-0.817386 0.696848-1.787998 0.833985-2.761719 0.0868-0.612388 0.08675-1.776371-2e-3 -2.398438-0.508011-3.564986-3.075977-6.440387-6.45508-7.304655-0.953096-0.2437785-1.796923-0.2570025-4.710938-0.2929689-4.009686-0.0525707-8.512944-0.8609953-12.320312-3.3066406-2.406747-1.2957869-3.242619-1.6884655-4.384766-2.0625-1.38213-0.4526189-2.335494-0.5866005-3.923828-0.5488281zm20.652344 10.994141c1.02946 9.86e-4 1.524842 0.01733 1.757812 0.05664 1.219807 0.205861 2.249843 0.890342 2.876953 1.916015 0.573469 0.937966 0.723893 2.036779 0.421875 3.06836-0.242637 0.828784-0.509531 1.198113-1.714844 2.359375-1.232286 1.187281-1.664448 1.67664-2.097656 2.371093-0.07824 0.125531-0.1668 0.228517-0.195312 0.228517-0.02847 0-0.131438-0.102995-0.228516-0.228516l-0.392578-0.505859c-1.034514-1.33606-1.812348-2.549392-2.056641-3.212891-0.09881-0.268236-0.118772-0.415828-0.146484-0.935546-0.07268-1.361585 0.129441-4.739673 0.302734-5.050782 0.0357-0.06421 0.148219-0.06766 1.472657-0.06641z" style="fill:#cccccc"/>
 <path d="m37.20412 50.86449c-2.715317-1.567688-11.391507-11.493405-11.391507-11.493405s12.934018 2.550946 15.649331 4.118634c2.715319 1.567686 3.497242 5.296807 2.787604 6.525937-0.709638 1.229129-4.330112 2.416523-7.045428 0.848834z" style="opacity:.2"/>
 <path d="m37.20412 49.86449c-2.715317-1.567688-11.391507-11.493405-11.391507-11.493405s12.934018 2.550946 15.649331 4.118634c2.715319 1.567686 3.497242 5.296807 2.787604 6.525937-0.709638 1.229129-4.330112 2.416523-7.045428 0.848834z" style="fill:#4670c8"/>
 <path d="m41.56933 42.674061c-3.028541 0.811495-16.182074-0.07206-16.182074-0.07206s10.949517-7.341944 13.978059-8.153439c3.028541-0.811494 6.218333 1.27249 6.585668 2.643402 0.367335 1.370916-1.353114 4.770593-4.381653 5.582091z" style="opacity:.2"/>
 <path d="m41.56933 41.674061c-3.028541 0.811495-16.182074-0.07206-16.182074-0.07206s10.949517-7.341944 13.978059-8.153439c3.028541-0.811494 6.218333 1.27249 6.585668 2.643402 0.367335 1.370916-1.353114 4.770593-4.381653 5.582091z" style="fill:#4ab6e7"/>
 <path d="m38.864491 33.795883c-1.567688 2.715318-11.493404 11.391504-11.493404 11.391504s2.550941-12.934015 4.11863-15.649332c1.567689-2.715316 5.29681-3.497238 6.525939-2.787601 1.229127 0.709635 2.416524 4.33011 0.848835 7.045429z" style="opacity:.2"/>
 <path d="m38.864491 32.795883c-1.567688 2.715318-11.493404 11.391504-11.493404 11.391504s2.550941-12.934015 4.11863-15.649332c1.567689-2.715316 5.29681-3.497238 6.525939-2.787601 1.229127 0.709635 2.416524 4.33011 0.848835 7.045429z" style="fill:#4670c8"/>
 <path d="m17.538056 39.510282c2.715317 1.56769 15.649331 4.118631 15.649331 4.118631s-8.676187-9.925712-11.391505-11.493402c-2.715316-1.567688-6.33579-0.380294-7.045428 0.848836-0.709639 1.22913 0.07229 4.958247 2.787602 6.525935z" style="opacity:.2"/>
 <path d="m17.538056 38.510282c2.715317 1.56769 15.649331 4.118631 15.649331 4.118631s-8.676187-9.925712-11.391505-11.493402c-2.715316-1.567688-6.33579-0.380294-7.045428 0.848836-0.709639 1.22913 0.07229 4.958247 2.787602 6.525935z" style="fill:#4670c8"/>
 <path d="m28.325942 53.56933c-0.811498-3.028545 0.07207-16.182078 0.07207-16.182078s7.341941 10.949519 8.153436 13.978061c0.811493 3.028545-1.27249 6.218335-2.643402 6.585669-1.370916 0.367337-4.770594-1.353113-5.582088-4.381652z" style="opacity:.2"/>
 <path d="m19.634686 48.551431c3.028544-0.811494 13.978062-8.153439 13.978062-8.153439s-13.153533-0.883551-16.182075-0.07207c-3.028543 0.811496-4.748992 4.211175-4.381655 5.582088 0.367336 1.370919 3.557126 3.454899 6.585668 2.643405z" style="opacity:.2"/>
 <path d="m19.634686 47.551431c3.028544-0.811494 13.978062-8.153439 13.978062-8.153439s-13.153533-0.883551-16.182075-0.07207c-3.028543 0.811496-4.748992 4.211175-4.381655 5.582088 0.367336 1.370919 3.557126 3.454899 6.585668 2.643405z" style="fill:#4ab6e7"/>
 <path d="m28.325942 52.56933c-0.811498-3.028545 0.07207-16.182078 0.07207-16.182078s7.341941 10.949519 8.153436 13.978061c0.811493 3.028545-1.27249 6.218335-2.643402 6.585669-1.370916 0.367337-4.770594-1.353113-5.582088-4.381652z" style="fill:#4ab6e7"/>
 <path d="m27.510284 53.461948c1.56769-2.715319 4.118631-15.649332 4.118631-15.649332s-9.925715 8.676186-11.493404 11.391504c-1.56769 2.715314-0.380295 6.33579 0.848835 7.045427 1.229127 0.709639 4.958249-0.07229 6.525938-2.787599z" style="opacity:.2"/>
 <path d="m27.510284 52.461948c1.56769-2.715319 4.118631-15.649332 4.118631-15.649332s-9.925715 8.676186-11.493404 11.391504c-1.56769 2.715314-0.380295 6.33579 0.848835 7.045427 1.229127 0.709639 4.958249-0.07229 6.525938-2.787599z" style="fill:#4670c8"/>
 <path d="m22.44857 31.634685c0.811495 3.028542 8.153438 13.978063 8.153438 13.978063s0.883551-13.153537 0.07206-16.182075c-0.811496-3.028542-4.211175-4.748991-5.582088-4.381656-1.370917 0.367338-3.454899 3.557127-2.643405 6.585668z" style="opacity:.2"/>
 <path d="m22.44857 30.634685c0.811495 3.028542 8.153438 13.978063 8.153438 13.978063s0.883551-13.153537 0.07206-16.182075c-0.811496-3.028542-4.211175-4.748991-5.582088-4.381656-1.370917 0.367338-3.454899 3.557127-2.643405 6.585668z" style="fill:#4ab6e7"/>
 <circle transform="matrix(.8660254 .5 -.5 .8660254 0 0)" cx="46.298" cy="21.19" r="5.5" style="opacity:.2"/>
 <circle transform="matrix(.8660254 .5 -.5 .8660254 0 0)" cx="45.798" cy="20.324" r="5.5" style="fill:#ffb22e"/>
 <path d="m29.240234 35.005859a5.5 5.5 0 0 0 -4.503906 2.744141 5.5 5.5 0 0 0 -0.707031 3.251953 5.5 5.5 0 0 1 0.707031 -2.251953 5.5 5.5 0 0 1 7.513672 -2.013672 5.5 5.5 0 0 1 2.720703 4.261719 5.5 5.5 0 0 0 -2.720703 -5.261719 5.5 5.5 0 0 0 -3.009766 -0.730469z" style="fill:#ffffff;opacity:.2"/>
 <path d="m21.138672 4.0058594c-1.962127 0.046667-3.580057 0.3169488-5.134766 0.8535156-0.970914 0.3350903-2.01926 0.827777-2.484375 1.1679688-0.341415 0.2496987-0.623047 0.8194054-0.623047 1.2597656 0 0.1406695 0.046259 0.3271202 0.105469 0.5058594 0.11083-0.3073681 0.296949-0.6042645 0.517578-0.765625 0.465115-0.3401919 1.513461-0.8328785 2.484375-1.1679688 1.554709-0.5365668 3.172639-0.8068486 5.134766-0.8535156 1.588334-0.0377724 2.541698 0.0962092 3.923828 0.5488281 1.142147 0.3740345 1.978019 0.7667131 4.384766 2.0625 3.807368 2.4456455 8.310626 3.2540695 12.320312 3.3066405 2.914015 0.035967 3.757842 0.049191 4.710938 0.292969 3.379103 0.864268 5.947067 3.739701 6.455078 7.304687 0.026149 0.183287 0.028266 0.459578 0.039062 0.708985 0.02601-0.597458 0.024092-1.26632-0.039062-1.708985-0.508011-3.564986-3.075975-6.440419-6.455078-7.304687-0.953096-0.2437786-1.796923-0.2570025-4.710938-0.2929689-4.009686-0.0525707-8.512944-0.8609953-12.320312-3.3066406-2.406747-1.2957869-3.242619-1.6884655-4.384766-2.0625-1.38213-0.4526189-2.335494-0.5866005-3.923828-0.5488281zm25.818359 15.435547c-0.024862 0.200781-0.051566 0.402156-0.109375 0.59961-0.242637 0.828784-0.509531 1.198113-1.714844 2.359375-1.232286 1.187281-1.664448 1.67664-2.097656 2.371093-0.07824 0.125531-0.1668 0.228516-0.195312 0.228516-0.02847 0-0.131438-0.102995-0.228516-0.228516l-0.392578-0.505859c-1.034514-1.33606-1.812348-2.549392-2.056641-3.212891-0.09881-0.268236-0.118772-0.415829-0.146484-0.935546-0.006128-0.114808 4.5e-4 -0.30488-0.001953-0.445313-0.014398 0.560518-0.017639 1.078278 0.001953 1.445313 0.027712 0.519717 0.047674 0.66731 0.146484 0.935546 0.244293 0.663499 1.022127 1.876831 2.056641 3.212891l0.392578 0.505859c0.097078 0.125521 0.200046 0.228516 0.228516 0.228516 0.028512 0 0.117072-0.102985 0.195312-0.228516 0.433208-0.694453 0.86537-1.183812 2.097656-2.371093 1.205313-1.161262 1.472207-1.530591 1.714844-2.359375 0.154078-0.526273 0.186903-1.068624 0.109375-1.59961zm-28.880859 0.544922c-0.231424 1.797236-0.959802 3.576684-2.369141 5.238281-3.125461 4.087003-3.953666 5.782695-4.935547 8.447266-0.387631 1.051932-0.60135 1.945907-0.726562 3.033203-0.040006 0.344942-0.043926 1.191876-0.03125 2.019531 0.006444-0.395606 0.010237-0.838353 0.03125-1.019531 0.125212-1.087296 0.338931-1.981271 0.726562-3.033203 0.981881-2.664571 1.810086-4.360263 4.935547-8.447266 1.488052-1.7544 2.224676-3.639617 2.410157-5.539062-0.009434-0.238471-0.027298-0.466475-0.041016-0.699219zm29.052734 9.951172c-0.019562 0.177981-0.031079 0.394467-0.03125 0.775391 0.026485 1.567801 1.640246 3.00107 2.220703 4.357421 0.446433 1.160223 0.677814 2.327848 0.720703 3.691407 0.058811-1.817716-0.16868-3.256767-0.720703-4.691407-0.552451-1.290909-2.024275-2.652883-2.189453-4.132812z" style="fill:#ffffff;opacity:.2"/>
</svg>
