<svg width="64" height="64" version="1" xmlns="http://www.w3.org/2000/svg">
 <path d="m4.0507997 32.000415c-0.0118 0.333995-0.050799 0.66199-0.050799 0.999985-3e-7 15.511779 12.487821 27.9996 27.999599 27.9996s27.9996-12.487821 27.9996-27.9996c0-0.337995-0.04-0.66599-0.05-0.999985-0.527992 15.041785-12.775817 26.999614-27.9496 26.999614-15.174183 0-27.421608-11.957829-27.9496-26.999614z" style="opacity:.2"/>
 <rect transform="matrix(0,-1,-1,0,0,0)" x="-60" y="-60" width="55.999" height="55.999" rx="28" ry="28" style="fill:#2095f2"/>
 <path d="m31.962891 4c-6.390114 0.00825-12.262647 2.1400397-16.960938 5.7246094 0.066289 15.455724 12.727064 28.275391 28.197266 28.275391 6.321909 0 12.122295-2.499662 16.798828-6.007812-5e-4 -1.936236-0.195115-3.824909-0.566406-5.648438-4.11e-4 -0.002015-0.001543-0.003844-0.001953-0.005859-0.278768-1.367595-0.655798-2.698334-1.125-3.984375-4.99e-4 -0.001367-0.001455-0.00254-0.001954-0.003907-0.626516-1.716397-1.416179-3.353814-2.349609-4.892578-3.033341-5.000479-7.589875-8.9662068-13.035156-11.261718-5.58e-4 -2.35e-4 -0.001396 2.35e-4 -0.001953 0-0.418367-0.1763348-0.840959-0.3436621-1.269532-0.5-5.77e-4 -2.108e-4 -0.001375 2.107e-4 -0.001953 0-3.004094-1.0956341-6.252205-1.6914062-9.644531-1.6914063-0.011691 0-0.02537-0.0038395-0.037109-0.0039062z" style="fill:#ffffff;opacity:.2"/>
 <path d="m29.139641 13.001572c-0.789989 0-1.12967 0.687248-1.139641 1.538978v24.460307h-6.000257l9.999857 13.999143 9.999857-13.999143h-5.999457v-24.460307c0-0.853188-0.354452-1.539978-1.144441-1.539978h-5.715918z" style="opacity:.2"/>
 <path d="m29.139641 12.000715c-0.789989 0-1.12967 0.687248-1.139641 1.538978v24.460307h-6.000257l9.999857 13.999143 9.999857-13.999143h-5.999457v-24.460307c0-0.853188-0.354452-1.539978-1.144441-1.539978h-5.715918z" style="fill:#ffffff"/>
 <path d="M 32 4 C 16.488222 4 4 16.488222 4 32 C 4 32.113554 4.0112846 32.224034 4.0175781 32.335938 C 4.3691163 17.134398 16.710946 5 32 5 C 47.289054 5 59.630884 17.134398 59.982422 32.335938 C 59.988797 32.224034 60 32.113554 60 32 C 60 16.488222 47.511778 4 32 4 z" style="fill:#ffffff;opacity:.2"/>
</svg>
