<svg width="64" height="64" version="1" xmlns="http://www.w3.org/2000/svg">
 <path d="m16.000323 51.376036v1.999984c0 1.453989 1.190591 2.62398 2.66798 2.62398h26.663794c1.477989 0 2.66798-1.169991 2.66798-2.62398v-1.999984c0 1.453988-1.189991 2.623979-2.66798 2.623979h-26.663794c-1.477389 0-2.66798-1.169991-2.66798-2.623979z" style="opacity:.2"/>
 <rect transform="matrix(0,-1,-1,0,0,0)" x="-55" y="-48" width="42" height="32" rx="2.626" ry="2.666" style="fill:#8e8e8e"/>
 <path d="m6.0004002 45.500081v1.999984c0 1.38399 1.1611911 2.499981 2.60158 2.499981h46.79564c1.439989 0 2.60198-1.115991 2.60198-2.499981v-1.999984c0 1.383989-1.161991 2.499981-2.60198 2.499981h-46.79564c-1.4407889 0-2.60198-1.115992-2.60198-2.499981z" style="opacity:.2"/>
 <rect transform="matrix(0,-1,-1,0,0,0)" x="-49" y="-58" width="40" height="52" rx="2.5" ry="2.6" style="fill:#3f3f3f"/>
 <path d="m8.6015625 9c-1.4403889 0-2.6015625 1.115011-2.6015625 2.5v1c0-1.384989 1.1611736-2.5 2.6015625-2.5h46.796876c1.439988 0 2.601562 1.115011 2.601562 2.5v-1c0-1.384989-1.161574-2.5-2.601562-2.5h-46.796876z" style="fill:#ffffff;opacity:.1"/>
 <rect transform="matrix(0,-1,-1,0,0,0)" x="-46" y="-54" width="32" height="44" rx="0" ry="0" style="opacity:.2"/>
 <rect transform="matrix(0,-1,-1,0,0,0)" x="-45" y="-54" width="32" height="44" rx="0" ry="0" style="fill:#2584d4"/>
 <rect x="14" y="18" width="16" height="24" rx="2.667" ry="2.4" style="opacity:.2"/>
 <rect x="14" y="17" width="16" height="24" rx="2.667" ry="2.4" style="fill:#5ebae6"/>
 <rect x="34" y="18" width="16" height="10" rx="2.667" ry="2.5" style="opacity:.2"/>
 <rect x="34" y="17" width="16" height="10" rx="2.667" ry="2.5" style="fill:#5ebae6"/>
 <rect x="34" y="32" width="16" height="10" rx="2.667" ry="2.5" style="opacity:.2"/>
 <rect x="34" y="31" width="16" height="10" rx="2.667" ry="2.5" style="fill:#5ebae6"/>
 <path d="M 16.667969,17 C 15.190635,17 14,18.068836 14,19.398438 l 0,1 C 14,19.068836 15.190635,18 16.667969,18 l 10.664062,0 C 28.809363,18 30,19.068836 30,20.398438 l 0,-1 C 30,18.068836 28.809363,17 27.332031,17 l -10.664062,0 z" style="fill:#ffffff;opacity:.1"/>
 <path d="m36.667969 17c-1.477332 0-2.667969 1.115-2.667969 2.5v1c0-1.385 1.190637-2.5 2.667969-2.5h10.664062c1.477332 0 2.667969 1.115 2.667969 2.5v-1c0-1.385-1.190637-2.5-2.667969-2.5h-10.664062z" style="fill:#ffffff;opacity:.1"/>
 <path d="m36.667969 31c-1.477332 0-2.667969 1.115-2.667969 2.5v1c0-1.385 1.190637-2.5 2.667969-2.5h10.664062c1.477332 0 2.667969 1.115 2.667969 2.5v-1c0-1.385-1.190637-2.5-2.667969-2.5h-10.664062z" style="fill:#ffffff;opacity:.1"/>
</svg>
