<svg width="64" height="64" version="1.1" viewBox="0 0 64 64" xmlns="http://www.w3.org/2000/svg">
 <g transform="translate(0,-988.3622)">
  <path d="m32.0358 994.3681c-16.450751 0-29.964104 13.3894-29.964224 29.8068-0.172736 2.4302 0 4.2018 0.17167 6.9968 0.4804828 6.8158 4.691853 11.6968 8.4625516 14.0456 3.555832 2.2144 6.819982 2.9968 6.819982 2.9968 0.08543 0.02 0.171286 0.038 0.257505 0.054 2.212654 0.402 4.814373-0.5228 6.258155-2.0354 1.44378-1.5128 2.002664-3.3532 2.001516-5.091v-21.5316c0.0015-1.547-0.42541-3.2034-1.638666-4.6886-0.35773-0.4378-0.93907-0.7396-1.447492-1.094 2.475214-2.1358 5.675972-3.4514 9.079-3.4576 3.404168 0 6.605458 1.3162 9.082904 3.4538-0.509248 0.354-1.08948 0.6564-1.44749 1.094-1.213286 1.4828-1.641108 3.1364-1.64257 4.6806v21.5394c-0.0011 1.7378 0.557734 3.5784 2.001516 5.091 1.443782 1.5124 4.046188 2.4366 6.258154 2.0354 0.08622-0.02 0.17208-0.034 0.257504-0.054 0 0 3.26415-0.7824 6.819982-2.9968 3.767638-2.3468 7.972308-7.223 8.45865-14.03 0.17558-2.8066 0.17554-4.627 0.17554-7.0142-1.2e-4 -16.4174-13.513472-29.8068-29.964222-29.8068z" style="opacity:.2"/>
  <path d="m32.0358 993.3681c-16.450751 0-29.964104 13.3894-29.964224 29.8068-0.172736 2.4302 0 4.2018 0.17167 6.9968 0.4804828 6.8158 4.691853 11.6968 8.4625516 14.0456 3.555832 2.2144 6.819982 2.9968 6.819982 2.9968 0.08543 0.02 0.171286 0.038 0.257505 0.054 2.212654 0.402 4.814373-0.5228 6.258155-2.0354 1.44378-1.5128 2.002664-3.3532 2.001516-5.091v-21.5316c0.0015-1.547-0.42541-3.2034-1.638666-4.6886-0.35773-0.4378-0.93907-0.7396-1.447492-1.094 2.475214-2.1358 5.675972-3.4514 9.079-3.4576 3.404168 0 6.605458 1.3162 9.082904 3.4538-0.509248 0.354-1.08948 0.6564-1.44749 1.094-1.213286 1.4828-1.641108 3.1364-1.64257 4.6806v21.5394c-0.0011 1.7378 0.557734 3.5784 2.001516 5.091 1.443782 1.5124 4.046188 2.4366 6.258154 2.0354 0.08622-0.02 0.17208-0.034 0.257504-0.054 0 0 3.26415-0.7824 6.819982-2.9968 3.767638-2.3468 7.972308-7.223 8.45865-14.03 0.17558-2.8066 0.17554-4.627 0.17554-7.0142-1.2e-4 -16.4174-13.513472-29.8068-29.964222-29.8068z" style="fill:#0093b8"/>
  <path d="m32.000002 1000.3621c-13.254763 0-23.999899 10.6556-23.999994 23.7998v5.6h0.00828c-0.00148 0.086-0.0086 0.17-0.00828 0.26 0.01916 5.1234 3.0026814 8.3338 5.8124994 10.0816 2.809816 1.7474 4.989379 2.2422 4.989379 2.2422 0.683402 0.124 1.198616-0.4546 1.198114-1.214v-21.539c6.8e-4 -0.6932-0.414678-1.2496-1.046459-1.2304-0.02114-6e-4 -0.04229-6e-4 -0.06342 0 0 0-2.20273 0.2526-5.041772 1.7718-0.454637 0.2432-1.111295 0.7406-1.562345 1.064 1.474824-9.5602 9.96135-16.8244 19.714002-16.836 9.760442 0 18.25347 7.2782 19.723998 16.8468-0.454596-0.3268-1.113994-0.8278-1.572348-1.0728-2.839044-1.5192-5.041772-1.772-5.041772-1.772-0.02114-6e-4 -0.04228-6e-4 -0.06342 0-0.63085-0.02-1.045804 0.5358-1.04646 1.2278v21.5398c-5.02e-4 0.7594 0.514712 1.3378 1.198114 1.214 0 0 2.179574-0.4948 4.98938-2.2422 2.809818-1.7478 5.793342-4.9582 5.812498-10.0816 3.32e-4 -0.088-0.0068-0.172-0.0082-0.26h0.0082v-5.6c-9.6e-5 -13.1442-10.745228-23.7998-23.99999-23.7998z" style="opacity:.2"/>
  <path d="m32.000002 999.3621c-13.254763 0-23.999899 10.6556-23.999994 23.7998v5.6h0.00828c-0.00148 0.086-0.0086 0.17-0.00828 0.26 0.01916 5.1234 3.0026814 8.3338 5.8124994 10.0816 2.809816 1.7474 4.989379 2.2422 4.989379 2.2422 0.683402 0.124 1.198616-0.4546 1.198114-1.214v-21.539c6.8e-4 -0.6932-0.414678-1.2496-1.046459-1.2304-0.02114-6e-4 -0.04229-6e-4 -0.06342 0 0 0-2.20273 0.2526-5.041772 1.7718-0.454637 0.2432-1.111295 0.7406-1.562345 1.064 1.474824-9.5602 9.96135-16.8244 19.714002-16.836 9.760442 0 18.25347 7.2782 19.723998 16.8468-0.454596-0.3268-1.113994-0.8278-1.572348-1.0728-2.839044-1.5192-5.041772-1.772-5.041772-1.772-0.02114-6e-4 -0.04228-6e-4 -0.06342 0-0.63085-0.02-1.045804 0.5358-1.04646 1.2278v21.5398c-5.02e-4 0.7594 0.514712 1.3378 1.198114 1.214 0 0 2.179574-0.4948 4.98938-2.2422 2.809818-1.7478 5.793342-4.9582 5.812498-10.0816 3.32e-4 -0.088-0.0068-0.172-0.0082-0.26h0.0082v-5.6c-9.6e-5 -13.1442-10.745228-23.7998-23.99999-23.7998z" style="fill:#ffffff"/>
  <path transform="translate(0,988.3622)" d="m32.035156 5v0.0058594c-16.450751 0-29.962771 13.389241-29.96289 29.806641-0.0623255 0.876849-0.0699418 1.666796-0.0585937 2.451172 0.0090045-0.468086 0.0222982-0.940535 0.0585937-1.451172 1.194e-4 -16.4174 13.512139-29.806641 29.96289-29.806641v-0.0058594c16.383118 0 29.84839 13.280533 29.958985 29.605469 2.96e-4 -0.271171 0.005859-0.514172 0.005859-0.798828-1.2e-4 -16.4174-13.514094-29.806641-29.964844-29.806641zm8.394532 19.916016c-0.28764 0.192672-0.557779 0.394168-0.757813 0.638672-1.213286 1.482799-1.641116 3.13744-1.642578 4.68164v1c0.001462-1.5442 0.429292-3.198841 1.642578-4.68164 0.35801-0.437601 0.938018-0.73975 1.447266-1.09375-0.221663-0.191256-0.456575-0.367172-0.689453-0.544922zm-16.785157 0.003906c-0.232583 0.177531-0.466147 0.353922-0.6875 0.544922 0.508422 0.3544 1.089536 0.65595 1.447266 1.09375 1.213256 1.4852 1.640172 3.142453 1.638672 4.689453v-1c0.0015-1.547-0.425416-3.204253-1.638672-4.689453-0.199914-0.244661-0.471936-0.446042-0.759766-0.638672z" style="fill:#ffffff;opacity:.2"/>
 </g>
</svg>
