<svg width="64" height="64" version="1" xmlns="http://www.w3.org/2000/svg">
 <rect transform="matrix(0,-1,-1,0,0,0)" x="-61" y="-60" width="56" height="56" rx="2.8" ry="2.8" style="opacity:.2"/>
 <rect transform="matrix(0,-1,-1,0,0,0)" x="-60" y="-60" width="56" height="56" rx="2.8" ry="2.8" style="fill:#465489"/>
 <path d="m29.636719 23c-0.834256 4.43235-1.802463 9.546488-2.636719 13.974609h2.789062c0.480618-2.542435 0.954531-5.46177 1.429688-7.974609 0.948949 0 1.84903-0.03311 2.746094 0.0078 0.882045 0.03946 1.217187 0.482027 1.068359 1.376954-0.204809 1.220481-0.444631 2.837024-0.669922 4.054687-0.155655 0.839962-0.314667 1.681124-0.478515 2.560547 0.91345-2e-6 1.788256 0.0024 2.662109-0.01172 0.071-0.0014 0.18459-0.118041 0.205078-0.201172 0.07783-0.312871 0.124882-0.636571 0.183594-0.955078 0.335887-1.809583 0.695327-3.817048 1.003906-5.630859 0.271711-1.601001-0.367813-2.61857-1.884765-2.951172-0.718199-0.157846-1.469718-0.177105-2.207032-0.210938-0.72912-0.03382-1.460956-0.0059-2.21875-0.0059 0.222559-1.190831 0.575094-2.853538 0.794922-4.033149h-2.787109zm-12.488281 4.003906c-0.08921 0-0.1791 0.01295-0.275391 0.02148-0.865212 4.429791-2.007835 9.543418-2.873047 13.974614h2.914062c0.219491-1.113083 0.722212-2.592287 0.921876-3.675781 0.03823-0.208527 0.121528-0.259222 0.318359-0.257813 0.957256 0.0042 1.916669 0.02469 2.871094-0.01758 0.601825-0.02677 1.208135-0.105748 1.792968-0.248047 2.190643-0.53259 4.408504-3.158964 4.16211-6.453125-0.12603-1.689349-1.086473-2.733755-2.746094-3.136718-0.505533-0.12399-1.034993-0.192174-1.554687-0.199219-1.843711-0.02254-3.687543-0.0078-5.53125-0.0078zm23 0c-0.08921 0-0.1791 0.01295-0.275391 0.02148-0.865212 4.429791-2.007835 9.543418-2.873047 13.974614h2.914062c0.219491-1.113083 0.722211-2.592287 0.921876-3.675781 0.03823-0.208527 0.121528-0.259222 0.318359-0.257813 0.957256 0.0042 1.916669 0.02469 2.871094-0.01758 0.601825-0.02677 1.208135-0.105748 1.792968-0.248047 2.190643-0.53259 4.408504-3.158964 4.16211-6.453125-0.12603-1.689349-1.086473-2.733755-2.746094-3.136718-0.505533-0.12399-1.034993-0.192174-1.554687-0.199219-1.843711-0.02254-3.687542-0.0078-5.53125-0.0078zm-20.75 2.033203c1.101693 0.06481 2.187614 0.06582 3.253906 0.210938 0.933183 0.128216 1.330665 0.665144 1.291015 1.603515-0.02549 0.572041-0.13047 1.450503-0.289062 2-0.352599 1.222981-1.222811 1.903035-2.474609 2.03125-0.934599 0.09581-1.882391 0.08359-2.890626 0.123047 0.375257-1.919011 0.735536-4.055376 1.109376-5.96875zm23 0c1.101694 0.06481 2.187614 0.06582 3.253906 0.210938 0.933183 0.128216 1.330665 0.665144 1.291015 1.603515-0.02549 0.572041-0.13047 1.450503-0.289062 2-0.352599 1.222981-1.222811 1.903035-2.474609 2.03125-0.934599 0.09581-1.88239 0.08359-2.890626 0.123047 0.375257-1.919011 0.735536-4.055376 1.109376-5.96875z" style="fill-rule:evenodd;isolation:isolate;opacity:.2"/>
 <path d="m29.636719 22c-0.834256 4.43235-1.802463 9.546488-2.636719 13.974609h2.789062c0.480618-2.542435 0.954531-5.46177 1.429688-7.974609 0.948949 0 1.84903-0.033107 2.746094 0.007812 0.882045 0.03946 1.217187 0.482027 1.068359 1.376954-0.204809 1.220481-0.444631 2.837024-0.669922 4.054687-0.155655 0.839962-0.314667 1.681124-0.478515 2.560547 0.91345-2e-6 1.788256 0.002351 2.662109-0.011719 0.071-0.0014 0.18459-0.118041 0.205078-0.201172 0.07783-0.312871 0.124882-0.636571 0.183594-0.955078 0.335887-1.809583 0.695327-3.817048 1.003906-5.630859 0.271711-1.601001-0.367813-2.61857-1.884765-2.951172-0.718199-0.157846-1.469718-0.177105-2.207032-0.210938-0.72912-0.033819-1.460956-0.005859-2.21875-0.005859 0.222559-1.190885 0.575094-2.853592 0.794922-4.033203h-2.787109zm-12.488281 4.003906c-0.089211 0-0.1791 0.012955-0.275391 0.021485-0.865212 4.429786-2.007835 9.543413-2.873047 13.974609h2.914062c0.219491-1.113083 0.722212-2.592287 0.921876-3.675781 0.038229-0.208527 0.121528-0.259222 0.318359-0.257813 0.957256 0.0042 1.916669 0.024692 2.871094-0.017578 0.601825-0.02677 1.208135-0.105748 1.792968-0.248047 2.190643-0.53259 4.408504-3.158964 4.16211-6.453125-0.12603-1.689349-1.086473-2.733755-2.746094-3.136718-0.505533-0.12399-1.034993-0.192174-1.554687-0.199219-1.843711-0.02254-3.687543-0.007813-5.53125-0.007813zm23 0c-0.089211 0-0.1791 0.012955-0.275391 0.021485-0.865212 4.429786-2.007835 9.543413-2.873047 13.974609h2.914062c0.219491-1.113083 0.722211-2.592287 0.921876-3.675781 0.038229-0.208527 0.121528-0.259222 0.318359-0.257813 0.957256 0.0042 1.916669 0.024692 2.871094-0.017578 0.601825-0.02677 1.208135-0.105748 1.792968-0.248047 2.190643-0.53259 4.408504-3.158964 4.16211-6.453125-0.12603-1.689349-1.086473-2.733755-2.746094-3.136718-0.505533-0.12399-1.034993-0.192174-1.554687-0.199219-1.843711-0.02254-3.687542-0.007813-5.53125-0.007813zm-20.75 2.033203c1.101693 0.06481 2.187614 0.065816 3.253906 0.210938 0.933183 0.128216 1.330665 0.665144 1.291015 1.603515-0.02549 0.572041-0.13047 1.450503-0.289062 2-0.352599 1.222981-1.222811 1.903035-2.474609 2.03125-0.934599 0.095811-1.882391 0.083593-2.890626 0.123047 0.375257-1.919011 0.735536-4.055376 1.109376-5.96875zm23 0c1.101694 0.06481 2.187614 0.065816 3.253906 0.210938 0.933183 0.128216 1.330665 0.665144 1.291015 1.603515-0.02549 0.572041-0.13047 1.450503-0.289062 2-0.352599 1.222981-1.222811 1.903035-2.474609 2.03125-0.934599 0.095811-1.88239 0.083593-2.890626 0.123047 0.375257-1.919011 0.735536-4.055376 1.109376-5.96875z" style="fill-rule:evenodd;fill:#ffffff;isolation:isolate"/>
 <path d="M 6.8007812 4 C 5.2495812 4 4 5.2495812 4 6.8007812 L 4 7.8007812 C 4 6.2495813 5.2495812 5 6.8007812 5 L 57.199219 5 C 58.750419 5 60 6.2495812 60 7.8007812 L 60 6.8007812 C 60 5.2495813 58.750419 4 57.199219 4 L 6.8007812 4 z" style="fill:#ffffff;opacity:.1"/>
</svg>
