<svg width="64" height="64" version="1" xmlns="http://www.w3.org/2000/svg">
 <path d="m8.663998 26.804037-1.663998 0.196 11.718786 12.695985 0.2812-1.695998-10.335988-11.195987zm46.671944 0-10.335988 11.195987 0.282 1.695998 11.717986-12.695985-1.663998-0.196zm-23.335972 20.195976-15.632781 8.79199-0.3672 2.207997 15.999981-8.999989 15.999981 8.999989l-0.368-2.207997-15.631981-8.79199z" style="opacity:.2"/>
 <path d="M 31.99997,7.0000624 39.99996,24.000042 56.99994,26.00004 44.999954,39.000024 47.999951,57.000002 31.99997,48.000013 15.999989,57.000002 18.999986,39.000024 7,26.00004 23.99998,24.000042 Z" style="fill:#e6412b"/>
 <path d="m36.998384 42.99946h-9.959388v-2.029598l3.492396-3.502396q0.659899-0.660819 1.197958-1.217798 0.53808-0.556979 0.923859-1.085639 0.38578-0.528659 0.598979-1.076199 0.2132-0.547539 0.2132-1.180038 0-0.698579-0.456859-1.085639-0.4467-0.387059-1.208119-0.387059-0.802039 0-1.543138 0.368179-0.741119 0.36818-1.553298 1.047879l-1.703998-1.877998q0.456859-0.387059 0.954319-0.736339 0.497459-0.358719 1.096439-0.632499 0.598979-0.27378 1.319798-0.43426 0.720799-0.169919 1.614218-0.169919 1.065999 0 1.908638 0.273759 0.852799 0.27376 1.451778 0.783539 0.598979 0.50034 0.913699 1.217799 0.324879 0.717459 0.324879 1.614298 0 0.811859-0.304559 1.557658-0.30456 0.736339-0.832479 1.453798-0.52792 0.708019-1.228419 1.416039-0.690359 0.698579-1.482238 1.425478l-1.786798 1.670938v0.13216h6.050793v2.454397z" style="opacity:.2"/>
 <path d="m36.998384 41.999479h-9.959388v-2.029597l3.492396-3.502396q0.659899-0.660819 1.197958-1.217799 0.53808-0.556979 0.923859-1.085638 0.38578-0.52866 0.598979-1.076199 0.2132-0.547539 0.2132-1.180039 0-0.698579-0.456859-1.085638-0.4467-0.38706-1.208119-0.38706-0.802039 0-1.543138 0.36818-0.741119 0.368179-1.553298 1.047878l-1.703998-1.877997q0.456859-0.38706 0.954319-0.736339 0.497459-0.35872 1.096439-0.6325 0.598979-0.273779 1.319798-0.434259 0.720799-0.16992 1.614218-0.16992 1.065999 0 1.908638 0.27376 0.852799 0.273759 1.451778 0.783539 0.598979 0.500339 0.913699 1.217798 0.324879 0.717459 0.324879 1.614298 0 0.811859-0.304559 1.557658-0.30456 0.73634-0.832479 1.453799-0.52792 0.708019-1.228419 1.416038-0.690359 0.698579-1.482238 1.425478l-1.786798 1.670938v0.13216h6.050793v2.454397z" style="fill:#ffd93a"/>
 <path d="M 32 7 L 24 24 L 7 26 L 7.8320312 26.902344 L 24 25 L 32 8 L 40 25 L 56.167969 26.902344 L 57 26 L 40 24 L 32 7 z M 18.859375 39.847656 L 16 57 L 16.183594 56.896484 L 19 40 L 18.859375 39.847656 z M 45.140625 39.847656 L 45 40 L 47.816406 56.896484 L 48 57 L 45.140625 39.847656 z" style="fill:#ffffff;opacity:.2"/>
</svg>
