<svg width="64" height="64" version="1" xmlns="http://www.w3.org/2000/svg">
 <path d="m6.0000002 40.408128v1.999984c0 1.433989 1.1617111 2.62898 2.60158 2.58998h7.3983428v-1.999984h-7.3983428c-1.4403889 2e-3 -2.60158-1.153991-2.60158-2.58998zm51.9996 0c0 1.433989-1.161991 2.58998-2.60198 2.58998h-7.397943v1.999984h7.398343c1.439989 0 2.60198-1.155991 2.60198-2.58998v-1.999984zm-41.999677 14.591887v1.999985h31.999754v-1.999985z" style="opacity:.2"/>
 <rect transform="matrix(0,-1,-1,0,0,0)" x="-44" y="-58" width="22" height="52" rx="2.588" ry="2.6" style="fill:#4f4f4f"/>
 <path d="m47.999677 24.000062v-17.999862h-31.999754v17.999862z" style="fill:#cccccc"/>
 <path d="m13.999939 32h35.999722v5.999954h-35.999722z" style="opacity:.1"/>
 <path d="m47.999677 55.999815v-21.99983h-31.999754v21.99983z" style="fill:#cccccc"/>
 <path d="m9.9999694 24.000062h1.9999846v1.999984h-1.9999846z" style="fill:#f34235"/>
</svg>
