<svg width="64" height="64" version="1" xmlns="http://www.w3.org/2000/svg">
 <path d="m10 56v2c0 1.662 1.338 3 3 3h38c1.662 0 3-1.338 3-3v-2c0 1.662-1.338 3-3 3h-38c-1.662 0-3-1.338-3-3z" style="opacity:.2"/>
 <path d="m54 57v-50c0-1.662-1.338-3-3-3h-38c-1.662 0-3 1.338-3 3v50c0 1.662 1.338 3 3 3h38c1.662 0 3-1.338 3-3z" style="fill:#cccccc"/>
 <path d="m13 4c-1.662 0-3 1.338-3 3v1c0-1.662 1.338-3 3-3h38c1.662 0 3 1.338 3 3v-1c0-1.662-1.338-3-3-3h-38z" style="fill:#ffffff;opacity:.1"/>
 <path d="M 63.958,45.848 A 16,16 0 0 1 48,61 16,16 0 0 1 32.042,46.152 16,16 0 0 0 32,47 16,16 0 0 0 48,63 16,16 0 0 0 64,47 16,16 0 0 0 63.95704,45.84766 Z" style="fill-rule:evenodd;opacity:.2"/>
 <path d="m19.5 22c-1.375 0-2.5 1.25-2.5 2.5v15c0 1.25 1.125 2.5 2.5 2.5h25c1.375 0 2.5-1.25 2.5-2.5v-15c0-1.25-1.125-2.5-2.5-2.5zm0.5 3h24v14h-24zm2 2v10h3v-5.599609l2.5 2.5 2.5-2.5v5.599609h3v-10h-3l-2.5 2.5-2.5-2.5zm15 0v6h-2l2.5 4h2l2.5-4h-2v-6z" style="opacity:.5"/>
 <g transform="matrix(2,0,0,2,6,0)">
  <circle cx="21" cy="23" r="8" style="fill-rule:evenodd;fill:#ff8c50"/>
 </g>
 <path d="m40 50.436v3.564h3.5638l9.0008-9.0008-3.5638-3.5638zm15.7172-8.5782c0.37696-0.37694 0.37696-0.9709 0-1.34786l-2.2274-2.2274c-0.37696-0.37696-0.97092-0.37696-1.34786 0l-1.862 1.874 3.564 3.564z" style="fill:#ffffff"/>
</svg>
