<svg width="64" height="64" version="1" xmlns="http://www.w3.org/2000/svg">
 <path d="m57.876991 31.998906a4.5998879 4.3944839 0 0 1 -2.175841 2.808653l-21.398409 11.801026-21.402409 11.801025a4.5998879 4.3944839 0 0 1 -6.8985316 -3.800873v2.000039a4.5998879 4.3944839 0 0 0 6.8969316 3.804072l21.402409-11.800225 21.400409-11.806226a4.5998879 4.3944839 0 0 0 2.176041 -4.808091z" style="opacity:.2"/>
 <path d="m10.70649 4.0009518a4.5998879 4.3944839 0 0 0 -4.7064896 4.3926839v47.216902a4.5998879 4.3944839 0 0 0 6.8995316 3.802472l21.400409-11.802225 21.400409-11.804226a4.5998879 4.3944839 0 0 0 0 -7.611145l-21.400409-11.804826-21.400409-11.804025a4.5998879 4.3944839 0 0 0 -2.193642 -0.5870112z" style="fill:#4f4f4f"/>
 <path d="m16.000191 16.999389v16.000306l9.000172-6.000115 9.000172 6.000115-18.000344 12.000229v4.000076l24.000459-16.000305-12.000229-8.000153-12.00023-8.000153z" style="fill-rule:evenodd;opacity:.2"/>
 <path d="m16.000191 15.999181v16.000306l9.000172-6.000115 9.000172 6.000115-18.000344 12.000229v4.000076l24.000459-16.000305-12.000229-8.000153-12.00023-8.000153z" style="fill-rule:evenodd;fill:#79ce24"/>
 <path d="m10.707031 4.0019531a4.5998879 4.3944839 0 0 0 -4.707031 4.390625v1.0019531a4.5998879 4.3944839 0 0 1 4.707031 -4.390625 4.5998879 4.3944839 0 0 1 2.191407 0.5859376l21.402343 11.804687 21.400391 11.800781a4.5998879 4.3944839 0 0 1 2.261719 3.314454 4.5998879 4.3944839 0 0 0 -2.261719 -4.314454l-21.400391-11.800781-21.402343-11.80664a4.5998879 4.3944839 0 0 0 -2.191407 -0.5859375z" style="fill:#ffffff;opacity:.1"/>
</svg>
