<svg width="64" height="64" version="1" xmlns="http://www.w3.org/2000/svg">
 <rect transform="rotate(90)" x="4" y="-60" width="38" height="38" rx="3" ry="3" style="opacity:.2"/>
 <rect transform="rotate(90)" x="3" y="-60" width="38" height="38" rx="3" ry="3" style="fill:#c2c2c2"/>
 <g transform="matrix(2,0,0,2,8,-7)" style="opacity:.2">
  <path d="m10 11v-1h12v1z"/>
  <path d="m10 14v-1h12v1z"/>
  <path d="m10 17v-1h12v1z"/>
  <path d="m10 20v-1h8v1z"/>
 </g>
 <rect transform="rotate(90)" x="22" y="-42" width="38" height="38" rx="3" ry="3" style="opacity:.2"/>
 <rect transform="rotate(90)" x="21" y="-42" width="38" height="38" rx="3" ry="3" style="fill:#d3d3d3"/>
 <path d="m25 3c-1.662 0-3 1.338-3 3v1c0-1.662 1.338-3 3-3h32c1.662 0 3 1.338 3 3v-1c0-1.662-1.338-3-3-3h-32z" style="fill:#ffffff;opacity:.1"/>
 <path d="m7 21c-1.662 0-3 1.338-3 3v1c0-1.662 1.338-3 3-3h32c1.662 0 3 1.338 3 3v-1c0-1.662-1.338-3-3-3h-32z" style="fill:#ffffff;opacity:.1"/>
 <g transform="matrix(2,0,0,2,-10,11)" style="opacity:.5">
  <path d="m10 11v-1h12v1z"/>
  <path d="m10 14v-1h12v1z"/>
  <path d="m10 17v-1h12v1z"/>
  <path d="m10 20v-1h8v1z"/>
 </g>
</svg>
