<svg width="64" height="64" version="1" xmlns="http://www.w3.org/2000/svg">
 <rect transform="matrix(0,-1,-1,0,0,0)" x="-61" y="-60" width="56" height="56" rx="2.8" ry="2.8" style="opacity:.2"/>
 <rect transform="matrix(0,-1,-1,0,0,0)" x="-60" y="-60" width="56" height="56" rx="2.8" ry="2.8" style="fill:#4f4f4f"/>
 <path d="M 19.398438,11 C 18.622838,11 18,11.622837 18,12.398438 L 18,25 18,37.601562 C 18,38.377162 18.622838,39 19.398438,39 L 32,39 A 14,14 0 0 0 46,25 14,14 0 0 0 32,11 L 19.398438,11 Z M 26.601562,19 32,19 a 5.9999998,5.9999998 0 0 1 6,6 5.9999998,5.9999998 0 0 1 -6,6 l -5.398438,0 C 26.269162,31 26,30.730838 26,30.398438 L 26,25 26,19.601562 C 26,19.269162 26.269162,19 26.601562,19 Z" style="opacity:.2"/>
 <path d="M 19.398438,10 C 18.622838,10 18,10.622837 18,11.398438 L 18,24 18,36.601562 C 18,37.377162 18.622838,38 19.398438,38 L 32,38 A 14,14 0 0 0 46,24 14,14 0 0 0 32,10 L 19.398438,10 Z M 26.601562,18 32,18 a 5.9999998,5.9999998 0 0 1 6,6 5.9999998,5.9999998 0 0 1 -6,6 l -5.398438,0 C 26.269162,30 26,29.730838 26,29.398438 L 26,24 26,18.601562 C 26,18.269163 26.269162,18 26.601562,18 Z" style="fill:#ffffff"/>
 <path d="M 6.8007812 4 C 5.2495812 4 4 5.2495812 4 6.8007812 L 4 7.8007812 C 4 6.2495813 5.2495812 5 6.8007812 5 L 57.199219 5 C 58.750419 5 60 6.2495812 60 7.8007812 L 60 6.8007812 C 60 5.2495813 58.750419 4 57.199219 4 L 6.8007812 4 z" style="fill:#ffffff;opacity:.1"/>
 <g transform="translate(.99999973 2.6624095e-7)" style="opacity:.2;stroke:#000000">
  <path d="m13.490626 56.478489-2.984701-4.47705m-2.9847026-1.492353s5.9694036 0.693197 5.9694036-2.984696c0-3.677898-5.9694036-2.984701-5.9694036-2.984701m1.477e-4 11.938947v-11.938801" style="fill:none;stroke-linecap:round;stroke-width:3;stroke:#000000"/>
  <path d="m18.521364 51.5h5.969398m-5.969249 4.978636v-8.954098m5.969249 8.954098v-8.954098m-5.969398 0s0-2.984703 2.984699-2.984703 2.984699 2.984703 2.984699 2.984703" style="fill:none;stroke-linecap:round;stroke-linejoin:bevel;stroke-width:3;stroke:#000000"/>
  <path d="m29.50015 44.560941v11.938801h5.969397" style="fill:none;stroke-linecap:round;stroke-linejoin:round;stroke-width:3;stroke:#000000"/>
  <path d="m40.50015 44.560941v11.938801h5.969397" style="fill:none;stroke-linecap:round;stroke-linejoin:round;stroke-width:3;stroke:#000000"/>
  <path d="m51.489927 56.478636v-5.969403m4.477049-5.969398-4.477049 5.969398m-4.477049-5.969398 4.477049 5.969398" style="fill:none;stroke-linecap:round;stroke-width:3;stroke:#000000"/>
 </g>
 <g transform="translate(.99999973 -1)">
  <path d="m13.490626 56.478489-2.984701-4.47705m-2.9847026-1.492353s5.9694036 0.693197 5.9694036-2.984696c0-3.677898-5.9694036-2.984701-5.9694036-2.984701m1.477e-4 11.938947v-11.938801" style="fill:none;stroke-linecap:round;stroke-width:3;stroke:#f07400"/>
  <path d="m18.521364 51.5h5.969398m-5.969249 4.978636v-8.954098m5.969249 8.954098v-8.954098m-5.969398 0s0-2.984703 2.984699-2.984703 2.984699 2.984703 2.984699 2.984703" style="fill:none;stroke-linecap:round;stroke-linejoin:bevel;stroke-width:3;stroke:#f07400"/>
  <path d="m29.50015 44.560941v11.938801h5.969397" style="fill:none;stroke-linecap:round;stroke-linejoin:round;stroke-width:3;stroke:#f07400"/>
  <path d="m40.50015 44.560941v11.938801h5.969397" style="fill:none;stroke-linecap:round;stroke-linejoin:round;stroke-width:3;stroke:#f07400"/>
  <path d="m51.489927 56.478636v-5.969403m4.477049-5.969398-4.477049 5.969398m-4.477049-5.969398 4.477049 5.969398" style="fill:none;stroke-linecap:round;stroke-width:3;stroke:#f07400"/>
 </g>
</svg>
