<svg width="64" height="64" version="1" xmlns="http://www.w3.org/2000/svg">
 <path d="m10 55v2c0 1.662 1.338 3 3 3h38c1.662 0 3-1.338 3-3v-2c0 1.662-1.338 3-3 3h-38c-1.662 0-3-1.338-3-3z" style="opacity:.2"/>
 <path d="m54 56v-50c0-1.662-1.338-3-3-3h-38c-1.662 0-3 1.338-3 3v50c0 1.662 1.338 3 3 3h38c1.662 0 3-1.338 3-3z" style="fill:#cccccc"/>
 <path d="M 63.958,45.848 A 16,16 0 0 1 48,61 16,16 0 0 1 32.042,46.152 16,16 0 0 0 32,47 16,16 0 0 0 48,63 16,16 0 0 0 64,47 16,16 0 0 0 63.95704,45.84766 Z" style="fill-rule:evenodd;opacity:.2"/>
 <circle cx="48" cy="46" r="16" style="fill-rule:evenodd;fill:#c03630"/>
 <path d="m48 40c-1.93854 0.01824-3.889525 0.444658-5.578125 1.363281-0.67302 0.420809-1.480984 0.964124-2.089844 1.511719-0.958 0.900404-1.778031 1.950092-2.332031 3.126953 1.51868 3.215919 4.856497 5.573617 8.529297 5.921875 2.4092 0.261789 4.931028-0.138846 7.048828-1.283203 0.673-0.420809 1.480984-0.964123 2.089844-1.511719 0.958-0.902323 1.778031-1.952012 2.332031-3.126953-1.518-3.215728-4.857297-5.574384-8.529297-5.921875-0.488-0.05568-0.980703-0.080078-1.470703-0.080078zm0.003906 2c2.139701-0.0474 4.034404 1.867621 3.994141 3.996094 0.06857 2.352448-2.274639 4.382659-4.591797 3.943359-2.340165-0.274786-3.984532-2.901019-3.214844-5.125 0.492105-1.636189 2.099539-2.831675 3.814453-2.8125l-0.001953-0.001953zm-0.003906 1.996094a1.9999991 2.0004471 0 0 0 -2 2.003906 1.9999991 2.0004471 0 0 0 2 2 1.9999991 2.0004471 0 0 0 2 -2 1.9999991 2.0004471 0 0 0 -2 -1.996094v-0.007812z" style="fill-rule:evenodd;fill:#ffffff"/>
 <path d="m13 3c-1.662 0-3 1.338-3 3v1c0-1.662 1.338-3 3-3h38c1.662 0 3 1.338 3 3v-1c0-1.662-1.338-3-3-3h-38z" style="fill:#ffffff;opacity:.1"/>
</svg>
