<svg width="64" height="64" version="1" xmlns="http://www.w3.org/2000/svg">
 <path d="m10 56.2v2c0 1.55 1.2264 2.8 2.75 2.8h38.5c1.524 0 2.75-1.25 2.75-2.8v-2c0 1.55-1.226 2.8-2.75 2.8h-38.5c-1.5236 0-2.75-1.25-2.75-2.8z" style="opacity:.2"/>
 <path d="m54 57.2v-50.4c0-1.5512-1.226-2.8-2.75-2.8h-38.5c-1.5236 0-2.75 1.2488-2.75 2.8v50.4c0 1.552 1.2264 2.8 2.75 2.8h38.5c1.524 0 2.75-1.248 2.75-2.8z" style="fill:#f58435"/>
 <path d="m22 24c-3.3136 0-6 2.6864-6 6s2.6864 6 6 6 6-2.6864 6-6h-6v-6zm10 0v4h14v-4h-14zm0 8v4h14v-4h-14zm-16 8v4h24v-4h-24z" style="fill:#d6352f"/>
 <path d="m12.75 4c-1.5236 0-2.75 1.2495812-2.75 2.8007812v1c0-1.5511999 1.2264-2.8007812 2.75-2.8007812h38.5c1.524 0 2.75 1.2495812 2.75 2.8007812v-1c0-1.5512-1.226-2.8007812-2.75-2.8007812h-38.5z" style="fill:#ffffff;opacity:.2"/>
</svg>
