<svg width="64" height="64" version="1.1" viewBox="0 0 64 64" xmlns="http://www.w3.org/2000/svg">
 <path d="m4.0000004 46.200069v1.999971c0 1.495979 1.3041814 2.79996 2.80076 2.79996h50.39928c1.495978 0 2.79996-1.303981 2.79996-2.79996v-1.999971c0 1.495978-1.303982 2.79996-2.79996 2.79996h-50.39928c-1.4957787 0-2.79996-1.303982-2.79996-2.79996z" style="opacity:.2"/>
 <path d="m6.7999604 14.000543h50.39928c1.495978 0 2.79996 1.303382 2.79996 2.79996v30.399566c0 1.495978-1.303982 2.79996-2.79996 2.79996h-50.39928c-1.4965786 0-2.79996-1.303982-2.79996-2.79996v-30.399566c0-1.496578 1.3033814-2.79996 2.79996-2.79996z" style="fill:#cccccc"/>
 <path d="m49.813345 20.000458c4.571135 0.0011 4.171541 4.88993 4.171541 4.88993v4.277539c0 1.573977-1.983972 4.83193-1.983972 4.83193v2.999958l3.997943 1.855973v3.143955h-15.999771v-3.143955l3.993942-1.855973v-2.999958s-1.989731-3.255753-1.978651-4.83253v-4.277539s-0.399994-4.88873 4.17114-4.88993" style="opacity:.2"/>
 <path d="m9.9999146 36.000229-3.9999428-3.999943 3.9999428-3.999943z" style="fill:#289b36"/>
 <path d="m13.749861 26.000372h10.49985c0.887987 0 1.749975 0.983986 1.749975 1.999971v7.999886c0 1.015165-0.861708 1.999971-1.749975 1.999971h-10.49985c-0.888187 0-1.749975-0.983986-1.749975-1.999971v-7.999886c0-1.015165 0.861708-1.999971 1.749975-1.999971z" style="fill:#ecb64e"/>
 <circle transform="rotate(-90)" cx="-32" cy="28" r="12" style="fill:#484848"/>
 <rect transform="matrix(.70710678 -.70710678 .70710678 .70710678 0 0)" x="-5.85" y="49.45" width="6" height="16" rx="3" ry="2.908" style="fill:#484848"/>
 <path d="m23.765867 28.765869c-2.355887 2.355888-2.353093 6.115169 2e-6 8.468262 2.353095 2.353094 6.112374 2.355888 8.468263 2e-6 2.355887-2.355886 2.353093-6.115169 0-8.468262-2.353094-2.353094-6.112375-2.355888-8.468263 0z" style="opacity:.2"/>
 <path d="m23.765867 27.765869c-2.355887 2.355888-2.353093 6.11517 2e-6 8.468263s6.112374 2.355887 8.468263 2e-6c2.355887-2.355886 2.353093-6.11517 0-8.468263-2.353094-2.353093-6.112375-2.355887-8.468263 0z" style="fill:#5d99ff"/>
 <path d="m6.8007812 14c-1.4965786 0-2.8007812 1.304203-2.8007812 2.800781v1c0-1.496578 1.3042026-2.800781 2.8007812-2.800781h50.398438c1.495978 0 2.800781 1.304203 2.800781 2.800781v-1c0-1.496578-1.304803-2.800781-2.800781-2.800781h-50.398438z" style="fill:#ffffff;opacity:.2"/>
</svg>
