<svg width="64" height="64" version="1.1" viewBox="0 0 64 64" xmlns="http://www.w3.org/2000/svg">
 <path d="M 32,5 A 28,28 0 0 0 4,33 28,28 0 0 0 32,61 28,28 0 0 0 60,33 28,28 0 0 0 32,5 Z" style="opacity:.2"/>
 <path d="M 32,4 A 28,28 0 0 0 4,32 28,28 0 0 0 32,60 28,28 0 0 0 60,32 28,28 0 0 0 32,4 Z" style="fill:#74bfcc"/>
 <path d="m47.02 31.16s3.771662-5.043608 1.444-9.902-13.62488-1.385041-22.309952 4.680898c-6.252456 4.366918-9.263923 12.06513-9.154048 17.061102" style="fill:none;stroke-linecap:round;stroke-width:2;stroke:#3f3f3f"/>
 <path d="m25 45s1.429096 5.818376 7.770956 6.07 9.029766-10.485356 8.119044-21.039818c-0.655632-7.598246-3.508426-14.627351-7.89-17.030182" style="fill:none;stroke-linecap:round;stroke-width:2;stroke:#3f3f3f"/>
 <path d="m27 19.2s-8.817531-5.324574-11.394 0.830524 5.964976 17.412484 16.189292 20.185476c7.136746 1.935596 15.143374-0.375908 17.204708-1.216" style="fill:none;stroke-linecap:round;stroke-width:2;stroke:#3f3f3f"/>
 <ellipse cx="33" cy="31" rx="2.126" ry="2.126" style="fill:#3f3f3f;stroke-width:1.7489965;stroke:#3f3f3f"/>
 <path d="M 32 4 A 28 28 0 0 0 4 32 A 28 28 0 0 0 4.0214844 32.40625 A 28 28 0 0 1 32 5 A 28 28 0 0 1 59.978516 32.578125 A 28 28 0 0 0 60 32 A 28 28 0 0 0 32 4 z" style="fill:#ffffff;opacity:.2"/>
 <path d="M 32.859376,10.003906 A 3,3 0 0 0 30.402344,11.5 3,3 0 0 0 31.5,15.597656 3,3 0 0 0 35.597656,14.5 3,3 0 0 0 34.5,10.402344 3,3 0 0 0 32.859376,10.003906 Z M 48.929688,36 A 3,3 0 0 0 47.5,36.402344 3,3 0 0 0 46.402344,40.5 3,3 0 0 0 50.5,41.597656 3,3 0 0 0 51.597656,37.5 3,3 0 0 0 48.929688,36 Z M 17,40 a 3,3 0 0 0 -3,3 3,3 0 0 0 3,3 3,3 0 0 0 3,-3 3,3 0 0 0 -3,-3 z" style="fill:#3f3f3f"/>
 <path d="m33 13a1 1 0 0 0 -1 1 1 1 0 0 0 1 1 1 1 0 0 0 1 -1 1 1 0 0 0 -1 -1zm16 26a1 1 0 0 0 -1 1 1 1 0 0 0 1 1 1 1 0 0 0 1 -1 1 1 0 0 0 -1 -1zm-32 4a1 1 0 0 0 -1 1 1 1 0 0 0 1 1 1 1 0 0 0 1 -1 1 1 0 0 0 -1 -1z" style="opacity:.2"/>
 <path d="m33 12a1 1 0 0 0 -1 1 1 1 0 0 0 1 1 1 1 0 0 0 1 -1 1 1 0 0 0 -1 -1zm16 26a1 1 0 0 0 -1 1 1 1 0 0 0 1 1 1 1 0 0 0 1 -1 1 1 0 0 0 -1 -1zm-32 4a1 1 0 0 0 -1 1 1 1 0 0 0 1 1 1 1 0 0 0 1 -1 1 1 0 0 0 -1 -1z" style="fill:#74bfcc"/>
</svg>
