<svg width="64" height="64" version="1" xmlns="http://www.w3.org/2000/svg">
 <path d="m8.0508008 21.191718c-0.0318 0.406005-0.050801 0.80001-0.050801 1.144014 0 0 0.00986 0.951572 0.250003 2.836034 0.2040025 1.462998 1.8102022 11.608341 3.3438412 14.679778 0.595187 1.201215 0.990172 1.697381 2.156226 2.226627 3.36024 0.78141 15.174183 4.710657 16.457199 2.004024 1.050013-2.748033 1.574019-7.284088 1.792022-9.08211 0 1.213815 0.186642 6.121274 3.500042 7.273488 1.312936 0.452206 4.021249 0.855771 6.781282 1.167975 2.315028 0.256823 3.517243 1.154194 3.683645 6.250075 6e-3 -0.274003 0.036-0.440005 0.036-0.762009 0-6.254076-1.220015-7.212087-3.718045-7.488091-2.760033-0.312003-5.470066-0.716008-6.782082-1.168014-3.31404-1.152014-3.500042-6.060073-3.500042-7.274088-0.218003 1.798022-0.742009 6.334077-1.792022 9.08211-1.284016 2.706033-13.097959-1.222015-16.458199-2.004024-1.166014-0.530007-1.561019-1.026013-2.156226-2.226027-1.533619-3.072037-3.1398383-13.21816-3.3438408-14.680178-0.1118014-0.87801-0.165402-1.510018-0.1992024-1.980024zm47.93458 12.148547c-0.0072 1.331616-0.0334 2.542431-0.113282 3.394641-0.748229 7.942296-1.996784 12.669154-2.50783 14.218972-2.590031 7.836095-4.806058 8.046098-11.078134 8.046098-7.526091 0-9.964121-1.292016-10.232124-6.442078-0.016 0.346004-0.054 0.642008-0.054 1.032012 0 6.010073 2.284027 7.41009 10.286124 7.41009 6.273876 0 8.489103-0.209743 11.078334-8.046897 0.511046-1.549799 1.759621-6.276676 2.50783-14.218972 0.118702-1.266116 0.146782-3.182439 0.113282-5.394666zm-15.984194 15.66019c-2.823434 0-4.000048 0-4.000048 2.000024 0 0.380165 0.0803 0.668608 0.203122 0.917971 0.438006-0.908011 1.62602-0.918011 3.796046-0.918011v-2.000024z" style="opacity:.2"/>
 <path d="m28.184244 4.0052983c-1.862022-0.0396-3.478042 0.1270015-4.14005 0.3090037-1.042012 0.2776034-2.606031 0.8686105-3.244039 1.7692214-0.434005 0.6042073-0.80001 1.3798167-0.80001 2.4554297 0.016 2.0300249-0.0258 3.7100449 0 5.7566699 0 1.142414-0.395404 1.67842-1.571419 1.70502h-5.385865c-1.151574 0-2.026024-0.0252-2.690832 0.270204-0.6720085 0.303803-1.1508143 0.695608-1.5082186 1.175814-0.7248088 0.943611-0.8438102 2.703033-0.8438102 3.889047 0 0 0.00804 0.950611 0.248183 2.835034 0.2040024 1.462998 1.8138218 11.607541 3.3474408 14.678978 0.595187 1.201214 0.989792 1.6982 2.155826 2.227427 3.36024 0.781409 15.173183 4.710857 16.456399 2.004224 1.050473-2.749033 1.573579-7.284088 1.792062-9.08211 0 1.213815 0.187762 6.123074 3.501242 7.275288 1.312936 0.452206 4.020649 0.852611 6.780682 1.164814 2.49803 0.278004 3.718045 1.236015 3.718045 7.490091 0 3.802046-0.232003 4.070049-4.500054 4.070049-3.854047 0-5.500067 0-5.500067-2.000024s1.176534-2.000024 4.000048-2.000024v-3.999849c-5.647068 0-8.000496 0-8.000496 6.58988 0 6.010273 2.287027 7.41029 10.287524 7.41029 6.273876 0 8.487503-0.210003 11.076734-8.047298 0.511046-1.549798 1.760461-6.276276 2.50863-14.218372 0.470006-5.01406-0.454005-20.156244-1.188014-23.99429v-0.0056c-0.426005-2.237427-1.778021-3.33124-3.016036-3.7676456-1.328017-0.4712057-4.022049-0.9448114-7.39809-1.3344161-2.728033-0.3174039-6.336077-0.6932084-8.2701-0.6324077 0-1.4000169-0.932011-2.562031-2.178026-3.059037-1.66002-0.6462078-3.774046-0.8954108-5.638069-0.9352113z" style="fill:#7ec242"/>
 <path d="m48.000484 33h-6.000072c0-2.209227 1.343156-4.000048 3.000036-4.000048s3.000036 1.790881 3.000036 4.000048z" style="opacity:.2"/>
 <path d="m48.000484 31.999837h-6.000072c0-2.209227 1.343156-4.000048 3.000036-4.000048s3.000036 1.790881 3.000036 4.000048z" style="fill:#ffffff"/>
 <path d="m28.183594 4.0078125c-1.862022-0.039601-3.478617 0.1265916-4.140625 0.3085937-1.040012 0.2776035-2.60418 0.8689204-3.242188 1.7695313-0.434005 0.6042074-0.800781 1.377512-0.800781 2.453125 0.002994 0.3519156 2.45e-4 0.6681368 0 0.9980469 0-1.075613 0.366776-1.8489176 0.800781-2.453125 0.638008-0.9006109 2.202176-1.4919279 3.242188-1.7695313 0.662008-0.1820022 2.278603-0.3481947 4.140625-0.3085937 1.864023 0.0396005 3.976699 0.2871859 5.636718 0.9335937 1.246015 0.497006 2.179688 1.6585769 2.179688 3.0585938 1.934023-0.0608007 5.543498 0.3154086 8.269531 0.6328125 3.376041 0.3896046 6.070421 0.8608266 7.398438 1.3320316 1.238015 0.436406 2.58962 1.532104 3.015625 3.769531v0.003906c0.571966 2.988107 1.23886 12.723849 1.291015 19.294922 0.001672 0.09707 0.00833 0.212626 0.009766 0.308594 0.036-6.506078-0.690774-17.414724-1.300781-20.601563v-0.003906c-0.426005-2.237427-1.77761-3.333126-3.015625-3.7695312-1.328017-0.4712058-4.022397-0.9424266-7.398438-1.3320313-2.726033-0.3174039-6.335508-0.6936132-8.269531-0.6328125 0-1.4000169-0.933673-2.5615878-2.179688-3.0585938-1.660019-0.6464078-3.772695-0.8939932-5.636718-0.9335937zm-8.183594 10.289062c0 1.142414-0.394298 1.676525-1.570312 1.703125h-5.386719c-1.151614 0-2.026599-0.025873-2.691407 0.269531-0.672008 0.303803-1.1504077 0.695576-1.507812 1.175781-0.7248088 0.943612-0.84375 2.704611-0.84375 3.890626 0 0 0.0149347 0.24406 0.0195312 0.335937 0.0452135-1.113386 0.2225092-2.445165 0.8242188-3.228516 0.3574043-0.480206 0.835804-0.871978 1.507812-1.175781 0.664808-0.295404 1.539793-0.269531 2.691407-0.269531h5.386719c1.176014-0.0266 1.570312-0.560711 1.570312-1.703125 8.54e-4 -0.328907-0.001098-0.67238 0-0.998047zm20 31.703125c-5.646068 0-8 0.001717-8 6.591797 0 0.107901 0.012267 0.194665 0.017578 0.292969 0.173346-5.867268 2.550821-5.884766 7.982422-5.884766v-1zm5.964844 4.693359c-0.06 2.950036-0.558797 3.306641-4.464844 3.306641-3.120038 0-4.772915-0.020018-5.294922-1.082031-0.132001 0.274003-0.205078 0.620026-0.205078 1.082031 0 0.159803 0.029455 0.286588 0.050781 0.421875 0.03448-0.190876 0.08472-0.359481 0.154297-0.503906 0.522007 1.062013 2.174884 1.082031 5.294922 1.082031 3.906047 0 4.404844-0.358558 4.464844-3.308594 0.01029 0.296946 0.018369 0.599564 0.02539 0.910156 0.003118-0.221567 0.009766-0.418356 0.009766-0.669921 0-0.460005-0.021156-0.834277-0.035156-1.238282z" style="fill:#ffffff;opacity:.2"/>
</svg>
