<svg width="64" height="64" version="1" xmlns="http://www.w3.org/2000/svg">
 <rect transform="matrix(0,-1,-1,0,0,0)" x="-61" y="-60" width="56" height="56" rx="2.8" ry="2.8" style="opacity:.2"/>
 <rect transform="matrix(0,-1,-1,0,0,0)" x="-60" y="-60" width="56" height="56" rx="2.8" ry="2.8" style="fill:#4f4f4f"/>
 <path d="m8 16v5 9 5 15h5v-15h9v-5h-9v-9h9v-5h-9-5zm17 0v34h5 9v-5h-9v-10h9v-5h-9v-9h9v-5h-9-5zm17 0v34h5v-15h4v15h5v-15-5-14h-5v14h-4v-14h-5z" style="opacity:.2"/>
 <rect x="8" y="15" width="5" height="34" style="fill:#df4545"/>
 <rect transform="rotate(90)" x="15" y="-22" width="5" height="14" style="fill:#df4545"/>
 <rect transform="rotate(90)" x="29" y="-22" width="5" height="14" style="fill:#df4545"/>
 <rect x="25" y="15" width="5" height="34" style="fill:#df4545"/>
 <rect transform="rotate(90)" x="15" y="-39" width="5" height="14" style="fill:#df4545"/>
 <rect transform="rotate(90)" x="29" y="-39" width="5" height="14" style="fill:#df4545"/>
 <rect x="42" y="15" width="5" height="34" style="fill:#df4545"/>
 <rect transform="rotate(90)" x="29" y="-56" width="5" height="14" style="fill:#df4545"/>
 <rect transform="rotate(90)" x="44" y="-39" width="5" height="14" style="fill:#df4545"/>
 <rect x="51" y="15" width="5" height="34" style="fill:#df4545"/>
 <path d="m8 15v1h5 9v-1h-9-5zm17 0v1h5 9v-1h-9-5zm17 0v1h5v-1h-5zm9 0v1h5v-1h-5zm-38 14v1h9v-1h-9zm17 0v1h9v-1h-9zm17 0v1h4v-1h-4zm-17 15v1h9v-1h-9z" style="fill:#ffffff;opacity:.1"/>
 <path d="M 6.8007812 4 C 5.2495813 4 4 5.2495813 4 6.8007812 L 4 7.8007812 C 4 6.2495813 5.2495813 5 6.8007812 5 L 57.199219 5 C 58.750419 5 60 6.2495813 60 7.8007812 L 60 6.8007812 C 60 5.2495813 58.750419 4 57.199219 4 L 6.8007812 4 z" style="fill:#ffffff;opacity:.1"/>
</svg>
