<svg width="64" height="64" version="1" xmlns="http://www.w3.org/2000/svg">
 <path d="m4.0507997 32.000415c-0.0118 0.333995-0.050799 0.66199-0.050799 0.999985-3e-7 15.511779 12.487821 27.9996 27.999599 27.9996s27.9996-12.487821 27.9996-27.9996c0-0.337675-0.03904-0.66527-0.05078-0.999985-0.527992 15.041785-12.775817 26.999614-27.9496 26.999614-15.174183 0-27.421608-11.957829-27.9496-26.999614z" style="opacity:.2"/>
 <rect x="4" y="4" width="55.999" height="55.999" rx="28" style="fill:#4f4f4f"/>
 <path d="m30.009628 51c12.251825-3.155555 30.689562-15.434179 12.061028-31.999542 8.279282 10.505849 10.050856 13.999799-8.040685 13.999799 17.593748 3.53455 2.041371 10.584649-6.030514 11.999829z" style="opacity:.2"/>
 <path d="m34.10157 15.011315c-12.251825 3.155555-30.691561 15.434979-12.061828 31.999542-8.279281-10.50585-10.050856-13.9998 8.040685-13.9998-17.593748-3.534549-2.04137-10.584648 6.030514-11.999828z" style="opacity:.2"/>
 <path d="m30.009628 49.990172c12.251825-3.155555 30.689562-15.43418 12.061028-31.999543 8.279282 10.50585 10.050856 13.9998-8.040685 13.9998 17.593748 3.53455 2.041371 10.584649-6.030514 11.999829z" style="fill:#df574d"/>
 <path d="m34.10157 14.000686c-12.251825 3.155755-30.691561 15.43378-12.061828 31.999543-8.278881-10.50585-10.050656-13.9998 8.041885-13.9998-17.594748-3.533949-2.04197-10.583849 6.029914-11.999828z" style="fill:#79de7d"/>
 <path d="M 32 4 C 16.488222 4 4 16.488222 4 32 C 4 32.113554 4.0112846 32.224034 4.0175781 32.335938 C 4.3691163 17.134398 16.710946 5 32 5 C 47.289054 5 59.630884 17.134398 59.982422 32.335938 C 59.988797 32.224034 60 32.113554 60 32 C 60 16.488222 47.511778 4 32 4 z" style="fill:#ffffff;opacity:.1"/>
</svg>
