<svg width="64" height="64" version="1" xmlns="http://www.w3.org/2000/svg">
 <rect transform="matrix(0,-1,-1,0,0,0)" x="-60" y="-59" width="55" height="55" rx="2.75" ry="2.75" style="opacity:.2"/>
 <rect transform="matrix(0,-1,-1,0,0,0)" x="-59" y="-59" width="55" height="55" rx="2.75" ry="2.75" style="fill:#4f4f4f"/>
 <path d="m10 12v6 35h7v-33h36v-8h-37zm12 13v16h7v-16zm12 0v21h-12v7h19v-7-21zm12 0v28h7v-28z" style="opacity:.2"/>
 <path d="m10 11v6 35h7v-33h36v-8h-37zm12 13v16h7v-16zm12 0v21h-12v7h19v-7-21zm12 0v28h7v-28z" style="fill:#3693ee"/>
 <path d="m6.75 4c-1.5235 0-2.75 1.2265-2.75 2.75v1c0-1.5235 1.2265-2.75 2.75-2.75h49.5c1.5235 0 2.75 1.2265 2.75 2.75v-1c0-1.5235-1.2265-2.75-2.75-2.75h-49.5z" style="fill:#ffffff;opacity:.1"/>
 <path d="m10 11v1h6 37v-1h-37-6zm12 13v1h7v-1h-7zm12 0v1h7v-1h-7zm12 0v1h7v-1h-7zm-24 21v1h12v-1h-12z" style="fill:#ffffff;opacity:.1"/>
</svg>
