<svg width="64" height="64" version="1" xmlns="http://www.w3.org/2000/svg">
 <rect transform="matrix(0,-1,-1,0,0,0)" x="-61" y="-60" width="56" height="56" rx="2.8" ry="2.8" style="opacity:.2"/>
 <rect transform="matrix(0,-1,-1,0,0,0)" x="-60" y="-60" width="56" height="56" rx="2.8" ry="2.8" style="fill:#d2d2d2"/>
 <path d="M 6.8008 4 C 5.2496 4 4 5.2496 4 6.8008 L 4 7.8008 C 4 6.2496 5.2496 5 6.8008 5 L 57.199 5 C 58.75 5 60 6.2496 60 7.8008 L 60 6.8008 C 60 5.2496 58.75 4 57.199 4 L 6.8008 4 z" style="fill:#ffffff;opacity:.2"/>
 <circle cx="20" cy="33" r="10" style="opacity:.1"/>
 <circle cx="20" cy="32" r="10" style="fill:#296ec6"/>
 <circle cx="44" cy="33" r="10" style="opacity:.1"/>
 <circle cx="44" cy="32" r="10" style="fill:#e03c90"/>
</svg>
