<svg width="64" height="64" version="1" xmlns="http://www.w3.org/2000/svg">
 <rect transform="matrix(0,-1,-1,0,0,0)" x="-61" y="-60" width="56" height="56" rx="2.8" ry="2.8" style="opacity:.2"/>
 <rect transform="matrix(0,-1,-1,0,0,0)" x="-60" y="-60" width="56" height="56" rx="2.8" ry="2.8" style="fill:#4f4f4f"/>
 <path d="m8 9v6h6v-6h-6zm42 0v6h6v-6h-6zm-42 14v6h6v-6h-6zm42 0v6h6v-6h-6zm-42 14v6h6v-6h-6zm42 0v6h6v-6h-6zm-42 14v6h6v-6h-6zm42 0v6h6v-6h-6z" style="opacity:.2"/>
 <path d="m32 13h14s-8.975478 1.913764-10 5.238095c-0.772458 2.506435 4.536862 4.573151 4 7.142859-0.643778 3.081458-7.361078 3.107962-8 6.190474-0.604766 2.917722 6.502456 5.157372 6 8.095238-0.529486 3.095906-7.942996 3.524506-8 6.666668-0.055 3.032014 8 6.666666 8 6.666666h-20z" style="opacity:.2"/>
 <path d="m32 12h14s-8.975478 1.913764-10 5.238095c-0.772458 2.506434 4.536862 4.573151 4 7.142859-0.643778 3.081458-7.361078 3.107962-8 6.190474-0.604766 2.917722 6.502456 5.157372 6 8.095238-0.529486 3.095906-7.942996 3.524506-8 6.666668-0.055 3.032014 8 6.666666 8 6.666666h-20z" style="fill:#cccccc"/>
 <path d="m8 8v6h6v-6h-6zm42 0v6h6v-6h-6zm-42 14v6h6v-6h-6zm42 0v6h6v-6h-6zm-42 14v6h6v-6h-6zm42 0v6h6v-6h-6zm-42 14v6h6v-6h-6zm42 0v6h6v-6h-6z" style="fill:#989898"/>
 <path d="M 6.8007812 4 C 5.2495812 4 4 5.2495812 4 6.8007812 L 4 7.8007812 C 4 6.2495813 5.2495812 5 6.8007812 5 L 57.199219 5 C 58.750419 5 60 6.2495812 60 7.8007812 L 60 6.8007812 C 60 5.2495813 58.750419 4 57.199219 4 L 6.8007812 4 z" style="fill:#ffffff;opacity:.1"/>
</svg>
