<svg width="64" height="64" version="1" xmlns="http://www.w3.org/2000/svg">
 <path d="m4.0507997 32.000415c-0.0118 0.333995-0.050799 0.66199-0.050799 0.999985-3e-7 15.511779 12.487821 27.9996 27.999599 27.9996s27.9996-12.487821 27.9996-27.9996c0-0.337675-0.03904-0.66527-0.05078-0.999985-0.527992 15.041785-12.775817 26.999614-27.9496 26.999614-15.174183 0-27.421608-11.957829-27.9496-26.999614z" style="opacity:.2"/>
 <rect transform="matrix(0,-1,-1,0,0,0)" x="-60" y="-60" width="55.999" height="55.999" rx="28" ry="28" style="fill:#f18d00"/>
 <path d="m51.997314 26.936487c-3.747946-15.844973-18.143741-15.712175-26.835616-11.575634-9.147069 4.623734-15.770975 16.471564-12.158226 26.393622 5.58372 14.967786 26.137626 14.743789 33.093526 0.823988 2.063971-5.103927 3.579949-8.727875-2.09797-13.577805v5.999914l-1.999971-3.999943s-1.775055 4.19594-3.660748 6.109713c-2.623962 2.661962-6.339909 1.889973-6.339909 1.889973 0.70139 2.651362 5.999914 3.999942 5.999914 3.999942-13.754603 6.509907-14.156997-4.370137-13.9998-6.9999 0.451394-7.568691 6.536507-13.442607 14.553192-13.021213 2.555964 0.195997 7.445894 2.021971 7.445894 2.021971-1.839874-4.21014-4.459936-5.211926-5.999914-5.999914 6.036713-1.996092 9.258667 4.305738 11.999828 7.934286z" style="fill-rule:evenodd;opacity:.2"/>
 <path d="m51.997314 25.936516c-3.747946-15.844974-18.143741-15.712176-26.835616-11.575635-9.147069 4.622934-15.770975 16.471565-12.158226 26.393623 5.58372 14.967786 26.137626 14.743789 33.093526 0.823988 2.063971-5.103927 3.579949-8.727875-2.09797-13.577806v5.999914l-1.999971-3.999942s-1.775055 4.19594-3.660748 6.109712c-2.623962 2.661962-6.339909 1.889973-6.339909 1.889973 0.70139 2.651362 5.999914 3.999943 5.999914 3.999943-13.754603 6.509907-14.156997-4.370138-13.9998-6.9999 0.451394-7.568692 6.536507-13.442608 14.553192-13.021214 2.555964 0.195998 7.445894 2.021971 7.445894 2.021971-1.839974-4.210139-4.459936-5.211925-5.999914-5.999914 6.036713-1.996091 9.258667 4.305739 11.999828 7.934287z" style="fill-rule:evenodd;fill:#ffffff"/>
 <path d="M 32 4 C 16.488222 4 4 16.488222 4 32 C 4 32.113554 4.0112846 32.224034 4.0175781 32.335938 C 4.3691163 17.134398 16.710946 5 32 5 C 47.289054 5 59.630884 17.134398 59.982422 32.335938 C 59.988797 32.224034 60 32.113554 60 32 C 60 16.488222 47.511778 4 32 4 z" style="fill:#ffffff;opacity:.2"/>
</svg>
