<svg width="64" height="64" version="1" xmlns="http://www.w3.org/2000/svg" xmlns:xlink="http://www.w3.org/1999/xlink">
 <defs>
  <linearGradient id="linearGradient4652" x1="30.577" x2="45" y1="19.129" y2="27.456" gradientTransform="matrix(1.4117647,0,0,1.3333334,-1.529411,-1e-6)" gradientUnits="userSpaceOnUse">
   <stop style="stop-color:#7d329a" offset="0"/>
   <stop style="stop-color:#ac5cce" offset="1"/>
  </linearGradient>
 </defs>
 <path d="m23.599914 31.892121c-2.845584 8.800204-8.283017 18.563138-19.599914 16.926864 0.7483236-7.360536 3.8040168-14.771386 8.12051-20.717982 0.909925-1.253546 2.787434-1.809294 3.564053-2.900898z" style="opacity:.2"/>
 <path d="m28.03761 5.0000019c-6.723978 0.099124-20.187365 11.075772-21.856258 24.275675-0.480575 3.801048 0.01272 7.848208 1.2574148 11.629244 0.6878852 11.865788 16.269139 19.446324 26.000451 20.089366 11.905276 0.280496 23.024288-9.848502 25.209364-12.567132 3.9962-5.910106-1.659994-18.650242-6.706212-26.069416-5.537802-8.141931-15.86112-14.070415-23.90476-17.357737z" style="opacity:.2"/>
 <path d="m23.599914 30.89212c-2.845584 8.800204-8.283017 18.563138-19.599914 16.926864 0.7483236-7.360536 3.8040168-14.771386 8.12051-20.717982 0.909925-1.253546 2.787434-1.809294 3.564053-2.900898z" style="fill:#653578"/>
 <path d="m28.03761 4c-6.723978 0.099124-20.187365 11.075772-21.856258 24.275676-0.480575 3.801048 0.01272 7.848208 1.2574148 11.629244 0.6878852 11.865788 16.269139 19.446324 26.000451 20.089366 11.905276 0.280496 23.024288-9.848502 25.209364-12.567132 3.9962-5.910106-1.659994-18.650242-6.706212-26.069416-5.537802-8.141932-15.86112-14.070416-23.90476-17.357738z" style="fill:#7d329a"/>
 <path d="m28.037109 4c-6.723978 0.099124-20.186575 11.075487-21.855468 24.275391-0.1425696 1.127636-0.1910109 2.277964-0.1679687 3.435547 0.0167683-0.819219 0.0665558-1.633435 0.1679687-2.435547 1.6688934-13.199904 15.13149-24.176267 21.855468-24.275391 8.04364 3.287322 18.366495 9.21549 23.904297 17.357422 3.723764 5.474842 7.768907 13.841387 8.033203 20.228516 0.1605-6.490185-4.110611-15.461347-8.033203-21.228516-5.537802-8.141932-15.860657-14.0701-23.904297-17.357422z" style="fill:#ffffff;opacity:.1"/>
 <ellipse transform="matrix(.67816244 -.73491204 .7242635 .6895233 0 0)" cx="-18.045" cy="43.13" rx="9.587" ry="12.251" style="fill:#fcf8fd"/>
 <path d="m44.74828 21.000001c8.874192 2.90367 18.719214 8.452096 17.069182 20-7.422418-0.7636-14.895578-3.88167-20.892174-8.286272-1.264088-0.928496-1.824506-2.844334-2.925288-3.636806z" style="opacity:.2"/>
 <path d="m44.74828 20c8.874192 2.90367 18.719214 8.452096 17.069182 20-7.422418-0.7636-14.895578-3.88167-20.892174-8.286272-1.264088-0.928496-1.824506-2.844334-2.925288-3.636806z" style="fill:url(#linearGradient4652)"/>
 <path d="m24 31.000273c1.389626 6.033622-10.594466 12.256006-16.606944 9.839622-2.893969-1.163072-3.3871228-5.591258-3.265203-9.055682 0.122896-3.06864-0.18493-4.002998 2.8871158-4.295836 5.8180956-0.539006 16.374406 0.86059 16.985032 3.511896z" style="opacity:.2"/>
 <path d="m23.888828 29.626274c1.389626 6.033622-10.594466 12.256006-16.606944 9.839622-2.893969-1.163072-3.3871228-5.591258-3.265203-9.055682 0.122896-3.06864-0.18493-4.002998 2.8871158-4.295836 5.8180956-0.539006 16.374406 0.86059 16.985032 3.511896z" style="fill:#ffc102"/>
 <circle transform="scale(-1,1)" cx="-8" cy="23" r="6" style="opacity:.2"/>
 <circle transform="scale(-1,1)" cx="-21" cy="22" r="9" style="opacity:.2"/>
 <circle transform="scale(-1,1)" cx="-8" cy="22" r="6" style="fill:#ffffff"/>
 <circle transform="scale(-1,1)" cx="-21" cy="21" r="9" style="fill:#ffffff"/>
 <circle transform="scale(-1,1)" cx="-18" cy="22" r="4" style="fill:#3f3f3f"/>
 <circle transform="scale(-1,1)" cx="-7" cy="22" r="3" style="fill:#3f3f3f"/>
</svg>
