<svg width="64" height="64" version="1" xmlns="http://www.w3.org/2000/svg">
 <path d="m31.999129 3.000059c-1.571499 0-3.144048 0.5857443-4.318781 1.7604495l-23.919924 23.92259c-2.3494678 2.349408-2.3461349 6.281166 0.00343 8.630576l23.919924 23.922591c2.349468 2.349411 6.28473 2.352743 8.634198 0.0034l23.919924-23.92259c2.349467-2.34941 2.349468-6.284534 0-8.633943l-23.919987-23.922624c-1.174733-1.174705-2.747283-1.7604495-4.318783-1.7604495z" style="opacity:.2"/>
 <path d="m31.999129 2.0000277c-1.571499 0-3.144048 0.5857443-4.318781 1.7604495l-23.919924 23.922591c-2.3494678 2.349408-2.3461349 6.281166 0.00343 8.630576l23.919924 23.922591c2.349468 2.349411 6.28473 2.352743 8.634198 0.0034l23.919924-23.92259c2.349467-2.34941 2.349468-6.284534 0-8.633943l-23.919987-23.922625c-1.174733-1.174705-2.747283-1.7604495-4.318783-1.7604495z" style="fill:#c2352a"/>
 <path d="m20.134766 11.306641l-2.828125 2.828125 8.693359 8.693359v21.171875h4v-17.171875l7.585938 7.585937 2.828124-2.828124-20.279296-20.279297z" style="fill-rule:evenodd;fill:#3f3f3f"/>
 <path d="m28 17a5.9999999 5.9999999 0 0 0 -6 6 5.9999999 5.9999999 0 0 0 6 6 5.9999999 5.9999999 0 0 0 6 -6 5.9999999 5.9999999 0 0 0 -6 -6zm11 11a5.9999999 5.9999999 0 0 0 -6 6 5.9999999 5.9999999 0 0 0 6 6 5.9999999 5.9999999 0 0 0 6 -6 5.9999999 5.9999999 0 0 0 -6 -6zm-11 10a5.9999999 5.9999999 0 0 0 -6 6 5.9999999 5.9999999 0 0 0 6 6 5.9999999 5.9999999 0 0 0 6 -6 5.9999999 5.9999999 0 0 0 -6 -6z" style="opacity:.2"/>
 <path d="m28 16a5.9999999 5.9999999 0 0 0 -6 6 5.9999999 5.9999999 0 0 0 6 6 5.9999999 5.9999999 0 0 0 6 -6 5.9999999 5.9999999 0 0 0 -6 -6zm11 11a5.9999999 5.9999999 0 0 0 -6 6 5.9999999 5.9999999 0 0 0 6 6 5.9999999 5.9999999 0 0 0 6 -6 5.9999999 5.9999999 0 0 0 -6 -6zm-11 10a5.9999999 5.9999999 0 0 0 -6 6 5.9999999 5.9999999 0 0 0 6 6 5.9999999 5.9999999 0 0 0 6 -6 5.9999999 5.9999999 0 0 0 -6 -6z" style="fill:#ffffff"/>
 <path d="M 32 2 C 30.428501 2 28.85442 2.5850604 27.679688 3.7597656 L 3.7597656 27.683594 C 2.460141 28.983185 1.8843413 30.765757 2.0234375 32.498047 C 2.1343057 31.098695 2.7099225 29.73341 3.7597656 28.683594 L 27.679688 4.7597656 C 28.85442 3.5850604 30.428501 3 32 3 C 33.5715 3 35.143626 3.5850606 36.318359 4.7597656 L 60.238281 28.683594 C 61.288124 29.733411 61.86495 31.099905 61.976562 32.5 C 62.114731 30.76679 61.537906 28.983186 60.238281 27.683594 L 36.318359 3.7597656 C 35.143626 2.5850606 33.5715 2 32 2 z" style="fill:#ffffff;opacity:.2"/>
</svg>
