<svg width="64" height="64" version="1" xmlns="http://www.w3.org/2000/svg">
 <rect transform="matrix(0,-1,-1,0,0,0)" x="-60" y="-60" width="56" height="56" rx="2.8" ry="2.8" style="fill:#4f4f4f"/>
 <path d="M 6.8007812,4 C 5.2496034,4 4,5.2495828 4,6.8002056 L 4,7.8 C 4,6.2493772 5.2496034,4.9997944 6.8007812,4.9997944 l 50.3984378,0 C 58.749197,4.9997944 60,6.2493772 60,7.8 L 60,6.8002056 C 60,5.2495828 58.749197,4 57.199219,4 L 6.8007812,4 Z" style="fill:#ffffff;opacity:.1"/>
 <path d="m 4,57.2 0,0.999795 C 4,59.749454 5.2504035,61 6.8007812,61 L 57.199219,61 C 58.749197,61 60,59.749454 60,58.199795 L 60,57.2 c 0,1.54966 -1.250803,2.800205 -2.800781,2.800205 l -50.3984378,0 C 5.2504035,60.000205 4,58.74966 4,57.2 Z" style="opacity:.2"/>
 <g transform="matrix(1.9999714,0,0,2,5.72e-5,1)" style="opacity:.2">
  <rect x="5" y="5" width="6" height="6" rx=".75" ry=".75"/>
  <rect x="13" y="5" width="6" height="6" rx=".75" ry=".75"/>
  <rect x="5" y="13" width="6" height="6" rx=".75" ry=".75"/>
  <rect x="13" y="13" width="6" height="6" rx=".75" ry=".75"/>
  <rect x="5" y="21" width="6" height="6" rx=".75" ry=".75"/>
 </g>
 <g transform="matrix(1.9999714,0,0,2,5.72e-5,1.146e-4)" style="fill:#81ff85">
  <rect x="5" y="5" width="6" height="6" rx=".75" ry=".75"/>
  <rect x="13" y="5" width="6" height="6" rx=".75" ry=".75"/>
  <rect x="5" y="13" width="6" height="6" rx=".75" ry=".75"/>
  <rect x="13" y="13" width="6" height="6" rx=".75" ry=".75"/>
  <rect x="5" y="21" width="6" height="6" rx=".75" ry=".75"/>
 </g>
</svg>
