<svg width="64" height="64" version="1" xmlns="http://www.w3.org/2000/svg">
 <path d="m4 56v2c0 1.662 1.338 3 3 3h50c1.662 0 3-1.338 3-3v-2c0 1.662-1.338 3-3 3h-50c-1.662 0-3-1.338-3-3z" style="opacity:.2"/>
 <rect transform="matrix(0,-1,-1,0,0,0)" x="-60" y="-60" width="56" height="56" rx="3" ry="3" style="fill:#4f4f4f"/>
 <path d="m7 4c-1.662 0-3 1.338-3 3v1c0-1.662 1.338-3 3-3h50c1.662 0 3 1.338 3 3v-1c0-1.662-1.338-3-3-3h-50z" style="fill:#ffffff;opacity:.1"/>
 <path d="m14 15v36h36v-36h-36zm5.414 4h25.172l-6 6h-13.1718l-6-6zm-1.414 1.42l6 6v13.1718l-6 6v-25.172zm28 0v25.172l-6-6v-13.1718l6-6zm-20 6.58h12v12h-12v-12zm-0.58594 14h13.1718l6 6h-25.172l6-6z" style="opacity:.2"/>
 <path d="m14 14v36h36v-36h-36zm5.414 4h25.172l-6 6h-13.1718l-6-6zm-1.414 1.42l6 6v13.1718l-6 6v-25.172zm28 0v25.172l-6-6v-13.1718l6-6zm-20 6.58h12v12h-12v-12zm-0.58594 14h13.1718l6 6h-25.172l6-6z" style="fill:#c4c4c4"/>
 <path d="m16 11a6 6 0 0 0 -6 6 6 6 0 0 0 6 6 6 6 0 0 0 6 -6 6 6 0 0 0 -6 -6zm32 0a6 6 0 0 0 -6 6 6 6 0 0 0 6 6 6 6 0 0 0 6 -6 6 6 0 0 0 -6 -6zm-23 12c-1.65686 0-3 1.34314-3 3s1.34314 3 3 3 3-1.34314 3-3-1.34314-3-3-3zm14 0c-1.65686 0-3 1.34314-3 3s1.34314 3 3 3 3-1.34314 3-3-1.34314-3-3-3zm-14 14a3 3 0 0 0 -3 3 3 3 0 0 0 3 3 3 3 0 0 0 3 -3 3 3 0 0 0 -3 -3zm14 0a3 3 0 0 0 -3 3 3 3 0 0 0 3 3 3 3 0 0 0 3 -3 3 3 0 0 0 -3 -3zm-23 6a6 6 0 0 0 -6 6 6 6 0 0 0 6 6 6 6 0 0 0 6 -6 6 6 0 0 0 -6 -6zm32 0a6 6 0 0 0 -6 6 6 6 0 0 0 6 6 6 6 0 0 0 6 -6 6 6 0 0 0 -6 -6z" style="opacity:.2"/>
 <path d="m16 10a6 6 0 0 0 -6 6 6 6 0 0 0 6 6 6 6 0 0 0 6 -6 6 6 0 0 0 -6 -6zm32 0a6 6 0 0 0 -6 6 6 6 0 0 0 6 6 6 6 0 0 0 6 -6 6 6 0 0 0 -6 -6zm-23 12a3 3 0 0 0 -3 3 3 3 0 0 0 3 3 3 3 0 0 0 3 -3 3 3 0 0 0 -3 -3zm14 0a3 3 0 0 0 -3 3 3 3 0 0 0 3 3 3 3 0 0 0 3 -3 3 3 0 0 0 -3 -3zm-14 14a3 3 0 0 0 -3 3 3 3 0 0 0 3 3 3 3 0 0 0 3 -3 3 3 0 0 0 -3 -3zm14 0a3 3 0 0 0 -3 3 3 3 0 0 0 3 3 3 3 0 0 0 3 -3 3 3 0 0 0 -3 -3zm-23 6a6 6 0 0 0 -6 6 6 6 0 0 0 6 6 6 6 0 0 0 6 -6 6 6 0 0 0 -6 -6zm32 0a6 6 0 0 0 -6 6 6 6 0 0 0 6 6 6 6 0 0 0 6 -6 6 6 0 0 0 -6 -6z" style="fill:#e8e8e8"/>
</svg>
