<svg width="64" height="64" version="1" xmlns="http://www.w3.org/2000/svg">
 <rect transform="matrix(0,-1,-1,0,0,0)" x="-60" y="-52" width="40" height="40" rx="20" ry="20" style="opacity:.2"/>
 <path d="m32 6c-12.600372 0-14.000372 11.294117-14 24h6c-0.14818-12.705883 2.730378-18 8-18 5.26962 0 8.147438 5.294117 8 18h6c-3.72e-4 -12.705883-1.400372-24-14-24z" style="opacity:.2"/>
 <path d="m32 5c-12.600372 0-14.000372 11.294117-14 24h6c-0.14818-12.705883 2.730378-18 8-18 5.26962 0 8.147438 5.294117 8 18h6c-3.72e-4 -12.705883-1.400372-24-14-24z" style="fill:#cccccc"/>
 <path d="m32 5c-12.600372 0-14.000372 11.294117-14 24h0.007812c0.078421-12.290435 1.725048-23 13.992188-23 12.266416 0 13.913081 10.709565 13.992188 23h0.007812c-3.72e-4 -12.705883-1.400372-24-14-24z" style="fill:#ffffff;opacity:.2"/>
 <rect transform="matrix(0,-1,-1,0,0,0)" x="-59" y="-52" width="40" height="40" rx="20" ry="20" style="fill:#a0a0a0"/>
 <rect transform="matrix(0,-1,-1,0,0,0)" x="-53" y="-46" width="28" height="28" rx="14" ry="14" style="fill:#4f4f4f"/>
 <path d="m39.778176 32.221824-3.18198 1.06066-2.903006 0.96951a6 6 0 0 0 -5.93583 1.505364 6 6 0 0 0 0 8.485282 6 6 0 0 0 8.485282 0 6 6 0 0 0 1.508126 -5.944116l0.966748-2.89472z" style="opacity:.2"/>
 <path d="m39.778176 31.221824-3.18198 1.06066-2.903006 0.96951a6 6 0 0 0 -5.93583 1.505364 6 6 0 0 0 0 8.485282 6 6 0 0 0 8.485282 0 6 6 0 0 0 1.508126 -5.944116l0.966748-2.89472z" style="fill:#ff5969"/>
</svg>
