<svg width="64" height="64" version="1.1" xmlns="http://www.w3.org/2000/svg">
 <path d="m62 39.999972-11 18.000028h-37.9998l9.9998-18.000028z" style="fill:#4e8dcc"/>
 <path d="m23 6h20l19 34h-20z" style="fill:#fcc345"/>
 <path d="m23 6-21 34 11 18 19.839844-34.390624z" style="fill:#6cbf48"/>
 <path d="m61.708984 40.478516-0.320312 0.521484h2e-3l-10.390672 17h-37.423828l-0.576172 1h38l11-18z" style="opacity:.2"/>
 <path d="m23 7 18.441406 33h0.558594l-18.441406-33z" style="opacity:.2"/>
 <path d="m32.556641 24.101562-19.556641 33.898438-10.693359-17.498047-0.3066406 0.498047 11 18 19.839844-34.390625z" style="opacity:.2"/>
 <path d="m23 6-21 34 0.3066406 0.501953 20.693359-33.501953h20l18.708984 33.478516 0.291016-0.478516-19-34zm0.960938 34-0.576172 1h18.615234l-0.558594-1z" style="fill:#ffffff;opacity:.2"/>
</svg>
