<svg width="64" height="64" version="1" xmlns="http://www.w3.org/2000/svg">
 <path d="m4.0507997 32.000415c-0.0118 0.333995-0.050799 0.66199-0.050799 0.999985-3e-7 15.511779 12.487821 27.9996 27.999599 27.9996s27.9996-12.487821 27.9996-27.9996c0-0.337675-0.03904-0.66527-0.05078-0.999985-0.527992 15.041785-12.775817 26.999614-27.9496 26.999614-15.174183 0-27.421608-11.957829-27.9496-26.999614z" style="opacity:.2"/>
 <rect transform="matrix(0,-1,-1,0,0,0)" x="-60" y="-60" width="55.999" height="55.999" rx="28" ry="28" style="fill:#5584bb"/>
 <path d="M 32 4 C 16.488222 4 4 16.488222 4 32 C 4 32.113554 4.0112846 32.224034 4.0175781 32.335938 C 4.3691163 17.134398 16.710946 5 32 5 C 47.289054 5 59.630884 17.134398 59.982422 32.335938 C 59.988797 32.224034 60 32.113554 60 32 C 60 16.488222 47.511778 4 32 4 z" style="fill:#ffffff;opacity:.2"/>
 <path d="m23.999714 19.153849a15.999771 15.999771 0 0 0 -6.734503 20.053714l27.465607-15.857774a15.999771 15.999771 0 0 0 -20.731704 -4.19594zm-4.731132 23.515664a15.999771 15.999771 0 0 0 20.731704 4.19594 15.999771 15.999771 0 0 0 6.733903 -20.053713l-27.465607 15.857773z" style="opacity:.2"/>
 <path d="m23.999714 18.144227a15.999771 15.999771 0 0 0 -6.734503 20.053713l27.465607-15.857773a15.999771 15.999771 0 0 0 -20.731704 -4.19634zm-4.731132 23.515664a15.999771 15.999771 0 0 0 20.731704 4.19594 15.999771 15.999771 0 0 0 6.733903 -20.053713l-27.465607 15.857773z" style="fill:#ffffff"/>
 <g transform="matrix(1.9999714,0,0,1.9999714,5.760572e-5,1.0008008)" style="opacity:.2">
  <rect x="14" y="4" width="4" height="2"/>
  <rect x="14" y="26" width="4" height="2"/>
  <rect transform="rotate(90)" x="14" y="-28" width="4" height="2"/>
  <rect transform="rotate(90)" x="14" y="-6" width="4" height="2"/>
  <rect transform="matrix(.70710678 .70710678 -.70710678 .70710678 0 0)" x="20.63" y="-12" width="4" height="2"/>
  <rect transform="matrix(.70710678 .70710678 -.70710678 .70710678 0 0)" x="20.63" y="10" width="4" height="2"/>
  <rect transform="matrix(-.70710678 .70710678 -.70710678 -.70710678 0 0)" x="-2" y="-34.63" width="4" height="2"/>
  <rect transform="matrix(-.70710678 .70710678 -.70710678 -.70710678 0 0)" x="-2" y="-12.63" width="4" height="2"/>
 </g>
 <g transform="matrix(1.9999714,0,0,1.9999714,5.760572e-5,8.866e-4)" style="fill:#ffffff">
  <rect x="14" y="4" width="4" height="2"/>
  <rect x="14" y="26" width="4" height="2"/>
  <rect transform="rotate(90)" x="14" y="-28" width="4" height="2"/>
  <rect transform="rotate(90)" x="14" y="-6" width="4" height="2"/>
  <rect transform="matrix(.70710678 .70710678 -.70710678 .70710678 0 0)" x="20.63" y="-12" width="4" height="2"/>
  <rect transform="matrix(.70710678 .70710678 -.70710678 .70710678 0 0)" x="20.63" y="10" width="4" height="2"/>
  <rect transform="matrix(-.70710678 .70710678 -.70710678 -.70710678 0 0)" x="-2" y="-34.63" width="4" height="2"/>
  <rect transform="matrix(-.70710678 .70710678 -.70710678 -.70710678 0 0)" x="-2" y="-12.63" width="4" height="2"/>
 </g>
</svg>
