<svg width="64" height="64" version="1" xmlns="http://www.w3.org/2000/svg">
 <path d="m4 56v2c0 1.662 1.338 3 3 3h50c1.662 0 3-1.338 3-3v-2c0 1.662-1.338 3-3 3h-50c-1.662 0-3-1.338-3-3z" style="opacity:.2"/>
 <rect transform="matrix(0,-1,-1,0,0,0)" x="-60" y="-60" width="56" height="56" rx="3" ry="3" style="fill:#2095f2"/>
 <path d="m7 4c-1.662 0-3 1.338-3 3v1c0-1.662 1.338-3 3-3h50c1.662 0 3 1.338 3 3v-1c0-1.662-1.338-3-3-3h-50z" style="fill:#ffffff;opacity:.1"/>
 <path d="m22.55 12.7145-8.5312 11.5118 2.4102 4.7852h25.57c-0.24176 6.1298-0.2905 7.6126-1.59766 10.7812-0.77108 1.86922-1.74438 3.042-3.7032 3.957-1.95874 0.91512-5.0934 1.47082-9.8554 1.16406l-0.38672 5.9844c5.3698 0.3459 9.5058-0.1808 12.7812-1.71094 3.2754-1.53022 5.4992-4.168 6.711-7.1054 2.4236-5.8752 1.77258-8.8054 2.1796-15.8984l-0.13-3.172h-25.614l4.9844-6.7226z" style="fill-rule:evenodd;opacity:.2"/>
 <path d="m22.55 11.7032-8.5312 11.5118 2.4102 4.7852h25.57c-0.24176 6.1298-0.2905 7.6126-1.59766 10.7812-0.77108 1.86922-1.74438 3.042-3.7032 3.957-1.95874 0.91512-5.0934 1.47082-9.8554 1.16406l-0.38672 5.9844c5.3698 0.3459 9.5058-0.1808 12.7812-1.71094 3.2754-1.53022 5.4992-4.168 6.711-7.1054 2.4236-5.8752 1.77258-8.8054 2.1796-15.8984l-0.13-3.174h-25.614l4.9844-6.7226z" style="fill-rule:evenodd;fill:#ffffff"/>
</svg>
