<svg width="64" height="64" version="1" xmlns="http://www.w3.org/2000/svg">
 <path d="m4 56v2c0 1.662 1.338 3 3 3h50c1.662 0 3-1.338 3-3v-2c0 1.662-1.338 3-3 3h-50c-1.662 0-3-1.338-3-3z" style="opacity:.2"/>
 <rect transform="matrix(0,-1,-1,0,0,0)" x="-60" y="-60" width="56" height="56" rx="3" ry="3" style="fill:#2095f2"/>
 <path d="m7 4c-1.662 0-3 1.338-3 3v1c0-1.662 1.338-3 3-3h50c1.662 0 3 1.338 3 3v-1c0-1.662-1.338-3-3-3h-50z" style="fill:#ffffff;opacity:.1"/>
 <path d="m42.404297 15.908203c-0.911376 2.43048-1.976238 5.010175-3.191406 7.136719h-11.212891v2.955078h4.074219v5.25c-1.7e-5 0.91128-0.0511 1.97113-0.152344 2.78125h-4.921875v2.96875h4.619141c-0.60744 5.36712-2.684196 9.08595-6.228516 11.71875l2.126953 2.277344c4.152-3.03816 6.582128-7.515133 7.291016-13.996094h6.183594v14h3.037109v-14h5.96875v-2.96875h-5.96875v-8.03125h4.970703v-2.955078h-6.595703c1.113888-1.72152 2.227837-3.996737 3.341797-6.22461l-3.341797-0.912109zm-23.376953 0.091797v6h-5.025391v3h5.025391v7.921875c-1.92408 0.81024-3.799496 1.619568-6.027344 2.429687l1.064453 3.191407c1.8228-0.708864 3.342627-1.418089 4.962891-2.126953v9.570312c-2.4e-5 1.215192-0.253438 1.822266-0.759766 1.822266-1.41792 0-2.583943-0.20235-3.90039-0.607422l0.607421 3.189453c1.21536 0.303787 2.332272 0.457031 3.75 0.457031 1.215072 0 2.07568-0.304525 2.582032-0.912109 0.506328-0.60768 0.695312-1.670469 0.695312-3.189453v-11.847656l4.669922-2.431641-0.457031-2.734375v-2e-3c-1.31664 0.607655-2.898396 1.265816-4.214844 1.974656v-6.705078h5.001953v-3h-5.001953v-6h-2.972656zm14.261718 0.365234-3.037109 0.910157c1.113792 1.41768 1.974423 3.038576 2.582031 4.861328l3.189454-1.0625c-0.607513-1.72152-1.519208-3.291233-2.734376-4.708985zm1.824219 9.634766h5.878907v8.03125h-6.03125c0.101247-0.708864 0.152321-1.615331 0.152343-2.324219v-5.707031z" style="opacity:.2"/>
 <path d="m42.404297 14.908203c-0.911376 2.43048-1.976238 5.010175-3.191406 7.136719h-11.212891v2.955078h4.074219v5.25c-1.7e-5 0.91128-0.0511 1.97113-0.152344 2.78125h-4.921875v2.96875h4.619141c-0.60744 5.36712-2.684196 9.08595-6.228516 11.71875l2.126953 2.277344c4.152-3.03816 6.582128-7.515133 7.291016-13.996094h6.183594v14h3.037109v-14h5.96875v-2.96875h-5.96875v-8.03125h4.970703v-2.955078h-6.595703c1.113888-1.72152 2.227837-3.996737 3.341797-6.22461l-3.341797-0.912109zm-23.376953 0.091797v6h-5.025391v3h5.025391v7.921875c-1.92408 0.81024-3.799496 1.619568-6.027344 2.429687l1.064453 3.191407c1.8228-0.708864 3.342627-1.418089 4.962891-2.126953v9.570312c-2.4e-5 1.215192-0.253438 1.822266-0.759766 1.822266-1.41792 0-2.583943-0.20235-3.90039-0.607422l0.607421 3.189453c1.21536 0.303787 2.332272 0.457031 3.75 0.457031 1.215072 0 2.07568-0.304525 2.582032-0.912109 0.506328-0.60768 0.695312-1.670469 0.695312-3.189453v-11.847656l4.669922-2.431641-0.457031-2.734375v-0.001953c-1.31664 0.607608-2.898396 1.265769-4.214844 1.974609v-6.705078h5.001953v-3h-5.001953v-6h-2.972656zm14.261718 0.365234l-3.037109 0.910157c1.113792 1.41768 1.974423 3.038576 2.582031 4.861328l3.189454-1.0625c-0.607513-1.72152-1.519208-3.291233-2.734376-4.708985zm1.824219 9.634766h5.878907v8.03125h-6.03125c0.101247-0.708864 0.152321-1.615331 0.152343-2.324219v-5.707031z" style="fill:#ffffff"/>
</svg>
