<svg width="64" height="64" version="1" xmlns="http://www.w3.org/2000/svg">
 <rect transform="rotate(90)" x="5" y="-60" width="38" height="38" rx="3" ry="3" style="opacity:.2"/>
 <rect transform="rotate(90)" x="4" y="-60" width="38" height="38" rx="3" ry="3" style="fill:#85aeff"/>
 <path d="m28 16v-2h24v2z" style="opacity:.2"/>
 <path d="m28 22v-2h24v2z" style="opacity:.2"/>
 <path d="m28 28v-2h24v2z" style="opacity:.2"/>
 <path d="m28 34v-2h16v2z" style="opacity:.2"/>
 <rect transform="rotate(90)" x="23" y="-42" width="38" height="38" rx="3" ry="3" style="opacity:.2"/>
 <rect transform="rotate(90)" x="22" y="-42" width="38" height="38" rx="3" ry="3" style="fill:#a7baff"/>
 <path d="m25 4c-1.662 0-3 1.338-3 3v1c0-1.662 1.338-3 3-3h32c1.662 0 3 1.338 3 3v-1c0-1.662-1.338-3-3-3h-32z" style="fill:#ffffff;opacity:.1"/>
 <path d="m7 22c-1.662 0-3 1.338-3 3v1c0-1.662 1.338-3 3-3h32c1.662 0 3 1.338 3 3v-1c0-1.662-1.338-3-3-3h-32z" style="fill:#ffffff;opacity:.1"/>
 <path d="m10 34v-2h24v2z" style="opacity:.5"/>
 <path d="m10 40v-2h24v2z" style="opacity:.5"/>
 <path d="m10 46v-2h24v2z" style="opacity:.5"/>
 <path d="m10 52v-2h16v2z" style="opacity:.5"/>
</svg>
