<svg width="64" height="64" version="1" xmlns="http://www.w3.org/2000/svg">
 <path d="m54 58.2v-50.4c0-1.5512-1.2265-2.8-2.75-2.8h-38.5c-1.5235 0-2.75 1.2488-2.75 2.8v50.4c0 1.5512 1.2265 2.8 2.75 2.8h38.5c1.5235 0 2.75-1.2488 2.75-2.8z" style="opacity:.2"/>
 <path d="m54 57.2v-50.4c0-1.5512-1.2265-2.8-2.75-2.8h-38.5c-1.5235 0-2.75 1.2488-2.75 2.8v50.4c0 1.5512 1.2265 2.8 2.75 2.8h38.5c1.5235 0 2.75-1.2488 2.75-2.8z" style="fill:#cccccc"/>
 <path d="m12.75 4c-1.5235 0-2.75 1.2495812-2.75 2.8007812v1c0-1.5511999 1.2265-2.8007812 2.75-2.8007812h38.5c1.5235 0 2.75 1.2495812 2.75 2.8007812v-1c0-1.5511999-1.2265-2.8007812-2.75-2.8007812h-38.5z" style="fill:#ffffff;opacity:.2"/>
 <path d="m29 24.9375c-1.79744 1.8e-5 -3.784648 0.320008-4.6875 0.875-0.89458 0.547522-1.3125 1.392498-1.3125 2.5625v2.5625c0 0.697518-0.32832 1.155004-0.875 1.5-0.538406 0.337512-1.00678 0.562508-2.125 0.5625v2c2.203302 4e-6 3 0.729986 3 2.125v2.1875c0 1.282512 0.4134 2.242488 1.25 2.8125 0.84487 0.577502 2.836598 0.859994 4.75 0.875v-2.0625c-0.952564-0.015-2.95257-0.185-3.375-0.5-0.422446-0.315002-0.625-0.759994-0.625-1.375v-2.375c0-0.613602-0.228174-2.41749-2.125-2.6875v-0.125c1.896826-0.292496 2.125-1.74704 2.125-2.625v-2.375c0-0.614996 0.202566-1.004982 0.625-1.3125 0.430714-0.31499 2.43072-0.524986 3.375-0.5625zm6 0v2.0625c0.94428 0.03752 2.944286 0.24751 3.375 0.5625 0.422434 0.307518 0.625 0.697504 0.625 1.3125v2.375c0 0.87796 0.228174 2.332504 2.125 2.625v0.125c-1.896826 0.27001-2.125 2.073898-2.125 2.6875v2.375c0 0.615006-0.202554 1.059998-0.625 1.375-0.42243 0.314998-2.422436 0.485-3.375 0.5v2.0625c1.913402-0.015 3.90513-0.297498 4.75-0.875 0.8366-0.570012 1.25-1.529988 1.25-2.8125v-2.1875c0-1.395014 0.796698-2.124996 3-2.125v-2c-1.11822 8e-6 -1.586594-0.224988-2.125-0.5625-0.54668-0.344996-0.875-0.802482-0.875-1.5v-2.5625c0-1.170002-0.41792-2.014978-1.3125-2.5625-0.902852-0.554992-2.89006-0.874982-4.6875-0.875z" style="opacity:.1"/>
 <path d="m29 23.9375c-1.79744 1.8e-5 -3.784648 0.320008-4.6875 0.875-0.89458 0.547522-1.3125 1.392498-1.3125 2.5625v2.5625c0 0.697518-0.32832 1.155004-0.875 1.5-0.538406 0.337512-1.00678 0.562508-2.125 0.5625v2c2.203302 4e-6 3 0.729986 3 2.125v2.1875c0 1.282512 0.4134 2.242488 1.25 2.8125 0.84487 0.577502 2.836598 0.859994 4.75 0.875v-2.0625c-0.952564-0.015-2.95257-0.185-3.375-0.5-0.422446-0.315002-0.625-0.759994-0.625-1.375v-2.375c0-0.613602-0.228174-2.41749-2.125-2.6875v-0.125c1.896826-0.292496 2.125-1.74704 2.125-2.625v-2.375c0-0.614996 0.202566-1.004982 0.625-1.3125 0.430714-0.31499 2.43072-0.524986 3.375-0.5625zm6 0v2.0625c0.94428 0.03752 2.944286 0.24751 3.375 0.5625 0.422434 0.307518 0.625 0.697504 0.625 1.3125v2.375c0 0.87796 0.228174 2.332504 2.125 2.625v0.125c-1.896826 0.27001-2.125 2.073898-2.125 2.6875v2.375c0 0.615006-0.202554 1.059998-0.625 1.375-0.42243 0.314998-2.422436 0.485-3.375 0.5v2.0625c1.913402-0.015 3.90513-0.297498 4.75-0.875 0.8366-0.570012 1.25-1.529988 1.25-2.8125v-2.1875c0-1.395014 0.796698-2.124996 3-2.125v-2c-1.11822 8e-6 -1.586594-0.224988-2.125-0.5625-0.54668-0.344996-0.875-0.802482-0.875-1.5v-2.5625c0-1.170002-0.41792-2.014978-1.3125-2.5625-0.902852-0.554992-2.89006-0.874982-4.6875-0.875z" style="fill:#446f7d"/>
</svg>
