<svg width="64" height="64" version="1" xmlns="http://www.w3.org/2000/svg">
 <path d="m6.0004002 54.398035v1.999985c0 1.439989 1.1611911 2.60198 2.60158 2.60198h46.79564c1.439989 0 2.60198-1.161991 2.60198-2.60198v-1.999985c0 1.439989-1.161991 2.60198-2.60198 2.60198h-46.79564c-1.4407889 0-2.60198-1.161991-2.60198-2.60198z" style="opacity:.2"/>
 <path d="m58 55.400035v-46.799639c0-1.4403889-1.159991-2.59998-2.59998-2.59998h-46.79964c-1.4403889 0-2.59998 1.1595911-2.59998 2.59998v46.799639c0 1.440389 1.1595911 2.59998 2.59998 2.59998h46.79964c1.440389 0 2.59998-1.159591 2.59998-2.59998z" style="fill:#667e47"/>
 <g transform="matrix(1.9999846,0,0,1.9999846,4.4639846e-4,1.0004312)" style="opacity:.2">
  <rect x="10" y="25" width="12" height="3"/>
  <circle cx="18" cy="21" r="2"/>
  <rect x="14" y="6" width="4" height="4"/>
  <rect x="19" y="6" width="4" height="4"/>
  <rect x="24" y="6" width="4" height="4"/>
  <rect x="4" y="11" width="4" height="4"/>
  <rect x="14" y="11" width="4" height="4"/>
  <rect x="19" y="11" width="4" height="4"/>
 </g>
 <g transform="matrix(1.9999846,0,0,1.9999846,4.4639846e-4,4.62e-4)" style="fill:#ffff80">
  <rect x="10" y="25" width="12" height="3"/>
  <circle cx="18" cy="21" r="2"/>
  <rect x="14" y="6" width="4" height="4"/>
  <rect x="19" y="6" width="4" height="4"/>
  <rect x="24" y="6" width="4" height="4"/>
  <rect x="4" y="11" width="4" height="4"/>
  <rect x="14" y="11" width="4" height="4"/>
  <rect x="19" y="11" width="4" height="4"/>
 </g>
 <path d="M 8.6015625 6 C 7.1611736 6 6 7.1611736 6 8.6015625 L 6 9.6015625 C 6 8.1611736 7.1611736 7 8.6015625 7 L 55.398438 7 C 56.838426 7 58 8.1611736 58 9.6015625 L 58 8.6015625 C 58 7.1611736 56.838426 6 55.398438 6 L 8.6015625 6 z" style="fill:#ffffff;opacity:.2"/>
</svg>
