<svg width="64" height="64" version="1" xmlns="http://www.w3.org/2000/svg">
 <rect transform="matrix(0,-1,-1,0,0,0)" x="-61" y="-60" width="56" height="56" rx="2.8" ry="2.8" style="opacity:.2"/>
 <rect transform="matrix(0,-1,-1,0,0,0)" x="-60" y="-60" width="56" height="56" rx="2.8" ry="2.8" style="fill:#5985cb"/>
 <path d="m14 32h28" style="fill:none;stroke-linejoin:round;stroke-width:2;stroke:#4f4f4f"/>
 <path d="m27.8 32 6.2-14" style="fill:none;stroke-linejoin:round;stroke-width:2;stroke:#4f4f4f"/>
 <path d="m28 32 6 14h14" style="fill:none;stroke-linejoin:round;stroke-width:2;stroke:#4f4f4f"/>
 <g transform="matrix(2,0,0,2,0,1)" style="opacity:.2">
  <circle cx="7" cy="16" r="2"/>
  <circle cx="14" cy="16" r="2"/>
  <circle cx="21" cy="16" r="2"/>
  <circle cx="17" cy="23" r="2"/>
  <circle cx="24" cy="23" r="2"/>
  <circle cx="17" cy="9" r="2"/>
 </g>
 <g transform="scale(2)">
  <circle cx="7" cy="16" r="2" style="fill:#ffffff"/>
  <circle cx="14" cy="16" r="2" style="fill:#ffffff"/>
  <circle cx="21" cy="16" r="2" style="fill:#ffffff"/>
  <circle cx="17" cy="23" r="2" style="fill:#ffffff"/>
  <circle cx="24" cy="23" r="2" style="fill:#ffffff"/>
  <circle cx="17" cy="9" r="2" style="fill:#ffffff"/>
 </g>
 <path d="m6.8007812 4c-1.5512 0-2.8007812 1.2495812-2.8007812 2.8007812v1c0-1.5511999 1.2495812-2.8007812 2.8007812-2.8007812h50.398438c1.5512 0 2.800781 1.2495812 2.800781 2.8007812v-1c0-1.5511999-1.249581-2.8007812-2.800781-2.8007812h-50.398438z" style="fill:#ffffff;opacity:.2"/>
</svg>
