<svg width="64" height="64" version="1" xmlns="http://www.w3.org/2000/svg">
 <path d="m10 56v2c0 1.662 1.338 3 3 3h38c1.662 0 3-1.338 3-3v-2c0 1.662-1.338 3-3 3h-38c-1.662 0-3-1.338-3-3z" style="opacity:.2"/>
 <path d="m54 57v-50c0-1.662-1.338-3-3-3h-38c-1.662 0-3 1.338-3 3v50c0 1.662 1.338 3 3 3h38c1.662 0 3-1.338 3-3z" style="fill:#cccccc"/>
 <path d="m13 4c-1.662 0-3 1.338-3 3v1c0-1.662 1.338-3 3-3h38c1.662 0 3 1.338 3 3v-1c0-1.662-1.338-3-3-3h-38z" style="fill:#ffffff;opacity:.1"/>
 <path d="m51.25 60c1.524 0 2.75-1.314 2.75-2.948v-25.052h-44v25.052c0 1.634 1.2264 2.948 2.75 2.948z" style="opacity:.5"/>
 <g transform="matrix(2,0,0,2,0,2)" style="fill:#4c4c4c">
  <path d="m9 5h14v1h-14z"/>
  <path d="m9 8h14v1h-14z"/>
  <path d="m9 11h14v1h-14z"/>
 </g>
 <g transform="matrix(2,0,0,2,0,28)" style="fill:#cccccc">
  <path d="m9 5h14v1h-14z"/>
  <path d="m9 8h14v1h-14z"/>
  <path d="m9 11h14v1h-14z"/>
 </g>
</svg>
