<svg width="64" height="64" version="1" xmlns="http://www.w3.org/2000/svg">
 <rect transform="matrix(0,-1,-1,0,0,0)" x="-61" y="-60" width="56" height="56" rx="28" ry="28" style="opacity:.2"/>
 <rect transform="matrix(0,-1,-1,0,0,0)" x="-60" y="-60" width="56" height="56" rx="28" ry="28" style="fill:#4f75de"/>
 <path d="m28.820312 19.102039a8.0000004 10 45 0 0 -7.421874 3.394532 8.0000004 10 45 0 0 -1.414063 12.728515 8.0000004 10 45 0 0 11.193359 -0.121093l10.904297 10.904296c1.077278 1.077278 2.573948 1.312772 3.357422 0.529297 0.783474-0.783474 0.547981-2.280144-0.529297-3.357421l-2.298828-2.298829 1.416016-1.414062 0.882812 0.884765c0.293803 0.293803 0.844591 0.214003 1.236328-0.177734 0.391738-0.391737 0.471538-0.942525 0.177735-1.236328l-3.181641-3.183594c-0.293803-0.293803-0.846544-0.214003-1.238281 0.177735-0.391737 0.391737-0.469584 0.942525-0.175781 1.236328l0.882812 0.884765-1.414062 1.414063-7.185547-7.185547a8.0000004 10 45 0 0 0.115234 -11.199219 8.0000004 10 45 0 0 -5.306641 -1.980469zm0.414063 2.931641a4 4 0 0 1 2.771484 1.169922 4 4 0 0 1 0 5.65625 4 4 0 0 1 -3.083984 1.160156 4 4 0 0 1 -1.160156 3.083985 4 4 0 0 1 -5.65625 0 4 4 0 0 1 0 -5.658204 4 4 0 0 1 3.083984 -1.158203 4 4 0 0 1 1.158203 -3.083984 4 4 0 0 1 2.886719 -1.169922z" style="opacity:.2"/>
 <g transform="rotate(45,30.878335,34.471867)">
  <path d="m23 22a8.0000004 10 0 0 0 -8 10 8.0000004 10 0 0 0 8 10 8.0000004 10 0 0 0 8 -10 8.0000004 10 0 0 0 -8 -10zm0 3a4 4 0 0 1 4 4 4 4 0 0 1 -1.361328 3 4 4 0 0 1 1.361328 3 4 4 0 0 1 -4 4 4 4 0 0 1 -4 -4 4 4 0 0 1 1.361328 -3 4 4 0 0 1 -1.361328 -3 4 4 0 0 1 4 -4z" style="fill:#ffffff"/>
  <rect x="27" y="30" width="22" height="4" rx="2.75" ry="2" style="fill:#ffffff"/>
  <rect x="39" y="26" width="6" height="2" rx=".75" ry="1" style="fill:#ffffff"/>
  <rect transform="rotate(90)" x="27" y="-43" width="7" height="2" rx=".875" ry="1" style="fill:#ffffff"/>
 </g>
 <path d="m32 4c-15.512 0-28 12.488-28 28 0 0.11345 0.0112805 0.224113 0.0175781 0.335938 0.3515432-15.201757 12.69315-27.335938 27.982422-27.335938s27.630879 12.134181 27.982422 27.335938c0.006298-0.111825 0.017578-0.222488 0.017578-0.335938 0-15.512-12.488-28-28-28z" style="fill:#ffffff;opacity:.2"/>
</svg>
