<svg width="64" height="64" version="1" xmlns="http://www.w3.org/2000/svg">
 <path d="m6.0002 54.398v2c0 1.44 1.1612 2.602 2.6016 2.602h46.796c1.44 0 2.602-1.162 2.602-2.602v-2c0 1.44-1.162 2.602-2.602 2.602h-46.796c-1.4408 0-2.602-1.162-2.602-2.602z" style="opacity:.2"/>
 <rect transform="matrix(0,-1,-1,0,0,0)" x="-58" y="-58" width="52" height="52" rx="2.6" ry="2.6" style="fill:#4f4f4f"/>
 <path d="m20.3682 7c-0.228 0.3934-0.368 0.8428-0.368 1.332v16c0 1.478 1.19 2.668 2.668 2.668h26.664c1.478 0 2.668-1.19 2.668-2.668v-16c0-0.4892-0.14-0.9386-0.368-1.332h-31.264zm19.0624 4h7.1406c0.792 0 1.43 0.5934 1.43 1.332v9.336c0 0.738-0.638 1.332-1.43 1.332h-7.1406c-0.792 0-1.43-0.594-1.43-1.332v-9.336c0-0.7386 0.638-1.332 1.43-1.332z" style="opacity:.2"/>
 <path d="m20.3682 6c-0.228 0.3934-0.368 0.8428-0.368 1.332v16c0 1.478 1.19 2.668 2.668 2.668h26.664c1.478 0 2.668-1.19 2.668-2.668v-16c0-0.4892-0.14-0.9386-0.368-1.332h-31.264zm19.0624 4h7.1406c0.792 0 1.43 0.5934 1.43 1.332v9.336c0 0.738-0.638 1.332-1.43 1.332h-7.1406c-0.792 0-1.43-0.594-1.43-1.332v-9.336c0-0.7386 0.638-1.332 1.43-1.332z" style="fill:#b7b7b7"/>
 <path d="m14.5002 30c-1.385 0-2.5 1.19-2.5 2.668v15.332h40v-15.332c0-1.478-1.116-2.668-2.5-2.668h-35zm-1.7696 23.218c0.339 0.362 0.7766 0.622 1.2656 0.728-0.489-0.106-0.9266-0.366-1.2656-0.728zm38.54 0c-0.34 0.362-0.778 0.622-1.266 0.728 0.49-0.106 0.926-0.366 1.266-0.728z" style="fill:#ffffff"/>
 <path d="m52.0002 49v3.3334c0 1.476-1.116 2.666-2.5 2.666h-35c-1.385 0-2.5-1.19-2.5-2.666v-3.334z" style="opacity:.2"/>
 <path d="m52.0002 48v3.3334c0 1.476-1.116 2.666-2.5 2.666h-35c-1.385 0-2.5-1.19-2.5-2.666v-3.334z" style="fill:#ffae3f"/>
 <path d="M 8.6015625 6 C 7.1611625 6 6 7.1611625 6 8.6015625 L 6 9.6015625 C 6 8.1611625 7.1611625 7 8.6015625 7 L 55.398438 7 C 56.838438 7 58 8.1611625 58 9.6015625 L 58 8.6015625 C 58 7.1611625 56.838437 6 55.398438 6 L 8.6015625 6 z" style="fill:#ffffff;opacity:.1"/>
</svg>
