<svg width="64" height="64" version="1" xmlns="http://www.w3.org/2000/svg">
 <path d="m4 56v2c0 1.662 1.338 3 3 3h50c1.662 0 3-1.338 3-3v-2c0 1.662-1.338 3-3 3h-50c-1.662 0-3-1.338-3-3z" style="opacity:.2"/>
 <rect transform="matrix(0,-1,-1,0,0,0)" x="-60" y="-60" width="56" height="56" rx="3" ry="3" style="fill:#3b709f"/>
 <path d="M 30,19 A 10,10 0 0 1 20,29 10,10 0 0 1 10,19 10,10 0 0 1 20,9 10,10 0 0 1 30,19 Z" style="opacity:.2"/>
 <path d="M 54,19 A 10,10 0 0 1 44,29 10,10 0 0 1 34,19 10,10 0 0 1 44,9 10,10 0 0 1 54,19 Z" style="opacity:.2"/>
 <path d="m54 47a10 10 0 0 1 -10 10 10 10 0 0 1 -10 -10 10 10 0 0 1 10 -10 10 10 0 0 1 10 10z" style="opacity:.2"/>
 <path d="M 30,18 A 10,10 0 0 1 20,28 10,10 0 0 1 10,18 10,10 0 0 1 20,8 10,10 0 0 1 30,18 Z" style="fill:#ffffff"/>
 <path d="M 54,18 A 10,10 0 0 1 44,28 10,10 0 0 1 34,18 10,10 0 0 1 44,8 10,10 0 0 1 54,18 Z" style="fill:#ff6756"/>
 <path d="m30 46a10 10 0 0 1 -10 10 10 10 0 0 1 -10 -10 10 10 0 0 1 10 -10 10 10 0 0 1 10 10z" style="fill:#4d4d4d"/>
 <path d="m54 46a10 10 0 0 1 -10 10 10 10 0 0 1 -10 -10 10 10 0 0 1 10 -10 10 10 0 0 1 10 10z" style="fill:#ff6756"/>
 <path d="m7 4c-1.662 0-3 1.338-3 3v1c0-1.662 1.338-3 3-3h50c1.662 0 3 1.338 3 3v-1c0-1.662-1.338-3-3-3h-50z" style="fill:#ffffff;opacity:.1"/>
</svg>
