<svg width="64" height="64" version="1" xmlns="http://www.w3.org/2000/svg">
 <path d="m4.0507982 32.000818c-0.0118 0.33399-0.050799 0.661981-0.050799 0.999972 4e-7 15.511562 12.487648 27.99921 27.999211 27.99921s27.99921-12.487648 27.99921-27.99921c0-0.337671-0.03904-0.665262-0.05078-0.999972-0.527985 15.041576-12.77564 26.999238-27.949212 26.999238-15.173972 0-27.421227-11.957662-27.949212-26.999238z" style="opacity:.2"/>
 <rect transform="matrix(0,-1,-1,0,0,0)" x="-60" y="-60" width="55.998" height="55.998" rx="27.999" ry="27.999" style="fill:#37a0f2"/>
 <path d="M 32 4.0019531 C 16.488437 4.0019531 4 16.488437 4 32 C 4 32.113445 4.0112809 32.224116 4.0175781 32.335938 C 4.3691114 17.134609 16.711158 5 32 5 C 47.288842 5 59.630889 17.134609 59.982422 32.335938 C 59.988693 32.224116 60 32.113445 60 32 C 60 16.488437 47.511563 4.0019531 32 4.0019531 z" style="fill:#ffffff;opacity:.1"/>
 <path d="m29.333285 17.000902c-0.739979 0-1.333962 0.456587-1.333962 1.024371v15.974232h-5.999323l9.99981 12.218173 10.00019-12.217973h-6.000303v-15.974232c0-0.567924-0.594643-1.024431-1.333302-1.024431h-5.33325zm2.665925 29.217176h-10.799095c-0.663982 0-1.199967 0.619983-1.199967 1.389961 0 0.771978 0.535985 1.391961 1.199967 1.391961h21.597391c0.665981 0 1.201966-0.619983 1.201966-1.391961 0-0.769978-0.535985-1.389961-1.199967-1.389961h-10.799095z" style="opacity:.2"/>
 <path d="m29.333285 16.001297c-0.739979 0-1.333962 0.456587-1.333962 1.024371v15.974232h-5.999323l9.99981 12.218173 10.00019-12.217973h-6.000303v-15.974232c0-0.567924-0.594643-1.024431-1.333302-1.024431h-5.33325zm2.665925 29.217176h-10.799095c-0.663982 0-1.199967 0.619983-1.199967 1.389961 0 0.771978 0.535985 1.391961 1.199967 1.391961h21.597391c0.665981 0 1.201966-0.619983 1.201966-1.391961 0-0.769978-0.535985-1.389961-1.199967-1.389961h-10.799095z" style="fill:#ffffff"/>
</svg>
