<svg width="64" height="64" version="1" xmlns="http://www.w3.org/2000/svg">
 <path d="m4 56v2c0 1.662 1.338 3 3 3h50c1.662 0 3-1.338 3-3v-2c0 1.662-1.338 3-3 3h-50c-1.662 0-3-1.338-3-3z" style="opacity:.2"/>
 <rect transform="matrix(0,-1,-1,0,0,0)" x="-60" y="-60" width="56" height="56" rx="3" ry="3" style="fill:#7767c0"/>
 <path d="m12 19v40h6v-23.172l10.832-10.828h3.168v10.352a6 6 0 0 0 -4 5.648 6 6 0 0 0 6 6 6 6 0 0 0 6 -6 6 6 0 0 0 -4 -5.6524v-10.348h4v-6h-28zm6 6h5.168l-5.168 5.168v-5.168zm16 14a2 2 0 0 1 2 2 2 2 0 0 1 -2 2 2 2 0 0 1 -2 -2 2 2 0 0 1 2 -2z" style="opacity:.2"/>
 <path d="m7 4c-1.662 0-3 1.338-3 3v1c0-1.662 1.338-3 3-3h50c1.662 0 3 1.338 3 3v-1c0-1.662-1.338-3-3-3h-50z" style="fill:#ffffff;opacity:.1"/>
 <path d="m12 18v40h6v-23.172l10.832-10.828h3.168v10.352a6 6 0 0 0 -4 5.648 6 6 0 0 0 6 6 6 6 0 0 0 6 -6 6 6 0 0 0 -4 -5.6524v-10.348h4v-6h-28zm6 6h5.168l-5.168 5.168v-5.168zm16 14a2 2 0 0 1 2 2 2 2 0 0 1 -2 2 2 2 0 0 1 -2 -2 2 2 0 0 1 2 -2z" style="fill:#7fffff"/>
</svg>
