<svg width="64" height="64" version="1" xmlns="http://www.w3.org/2000/svg">
 <path d="m4 52v2c0 1.662 1.338 3 3 3h50c1.662 0 3-1.338 3-3v-2c0 1.662-1.338 3-3 3h-50c-1.662 0-3-1.338-3-3z" style="opacity:.2"/>
 <path d="m4 16v28h56v-28h-56zm55.188 37c-0.506 0.506-1.224 0.81-2 0.812l-50.188 0.188h50c0.88 0 1.64-0.4 2.188-1z" style="fill:#979af2"/>
 <path d="m7 8c-1.662 0-3 1.338-3 3v5h56v-5c0-1.662-1.338-3-3-3z" style="fill:#4f4f4f"/>
 <path d="m7 8c-1.662 0-3 1.338-3 3v1c0-1.662 1.338-3 3-3h50c1.662 0 3 1.338 3 3v-1c0-1.662-1.338-3-3-3h-50z" style="fill:#ffffff;opacity:.1"/>
 <path d="m44 19c4.4182 0 8 3.5818 8 8s-3.5818 8-8 8-8-3.5818-8-8 3.5818-8 8-8z" style="fill-rule:evenodd;opacity:.2"/>
 <path d="m44 18c4.4182 0 8 3.5818 8 8s-3.5818 8-8 8-8-3.5818-8-8 3.5818-8 8-8z" style="fill-rule:evenodd;fill:#fffa6a"/>
 <path d="m4 44v4h56v-4h-56z" style="fill:#4891cc"/>
 <path d="m4 44v-1.6s4.0384-2.6666 5.1736-2.8992c1.13536-0.23264 2.4762-0.0434 3.8542 0.2168 1.37798 0.2592 3.4352 0.60976 4.0772 0.63168 0.64208 0.0224 1.80396-0.056 3.154-0.1376 1.35-0.08 3.5852-0.1536 4.2824-0.1456 0.69722 0 2.4378 0.096 4.293 0.20926 1.85534 0.1136 4.4036 0.30338 4.9818 0.35648 0.5782 0.0528 1.25782 0.1504 2.0292 0.25682 0.77126 0.1056 2.1066 0.2651 2.5788 0.30896 0.47234 0.043 1.56744 0.1938 2.838 0.31072 1.2706 0.1168 3.304 0.1568 3.8912 0.1136 0.58722-0.0434 1.81806-0.47808 3.1898-0.87888 1.37164-0.40064 2.8842-0.76752 4.0346-0.6768 1.148 0.092 7.62 2.334 7.62 2.334v1.6h-49.2z" style="fill:#4f4f4f"/>
 <path d="m7 56c-1.662 0-3-1.338-3-3v-2c0 1.662 1.338 3 3 3h50c1.662 0 3-1.338 3-3v2c0 1.662-1.338 3-3 3h-50z" style="opacity:.1"/>
 <path d="m7 56c-1.662 0-3-1.338-3-3v-5h56v5c0 1.662-1.338 3-3 3z" style="fill:#4f4f4f"/>
</svg>
