<svg width="64" height="64" version="1" xmlns="http://www.w3.org/2000/svg">
 <path d="m32 7.0003846c-14.444293 0-25.999808 11.555514-25.999808 25.999807s11.555515 25.999808 25.999808 25.999808c2.311183 0 4-2.022185 4-4.333368 0-1.155552 0.04449-2.022185-0.822184-2.888779-0.577775-0.866653-1.155551-1.733327-1.155551-2.888778 0-2.311183 2.022385-3.88909 4.333368-3.88909h5.199961c8.087941 0 14.443894-6.800231 14.443894-14.888171 0-12.711906-11.555915-23.111829-25.999808-23.111829z" style="opacity:.2"/>
 <path d="m32 6.0003996c-14.444293 0-25.999808 11.555514-25.999808 25.999807s11.555515 25.999808 25.999808 25.999808c2.311183 0 4-2.022185 4-4.333368 0-1.155552 0.04449-2.022185-0.822184-2.888779-0.577775-0.866653-1.155551-1.733327-1.155551-2.888778 0-2.311183 2.022385-3.88909 4.333368-3.88909h5.199961c8.087941 0 14.443894-6.800231 14.443894-14.888171 0-12.711906-11.555915-23.111829-25.999808-23.111829z" style="fill:#f3c72f"/>
 <path d="m14.000133 32.000207c-2.133384 0-3.99997-1.865986-3.99997-3.99997s1.866586-3.999971 3.99997-3.999971 3.999971 1.865987 3.999971 3.999971-1.866587 3.99997-3.999971 3.99997z" style="fill:#da8015"/>
 <path d="m24.000059 20.000296c-2.133384 0-3.99997-1.866646-3.99997-3.99997 0-2.133325 1.866646-3.999971 3.99997-3.999971s3.999971 1.866646 3.999971 3.999971c0 2.133324-1.866647 3.99997-3.999971 3.99997z" style="fill:#327cc4"/>
 <path d="m37.999956 20.000296c-2.133385 0-3.999971-1.866646-3.999971-3.99997 0-2.133325 1.866646-3.999971 3.999971-3.999971 2.133324 0 3.99997 1.866646 3.99997 3.999971 0 2.133324-1.866646 3.99997-3.99997 3.99997z" style="fill:#4c9511"/>
 <path d="m47.999882 32.000207c-2.133385 0-3.999971-1.866646-3.999971-3.99997s1.866646-3.999971 3.999971-3.999971c2.133324 0 3.99997 1.866647 3.99997 3.999971s-1.866646 3.99997-3.99997 3.99997z" style="fill:#d94d4d"/>
 <path d="M 32,6 C 17.555707,6 6,17.555707 6,32 c 0,0.110263 0.011662,0.217482 0.017578,0.326172 C 6.3714766,18.198989 17.781735,7 32,7 46.200335,7 57.601696,17.052316 57.982422,29.470703 57.987909,29.350179 58,29.231347 58,29.109375 58,16.397669 46.443893,6 32,6 Z m 2.171875,42.855469 c -0.09,0.333998 -0.148437,0.681158 -0.148437,1.035156 0,0.169365 0.01607,0.330521 0.03906,0.488281 0.02582,-0.177144 0.0632,-0.352071 0.109375,-0.523437 0.205998,0.703995 0.603816,1.31388 1.007813,1.921875 0.731637,0.731637 0.720803,1.475853 0.801757,2.382812 0.02238,-0.161954 0.03711,-0.325717 0.03711,-0.492187 0,-1.155992 0.02713,-2.024631 -0.838866,-2.890625 -0.403997,-0.607995 -0.801815,-1.21788 -1.007813,-1.921875 z" style="fill:#ffffff;opacity:.2"/>
</svg>
