<svg width="64" height="64" version="1.1" xmlns="http://www.w3.org/2000/svg">
 <path d="m24.851234 5.7080371c-1.26971 0.2901337-2.505428 0.665248-3.699155 1.1403394-2.608803 2.5508165-4.24063 6.1571925-4.24063 10.161678 0 0.280536 0.03379 0.552474 0.05459 0.828011 0.358318-4.46178 2.736975-8.329696 6.193584-10.618773 0.513883-0.5544733 1.079754-1.0593579 1.691614-1.5112546zm-4.792905 10.876314c-0.02399 0.338923-0.04999 0.676246-0.04999 1.027166 0 7.728633 6.564499 12.097635 12.853062 13.9972 5.924646 1.789591 13.630885 7.254342 14.182759 14.566671 0.03199-0.385912 0.05599-0.775822 0.05599-1.171732 0-7.730233-8.092151-13.536906-14.238746-15.394482-6.016626-1.817584-12.273196-5.90465-12.803075-13.024823zm-15.999543 15.410278c-0.011397 0.337923-0.046789 0.669847-0.046789 1.011769-3e-7 15.458467 11.842693 27.993602 26.447955 27.993602 3.313243 0 6.346549-0.957781 8.700012-2.695384-1.373686 0.313928-2.777366 0.541876-4.221036 0.621858 2.161506-0.227948 4.171047-0.979776 5.912649-2.133512 1.965551-2.123515 3.15128-4.976863 3.15128-8.392082 0-0.331925-0.02599-0.651851-0.04999-0.971778-0.517881 7.126371-6.352548 11.571355-13.492916 11.571355-14.290134 0-25.906079-12.007256-26.401966-27.005828zm55.895225 0.02399c-0.39191 11.543361-7.372315 21.279136-17.094093 25.146253-2.113517 2.065527-4.864888 3.441213-7.92019 3.76114 13.95681-0.767825 25.060273-12.955039 25.060273-27.919619 0-0.333924-0.03599-0.65785-0.04599-0.987774z" style="opacity:.2"/>
 <path d="m33.545247 60.000457c14.604662 0 26.445956-12.535135 26.445956-27.993602 0-15.459267-11.841294-27.993602-26.445956-27.993602-7.48229 0-13.545304 4.8674875-13.545304 12.597121 0 7.729633 6.566499 12.097435 12.854262 13.996801 6.147995 1.857095 14.236346 7.666848 14.236346 15.396481s-6.064014 13.996801-13.545304 13.996801z" style="fill:#f65e5e"/>
 <circle transform="scale(-1)" cx="-34.005" cy="-19.008" r="5.999" style="opacity:.2"/>
 <circle transform="scale(-1)" cx="-34.005" cy="-18.01" r="5.999" style="fill:#ffffff"/>
 <path d="m30.445955 4.013253c-14.604262 0-26.445956 12.534335-26.445956 27.993602s11.841294 27.993602 26.445956 27.993602c7.48129 0 13.545304-4.867488 13.545304-12.597121s-6.566499-12.097435-12.854262-13.996801c-6.146595-1.857575-14.235146-7.666248-14.235146-15.396481 0-7.729633 6.064014-13.996801 13.545304-13.996801z" style="fill:#8d62ad"/>
 <circle cx="30.006" cy="47.001" r="5.999" style="opacity:.2"/>
 <circle cx="30.006" cy="46.004" r="5.999" style="fill:#ffffff"/>
 <path d="m33.544922 4.0136719c-7.48229 0-13.544922 4.8680227-13.544922 12.597656 0 0.164152 0.019533 0.317388 0.025391 0.478516 0.269649-7.4226933 6.209047-12.076172 13.519531-12.076172 14.446749 0 26.181344 12.265707 26.433594 27.49414 0.002779-0.167099 0.011718-0.332199 0.011718-0.5 0-15.459267-11.84065-27.99414-26.445312-27.99414zm13.517578 42.564453c-0.293558 7.461438-6.22383 13.421875-13.517578 13.421875 2.388595 0 4.701295-0.340203 6.902344-0.96875 3.972828-2.439794 6.642578-6.905749 6.642578-12.027344 0-0.144071-0.021789-0.283057-0.027344-0.425781z" style="fill:#ffffff;opacity:.2"/>
 <path d="m30.445312 4.0136719c-14.604262 0-26.445312 12.534874-26.445312 27.99414 0 0.167804 0.00894 0.332899 0.0117188 0.5 0.2105465-12.710764 8.4217472-23.352658 19.533203-26.52539 2.022532-1.2420778 4.376887-1.9683783 6.90039-1.96875zm-13.515624 14.429687c-0.007345 0.189263-0.027344 0.375283-0.027344 0.566407 0 7.730233 8.08778 13.538909 14.234375 15.396484 6.154416 1.859085 12.560482 6.091044 12.830078 13.517578 0.006338-0.174443 0.025391-0.342045 0.025391-0.519531 0-7.729633-6.567706-12.098681-12.855469-13.998047-6.029778-1.822271-13.908979-7.451943-14.207031-14.962891z" style="fill:#ffffff;opacity:.2"/>
</svg>
