<svg width="64" height="64" version="1" xmlns="http://www.w3.org/2000/svg">
 <path d="m6 19v2c0 1.108 0.892 2 2 2h12c1.108 0 2-0.892 2-2v-2c0 1.108-0.892 2-2 2h-12c-1.108 0-2-0.892-2-2zm18 0v2c0 1.108 0.892 2 2 2h12c1.108 0 2-0.892 2-2v-2c0 1.108-0.892 2-2 2h-12c-1.108 0-2-0.892-2-2zm18 0v2c0 1.108 0.892 2 2 2h12c1.108 0 2-0.892 2-2v-2c0 1.108-0.892 2-2 2h-12c-1.108 0-2-0.892-2-2zm-36 18v2c0 1.108 0.892 2 2 2h12c1.108 0 2-0.892 2-2v-2c0 1.108-0.892 2-2 2h-12c-1.108 0-2-0.892-2-2zm18 0v2c0 1.108 0.892 2 2 2h12c1.108 0 2-0.892 2-2v-2c0 1.108-0.892 2-2 2h-12c-1.108 0-2-0.892-2-2zm18 0v2c0 1.108 0.892 2 2 2h12c1.108 0 2-0.892 2-2v-2c0 1.108-0.892 2-2 2h-12c-1.108 0-2-0.892-2-2zm-36 18v2c0 1.108 0.892 2 2 2h12c1.108 0 2-0.892 2-2v-2c0 1.108-0.892 2-2 2h-12c-1.108 0-2-0.892-2-2zm18 0v2c0 1.108 0.892 2 2 2h12c1.108 0 2-0.892 2-2v-2c0 1.108-0.892 2-2 2h-12c-1.108 0-2-0.892-2-2zm18 0v2c0 1.108 0.892 2 2 2h12c1.108 0 2-0.892 2-2v-2c0 1.108-0.892 2-2 2h-12c-1.108 0-2-0.892-2-2z" style="opacity:.2"/>
 <rect x="6" y="6" width="16" height="16" rx="2" ry="2" style="fill:#d55045"/>
 <rect x="24" y="6" width="16" height="16" rx="2" ry="2" style="fill:#ffc539"/>
 <rect x="42" y="6" width="16" height="16" rx="2" ry="2" style="fill:#94d551"/>
 <rect x="6" y="24" width="16" height="16" rx="2" ry="2" style="fill:#94d551"/>
 <rect x="24" y="24" width="16" height="16" rx="2" ry="2" style="fill:#4b95d5"/>
 <rect x="42" y="24" width="16" height="16" rx="2" ry="2" style="fill:#94d551"/>
 <rect x="6" y="42" width="16" height="16" rx="2" ry="2" style="fill:#4b95d5"/>
 <rect x="24" y="42" width="16" height="16" rx="2" ry="2" style="fill:#ffc539"/>
 <rect x="42" y="42" width="16" height="16" rx="2" ry="2" style="fill:#d55045"/>
 <path d="m8 6c-1.108 0-2 0.892-2 2v1c0-1.108 0.892-2 2-2h12c1.108 0 2 0.892 2 2v-1c0-1.108-0.892-2-2-2h-12zm18 0c-1.108 0-2 0.892-2 2v1c0-1.108 0.892-2 2-2h12c1.108 0 2 0.892 2 2v-1c0-1.108-0.892-2-2-2h-12zm18 0c-1.108 0-2 0.892-2 2v1c0-1.108 0.892-2 2-2h12c1.108 0 2 0.892 2 2v-1c0-1.108-0.892-2-2-2h-12zm-36 18c-1.108 0-2 0.892-2 2v1c0-1.108 0.892-2 2-2h12c1.108 0 2 0.892 2 2v-1c0-1.108-0.892-2-2-2h-12zm18 0c-1.108 0-2 0.892-2 2v1c0-1.108 0.892-2 2-2h12c1.108 0 2 0.892 2 2v-1c0-1.108-0.892-2-2-2h-12zm18 0c-1.108 0-2 0.892-2 2v1c0-1.108 0.892-2 2-2h12c1.108 0 2 0.892 2 2v-1c0-1.108-0.892-2-2-2h-12zm-36 18c-1.108 0-2 0.892-2 2v1c0-1.108 0.892-2 2-2h12c1.108 0 2 0.892 2 2v-1c0-1.108-0.892-2-2-2h-12zm18 0c-1.108 0-2 0.892-2 2v1c0-1.108 0.892-2 2-2h12c1.108 0 2 0.892 2 2v-1c0-1.108-0.892-2-2-2h-12zm18 0c-1.108 0-2 0.892-2 2v1c0-1.108 0.892-2 2-2h12c1.108 0 2 0.892 2 2v-1c0-1.108-0.892-2-2-2h-12z" style="fill:#ffffff;opacity:.2"/>
</svg>
