<svg width="64" height="64" version="1" xmlns="http://www.w3.org/2000/svg">
 <path d="m9 56.2v2c0 1.55 1.2264 2.8 2.75 2.8h38.5c1.524 0 2.75-1.25 2.75-2.8v-2c0 1.55-1.226 2.8-2.75 2.8h-38.5c-1.5236 0-2.75-1.25-2.75-2.8z" style="opacity:.2"/>
 <path d="m53 57.2v-50.4c0-1.5512-1.2265-2.8-2.75-2.8h-38.5c-1.5236 0-2.75 1.2488-2.75 2.8v50.4c0 1.552 1.2264 2.8 2.75 2.8h38.5c1.524 0 2.75-1.248 2.75-2.8z" style="fill:#c49a6c"/>
 <path d="m14.6846 6.0002v1.4054h4.0686v-1.4054h-4.0686zm5.4248 0v1.4054h4.0686v-1.4054h-4.0686zm5.4248 0v1.4054h3.7666v-1.4054h-3.7666zm5.1228 0v1.4054h3.3904v-1.4054h-3.3904zm4.7466 0v1.4054h4.0686v-1.4054h-4.0686zm5.4248 0v1.4054h4.0686v-1.4054h-4.0686zm5.4248 0v1.4054h1.31382l0.45294 0.043918 0.38408 0.126268 0.34434 0.194888 0.29932 0.25254 0.24634 0.31018 0.04238 0.054898 0.27018-0.23058 0.87942-0.49408-0.02914-0.057644-0.0318-0.060388-0.04238-0.052152-0.3311-0.41722-0.03972-0.052152-0.05032-0.041174-0.40262-0.34312-0.05032-0.043918-0.05828-0.032938-0.4609-0.25802-0.05828-0.032938-0.06358-0.01922-0.51122-0.164696-0.06358-0.01922-0.06886-0.00824-0.54566-0.057644-0.03444-0.00274h-1.39064zm-32.988 0.0412-0.1722 0.0192-0.069 0.0082-0.0634 0.0192-0.5114 0.1648-0.06356 0.01922-0.05828 0.032938-0.4609 0.25802-0.05828 0.032938-0.05033 0.043918-0.40264 0.34312-0.05033 0.041174-0.03973 0.052152-0.26224 0.3294h2.3946l-0.132442-1.36422zm37.716 3.2088-1.3509 0.139992 0.016 0.16744v3.9774h1.3562v-4.057l-0.0028-0.035684-0.0186-0.192144zm-1.335 5.6902v4.2162h1.3562v-4.2162h-1.3562zm0 5.6216v4.2162h1.3562v-4.2162h-1.3562zm0 5.6216v4.2162h1.3562v-4.2162h-1.3562zm0 5.6216v4.2162h1.3562v-4.2162h-1.3562zm0 5.6216v4.2162h1.3562v-4.2162h-1.3562zm0 5.6216v4.2162h1.3562v-4.2162h-1.3562zm0 5.6216v4.2162h1.3562v-4.2162h-1.3562zm0 5.6216v0.15098l-0.04238 0.46938-0.12186 0.39802-0.18808 0.35684-0.2437 0.31018-0.29932 0.25254-0.34434 0.19488-0.38144 0.12352-0.10596 0.011 0.13508 1.39992 0.17218-0.0192 0.06886-0.0082 0.06358-0.0192 0.51122-0.1647 0.06358-0.0192 0.05828-0.03294 0.4609-0.25802 0.05828-0.03294 0.05034-0.04392 0.40262-0.34312 0.05032-0.04118 0.03972-0.05216 0.3311-0.41722 0.04238-0.05216 0.0318-0.0604 0.249-0.47762 0.0318-0.0604 0.0186-0.06588 0.15894-0.52976 0.0186-0.06588 0.0078-0.07138 0.05564-0.56546 0.0026-0.03562v-0.23056h-1.3562zm-38.644 2.303 0.26224 0.3294 0.03973 0.05216 0.05033 0.04118 0.40262 0.34312 0.05033 0.04392 0.05828 0.03294 0.4609 0.25802 0.05828 0.03294 0.06356 0.0192 0.51122 0.1647 0.06356 0.0192 0.06887 0.0082 0.54566 0.05764 0.03443 0.0028h1.39064v-1.4054h-4.0606zm5.4168 0v1.4054h4.0686v-1.4054h-4.0686zm5.4248 0v1.4054h4.0686v-1.4054h-4.0686zm5.4248 0v1.4054h3.3904v-1.4054h-3.3904zm4.7466 0v1.4054h3.7666v-1.4054h-3.7666zm5.1228 0v1.4054h4.0686v-1.4054h-4.0686zm5.4248 0v1.4054h4.0686v-1.4054h-4.0686z" style="fill:#ffffff"/>
 <path d="m43.8 24h11.2v16h-11.2c-1.552 0-2.8-1.19-2.8-2.666v-10.6666c0-1.478 1.248-2.668 2.8-2.668z" style="fill:#9b6e3e"/>
 <path d="m44.612 25v0.33332l-0.03586-0.3307-0.13236 0.0132 0.07444 0.66142 0.09376-0.0114h1.41172v-0.66662h-1.41176zm2.1176 0v0.66662h1.41176v-0.66662h-1.41176zm2.1176 0v0.66662h1.41176v-0.66662h-1.41176zm2.1176 0v0.66662h1.41176v-0.66662h-1.41176zm2.1176 0v0.66662h0.9182v-0.66664h-0.9182zm-9.3942 0.17194-0.06342 0.018-0.03586 0.0114-0.03032 0.0152-0.38328 0.20572-0.03032 0.0152-0.02756 0.02002-0.33364 0.27082-0.02482 0.02002-0.02206 0.02608-0.27574 0.3281-0.0192 0.02608-0.0166 0.02862-0.0084 0.0152 0.40258 0.19786 0.19578 0.14578 0.25918-0.30728 0.27298-0.22394 0.32536-0.17192 0.03032-0.0114-0.0028-0.0048 0.0054-2e-3 -0.0138-0.02002-0.20404-0.60412zm-1.57444 1.67176-0.05238 0.16928-0.011 0.02864-0.0028 0.0338-0.04412 0.44788-0.0028 0.0152v0.72348h0.70588v-0.70868l0.04136-0.388 0.04136-0.13284-0.67556-0.19014zm-0.11304 2.0858v1.33324h0.70588v-1.33324h-0.70588zm0 1.99986v1.33324h0.70588v-1.33324h-0.70588zm0 1.99988v1.33324h0.70588v-1.33324h-0.70588zm0 1.99986v1.33326h0.70588v-1.33326h-0.70588zm0.74724 1.90092-0.67554 0.19014 0.11856 0.38538 0.011 0.03124 0.0166 0.02608 0.2068 0.37758 0.0166 0.02862 0.0192 0.02608 0.27574 0.3281 0.02206 0.02608 0.02482 0.02 0.06894 0.05468 0.46048-0.50518-0.0386-0.03124-0.23714-0.28124-0.17922-0.3255-0.1103-0.35154zm1.08364 1.33324-0.34468 0.5807 0.07168 0.0391 0.03032 0.0152 0.03586 0.0114 0.42188 0.1302 0.03586 0.0114 0.03586 2e-3 0.45772 0.0443 0.0192 2e-3h0.44124v-0.66662h-0.4246l-0.38878-0.04172-0.3557-0.10932-0.03586-0.018zm1.91084 0.1693v0.66664h1.41176v-0.66664h-1.41176zm2.1176 0v0.66664h1.41176v-0.66664h-1.41176zm2.1176 0v0.66664h1.41176v-0.66664h-1.41176zm2.1176 0v0.66664h1.41176v-0.66664h-1.41176z" style="fill:#ffffff"/>
 <g transform="translate(13,9)">
  <path d="m36 23a2 2 0 0 1 -2 2 2 2 0 0 1 -2 -2 2 2 0 0 1 2 -2 2 2 0 0 1 2 2z" style="fill:#c8c8c8"/>
  <path d="m35.5 22.25a1.5 1.25 0 0 1 -1.5 1.25 1.5 1.25 0 0 1 -1.5 -1.25 1.5 1.25 0 0 1 1.5 -1.25 1.5 1.25 0 0 1 1.5 1.25z" style="fill:#ffffff"/>
 </g>
 <path d="m24.82501 33.99841-3.8649 0.35154v15.063l3.8236-0.54683v-6.422l5.1449 7.1251 4.03-1.2109-5.2688-6.8517 5.3101-6.461-4.1126-0.89066-5.1036 6.4611 0.04124-6.6173zm-8.762 3.672c-0.04363 0.0081-0.09098 0.01545-0.12386 0.04715l-1.5195 1.4375c-0.06378 0.06096-0.07155 0.15323-0.02473 0.22656l1.7755 2.7735c-0.31527 0.50138-0.57128 1.0392-0.75151 1.6093l-3.262 0.64063c-0.09081 0.0175-0.15691 0.09928-0.15691 0.18728v2.0313c0 0.08592 0.06902 0.15948 0.1569 0.17971l3.1629 0.72654c0.16913 0.66017 0.43042 1.2918 0.77627 1.8673l-1.8333 2.6407c-0.05115 0.07336-0.04116 0.17214 0.02473 0.23436l1.5195 1.4375c0.06396 0.06026 0.16219 0.06788 0.23949 0.02311l2.8739-1.6485c0.56367 0.30785 1.1739 0.55448 1.8168 0.71875l0.66893 3.0469c0.02 0.088 0.098 0.15 0.191 0.15h2.1471c0.0901 0 0.16854-0.0571 0.18994-0.14065l0.79279-3.0625c0.66304-0.16914 1.2882-0.42017 1.8664-0.74222l2.8326 1.7579c0.07805 0.04782 0.18156 0.03856 0.24776-0.02316l1.5113-1.4375c0.06418-0.06096 0.08008-0.15338 0.03309-0.22657l-1.0323-1.6093-0.33859 0.10151c-0.04891 0.01463-0.10306-0.0081-0.13213-0.04715 0 0-0.65208-0.90749-1.503-2.0859-1.0177 1.8838-3.0931 3.1719-5.4835 3.1719-3.3967 0-6.1524-2.607-6.1524-5.8204 0-2.3637 1.4941-4.3939 3.6336-5.3048v-1.5c-0.38939 0.12891-0.76558 0.28446-1.1231 0.46873-4.49e-4 -3.17e-4 7.32e-4 -0.0081 0-0.0081l-2.8986-1.7969c-0.03895-0.02387-0.08022-0.02774-0.12388-0.02313z" style="opacity:.2"/>
 <path d="m11.75 4c-1.5236 0-2.75 1.2495812-2.75 2.8007812v1c0-1.5511999 1.2264-2.8007812 2.75-2.8007812h38.5c1.524 0 2.75 1.2495812 2.75 2.8007812v-1c0-1.5512-1.226-2.8007812-2.75-2.8007812h-38.5z" style="fill:#ffffff;opacity:.2"/>
</svg>
