<svg width="64" height="64" version="1.1" viewBox="0 0 64 64" xmlns="http://www.w3.org/2000/svg">
 <path d="M 59.957032,31.800505 A 27.999516,27.999516 0 0 1 31.999516,59.000034 27.999516,27.999516 0 0 1 4.0439996,32.000501 27.999516,27.999516 0 0 0 4.0000004,33.000484 27.999516,27.999516 0 0 0 31.999516,61 27.999516,27.999516 0 0 0 59.999032,33.000484 a 27.999516,27.999516 0 0 0 -0.04296,-1.17178 z" style="opacity:.2"/>
 <circle cx="32" cy="32.001" r="28" style="fill:#00b88a"/>
 <path d="m31.999516 11.000865a21.999619 21.999619 0 0 0 -21.999619 21.999619 21.999619 21.999619 0 0 0 21.999619 21.999619 21.999619 21.999619 0 0 0 21.999619 -21.999619 21.999619 21.999619 0 0 0 -21.999619 -21.999619zm-3.999931 3.99993h7.999862l-1.999966 7.999862-1.999965 7.999862-1.999965-7.999862-1.999966-7.999862zm-5.898298 2.445358 4.242127 7.070078 4.242126 7.070277-7.070277-4.242126-7.070278-4.242127 2.828151-2.828151 2.828151-2.827951zm19.796458 0 2.828151 2.827951 2.828151 2.828151-7.070278 4.242127-7.070277 4.242126 4.242126-7.070277 4.242127-7.070078zm-27.897518 11.599799 7.999862 1.999966 7.999862 1.999965-7.999862 1.999966-7.999862 1.999965v-7.999862zm35.999378 0v7.999862l-7.999862-1.999965-7.999862-1.999966 7.999862-1.999965 7.999862-1.999966zm-19.413665 5.413907-4.242126 7.070277-4.242127 7.070078-2.828151-2.827951-2.828151-2.828151 7.070278-4.242127 7.070277-4.242126zm2.828152 0 7.070277 4.242126 7.070278 4.242127-2.828151 2.828151-2.828151 2.827951-4.242127-7.070078-4.242126-7.070277zm-1.413976 0.599989 1.999965 7.999862 1.999966 7.999862h-7.999862l1.999966-7.999862 1.999965-7.999862z" style="opacity:.2"/>
 <path d="m31.999516 10.000921a21.999619 21.999619 0 0 0 -21.999619 21.99962 21.999619 21.999619 0 0 0 21.999619 21.999619 21.999619 21.999619 0 0 0 21.999619 -21.999619 21.999619 21.999619 0 0 0 -21.999619 -21.99962zm-3.999931 3.999931h7.999862l-1.999966 7.999862-1.999965 7.999861-1.999965-7.999861-1.999966-7.999862zm-5.898298 2.445358 4.242127 7.070077 4.242126 7.070278-7.070277-4.242127-7.070278-4.242126 2.828151-2.828151 2.828151-2.827951zm19.796458 0 2.828151 2.827951 2.828151 2.828151-7.070278 4.242126-7.070277 4.242127 4.242126-7.070278 4.242127-7.070077zm-27.897518 11.599799 7.999862 1.999965 7.999862 1.999966-7.999862 1.999965-7.999862 1.999966v-7.999862zm35.999378 0v7.999862l-7.999862-1.999966-7.999862-1.999965 7.999862-1.999966 7.999862-1.999965zm-19.413665 5.413906-4.242126 7.070278-4.242127 7.070078-2.828151-2.827951-2.828151-2.828151 7.070278-4.242127 7.070277-4.242127zm2.828152 0 7.070277 4.242127 7.070278 4.242127-2.828151 2.828151-2.828151 2.827951-4.242127-7.070078-4.242126-7.070278zm-1.413976 0.59999 1.999965 7.999862 1.999966 7.999861h-7.999862l1.999966-7.999861 1.999965-7.999862z" style="fill:#fff763"/>
 <path d="M 32 3.9726562 L 32 4.0019531 A 27.999516 27.999516 0 0 0 4 32 A 27.999516 27.999516 0 0 0 4.0175781 32.492188 A 27.999516 27.999516 0 0 1 32 5 L 32 4.9726562 A 27.999516 27.999516 0 0 1 59.974609 32.455078 A 27.999516 27.999516 0 0 0 60 31.972656 A 27.999516 27.999516 0 0 0 32 3.9726562 z" style="fill:#ffffff;opacity:.2"/>
</svg>
