<svg width="64" height="64" version="1" xmlns="http://www.w3.org/2000/svg">
 <path d="m10 56v2c0 1.662 1.338 3 3 3h38c1.662 0 3-1.338 3-3v-2c0 1.662-1.338 3-3 3h-38c-1.662 0-3-1.338-3-3z" style="opacity:.2"/>
 <path d="m54 57v-50c0-1.662-1.338-3-3-3h-38c-1.662 0-3 1.338-3 3v50c0 1.662 1.338 3 3 3h38c1.662 0 3-1.338 3-3z" style="fill:#3e50b4"/>
 <path d="M 14,9 14,57 50,57 50,25.828 33.172,9 14,9 Z M 38.828,9 50,20.172 50,9 38.828,9 Z" style="opacity:.1"/>
 <path d="M 14,8 14,56 50,56 50,24.828 33.172,8 14,8 Z M 38.828,8 50,19.1718 50,8 38.828,8 Z" style="fill:#f5f5f5"/>
 <path d="m13 4c-1.662 0-3 1.338-3 3v1c0-1.662 1.338-3 3-3h38c1.662 0 3 1.338 3 3v-1c0-1.662-1.338-3-3-3h-38z" style="fill:#ffffff;opacity:.1"/>
 <path d="m20 48.044v-2h16v2zm0-6v-2h24v2zm0-6v-2h24v2zm0-6v-2h24v2z" style="opacity:.5"/>
</svg>
