<svg width="64" height="64" version="1" xmlns="http://www.w3.org/2000/svg">
 <path d="m10 56v2c0 1.662 1.338 3 3 3h38c1.662 0 3-1.338 3-3v-2c0 1.662-1.338 3-3 3h-38c-1.662 0-3-1.338-3-3z" style="opacity:.2"/>
 <path d="m54 57v-50c0-1.662-1.338-3-3-3h-38c-1.662 0-3 1.338-3 3v50c0 1.662 1.338 3 3 3h38c1.662 0 3-1.338 3-3z" style="fill:#636e73"/>
 <path d="M 14,9 14,57 50,57 50,25.828 33.172,9 14,9 Z M 38.828,9 50,20.172 50,9 38.828,9 Z" style="opacity:.1"/>
 <path d="M 14,8 14,56 50,56 50,24.828 33.172,8 14,8 Z M 38.828,8 50,19.1718 50,8 38.828,8 Z" style="fill:#f5f5f5"/>
 <path d="m13 4c-1.662 0-3 1.338-3 3v1c0-1.662 1.338-3 3-3h38c1.662 0 3 1.338 3 3v-1c0-1.662-1.338-3-3-3h-38z" style="fill:#ffffff;opacity:.1"/>
 <path d="m26.062 30h20.812v2h-19.1876l-3.81 18.188-0.626 2.812-1.25-2.562-4-8 1.75-0.875 2.6876 5.4374 3.4376-16.1874zm4.8124 4h2l4 6.375 4-6.375h2l-5 8 5 8h-2l-4-6.375-4 6.375h-2l5-8z" style="opacity:.5"/>
</svg>
