<svg width="64" height="64" version="1.1" viewBox="0 0 64 64" xmlns="http://www.w3.org/2000/svg">
 <circle cx="32" cy="33" r="28" style="opacity:.2"/>
 <circle cx="32" cy="32" r="28" style="fill:#8bc34a"/>
 <path d="M 32 4 A 28 28 0 0 0 4 32 A 28 28 0 0 0 4.0175781 32.492188 A 28 28 0 0 1 32 5 A 28 28 0 0 1 59.974609 32.492188 A 28 28 0 0 0 60 32 A 28 28 0 0 0 32 4 z" style="fill:#ffffff;opacity:.2"/>
 <circle cx="32" cy="33" r="20" style="opacity:.2"/>
 <circle cx="32" cy="32" r="20" style="fill:#ffffff"/>
 <path d="M 5.3242188,30 A 28,21 0 0 0 5,32.994141 28.571428,30.000009 0 0 0 5,33 28.571428,30.000009 0 0 0 5.09375,34.628906 28,21 0 0 0 5.3164062,36 H 59.828125 A 28,28 0 0 0 60,33 28,28 0 0 0 59.806641,30 Z" style="opacity:.2"/>
 <path d="M 5.3242188 29 A 28 21 0 0 0 5 31.994141 A 28.571428 30.000009 0 0 0 5 32 A 28.571428 30.000009 0 0 0 5.09375 33.628906 A 28 21 0 0 0 5.3164062 35 L 59.828125 35 A 28 28 0 0 0 60 32 A 28 28 0 0 0 59.806641 29 L 5.3242188 29 z" style="fill:#4f4f4f"/>
 <rect x="2" y="25" width="16" height="16" rx="2.667" ry="2.667" style="opacity:.2"/>
 <rect x="2" y="24" width="16" height="16" rx="2.667" ry="2.667" style="fill:#4f4f4f"/>
</svg>
