<svg width="64" height="64" version="1" xmlns="http://www.w3.org/2000/svg">
 <path d="m4.0000004 56.200069v1.999971c0 1.549978 1.2495821 2.79996 2.80076 2.79996h50.39928c1.549977 0 2.79996-1.249982 2.79996-2.79996v-1.999971c0 1.549977-1.249983 2.79996-2.79996 2.79996h-50.39928c-1.5503779 0-2.79996-1.249983-2.79996-2.79996z" style="opacity:.2"/>
 <rect transform="matrix(0,-1,-1,0,0,0)" x="-60" y="-60" width="55.999" height="55.999" rx="2.8" ry="2.8" style="fill:#ec8c38"/>
 <path d="m59.9992 57.200069v-50.39928c0-1.5511779-1.247983-2.79996-2.79996-2.79996h-25.19964v55.9992h25.19964c1.551177 0 2.79996-1.248783 2.79996-2.79996z" style="fill:#ffffff;opacity:.2"/>
 <path d="m6.8007812 4c-1.5511778 0-2.8007812 1.2496034-2.8007812 2.8007812v1.0019532c0-1.5511778 1.2496034-2.8007813 2.8007812-2.8007813h50.398438c1.549977 0 2.800781 1.2496035 2.800781 2.8007813v-1.0019532c0-1.5511777-1.250804-2.8007812-2.800781-2.8007812h-50.398438z" style="fill:#ffffff;opacity:.2"/>
 <g transform="matrix(1.9999714,0,0,1.9999714,5.760572e-5,1.000858)" style="opacity:.2">
  <path d="m9 8a5 5 0 0 0 -5 5 5 5 0 0 0 5 5 5 5 0 0 0 5 -5 5 5 0 0 0 -5 -5zm0 3a2 2 0 0 1 2 2 2 2 0 0 1 -2 2 2 2 0 0 1 -2 -2 2 2 0 0 1 2 -2z"/>
  <rect transform="scale(1,-1)" x="8" y="-25" width="2" height="10"/>
  <rect transform="scale(1,-1)" x="10" y="-23" width="2" height="2"/>
 </g>
 <g transform="matrix(1.9999714,0,0,1.9999714,5.760572e-5,8.866e-4)" style="fill:#ffdf98">
  <path d="m9 8a5 5 0 0 0 -5 5 5 5 0 0 0 5 5 5 5 0 0 0 5 -5 5 5 0 0 0 -5 -5zm0 3a2 2 0 0 1 2 2 2 2 0 0 1 -2 2 2 2 0 0 1 -2 -2 2 2 0 0 1 2 -2z" style="fill:#ffef78"/>
  <rect transform="scale(1,-1)" x="8" y="-25" width="2" height="10" style="fill:#ffef78"/>
  <rect transform="scale(1,-1)" x="10" y="-23" width="2" height="2" style="fill:#ffef78"/>
 </g>
</svg>
