<svg width="64" height="64" version="1" xmlns="http://www.w3.org/2000/svg">
 <path d="m12 54.398v2c0 1.44 1.1906 2.602 2.668 2.602h34.664c1.478 0 2.668-1.162 2.668-2.602v-2c0 1.44-1.19 2.602-2.668 2.602h-34.664c-1.4774 0-2.668-1.162-2.668-2.602z" style="opacity:.2"/>
 <rect transform="matrix(0,-1,-1,0,0,0)" x="-58" y="-52" width="52" height="40" rx="2.6" ry="2.666" style="fill:#cccccc"/>
 <path d="m14.667969 6c-1.4774 0-2.667969 1.1611625-2.667969 2.6015625v1c0-1.4404 1.190569-2.6015625 2.667969-2.6015625h34.664062c1.478 0 2.667969 1.1611625 2.667969 2.6015625v-1c0-1.4404-1.189969-2.6015625-2.667969-2.6015625h-34.664062z" style="fill:#ffffff;opacity:.2"/>
 <rect transform="matrix(.62469749 .78086686 -.62469749 .78086686 0 0)" x="39.7" y="-11.52" width="12.806" height="12.806" style="fill:#e74c3c"/>
 <rect transform="matrix(.62469749 .78086686 -.62469749 .78086686 0 0)" x="25.94" y="-2.88" width="6.404" height="6.404" style="fill:#e74c3c"/>
 <rect transform="matrix(-.62469749 -.78086686 .62469749 -.78086686 0 0)" x="-66.28" y="7.36" width="6.404" height="6.404" style="fill:#e74c3c"/>
 <path d="m19.5 17h-3l-0.5 1h-2l2.9632-8h2.0368l3.0857 8h-2.0857zm-2.403-1.9999h1.8913l-0.9883-3.0001-0.9028 2.9999z" style="fill:#e74c3c"/>
 <path d="m47.5 47h-3l-0.5-1h-2l2.9632 8h2.0368l3.0857-8h-2.0857zm-2.403 1.9999h1.8913l-0.9883 3.0001-0.9028-2.9999z" style="fill:#e74c3c"/>
</svg>
