<svg width="64" height="64" version="1" xmlns="http://www.w3.org/2000/svg">
 <path d="m4.0545892 32.005868c-0.0117376 0.334652-0.0507717 0.662186-0.0507717 0.999798 0 15.508861 12.485474 27.994334 27.994334 27.994334s27.994334-12.485473 27.994334-27.994334c0-0.337612-0.03903-0.665146-0.05077-0.999798-0.527893 15.038956-12.773415 26.994537-27.944344 26.994537-15.17133 0-27.416451-11.955581-27.944344-26.994537z" style="opacity:.2"/>
 <rect transform="matrix(0,-1,-1,0,0,0)" x="-60" y="-59.99" width="55.989" height="55.989" rx="27.994" ry="27.994" style="fill:#37a0f2"/>
 <path d="m31.122511 4.0547276c-1.419713 0.043591-2.811431 0.1839628-4.169156 0.4295131l1.159765-0.14837 0.971803 0.8358308-2.557482 1.3669234 3.257341 0.7732435 0.417915-1.0935787h1.423712l0.499899-0.9528071-1.003797-0.2539486v-0.9568064zm-5.302927 0.6560672c-10.438487 2.3375269-18.619231 10.464482-21.04974 20.865777l0.089382 0.133973-0.2383518 0.439911c-0.043191 0.205958-0.074385 0.413916-0.1131771 0.621874l1.0583858 1.63167 2.9290072 0.729852v-0.475904l1.1717629 0.167966-0.1093779 0.83983 0.9178145 0.167966 1.421512 0.389921 2.011393 2.305534 2.56968 0.189961 0.24615 2.109573-1.753645 1.229751-0.08198 1.883619-0.253749 1.147768 2.542285 3.203351 0.191362 1.08778s0.922213 0.253949 1.03499 0.253949c0.111378 0 2.065382 1.489698 2.065382 1.489698v5.778831l0.699859 0.19596-0.471905 2.663461 1.167764 1.569682-0.215957 2.643465 0.024 0.04399c1.455705 0.573883 2.9614 1.051787 4.527083 1.377721l0.05799-0.167966 0.05799-0.769845-0.995799-0.02999-0.503898-0.629873 0.827833-0.799838 0.113977-0.601878-0.921814-0.265946 0.05399-0.557888 1.313734-0.197959 1.995597-0.965805 0.667864-1.23375 2.091577-2.691456-0.471904-2.107573 0.63987-1.121773 1.921611 0.06199 1.297738-1.03379 0.421914-4.067177 1.43571-1.835629 0.249949-1.177761-1.311735-0.421915-0.861825-1.425711-2.957402-0.03199-2.347524-0.897818-0.107979-1.67966-0.781841-1.373722-2.12557-0.03199-1.221753-1.937608-1.089779-0.529892-0.05799 0.585881-1.979599 0.119976-0.727853-1.015795-2.061382-0.421914-1.702856 1.9776-2.679058-0.453909-0.19536-3.037385-1.956604-0.335932 0.785041-1.489698-0.222555-0.857827-2.56988 1.72965-1.6168725-0.199959-0.577883-1.267744 0.3515288-1.309735 0.894219-1.647666 2.0543847-1.045788h3.959998l-0.0116 1.213754 1.421513 0.663865-0.113177-2.07358 1.026992-1.041789 2.069981-1.363924 0.144571-0.960805 2.066781-2.163563 2.193556-1.222552-0.189961-0.159968 1.483699-1.409914 0.541891 0.14457 0.253948 0.320136 0.561887-0.632672 0.137972-0.06239-0.617875-0.08598-0.627873-0.210958v-0.605277l0.335932-0.273345h0.729852l0.335932 0.14837 0.287942 0.589681 0.359927-0.05459v-0.05079l0.09798 0.03119 1.035791-0.156169 0.14397-0.503898 0.585882 0.14837v0.54689l-0.54389 0.374924 0.08198 0.601478 1.859624 0.577883s4e-3 0.0082 8e-3 0.0234l0.429913-0.03499 0.02599-0.812435-1.475701-0.679463-0.08598-0.386721 1.225752-0.421715 0.05599-1.179561-1.281741-0.785041-0.08598-1.9915973-1.757645 0.8668245h-0.63987l0.163967-1.5152933-2.389517-0.5662854-0.9878 0.7538474v2.2925361l-1.781639 0.566285-0.715855 1.495698-0.771844 0.128974v-1.917612l-1.675861-0.230354-0.835831-0.5468891-0.335932-1.2419486 2.991595-1.7612435 1.463703-0.4453099 0.14997 0.988 0.815835-0.038992 0.06199-0.4998988 0.855827-0.1249747 0.012-0.1717652-0.363927-0.1523692-0.08598-0.5272933 1.049787-0.085783 0.633872-0.6678649 0.03199-0.04699 0.01 4e-3 0.105978-0.1093778zm-11.161541 5.9909872 0.79284 0.191362-0.273545 1.070183-0.859026 0.277144-0.54289-1.120773 0.882621-0.417916zm35.946725 0.39452-0.391921 0.06639-1.209755 1.726251-1.737648 0.277144-0.253949 1.495897 0.733852 0.171765-0.211957 0.960806-1.725651-0.34753-1.577681 0.34753-0.339931 0.882621 0.273944 1.859024 0.929812 0.437311 1.557685-0.0078 1.049788-0.09378 0.321934-0.84343 1.643668-2.148165 1.08578 0.222755 1.061785-0.968604 0.19996 0.753848 2.619469 1.780839-0.319935 0.433512-1.179761-0.06259 0.453908 0.64447 0.725853 0.160167 0.855827-0.355528-0.02399-1.030991 0.383922-0.191361-0.309937-0.324135-1.749646-0.980201-0.451909-1.300537h0.959806c-1.017799-1.289338-2.14757-2.475298-3.373322-3.565678zm-33.771165 2.147966h1.316134v0.402318h0.29294v0.69506h-2.011393l-0.749848-0.210958 0.187362-0.484102 0.964805-0.402318zm1.968202 0.29674 0.68746 0.628872-0.68746 0.171766v-0.800638zm1.519092 0.968604 0.507897 0.324134-0.409917 0.339731-0.405918-0.339731 0.307938-0.324134zm-3.862218 0.105378h1.109175l-1.425511 1.999596-0.585882-0.316336 0.124975-0.83963 0.777243-0.84363zm1.780839 0h1.128572v0.671864l-0.503698 0.324135-0.624874 0.120975v-1.116974zm1.398117 0.738251h0.08598l1.277141 0.378723v0.652268h-1.070183l-0.292941-0.425714v-0.605277zm-0.523294 0.605277v0.656068l-0.480303 0.484302h-1.066184l0.167766-0.734252 0.503898-0.04299 0.10158-0.24995 0.773243-0.113177zm33.191283 2.780638-3.765238 0.29694-1.167764 0.628672h-1.495697l-0.733852-0.07418-1.815632 1.015795v1.909613l-3.713249 2.691455 0.307938 1.147768h0.749848l-0.191961 1.093779-0.533892 0.193961-0.02799 2.86342 3.20935 3.675256h1.395718l0.08998-0.221955h2.505492l0.723854-0.675863h1.425711l0.779843 0.78784 2.125569 0.223955-0.281943 2.833427 2.351525 4.179154-1.23775 2.383517 0.08198 1.123773 0.975803 0.979802v2.699453l0.273944 0.367926c3.535285-4.687052 5.654856-10.507873 5.654856-16.856589 0-4.037182-0.859826-7.860409-2.385517-11.321708l-1.191759 0.115976v1.051788h-0.54389l-0.585881-0.421915-2.979397-0.753847v-1.937208z" style="fill:#ffffff;opacity:.3"/>
 <path d="m51.776331 12.229073-39.553995 39.551995c10.956383 10.956383 28.598212 10.956383 39.553995 0 10.956382-10.956382 10.956382-28.598212 0-39.553994z" style="opacity:.1"/>
 <path d="m12.222536 51.782068 17.304898-22.249497 2.341726 2.341726 2.602473 2.602473z" style="fill:#f2f2f2"/>
 <path d="m51.776331 12.229073-22.249497 17.304898 4.944199 4.944199z" style="fill:#f34235"/>
 <path d="m32.000333 4.0117363c-15.509661 0-27.994334 12.485473-27.994334 27.994334 0 0.146971-0.011798 0.292641 0 0.437412 0.2989395-15.245714 12.674035-27.432448 27.994334-27.432448 15.3195 0 27.694395 12.186734 27.994334 27.432448 0.012-0.144771 0-0.290361 0-0.437412 0-15.508861-12.485473-27.994334-27.994334-27.994334z" style="fill:#ffffff;opacity:.4"/>
 <path d="m51.776331 12.229073-39.553995 39.551995c-10.956382-10.956382-10.956382-28.598212 0-39.553994 10.956383-10.956383 28.598212-10.956383 39.553995 0z" style="fill:#ffffff;opacity:.2"/>
</svg>
