<svg width="64" height="64" version="1" xmlns="http://www.w3.org/2000/svg">
 <rect x="26" y="19" width="12" height="41.999" rx="4.5" ry="4.2" style="opacity:.2"/>
 <rect x="26" y="18" width="12" height="41.999" rx="4.5" ry="4.2" style="fill:#b83229"/>
 <path d="m28.711727 32.975766c-6.611148-0.125654-9.294519-0.236602-10.935386-0.452145-1.203308-0.158071-1.794248-0.312174-2.460735-0.641697-1.100784-0.544244-1.785381-1.303158-2.279434-2.526886-0.451706-1.118799-0.63563-2.007409-0.804423-3.886557-0.190485-2.120627-0.205373-2.504536-0.225154-5.808636-0.0233-3.88563 0.0236-5.158918 0.284541-7.737991 0.136824-1.352079 0.336269-2.250651 0.711006-3.2035274 0.341279-0.8677663 0.652858-1.3466754 1.219509-1.87443 0.712177-0.6632894 1.494321-1.0665022 2.481708-1.2793577 1.47379-0.3177146 8.135099-0.5626769 15.300738-0.5626769 7.16564 0 13.82695 0.2449623 15.300739 0.5626769 1.065837 0.2297698 1.848089 0.654176 2.611324 1.4167537 0.59736 0.5968447 0.905032 1.1391751 1.271167 2.2407604 0.377268 1.135055 0.521955 2.139571 0.736326 5.112156 0.101797 1.411638 0.101797 7.909872 0 9.320813-0.119116 1.650581-0.265271 3.120468-0.3626 3.646421-0.25021 1.352201-0.741633 2.618232-1.295685 3.338057-0.380127 0.493853-1.130522 1.082292-1.758011 1.378576-0.635389 0.300014-1.240757 0.448751-2.216677 0.544658-3.024107 0.297178-12.25876 0.514162-17.578913 0.413032z" style="opacity:.2"/>
 <path d="m28.711727 31.975832c-6.611148-0.125653-9.294519-0.236602-10.935386-0.452145-1.203308-0.15807-1.794248-0.312173-2.460735-0.641696-1.100784-0.544244-1.785381-1.303159-2.279434-2.526886-0.451706-1.118799-0.63563-2.00741-0.804423-3.886557-0.190485-2.120628-0.205373-2.504537-0.225154-5.808636-0.0233-3.88563 0.0236-5.158919 0.284541-7.737991 0.136824-1.3520796 0.336269-2.2506512 0.711006-3.2035279 0.341279-0.8677663 0.652858-1.3466754 1.219509-1.87443 0.712177-0.6632894 1.494321-1.0665022 2.481708-1.2793577 1.47379-0.3177146 8.135099-0.5626769 15.300738-0.5626769 7.16564 0 13.82695 0.2449623 15.300739 0.5626769 1.065837 0.2297698 1.848089 0.654176 2.611324 1.4167537 0.59736 0.5968447 0.905032 1.1391751 1.271167 2.2407601 0.377268 1.1350552 0.521955 2.1395718 0.736326 5.1121568 0.101797 1.411637 0.101797 7.909871 0 9.320812-0.119116 1.650581-0.265271 3.120469-0.3626 3.646421-0.25021 1.352201-0.741633 2.618233-1.295685 3.338057-0.380127 0.493854-1.130522 1.082292-1.758011 1.378576-0.635389 0.300014-1.240757 0.448751-2.216677 0.544658-3.024107 0.297178-12.25876 0.514163-17.578913 0.413032z" style="fill:#d54c41"/>
 <path d="m16.441406 11.952167a1.50015 1.50015 0 0 0 -1.441406 1.5v10a1.50015 1.50015 0 1 0 3 0v-6.5l1.666016 1.585938a1.50015 1.50015 0 0 0 2.121093 -0.05274l1.212891-1.277339v6.244141a1.50015 1.50015 0 1 0 3 0v-10a1.50015 1.50015 0 0 0 -1.544922 -1.5 1.50015 1.50015 0 0 0 -1.042969 0.466797l-2.765625 2.912109-3.111328-2.964844a1.50015 1.50015 0 0 0 -1.09375 -0.414062zm23.058594 0a1.500135 1.500135 0 1 0 0 3h2.5v8.5a1.50015 1.50015 0 1 0 3 0v-8.5h2.599609a1.500135 1.500135 0 1 0 0 -3zm-6.578125 2e-3a1.50015 1.50015 0 0 0 -1.289063 0.882813l-4.5 10a1.50015 1.50015 0 1 0 2.734376 1.230468l0.539062-1.197265v0.08203h5.224609l0.501953 1.115234a1.50015 1.50015 0 1 0 2.734376 -1.230468l-4.5-10a1.50015 1.50015 0 0 0 -1.445313 -0.882859zm0.078125 5.152297l1.28125 2.845703h-2.5625z" style="opacity:.2"/>
 <path d="m16.50015 22.5v-10l4.19986 4 3.799774-4v10" style="fill:none;stroke-linecap:round;stroke-linejoin:round;stroke-width:3;stroke:#fefefe"/>
 <path d="m28.5 22.5 4.5-10 4.5 10" style="fill:none;stroke-linecap:round;stroke-linejoin:round;stroke-width:3;stroke:#fefefe"/>
 <path d="m43.500498 22.5v-9.498371" style="fill:none;stroke-linecap:round;stroke-linejoin:round;stroke-width:3;stroke:#fefefe"/>
 <path d="m39.500348 12.499865h8.1" style="fill:none;stroke-linecap:round;stroke-linejoin:round;stroke-width:2.99997;stroke:#fefefe"/>
 <path d="m30.405782 20.5h5.599814" style="fill:none;stroke-width:3;stroke:#fefefe"/>
 <path d="m32.003906 4.0019531c-7.165639 0-13.825037 0.2447854-15.298828 0.5625-0.987387 0.2128555-1.772199 0.6179607-2.484375 1.28125-0.566651 0.5277546-0.877471 1.0033274-1.21875 1.8710938-0.374738 0.9528767-0.574113 1.8549523-0.710937 3.2070311-0.260941 2.579073-0.308456 3.852652-0.285157 7.738281 9.8e-4 0.160008 0.003625 0.23421 0.00586 0.324219-0.010578-3.232602 0.038581-4.683329 0.279297-7.0625 0.136824-1.352079 0.336199-2.2541544 0.710937-3.2070311 0.341279-0.8677664 0.652099-1.3433392 1.21875-1.8710938 0.712176-0.6632893 1.496988-1.0683945 2.484375-1.28125 1.473791-0.3177146 8.133189-0.5625 15.298828-0.5625 7.16564 0 13.826992 0.2447854 15.300782 0.5625 1.065837 0.2297698 1.850046 0.6553912 2.613281 1.4179688 0.59736 0.5968448 0.903396 1.1366963 1.269531 2.2382812 0.377268 1.1350549 0.520004 2.1406959 0.734375 5.1132809 0.052024 0.721408 0.063991 2.626073 0.060547 4.587891 1.74e-4 0.029824 0.001784 0.042504 0.001953 0.072266 0.0132-2.330522-6.78e-4 -4.802882-0.0625-5.660157-0.214371-2.972585-0.357107-3.9782256-0.734375-5.1132809-0.366135-1.1015849-0.672171-1.6414364-1.269531-2.2382812-0.763235-0.7625776-1.547444-1.188199-2.613281-1.4179688-1.47379-0.3177146-8.135142-0.5625-15.300782-0.5625z" style="fill:#ffffff;opacity:.2"/>
</svg>
