<svg width="64" height="64" version="1.1" viewBox="0 0 64 64" xmlns="http://www.w3.org/2000/svg">
 <circle cx="32" cy="33" r="28" style="opacity:.2"/>
 <circle cx="32" cy="32" r="28" style="fill:#248afd"/>
 <path d="m31.976562 13.001953a20 20 0 0 0 -19.976562 19.998047 20 20 0 0 0 20 20 20 20 0 0 0 20 -20 20 20 0 0 0 -10.095703 -17.345703 5.0005 5.0005 0 0 1 0.056641 0.720703v3.802734a14 14 0 0 1 4.039062 9.822266 14 14 0 0 1 -14 14 14 14 0 0 1 -14 -14 14 14 0 0 1 11.318359 -13.728516c0.639312-0.794537 1.357101-1.686223 1.675782-2.091796 0.293245-0.373205 0.575917-0.718774 0.851562-1.035157 0.04028-0.04623 0.09053-0.09715 0.130859-0.142578zm4.271485 3c-0.09589-0.0068-0.180937 9.88e-4 -0.238281 0.02734-0.101632 0.04671-0.587194 0.607985-1.083985 1.240234-0.496787 0.632246-1.581032 1.982156-2.410156 3.00586-0.829127 1.023702-2.404411 2.98478-3.496094 4.353515-2.144694 2.688975-2.486544 3.230674-2.839843 4.507813-0.220647 0.797652-0.240072 2.085678-0.04297 2.833984 0.540369 2.051399 2.346311 3.589323 4.675781 3.984375 0.105893 0.018 0.47176 0.04007 0.810547 0.04492 1.411517 0.02114 2.6133-0.475377 3.630859-1.501953 0.536297-0.541048 0.684017-0.754087 1.013672-1.445313 0.212417-0.445367 0.443188-1.0387 0.515625-1.316406 0.185834-0.712295 0.27439-2.183062 0.177735-5.550781v-9.810547c-0.03794-0.198818-0.425213-0.352707-0.712891-0.373047z" style="opacity:.2"/>
 <path d="m31.976562 12.001953a20 20 0 0 0 -19.976562 19.998047 20 20 0 0 0 20 20 20 20 0 0 0 20 -20 20 20 0 0 0 -10.095703 -17.345703 5.0005 5.0005 0 0 1 0.056641 0.720703v3.802734a14 14 0 0 1 4.039062 9.822266 14 14 0 0 1 -14 14 14 14 0 0 1 -14 -14 14 14 0 0 1 11.318359 -13.728516c0.639312-0.794537 1.357101-1.686223 1.675782-2.091796 0.293245-0.373205 0.575917-0.718774 0.851562-1.035157 0.040281-0.046233 0.090527-0.097149 0.130859-0.142578zm4.271485 3c-0.09589-0.0068-0.180937 9.88e-4 -0.238281 0.027344-0.101632 0.04671-0.587194 0.607985-1.083985 1.240234-0.496787 0.632246-1.581032 1.982156-2.410156 3.00586-0.829127 1.023702-2.404411 2.98478-3.496094 4.353515-2.144694 2.688975-2.486544 3.230674-2.839843 4.507813-0.220647 0.797652-0.240072 2.085678-0.042969 2.833984 0.540369 2.051399 2.346311 3.589323 4.675781 3.984375 0.105893 0.018 0.47176 0.040072 0.810547 0.044922 1.411517 0.02114 2.6133-0.475377 3.630859-1.501953 0.536297-0.541048 0.684017-0.754087 1.013672-1.445313 0.212417-0.445367 0.443188-1.0387 0.515625-1.316406 0.185834-0.712295 0.27439-2.183062 0.177735-5.550781v-9.810547c-0.03794-0.198818-0.425213-0.352707-0.712891-0.373047z" style="fill:#ffffff"/>
 <path d="M 32 4 A 28 28 0 0 0 4 32 A 28 28 0 0 0 4.0214844 32.585938 A 28 28 0 0 1 32 5 A 28 28 0 0 1 59.978516 32.414062 A 28 28 0 0 0 60 32 A 28 28 0 0 0 32 4 z" style="fill:#ffffff;opacity:.2"/>
</svg>
