<svg width="64" height="64" version="1" xmlns="http://www.w3.org/2000/svg">
 <path d="m4 50v2c0 1.662 1.338 3 3 3h50c1.662 0 3-1.338 3-3v-2c0 1.662-1.338 3-3 3h-50c-1.662 0-3-1.338-3-3z" style="opacity:.2"/>
 <rect transform="matrix(0,-1,-1,0,0,0)" x="-54" y="-60" width="44" height="56" rx="3" ry="3" style="fill:#dd4545"/>
 <path d="m7 10c-1.662 0-3 1.338-3 3v1c0-1.662 1.338-3 3-3h50c1.662 0 3 1.338 3 3v-1c0-1.662-1.338-3-3-3h-50z" style="fill:#ffffff;opacity:.1"/>
 <path d="m48 32c0-16.6154-6.666-18-20-18-13.3334 0-20 1.3846-20 18 0 16.616 6.6666 18 20 18 13.334 0 20-1.384 20-18z" style="fill:#323232"/>
 <path d="m50 40v2h8v-2h-8z" style="fill:#323232"/>
 <path d="m50 44v2h8v-2h-8z" style="fill:#323232"/>
 <path d="m50 48v2h8v-2h-8z" style="fill:#323232"/>
 <g transform="matrix(2,0,0,2,0,1.000499)" style="opacity:.2">
  <circle cx="27" cy="11" r="2"/>
  <circle cx="27" cy="16" r="2"/>
 </g>
 <circle cx="54" cy="22" r="4" style="fill:#c7c7c7"/>
 <circle cx="54" cy="32" r="4" style="fill:#c7c7c7"/>
 <path d="m37.999846 33.000095-7.999972 4.999953-7.999972 4.999952v-19.999462l7.999972 4.999952z" style="opacity:.2"/>
 <path d="m37.999846 31.999596-7.999972 4.999953-7.999972 4.999952v-19.999462l7.999972 4.999952z" style="fill:#c7c7c7"/>
</svg>
