<svg width="64" height="64" version="1" xmlns="http://www.w3.org/2000/svg">
 <circle cx="32" cy="33" r="28" style="opacity:.2"/>
 <circle cx="32" cy="32" r="28" style="fill:#cccccc"/>
 <path d="m45.624 25.434a17.1802 12.7472 59 0 1 -21.852 13.132 17.1802 12.7472 59 0 1 21.852 -13.132z" style="fill:none;stroke-width:1.43;stroke:#474747"/>
 <path d="m34 24c-5.5242 0-10 4.4746-10 10s4.4746 10 10 10 10-4.4746 10-10-4.4746-10-10-10zm-1.7885 5.2848c3.7566 0 6.8288 3.032 6.8288 6.7886s-3.0724 6.8288-6.8288 6.8288c-3.7566 0-6.7886-3.0724-6.7886-6.8288 0-3.7566 3.032-6.7886 6.7886-6.7886z" style="fill:#2a58ae"/>
 <path d="m13.7208 32.992s-4.017 3.8358-3.7034 6.2316c0.43292 3.3044 4.5824 3.8314 7.8572 3.7932 7.9394-0.09 36.218-9.368 36.126-20.5-0.03-3.5982-6.502-3.9162-6.502-3.7028 0 0 4.8004 1.20452 4.6958 3.5222-0.39022 8.6392-24.01 18.3386-34.5 18.6036-2.2018 0.056-5.266-0.42-6.1422-2.44-0.7848-1.81 2.1676-5.508 2.1676-5.508z" style="fill:#474747"/>
 <path d="m46 23a5 5 0 0 1 -10 0 5 5 0 1 1 10 0z" style="fill:#d24646"/>
 <path d="m32 39.002a3 3 0 0 1 -6 0 3 3 0 1 1 6 0z" style="fill:#606060"/>
 <circle cx="48" cy="47" r="16" style="fill-rule:evenodd;opacity:.2"/>
 <circle cx="48" cy="46" r="16" style="fill-rule:evenodd;fill:#009545"/>
 <rect x="45" y="45" width="6" height="12" style="fill:#ffffff"/>
 <rect x="45" y="36" width="6" height="6" style="fill:#ffffff"/>
 <path d="M 32 4 A 28 28 0 0 0 4 32 A 28 28 0 0 0 4.0214844 32.585938 A 28 28 0 0 1 32 5 A 28 28 0 0 1 59.978516 32.414062 A 28 28 0 0 0 60 32 A 28 28 0 0 0 32 4 z" style="fill:#ffffff;opacity:.1"/>
</svg>
