<svg width="64" height="64" version="1" xmlns="http://www.w3.org/2000/svg">
 <rect x="12" y="54" width="40" height="6" style="opacity:.2"/>
 <path d="m26 35h12l6 24h-24z" style="fill:#4f4f4f"/>
 <path transform="matrix(.3463047 .59981732 -.69260938 .3998782 43.912652 -1.3206769)" d="m23.723231 13.979746 3.032011 5.251599 3.032012 5.251599h-6.064024-6.064024l3.032012-5.251599z" style="fill:#9c9c9c"/>
 <path d="m46.939144 39.412328c-9.226558 5.326956-21.024516 2.165702-26.351472-7.060856-5.326955-9.22656-2.165702-21.024518 7.060856-26.351474z" style="opacity:.2"/>
 <path d="m46.939144 38.412328c-9.226558 5.326956-21.024516 2.165702-26.351472-7.060856-5.326955-9.22656-2.165702-21.024517 7.060856-26.351473z" style="fill:#686868"/>
 <circle transform="matrix(.5 .8660254 -.8660254 .5 0 0)" cx="37.954" cy="-27.739" r="3" style="opacity:.2"/>
 <circle transform="matrix(.5 .8660254 -.8660254 .5 0 0)" cx="37.088" cy="-28.239" r="3" style="fill:#cccccc"/>
 <rect x="12" y="53" width="40" height="6" style="fill:#4f4f4f"/>
 <path d="m27.648438 5c-6.415717 3.7041156-9.889243 10.537388-9.625 17.458984 0.090973-6.572639 3.518939-12.933648 9.625-16.458984l18.851562 32.650391c0.146283-0.079557 0.294406-0.154539 0.439453-0.238282l-19.291015-33.412109z" style="fill:#ffffff;opacity:.1"/>
</svg>
