<svg width="64" height="64" version="1" xmlns="http://www.w3.org/2000/svg">
 <defs>
  <linearGradient id="linearGradient4282" x1="409.57" x2="409.57" y1="540.8" y2="506.8" gradientTransform="matrix(.2353 0 0 .2353 -64.134 -155.246)" gradientUnits="userSpaceOnUse">
   <stop stop-color="#2a2c2f" offset="0"/>
   <stop stop-color="#424649" offset="1"/>
  </linearGradient>
 </defs>
 <path d="M 61.96,31.828 A 30,30 0 0 1 32,61 30,30 0 0 1 2.04,32.172 30,30 0 0 0 2,33 30,30 0 0 0 32,63 30,30 0 0 0 62,33 30,30 0 0 0 61.96,31.828 Z" style="opacity:.2"/>
 <path d="M 62,32 A 30,30 0 0 1 32,62 30,30 0 0 1 2,32 30,30 0 0 1 32,2 30,30 0 0 1 62,32 Z" style="fill:#4f4f4f"/>
 <path d="M 31.998047 2 A 30 30 0 0 0 2 32 A 30 30 0 0 0 2.0175781 32.511719 A 30 30 0 0 1 31.998047 3 L 32 3 A 30 30 0 0 1 61.974609 32.511719 A 30 30 0 0 0 61.998047 32 A 30 30 0 0 0 32 2 L 31.998047 2 z" style="fill:#ffffff;opacity:.1"/>
 <path d="m15.3722 7.0636c-8.051 5.369-13.3388 14.5284-13.3388 24.972h24c0-2.4314 1.454-4.5126 3.5332-5.455l-14.1986-19.5152z" style="fill:#ffffff;opacity:.1"/>
 <path d="m48.628 56.936c8.0512-5.369 13.3388-14.5284 13.3388-24.972h-24c0 2.4314-1.454 4.5126-3.5332 5.455l14.1944 19.5176z" style="fill:#ffffff;opacity:.1"/>
 <rect x="20" y="20" width="24" height="24" ry="12" style="fill:#feb925"/>
 <rect transform="scale(1,-1)" x="28" y="-36" width="8" height="8" ry="4" style="fill:url(#linearGradient4282)"/>
</svg>
