<svg width="64" height="64" version="1" xmlns="http://www.w3.org/2000/svg">
 <rect transform="matrix(0,-1,-1,0,0,0)" x="-61" y="-54" width="56" height="44" rx="3" ry="3" style="opacity:.2"/>
 <rect transform="matrix(0,-1,-1,0,0,0)" x="-60" y="-54" width="56" height="44" rx="3" ry="3" style="fill:#8e8e8e"/>
 <rect x="18" y="14" width="28" height="16" rx="0" ry="0" style="opacity:.5"/>
 <path d="m24 37v16l16-8" style="opacity:.2"/>
 <path d="m24 36v16l16-8" style="fill:#e4e4e4"/>
 <path d="m13 4c-1.662 0-3 1.338-3 3v1c0-1.662 1.338-3 3-3h38c1.66 0 3 1.338 3 3v-1c0-1.662-1.34-3-3-3z" style="fill:#ffffff;opacity:.2"/>
</svg>
