<svg width="64" height="64" version="1" xmlns="http://www.w3.org/2000/svg">
 <path d="m31.9996 9.0045566c-5.801834 0-11.591203 1.8135474-15.495092 4.8552614-3.903688 3.041913-6.441416 7.392588-6.441416 12.23445v1.74995c-3.8750895 1.963944-6.0622928 7.113797-6.0622928 13.151625 0 7.727779 4.3964745 13.9996 10.062113 13.9996v-28.901175c0-3.625896 1.874947-6.465412 5.097655-8.97634 3.221708-2.511128 7.775578-4.113083 12.839433-4.113083s9.617725 1.601955 12.839633 4.113083c3.221908 2.510928 5.097855 5.350444 5.097855 8.97634v26.901232h-0.936688v-25.000114c-0.873975 0-1.562013 0.564012-2 1v24.000114h-5.55107c0.34199-0.589983 0.549985-1.265964 0.549985-1.999943v-1.999943c0-2.215936-1.78395-3.999885-3.999886-3.999885h-7.999772c-2.215937 0-3.999886 1.783949-3.999886 3.999885v1.999943c0 2.215937 1.783949 3.999886 3.999886 3.999886h19.999429v-4e-3c5.635839-0.046 9.999715-6.29582 9.999715-13.9956 0-6.037828-2.085604-11.187681-5.961493-13.151625v-1.74995c0-4.841862-2.537928-9.192537-6.441816-12.23445-3.903889-3.041714-9.794058-4.8552614-15.595892-4.8552614z" style="fill:#4f4f4f"/>
 <path d="m32 10.003906c-5.801834 0-11.592205 1.813755-15.496094 4.855469-3.903688 3.041913-6.441406 7.392513-6.441406 12.234375v1.75c-3.8750895 1.963944-6.0625 7.114516-6.0625 13.152344 0 7.727779 4.3968617 14 10.0625 14v-28.902344c0-3.625896 1.874948-6.465635 5.097656-8.976562 3.221708-2.511128 7.775989-4.113282 12.839844-4.113282s9.617936 1.602153 12.839844 4.113282c3.221908 2.510927 5.097656 5.350666 5.097656 8.976562v26.902344h-0.9375v-25c-0.873975 0-1.562013 0.564012-2 1v24h-5.550781c0.34199-0.589983 0.550781-1.266021 0.550781-2v-2c0-2.215936-1.784064-4-4-4h-8c-2.215937 0-4 1.784064-4 4v2c0 2.215937 1.784063 4 4 4h20v-0.0039c5.635839-0.046 10-6.296314 10-13.996094 0-6.037828-2.087002-11.1884-5.962891-13.152344v-1.75c0-4.841862-2.537518-9.192462-6.441406-12.234375-3.903889-3.04172-9.793869-4.855475-15.595703-4.855475zm-17 18.996094v27c0.800037 0 1.600074-0.143822 2-1v-25c-0.399926-0.42711-1.199963-1-2-1z" style="opacity:.2"/>
 <path d="m32 9.0039062c-5.801834 0-11.592205 1.8137548-15.496094 4.8554688-3.903688 3.041913-6.441406 7.392513-6.441406 12.234375v1.75c-3.8750895 1.963944-6.0625 7.114516-6.0625 13.152344 0 7.727779 4.3968617 14 10.0625 14v-28.902344c0-3.625896 1.874948-6.465635 5.097656-8.976562 3.221708-2.511128 7.775989-4.113282 12.839844-4.113282s9.617936 1.602153 12.839844 4.113282c3.221908 2.510927 5.097656 5.350666 5.097656 8.976562v26.902344h-0.9375v-25c-0.873975 0-1.562013 0.564012-2 1v24h-5.550781c0.34199-0.589983 0.550781-1.266021 0.550781-2v-2c0-2.215936-1.784064-4-4-4h-8c-2.215937 0-4 1.784064-4 4v2c0 2.215937 1.784063 4 4 4h20v-0.003906c5.635839-0.046 10-6.296314 10-13.996094 0-6.037828-2.087002-11.1884-5.962891-13.152344v-1.75c0-4.841862-2.537518-9.192462-6.441406-12.234375-3.903889-3.041714-9.793869-4.8554688-15.595703-4.8554688zm-17 18.996094v27c0.800037 0 1.600074-0.143822 2-1v-25c-0.399926-0.42711-1.199963-1-2-1z" style="fill:#4f4f4f"/>
 <path d="m32 9.0039062c-5.801834 0-11.592205 1.8137548-15.496094 4.8554688-3.903688 3.041913-6.441406 7.392513-6.441406 12.234375v1c0-4.841862 2.537718-9.192462 6.441406-12.234375 3.903889-3.041714 9.69426-4.855469 15.496094-4.855469s11.691814 1.813749 15.595703 4.855469c3.903888 3.041913 6.441406 7.392513 6.441406 12.234375v-1c0-4.841862-2.537518-9.192462-6.441406-12.234375-3.903889-3.041714-9.793869-4.8554688-15.595703-4.8554688zm-21.9375 18.839844c-3.8750895 1.963944-6.0625 7.114516-6.0625 13.152344 0 0.131781 0.0111302 0.259714 0.0136719 0.390625 0.1430151-5.771912 2.305383-10.645744 6.0488281-12.542969v-1zm43.974609 0v1c3.778226 1.914457 5.841019 6.864399 5.94336 12.705078 0.00508-0.18479 0.019531-0.366175 0.019531-0.552734 0-6.037828-2.087002-11.1884-5.962891-13.152344zm-5.037109 0.152344c-0.873975 0-1.562013 0.564012-2 1v1c0.437987-0.435988 1.126025-1 2-1v-1zm-34 0.003906v1c0.800037 0 1.600074 0.57289 2 1v-1c-0.399926-0.42711-1.199963-1-2-1zm15 16.996094c-2.215937 0-4 1.784064-4 4v1c0-2.215936 1.784063-4 4-4h8c2.215936 0 4 1.784064 4 4v-1c0-2.215936-1.784064-4-4-4h-8zm11.865234 8c-0.095179 0.354252-0.235948 0.689358-0.416015 1h5.550781v-1h-5.134766zm7.134766 0v1h0.9375v-1h-0.9375z" style="fill:#ffffff;opacity:.1"/>
</svg>
