<svg width="64" height="64" version="1.1" viewBox="0 0 64 64" xmlns="http://www.w3.org/2000/svg">
 <path d="m8.0010404 42.549913v1.999918c-1.32e-4 1.035958 0.5399179 1.993718 1.4140022 2.511697l21.171135 12.550288c0.873964 0.517578 1.95404 0.517578 2.828084 0l21.171135-12.550288c0.874085-0.517979 1.414143-1.475739 1.414003-2.511697v-1.999918c1.32e-4 1.035957-0.539918 1.993718-1.414003 2.511697l-21.171135 12.550287c-0.873964 0.517579-1.95404 0.517579-2.828084 0l-21.171135-12.599485c-0.8739643-0.599976-1.4141422-1.399943-1.4139422-2.599894z" style="opacity:.2"/>
 <path d="m32.066057 3.1515699c-0.518199-0.019999-1.029718 0.121995-1.478559 0.3877842l-21.175135 12.549087c-0.8740842 0.517979-1.4124823 1.47554-1.4123623 2.511498v25.098974c-1.32e-4 1.035958 0.5382581 1.993519 1.4123623 2.511498l21.175135 12.549287c0.873964 0.517579 1.95074 0.517579 2.824684 0l21.175135-12.549287c0.874085-0.517979 1.412483-1.47554 1.412363-2.511498v-25.098974c1.32e-4 -1.035958-0.538258-1.993519-1.412363-2.511498l-21.175135-12.549087c-0.409963-0.2429901-0.872844-0.3763846-1.346145-0.3877842z" style="fill:#e36d6d"/>
 <path d="m32.00006 59.149282c-0.48768 0-0.9744-0.131994-1.411402-0.390184l-21.177135-12.546887c-0.8740843-0.517779-1.4115224-1.47634-1.4114024-2.512298v-25.098974c-4.8e-5 -0.421383 0.088916-0.829566 0.2532297-1.200351l23.74703 13.999428z" style="fill:#f78d8d;opacity:.5"/>
 <path d="m32.00006 59.149282c0.48768 0 0.9744-0.131994 1.411402-0.390184l21.177135-12.546887c0.874085-0.517779 1.411523-1.47634 1.411403-2.512298v-25.098974c4.8e-5 -0.421383-0.08892-0.829566-0.25323-1.200351l-23.74703 13.999428z" style="fill:#e64d4d;opacity:.5"/>
 <path d="m32.066406 3.15625c-0.517979-0.0199992-1.032487 0.1209296-1.480468 0.3867188l-21.171876 12.548828c-0.8739643 0.517979-1.4123094 1.475761-1.4121094 2.511719v1c-2e-4 -1.035958 0.5381451-1.99374 1.4121094-2.511719l21.171876-12.548828c0.447981-0.2657892 0.962489-0.406718 1.480468-0.3867188 0.473981 0.0113995 0.937673 0.1437287 1.347656 0.3867188l21.171876 12.548828c0.873965 0.517979 1.414062 1.475761 1.414062 2.511719v-1c0-1.035958-0.540097-1.99374-1.414062-2.511719l-21.171876-12.548828c-0.409983-0.2429902-0.873675-0.3753193-1.347656-0.3867188z" style="fill:#ffffff;opacity:.2"/>
</svg>
