<svg width="64" height="64" version="1.1" viewBox="0 0 64 64" xmlns="http://www.w3.org/2000/svg">
 <path d="M 46,8.7512899 A 28,28 0 0 0 7.7512896,19 28,28 0 0 0 18.000001,57.248712 28,28 0 0 0 56.24871,47 28,28 0 0 0 46,8.7512899 Z" style="opacity:.2"/>
 <path d="M 46,7.7512888 A 28,28 0 0 0 7.7512896,18 28,28 0 0 0 18.000001,56.248712 28,28 0 0 0 56.24871,46 28,28 0 0 0 46,7.7512888 Z" style="fill:#42b8fe"/>
 <path d="M 32.660156 4.0078125 A 28 28 0 0 0 7.75 18 A 28 28 0 0 0 4.0449219 32.279297 A 28 28 0 0 1 7.75 19 A 28 28 0 0 1 32.660156 5.0078125 A 28 28 0 0 1 46 8.75 A 28 28 0 0 1 59.945312 32.945312 A 28 28 0 0 1 59.953125 33.1875 A 28 28 0 0 0 46 7.75 A 28 28 0 0 0 32.660156 4.0078125 z" style="fill:#ffffff;opacity:.2"/>
 <path transform="matrix(1.1325367 .87172576 -.87172576 1.1325367 22.111536 -16.369924)" d="m26.721132 7.139029 1.350113 3.796569 3.639254-1.7299056-1.729906 3.6392536 3.796569 1.350113-3.796569 1.350113 1.729906 3.639253-3.639254-1.729906-1.350113 3.79657-1.350113-3.79657-3.639253 1.729906 1.729906-3.639254-3.79657-1.350112 3.79657-1.350113-1.729906-3.6392538 3.639254 1.7299058z" style="opacity:.2"/>
 <path transform="matrix(1.1325367 .87172576 -.87172576 1.1325367 22.111536 -17.369924)" d="m26.721132 7.139029 1.350113 3.796569 3.639254-1.7299056-1.729906 3.6392536 3.796569 1.350113-3.796569 1.350113 1.729906 3.639253-3.639254-1.729906-1.350113 3.79657-1.350113-3.79657-3.639253 1.729906 1.729906-3.639254-3.79657-1.350112 3.79657-1.350113-1.729906-3.6392538 3.639254 1.7299058z" style="fill:#ffffff"/>
 <path d="m17.5 7.4847354c-6 22 1.692192 38.456308 17 54" style="fill:none;opacity:.2;stroke-linecap:round;stroke-linejoin:round;stroke-width:3;stroke:#000000"/>
 <path d="m17.5 6.5c-6 22 1.692192 38.456308 17 54" style="fill:none;stroke-linecap:round;stroke-linejoin:round;stroke-width:3;stroke:#3f3f3f"/>
 <path d="m59.5 32.484735c-15.761826 15.681734-33 19-53 13" style="fill:none;opacity:.2;stroke-linecap:round;stroke-linejoin:round;stroke-width:3;stroke:#000000"/>
 <path d="m59.5 31.5c-15.761826 15.681734-33 19-53 13" style="fill:none;stroke-linecap:round;stroke-linejoin:round;stroke-width:3;stroke:#3f3f3f"/>
</svg>
