<svg width="64" height="64" version="1" xmlns="http://www.w3.org/2000/svg">
 <path d="m32.000136 7.0003986c-6.217118 0-11.886872 1.8906716-16.069164 5.0653894-4.1827 3.174852-5.930972 7.717564-5.930972 12.770334v2.163878c-4.1525642 2.049534-8 7.087584-8 13.388936 0 8.065308 5.9294724 14.611064 12 14.611064v-30.163878c0-3.784264 0.792058-6.867537 4.245074-9.488495 3.452742-2.62149 8.329128-4.347627 13.755062-4.347627s10.30191 1.726269 13.755062 4.347228c3.453016 2.62096 4.244802 5.704232 4.244802 9.488498v30.163876c6.070936 0 12-6.545758 12-14.611064 0-6.301354-3.847708-11.339004-8-13.388538v-2.164274c0-5.053304-1.747862-9.59575-5.930426-12.770469-4.182292-3.1745854-9.852318-5.065257-16.069164-5.065257z" style="opacity:.2"/>
 <circle cx="32" cy="37" r="22" style="opacity:.2"/>
 <circle cx="32" cy="36" r="22" style="fill:#fdbb28"/>
 <path d="m40 45c0 4.418278-3.581722 8-8 8s-8-3.54322-8-7.9615z" style="opacity:.1"/>
 <path d="M 32 14 A 22 22 0 0 0 10 36 A 22 22 0 0 0 10.017578 36.490234 A 22 22 0 0 1 32 15 A 22 22 0 0 1 53.974609 36.490234 A 22 22 0 0 0 54 36 A 22 22 0 0 0 32 14 z" style="fill:#ffffff;opacity:.1"/>
 <path d="m32.000136 6.0003986c-6.217118 0-11.886872 1.8906716-16.069164 5.0653894-4.1827 3.174852-5.930972 7.717564-5.930972 12.770334v2.163878c-4.1525642 2.049534-8 7.087584-8 13.388936 0 8.065308 5.9294724 14.611064 12 14.611064v-30.163878c0-3.784264 0.792058-6.867537 4.245074-9.488495 3.452742-2.62149 8.329128-4.347627 13.755062-4.347627s10.30191 1.726269 13.755062 4.347228c3.453016 2.62096 4.244802 5.704232 4.244802 9.488498v30.163876c6.070936 0 12-6.545758 12-14.611064 0-6.301354-3.847708-11.339004-8-13.388538v-2.164274c0-5.053303-1.747862-9.59575-5.930426-12.770469-4.182292-3.1745854-9.852318-5.065257-16.069164-5.065257z" style="fill:#4f4f4f"/>
 <circle cx="42" cy="31" r="4" style="opacity:.1"/>
 <circle cx="42" cy="30" r="4" style="fill:#3d3d3d"/>
 <circle cx="22" cy="31" r="4" style="opacity:.1"/>
 <circle cx="22" cy="30" r="4" style="fill:#3d3d3d"/>
 <path d="m40 44c0 4.418278-3.581722 8-8 8s-8-3.54322-8-7.9615z" style="fill:#3d3d3d"/>
 <path d="m32 6c-6.217118 0-11.88802 1.8916883-16.070312 5.066406-4.182701 3.174852-5.929688 7.716761-5.929688 12.769532v1c0-5.052772 1.746987-9.59468 5.929688-12.769532 4.182292-3.1747177 9.853194-5.066406 16.070312-5.066406 6.216846 0 11.88802 1.8918209 16.070312 5.066406 4.182565 3.174719 5.929688 7.716227 5.929688 12.769532v-1c0-5.053304-1.747123-9.594813-5.929688-12.769532-4.182292-3.1745851-9.853466-5.066406-16.070312-5.066406zm-22 20c-4.1525642 2.049534-8 7.089273-8 13.390625 0 0.158331 0.0138737 0.312241 0.0195312 0.46875 0.2100733-6.050767 3.9461438-10.868199 7.9804688-12.859375v-0.164062-0.835938zm44 0v0.835938 0.164062c4.034061 1.991176 7.770381 6.80491 7.980469 12.855469 0.005678-0.156669 0.019531-0.310832 0.019531-0.46875 0-6.301354-3.847708-11.337185-8-13.386719z" style="fill:#ffffff;opacity:.1"/>
</svg>
