<svg width="64" height="64" version="1" xmlns="http://www.w3.org/2000/svg">
 <path d="m7.9997564 56.998848v2.00003c0 3.324051 3.3968516 3.96466 6.0000906 4.000061 2.403237 0.03268 6.000091-0.67607 6.000091-4.000061 0 3.324051 3.596455 4.000061 6.000091 4.000061 2.403637 0 5.91989-1.214758 6.000091-4.000061 0 3.324051 3.596454 4.000061 6.000091 4.000061 2.403636 0 5.91989-1.214758 6.000091-4.000061 0 3.324051 3.596454 4.000061 6.000091 4.000061 2.403636 0 6.000091-0.67607 6.000091-4.000061v-2.00003c0 3.32405-3.596455 4.000061-6.000091 4.000061-2.403637 0-6.000091-0.676071-6.000091-4.000061-0.08026 2.785242-3.596455 4.000061-6.000091 4.000061-2.403637 0-6.000091-0.676071-6.000091-4.000061-0.08026 2.785242-3.596454 4.000061-6.000091 4.000061-2.403636 0-6.000091-0.676071-6.000091-4.000061 0 3.32405-3.596854 4.032661-6.000091 4.000061-2.603239-0.0354-6.0000906-0.676071-6.0000906-4.000061z" style="opacity:.2"/>
 <path d="m28.470067 1.9999996c-11.293372 0-20.386309 9.6213454-20.46231 21.600327h-0.00824v34.400521c0 3.32405 3.3968516 3.96366 6.0000906 3.999061 2.403237 0.03268 6.000091-0.675071 6.000091-3.999061 0 3.32405 3.596455 3.999061 6.000091 3.999061 2.403637 0 5.91989-1.213779 6.000091-3.999061 0 3.32405 3.596454 3.999061 6.000091 3.999061 2.403636 0 5.91989-1.213779 6.000091-3.999061 0 3.32405 3.596454 3.999061 6.000091 3.999061 2.403636 0 6.000091-0.675071 6.000091-3.999061v-34.400521h-0.0082c-0.0760021-11.978982-9.1701391-21.600327-20.462311-21.600327z" style="fill:#3fc778"/>
 <g transform="matrix(2.0000303 0 0 2.0000303 -.00036479818 .99999954)" style="opacity:.2">
  <rect x="9" y="9" width="6" height="6" ry="3"/>
  <rect x="13" y="11" width="2" height="2" ry="1"/>
 </g>
 <g transform="matrix(2.0000303,0,0,2.0000303,-3.6479818e-4,-3.0663597e-5)">
  <rect x="9" y="9" width="6" height="6" ry="3" style="fill:#ecf0f1"/>
  <rect x="13" y="11" width="2" height="2" ry="1" style="fill:#494949"/>
 </g>
 <g transform="matrix(2.0000303 0 0 2.0000303 21.999969 .99999954)" style="opacity:.2">
  <rect x="9" y="9" width="6" height="6" ry="3"/>
  <rect x="13" y="11" width="2" height="2" ry="1"/>
 </g>
 <g transform="matrix(2.0000303,0,0,2.0000303,21.999969,-3.0663597e-5)">
  <rect x="9" y="9" width="6" height="6" ry="3" style="fill:#ecf0f1"/>
  <rect x="13" y="11" width="2" height="2" ry="1" style="fill:#494949"/>
 </g>
 <path d="m28.46875 2c-11.292571 0-20.384936 9.621781-20.460938 21.601562h-0.0078125v1h0.0078125c0.0760012-11.979782 9.1683665-21.601562 20.460938-21.601562h7.0625c11.292171 0 20.384937 9.62178 20.460938 21.601562h0.007812v-1h-0.007812c-0.076001-11.979782-9.168767-21.601562-20.460938-21.601562h-7.0625z" style="fill:#ffffff;opacity:.2"/>
</svg>
