<svg width="64" height="64" version="1" xmlns="http://www.w3.org/2000/svg">
 <path d="m32 5c-15.512 0-28 12.488-28 28s12.488 28 28 28 28-12.488 28-28-12.488-28-28-28z" style="opacity:.2"/>
 <path d="m32 4c-15.512 0-28 12.488-28 28s12.488 28 28 28 28-12.488 28-28-12.488-28-28-28z" style="fill:#3b94f7"/>
 <path d="m32.000343 16.999998a12 16 0 0 1 12 16.000001 12 16 0 0 1 -12 16.000001 12 16 0 0 1 -12 -16.000001 12 16 0 0 1 12 -16.000001z" style="opacity:.2"/>
 <path d="m32.000343 16.000398a12 16 0 0 1 12 16.000001 12 16 0 0 1 -12 16.000001 12 16 0 0 1 -12 -16.000001 12 16 0 0 1 12 -16.000001z" style="fill:#ffffff"/>
 <path d="m32 4c-15.512 0-28 12.488-28 28 0 0.167704 0.0107645 0.333014 0.0136719 0.5 0.2660088-15.278522 12.642032-27.5 27.986328-27.5s27.720319 12.221478 27.986328 27.5c0.002907-0.166986 0.013672-0.332296 0.013672-0.5 0-15.512-12.488-28-28-28z" style="fill:#ffffff;opacity:.2"/>
</svg>
