<svg width="64" height="64" version="1" xmlns="http://www.w3.org/2000/svg">
 <path d="m12 15v2h-3v2h3v6h-3v2h3v2h2v-2h4v2h2v-2h3v-2h-3v-6h3v-2h-3v-2h-2v2h-4v-2h-2zm2 4h4v6h-4v-6zm12 8v2h12v-2h-12z" style="opacity:.2"/>
 <rect transform="matrix(0,-1,-1,0,0,0)" x="-56" y="-60" width="48" height="56" rx="3" ry="3" style="fill:#f03939"/>
 <path d="m12 14v2h-3v2h3v6h-3v2h3v2h2v-2h4v2h2v-2h3v-2h-3v-6h3v-2h-3v-2h-2v2h-4v-2h-2zm2 4h4v6h-4v-6zm12 8v2h12v-2h-12z" style="fill:#ffffff"/>
 <path d="m7 8c-1.662 0-3 1.338-3 3v1c0-1.662 1.338-3 3-3h50c1.662 0 3 1.338 3 3v-1c0-1.662-1.338-3-3-3h-50z" style="fill:#ffffff;opacity:.1"/>
 <path d="m4 53v1c0 1.662 1.338 3 3 3h50c1.662 0 3-1.338 3-3v-1c0 1.662-1.338 3-3 3h-50c-1.662 0-3-1.338-3-3z" style="opacity:.2"/>
</svg>
