<svg width="64" height="64" version="1" xmlns="http://www.w3.org/2000/svg">
 <path d="m56.925781 20.6875c-0.356923 4.512039-2.557291 5.878778-5.070312 7.683594l-19.855469 12.628906h1.572266l18.283203-11.628906c2.513021-1.804816 4.713389-3.171555 5.070312-7.683594 0.04067 0.287517 0.04449 0.389171 0.05273 0.501953 0.0115-0.257034 0.021489-0.51597 0.021489-0.792969 0 0-0.01678-0.302897-0.07422-0.708984zm-28.324219 0.3125c-2.320018 0-3.601562 1.67998-3.601562 4h-18v1h18c0-2.32002 1.281544-4 3.601562-4 2.016477 0 3.039745 1.271277 3.273438 3.126953l0.195312-0.126953h-0.140624c0-2.31962-1.008426-4-3.328126-4zm-21.601562 32v1h18v-1h-18zm32 0v1h18v-1h-18zm0 4-14 2v1l14-2v-1z" style="opacity:.2"/>
 <path d="m38.999332 5.000221-13.999559 2v4h-6.799786c-11.199647 0-11.199647 7-11.199647 7v7h17.999433c0-2.3196 1.28036-4 3.599886-4 2.319527 0 3.330096 1.6804 3.330096 4h0.139455l-24.815218 16h-0.2539919v12h17.999433v6l13.999559-2v-4h17.999433v-12h-24.999213l19.853974-12.6286c2.743914-1.972 5.145839-3.372 5.145839-8.972 0 0 0.399987-8.4-14.999528-8.4h-2.999905z" style="fill:#2097fb"/>
 <path d="m39 5-14 2v1l14-2v-1zm-20.800781 6c-11.199782 0-11.199219 7-11.199219 7v1s-5.632e-4 -7 11.199219-7h6.800781v-1h-6.800781zm20.800781 0v1h3c12.763752 0 14.645786 5.711884 14.925781 7.6875 0.032-0.416003 0.074219-0.817059 0.074219-1.289062 0 0-0.0038-0.184866-0.03125-0.460938-0.01515 0.2491-0.02435 0.507966-0.04297 0.75-0.279994-1.975616-2.162028-7.6875-14.92578-7.6875h-3zm-7.128906 14.128906-24.617188 15.871094h-0.2539062v1h0.2539062l24.816406-16h-0.140624c0-0.30395-0.02131-0.593097-0.05859-0.871094zm1.699218 15.871094-1.570312 1h25v-1h-23.429688z" style="fill:#ffffff;opacity:.2"/>
</svg>
