<svg width="64" height="64" version="1" xmlns="http://www.w3.org/2000/svg">
 <path d="m32 10c-15.512 0-28 13.75-28 22s12.488 22 28 22 28-13.75 28-22-12.488-22-28-22z" style="fill:#4f4f4f"/>
 <path d="m32 10c-15.512 0-28 13.75-28 22 0 0.110698 0.0215797 0.229381 0.03125 0.34375 0.6260478-8.301378 12.85992-21.34375 27.96875-21.34375s27.342702 13.042372 27.96875 21.34375c0.00961-0.114369 0.03125-0.233052 0.03125-0.34375 0-8.25-12.488-22-28-22z" style="fill:#ffffff;opacity:.1"/>
 <path d="m29.77 13.0008c-0.982 0-1.77 1.0958-1.77 2.457v2.0624a16 16 0 0 0 -4.114 1.7106l-1.464-1.4644c-0.962-0.9626-2.294-1.1778-2.9884-0.4844l-3.1524 3.1528c-0.69354 0.69354-0.47822 2.0256 0.48438 2.9882l1.46484 1.46484a16 16 0 0 0 -1.6992 4.114h-2.0742c-1.36132 0-2.457 0.78872-2.457 1.76954v4.461c0 0.98 1.0958 1.768 2.457 1.768h2.0624a16 16 0 0 0 1.71094 4.1132l-1.46484 1.46484c-0.9626 0.9626-1.17792 2.2948-0.48438 2.9882l3.1524 3.1524c0.69354 0.69354 2.0256 0.47822 2.9882-0.48438l1.46484-1.46484a16 16 0 0 0 4.114 1.698v2.0742c0 1.362 0.788 2.458 1.77 2.458h4.461c0.98 0 1.768-1.096 1.768-2.458v-2.0624a16 16 0 0 0 4.1132 -1.71094l1.46484 1.46484c0.9626 0.9626 2.2948 1.17792 2.9882 0.48438l3.1524-3.1524c0.69354-0.69354 0.47822-2.0256-0.48438-2.9882l-1.464-1.464a16 16 0 0 0 1.698 -4.114h2.0742c1.362 0 2.458-0.788 2.458-1.77v-4.461c0-0.98-1.096-1.768-2.458-1.768h-2.0624a16 16 0 0 0 -1.71094 -4.1132l1.46484-1.46484c0.9626-0.9626 1.17792-2.2948 0.48438-2.9882l-3.152-3.1528c-0.694-0.6934-2.026-0.4782-2.988 0.4844l-1.464 1.4644a16 16 0 0 0 -4.114 -1.6988v-2.0742c0-1.3612-0.788-2.457-1.77-2.457h-4.461zm2.23 12a8 8 0 0 1 8 8 8 8 0 0 1 -8 8 8 8 0 0 1 -8 -8 8 8 0 0 1 8 -8z" style="opacity:.2"/>
 <path d="m29.77 12.0012c-0.982 0-1.77 1.0958-1.77 2.457v2.0624a16 16 0 0 0 -4.114 1.711l-1.464-1.4648c-0.962-0.9626-2.294-1.1778-2.9884-0.4844l-3.1524 3.1524c-0.69354 0.69354-0.47822 2.0256 0.48438 2.9882l1.46484 1.46484a16 16 0 0 0 -1.6992 4.114h-2.0742c-1.36132 0-2.457 0.78872-2.457 1.76954v4.461c0 0.98 1.0958 1.768 2.457 1.768h2.0624a16 16 0 0 0 1.71094 4.1132l-1.46484 1.46484c-0.9626 0.9626-1.17792 2.2948-0.48438 2.9882l3.1524 3.1524c0.69354 0.69354 2.0256 0.47822 2.9882-0.48438l1.46484-1.46484a16 16 0 0 0 4.114 1.698v2.0742c0 1.362 0.788 2.458 1.77 2.458h4.461c0.98 0 1.768-1.096 1.768-2.458v-2.0624a16 16 0 0 0 4.1132 -1.71094l1.46484 1.46484c0.9626 0.9626 2.2948 1.17792 2.9882 0.48438l3.1524-3.1524c0.69354-0.69354 0.47822-2.0256-0.48438-2.9882l-1.464-1.464a16 16 0 0 0 1.698 -4.114h2.0742c1.362 0 2.458-0.788 2.458-1.77v-4.461c0-0.98-1.096-1.768-2.458-1.768h-2.0624a16 16 0 0 0 -1.71094 -4.1132l1.46484-1.46484c0.9626-0.9626 1.17792-2.2948 0.48438-2.9882l-3.152-3.1526c-0.694-0.6934-2.026-0.4782-2.988 0.4844l-1.464 1.4648a16 16 0 0 0 -4.114 -1.6992v-2.0742c0-1.3612-0.788-2.457-1.77-2.457h-4.461zm2.23 12a8 8 0 0 1 8 8 8 8 0 0 1 -8 8 8 8 0 0 1 -8 -8 8 8 0 0 1 8 -8z" style="fill:#54b23f"/>
 <path d="m4.0898438 33c-0.0372001 0.336-0.0898438 0.678-0.0898438 1 0 0.214424 0.0145443 0.434733 0.03125 0.65625 0.0184589-0.218309 0.0341825-0.435761 0.0585938-0.65625 0.92 8.312 13.001956 21 27.910156 21 14.908 0 26.990156-12.688 27.910156-21 0.024464 0.220948 0.040141 0.438082 0.058594 0.65625 0.016706-0.221517 0.03125-0.441826 0.03125-0.65625 0-0.32116-0.052564-0.6633-0.089844-1-0.92 8.312-13.002156 21-27.910156 21-14.9082 0-26.990156-12.688-27.910156-21z" style="opacity:.2"/>
</svg>
