<svg width="64" height="64" version="1" xmlns="http://www.w3.org/2000/svg">
 <path d="m60 54.222v-44.444c0-1.5392-1.248-2.778-2.8-2.778h-50.4c-1.5512001 0-2.8 1.2388-2.8 2.7778v44.444c0 1.54 1.2487999 2.778 2.8 2.778h50.4c1.5512 0 2.8-1.23888 2.8-2.7778z" style="fill:#fecd38"/>
 <path d="m15.999829 15v32h31.999542v-32h-1.999971v2h-1.999972v-2h-23.999656v2h-1.999972l-4e-4 -2h-1.999651zm7.999885 4h15.999772v10h-15.999772zm-6.000314 2h1.999972v4h-1.999972zm25.999628 0h1.999972v4h-1.999972zm-25.999628 8h1.999972v4h-1.999972zm25.999628 0h1.999972v4h-1.999972zm-19.999714 4h15.999772v10h-15.999772zm-6.000314 4h1.999972v4h-1.999972zm25.999628 0h1.999972v4h-1.999972zm-25.999628 8h1.999972v2h-1.999972zm25.999628 0h1.999972v2h-1.999972z" style="fill:#4d4d4d"/>
 <path d="m4 54.222656v1c0 1.54 1.2504034 2.777344 2.8007812 2.777344h50.398438c1.549977 0 2.800781-1.237344 2.800781-2.777344v-1c0 1.54-1.250804 2.777344-2.800781 2.777344h-50.398438c-1.5503778 0-2.8007812-1.237344-2.8007812-2.777344z" style="opacity:.2"/>
 <path d="M 6.8007812 7 C 5.2496034 7 4 8.2383437 4 9.7773438 L 4 10.777344 C 4 9.2383437 5.2496034 8 6.8007812 8 L 57.199219 8 C 58.751196 8 60 9.2381438 60 10.777344 L 60 9.7773438 C 60 8.2381438 58.751196 7 57.199219 7 L 6.8007812 7 z" style="fill:#ffffff;opacity:.2"/>
</svg>
