<svg width="64" height="64" version="1" xmlns="http://www.w3.org/2000/svg">
 <rect transform="matrix(0,-1,-1,0,0,0)" x="-61" y="-60" width="56" height="56" rx="2.8" ry="2.8" style="opacity:.2"/>
 <rect transform="matrix(0,-1,-1,0,0,0)" x="-60" y="-60" width="56" height="56" rx="2.8" ry="2.8" style="fill:#dd9f59"/>
 <rect transform="matrix(0,-1,-1,0,0,0)" x="-55" y="-54" width="44" height="44" rx="2.667" ry="2.75" style="opacity:.2"/>
 <rect transform="matrix(0,-1,-1,0,0,0)" x="-54" y="-54" width="44" height="44" rx="2.667" ry="2.75" style="fill:#ffffff"/>
 <path d="m24.058282 11.998515c-2.111386 1.296864-7.5613 2.957916-11.058282 3.972656l0.10938 0.308594c1.663168-0.1661 4.039308-0.40147 5.70703-0.683594v2.453127h-5.792968l0.14062 2.07031h4.847656c-0.832724 3.424176-2.759832 4.864578-4.953124 7.50836l0.33203 0.308594c2.05678-1.490256 4.118188-2.813846 5.421876-4.777344v6.840782h0.53125c1.415174 0 2.73248-0.546484 2.7575-0.714844v-6.969688c1.055692 0.951034 1.257466 2.06299 1.453126 3.246094 0.359482 0.302594 0.749892 0.445312 1.109374 0.445312 0.74854 0 1.38672-0.541508 1.38672-1.296874 0-1.021566-0.368056-1.966386-3.94922-2.769532v-1.82086h4.6875c0.750816 0 2.1116-1.718562 2.305-2.023436l-5.035468-2.097657-0.898438 2.046877h-1.058594v-3.015627c1.25136-0.2844 2.419072-0.567162 3.363282-0.851562 0.548494 0.01396 3.594062-0.179688 3.594062-0.179688z" style="fill:#6b6b6b"/>
 <path d="m30 14.061094v15.938906c2.609654-2e-6 2.90906-0.958106 2.945719-0.992188v-0.929688h5.042563v1.472658c2.197844 0 2.972688-0.63809 2.972688-0.683594v-12.540468c0.582452-0.116041 1.029222-0.303388 1.195312-0.519531l-2.21097-1.730469-2.230468 1.921875h-4.628499zm2.945719 4.007811h5.042563v8.009219h-5.042563z" style="fill:#6b6b6b"/>
 <path d="M 6.8007812 4 C 5.2495812 4 4 5.2495812 4 6.8007812 L 4 7.8007812 C 4 6.2495813 5.2495812 5 6.8007812 5 L 57.199219 5 C 58.750419 5 60 6.2495812 60 7.8007812 L 60 6.8007812 C 60 5.2495813 58.750419 4 57.199219 4 L 6.8007812 4 z" style="fill:#ffffff;opacity:.2"/>
 <path d="m30 36v6 3 6h3v-6h3.152344a7.5 7.5 0 0 0 7.347656 6 7.5 7.5 0 0 0 7.5 -7.5 7.5 7.5 0 0 0 -7.5 -7.5 7.5 7.5 0 0 0 -7.339844 6h-3.160156v-6h-3zm13.5 3a4.5 4.5 0 0 1 4.5 4.5 4.5 4.5 0 0 1 -4.5 4.5 4.5 4.5 0 0 1 -4.5 -4.5 4.5 4.5 0 0 1 4.5 -4.5z" style="fill:#6b6b6b"/>
</svg>
