<svg width="64" height="64" version="1" xmlns="http://www.w3.org/2000/svg">
 <rect transform="matrix(0,-1,-1,0,0,0)" x="-61" y="-60" width="56" height="56" rx="28" ry="28" style="opacity:.2"/>
 <rect transform="matrix(0,-1,-1,0,0,0)" x="-60" y="-60" width="56" height="56" rx="28" ry="28" style="fill:#c12d25"/>
 <path d="m32 4c-2.063172 0-4.066088 0.2366852-6 0.65625v12.859375l-9.09375-9.0976562c-3.411033 2.1819122-6.306369 5.0772482-8.4882812 8.4882812l9.0976562 9.09375h-12.859375c-0.4195648 1.933912-0.65625 3.936828-0.65625 6s0.2366852 4.066088 0.65625 6h12.859375l-9.0976562 9.09375c2.1819122 3.411032 5.0772482 6.30637 8.4882812 8.488282l9.09375-9.097656v12.859374c1.933912 0.419564 3.936828 0.65625 6 0.65625s4.066088-0.236686 6-0.65625v-12.859374l9.09375 9.097656c3.411032-2.181912 6.30637-5.07725 8.488282-8.488282l-9.097656-9.09375h12.859374c0.419564-1.933912 0.65625-3.936828 0.65625-6s-0.236686-4.066088-0.65625-6h-12.859374l9.097656-9.09375c-2.181912-3.411033-5.07725-6.306369-8.488282-8.4882812l-9.09375 9.0976562v-12.859375c-1.933912-0.4195648-3.936828-0.65625-6-0.65625z" style="fill:#ffffff"/>
 <rect transform="matrix(0,-1,-1,0,0,0)" x="-56" y="-56" width="48" height="48" rx="24" ry="24" style="fill:#ffcb05"/>
 <rect transform="matrix(0,-1,-1,0,0,0)" x="-52" y="-52" width="40" height="40" rx="20" ry="20" style="fill:#c12d25"/>
 <path d="m19 23v4h4v16h4v-16h4v-4zm14 0v20h4v-8h4v8h4v-20h-4v8h-4v-8z" style="opacity:.2"/>
 <g transform="matrix(2,0,0,2,-1,0)">
  <rect x="12" y="11" width="2" height="10" style="fill:#fffcf7"/>
  <rect transform="rotate(90)" x="11" y="-16" width="2" height="6" style="fill:#fffcf7"/>
  <rect x="17" y="11" width="2" height="10" style="fill:#fffcf7"/>
  <rect transform="rotate(90)" x="15" y="-23" width="2" height="6" style="fill:#fffcf7"/>
  <rect x="21" y="11" width="2" height="10" style="fill:#fffcf7"/>
 </g>
 <path d="m32 4c-15.512 0-28 12.488-28 28 0 0.11345 0.0112805 0.224113 0.0175781 0.335938 0.3515432-15.201757 12.69315-27.335938 27.982422-27.335938s27.630879 12.134181 27.982422 27.335938c0.006298-0.111825 0.017578-0.222488 0.017578-0.335938 0-15.512-12.488-28-28-28z" style="fill:#ffffff;opacity:.1"/>
</svg>
