<svg width="64" height="64" version="1" xmlns="http://www.w3.org/2000/svg">
 <path d="m9.7779534 11.99953c-1.539049 0-2.777889 1.226613-2.777889 2.750029v32.500448c0 1.523516 1.23892 2.75003 2.777889 2.75003h25.222047l5 5.999963 5-5.999963h9.223975c1.53805 0 2.776089-1.226014 2.776089-2.75003v-32.500448c-2e-3 -1.523416-1.240039-2.750029-2.780089-2.750029z" style="opacity:.2"/>
 <path d="m9.7779534 10.999508c-1.539049 0-2.777889 1.226613-2.777889 2.750029v32.500448c0 1.523516 1.23892 2.75003 2.777889 2.75003h25.222047l5 5.999963 5-5.999963h9.223975c1.53805 0 2.776089-1.226014 2.776089-2.75003v-32.500448c-2e-3 -1.523416-1.240039-2.750029-2.780089-2.750029z" style="fill:#4f4f4f"/>
 <path d="m9.7773764 11c-1.539017 0-2.777344 1.226584-2.777344 2.75v1c0-1.523416 1.238327-2.75 2.777344-2.75h44.445312c1.540017 0 2.777344 1.226584 2.777344 2.75v-1c0-1.523416-1.237327-2.75-2.777344-2.75h-44.445312z" style="fill:#ffffff;opacity:.1"/>
 <circle cx="16.5" cy="20.5" r="15.5" style="opacity:.2"/>
 <circle cx="16.5" cy="19.5" r="15.5" style="fill:#4daaf5"/>
 <path d="m15.000032 10v13h3v-13zm0 15v3h3v-3z" style="fill:#ffffff"/>
</svg>
