<svg width="64" height="64" version="1.1" viewBox="0 0 64 64" xmlns="http://www.w3.org/2000/svg">
 <path d="m44 20v6c0 3.324-2.676 6-6 6h-12s-6 0-6 6v10.5c0 4.156 4.684 7.5 10.5 7.5h3c5.816 0 10.5-3.344 10.5-7.5v-4.5h4.5c4.156 0 7.5-4.684 7.5-10.5v-3c0-5.816-3.344-10.5-7.5-10.5h-4.5z" style="fill:#ffc851"/>
 <path d="m38 49a2 2 0 0 1 2 2 2 2 0 0 1 -2 2 2 2 0 0 1 -2 -2 2 2 0 0 1 2 -2z" style="opacity:.2"/>
 <path d="m38 48a2 2 0 0 1 2 2 2 2 0 0 1 -2 2 2 2 0 0 1 -2 -2 2 2 0 0 1 2 -2z" style="fill:#ffffff"/>
 <path d="m30.5 8c-5.816 0-10.5 3.345-10.5 7.5v4.5h-4.5c-4.155 0-7.5 4.684-7.5 10.5v3c0 5.816 3.345 10.5 7.5 10.5h4.5v-6c0-3.324 2.676-6 6-6h12s6 0 6-6v-10.5c0-4.155-4.684-7.5-10.5-7.5h-3z" style="fill:#4795d1"/>
 <path d="m26 13a2 2 0 0 1 2 2 2 2 0 0 1 -2 2 2 2 0 0 1 -2 -2 2 2 0 0 1 2 -2z" style="opacity:.2"/>
 <path d="m26 12a2 2 0 0 1 2 2 2 2 0 0 1 -2 2 2 2 0 0 1 -2 -2 2 2 0 0 1 2 -2z" style="fill:#ffffff"/>
 <path d="m30.5 8c-5.816 0-10.5 3.345-10.5 7.5v1c0-4.155 4.684-7.5 10.5-7.5h3c5.816 0 10.5 3.345 10.5 7.5v-1c0-4.155-4.684-7.5-10.5-7.5h-3zm-15 12c-4.155 0-7.5 4.684-7.5 10.5v1c0-5.816 3.345-10.5 7.5-10.5h4.5v-1h-4.5z" style="fill:#ffffff;opacity:.1"/>
 <path d="m44 20v1h4.5c4.156 0 7.5 4.684 7.5 10.5v-1c0-5.816-3.344-10.5-7.5-10.5h-4.5zm0 6c0 3.324-2.676 6-6 6h-12s-6 0-6 6v1c0-6 6-6 6-6h12c3.324 0 6-2.676 6-6v-1z" style="fill:#ffffff;opacity:.1"/>
 <path d="m44 26c0 6-6 6-6 6h-12c-3.324 0-6 2.676-6 6v1c0-3.324 2.676-6 6-6h12s6 0 6-6v-1zm-36 7.5v1c0 5.816 3.345 10.5 7.5 10.5h4.5v-1h-4.5c-4.155 0-7.5-4.684-7.5-10.5z" style="opacity:.2"/>
 <path d="m56 33.5c0 5.816-3.344 10.5-7.5 10.5h-4.5v1h4.5c4.156 0 7.5-4.684 7.5-10.5v-1zm-36 15v1c0 4.155 4.683 7.5 10.5 7.5h3c5.816 0 10.5-3.344 10.5-7.5v-1c0 4.156-4.684 7.5-10.5 7.5h-3c-5.817 0-10.5-3.345-10.5-7.5z" style="opacity:.2"/>
</svg>
