<svg width="64" height="64" version="1" xmlns="http://www.w3.org/2000/svg">
 <path d="m24.603595 7.0005918c-0.553993 0-1.003987 0.4779938-1.003987 1.0675863 0 0.4818938 0.299996 0.8871486 0.713671 1.0199868 0.621672 2.2537711 2.085373 4.3767441 4.106947 5.9191241a4.199946 5.4117305 0 0 0 -0.619992 2.816763 4.199946 5.4117305 0 0 0 1.399982 4.026349v27.089652c0 2.349969 1.117986 4.059947 2.799964 4.059947 1.682578 0 2.796164-1.779657 2.799964-4.058747v-27.093652a4.199946 5.4117305 0 0 0 1.399982 -4.024349 4.199946 5.4117305 0 0 0 -0.617992 -2.816963c2.019974-1.54218 3.481955-3.665753 4.103947-5.918924 0.413995-0.1327983 0.713991-0.5381931 0.713991-1.0199869 0-0.5895925-0.449994-1.0675863-1.003987-1.0675863-0.555213 0-1.006227 0.4789938-1.006227 1.0675463 0 0.3248158 0.137178 0.6136921 0.352735 0.8085896-0.567032 1.9899743-1.877476 3.8691503-3.674952 5.2585323a4.199946 5.4117305 0 0 0 -3.067961 -1.722978 4.199946 5.4117305 0 0 0 -3.065961 1.722778c-1.797976-1.389382-3.10996-3.267758-3.675952-5.2583323 0.213997-0.1949975 0.351995-0.4837938 0.351995-0.8085896 0-0.5885925-0.451994-1.0675863-1.005987-1.0675863z" style="opacity:.2"/>
 <path d="m24.603595 6.0006428c-0.553993 0-1.003987 0.4779938-1.003987 1.0675863 0 0.4818938 0.299996 0.8871486 0.713671 1.0199868 0.621672 2.2537711 2.085373 4.3767441 4.106947 5.9191241a4.199946 5.4117305 0 0 0 -0.619992 2.816763 4.199946 5.4117305 0 0 0 1.399982 4.026349v27.089652c0 2.349969 1.117986 4.059947 2.799964 4.059947 1.682578 0 2.796164-1.779657 2.799964-4.058747v-27.093652a4.199946 5.4117305 0 0 0 1.399982 -4.024349 4.199946 5.4117305 0 0 0 -0.617992 -2.816963c2.019974-1.54218 3.481955-3.665753 4.103947-5.918924 0.413995-0.1327983 0.713991-0.5381931 0.713991-1.0199869 0-0.5895925-0.449994-1.0675863-1.003987-1.0675863-0.555213 0-1.006227 0.4789938-1.006227 1.0675463 0 0.3248158 0.137178 0.6136921 0.352735 0.8085896-0.567032 1.9899745-1.877476 3.8691503-3.674952 5.2585323a4.199946 5.4117305 0 0 0 -3.067961 -1.722978 4.199946 5.4117305 0 0 0 -3.065961 1.722778c-1.797976-1.389382-3.10996-3.2677578-3.675952-5.2583323 0.213997-0.1949975 0.351995-0.4837938 0.351995-0.8085896 0-0.5885925-0.451994-1.0675863-1.005987-1.0675863z" style="fill:#4f4f4f"/>
 <g transform="matrix(1.399982,0,0,1.3548226,-1.600068,-4.2572254)">
  <path transform="matrix(1.4286,0,0,1.4762,1.1429,1.6667)" d="m8.3008 7c-3.4794 0-6.3008 3.336-6.3008 7.451 0.0027 3.194 1.7253 6.031 4.2832 7.053-0.0556 0.354-0.0841 0.714-0.084 1.076 0 2.993 1.8816 5.42 4.2008 5.42 2.32 0 4.2-2.427 4.2-5.42v-8.129c0-4.115-2.82-7.451-6.2992-7.451zm15.398 0c-3.479 0-6.299 3.336-6.299 7.451v8.129c0 2.993 1.88 5.42 4.2 5.42 2.319 0 4.201-2.427 4.201-5.42 0-0.362-0.029-0.722-0.084-1.076 2.558-1.022 4.28-3.859 4.283-7.053 0-4.115-2.821-7.451-6.301-7.451z" style="fill:#e75177"/>
 </g>
 <ellipse transform="matrix(.96859069 -.24866058 .26932864 .96304833 0 0)" cx="8.832" cy="31.355" rx="6.642" ry="10.241" style="fill:#ff85aa"/>
 <ellipse transform="matrix(-.96859068 -.24866059 -.26932864 .96304833 0 0)" cx="-52.816" cy="15.438" rx="6.642" ry="10.241" style="fill:#ff85aa"/>
 <path d="m23.76644 44.015088a5.0837979 3.892786 73.662988 0 1 -2.421127 5.887006 5.0837979 3.892786 73.662988 0 1 -5.112444 -3.916899 5.0837979 3.892786 73.662988 0 1 2.421127 -5.887007 5.0837979 3.892786 73.662988 0 1 5.112444 3.9169z" style="fill:#ff85aa"/>
 <path d="m40.23256 44.015088a3.892786 5.0837981 16.33701 0 0 2.421127 5.887006 3.892786 5.0837981 16.33701 0 0 5.112444 -3.916899 3.892786 5.0837981 16.33701 0 0 -2.421126 -5.887007 3.892786 5.0837981 16.33701 0 0 -5.112445 3.9169z" style="fill:#ff85aa"/>
 <g transform="matrix(1.399982,0,0,1.3548226,-1.600068,-4.2572254)">
  <path transform="matrix(.7142949 0 0 .73810401 1.1429204 3.1422752)" d="m16.601562 12c-6.9588492 0-12.601562 6.672389-12.601562 14.902344 9.62e-5 0.128002 0.0138143 0.25228 0.0253906 0.376953 0.2783262-7.938742 5.795185-14.277344 12.576171-14.277344 6.95845 0 12.597657 6.670436 12.597657 14.900391v-1c0-8.229955-5.639207-14.902344-12.597657-14.902344zm30.796876 0c-6.95805 0-12.597657 6.672389-12.597657 14.902344v1c0-8.229955 5.639607-14.900391 12.597657-14.900391 6.782156 0 12.297883 6.338602 12.576171 14.277344 0.011429-0.124673 0.025391-0.248951 0.025391-0.376953 0-8.229955-5.641513-14.902344-12.601562-14.902344zm-34.980469 30.935547c-0.0012 0.075999-0.019532 0.14861-0.019531 0.224609 0 0.273599 0.036336 0.533005 0.0625 0.796875 0.009786 0.005152 0.019597 0.010226 0.029296 0.015625 0.018423-0.322951 0.026265-0.647256 0.076172-0.964844-0.0516-0.019999-0.097237-0.052265-0.148437-0.072265zm39.164062 0c-0.052 0.02-0.096437 0.052266-0.148437 0.072265 0.048731 0.317588 0.057418 0.641893 0.076172 0.964844 0.0096-0.005399 0.019555-0.010473 0.029296-0.015625 0.026113-0.26387 0.0625-0.523276 0.0625-0.796875 0-0.075999-0.017531-0.14861-0.019531-0.224609z" style="fill:#ffffff;opacity:.2"/>
 </g>
 <g transform="matrix(1.399982,0,0,1.3548226,-1.600068,-3.2581511)" style="opacity:.2">
  <path transform="matrix(1.4286 0 0 1.4762 1.1429 .19048)" d="m2.0273 14.842c-0.0138 0.201-0.0273 0.403-0.0273 0.609 0.00269 3.1613 1.6937 5.9676 4.209 7.0156 0.00527-0.32323 0.02449-0.64572 0.074219-0.96289-2.4518-0.98-4.118-3.632-4.2559-6.662zm27.945 0c-0.13787 3.0303-1.8041 5.6823-4.2559 6.6621 0.04973 0.31717 0.06895 0.63966 0.07422 0.96289 2.5153-1.048 4.2063-3.8544 4.209-7.0156 0-0.20578-0.01351-0.40781-0.02734-0.60938zm-15.373 7.7383c0 2.993-1.8796 5.4199-4.1992 5.4199-2.1873 2e-6 -3.9642-2.1661-4.1621-4.9219-0.012246 0.16757-0.03912 0.33326-0.039062 0.50195 0 2.993 1.8816 5.4199 4.2012 5.4199 2.3196 2e-6 4.1992-2.4269 4.1992-5.4199v-1zm2.8008 0v1c0 2.993 1.8796 5.4199 4.1992 5.4199 2.3196 2e-6 4.2012-2.4269 4.2012-5.4199 5.8e-5 -0.1687-0.02682-0.33438-0.03906-0.50195-0.19792 2.7558-1.9748 4.9219-4.1621 4.9219-2.3196 2e-6 -4.1992-2.4269-4.1992-5.4199z"/>
 </g>
 <path d="m15.57393 19.004873a10.242649 6.6396017 73.486531 0 0 -1.332014 0.132818 10.242649 6.6396017 73.486531 0 0 -3.675734 11.515478 10.242649 6.6396017 73.486531 0 0 9.191288 8.210832 10.242649 6.6396017 73.486531 0 0 3.675734 -11.515478 10.242649 6.6396017 73.486531 0 0 -7.859274 -8.343642zm32.851141 0a6.6396017 10.242649 16.513468 0 0 -7.859275 8.343642 6.6396017 10.242649 16.513468 0 0 3.675735 11.515478 6.6396017 10.242649 16.513468 0 0 9.191288 -8.210832 6.6396017 10.242649 16.513468 0 0 -3.675735 -11.515478 6.6396017 10.242649 16.513468 0 0 -1.332013 -0.132818zm-28.995722 21.995811a5.0837979 3.892786 73.662988 0 0 -0.773428 0.09766 5.0837979 3.892786 73.662988 0 0 -2.421843 5.886644 5.0837979 3.892786 73.662988 0 0 5.109309 3.917918 5.0837979 3.892786 73.662988 0 0 2.421843 -5.886645 5.0837979 3.892786 73.662988 0 0 -4.335881 -4.015572zm25.140301 0a3.892786 5.0837981 16.33701 0 0 -4.33588 4.015572 3.892786 5.0837981 16.33701 0 0 2.421843 5.886645 3.892786 5.0837981 16.33701 0 0 5.109308 -3.917918 3.892786 5.0837981 16.33701 0 0 -2.421842 -5.886644 3.892786 5.0837981 16.33701 0 0 -0.773429 -0.09766z" style="opacity:.2"/>
 <path d="m15.57393 18.004394a10.242649 6.6396017 73.486531 0 0 -1.332014 0.132819 10.242649 6.6396017 73.486531 0 0 -3.675734 11.515478 10.242649 6.6396017 73.486531 0 0 9.191288 8.210832 10.242649 6.6396017 73.486531 0 0 3.675734 -11.515478 10.242649 6.6396017 73.486531 0 0 -7.859274 -8.343643zm32.851141 0a6.6396017 10.242649 16.513468 0 0 -7.859275 8.343643 6.6396017 10.242649 16.513468 0 0 3.675735 11.515478 6.6396017 10.242649 16.513468 0 0 9.191288 -8.210832 6.6396017 10.242649 16.513468 0 0 -3.675735 -11.515478 6.6396017 10.242649 16.513468 0 0 -1.332013 -0.132819zm-28.995722 21.995812a5.0837979 3.892786 73.662988 0 0 -0.773428 0.09766 5.0837979 3.892786 73.662988 0 0 -2.421843 5.886645 5.0837979 3.892786 73.662988 0 0 5.109309 3.917917 5.0837979 3.892786 73.662988 0 0 2.421843 -5.886644 5.0837979 3.892786 73.662988 0 0 -4.335881 -4.015576zm25.140301 0a3.892786 5.0837981 16.33701 0 0 -4.33588 4.015572 3.892786 5.0837981 16.33701 0 0 2.421843 5.886644 3.892786 5.0837981 16.33701 0 0 5.109308 -3.917917 3.892786 5.0837981 16.33701 0 0 -2.421842 -5.886645 3.892786 5.0837981 16.33701 0 0 -0.773429 -0.09765z" style="fill:#ff85aa"/>
 <path d="m15.574219 18.003906a10.242649 6.6396017 73.486531 0 0 -1.332031 0.132813 10.242649 6.6396017 73.486531 0 0 -4.220704 8.029297 10.242649 6.6396017 73.486531 0 1 4.220704 -7.029297 10.242649 6.6396017 73.486531 0 1 1.332031 -0.132813 10.242649 6.6396017 73.486531 0 1 7.859375 8.34375 10.242649 6.6396017 73.486531 0 1 0.539062 3.484375 10.242649 6.6396017 73.486531 0 0 -0.539062 -4.484375 10.242649 6.6396017 73.486531 0 0 -7.859375 -8.34375zm32.851562 0a6.6396017 10.242649 16.513468 0 0 -7.859375 8.34375 6.6396017 10.242649 16.513468 0 0 -0.546875 4.492188 6.6396017 10.242649 16.513468 0 1 0.546875 -3.492188 6.6396017 10.242649 16.513468 0 1 7.859375 -8.34375 6.6396017 10.242649 16.513468 0 1 1.332031 0.132813 6.6396017 10.242649 16.513468 0 1 4.222657 7 6.6396017 10.242649 16.513468 0 0 -4.222657 -8 6.6396017 10.242649 16.513468 0 0 -1.332031 -0.132813zm-28.996093 21.996094a5.0837979 3.892786 73.662988 0 0 -0.773438 0.097656 5.0837979 3.892786 73.662988 0 0 -2.628906 4.691406 5.0837979 3.892786 73.662988 0 1 2.628906 -3.691406 5.0837979 3.892786 73.662988 0 1 0.773438 -0.097656 5.0837979 3.892786 73.662988 0 1 4.335937 4.015625 5.0837979 3.892786 73.662988 0 1 0.208984 1.195313 5.0837979 3.892786 73.662988 0 0 -0.208984 -2.195313 5.0837979 3.892786 73.662988 0 0 -4.335937 -4.015625zm25.140624 0a3.892786 5.0837981 16.33701 0 0 -4.335937 4.015625 3.892786 5.0837981 16.33701 0 0 -0.205078 2.181641 3.892786 5.0837981 16.33701 0 1 0.205078 -1.181641 3.892786 5.0837981 16.33701 0 1 4.335937 -4.015625 3.892786 5.0837981 16.33701 0 1 0.773438 0.097656 3.892786 5.0837981 16.33701 0 1 2.626953 3.683594 3.892786 5.0837981 16.33701 0 0 -2.626953 -4.683594 3.892786 5.0837981 16.33701 0 0 -0.773438 -0.097656z" style="fill:#ffffff;opacity:.1"/>
 <path d="m24.603516 6c-0.553993 0-1.003907 0.4787669-1.003907 1.0683594 0 0.1838805 0.053851 0.3493143 0.13086 0.5 0.169904-0.3335875 0.491623-0.5683594 0.873047-0.5683594 0.381423 0 0.704505 0.2348029 0.875 0.5683594 0.077793-0.150746 0.130859-0.315373 0.130859-0.5 0-0.5885925-0.451866-1.0683594-1.005859-1.0683594zm14.792968 0c-0.555213 0-1.005859 0.4798069-1.005859 1.0683594 0 0.1846384 0.053008 0.3492479 0.130859 0.5 0.170287-0.3335434 0.492737-0.5683594 0.875-0.5683594 0.381903 0 0.701385 0.2360368 0.871094 0.5703125 0.077772-0.1512442 0.132813-0.3171598 0.132813-0.5019531 0-0.5895925-0.449914-1.0683594-1.003907-1.0683594zm-13.912109 2.5605469c-0.059558 0.1179974-0.131878 0.2281749-0.226563 0.3144531 0.565993 1.990574 1.877806 3.870384 3.675782 5.259766a4.199946 5.4117305 0 0 1 3.066406 -1.722657 4.199946 5.4117305 0 0 1 3.068359 1.722657c1.797476-1.389382 3.106797-3.269792 3.673829-5.259766-0.095375-0.086234-0.16697-0.1964502-0.226563-0.3144531-0.650355 1.7332451-1.857218 3.3451711-3.447266 4.5742191a4.199946 5.4117305 0 0 0 -3.068359 -1.722657 4.199946 5.4117305 0 0 0 -3.066406 1.722657c-1.59049-1.229048-2.799299-2.840703-3.449219-4.5742191zm10.392578 6.2011721c-0.099141 0.0808-0.192897 0.166248-0.294922 0.24414a4.199946 5.4117305 0 0 1 0.595703 2.291016 4.199946 5.4117305 0 0 0 0.021485 -0.472656 4.199946 5.4117305 0 0 0 -0.322266 -2.0625zm-7.751953 0.001953a4.199946 5.4117305 0 0 0 -0.324219 2.060547 4.199946 5.4117305 0 0 0 0.021485 0.527343 4.199946 5.4117305 0 0 1 0.597656 -2.34375c-0.101971-0.0778-0.195826-0.163443-0.294922-0.24414z" style="fill:#ffffff;opacity:.1"/>
</svg>
