<svg width="64" height="64" version="1" xmlns="http://www.w3.org/2000/svg">
 <path d="m9.0683381 4.0013414a4.9535396 4.3943464 0 0 0 -5.0683382 4.3925464v47.215424a4.9535396 4.3943464 0 0 0 7.4301091 3.802353l23.045719-11.799856 23.047719-11.803856a4.9535396 4.3943464 0 0 0 0 -7.610907l-23.047719-11.803256-23.045719-11.803656a4.9535396 4.3943464 0 0 0 -2.3615709 -0.5871928z" style="fill:#4f4f4f"/>
 <path d="m11.999902 15.000439v35.999561l18.919769-9.459885 17.079792-8.539896-17.079792-8.539895-18.919769-9.459885z" style="opacity:.2"/>
 <path d="m11.999902 14.000855v35.999561l18.919769-9.459884 17.079792-8.539896-17.079792-8.539896-18.919769-9.459885z" style="fill:#00e382"/>
 <path d="m9.0705744 4.0012146a4.9540755 4.3921679 0 0 0 -5.0705744 4.3925378v0.9995464a4.9540755 4.3921679 0 0 1 5.0705744 -4.3925378 4.9540755 4.3921679 0 0 1 2.3594976 0.5895762l23.048064 11.793476 23.05002 11.799332a4.9540755 4.3921679 0 0 1 2.437626 3.316855 4.9540755 4.3921679 0 0 0 -2.437626 -4.316401l-23.05002-11.799332-23.048064-11.793476a4.9540755 4.3921679 0 0 0 -2.3594976 -0.5895762z" style="fill:#ffffff;opacity:.1"/>
 <path d="m59.967747 32.5a4.9543475 4.3954322 0 0 1 -2.437711 3.303384l-23.048875 11.805052-23.050828 11.803098a4.9543475 4.3954322 0 0 1 -7.430333 -3.801527v1.000196a4.9543475 4.3954322 0 0 0 7.430333 3.801528l23.050828-11.803099 23.048875-11.805052a4.9543475 4.3954322 0 0 0 2.437711 -4.30358z" style="opacity:.2"/>
</svg>
