<svg width="64" height="64" version="1" xmlns="http://www.w3.org/2000/svg">
 <rect transform="matrix(0,-1,-1,0,0,0)" x="-61" y="-60" width="56" height="56" rx="2.8" ry="2.8" style="opacity:.2"/>
 <rect transform="matrix(0,-1,-1,0,0,0)" x="-60" y="-60" width="56" height="56" rx="2.8" ry="2.8" style="fill:#7ec242"/>
 <g transform="matrix(2,0,0,2,0,1.0010584)" style="opacity:.2">
  <path d="m21.999851 14h-0.997351l-0.0025-2h1.000149v-3.0000094h2.997351v3.0000094h2l5e-3 2h-2l-5e-3 4.884606c-1e-5 0.51321 0.101622 1.115394 1.5005 1.115394h0.50075l0.0025 2.996622s-3.20127 0.0076-3.200711 0c-1.264891 0.003378-1.800539-1.196622-1.800408-1.814622 3.07e-4 -1.448011 0-7.182-2.8e-4 -7.182z"/>
  <path d="m8.8886719 6c-1.4444408 0-2.8886719 1.401142-2.8886719 2.8007812v11.398438c0 1.400277 1.4442311 2.798828 2.8886719 2.798828h2.9531251c0.0468 0.0079 0.112032-0.02417 0.158203 0.05664v2.52539c0 0.699132 0.874083 1.416016 1.445312 1.416016-5.76e-4 0.0076 3.556641 0 3.556641 0l-0.003906-2.996093h-0.666016c-1.443284 0-1.32423-0.457386-1.324219-0.970703 1.24e-4 -0.02818-0.0096-0.0012-0.01562-0.02734 0.0051-0.0012 0.01056-0.0027 0.01562-0.0039h1.103516c1.444441 3.08e-4 2.888672-1.398561 2.888672-2.798838v-11.398438c-2.3e-5 -1.3996622-1.444231-2.8007812-2.888672-2.8007812h-3.583984-3.6386721zm2.2109371 3h2.800782c1.1634 0 2.099609 0.9198751 2.099609 2.0625v6.875c0 1.142625-0.936209 2.0625-2.099609 2.0625h-2.800782c-1.1633996 0-2.099609-0.919875-2.099609-2.0625v-6.875c0-1.1426249 0.9362094-2.0625 2.099609-2.0625z"/>
 </g>
 <g transform="scale(2)">
  <path d="m21.999851 14h-0.997351l-0.0025-2h1.000149v-3.0000094h2.997351v3.0000094h2l5e-3 2h-2l-5e-3 4.884606c-1e-5 0.51321 0.101622 1.115394 1.5005 1.115394h0.50075l0.0025 2.996622s-3.20127 0.0076-3.200711 0c-1.264891 0.003378-1.800539-1.196622-1.800408-1.814622 3.07e-4 -1.448011 0-7.182-2.8e-4 -7.182z" style="fill:#ffffff"/>
  <path d="m8.8886719 6c-1.4444408 0-2.8886719 1.401142-2.8886719 2.8007812v11.398438c0 1.400277 1.4442311 2.798828 2.8886719 2.798828h2.9531251c0.0468 0.0079 0.112032-0.02417 0.158203 0.05664v2.52539c0 0.699132 0.874083 1.416016 1.445312 1.416016-5.76e-4 0.0076 3.556641 0 3.556641 0l-0.003906-2.996093h-0.666016c-1.443284 0-1.32423-0.457386-1.324219-0.970703 1.24e-4 -0.02818-0.0096-0.0012-0.01562-0.02734 0.0051-0.0012 0.01056-0.0027 0.01562-0.0039h1.103516c1.444441 3.08e-4 2.888672-1.398561 2.888672-2.798838v-11.398438c-2.3e-5 -1.3996622-1.444231-2.8007812-2.888672-2.8007812h-3.583984-3.6386721zm2.2109371 3h2.800782c1.1634 0 2.099609 0.9198751 2.099609 2.0625v6.875c0 1.142625-0.936209 2.0625-2.099609 2.0625h-2.800782c-1.1633996 0-2.099609-0.919875-2.099609-2.0625v-6.875c0-1.1426249 0.9362094-2.0625 2.099609-2.0625z" style="fill:#ffffff"/>
 </g>
 <path d="M 6.8007812 4 C 5.2495812 4 4 5.2495812 4 6.8007812 L 4 7.8007812 C 4 6.2495813 5.2495812 5 6.8007812 5 L 57.199219 5 C 58.750419 5 60 6.2495812 60 7.8007812 L 60 6.8007812 C 60 5.2495813 58.750419 4 57.199219 4 L 6.8007812 4 z" style="fill:#ffffff;opacity:.2"/>
</svg>
