<svg width="64" height="64" version="1" xmlns="http://www.w3.org/2000/svg">
 <rect transform="matrix(0,-1,-1,0,0,0)" x="-58" y="-58" width="52" height="52" rx="2.6" ry="2.6" style="fill:#81d547"/>
 <path d="m32.034301 17.000663c3.506452 0.0074 7.062105 1.056642 9.839347 3.133547 1.952509 2.159563-1.767806 4.472324-3.443452 2.36656-5.044075-2.93035-12.157782-1.898648-15.952839 2.482558-2.01903 2.174163-3.156847 5.075314-3.143447 7.987865h3.33345c-1.778427 2.559957-3.556053 5.119913-5.33388 7.67987l-5.33348-7.67987h3.33345c-0.106028-6.954282 5.102877-13.568771 12.096181-15.36994 1.500423-0.394834 3.046246-0.61599 4.60407-0.60049zm14.633619 8.321259c1.776027 2.559957 3.554053 5.121914 5.33208 7.68187h-3.33345c0.0945 7.037281-5.247479 13.726568-12.363385 15.43254-4.801672 1.287398-10.231154 0.347994-14.177413-2.597557-2.01343-2.195562 1.758546-4.486124 3.449652-2.36116 4.887073 2.846952 11.730776 1.943927 15.588433-2.122164 2.234034-2.209962 3.519653-5.271511 3.502653-8.351859h-3.33345l5.33348-7.68107z" style="opacity:.2"/>
 <path d="m32.034301 16.000664c3.506452 0.0074 7.062105 1.056642 9.839347 3.133547 1.952509 2.159563-1.767806 4.472324-3.443452 2.36656-5.044075-2.93035-12.157782-1.898648-15.952839 2.482558-2.01903 2.174163-3.156847 5.075314-3.143447 7.987865h3.33345c-1.778427 2.559957-3.556053 5.119913-5.33388 7.67987l-5.33348-7.67987h3.33345c-0.106028-6.954282 5.102877-13.568771 12.096181-15.36994 1.500423-0.394834 3.046246-0.61599 4.60407-0.60049zm14.633619 8.321259c1.776027 2.559957 3.554053 5.121914 5.33208 7.68187h-3.33345c0.0945 7.037281-5.247479 13.726568-12.363385 15.43254-4.801672 1.287398-10.231154 0.347994-14.177413-2.597557-2.01343-2.195562 1.758546-4.486124 3.449652-2.36116 4.887073 2.846952 11.730776 1.943927 15.588433-2.122164 2.234034-2.209962 3.519653-5.271511 3.502653-8.351859h-3.33345l5.33348-7.68107z" style="fill:#ffffff"/>
 <path d="m6 55.4v0.999566c0 1.43875 1.1611625 2.600434 2.6015625 2.600434h46.796876c1.44 0 2.601562-1.161684 2.601562-2.600434v-0.999566c0 1.43875-1.161562 2.600434-2.601562 2.600434h-46.796876c-1.4404 0-2.6015625-1.161684-2.6015625-2.600434z" style="opacity:.2"/>
 <path d="M 8.6015625,6 C 7.1611625,6 6,7.1611593 6,8.6004338 L 6,9.6 C 6,8.1607255 7.1611625,6.9995662 8.6015625,6.9995662 l 46.7968755,0 C 56.838437,6.9995662 58,8.1607255 58,9.6 L 58,8.6004338 C 58,7.1611593 56.838437,6 55.398438,6 L 8.6015625,6 Z" style="fill:#ffffff;opacity:.2"/>
 <circle cx="48" cy="46" r="16" style="fill:#f34235"/>
 <path d="m40.877332 40.00106h12.247648c0.87502 0 0.87502 0.85714 0.87502 0.85714v10.2858c-0.00196 0.856-0.87794 0.856-0.87794 0.856h-12.24608s-0.87598 0-0.87598-0.858v-10.2858c0 2e-3 0-0.856 0.87598-0.856z" style="fill:#ffffff"/>
 <path d="m60 41v9l-6-4.696z" style="fill:#ffffff"/>
 <path d="M 32.025391,46.5 A 16,16.001894 0 0 0 32,46.998106 16,16.001894 0 0 0 48,63 16,16.001894 0 0 0 64,46.998106 16,16.001894 0 0 0 63.982422,46.50586 16,16.001894 0 0 1 48,61.999882 16,16.001894 0 0 1 32.025391,46.5 Z" style="opacity:.2"/>
</svg>
