<svg width="64" height="64" version="1" xmlns="http://www.w3.org/2000/svg">
 <path d="m32.078198 9.0007628c-2.350887-0.01942-4.592397 0.314954-6.673397 0.859356-8.160771 2.1032462-13.855162 8.4209362-16.154786 15.851225-4.7916548 1.822464-6.9324893 7.773979-3.724413 12.066148l6.0154556 8.031077c0.0013 0.0013 0.0026 0.0026 0.0039 4e-3 0.797128 1.059338 2.003158 1.642233 3.195711 2.195265 0.433529 1.234373 0.941954 2.452058 1.813252 3.413989 0.346549 0.383402 0.729615 0.733131 1.143563 1.042947 4.289234 3.201754 9.378712 4.513491 14.20838 4.531153-0.0563-1.94e-4 -0.231212-3.46e-4 0.0118 4e-3 0.0118 1.03e-4 0.0235 1.03e-4 0.03524 0 3.299359 0 4.818288-0.534854 6.48933-0.828108 0.05136-0.0098 0.1023-0.02146 0.15274-0.03516 8.160774-2.103248 13.855163-8.420941 16.154787-15.851223 4.792181-1.822121 6.932737-7.773648 3.724413-12.066148l-6.015413-8.031076c-0.0013-0.0013-0.0026-0.0026-4e-3 -0.0038-0.797037-1.059683-2.003106-1.642503-3.195701-2.195557-0.433002-1.235579-0.940307-2.454138-1.813253-3.417895-0.346545-0.383393-0.729605-0.733123-1.143563-1.042946-4.294668-3.205809-9.386914-4.5105442-14.212298-4.5272472z" style="opacity:.2"/>
 <path d="m32.078198 8.0007619c-2.350887-0.01942-4.592397 0.3149545-6.673397 0.8593565-8.160771 2.1032456-13.855162 8.4209356-16.154786 15.851225-4.7916548 1.822463-6.9324893 7.773978-3.724413 12.066148l6.0154556 8.031076c0.0013 0.0013 0.0026 0.0026 0.0039 4e-3 0.797128 1.059339 2.003158 1.642233 3.195711 2.195266 0.433529 1.234373 0.941954 2.452058 1.813252 3.413988 0.346549 0.383403 0.729615 0.733131 1.143563 1.042947 4.289234 3.201755 9.378712 4.513492 14.20838 4.531154-0.0563-1.94e-4 -0.231212-3.46e-4 0.0118 4e-3 0.0118 1.02e-4 0.0235 1.02e-4 0.03524 0 3.299359 0 4.818288-0.534855 6.48933-0.828109 0.05136-0.0098 0.1023-0.02146 0.15274-0.03516 8.160774-2.103247 13.855163-8.420941 16.154787-15.851222 4.792181-1.822122 6.932737-7.773649 3.724413-12.066148l-6.015413-8.031077c-0.0013-0.0013-0.0026-0.0026-4e-3 -0.0039-0.797037-1.059582-2.003106-1.642402-3.195701-2.195456-0.433002-1.235579-0.940307-2.454138-1.813253-3.417895-0.346545-0.383393-0.729605-0.733123-1.143563-1.042946-4.294668-3.2058094-9.386914-4.5105445-14.212298-4.5272471z" style="fill:#d54747"/>
 <path d="m32.035156 16.999967c-1.557801-0.0155-3.10507 0.206723-4.605471 0.601563-6.993206 1.801201-11.535723 8.416701-11.429697 15.371106h-4.000004l6.000005 8.027351 6.000005-8.027351h-4.000003c-0.0134-2.912602 0.457562-5.814086 2.476564-7.988286 3.522803-3.983603 10.510696-5.613999 15.5547-2.683596 1.675622 2.105801 5.393891-0.207588 3.441409-2.36719-2.777202-2.076942-5.931105-2.926196-9.437508-2.933597zm13.964856 7.972663-6.000005 8.02735h4.000003c0.0134 2.912603-0.457562 5.814087-2.476564 7.988289-3.795003 4.381283-10.510696 5.613996-15.5547 2.683596-1.675622-2.105804-5.393891 0.20368-3.441409 2.363282 2.777202 2.076941 5.931105 2.930102 9.437507 2.937502l4e-3 -4e-3c1.557802 0.0156 3.101165-0.202816 4.601566-0.597656 6.993112-1.801108 11.535623-8.416607 11.429603-15.371013h4.000003z" style="opacity:.2"/>
 <path d="m32.035156 15.999966c-1.557801-0.0155-3.10507 0.206723-4.605471 0.601563-6.993206 1.801201-11.535723 8.4167-11.429697 15.371106h-4.000004l6.000005 8.02735 6.000005-8.02735h-4.000003c-0.0134-2.912603 0.457562-5.814087 2.476564-7.988287 3.522803-3.983603 10.510696-5.613999 15.5547-2.683596 1.675622 2.105802 5.393891-0.207588 3.441409-2.36719-2.777202-2.076942-5.931105-2.926196-9.437508-2.933596zm13.964856 7.972662-6.000005 8.027351h4.000003c0.0134 2.912602-0.457562 5.814086-2.476564 7.988288-3.795003 4.381284-10.510696 5.613997-15.5547 2.683596-1.675622-2.105803-5.393891 0.20368-3.441409 2.363282 2.777202 2.076942 5.931105 2.930102 9.437507 2.937502l4e-3 -4e-3c1.557802 0.0156 3.101165-0.202816 4.601566-0.597656 6.993112-1.801107 11.535623-8.416607 11.429603-15.371012h4.000003z" style="fill:#ffffff"/>
 <path d="m32.078125 8c-2.350887-0.01942-4.592828 0.314973-6.673828 0.859375-8.160771 2.103246-13.854673 8.421274-16.154297 15.851563-3.3857934 1.287756-5.4377319 4.637071-5.2246094 8.005859 0.2067866-3.01247 2.1751893-5.84604 5.2246094-7.005859 2.299624-7.43029 7.993526-13.748317 16.154297-15.851563 2.081-0.544402 4.322941-0.878795 6.673828-0.859375h0.011719c4.825384 0.0167026 9.918222 1.321534 14.21289 4.527344 0.413958 0.309823 0.796034 0.659576 1.142578 1.042968 0.872946 0.963757 1.381452 2.18239 1.814454 3.417969 1.192595 0.553054 2.398275 1.135731 3.195312 2.195313 0.0014 0.0013 0.002606 0.002606 0.003906 0.003906l6.015625 8.03125c0.941183 1.259232 1.411352 2.661902 1.5 4.060547 0.117695-1.720664-0.333819-3.500285-1.5-5.060547l-6.015625-8.03125c-0.0013-0.0013-0.002506-0.002606-0.003906-0.003906-0.797037-1.059582-2.002717-1.642259-3.195312-2.195313-0.433002-1.235579-0.941508-2.454212-1.814454-3.417969-0.346544-0.383392-0.72862-0.733145-1.142578-1.042968-4.294668-3.2058097-9.387506-4.5106414-14.21289-4.527344h-0.011719z" style="fill:#ffffff;opacity:.2"/>
</svg>
