<svg width="64" height="64" version="1" xmlns="http://www.w3.org/2000/svg">
 <rect x="20" y="4" width="24" height="56" rx="3" ry="2.8" style="fill:#cccccc"/>
 <rect transform="rotate(90)" x="20" y="-60" width="24" height="56" rx="3" ry="2.8" style="fill:#cccccc"/>
 <rect transform="rotate(90)" x="31" y="-54" width="4" height="22" rx="2" ry="2.75" style="opacity:.2"/>
 <rect x="30" y="10" width="4" height="22" rx="2" ry="2.75" style="fill:#3e3e3e"/>
 <rect transform="rotate(90)" x="30" y="-54" width="4" height="22" rx="2" ry="2.75" style="fill:#3e3e3e"/>
 <circle cx="32" cy="33" r="8" style="opacity:.2"/>
 <circle cx="32" cy="32" r="8" style="fill:#df574d"/>
 <path d="m4 41v1c0 1.662063 1.2495812 3 2.8007812 3h13.199219v-1h-13.199219c-1.5512 0-2.8007812-1.337937-2.8007812-3zm56 0c0 1.662063-1.250781 3-2.800781 3h-13.199219v1h13.199219c1.55 0 2.800781-1.337937 2.800781-3v-1zm-40 16.199219v1c0 1.55006 1.337999 2.800781 3 2.800781h18c1.662001 0 3-1.249501 3-2.800781v-1c0 1.55128-1.337999 2.800781-3 2.800781h-18c-1.662001 0-3-1.250721-3-2.800781z" style="opacity:.2"/>
 <path d="m23 4c-1.661977 0-3 1.2496034-3 2.8007812v1c0-1.5511778 1.338023-2.8007812 3-2.8007812h18c1.661977 0 3 1.2496035 3 2.8007812v-1c0-1.5511777-1.338023-2.8007812-3-2.8007812h-18zm-16.199219 16c-1.5511778 0-2.8007812 1.338023-2.8007812 3v1c0-1.661977 1.2496034-3 2.8007812-3h13.199219v-1h-13.199219zm37.199219 0v1h13.199219c1.549977 0 2.800781 1.338023 2.800781 3v-1c0-1.661977-1.250804-3-2.800781-3h-13.199219z" style="fill:#ffffff;opacity:.2"/>
</svg>
