<svg width="64" height="64" version="1" xmlns="http://www.w3.org/2000/svg">
 <rect transform="matrix(0,-1,-1,0,0,0)" x="-61" y="-60" width="56" height="56" rx="2.8" ry="2.8" style="opacity:.2"/>
 <rect transform="matrix(0,-1,-1,0,0,0)" x="-60" y="-60" width="56" height="56" rx="2.8" ry="2.8" style="fill:#52845f"/>
 <path d="m15.398828 21c-1.821234 0-3.398828 1.547212-3.398828 3.39336v13.21396c0 1.846148 1.577733 3.415842 3.398828 3.39336h16.601172v19.99932h6v-23.2c-1.54e-4 -1.546334-1.253666-2.799846-2.8-2.8h-17.2v-8h28v34h6v-36.60664c0-1.846148-1.577594-3.39336-3.398828-3.39336z" style="opacity:.2"/>
 <path d="m15.398828 20c-1.821234 0-3.398828 1.547212-3.398828 3.39336v13.21396c0 1.846148 1.577733 3.415842 3.398828 3.39336h16.601172v19.99932h6v-23.2c-1.54e-4 -1.546334-1.253666-2.799846-2.8-2.8h-17.2v-8h28v34h6v-36.60664c0-1.846148-1.577594-3.39336-3.398828-3.39336z" style="fill:#fbc295"/>
 <path d="M 6.8007812 4 C 5.2495812 4 4 5.2495812 4 6.8007812 L 4 7.8007812 C 4 6.2495812 5.2495812 5 6.8007812 5 L 57.199219 5 C 58.750419 5 60 6.2495813 60 7.8007812 L 60 6.8007812 C 60 5.2495813 58.750419 4 57.199219 4 L 6.8007812 4 z" style="fill:#ffffff;opacity:.2"/>
 <path d="m15.398438 20c-1.821235 0-3.398438 1.548383-3.398438 3.394531v1c0-1.846148 1.577203-3.394531 3.398438-3.394531h33.203124c1.821234 0 3.398438 1.548383 3.398438 3.394531v-1c0-1.846148-1.577204-3.394531-3.398438-3.394531h-33.203124zm2.601562 14v1h17.199219c1.546334 1.54e-4 2.800627 1.254447 2.800781 2.800781v-1c-1.54e-4 -1.546334-1.254447-2.800627-2.800781-2.800781h-17.199219z" style="fill:#ffffff;opacity:.2"/>
</svg>
