<svg width="64" height="64" version="1" xmlns="http://www.w3.org/2000/svg">
 <path d="m39.369756 5.4924793c-7.617808-2.042194-15.396684 2.4486952-17.438602 10.068334-7.619781-2.041665-15.39688 2.448748-17.438597 10.068332-2.0419822 7.6186 2.448907 15.397476 10.068545 17.43939-2.041717 7.619586 2.448835 15.397284 10.068438 17.438996 7.619606 2.04171 15.397284-2.448836 17.438996-10.06844 7.619586 2.041716 15.397282-2.448834 17.438994-10.06844 2.041712-7.619604-2.448834-15.397282-10.06844-17.438994 2.041718-7.619586-2.448834-15.397282-10.06844-17.438994z" style="opacity:.2"/>
 <path d="m39.369756 4.4925622c-7.617808-2.042194-15.396684 2.4486952-17.438602 10.068334-7.619781-2.041665-15.39688 2.448748-17.438597 10.068332-2.0419822 7.6186 2.448907 15.397476 10.068545 17.43939-2.041717 7.619586 2.448835 15.397284 10.068438 17.438996 7.619606 2.04171 15.397284-2.448836 17.438996-10.06844 7.619586 2.041716 15.397282-2.448834 17.438994-10.06844 2.041712-7.619604-2.448834-15.397282-10.06844-17.438994 2.041718-7.619586-2.448834-15.397282-10.06844-17.438994z" style="fill:#c53b7c"/>
 <path d="m35.107422 4.0097656c-6.070071 0.2340233-11.516723 4.3598249-13.175781 10.550781-7.619781-2.041665-15.397736 2.448775-17.439454 10.068359-0.3941867 1.470704-0.538922 2.946493-0.4707031 4.386719 0.0260401-1.120084 0.1671995-2.254352 0.4707031-3.386719 2.0417174-7.619584 9.8196725-12.110024 17.439454-10.068359 2.041918-7.6196386 9.819692-12.110554 17.4375-10.06836h0.001953c6.148708 1.6475775 10.253838 7.0320255 10.539062 13.052734 0.149069-6.416232-4.051972-12.314486-10.539062-14.052734h-0.001953c-1.428339-0.3829114-2.860934-0.5364272-4.261719-0.4824219zm14.533203 17.986328c-0.061887 0.311788-0.11766 0.623884-0.201172 0.935547 6.148708 1.647577 10.253837 7.03202 10.539063 13.052734 0.147484-6.348152-3.967498-12.181582-10.337891-13.988281zm-35.28125 21.007812c-0.22952 1.156321-0.322359 2.309479-0.269531 3.441406 0.026721-1.116979 0.168121-2.247734 0.470703-3.376953-0.068839-0.018447-0.132846-0.045073-0.201172-0.064453z" style="fill:#ffffff;opacity:.1"/>
 <g transform="matrix(.98202868 1.7009085 -1.7009085 .98202868 43.502078 -9.9270779)" style="opacity:.2">
  <path d="m16 4c-3.324 0-6 2.676-6 6-3.324 0-6 2.676-6 6s2.676 6 6 6c0 3.324 2.676 6 6 6s6-2.676 6-6c3.324 0 6-2.676 6-6s-2.676-6-6-6c0-3.324-2.676-6-6-6z"/>
 </g>
 <g transform="matrix(.98202868 1.7009085 -1.7009085 .98202868 43.502078 -10.926995)" style="fill:#dc6ca0">
  <path d="m16 4c-3.324 0-6 2.676-6 6-3.324 0-6 2.676-6 6s2.676 6 6 6c0 3.324 2.676 6 6 6s6-2.676 6-6c3.324 0 6-2.676 6-6s-2.676-6-6-6c0-3.324-2.676-6-6-6z"/>
 </g>
 <g transform="matrix(1.7372675 .4655039 -.4655039 1.7372675 10.953527 .36147623)" style="opacity:.2">
  <path transform="translate(0,-1.5)" d="M 16,11.5 A 3,3 0 0 0 13.268,13.268 3,3 0 0 0 11.5,16 3,3 0 0 0 13.268,18.732 3,3 0 0 0 16,20.5 3,3 0 0 0 18.732,18.732 3,3 0 0 0 20.5,16 3,3 0 0 0 18.732,13.268 3,3 0 0 0 16,11.5 Z"/>
 </g>
 <g transform="matrix(1.7372675 .4655039 -.4655039 1.7372675 10.953527 -.63844086)" style="fill:#f0a9ca">
  <path transform="translate(0,-1.5)" d="M 16,11.5 A 3,3 0 0 0 13.268,13.268 3,3 0 0 0 11.5,16 3,3 0 0 0 13.268,18.732 3,3 0 0 0 16,20.5 3,3 0 0 0 18.732,18.732 3,3 0 0 0 20.5,16 3,3 0 0 0 18.732,13.268 3,3 0 0 0 16,11.5 Z"/>
 </g>
 <g transform="matrix(.98202868 1.7009085 -1.7009085 .98202868 43.502078 -10.926995)" style="fill:#ffffff;opacity:.1">
  <path transform="matrix(.25457843 -.44093887 .44093887 .25457843 -6.256554 21.963535)" d="m25.796875 10.003906c-1.898765 0.051295-3.815213 0.565855-5.582031 1.585938-3.953547 2.282601-6.073681 6.479324-5.88086 10.730468 0.155754-3.898736 2.237931-7.627204 5.88086-9.730468 5.65382-3.2642636 12.833393-1.34132 16.097656 4.3125 5.65382-3.264264 12.833393-1.34132 16.097656 4.3125 0.979904 1.697228 1.484047 3.532401 1.56836 5.357422 0.084068-2.149009-0.409111-4.349562-1.56836-6.357422-3.264263-5.65382-10.443836-7.576764-16.097656-4.3125-2.244181-3.887001-6.338342-6.0112869-10.515625-5.898438zm-10.279297 17.931641c-3.702904 2.330341-5.6859978 6.38154-5.496094 10.492187 0.152655-3.902262 2.234901-7.63522 5.88086-9.740234-0.142342-0.24654-0.262033-0.500062-0.384766-0.751953zm32.964844 9.128906c-0.129584 0.081551-0.250986 0.170808-0.384766 0.248047 0.981662 1.700274 1.485434 3.538928 1.56836 5.367188 0.075434-1.888245-0.305266-3.812589-1.183594-5.615235z" style="fill:#ffffff"/>
 </g>
 <g transform="matrix(1.7372675 .4655039 -.4655039 1.7372675 10.953527 -.63844086)" style="fill:#ffffff;opacity:.2">
  <path transform="matrix(.5370569 -.14390535 .14390535 .5370569 -5.7907922 1.9191502)" d="m32.492188 24.003906a5.3956585 5.3956585 0 0 0 -3.966797 1.978516 5.3956585 5.3956585 0 0 0 -4.34375 3.921875 5.3956585 5.3956585 0 0 0 -0.152344 1.886719 5.3956585 5.3956585 0 0 1 0.152344 -0.886719 5.3956585 5.3956585 0 0 1 4.34375 -3.921875 5.3956585 5.3956585 0 0 1 5.570312 -1.800781 5.3956585 5.3956585 0 0 1 3.921875 4.34375 5.3956585 5.3956585 0 0 1 1.953125 3.68164 5.3956585 5.3956585 0 0 0 -1.953125 -4.68164 5.3956585 5.3956585 0 0 0 -3.921875 -4.34375 5.3956585 5.3956585 0 0 0 -1.603515 -0.177735z" style="fill:#ffffff"/>
 </g>
</svg>
