<svg width="64" height="64" version="1.1" viewBox="0 0 64 64" xmlns="http://www.w3.org/2000/svg">
 <circle cx="32" cy="32" r="28" style="fill:#63aaed"/>
 <g transform="matrix(1.3998811 0 0 1.3999489 -1.6000853 -.5981786)" style="opacity:.2">
  <path d="m20.429322 26.142445h3.072978c1.4408 0.51458 4.5969 4.529755 6.3122 7.857355h2.7101c0.68611 0 1.2007-0.10292 1.4408-0.24014 0.51458-0.30875 0.751895-0.89194 0.751895-1.4751 0-0.54888-0.203005-1.240895-0.614675-1.549595-0.34305-0.24014-0.72041-0.30875-1.578-0.30875h-0.44597c-1.4408-2.2985-2.7101-3.733405-4.3225-5.139905 2.5043-1.3722 3.389413-3.0189 3.389413-5.1801 1e-3 -3.603-2.770413-6.107-7.230413-6.107h-7.6501c-0.89194 0-1.1321 0.03431-1.4408 0.24014-0.514 0.309-0.823 0.892-0.823 1.475 0 0.54888 0.27444 1.206241 0.72041 1.549241 0.30875 0.24014 0.69226 0.411265 1.5437 0.30875h0.593276v12.853449h-0.593276c-0.82333 0-1.1321 0.03431-1.4408 0.24014-0.514 0.309-0.823 1.03581-0.823 1.61881 0 0.51458 0.27444 1.0635 0.72041 1.3722 0.275 0.24 0.755 0.343 1.544 0.343h5.1458c0.68611 0 0.843471-0.10292 1.083571-0.24014 0.51458-0.30875 0.82333-0.89194 0.82333-1.4751 0-0.54888-0.27444-1.20631-0.68611-1.54931-0.34305-0.24014-0.294571-0.30875-1.220771-0.30875h-0.980378v-4.283945zm0-3.571434v-5.000182h3.621878c2.1955 0 3.522631 0.882129 3.522631 2.357229 0 1.7153-1.428692 2.642953-4.757631 2.642953z"/>
 </g>
 <g transform="matrix(1.3998811,0,0,1.3999489,-1.6000853,-1.5982627)" style="fill:#ffffff">
  <path d="m20.429322 26.142445h3.072978c1.4408 0.51458 4.5969 4.529755 6.3122 7.857355h2.7101c0.68611 0 1.2007-0.10292 1.4408-0.24014 0.51458-0.30875 0.751895-0.89194 0.751895-1.4751 0-0.54888-0.203005-1.240895-0.614675-1.549595-0.34305-0.24014-0.72041-0.30875-1.578-0.30875h-0.44597c-1.4408-2.2985-2.7101-3.733405-4.3225-5.139905 2.5043-1.3722 3.389413-3.0189 3.389413-5.1801 1e-3 -3.603-2.770413-6.107-7.230413-6.107h-7.6501c-0.89194 0-1.1321 0.03431-1.4408 0.24014-0.514 0.309-0.823 0.892-0.823 1.475 0 0.54888 0.27444 1.206241 0.72041 1.549241 0.30875 0.24014 0.69226 0.411265 1.5437 0.30875h0.593276v12.853449h-0.593276c-0.82333 0-1.1321 0.03431-1.4408 0.24014-0.514 0.309-0.823 1.03581-0.823 1.61881 0 0.51458 0.27444 1.0635 0.72041 1.3722 0.275 0.24 0.755 0.343 1.544 0.343h5.1458c0.68611 0 0.843471-0.10292 1.083571-0.24014 0.51458-0.30875 0.82333-0.89194 0.82333-1.4751 0-0.54888-0.27444-1.20631-0.68611-1.54931-0.34305-0.24014-0.294571-0.30875-1.220771-0.30875h-0.980378v-4.283945zm0-3.571434v-5.000182h3.621878c2.1955 0 3.522631 0.882129 3.522631 2.357229 0 1.7153-1.428692 2.642953-4.757631 2.642953z"/>
 </g>
 <path d="M 32,4 A 28.0005,28.007677 0 0 0 4,32.007677 28.0005,28.007677 0 0 0 4.0175781,32.5 28.0005,28.007677 0 0 1 32,5.0002742 28.0005,28.007677 0 0 1 59.974609,32.5 28.0005,28.007677 0 0 0 60,32.007677 28.0005,28.007677 0 0 0 32,4 Z" style="fill:#ffffff;opacity:.2"/>
 <path d="M 59.982422,32.507812 A 28,28 0 0 1 32,60 28,28 0 0 1 4.0253906,32.519531 28,28 0 0 0 4,33 28,28 0 0 0 32,61 28,28 0 0 0 60,33 28,28 0 0 0 59.982422,32.507812 Z" style="opacity:.2"/>
</svg>
