<svg width="64" height="64" version="1" xmlns="http://www.w3.org/2000/svg">
 <path d="m10 55v2c0 2.216 1.784 4 4 4h36c2.216 0 4-1.784 4-4v-2c0 2.216-1.784 4-4 4h-36c-2.216 0-4-1.784-4-4z" style="opacity:.2"/>
 <rect transform="matrix(0,-1,-1,0,0,0)" x="-60" y="-54" width="56" height="44" rx="4" ry="4" style="fill:#cccccc"/>
 <path d="m32 12c-7.732 0-14 6.268-14 14v14h14c7.732 0 14-6.268 14-14s-6.268-14-14-14zm0 6a8 8 0 0 1 8 8 8 8 0 0 1 -8 8 8 8 0 0 1 -8 -8 8 8 0 0 1 8 -8z" style="opacity:.5"/>
 <path d="m14 4c-2.216 0-4 1.784-4 4v1c0-2.216 1.784-4 4-4h36c2.216 0 4 1.784 4 4v-1c0-2.216-1.784-4-4-4h-36z" style="fill:#ffffff;opacity:.1"/>
 <path d="M 63.958,45.848 A 16,16 0 0 1 48,61 16,16 0 0 1 32.042,46.152 16,16 0 0 0 32,47 16,16 0 0 0 48,63 16,16 0 0 0 64,47 16,16 0 0 0 63.95704,45.84766 Z" style="opacity:.2"/>
 <circle cx="48" cy="46" r="16" style="fill-rule:evenodd;fill:#30a14b"/>
 <path d="m39.99908 46.0014c0 4.4184 3.5818 8 8 8 4.3734 0 7.9204-3.5108 7.9922-7.8672a1.33334 1.33334 0 0 0 8e-3 -0.1328 1.33334 1.33334 0 0 0 -1.33334 -1.33334 1.33334 1.33334 0 0 0 -1.33334 1.33334c0 2.9454-2.3878 5.3334-5.3334 5.3334-2.9454 0-5.3334-2.3878-5.3334-5.3334 0-2.9454 2.3878-5.3334 5.3334-5.3334v2.6666l5.3334-4-5.3326-4.0012v2.6666c-4.4184 0-8 3.5818-8 8z" style="fill:#ffffff"/>
</svg>
