<svg width="64" height="64" version="1" xmlns="http://www.w3.org/2000/svg">
 <rect transform="matrix(0,-1,-1,0,0,0)" x="-60" y="-60" width="56" height="56" rx="3" ry="3" style="fill:#c2352a"/>
 <path d="m7 4c-1.662 0-3 1.338-3 3v1c0-1.662 1.338-3 3-3h50c1.662 0 3 1.338 3 3v-1c0-1.662-1.338-3-3-3h-50z" style="fill:#ffffff;opacity:.1"/>
 <path d="m4 57v1c0 1.662 1.338 3 3 3h50c1.662 0 3-1.338 3-3v-1c0 1.662-1.338 3-3 3h-50c-1.662 0-3-1.338-3-3z" style="opacity:.2"/>
 <g transform="matrix(1.9997082 0 0 1.9999432 .00204243 3.00034)" style="opacity:.2">
  <rect transform="matrix(.70710678 .70710678 -.70710678 .70710678 0 0)" x="22.63" y="-1.41" width="1.414" height="1.414"/>
  <path d="m20 6-1 6h-4l-1-6z"/>
  <path d="m15 13h4v1h-4z"/>
  <g transform="matrix(0,-1,1,0,1,33)">
   <path d="m20 6-1 6h-4l-1-6z"/>
   <path d="m15 13h4v1h-4z"/>
  </g>
  <g transform="matrix(-.70711 .70711 -.70711 -.70711 40.335 15.101)">
   <path d="m20 6-1 6h-4l-1-6z"/>
   <path d="m15 13h4v1h-4z"/>
  </g>
 </g>
 <g transform="matrix(1.9997082 0 0 1.9999432 .00204243 2.000341)" style="fill:#ffffff">
  <rect transform="matrix(.70710678 .70710678 -.70710678 .70710678 0 0)" x="22.63" y="-1.41" width="1.414" height="1.414"/>
  <path d="m20 6-1 6h-4l-1-6z"/>
  <path d="m15 13h4v1h-4z"/>
  <g transform="matrix(0,-1,1,0,1,33)">
   <path d="m20 6-1 6h-4l-1-6z"/>
   <path d="m15 13h4v1h-4z"/>
  </g>
  <g transform="matrix(-.70711 .70711 -.70711 -.70711 40.335 15.101)">
   <path d="m20 6-1 6h-4l-1-6z"/>
   <path d="m15 13h4v1h-4z"/>
  </g>
 </g>
</svg>
