<svg width="64" height="64" version="1" xmlns="http://www.w3.org/2000/svg">
 <path d="m4.0507995 32.000622c-0.0118 0.333993-0.050799 0.661986-0.050799 0.999979 1e-7 15.511667 12.487732 27.999399 27.9994 27.999399s27.999399-12.487732 27.999399-27.999399c0-0.337673-0.03904-0.665266-0.05078-0.999979-0.527989 15.041677-12.775726 26.999421-27.949401 26.999421-15.174074 0-27.421412-11.957744-27.9494-26.999421z" style="opacity:.2"/>
 <path d="m31.9998 4.0012441c-15.511667 0-27.999399 12.487732-27.999399 27.9994 0 15.511667 12.487732 27.999399 27.999399 27.999399s27.999399-12.487732 27.999399-27.999399c0-15.511668-12.487732-27.9994-27.999399-27.9994z" style="fill:#fea238"/>
 <path d="M 32 4.0019531 C 16.488333 4.0019531 4 16.488332 4 32 C 4 32.098348 4.0111933 32.193967 4.0175781 32.291016 C 4.3923697 17.110603 16.726112 5 32 5 C 47.273888 5 59.60763 17.110603 59.982422 32.291016 C 59.988769 32.194031 60 32.098203 60 32 C 60 16.488332 47.511667 4.0019531 32 4.0019531 z" style="fill:#ffffff;opacity:.2"/>
 <path d="m26.083984 21.013594c-0.795565 0.04108-1.578202 0.192792-2.039062 0.441406-1.549607 0.835982-2.692552 1.933788-3.015625 3.71875-0.08484 0.46871-0.206411 0.907016-0.269531 0.972656-0.0631 0.06564-0.372347 0.0456-0.6875-0.04492-0.730904-0.209896-1.777341 0.03358-2.669922 0.623047-0.707445 0.46719-1.364587 2.061289-1.533203 3.048829-0.09518 0.557486-0.128746 0.185546-0.683594 0.185546-0.450191 0-0.652223 0.09234-0.892578 0.410157-0.40807 0.539569-0.390957 0.821472 0.05859 1.289062 0.364194 0.378571 0.395634 0.38326 3.109376 0.380859 1.008929-8.69e-4 1.770924-0.02796 2.294921-0.0625 0.299388-0.637679 0.690746-1.244 1.212891-1.787109 2.224683-2.314005 5.65475-2.659911 8.349609-1.173828 0.672748-1.178064 1.50757-2.191639 2.501953-2.958984-0.0039-0.123115-0.133988-0.642568-0.296874-1.179688-0.52699-1.738123-1.670455-2.986153-3.330079-3.636719-0.506786-0.198648-1.313806-0.267646-2.109372-0.226564zm11.861328 4.998047c-1.588727-0.02893-3.228915 0.441077-4.677734 1.441406-1.38501 0.956179-2.366649 2.039968-2.892578 3.775391-0.140877 0.46493-0.319324 0.845703-0.396484 0.845703-0.07714 0-0.369237-0.510803-0.650391-0.767578-1.995957-1.82288-5.01963-1.705027-6.917969 0.269531-1.41265 1.469368-1.672349 4.036789-0.953125 5.986328 0.07574 0.205255-0.600683 0.367803-1.298828 0.734375-1.045218 0.548708-1.723414 1.330156-1.980469 2.285156-0.46259 1.717963 0.868033 3.544765 2.683594 4.21875 0.759584 0.282373 2.227162 0.261685 3.101563-0.04297 0.647986-0.225795 1.284312-0.818964 5.173828-4.830078 5.124091-5.284367 5.316554-5.925993 7.412109-5.933593 1.061118-0.0039 1.819844 0.05747 2.703125 0.509765 1.201594 0.615386 2.082689 2.090488 2.511719 3.283203 0.399392 1.108976 0.402817 2.458381 0.0098 3.128907-0.344254 0.587247-1.592686 1.136718-2.263672 1.136718-0.666485 0-1.7867-0.58374-2.058594-1.179687-0.439173-1.019-0.5037-1.980684 0.548794-2.873046-2.086901 0.05366-2.335914 0.830684-3 3.216797 0 1.649565 0.836381 3.235112 2.212891 3.658203 0.336193 0.103237 2.21293 0.144741 5.105468 0.113281 4.357726-0.04738 4.600367-0.06656 5.171875-0.388672 0.837782-0.47225 1.801043-1.550992 2.177735-2.439453 0.374532-0.883381 0.441271-2.573606 0.148437-3.503906-0.553845-1.625033-3.106577-3.377291-4.722656-2.277344-0.282474 0.320715-0.553476 0.04028-0.603516-0.01172-0.04998-0.05198 0.221858-0.297013 0.359375-0.789063 0.183636-0.657566 0.234007-1.312561 0.191407-2.472656-0.05422-1.475448-0.09787-1.665769-0.683594-2.919922-1.255973-2.68928-3.76423-4.125617-6.41211-4.173828z" style="opacity:.2"/>
 <path d="m26.083984 20.013672c-0.795565 0.041082-1.578202 0.192792-2.039062 0.441406-1.549607 0.835982-2.692552 1.933788-3.015625 3.71875-0.084838 0.46871-0.206411 0.907016-0.269531 0.972656-0.063099 0.065637-0.372347 0.045599-0.6875-0.044922-0.730904-0.209896-1.777341 0.03358-2.669922 0.623047-0.707445 0.46719-1.364587 2.061289-1.533203 3.048829-0.095178 0.557486-0.128746 0.185546-0.683594 0.185546-0.450191 0-0.652223 0.092343-0.892578 0.410157-0.40807 0.539569-0.390957 0.821472 0.058593 1.289062 0.364194 0.378571 0.395634 0.38326 3.109376 0.380859 1.008929-8.69e-4 1.770924-0.027964 2.294921-0.0625 0.299388-0.637679 0.690746-1.244 1.212891-1.787109 2.224683-2.314005 5.65475-2.659911 8.349609-1.173828 0.672748-1.178064 1.50757-2.191639 2.501953-2.958984-0.003864-0.123115-0.133988-0.642568-0.296874-1.179688-0.52699-1.738123-1.670455-2.986153-3.330079-3.636719-0.506789-0.198646-1.313809-0.267644-2.109375-0.226562zm11.861328 4.998047c-1.588727-0.028927-3.228915 0.441077-4.677734 1.441406-1.38501 0.956179-2.366649 2.039968-2.892578 3.775391-0.140877 0.46493-0.319324 0.845703-0.396484 0.845703-0.077138 0-0.369237-0.510803-0.650391-0.767578-1.995957-1.82288-5.01963-1.705027-6.917969 0.269531-1.41265 1.469368-1.672349 4.036789-0.953125 5.986328 0.075739 0.205255-0.600683 0.367803-1.298828 0.734375-1.045218 0.548708-1.723414 1.330156-1.980469 2.285156-0.46259 1.717963 0.868033 3.544765 2.683594 4.21875 0.759584 0.282373 2.227162 0.261685 3.101563-0.042969 0.647986-0.225795 1.284312-0.818964 5.173828-4.830078 5.124091-5.284367 5.316554-5.925993 7.412109-5.933593 1.061118-0.003879 1.819844 0.057474 2.703125 0.509765 1.201594 0.615386 2.082689 2.090488 2.511719 3.283203 0.399392 1.108976 0.402817 2.458381 0.009766 3.128907-0.344254 0.587247-1.592686 1.136718-2.263672 1.136718-0.666485 0-1.7867-0.58374-2.058594-1.179687-0.439139-1.019001-0.503666-1.980685 0.548828-2.873047-2.086901 0.053656-2.335914 0.830684-3 3.216797 0 1.649565 0.836381 3.235112 2.212891 3.658203 0.336193 0.103237 2.21293 0.144741 5.105468 0.113281 4.357726-0.047379 4.600367-0.066559 5.171875-0.388672 0.837782-0.47225 1.801043-1.550992 2.177735-2.439453 0.374532-0.883381 0.441271-2.573606 0.148437-3.503906-0.553845-1.625033-3.106577-3.377291-4.722656-2.277344-0.282474 0.320715-0.553476 0.040281-0.603516-0.011718-0.049979-0.051979 0.221858-0.297013 0.359375-0.789063 0.183636-0.657566 0.234007-1.312561 0.191407-2.472656-0.054219-1.475448-0.097866-1.665769-0.683594-2.919922-1.255973-2.68928-3.76423-4.125617-6.41211-4.173828z" style="fill:#ffffff"/>
</svg>
