<svg width="64" height="64" version="1" xmlns="http://www.w3.org/2000/svg">
 <rect transform="matrix(0,-1,-1,0,0,0)" x="-61" y="-60" width="56" height="56" rx="2.8" ry="2.8" style="opacity:.2"/>
 <rect transform="matrix(0,-1,-1,0,0,0)" x="-60" y="-60" width="56" height="56" rx="2.8" ry="2.8" style="fill:#f1d27a"/>
 <path d="m18 29.000802c0-12.599999 8.4-10 28-10" style="fill:none;opacity:.2;stroke-linecap:round;stroke-linejoin:round;stroke-width:12;stroke:#000000"/>
 <path d="m18 28c0-12.6 8.4-10 28-10" style="fill:none;stroke-linecap:round;stroke-linejoin:round;stroke-width:12;stroke:#454545"/>
 <path d="m46.079198 37.000802c0 12.6-8.4 10-28 10" style="fill:none;opacity:.2;stroke-linecap:round;stroke-linejoin:round;stroke-width:12;stroke:#000000"/>
 <path d="m46.079198 36c0 12.6-8.4 10-28 10" style="fill:none;stroke-linecap:round;stroke-linejoin:round;stroke-width:12;stroke:#454545"/>
 <path d="M 6.8007812 4 C 5.2495812 4 4 5.2495812 4 6.8007812 L 4 7.8007812 C 4 6.2495813 5.2495812 5 6.8007812 5 L 57.199219 5 C 58.750419 5 60 6.2495812 60 7.8007812 L 60 6.8007812 C 60 5.2495813 58.750419 4 57.199219 4 L 6.8007812 4 z" style="fill:#ffffff;opacity:.2"/>
</svg>
