<svg width="64" height="64" version="1.1" viewBox="0 0 64 64" xmlns="http://www.w3.org/2000/svg">
 <circle cx="32" cy="33" r="28" style="opacity:.2"/>
 <circle cx="32" cy="32" r="28" style="fill:#4f4f4f"/>
 <path d="m24 20.99995v2h6v2h-8v6h-2v-6h-2v14h2v-6h2v6l4 4h13l2-2h3v2h2l2-1.9996v-12l-2-2.0004h-2v2l-1.75002 4e-4 -4-4h-6.25v-2l6-4e-4v-2zm0 6h13l4 4h5v8h-6l-2 2h-10.75l-3.25-3.4z" style="opacity:.2"/>
 <path d="m24 20v2h6v2h-8v6h-2v-6h-2v14h2v-6h2v6l4 4h13l2-2h3v2h2l2-1.9996v-12l-2-2.0004h-2v2l-1.75002 4e-4 -4-4h-6.25v-2l6-4e-4v-2zm0 6h13l4 4h5v8h-6l-2 2h-10.75l-3.25-3.4z" style="fill:#ffa92c"/>
 <path d="M 31.998047 4 A 28 28 0 0 0 4 32 A 28 28 0 0 0 4.0175781 32.492188 A 28 28 0 0 1 31.998047 5 L 32 5 A 28 28 0 0 1 59.972656 32.5 A 28 28 0 0 0 59.998047 32 A 28 28 0 0 0 32 4 L 31.998047 4 z" style="fill:#ffffff;opacity:.1"/>
</svg>
