<svg width="64" height="64" version="1" xmlns="http://www.w3.org/2000/svg">
 <path d="m4.0000004 56.200069v1.999971c0 1.549978 1.2495821 2.79996 2.80076 2.79996h50.39928c1.549977 0 2.79996-1.249982 2.79996-2.79996v-1.999971c0 1.549977-1.249983 2.79996-2.79996 2.79996h-50.39928c-1.5503779 0-2.79996-1.249983-2.79996-2.79996z" style="opacity:.2"/>
 <rect transform="matrix(0,-1,-1,0,0,0)" x="-60" y="-60" width="55.999" height="55.999" rx="2.8" ry="2.8" style="fill:#41a5c7"/>
 <path d="m31.9996 9.000687-15.999771 15.999771 15.999771 15.999771v-15.999771h15.999771l-15.999771-15.999771zm0 31.999542h-15.999771l15.999771 15.999771v-15.999771z" style="opacity:.2"/>
 <path d="m15.999829 40.000315h15.999771v15.999771z" style="fill:#ffffff"/>
 <path d="m15.999829 24.000543h15.999771v15.999772z" style="fill:#b0ffff"/>
 <path d="m31.9996 8.0007722v15.999771h-15.999771z" style="fill:#ffffff"/>
 <path d="m31.9996 8.0007722v15.999771h15.999771z" style="fill:#b0ffff"/>
 <path d="m6.8007812 4c-1.5511778 0-2.8007812 1.2496034-2.8007812 2.8007812v1.0019532c0-1.5511778 1.2496034-2.8007813 2.8007812-2.8007813h50.398438c1.549977 0 2.800781 1.2496035 2.800781 2.8007813v-1.0019532c0-1.5511777-1.250804-2.8007812-2.800781-2.8007812h-50.398438z" style="fill:#ffffff;opacity:.2"/>
</svg>
