<svg width="64" height="64" version="1" xmlns="http://www.w3.org/2000/svg">
 <g transform="matrix(2,0,0,2,0,-1)">
  <path d="M 2,17 2,29.599609 C 2,30.375209 2.6247906,31 3.4003906,31 L 16,31 28.599609,31 C 29.375209,31 30,30.375209 30,29.599609 L 30,17 16,17 2,17 Z" style="opacity:.2"/>
 </g>
 <path d="m32 4h-25.2c-1.5512 0-2.8 1.2488-2.8 2.8v25.2h28z" style="fill:#8e8e8e"/>
 <path d="m32 4h25.2c1.5512 0 2.8 1.2488 2.8 2.8v25.2h-28z" style="fill:#cccccc"/>
 <path d="m32 60h-25.2c-1.5512 0-2.8-1.2488-2.8-2.8v-25.2h28z" style="fill:#45792a"/>
 <path d="m32 60h25.2c1.5512 0 2.8-1.2488 2.8-2.8v-25.2h-28z" style="fill:#8e8e8e"/>
 <circle cx="18" cy="19" r="8" style="opacity:.1"/>
 <circle cx="18" cy="18" r="8" style="fill:#ffffff"/>
 <path transform="matrix(1.2441388 0 0 1.4366077 .49452984 -1.4422954)" d="m14.070352 26.759076 4.018844 6.960842 4.018844 6.960843h-8.037688-8.037689l4.018844-6.960842z" style="opacity:.1"/>
 <path transform="matrix(1.2441388 0 0 1.4366077 .49452984 -2.4422954)" d="m14.070352 26.759076 4.018844 6.960842 4.018844 6.960843h-8.037688-8.037689l4.018844-6.960842z" style="fill:#ffdd4c"/>
 <path d="m44 11v6h-6v4h6v6h4v-6h6v-4h-6v-6h-4z" style="opacity:.1"/>
 <path d="m44 10v6h-6v4h6v6h4v-6h6v-4h-6v-6h-4z" style="fill:#3f3f3f"/>
 <rect x="50" y="41" width="4" height="16" style="opacity:.1"/>
 <rect x="50" y="40" width="4" height="16" style="fill:#3f3f3f"/>
 <path transform="matrix(0 .87089716 1.2929469 0 1.4019344 31.74617)" d="m14.070352 26.759076 4.018844 6.960842 4.018844 6.960843h-8.037688-8.037689l4.018844-6.960842z" style="opacity:.1"/>
 <path transform="matrix(0 .87089716 1.2929469 0 1.4019344 30.74617)" d="m14.070352 26.759076 4.018844 6.960842 4.018844 6.960843h-8.037688-8.037689l4.018844-6.960842z" style="fill:#e33939"/>
 <path d="M 6.8007812 4 C 5.2495812 4 4 5.2495812 4 6.8007812 L 4 7.8007812 C 4 6.2495813 5.2495812 5 6.8007812 5 L 32 5 L 57.199219 5 C 58.750419 5 60 6.2495812 60 7.8007812 L 60 6.8007812 C 60 5.2495813 58.750419 4 57.199219 4 L 32 4 L 6.8007812 4 z" style="fill:#ffffff;opacity:.2"/>
</svg>
