<svg width="64" height="64" version="1" xmlns="http://www.w3.org/2000/svg">
 <path d="m6.0504 32c-0.0126 0.334-0.0508 0.662-0.0508 1 0 14.404 11.596 26 26 26s26-11.596 26-26c0-0.33794-0.03812-0.66526-0.05078-1-0.528 13.932-11.884 25-25.95 25s-25.422-11.068-25.95-25z" style="opacity:.2"/>
 <rect transform="matrix(0,-1,-1,0,0,0)" x="-57" y="-57" width="50" height="50" rx="25" ry="25" style="fill:#ffc947"/>
 <path d="m31.9996 16a16 16 0 0 0 -14.8242 10h-3.1758l-2 4h4.1446a16 16 0 0 0 -0.1446 2l-2 4h2.5312a16 16 0 0 0 15.4688 12 16 16 0 0 0 12.488 -6h-5.866a12 12 0 0 1 -6.622 2 12 12 0 0 1 -11.3 -8h13.3l2-4h-16a12 12 0 0 1 0.18 -2h15.82l2-4h-16.378a12 12 0 0 1 10.378 -6 12 12 0 0 1 6.618 2h5.854a16 16 0 0 0 -12.472 -6z" style="fill:#b38d32"/>
 <path d="m31.9996 6c-14.404 0-26 11.596-26 26s11.596 26 26 26 26-11.596 26-26-11.596-26-26-26zm0 4c12.258 0 22 9.7428 22 22 0 12.258-9.742 22-22 22-12.2572 0-22-9.742-22-22 0-12.2572 9.7428-22 22-22z" style="fill:#b38d32"/>
 <path d="M 32 6 C 17.596 6 6 17.596 6 32 C 6 32.110922 6.011605 32.218792 6.0175781 32.328125 C 6.3726961 18.238147 17.821398 7 32 7 C 46.181237 7 57.633319 18.24228 57.984375 32.335938 C 57.990524 32.224054 58 32.113534 58 32 C 58 17.596 46.404 6 32 6 z" style="fill:#ffffff;opacity:.2"/>
</svg>
