<svg width="64" height="64" version="1" xmlns="http://www.w3.org/2000/svg">
 <rect transform="matrix(0,-1,-1,0,0,0)" x="-60" y="-60" width="56" height="56" rx="28" ry="28" style="fill:#848484"/>
 <path d="M 32 4 C 16.488443 4 4 16.488 4 32 C 4 32.113556 4.0112848 32.224032 4.0175781 32.335938 C 4.3691112 17.134181 16.711164 5 32 5 C 47.288835 5 59.630889 17.134181 59.982422 32.335938 C 59.988693 32.224113 60 32.113448 60 32 C 60 16.488 47.511556 4 32 4 z" style="fill:#ffffff;opacity:.1"/>
 <g transform="matrix(1.33256,0,0,1.33256,15.9998,16)" style="fill:#3f3f3f">
  <path d="m24.013 1e-3s-3.601-0.101-7.2 1.7c-1.1 0.5-2.3 1.3-3.3 2.3-1.617 1.617-4.129 4.594-6.107 7h-4.393l-2 3 3.392 0.917c0.01 0.121 0.042 0.292 0.136 0.523l-0.527 1.159s-0.2 0.4 1.3 2c1.6 1.601 2.1 1.4 2.1 1.4l1.243-0.564c0.186 0.058 0.324 0.078 0.414 0.078l0.943 3.486 3-2v-4.527c2.423-1.959 5.396-4.421 7-5.973 1-1 1.8-2.2 2.399-3.3 1.699-3.599 1.6-7.199 1.6-7.199zm-7 9c-1.101 0-2-0.9-2-2 0-1.101 0.899-2 2-2 1.1 0 2 0.899 2 2 0 1.1-0.901 2-2 2zm-10.5 12c0.2 0.101 0.3 0.2 0.5 0.3-0.2 0.2-0.4 0.5-0.601 0.7-2.301 2.3-6.399 2-6.399 2s-0.3-4.101 2-6.399c0.2-0.201 0.5-0.399 0.7-0.601 0.1 0.2 0.199 0.3 0.3 0.5-1.5 1.899-1.3 4.8-1.3 4.8s2.899 0.2 4.8-1.3z"/>
 </g>
 <path d="M 59.982422,32.664062 C 59.630879,47.865819 47.289272,60 32,60 16.712037,60 4.3711461,47.867898 4.0175781,32.667969 4.0114012,32.778588 4,32.887761 4,33 4,48.512 16.488,61 32,61 47.512,61 60,48.512 60,33 c 0,-0.113448 -0.01128,-0.224113 -0.01758,-0.335938 z" style="opacity:.2"/>
</svg>
