<svg width="64" height="64" version="1" xmlns="http://www.w3.org/2000/svg">
 <path d="m37.906 18.718c-1.156 0.156-1.906 1.282-1.906 3.95v2c0-10.668 12 3.332 14 5.332 0-0.544-8e-3 -1.272-0.024-2.024-1.524-1.53-8.61-9.7254-12.07-9.2572zm-1.906 26.676c-0.212 5.914-5.084 10.6-11 10.606-5.7376 0-10.4434-4.394-10.9492-10-0.0298 0.33-0.0508 0.662-0.0508 1 0 6.076 4.9248 11 11 11 5.916-6e-3 10.788-4.692 11-10.606 4e-3 -0.662-2e-3 -1.336 0-2z" style="opacity:.2"/>
 <path d="m36 7c-4 0-8 0-8 4v24.43c-0.976-0.282-1.984-0.426-3-0.43-6.0752 0-11 4.924-11 11s4.9248 11 11 11c5.916-6e-3 10.788-4.692 11-10.606 0.048-7.532 0-15.162 0-22.726 0-10.668 12 3.332 14 5.332 0-5.334 0-22-14-22z" style="fill:#805fd6"/>
 <path d="m36 7c-4 0-8 0-8 4v1c0-4 4-4 8-4 13.28509 0 13.953639 14.897705 13.988281 20.988281l0.011719 0.011719c0-5.334 0-22-14-22zm-11 28c-6.0752 0-11 4.924-11 11 0 0.168342 0.01648 0.332188 0.025391 0.498047 0.264159-5.84125 5.068826-10.498047 10.974609-10.498047 1.016 4e-3 2.024 0.147688 3 0.429688v-1c-0.976-0.282-1.984-0.425688-3-0.429688z" style="fill:#ffffff;opacity:.1"/>
</svg>
