<svg width="64" height="64" version="1" xmlns="http://www.w3.org/2000/svg">
 <path d="m2.0508 32c-0.011 0.336-0.0508 0.662-0.0508 1 0 16.62 13.38 30 30 30s30-13.38 30-30c0-0.338-0.04-0.664-0.05-1-0.53 16.148-13.668 29-29.95 29-16.2822 0-29.42-12.852-29.95-29z" style="opacity:.2"/>
 <path d="m32 17a15 15 0 0 0 -15 15 15 15 0 0 0 15 15 15 15 0 0 0 15 -15 15 15 0 0 0 -15 -15zm0 9c3.3138 0 6 2.6862 6 6s-2.6862 6-6 6-6-2.6862-6-6 2.6862-6 6-6z" style="fill:#848484"/>
 <path d="m32 2c-16.62 0-30 13.38-30 30s13.38 30 30 30 30-13.38 30-30-13.38-30-30-30zm0 18a12 12 0 0 1 12 12 12 12 0 0 1 -12 12 12 12 0 0 1 -12 -12 12 12 0 0 1 12 -12z" style="fill:#cccccc"/>
 <path d="m32 2c-16.60329 0.0010551-29.970703 13.380655-29.970703 30 0 0.183752 0.0069047 0.36505 0.0117187 0.546875 0.2413506-16.407854 13.507498-29.54583 29.958984-29.546875h0.001953c16.442272 0.0010449 29.702262 13.123409 29.958985 29.517578 0.005316-0.17212 0.011718-0.343813 0.011718-0.517578 0-16.619345-13.366813-29.998945-29.970703-30h-0.001953zm-5.919922 30.75c-0.03132 0.24826-0.074219 0.49324-0.074219 0.75 0 0.219359 0.012232 0.435176 0.035157 0.648438 0.015509-0.132283 0.022425-0.266562 0.039062-0.398438 0.37228 2.9558 2.865722 5.25 5.919922 5.25s5.545769-2.2942 5.917969-5.25c0.016479 0.130627 0.025562 0.263527 0.041015 0.394531 0.022631-0.211921 0.035157-0.426595 0.035157-0.644531 0-0.25676-0.044852-0.50174-0.076172-0.75-0.3722 2.9558-2.863769 5.25-5.917969 5.25s-5.547642-2.2942-5.919922-5.25z" style="fill:#ffffff;opacity:.2"/>
 <path d="m40.07 52.612c-0.1727 2.0432 0.13086 3.9722 1.1914 5.6446 4.0006 6.3076 17.6006 6.34 21.554 0 0.99658-1.5977 1.29672-3.4132 1.1289-5.336-0.1278 1.18216-0.48582 2.305-1.1289 3.336-3.9542 6.34-17.554 6.3076-21.554 0-0.70644-1.11396-1.06524-2.3468-1.1914-3.6446z" style="opacity:.2"/>
 <path d="m51.804 30c-3.5724 5.001-15.7104 19.1044-10.5402 27.258 4.0006 6.3076 17.5988 6.34 21.552 0 5.146-8.248-7.97-22.258-11.01-27.258z" style="fill:#ff9f26"/>
</svg>
