<svg width="64" height="64" version="1" xmlns="http://www.w3.org/2000/svg">
 <path d="m4.0507997 32.000414c-0.0117999 0.333996-0.0507993 0.661991-0.0507993 0.999986 0 15.511778 12.487822 27.9996 27.9996 27.9996s27.9996-12.487822 27.9996-27.9996c0-0.337995-0.04-0.66599-0.05-0.999986-0.527992 15.041785-12.775817 26.999614-27.9496 26.999614-15.174183 0-27.421608-11.957829-27.9496-26.999614z" style="opacity:.2"/>
 <rect transform="matrix(0,-1,-1,0,0,0)" x="-60" y="-60" width="55.999" height="55.999" rx="28" ry="28" style="fill:#5450e3"/>
 <g transform="matrix(1.9999714,0,0,1.9999714,5.760572e-5,1.0006864)" style="opacity:.2">
  <path d="m8 19 8 3 8-3v2l-8 3-8-3z"/>
  <path d="m8 15 8 3 8-3v2l-8 3-8-3z"/>
  <path d="m16 8-8 3v2l8 3 8-3v-2z"/>
 </g>
 <path d="M 32 4 C 16.488222 4 4 16.488222 4 32 C 4 32.113554 4.0112846 32.224034 4.0175781 32.335938 C 4.3691163 17.134398 16.710946 5 32 5 C 47.289054 5 59.630884 17.134398 59.982422 32.335938 C 59.988797 32.224034 60 32.113554 60 32 C 60 16.488222 47.511778 4 32 4 z" style="fill:#ffffff;opacity:.2"/>
 <path d="m15.999829 37.999914 15.999771 5.999914 15.999771-5.999914v3.999943l-15.999771 5.999914-15.999771-5.999914z" style="fill:#b49eff"/>
 <path d="m15.999829 30.000029 15.999771 5.999914 15.999771-5.999914v3.999942l-15.999771 5.999915-15.999771-5.999915z" style="fill:#b49eff"/>
 <path d="m31.9996 16.000229-15.999771 5.999914v3.999943l15.999771 5.999914 15.999771-5.999914v-3.999943z" style="fill:#b49eff"/>
</svg>
