<svg width="64" height="64" version="1" xmlns="http://www.w3.org/2000/svg">
 <rect transform="matrix(0,-1,-1,0,0,0)" x="-61" y="-60" width="56" height="56" rx="2.8" ry="2.8" style="opacity:.2"/>
 <rect transform="matrix(0,-1,-1,0,0,0)" x="-60" y="-60" width="55" height="56" rx="2.8" ry="2.8" style="fill:#cccccc"/>
 <path d="m4 18v1h56v-1z" style="opacity:.2"/>
 <path d="M 6.8008,4 C 5.2496,4 4,5.25 4,6.8 V 18 H 60 V 6.8 C 60,5.25 58.75,4 57.2,4 Z" style="fill:#086cd6"/>
 <path d="m12 26v3h40v-3zm0 7v3h32v-3zm0 7v3h36v-3zm0 7v3h28v-3z" style="opacity:.2"/>
 <path d="m6.8008 4c-1.5512 0-2.8008 1.2508-2.8008 2.8008v1c0-1.55 1.2496-2.8008 2.8008-2.8008h50.3982c1.55 0 2.801 1.2508 2.801 2.8008v-1c0-1.55-1.251-2.8008-2.801-2.8008h-50.3982z" style="fill:#ffffff;opacity:.2"/>
</svg>
