<svg width="64" height="64" version="1.1" viewBox="0 0 64 64" xmlns="http://www.w3.org/2000/svg">
 <rect x="4" y="5" width="56" height="56" rx="2.8" ry="2.8" style="opacity:.2"/>
 <rect x="4" y="4" width="56" height="56" rx="2.8" ry="2.8" style="fill:#7767c0"/>
 <path d="m37.667969 10.615234l-2.978516 4.511719a13 13 0 0 0 -1.689453 -0.126953 13 13 0 0 0 -4.982422 0.996094l-4.037109-3.580078 1.085937 5.30664a13 13 0 0 0 -2.828125 3.029297 44 44 0 0 0 -15.238281 -2.751953 44 44 0 0 0 -3 0.150391v2.074218a43 43 0 0 1 4 -0.224609 43 43 0 0 1 42.861328 40h0.015625a44 44 0 0 0 -8.076172 -23.509766 13 13 0 0 0 2.171875 -3.455078l5.451172-0.328125-4.552734-3.005859a13 13 0 0 0 0.128906 -1.701172 13 13 0 0 0 -0.974609 -4.925781l3.597656-4.054688-5.314453 1.087891a13 13 0 0 0 -5.316406 -4.09961l-0.324219-5.392578zm-4.667969 6.384766a11 11 0 0 1 11 11 11 11 0 0 1 -2.449219 6.892578 44 44 0 0 0 -17.4375 -13.351562 11 11 0 0 1 8.886719 -4.541016z" style="opacity:.2"/>
 <path d="M 37.668,9.6152 34.689,14.127 A 13,13 0 0 0 33,14 13,13 0 0 0 28.018,14.996 L 23.98,11.416 25.066,16.723 A 13,13 0 0 0 22.238,19.752 44,44 0 0 0 7,17 44,44 0 0 0 4,17.15 V 19.225 A 43,43 0 0 1 8,19 43,43 0 0 1 50.92,60 H 50.949 A 44,44 0 0 0 42.801,35.49 13,13 0 0 0 44.973,32.035 L 50.424,31.707 45.871,28.701 A 13,13 0 0 0 46,27 13,13 0 0 0 45.025,22.074 L 48.623,18.02 43.309,19.107 A 13,13 0 0 0 37.992,15.008 Z M 33,16 A 11,11 0 0 1 44,27 11,11 0 0 1 41.551,33.893 44,44 0 0 0 24.113,20.541 11,11 0 0 1 33,16 Z" style="fill:#ffffff"/>
 <path d="M 6.8008 4 C 5.2496 4 4 5.2496 4 6.8008 L 4 7.8008 C 4 6.2496 5.2496 5 6.8008 5 L 57.199 5 C 58.75 5 60 6.2496 60 7.8008 L 60 6.8008 C 60 5.2496 58.75 4 57.199 4 L 6.8008 4 z" style="fill:#ffffff;opacity:.1"/>
</svg>
