<svg width="64" height="64" version="1" xmlns="http://www.w3.org/2000/svg">
 <path d="m4 50v2c0 1.662 1.338 3 3 3h50c1.662 0 3-1.338 3-3v-2c0 1.662-1.338 3-3 3h-50c-1.662 0-3-1.338-3-3z" style="opacity:.2"/>
 <rect transform="matrix(0,-1,-1,0,0,0)" x="-54" y="-60" width="44" height="56" rx="3" ry="3" style="fill:#325f78"/>
 <rect transform="matrix(0,-1,-1,0,0,0)" x="-50" y="-56" width="36" height="48" rx="0" ry="0" style="opacity:.2"/>
 <path d="m7 10c-1.662 0-3 1.338-3 3v1c0-1.662 1.338-3 3-3h50c1.662 0 3 1.338 3 3v-1c0-1.662-1.338-3-3-3h-50z" style="fill:#ffffff;opacity:.1"/>
 <rect x="42" y="19" width="10" height="28" rx="1" ry="1" style="opacity:.2"/>
 <rect x="42" y="18" width="10" height="28" rx="1" ry="1" style="fill:#ffffff"/>
</svg>
