<svg width="64" height="64" version="1" xmlns="http://www.w3.org/2000/svg">
 <rect transform="matrix(0,-1,-1,0,0,0)" x="-60" y="-60" width="56" height="56" rx="28" ry="28" style="fill:#0286c2"/>
 <path d="m35.014722 19.000018c-6.049366 0-11.047362 4.947971-11.047362 10.997267 0 2.299228 0.77736 4.414502 1.99728 6.186062l-7.364974 7.373168a2.0082664 2.0105002 0 0 0 2.808776 2.874286l7.364976-7.373168c1.772166 1.221516 3.940636 1.937018 6.241504 1.937018 6.049564 0 10.985046-4.94797 10.985046-10.997266s-4.935482-10.997266-10.985046-10.997266zm0 3.999007c3.889504 0 6.990484 3.108826 6.990484 6.99826 0 3.889234-3.10098 6.99826-6.990484 6.99826-3.889506 0-6.990486-3.109026-6.990486-6.99826 0-3.889434 3.10098-6.99826 6.990486-6.99826z" style="opacity:.2"/>
 <path d="M 32 4 C 16.488443 4 4 16.488 4 32 C 4 32.113556 4.0112848 32.224032 4.0175781 32.335938 C 4.3691112 17.134181 16.711164 5 32 5 C 47.288835 5 59.630889 17.134181 59.982422 32.335938 C 59.988693 32.224113 60 32.113448 60 32 C 60 16.488 47.511556 4 32 4 z" style="fill:#ffffff;opacity:.1"/>
 <path d="m35.014704 18.000066c-6.049364 0-11.04736 4.947958-11.04736 10.99724 0 2.299224 0.777362 4.414492 1.99728 6.186048l-7.364973 7.37315a2.008266 2.0104956 0 0 0 2.808777 2.874278l7.364974-7.37315c1.772166 1.221514 3.940634 1.937014 6.241502 1.937014 6.049564 0 10.985046-4.947958 10.985046-10.99724s-4.935482-10.99724-10.985046-10.99724zm0 3.998996c3.889506 0 6.990484 3.10882 6.990484 6.998244 0 3.889224-3.100978 6.998244-6.990484 6.998244-3.889504 0-6.990482-3.10902-6.990482-6.998244 0-3.889424 3.100978-6.998244 6.990482-6.998244z" style="fill:#ffffff"/>
 <path d="M 59.982422,32.664062 C 59.630879,47.865819 47.289272,60 32,60 16.712037,60 4.3711461,47.867898 4.0175781,32.667969 4.0114012,32.778588 4,32.887761 4,33 4,48.512 16.488,61 32,61 47.512,61 60,48.512 60,33 c 0,-0.113448 -0.01128,-0.224113 -0.01758,-0.335938 z" style="opacity:.2"/>
</svg>
