<svg width="64" height="64" version="1" xmlns="http://www.w3.org/2000/svg">
 <rect x="3" y="4" width="58" height="58" rx="2.9" ry="2.9" style="opacity:.2"/>
 <rect x="3" y="3" width="58" height="58" rx="2.9" ry="2.9" style="fill:#cccccc"/>
 <path d="m31.999966 12.999334v13.999321m-13.999966-5.999322h28m-20 24h12m-6.000034 7.99994v-31.58c4.760948 7.71342 8.527244 19.781164 18.000034 21.6m-17.971752 9.94012v-31.579998c-4.760948 7.71342-8.55546 19.781162-18.028248 21.599998" style="fill:none;opacity:.1;stroke-linecap:round;stroke-linejoin:round;stroke-width:6;stroke:#000000"/>
 <path d="m31.999966 51.99994v-31.58c4.760948 7.71342 8.527244 19.781164 18.000034 21.6m-17.971752 9.94012v-31.579999c-4.760948 7.713421-8.55546 19.781163-18.028248 21.599999" style="fill:none;stroke-linecap:round;stroke-linejoin:round;stroke-width:6;stroke:#3f3f3f"/>
 <path d="m26 44h12" style="fill:none;stroke-linecap:round;stroke-linejoin:round;stroke-width:6;stroke:#3f3f3f"/>
 <path d="m18 20h28" style="fill:none;stroke-linecap:round;stroke-linejoin:round;stroke-width:6;stroke:#3f3f3f"/>
 <path d="m31.999966 12v13.999322" style="fill:none;stroke-linecap:round;stroke-linejoin:round;stroke-width:6;stroke:#3f3f3f"/>
 <path d="M 5.8984375 3 C 4.2918375 3 3 4.2918375 3 5.8984375 L 3 6.8984375 C 3 5.2918375 4.2918375 4 5.8984375 4 L 58.101562 4 C 59.708163 4 61 5.2918375 61 6.8984375 L 61 5.8984375 C 61 4.2918375 59.708163 3 58.101562 3 L 5.8984375 3 z" style="fill:#ffffff;opacity:.2"/>
</svg>
