<svg width="64" height="64" version="1.1" viewBox="0 0 64 64" xmlns="http://www.w3.org/2000/svg">
 <path d="m4 56.2v2c0 1.55 1.2496 2.8 2.8008 2.8h36.4c1.55 0 2.8-1.25 2.8-2.8v-2c0 1.55-1.25 2.8-2.8 2.8h-36.4c-1.5504 0-2.8-1.25-2.8-2.8z" style="opacity:.2"/>
 <rect transform="matrix(0,-1,-1,0,0,0)" x="-60" y="-46" width="14" height="42" rx="2.8" ry="2.8" style="fill:#42cf57"/>
 <path d="m18 42.2v2c0 1.55 1.2496 2.8 2.8 2.8h36.398c1.552 0 2.802-1.25 2.802-2.8v-2c0 1.55-1.25 2.8-2.8 2.8h-36.4c-1.5504 0-2.8-1.25-2.8-2.8z" style="opacity:.2"/>
 <rect transform="matrix(0,-1,-1,0,0,0)" x="-46" y="-60" width="14" height="42" rx="2.8" ry="2.8" style="fill:#2ea0e3"/>
 <path d="m4 28.2v2c0 1.55 1.2496 2.8 2.8008 2.8h36.4c1.55 0 2.8-1.25 2.8-2.8v-2c0 1.55-1.25 2.8-2.8 2.8h-36.4c-1.5504 0-2.8-1.25-2.8-2.8z" style="opacity:.2"/>
 <rect transform="matrix(0,-1,-1,0,0,0)" x="-32" y="-46" width="14" height="42" rx="2.8" ry="2.8" style="fill:#e65957"/>
 <path d="m18 14.1992v2c0 1.5512 1.2496 2.8008 2.8 2.8008h36.398c1.552 0 2.802-1.2496 2.802-2.8008v-2c0 1.5512-1.25 2.8008-2.8 2.8008h-36.4c-1.5504 0-2.8-1.2496-2.8-2.8008z" style="opacity:.2"/>
 <rect transform="matrix(0,-1,-1,0,0,0)" x="-18" y="-60" width="14" height="42" rx="2.8" ry="2.8" style="fill:#ffe766"/>
 <path d="m20.800781 4c-1.5504 0-2.800781 1.2495812-2.800781 2.8007812v1c0-1.5512 1.250381-2.8007812 2.800781-2.8007812h36.398438c1.55 0 2.800781 1.2495812 2.800781 2.8007812v-1c0-1.5512-1.250781-2.8007812-2.800781-2.8007812h-36.398438z" style="fill:#ffffff;opacity:.2"/>
 <path d="m6.8007812 18c-1.5511999 0-2.8007812 1.250381-2.8007812 2.800781v1c0-1.5504 1.2495813-2.800781 2.8007812-2.800781h36.400391c1.55 0 2.798828 1.250381 2.798828 2.800781v-1c0-1.5504-1.248828-2.800781-2.798828-2.800781h-36.400391z" style="fill:#ffffff;opacity:.2"/>
 <path d="m20.800781 32c-1.5504 0-2.800781 1.250781-2.800781 2.800781v1c0-1.55 1.250381-2.800781 2.800781-2.800781h0.001953 36.396485c1.55 0 2.800781 1.250781 2.800781 2.800781v-1c0-1.55-1.250781-2.800781-2.800781-2.800781h-36.396485-0.001953z" style="fill:#ffffff;opacity:.2"/>
 <path d="m6.8007812 46c-1.5511999 0-2.8007812 1.250781-2.8007812 2.800781v1c0-1.55 1.2495813-2.800781 2.8007812-2.800781h36.400391c1.55 0 2.798828 1.250781 2.798828 2.800781v-1c0-1.55-1.248828-2.800781-2.798828-2.800781h-36.400391z" style="fill:#ffffff;opacity:.2"/>
</svg>
