<svg width="64" height="64" version="1.1" viewBox="0 0 64 64" xmlns="http://www.w3.org/2000/svg">
 <path d="m32.155597 4.0017289a6.5946984 6.3671019 0 0 0 -3.453947 0.8493869l-19.4043 10.816633a6.5946984 6.3671019 0 0 0 -3.2973492 5.513915v21.633667a6.5946984 6.3671019 0 0 0 3.2973492 5.513915l19.4049 10.816834a6.5946984 6.3671019 0 0 0 6.594699 0l19.404901-10.816834a6.5946984 6.3671019 0 0 0 3.297949 -5.515915v-21.633667a6.5946984 6.3671019 0 0 0 -3.297949 -5.513915l-19.403701-10.816633a6.5946984 6.3671019 0 0 0 -3.141952 -0.8493869z" style="fill:#28a390"/>
 <path d="m32.15625 4.0019531a6.5947745 6.3719333 0 0 0 -3.453125 0.8515625l-19.40625 10.824218a6.5947745 6.3719333 0 0 0 -3.296875 5.519532v1.001953a6.5947745 6.3719333 0 0 1 3.296875 -5.521485l19.40625-10.824218a6.5947745 6.3719333 0 0 1 3.453125 -0.8515625 6.5947745 6.3719333 0 0 1 3.140625 0.8515625l19.40625 10.824218a6.5947745 6.3719333 0 0 1 3.296875 5.521485v-1.001953a6.5947745 6.3719333 0 0 0 -3.296875 -5.519532l-19.40625-10.824218a6.5947745 6.3719333 0 0 0 -3.140625 -0.8515625z" style="fill:#ffffff;opacity:.2"/>
 <path d="m6 41.800859a6.5946984 6.3721235 0 0 0 0.00195 0.07422v-0.07422h-0.00195zm0.00195 1v1a6.5946984 6.3721235 0 0 0 3.296875 5.517578l19.406253 10.828125a6.5946984 6.3721235 0 0 0 6.59375 0l19.404297-10.828125a6.5946984 6.3721235 0 0 0 3.296875 -5.517578v-1a6.5946984 6.3721235 0 0 1 -3.296875 5.517578l-19.404297 10.828125a6.5946984 6.3721235 0 0 1 -6.59375 0l-19.40625-10.828125a6.5946984 6.3721235 0 0 1 -3.296875 -5.517578z" style="opacity:.2"/>
 <path d="m33.999967 25.0006a8.9998502 8.9998502 0 0 0 -7.495969 4.027277 8.9998502 8.9998502 0 0 0 -0.503898 -0.02734 8.9998502 8.9998502 0 0 0 -8.99985 8.99985 8.9998502 8.9998502 0 0 0 8.99985 8.99985h16.999717a5.9999001 5.9999001 0 0 0 5.9999 -5.9999 5.9999001 5.9999001 0 0 0 -5.9999 -5.9999 5.9999001 5.9999001 0 0 0 -0.0625 4e-3 8.9998502 8.9998502 0 0 0 0.0625 -1.003984 8.9998502 8.9998502 0 0 0 -8.99985 -8.99985z" style="opacity:.2"/>
 <circle cx="25" cy="27" r="8" style="opacity:.2"/>
 <circle cx="25" cy="26.001" r="8" style="fill:#ffd16d"/>
 <path d="m33.999967 24.000634a8.9998502 8.9998502 0 0 0 -7.495969 4.027277 8.9998502 8.9998502 0 0 0 -0.503898 -0.02734 8.9998502 8.9998502 0 0 0 -8.99985 8.99985 8.9998502 8.9998502 0 0 0 8.99985 8.99985h16.999717a5.9999001 5.9999001 0 0 0 5.9999 -5.9999 5.9999001 5.9999001 0 0 0 -5.9999 -5.9999 5.9999001 5.9999001 0 0 0 -0.0625 4e-3 8.9998502 8.9998502 0 0 0 0.0625 -1.003983 8.9998502 8.9998502 0 0 0 -8.99985 -8.99985z" style="fill:#e8f3f2"/>
</svg>
