<svg width="64" height="64" version="1" xmlns="http://www.w3.org/2000/svg">
 <path d="m4.0000002 56.000036v1.999985c0 1.661989 1.3379904 2.999979 2.9999786 2.999979h49.999642c1.661988 0 2.999979-1.33799 2.999979-2.999979v-1.999985c0 1.661988-1.337991 2.999978-2.999979 2.999978h-49.999642c-1.6619882 0-2.9999786-1.33799-2.9999786-2.999978z" style="opacity:.2"/>
 <rect transform="matrix(0,-1,-1,0,0,0)" x="-60" y="-60" width="56" height="56" rx="3" ry="3" style="fill:#4f4f4f"/>
 <g transform="matrix(1.9999857,0,0,1.9999857,2.880143e-5,2.000429)" style="opacity:.2">
  <path d="m14.182 1.4999893-12.036 26.139c0.2402 0.508 0.7529 0.861 1.354 0.861h0.4531l12.047-26.164 12.047 26.164h0.453c0.601 0 1.114-0.353 1.354-0.861l-12.036-26.139h-3.636z"/>
 </g>
 <g transform="matrix(1.9999857,0,0,1.9999857,2.880143e-5,4.433e-4)">
  <path d="m14.182 2-12.182 26.459v0.041c0 0.82835 0.66488 1.4957 1.4922 1.5l12.508-27.164 12.508 27.164c0.827-4e-3 1.492-0.672 1.492-1.5v-0.041l-12.182-26.459h-3.636z" style="fill:#ed5050"/>
 </g>
 <path d="m6.8437799 5.0321862c-1.5343891 0.0797994-2.7483804 1.2937907-2.8281798 2.8281798l25.15582 25.15582-24.659824 24.659824c4e-4 0-9.999e-4 2e-3 -2e-4 4e-3 0.5379962 0.797994 1.4493897 1.31999 2.4881823 1.31999h1.8437868l23.155834-23.155834 23.155834 23.155834h1.843987c1.037993 0 1.949986-0.521996 2.487982-1.31999v-4e-3l-24.659823-24.659824 25.15582-25.15582c-0.08-1.5351891-1.293991-2.7489804-2.82798-2.8287798l-25.15582 25.15582-25.15582-25.15582z" style="opacity:.2"/>
 <path d="m6.8437799 4.0160146c-1.5343891 0.0797994-2.7483804 1.2937907-2.8281798 2.8281798l25.15582 25.155821-25.15582 25.15582c0.079741 1.534269 1.2938507 2.74838 2.8281798 2.828179l25.15582-25.15582 25.15582 25.15582c1.534269-0.07974 2.74838-1.29385 2.82818-2.828179l-25.15582-25.15582 25.15582-25.155821c-0.08-1.5345891-1.293991-2.7485804-2.82798-2.8283798l-25.15582 25.15582-25.15582-25.15582z" style="fill:#70ed50"/>
 <path d="m6.9999788 5.0003864c-1.6619882 0-2.9999786 1.3379904-2.9999786 2.9999786v0.999993h25.999814v49.999642h3.999972v-49.999642h25.999814v-0.999993c0-1.6619882-1.337991-2.9999786-2.999979-2.9999786z" style="opacity:.2"/>
 <path d="m6.9999788 4.0004147c-1.6619882 0-2.9999786 1.3379904-2.9999786 2.9999785v0.9999929h25.999814v51.999628h3.999972v-51.999628h25.999814v-0.9999929c0-1.6619881-1.337991-2.9999785-2.999979-2.9999785h-49.999642z" style="fill:#5093ed"/>
 <path d="m7 4c-1.6619882 0-3 1.3380119-3 3v1c0-1.6619881 1.3380118-3 3-3h50c1.661988 0 3 1.3380119 3 3v-1c0-1.6619881-1.338012-3-3-3h-50z" style="fill:#ffffff;opacity:.1"/>
</svg>
