<svg width="64" height="64" version="1" xmlns="http://www.w3.org/2000/svg">
 <rect transform="matrix(0,-1,-1,0,0,0)" x="-62" y="-61" width="58" height="58" rx="29" ry="29" style="opacity:.2"/>
 <rect transform="matrix(0,-1,-1,0,0,0)" x="-61" y="-61" width="58" height="58" rx="29" ry="29" style="fill:#4f4f4f"/>
 <path d="m49.386662 37.658747-16.23127-1.243328 1.552916-5.795554z" style="opacity:.2"/>
 <path d="m32 7.9988041a3 3 0 0 0 -3 2.9999999 3 3 0 0 0 3 3 3 3 0 0 0 3 -3 3 3 0 0 0 -3 -2.9999999zm-12.070312 3.9999999a3 3 0 0 0 -1.429688 0.398438 3 3 0 0 0 -1.097656 4.101562 3 3 0 0 0 4.097656 1.097656 3 3 0 0 0 1.097656 -4.097656 3 3 0 0 0 -2.667968 -1.5zm24.140624 0a3 3 0 0 0 -2.667968 1.5 3 3 0 0 0 1.097656 4.097656 3 3 0 0 0 4.097656 -1.097656 3 3 0 0 0 -1.097656 -4.101562 3 3 0 0 0 -1.429688 -0.398438zm-31.996093 8a3 3 0 0 0 -0.214844 0.0039 3 3 0 0 0 -2.4570312 1.496094 3 3 0 0 0 1.1015622 4.097656 3 3 0 0 0 4.097656 -1.097656 3 3 0 0 0 -1.097656 -4.097656 3 3 0 0 0 -1.429687 -0.402344zm39.851563 0a3 3 0 0 0 -1.429688 0.402344 3 3 0 0 0 -1.097656 4.097656 3 3 0 0 0 4.097656 1.097656 3 3 0 0 0 1.101562 -4.097656 3 3 0 0 0 -2.457032 -1.496094 3 3 0 0 0 -0.214842 -0.0039zm-41.925782 12a3 3 0 0 0 -3 3 3 3 0 0 0 3 3 3 3 0 0 0 3 -3 3 3 0 0 0 -3 -3zm44 0a3 3 0 0 0 -3 3 3 3 0 0 0 3 3 3 3 0 0 0 3 -3 3 3 0 0 0 -3 -3zm-40.070312 10a3 3 0 0 0 -1.425782 0.402344 3 3 0 0 0 -1.101562 4.097656 3 3 0 0 0 4.101562 1.097656 3 3 0 0 0 1.097656 -4.097656 3 3 0 0 0 -2.671874 -1.5zm35.92578 0a3 3 0 0 0 -2.45703 1.5 3 3 0 0 0 1.097656 4.097656 3 3 0 0 0 4.101562 -1.097656 3 3 0 0 0 -1.101562 -4.097656 3 3 0 0 0 -1.425782 -0.402344 3 3 0 0 0 -0.214844 0z" style="opacity:.2"/>
 <path d="m 32,7 a 3,3 0 0 0 -3,3 3,3 0 0 0 3,3 3,3 0 0 0 3,-3 3,3 0 0 0 -3,-3 z M 19.929688,11 A 3,3 0 0 0 18.5,11.398438 3,3 0 0 0 17.402344,15.5 3,3 0 0 0 21.5,16.597656 3,3 0 0 0 22.597656,12.5 3,3 0 0 0 19.929688,11 Z m 24.140624,0 A 3,3 0 0 0 41.402344,12.5 3,3 0 0 0 42.5,16.597656 3,3 0 0 0 46.597656,15.5 3,3 0 0 0 45.5,11.398438 3,3 0 0 0 44.070312,11 Z m -31.996093,8 a 3,3 0 0 0 -0.214844,0.0039 A 3,3 0 0 0 9.4023438,20.5 3,3 0 0 0 10.503906,24.597656 3,3 0 0 0 14.601562,23.5 3,3 0 0 0 13.503906,19.402344 3,3 0 0 0 12.074219,19 Z m 39.851563,0 A 3,3 0 0 0 50.496094,19.402344 3,3 0 0 0 49.398438,23.5 3,3 0 0 0 53.496094,24.597656 3,3 0 0 0 54.597656,20.5 3,3 0 0 0 52.140624,19.003906 3,3 0 0 0 51.925782,19 Z M 10,31 a 3,3 0 0 0 -3,3 3,3 0 0 0 3,3 3,3 0 0 0 3,-3 3,3 0 0 0 -3,-3 z m 44,0 a 3,3 0 0 0 -3,3 3,3 0 0 0 3,3 3,3 0 0 0 3,-3 3,3 0 0 0 -3,-3 z M 13.929688,41 A 3,3 0 0 0 12.503906,41.402344 3,3 0 0 0 11.402344,45.5 3,3 0 0 0 15.503906,46.597656 3,3 0 0 0 16.601562,42.5 3,3 0 0 0 13.929688,41 Z m 35.92578,0 a 3,3 0 0 0 -2.45703,1.5 3,3 0 0 0 1.097656,4.097656 A 3,3 0 0 0 52.597656,45.5 3,3 0 0 0 51.496094,41.402344 3,3 0 0 0 50.070312,41 3,3 0 0 0 49.855468,41 Z" style="fill:#ff5757"/>
 <path d="m49.386662 36.658746-16.23127-1.243328 1.552916-5.795554z" style="fill:#ffa6a6"/>
 <circle transform="matrix(-.25881903 .96592583 -.96592583 -.25881903 0 0)" cx="23.593" cy="-39.451" r="5" style="opacity:.2"/>
 <circle transform="matrix(-.25881903 .96592583 -.96592583 -.25881903 0 0)" cx="22.627" cy="-39.192" r="5" style="fill:#ffa6a6"/>
 <path d="M 32 3 C 15.934 3 3 15.934 3 32 C 3 32.110857 3.0114705 32.218895 3.0175781 32.328125 C 3.3736217 16.576183 16.159477 4 32 4 C 47.840523 4 60.626378 16.576183 60.982422 32.328125 C 60.98853 32.218895 61 32.110857 61 32 C 61 15.934 48.066 3 32 3 z" style="fill:#ffffff;opacity:.1"/>
</svg>
