<svg width="64" height="64" version="1" xmlns="http://www.w3.org/2000/svg">
 <path d="M 37.020527,2.9999996 28.208694,15.409927 A 24.68085,24.489806 0 0 0 21.079205,19.30817 C 12.308108,17.222815 3.0000004,24.215697 3.0000004,24.215697 l 9.0311666,18.51806 A 24.68085,24.489806 0 0 0 36.319149,63 24.68085,24.489806 0 0 0 61,38.510211 24.68085,24.489806 0 0 0 51.105968,18.939892 C 49.603685,8.707691 37.020527,2.9999996 37.020527,2.9999996 Z" style="opacity:.2"/>
 <path d="m37.020528 2.0000122-8.811833 12.409928a24.68085 24.489806 0 0 0 -7.129488 3.898242c-8.771097-2.085354-18.079207 4.907528-18.079207 4.907528l9.0311667 18.51806a24.68085 24.489806 0 0 0 24.287983 20.266243 24.68085 24.489806 0 0 0 24.68085 -24.48979 24.68085 24.489806 0 0 0 -9.894032 -19.570318c-1.502283-10.232201-14.08544-15.939893-14.08544-15.939893z" style="fill:#21a8e3"/>
 <path d="m25.386686 40.516497a5.0004405 5.0177511 0 0 0 -1.08599 5.181922 5.0004405 5.0177511 0 0 0 6.409122 2.998942 5.0004405 5.0177511 0 0 0 2.988628 -6.431282 5.0004405 5.0177511 0 0 0 -4.150201 -3.266117l-0.01625 0.33789-0.247597 5.430198-3.668107-4.000101z" style="opacity:.2"/>
 <path d="m43.386687 33.51651a5.0004405 5.0177511 0 0 0 -1.085991 5.181921 5.0004405 5.0177511 0 0 0 6.409123 2.998942 5.0004405 5.0177511 0 0 0 2.988627 -6.431282 5.0004405 5.0177511 0 0 0 -4.150201 -3.266116l-0.01625 0.337889-0.247596 5.430199-3.668108-4.000101z" style="opacity:.2"/>
 <path d="m25.386686 39.51651a5.0004405 5.0177511 0 0 0 -1.08599 5.181921 5.0004405 5.0177511 0 0 0 6.409122 2.998942 5.0004405 5.0177511 0 0 0 2.988628 -6.431282 5.0004405 5.0177511 0 0 0 -4.150201 -3.266116l-0.01625 0.337889-0.247597 5.430199-3.668107-4.000101z" style="fill:#ffffff"/>
 <path d="m43.386687 32.516523a5.0004405 5.0177511 0 0 0 -1.085991 5.181921 5.0004405 5.0177511 0 0 0 6.409123 2.998942 5.0004405 5.0177511 0 0 0 2.988627 -6.431282 5.0004405 5.0177511 0 0 0 -4.150201 -3.266117l-0.01625 0.33789-0.247596 5.430198-3.668108-4.0001z" style="fill:#ffffff"/>
 <path d="m50.477258 47.001146a1.550743 1.5888937 0 0 0 -0.153411 0.0038 1.550743 1.5888937 0 0 0 -1.04584 0.539905c-0.638744 0.724725-1.919226 0.887358-3.288942 0.695093-1.22403-0.17159-2.156016-0.532951-2.36626-0.616478a1.550743 1.5888937 0 0 0 -0.726841 -0.198426 1.550743 1.5888937 0 0 0 -1.627309 1.698369c-0.074 0.376441-0.251339 1.192819-0.690494 2.213442-0.557699 1.296152-1.374633 2.331515-2.311748 2.509342a1.5523161 1.5905055 0 0 0 0.565319 3.127824c2.491435-0.472743 3.841259-2.625714 4.585138-4.354545 0.240265-0.558387 0.413144-1.07966 0.557242-1.561852 0.47644 0.12737 0.997792 0.250205 1.586926 0.332976 1.826967 0.25663 4.322449 0.207874 6.020644-1.71908a1.550743 1.5888937 0 0 0 -1.10439 -2.670614z" style="opacity:.2"/>
 <path d="m50.477247 46.001159a1.5507312 1.5888935 0 0 0 -0.153449 0.0038 1.5507312 1.5888935 0 0 0 -1.045833 0.539906c-0.63874 0.724724-1.91921 0.887357-3.288915 0.695093-1.224022-0.171591-2.156005-0.532951-2.366245-0.616479a1.5507312 1.5888935 0 0 0 -0.726833 -0.198425 1.5507312 1.5888935 0 0 0 -1.627298 1.698331c-0.07397 0.376441-0.251339 1.192856-0.69049 2.21348-0.557696 1.296151-1.374622 2.331515-2.311733 2.509342a1.5523043 1.5905054 0 0 0 0.565315 3.127823c2.491416-0.472743 3.841229-2.625713 4.585104-4.354544 0.240265-0.558463 0.413144-1.07966 0.557239-1.561852 0.476432 0.12737 0.997784 0.250204 1.586917 0.332976 1.826948 0.25663 4.322412 0.207874 6.020595-1.719043a1.5507312 1.5888935 0 0 0 -1.104382 -2.670689z" style="fill:#ffffff"/>
 <path d="m9.5156245 25.000214c-0.7873391 0.0038-1.6259188 0.08164-2.5156248 0.249449 0 0 5.5185533 0.554343 8.2636723 3.945335-1.157997 4.433084-2.667969 7.804989-2.667969 7.804989l5.404296-8.576504s-2.973001-3.458268-8.4843745-3.423231z" style="fill:#ffffff"/>
 <path d="m37.000001 7.0001382-5 8.9998488 3.04878-0.880139s1.537547-3.753562 1.95122-8.1198609z" style="fill:#ffffff"/>
 <path d="m37.021477 2.0000122-8.8125 12.410157a24.68085 24.489806 0 0 0 -7.128906 3.898437c-8.771098-2.085354-18.080078 4.908203-18.080078 4.908203l0.361328 0.742188c1.693871-1.181941 9.8969098-6.510056 17.71875-4.650391a24.68085 24.489806 0 0 1 7.128906 -3.898437l8.8125-12.410157s12.58366 5.7072515 14.08594 15.939454a24.68085 24.489806 0 0 1 9.87109 19.167968 24.68085 24.489806 0 0 0 0.0215 -0.597656 24.68085 24.489806 0 0 0 -9.89258 -19.570312c-1.50229-10.232201-14.08595-15.939454-14.08595-15.939454z" style="fill:#ffffff;opacity:.2"/>
</svg>
