<svg width="64" height="64" version="1" xmlns="http://www.w3.org/2000/svg">
 <defs>
  <clipPath id="clipPath4403">
   <path d="m160 238-19.09 14.324c-0.0411 0.0267-0.0783 0.0583-0.1172 0.0879l-0.0234 0.0176v3e-3c-0.46558 0.36557-0.76954 0.92787-0.76954 1.5684l2e-5 17.427c0 2.8571 2.2529 2.8571 2.8571 2.8571h34.286s2.8571 0 2.8571-2.8571l-3e-5 -17.427c0-0.65501-0.31697-1.2294-0.80077-1.5938l9e-3 -0.0114-19.207-14.395z" style="fill:#fe9700"/>
  </clipPath>
  <filter id="filter4507" x="-.11" y="-.13" width="1.218" height="1.268" style="color-interpolation-filters:sRGB">
   <feGaussianBlur stdDeviation="1.45"/>
  </filter>
 </defs>
 <path d="m3.9986662 55.99906v2.000047c0 2.474857 1.3655519 3.572683 2.9648692 3.88689l-0.1640038 0.114003h50.401176l-0.191404-0.132823c2.960669-0.624735 2.99227-3.86729 2.99227-3.86729v-2.000047s-0.03158 3.242476-2.99227 3.86729l0.192004 0.132003h-50.401176l0.1640038-0.114002c-1.5992373-0.314008-2.9648692-1.412033-2.9648692-3.886091z" style="opacity:.2"/>
 <path d="m5.2726959 22.652258c-0.057501 0.0374-0.1096225 0.0816-0.1640838 0.123003l-0.032801 0.0246v4e-3c-0.6518152 0.511812-1.0773851 1.299051-1.0773851 2.195852l3e-5 24.398569c4e-6 4.000094 3.1542736 4.000094 4.0000934 4.000094h48.00112s4.000094 0 4.000094-4.000094l-4e-5 -24.398569c0-0.917042-0.443771-1.72116-1.121106-2.231252l0.012-0.016-26.890628-19.752462s-26.890628 19.777662-26.726624 19.654659z" style="fill:#a8a8a8"/>
 <rect transform="matrix(1.4000327,0,0,1.4000327,-192.00591,-330.60999)" x="144" y="243" width="32" height="26" rx="2" ry="2" clip-path="url(#clipPath4403)" style="filter:url(#filter4507);opacity:.2"/>
 <rect x="10" y="9" width="44.001" height="36.001" rx="3" ry="2.998" style="fill:#31afe1"/>
 <path d="m12.998876 8.9999391c-1.662038 0-3.0000697 1.3374309-3.0000697 2.9980699v1.000023c0-1.660638 1.3380317-2.9980695 3.0000697-2.9980695h38.000888c1.662038 0 3.00007 1.3374315 3.00007 2.9980695v-1.000023c0-1.660639-1.338032-2.9980699-3.00007-2.9980699h-38.000888z" style="fill:#ffffff;opacity:.1"/>
 <path d="m3.9986662 24.998313 52.001214 36.00084h-48.00112c-2.0000467-1.6e-5 -4.0000934-0.989023-4.0000934-3.956092z" style="fill:#bebebe"/>
 <path d="m55.99988 60.999153c4.000094 0 4.000094-3.956092 4.000094-3.956092v-32.044748l-52.001214 36.00084z" style="fill:#d2d2d2"/>
 <path d="m31.99932 14.998079a10.000233 10.000233 0 0 0 -10.000234 10.000234 10.000233 10.000233 0 0 0 10.000234 10.000233h7.000163c0.554013 0 1.000024-0.44601 1.000024-1.000023s-0.446011-1.000024-1.000024-1.000024h-7.000163a8.0001868 8.0001868 0 0 1 -8.000187 -8.000186 8.0001868 8.0001868 0 0 1 8.000187 -8.000187 8.0001868 8.0001868 0 0 1 8.000187 8.000187v3.00007c0 0.554013-0.446011 1.000023-1.000024 1.000023s-1.000023-0.44601-1.000023-1.000023v-3.00007a6.0001401 6.0001401 0 0 0 -6.00014 -6.00014 6.0001401 6.0001401 0 0 0 -6.00014 6.00014 6.0001401 6.0001401 0 0 0 6.00014 6.00014 6.0001401 6.0001401 0 0 0 4.261899 -1.781282c0.466011 1.050025 1.512036 1.782042 2.738064 1.782042 1.662039 0 3.00007-1.338031 3.00007-3.00007v-3.00007a10.000233 10.000233 0 0 0 -10.000233 -10.000234zm0 6.00014a4.0000934 4.0000934 0 0 1 4.000093 4.000094 4.0000934 4.0000934 0 0 1 -4.000093 4.000093 4.0000934 4.0000934 0 0 1 -4.000093 -4.000093 4.0000934 4.0000934 0 0 1 4.000093 -4.000094z" style="fill:#ffffff"/>
</svg>
