<svg width="64" height="64" version="1.1" viewBox="0 0 64 64" xmlns="http://www.w3.org/2000/svg">
 <path d="m42.4 46h-38.4s8.4 12 33.6 12c16.8 0 22.4-8.4 22.4-12.6 0-3.633436 0-5.4-2.8-5.4h-12c-2.8 0-2.8 2.642598-2.8 6z" style="opacity:.2"/>
 <path d="m38 16v-8l10 4z" style="opacity:.2"/>
 <path d="m42.4 45h-38.4s8.4 12 33.6 12c16.8 0 22.4-8.4 22.4-12.6 0-3.633436 0-5.4-2.8-5.4h-12c-2.8 0-2.8 2.642598-2.8 6z" style="fill:#784421"/>
 <path d="M 38,16 V 46 C 38,46 26,39.145 26,30.999998 26,22.855 38,16 38,16 Z" style="opacity:.2"/>
 <path d="M 38,15 V 45 C 38,45 26,38.145 26,29.999998 26,21.855 38,15 38,15 Z" style="fill:#cccccc"/>
 <path d="m38 15v-8l10 4z" style="fill:#c83737"/>
 <path d="m20 26v20s-8-4.57-8-10 8-10 8-10z" style="opacity:.2"/>
 <path d="m20 25v20s-8-4.57-8-10 8-10 8-10z" style="fill:#cccccc"/>
 <path d="m45 42.333334s0-1.333334 1.5-1.333334 1.5 1.333334 1.5 1.333334v2.666666h-3z" style="opacity:.4"/>
 <path d="m50 42.333334s0-1.333334 1.5-1.333334 1.5 1.333334 1.5 1.333334v2.666666h-3z" style="opacity:.4"/>
 <path d="m55 42.333334s0-1.333334 1.5-1.333334 1.5 1.333334 1.5 1.333334v2.666666h-3z" style="opacity:.4"/>
 <path d="m45.199219 39c-2.8 0-2.798828 2.642598-2.798828 6h-38.400391s0.2782163 0.386216 0.8457031 1h37.554688c0-3.357402-0.001172-6 2.798828-6h12c2.560143 0 2.766369 1.555526 2.785156 4.585938 0.002182-0.060015 0.015625-0.127125 0.015625-0.185547 0-3.633436-7.81e-4 -5.400391-2.800781-5.400391h-12z" style="fill:#ffffff;opacity:.1"/>
 <path d="m38 15s-12 6.855002-12 15c0 0.167511 0.013495 0.333629 0.023438 0.5 0.473493-7.923212 11.976562-14.5 11.976562-14.5v-1z" style="fill:#ffffff;opacity:.1"/>
 <path d="m38 7v1l8.75 3.5 1.25-0.5-10-4z" style="fill:#ffffff;opacity:.1"/>
 <path d="m20 25s-8 4.57-8 10c0 0.168382 0.030013 0.333382 0.044922 0.5 0.46586-5.206478 7.955078-9.5 7.955078-9.5v-1z" style="fill:#ffffff;opacity:.1"/>
</svg>
