<svg width="64" height="64" version="1" xmlns="http://www.w3.org/2000/svg">
 <rect transform="matrix(0,-1,-1,0,0,0)" x="-60" y="-60" width="56" height="56" rx="3" ry="3" style="fill:#4f4f4f"/>
 <path d="m10 15 12 40h30l-4-10h-9l-3-9 3-11h9l4-10h-20l-5.984 20.942-6.016-20.942h-10z" style="opacity:.2"/>
 <path d="m7 4c-1.662 0-3 1.338-3 3v1c0-1.662 1.338-3 3-3h50c1.662 0 3 1.338 3 3v-1c0-1.662-1.338-3-3-3h-50z" style="fill:#ffffff;opacity:.1"/>
 <path d="m4 57v1c0 1.662 1.338 3 3 3h50c1.662 0 3-1.338 3-3v-1c0 1.662-1.338 3-3 3h-50c-1.662 0-3-1.338-3-3z" style="opacity:.2"/>
 <path d="m10 14 10-2e-6 10.538 36.67 0.712 3.33h-9.25z" style="fill:#0198c4"/>
 <path d="m34.688 35.01-8.238-0.01-4.45 19h9c4.1138-17.8374 3.6886-18.9894 3.6886-18.9894z" style="fill:#4dbac2"/>
 <path d="m32 14-6 21 5.25 19h20.75l-4-10h-9l-3-9 3-11h9l4-10z" style="fill:#06b788"/>
</svg>
