<svg width="64" height="64" version="1" xmlns="http://www.w3.org/2000/svg">
 <path d="m13.801454 38.00012c-1.129914 2.8e-4 -2.148988 0.678902-2.583786 1.720703l-6.9993616 16.406268c-0.7683558 1.842074 0.5860768 3.872309 2.583786 3.872909h50.395727c1.997689-6.2e-4 3.352181-2.030855 2.583786-3.872909l-6.999362-16.406268c-0.434818-1.041801-1.453832-1.720423-2.583786-1.720703z" style="fill-rule:evenodd;fill:#ff8800"/>
 <path d="m13.797406 38c-1.130087 2.8e-4 -2.147273 0.679405-2.582137 1.720771l-7.0002868 16.397135c-0.2195779 0.52612-0.2619132 1.06724-0.1679757 1.572328 0.035224-0.19104 0.088891-0.382798 0.1679757-0.572288l7.0002868-16.397135c0.434864-1.041366 1.45205-1.720491 2.582137-1.720771h36.403832c1.130066 2.8e-4 2.147253 0.679405 2.582137 1.720771l7.000286 16.397135c0.08042 0.19272 0.132885 0.387783 0.167976 0.582054 0.09631-0.507825 0.05299-1.052568-0.167976-1.582094l-7.000286-16.397135c-0.434884-1.041366-1.452071-1.720491-2.582137-1.720771h-36.403832z" style="fill-rule:evenodd;fill:#ffffff;opacity:.2"/>
 <path d="m32.001848 4.0009564c-1.271753-0.014-2.568586 0.2017389-3.849579 0.7164301-0.793816 0.3192903-1.398092 0.9840546-1.640491 1.8047142l-2.575586 8.7064403c4.073378 8.760846 12.262333 2.870677 16.120512 0l-2.575586-8.7064403c-0.256858-0.8686453-0.917955-1.5593515-1.77445-1.8539399-1.186474-0.4085198-2.432987-0.6529845-3.70478-0.6672044zm-11.377938 22.428166-3.107183 10.501013c1.005834 8.913263 16.661109 7.050882 28.855843-0.357494l-3.000784-10.142379c-7.699358 3.062497-10.822141-5.870968-22.747876 0z" style="fill-rule:evenodd;fill:#ff8800"/>
 <path d="m4.0444692 57.72c-0.2995344 1.658608 0.9475434 3.28 2.7339925 3.28h50.443039c1.786576-5.61e-4 3.033667-1.620273 2.733992-3.28-0.236418 1.253896-1.313542 2.281717-2.733992 2.282163h-50.443039c-1.4203064 0-2.4974809-1.028614-2.7339925-2.282163z" style="fill-rule:evenodd;opacity:.2"/>
 <path d="m23.93712 15.400254-6.42021 21.579825 3.107998-10.441787c8.574749 3.828987 15.048764 3.045803 22.749458 0l3.001192 10.087493c-12.18678 7.342472-25.841655 2.112626-28.857848 0.354094l-2.202741 7.400359c-0.341482 1.149354 0.09473 2.387349 1.082869 3.073256 4.315276 2.992689 9.919435 4.198001 15.497993 4.144887 5.578557-0.05312 11.174315-1.372015 15.569197-4.05517 1.078488-0.658972 1.578541-1.955811 1.219597-3.162973l-8.624551-28.979984c-3.860849 2.784807-12.261985 2.784807-16.122834 0z" style="fill-rule:evenodd;fill:#ffffff"/>
 <path d="m31.767578 4c-2.972034 0-4.947266 0.9030976-4.947266 2.0957031 0 0.1607077 0.051644 0.3248112 0.144532 0.4882813 0.485976-0.9276294 2.27743-1.5839844 4.802734-1.5839844 2.507962 0 4.773157 0.8209478 5.425781 1.7929688 0.128665-0.1594207 0.207032-0.3114173 0.207032-0.4511719-4e-5 -1.1925635-2.660781-2.3417969-5.632813-2.3417969z" style="fill:#ffffff;opacity:.2"/>
</svg>
