<svg width="64" height="64" version="1" xmlns="http://www.w3.org/2000/svg">
 <rect transform="matrix(0,-1,-1,0,0,0)" x="-60" y="-60" width="56" height="56" rx="3" ry="3" style="fill:#407ec2"/>
 <path d="m7 4c-1.662 0-3 1.338-3 3v1c0-1.662 1.338-3 3-3h50c1.662 0 3 1.338 3 3v-1c0-1.662-1.338-3-3-3h-50z" style="fill:#ffffff;opacity:.1"/>
 <path d="m4 57v1c0 1.662 1.338 3 3 3h50c1.662 0 3-1.338 3-3v-1c0 1.662-1.338 3-3 3h-50c-1.662 0-3-1.338-3-3z" style="opacity:.2"/>
 <path d="m20 20v2h24v-2h-16z" style="opacity:.2"/>
 <path d="m41 52c1.662 0 3-1.338 3-3v-26c0-1.662-1.338-3-3-3h-26c-1.662 0-3 1.338-3 3v26c0 1.662 1.338 3 3 3zm-5-8h-16v-16h16z" style="fill:#f7870d"/>
 <path d="m49 44c1.662 0 3-1.338 3-3v-26c0-1.662-1.338-3-3-3h-26c-1.662 0-3 1.338-3 3v5h24v16h-16v-8h-8v13c0 1.662 1.338 3 3 3z" style="fill:#ffe270"/>
 <path d="m20 28v1h16v-1h-16zm-8 21v1c0 1.662 1.338 3 3 3h26c1.662 0 3-1.338 3-3v-1c0 1.662-1.338 3-3 3h-26c-1.662 0-3-1.338-3-3z" style="opacity:.2"/>
 <path d="m20 41v1c0 1.662 1.338 3 3 3h26c1.662 0 3-1.338 3-3v-1c0 1.662-1.338 3-3 3h-26c-1.662 0-3-1.338-3-3z" style="opacity:.2"/>
</svg>
