<svg width="64" height="64" version="1" xmlns="http://www.w3.org/2000/svg">
 <defs>
  <radialGradient id="radialGradient4807" cx="15.5" cy="11.491" r="6.5" gradientTransform="matrix(2,0,0,2.3077693,0,-3.5184261)" gradientUnits="userSpaceOnUse">
   <stop offset="0"/>
   <stop stop-opacity="0" offset="1"/>
  </radialGradient>
 </defs>
 <path d="m12 26v3.332c0 8.6712 7.8662 15.7546 18 16.586v8.082h-14v4h32v-4h-14v-8.082c10.1338-0.83132 18-7.9148 18-16.586v-3.332h-4v2.668c0 7.386-7.136 13.332-16 13.332s-16-5.946-16-13.332v-2.668h-4z" style="fill:#d846d8"/>
 <rect transform="matrix(0,-1,-1,0,0,0)" x="-38" y="-46" width="32" height="28" rx="13.334" ry="14" style="fill:#909090"/>
 <path d="m27 7.999996a1 1.0012014 0 0 0 -1 1.0012014 1 1.0012014 0 0 0 1 1.0012016 1 1.0012014 0 0 0 1 -1.0012016 1 1.0012014 0 0 0 -1 -1.0012014zm4 0a1 1.0012014 0 0 0 -1 1.0012014 1 1.0012014 0 0 0 1 1.0012016 1 1.0012014 0 0 0 1 -1.0012016 1 1.0012014 0 0 0 -1 -1.0012014zm4 0a1 1.0012014 0 0 0 -1 1.0012014 1 1.0012014 0 0 0 1 1.0012016 1 1.0012014 0 0 0 1 -1.0012016 1 1.0012014 0 0 0 -1 -1.0012014zm4 0a1 1.0012014 0 0 0 -1 1.0012014 1 1.0012014 0 0 0 1 1.0012016 1 1.0012014 0 0 0 1 -1.0012016 1 1.0012014 0 0 0 -1 -1.0012014zm-15.14 0.484982c-0.55 0.3748498-1.072 0.7865438-1.56 1.2318782a1 1.0012014 0 0 0 0.7 0.2855428 1 1.0012014 0 0 0 1 -1.0012016 1 1.0012014 0 0 0 -0.14 -0.5162194zm-0.86 3.519824a1 1.0012014 0 0 0 -1 1.001201 1 1.0012014 0 0 0 1 1.001202 1 1.0012014 0 0 0 1 -1.001202 1 1.0012014 0 0 0 -1 -1.001201zm4 0a1 1.0012014 0 0 0 -1 1.001201 1 1.0012014 0 0 0 1 1.001202 1 1.0012014 0 0 0 1 -1.001202 1 1.0012014 0 0 0 -1 -1.001201zm4 0a1 1.0012014 0 0 0 -1 1.001201 1 1.0012014 0 0 0 1 1.001202 1 1.0012014 0 0 0 1 -1.001202 1 1.0012014 0 0 0 -1 -1.001201zm4 0a1 1.0012014 0 0 0 -1 1.001201 1 1.0012014 0 0 0 1 1.001202 1 1.0012014 0 0 0 1 -1.001202 1 1.0012014 0 0 0 -1 -1.001201zm4 0a1 1.0012014 0 0 0 -1 1.001201 1 1.0012014 0 0 0 1 1.001202 1 1.0012014 0 0 0 1 -1.001202 1 1.0012014 0 0 0 -1 -1.001201zm4 0a1 1.0012014 0 0 0 -1 1.001201 1 1.0012014 0 0 0 1 1.001202 1 1.0012014 0 0 0 1 -1.001202 1 1.0012014 0 0 0 -1 -1.001201zm-23.082 0.602323c-0.2744 0.447336-0.527 0.905486-0.7462 1.384461a1 1.0012014 0 0 0 0.8282 -0.985583 1 1.0012014 0 0 0 -0.082 -0.398878zm-0.918 3.402483a1 1.0012014 0 0 0 -0.5976 0.199439c-0.1086 0.431918-0.1942 0.870645-0.2578 1.317981a1 1.0012014 0 0 0 0.8554 0.484982 1 1.0012014 0 0 0 1 -1.001201 1 1.0012014 0 0 0 -1 -1.001201zm4 0a1 1.0012014 0 0 0 -1 1.001201 1 1.0012014 0 0 0 1 1.001201 1 1.0012014 0 0 0 1 -1.001201 1 1.0012014 0 0 0 -1 -1.001201zm4 0a1 1.0012014 0 0 0 -1 1.001201 1 1.0012014 0 0 0 1 1.001201 1 1.0012014 0 0 0 1 -1.001201 1 1.0012014 0 0 0 -1 -1.001201zm4 0a1 1.0012014 0 0 0 -1 1.001201 1 1.0012014 0 0 0 1 1.001201 1 1.0012014 0 0 0 1 -1.001201 1 1.0012014 0 0 0 -1 -1.001201zm4 0a1 1.0012014 0 0 0 -1 1.001201 1 1.0012014 0 0 0 1 1.001201 1 1.0012014 0 0 0 1 -1.001201 1 1.0012014 0 0 0 -1 -1.001201zm4 0a1 1.0012014 0 0 0 -1 1.001201 1 1.0012014 0 0 0 1 1.001201 1 1.0012014 0 0 0 1 -1.001201 1 1.0012014 0 0 0 -1 -1.001201zm4 0a1 1.0012014 0 0 0 -1 1.001201 1 1.0012014 0 0 0 1 1.001201 1 1.0012014 0 0 0 1 -1.001201 1 1.0012014 0 0 0 -1 -1.001201zm-24 4.004805a1 1.0012014 0 0 0 -1 1.001202 1 1.0012014 0 0 0 1 1.001201 1 1.0012014 0 0 0 1 -1.001201 1 1.0012014 0 0 0 -1 -1.001202zm4 0a1 1.0012014 0 0 0 -1 1.001202 1 1.0012014 0 0 0 1 1.001201 1 1.0012014 0 0 0 1 -1.001201 1 1.0012014 0 0 0 -1 -1.001202zm4 0a1 1.0012014 0 0 0 -1 1.001202 1 1.0012014 0 0 0 1 1.001201 1 1.0012014 0 0 0 1 -1.001201 1 1.0012014 0 0 0 -1 -1.001202zm4 0a1 1.0012014 0 0 0 -1 1.001202 1 1.0012014 0 0 0 1 1.001201 1 1.0012014 0 0 0 1 -1.001201 1 1.0012014 0 0 0 -1 -1.001202zm4 0a1 1.0012014 0 0 0 -1 1.001202 1 1.0012014 0 0 0 1 1.001201 1 1.0012014 0 0 0 1 -1.001201 1 1.0012014 0 0 0 -1 -1.001202zm4 0a1 1.0012014 0 0 0 -1 1.001202 1 1.0012014 0 0 0 1 1.001201 1 1.0012014 0 0 0 1 -1.001201 1 1.0012014 0 0 0 -1 -1.001202zm4 0a1 1.0012014 0 0 0 -1 1.001202 1 1.0012014 0 0 0 1 1.001201 1 1.0012014 0 0 0 1 -1.001201 1 1.0012014 0 0 0 -1 -1.001202zm-24 4.004806a1 1.0012014 0 0 0 -0.9882 0.873048c0.0018 0.124149 0.014 0.246295 0.0194 0.370444a1 1.0012014 0 0 0 0.9688 0.758911 1 1.0012014 0 0 0 1 -1.001201 1 1.0012014 0 0 0 -1 -1.001202zm4 0a1 1.0012014 0 0 0 -1 1.001202 1 1.0012014 0 0 0 1 1.001201 1 1.0012014 0 0 0 1 -1.001201 1 1.0012014 0 0 0 -1 -1.001202zm4 0a1 1.0012014 0 0 0 -1 1.001202 1 1.0012014 0 0 0 1 1.001201 1 1.0012014 0 0 0 1 -1.001201 1 1.0012014 0 0 0 -1 -1.001202zm4 0a1 1.0012014 0 0 0 -1 1.001202 1 1.0012014 0 0 0 1 1.001201 1 1.0012014 0 0 0 1 -1.001201 1 1.0012014 0 0 0 -1 -1.001202zm4 0a1 1.0012014 0 0 0 -1 1.001202 1 1.0012014 0 0 0 1 1.001201 1 1.0012014 0 0 0 1 -1.001201 1 1.0012014 0 0 0 -1 -1.001202zm4 0a1 1.0012014 0 0 0 -1 1.001202 1 1.0012014 0 0 0 1 1.001201 1 1.0012014 0 0 0 1 -1.001201 1 1.0012014 0 0 0 -1 -1.001202zm4 0a1 1.0012014 0 0 0 -1 1.001202 1 1.0012014 0 0 0 1 1.001201 1 1.0012014 0 0 0 1 -1.001201 1 1.0012014 0 0 0 -1 -1.001202zm-24 4.004806a1 1.0012014 0 0 0 -0.5078 0.136163c0.1786 0.636764 0.3936 1.259512 0.664 1.854225a1 1.0012014 0 0 0 0.8438 -0.989187 1 1.0012014 0 0 0 -1 -1.001201zm4 0a1 1.0012014 0 0 0 -1 1.001201 1 1.0012014 0 0 0 1 1.001202 1 1.0012014 0 0 0 1 -1.001202 1 1.0012014 0 0 0 -1 -1.001201zm4 0a1 1.0012014 0 0 0 -1 1.001201 1 1.0012014 0 0 0 1 1.001202 1 1.0012014 0 0 0 1 -1.001202 1 1.0012014 0 0 0 -1 -1.001201zm4 0a1 1.0012014 0 0 0 -1 1.001201 1 1.0012014 0 0 0 1 1.001202 1 1.0012014 0 0 0 1 -1.001202 1 1.0012014 0 0 0 -1 -1.001201zm4 0a1 1.0012014 0 0 0 -1 1.001201 1 1.0012014 0 0 0 1 1.001202 1 1.0012014 0 0 0 1 -1.001202 1 1.0012014 0 0 0 -1 -1.001201zm4 0a1 1.0012014 0 0 0 -1 1.001201 1 1.0012014 0 0 0 1 1.001202 1 1.0012014 0 0 0 1 -1.001202 1 1.0012014 0 0 0 -1 -1.001201zm4 0a1 1.0012014 0 0 0 -1 1.001201 1 1.0012014 0 0 0 1 1.001202 1 1.0012014 0 0 0 1 -1.001202 1 1.0012014 0 0 0 -1 -1.001201zm-20 4.004806a1 1.0012014 0 0 0 -1 1.001201 1 1.0012014 0 0 0 1 1.001201 1 1.0012014 0 0 0 1 -1.001201 1 1.0012014 0 0 0 -1 -1.001201zm4 0a1 1.0012014 0 0 0 -1 1.001201 1 1.0012014 0 0 0 1 1.001201 1 1.0012014 0 0 0 1 -1.001201 1 1.0012014 0 0 0 -1 -1.001201zm4 0a1 1.0012014 0 0 0 -1 1.001201 1 1.0012014 0 0 0 1 1.001201 1 1.0012014 0 0 0 1 -1.001201 1 1.0012014 0 0 0 -1 -1.001201zm4 0a1 1.0012014 0 0 0 -1 1.001201 1 1.0012014 0 0 0 1 1.001201 1 1.0012014 0 0 0 1 -1.001201 1 1.0012014 0 0 0 -1 -1.001201zm4 0a1 1.0012014 0 0 0 -1 1.001201 1 1.0012014 0 0 0 1 1.001201 1 1.0012014 0 0 0 1 -1.001201 1 1.0012014 0 0 0 -1 -1.001201zm4 0a1 1.0012014 0 0 0 -1 1.001201 1 1.0012014 0 0 0 0.29 0.704846c0.464-0.480577 0.902-0.981178 1.288-1.521826a1 1.0012014 0 0 0 -0.578 -0.184221zm-16 4.004805a1 1.0012014 0 0 0 -0.96 0.726873c0.6 0.270324 1.22 0.510612 1.866 0.696836a1 1.0012014 0 0 0 0.094 -0.422507 1 1.0012014 0 0 0 -1 -1.001202zm4 0a1 1.0012014 0 0 0 -1 1.001202 1 1.0012014 0 0 0 0.636 0.935122c0.208 0.01802 0.42 0.02002 0.63 0.03004a1 1.0012014 0 0 0 0.734 -0.965162 1 1.0012014 0 0 0 -1 -1.001202zm4 0a1 1.0012014 0 0 0 -1 1.001202 1 1.0012014 0 0 0 0.39 0.792951c0.506-0.0821 1.004-0.188226 1.488-0.320384a1 1.0012014 0 0 0 0.122 -0.472567 1 1.0012014 0 0 0 -1 -1.001202zm4 0a1 1.0012014 0 0 0 -0.95 0.688827c0.428-0.196236 0.842-0.412495 1.242-0.646776a1 1.0012014 0 0 0 -0.292 -0.042051z" style="fill:url(#radialGradient4807);opacity:.7"/>
 <path d="m32 6c-7.756 0-14 5.945431-14 13.332031v1c0-7.3866 6.244-13.332031 14-13.332031s14 5.945431 14 13.332031v-1c0-7.3866-6.244-13.332031-14-13.332031zm-20 20v1h4v-1h-4zm36 0v1h4v-1h-4zm-32 2.667969v0.332031 0.667969c0 7.386 7.136 13.332031 16 13.332031s16-5.946031 16-13.332031v-0.667969-0.332031c0 7.386-7.136 13.332031-16 13.332031s-16-5.946031-16-13.332031zm0 25.332031v1h14v-1h-14zm18 0v1h14v-1h-14z" style="fill:#ffffff;opacity:.1"/>
 <path d="m18 24.65v1.000523c0 7.389866 6.244 13.339009 14 13.339009s14-5.949143 14-13.339009v-1.000523c0 7.389866-6.244 13.339009-14 13.339009s-14-5.949143-14-13.339009zm-6 4.666503v1.000524c0 8.674537 7.8662 15.762183 18 16.594618v-1.000523c-10.1338-0.832435-18-7.920081-18-16.594619zm40 0c0 8.674538-7.866 15.762184-18 16.594619v1.000523c10.134-0.832435 18-7.920081 18-16.594618v-1.000524zm-36 28.682974v1.000523h32v-1.000523h-32z" style="opacity:.2"/>
</svg>
