<svg width="64" height="64" version="1.1" viewBox="0 0 64 64" xmlns="http://www.w3.org/2000/svg">
 <path d="M 32,5 A 28,28 0 0 0 4,33 28,28 0 0 0 32,61 28,28 0 0 0 60,33 28,28 0 0 0 32,5 Z" style="opacity:.2"/>
 <path d="M 32,4 A 28,28 0 0 0 4,32 28,28 0 0 0 32,60 28,28 0 0 0 60,32 28,28 0 0 0 32,4 Z" style="fill:#f3b616"/>
 <path d="m53.347196 5c0.98584 5.72e-5 1.53678 0.7765034 1.652804 2.3293678l-1.245214 7.3131042h0.304466l0.652416-0.541716h0.17398v0.162516c-0.898942 0.686218-1.768842 2.56414-2.609698 5.633796-0.319 2.636368-0.855444 5.074066-1.60932 7.313118-0.666952 2.311326-1.00042 4.44205-1.000378 6.3922l-1.261358 3.846148c-2.8e-5 0.325044 0.478412 0.650076 1.435332 0.975076-0.174 0.758418-0.434982 1.137618-0.782904 1.137604v0.216686h0.304466v0.1625c-4.2e-5 0.397276-0.492976 0.595906-1.47883 0.59589l0.17398 0.216686v0.75839h-0.304464c0.202948 0.758418 0.63789 1.137606 1.304854 1.137606v0.379186h-1.304854v0.216688c0.434914 1.4e-5 0.652398 0.325044 0.652426 0.97509l-1.826778 0.75839 0.17396 0.216686v0.16252c-2.6e-5 0.252802-0.217512 0.3792-0.652426 0.3792v0.216672c0.550898 1.4e-5 0.826374 0.12638 0.826402 0.379204-0.782932 0.325028-1.812312 1.932108-3.088136 4.821236-1.304872 2.564106-2.43574 3.846156-3.392592 3.846156h-0.347962c-0.724942-0.577832-1.319378-2.491882-1.783296-5.742154-1.85581-4.947624-2.783698-7.854808-2.783672-8.721554-2.6e-5 -2.239054-0.594464-4.223-1.783296-6.750998-0.318988-1.119518-0.536458-3.077196-0.652428-4.774588h-0.782904c-1.971794 3.719772-3.001172 6.559918-3.088152 8.654514-0.55094 1.227894-0.985896 2.70857-1.304842 4.442036 1.188844 0.397274 1.783282 0.77646 1.783296 1.13759v0.216688c-0.927918-0.14444-1.580332-0.415304-1.957282-0.812562-0.405956 0.97509-0.9424 3.083668-1.60931 7.525686-0.52195 2.058508-1.174378 2.825342-1.95727 2.825342-2.203756-0.902848-4.045043-2.121108-5.52386-4.179618-0.231979 1.6e-5 -0.608944-1.029246-1.130867-3.087756-0.318974 1.4e-5 -0.536445-1.029248-0.652428-3.087758-1.101879-2.925228-1.855782-5.665806-2.261736-9.421682v-5.633812h-0.173988l-0.782906 0.216688v-0.216688c0-0.252756 0.260969-0.37916 0.782906-0.379188l-0.173976-3.250272v-2.546052l-1.261357-8.125668v-3.067058c0.550939-2.1667958 1.507832-3.2502148 2.870665-3.250272l0.521965 0.541717-0.521937-0.162516c2.116751 2.88917 3.363614 4.926968 3.740565 6.913205h1.47883v0.379201h-1.130866v0.433374c0.434942 1.66128 0.753901 2.491912 0.956893 2.49187h0.347963l0.782904-0.216687 0.17398 0.216687 0.17398-0.216687 0.17398 0.216687v0.162514c-0.579946 0.433403-0.97139 1.02929-1.174368 1.787651h-0.13046v0.379188h0.304466c0.40594 6.031098 1.159856 11.400282 2.261736 14.50608l0.652426 0.596852h0.347948c0.434946 3e-5 1.348342-2.368286 2.74019-6.59366 0.898888-1.914008 1.551304-3.315518 1.95727-4.760112l-0.17398-0.595888c0.898874-1.408422 1.826764-2.050296 2.78367-2.05034h0.304468c0.608918 4.4e-5 1.04386 0.334948 1.304856 1.129436 0.811878 1.191792 1.464308 2.701646 1.957268 5.08514l2.435724 5.03352c0.318934 0.397286 0.478412 0.848704 0.47844 1.35429 0.898874 2.13074 1.710768 4.711452 2.435724 5.397614h0.521936c0.608904 1.4e-5 1.420798-3.808578 2.43571-9.081258 0.17396 2.8e-5 0.6524-1.40842 1.435332-4.225348v-0.216686l-0.827494-0.379202-0.652428 0.216686h-0.826402v-0.433372l1.652804-0.16252h1.305948c1.24683-4.658674 2.392192-8.27009 3.436106-10.834231 0.347924-5.2726096 0.826376-7.908936 1.435334-7.908979l2.376096-0.97509" style="opacity:.2"/>
 <path d="m53.347196 4c0.98584 5.72e-5 1.53678 0.7765034 1.652804 2.3293678l-1.245214 7.3131042h0.304466l0.652416-0.541716h0.17398v0.162516c-0.898942 0.686218-1.768842 2.56414-2.609698 5.633795-0.319 2.636369-0.855444 5.074067-1.60932 7.313119-0.666952 2.311326-1.00042 4.44205-1.000378 6.3922l-1.261358 3.846148c-2.8e-5 0.325044 0.478412 0.650076 1.435332 0.975076-0.174 0.758418-0.434982 1.137618-0.782904 1.137604v0.216686h0.304466v0.1625c-4.2e-5 0.397276-0.492976 0.595906-1.47883 0.59589l0.17398 0.216686v0.75839h-0.304464c0.202948 0.758418 0.63789 1.137606 1.304854 1.137606v0.379186h-1.304854v0.216688c0.434914 1.4e-5 0.652398 0.325044 0.652426 0.97509l-1.826778 0.75839 0.17396 0.216686v0.16252c-2.6e-5 0.252802-0.217512 0.3792-0.652426 0.3792v0.216672c0.550898 1.4e-5 0.826374 0.12638 0.826402 0.379204-0.782932 0.325028-1.812312 1.932108-3.088136 4.821236-1.304872 2.564106-2.43574 3.846156-3.392592 3.846156h-0.347962c-0.724942-0.577832-1.319378-2.491882-1.783296-5.742154-1.85581-4.947624-2.783698-7.854808-2.783672-8.721554-2.6e-5 -2.239054-0.594464-4.223-1.783296-6.750998-0.318988-1.119518-0.536458-3.077196-0.652428-4.774588h-0.782904c-1.971794 3.719772-3.001172 6.559918-3.088152 8.654514-0.55094 1.227894-0.985896 2.70857-1.304842 4.442036 1.188844 0.397274 1.783282 0.77646 1.783296 1.13759v0.216688c-0.927918-0.14444-1.580332-0.415304-1.957282-0.812562-0.405956 0.97509-0.9424 3.083668-1.60931 7.525686-0.52195 2.058508-1.174378 2.825342-1.95727 2.825342-2.203756-0.902848-4.045043-2.121108-5.52386-4.179618-0.231979 1.6e-5 -0.608944-1.029246-1.130867-3.087756-0.318974 1.4e-5 -0.536445-1.029248-0.652428-3.087758-1.101879-2.925228-1.855782-5.665806-2.261736-9.421682v-5.633812h-0.173988l-0.782906 0.216688v-0.216688c0-0.252756 0.260969-0.37916 0.782906-0.379188l-0.173976-3.250272v-2.546052l-1.261357-8.125668v-3.0670578c0.550939-2.166796 1.507832-3.250215 2.870665-3.2502722l0.521965 0.541717-0.521937-0.162516c2.116751 2.8891704 3.363614 4.926968 3.740565 6.913205h1.47883v0.379201h-1.130866v0.433374c0.434942 1.66128 0.753901 2.491912 0.956893 2.49187h0.347963l0.782904-0.216687 0.17398 0.216687 0.17398-0.216687 0.17398 0.216687v0.162514c-0.579946 0.433403-0.97139 1.02929-1.174368 1.787652h-0.13046v0.379187h0.304466c0.40594 6.031098 1.159856 11.400282 2.261736 14.50608l0.652426 0.596852h0.347948c0.434946 3e-5 1.348342-2.368286 2.74019-6.59366 0.898888-1.914008 1.551304-3.315518 1.95727-4.760112l-0.17398-0.595888c0.898874-1.408422 1.826764-2.050296 2.78367-2.05034h0.304468c0.608918 4.4e-5 1.04386 0.334948 1.304856 1.129436 0.811878 1.191792 1.464308 2.701646 1.957268 5.08514l2.435724 5.03352c0.318934 0.397286 0.478412 0.848704 0.47844 1.35429 0.898874 2.13074 1.710768 4.711452 2.435724 5.397614h0.521936c0.608904 1.4e-5 1.420798-3.808578 2.43571-9.081258 0.17396 2.8e-5 0.6524-1.40842 1.435332-4.225348v-0.216686l-0.827494-0.379202-0.652428 0.216686h-0.826402v-0.433372l1.652804-0.16252h1.305948c1.24683-4.658674 2.392192-8.27009 3.436106-10.834231 0.347924-5.2726096 0.826376-7.908936 1.435334-7.908979l2.376096-0.97509" style="fill:#ffffff"/>
 <path d="M 32 4 A 28 28 0 0 0 4 32 A 28 28 0 0 0 4.0214844 32.40625 A 28 28 0 0 1 32 5 A 28 28 0 0 1 59.978516 32.578125 A 28 28 0 0 0 60 32 A 28 28 0 0 0 32 4 z" style="fill:#ffffff;opacity:.2"/>
</svg>
