<svg width="64" height="64" version="1.1" xmlns="http://www.w3.org/2000/svg">
 <path d="m9.9258916 5.0008789a5.0004082 4.9922303 0 0 0 -4.9256908 5.0619261v33.943771a5.0004082 4.9922303 0 0 0 7.4100202 4.375563l17.589521-9.659778 17.589521 9.659778a5.0004082 4.9922303 0 0 0 7.41002 -4.375563v-33.943771a5.0004082 4.9922303 0 1 0 -9.999817 0v25.500725l-12.589613-6.914325a5.0004082 4.9922303 0 0 0 -4.820223 0l-12.589613 6.914325v-25.500725a5.0004082 4.9922303 0 0 0 -5.0741254 -5.0619261z" style="opacity:.2"/>
 <path d="m29.90864 15.000574a4.985133 4.9926608 0 0 0 -4.907837 5.062464v35.944302a4.985133 4.9926608 0 0 0 4.984055 4.991582h23.926738a4.985133 4.9926608 0 1 0 0 -9.983166h-18.942681v-30.952718a4.985133 4.9926608 0 0 0 -5.060275 -5.062464z" style="fill-rule:evenodd;opacity:.2"/>
 <path d="m9.9960504 9.0669342v33.937473l20.003601-10.97977 20.003602 10.97977v-33.937473" style="fill:none;stroke-linecap:round;stroke-linejoin:round;stroke-width:9.9917183;stroke:#508d4c"/>
 <path d="m9.9256831 4.0003911a5.0003086 4.9983793 0 0 0 -4.9256831 5.0664063v0.9999996a5.0003086 4.9983793 0 0 1 4.9256831 -5.068359 5.0003086 4.9983793 0 0 1 5.0741179 5.068359v-0.9999996a5.0003086 4.9983793 0 0 0 -5.0741179 -5.0664063zm39.999203 0a5.0003086 4.9983793 0 0 0 -4.925683 5.0664063v0.9999996a5.0003086 4.9983793 0 0 1 4.925683 -5.068359 5.0003086 4.9983793 0 0 1 5.074118 5.068359v-0.9999996a5.0003086 4.9983793 0 0 0 -5.074118 -5.0664063zm-19.909759 23.060547a5.0003086 4.9983793 0 0 0 -2.425733 0.615234l-12.589593 6.923828v1l12.589593-6.923828a5.0003086 4.9983793 0 0 1 2.425733 -0.617187 5.0003086 4.9983793 0 0 1 2.394483 0.617187l12.589593 6.923828v-1l-12.589593-6.923828a5.0003086 4.9983793 0 0 0 -2.394483 -0.615234z" style="fill:#ffffff;opacity:.2"/>
 <path d="m29.991164 19.062401v35.946855h23.946942" style="fill:none;stroke-linecap:round;stroke-linejoin:round;stroke-width:9.9814777;stroke:#ff6f57"/>
 <path d="m29.910667 14.000553a4.9849098 4.9915476 0 0 0 -4.910156 5.062432v0.999987a4.9849098 4.9915476 0 0 1 4.910156 -5.062432 4.9849098 4.9915476 0 0 1 5.058594 5.062432v-0.999987a4.9849098 4.9915476 0 0 0 -5.058594 -5.062432zm5.058594 36.007332v0.998034h18.941406a4.9849098 4.9915476 0 0 1 5.064453 4.494081 4.9849098 4.9915476 0 0 0 -5.064453 -5.492115h-18.941406z" style="fill-rule:evenodd;fill:#ffffff;opacity:.2"/>
</svg>
