<svg width="64" height="64" version="1" xmlns="http://www.w3.org/2000/svg">
 <rect transform="matrix(0,-1,-1,0,0,0)" x="-60" y="-60" width="56" height="56" rx="3" ry="3" style="fill:#4f4f4f"/>
 <path d="m11.429757 35h17.142286c0.789976 0 1.427957 0.637974 1.427957 1.427943v17.142114c0 0.791969-0.637981 1.429943-1.427957 1.429943h-17.143486c-0.791376 0-1.428557-0.637974-1.428557-1.427943v-17.143314c0-0.789969 0.637181-1.427943 1.428557-1.427943z" style="opacity:.2"/>
 <g transform="matrix(1.9999364,0,0,2,9.181526e-4,1.0006)" style="opacity:.2">
  <path d="m5.7143 5h8.5714c0.395 0 0.714 0.3186 0.714 0.7143v8.5714c0 0.395-0.319 0.714-0.714 0.714h-8.5717c-0.3957 0-0.7143-0.319-0.7143-0.714v-8.5717c0-0.3957 0.3186-0.7143 0.7143-0.7143z"/>
  <path d="m17.714 5h8.5714c0.396 0 0.715 0.3186 0.715 0.7143v8.5714c0 0.395-0.319 0.714-0.714 0.714h-8.5714c-0.396 0-0.715-0.319-0.715-0.714v-8.5714c0-0.39571 0.31857-0.71429 0.71429-0.71429z"/>
 </g>
 <path d="m7 4c-1.662 0-3 1.338-3 3v1c0-1.662 1.338-3 3-3h50c1.662 0 3 1.338 3 3v-1c0-1.662-1.338-3-3-3h-50z" style="fill:#ffffff;opacity:.1"/>
 <g transform="scale(2)" style="fill:#48aeff">
  <path d="m5.7143 5h8.5714c0.395 0 0.714 0.3186 0.714 0.7143v8.5714c0 0.395-0.319 0.714-0.714 0.714h-8.5717c-0.3957 0-0.7143-0.319-0.7143-0.714v-8.5717c0-0.3957 0.3186-0.7143 0.7143-0.7143z"/>
  <path d="m17.714 5h8.5714c0.396 0 0.715 0.3186 0.715 0.7143v8.5714c0 0.395-0.319 0.714-0.714 0.714h-8.5714c-0.396 0-0.715-0.319-0.715-0.714v-8.5714c0-0.39571 0.31857-0.71429 0.71429-0.71429z"/>
 </g>
 <path d="m11.4286 34h17.1428c0.79 0 1.428 0.638 1.428 1.428v17.1428c0 0.792-0.638 1.43-1.428 1.43h-17.1434c-0.7914 0-1.4286-0.638-1.4286-1.428v-17.144c0-0.79 0.6372-1.428 1.4286-1.428z" style="fill:#48aeff"/>
 <path d="m4 57v1c0 1.662 1.338 3 3 3h50c1.662 0 3-1.338 3-3v-1c0 1.662-1.338 3-3 3h-50c-1.662 0-3-1.338-3-3z" style="opacity:.2"/>
 <circle cx="46" cy="46" r="16" style="fill:#fa6257"/>
 <path d="m43.925933 38-0.176261 2.107045a6.2829935 6.2853365 0 0 0 -1.83624 1.062441l-1.914325-0.901733-1.999107 3.463944 1.738044 1.207511a6.2829935 6.2853365 0 0 0 -0.09596 1.060182 6.2829935 6.2853365 0 0 0 0.09142 1.064662l-1.733226 1.203911 1.999107 3.463944 1.909867-0.899473a6.2829935 6.2853365 0 0 0 1.840678 1.055722l0.175923 2.111844h3.998214l0.176261-2.107045a6.2829935 6.2853365 0 0 0 1.83624 -1.062421l1.914325 0.901713 1.999107-3.463944-1.738064-1.207511a6.2829935 6.2853365 0 0 0 0.09596 -1.059922 6.2829935 6.2853365 0 0 0 -0.09196 -1.063922l1.733605-1.203051-1.999107-3.463944-1.909887 0.899493a6.2829935 6.2853365 0 0 0 -1.840677 -1.055722l-0.175922-2.111844h-3.998214zm1.999107 5.713779a2.2847794 2.2856314 0 0 1 2.284979 2.285831 2.2847794 2.2856314 0 0 1 -2.284979 2.285831 2.2847794 2.2856314 0 0 1 -2.284979 -2.285831 2.2847794 2.2856314 0 0 1 2.284979 -2.285831z" style="fill:#ffffff"/>
 <path d="M 30.025391,46.5 A 16,16.001894 0 0 0 30,46.998106 16,16.001894 0 0 0 46,63 16,16.001894 0 0 0 62,46.998106 16,16.001894 0 0 0 61.982422,46.50586 16,16.001894 0 0 1 46,61.999882 16,16.001894 0 0 1 30.025391,46.5 Z" style="opacity:.2"/>
</svg>
