<svg width="64" height="64" version="1.1" viewBox="0 0 64 64" xmlns="http://www.w3.org/2000/svg">
 <path d="m6.8000004 9c-1.5512001 0-2.8 1.23881-2.8 2.777823v42.444353c0 1.538813 1.2487999 2.777824 2.8 2.777824h50.4c1.5512 0 2.8-1.239011 2.8-2.777824v-42.444353c0-1.538013-1.248-2.776823-2.8-2.776823z" style="fill:#4ab3e4"/>
 <path d="m6.8000004 7.0000856c-1.5512001 0-2.8 1.2387823-2.8 2.7777603v3.2221541h56v-3.2221541c0-1.538978-1.248-2.7777603-2.8-2.7777603z" style="fill:#4f4f4f"/>
 <path d="M 6.8007812 7 C 5.2496034 7 4 8.2383657 4 9.7773438 L 4 10.777344 C 4 9.2383657 5.2496034 8 6.8007812 8 L 57.199219 8 C 58.749196 8 60 9.2383657 60 10.777344 L 60 9.7773438 C 60 8.2383657 58.749196 7 57.199219 7 L 6.8007812 7 z" style="fill:#ffffff;opacity:.1"/>
 <path d="m 4,54.222656 0,1 C 4,56.762634 5.2496034,58 6.8007812,58 L 57.199219,58 C 58.749196,58 60,56.762634 60,55.222656 l 0,-1 C 60,55.762634 58.749196,57 57.199219,57 L 6.8007812,57 C 5.2496034,57 4,55.762634 4,54.222656 Z" style="opacity:.2"/>
</svg>
