<svg width="64" height="64" version="1" xmlns="http://www.w3.org/2000/svg">
 <path d="m12 6h40v20h-40z" style="fill:#b7b7b7"/>
 <rect x="4" y="24" width="56" height="34" rx="2.8" ry="2.834" style="fill:#4f4f4f"/>
 <g transform="scale(2)" style="opacity:.4">
  <rect x="8" y="16" width="16" height="2"/>
  <rect x="10" y="20" width="12" height="2"/>
  <rect x="12" y="24" width="8" height="2"/>
 </g>
 <path d="m 4,55.167969 0,1 C 4,57.737969 5.2496033,59 6.8007812,59 L 57.199219,59 C 58.749197,59 60,57.737969 60,56.167969 l 0,-1 C 60,56.737969 58.749197,58 57.199219,58 L 6.8007812,58 C 5.2496033,58 4,56.737969 4,55.167969 Z" style="opacity:.2"/>
 <path d="m12 6v1h40v-1h-40z" style="fill:#ffffff;opacity:.2"/>
 <rect x="16" y="10" width="10" height="6" style="opacity:.5"/>
 <rect x="38" y="10" width="10" height="6" style="opacity:.5"/>
 <g transform="translate(1,-1)">
  <circle cx="47" cy="47" r="16" style="fill:#48aeff"/>
  <path d="M 31.02539,47.5 A 16,16.001894 0 0 0 31,47.998106 16,16.001894 0 0 0 47,64 16,16.001894 0 0 0 63,47.998106 16,16.001894 0 0 0 62.98242,47.50586 16,16.001894 0 0 1 46.999998,62.999882 16,16.001894 0 0 1 31.02539,47.5 Z" style="opacity:.2"/>
  <path d="m39.50022 39.00021h5.99998c0.2765 0 0.4998 0.22302 0.4998 0.50001v5.99998c0 0.2765-0.2233 0.4998-0.4998 0.4998h-6.00019c-0.27699 0-0.50001-0.2233-0.50001-0.4998v-6.00019c0-0.27699 0.22302-0.50001 0.50001-0.50001z" style="fill:#ffffff"/>
  <path d="m 48.49978,39 h 5.99974 C 54.77671,39 55,39.223027 55,39.500025 v 6.000159 C 55,45.776693 54.77671,46 54.50022,46 H 48.500481 C 48.223291,46 48,45.776693 48,45.500184 v -6.000159 c 0,-0.277006 0.22299,-0.500018 0.499983,-0.500018 z" style="fill:#ffffff"/>
  <path d="m39.50022 48.000209h5.99998c0.2765 0 0.4998 0.223021 0.4998 0.50001v5.999981c0 0.276499-0.2233 0.499799-0.4998 0.499799h-6.00019c-0.27699 0-0.50001-0.2233-0.50001-0.499799v-6.000191c0-0.27699 0.22302-0.50001 0.50001-0.50001z" style="fill:#ffffff"/>
  <path d="m48.49978 47.999999h5.99974c0.27719 0 0.50048 0.223027 0.50048 0.500026v6.000159c0 0.276509-0.22329 0.499815-0.49978 0.499815h-5.999739c-0.27719 0-0.500481-0.223306-0.500481-0.499815v-6.000159c0-0.277006 0.22299-0.500018 0.499983-0.500018z" style="fill:#ffffff"/>
 </g>
</svg>
