<svg width="64" height="64" version="1.1" viewBox="0 0 64 64" xmlns="http://www.w3.org/2000/svg">
 <path d="m6.8008004 7.0019434c-1.5512 0-2.8008 1.2495821-2.8008 2.8007599v35.197497h56v-35.199497c0-1.5511779-1.25-2.80076-2.8-2.80076h-50.4z" style="fill:#4ab3e4"/>
 <path d="m6.8000004 57.000028c-1.5512001 0-2.8-1.247982-2.8-2.79996v-9.199868h56v9.199868c0 1.551178-1.2488 2.79996-2.8 2.79996z" style="fill:#253951"/>
 <circle cx="35" cy="51" r="3" style="opacity:.2"/>
 <circle cx="44.999" cy="51" r="3" style="opacity:.2"/>
 <circle cx="54.999" cy="51" r="3" style="opacity:.2"/>
 <circle cx="35" cy="50" r="3" style="fill:#ffffff;opacity:.72"/>
 <circle cx="44.999" cy="50" r="3" style="fill:#ffffff;opacity:.72"/>
 <circle cx="54.999" cy="50" r="3" style="fill:#ffffff;opacity:.72"/>
 <path d="M 6.8007812,7 C 5.2496034,7 4,8.2493467 4,9.8002057 L 4,10.8 C 4,9.2491415 5.2496034,7.9997945 6.8007812,7.9997945 l 50.3984378,0 C 58.749196,7.9997945 60,9.2491415 60,10.8 L 60,9.8002057 C 60,8.2493467 58.749196,7 57.199219,7 L 6.8007812,7 Z" style="fill:#ffffff;opacity:.1"/>
 <path d="m 4,54.2 0,0.999795 C 4,56.749454 5.2496034,58 6.8007812,58 L 57.199219,58 C 58.749196,58 60,56.749454 60,55.199795 L 60,54.2 c 0,1.54966 -1.250804,2.800205 -2.800781,2.800205 l -50.3984378,0 C 5.2496034,57.000205 4,55.74966 4,54.2 Z" style="opacity:.2"/>
</svg>
