<svg width="64" height="64" version="1.1" viewBox="0 0 64 64" xmlns="http://www.w3.org/2000/svg">
 <rect x="4" y="5" width="56" height="56" rx="6" ry="6" style="opacity:.2"/>
 <rect x="4" y="4" width="56" height="56" rx="6" ry="6" style="fill:#ab47bc"/>
 <path d="m15 19c9 0 9 13 17 13s8-13 17-13" style="fill:none;stroke-linecap:round;stroke-width:2;stroke:#ffffff"/>
 <path d="m15 45c9 0 9-13 17-13s8 13 17 13" style="fill:none;stroke-linecap:round;stroke-width:2;stroke:#ffffff"/>
 <path d="m10 4c-3.324 0-6 2.676-6 6v1c0-3.324 2.676-6 6-6h44c3.324 0 6 2.676 6 6v-1c0-3.324-2.676-6-6-6z" style="fill:#ffffff;opacity:.2"/>
</svg>
