<svg width="64" height="64" version="1" xmlns="http://www.w3.org/2000/svg">
 <rect transform="matrix(0,-1,-1,0,0,0)" x="-60" y="-60" width="56" height="56" rx="28" ry="28" style="fill:#4f4f4f"/>
 <path d="m42.352536 21.061103c-0.970048 0.05039-2.04604 0.274824-3.2547 0.629046l-1.046225-0.640149-20.004301 12.002792c3.050857-1.169973 5.601405-1.723562 7.165541-1.851991l-5.16511 5.853361 4.012862-2.198511c-1.644353 4.579064-3.578769 8.874063-8.013722 10.834519-0.02504 0.05753-0.0258 0.124429-0.04688 0.183643 3.376726 3.781679 7.95191 6.459502 13.159029 7.185271l2.850613 3.940916 0.109403-0.03127 2.821007-3.911109c5.490179-0.765199 10.291012-3.686658 13.709947-7.798614-0.177499-0.03571-0.358317-0.06934-0.597789-0.06252-6.316961 0.05361-11.393253-0.973664-12.002584-7.872829-0.165016-0.873783-0.303566-6.49551 9.001935-9.271756-0.939141-0.60392-4.060273-0.64591-6.282551-0.652492-0.09654-0.822771 0.103162-3.950518 7.282766-4.34861-1.126782-1.085053-2.083247-2.072683-3.699995-1.988743zm-5.99729 2.430565c0.45992 0.185944 0.519192 0.466929 0.60169 0.769719-0.802213 0.154676-1.932396 0.51688-2.246483 0.105485-0.143951-0.141513 0.83812-0.664375 1.652695-0.863481z" style="opacity:.2"/>
 <path d="m42.35318 20.061102c-0.970072 0.05039-2.04609 0.274828-3.25478 0.629057l-1.046251-0.640159-20.00479 12.002991c3.050931-1.169991 5.601541-1.723589 7.165716-1.852022l-5.165237 5.85346 4.012961-2.200549c-1.644394 4.581142-3.578858 8.876212-8.013919 10.8347-0.02504 0.05754-0.0258 0.124432-0.04688 0.183646 3.376809 3.781743 7.952105 6.45961 13.159352 7.185391l2.852283 3.942383 0.109406-0.03127 2.818676-3.910975c5.490314-0.765211 10.291264-3.686718 13.710283-7.798744-0.176043-0.03601-0.356085-0.07002-0.596143-0.06402-6.317513 0.05401-11.392729-0.972242-12.002874-7.871962-0.16404-0.874218-0.304074-6.495618 9.002155-9.27231-0.938224-0.604151-4.060972-0.646161-6.283504-0.652163-0.09603-0.822205 0.104024-3.950985 7.283744-4.349084-1.12627-1.08427-2.082498-2.072716-3.700886-1.988496zm-5.997437 2.430206c0.459931 0.185946 0.519205 0.466936 0.601705 0.769732-0.802233 0.154678-1.932444 0.516888-2.246538 0.105486-0.143955-0.141515 0.83814-0.664385 1.652735-0.863495z" style="fill:#ee5454"/>
 <path d="m21.061971 11.006686c-8.892799 3.993543-15.061999 12.701418-15.061999 22.819674 0 13.901801 11.641 25.17364 26.002 25.17364 14.358 0 25.998-11.273839 25.998-25.17364 0-9.993858-6.02-18.616534-14.734-22.661676l-0.27156 0.261176c6.88 3.738946 11.006 10.852645 11.006 19.036528 0 10.989843-8.202 21.017699-19.112 22.537677l-2.886 3.999943-2.89-3.999943c-10.9094-1.519978-19.112-11.547834-19.112-22.537677 0-8.269082 4.2278-15.441779 11.2228-19.146327-0.0468-0.09904-0.11442-0.209837-0.162961-0.315595" style="opacity:.2"/>
 <path d="m21.061971 10.007144c-8.892799 3.993542-15.061999 12.701418-15.061999 22.819673 0 13.901801 11.641 25.17364 26.002 25.17364 14.358 0 25.998-11.273839 25.998-25.17364 0-9.993857-6.02-18.616534-14.734-22.661676l-0.27156 0.261177c6.88 3.738946 11.006 10.852644 11.006 19.036527 0 10.989843-8.202 21.0177-19.112 22.537678l-2.886 3.999943-2.89-3.999943c-10.9094-1.519978-19.112-11.547835-19.112-22.537678 0-8.269081 4.2278-15.441779 11.2228-19.146326-0.0468-0.09904-0.11442-0.209837-0.162961-0.315595" style="fill:#7abfe8"/>
 <path d="M 32,4 C 16.488222,4 4,16.494419 4,32.013895 4,32.127506 4.011285,32.23804 4.017578,32.35 4.3691163,17.140916 16.710946,5.0004963 32,5.0004963 47.289054,5.0004963 59.630884,17.140916 59.982422,32.35 59.988797,32.23804 60,32.127506 60,32.013895 60,16.494419 47.511778,4 32,4 Z" style="fill:#ffffff;opacity:.1"/>
 <path d="M 59.982422,32.664062 C 59.630879,47.865603 47.289272,60 32,60 16.712038,60 4.3711461,47.867681 4.0175781,32.667969 4.0114012,32.778587 4,32.887763 4,33 4,48.511779 16.488001,61 32,61 47.512,61 60,48.511779 60,33 c 0,-0.113447 -0.01128,-0.224114 -0.01758,-0.335938 z" style="opacity:.2"/>
</svg>
