<svg width="64" height="64" version="1" xmlns="http://www.w3.org/2000/svg">
 <rect transform="matrix(0,-1,-1,0,0,0)" x="-61" y="-60" width="56" height="56" rx="28" ry="28" style="opacity:.2"/>
 <rect transform="matrix(0,-1,-1,0,0,0)" x="-60" y="-60" width="56" height="56" rx="28" ry="28" style="fill:#e4e4e4"/>
 <path d="m32 4c-15.512 0-28 12.488-28 28 0 0.167704 0.0107645 0.333014 0.0136719 0.5 0.2660088-15.278522 12.642032-27.5 27.986328-27.5s27.720319 12.221478 27.986328 27.5c0.002907-0.166986 0.013672-0.332296 0.013672-0.5 0-15.512-12.488-28-28-28z" style="fill:#ffffff;opacity:.2"/>
 <path d="m32 57.999788v-24.040212m-21-17.959788 21 17.959788 21-17.959788" style="fill:none;opacity:.2;stroke-linecap:round;stroke-linejoin:round;stroke-width:10;stroke:#000000"/>
 <path d="M 32,57 32,32.959788 M 11,15 32,32.959788 53,15" style="fill:none;stroke-linecap:round;stroke-linejoin:round;stroke-width:10;stroke:#e34241"/>
</svg>
