<svg width="64" height="64" version="1" xmlns="http://www.w3.org/2000/svg">
 <rect transform="matrix(0,-1,-1,0,0,0)" x="-60" y="-60" width="56" height="56" rx="3" ry="3" style="fill:#4f4f4f"/>
 <path d="m7 4c-1.662 0-3 1.338-3 3v1c0-1.662 1.338-3 3-3h50c1.662 0 3 1.338 3 3v-1c0-1.662-1.338-3-3-3h-50z" style="fill:#ffffff;opacity:.1"/>
 <g transform="matrix(1.9999364,0,0,2,9.181526e-4,1.0006)" style="opacity:.2">
  <path d="m5.7143 5h8.5714c0.395 0 0.714 0.3186 0.714 0.7143v8.5714c0 0.395-0.319 0.714-0.714 0.714h-8.5717c-0.3957 0-0.7143-0.319-0.7143-0.714v-8.5717c0-0.3957 0.3186-0.7143 0.7143-0.7143z"/>
  <path d="m17.714 5h8.5714c0.396 0 0.715 0.3186 0.715 0.7143v8.5714c0 0.395-0.319 0.714-0.714 0.714h-8.5714c-0.396 0-0.715-0.319-0.715-0.714v-8.5714c0-0.39571 0.31857-0.71429 0.71429-0.71429z"/>
 </g>
 <path d="m11.4292 10.0006h17.1428c0.79 0 1.428 0.6372 1.428 1.4286v17.1428c0 0.79-0.638 1.428-1.428 1.428h-17.1434c-0.7914 0-1.4286-0.638-1.4286-1.428v-17.1434c0-0.7914 0.6372-1.4286 1.4286-1.4286z" style="fill:#48aeff"/>
 <path d="m35.427943 10h17.142114c0.791969 0 1.429943 0.637219 1.429943 1.428643v17.143314c0 0.790024-0.637974 1.428043-1.427943 1.428043h-17.142114c-0.791969 0-1.429943-0.638019-1.429943-1.428043v-17.143314c0-0.791444 0.637115-1.428623 1.428523-1.428623z" style="fill:#48aeff"/>
 <g transform="matrix(1.9999364,0,0,2,9.181526e-4,25.0006)" style="opacity:.2">
  <path d="m5.7143 5h8.5714c0.395 0 0.714 0.3186 0.714 0.7143v8.5714c0 0.395-0.319 0.714-0.714 0.714h-8.5717c-0.3957 0-0.7143-0.319-0.7143-0.714v-8.5717c0-0.3957 0.3186-0.7143 0.7143-0.7143z"/>
  <path d="m17.714 5h8.5714c0.396 0 0.715 0.3186 0.715 0.7143v8.5714c0 0.395-0.319 0.714-0.714 0.714h-8.5714c-0.396 0-0.715-0.319-0.715-0.714v-8.5714c0-0.39571 0.31857-0.71429 0.71429-0.71429z"/>
 </g>
 <path d="m11.4292 34.0006h17.1428c0.79 0 1.428 0.6372 1.428 1.4286v17.1428c0 0.79-0.638 1.428-1.428 1.428h-17.1434c-0.7914 0-1.4286-0.638-1.4286-1.428v-17.1434c0-0.7914 0.6372-1.4286 1.4286-1.4286z" style="fill:#48aeff"/>
 <path d="m35.427943 34h17.142114c0.791969 0 1.429943 0.637219 1.429943 1.428643v17.143314c0 0.790024-0.637974 1.428043-1.427943 1.428043h-17.142114c-0.791969 0-1.429943-0.638019-1.429943-1.428043v-17.143314c0-0.791444 0.637115-1.428623 1.428523-1.428623z" style="fill:#48aeff"/>
 <path d="m4 57v1c0 1.662 1.338 3 3 3h50c1.662 0 3-1.338 3-3v-1c0 1.662-1.338 3-3 3h-50c-1.662 0-3-1.338-3-3z" style="opacity:.2"/>
</svg>
