<svg width="64" height="64" version="1.1" viewBox="0 0 64 64" xmlns="http://www.w3.org/2000/svg">
 <path d="M 60,55.222222 V 10.777778 C 60,9.238889 58.7512,8 57.199999,8 H 6.8 C 5.2488,8 4,9.238889 4,10.777778 V 55.222222 C 4,56.761111 5.2488,58 6.8,58 H 57.199999 C 58.7512,58 60,56.761111 60,55.222222 Z" style="opacity:.2"/>
 <path d="M 60,54.222222 V 9.777778 C 60,8.238889 58.7512,7 57.199999,7 H 6.8000001 C 5.2488001,7 4,8.238889 4,9.777778 V 54.222222 C 4,55.761111 5.2488001,57 6.8000001,57 H 57.199999 C 58.7512,57 60,55.761111 60,54.222222 Z" style="fill:#4d4d4d"/>
 <g transform="matrix(1.4976174,0,0,1.3809013,-3.9721703,-1388.0093)" style="fill-rule:evenodd;fill:#ffffff">
  <path d="m13.895 1015.3a2.0002 2.0002 0 0 0 -1.3555 3.3633l20 22.021a2.0032224 2.0032224 0 1 0 2.96 -2.7l-20-22.022a2.0002 2.0002 0 0 0 -1.6055 -0.6738z"/>
  <path d="m34.082 1015.3a2.0002 2.0002 0 0 0 -1.543 0.6758l-20 22.022a2.0036 2.0036 0 1 0 2.961 2.7l20-22.021a2.0002 2.0002 0 0 0 -1.418 -3.3653z"/>
 </g>
 <path d="M 6.8007812,6.9996562 C 5.2495813,6.9996562 4,8.238111 4,9.777 v 1 C 4,9.238111 5.2495813,7.9996562 6.8007812,7.9996562 H 57.199219 C 58.75042,7.9996562 60,9.238111 60,10.777 v -1 C 60,8.2381111 58.75042,6.9996562 57.199219,6.9996562 Z" style="fill:#ffffff;opacity:.2"/>
</svg>
