<svg width="64" height="64" version="1.0" xmlns="http://www.w3.org/2000/svg">
 <text x="877.22626" y="26.812601" font-family="'Bitstream Vera Sans'" font-size="12.666px" opacity=".8" xml:space="preserve"><tspan x="877.22626" y="26.812601"/></text>
 <text x="901.18719" y="-13.929108" font-family="'Bitstream Vera Sans'" font-size="12.666px" opacity=".8" xml:space="preserve"><tspan x="901.18719" y="-13.929108"/></text>
 <text x="-569.37115" y="-44.007248" font-family="'Bitstream Vera Sans'" font-size="12.666px" opacity=".8" xml:space="preserve"><tspan x="-569.37115" y="-44.007248"/></text>
 <text x="-2393.0571" y="701.5462" font-family="'Bitstream Vera Sans'" font-size="12.666px" opacity=".8" xml:space="preserve"><tspan x="-2393.0571" y="701.5462"/></text>
 <text x="-454.88007" y="-429.32822" font-family="'Bitstream Vera Sans'" font-size="12.666px" opacity=".8" xml:space="preserve"><tspan x="-454.88007" y="-429.32822"/></text>
 <text x="352.72208" y="-842.79834" font-family="'Bitstream Vera Sans'" font-size="12.666px" opacity=".8" xml:space="preserve"><tspan x="352.72208" y="-842.79834"/></text>
 <text x="376.68301" y="-883.54004" font-family="'Bitstream Vera Sans'" font-size="12.666px" opacity=".8" xml:space="preserve"><tspan x="376.68301" y="-883.54004"/></text>
 <text x="-1114.7802" y="-890.74994" font-family="'Bitstream Vera Sans'" font-size="12.666px" opacity=".8" xml:space="preserve"><tspan x="-1114.7802" y="-890.74994"/></text>
 <text x="345.7626" y="-1163.9841" font-family="'Bitstream Vera Sans'" font-size="12.666px" opacity=".8" xml:space="preserve"><tspan x="345.7626" y="-1163.9841"/></text>
 <text x="1831.8861" y="-537.29272" font-family="'Bitstream Vera Sans'" font-size="12.666px" opacity=".8" xml:space="preserve"><tspan x="1831.8861" y="-537.29272"/></text>
 <text x="1855.8469" y="-578.03448" font-family="'Bitstream Vera Sans'" font-size="12.666px" opacity=".8" xml:space="preserve"><tspan x="1855.8469" y="-578.03448"/></text>
 <text x="364.38376" y="-585.24438" font-family="'Bitstream Vera Sans'" font-size="12.666px" opacity=".8" xml:space="preserve"><tspan x="364.38376" y="-585.24438"/></text>
 <text x="1824.9266" y="-858.47839" font-family="'Bitstream Vera Sans'" font-size="12.666px" opacity=".8" xml:space="preserve"><tspan x="1824.9266" y="-858.47839"/></text>
 <text x="-573.43256" y="-633.33569" font-family="'Bitstream Vera Sans'" font-size="12.666px" opacity=".8" xml:space="preserve"><tspan x="-573.43256" y="-633.33569"/></text>
 <text x="-2397.1182" y="112.21786" font-family="'Bitstream Vera Sans'" font-size="12.666px" opacity=".8" xml:space="preserve"><tspan x="-2397.1182" y="112.21786"/></text>
 <text x="-682.36279" y="205.09" font-family="'Bitstream Vera Sans'" font-size="12.666px" opacity=".8" xml:space="preserve"><tspan x="-682.36279" y="205.09"/></text>
 <text x="426.66153" y="25.907852" font-family="'Bitstream Vera Sans'" font-size="12.666px" opacity=".8" xml:space="preserve"><tspan x="426.66153" y="25.907852"/></text>
 <text x="450.62247" y="-14.833855" font-family="'Bitstream Vera Sans'" font-size="12.666px" opacity=".8" xml:space="preserve"><tspan x="450.62247" y="-14.833855"/></text>
 <text x="-1040.8407" y="-22.043827" font-family="'Bitstream Vera Sans'" font-size="12.666px" opacity=".8" xml:space="preserve"><tspan x="-1040.8407" y="-22.043827"/></text>
 <text x="419.70206" y="-295.27789" font-family="'Bitstream Vera Sans'" font-size="12.666px" opacity=".8" xml:space="preserve"><tspan x="419.70206" y="-295.27789"/></text>
 <text x="-608.03253" y="-24.758072" font-family="'Bitstream Vera Sans'" font-size="12.666px" opacity=".8" xml:space="preserve"><tspan x="-608.03253" y="-24.758072"/></text>
 <text x="-2431.7185" y="720.79541" font-family="'Bitstream Vera Sans'" font-size="12.666px" opacity=".8" xml:space="preserve"><tspan x="-2431.7185" y="720.79541"/></text>
 <text x="-456.93948" y="-886.28857" font-family="'Bitstream Vera Sans'" font-size="12.666px" opacity=".8" xml:space="preserve"><tspan x="-456.93948" y="-886.28857"/></text>
 <text x="350.66266" y="-1299.7588" font-family="'Bitstream Vera Sans'" font-size="12.666px" opacity=".8" xml:space="preserve"><tspan x="350.66266" y="-1299.7588"/></text>
 <text x="374.62357" y="-1340.5005" font-family="'Bitstream Vera Sans'" font-size="12.666px" opacity=".8" xml:space="preserve"><tspan x="374.62357" y="-1340.5005"/></text>
 <text x="-1116.8396" y="-1347.7104" font-family="'Bitstream Vera Sans'" font-size="12.666px" opacity=".8" xml:space="preserve"><tspan x="-1116.8396" y="-1347.7104"/></text>
 <text x="343.70316" y="-1620.9446" font-family="'Bitstream Vera Sans'" font-size="12.666px" opacity=".8" xml:space="preserve"><tspan x="343.70316" y="-1620.9446"/></text>
 <text x="1829.8265" y="-994.2533" font-family="'Bitstream Vera Sans'" font-size="12.666px" opacity=".8" xml:space="preserve"><tspan x="1829.8265" y="-994.2533"/></text>
 <text x="1853.7874" y="-1034.9949" font-family="'Bitstream Vera Sans'" font-size="12.666px" opacity=".8" xml:space="preserve"><tspan x="1853.7874" y="-1034.9949"/></text>
 <text x="362.32431" y="-1042.2048" font-family="'Bitstream Vera Sans'" font-size="12.666px" opacity=".8" xml:space="preserve"><tspan x="362.32431" y="-1042.2048"/></text>
 <text x="1822.8671" y="-1315.439" font-family="'Bitstream Vera Sans'" font-size="12.666px" opacity=".8" xml:space="preserve"><tspan x="1822.8671" y="-1315.439"/></text>
 <text x="-575.492" y="-1090.2961" font-family="'Bitstream Vera Sans'" font-size="12.666px" opacity=".8" xml:space="preserve"><tspan x="-575.492" y="-1090.2961"/></text>
 <text x="-2399.1777" y="-344.74261" font-family="'Bitstream Vera Sans'" font-size="12.666px" opacity=".8" xml:space="preserve"><tspan x="-2399.1777" y="-344.74261"/></text>
 <text x="-684.42224" y="-251.87045" font-family="'Bitstream Vera Sans'" font-size="12.666px" opacity=".8" xml:space="preserve"><tspan x="-684.42224" y="-251.87045"/></text>
 <text x="155.5923" y="-10.956276" font-family="'Bitstream Vera Sans'" font-size="12.666px" opacity=".8" xml:space="preserve"><tspan x="155.5923" y="-10.956276"/></text>
 <text x="179.55324" y="-51.697998" font-family="'Bitstream Vera Sans'" font-size="12.666px" opacity=".8" xml:space="preserve"><tspan x="179.55324" y="-51.697998"/></text>
 <text x="-1090.2634" y="-245.72662" font-family="'Bitstream Vera Sans'" font-size="12.666px" opacity=".8" xml:space="preserve"><tspan x="-1090.2634" y="-245.72662"/></text>
 <text x="-282.66141" y="-659.19678" font-family="'Bitstream Vera Sans'" font-size="12.666px" opacity=".8" xml:space="preserve"><tspan x="-282.66141" y="-659.19678"/></text>
 <text x="-258.70047" y="-699.93848" font-family="'Bitstream Vera Sans'" font-size="12.666px" opacity=".8" xml:space="preserve"><tspan x="-258.70047" y="-699.93848"/></text>
 <text x="-1750.1636" y="-707.14838" font-family="'Bitstream Vera Sans'" font-size="12.666px" opacity=".8" xml:space="preserve"><tspan x="-1750.1636" y="-707.14838"/></text>
 <text x="-289.62085" y="-980.38251" font-family="'Bitstream Vera Sans'" font-size="12.666px" opacity=".8" xml:space="preserve"><tspan x="-289.62085" y="-980.38251"/></text>
 <text x="1196.5026" y="-353.69113" font-family="'Bitstream Vera Sans'" font-size="12.666px" opacity=".8" xml:space="preserve"><tspan x="1196.5026" y="-353.69113"/></text>
 <text x="1220.4634" y="-394.43286" font-family="'Bitstream Vera Sans'" font-size="12.666px" opacity=".8" xml:space="preserve"><tspan x="1220.4634" y="-394.43286"/></text>
 <text x="-270.99973" y="-401.64282" font-family="'Bitstream Vera Sans'" font-size="12.666px" opacity=".8" xml:space="preserve"><tspan x="-270.99973" y="-401.64282"/></text>
 <text x="1189.5431" y="-674.87689" font-family="'Bitstream Vera Sans'" font-size="12.666px" opacity=".8" xml:space="preserve"><tspan x="1189.5431" y="-674.87689"/></text>
 <text x="-1208.816" y="-449.7341" font-family="'Bitstream Vera Sans'" font-size="12.666px" opacity=".8" xml:space="preserve"><tspan x="-1208.816" y="-449.7341"/></text>
 <text x="-3032.5017" y="295.81946" font-family="'Bitstream Vera Sans'" font-size="12.666px" opacity=".8" xml:space="preserve"><tspan x="-3032.5017" y="295.81946"/></text>
 <g transform="matrix(.90475 0 0 .90475 -716.75 -660.29)">
  <text x="-664.2738" y="1159.4154" font-family="'Bitstream Vera Sans'" font-size="14px" opacity=".8" xml:space="preserve"><tspan x="-664.2738" y="1159.4154"/></text>
 </g>
 <text x="877.22626" y="34.050591" font-family="'Bitstream Vera Sans'" font-size="12.666px" opacity=".8" xml:space="preserve"><tspan x="877.22626" y="34.050591"/></text>
 <text x="901.18719" y="-6.6911163" font-family="'Bitstream Vera Sans'" font-size="12.666px" opacity=".8" xml:space="preserve"><tspan x="901.18719" y="-6.6911163"/></text>
 <text x="-569.37115" y="-36.769257" font-family="'Bitstream Vera Sans'" font-size="12.666px" opacity=".8" xml:space="preserve"><tspan x="-569.37115" y="-36.769257"/></text>
 <text x="-2393.0571" y="708.78418" font-family="'Bitstream Vera Sans'" font-size="12.666px" opacity=".8" xml:space="preserve"><tspan x="-2393.0571" y="708.78418"/></text>
 <text x="-454.88007" y="-422.09021" font-family="'Bitstream Vera Sans'" font-size="12.666px" opacity=".8" xml:space="preserve"><tspan x="-454.88007" y="-422.09021"/></text>
 <text x="352.72208" y="-835.5603" font-family="'Bitstream Vera Sans'" font-size="12.666px" opacity=".8" xml:space="preserve"><tspan x="352.72208" y="-835.5603"/></text>
 <text x="376.68301" y="-876.30206" font-family="'Bitstream Vera Sans'" font-size="12.666px" opacity=".8" xml:space="preserve"><tspan x="376.68301" y="-876.30206"/></text>
 <text x="-1114.7802" y="-883.51196" font-family="'Bitstream Vera Sans'" font-size="12.666px" opacity=".8" xml:space="preserve"><tspan x="-1114.7802" y="-883.51196"/></text>
 <text x="345.7626" y="-1156.7461" font-family="'Bitstream Vera Sans'" font-size="12.666px" opacity=".8" xml:space="preserve"><tspan x="345.7626" y="-1156.7461"/></text>
 <text x="1831.8861" y="-530.05475" font-family="'Bitstream Vera Sans'" font-size="12.666px" opacity=".8" xml:space="preserve"><tspan x="1831.8861" y="-530.05475"/></text>
 <text x="1855.8469" y="-570.79651" font-family="'Bitstream Vera Sans'" font-size="12.666px" opacity=".8" xml:space="preserve"><tspan x="1855.8469" y="-570.79651"/></text>
 <text x="364.38376" y="-578.00641" font-family="'Bitstream Vera Sans'" font-size="12.666px" opacity=".8" xml:space="preserve"><tspan x="364.38376" y="-578.00641"/></text>
 <text x="1824.9266" y="-851.24036" font-family="'Bitstream Vera Sans'" font-size="12.666px" opacity=".8" xml:space="preserve"><tspan x="1824.9266" y="-851.24036"/></text>
 <text x="-573.43256" y="-626.09772" font-family="'Bitstream Vera Sans'" font-size="12.666px" opacity=".8" xml:space="preserve"><tspan x="-573.43256" y="-626.09772"/></text>
 <text x="-2397.1182" y="119.45585" font-family="'Bitstream Vera Sans'" font-size="12.666px" opacity=".8" xml:space="preserve"><tspan x="-2397.1182" y="119.45585"/></text>
 <text x="-682.36279" y="212.32799" font-family="'Bitstream Vera Sans'" font-size="12.666px" opacity=".8" xml:space="preserve"><tspan x="-682.36279" y="212.32799"/></text>
 <text x="426.66153" y="33.14584" font-family="'Bitstream Vera Sans'" font-size="12.666px" opacity=".8" xml:space="preserve"><tspan x="426.66153" y="33.14584"/></text>
 <text x="450.62247" y="-7.5958633" font-family="'Bitstream Vera Sans'" font-size="12.666px" opacity=".8" xml:space="preserve"><tspan x="450.62247" y="-7.5958633"/></text>
 <text x="-1040.8407" y="-14.805836" font-family="'Bitstream Vera Sans'" font-size="12.666px" opacity=".8" xml:space="preserve"><tspan x="-1040.8407" y="-14.805836"/></text>
 <text x="419.70206" y="-288.03989" font-family="'Bitstream Vera Sans'" font-size="12.666px" opacity=".8" xml:space="preserve"><tspan x="419.70206" y="-288.03989"/></text>
 <text x="-608.03253" y="-17.520081" font-family="'Bitstream Vera Sans'" font-size="12.666px" opacity=".8" xml:space="preserve"><tspan x="-608.03253" y="-17.520081"/></text>
 <text x="-2431.7185" y="728.03345" font-family="'Bitstream Vera Sans'" font-size="12.666px" opacity=".8" xml:space="preserve"><tspan x="-2431.7185" y="728.03345"/></text>
 <text x="-456.93948" y="-879.0506" font-family="'Bitstream Vera Sans'" font-size="12.666px" opacity=".8" xml:space="preserve"><tspan x="-456.93948" y="-879.0506"/></text>
 <text x="350.66266" y="-1292.5208" font-family="'Bitstream Vera Sans'" font-size="12.666px" opacity=".8" xml:space="preserve"><tspan x="350.66266" y="-1292.5208"/></text>
 <text x="374.62357" y="-1333.2626" font-family="'Bitstream Vera Sans'" font-size="12.666px" opacity=".8" xml:space="preserve"><tspan x="374.62357" y="-1333.2626"/></text>
 <text x="-1116.8396" y="-1340.4724" font-family="'Bitstream Vera Sans'" font-size="12.666px" opacity=".8" xml:space="preserve"><tspan x="-1116.8396" y="-1340.4724"/></text>
 <text x="343.70316" y="-1613.7065" font-family="'Bitstream Vera Sans'" font-size="12.666px" opacity=".8" xml:space="preserve"><tspan x="343.70316" y="-1613.7065"/></text>
 <text x="1829.8265" y="-987.01532" font-family="'Bitstream Vera Sans'" font-size="12.666px" opacity=".8" xml:space="preserve"><tspan x="1829.8265" y="-987.01532"/></text>
 <text x="1853.7874" y="-1027.757" font-family="'Bitstream Vera Sans'" font-size="12.666px" opacity=".8" xml:space="preserve"><tspan x="1853.7874" y="-1027.757"/></text>
 <text x="362.32431" y="-1034.9668" font-family="'Bitstream Vera Sans'" font-size="12.666px" opacity=".8" xml:space="preserve"><tspan x="362.32431" y="-1034.9668"/></text>
 <text x="1822.8671" y="-1308.2009" font-family="'Bitstream Vera Sans'" font-size="12.666px" opacity=".8" xml:space="preserve"><tspan x="1822.8671" y="-1308.2009"/></text>
 <text x="-575.492" y="-1083.0581" font-family="'Bitstream Vera Sans'" font-size="12.666px" opacity=".8" xml:space="preserve"><tspan x="-575.492" y="-1083.0581"/></text>
 <text x="-2399.1777" y="-337.50461" font-family="'Bitstream Vera Sans'" font-size="12.666px" opacity=".8" xml:space="preserve"><tspan x="-2399.1777" y="-337.50461"/></text>
 <text x="-684.42224" y="-244.63245" font-family="'Bitstream Vera Sans'" font-size="12.666px" opacity=".8" xml:space="preserve"><tspan x="-684.42224" y="-244.63245"/></text>
 <text x="155.5923" y="-3.7182922" font-family="'Bitstream Vera Sans'" font-size="12.666px" opacity=".8" xml:space="preserve"><tspan x="155.5923" y="-3.7182922"/></text>
 <text x="179.55324" y="-44.460007" font-family="'Bitstream Vera Sans'" font-size="12.666px" opacity=".8" xml:space="preserve"><tspan x="179.55324" y="-44.460007"/></text>
 <text x="-1090.2634" y="-238.48859" font-family="'Bitstream Vera Sans'" font-size="12.666px" opacity=".8" xml:space="preserve"><tspan x="-1090.2634" y="-238.48859"/></text>
 <text x="-282.66141" y="-651.9588" font-family="'Bitstream Vera Sans'" font-size="12.666px" opacity=".8" xml:space="preserve"><tspan x="-282.66141" y="-651.9588"/></text>
 <text x="-258.70047" y="-692.7005" font-family="'Bitstream Vera Sans'" font-size="12.666px" opacity=".8" xml:space="preserve"><tspan x="-258.70047" y="-692.7005"/></text>
 <text x="-1750.1636" y="-699.91046" font-family="'Bitstream Vera Sans'" font-size="12.666px" opacity=".8" xml:space="preserve"><tspan x="-1750.1636" y="-699.91046"/></text>
 <text x="-289.62085" y="-973.14447" font-family="'Bitstream Vera Sans'" font-size="12.666px" opacity=".8" xml:space="preserve"><tspan x="-289.62085" y="-973.14447"/></text>
 <text x="1196.5026" y="-346.45316" font-family="'Bitstream Vera Sans'" font-size="12.666px" opacity=".8" xml:space="preserve"><tspan x="1196.5026" y="-346.45316"/></text>
 <text x="1220.4634" y="-387.19489" font-family="'Bitstream Vera Sans'" font-size="12.666px" opacity=".8" xml:space="preserve"><tspan x="1220.4634" y="-387.19489"/></text>
 <text x="-270.99973" y="-394.40482" font-family="'Bitstream Vera Sans'" font-size="12.666px" opacity=".8" xml:space="preserve"><tspan x="-270.99973" y="-394.40482"/></text>
 <text x="1189.5431" y="-667.63892" font-family="'Bitstream Vera Sans'" font-size="12.666px" opacity=".8" xml:space="preserve"><tspan x="1189.5431" y="-667.63892"/></text>
 <text x="-1208.816" y="-442.49609" font-family="'Bitstream Vera Sans'" font-size="12.666px" opacity=".8" xml:space="preserve"><tspan x="-1208.816" y="-442.49609"/></text>
 <text x="-3032.5017" y="303.05743" font-family="'Bitstream Vera Sans'" font-size="12.666px" opacity=".8" xml:space="preserve"><tspan x="-3032.5017" y="303.05743"/></text>
 <g transform="matrix(.90475 0 0 .90475 -716.75 -653.05)">
  <text x="-664.2738" y="1159.4154" font-family="'Bitstream Vera Sans'" font-size="14px" opacity=".8" xml:space="preserve"><tspan x="-664.2738" y="1159.4154"/></text>
 </g>
 <text x="435.90427" y="-345.22546" font-family="'Droid Sans'" font-size="12.666px" xml:space="preserve"><tspan x="435.90427" y="-345.22546"/><tspan x="435.90427" y="-329.3924"/></text>
 <text x="901.0882" y="-827.27002" font-family="'Bitstream Vera Sans'" font-size="12.666px" opacity=".8" xml:space="preserve"><tspan x="901.0882" y="-827.27002"/></text>
 <text x="-922.59778" y="-81.716553" font-family="'Bitstream Vera Sans'" font-size="12.666px" opacity=".8" xml:space="preserve"><tspan x="-922.59778" y="-81.716553"/></text>
 <text x="1628.1677" y="-1112.2659" font-family="'Bitstream Vera Sans'" font-size="12.666px" opacity=".8" xml:space="preserve"><tspan x="1628.1677" y="-1112.2659"/></text>
 <text x="1652.1285" y="-1153.0076" font-family="'Bitstream Vera Sans'" font-size="12.666px" opacity=".8" xml:space="preserve"><tspan x="1652.1285" y="-1153.0076"/></text>
 <text x="160.66542" y="-1160.2175" font-family="'Bitstream Vera Sans'" font-size="12.666px" opacity=".8" xml:space="preserve"><tspan x="160.66542" y="-1160.2175"/></text>
 <text x="1621.2083" y="-1433.4517" font-family="'Bitstream Vera Sans'" font-size="12.666px" opacity=".8" xml:space="preserve"><tspan x="1621.2083" y="-1433.4517"/></text>
 <path d="m27.5 7c-2.8655 0-5.5 2.3069-5.5 5.1724v4.828h-11.552c-1.9103 0-3.4483 1.8828-3.4483 3.7931v10.207h5.1724c2.866 0 4.828 2.134 4.828 5 0 2.8655-1.9621 5-4.8276 5h-5.1724v12.552c0 1.9103 1.5379 3.4483 3.4483 3.4483h11.552v-3.4483c0-2.866 2.634-5.552 5.5-5.552 2.8655 0 5.6145 2.6885 5.5 5.5517v3.4483h10.207c1.9103 0 3.8477-1.5387 3.7931-3.4483v-11.552h4.828c2.865 0 5.172-2.634 5.172-5.5s-2.307-5.5-5.172-5.5h-4.828v-10.207c0-1.91-1.884-3.857-3.793-3.793h-10.207v-4.828c0-2.8651-2.634-5.172-5.5-5.172z" fill="#2279bf"/>
</svg>
