<svg width="64" height="64" version="1.0" xmlns="http://www.w3.org/2000/svg">
 <text x="877.22626" y="26.812601" font-size="12.666px" style="font-family:'Bitstream Vera Sans';font-size:12.666px;opacity:.8" xml:space="preserve"><tspan x="877.22626" y="26.812601"/></text>
 <text x="901.18719" y="-13.929106" font-size="12.666px" style="font-family:'Bitstream Vera Sans';font-size:12.666px;opacity:.8" xml:space="preserve"><tspan x="901.18719" y="-13.929106"/></text>
 <text x="-569.37115" y="-44.007248" font-size="12.666px" style="font-family:'Bitstream Vera Sans';font-size:12.666px;opacity:.8" xml:space="preserve"><tspan x="-569.37115" y="-44.007248"/></text>
 <text x="-2393.0571" y="701.5462" font-size="12.666px" style="font-family:'Bitstream Vera Sans';font-size:12.666px;opacity:.8" xml:space="preserve"><tspan x="-2393.0571" y="701.5462"/></text>
 <text x="-454.88007" y="-429.32822" font-size="12.666px" style="font-family:'Bitstream Vera Sans';font-size:12.666px;opacity:.8" xml:space="preserve"><tspan x="-454.88007" y="-429.32822"/></text>
 <text x="352.72208" y="-842.79834" font-size="12.666px" style="font-family:'Bitstream Vera Sans';font-size:12.666px;opacity:.8" xml:space="preserve"><tspan x="352.72208" y="-842.79834"/></text>
 <text x="376.68301" y="-883.54004" font-size="12.666px" style="font-family:'Bitstream Vera Sans';font-size:12.666px;opacity:.8" xml:space="preserve"><tspan x="376.68301" y="-883.54004"/></text>
 <text x="-1114.7802" y="-890.74994" font-size="12.666px" style="font-family:'Bitstream Vera Sans';font-size:12.666px;opacity:.8" xml:space="preserve"><tspan x="-1114.7802" y="-890.74994"/></text>
 <text x="345.7626" y="-1163.9841" font-size="12.666px" style="font-family:'Bitstream Vera Sans';font-size:12.666px;opacity:.8" xml:space="preserve"><tspan x="345.7626" y="-1163.9841"/></text>
 <text x="1831.8861" y="-537.29272" font-size="12.666px" style="font-family:'Bitstream Vera Sans';font-size:12.666px;opacity:.8" xml:space="preserve"><tspan x="1831.8861" y="-537.29272"/></text>
 <text x="1855.8469" y="-578.03448" font-size="12.666px" style="font-family:'Bitstream Vera Sans';font-size:12.666px;opacity:.8" xml:space="preserve"><tspan x="1855.8469" y="-578.03448"/></text>
 <text x="364.38376" y="-585.24438" font-size="12.666px" style="font-family:'Bitstream Vera Sans';font-size:12.666px;opacity:.8" xml:space="preserve"><tspan x="364.38376" y="-585.24438"/></text>
 <text x="1824.9266" y="-858.47839" font-size="12.666px" style="font-family:'Bitstream Vera Sans';font-size:12.666px;opacity:.8" xml:space="preserve"><tspan x="1824.9266" y="-858.47839"/></text>
 <text x="-573.43256" y="-633.33569" font-size="12.666px" style="font-family:'Bitstream Vera Sans';font-size:12.666px;opacity:.8" xml:space="preserve"><tspan x="-573.43256" y="-633.33569"/></text>
 <text x="-2397.1182" y="112.21786" font-size="12.666px" style="font-family:'Bitstream Vera Sans';font-size:12.666px;opacity:.8" xml:space="preserve"><tspan x="-2397.1182" y="112.21786"/></text>
 <text x="-682.36279" y="205.09" font-size="12.666px" style="font-family:'Bitstream Vera Sans';font-size:12.666px;opacity:.8" xml:space="preserve"><tspan x="-682.36279" y="205.09"/></text>
 <text x="426.66153" y="25.907852" font-size="12.666px" style="font-family:'Bitstream Vera Sans';font-size:12.666px;opacity:.8" xml:space="preserve"><tspan x="426.66153" y="25.907852"/></text>
 <text x="450.62247" y="-14.833855" font-size="12.666px" style="font-family:'Bitstream Vera Sans';font-size:12.666px;opacity:.8" xml:space="preserve"><tspan x="450.62247" y="-14.833855"/></text>
 <text x="-1040.8407" y="-22.043827" font-size="12.666px" style="font-family:'Bitstream Vera Sans';font-size:12.666px;opacity:.8" xml:space="preserve"><tspan x="-1040.8407" y="-22.043827"/></text>
 <text x="419.70206" y="-295.27789" font-size="12.666px" style="font-family:'Bitstream Vera Sans';font-size:12.666px;opacity:.8" xml:space="preserve"><tspan x="419.70206" y="-295.27789"/></text>
 <text x="-608.03253" y="-24.758072" font-size="12.666px" style="font-family:'Bitstream Vera Sans';font-size:12.666px;opacity:.8" xml:space="preserve"><tspan x="-608.03253" y="-24.758072"/></text>
 <text x="-2431.7185" y="720.79541" font-size="12.666px" style="font-family:'Bitstream Vera Sans';font-size:12.666px;opacity:.8" xml:space="preserve"><tspan x="-2431.7185" y="720.79541"/></text>
 <text x="-456.93948" y="-886.28857" font-size="12.666px" style="font-family:'Bitstream Vera Sans';font-size:12.666px;opacity:.8" xml:space="preserve"><tspan x="-456.93948" y="-886.28857"/></text>
 <text x="350.66266" y="-1299.7588" font-size="12.666px" style="font-family:'Bitstream Vera Sans';font-size:12.666px;opacity:.8" xml:space="preserve"><tspan x="350.66266" y="-1299.7588"/></text>
 <text x="374.62357" y="-1340.5005" font-size="12.666px" style="font-family:'Bitstream Vera Sans';font-size:12.666px;opacity:.8" xml:space="preserve"><tspan x="374.62357" y="-1340.5005"/></text>
 <text x="-1116.8396" y="-1347.7104" font-size="12.666px" style="font-family:'Bitstream Vera Sans';font-size:12.666px;opacity:.8" xml:space="preserve"><tspan x="-1116.8396" y="-1347.7104"/></text>
 <text x="343.70316" y="-1620.9446" font-size="12.666px" style="font-family:'Bitstream Vera Sans';font-size:12.666px;opacity:.8" xml:space="preserve"><tspan x="343.70316" y="-1620.9446"/></text>
 <text x="1829.8265" y="-994.2533" font-size="12.666px" style="font-family:'Bitstream Vera Sans';font-size:12.666px;opacity:.8" xml:space="preserve"><tspan x="1829.8265" y="-994.2533"/></text>
 <text x="1853.7874" y="-1034.9949" font-size="12.666px" style="font-family:'Bitstream Vera Sans';font-size:12.666px;opacity:.8" xml:space="preserve"><tspan x="1853.7874" y="-1034.9949"/></text>
 <text x="362.32431" y="-1042.2048" font-size="12.666px" style="font-family:'Bitstream Vera Sans';font-size:12.666px;opacity:.8" xml:space="preserve"><tspan x="362.32431" y="-1042.2048"/></text>
 <text x="1822.8671" y="-1315.439" font-size="12.666px" style="font-family:'Bitstream Vera Sans';font-size:12.666px;opacity:.8" xml:space="preserve"><tspan x="1822.8671" y="-1315.439"/></text>
 <text x="-575.492" y="-1090.2961" font-size="12.666px" style="font-family:'Bitstream Vera Sans';font-size:12.666px;opacity:.8" xml:space="preserve"><tspan x="-575.492" y="-1090.2961"/></text>
 <text x="-2399.1777" y="-344.74261" font-size="12.666px" style="font-family:'Bitstream Vera Sans';font-size:12.666px;opacity:.8" xml:space="preserve"><tspan x="-2399.1777" y="-344.74261"/></text>
 <text x="-684.42224" y="-251.87045" font-size="12.666px" style="font-family:'Bitstream Vera Sans';font-size:12.666px;opacity:.8" xml:space="preserve"><tspan x="-684.42224" y="-251.87045"/></text>
 <text x="155.5923" y="-10.956278" font-size="12.666px" style="font-family:'Bitstream Vera Sans';font-size:12.666px;opacity:.8" xml:space="preserve"><tspan x="155.5923" y="-10.956278"/></text>
 <text x="179.55324" y="-51.697998" font-size="12.666px" style="font-family:'Bitstream Vera Sans';font-size:12.666px;opacity:.8" xml:space="preserve"><tspan x="179.55324" y="-51.697998"/></text>
 <text x="-1090.2634" y="-245.72662" font-size="12.666px" style="font-family:'Bitstream Vera Sans';font-size:12.666px;opacity:.8" xml:space="preserve"><tspan x="-1090.2634" y="-245.72662"/></text>
 <text x="-282.66141" y="-659.19678" font-size="12.666px" style="font-family:'Bitstream Vera Sans';font-size:12.666px;opacity:.8" xml:space="preserve"><tspan x="-282.66141" y="-659.19678"/></text>
 <text x="-258.70047" y="-699.93848" font-size="12.666px" style="font-family:'Bitstream Vera Sans';font-size:12.666px;opacity:.8" xml:space="preserve"><tspan x="-258.70047" y="-699.93848"/></text>
 <text x="-1750.1636" y="-707.14838" font-size="12.666px" style="font-family:'Bitstream Vera Sans';font-size:12.666px;opacity:.8" xml:space="preserve"><tspan x="-1750.1636" y="-707.14838"/></text>
 <text x="-289.62085" y="-980.38251" font-size="12.666px" style="font-family:'Bitstream Vera Sans';font-size:12.666px;opacity:.8" xml:space="preserve"><tspan x="-289.62085" y="-980.38251"/></text>
 <text x="1196.5026" y="-353.69113" font-size="12.666px" style="font-family:'Bitstream Vera Sans';font-size:12.666px;opacity:.8" xml:space="preserve"><tspan x="1196.5026" y="-353.69113"/></text>
 <text x="1220.4634" y="-394.43286" font-size="12.666px" style="font-family:'Bitstream Vera Sans';font-size:12.666px;opacity:.8" xml:space="preserve"><tspan x="1220.4634" y="-394.43286"/></text>
 <text x="-270.99973" y="-401.64282" font-size="12.666px" style="font-family:'Bitstream Vera Sans';font-size:12.666px;opacity:.8" xml:space="preserve"><tspan x="-270.99973" y="-401.64282"/></text>
 <text x="1189.5431" y="-674.87689" font-size="12.666px" style="font-family:'Bitstream Vera Sans';font-size:12.666px;opacity:.8" xml:space="preserve"><tspan x="1189.5431" y="-674.87689"/></text>
 <text x="-1208.816" y="-449.7341" font-size="12.666px" style="font-family:'Bitstream Vera Sans';font-size:12.666px;opacity:.8" xml:space="preserve"><tspan x="-1208.816" y="-449.7341"/></text>
 <text x="-3032.5017" y="295.81946" font-size="12.666px" style="font-family:'Bitstream Vera Sans';font-size:12.666px;opacity:.8" xml:space="preserve"><tspan x="-3032.5017" y="295.81946"/></text>
 <g transform="matrix(.90475 0 0 .90475 -716.75 -660.29)">
  <text x="-664.2738" y="1159.4154" font-size="14px" style="font-family:'Bitstream Vera Sans';font-size:14px;opacity:.8" xml:space="preserve"><tspan x="-664.2738" y="1159.4154"/></text>
 </g>
 <text x="877.22626" y="34.050591" font-size="12.666px" style="font-family:'Bitstream Vera Sans';font-size:12.666px;opacity:.8" xml:space="preserve"><tspan x="877.22626" y="34.050591"/></text>
 <text x="901.18719" y="-6.6911163" font-size="12.666px" style="font-family:'Bitstream Vera Sans';font-size:12.666px;opacity:.8" xml:space="preserve"><tspan x="901.18719" y="-6.6911163"/></text>
 <text x="-569.37115" y="-36.76926" font-size="12.666px" style="font-family:'Bitstream Vera Sans';font-size:12.666px;opacity:.8" xml:space="preserve"><tspan x="-569.37115" y="-36.76926"/></text>
 <text x="-2393.0571" y="708.78418" font-size="12.666px" style="font-family:'Bitstream Vera Sans';font-size:12.666px;opacity:.8" xml:space="preserve"><tspan x="-2393.0571" y="708.78418"/></text>
 <text x="-454.88007" y="-422.09021" font-size="12.666px" style="font-family:'Bitstream Vera Sans';font-size:12.666px;opacity:.8" xml:space="preserve"><tspan x="-454.88007" y="-422.09021"/></text>
 <text x="352.72208" y="-835.5603" font-size="12.666px" style="font-family:'Bitstream Vera Sans';font-size:12.666px;opacity:.8" xml:space="preserve"><tspan x="352.72208" y="-835.5603"/></text>
 <text x="376.68301" y="-876.30206" font-size="12.666px" style="font-family:'Bitstream Vera Sans';font-size:12.666px;opacity:.8" xml:space="preserve"><tspan x="376.68301" y="-876.30206"/></text>
 <text x="-1114.7802" y="-883.51196" font-size="12.666px" style="font-family:'Bitstream Vera Sans';font-size:12.666px;opacity:.8" xml:space="preserve"><tspan x="-1114.7802" y="-883.51196"/></text>
 <text x="345.7626" y="-1156.7461" font-size="12.666px" style="font-family:'Bitstream Vera Sans';font-size:12.666px;opacity:.8" xml:space="preserve"><tspan x="345.7626" y="-1156.7461"/></text>
 <text x="1831.8861" y="-530.05475" font-size="12.666px" style="font-family:'Bitstream Vera Sans';font-size:12.666px;opacity:.8" xml:space="preserve"><tspan x="1831.8861" y="-530.05475"/></text>
 <text x="1855.8469" y="-570.79651" font-size="12.666px" style="font-family:'Bitstream Vera Sans';font-size:12.666px;opacity:.8" xml:space="preserve"><tspan x="1855.8469" y="-570.79651"/></text>
 <text x="364.38376" y="-578.00641" font-size="12.666px" style="font-family:'Bitstream Vera Sans';font-size:12.666px;opacity:.8" xml:space="preserve"><tspan x="364.38376" y="-578.00641"/></text>
 <text x="1824.9266" y="-851.24036" font-size="12.666px" style="font-family:'Bitstream Vera Sans';font-size:12.666px;opacity:.8" xml:space="preserve"><tspan x="1824.9266" y="-851.24036"/></text>
 <text x="-573.43256" y="-626.09772" font-size="12.666px" style="font-family:'Bitstream Vera Sans';font-size:12.666px;opacity:.8" xml:space="preserve"><tspan x="-573.43256" y="-626.09772"/></text>
 <text x="-2397.1182" y="119.45585" font-size="12.666px" style="font-family:'Bitstream Vera Sans';font-size:12.666px;opacity:.8" xml:space="preserve"><tspan x="-2397.1182" y="119.45585"/></text>
 <text x="-682.36279" y="212.32799" font-size="12.666px" style="font-family:'Bitstream Vera Sans';font-size:12.666px;opacity:.8" xml:space="preserve"><tspan x="-682.36279" y="212.32799"/></text>
 <text x="426.66153" y="33.14584" font-size="12.666px" style="font-family:'Bitstream Vera Sans';font-size:12.666px;opacity:.8" xml:space="preserve"><tspan x="426.66153" y="33.14584"/></text>
 <text x="450.62247" y="-7.5958652" font-size="12.666px" style="font-family:'Bitstream Vera Sans';font-size:12.666px;opacity:.8" xml:space="preserve"><tspan x="450.62247" y="-7.5958652"/></text>
 <text x="-1040.8407" y="-14.805836" font-size="12.666px" style="font-family:'Bitstream Vera Sans';font-size:12.666px;opacity:.8" xml:space="preserve"><tspan x="-1040.8407" y="-14.805836"/></text>
 <text x="419.70206" y="-288.03989" font-size="12.666px" style="font-family:'Bitstream Vera Sans';font-size:12.666px;opacity:.8" xml:space="preserve"><tspan x="419.70206" y="-288.03989"/></text>
 <text x="-608.03253" y="-17.520081" font-size="12.666px" style="font-family:'Bitstream Vera Sans';font-size:12.666px;opacity:.8" xml:space="preserve"><tspan x="-608.03253" y="-17.520081"/></text>
 <text x="-2431.7185" y="728.03345" font-size="12.666px" style="font-family:'Bitstream Vera Sans';font-size:12.666px;opacity:.8" xml:space="preserve"><tspan x="-2431.7185" y="728.03345"/></text>
 <text x="-456.93948" y="-879.0506" font-size="12.666px" style="font-family:'Bitstream Vera Sans';font-size:12.666px;opacity:.8" xml:space="preserve"><tspan x="-456.93948" y="-879.0506"/></text>
 <text x="350.66266" y="-1292.5208" font-size="12.666px" style="font-family:'Bitstream Vera Sans';font-size:12.666px;opacity:.8" xml:space="preserve"><tspan x="350.66266" y="-1292.5208"/></text>
 <text x="374.62357" y="-1333.2626" font-size="12.666px" style="font-family:'Bitstream Vera Sans';font-size:12.666px;opacity:.8" xml:space="preserve"><tspan x="374.62357" y="-1333.2626"/></text>
 <text x="-1116.8396" y="-1340.4724" font-size="12.666px" style="font-family:'Bitstream Vera Sans';font-size:12.666px;opacity:.8" xml:space="preserve"><tspan x="-1116.8396" y="-1340.4724"/></text>
 <text x="343.70316" y="-1613.7065" font-size="12.666px" style="font-family:'Bitstream Vera Sans';font-size:12.666px;opacity:.8" xml:space="preserve"><tspan x="343.70316" y="-1613.7065"/></text>
 <text x="1829.8265" y="-987.01532" font-size="12.666px" style="font-family:'Bitstream Vera Sans';font-size:12.666px;opacity:.8" xml:space="preserve"><tspan x="1829.8265" y="-987.01532"/></text>
 <text x="1853.7874" y="-1027.757" font-size="12.666px" style="font-family:'Bitstream Vera Sans';font-size:12.666px;opacity:.8" xml:space="preserve"><tspan x="1853.7874" y="-1027.757"/></text>
 <text x="362.32431" y="-1034.9668" font-size="12.666px" style="font-family:'Bitstream Vera Sans';font-size:12.666px;opacity:.8" xml:space="preserve"><tspan x="362.32431" y="-1034.9668"/></text>
 <text x="1822.8671" y="-1308.2009" font-size="12.666px" style="font-family:'Bitstream Vera Sans';font-size:12.666px;opacity:.8" xml:space="preserve"><tspan x="1822.8671" y="-1308.2009"/></text>
 <text x="-575.492" y="-1083.0581" font-size="12.666px" style="font-family:'Bitstream Vera Sans';font-size:12.666px;opacity:.8" xml:space="preserve"><tspan x="-575.492" y="-1083.0581"/></text>
 <text x="-2399.1777" y="-337.50461" font-size="12.666px" style="font-family:'Bitstream Vera Sans';font-size:12.666px;opacity:.8" xml:space="preserve"><tspan x="-2399.1777" y="-337.50461"/></text>
 <text x="-684.42224" y="-244.63245" font-size="12.666px" style="font-family:'Bitstream Vera Sans';font-size:12.666px;opacity:.8" xml:space="preserve"><tspan x="-684.42224" y="-244.63245"/></text>
 <text x="155.5923" y="-3.7182903" font-size="12.666px" style="font-family:'Bitstream Vera Sans';font-size:12.666px;opacity:.8" xml:space="preserve"><tspan x="155.5923" y="-3.7182903"/></text>
 <text x="179.55324" y="-44.460011" font-size="12.666px" style="font-family:'Bitstream Vera Sans';font-size:12.666px;opacity:.8" xml:space="preserve"><tspan x="179.55324" y="-44.460011"/></text>
 <text x="-1090.2634" y="-238.4886" font-size="12.666px" style="font-family:'Bitstream Vera Sans';font-size:12.666px;opacity:.8" xml:space="preserve"><tspan x="-1090.2634" y="-238.4886"/></text>
 <text x="-282.66141" y="-651.9588" font-size="12.666px" style="font-family:'Bitstream Vera Sans';font-size:12.666px;opacity:.8" xml:space="preserve"><tspan x="-282.66141" y="-651.9588"/></text>
 <text x="-258.70047" y="-692.7005" font-size="12.666px" style="font-family:'Bitstream Vera Sans';font-size:12.666px;opacity:.8" xml:space="preserve"><tspan x="-258.70047" y="-692.7005"/></text>
 <text x="-1750.1636" y="-699.91046" font-size="12.666px" style="font-family:'Bitstream Vera Sans';font-size:12.666px;opacity:.8" xml:space="preserve"><tspan x="-1750.1636" y="-699.91046"/></text>
 <text x="-289.62085" y="-973.14447" font-size="12.666px" style="font-family:'Bitstream Vera Sans';font-size:12.666px;opacity:.8" xml:space="preserve"><tspan x="-289.62085" y="-973.14447"/></text>
 <text x="1196.5026" y="-346.45316" font-size="12.666px" style="font-family:'Bitstream Vera Sans';font-size:12.666px;opacity:.8" xml:space="preserve"><tspan x="1196.5026" y="-346.45316"/></text>
 <text x="1220.4634" y="-387.19489" font-size="12.666px" style="font-family:'Bitstream Vera Sans';font-size:12.666px;opacity:.8" xml:space="preserve"><tspan x="1220.4634" y="-387.19489"/></text>
 <text x="-270.99973" y="-394.40482" font-size="12.666px" style="font-family:'Bitstream Vera Sans';font-size:12.666px;opacity:.8" xml:space="preserve"><tspan x="-270.99973" y="-394.40482"/></text>
 <text x="1189.5431" y="-667.63892" font-size="12.666px" style="font-family:'Bitstream Vera Sans';font-size:12.666px;opacity:.8" xml:space="preserve"><tspan x="1189.5431" y="-667.63892"/></text>
 <text x="-1208.816" y="-442.49609" font-size="12.666px" style="font-family:'Bitstream Vera Sans';font-size:12.666px;opacity:.8" xml:space="preserve"><tspan x="-1208.816" y="-442.49609"/></text>
 <text x="-3032.5017" y="303.05743" font-size="12.666px" style="font-family:'Bitstream Vera Sans';font-size:12.666px;opacity:.8" xml:space="preserve"><tspan x="-3032.5017" y="303.05743"/></text>
 <g transform="matrix(.90475 0 0 .90475 -716.75 -653.05)">
  <text x="-664.2738" y="1159.4154" font-size="14px" style="font-family:'Bitstream Vera Sans';font-size:14px;opacity:.8" xml:space="preserve"><tspan x="-664.2738" y="1159.4154"/></text>
 </g>
 <text x="435.90427" y="-345.22546" font-size="12.666px" style="font-family:'Droid Sans';font-size:12.666px" xml:space="preserve"><tspan x="435.90427" y="-345.22546"/><tspan x="435.90427" y="-329.3924"/></text>
 <text x="901.0882" y="-827.27002" font-size="12.666px" style="font-family:'Bitstream Vera Sans';font-size:12.666px;opacity:.8" xml:space="preserve"><tspan x="901.0882" y="-827.27002"/></text>
 <text x="-922.59778" y="-81.716553" font-size="12.666px" style="font-family:'Bitstream Vera Sans';font-size:12.666px;opacity:.8" xml:space="preserve"><tspan x="-922.59778" y="-81.716553"/></text>
 <text x="1628.1677" y="-1112.2659" font-size="12.666px" style="font-family:'Bitstream Vera Sans';font-size:12.666px;opacity:.8" xml:space="preserve"><tspan x="1628.1677" y="-1112.2659"/></text>
 <text x="1652.1285" y="-1153.0076" font-size="12.666px" style="font-family:'Bitstream Vera Sans';font-size:12.666px;opacity:.8" xml:space="preserve"><tspan x="1652.1285" y="-1153.0076"/></text>
 <text x="160.66542" y="-1160.2175" font-size="12.666px" style="font-family:'Bitstream Vera Sans';font-size:12.666px;opacity:.8" xml:space="preserve"><tspan x="160.66542" y="-1160.2175"/></text>
 <text x="1621.2083" y="-1433.4517" font-size="12.666px" style="font-family:'Bitstream Vera Sans';font-size:12.666px;opacity:.8" xml:space="preserve"><tspan x="1621.2083" y="-1433.4517"/></text>
 <rect transform="matrix(0,-1,-1,0,0,0)" x="-59.609753" y="-60" width="55.609753" height="56" rx="2.7804878" ry="2.8" style="fill:#f58411"/>
 <path d="m4 8.1707315v-1.3902437c0-1.5403902 1.2488-2.7804878 2.8-2.7804878h50.4c1.5512 0 2.8 1.2400976 2.8 2.7804878v1.3902437c0-1.54039-1.2488-2.7804876-2.8-2.7804876h-50.4c-1.5512 0-2.8 1.2400976-2.8 2.7804876z" style="fill:#ffffff;opacity:.2"/>
 <path d="m32.0364 15.121951c3.829 0.0083 7.71162 1.193372 10.74444 3.539006 2.13206 2.439043-1.93046 5.051173-3.76012 2.672882-5.50802-3.309615-13.27606-2.144312-17.4202 2.803704-2.20486 2.45545-3.44708 5.732115-3.43252 9.021433h3.64l-5.824 8.675121-5.824-8.675121h3.64c-0.1162-7.853488 5.572-15.324659 13.209-17.358586 1.638-0.446268 3.3264-0.696512 5.0274-0.678439zm15.9796 9.398049 5.824 8.675122h-3.64c0.10318 7.947885-5.7302 15.502609-13.50062 17.429488-5.24328 1.454056-11.17214 0.393021-15.4812-2.933553-2.1987-2.479779 1.92024-5.066745 3.76698-2.666627 5.33666 3.215216 12.80986 2.195473 17.0226-2.396781 2.4388-2.495488 3.8416-5.954415 3.8234-9.432806h-3.64l5.824-8.675121z" style="opacity:.2"/>
 <path d="m32.0364 13.731707c3.829 0.0083 7.71162 1.193372 10.74444 3.539005 2.13206 2.439045-1.93046 5.051173-3.76012 2.672883-5.50802-3.309614-13.27606-2.144312-17.4202 2.803705-2.20486 2.455449-3.44708 5.732115-3.43252 9.021431h3.64l-5.824 8.675123-5.824-8.675123h3.64c-0.1162-7.853488 5.572-15.324658 13.209-17.358585 1.638-0.446268 3.3264-0.696512 5.0274-0.678439zm15.9796 9.39805 5.824 8.675121h-3.64c0.10318 7.947885-5.7302 15.50261-13.50062 17.429488-5.24328 1.454056-11.17214 0.393022-15.4812-2.933554-2.1987-2.479778 1.92024-5.066743 3.76698-2.666627 5.33666 3.215218 12.80986 2.195473 17.0226-2.39678 2.4388-2.495488 3.8416-5.954415 3.8234-9.432805h-3.64l5.824-8.675122z" style="fill:#ffffff"/>
 <path d="m4 56.829269v1.390243c0 1.540391 1.2488 2.780488 2.8 2.780488h50.4c1.5512 0 2.8-1.240097 2.8-2.780488v-1.390243c0 1.540389-1.2488 2.780488-2.8 2.780488h-50.4c-1.5512 0-2.8-1.240099-2.8-2.780488z" style="opacity:.2"/>
 <rect transform="matrix(0,-1,-1,0,0,0)" x="-64" y="-64" width="32" height="32" rx="16" ry="16" style="opacity:.2"/>
 <rect transform="matrix(0,-1,-1,0,0,0)" x="-62.545456" y="-64" width="32" height="32" rx="16" ry="16" style="fill:#02a8f3"/>
 <path d="m48.030392 35.345451c-4.724239 0-8.762399 2.93896-10.392 7.073201-0.08673 0.210288-0.162912 0.42568-0.236822 0.642175-0.01454 0.04482-0.03123 0.08835-0.04517 0.133396-0.354401 1.082401-0.556801 2.232001-0.556801 3.431201 0 6.1336 5.008801 11.12 11.169601 11.12 4.679679 0 8.689599-2.88064 10.350399-6.95224 4.32e-4 -1e-3 0.0012-2e-3 0.0016-3e-3 0.119316-0.2804 0.219999-0.569351 0.316279-0.86088 0.360377-1.0912 0.562457-2.25384 0.562457-3.46368 0-6.132239-5.010081-11.119998-11.1696-11.119998zm-0.80392 1.73576v3.74288c-1.066479-0.03746-2.086319-0.14996-3.0288-0.327288 0.141557-0.33028 0.289969-0.648376 0.451833-0.9384 0.746144-1.337121 1.647201-2.1712 2.577041-2.4772zm1.59544 0.06205c0.08385 0.01382 0.169113 0.02352 0.2524 0.03878 0.840161 0.366057 1.647601 1.1604 2.326161 2.37632 0.158864 0.284688 0.304712 0.596368 0.444041 0.91984-0.93824 0.181977-1.957201 0.300089-3.022561 0.3428v-3.67776zm-4.999759 0.766264c-0.200119 0.278168-0.393096 0.566073-0.567127 0.877919-0.231665 0.415152-0.438841 0.864881-0.62945 1.334-0.467007-0.136363-0.899039-0.290736-1.30256-0.457584 0.728186-0.71176 1.572081-1.302639 2.499121-1.75432zm8.578399 0.23888c0.435681 0.173976 0.769696 0.336271 1.10464 0.499465 0.425281 0.295415 0.82584 0.623199 1.19656 0.981839-0.398615 0.168727-0.82736 0.325232-1.29008 0.463792-0.187591-0.45856-0.390007-0.89928-0.616982-1.30608-0.123942-0.222105-0.25745-0.432687-0.394186-0.639072zm3.343521 2.6804c1.017919 1.379599 1.6712 3.0388 1.81976 4.847279h-3.00392c-0.05865-1.4524-0.277495-2.826159-0.631009-4.07488 0.637105-0.194423 1.23544-0.417511 1.7824-0.671639 0.01483-0.03464 0.02319-0.06759 0.03271-0.100824zm-15.505601 0.105483c0.572649 0.26528 1.20368 0.49504 1.874321 0.694912-0.348903 1.24136-0.565008 2.60528-0.623217 4.04696h-2.992959c0.144843-1.7624 0.768201-3.38336 1.74192-4.741839zm12.141601 1.05944c0.317448 1.11232 0.523071 2.35752 0.582704 3.6824h-4.141281v-3.26672c1.25352-0.04577 2.4512-0.186729 3.55856-0.415704zm-8.7176 0.02326c1.11 0.222977 2.30952 0.35604 3.56328 0.395536v3.2636h-4.13968c0.05922-1.31584 0.26272-2.552639 0.576479-3.659119zm-5.166481 5.24752h2.992961c0.05981 1.481281 0.285305 2.88216 0.651264 4.15088-0.655512 0.194088-1.270721 0.418576-1.83384 0.674744-1.010881-1.3748-1.6608-3.026081-1.810481-4.825601zm4.590001 0h4.13968v3.37528c-1.24312 0.03904-2.43312 0.169712-3.535201 0.389336-0.330624-1.132881-0.54344-2.40744-0.604518-3.76464zm5.73512 0h4.141279c-0.06148 1.36624-0.276358 2.649361-0.610751 3.78792-1.09952-0.225576-2.287521-0.364201-3.530561-0.409503v-3.3784zm5.738239 0h3.00392c-0.151392 1.82064-0.81496 3.48944-1.84624 4.87368-0.0029-0.0049-3e-3 -0.01062-0.0063-0.01553-0.554832-0.257776-1.16304-0.483104-1.81048-0.679399 0.370656-1.275921 0.598816-2.6868 0.659056-4.1788zm-7.333679 4.96368v3.62968c-0.92936-0.306464-1.831041-1.13736-2.577041-2.474079-0.145308-0.260384-0.279152-0.543025-0.408208-0.836081 0.930481-0.172767 1.935121-0.282568 2.985201-0.319536zm1.59544 3e-3c1.049919 0.04171 2.05352 0.155936 2.980559 0.333495-0.126981 0.287032-0.259375 0.563456-0.401975 0.81904-0.746239 1.33728-1.64832 2.16792-2.578559 2.47408v-3.62656zm-6.15424 0.687152c0.179881 0.432503 0.372168 0.85056 0.587384 1.23624 0.169207 0.303223 0.354648 0.586272 0.548432 0.85776-0.880639-0.431513-1.683679-0.990481-2.38536-1.65816 0.390711-0.157216 0.80192-0.306592 1.24952-0.435872zm10.703999 0.02791c0.442857 0.131243 0.8504 0.281543 1.23552 0.440527-0.697015 0.65656-1.492159 1.20656-2.363519 1.63176 0.19456-0.274249 0.381208-0.558736 0.551544-0.864 0.210615-0.377432 0.399665-0.785993 0.576472-1.20832z" style="fill-rule:evenodd;fill:#ffffff" connector-curvature="0"/>
</svg>
