<svg width="64" height="64" version="1" xmlns="http://www.w3.org/2000/svg">
 <rect x="4" y="9" width="56" height="48" rx="4" ry="4" style="opacity:.2"/>
 <rect x="4" y="8" width="56" height="48" rx="4" ry="4" style="fill:#816130"/>
 <path d="m24 21c-3.3138 0-6 2.6864-6 6s2.6862 6 6 6 6-2.6864 6-6-2.6862-6-6-6zm20 0c-2.20914 0-4 1.791-4 4 0 2.21 1.79 4 4 4s4-1.79 4-4-1.79-4-4-4zm0 10c-8.0004 0.0052-8 6.400391-8 6.400391v1.599609h16v-1.597656s0-6.406344-8-6.402344zm-20 5c-12.0004 0.0068-12 8.333984-12 8.333984v1.666016h24v-1.666016s0-8.339984-12-8.333984z" style="opacity:.2"/>
 <path d="m24 20c-3.3138 0-6 2.6864-6 6s2.6862 6 6 6 6-2.6864 6-6-2.6862-6-6-6zm20 0c-2.20914 0-4 1.791-4 4 0 2.21 1.79 4 4 4s4-1.79 4-4-1.79-4-4-4zm0 10c-8.0004 0.0052-8 6.400391-8 6.400391v1.599609h16v-1.597656s0-6.406344-8-6.402344zm-20 5c-12.0004 0.0068-12 8.333984-12 8.333984v1.666016h24v-1.666016s0-8.339984-12-8.333984z" style="fill:#ffffff"/>
 <path d="m8 8c-2.216 0-4 1.784-4 4v1c0-2.216 1.784-4 4-4h48c2.216 0 4 1.784 4 4v-1c0-2.216-1.784-4-4-4h-48z" style="fill:#ffffff;opacity:.2"/>
</svg>
