<svg width="64" height="64" version="1.1" viewBox="0 0 64 64" xmlns="http://www.w3.org/2000/svg">
 <rect transform="matrix(0,-1,-1,0,0,0)" x="-60" y="-60" width="18" height="56" rx="2.5" ry="2.5" style="opacity:.2"/>
 <rect transform="matrix(0,-1,-1,0,0,0)" x="-59" y="-60" width="18" height="56" rx="2.5" ry="2.5" style="fill:#8e8e8e"/>
 <path d="m24 47-4 6" style="fill:none;opacity:.5;stroke-linecap:round;stroke-width:3;stroke:#000000"/>
 <path d="m18 47-4 6" style="fill:none;opacity:.5;stroke-linecap:round;stroke-width:3;stroke:#000000"/>
 <path d="m12 47-4 6" style="fill:none;opacity:.5;stroke-linecap:round;stroke-width:3;stroke:#000000"/>
 <path d="m30 47-4 6" style="fill:none;opacity:.5;stroke-linecap:round;stroke-width:3;stroke:#000000"/>
 <circle cx="40.5" cy="47.5" r="2.5" style="opacity:.2"/>
 <circle cx="47.5" cy="47.5" r="2.5" style="opacity:.2"/>
 <circle cx="54.5" cy="47.5" r="2.5" style="opacity:.2"/>
 <circle cx="40.5" cy="46.5" r="2.5" style="fill:#76ff03"/>
 <circle cx="47.5" cy="46.5" r="2.5" style="fill:#ffff00"/>
 <circle cx="54.5" cy="46.5" r="2.5" style="fill:#ffcd40"/>
 <rect transform="matrix(0,-1,-1,0,0,0)" x="-42" y="-60" width="18" height="56" rx="2.5" ry="2.5" style="opacity:.2"/>
 <rect transform="matrix(0,-1,-1,0,0,0)" x="-41" y="-60" width="18" height="56" rx="2.5" ry="2.5" style="fill:#8e8e8e"/>
 <path d="m24 29-4 6" style="fill:none;opacity:.5;stroke-linecap:round;stroke-width:3;stroke:#000000"/>
 <path d="m18 29-4 6" style="fill:none;opacity:.5;stroke-linecap:round;stroke-width:3;stroke:#000000"/>
 <path d="m12 29-4 6" style="fill:none;opacity:.5;stroke-linecap:round;stroke-width:3;stroke:#000000"/>
 <path d="m30 29-4 6" style="fill:none;opacity:.5;stroke-linecap:round;stroke-width:3;stroke:#000000"/>
 <circle cx="40.5" cy="29.5" r="2.5" style="opacity:.2"/>
 <circle cx="47.5" cy="29.5" r="2.5" style="opacity:.2"/>
 <circle cx="54.5" cy="29.5" r="2.5" style="opacity:.2"/>
 <circle cx="40.5" cy="28.5" r="2.5" style="fill:#76ff03"/>
 <circle cx="47.5" cy="28.5" r="2.5" style="fill:#ffff00"/>
 <circle cx="54.5" cy="28.5" r="2.5" style="fill:#ffcd40"/>
 <rect transform="matrix(0,-1,-1,0,0,0)" x="-24" y="-60" width="18" height="56" rx="2.5" ry="2.5" style="opacity:.2"/>
 <rect transform="matrix(0,-1,-1,0,0,0)" x="-23" y="-60" width="18" height="56" rx="2.5" ry="2.5" style="fill:#8e8e8e"/>
 <path d="m24 11-4 6" style="fill:none;opacity:.5;stroke-linecap:round;stroke-width:3;stroke:#000000"/>
 <path d="m18 11-4 6" style="fill:none;opacity:.5;stroke-linecap:round;stroke-width:3;stroke:#000000"/>
 <path d="m12 11-4 6" style="fill:none;opacity:.5;stroke-linecap:round;stroke-width:3;stroke:#000000"/>
 <path d="m30 11-4 6" style="fill:none;opacity:.5;stroke-linecap:round;stroke-width:3;stroke:#000000"/>
 <circle cx="39.5" cy="11.5" r="2.5" style="opacity:.2"/>
 <circle cx="47.5" cy="11.5" r="2.5" style="opacity:.2"/>
 <circle cx="54.5" cy="11.5" r="2.5" style="opacity:.2"/>
 <circle cx="39.5" cy="10.5" r="2.5" style="fill:#76ff03"/>
 <circle cx="47.5" cy="10.5" r="2.5" style="fill:#ffff00"/>
 <circle cx="54.5" cy="10.5" r="2.5" style="fill:#ffcd40"/>
 <path d="m6.5 5c-1.385 0-2.5 1.115-2.5 2.5v1c0-1.385 1.115-2.5 2.5-2.5h51c1.385 0 2.5 1.115 2.5 2.5v-1c0-1.385-1.115-2.5-2.5-2.5z" style="fill:#ffffff;opacity:.2"/>
 <rect transform="matrix(0,-1,-1,0,0,0)" x="-64" y="-64" width="32" height="32" rx="16" ry="16" style="opacity:.2"/>
 <rect transform="matrix(0,-1,-1,0,0,0)" x="-63" y="-64" width="32" height="32" rx="16" ry="16" style="fill:#02a8f3"/>
 <path d="m47.998979 36.142674c-6.311884 0-11.428657 5.116773-11.428657 11.428657s5.116773 11.428657 11.428657 11.428657 11.428658-5.116773 11.428658-11.428657-5.116774-11.428657-11.428658-11.428657zm-1.069205 2.279035c0.124351-0.01302 0.280786 0.0074 0.406254 0 0.01487 0.05947-0.08809 0.272863-0.229913 0.582593-0.903111 1.972915-0.956465 4.282921-0.118305 5.517898 0.151676 0.22391 0.290182 0.436598 0.290182 0.46429 0 0.0277-0.163268 0.05803-0.348218 0.05803-0.434175 1e-6 -0.845795-0.26382-1.68528-0.928578-0.372931-0.295305-0.85682-0.542818-1.044651-0.580361-0.294952-0.05893-0.372899-0.03339-0.75447 0.348218-0.355014 0.354955-0.464289 0.547821-0.464289 0.872773 0 1.232264 1.463813 2.209325 4.183067 2.785735 3.692855 0.782678 4.601297 1.484529 4.703161 3.426365 0.12789 2.435009-1.167243 4.270593-4.006727 5.692007-0.338912 0.169707-0.554238 0.237578-0.696434 0.292413-0.06302-0.0056-0.113521 0.0056-0.176341 0-0.02416-0.07528-0.05804-0.249424-0.05804-0.580361 0-1.293307-0.508653-2.626118-1.276794-3.370561-0.206193-0.199857-0.782396-0.62253-1.276796-0.928579-0.494382-0.30603-0.993764-0.660829-1.10492-0.812505-0.184162-0.251698-0.197334-0.405566-0.05581-0.870543 0.257921-0.849222 0.563903-1.325043 1.160723-1.861621 0.312889-0.281306 0.627119-0.514494 0.696433-0.520094 0.06934-0.0056-0.398951-0.14845-1.102687-0.292412-0.7037-0.144241-1.735649-0.445772-2.267874-0.638398-0.973224-0.352146-2.287024-1.092211-2.787966-1.627243-0.02118-0.02269-0.03964-0.03796-0.05804-0.05804 0.717733-2.859 2.731679-5.201191 5.401826-6.330404 0.558696-0.236308 1.135346-0.397972 1.743317-0.522326 0.302833-0.0619 0.615893-0.08651 0.928579-0.118305zm8.714351 4.357175c0.218316 0.134948 1.043723 1.920287 1.279028 2.790199 0.303794 1.123062 0.281805 3.065192 0 4.180835-0.107255 0.424621-0.246689 0.821103-0.292416 0.870543-0.04572 0.04944-0.213419-0.232452-0.408483-0.57813-0.195076-0.345624-0.814761-1.080854-1.332596-1.627244-1.494728-1.577237-1.731035-2.39974-1.104922-3.65851 0.315754-0.634757 1.690428-2.081968 1.859389-1.977693z" style="opacity:.2"/>
 <path d="m47.998979 35.571257c-6.311884 0-11.428657 5.116773-11.428657 11.428657s5.116773 11.428657 11.428657 11.428657 11.428658-5.116773 11.428658-11.428657-5.116774-11.428657-11.428658-11.428657zm-1.069205 2.279035c0.124351-0.01302 0.280786 0.0074 0.406254 0 0.01487 0.05948-0.08809 0.272864-0.229913 0.582593-0.903111 1.972915-0.956465 4.282921-0.118305 5.517898 0.151676 0.22391 0.290182 0.436598 0.290182 0.46429 0 0.0277-0.163268 0.05804-0.348218 0.05804-0.434175 1e-6 -0.845795-0.26382-1.68528-0.928579-0.372931-0.295305-0.85682-0.542818-1.044651-0.580361-0.294952-0.05893-0.372899-0.03339-0.75447 0.348218-0.355014 0.354955-0.464289 0.547821-0.464289 0.872773 0 1.232264 1.463813 2.209325 4.183067 2.785735 3.692855 0.782678 4.601297 1.484529 4.703161 3.426365 0.12789 2.435009-1.167243 4.270594-4.006727 5.692007-0.338912 0.169707-0.554238 0.237579-0.696434 0.292413-0.06302-0.0056-0.113521 0.0056-0.176341 0-0.02416-0.07528-0.05804-0.249424-0.05804-0.580361 0-1.293307-0.508653-2.626118-1.276794-3.370561-0.206193-0.199856-0.782396-0.622529-1.276796-0.928578-0.494382-0.306031-0.993764-0.66083-1.10492-0.812506-0.184162-0.251698-0.197334-0.405566-0.05581-0.870542 0.257921-0.849223 0.563903-1.325044 1.160723-1.861621 0.312889-0.281306 0.627119-0.514494 0.696433-0.520095 0.06934-0.0056-0.398951-0.14845-1.102687-0.292412-0.7037-0.144241-1.735649-0.445771-2.267874-0.638398-0.973224-0.352145-2.287024-1.09221-2.787966-1.627243-0.02118-0.02269-0.03964-0.03795-0.05804-0.05803 0.717733-2.859 2.731679-5.201192 5.401826-6.330405 0.558696-0.236308 1.135346-0.397972 1.743317-0.522326 0.302833-0.0619 0.615893-0.08651 0.928579-0.118305zm8.714351 4.357176c0.218316 0.134947 1.043723 1.920286 1.279028 2.790199 0.303794 1.123061 0.281805 3.065191 0 4.180834-0.107255 0.424621-0.246689 0.821103-0.292416 0.870544-0.04572 0.04944-0.213419-0.232453-0.408483-0.578131-0.195076-0.345624-0.814761-1.080854-1.332596-1.627244-1.494728-1.577237-1.731035-2.399739-1.104922-3.65851 0.315754-0.634757 1.690428-2.081967 1.859389-1.977692z" style="fill:#ffffff"/>
</svg>
