<svg width="64" height="64" version="1.1" viewBox="0 0 64 64" xmlns="http://www.w3.org/2000/svg">
 <path d="m32 5c-15.512 0-28 12.488-28 28s12.488 28 28 28 28-12.488 28-28-12.488-28-28-28zm0 16a12 12 0 0 1 12 12 12 12 0 0 1 -12 12 12 12 0 0 1 -12 -12 12 12 0 0 1 12 -12z" style="opacity:.2"/>
 <path d="m32 17a15 15 0 0 0 -15 15 15 15 0 0 0 15 15 15 15 0 0 0 15 -15 15 15 0 0 0 -15 -15zm0 9c3.3138 0 6 2.6862 6 6s-2.6862 6-6 6-6-2.6862-6-6 2.6862-6 6-6z" style="fill:#858585"/>
 <path d="m32 4c-15.512 0-28 12.488-28 28s12.488 28 28 28 28-12.488 28-28-12.488-28-28-28zm0 16a12 12 0 0 1 12 12 12 12 0 0 1 -12 12 12 12 0 0 1 -12 -12 12 12 0 0 1 12 -12z" style="fill:#cccccc"/>
 <path d="M 20.025391,32.5 A 12,12 0 0 0 20,33 12,12 0 0 0 32,45 12,12 0 0 0 44,33 12,12 0 0 0 43.978516,32.595703 12,12 0 0 1 32,44 12,12 0 0 1 20.025391,32.5 Z M 32,4 C 16.488,4 4,16.488 4,32 c 0,0.11345 0.01128,0.224113 0.017578,0.335938 C 4.3691213,17.134181 16.710728,5 32,5 47.289272,5 59.630879,17.134181 59.982422,32.335938 59.98872,32.224113 60,32.11345 60,32 60,16.488 47.512,4 32,4 Z" style="fill:#ffffff;opacity:.2"/>
 <path d="M 32.025391,46.5 A 16,16.001894 0 0 0 32,46.998106 16,16.001894 0 0 0 48,63 16,16.001894 0 0 0 64,46.998106 16,16.001894 0 0 0 63.982422,46.50586 16,16.001894 0 0 1 48,61.999882 16,16.001894 0 0 1 32.025391,46.5 Z" style="opacity:.2"/>
 <path d="m48 30c-8.836 0-16 7.1632-16 16 0 8.836799 7.164 16 16 16 8.836003 0 16.000003-7.163201 16.000003-16 0-8.8368-7.164-16-16.000003-16z" style="fill:#73ba25"/>
 <path d="m48.0752 32.2156c-5.2864 0-8.3072 2.16432-10.2784 4.6028 1.5104 0.4144 2.5664 0.76 2.9064 0.872 0.0039-0.228 0.0408-2.2856 0.0408-2.2856l0.0296-0.0656 0.076-0.0232c0.4656 0.0672 10.376 1.5328 14.5504 3.9656 0.5168 0.304 0.770403 0.6208 1.090403 0.948 1.1536 1.1928 2.6864 6.1584 2.8488 7.1848l-0.0656 0.1056c-0.06 0.0224-0.2056 0.124-0.3952 0.2536-0.9744 0.6808-3.251203 2.275199-6.170403 2.0152-2.6256-0.2336-6.0512-1.74-10.1832-4.4608 0.1824 0.4288 1.0408 2.4688 1.1848 2.8112l0.0592 0.0704c0.5984 0.3088 6.3392 3.235999 9.1872 3.175999 2.2984-0.0456 4.752803-1.1672 5.734403-1.755999l0.3128-0.0592c0.0872 0.0688 0.0736 0.2016 0.0464 0.324799-0.06 0.2816-0.1952 0.7976-0.2888 1.0376l-0.0768 0.2c-0.1112 0.2968-0.2208 0.5832-0.4296 0.7544-0.5792 0.5272-1.5056 0.944-2.952803 1.5784-2.2376 0.9776-5.864 1.5928-9.2344 1.5736-1.2064-0.0272-2.3744-0.16-3.4-0.2768-2.1392-0.244-3.8776-0.44-4.916 0.3656 2.5256 2.854401 6.2144 4.656001 10.3256 4.656001 7.6128 0 13.790403-6.171201 13.790403-13.784 0-7.612-6.177603-13.784-13.790403-13.784zm3.6432 7.2956c-1.0544 0.0152-2.048 0.4104-2.8232 1.1376-0.8304 0.7688-1.308 1.8208-1.348 2.9528-0.076 2.3336 1.7608 4.3032 4.0952 4.3904 1.1368 0.0368 2.2128-0.368 3.0408-1.1432 0.8248-0.772 1.301603-1.8168 1.343203-2.9472 0.08-2.3368-1.756803-4.3064-4.095203-4.3904-0.0704-0.0025-0.1424-0.0016-0.2128 0zm-0.112 1.2496c0.0968-0.0055 0.1904-0.0032 0.2888 0 1.6304 0.0576 2.9128 1.424 2.8576 3.0576-0.024 0.7864-0.3592 1.524-0.936 2.0648-0.5776 0.536-1.3296 0.8128-2.1216 0.7888-1.6296-0.0608-2.9072-1.4328-2.8528-3.064 0.0248-0.7896 0.364-1.52 0.9376-2.0576 0.5032-0.472 1.1456-0.748 1.8264-0.7896zm0.7776 1.48c-0.7264 0-1.3136 0.3936-1.3136 0.8776 0 0.4816 0.5872 0.8784 1.3136 0.8784 0.7248 0 1.308-0.396 1.308-0.8784 0-0.484-0.5832-0.8776-1.308-0.8776z" style="fill:#ffffff"/>
</svg>
