<svg width="64" height="64" version="1" xmlns="http://www.w3.org/2000/svg">
 <path d="m24 8v2h16v-2h-16zm-20 43v2c0 1.662 1.338 3 3 3h50c1.662 0 3-1.338 3-3v-2c0 1.662-1.338 3-3 3h-50c-1.662 0-3-1.338-3-3z" style="opacity:.2"/>
 <path d="m24 5-4 4v6h-16v37c0 1.662 1.338 3 3 3h50c1.662 0 3-1.338 3-3v-37h-16v-6l-4-4zm0 4h16v6h-16z" style="fill:#cccccc"/>
 <path d="M 63.958,45.894 A 15,15 0 0 1 49,60 15,15 0 0 1 34.042,46.106 15,15 0 0 0 34,47 15,15 0 0 0 49,62 15,15 0 0 0 64,47 15,15 0 0 0 63.958,45.894 Z" style="fill-rule:evenodd;opacity:.2"/>
 <circle cx="49" cy="46" r="15" style="fill-rule:evenodd;fill:#4ab3e4"/>
 <path d="m52 37v8h3l-6 8-6-8h3v-8zm-10 16.0004h14v2h-14z" style="fill:#ffffff"/>
</svg>
