<svg width="64" height="64" version="1.1" viewBox="0 0 64 64" xmlns="http://www.w3.org/2000/svg">
 <path d="m32 5a28 28 0 0 0 -28 28 28 28 0 0 0 28 28 28 28 0 0 0 28 -28 28 28 0 0 0 -28 -28z" style="opacity:.2"/>
 <path d="m32 4a28 28 0 0 0 -28 28 28 28 0 0 0 28 28 28 28 0 0 0 28 -28 28 28 0 0 0 -28 -28z" style="fill:#9aca3c"/>
 <path d="m21.999804 20.000071 10.4 13.00004" style="fill:none;opacity:.2;stroke-linecap:round;stroke-linejoin:round;stroke-width:6;stroke:#000000"/>
 <path d="m23.999804 46.000071 20-26" style="fill:none;opacity:.2;stroke-linecap:round;stroke-linejoin:round;stroke-width:6;stroke:#000000"/>
 <g transform="translate(-1.0001958)">
  <path d="m25 45 20-26" style="fill:none;stroke-linecap:round;stroke-linejoin:round;stroke-width:6;stroke:#ffffff"/>
  <path d="m23 19 10.4 13.00004" style="fill:none;stroke-linecap:round;stroke-linejoin:round;stroke-width:6;stroke:#ffffff"/>
 </g>
 <path d="m32 4a28 28 0 0 0 -28 28 28 28 0 0 0 0.0214844 0.40625 28 28 0 0 1 27.978516 -27.40625 28 28 0 0 1 27.978516 27.578125 28 28 0 0 0 0.021484 -0.578125 28 28 0 0 0 -28 -28z" style="fill:#ffffff;opacity:.2"/>
 <circle cx="48" cy="48" r="16" style="opacity:.2"/>
 <circle cx="48" cy="47" r="16" style="fill:#d939a1"/>
 <path d="m45.92878 39.00012-0.1764 2.1072a6.2858 6.2858 0 0 0 -1.83704 1.06252l-1.91518-0.9018-2 3.4642 1.73882 1.2076a6.2858 6.2858 0 0 0 -0.096 1.06026 6.2858 6.2858 0 0 0 0.0914 1.06474l-1.73438 1.20312 2 3.4642 1.91072-0.89956a6.2858 6.2858 0 0 0 1.8415 1.0558l0.1764 2.1116h4l0.1764-2.1072a6.2858 6.2858 0 0 0 1.83708 -1.06252l1.91516 0.9018 2-3.4642-1.73884-1.2076a6.2858 6.2858 0 0 0 0.096 -1.06026 6.2858 6.2858 0 0 0 -0.0914 -1.06474l1.73438-1.20312-2-3.4642-1.91072 0.89956a6.2858 6.2858 0 0 0 -1.842 -1.056l-0.176-2.112h-4zm2 5.7144a2.2858 2.2858 0 0 1 2.286 2.286 2.2858 2.2858 0 0 1 -2.286 2.286 2.2858 2.2858 0 0 1 -2.286 -2.286 2.2858 2.2858 0 0 1 2.286 -2.286z" style="fill:#ffffff"/>
</svg>
