<svg width="64" height="64" version="1.1" viewBox="0 0 64 64" xmlns="http://www.w3.org/2000/svg">
 <g transform="translate(0,-988.3622)">
  <rect transform="matrix(0,-1,-1,0,0,0)" x="-1049.36" y="-60" width="56" height="56" rx="28" ry="28" style="opacity:.2"/>
  <rect transform="matrix(0,-1,-1,0,0,0)" x="-1048.36" y="-60" width="56" height="56" rx="28" ry="28" style="fill:#484bb6"/>
  <path d="m32.144922 993.7622-3.24297 0.36914-4.003125 1.09922-0.757421 0.73555 2.485546 1.71445v0.97891l-1.626954 0.9789 1.955079 2.57303 0.864063-0.4894 1.082812-1.7145c1.671418-0.51659 3.169157-1.10291 4.757813-1.83749l1.140233-3.30586zm-7.678125 0.24609-1.397266 0.19961-0.661719 0.65625-1.085547 0.1586-0.967968 0.4539-0.470314 0.22696-0.287109 0.38554 1.405469 0.24336 0.541406-0.48945 1.082813-0.24336c0.74119-0.36037 1.485818-0.60431 2.272265-0.85859zm-6.384766 2.93672-0.216016 0.48946 0.106638 1.225-0.864063 0.73554-0.541407 1.34529h1.082813l0.541407-1.22224c0.466588-0.32987 0.930247-0.66412 1.405468-0.98164l1.082812 0.36914c0.720958 0.48967 1.441337 0.97943 2.162891 1.46834l1.082813-0.97889-1.192188-0.48945-0.541405-1.10195-2.05625-0.2461-0.106638-0.6125-0.973438 0.2461-0.432032 0.85586zm27.710155 0.97891-2.05078 0.49219-1.304298 0.85586v0.73553l-2.050781 1.3453 0.429297 1.9606 1.194923-0.8586 0.754686 0.8586 0.864064 0.4894 0.541405-1.4683-0.322655-0.8586 0.322655-0.6125 1.189454-1.5012h0.541406l-0.541406 1.6242v1.102c0.497111-0.1353 1.008852-0.1802 1.517577-0.2434l-1.408202 0.9789-0.106638 0.6125-1.621484 1.3453-1.626954-0.3664v-0.9789l-0.757421 0.4895 0.328125 1.1357h-1.192189l-0.648046 0.8221-0.814844 0.916-1.457421 0.309 0.864061 0.8531 0.21875 0.8559h-1.082811l-1.372661 0.7355v2.2067h0.615238l0.593359 0.6726 1.353516-0.6726 0.538673-1.3481 0.976171-0.6125 0.216015-0.4894 1.621485-0.3637 0.866797 0.9762 0.973437 0.4894-0.541405 1.102 0.866796-0.2461 0.432031-1.0965-1.082812-1.225h0.434766l1.082812 0.8531 0.216016 1.225 0.970702 1.102 0.216016-1.5942 0.544141-0.2433c0.534915 0.5551 0.954939 1.3871 1.405468 2.0119l1.621485 0.123 0.976172 0.4354-0.434766 0.6125-0.973437 0.8906h-1.405469l-1.840235-0.6445-0.973436 0.1203-0.7 0.7984-2.004298-2.0207-1.408202-0.3664-2.05625 0.2434-1.840235 0.4894c-1.032025 1.1697-2.911015 2.3345-3.887808 3.5492l-1.189453 2.8192 0.541407 0.6098-0.973438 1.4683 1.082813 2.5731c0.919951 1.0403 2.69849 2.0788 3.617104 3.1199l1.35625-1.1621 0.59336 0.6754 1.457421-0.9188 0.489454 0.6461h2.462455l0.836719 0.8523-0.516798 1.6844 1.03086 1.1621-0.05468 2.0207 0.757422 1.4711-0.809379 1.2223c-0.05389 0.9008-0.0547 1.7952-0.0547 2.6961 0.443374 1.2205 1.181778 2.4375 1.600443 3.6668l0.414182 1.9605v0.9817h0.178293l0.591892-0.7356h1.025391c0.382435-0.2663 0.750283-0.5521 1.118359-0.8367l1.369922-1.5504-0.26797-0.7957 1.408204-1.2277-1.030859-1.1594 1.246875-1.0391 1.050007-0.7382 0.541407-0.6071-0.325391-1.3535v-3.4234l1.112882-2.0836 1.189454-1.3453 1.298828-3.1828v-0.8586c-0.639755 0.081-1.263658 0.1459-1.889453 0.1914l1.29336-1.2934 1.785546-1.225 0.976172-1.0992v-1.225c-0.216551-0.4083-0.43275-0.8167-0.650782-1.225l-0.866796 0.9789-0.648047-0.7328-0.973437-0.7356v-1.5914l1.1375 1.2852 1.24414-0.1832c0.566763 0.5144 1.124375 1.0058 1.621485 1.5914l0.123046-0.1395c-0.598407-6.497-3.408972-12.3237-7.66171-16.759-0.234885-0.2406-0.482766-0.4996-0.675391-0.689-0.32332-0.31474-0.66251-0.61171-1.000781-0.91056l-0.30625 0.50313-1.082812 1.22503-1.405468-1.7473h1.405468l0.650782-0.45664-2.597657-0.48945zm-30.583984 0.041c-0.158377 0.11872-0.320048 0.23349-0.47578 0.35547l0.21328 0.95157s-0.989474 0.10862-1.561328 0.1832c-5.7457778 5.11594-9.3772329 12.55024-9.3843747 20.88244 0.2253523 0.371 0.4484375 0.7246 0.4484375 0.7246l2.2722657 1.3453 2.275 0.6152 0.9707031 1.225 1.5148434 1.0993 0.866797-0.1204 0.648047 0.2926v0.1969l-0.864062 2.3242-0.650782 0.9817 0.216016 0.4894-0.697266 1.8348 2.102734 3.5519 1.389435 1.7118 0.864063 1.2222-0.106638 2.5731 1.208222 1.4683-0.358204 1.5531c1.248478 0.8604 2.579647 1.6045 3.964844 2.2559l0.50586-0.5031 0.322655-0.8559 1.408204-0.4922 1.298824-2.6933-0.541403-0.7328 0.754689-1.5226 1.423468-0.3692 0.962496-1.5371-0.311715-2.4446 1.977092-1.8375 0.21875-1.8375c-1.776196-0.8805-4.019243-1.7868-5.7822-2.6933l-0.866798-1.7145-1.621484-0.1667-0.864063-2.0237-2.162891 0.2434-1.840234-2.1397-1.94961 2.0059v0.2707c-0.589393-0.1701-1.312719-0.1915-1.837502-0.5141l-0.434766-1.225v-1.348l-1.2988277 0.123c0.1083516-0.8573 0.2190318-1.7131 0.328125-2.5703h-0.7574218l-0.7574219 0.9789-0.757422 0.3664-1.0828125-0.6098-0.109375-1.348 0.2160157-1.4684 1.6242188-1.225h1.2960937l0.2160157-0.7355 1.624219 0.3664 1.04919 1.4711 0.21875-2.45 2.196512-1.7117 0.757423-2.3502 1.512109-0.053 0.866797-0.7069 1.946875-0.3719 0.973437-1.4656h-2.920312l1.840234-1.4292h1.296094l1.840234-0.6016 0.216016-0.7328-0.65078-0.6125-0.757423-0.2461 0.21875-0.7328-0.541406-1.1019-1.298828 0.4867 0.216016-0.9789-1.514845-0.8559-1.186718 2.0809 0.106638 0.7355-1.192187 0.4895-0.757423 1.5914-0.322656-1.4684-2.05625-0.8586-0.325391-1.1019 2.704297-1.5914 1.192187-1.10199 0.106638-1.34531-0.648046-0.36914zm21.15978 0.87357-1.567076 0.48945-0.708682-0.12305h-0.0028l-0.109382 0.73555 1.039542 0.48946 1.996373-0.8586-0.648047-0.73281zm-15.581655 0.92292-0.864062 0.61249 1.080078 0.7356h0.866797v-0.8586zm17.092579 2.81639v0.7356l0.434766 0.4894v1.102l-0.21875 1.4683 1.192186-0.2433 0.864064-0.8586-0.757423-0.7328c-0.254355-0.6772-0.545713-1.3111-0.864063-1.9606zm-0.429298 1.4684-0.760156 0.2461 0.21875 1.3453 0.970704-0.4867zm-14.929686 2.2066 0.322655 1.709 0.648047-0.9762zm28.248827 9.5457 1.246875 1.4082 1.460157 3.12 0.864062 0.9816-0.434766 1.0992 0.823047 0.9324c-0.377899 0.026-0.7544 0.052-1.142968 0.052-0.688953-1.4473-1.206204-2.8965-1.730859-4.4106l-1.200939-1.039-0.486719-1.7774z" style="opacity:.3"/>
  <path d="m32 992.3622c-15.512 0-28 12.488-28 28 0 0.1135 0.01128 0.2241 0.017578 0.3359 0.3515433-15.2017 12.69315-27.3359 27.982422-27.3359s27.630879 12.1342 27.982422 27.3359c0.0063-0.1118 0.01758-0.2224 0.01758-0.3359 0-15.512-12.488-28-28-28z" style="fill:#ffffff;opacity:.1"/>
  <path d="m55.429714 997.07693c-1.677885 0.65592-3.677395 1.62207-5.640049 2.63424-1.962654 1.01233-3.886002 2.07153-5.387953 2.91473-1.501951 0.843-2.631087 1.4922-2.837326 1.5987-0.665894 0.3435-4.000348 2.2699-7.772988 4.7225-3.772639 2.4521-7.883438 5.3535-9.950411 7.6835-1.961875 2.2116-3.151962 3.5728-3.934688 5.0571-0.782728 1.4843-1.11001 3.0351-1.379119 5.4922l-0.02718 0.246 0.150764 0.1991c1.354605 1.7928 3.633012 4.7853 5.845188 6.5696l0.165591 0.1317 0.212552 0.014c5.080715 0.1585 6.418456-0.4882 11.467939-3.6548 2.657302-1.6665 6.181812-5.2247 9.201535-8.5176 3.019724-3.2929 5.440469-6.2361 5.884731-6.8327 0.149447-0.2006 0.933523-1.1794 1.967346-2.5012 1.033821-1.3222 2.340347-3.0193 3.615859-4.7619 1.275514-1.7428 2.518823-3.5283 3.435437-5.0521 0.458309-0.7619 0.836268-1.4565 1.097364-2.0635s0.44117-1.10274 0.368258-1.64805c-0.121207-0.9063-0.579591-1.4417-0.847735-1.71666l0.0075-0.0135s-0.0436-0.0312-0.04449-0.0325c-0.319467-0.38475-0.673053-0.6312-1.043755-0.81347-1.615925-0.78022-3.125104-0.16068-4.554333 0.34485z" style="fill-rule:evenodd;opacity:.2"/>
  <path d="m13.533147 1025.3673c-1.919736-0.069-3.481754 0.5795-4.6128943 1.6277-1.1311409 1.0481-1.8417674 2.4663-2.2209273 3.9443-0.6227668 2.427-0.6634728 5.916-1.1402661 8.4958-0.2368222 1.2809-1.3135288 3.2749-3.3300946 5.8583-0.5150616 0.8657-1.892e-4 0.9777-1.892e-4 0.9777 0.2891 0.2061 0.813516 0.016 1.0773617-0.1149 2.9723088-1.5082 4.7823151-2.7994 6.0935452-2.8597 2.6047106-0.119 6.0423236 0.3149 8.5157126 0.028 1.606737-0.186 3.199273-0.7548 4.418531-1.8703 1.219257-1.1157 2.023124-2.1653 2.049887-4.3459 0.0023-0.1811 0.06689-0.4828 0.08292-0.8476 0.01606-0.365-0.0638-0.9066-0.487203-1.2547-0.459015-0.3775-0.992046-1.3246-1.516035-2.4024-0.523988-1.0779-1.065419-2.2783-1.827019-3.2189l-0.443147-0.5478-0.295432 0.2711c-0.644605-0.5602-1.315283-1.0747-1.899579-1.4736-0.743162-0.5069-1.332808-0.9644-1.661163-1.5076-0.770806-0.8039-1.814144-0.6886-2.804017-0.7604z" style="fill-rule:evenodd;opacity:.2"/>
  <path d="m13.533147 1024.3672c-1.919736-0.069-3.481754 0.5795-4.6128943 1.6277-1.1311409 1.0481-1.8417674 2.4663-2.2209273 3.9443-0.6227668 2.427-0.6634728 5.916-1.1402661 8.4958-0.2368222 1.2809-1.3135288 3.2749-3.3300946 5.8583-0.5150616 0.8657-1.892e-4 0.9777-1.892e-4 0.9777 0.2891 0.2061 0.813516 0.016 1.0773617-0.1149 2.9723088-1.5082 4.7823151-2.7994 6.0935452-2.8597 2.6047106-0.119 6.0423236 0.3149 8.5157126 0.028 1.606737-0.186 3.199273-0.7548 4.418531-1.8703 1.219257-1.1157 2.023124-2.1653 2.049887-4.3459 0.0023-0.1811 0.06689-0.4828 0.08292-0.8476 0.01606-0.365-0.0638-0.9066-0.487203-1.2547-0.459015-0.3775-0.992046-1.3246-1.516035-2.4024-0.523988-1.0779-1.065419-2.2783-1.827019-3.2189l-0.443147-0.5478-0.295432 0.2711c-0.644605-0.5602-1.315283-1.0747-1.899579-1.4736-0.743162-0.5069-1.332808-0.9644-1.661163-1.5076-0.770806-0.8039-1.814144-0.6886-2.804017-0.7604z" style="fill-rule:evenodd;fill:#9c7e40"/>
  <path d="m13.533203 1024.3661c-1.919736-0.069-3.482141 0.5788-4.6132811 1.627-1.1311409 1.0481-1.8415433 2.4653-2.2207031 3.9433-0.6227668 2.427-0.6638317 5.9163-1.140625 8.4961-0.2368222 1.2809-1.3135124 3.276-3.3300782 5.8594-0.5150616 0.8657 0 0.9766 0 0.9766h0.013672c2.0063237-2.5736 3.0802074-4.5624 3.3164063-5.8399 0.4767933-2.5798 0.5178582-6.0691 1.140625-8.4961 0.3791598-1.478 1.0895622-2.8952 2.2207031-3.9433 1.13114-1.0482 2.693545-1.696 4.613281-1.627 0.989873 0.072 2.033882-0.044 2.804688 0.7598 0.328355 0.5432 0.916994 1.0009 1.660156 1.5078 0.584296 0.3989 1.255786 0.9144 1.900391 1.4746l0.294921-0.2715 0.44336 0.5488c0.7616 0.9406 1.302184 2.1409 1.826172 3.2188 0.523989 1.0778 1.058563 2.0248 1.517578 2.4023 0.256554 0.211 0.378124 0.4911 0.4375 0.7617 0.02062-0.1608 0.03923-0.2892 0.04883-0.5078 0.01606-0.365-0.06292-0.9058-0.486328-1.2539-0.459015-0.3775-0.993589-1.3245-1.517578-2.4023-0.523988-1.0779-1.064572-2.2801-1.826172-3.2207l-0.44336-0.5469-0.294921 0.2715c-0.644605-0.5602-1.316095-1.0757-1.900391-1.4746-0.743162-0.5069-1.331801-0.9646-1.660156-1.5078-0.770806-0.8039-1.814815-0.688-2.804688-0.7598z" style="fill-rule:evenodd;fill:#ffffff;opacity:.1"/>
  <path d="m55.429714 996.0768c-1.677885 0.65592-3.677395 1.62207-5.640049 2.63424-1.962654 1.0123-3.886002 2.07156-5.387953 2.91476-1.501951 0.843-2.631087 1.4922-2.837326 1.5987-0.665894 0.3435-4.000348 2.2699-7.772988 4.7225-3.772639 2.4521-7.883438 5.3535-9.950411 7.6835-1.961875 2.2116-3.151962 3.5728-3.934688 5.0571-0.782728 1.4843-1.11001 3.0351-1.379119 5.4922l-0.02718 0.246 0.150764 0.1991c1.354605 1.7928 3.633012 4.7853 5.845188 6.5696l0.165591 0.1317 0.212552 0.014c5.080715 0.1585 6.418456-0.4882 11.467939-3.6548 2.657302-1.6665 6.181812-5.2247 9.201535-8.5176 3.019724-3.2929 5.440469-6.2361 5.884731-6.8327 0.149447-0.2006 0.933523-1.1794 1.967346-2.5012 1.033821-1.3222 2.340347-3.0193 3.615859-4.7619 1.275514-1.7428 2.518823-3.5283 3.435437-5.0521 0.458309-0.7619 0.836268-1.4565 1.097364-2.06358 0.261096-0.60692 0.44117-1.10269 0.368258-1.648-0.121207-0.9063-0.579591-1.4417-0.847735-1.71666l0.0075-0.0135s-0.0436-0.0312-0.04449-0.0325c-0.319467-0.38475-0.673053-0.6312-1.043755-0.81347-1.615925-0.78022-3.125104-0.16068-4.554333 0.34485z" style="fill-rule:evenodd;fill:#449b29"/>
  <path d="m58.208984 995.36611c-0.962271 0.0354-1.886028 0.39498-2.779296 0.71093-1.677886 0.65592-3.677971 1.6226-5.640626 2.63477-1.962654 1.0123-3.884767 2.07089-5.386718 2.91409-1.501951 0.843-2.631652 1.4911-2.837891 1.5976-0.665894 0.3435-4.000797 2.2701-7.773437 4.7227-3.772639 2.4521-7.882246 5.3536-9.949219 7.6836-1.961875 2.2116-3.152821 3.5743-3.935547 5.0586-0.782728 1.4843-1.109797 3.0351-1.378906 5.4922l-0.02734 0.2461 0.107422 0.1406c0.257249-2.0904 0.587224-3.5295 1.298828-4.8789 0.782726-1.4843 1.973672-2.847 3.935547-5.0586 2.066973-2.33 6.17658-5.2315 9.949219-7.6836 3.77264-2.4526 7.107543-4.3772 7.773437-4.7207 0.206239-0.1065 1.33594-0.7566 2.837891-1.5996 1.501951-0.8432 3.424064-1.9018 5.386718-2.91409 1.962655-1.01217 3.96274-1.97885 5.640626-2.63477 1.429228-0.50553 2.938762-1.12397 4.554687-0.34375 0.370702 0.18227 0.723502 0.42775 1.042969 0.8125 8.9e-4 1e-3 0.04492 0.0332 0.04492 0.0332l-0.0078 0.0137c0.243273 0.24945 0.630373 0.7276 0.792969 1.48828 0.06342-0.25833 0.0899-0.51009 0.05469-0.77344-0.121207-0.9063-0.579512-1.44183-0.847656-1.71679l0.0078-0.0117s-0.04403-0.0319-0.04492-0.0332c-0.31947-0.38475-0.67227-0.63218-1.042972-0.81445-0.605972-0.29258-1.198028-0.38651-1.775391-0.36523z" style="fill-rule:evenodd;fill:#ffffff;opacity:.1"/>
  <rect transform="matrix(.59329154 .80498767 -.80498767 .59329154 0 0)" x="833.76" y="591.83" width="16.087" height="5.362" rx="2.681" ry="2.681" style="opacity:.2"/>
  <rect transform="matrix(.59329154 .80498767 -.80498767 .59329154 0 0)" x="832.96" y="591.24" width="16.087" height="5.362" rx="2.681" ry="2.681" style="fill:#ffc612"/>
  <path d="m17.572266 1022.3642c-0.515527 0.022-1.030141 0.1929-1.478516 0.5234-0.858709 0.6329-1.221754 1.6731-1.037109 2.6523 0.122816-0.638 0.470408-1.2346 1.037109-1.6523 1.195667-0.8812 2.866817-0.6273 3.748047 0.5684l6.363281 8.6328c0.247949 0.3364 0.396138 0.7101 0.46875 1.0937 0.135566-0.7075-0.0057-1.4654-0.46875-2.0937l-6.363281-8.6328c-0.550769-0.7473-1.410321-1.1277-2.269531-1.0918z" style="fill:#ffffff;opacity:.2"/>
 </g>
</svg>
