<svg width="64" height="64" version="1.1" viewBox="0 0 64 64" xmlns="http://www.w3.org/2000/svg">
 <circle cx="32" cy="33" r="28" style="opacity:.2"/>
 <circle cx="32" cy="32" r="28" style="fill:#138de7"/>
 <path d="m15 23v4.285714 11.428572c0 2.374286 1.8955 4.285714 4.25 4.285714h15.583334 4.166666v-4.285714-11.428572c0-2.374286-1.812166-4.285714-4.166666-4.285714h-15.583334zm34 0-8 5v10l8 5v-10z" style="opacity:.2"/>
 <path d="m15 22v4.285714 11.428572c0 2.374286 1.8955 4.285714 4.25 4.285714h15.583334 4.166666v-4.285714-11.428572c0-2.374286-1.812166-4.285714-4.166666-4.285714h-15.583334zm34 0-8 5v10l8 5v-10z" style="fill:#ffffff"/>
 <path d="M 32 4 A 28 28 0 0 0 4 32 A 28 28 0 0 0 4.0175781 32.492188 A 28 28 0 0 1 32 5 A 28 28 0 0 1 59.974609 32.492188 A 28 28 0 0 0 60 32 A 28 28 0 0 0 32 4 z" style="fill:#ffffff;opacity:.2"/>
</svg>
