<svg width="32" height="32" version="1.1" viewBox="0 0 32 32" xmlns="http://www.w3.org/2000/svg">
 <path d="m16 2a14 14 0 0 0 -14 14 14 14 0 0 0 14 14 14 14 0 0 0 14 -14 14 14 0 0 0 -14 -14z" fill="#886c38"/>
 <path d="m16 2a14 14 0 0 0 -14 14 14 14 0 0 0 0.0215 0.414 14 14 0 0 1 13.978 -13.414 14 14 0 0 1 13.979 13.586 14 14 0 0 0 0.021 -0.586 14 14 0 0 0 -14 -14z" fill="#fff" opacity=".2"/>
 <path d="m2.0215 16.414a14 14 0 0 0 -0.0215 0.586 14 14 0 0 0 14 14 14 14 0 0 0 14 -14 14 14 0 0 0 -0.021 -0.414 14 14 0 0 1 -13.979 13.414 14 14 0 0 1 -13.978 -13.586z" opacity=".2"/>
 <path d="m17 6.0506v9.9492h9.9453a11 11 0 0 0 -9.945 -9.9494zm-2 0.00391a11 11 0 0 0 -9.9492 9.9455h9.9492v-9.9453zm-9.9453 11.946a11 11 0 0 0 9.9453 9.949v-9.9492h-9.9453zm11.945 0v9.9453a11 11 0 0 0 9.9492 -9.9453h-9.9492z" opacity=".2"/>
 <path d="m17 5.0508v9.9492h9.945a11 11 0 0 0 -9.945 -9.9492zm-2 0.0039a11 11 0 0 0 -9.9492 9.9453h9.9492v-9.9453zm-9.9453 11.945a11 11 0 0 0 9.9453 9.949v-9.949h-9.9453zm11.945 0v9.945a11 11 0 0 0 9.949 -9.945h-9.949z" fill="#ffffff"/>
</svg>
