<svg width="32" height="32" version="1.1" viewBox="0 0 32 32" xmlns="http://www.w3.org/2000/svg">
 <circle cx="16" cy="17" r="14" style="opacity:.2"/>
 <path d="m16 2c-0.709726 0.00362-1.418148 0.061212-2.119141 0.1722657-1.311315 1.2114363-10.695616 10.529552-11.686718 11.606054-0.0125223 0.078738-0.0243712 0.157582-0.0355467 0.236523 0.281871-0.230363 0.7086638-0.595734 1.196289-1.037694 0.2403905-0.217878 0.5368654-0.47532 0.6589844-0.572852 0.1221183-0.097533 0.3477771-0.292625 0.5003906-0.433398 0.4238558-0.390973 1.4262227-1.279257 1.7199216-1.524415 0.1440831-0.12027 0.7039515-0.6126692 1.2441408-1.0937498 0.5401893-0.4810799 1.2384883-1.0962602 1.5517579-1.3671875 0.3132696-0.2709266 0.962969-0.8618015 1.4437497-1.3125 0.927319-0.8692965 3.791587-3.4094815 4.109765-3.6449217 0.103943-0.076914 0.200579-0.1289249 0.214649-0.1148437 0.0311 0.031118-0.149371 0.3338804-0.786133 1.3166015-0.267188 0.4123547-1.3104 2.0294569-2.31875 3.5929685-1.008351 1.5635116-2.2597482 3.5032147-2.780859 4.3107417-0.5211101 0.807529-1.6727963 2.593064-2.559375 3.967579-0.8865786 1.374515-2.043404 3.166146-2.5703123 3.982617-0.3235834 0.501409-0.5673529 0.897225-0.7410157 1.19082 2.0106343 4.928221 6.6416788 8.290021 11.950346 8.674805 0.399811 0.0046-0.224453-0.02695 0.399811 0.0046 1.749573-6.569898 3.208388-17.903334 7.059061-25.953315 0.162175-0.3390332-0.433242-0.4138531-0.356096-0.5842926-1.898758-0.9259266-3.982437-1.4101556-6.094919-1.4164062z" style="fill:#c63166"/>
 <path d="m15.133203 2.0505859a14 14 0 0 0 -0.898242 0.075195 14 14 0 0 1 0.898242 -0.075195z" style="fill:#d8d342"/>
 <path d="m13.873047 3.1796875a14 14 0 0 0 -11.673828 11.59375c0.9992662-1.084363 10.349516-10.369106 11.673828-11.59375zm0.925781 0.734375c-0.01407-0.014081-0.110901 0.0363679-0.214844 0.1132813-0.318178 0.23544-3.182056 2.777188-4.109375 3.6464843-0.4807799 0.4506985-1.1320425 1.0415734-1.4453121 1.3125-0.3132696 0.2709273-1.010592 0.8861072-1.5507813 1.3671879-0.5401893 0.48108-1.1000575 0.97348-1.2441406 1.09375-0.2936987 0.245158-1.2968473 1.132464-1.7207031 1.523437-0.1526135 0.140772-0.3778817 0.336061-0.5 0.433594-0.122119 0.09753-0.4178127 0.354387-0.6582031 0.572265-0.4876253 0.44196-0.9153946 0.808702-1.1972657 1.039063a14 14 0 0 0 -0.1386719 1.365234 14 14 0 0 0 1.0253907 4.888672c-8.744e-4 0.001478-0.0030354 0.004387-0.0039063 0.00586 0.0106254 0.026043 0.0243848 0.050217 0.0351563 0.076171a14 14 0 0 0 0.1699219 0.378907c0.0184886 0.041071 0.039781 0.080254 0.0585937 0.121093 0.1447939-0.236062 0.2700001-0.444472 0.4785156-0.767578 0.5269083-0.816471 1.6837339-2.607906 2.5703125-3.982422 0.8865787-1.374515 2.0374837-3.161221 2.5585938-3.96875 0.5211108-0.807526 1.7728986-2.747035 2.7812496-4.3105464 1.00835-1.5635116 2.051172-3.1794421 2.31836-3.5917968 0.636762-0.9827213 0.81821-1.2852885 0.787109-1.3164063z" style="opacity:.2"/>
 <path d="m13.872657 2.1804688a14 14 0 0 0 -11.674415 11.592382c0.9992664-1.084362 10.350103-10.367738 11.674415-11.592382z" style="fill:#b8da6c"/>
 <path d="m2.1982422 13.772851c-5.772e-4 6.27e-4 -0.00353 0.0048-0.0041 0.0055a14 14 0 0 0 -0.031445 0.205079 14 14 0 0 1 0.035547 -0.210548z" style="fill:#d8d342"/>
 <path d="m20.541797 2.7833984v0.00274a14 14 0 0 1 0.352735 0.1162079 14 14 0 0 0 -0.352735 -0.1189453z" style="fill:#d8d342"/>
 <path d="m20.894532 2.9023438a14 14 0 0 1 1.06914 0.4580078 14 14 0 0 0 -1.06914 -0.4580078z" style="fill:#d8d342"/>
 <path d="m21.963672 3.3603516a14 14 0 0 1 0.129883 0.057422l0.0014-0.00136a14 14 0 0 0 -0.13125 -0.056055z" style="fill:#d8d342"/>
 <path d="m14.798242 2.9132812c-0.01407-0.0140811-0.110706 0.0379302-0.214649 0.1148438-0.318178 0.2354402-3.182446 2.7756254-4.109765 3.6449217-0.4807807 0.4506985-1.1304801 1.0415734-1.4437497 1.3125-0.3132696 0.2709273-1.0115686 0.8861076-1.5517579 1.3671875-0.5401893 0.4810806-1.1000577 0.9734798-1.2441408 1.0937498-0.2936987 0.245158-1.296066 1.133442-1.7199218 1.524415-0.1526135 0.140772-0.3782723 0.335865-0.5003906 0.433398-0.122119 0.09753-0.4185939 0.354974-0.6589844 0.572852-0.4876252 0.44196-0.914418 0.807333-1.1962891 1.037694a14 14 0 0 0 -0.1585937 1.985157 14 14 0 0 0 1.7964843 6.845508v-0.03281a14 14 0 0 1 -0.1257811 -0.211916 14 14 0 0 1 -0.2666016 -0.553712 14 14 0 0 1 -0.3623048 -0.772461c0.1736628-0.293595 0.4174323-0.689411 0.7410157-1.19082 0.5269083-0.816471 1.6837339-2.608102 2.5703125-3.982617 0.8865787-1.374515 2.0382649-3.16005 2.559375-3.967579 0.5211108-0.807527 1.772508-2.7472301 2.780859-4.3107417 1.00835-1.5635116 2.051562-3.1806138 2.31875-3.5929685 0.636762-0.9827211 0.817234-1.2854837 0.786133-1.3166015z" style="fill:#b8da6c"/>
 <path d="m29.908399 17.456055-12.467383 12.467382a14 14 0 0 0 12.467383 -12.467382z" style="fill:#778b3c"/>
 <path d="m22.093555 3.4177734c-0.07684 0.1697798-0.13219 0.2975854-0.293946 0.6357423-3.850673 8.0499813-6.278067 16.72202-6.67871 23.854687-0.03667 0.652895-0.08602 1.454998-0.109375 1.781446l-0.01914 0.254296c0.335088 0.030788 0.671179 0.049485 1.007616 0.056055 0.481335-7e-4 0.962312-0.02629 1.441016-0.07656l12.467383-12.467385c0.055819-0.48343 0.086394-0.969442 0.091601-1.456055-0.008461-5.362115-3.078883-10.248349-7.906445-12.582227zm-4.652539 26.505664c6.569137-0.687873 11.763869-5.873486 12.463281-12.441405-0.699412 6.567919-5.894144 11.753532-12.463281 12.441405zm-2.448633 0.02051v0.0055z" style="fill:#eddf36"/>
 <path d="M 16 2 A 14 14 0 0 0 2 16 A 14 14 0 0 0 2.0214844 16.585938 A 14 14 0 0 1 16 3 A 14 14 0 0 1 29.978516 16.414062 A 14 14 0 0 0 30 16 A 14 14 0 0 0 16 2 z" style="fill:#ffffff;opacity:.2"/>
 <path d="m29.908203 17.457031l-12.466797 12.466797a14 14 0 0 0 1.183594 -0.183594l11.095703-11.097656a14 14 0 0 0 0.1875 -1.185547z" style="opacity:.2"/>
</svg>
