<svg width="32" height="32" version="1.1" viewBox="0 0 32 32" xmlns="http://www.w3.org/2000/svg">
 <rect transform="matrix(0,-1,-1,0,0,0)" x="-31" y="-30" width="28" height="28" rx="1.4" ry="1.4" style="opacity:.2"/>
 <rect transform="matrix(0,-1,-1,0,0,0)" x="-30" y="-30" width="28" height="28" rx="1.4" ry="1.4" style="fill:#345784"/>
 <path d="m16.876143 9.0008197c-0.07298 0.00241-0.148406 0.0098-0.229687 0.020755-0.914164 0.1232144-1.165089 0.3470361-1.724023 1.5343123-0.376999 0.800807-0.565602 0.898598-1.051367 1.004288-2.270899-1.6740676-2.270899 0.881294-2.717969 1.58965-0.612812-0.544097-1.4086638-1.720648-2.1956451-2.378392-0.7036085-0.588062-1.4001267-0.9443502-1.9524022-0.5732-0.4376408 0.31054-0.809472 0.97682-0.9447267 2.505534-0.184779 2.088454 0.00193 3.264213 1.3125004 4.993795 1.481984 1.955797 3.6899906 3.912297 7.1859366 6.368293 1.51424 1.063793 2.783205 1.934145 2.820508 1.934145 0.209681 0-2.026639-2.939631-3.381054-4.443833-2.024185-2.248037-2.397704-3.047432-2.441447-4.057005-0.0395-0.912116 0.346379-1.516324 0.863712-1.516324 0.187983 0 1.03879 0.646194 1.976954 1.723023 0.781823 0.854909 1.295868 2.05718 1.920165 2.937175 1.322034 1.670465 2.855183 1.883518 3.424804 0.475928 0.551795-1.369656 0.191643-3.775084-1.069774-5.451169-0.141919-0.612973 0.126352-0.706234 0.746484-0.705589 0.78439 7.79e-4 2.274064 0.539692 3.169141 1.324174 1.106114 0.969443 1.29251 0.964881 2.523828 3.436136 0.726834 1.458756 1.447739 2.819289 1.602344 3.022968 0.275336 0.362746 0.281122 0.360739 0.285742-0.09269-0.232346-3.775768-1.52736-7.369369-4.327149-9.948317-0.473599-0.418922-1.863308-1.440787-3.088476-2.270341-1.785039-1.208644-2.197553-1.4503842-2.708399-1.4333163z" style="opacity:.2"/>
 <path d="m16.876143 8.0008197c-0.07298 0.00241-0.148406 0.0098-0.229687 0.020755-0.914164 0.1232144-1.165089 0.3470361-1.724023 1.5343122-0.376999 0.8008071-0.565602 0.8985981-1.051367 1.0042881-2.270899-1.6740676-2.270899 0.881294-2.717969 1.58965-0.612812-0.544097-1.4086638-1.720648-2.1956451-2.3783917-0.7036085-0.5880626-1.4001267-0.9443505-1.9524022-0.5732006-0.4376408 0.3105401-0.809472 0.9768203-0.9447267 2.5055343-0.184779 2.088454 0.00193 3.264213 1.3125004 4.993795 1.481984 1.955797 3.6899906 3.912297 7.1859366 6.368293 1.51424 1.063793 2.783205 1.934145 2.820508 1.934145 0.209681 0-2.026639-2.939631-3.381054-4.443833-2.024185-2.248037-2.397704-3.047432-2.441447-4.057005-0.0395-0.912116 0.346379-1.516324 0.863712-1.516324 0.187983 0 1.03879 0.646194 1.976954 1.723023 0.781823 0.854909 1.295868 2.05718 1.920165 2.937175 1.322034 1.670465 2.855183 1.883518 3.424804 0.475928 0.551795-1.369656 0.191643-3.775084-1.069774-5.451169-0.141919-0.612973 0.126352-0.706234 0.746484-0.705589 0.78439 7.79e-4 2.274064 0.539692 3.169141 1.324174 1.106114 0.969443 1.29251 0.964881 2.523828 3.436136 0.726834 1.458756 1.447739 2.819289 1.602344 3.022968 0.275336 0.362746 0.281122 0.360739 0.285742-0.09269-0.232346-3.775768-1.52736-7.369369-4.327149-9.948317-0.473599-0.418922-1.863308-1.440787-3.088476-2.2703412-1.785039-1.2086438-2.197553-1.450384-2.708399-1.4333161z" style="fill:#8d8069"/>
 <ellipse transform="matrix(.41803286 -.90843191 .66935843 .74293963 0 0)" cx="1.037" cy="25.497" rx="1.419" ry="2.058" style="opacity:.2"/>
 <ellipse transform="matrix(.41803286 -.90843191 .66935843 .74293963 0 0)" cx="1.766" cy="25.041" rx="1.419" ry="2.058" style="fill:#ffffff"/>
 <path d="M 3.4003906 2 C 2.6247906 2 2 2.6247906 2 3.4003906 L 2 4.4003906 C 2 3.6247906 2.6247906 3 3.4003906 3 L 28.599609 3 C 29.375209 3 30 3.6247906 30 4.4003906 L 30 3.4003906 C 30 2.6247906 29.375209 2 28.599609 2 L 3.4003906 2 z" style="fill:#ffffff;opacity:.1"/>
 <path d="m16.876953 8c-0.07298 0.00241-0.149188 0.0105294-0.230469 0.0214844-0.914164 0.1232144-1.165675 0.3478801-1.724609 1.5351562-0.376999 0.8008074-0.565016 0.8982164-1.050781 1.0039064-2.270899-1.6740677-2.27168 0.881488-2.71875 1.589844-0.612812-0.544097-1.4083314-1.721163-2.1953128-2.3789066-0.7036085-0.5880626-1.3988963-0.9453687-1.9511718-0.5742188-0.4376408 0.3105401-0.8100578 0.9771454-0.9453125 2.5058594-0.0594028 0.671396-0.0736309 1.243923-0.03125 1.775391 0.0094528-0.255144 0.0059888-0.489879 0.03125-0.775391 0.1352547-1.528714 0.5076717-2.195319 0.9453125-2.505859 0.5522755-0.3711506 1.2475634-0.013844 1.9511718 0.574218 0.7869813 0.657744 1.5825008 1.83481 2.1953128 2.378907 0.44707-0.708356 0.447851-3.2639117 2.71875-1.589844 0.485765-0.10569 0.673782-0.203099 1.050781-1.003906 0.558934-1.1872766 0.810445-1.4119422 1.724609-1.5351566 0.081281-0.010955 0.157489-0.0190744 0.230469-0.0214844 0.510846-0.0170679 0.921992 0.2249497 2.707031 1.433594 1.225168 0.829554 2.616245 1.852562 3.089844 2.271484 2.635008 2.427164 3.923882 5.754505 4.261719 9.285156 0.052759 0.018217 0.061825-0.080001 0.064453-0.33789-0.232346-3.775768-1.526383-7.368318-4.326172-9.947266-0.473599-0.418922-1.864676-1.44193-3.089844-2.2714842-1.785039-1.2086439-2.196185-1.4506617-2.707031-1.4335938zm2.03125 7.029297c-0.231226 0.077871-0.327379 0.245405-0.236328 0.638672 0.76168 1.012068 1.188907 2.288051 1.291016 3.443359 0.116995-1.243114-0.237795-2.812796-1.054688-4.082031zm-7.296875 1.822265c-0.043222 0.192071-0.065089 0.408257-0.054687 0.648438 0.043743 1.009573 0.417221 1.808604 2.441406 4.056641 0.627434 0.696823 1.434266 1.692342 2.109375 2.570312 0.427464 0.292023 1.254659 0.873047 1.271484 0.873047 0.209681 0-2.026444-2.939157-3.380859-4.443359-1.784468-1.981811-2.262967-2.838442-2.386719-3.705079z" style="fill:#ffffff;opacity:.1"/>
</svg>
