<svg width="32" height="32" version="1.1" viewBox="0 0 32 32" xmlns="http://www.w3.org/2000/svg">
 <path d="m6.5 3c-0.831 0-1.5 0.669-1.5 1.5v25c0 0.831 0.669 1.5 1.5 1.5h19c0.831 0 1.5-0.669 1.5-1.5v-25c0-0.831-0.669-1.5-1.5-1.5z" style="opacity:.2"/>
 <path d="m6.5 2c-0.831 0-1.5 0.669-1.5 1.5v25c0 0.831 0.669 1.5 1.5 1.5h19c0.831 0 1.5-0.669 1.5-1.5v-25c0-0.831-0.669-1.5-1.5-1.5z" style="fill:#3d65c2"/>
 <path d="m6.5 2c-0.831 0-1.5 0.669-1.5 1.5v25c0 0.831 0.669 1.5 1.5 1.5h2.5v-28z" style="opacity:.2"/>
 <path d="m16 7v5h-5v4h5v11h4v-11h5v-4h-5v-5z" style="opacity:.2"/>
 <rect x="16" y="6" width="4" height="20" style="fill:#ffd972"/>
 <rect transform="rotate(90)" x="11" y="-25" width="4" height="14" style="fill:#ffd972"/>
 <path d="m6.5 2c-0.831 0-1.5 0.669-1.5 1.5v1c0-0.831 0.669-1.5 1.5-1.5h19c0.831 0 1.5 0.669 1.5 1.5v-1c0-0.831-0.669-1.5-1.5-1.5h-19z" style="fill:#ffffff;opacity:.1"/>
 <circle cx="24" cy="23" r="8" style="fill-rule:evenodd;fill:#ff982d"/>
 <path d="M 31.979,23.424 A 8,8 0 0 1 24,31 8,8 0 0 1 16.021,23.576 8,8 0 0 0 16,24 a 8,8 0 0 0 8,8 8,8 0 0 0 8,-8 8,8 0 0 0 -0.021,-0.576 z" style="fill-rule:evenodd;opacity:.2"/>
 <path d="m24 18a5 5 0 0 0 -5 5 5 5 0 0 0 5 5 5 5 0 0 0 5 -5 5 5 0 0 0 -5 -5zm0 1a3.9999996 3.9999996 0 0 1 4 4 3.9999996 3.9999996 0 0 1 -4 4 3.9999996 3.9999996 0 0 1 -4 -4 3.9999996 3.9999996 0 0 1 4 -4z" style="fill:#ffffff"/>
 <path d="m23 20v4h4v-1h-3v-3z" style="fill:#ffffff"/>
</svg>
