<svg width="32" height="32" version="1" xmlns="http://www.w3.org/2000/svg">
 <rect x="2" y="3" width="28" height="28" rx="1.5" ry="1.5" style="opacity:.2"/>
 <rect x="2" y="2" width="28" height="28" rx="1.5" ry="1.5" style="fill:#e65100"/>
 <rect x="5" y="6" width="22" height="22" rx="1.5" ry="1.5" style="opacity:.2"/>
 <rect x="5" y="5" width="22" height="22" rx="1.5" ry="1.5" style="fill:#ffffff"/>
 <path d="m7 7v18h8v-4h-4v-10h4v-4h-8zm10 0v4h4v10h-4v4h8v-18h-8z" style="fill:#424242"/>
 <path d="m3.5 2c-0.831 0-1.5 0.669-1.5 1.5v1c0-0.831 0.669-1.5 1.5-1.5h25c0.831 0 1.5 0.669 1.5 1.5v-1c0-0.831-0.669-1.5-1.5-1.5h-25z" style="fill:#ffffff;opacity:.2"/>
</svg>
