<svg width="32" height="32" version="1.1" viewBox="0 0 32 32" xmlns="http://www.w3.org/2000/svg">
 <path d="m19 5-8 8" fill="none" stroke="#cbbb2e" stroke-width="6"/>
 <rect transform="scale(-1,1)" x="-13" y="11" width="8" height="17" ry="0" fill="#cbbb2e"/>
 <path d="m13 26c1 0 1 1 1 1v2h-10v-2c0-1 1-1 1-1z" fill="#d6c84a"/>
 <path d="m15 27c1 0 1 1 1 1v2h-14v-2c0-1 1-1 1-1z" fill="#3f3f3f"/>
 <path d="m19 5 4 4" fill="none" stroke="#cbbb2e" stroke-linecap="square" stroke-width="4"/>
 <rect transform="scale(-1,1)" x="-23" y="2" width="8" height="8" ry="4" opacity=".2"/>
 <rect transform="scale(-1,1)" x="-15" y="10" width="12" height="12" ry="6" opacity=".2"/>
 <rect transform="scale(-1,1)" x="-15" y="9" width="12" height="12" ry="6" fill="#d6c84a"/>
 <rect transform="scale(-1,1)" x="-13" y="11" width="8" height="8" ry="4" fill="#3f3f3f"/>
 <rect transform="scale(-1,1)" x="-12" y="12" width="6" height="6" ry="3" fill="#fff" opacity=".1"/>
 <rect transform="scale(-1,1)" x="-23" y="1" width="8" height="8" ry="4" fill="#d6c84a"/>
 <path d="m25 16-2-1v-4l2-2h4l1 2" fill="none" stroke="#3f3f3f" stroke-linecap="round" stroke-width="2"/>
 <rect transform="scale(-1,1)" x="-21" y="3" width="4" height="4" ry="2" fill="#3f3f3f"/>
 <path d="m9 9c-3.324 0-6 2.676-6 6 0 0.169 0.0118 0.335 0.0254 0.5 0.2531-3.088 2.8194-5.5 5.9746-5.5s5.7215 2.4123 5.9746 5.5c0.0135-0.16523 0.0254-0.33116 0.0254-0.5 0-3.324-2.676-6-6-6z" fill="#f9f9f9" opacity=".2"/>
 <path d="m19 1c-2.216 0-4 1.784-4 4 0 0.17126 0.0281 0.33452 0.0488 0.5 0.24699-1.9757 1.9064-3.5 3.9512-3.5 2.0447 0 3.7042 1.5243 3.9512 3.5 0.0207-0.16548 0.0488-0.32874 0.0488-0.5 0-2.216-1.784-4-4-4z" fill="#f9f9f9" opacity=".2"/>
 <path d="m3 27s-1 0-1 1v1c0-1 1-1 1-1h12c1 0 1 1 1 1v-1s0-1-1-1h-12z" fill="#fff" opacity=".1"/>
</svg>
