<svg width="32" height="32" version="1.0" xmlns="http://www.w3.org/2000/svg">
 <defs>
  <linearGradient id="linearGradient8505" x1="168" x2="160" y1="266" y2="270" gradientTransform="matrix(.39937 0 0 .39978 -47.91 -87.945)" gradientUnits="userSpaceOnUse">
   <stop offset="0"/>
   <stop stop-opacity="0" offset="1"/>
  </linearGradient>
 </defs>
 <text x="877.22626" y="-5.1873989" font-family="'Bitstream Vera Sans'" font-size="12.666px" opacity=".8" xml:space="preserve"><tspan x="877.22626" y="-5.1873989"/></text>
 <text x="901.18719" y="-45.929108" font-family="'Bitstream Vera Sans'" font-size="12.666px" opacity=".8" xml:space="preserve"><tspan x="901.18719" y="-45.929108"/></text>
 <text x="-569.37115" y="-76.007248" font-family="'Bitstream Vera Sans'" font-size="12.666px" opacity=".8" xml:space="preserve"><tspan x="-569.37115" y="-76.007248"/></text>
 <text x="-2393.0571" y="669.5462" font-family="'Bitstream Vera Sans'" font-size="12.666px" opacity=".8" xml:space="preserve"><tspan x="-2393.0571" y="669.5462"/></text>
 <text x="-454.88007" y="-461.32822" font-family="'Bitstream Vera Sans'" font-size="12.666px" opacity=".8" xml:space="preserve"><tspan x="-454.88007" y="-461.32822"/></text>
 <text x="352.72208" y="-874.79834" font-family="'Bitstream Vera Sans'" font-size="12.666px" opacity=".8" xml:space="preserve"><tspan x="352.72208" y="-874.79834"/></text>
 <text x="376.68301" y="-915.54004" font-family="'Bitstream Vera Sans'" font-size="12.666px" opacity=".8" xml:space="preserve"><tspan x="376.68301" y="-915.54004"/></text>
 <text x="-1114.7802" y="-922.74994" font-family="'Bitstream Vera Sans'" font-size="12.666px" opacity=".8" xml:space="preserve"><tspan x="-1114.7802" y="-922.74994"/></text>
 <text x="345.7626" y="-1195.9841" font-family="'Bitstream Vera Sans'" font-size="12.666px" opacity=".8" xml:space="preserve"><tspan x="345.7626" y="-1195.9841"/></text>
 <text x="1831.8861" y="-569.29272" font-family="'Bitstream Vera Sans'" font-size="12.666px" opacity=".8" xml:space="preserve"><tspan x="1831.8861" y="-569.29272"/></text>
 <text x="1855.8469" y="-610.03448" font-family="'Bitstream Vera Sans'" font-size="12.666px" opacity=".8" xml:space="preserve"><tspan x="1855.8469" y="-610.03448"/></text>
 <text x="364.38376" y="-617.24438" font-family="'Bitstream Vera Sans'" font-size="12.666px" opacity=".8" xml:space="preserve"><tspan x="364.38376" y="-617.24438"/></text>
 <text x="1824.9266" y="-890.47839" font-family="'Bitstream Vera Sans'" font-size="12.666px" opacity=".8" xml:space="preserve"><tspan x="1824.9266" y="-890.47839"/></text>
 <text x="-573.43256" y="-665.33569" font-family="'Bitstream Vera Sans'" font-size="12.666px" opacity=".8" xml:space="preserve"><tspan x="-573.43256" y="-665.33569"/></text>
 <text x="-2397.1182" y="80.217857" font-family="'Bitstream Vera Sans'" font-size="12.666px" opacity=".8" xml:space="preserve"><tspan x="-2397.1182" y="80.217857"/></text>
 <text x="-682.36279" y="173.09" font-family="'Bitstream Vera Sans'" font-size="12.666px" opacity=".8" xml:space="preserve"><tspan x="-682.36279" y="173.09"/></text>
 <text x="426.66153" y="-6.0921478" font-family="'Bitstream Vera Sans'" font-size="12.666px" opacity=".8" xml:space="preserve"><tspan x="426.66153" y="-6.0921478"/></text>
 <text x="450.62247" y="-46.833855" font-family="'Bitstream Vera Sans'" font-size="12.666px" opacity=".8" xml:space="preserve"><tspan x="450.62247" y="-46.833855"/></text>
 <text x="-1040.8407" y="-54.043827" font-family="'Bitstream Vera Sans'" font-size="12.666px" opacity=".8" xml:space="preserve"><tspan x="-1040.8407" y="-54.043827"/></text>
 <text x="419.70206" y="-327.27789" font-family="'Bitstream Vera Sans'" font-size="12.666px" opacity=".8" xml:space="preserve"><tspan x="419.70206" y="-327.27789"/></text>
 <text x="-608.03253" y="-56.758072" font-family="'Bitstream Vera Sans'" font-size="12.666px" opacity=".8" xml:space="preserve"><tspan x="-608.03253" y="-56.758072"/></text>
 <text x="-2431.7185" y="688.79541" font-family="'Bitstream Vera Sans'" font-size="12.666px" opacity=".8" xml:space="preserve"><tspan x="-2431.7185" y="688.79541"/></text>
 <text x="-456.93948" y="-918.28857" font-family="'Bitstream Vera Sans'" font-size="12.666px" opacity=".8" xml:space="preserve"><tspan x="-456.93948" y="-918.28857"/></text>
 <text x="350.66266" y="-1331.7588" font-family="'Bitstream Vera Sans'" font-size="12.666px" opacity=".8" xml:space="preserve"><tspan x="350.66266" y="-1331.7588"/></text>
 <text x="374.62357" y="-1372.5005" font-family="'Bitstream Vera Sans'" font-size="12.666px" opacity=".8" xml:space="preserve"><tspan x="374.62357" y="-1372.5005"/></text>
 <text x="-1116.8396" y="-1379.7104" font-family="'Bitstream Vera Sans'" font-size="12.666px" opacity=".8" xml:space="preserve"><tspan x="-1116.8396" y="-1379.7104"/></text>
 <text x="343.70316" y="-1652.9446" font-family="'Bitstream Vera Sans'" font-size="12.666px" opacity=".8" xml:space="preserve"><tspan x="343.70316" y="-1652.9446"/></text>
 <text x="1829.8265" y="-1026.2533" font-family="'Bitstream Vera Sans'" font-size="12.666px" opacity=".8" xml:space="preserve"><tspan x="1829.8265" y="-1026.2533"/></text>
 <text x="1853.7874" y="-1066.9949" font-family="'Bitstream Vera Sans'" font-size="12.666px" opacity=".8" xml:space="preserve"><tspan x="1853.7874" y="-1066.9949"/></text>
 <text x="362.32431" y="-1074.2048" font-family="'Bitstream Vera Sans'" font-size="12.666px" opacity=".8" xml:space="preserve"><tspan x="362.32431" y="-1074.2048"/></text>
 <text x="1822.8671" y="-1347.439" font-family="'Bitstream Vera Sans'" font-size="12.666px" opacity=".8" xml:space="preserve"><tspan x="1822.8671" y="-1347.439"/></text>
 <text x="-575.492" y="-1122.2961" font-family="'Bitstream Vera Sans'" font-size="12.666px" opacity=".8" xml:space="preserve"><tspan x="-575.492" y="-1122.2961"/></text>
 <text x="-2399.1777" y="-376.74261" font-family="'Bitstream Vera Sans'" font-size="12.666px" opacity=".8" xml:space="preserve"><tspan x="-2399.1777" y="-376.74261"/></text>
 <text x="-684.42224" y="-283.87045" font-family="'Bitstream Vera Sans'" font-size="12.666px" opacity=".8" xml:space="preserve"><tspan x="-684.42224" y="-283.87045"/></text>
 <text x="155.5923" y="-42.956276" font-family="'Bitstream Vera Sans'" font-size="12.666px" opacity=".8" xml:space="preserve"><tspan x="155.5923" y="-42.956276"/></text>
 <text x="179.55324" y="-83.697998" font-family="'Bitstream Vera Sans'" font-size="12.666px" opacity=".8" xml:space="preserve"><tspan x="179.55324" y="-83.697998"/></text>
 <text x="-1090.2634" y="-277.72662" font-family="'Bitstream Vera Sans'" font-size="12.666px" opacity=".8" xml:space="preserve"><tspan x="-1090.2634" y="-277.72662"/></text>
 <text x="-282.66141" y="-691.19678" font-family="'Bitstream Vera Sans'" font-size="12.666px" opacity=".8" xml:space="preserve"><tspan x="-282.66141" y="-691.19678"/></text>
 <text x="-258.70047" y="-731.93848" font-family="'Bitstream Vera Sans'" font-size="12.666px" opacity=".8" xml:space="preserve"><tspan x="-258.70047" y="-731.93848"/></text>
 <text x="-1750.1636" y="-739.14838" font-family="'Bitstream Vera Sans'" font-size="12.666px" opacity=".8" xml:space="preserve"><tspan x="-1750.1636" y="-739.14838"/></text>
 <text x="-289.62085" y="-1012.3825" font-family="'Bitstream Vera Sans'" font-size="12.666px" opacity=".8" xml:space="preserve"><tspan x="-289.62085" y="-1012.3825"/></text>
 <text x="1196.5026" y="-385.69113" font-family="'Bitstream Vera Sans'" font-size="12.666px" opacity=".8" xml:space="preserve"><tspan x="1196.5026" y="-385.69113"/></text>
 <text x="1220.4634" y="-426.43286" font-family="'Bitstream Vera Sans'" font-size="12.666px" opacity=".8" xml:space="preserve"><tspan x="1220.4634" y="-426.43286"/></text>
 <text x="-270.99973" y="-433.64282" font-family="'Bitstream Vera Sans'" font-size="12.666px" opacity=".8" xml:space="preserve"><tspan x="-270.99973" y="-433.64282"/></text>
 <text x="1189.5431" y="-706.87689" font-family="'Bitstream Vera Sans'" font-size="12.666px" opacity=".8" xml:space="preserve"><tspan x="1189.5431" y="-706.87689"/></text>
 <text x="-1208.816" y="-481.7341" font-family="'Bitstream Vera Sans'" font-size="12.666px" opacity=".8" xml:space="preserve"><tspan x="-1208.816" y="-481.7341"/></text>
 <text x="-3032.5017" y="263.81946" font-family="'Bitstream Vera Sans'" font-size="12.666px" opacity=".8" xml:space="preserve"><tspan x="-3032.5017" y="263.81946"/></text>
 <g transform="matrix(.90475 0 0 .90475 -716.75 -692.29)">
  <text x="-664.2738" y="1159.4154" font-family="'Bitstream Vera Sans'" font-size="14px" opacity=".8" xml:space="preserve"><tspan x="-664.2738" y="1159.4154"/></text>
 </g>
 <text x="877.22626" y="2.0505886" font-family="'Bitstream Vera Sans'" font-size="12.666px" opacity=".8" xml:space="preserve"><tspan x="877.22626" y="2.0505886"/></text>
 <text x="901.18719" y="-38.691116" font-family="'Bitstream Vera Sans'" font-size="12.666px" opacity=".8" xml:space="preserve"><tspan x="901.18719" y="-38.691116"/></text>
 <text x="-569.37115" y="-68.769257" font-family="'Bitstream Vera Sans'" font-size="12.666px" opacity=".8" xml:space="preserve"><tspan x="-569.37115" y="-68.769257"/></text>
 <text x="-2393.0571" y="676.78418" font-family="'Bitstream Vera Sans'" font-size="12.666px" opacity=".8" xml:space="preserve"><tspan x="-2393.0571" y="676.78418"/></text>
 <text x="-454.88007" y="-454.09021" font-family="'Bitstream Vera Sans'" font-size="12.666px" opacity=".8" xml:space="preserve"><tspan x="-454.88007" y="-454.09021"/></text>
 <text x="352.72208" y="-867.5603" font-family="'Bitstream Vera Sans'" font-size="12.666px" opacity=".8" xml:space="preserve"><tspan x="352.72208" y="-867.5603"/></text>
 <text x="376.68301" y="-908.30206" font-family="'Bitstream Vera Sans'" font-size="12.666px" opacity=".8" xml:space="preserve"><tspan x="376.68301" y="-908.30206"/></text>
 <text x="-1114.7802" y="-915.51196" font-family="'Bitstream Vera Sans'" font-size="12.666px" opacity=".8" xml:space="preserve"><tspan x="-1114.7802" y="-915.51196"/></text>
 <text x="345.7626" y="-1188.7461" font-family="'Bitstream Vera Sans'" font-size="12.666px" opacity=".8" xml:space="preserve"><tspan x="345.7626" y="-1188.7461"/></text>
 <text x="1831.8861" y="-562.05475" font-family="'Bitstream Vera Sans'" font-size="12.666px" opacity=".8" xml:space="preserve"><tspan x="1831.8861" y="-562.05475"/></text>
 <text x="1855.8469" y="-602.79651" font-family="'Bitstream Vera Sans'" font-size="12.666px" opacity=".8" xml:space="preserve"><tspan x="1855.8469" y="-602.79651"/></text>
 <text x="364.38376" y="-610.00641" font-family="'Bitstream Vera Sans'" font-size="12.666px" opacity=".8" xml:space="preserve"><tspan x="364.38376" y="-610.00641"/></text>
 <text x="1824.9266" y="-883.24036" font-family="'Bitstream Vera Sans'" font-size="12.666px" opacity=".8" xml:space="preserve"><tspan x="1824.9266" y="-883.24036"/></text>
 <text x="-573.43256" y="-658.09772" font-family="'Bitstream Vera Sans'" font-size="12.666px" opacity=".8" xml:space="preserve"><tspan x="-573.43256" y="-658.09772"/></text>
 <text x="-2397.1182" y="87.455849" font-family="'Bitstream Vera Sans'" font-size="12.666px" opacity=".8" xml:space="preserve"><tspan x="-2397.1182" y="87.455849"/></text>
 <text x="-682.36279" y="180.32799" font-family="'Bitstream Vera Sans'" font-size="12.666px" opacity=".8" xml:space="preserve"><tspan x="-682.36279" y="180.32799"/></text>
 <text x="426.66153" y="1.1458397" font-family="'Bitstream Vera Sans'" font-size="12.666px" opacity=".8" xml:space="preserve"><tspan x="426.66153" y="1.1458397"/></text>
 <text x="450.62247" y="-39.595863" font-family="'Bitstream Vera Sans'" font-size="12.666px" opacity=".8" xml:space="preserve"><tspan x="450.62247" y="-39.595863"/></text>
 <text x="-1040.8407" y="-46.805836" font-family="'Bitstream Vera Sans'" font-size="12.666px" opacity=".8" xml:space="preserve"><tspan x="-1040.8407" y="-46.805836"/></text>
 <text x="419.70206" y="-320.03989" font-family="'Bitstream Vera Sans'" font-size="12.666px" opacity=".8" xml:space="preserve"><tspan x="419.70206" y="-320.03989"/></text>
 <text x="-608.03253" y="-49.520081" font-family="'Bitstream Vera Sans'" font-size="12.666px" opacity=".8" xml:space="preserve"><tspan x="-608.03253" y="-49.520081"/></text>
 <text x="-2431.7185" y="696.03345" font-family="'Bitstream Vera Sans'" font-size="12.666px" opacity=".8" xml:space="preserve"><tspan x="-2431.7185" y="696.03345"/></text>
 <text x="-456.93948" y="-911.0506" font-family="'Bitstream Vera Sans'" font-size="12.666px" opacity=".8" xml:space="preserve"><tspan x="-456.93948" y="-911.0506"/></text>
 <text x="350.66266" y="-1324.5208" font-family="'Bitstream Vera Sans'" font-size="12.666px" opacity=".8" xml:space="preserve"><tspan x="350.66266" y="-1324.5208"/></text>
 <text x="374.62357" y="-1365.2626" font-family="'Bitstream Vera Sans'" font-size="12.666px" opacity=".8" xml:space="preserve"><tspan x="374.62357" y="-1365.2626"/></text>
 <text x="-1116.8396" y="-1372.4724" font-family="'Bitstream Vera Sans'" font-size="12.666px" opacity=".8" xml:space="preserve"><tspan x="-1116.8396" y="-1372.4724"/></text>
 <text x="343.70316" y="-1645.7065" font-family="'Bitstream Vera Sans'" font-size="12.666px" opacity=".8" xml:space="preserve"><tspan x="343.70316" y="-1645.7065"/></text>
 <text x="1829.8265" y="-1019.0153" font-family="'Bitstream Vera Sans'" font-size="12.666px" opacity=".8" xml:space="preserve"><tspan x="1829.8265" y="-1019.0153"/></text>
 <text x="1853.7874" y="-1059.757" font-family="'Bitstream Vera Sans'" font-size="12.666px" opacity=".8" xml:space="preserve"><tspan x="1853.7874" y="-1059.757"/></text>
 <text x="362.32431" y="-1066.9668" font-family="'Bitstream Vera Sans'" font-size="12.666px" opacity=".8" xml:space="preserve"><tspan x="362.32431" y="-1066.9668"/></text>
 <text x="1822.8671" y="-1340.2009" font-family="'Bitstream Vera Sans'" font-size="12.666px" opacity=".8" xml:space="preserve"><tspan x="1822.8671" y="-1340.2009"/></text>
 <text x="-575.492" y="-1115.0581" font-family="'Bitstream Vera Sans'" font-size="12.666px" opacity=".8" xml:space="preserve"><tspan x="-575.492" y="-1115.0581"/></text>
 <text x="-2399.1777" y="-369.50461" font-family="'Bitstream Vera Sans'" font-size="12.666px" opacity=".8" xml:space="preserve"><tspan x="-2399.1777" y="-369.50461"/></text>
 <text x="-684.42224" y="-276.63245" font-family="'Bitstream Vera Sans'" font-size="12.666px" opacity=".8" xml:space="preserve"><tspan x="-684.42224" y="-276.63245"/></text>
 <text x="155.5923" y="-35.718292" font-family="'Bitstream Vera Sans'" font-size="12.666px" opacity=".8" xml:space="preserve"><tspan x="155.5923" y="-35.718292"/></text>
 <text x="179.55324" y="-76.460007" font-family="'Bitstream Vera Sans'" font-size="12.666px" opacity=".8" xml:space="preserve"><tspan x="179.55324" y="-76.460007"/></text>
 <text x="-1090.2634" y="-270.48859" font-family="'Bitstream Vera Sans'" font-size="12.666px" opacity=".8" xml:space="preserve"><tspan x="-1090.2634" y="-270.48859"/></text>
 <text x="-282.66141" y="-683.9588" font-family="'Bitstream Vera Sans'" font-size="12.666px" opacity=".8" xml:space="preserve"><tspan x="-282.66141" y="-683.9588"/></text>
 <text x="-258.70047" y="-724.7005" font-family="'Bitstream Vera Sans'" font-size="12.666px" opacity=".8" xml:space="preserve"><tspan x="-258.70047" y="-724.7005"/></text>
 <text x="-1750.1636" y="-731.91046" font-family="'Bitstream Vera Sans'" font-size="12.666px" opacity=".8" xml:space="preserve"><tspan x="-1750.1636" y="-731.91046"/></text>
 <text x="-289.62085" y="-1005.1445" font-family="'Bitstream Vera Sans'" font-size="12.666px" opacity=".8" xml:space="preserve"><tspan x="-289.62085" y="-1005.1445"/></text>
 <text x="1196.5026" y="-378.45316" font-family="'Bitstream Vera Sans'" font-size="12.666px" opacity=".8" xml:space="preserve"><tspan x="1196.5026" y="-378.45316"/></text>
 <text x="1220.4634" y="-419.19489" font-family="'Bitstream Vera Sans'" font-size="12.666px" opacity=".8" xml:space="preserve"><tspan x="1220.4634" y="-419.19489"/></text>
 <text x="-270.99973" y="-426.40482" font-family="'Bitstream Vera Sans'" font-size="12.666px" opacity=".8" xml:space="preserve"><tspan x="-270.99973" y="-426.40482"/></text>
 <text x="1189.5431" y="-699.63892" font-family="'Bitstream Vera Sans'" font-size="12.666px" opacity=".8" xml:space="preserve"><tspan x="1189.5431" y="-699.63892"/></text>
 <text x="-1208.816" y="-474.49609" font-family="'Bitstream Vera Sans'" font-size="12.666px" opacity=".8" xml:space="preserve"><tspan x="-1208.816" y="-474.49609"/></text>
 <text x="-3032.5017" y="271.05743" font-family="'Bitstream Vera Sans'" font-size="12.666px" opacity=".8" xml:space="preserve"><tspan x="-3032.5017" y="271.05743"/></text>
 <g transform="matrix(.90475 0 0 .90475 -716.75 -685.05)">
  <text x="-664.2738" y="1159.4154" font-family="'Bitstream Vera Sans'" font-size="14px" opacity=".8" xml:space="preserve"><tspan x="-664.2738" y="1159.4154"/></text>
 </g>
 <text x="435.90427" y="-377.22546" font-family="'Droid Sans'" font-size="12.666px" xml:space="preserve"><tspan x="435.90427" y="-377.22546"/><tspan x="435.90427" y="-361.3924"/></text>
 <text x="901.0882" y="-859.27002" font-family="'Bitstream Vera Sans'" font-size="12.666px" opacity=".8" xml:space="preserve"><tspan x="901.0882" y="-859.27002"/></text>
 <text x="-922.59778" y="-113.71655" font-family="'Bitstream Vera Sans'" font-size="12.666px" opacity=".8" xml:space="preserve"><tspan x="-922.59778" y="-113.71655"/></text>
 <text x="1628.1677" y="-1144.2659" font-family="'Bitstream Vera Sans'" font-size="12.666px" opacity=".8" xml:space="preserve"><tspan x="1628.1677" y="-1144.2659"/></text>
 <text x="1652.1285" y="-1185.0076" font-family="'Bitstream Vera Sans'" font-size="12.666px" opacity=".8" xml:space="preserve"><tspan x="1652.1285" y="-1185.0076"/></text>
 <text x="160.66542" y="-1192.2175" font-family="'Bitstream Vera Sans'" font-size="12.666px" opacity=".8" xml:space="preserve"><tspan x="160.66542" y="-1192.2175"/></text>
 <text x="1621.2083" y="-1465.4517" font-family="'Bitstream Vera Sans'" font-size="12.666px" opacity=".8" xml:space="preserve"><tspan x="1621.2083" y="-1465.4517"/></text>
 <rect transform="matrix(0,-1,-1,0,0,0)" x="-26.999" y="-30" width="22" height="28" rx="1.5" ry="1.5" fill="#5f7c8a"/>
 <rect transform="matrix(0,-1,-1,0,0,0)" x="-24.999" y="-28" width="18" height="24" rx="0" ry="0" fill="#7f96a1"/>
 <path d="m15.988 9c-2.8021 0-5.253 1.4376-6.6777 3.6113l3.5195 6.0957c-0.27628-0.5097-0.43555-1.0881-0.43555-1.7109 0-1.9933 1.6149-2.5772 3.5938-2.7988l1.9551-0.21875c1.612 1.0331 2.1469 3.1413 1.1797 4.8184l-3.5684 6.1895c2.917 0.17104 5.8073-1.2753 7.373-3.9902v-2e-3c1.4011-2.4292 1.383-5.2699 0.21484-7.5918l-0.21289-0.41016h-0.04297c-1.379-2.385-3.937-3.992-6.899-3.992zm-6.6738 3.6289c-1.6065 2.4433-1.8002 5.6734-0.23438 8.3887h-0.00195c1.4012 2.429 3.8702 3.834 6.4632 3.982l3.5156-6.0996c-0.30312 0.49424-0.72476 0.9229-1.2637 1.2344-1.7244 0.99665-3.9145 0.40987-4.9102-1.3164l-3.5685-6.189z" opacity=".2"/>
 <path d="m3.5 4.9994c-0.831 0-1.5 0.669-1.5 1.5v1c0-0.831 0.669-1.5 1.5-1.5h25c0.831 0 1.5 0.669 1.5 1.5v-1c0-0.831-0.669-1.5-1.5-1.5h-25z" fill="#fff" opacity=".1"/>
 <path d="m2 25.5v1c0 0.831 0.669 1.5 1.5 1.5h25c0.831 0 1.5-0.669 1.5-1.5v-1c0 0.831-0.669 1.5-1.5 1.5h-25c-0.831 0-1.5-0.669-1.5-1.5z" opacity=".2"/>
 <text x="507.59534" y="3.9061024" font-family="'Bitstream Vera Sans'" font-size="7.23px" opacity=".8" xml:space="preserve"><tspan x="507.59534" y="3.9061024"/></text>
 <text x="521.27264" y="-19.35001" font-family="'Bitstream Vera Sans'" font-size="7.23px" opacity=".8" xml:space="preserve"><tspan x="521.27264" y="-19.35001"/></text>
 <text x="-318.1489" y="-36.519161" font-family="'Bitstream Vera Sans'" font-size="7.23px" opacity=".8" xml:space="preserve"><tspan x="-318.1489" y="-36.519161"/></text>
 <text x="-1359.1422" y="389.05637" font-family="'Bitstream Vera Sans'" font-size="7.23px" opacity=".8" xml:space="preserve"><tspan x="-1359.1422" y="389.05637"/></text>
 <text x="-252.7953" y="-256.46741" font-family="'Bitstream Vera Sans'" font-size="7.23px" opacity=".8" xml:space="preserve"><tspan x="-252.7953" y="-256.46741"/></text>
 <text x="208.19876" y="-492.4837" font-family="'Bitstream Vera Sans'" font-size="7.23px" opacity=".8" xml:space="preserve"><tspan x="208.19876" y="-492.4837"/></text>
 <text x="221.8761" y="-515.73981" font-family="'Bitstream Vera Sans'" font-size="7.23px" opacity=".8" xml:space="preserve"><tspan x="221.8761" y="-515.73981"/></text>
 <text x="-629.47833" y="-519.85535" font-family="'Bitstream Vera Sans'" font-size="7.23px" opacity=".8" xml:space="preserve"><tspan x="-629.47833" y="-519.85535"/></text>
 <text x="204.22617" y="-675.82245" font-family="'Bitstream Vera Sans'" font-size="7.23px" opacity=".8" xml:space="preserve"><tspan x="204.22617" y="-675.82245"/></text>
 <text x="1052.5326" y="-318.09552" font-family="'Bitstream Vera Sans'" font-size="7.23px" opacity=".8" xml:space="preserve"><tspan x="1052.5326" y="-318.09552"/></text>
 <text x="1066.2098" y="-341.35165" font-family="'Bitstream Vera Sans'" font-size="7.23px" opacity=".8" xml:space="preserve"><tspan x="1066.2098" y="-341.35165"/></text>
 <text x="214.85545" y="-345.46719" font-family="'Bitstream Vera Sans'" font-size="7.23px" opacity=".8" xml:space="preserve"><tspan x="214.85545" y="-345.46719"/></text>
 <text x="1048.5601" y="-501.43417" font-family="'Bitstream Vera Sans'" font-size="7.23px" opacity=".8" xml:space="preserve"><tspan x="1048.5601" y="-501.43417"/></text>
 <text x="-320.46722" y="-372.91861" font-family="'Bitstream Vera Sans'" font-size="7.23px" opacity=".8" xml:space="preserve"><tspan x="-320.46722" y="-372.91861"/></text>
 <text x="-1361.4603" y="52.656982" font-family="'Bitstream Vera Sans'" font-size="7.23px" opacity=".8" xml:space="preserve"><tspan x="-1361.4603" y="52.656982"/></text>
 <text x="-382.64661" y="105.6701" font-family="'Bitstream Vera Sans'" font-size="7.23px" opacity=".8" xml:space="preserve"><tspan x="-382.64661" y="105.6701"/></text>
 <text x="250.40475" y="3.3896551" font-family="'Bitstream Vera Sans'" font-size="7.23px" opacity=".8" xml:space="preserve"><tspan x="250.40475" y="3.3896551"/></text>
 <text x="264.08209" y="-19.866455" font-family="'Bitstream Vera Sans'" font-size="7.23px" opacity=".8" xml:space="preserve"><tspan x="264.08209" y="-19.866455"/></text>
 <text x="-587.27234" y="-23.982038" font-family="'Bitstream Vera Sans'" font-size="7.23px" opacity=".8" xml:space="preserve"><tspan x="-587.27234" y="-23.982038"/></text>
 <text x="246.43216" y="-179.94904" font-family="'Bitstream Vera Sans'" font-size="7.23px" opacity=".8" xml:space="preserve"><tspan x="246.43216" y="-179.94904"/></text>
 <text x="-340.21753" y="-25.53138" font-family="'Bitstream Vera Sans'" font-size="7.23px" opacity=".8" xml:space="preserve"><tspan x="-340.21753" y="-25.53138"/></text>
 <text x="-1381.2108" y="400.04416" font-family="'Bitstream Vera Sans'" font-size="7.23px" opacity=".8" xml:space="preserve"><tspan x="-1381.2108" y="400.04416"/></text>
 <text x="-253.97086" y="-517.30872" font-family="'Bitstream Vera Sans'" font-size="7.23px" opacity=".8" xml:space="preserve"><tspan x="-253.97086" y="-517.30872"/></text>
 <text x="207.02321" y="-753.32507" font-family="'Bitstream Vera Sans'" font-size="7.23px" opacity=".8" xml:space="preserve"><tspan x="207.02321" y="-753.32507"/></text>
 <text x="220.70053" y="-776.58118" font-family="'Bitstream Vera Sans'" font-size="7.23px" opacity=".8" xml:space="preserve"><tspan x="220.70053" y="-776.58118"/></text>
 <text x="-630.65387" y="-780.69678" font-family="'Bitstream Vera Sans'" font-size="7.23px" opacity=".8" xml:space="preserve"><tspan x="-630.65387" y="-780.69678"/></text>
 <text x="203.0506" y="-936.66382" font-family="'Bitstream Vera Sans'" font-size="7.23px" opacity=".8" xml:space="preserve"><tspan x="203.0506" y="-936.66382"/></text>
 <text x="1051.3569" y="-578.93695" font-family="'Bitstream Vera Sans'" font-size="7.23px" opacity=".8" xml:space="preserve"><tspan x="1051.3569" y="-578.93695"/></text>
 <text x="1065.0343" y="-602.19299" font-family="'Bitstream Vera Sans'" font-size="7.23px" opacity=".8" xml:space="preserve"><tspan x="1065.0343" y="-602.19299"/></text>
 <text x="213.67989" y="-606.30859" font-family="'Bitstream Vera Sans'" font-size="7.23px" opacity=".8" xml:space="preserve"><tspan x="213.67989" y="-606.30859"/></text>
 <text x="1047.3844" y="-762.27563" font-family="'Bitstream Vera Sans'" font-size="7.23px" opacity=".8" xml:space="preserve"><tspan x="1047.3844" y="-762.27563"/></text>
 <text x="-321.64279" y="-633.75995" font-family="'Bitstream Vera Sans'" font-size="7.23px" opacity=".8" xml:space="preserve"><tspan x="-321.64279" y="-633.75995"/></text>
 <text x="-1362.636" y="-208.1844" font-family="'Bitstream Vera Sans'" font-size="7.23px" opacity=".8" xml:space="preserve"><tspan x="-1362.636" y="-208.1844"/></text>
 <text x="-383.82217" y="-155.17128" font-family="'Bitstream Vera Sans'" font-size="7.23px" opacity=".8" xml:space="preserve"><tspan x="-383.82217" y="-155.17128"/></text>
 <text x="95.673485" y="-17.653063" font-family="'Bitstream Vera Sans'" font-size="7.23px" opacity=".8" xml:space="preserve"><tspan x="95.673485" y="-17.653063"/></text>
 <text x="109.35082" y="-40.909184" font-family="'Bitstream Vera Sans'" font-size="7.23px" opacity=".8" xml:space="preserve"><tspan x="109.35082" y="-40.909184"/></text>
 <text x="-615.4837" y="-151.66426" font-family="'Bitstream Vera Sans'" font-size="7.23px" opacity=".8" xml:space="preserve"><tspan x="-615.4837" y="-151.66426"/></text>
 <text x="-154.48975" y="-387.68057" font-family="'Bitstream Vera Sans'" font-size="7.23px" opacity=".8" xml:space="preserve"><tspan x="-154.48975" y="-387.68057"/></text>
 <text x="-140.81241" y="-410.93668" font-family="'Bitstream Vera Sans'" font-size="7.23px" opacity=".8" xml:space="preserve"><tspan x="-140.81241" y="-410.93668"/></text>
 <text x="-992.16681" y="-415.05225" font-family="'Bitstream Vera Sans'" font-size="7.23px" opacity=".8" xml:space="preserve"><tspan x="-992.16681" y="-415.05225"/></text>
 <text x="-158.46233" y="-571.01929" font-family="'Bitstream Vera Sans'" font-size="7.23px" opacity=".8" xml:space="preserve"><tspan x="-158.46233" y="-571.01929"/></text>
 <text x="689.84406" y="-213.29237" font-family="'Bitstream Vera Sans'" font-size="7.23px" opacity=".8" xml:space="preserve"><tspan x="689.84406" y="-213.29237"/></text>
 <text x="703.52136" y="-236.54851" font-family="'Bitstream Vera Sans'" font-size="7.23px" opacity=".8" xml:space="preserve"><tspan x="703.52136" y="-236.54851"/></text>
 <text x="-147.83304" y="-240.66408" font-family="'Bitstream Vera Sans'" font-size="7.23px" opacity=".8" xml:space="preserve"><tspan x="-147.83304" y="-240.66408"/></text>
 <text x="685.87146" y="-396.63107" font-family="'Bitstream Vera Sans'" font-size="7.23px" opacity=".8" xml:space="preserve"><tspan x="685.87146" y="-396.63107"/></text>
 <text x="-683.1557" y="-268.11545" font-family="'Bitstream Vera Sans'" font-size="7.23px" opacity=".8" xml:space="preserve"><tspan x="-683.1557" y="-268.11545"/></text>
 <text x="-1724.1488" y="157.46013" font-family="'Bitstream Vera Sans'" font-size="7.23px" opacity=".8" xml:space="preserve"><tspan x="-1724.1488" y="157.46013"/></text>
 <text x="-745.3382" y="210.47295" font-family="'Bitstream Vera Sans'" font-size="7.2303px" opacity=".8" xml:space="preserve"><tspan x="-745.3382" y="210.47295"/></text>
 <text x="507.59534" y="8.0376778" font-family="'Bitstream Vera Sans'" font-size="7.23px" opacity=".8" xml:space="preserve"><tspan x="507.59534" y="8.0376778"/></text>
 <text x="521.27264" y="-15.218431" font-family="'Bitstream Vera Sans'" font-size="7.23px" opacity=".8" xml:space="preserve"><tspan x="521.27264" y="-15.218431"/></text>
 <text x="-318.1489" y="-32.387585" font-family="'Bitstream Vera Sans'" font-size="7.23px" opacity=".8" xml:space="preserve"><tspan x="-318.1489" y="-32.387585"/></text>
 <text x="-1359.1422" y="393.18793" font-family="'Bitstream Vera Sans'" font-size="7.23px" opacity=".8" xml:space="preserve"><tspan x="-1359.1422" y="393.18793"/></text>
 <text x="-252.7953" y="-252.33583" font-family="'Bitstream Vera Sans'" font-size="7.23px" opacity=".8" xml:space="preserve"><tspan x="-252.7953" y="-252.33583"/></text>
 <text x="208.19876" y="-488.35211" font-family="'Bitstream Vera Sans'" font-size="7.23px" opacity=".8" xml:space="preserve"><tspan x="208.19876" y="-488.35211"/></text>
 <text x="221.8761" y="-511.60825" font-family="'Bitstream Vera Sans'" font-size="7.23px" opacity=".8" xml:space="preserve"><tspan x="221.8761" y="-511.60825"/></text>
 <text x="-629.47833" y="-515.72382" font-family="'Bitstream Vera Sans'" font-size="7.23px" opacity=".8" xml:space="preserve"><tspan x="-629.47833" y="-515.72382"/></text>
 <text x="204.22617" y="-671.6908" font-family="'Bitstream Vera Sans'" font-size="7.23px" opacity=".8" xml:space="preserve"><tspan x="204.22617" y="-671.6908"/></text>
 <text x="1052.5326" y="-313.96396" font-family="'Bitstream Vera Sans'" font-size="7.23px" opacity=".8" xml:space="preserve"><tspan x="1052.5326" y="-313.96396"/></text>
 <text x="1066.2098" y="-337.22009" font-family="'Bitstream Vera Sans'" font-size="7.23px" opacity=".8" xml:space="preserve"><tspan x="1066.2098" y="-337.22009"/></text>
 <text x="214.85545" y="-341.33563" font-family="'Bitstream Vera Sans'" font-size="7.23px" opacity=".8" xml:space="preserve"><tspan x="214.85545" y="-341.33563"/></text>
 <text x="1048.5601" y="-497.30258" font-family="'Bitstream Vera Sans'" font-size="7.23px" opacity=".8" xml:space="preserve"><tspan x="1048.5601" y="-497.30258"/></text>
 <text x="-320.46722" y="-368.78705" font-family="'Bitstream Vera Sans'" font-size="7.23px" opacity=".8" xml:space="preserve"><tspan x="-320.46722" y="-368.78705"/></text>
 <text x="-1361.4603" y="56.788559" font-family="'Bitstream Vera Sans'" font-size="7.23px" opacity=".8" xml:space="preserve"><tspan x="-1361.4603" y="56.788559"/></text>
 <text x="-382.64661" y="109.80167" font-family="'Bitstream Vera Sans'" font-size="7.23px" opacity=".8" xml:space="preserve"><tspan x="-382.64661" y="109.80167"/></text>
 <text x="250.40475" y="7.5212307" font-family="'Bitstream Vera Sans'" font-size="7.23px" opacity=".8" xml:space="preserve"><tspan x="250.40475" y="7.5212307"/></text>
 <text x="264.08209" y="-15.734878" font-family="'Bitstream Vera Sans'" font-size="7.23px" opacity=".8" xml:space="preserve"><tspan x="264.08209" y="-15.734878"/></text>
 <text x="-587.27234" y="-19.850462" font-family="'Bitstream Vera Sans'" font-size="7.23px" opacity=".8" xml:space="preserve"><tspan x="-587.27234" y="-19.850462"/></text>
 <text x="246.43216" y="-175.81744" font-family="'Bitstream Vera Sans'" font-size="7.23px" opacity=".8" xml:space="preserve"><tspan x="246.43216" y="-175.81744"/></text>
 <text x="-340.21753" y="-21.399803" font-family="'Bitstream Vera Sans'" font-size="7.23px" opacity=".8" xml:space="preserve"><tspan x="-340.21753" y="-21.399803"/></text>
 <text x="-1381.2108" y="404.17578" font-family="'Bitstream Vera Sans'" font-size="7.23px" opacity=".8" xml:space="preserve"><tspan x="-1381.2108" y="404.17578"/></text>
 <text x="-253.97086" y="-513.17719" font-family="'Bitstream Vera Sans'" font-size="7.23px" opacity=".8" xml:space="preserve"><tspan x="-253.97086" y="-513.17719"/></text>
 <text x="207.02321" y="-749.19348" font-family="'Bitstream Vera Sans'" font-size="7.23px" opacity=".8" xml:space="preserve"><tspan x="207.02321" y="-749.19348"/></text>
 <text x="220.70053" y="-772.44965" font-family="'Bitstream Vera Sans'" font-size="7.23px" opacity=".8" xml:space="preserve"><tspan x="220.70053" y="-772.44965"/></text>
 <text x="-630.65387" y="-776.56519" font-family="'Bitstream Vera Sans'" font-size="7.23px" opacity=".8" xml:space="preserve"><tspan x="-630.65387" y="-776.56519"/></text>
 <text x="203.0506" y="-932.53223" font-family="'Bitstream Vera Sans'" font-size="7.23px" opacity=".8" xml:space="preserve"><tspan x="203.0506" y="-932.53223"/></text>
 <text x="1051.3569" y="-574.80542" font-family="'Bitstream Vera Sans'" font-size="7.23px" opacity=".8" xml:space="preserve"><tspan x="1051.3569" y="-574.80542"/></text>
 <text x="1065.0343" y="-598.06146" font-family="'Bitstream Vera Sans'" font-size="7.23px" opacity=".8" xml:space="preserve"><tspan x="1065.0343" y="-598.06146"/></text>
 <text x="213.67989" y="-602.177" font-family="'Bitstream Vera Sans'" font-size="7.23px" opacity=".8" xml:space="preserve"><tspan x="213.67989" y="-602.177"/></text>
 <text x="1047.3844" y="-758.14398" font-family="'Bitstream Vera Sans'" font-size="7.23px" opacity=".8" xml:space="preserve"><tspan x="1047.3844" y="-758.14398"/></text>
 <text x="-321.64279" y="-629.62836" font-family="'Bitstream Vera Sans'" font-size="7.23px" opacity=".8" xml:space="preserve"><tspan x="-321.64279" y="-629.62836"/></text>
 <text x="-1362.636" y="-204.05281" font-family="'Bitstream Vera Sans'" font-size="7.23px" opacity=".8" xml:space="preserve"><tspan x="-1362.636" y="-204.05281"/></text>
 <text x="-383.82217" y="-151.03969" font-family="'Bitstream Vera Sans'" font-size="7.23px" opacity=".8" xml:space="preserve"><tspan x="-383.82217" y="-151.03969"/></text>
 <text x="95.673485" y="-13.521489" font-family="'Bitstream Vera Sans'" font-size="7.23px" opacity=".8" xml:space="preserve"><tspan x="95.673485" y="-13.521489"/></text>
 <text x="109.35082" y="-36.777603" font-family="'Bitstream Vera Sans'" font-size="7.23px" opacity=".8" xml:space="preserve"><tspan x="109.35082" y="-36.777603"/></text>
 <text x="-615.4837" y="-147.53267" font-family="'Bitstream Vera Sans'" font-size="7.23px" opacity=".8" xml:space="preserve"><tspan x="-615.4837" y="-147.53267"/></text>
 <text x="-154.48975" y="-383.54901" font-family="'Bitstream Vera Sans'" font-size="7.23px" opacity=".8" xml:space="preserve"><tspan x="-154.48975" y="-383.54901"/></text>
 <text x="-140.81241" y="-406.80511" font-family="'Bitstream Vera Sans'" font-size="7.23px" opacity=".8" xml:space="preserve"><tspan x="-140.81241" y="-406.80511"/></text>
 <text x="-992.16681" y="-410.92068" font-family="'Bitstream Vera Sans'" font-size="7.23px" opacity=".8" xml:space="preserve"><tspan x="-992.16681" y="-410.92068"/></text>
 <text x="-158.46233" y="-566.88763" font-family="'Bitstream Vera Sans'" font-size="7.23px" opacity=".8" xml:space="preserve"><tspan x="-158.46233" y="-566.88763"/></text>
 <text x="689.84406" y="-209.16081" font-family="'Bitstream Vera Sans'" font-size="7.23px" opacity=".8" xml:space="preserve"><tspan x="689.84406" y="-209.16081"/></text>
 <text x="703.52136" y="-232.41693" font-family="'Bitstream Vera Sans'" font-size="7.23px" opacity=".8" xml:space="preserve"><tspan x="703.52136" y="-232.41693"/></text>
 <text x="-147.83304" y="-236.5325" font-family="'Bitstream Vera Sans'" font-size="7.23px" opacity=".8" xml:space="preserve"><tspan x="-147.83304" y="-236.5325"/></text>
 <text x="685.87146" y="-392.49951" font-family="'Bitstream Vera Sans'" font-size="7.23px" opacity=".8" xml:space="preserve"><tspan x="685.87146" y="-392.49951"/></text>
 <text x="-683.1557" y="-263.98389" font-family="'Bitstream Vera Sans'" font-size="7.23px" opacity=".8" xml:space="preserve"><tspan x="-683.1557" y="-263.98389"/></text>
 <text x="-1724.1488" y="161.59171" font-family="'Bitstream Vera Sans'" font-size="7.23px" opacity=".8" xml:space="preserve"><tspan x="-1724.1488" y="161.59171"/></text>
 <text x="-745.3382" y="214.60568" font-family="'Bitstream Vera Sans'" font-size="7.2303px" opacity=".8" xml:space="preserve"><tspan x="-745.3382" y="214.60568"/></text>
 <text x="255.68068" y="-208.46002" font-family="'Droid Sans'" font-size="7.23px" xml:space="preserve"><tspan x="255.68068" y="-208.46002"/><tspan x="255.68068" y="-199.42221"/></text>
 <text x="521.21619" y="-483.61987" font-family="'Bitstream Vera Sans'" font-size="7.23px" opacity=".8" xml:space="preserve"><tspan x="521.21619" y="-483.61987"/></text>
 <text x="-519.7771" y="-58.044323" font-family="'Bitstream Vera Sans'" font-size="7.23px" opacity=".8" xml:space="preserve"><tspan x="-519.7771" y="-58.044323"/></text>
 <text x="936.24646" y="-646.30072" font-family="'Bitstream Vera Sans'" font-size="7.23px" opacity=".8" xml:space="preserve"><tspan x="936.24646" y="-646.30072"/></text>
 <text x="949.92371" y="-669.55682" font-family="'Bitstream Vera Sans'" font-size="7.23px" opacity=".8" xml:space="preserve"><tspan x="949.92371" y="-669.55682"/></text>
 <text x="98.569313" y="-673.67236" font-family="'Bitstream Vera Sans'" font-size="7.23px" opacity=".8" xml:space="preserve"><tspan x="98.569313" y="-673.67236"/></text>
 <text x="932.27386" y="-829.6394" font-family="'Bitstream Vera Sans'" font-size="7.23px" opacity=".8" xml:space="preserve"><tspan x="932.27386" y="-829.6394"/></text>
 <path d="m15.988 23.991c-4.425 0-7.9875-3.5661-7.9875-7.9957 0-0.06705-0.00171-0.13325 0-0.19989 0.10561 4.3361 3.6293 7.7957 7.9875 7.7957 4.358 0 7.8819-3.4595 7.9875-7.7957 0.0017 0.06664 0 0.13284 0 0.19989 0 4.4296-3.5624 7.9957-7.9875 7.9957z" opacity=".1"/>
 <path d="m15.988 8.0005c-2.8021 0-5.2522 1.4368-6.6769 3.6105l3.5197 6.0964c-0.27628-0.5097-0.43708-1.0885-0.43708-1.7114 0-1.9933 1.6154-2.5768 3.5943-2.7985l7.1387-0.79997c-1.311-2.6137-4.007-4.397-7.139-4.397z" fill="#dd4d3e"/>
 <path d="m9.0791 20.017c1.4009 2.429 3.8689 3.835 6.4619 3.983l3.5146-6.0992c-0.30312 0.49424-0.7234 0.923-1.2623 1.2345-1.7244 0.99665-3.9143 0.40929-4.9099-1.317l-3.5695-6.189c-1.6065 2.4433-1.801 5.6725-0.23513 8.3877z" fill="#109f5b"/>
 <path d="m22.928 19.995c1.4011-2.4292 1.3831-5.2716 0.2149-7.5935l-0.21234-0.41004-6.9297 0.0089c0.57915 0.01566 1.2686 0.56974 1.8074 0.88117 1.7244 0.99665 2.3112 3.1887 1.3156 4.915l-3.5693 6.1889c2.917 0.17104 5.8081-1.2749 7.3738-3.9899z" fill="#ffce41"/>
 <path d="m19.101 17.795-3.113-1.799-0.467 7.999z" fill="url(#linearGradient8505)" opacity=".2"/>
 <rect transform="matrix(0,-1,-1,0,0,0)" x="-20" y="-20" width="7.9997" height="8" rx="3.9999" ry="4" fill="#fff"/>
 <rect transform="matrix(0,-1,-1,0,0,0)" x="-19" y="-19" width="6" height="6" rx="3" ry="3" fill="#4587f3"/>
</svg>
