<svg width="32" height="32" version="1.1" viewBox="0 0 32 32" xmlns="http://www.w3.org/2000/svg">
 <circle cx="16" cy="17" r="14" style="opacity:.2"/>
 <circle cx="16" cy="16" r="14" style="fill:#f6ac43"/>
 <circle cx="16" cy="17" r="10" style="opacity:.2"/>
 <circle cx="16" cy="16" r="10" style="fill:#ffffff"/>
 <path d="M 16,2 A 14,14 0 0 0 2,16 14,14 0 0 0 2.0215,16.586 14,14 0 0 1 16,3 14,14 0 0 1 29.979,16.414 14,14 0 0 0 30,16 14,14 0 0 0 16,2 Z" style="fill:#ffffff;opacity:.2"/>
 <rect x="14" y="10" width="4" height="12" rx="1.5" ry="1.5" style="opacity:.6"/>
</svg>
