<svg width="32" height="32" version="1.1" viewBox="0 0 32 32" xmlns="http://www.w3.org/2000/svg">
 <rect transform="rotate(-90)" x="-30" y="2" width="9" height="28" rx="1.25" ry="1.25" style="opacity:.2"/>
 <rect transform="rotate(-90)" x="-29" y="2" width="9" height="28" rx="1.25" ry="1.25" style="fill:#8e8e8e"/>
 <path d="m20 23 2 3" style="fill:none;opacity:.5;stroke-linecap:round;stroke-width:1.9992;stroke:#000000"/>
 <path d="m23 23 2 3" style="fill:none;opacity:.5;stroke-linecap:round;stroke-width:1.9992;stroke:#000000"/>
 <path d="m26 23 2 3" style="fill:none;opacity:.5;stroke-linecap:round;stroke-width:1.9992;stroke:#000000"/>
 <path d="m17 23 2 3" style="fill:none;opacity:.5;stroke-linecap:round;stroke-width:1.9992;stroke:#000000"/>
 <circle transform="scale(-1,1)" cx="-12.5" cy="24.5" r="1.5" style="opacity:.2"/>
 <circle transform="scale(-1,1)" cx="-8.5" cy="24.5" r="1.5" style="opacity:.2"/>
 <circle transform="scale(-1,1)" cx="-4.5" cy="24.5" r="1.5" style="opacity:.2"/>
 <circle transform="scale(-1,1)" cx="-12.5" cy="23.5" r="1.5" style="fill:#76ff03"/>
 <circle transform="scale(-1,1)" cx="-8.5" cy="23.5" r="1.5" style="fill:#ffff00"/>
 <circle transform="scale(-1,1)" cx="-4.5" cy="23.5" r="1.5" style="fill:#ffcd40"/>
 <rect transform="rotate(-90)" x="-21" y="2" width="9" height="28" rx="1.25" ry="1.25" style="opacity:.2"/>
 <rect transform="rotate(-90)" x="-20" y="2" width="9" height="28" rx="1.25" ry="1.25" style="fill:#8e8e8e"/>
 <path d="m20 14 2 3" style="fill:none;opacity:.5;stroke-linecap:round;stroke-width:1.9992;stroke:#000000"/>
 <path d="m23 14 2 3" style="fill:none;opacity:.5;stroke-linecap:round;stroke-width:1.9992;stroke:#000000"/>
 <path d="m26 14 2 3" style="fill:none;opacity:.5;stroke-linecap:round;stroke-width:1.9992;stroke:#000000"/>
 <path d="m17 14 2 3" style="fill:none;opacity:.5;stroke-linecap:round;stroke-width:1.9992;stroke:#000000"/>
 <circle transform="scale(-1,1)" cx="-8.5" cy="15.5" r="1.5" style="opacity:.2"/>
 <circle transform="scale(-1,1)" cx="-4.5" cy="15.5" r="1.5" style="opacity:.2"/>
 <circle transform="scale(-1,1)" cx="-8.5" cy="14.5" r="1.5" style="fill:#ffff00"/>
 <circle transform="scale(-1,1)" cx="-4.5" cy="14.5" r="1.5" style="fill:#ffcd40"/>
 <rect transform="rotate(-90)" x="-12" y="2" width="9" height="28" rx="1.25" ry="1.25" style="opacity:.2"/>
 <rect transform="rotate(-90)" x="-11" y="2" width="9" height="28" rx="1.25" ry="1.25" style="fill:#8e8e8e"/>
 <path d="m20 5 2 3" style="fill:none;opacity:.5;stroke-linecap:round;stroke-width:1.9992;stroke:#000000"/>
 <path d="m23 5 2 3" style="fill:none;opacity:.5;stroke-linecap:round;stroke-width:1.9992;stroke:#000000"/>
 <path d="m26 5 2 3" style="fill:none;opacity:.5;stroke-linecap:round;stroke-width:1.9992;stroke:#000000"/>
 <path d="m17 5 2 3" style="fill:none;opacity:.5;stroke-linecap:round;stroke-width:1.9992;stroke:#000000"/>
 <circle transform="scale(-1,1)" cx="-4.5" cy="6.5" r="1.5" style="opacity:.2"/>
 <circle transform="scale(-1,1)" cx="-4.5" cy="5.5" r="1.5" style="fill:#ffcd40"/>
 <path d="m28.75 2c0.6925 0 1.25 0.5575 1.25 1.25v1c0-0.6925-0.5575-1.25-1.25-1.25h-25.5c-0.692 0-1.25 0.5575-1.25 1.25v-1c0-0.6925 0.558-1.25 1.25-1.25z" style="fill:#ffffff;opacity:.2"/>
</svg>
