<svg width="32" height="32" version="1" xmlns="http://www.w3.org/2000/svg">
 <rect transform="matrix(0,-1,-1,0,0,0)" x="-31" y="-30" width="28" height="28" rx="1.4" ry="1.4" style="opacity:.2"/>
 <rect transform="matrix(0,-1,-1,0,0,0)" x="-30" y="-30" width="28" height="28" rx="1.4" ry="1.4" style="fill:#2ac4c4"/>
 <path d="m16.000001 8c-2.954655 0-5.000001 1.8323032-5.000001 4.277v1.813908c-1.4773121 0-3 0.973099-3 2.181807v6.545478c0 1.208705 1.189344 2.181807 2.666656 2.181807h10.666687c1.477315 0 2.666657-0.973102 2.666657-2.181807v-6.545478c0-1.208708-1.522686-2.181807-3-2.181807v-1.813908c0-2.4446968-2.045344-4.277-4.999999-4.277zm0 2c1.477342 0 2.999999 0.892333 2.999999 2.109v1.981908h-6v-1.981908c0-1.216667 1.522656-2.109 3.000001-2.109z" style="opacity:.2"/>
 <path d="m16.000001 7c-2.954655 0-5.000001 1.8323032-5.000001 4.277v1.813908c-1.4773121 0-3 0.973099-3 2.181807v6.545478c0 1.208705 1.189344 2.181807 2.666656 2.181807h10.666687c1.477315 0 2.666657-0.973102 2.666657-2.181807v-6.545478c0-1.208708-1.522686-2.181807-3-2.181807v-1.813908c0-2.4446968-2.045344-4.277-4.999999-4.277zm0 2c1.477342 0 2.999999 0.892333 2.999999 2.109v1.981908h-6v-1.981908c0-1.216667 1.522656-2.109 3.000001-2.109z" style="fill:#ffffff"/>
 <path d="M 3.4003906 2 C 2.6247906 2 2 2.6247906 2 3.4003906 L 2 4.4003906 C 2 3.6247906 2.6247906 3 3.4003906 3 L 28.599609 3 C 29.375209 3 30 3.6247906 30 4.4003906 L 30 3.4003906 C 30 2.6247906 29.375209 2 28.599609 2 L 3.4003906 2 z" style="fill:#ffffff;opacity:.2"/>
</svg>
