<svg width="32" height="32" version="1" xmlns="http://www.w3.org/2000/svg">
 <path d="m15.5 4 4 8.5l8.5 1-6 6.5 1.5 9-8-4.5-8 4.5 1.5-9-6-6.5 8.5-1z" fill="#e6412b"/>
 <path d="m3.832 14.402-0.832 0.098 5.8594 6.348 0.1406-0.848-5.168-5.598zm23.336 0l-5.168 5.598 0.141 0.848 5.859-6.348-0.832-0.098zm-11.668 10.098-7.8164 4.396-0.1836 1.104l8-4.5 8 4.5-0.184-1.104-7.816-4.396z" opacity=".2"/>
 <path d="m15.5 4-4 8.5-8.5 1 0.83203 0.90234l7.668-0.902 4-8.5 4 8.5 7.668 0.90234 0.832-0.902-8.5-1-4-8.5zm-6.6406 16.848-1.3594 8.152 0.1836-0.104 1.3164-7.896-0.1406-0.152zm13.281 0l-0.14 0.152 1.316 7.896 0.184 0.104-1.359-8.152z" fill="#fff" opacity=".2"/>
 <path d="m17.99921 22.99973h-4.9797v-1.0148l1.7462-1.7512q0.32995-0.33041 0.59898-0.6089 0.26904-0.27849 0.46193-0.54282t0.29949-0.5381 0.1066-0.59002q0-0.34929-0.22843-0.54282-0.22335-0.19353-0.60406-0.19353-0.40102 0-0.77157 0.18409-0.37056 0.18409-0.77665 0.52394l-0.852-0.939q0.22843-0.19353 0.47716-0.36817 0.24873-0.17936 0.54822-0.31625t0.6599-0.21713q0.3604-0.08496 0.80711-0.08496 0.533 0 0.95432 0.13688 0.4264 0.13688 0.72589 0.39177 0.29949 0.25017 0.45685 0.6089 0.16244 0.35873 0.16244 0.80715 0 0.40593-0.15228 0.77883-0.15228 0.36817-0.41624 0.7269-0.26396 0.35401-0.61421 0.70802-0.34518 0.34929-0.74112 0.71274l-0.8934 0.83547v0.06608h3.0254v1.2272z" style="opacity:.2"/>
 <path d="m17.99921 21.99973h-4.9797v-1.0148l1.7462-1.7512q0.32995-0.33041 0.59898-0.6089 0.26904-0.27849 0.46193-0.54282t0.29949-0.5381 0.1066-0.59002q0-0.34929-0.22843-0.54282-0.22335-0.19353-0.60406-0.19353-0.40102 0-0.77157 0.18409-0.37056 0.18409-0.77665 0.52394l-0.852-0.939q0.22843-0.19353 0.47716-0.36817 0.24873-0.17936 0.54822-0.31625t0.6599-0.21713q0.3604-0.08496 0.80711-0.08496 0.533 0 0.95432 0.13688 0.4264 0.13688 0.72589 0.39177 0.29949 0.25017 0.45685 0.6089 0.16244 0.35873 0.16244 0.80715 0 0.40593-0.15228 0.77883-0.15228 0.36817-0.41624 0.7269-0.26396 0.35401-0.61421 0.70802-0.34518 0.34929-0.74112 0.71274l-0.8934 0.83547v0.06608h3.0254v1.2272z" style="fill:#ffd93a"/>
</svg>
