<svg width="32" height="32" version="1.1" xmlns="http://www.w3.org/2000/svg">
 <defs>
  <linearGradient id="linearGradient3741" x1="56" x2="56" y1="92.001" y2="4.001" gradientTransform="matrix(.36866323 0 0 .37037037 -.79262201 -1.7777803)" gradientUnits="userSpaceOnUse">
   <stop stop-color="#f2f2f2" offset="0"/>
   <stop stop-color="#fff" offset="1"/>
  </linearGradient>
 </defs>
 <rect transform="matrix(0,-1,-1,0,0,0)" x="-31" y="-30" width="28" height="28" rx="2.1" ry="2.1" style="opacity:.2"/>
 <rect transform="matrix(0,-1,-1,0,0,0)" x="-30" y="-30" width="28" height="28" rx="1.4" ry="1.4" style="fill:#7ec242"/>
 <path d="M 3.4003906 2 C 2.6247906 2 2 2.6247906 2 3.4003906 L 2 4.4003906 C 2 3.6247906 2.6247906 3 3.4003906 3 L 28.599609 3 C 29.375209 3 30 3.6247906 30 4.4003906 L 30 3.4003906 C 30 2.6247906 29.375209 2 28.599609 2 L 3.4003906 2 z" style="fill:#ffffff;opacity:.2"/>
 <path d="m4 7.0000004v5.9259256h2.9493058v6.736297c0 4.062222 3.2604572 7.337777 7.3039562 7.337777h12.603858v-12.662222c0-4.062222-3.260457-7.3377776-7.303956-7.3377776h-15.553164zm1.4746529 1.4814815h14.078511c3.25161 0 5.829303 2.5896301 5.829303 5.8562961v11.180741h-11.129205c-3.25161 0-5.8293033-2.58963-5.8293033-5.856296v-6.736297c7.374e-4 -0.775555-0.7026721-1.482222-1.4746529-1.481481h-1.4746529v-2.9629631z" style="opacity:.2"/>
 <path d="m4 5.9999974v5.9259256h2.9493058v6.736297c0 4.062222 3.2604572 7.337777 7.3039562 7.337777h12.603858v-12.662222c0-4.062222-3.260457-7.3377776-7.303956-7.3377776h-15.553164zm1.4746529 1.4814815h14.078511c3.25161 0 5.829303 2.5896301 5.829303 5.8562961v11.180741h-11.129205c-3.25161 0-5.8293033-2.58963-5.8293033-5.856296v-6.736297c7.374e-4 -0.775555-0.7026721-1.482222-1.4746529-1.481481h-1.4746529v-2.9629631z" style="fill:url(#linearGradient3741)"/>
 <path d="m10.635938 9.9629634v10.370371c0 1.641481 1.315391 2.962963 2.949306 2.962963h6.635938c1.633916 0 2.949306-1.321482 2.949306-2.962963v-5.555556c0-1.431852-1.155391-2.592592-2.580643-2.592592-0.724106 0-1.374671 0.304444-1.843316 0.787037-0.468667-0.482593-1.119188-0.787037-1.843316-0.787037-1.425252 0-2.580643 1.16074-2.580643 2.592592v4.444445h1.474653v-4.444445c0-0.613629 0.495174-1.111111 1.10599-1.111111s1.10599 0.497482 1.10599 1.111111v4.444445h1.474653v-4.444445c0-0.613629 0.495173-1.111111 1.105989-1.111111s1.10599 0.497482 1.10599 1.111111v5.555556c0 0.82074-0.657695 1.481481-1.474653 1.481481h-6.635938c-0.816958 0-1.474653-0.660741-1.474653-1.481481v-10.370371h-1.474653z" style="opacity:.2"/>
 <path d="m10.635938 8.9629604v10.370371c0 1.641481 1.315391 2.962963 2.949306 2.962963h6.635938c1.633916 0 2.949306-1.321482 2.949306-2.962963v-5.555556c0-1.431852-1.155391-2.592592-2.580643-2.592592-0.724106 0-1.374671 0.304444-1.843316 0.787037-0.468667-0.482593-1.119188-0.787037-1.843316-0.787037-1.425252 0-2.580643 1.16074-2.580643 2.592592v4.444445h1.474653v-4.444445c0-0.613629 0.495174-1.111111 1.10599-1.111111s1.10599 0.497482 1.10599 1.111111v4.444445h1.474653v-4.444445c0-0.613629 0.495173-1.111111 1.105989-1.111111s1.10599 0.497482 1.10599 1.111111v5.555556c0 0.82074-0.657695 1.481481-1.474653 1.481481h-6.635938c-0.816958 0-1.474653-0.660741-1.474653-1.481481v-10.370371h-1.474653z" style="fill:#ffffff"/>
</svg>
