<svg width="32" height="32" version="1" xmlns="http://www.w3.org/2000/svg">
 <rect transform="matrix(0,-1,-1,0,0,0)" x="-28" y="-30" width="23" height="28" rx="1.437" ry="1.4" style="opacity:.2"/>
 <rect transform="matrix(0,-1,-1,0,0,0)" x="-27" y="-30" width="23" height="28" rx="1.437" ry="1.4" style="fill:#c52f2f"/>
 <circle cx="25.5" cy="10.5" r="1.5" style="opacity:.2"/>
 <path d="m2 17v8.562499c0 0.796375 0.6244 1.4375 1.4 1.4375h25.2c0.7756 0 1.4-0.641125 1.4-1.4375v-3.783265c-8.589875-3.118629-21.026041-4.727056-28-4.779234z" style="opacity:.2"/>
 <path d="m24.003987 14c0 2.209138-1.823422 4-4.072727 4-0.580527 0-1.132685-0.119292-1.63245-0.334278-1.436616-0.617997-0.66635-1.719288-0.66635-3.358266 0-0.767597-1.553784-1.792149-1.172122-2.401168 0.71676-1.143733 2.003169-1.906288 3.470922-1.906288 2.249305 0 4.072727 1.790862 4.072727 4z" style="opacity:.2"/>
 <path d="m24.003987 13c0 2.209138-1.823422 4-4.072727 4-0.580527 0-1.132685-0.119292-1.63245-0.334278-1.436616-0.617997-0.66635-1.719288-0.66635-3.358266 0-0.767597-1.553784-1.792149-1.172122-2.401168 0.71676-1.143733 2.003169-1.906288 3.470922-1.906288 2.249305 0 4.072727 1.790862 4.072727 4z" style="fill:#ff783e"/>
 <circle cx="25.5" cy="9.5" r="1.5" style="fill:#ffba46"/>
 <path d="M 5.6818182,9.0000032 C 5.3040909,9.0000032 5,9.304094 5,9.6818212 L 5,23.318182 C 5,23.695909 5.3040909,24 5.6818182,24 l 1.1692118,0 0.1944245,0 5.6489695,0 c 0.0151,0 0.02788,-0.01012 0.04261,-0.01199 C 16.781669,23.86012 19.995552,20.546655 20,16.500002 19.997464,12.446286 16.774326,9.1281934 12.72239,9.0079934 12.71259,9.0071827 12.70435,9 12.69442,9 L 7.0454505,9 6.851026,9 Z M 8,12 12.299637,12 C 14.935541,12 17.000001,13.864098 17,16.500002 17,19.135906 14.935541,21 12.299637,21 L 8,21 Z" style="opacity:.2"/>
 <path d="M 5.6818182,8.0000032 C 5.3040909,8.0000032 5,8.304094 5,8.6818212 L 5,22.318182 C 5,22.695909 5.3040909,23 5.6818182,23 l 1.1692118,0 0.1944245,0 5.6489695,0 c 0.0151,0 0.02788,-0.01012 0.04261,-0.01199 C 16.781669,22.86012 19.995552,19.546655 20,15.500002 19.997464,11.446286 16.774326,8.1281934 12.72239,8.0079934 12.71259,8.0071827 12.70435,8 12.69442,8 L 7.0454505,8 6.851026,8 Z M 8,11 12.299637,11 C 14.935541,11 17.000001,12.864098 17,15.500002 17,18.135906 14.935541,20 12.299637,20 L 8,20 Z" style="fill:#ffffff"/>
 <path d="M 3.4003906 4 C 2.6247906 4 2 4.6411251 2 5.4375 L 2 6.4375 C 2 5.6411251 2.6247906 5 3.4003906 5 L 28.599609 5 C 29.375209 5 30 5.6411251 30 6.4375 L 30 5.4375 C 30 4.6411251 29.375209 4 28.599609 4 L 3.4003906 4 z" style="fill:#ffffff;opacity:.2"/>
</svg>
