<svg width="32" height="32" version="1" xmlns="http://www.w3.org/2000/svg">
 <path d="m15.920313 19.001775a1.60016 1.4667068 0 0 0 -0.707813 0.187616l-4.1375 2.142554-1.251562-0.161838a1.60016 1.4667068 0 0 0 -1.823438 1.452238v2.281475a1.60016 1.4667068 0 0 0 0.757813 1.246003l6.4 3.630596a1.60016 1.4667068 0 0 0 1.684374 0l6.4-3.630596a1.60016 1.4667068 0 0 0 0.757813 -1.246003v-2.5006a1.60016 1.4667068 0 0 0 -2.214062 -1.354848l-1.007813 0.383825-3.942187-2.215594a1.60016 1.4667068 0 0 0 -0.915625 -0.214828z" style="opacity:.2"/>
 <path d="m15.920313 18.001775a1.60016 1.4667068 0 0 0 -0.707813 0.187616l-4.1375 2.142554-1.251562-0.161838a1.60016 1.4667068 0 0 0 -1.823438 1.452238v2.281475a1.60016 1.4667068 0 0 0 0.757813 1.246003l6.4 3.630596a1.60016 1.4667068 0 0 0 1.684374 0l6.4-3.630596a1.60016 1.4667068 0 0 0 0.757813 -1.246003v-2.5006a1.60016 1.4667068 0 0 0 -2.214062 -1.354848l-1.007813 0.383825-3.942187-2.215594a1.60016 1.4667068 0 0 0 -0.915625 -0.214828z" style="fill:#1383d9"/>
 <path d="m10 4.0000003-8 5.5l5.5 4.4999997-5.5 4.5 8 5.5 6-5 6 4.833984 8-5.333984-5.5-4.5 5.5-4.4999997-8-5.5-6 5-6-5z" style="opacity:.2"/>
 <path d="m10 3l-8 5.5 5.5 4.5-5.5 4.5 8 5.5 6-5 6 4.833984 8-5.333984-5.5-4.5 5.5-4.5-8-5.5-6 5-6-5z" style="fill:#5aacff"/>
 <path d="m24.5 14-8.5 5-8.5-5 8.5-4.9999997z" style="opacity:.2"/>
 <path d="m24.5 13-8.5 5-8.5-5 8.5-5z" style="fill:#ffffff"/>
 <path d="M 10 3 L 2 8.5 L 2.6640625 9.0429688 L 10 4 L 16 9 L 22 4 L 29.335938 9.0429688 L 30 8.5 L 22 3 L 16 8 L 10 3 z M 6.8886719 13.5 L 2 17.5 L 2.6640625 17.957031 L 7.5 14 L 6.8886719 13.5 z M 25.111328 13.5 L 24.5 14 L 29.326172 17.949219 L 30 17.5 L 25.111328 13.5 z" style="fill:#ffffff;opacity:.2"/>
</svg>
