<svg width="32" height="32" version="1.1" viewBox="0 0 32 32" xmlns="http://www.w3.org/2000/svg">
 <circle cx="16" cy="17" r="14" style="fill-rule:evenodd;opacity:.2"/>
 <path d="M 30,16 C 30,23.731986 23.731986,30 16,30 8.2680135,30 2,23.731986 2,16 2,8.2680135 8.2680135,2 16,2 c 0.156995,0 0.445963,1.162622 0.601711,1.1677501 3.504544,0.11539 5.092225,2.0491177 7.486697,4.2824135 2.648914,2.4706108 4.769083,4.2333454 4.878475,8.1148854 C 28.970644,15.698526 30,15.865614 30,16 Z" style="fill:#8e8e8e"/>
 <path d="m30 16h-14v-14c7.731986 0 14 6.2680135 14 14z" style="fill:#ff9044"/>
 <path d="m16 7a10 10 0 0 0 -10 10 10 10 0 0 0 10 10 10 10 0 0 0 10 -10 10 10 0 0 0 -10 -10zm0 2a7.9999998 7.9999998 0 0 1 8 8 7.9999998 7.9999998 0 0 1 -8 8 7.9999998 7.9999998 0 0 1 -8 -8 7.9999998 7.9999998 0 0 1 8 -8z" style="opacity:.2"/>
 <path d="m16 6a10 10 0 0 0 -10 10 10 10 0 0 0 10 10 10 10 0 0 0 10 -10 10 10 0 0 0 -10 -10zm0 2a7.9999998 7.9999998 0 0 1 8 8 7.9999998 7.9999998 0 0 1 -8 8 7.9999998 7.9999998 0 0 1 -8 -8 7.9999998 7.9999998 0 0 1 8 -8z" style="fill:#ffffff"/>
 <circle cx="16" cy="17" r="6" style="opacity:.2"/>
 <circle cx="16" cy="16" r="6" style="fill:#ffffff"/>
 <circle cx="16" cy="16" r="4" style="fill:#3f3f3f"/>
 <path d="M 16 2 A 14 14 0 0 0 2 16 A 14 14 0 0 0 2.0214844 16.585938 A 14 14 0 0 1 16 3 A 14 14 0 0 1 29.978516 16.414062 A 14 14 0 0 0 30 16 A 14 14 0 0 0 16 2 z" style="fill-rule:evenodd;fill:#ffffff;opacity:.2"/>
</svg>
