<svg width="32" height="32" version="1" xmlns="http://www.w3.org/2000/svg">
 <rect transform="matrix(0,-1,-1,0,0,0)" x="-31" y="-30" width="28" height="28" rx="1.4" ry="1.4" style="opacity:.2"/>
 <rect transform="matrix(0,-1,-1,0,0,0)" x="-30" y="-30" width="28" height="28" rx="1.4" ry="1.4" style="fill:#4f4f4f"/>
 <path d="m5 7v3 17h4v-16h18v-4h-19zm6 6v8h4v-8zm6 0v10h-6v4h10v-4-10zm6 0v14h4v-14z" style="opacity:.2"/>
 <path d="m5 6v3 17h4v-16h18v-4h-19zm6 6v8h4v-8zm6 0v10h-6v4h10v-4-10zm6 0v14h4v-14z" style="fill:#3693ee"/>
 <path d="m5 6v1h3 19v-1h-19-3zm6 6v1h4v-1h-4zm6 0v1h4v-1h-4zm6 0v1h4v-1h-4zm-12 10v1h6v-1h-6z" style="fill:#ffffff;opacity:.2"/>
 <path d="M 3.4003906 2 C 2.6247906 2 2 2.6247906 2 3.4003906 L 2 4.4003906 C 2 3.6247906 2.6247906 3 3.4003906 3 L 28.599609 3 C 29.375209 3 30 3.6247906 30 4.4003906 L 30 3.4003906 C 30 2.6247906 29.375209 2 28.599609 2 L 3.4003906 2 z" style="fill:#ffffff;opacity:.1"/>
</svg>
