<svg width="32" height="32" version="1" xmlns="http://www.w3.org/2000/svg">
 <path d="m16 3c-7.756 0-14 6.244-14 14s6.244 14 14 14 14-6.244 14-14-6.244-14-14-14z" style="opacity:.2"/>
 <path d="m16 2c-7.756 0-14 6.244-14 14s6.244 14 14 14 14-6.244 14-14-6.244-14-14-14z" style="fill:#cccccc"/>
 <path d="m16.369141 9c-1.849676 0-2.973819 2.069019-3.681641 3.908203l-0.888672 2.701172-1.130859 3.621094c-0.350994 1.018913-0.598261 2.638744-1.667969 2.769531-0.4679201 0.05721-0.4477153-1-1-1s-1 0.447715-1 1 0.4477153 1 1 1h0.6308594c2.1388996 0 3.3587316-2.690808 4.2753906-5.652344l0.513672-1.671875 0.820312-2.638672c0.423377-1.090748 0.599624-2.885289 1.759766-3.037109 0.467419-0.061168 0.447715 1 1 1s1-0.447715 1-1c0-0.5522847-0.447715-1-1-1z" style="fill:#404040"/>
 <rect x="9" y="14" width="8" height="1" style="fill:#404040"/>
 <g transform="translate(6)">
  <path d="m16.369141 9c-1.849676 0-2.973819 2.069019-3.681641 3.908203l-0.888672 2.701172-1.130859 3.621094c-0.350994 1.018913-0.598261 2.638744-1.667969 2.769531-0.4679201 0.05721-0.4477153-1-1-1s-1 0.447715-1 1 0.4477153 1 1 1h0.6308594c2.1388996 0 3.3587316-2.690808 4.2753906-5.652344l0.513672-1.671875 0.820312-2.638672c0.423377-1.090748 0.599624-2.885289 1.759766-3.037109 0.467419-0.061168 0.447715 1 1 1s1-0.447715 1-1c0-0.5522847-0.447715-1-1-1z" style="fill:#404040"/>
  <rect x="9" y="14" width="8" height="1" style="fill:#404040"/>
 </g>
 <path d="M 16 2 C 8.244 2 2 8.244 2 16 C 2 16.168842 2.0195214 16.33264 2.0253906 16.5 C 2.2891326 8.9794325 8.4128418 3 16 3 C 23.587158 3 29.710867 8.9794325 29.974609 16.5 C 29.980479 16.33264 30 16.168842 30 16 C 30 8.244 23.756 2 16 2 z" style="fill:#ffffff;opacity:.2"/>
</svg>
