<svg width="32" height="32" version="1" xmlns="http://www.w3.org/2000/svg">
 <path d="m16 3.0000001c-7.7560001 0-14 6.244-14 14 0 7.755999 6.2439999 14 14 14 7.756 0 14-6.244001 14-14 0-7.7559999-6.244-14-14-14z" style="opacity:.2"/>
 <path d="m16 2.0000001c-7.7560001 0-14 6.244-14 14 0 7.755999 6.2439999 14 14 14 7.756 0 14-6.244001 14-14 0-7.7559999-6.244-14-14-14z" style="fill:#fead38"/>
 <path d="m16.217383 2.0054689a21.003038 21.015963 0 0 0 -13.477735 18.474805c0.8161233 2.42995 2.2732154 4.555889 4.1794924 6.179687a21.003038 21.015963 0 0 1 -0.0191408 -0.84082 21.003038 21.015963 0 0 1 17.841797 -20.759375c-2.340447-1.8698495-5.294371-3.0053471-8.524414-3.0542968z" style="fill:#3f3f3f"/>
 <path d="m26.319532 6.5445316a21.003038 21.015963 0 0 0 -17.319532 20.671874 21.003038 21.015963 0 0 0 0.047852 0.936523c1.297026 0.741159 2.719369 1.288578 4.236915 1.584571a21.003038 21.015963 0 0 1 15.806053 -18.68125c-0.633568-1.6853409-1.579031-3.2104758-2.771288-4.5117184z" style="fill:#3f3f3f"/>
 <path d="M 16 2 C 8.2439999 2 2 8.2440001 2 16 C 2 16.168842 2.0195214 16.33264 2.0253906 16.5 C 2.2891326 8.9794326 8.4128417 3 16 3 C 23.587158 3 29.710867 8.9794326 29.974609 16.5 C 29.980479 16.33264 30 16.168842 30 16 C 30 8.2440001 23.756 2 16 2 z" style="fill:#ffffff;opacity:.2"/>
 <circle cx="19.5" cy="18.5" r="5.5" style="opacity:.2"/>
 <circle cx="28" cy="15" r="4" style="opacity:.2"/>
 <circle cx="19.5" cy="17.5" r="5.5" style="fill:#ffffff"/>
 <circle cx="18.5" cy="19.5" r="2.5" style="fill:#3f3f3f"/>
 <circle cx="28" cy="14" r="4" style="fill:#ffffff"/>
 <circle cx="27" cy="15" r="2" style="fill:#3f3f3f"/>
 <path d="m24 27.666667s-1.790862 1.333333-4 1.333333-4-2.527241-4-4c0 0 2.120127 1.544871 3.333334 2 2.293796 0.860508 4.666666 0.666667 4.666666 0.666667z" style="opacity:.1"/>
 <path d="m24 26.666667s-1.790862 1.333333-4 1.333333-4-2.527241-4-4c0 0 2.120127 1.544871 3.333334 2 2.293796 0.860508 4.666666 0.666667 4.666666 0.666667z" style="fill:#3f3f3f"/>
 <path d="m7.9041417 20.731422c3.0800493-1.471523 5.7992253-0.652795 6.0734513 1.828678 0.274225 2.481475-2.000343 5.686011-5.0803928 7.157535-3.0800485 1.471522-8.6123296-3.166753-8.886555-5.648227-0.27422541-2.481474 4.8134483-1.866463 7.8934965-3.337986z" style="opacity:.2"/>
 <path d="m7.9041417 19.731422c3.0800493-1.471523 5.7992253-0.652795 6.0734513 1.828678 0.274225 2.481475-2.000343 5.686011-5.0803928 7.157535-3.0800485 1.471522-8.6123296-3.166753-8.886555-5.648227-0.27422541-2.481474 4.8134483-1.866463 7.8934965-3.337986z" style="fill:#cccccc"/>
 <path d="m11.107422 19.009766c-0.943621-0.059221-2.0481066 0.168882-3.2031251 0.720703-3.0800482 1.471523-8.1687567 0.85837-7.8945313 3.339843 0.012549914 0.113565 0.048195109 0.235616 0.08203125 0.357422 0.64134216-1.731801 5.0361448-1.370835 7.8125-2.697265 3.0513591-1.457816 5.7458841-0.663946 6.0625001 1.763672 0.039016-0.319085 0.045102-0.63151 0.011719-0.933594-0.171392-1.550921-1.298393-2.45208-2.871094-2.550781z" style="fill:#ffffff;opacity:.2"/>
</svg>
