<svg width="32" height="32" version="1" xmlns="http://www.w3.org/2000/svg">
 <ellipse transform="matrix(.84250019 -.53869605 .43439331 .90072329 0 0)" cx="6.859" cy="23.531" rx="13.278" ry="9.997" style="opacity:.2"/>
 <ellipse transform="matrix(.84250019 -.53869605 .43439331 .90072329 0 0)" cx="7.296" cy="22.682" rx="13.278" ry="9.997" style="fill:#6e6e6e"/>
 <path d="M 19.884766,5.0039062 A 9.8385587,13.395998 49.086323 0 0 11.65625,7.4941406 9.8385587,13.395998 49.086323 0 0 4.0234375,20.380859 9.8385587,13.395998 49.086323 0 1 11.65625,8.4941406 9.8385587,13.395998 49.086323 0 1 27.1875,10.347656 9.8385587,13.395998 49.086323 0 1 27.976562,13.619141 9.8385587,13.395998 49.086323 0 0 27.1875,9.3476562 9.8385587,13.395998 49.086323 0 0 19.884766,5.0039062 Z" style="fill:#ffffff;opacity:.1"/>
 <rect transform="matrix(0,-1,-1,0,0,0)" x="-20" y="-9" width="7" height="7" rx="3.5" ry="3.5" style="opacity:.2"/>
 <rect transform="matrix(0,-1,-1,0,0,0)" x="-11" y="-19" width="7" height="7" rx="3.5" ry="3.5" style="opacity:.2"/>
 <rect transform="matrix(0,-1,-1,0,0,0)" x="-18" y="-31" width="7" height="7" rx="3.5" ry="3.5" style="opacity:.2"/>
 <rect transform="matrix(0,-1,-1,0,0,0)" x="-10" y="-19" width="7" height="7" rx="3.5" ry="3.5" style="fill:#3e3e3e"/>
 <rect transform="matrix(0,-1,-1,0,0,0)" x="-10" y="-18" width="5" height="5" rx="2.5" ry="2.5" style="opacity:.2"/>
 <rect transform="matrix(0,-1,-1,0,0,0)" x="-9" y="-18" width="5" height="5" rx="2.5" ry="2.5" style="fill:#6666ff"/>
 <rect transform="matrix(0,-1,-1,0,0,0)" x="-17" y="-31" width="7" height="7" rx="3.5" ry="3.5" style="fill:#3e3e3e"/>
 <rect transform="matrix(0,-1,-1,0,0,0)" x="-17" y="-30" width="5" height="5" rx="2.5" ry="2.5" style="opacity:.2"/>
 <rect transform="matrix(0,-1,-1,0,0,0)" x="-16" y="-30" width="5" height="5" rx="2.5" ry="2.5" style="fill:#6666ff"/>
 <rect transform="matrix(0,-1,-1,0,0,0)" x="-19" y="-9" width="7" height="7" rx="3.5" ry="3.5" style="fill:#3e3e3e"/>
 <rect transform="matrix(0,-1,-1,0,0,0)" x="-19" y="-8" width="5" height="5" rx="2.5" ry="2.5" style="opacity:.2"/>
 <rect transform="matrix(0,-1,-1,0,0,0)" x="-18" y="-8" width="5" height="5" rx="2.5" ry="2.5" style="fill:#6666ff"/>
 <rect transform="matrix(0,-1,-1,0,0,0)" x="-31" y="-12" width="7" height="7" rx="3.5" ry="3.5" style="opacity:.2"/>
 <rect transform="matrix(0,-1,-1,0,0,0)" x="-30" y="-12" width="7" height="7" rx="3.5" ry="3.5" style="fill:#3e3e3e"/>
 <rect transform="matrix(0,-1,-1,0,0,0)" x="-30" y="-11" width="5" height="5" rx="2.5" ry="2.5" style="opacity:.2"/>
 <rect transform="matrix(0,-1,-1,0,0,0)" x="-29" y="-11" width="5" height="5" rx="2.5" ry="2.5" style="fill:#6666ff"/>
 <rect transform="matrix(0,-1,-1,0,0,0)" x="-29" y="-25" width="7" height="7" rx="3.5" ry="3.5" style="opacity:.2"/>
 <rect transform="matrix(0,-1,-1,0,0,0)" x="-28" y="-25" width="7" height="7" rx="3.5" ry="3.5" style="fill:#3e3e3e"/>
 <rect transform="matrix(0,-1,-1,0,0,0)" x="-28" y="-24" width="5" height="5" rx="2.5" ry="2.5" style="opacity:.2"/>
 <rect transform="matrix(0,-1,-1,0,0,0)" x="-27" y="-24" width="5" height="5" rx="2.5" ry="2.5" style="fill:#6666ff"/>
</svg>
