<svg width="32" height="32" version="1.1" viewBox="0 0 32 32" xmlns="http://www.w3.org/2000/svg">
 <g transform="translate(0,-1020.3622)">
  <path d="m3.810643 1023.3632c-0.9930649-0.032-1.8106832 0.7234-1.8106429 2.0946v11.8724 11.8742c-4.003e-4 1.881 1.4750024 2.7088 2.6545985 1.7674l7.2301604-5.7634 7.231538-5.7633c1.178271-0.9403 1.178271-3.2883 0-4.2285l-7.231538-5.7634-7.2301604-5.7633c-0.2570157-0.205-0.5472415-0.3173-0.8439556-0.3267z" style="opacity:.2"/>
  <path d="m8.810643 1023.3632c-0.9930648-0.032-1.8106831 0.7234-1.8106429 2.0946v11.8724 11.8742c-4.002e-4 1.881 1.4750025 2.7088 2.6545985 1.7674l7.2301594-5.7634 7.231539-5.7633c1.178271-0.9403 1.178271-3.2883 0-4.2285l-7.231539-5.7634-7.2301594-5.7633c-0.2570158-0.205-0.5472415-0.3173-0.8439556-0.3267z" style="opacity:.2"/>
  <path d="m13.810643 1023.3632c-0.993065-0.032-1.810683 0.7234-1.810643 2.0946v11.8724 11.8742c-4e-4 1.881 1.475002 2.7088 2.654598 1.7674l7.23016-5.7634 7.231539-5.7633c1.178271-0.9403 1.178271-3.2883 0-4.2285l-7.231539-5.7634-7.23016-5.7633c-0.257015-0.205-0.547241-0.3173-0.843955-0.3267z" style="opacity:.2"/>
  <path d="m3.810643 1022.3632c-0.9930649-0.032-1.8106832 0.7234-1.8106429 2.0946v11.8724 11.8742c-4.003e-4 1.881 1.4750024 2.7088 2.6545985 1.7674l7.2301604-5.7634 7.231538-5.7633c1.178271-0.9403 1.178271-3.2883 0-4.2285l-7.231538-5.7634-7.2301604-5.7633c-0.2570157-0.205-0.5472415-0.3173-0.8439556-0.3267z" style="fill:#358be1"/>
  <path transform="translate(0,1020.3622)" d="m3.8105469 2.0019531c-0.9930649-0.032-1.8105872 0.72255-1.8105469 2.09375v1c-4.03e-5 -1.3712 0.817482-2.12575 1.8105469-2.09375 0.2967141 0.0094 0.5867343 0.1211719 0.84375 0.3261719l7.2304691 5.7636719 7.232422 5.7617191c0.468669 0.373974 0.742057 0.972977 0.83789 1.615234 0.145099-0.97244-0.128289-2.049008-0.83789-2.615234l-7.232422-5.7617191-7.2304691-5.7636719c-0.2570157-0.205-0.5470359-0.3167719-0.84375-0.3261719z" style="fill:#ffffff;opacity:.2"/>
  <path d="m8.810643 1022.3632c-0.9930648-0.032-1.8106831 0.7234-1.8106429 2.0946v11.8724 11.8742c-4.002e-4 1.881 1.4750025 2.7088 2.6545985 1.7674l7.2301594-5.7634 7.231539-5.7633c1.178271-0.9403 1.178271-3.2883 0-4.2285l-7.231539-5.7634-7.2301594-5.7633c-0.2570158-0.205-0.5472415-0.3173-0.8439556-0.3267z" style="fill:#cccccc"/>
  <path transform="translate(0,1020.3622)" d="m8.8105469 2.0019531c-0.9930648-0.032-1.8105871 0.72255-1.8105469 2.09375v1c-4.02e-5 -1.3712 0.8174821-2.12575 1.8105469-2.09375 0.2967141 0.0094 0.5867342 0.1211719 0.84375 0.3261719l7.2304691 5.7636719 7.232422 5.7617191c0.468669 0.373974 0.742057 0.972977 0.83789 1.615234 0.145099-0.97244-0.128289-2.049008-0.83789-2.615234l-7.232422-5.7617191-7.2304691-5.7636719c-0.2570158-0.205-0.5470359-0.3167719-0.84375-0.3261719z" style="fill:#ffffff;opacity:.2"/>
  <path d="m13.810643 1022.3632c-0.993065-0.032-1.810683 0.7234-1.810643 2.0946v11.8724 11.8742c-4e-4 1.881 1.475002 2.7088 2.654598 1.7674l7.23016-5.7634 7.231539-5.7633c1.178271-0.9403 1.178271-3.2883 0-4.2285l-7.231539-5.7634-7.23016-5.7633c-0.257015-0.205-0.547241-0.3173-0.843955-0.3267z" style="fill:#f47329"/>
  <path transform="translate(0,1020.3622)" d="m13.810547 2.0019531c-0.993065-0.032-1.810587 0.72255-1.810547 2.09375v1c-4e-5 -1.3712 0.817482-2.12575 1.810547-2.09375 0.296714 0.0094 0.586735 0.1211719 0.84375 0.3261719l7.230469 5.7636719 7.232422 5.7617191c0.468669 0.373974 0.742057 0.972977 0.83789 1.615234 0.145099-0.97244-0.128289-2.049008-0.83789-2.615234l-7.232422-5.7617191-7.230469-5.7636719c-0.257015-0.205-0.547036-0.3167719-0.84375-0.3261719z" style="fill:#ffffff;opacity:.2"/>
 </g>
</svg>
