<svg width="32" height="32" version="1.0" xmlns="http://www.w3.org/2000/svg">
 <text x="877.22626" y="-5.1873989" font-family="'Bitstream Vera Sans'" font-size="12.666px" opacity=".8" xml:space="preserve"><tspan x="877.22626" y="-5.1873989"/></text>
 <text x="901.18719" y="-45.929108" font-family="'Bitstream Vera Sans'" font-size="12.666px" opacity=".8" xml:space="preserve"><tspan x="901.18719" y="-45.929108"/></text>
 <text x="-569.37115" y="-76.007248" font-family="'Bitstream Vera Sans'" font-size="12.666px" opacity=".8" xml:space="preserve"><tspan x="-569.37115" y="-76.007248"/></text>
 <text x="-2393.0571" y="669.5462" font-family="'Bitstream Vera Sans'" font-size="12.666px" opacity=".8" xml:space="preserve"><tspan x="-2393.0571" y="669.5462"/></text>
 <text x="-454.88007" y="-461.32822" font-family="'Bitstream Vera Sans'" font-size="12.666px" opacity=".8" xml:space="preserve"><tspan x="-454.88007" y="-461.32822"/></text>
 <text x="352.72208" y="-874.79834" font-family="'Bitstream Vera Sans'" font-size="12.666px" opacity=".8" xml:space="preserve"><tspan x="352.72208" y="-874.79834"/></text>
 <text x="376.68301" y="-915.54004" font-family="'Bitstream Vera Sans'" font-size="12.666px" opacity=".8" xml:space="preserve"><tspan x="376.68301" y="-915.54004"/></text>
 <text x="-1114.7802" y="-922.74994" font-family="'Bitstream Vera Sans'" font-size="12.666px" opacity=".8" xml:space="preserve"><tspan x="-1114.7802" y="-922.74994"/></text>
 <text x="345.7626" y="-1195.9841" font-family="'Bitstream Vera Sans'" font-size="12.666px" opacity=".8" xml:space="preserve"><tspan x="345.7626" y="-1195.9841"/></text>
 <text x="1831.8861" y="-569.29272" font-family="'Bitstream Vera Sans'" font-size="12.666px" opacity=".8" xml:space="preserve"><tspan x="1831.8861" y="-569.29272"/></text>
 <text x="1855.8469" y="-610.03448" font-family="'Bitstream Vera Sans'" font-size="12.666px" opacity=".8" xml:space="preserve"><tspan x="1855.8469" y="-610.03448"/></text>
 <text x="364.38376" y="-617.24438" font-family="'Bitstream Vera Sans'" font-size="12.666px" opacity=".8" xml:space="preserve"><tspan x="364.38376" y="-617.24438"/></text>
 <text x="1824.9266" y="-890.47839" font-family="'Bitstream Vera Sans'" font-size="12.666px" opacity=".8" xml:space="preserve"><tspan x="1824.9266" y="-890.47839"/></text>
 <text x="-573.43256" y="-665.33569" font-family="'Bitstream Vera Sans'" font-size="12.666px" opacity=".8" xml:space="preserve"><tspan x="-573.43256" y="-665.33569"/></text>
 <text x="-2397.1182" y="80.217857" font-family="'Bitstream Vera Sans'" font-size="12.666px" opacity=".8" xml:space="preserve"><tspan x="-2397.1182" y="80.217857"/></text>
 <text x="-682.36279" y="173.09" font-family="'Bitstream Vera Sans'" font-size="12.666px" opacity=".8" xml:space="preserve"><tspan x="-682.36279" y="173.09"/></text>
 <text x="426.66153" y="-6.0921478" font-family="'Bitstream Vera Sans'" font-size="12.666px" opacity=".8" xml:space="preserve"><tspan x="426.66153" y="-6.0921478"/></text>
 <text x="450.62247" y="-46.833855" font-family="'Bitstream Vera Sans'" font-size="12.666px" opacity=".8" xml:space="preserve"><tspan x="450.62247" y="-46.833855"/></text>
 <text x="-1040.8407" y="-54.043827" font-family="'Bitstream Vera Sans'" font-size="12.666px" opacity=".8" xml:space="preserve"><tspan x="-1040.8407" y="-54.043827"/></text>
 <text x="419.70206" y="-327.27789" font-family="'Bitstream Vera Sans'" font-size="12.666px" opacity=".8" xml:space="preserve"><tspan x="419.70206" y="-327.27789"/></text>
 <text x="-608.03253" y="-56.758072" font-family="'Bitstream Vera Sans'" font-size="12.666px" opacity=".8" xml:space="preserve"><tspan x="-608.03253" y="-56.758072"/></text>
 <text x="-2431.7185" y="688.79541" font-family="'Bitstream Vera Sans'" font-size="12.666px" opacity=".8" xml:space="preserve"><tspan x="-2431.7185" y="688.79541"/></text>
 <text x="-456.93948" y="-918.28857" font-family="'Bitstream Vera Sans'" font-size="12.666px" opacity=".8" xml:space="preserve"><tspan x="-456.93948" y="-918.28857"/></text>
 <text x="350.66266" y="-1331.7588" font-family="'Bitstream Vera Sans'" font-size="12.666px" opacity=".8" xml:space="preserve"><tspan x="350.66266" y="-1331.7588"/></text>
 <text x="374.62357" y="-1372.5005" font-family="'Bitstream Vera Sans'" font-size="12.666px" opacity=".8" xml:space="preserve"><tspan x="374.62357" y="-1372.5005"/></text>
 <text x="-1116.8396" y="-1379.7104" font-family="'Bitstream Vera Sans'" font-size="12.666px" opacity=".8" xml:space="preserve"><tspan x="-1116.8396" y="-1379.7104"/></text>
 <text x="343.70316" y="-1652.9446" font-family="'Bitstream Vera Sans'" font-size="12.666px" opacity=".8" xml:space="preserve"><tspan x="343.70316" y="-1652.9446"/></text>
 <text x="1829.8265" y="-1026.2533" font-family="'Bitstream Vera Sans'" font-size="12.666px" opacity=".8" xml:space="preserve"><tspan x="1829.8265" y="-1026.2533"/></text>
 <text x="1853.7874" y="-1066.9949" font-family="'Bitstream Vera Sans'" font-size="12.666px" opacity=".8" xml:space="preserve"><tspan x="1853.7874" y="-1066.9949"/></text>
 <text x="362.32431" y="-1074.2048" font-family="'Bitstream Vera Sans'" font-size="12.666px" opacity=".8" xml:space="preserve"><tspan x="362.32431" y="-1074.2048"/></text>
 <text x="1822.8671" y="-1347.439" font-family="'Bitstream Vera Sans'" font-size="12.666px" opacity=".8" xml:space="preserve"><tspan x="1822.8671" y="-1347.439"/></text>
 <text x="-575.492" y="-1122.2961" font-family="'Bitstream Vera Sans'" font-size="12.666px" opacity=".8" xml:space="preserve"><tspan x="-575.492" y="-1122.2961"/></text>
 <text x="-2399.1777" y="-376.74261" font-family="'Bitstream Vera Sans'" font-size="12.666px" opacity=".8" xml:space="preserve"><tspan x="-2399.1777" y="-376.74261"/></text>
 <text x="-684.42224" y="-283.87045" font-family="'Bitstream Vera Sans'" font-size="12.666px" opacity=".8" xml:space="preserve"><tspan x="-684.42224" y="-283.87045"/></text>
 <text x="155.5923" y="-42.956276" font-family="'Bitstream Vera Sans'" font-size="12.666px" opacity=".8" xml:space="preserve"><tspan x="155.5923" y="-42.956276"/></text>
 <text x="179.55324" y="-83.697998" font-family="'Bitstream Vera Sans'" font-size="12.666px" opacity=".8" xml:space="preserve"><tspan x="179.55324" y="-83.697998"/></text>
 <text x="-1090.2634" y="-277.72662" font-family="'Bitstream Vera Sans'" font-size="12.666px" opacity=".8" xml:space="preserve"><tspan x="-1090.2634" y="-277.72662"/></text>
 <text x="-282.66141" y="-691.19678" font-family="'Bitstream Vera Sans'" font-size="12.666px" opacity=".8" xml:space="preserve"><tspan x="-282.66141" y="-691.19678"/></text>
 <text x="-258.70047" y="-731.93848" font-family="'Bitstream Vera Sans'" font-size="12.666px" opacity=".8" xml:space="preserve"><tspan x="-258.70047" y="-731.93848"/></text>
 <text x="-1750.1636" y="-739.14838" font-family="'Bitstream Vera Sans'" font-size="12.666px" opacity=".8" xml:space="preserve"><tspan x="-1750.1636" y="-739.14838"/></text>
 <text x="-289.62085" y="-1012.3825" font-family="'Bitstream Vera Sans'" font-size="12.666px" opacity=".8" xml:space="preserve"><tspan x="-289.62085" y="-1012.3825"/></text>
 <text x="1196.5026" y="-385.69113" font-family="'Bitstream Vera Sans'" font-size="12.666px" opacity=".8" xml:space="preserve"><tspan x="1196.5026" y="-385.69113"/></text>
 <text x="1220.4634" y="-426.43286" font-family="'Bitstream Vera Sans'" font-size="12.666px" opacity=".8" xml:space="preserve"><tspan x="1220.4634" y="-426.43286"/></text>
 <text x="-270.99973" y="-433.64282" font-family="'Bitstream Vera Sans'" font-size="12.666px" opacity=".8" xml:space="preserve"><tspan x="-270.99973" y="-433.64282"/></text>
 <text x="1189.5431" y="-706.87689" font-family="'Bitstream Vera Sans'" font-size="12.666px" opacity=".8" xml:space="preserve"><tspan x="1189.5431" y="-706.87689"/></text>
 <text x="-1208.816" y="-481.7341" font-family="'Bitstream Vera Sans'" font-size="12.666px" opacity=".8" xml:space="preserve"><tspan x="-1208.816" y="-481.7341"/></text>
 <text x="-3032.5017" y="263.81946" font-family="'Bitstream Vera Sans'" font-size="12.666px" opacity=".8" xml:space="preserve"><tspan x="-3032.5017" y="263.81946"/></text>
 <g transform="matrix(.90475 0 0 .90475 -716.75 -692.29)">
  <text x="-664.2738" y="1159.4154" font-family="'Bitstream Vera Sans'" font-size="14px" opacity=".8" xml:space="preserve"><tspan x="-664.2738" y="1159.4154"/></text>
 </g>
 <text x="877.22626" y="2.0505886" font-family="'Bitstream Vera Sans'" font-size="12.666px" opacity=".8" xml:space="preserve"><tspan x="877.22626" y="2.0505886"/></text>
 <text x="901.18719" y="-38.691116" font-family="'Bitstream Vera Sans'" font-size="12.666px" opacity=".8" xml:space="preserve"><tspan x="901.18719" y="-38.691116"/></text>
 <text x="-569.37115" y="-68.769257" font-family="'Bitstream Vera Sans'" font-size="12.666px" opacity=".8" xml:space="preserve"><tspan x="-569.37115" y="-68.769257"/></text>
 <text x="-2393.0571" y="676.78418" font-family="'Bitstream Vera Sans'" font-size="12.666px" opacity=".8" xml:space="preserve"><tspan x="-2393.0571" y="676.78418"/></text>
 <text x="-454.88007" y="-454.09021" font-family="'Bitstream Vera Sans'" font-size="12.666px" opacity=".8" xml:space="preserve"><tspan x="-454.88007" y="-454.09021"/></text>
 <text x="352.72208" y="-867.5603" font-family="'Bitstream Vera Sans'" font-size="12.666px" opacity=".8" xml:space="preserve"><tspan x="352.72208" y="-867.5603"/></text>
 <text x="376.68301" y="-908.30206" font-family="'Bitstream Vera Sans'" font-size="12.666px" opacity=".8" xml:space="preserve"><tspan x="376.68301" y="-908.30206"/></text>
 <text x="-1114.7802" y="-915.51196" font-family="'Bitstream Vera Sans'" font-size="12.666px" opacity=".8" xml:space="preserve"><tspan x="-1114.7802" y="-915.51196"/></text>
 <text x="345.7626" y="-1188.7461" font-family="'Bitstream Vera Sans'" font-size="12.666px" opacity=".8" xml:space="preserve"><tspan x="345.7626" y="-1188.7461"/></text>
 <text x="1831.8861" y="-562.05475" font-family="'Bitstream Vera Sans'" font-size="12.666px" opacity=".8" xml:space="preserve"><tspan x="1831.8861" y="-562.05475"/></text>
 <text x="1855.8469" y="-602.79651" font-family="'Bitstream Vera Sans'" font-size="12.666px" opacity=".8" xml:space="preserve"><tspan x="1855.8469" y="-602.79651"/></text>
 <text x="364.38376" y="-610.00641" font-family="'Bitstream Vera Sans'" font-size="12.666px" opacity=".8" xml:space="preserve"><tspan x="364.38376" y="-610.00641"/></text>
 <text x="1824.9266" y="-883.24036" font-family="'Bitstream Vera Sans'" font-size="12.666px" opacity=".8" xml:space="preserve"><tspan x="1824.9266" y="-883.24036"/></text>
 <text x="-573.43256" y="-658.09772" font-family="'Bitstream Vera Sans'" font-size="12.666px" opacity=".8" xml:space="preserve"><tspan x="-573.43256" y="-658.09772"/></text>
 <text x="-2397.1182" y="87.455849" font-family="'Bitstream Vera Sans'" font-size="12.666px" opacity=".8" xml:space="preserve"><tspan x="-2397.1182" y="87.455849"/></text>
 <text x="-682.36279" y="180.32799" font-family="'Bitstream Vera Sans'" font-size="12.666px" opacity=".8" xml:space="preserve"><tspan x="-682.36279" y="180.32799"/></text>
 <text x="426.66153" y="1.1458397" font-family="'Bitstream Vera Sans'" font-size="12.666px" opacity=".8" xml:space="preserve"><tspan x="426.66153" y="1.1458397"/></text>
 <text x="450.62247" y="-39.595863" font-family="'Bitstream Vera Sans'" font-size="12.666px" opacity=".8" xml:space="preserve"><tspan x="450.62247" y="-39.595863"/></text>
 <text x="-1040.8407" y="-46.805836" font-family="'Bitstream Vera Sans'" font-size="12.666px" opacity=".8" xml:space="preserve"><tspan x="-1040.8407" y="-46.805836"/></text>
 <text x="419.70206" y="-320.03989" font-family="'Bitstream Vera Sans'" font-size="12.666px" opacity=".8" xml:space="preserve"><tspan x="419.70206" y="-320.03989"/></text>
 <text x="-608.03253" y="-49.520081" font-family="'Bitstream Vera Sans'" font-size="12.666px" opacity=".8" xml:space="preserve"><tspan x="-608.03253" y="-49.520081"/></text>
 <text x="-2431.7185" y="696.03345" font-family="'Bitstream Vera Sans'" font-size="12.666px" opacity=".8" xml:space="preserve"><tspan x="-2431.7185" y="696.03345"/></text>
 <text x="-456.93948" y="-911.0506" font-family="'Bitstream Vera Sans'" font-size="12.666px" opacity=".8" xml:space="preserve"><tspan x="-456.93948" y="-911.0506"/></text>
 <text x="350.66266" y="-1324.5208" font-family="'Bitstream Vera Sans'" font-size="12.666px" opacity=".8" xml:space="preserve"><tspan x="350.66266" y="-1324.5208"/></text>
 <text x="374.62357" y="-1365.2626" font-family="'Bitstream Vera Sans'" font-size="12.666px" opacity=".8" xml:space="preserve"><tspan x="374.62357" y="-1365.2626"/></text>
 <text x="-1116.8396" y="-1372.4724" font-family="'Bitstream Vera Sans'" font-size="12.666px" opacity=".8" xml:space="preserve"><tspan x="-1116.8396" y="-1372.4724"/></text>
 <text x="343.70316" y="-1645.7065" font-family="'Bitstream Vera Sans'" font-size="12.666px" opacity=".8" xml:space="preserve"><tspan x="343.70316" y="-1645.7065"/></text>
 <text x="1829.8265" y="-1019.0153" font-family="'Bitstream Vera Sans'" font-size="12.666px" opacity=".8" xml:space="preserve"><tspan x="1829.8265" y="-1019.0153"/></text>
 <text x="1853.7874" y="-1059.757" font-family="'Bitstream Vera Sans'" font-size="12.666px" opacity=".8" xml:space="preserve"><tspan x="1853.7874" y="-1059.757"/></text>
 <text x="362.32431" y="-1066.9668" font-family="'Bitstream Vera Sans'" font-size="12.666px" opacity=".8" xml:space="preserve"><tspan x="362.32431" y="-1066.9668"/></text>
 <text x="1822.8671" y="-1340.2009" font-family="'Bitstream Vera Sans'" font-size="12.666px" opacity=".8" xml:space="preserve"><tspan x="1822.8671" y="-1340.2009"/></text>
 <text x="-575.492" y="-1115.0581" font-family="'Bitstream Vera Sans'" font-size="12.666px" opacity=".8" xml:space="preserve"><tspan x="-575.492" y="-1115.0581"/></text>
 <text x="-2399.1777" y="-369.50461" font-family="'Bitstream Vera Sans'" font-size="12.666px" opacity=".8" xml:space="preserve"><tspan x="-2399.1777" y="-369.50461"/></text>
 <text x="-684.42224" y="-276.63245" font-family="'Bitstream Vera Sans'" font-size="12.666px" opacity=".8" xml:space="preserve"><tspan x="-684.42224" y="-276.63245"/></text>
 <text x="155.5923" y="-35.718292" font-family="'Bitstream Vera Sans'" font-size="12.666px" opacity=".8" xml:space="preserve"><tspan x="155.5923" y="-35.718292"/></text>
 <text x="179.55324" y="-76.460007" font-family="'Bitstream Vera Sans'" font-size="12.666px" opacity=".8" xml:space="preserve"><tspan x="179.55324" y="-76.460007"/></text>
 <text x="-1090.2634" y="-270.48859" font-family="'Bitstream Vera Sans'" font-size="12.666px" opacity=".8" xml:space="preserve"><tspan x="-1090.2634" y="-270.48859"/></text>
 <text x="-282.66141" y="-683.9588" font-family="'Bitstream Vera Sans'" font-size="12.666px" opacity=".8" xml:space="preserve"><tspan x="-282.66141" y="-683.9588"/></text>
 <text x="-258.70047" y="-724.7005" font-family="'Bitstream Vera Sans'" font-size="12.666px" opacity=".8" xml:space="preserve"><tspan x="-258.70047" y="-724.7005"/></text>
 <text x="-1750.1636" y="-731.91046" font-family="'Bitstream Vera Sans'" font-size="12.666px" opacity=".8" xml:space="preserve"><tspan x="-1750.1636" y="-731.91046"/></text>
 <text x="-289.62085" y="-1005.1445" font-family="'Bitstream Vera Sans'" font-size="12.666px" opacity=".8" xml:space="preserve"><tspan x="-289.62085" y="-1005.1445"/></text>
 <text x="1196.5026" y="-378.45316" font-family="'Bitstream Vera Sans'" font-size="12.666px" opacity=".8" xml:space="preserve"><tspan x="1196.5026" y="-378.45316"/></text>
 <text x="1220.4634" y="-419.19489" font-family="'Bitstream Vera Sans'" font-size="12.666px" opacity=".8" xml:space="preserve"><tspan x="1220.4634" y="-419.19489"/></text>
 <text x="-270.99973" y="-426.40482" font-family="'Bitstream Vera Sans'" font-size="12.666px" opacity=".8" xml:space="preserve"><tspan x="-270.99973" y="-426.40482"/></text>
 <text x="1189.5431" y="-699.63892" font-family="'Bitstream Vera Sans'" font-size="12.666px" opacity=".8" xml:space="preserve"><tspan x="1189.5431" y="-699.63892"/></text>
 <text x="-1208.816" y="-474.49609" font-family="'Bitstream Vera Sans'" font-size="12.666px" opacity=".8" xml:space="preserve"><tspan x="-1208.816" y="-474.49609"/></text>
 <text x="-3032.5017" y="271.05743" font-family="'Bitstream Vera Sans'" font-size="12.666px" opacity=".8" xml:space="preserve"><tspan x="-3032.5017" y="271.05743"/></text>
 <g transform="matrix(.90475 0 0 .90475 -716.75 -685.05)">
  <text x="-664.2738" y="1159.4154" font-family="'Bitstream Vera Sans'" font-size="14px" opacity=".8" xml:space="preserve"><tspan x="-664.2738" y="1159.4154"/></text>
 </g>
 <text x="435.90427" y="-377.22546" font-family="'Droid Sans'" font-size="12.666px" xml:space="preserve"><tspan x="435.90427" y="-377.22546"/><tspan x="435.90427" y="-361.3924"/></text>
 <text x="901.0882" y="-859.27002" font-family="'Bitstream Vera Sans'" font-size="12.666px" opacity=".8" xml:space="preserve"><tspan x="901.0882" y="-859.27002"/></text>
 <text x="-922.59778" y="-113.71655" font-family="'Bitstream Vera Sans'" font-size="12.666px" opacity=".8" xml:space="preserve"><tspan x="-922.59778" y="-113.71655"/></text>
 <text x="1628.1677" y="-1144.2659" font-family="'Bitstream Vera Sans'" font-size="12.666px" opacity=".8" xml:space="preserve"><tspan x="1628.1677" y="-1144.2659"/></text>
 <text x="1652.1285" y="-1185.0076" font-family="'Bitstream Vera Sans'" font-size="12.666px" opacity=".8" xml:space="preserve"><tspan x="1652.1285" y="-1185.0076"/></text>
 <text x="160.66542" y="-1192.2175" font-family="'Bitstream Vera Sans'" font-size="12.666px" opacity=".8" xml:space="preserve"><tspan x="160.66542" y="-1192.2175"/></text>
 <text x="1621.2083" y="-1465.4517" font-family="'Bitstream Vera Sans'" font-size="12.666px" opacity=".8" xml:space="preserve"><tspan x="1621.2083" y="-1465.4517"/></text>
 <rect transform="matrix(0,-1,-1,0,0,0)" x="-30" y="-29.999" width="28" height="27.998" rx="14" ry="13.999" fill="#4d4d4d"/>
 <path d="m10.05 10.276c-1.8684 1.6469-3.0498 4.0526-3.0498 6.7506 0 3.6446 2.1491 6.7623 5.25 8.1804v0.07032h0.14502c0.43354 0.18886 0.88903 0.33403 1.355 0.45414v1.528a10.5 10.501 0 0 1 -8.25 -10.232 10.5 10.501 0 0 1 0.4424 -3h-1.5513a12 12.001 0 0 0 -0.3911 3 12 12.001 0 0 0 11.25 11.973v-5.30029c0.2584 0.04049 0.51514 0.07195 0.76611 0.07764 0.2596-0.01061 0.49657-0.04237 0.73389-0.07325v5.28558a12 12.001 0 0 0 11.25 -11.963 12 12.001 0 0 0 -0.397 -3h-1.5498a10.5 10.501 0 0 1 0.44678 3.0003 10.5 10.501 0 0 1 -8.25 10.243v-1.5382c0.46595-0.12011 0.92144-0.26528 1.355-0.45414h0.14502v-0.07032c3.1009-1.4181 5.25-4.5358 5.25-8.1804 0-2.698-1.1814-5.1037-3.0498-6.7506h-2.6865c2.5089 1.2105 4.2363 3.7683 4.2363 6.7506 0 2.7855-1.5074 5.2019-3.75 6.4957v-0.97274c0.51823-0.50029 0.54714-1.256 0.01758-1.8268l-0.2959-0.3179 0.10108-0.58306c0.14983-0.86807 0.50855-1.5208 1.0386-1.8898 0.23924-0.16654 0.48175-0.35685 0.53906-0.42484 0.12827-0.15215 0.13464-0.91375 0.01171-1.3522-0.33704-1.2021-2.1042-3.7623-3.4087-4.9384-0.74101-0.66806-1.3215-0.97186-1.8823-0.93758-0.33647 0.02056-0.66483 0.16304-1.0181 0.42191-0.47122 0.34534-1.6799 1.6138-2.2515 2.3645-1.2208 1.6034-1.8516 2.8987-1.8516 3.7987 0 0.59665 0.05338 0.69256 0.56982 1.0357 0.57124 0.3796 0.9017 0.93583 1.0752 1.8122l0.1377 0.70026-0.2168 0.19484c-0.35637 0.32162-0.50603 0.6821-0.46289 1.1192 0.02964 0.30037 0.18374 0.59689 0.39697 0.82185v0.97421c-2.2426-1.2938-3.75-3.7102-3.75-6.4957 0-2.9823 1.7275-5.5401 4.2363-6.7506h-2.6865zm3.7 10.501a0.75 0.75007 0 0 1 0.75 0.75 0.75 0.75007 0 0 1 -0.75 0.75 0.75 0.75007 0 0 1 -0.75 -0.75 0.75 0.75007 0 0 1 0.75 -0.75zm4.5 0a0.75 0.75007 0 0 1 0.75 0.75007 0.75 0.75007 0 0 1 -0.75 0.75007 0.75 0.75007 0 0 1 -0.75 -0.75 0.75 0.75007 0 0 1 0.75 -0.75z" opacity=".2"/>
 <path d="m10.05 9.2762c-1.8684 1.6469-3.0498 4.0526-3.0498 6.7506 0 3.6446 2.1491 6.7623 5.25 8.1804v0.07032h0.14502c0.43354 0.18886 0.88903 0.33403 1.355 0.45414v1.528a10.5 10.501 0 0 1 -8.25 -10.232 10.5 10.501 0 0 1 0.4424 -3h-1.5513a12 12.001 0 0 0 -0.3911 3 12 12.001 0 0 0 11.25 11.973v-5.30029c0.2584 0.04049 0.51514 0.07195 0.76611 0.07764 0.2596-0.01061 0.49657-0.04237 0.73389-0.07325v5.28558a12 12.001 0 0 0 11.25 -11.963 12 12.001 0 0 0 -0.397 -3h-1.5498a10.5 10.501 0 0 1 0.44678 3.0003 10.5 10.501 0 0 1 -8.25 10.243v-1.5382c0.46595-0.12011 0.92144-0.26528 1.355-0.45414h0.14502v-0.07032c3.1009-1.4181 5.25-4.5358 5.25-8.1804 0-2.698-1.1814-5.1037-3.0498-6.7506h-2.6865c2.5089 1.2105 4.2363 3.7683 4.2363 6.7506 0 2.7855-1.5074 5.2019-3.75 6.4957v-0.97274c0.51823-0.50029 0.54714-1.256 0.01758-1.8268l-0.2959-0.3179 0.10108-0.58306c0.14983-0.86807 0.50855-1.5208 1.0386-1.8898 0.23924-0.16654 0.48175-0.35685 0.53906-0.42484 0.12827-0.15215 0.13464-0.91375 0.01171-1.3522-0.33704-1.2021-2.1042-3.7623-3.4087-4.9384-0.74101-0.66806-1.3215-0.97186-1.8823-0.93758-0.33647 0.02056-0.66483 0.16304-1.0181 0.42191-0.47122 0.34534-1.6799 1.6138-2.2515 2.3645-1.2208 1.6034-1.8516 2.8987-1.8516 3.7987 0 0.59665 0.05338 0.69256 0.56982 1.0357 0.57124 0.3796 0.9017 0.93583 1.0752 1.8122l0.1377 0.70026-0.2168 0.19484c-0.35637 0.32162-0.50603 0.6821-0.46289 1.1192 0.02964 0.30037 0.18374 0.59689 0.39697 0.82185v0.97421c-2.2426-1.2938-3.75-3.7102-3.75-6.4957 0-2.9823 1.7275-5.5401 4.2363-6.7506h-2.6865zm3.7 10.501a0.75 0.75007 0 0 1 0.75 0.75 0.75 0.75007 0 0 1 -0.75 0.75 0.75 0.75007 0 0 1 -0.75 -0.75 0.75 0.75007 0 0 1 0.75 -0.75zm4.5 0a0.75 0.75007 0 0 1 0.75 0.75007 0.75 0.75007 0 0 1 -0.75 0.75007 0.75 0.75007 0 0 1 -0.75 -0.75 0.75 0.75007 0 0 1 0.75 -0.75z" fill="#3fb2ab"/>
 <path d="m2.0273 16.5c-0.0058 0.167-0.0253 0.331-0.0253 0.5 0 7.756 6.2427 14 13.998 14 7.755 0 13.998-6.244 13.998-14 0-0.169-0.019-0.333-0.025-0.5-0.264 7.521-6.387 13.5-13.973 13.5-7.5865 0-13.709-5.979-13.973-13.5z" opacity=".2"/>
 <path d="m16 2c-7.7553 0-13.998 6.244-13.998 14 0 0.169 0.0195 0.333 0.0253 0.5 0.2638-7.5206 6.3862-13.5 13.973-13.5 7.586 0 13.709 5.9794 13.973 13.5 6e-3 -0.167 0.025-0.331 0.025-0.5 0-7.756-6.243-14-13.998-14z" fill="#fff" opacity=".1"/>
</svg>
