<svg width="32" height="32" version="1" xmlns="http://www.w3.org/2000/svg">
 <rect transform="scale(-1,1)" x="-30" y="6" width="28" height="22" rx="1.4" ry="1.375" style="opacity:.2"/>
 <rect transform="scale(-1,1)" x="-30" y="5" width="28" height="22" rx="1.4" ry="1.375" style="fill:#ffc543"/>
 <circle cx="8" cy="20" r="4" style="opacity:.2"/>
 <circle cx="8" cy="19" r="4" style="fill:#ff5100"/>
 <rect x="4" y="7" width="24" height="5" style="fill:#4d4d4d"/>
 <rect transform="rotate(90)" x="8" y="-13" width="4" height="3" style="fill:#ff5100"/>
 <path d="m18.5 14a1.5 1.5 0 0 0 -1.5 1.5 1.5 1.5 0 0 0 1.5 1.5 1.5 1.5 0 0 0 1.5 -1.5 1.5 1.5 0 0 0 -1.5 -1.5zm4 0a1.5 1.5 0 0 0 -1.5 1.5 1.5 1.5 0 0 0 1.5 1.5 1.5 1.5 0 0 0 1.5 -1.5 1.5 1.5 0 0 0 -1.5 -1.5zm4 0a1.5 1.5 0 0 0 -1.5 1.5 1.5 1.5 0 0 0 1.5 1.5 1.5 1.5 0 0 0 1.5 -1.5 1.5 1.5 0 0 0 -1.5 -1.5zm-8 4a1.5 1.5 0 0 0 -1.5 1.5 1.5 1.5 0 0 0 1.5 1.5 1.5 1.5 0 0 0 1.5 -1.5 1.5 1.5 0 0 0 -1.5 -1.5zm4 0a1.5 1.5 0 0 0 -1.5 1.5 1.5 1.5 0 0 0 1.5 1.5 1.5 1.5 0 0 0 1.5 -1.5 1.5 1.5 0 0 0 -1.5 -1.5zm4 0a1.5 1.5 0 0 0 -1.5 1.5 1.5 1.5 0 0 0 1.5 1.5 1.5 1.5 0 0 0 1.5 -1.5 1.5 1.5 0 0 0 -1.5 -1.5zm-8 4a1.5 1.5 0 0 0 -1.5 1.5 1.5 1.5 0 0 0 1.5 1.5 1.5 1.5 0 0 0 1.5 -1.5 1.5 1.5 0 0 0 -1.5 -1.5zm4 0a1.5 1.5 0 0 0 -1.5 1.5 1.5 1.5 0 0 0 1.5 1.5 1.5 1.5 0 0 0 1.5 -1.5 1.5 1.5 0 0 0 -1.5 -1.5zm4 0a1.5 1.5 0 0 0 -1.5 1.5 1.5 1.5 0 0 0 1.5 1.5 1.5 1.5 0 0 0 1.5 -1.5 1.5 1.5 0 0 0 -1.5 -1.5z" style="fill:#4d4d4d"/>
 <path d="M 3.4003906 5 C 2.6247906 5 2 5.61325 2 6.375 L 2 7.375 C 2 6.61325 2.6247906 6 3.4003906 6 L 28.599609 6 C 29.375209 6 30 6.61325 30 7.375 L 30 6.375 C 30 5.61325 29.375209 5 28.599609 5 L 3.4003906 5 z" style="fill:#ffffff;opacity:.2"/>
</svg>
