<svg width="32" height="32" version="1" xmlns="http://www.w3.org/2000/svg">
 <path d="m 13,3 0,2.390625 A 12,12 0 0 0 4.3945312,14 L 2,14 2,20 4.390625,20 A 12,12 0 0 0 13,28.605469 L 13,31 l 6,0 0,-2.390625 A 12,12 0 0 0 27.605469,20 L 30,20 30,14 27.609375,14 A 12,12 0 0 0 19,5.3945312 L 19,3 13,3 Z" style="opacity:.2"/>
 <path d="m13 2v2.390625a12 12 0 0 0 -8.6054688 8.609375h-2.3945312v6h2.390625a12 12 0 0 0 8.609375 8.605469v2.394531h6v-2.390625a12 12 0 0 0 8.605469 -8.609375h2.394531v-6h-2.390625a12 12 0 0 0 -8.609375 -8.6054688v-2.3945312h-6z" style="fill:#1e80ff"/>
 <rect transform="matrix(0,-1,-1,0,0,0)" x="-24" y="-23" width="14" height="14" rx="7" ry="7" style="opacity:.2"/>
 <rect transform="matrix(0,-1,-1,0,0,0)" x="-23" y="-23" width="14" height="14" rx="7" ry="7" style="fill:#ffffff"/>
 <path d="m13 2v1h6v-1h-6zm0 2.390625a12 12 0 0 0 -8.6054688 8.609375h-2.3945312v1h2.3945312a12 12 0 0 1 8.6054688 -8.609375v-1zm6 0.0039062v1a12 12 0 0 1 8.609375 8.6054688h2.390625v-1h-2.390625a12 12 0 0 0 -8.609375 -8.6054688z" style="fill:#ffffff;opacity:.2"/>
</svg>
