<svg width="32" height="32" version="1.1" viewBox="0 0 32 32" xmlns="http://www.w3.org/2000/svg">
 <rect transform="matrix(0,-1,-1,0,0,0)" x="-30" y="-30" width="28" height="28" rx="1.4" ry="1.4" fill="#ac8a78"/>
 <path d="m10.5 15v-5.5h12v5.5" fill="none" stroke="#494949"/>
 <path d="m13.5 22v-6.5h12v6.5" fill="none" stroke="#494949"/>
 <path d="m7.5 22v-6.5h12v6.5" fill="none" stroke="#494949"/>
 <g transform="translate(0,1)" opacity=".2">
  <rect x="6" y="20" width="3" height="4"/>
  <rect x="12" y="20" width="3" height="4"/>
  <rect x="18" y="20" width="3" height="4"/>
  <rect x="15" y="7" width="3" height="4"/>
  <rect x="9" y="13" width="3" height="4"/>
  <rect x="21" y="13" width="3" height="4"/>
  <rect x="24" y="20" width="3" height="4"/>
 </g>
 <g fill="#fff">
  <rect x="6" y="20" width="3" height="4"/>
  <rect x="12" y="20" width="3" height="4"/>
  <rect x="18" y="20" width="3" height="4"/>
  <rect x="15" y="7" width="3" height="4"/>
  <rect x="9" y="13" width="3" height="4"/>
  <rect x="21" y="13" width="3" height="4"/>
  <rect x="24" y="20" width="3" height="4"/>
 </g>
 <path d="m3.4004 2c-0.7756 0-1.4004 0.6248-1.4004 1.4004v1c0-0.7756 0.6248-1.4004 1.4004-1.4004h25.2c0.775 0 1.4 0.6248 1.4 1.4004v-1c0-0.7756-0.625-1.4004-1.4-1.4004h-25.2z" fill="#fff" opacity=".2"/>
 <path d="m2 28.6v1c0 0.775 0.6248 1.4 1.4004 1.4h25.2c0.775 0 1.4-0.625 1.4-1.4v-1c0 0.775-0.625 1.4-1.4 1.4h-25.2c-0.7752 0-1.4-0.625-1.4-1.4z" opacity=".2"/>
</svg>
