<svg width="32" height="32" version="1" xmlns="http://www.w3.org/2000/svg">
 <rect x="2" y="8" width="28" height="17" rx="1.75" ry="1.518" style="opacity:.2"/>
 <rect x="2" y="7" width="28" height="17" rx="1.75" ry="1.518" style="fill:#8e8e8e"/>
 <path d="m7.4409822 12h17.118036c0.790283 0 1.556425 0.510231 1.426503 1.125001l-1.426503 6.749999c-0.129921 0.614769-0.63622 1.125-1.426503 1.125h-14.26503c-0.7902829 0-1.2965815-0.510231-1.4265029-1.125l-1.4265028-6.749999c-0.1299217-0.61477 0.63622-1.125001 1.4265028-1.125001z" style="opacity:.2"/>
 <rect x="1" y="14" width="5" height="5" rx="1.136" ry="1.073" style="opacity:.2"/>
 <rect x="1" y="13" width="5" height="5" rx="1.136" ry="1.073" style="fill:#b3b3b3"/>
 <circle cx="3.5" cy="15.5" r="1.5" style="opacity:.5"/>
 <path d="m7.4409822 11h17.118036c0.790283 0 1.556425 0.510231 1.426503 1.125001l-1.426503 6.749999c-0.129921 0.614769-0.63622 1.125-1.426503 1.125h-14.26503c-0.7902829 0-1.2965815-0.510231-1.4265029-1.125l-1.4265028-6.749999c-0.1299217-0.61477 0.63622-1.125001 1.4265028-1.125001z" style="fill:#2bd677"/>
 <rect x="26" y="14" width="5" height="5" rx="1.136" ry="1.073" style="opacity:.2"/>
 <rect x="26" y="13" width="5" height="5" rx="1.136" ry="1.073" style="fill:#b3b3b3"/>
 <circle cx="28.5" cy="15.5" r="1.5" style="opacity:.5"/>
 <path d="m10 14a1 1 0 0 0 -1 1 1 1 0 0 0 1 1 1 1 0 0 0 1 -1 1 1 0 0 0 -1 -1zm4 0a1 1 0 0 0 -1 1 1 1 0 0 0 1 1 1 1 0 0 0 1 -1 1 1 0 0 0 -1 -1zm4 0a1 1 0 0 0 -1 1 1 1 0 0 0 1 1 1 1 0 0 0 1 -1 1 1 0 0 0 -1 -1zm4 0a1 1 0 0 0 -1 1 1 1 0 0 0 1 1 1 1 0 0 0 1 -1 1 1 0 0 0 -1 -1zm-10 3a1 1 0 0 0 -1 1 1 1 0 0 0 1 1 1 1 0 0 0 1 -1 1 1 0 0 0 -1 -1zm4 0a1 1 0 0 0 -1 1 1 1 0 0 0 1 1 1 1 0 0 0 1 -1 1 1 0 0 0 -1 -1zm4 0a1 1 0 0 0 -1 1 1 1 0 0 0 1 1 1 1 0 0 0 1 -1 1 1 0 0 0 -1 -1z" style="opacity:.2"/>
 <path d="m10 13a1 1 0 0 0 -1 1 1 1 0 0 0 1 1 1 1 0 0 0 1 -1 1 1 0 0 0 -1 -1zm4 0a1 1 0 0 0 -1 1 1 1 0 0 0 1 1 1 1 0 0 0 1 -1 1 1 0 0 0 -1 -1zm4 0a1 1 0 0 0 -1 1 1 1 0 0 0 1 1 1 1 0 0 0 1 -1 1 1 0 0 0 -1 -1zm4 0a1 1 0 0 0 -1 1 1 1 0 0 0 1 1 1 1 0 0 0 1 -1 1 1 0 0 0 -1 -1zm-10 3a1 1 0 0 0 -1 1 1 1 0 0 0 1 1 1 1 0 0 0 1 -1 1 1 0 0 0 -1 -1zm4 0a1 1 0 0 0 -1 1 1 1 0 0 0 1 1 1 1 0 0 0 1 -1 1 1 0 0 0 -1 -1zm4 0a1 1 0 0 0 -1 1 1 1 0 0 0 1 1 1 1 0 0 0 1 -1 1 1 0 0 0 -1 -1z" style="fill:#ffffff"/>
 <path d="m3.75 7c-0.9695 0-1.75 0.6766852-1.75 1.5175781v1c0-0.8408929 0.7805-1.5175781 1.75-1.5175781h24.5c0.9695 0 1.75 0.6766852 1.75 1.5175781v-1c0-0.8408929-0.7805-1.5175781-1.75-1.5175781h-24.5z" style="fill:#ffffff;opacity:.1"/>
 <path d="M 2.1367188 13 C 1.50714 13 1 13.478101 1 14.072266 L 1 15.072266 C 1 14.478101 1.50714 14 2.1367188 14 L 4.8632812 14 C 5.49286 14 6 14.478101 6 15.072266 L 6 14.072266 C 6 13.478101 5.49286 13 4.8632812 13 L 2.1367188 13 z" style="fill:#ffffff;opacity:.1"/>
 <path d="m7.4414062 11c-0.7902827 0-1.557656 0.51023-1.4277343 1.125l0.1054687 0.496094c0.227568-0.365126 0.7650342-0.621094 1.3222656-0.621094h17.117188c0.557231 0 1.094697 0.255968 1.322265 0.621094l0.105469-0.496094c0.129922-0.61477-0.637451-1.125-1.427734-1.125h-17.117188z" style="fill:#ffffff;opacity:.1"/>
 <path d="m27.136719 13c-0.629579 0-1.136719 0.478101-1.136719 1.072266v1c0-0.594165 0.50714-1.072266 1.136719-1.072266h2.726562c0.629579 0 1.136719 0.478101 1.136719 1.072266v-1c0-0.594165-0.50714-1.072266-1.136719-1.072266h-2.726562z" style="fill:#ffffff;opacity:.1"/>
</svg>
