<svg width="32" height="32" version="1" xmlns="http://www.w3.org/2000/svg">
 <rect x="2" y="13" width="28" height="18" rx="1.4" ry="1.385" style="opacity:.2"/>
 <rect x="2" y="12" width="28" height="18" rx="1.4" ry="1.385" style="fill:#4f4f4f"/>
 <circle cx="10" cy="22" r="6" style="opacity:.2"/>
 <circle cx="22" cy="22" r="6" style="opacity:.2"/>
 <circle cx="10" cy="21" r="6" style="fill:#cccccf"/>
 <circle cx="10" cy="21" r="3" style="fill:#4f4f4f"/>
 <rect x="2" y="2" width="28" height="11" rx="1.4" ry="1.571" style="opacity:.2"/>
 <rect x="2" y="1" width="28" height="11" rx="1.4" ry="1.571" style="fill:#4f4f4f"/>
 <rect x="4" y="4" width="24" height="7" rx="1.494" ry="1.574" style="opacity:.2"/>
 <rect x="4" y="3" width="24" height="7" rx="1.494" ry="1.574" style="fill:#63a535"/>
 <circle cx="7.5" cy="6.5" r="1.5" style="fill:#4f4f4f"/>
 <rect x="23" y="5" width="3" height="3" style="fill:#983a0e"/>
 <rect x="24" y="6" width="1" height="1" style="fill:#f7bf32"/>
 <circle cx="11.5" cy="6.5" r="1.5" style="fill:#4f4f4f"/>
 <circle cx="15.5" cy="6.5" r="1.5" style="fill:#4f4f4f"/>
 <circle cx="22" cy="21" r="6" style="fill:#cccccf"/>
 <circle cx="22" cy="21" r="3" style="fill:#4f4f4f"/>
 <path d="M 3.4003906 1 C 2.6247906 1 2 1.7016942 2 2.5722656 L 2 3.5722656 C 2 2.7016942 2.6247906 2 3.4003906 2 L 28.599609 2 C 29.375209 2 30 2.7016942 30 3.5722656 L 30 2.5722656 C 30 1.7016942 29.375209 1 28.599609 1 L 3.4003906 1 z" style="fill:#ffffff;opacity:.1"/>
 <path d="M 5.4941406 3 C 4.6667019 3 4 3.7022942 4 4.5742188 L 4 5.5742188 C 4 4.7022942 4.6667019 4 5.4941406 4 L 26.505859 4 C 27.333298 4 28 4.7022942 28 5.5742188 L 28 4.5742188 C 28 3.7022942 27.333298 3 26.505859 3 L 5.4941406 3 z" style="fill:#ffffff;opacity:.1"/>
</svg>
