<svg width="32" height="32" version="1.1" viewBox="0 0 32 32" xmlns="http://www.w3.org/2000/svg">
 <g transform="translate(-4)">
  <path d="m14.94939 30.540199c-0.184263-0.27271-0.518972-0.867718-0.743799-1.322234-0.482377-0.975201-0.672565-1.005766-1.713927-0.275472-1.30564 0.915637-1.805698 0.664572-1.407399-0.706612 0.131442-0.452498 0.159115-0.898645 0.0615-0.991435-0.09762-0.09279-0.701968 0.02074-1.3429993 0.252252-1.466782 0.529772-1.90765 0.343718-1.39938-0.59056 0.198205-0.364337 0.302938-0.71702 0.23274-0.783748-0.0702-0.06673-0.548627 0.01987-1.063174 0.192434-1.775503 0.595457-2.015494 0.287345-0.883696-1.134507 0.378986-0.476112 0.69197-1.050897 0.695517-1.277308 0.0036-0.226408 0.319624-0.750702 0.702395-1.165095 0.874969-0.947252 1.85616-2.767799 1.848295-3.429416-2.237081-3.260359-1.229588-4.786733 0.2343363-7.583123 0.383157-0.803245 0.894815-2.39539 1.364713-2.8166493 1.989964-2.575922 5.858533-2.502216 7.946899-0.035172 0.631388 0.393242 1.721817 2.6274953 1.930744 3.4328333 2.579634 3.094399-0.568412 5.473954-0.216697 7.128987 0.187027 0.854405 1.071548 2.340336 1.975944 3.319448 0.374188 0.405103 0.680343 0.962019 0.680343 1.23759s0.260819 0.826076 0.579594 1.223346c0.965161 1.202815 0.696434 1.587974-0.765786 1.097588-1.127559-0.378157-1.29327-0.266165-0.839726 0.567522 0.313589 0.576423 0.310074 0.650465-0.03689 0.777026-0.21093 0.07694-0.886798-0.01313-1.501931-0.20008-0.615131-0.186985-1.170255-0.290701-1.233608-0.23048-0.06335 0.06021-0.05473 0.594731 0.01917 1.187803 0.116841 0.937756 0.08011 1.078308-0.281773 1.078308-0.22887 0-0.758076-0.247923-1.176016-0.550935-0.41794-0.303014-0.869677-0.550931-1.003859-0.550931-0.134184 0-0.559956 0.595008-0.94616 1.32224-0.750335 1.412895-1.179415 1.619608-1.715365 0.826397z" style="opacity:.2"/>
  <path d="m14.94939 29.540199c-0.184263-0.27271-0.518972-0.867718-0.743799-1.322234-0.482377-0.975201-0.672565-1.005766-1.713927-0.275472-1.30564 0.915637-1.805698 0.664572-1.407399-0.706612 0.131442-0.452498 0.159115-0.898645 0.0615-0.991435-0.09762-0.09279-0.701968 0.02074-1.3429997 0.252252-1.4667821 0.529772-1.9076501 0.343718-1.39938-0.59056 0.198205-0.364337 0.3029385-0.71702 0.2327404-0.783748-0.070198-0.06673-0.5486274 0.01987-1.0631744 0.192434-1.7755031 0.595457-2.0154935 0.287345-0.8836961-1.134507 0.378986-0.476112 0.69197-1.050897 0.6955171-1.277308 0.00355-0.226408 0.319624-0.750702 0.7023955-1.165095 0.8749685-0.947252 1.8561595-2.767799 1.8482945-3.429416-2.237081-3.260359-1.2295875-4.786733 0.2343367-7.583123 0.383157-0.8032443 0.894815-2.3953898 1.364713-2.8166491 1.989964-2.5759221 5.858533-2.5022161 7.946899-0.035172 0.631388 0.393242 1.721817 2.6274951 1.930744 3.4328331 2.579634 3.094399-0.568412 5.473954-0.216697 7.128987 0.187027 0.854405 1.071548 2.340336 1.975944 3.319448 0.374188 0.405103 0.680343 0.962019 0.680343 1.23759s0.260819 0.826076 0.579594 1.223346c0.965161 1.202815 0.696434 1.587974-0.765786 1.097588-1.127559-0.378157-1.29327-0.266165-0.839726 0.567522 0.313589 0.576423 0.310074 0.650465-0.03689 0.777026-0.21093 0.07694-0.886798-0.01313-1.501931-0.20008-0.615131-0.186985-1.170255-0.290701-1.233608-0.23048-0.06335 0.06021-0.05473 0.594731 0.01917 1.187803 0.116841 0.937756 0.08011 1.078308-0.281773 1.078308-0.22887 0-0.758076-0.247923-1.176016-0.550935-0.41794-0.303014-0.869677-0.550931-1.003859-0.550931-0.134184 0-0.559956 0.595008-0.94616 1.32224-0.750335 1.412895-1.179415 1.619608-1.715365 0.826397z" style="fill:#248afd"/>
  <path d="m15.470949 6.0000276c-1.476934-0.00482-2.942518 0.6202421-3.9375 1.9082031-0.469898 0.4212593-0.982078 2.0131619-1.365234 2.8164063-0.949484 1.813705-1.701101 3.095349-1.50586 4.660156 0.145961-1.153566 0.765257-2.245457 1.50586-3.660156 0.383156-0.803244 0.895336-2.395147 1.365234-2.8164063 1.989964-2.5759221 5.858899-2.5022003 7.947266-0.035156 0.631388 0.393242 1.72076 2.6282563 1.929687 3.4335943 0.609287 0.730869 0.892557 1.419326 0.984375 2.070311 0.127504-0.930295-0.05314-1.953248-0.984375-3.070312-0.208927-0.805338-1.298299-3.0403516-1.929687-3.4335936-1.044183-1.233522-2.532833-1.8682301-4.009766-1.8730468zm5.789062 12.624999c-0.07589 0.285078-0.119878 0.558929-0.06641 0.810547 0.187027 0.854405 1.072167 2.341201 1.976563 3.320313 0.374188 0.405103 0.679687 0.960757 0.679687 1.236328s0.261303 0.827339 0.580078 1.224609c0.08579 0.106919 0.150474 0.199012 0.216797 0.292969 0.516192-0.02252 0.457404-0.452758-0.216797-1.292969-0.318775-0.39727-0.580078-0.949038-0.580078-1.224609s-0.305499-0.831225-0.679687-1.236328c-0.84672-0.916671-1.654347-2.259865-1.910157-3.13086zm-11.501953 0.392579c-0.31843 0.834362-1.022197 2.017354-1.671875 2.720703-0.382771 0.414393-0.699525 0.937654-0.703125 1.164062-0.0035 0.226411-0.316326 0.801232-0.695312 1.277344-0.784299 0.985298-0.892348 1.424566-0.304688 1.410156 0.08904-0.1261 0.184526-0.259199 0.304688-0.410156 0.378986-0.476112 0.691764-1.050933 0.695312-1.277344 0.0036-0.226408 0.320354-0.749669 0.703125-1.164062 0.874969-0.947252 1.855522-2.768071 1.847656-3.429688-0.07101-0.103492-0.111219-0.190921-0.175781-0.291015z" style="fill:#ffffff;opacity:.2"/>
  <g transform="matrix(.635927 0 0 .67602478 -10.951606 -67.888571)">
   <path d="m34.519066 106.36484s1.066583 6.00352 7.132428 7.37148c0 0 0.50691-4.185-1.191821-5.62994-1.698732-1.44493-5.940607-1.74154-5.940607-1.74154z" style="fill:#d19e01"/>
   <path d="m48.671634 106.24133s-0.954355 5.92666-7.02014 7.49499c0 0-0.562423-4.17566 1.110832-5.65004 1.673256-1.47435 5.909308-1.84495 5.909308-1.84495z" style="fill:#d19e01"/>
   <path d="m41.671494 103.38167s-6.067618 5.31429-0.02 10.35465c5.764135-5.24442 0.02-10.35465 0.02-10.35465z" style="fill:#fecd38"/>
  </g>
  <g transform="matrix(.5 0 0 .5 -.5 -.5)">
   <circle cx="21.5" cy="28.5" r="6.5" style="fill:#fecd38"/>
   <path d="M 21.499999,24.5 A 4.0002443,3.9998988 0 0 0 17.5,28.499655 4.0002443,3.9998988 0 0 0 21.499999,32.5 4.0002443,3.9998988 0 0 0 25.5,28.499655 4.0002443,3.9998988 0 0 0 21.499999,24.5 Z m 0,2.666438 a 1.3334147,1.3332995 0 0 1 1.333335,1.333217 1.3334147,1.3332995 0 0 1 -1.333335,1.333217 1.3334147,1.3332995 0 0 1 -1.333331,-1.333217 1.3334147,1.3332995 0 0 1 1.333331,-1.333217 z" style="fill:#535353"/>
  </g>
  <g transform="matrix(.5 0 0 .5 .5 -.5)">
   <circle cx="41.5" cy="28.5" r="6.5" style="fill:#fecd38"/>
   <path d="m41.5 24.5a4.0002443 3.9999003 0 0 0 -4 3.999646 4.0002443 3.9999003 0 0 0 4 4.000354 4.0002443 3.9999003 0 0 0 4 -4.000354 4.0002443 3.9999003 0 0 0 -4 -3.999646zm0 2.66644a1.3334147 1.3333 0 0 1 1.333335 1.333206 1.3334147 1.3333 0 0 1 -1.333335 1.33322 1.3334147 1.3333 0 0 1 -1.333331 -1.33322 1.3334147 1.3333 0 0 1 1.333331 -1.333206z" style="fill:#535353"/>
  </g>
  <g transform="matrix(.97040575 0 0 .9396911 -.02649251 .65218005)">
   <path d="m11.362765 16.394915s1.658349-1.658349 4.545105-1.658349 4.729366 2.026872 4.729366 2.026872-0.06142 1.166986-0.737044 1.535508c-0.675624 0.368523-2.518234-1.719769-4.238003-1.719769-1.71977 0-3.50096 1.474087-3.50096 1.474087z" style="fill:#fecd38"/>
   <path d="m15.940966 15.750077c-1.272224-0.0055-2.491866 0.286564-3.420262 0.864817l-1.020703 0.635816 0.91484 1.808016c0.58649 1.159216 1.3502 2.235599 2.128143 2.999646 0.667336 0.655417 1.385484 1.19163 1.596187 1.19163 0.62999 0 2.867233-2.511117 3.739501-4.19743 0.447634-0.865386 0.713811-1.512924 0.591644-1.438768-0.122167 0.07415-0.315107-0.105978-0.429057-0.400343-0.128239-0.331268-0.565977-0.675993-1.148663-0.904978-0.940856-0.369733-1.962121-0.554144-2.95163-0.558406z" style="fill:#535353"/>
  </g>
 </g>
 <g transform="matrix(.68837185 0 0 .62855131 -17.143958 -63.069568)" style="fill:#888888">
  <path d="m63.745563 117.94995h-2.857236l-0.7576 2.96546h2.857235zm-1.222984-6.47207-1.038994 4.1668h2.857235l1.049817-4.1668h2.391853l-1.049818 4.1668h1.753508v2.30527h-2.327119l-0.746778 2.96546h3.073897l-2.04e-4 2.32692h-3.636482l-1.038994 4.14515h-2.391853l1.038995-4.14515h-2.857235l-1.038995 4.14515h-2.413498l1.038995-4.14515h-1.775058v-2.32692h2.305378l0.7576-2.96546h-3.062978l1.08e-4 -2.30527h3.658127l1.038995-4.1668z" style="fill:#888888"/>
 </g>
</svg>
