<svg width="32" height="32" version="1.1" viewBox="0 0 32 32" xmlns="http://www.w3.org/2000/svg">
 <g transform="matrix(1.25,0,0,-1.25,0,32.00033)">
  <path d="m14.400212 22.400264a10.399788 10.4 0 0 1 -0.396867 -0.01406c-0.186762 0.0042-0.372775 0.01464-0.560926 0.0094-0.619408-0.01733-1.247738-0.0847-1.876524-0.209374l-0.0016-0.0016c-0.630337-0.125529-1.241182-0.301466-1.8264875-0.526554-0.2048303-0.079502-0.3977743-0.186754-0.5734259-0.31875-0.344773 0.07007-0.6474996 0.251567-1.0093546 0.254688-0.3096412 0.002701-0.6225702-0.020524-0.9359181-0.071875-2.7431587-0.447447-4.4770358-2.821123-4.8577134-5.390625-0.1170776-0.064028-0.2419075-0.109924-0.3578052-0.176563-0.8313006-0.478132-1.2982132-1.405218-1.1874758-2.357812 0.09792008-0.843428 0.28770277-1.856446 0.64842427-2.9625 0.1842405-0.565077 0.4129389-1.1515052 0.6968608-1.7515624l0.00156-0.00313c0.3271473-0.6934836 0.7274033-1.3962708 1.2124777-2.0921828 2.5039816-3.5718544 6.2248682-5.1875024 10.632596-5.1703128l-0.103123-0.00781 0.162496 0.00781a10.399788 10.4 0 0 1 0.332806 -0.017187 10.399788 10.4 0 0 1 10.399788 10.4 10.399788 10.4 0 0 1 -10.399788 10.4z" style="opacity:.2"/>
  <path d="m14.400212 23.200264a10.399788 10.4 0 0 1 -0.396867 -0.01406c-0.186762 0.0042-0.372775 0.01464-0.560926 0.0094-0.619408-0.01733-1.247738-0.0847-1.876524-0.209374l-0.0016-0.0016c-0.630337-0.125529-1.241182-0.301466-1.8264875-0.526554-0.2048303-0.079502-0.3977743-0.186754-0.5734259-0.31875-0.344773 0.07007-0.6474996 0.251567-1.0093546 0.254688-0.3096412 0.002701-0.6225702-0.020524-0.9359181-0.071875-2.7431587-0.447447-4.4770358-2.821123-4.8577134-5.390625-0.1170776-0.064028-0.2419075-0.109924-0.3578052-0.176563-0.8313006-0.478132-1.2982132-1.405218-1.1874758-2.357812 0.09792008-0.843428 0.28770277-1.856446 0.64842427-2.9625 0.1842405-0.565077 0.4129389-1.151505 0.6968608-1.7515622l0.00156-0.00313c0.3271473-0.6934836 0.7274033-1.3962708 1.2124777-2.0921828 2.5039816-3.5718544 6.2248682-5.1875024 10.632596-5.1703128l-0.103123-0.00781 0.162496 0.00781a10.399788 10.4 0 0 1 0.332806 -0.017187 10.399788 10.4 0 0 1 10.399788 10.4 10.399788 10.4 0 0 1 -10.399788 10.4z" style="fill:#cccccc"/>
  <path d="m14.374523 14.759065c-0.0026 0.06184-0.0088 0.125649-0.01256 0.186126-0.03437 0.453585-0.09143 0.874116-0.156003 1.253771-0.01257 0.05829-0.02189 0.116472-0.03233 0.171737-0.0043 0.02512-0.0093 0.04848-0.01368 0.07382-0.0063 0.02304-0.01055 0.04818-0.01541 0.07028-0.680776 0.131071-1.365404 0.216887-2.052364 0.257553-0.380944 0.02346-0.764241 0.03097-1.145591 0.02639-0.781109-0.0096-1.563891-0.07789-2.3442089-0.205624-0.081053-0.01168-0.1638893-0.02669-0.2453067-0.04087-0.030873-0.0062-0.0618-0.01021-0.0913-0.01751-0.5382112-0.098733-1.068844-0.224902-1.5909616-0.379851-0.1130034-0.031698-0.2248611-0.064961-0.3372764-0.102291-0.0641851-0.019083-0.1289684-0.039728-0.1911364-0.060165-0.3673719-0.121582-0.7242118-0.254946-1.0803016-0.400302-0.6378882-0.264225-1.260541-0.569743-1.8660934-0.917909 0.082442-0.710094 0.2419413-1.5657 0.5450874-2.495195 0.1547053-0.474481 0.3461052-0.965415 0.584833-1.469947l0.00344-5e-3c0.2718731-0.576311 0.6047602-1.1622389 1.0109047-1.744902 0.1340671-0.1930185 0.2698068-0.3771639 0.4105742-0.5565121 1.5096382-1.9314357 3.2906351-3.0136679 4.6331907-3.6023999 0.01006 0.0099 0.02138 0.018373 0.03104 0.028268 0.02285 0.022398 0.04787 0.045577 0.07085 0.067454 0.371092 0.3467055 0.76567 0.7626478 1.162063 1.2513825 0.02945 0.038049 0.06031 0.074951 0.08949 0.1135627 0.02432 0.028759 0.04621 0.059229 0.07041 0.087975 0.05213 0.07031 0.107763 0.1415071 0.162095 0.2144144 0.439424 0.5974495 0.863438 1.2851563 1.235453 2.0719643 0.02727 0.056624 0.05311 0.1113629 0.07806 0.1677745 0.196548 0.4325215 0.376169 0.8953966 0.531869 1.3898766 0.01723 0.05462 0.03507 0.110091 0.05351 0.168254 0.0025 0.01055 0.0049 0.02078 0.0097 0.03121l-3.04e-4 0.0014c0.143534 0.481926 0.250779 0.956615 0.329643 1.413296 0.0052 0.02652 0.0093 0.0545 0.0147 0.07889 0.01075 0.06333 0.02027 0.124397 0.02859 0.186388 0.07217 0.465523 0.11424 0.912299 0.133399 1.342609 0.0022 0.06485 0.0045 0.127421 0.0043 0.191862 0.0148 0.403742 0.0055 0.78809-0.01823 1.152313" style="fill:#4282de"/>
  <path d="m9.2 12.800151a1.2000001 1.2000001 0 0 1 -1.2 -1.2 1.2000001 1.2000001 0 0 1 0.8062496 -1.132813v-0.8624996l-0.0062496-0.0093744 1.6 0.0046872-0.4140624 1.0953128a1.2000001 1.2000001 0 0 1 0.4140624 0.904687 1.2000001 1.2000001 0 0 1 -1.2 1.2z" style="opacity:.2"/>
  <path transform="matrix(.8 0 0 -.8 0 25.600264)" d="m11.5 15a1.5000001 1.5000001 0 0 0 -1.5 1.5 1.5000001 1.5000001 0 0 0 1.007812 1.416016v1.078125l-0.007812 0.011718 2-0.005859-0.517578-1.369141a1.5000001 1.5000001 0 0 0 0.517578 -1.130859 1.5000001 1.5000001 0 0 0 -1.5 -1.5z" style="fill:#ffffff"/>
  <path transform="matrix(.8 0 0 -.8 0 25.600264)" d="m16.886719 6.0039062c-0.609858 0.017062-1.227942 0.084549-1.845703 0.2070313-0.621892 0.123875-1.222897 0.2983544-1.792969 0.5175781 0.541594 0.3559038 1.043069 1.0926969 1.482422 1.5996094 0.215254-0.058837 0.431261-0.1085544 0.652343-0.1503906 2.477749-0.4918263 4.7818-0.2194059 6.732422 1.0586428l1.851563-0.826221 0.05078-0.023437c-1.970763-1.5718529-4.488149-2.456708-7.130858-2.382813zm7.86914 3.0292969-0.02344 0.011719c-0.163448 0.078238-0.320539 0.1569062-0.484375 0.234375-0.167464 0.07215-0.333724 0.1463312-0.503906 0.2226562-0.211887 0.094337-0.426979 0.1836938-0.650391 0.2695313-0.133401 0.052362-0.272082 0.1073887-0.408203 0.1640625-0.181839 0.072137-0.371563 0.1341499-0.556641 0.2031249-0.188445 0.06061-0.376557 0.133895-0.570312 0.193359-0.769706 0.253076-1.573418 0.46794-2.396485 0.660157-0.169874 0.0374-0.343486 0.06867-0.515625 0.101562l0.0098 0.04687c0.01397 0.06355 0.01853 0.07841 0.0078 0.03906l0.01367 0.04687 0.0098 0.04883c0.0012 0.0075 0.0059 0.03495 0.01563 0.0918 0.01452 0.07713 0.02561 0.138636 0.0332 0.173828l0.0039 0.02148 2e-3 0.01953c0.0554 0.325766 0.09455 1.111633 0.136718 1.483928 0.242801-0.07954 0.486969-0.156733 0.72461-0.242188 0.839775-0.312795 1.648858-0.647599 2.408203-1.017578 0.190776-0.08571 0.377553-0.191811 0.5625-0.279297 0.184041-0.1003 0.366709-0.184941 0.544922-0.283203 0.238695-0.135161 0.472838-0.263684 0.701171-0.394531 0.11255-0.06402 0.220111-0.1292 0.328126-0.19336 0.163188-0.1003 0.324942-0.200083 0.484374-0.294922 0.157232-0.09738 0.309275-0.204294 0.460938-0.300781 0.05323-0.03486 0.105609-0.068891 0.15625-0.1035159l-0.494141-0.9233798zm3.308594 5.5292969-0.183594 0.0957c-0.158397 0.08152-0.319322 0.168144-0.474609 0.251953-0.153735 0.08195-0.30539 0.16058-0.460938 0.230469l-0.958984 0.443359-1.921875 0.888672-0.478515 0.220703c-0.155548 0.07227-0.325859 0.132007-0.486329 0.195313-1.271358 0.534517-2.967041 0.932375-4.527343 1.283203-0.06004 0.52503-0.211255 0.898554-0.34375 1.386719-0.05263 0.167139-0.113324 0.324498-0.169922 0.486328 1.703839 0.06504 4.8292-0.03206 7.71875-2.462891 0.113587 0.722085-1.150524 2.466023-1.613282 3.021485-1.701771 2.049799-4.675576 2.459152-7.46875 2.376953-0.29725 0.503127-0.604909 0.97725-0.921874 1.408203l-2e-3 2e-3 -2e-3 2e-3c-0.07696 0.103275-0.146378 0.191722-0.201172 0.265625l-0.01953 0.02539-0.01953 0.02344c0.0016-0.0019-0.03393 0.03978-0.05664 0.06836l-0.0293 0.03906c-0.0029 0.0035-9.06e-4 0.0022-0.0039 0.0059-0.0334 0.04254-0.0688 0.08781-0.08398 0.107422l-0.0059 0.0098-0.0078 0.0098c-0.228729 0.28214-0.457123 0.538583-0.683594 0.785156 0.275168 0.06014 0.555954 0.0979 0.832031 0.144531 0.286745 0.06275 0.579847 0.07108 0.876954 0.08984 0.295034 0.01367 0.585706 0.04934 0.882812 0.02344l0.894531-0.03906 0.855469-0.125 0.212891-0.0293c0.04261-0.0086 0.05814-0.0067 0.11914-0.02148l0.107533-0.025593 0.427735-0.105469c0.140783-0.03651 0.285785-0.06596 0.427734-0.111328l0.416016-0.140625 0.414062-0.142578 0.404297-0.177734 0.402344-0.175782c0.131068-0.06626 0.255908-0.135342 0.386718-0.205078l0.388672-0.207031c0.126149-0.07023 0.244677-0.158439 0.369141-0.234375 0.245042-0.155814 0.491301-0.312881 0.714844-0.5 0.232351-0.177267 0.467001-0.350453 0.675781-0.556641 0.218101-0.195487 0.43784-0.389034 0.623047-0.601562l0.292968-0.310547 0.07227-0.08203 0.07813-0.08594c0.04455-0.05602 0.09204-0.114589 0.136719-0.169922 0.172385-0.228719 0.363834-0.448968 0.515625-0.691406l0.242187-0.359375c0.07654-0.12328 0.14648-0.249843 0.21875-0.375 0.1549-0.249767 0.277222-0.504863 0.400391-0.757812 0.128737-0.245609 0.24439-0.53841 0.339844-0.794922l0.148437-0.404297c0.04352-0.134515 0.08057-0.273781 0.123047-0.412109l0.117188-0.414063 0.08789-0.416016c0.06372-0.270966 0.10033-0.569233 0.138672-0.849609 0.04119-0.286715 0.04545-0.558038 0.07031-0.853516 0.01037-0.278648-0.0032-0.572062-0.0078-0.851562z" style="fill:#3f3f3f"/>
  <path d="m18.690625 15.084964c-0.934724-0.475402-2.343184-0.906112-3.514063-1.25 0.0176-0.337585 0.02928-0.683558 0.01563-1.05625-6.99e-4 -0.06994-0.0028-0.134666-0.0047-0.189063v-0.0062-0.0047c-0.0048-0.108294-0.01573-0.22086-0.02344-0.33125 1.54122 0.340042 3.329299 0.738874 4.460938 1.160938-0.536088 0.425533-0.856458 1.033961-0.934375 1.676562z" style="fill:#4282de"/>
  <path d="m22.133931 14.315121c-0.405032-0.60553-1.150925-0.850024-1.811813-0.641235-0.139862 0.04199-0.278257 0.106698-0.406289 0.193501-0.52961 0.351193-0.781173 0.959341-0.701296 1.548117 0.03078 0.231406 0.112433 0.462498 0.251457 0.670344 0.488468 0.73516 1.482993 0.936409 2.219149 0.447839 0.735215-0.48836 0.936109-1.481626 0.448792-2.218566" style="fill:#4282de"/>
  <path transform="matrix(.8 0 0 -.8 0 25.600264)" d="m10.167969 7.0078125c-0.2188526-0.0019088-0.4392329 0.0145775-0.6601565 0.0507813-2.0562775 0.3348264-3.5087618 2.2616139-3.6972656 4.5898442 0.0466284-0.019715 0.0919239-0.043137 0.1386719-0.0625h0.0019531 0.0039062c0.4363877-0.178134 0.8769719-0.341872 1.3300781-0.494141 0.3091903-1.3928038 1.2143517-2.4739924 2.4453126-2.6757814 0.3045152-0.0497375 0.6095612-0.040725 0.9023432 0.015625 0.118533 0.0221375 0.23243 0.0526688 0.345704 0.0898438 0.483906 0.158915 0.934755 0.4465181 1.324218 0.8417968 0.074019 0.0742126 0.143113 0.1496594 0.208985 0.2324219 0.115976 0.1359327 0.221039 0.2881829 0.318359 0.4472659 0.280706-0.015153 0.561448-0.039523 0.841797-0.042969 0.232046-0.0028011 0.467555 0.012502 0.701172 0.017578-0.172102-0.3738814-0.364275-0.731595-0.601563-1.0449218-0.076437-0.1012874-0.152401-0.1968487-0.230468-0.2890624-0.339924-0.3932075-0.725801-0.7303088-1.142578-0.9921876-0.110944-0.0725249-0.227744-0.1397831-0.34375-0.2011718-0.588159-0.3051075-1.230164-0.4767594-1.886719-0.4824219z" style="fill:#3f3f3f"/>
  <path transform="matrix(.8 0 0 -.8 0 25.600264)" d="m18 3a12.999735 13 0 0 0 -0.496094 0.0175781c-0.233452-0.00525-0.465983-0.0182687-0.701172-0.0117187-0.77426 0.0216625-1.55972 0.1058762-2.345703 0.2617187l-0.001953 0.0019531c-0.787921 0.1569113-1.551571 0.3768432-2.283203 0.6582032-0.256038 0.0993775-0.497232 0.2334425-0.716797 0.3984375-0.430966-0.0875875-0.8094-0.3144582-1.261719-0.3183594-0.3870511-0.0033763-0.7782366 0.025655-1.1699215 0.0898437-3.4289484 0.5593088-5.5964186 3.5264038-6.0722656 6.7382818-0.146347 0.080034-0.3023935 0.137404-0.4472657 0.220703-1.0391257 0.597665-1.6227968 1.756523-1.484375 2.947265 0.0052617 0.045321 0.0196968 0.102341 0.0253907 0.148438 0.1482895-0.867142 0.6715119-1.64278 1.4589843-2.095703 0.1448722-0.083299 0.3009187-0.140669 0.4472657-0.220703 0.475847-3.211878 2.6433172-6.178973 6.0722656-6.7382818 0.3916849-0.0641887 0.7828704-0.0932199 1.1699215-0.0898437 0.452319 0.0039013 0.830753 0.2307719 1.261719 0.3183594 0.219565-0.164995 0.460759-0.29906 0.716797-0.3984375 0.731632-0.28136 1.495282-0.5012919 2.283203-0.6582032l0.001953-0.0019531c0.785983-0.1558425 1.571443-0.2400562 2.345703-0.2617187 0.235189-0.00655 0.46772 0.0064687 0.701172 0.0117187a12.999735 13 0 0 1 0.496094 -0.0175781 12.999735 13 0 0 1 12.978516 12.580078 12.999735 13 0 0 0 0.021484 -0.580078 12.999735 13 0 0 0 -13 -13z" style="fill:#ffffff;opacity:.2"/>
 </g>
</svg>
