<svg width="32" height="32" version="1" xmlns="http://www.w3.org/2000/svg">
 <rect transform="matrix(0,-1,-1,0,0,0)" x="-31" y="-30" width="28" height="28" rx="1.4" ry="1.4" opacity=".2"/>
 <rect transform="matrix(0,-1,-1,0,0,0)" x="-30" y="-30" width="28" height="28" rx="1.4" ry="1.4" fill="#0081ff"/>
 <path d="m8 9v16h3v-16h-3zm7 0v3h3v13h3v-13h3v-3h-9z" opacity=".2"/>
 <g fill="#8addff">
  <path d="m8 8h3v16h-3z"/>
  <path d="m18 8h3v16h-3z"/>
  <path d="m24 8v3h-9v-3z"/>
 </g>
 <path d="m3.4004 2c-0.7756 0-1.4004 0.6248-1.4004 1.4004v1c0-0.7756 0.6248-1.4004 1.4004-1.4004h25.2c0.775 0 1.4 0.6248 1.4 1.4004v-1c0-0.7756-0.625-1.4004-1.4-1.4004h-25.2z" fill="#fff" opacity=".2"/>
</svg>
