<svg width="32" height="32" version="1" xmlns="http://www.w3.org/2000/svg">
 <rect transform="matrix(0,-1,-1,0,0,0)" x="-31" y="-30" width="28" height="28" rx="1.4" ry="1.4" style="opacity:.2"/>
 <rect transform="matrix(0,-1,-1,0,0,0)" x="-30" y="-30" width="28" height="28" rx="1.4" ry="1.4" style="fill:#19416f"/>
 <path d="m17 6a2 2 0 0 0 -2 2 2 2 0 0 0 2 2 2 2 0 0 0 2 -2 2 2 0 0 0 -2 -2zm-2.333984 5c-0.923334 0-1.666016 0.669-1.666016 1.5s0.742682 1.5 1.666016 1.5h1.333984v8.798828c0 0.797609-0.289912 1.446027-1.037109 1.828125a2 2 0 0 0 -1.962891 -1.626953 2 2 0 0 0 -2 2 2 2 0 0 0 2 2c3.75 0 6 6.4e-4 6-4.201172v-11.798828h-2.666016-0.333984-1.333984z" style="opacity:.2"/>
 <path d="m17 5a2 2 0 0 0 -2 2 2 2 0 0 0 2 2 2 2 0 0 0 2 -2 2 2 0 0 0 -2 -2zm-2.332031 5c-0.923518 0-1.667969 0.669-1.667969 1.5s0.744451 1.5 1.667969 1.5h1.332031v8.798828c0 0.797609-0.289912 1.446027-1.037109 1.828125a2 2 0 0 0 -1.962891 -1.626953 2 2 0 0 0 -2 2 2 2 0 0 0 2 2c3.75 0 6 6.4e-4 6-4.201172v-11.798828h-2.667969-1.664062z" style="fill:#ffffff"/>
 <path d="M 3.4003906,2 C 2.6247906,2 2,2.6247906 2,3.4003906 l 0,1 C 2,3.6247906 2.6247906,3 3.4003906,3 L 28.599609,3 C 29.375209,3 30,3.6247906 30,4.4003906 l 0,-1 C 30,2.6247906 29.375209,2 28.599609,2 L 3.4003906,2 Z" style="fill:#ffffff;opacity:.1"/>
</svg>
