<svg width="32" height="32" version="1.0" xmlns="http://www.w3.org/2000/svg">
 <defs>
  <clipPath id="clipPath4186">
   <circle cx="286" cy="26" r="10" fill="url(#linearGradient4190)"/>
  </clipPath>
 </defs>
 <text x="826.92194" y="-14.339573" font-family="'Bitstream Vera Sans'" font-size="12.666px" opacity=".8" xml:space="preserve"><tspan x="826.92194" y="-14.339573"/></text>
 <text x="850.88287" y="-55.08128" font-family="'Bitstream Vera Sans'" font-size="12.666px" opacity=".8" xml:space="preserve"><tspan x="850.88287" y="-55.08128"/></text>
 <text x="-619.67548" y="-85.159424" font-family="'Bitstream Vera Sans'" font-size="12.666px" opacity=".8" xml:space="preserve"><tspan x="-619.67548" y="-85.159424"/></text>
 <text x="-2443.3616" y="660.39404" font-family="'Bitstream Vera Sans'" font-size="12.666px" opacity=".8" xml:space="preserve"><tspan x="-2443.3616" y="660.39404"/></text>
 <text x="-505.18442" y="-470.48038" font-family="'Bitstream Vera Sans'" font-size="12.666px" opacity=".8" xml:space="preserve"><tspan x="-505.18442" y="-470.48038"/></text>
 <text x="302.41772" y="-883.9505" font-family="'Bitstream Vera Sans'" font-size="12.666px" opacity=".8" xml:space="preserve"><tspan x="302.41772" y="-883.9505"/></text>
 <text x="326.37866" y="-924.6922" font-family="'Bitstream Vera Sans'" font-size="12.666px" opacity=".8" xml:space="preserve"><tspan x="326.37866" y="-924.6922"/></text>
 <text x="-1165.0845" y="-931.9021" font-family="'Bitstream Vera Sans'" font-size="12.666px" opacity=".8" xml:space="preserve"><tspan x="-1165.0845" y="-931.9021"/></text>
 <text x="295.45825" y="-1205.1364" font-family="'Bitstream Vera Sans'" font-size="12.666px" opacity=".8" xml:space="preserve"><tspan x="295.45825" y="-1205.1364"/></text>
 <text x="1781.5818" y="-578.44489" font-family="'Bitstream Vera Sans'" font-size="12.666px" opacity=".8" xml:space="preserve"><tspan x="1781.5818" y="-578.44489"/></text>
 <text x="1805.5426" y="-619.18665" font-family="'Bitstream Vera Sans'" font-size="12.666px" opacity=".8" xml:space="preserve"><tspan x="1805.5426" y="-619.18665"/></text>
 <text x="314.07941" y="-626.39655" font-family="'Bitstream Vera Sans'" font-size="12.666px" opacity=".8" xml:space="preserve"><tspan x="314.07941" y="-626.39655"/></text>
 <text x="1774.6223" y="-899.63055" font-family="'Bitstream Vera Sans'" font-size="12.666px" opacity=".8" xml:space="preserve"><tspan x="1774.6223" y="-899.63055"/></text>
 <text x="-623.73688" y="-674.48785" font-family="'Bitstream Vera Sans'" font-size="12.666px" opacity=".8" xml:space="preserve"><tspan x="-623.73688" y="-674.48785"/></text>
 <text x="-2447.4226" y="71.065681" font-family="'Bitstream Vera Sans'" font-size="12.666px" opacity=".8" xml:space="preserve"><tspan x="-2447.4226" y="71.065681"/></text>
 <text x="-732.66711" y="163.93782" font-family="'Bitstream Vera Sans'" font-size="12.666px" opacity=".8" xml:space="preserve"><tspan x="-732.66711" y="163.93782"/></text>
 <text x="376.35718" y="-15.244322" font-family="'Bitstream Vera Sans'" font-size="12.666px" opacity=".8" xml:space="preserve"><tspan x="376.35718" y="-15.244322"/></text>
 <text x="400.31812" y="-55.986027" font-family="'Bitstream Vera Sans'" font-size="12.666px" opacity=".8" xml:space="preserve"><tspan x="400.31812" y="-55.986027"/></text>
 <text x="-1091.145" y="-63.195999" font-family="'Bitstream Vera Sans'" font-size="12.666px" opacity=".8" xml:space="preserve"><tspan x="-1091.145" y="-63.195999"/></text>
 <text x="369.39771" y="-336.43005" font-family="'Bitstream Vera Sans'" font-size="12.666px" opacity=".8" xml:space="preserve"><tspan x="369.39771" y="-336.43005"/></text>
 <text x="-658.33685" y="-65.910248" font-family="'Bitstream Vera Sans'" font-size="12.666px" opacity=".8" xml:space="preserve"><tspan x="-658.33685" y="-65.910248"/></text>
 <text x="-2482.0229" y="679.64325" font-family="'Bitstream Vera Sans'" font-size="12.666px" opacity=".8" xml:space="preserve"><tspan x="-2482.0229" y="679.64325"/></text>
 <text x="-507.24384" y="-927.44073" font-family="'Bitstream Vera Sans'" font-size="12.666px" opacity=".8" xml:space="preserve"><tspan x="-507.24384" y="-927.44073"/></text>
 <text x="300.35831" y="-1340.911" font-family="'Bitstream Vera Sans'" font-size="12.666px" opacity=".8" xml:space="preserve"><tspan x="300.35831" y="-1340.911"/></text>
 <text x="324.31921" y="-1381.6527" font-family="'Bitstream Vera Sans'" font-size="12.666px" opacity=".8" xml:space="preserve"><tspan x="324.31921" y="-1381.6527"/></text>
 <text x="-1167.1439" y="-1388.8627" font-family="'Bitstream Vera Sans'" font-size="12.666px" opacity=".8" xml:space="preserve"><tspan x="-1167.1439" y="-1388.8627"/></text>
 <text x="293.3988" y="-1662.0968" font-family="'Bitstream Vera Sans'" font-size="12.666px" opacity=".8" xml:space="preserve"><tspan x="293.3988" y="-1662.0968"/></text>
 <text x="1779.5222" y="-1035.4055" font-family="'Bitstream Vera Sans'" font-size="12.666px" opacity=".8" xml:space="preserve"><tspan x="1779.5222" y="-1035.4055"/></text>
 <text x="1803.483" y="-1076.1471" font-family="'Bitstream Vera Sans'" font-size="12.666px" opacity=".8" xml:space="preserve"><tspan x="1803.483" y="-1076.1471"/></text>
 <text x="312.01996" y="-1083.3571" font-family="'Bitstream Vera Sans'" font-size="12.666px" opacity=".8" xml:space="preserve"><tspan x="312.01996" y="-1083.3571"/></text>
 <text x="1772.5627" y="-1356.5912" font-family="'Bitstream Vera Sans'" font-size="12.666px" opacity=".8" xml:space="preserve"><tspan x="1772.5627" y="-1356.5912"/></text>
 <text x="-625.79633" y="-1131.4484" font-family="'Bitstream Vera Sans'" font-size="12.666px" opacity=".8" xml:space="preserve"><tspan x="-625.79633" y="-1131.4484"/></text>
 <text x="-2449.4822" y="-385.89478" font-family="'Bitstream Vera Sans'" font-size="12.666px" opacity=".8" xml:space="preserve"><tspan x="-2449.4822" y="-385.89478"/></text>
 <text x="-734.72656" y="-293.02261" font-family="'Bitstream Vera Sans'" font-size="12.666px" opacity=".8" xml:space="preserve"><tspan x="-734.72656" y="-293.02261"/></text>
 <text x="105.28795" y="-52.108452" font-family="'Bitstream Vera Sans'" font-size="12.666px" opacity=".8" xml:space="preserve"><tspan x="105.28795" y="-52.108452"/></text>
 <text x="129.24889" y="-92.850174" font-family="'Bitstream Vera Sans'" font-size="12.666px" opacity=".8" xml:space="preserve"><tspan x="129.24889" y="-92.850174"/></text>
 <text x="-1140.5677" y="-286.87878" font-family="'Bitstream Vera Sans'" font-size="12.666px" opacity=".8" xml:space="preserve"><tspan x="-1140.5677" y="-286.87878"/></text>
 <text x="-332.96576" y="-700.34894" font-family="'Bitstream Vera Sans'" font-size="12.666px" opacity=".8" xml:space="preserve"><tspan x="-332.96576" y="-700.34894"/></text>
 <text x="-309.00482" y="-741.09064" font-family="'Bitstream Vera Sans'" font-size="12.666px" opacity=".8" xml:space="preserve"><tspan x="-309.00482" y="-741.09064"/></text>
 <text x="-1800.4679" y="-748.30054" font-family="'Bitstream Vera Sans'" font-size="12.666px" opacity=".8" xml:space="preserve"><tspan x="-1800.4679" y="-748.30054"/></text>
 <text x="-339.9252" y="-1021.5347" font-family="'Bitstream Vera Sans'" font-size="12.666px" opacity=".8" xml:space="preserve"><tspan x="-339.9252" y="-1021.5347"/></text>
 <text x="1146.1982" y="-394.84329" font-family="'Bitstream Vera Sans'" font-size="12.666px" opacity=".8" xml:space="preserve"><tspan x="1146.1982" y="-394.84329"/></text>
 <text x="1170.1591" y="-435.58502" font-family="'Bitstream Vera Sans'" font-size="12.666px" opacity=".8" xml:space="preserve"><tspan x="1170.1591" y="-435.58502"/></text>
 <text x="-321.30408" y="-442.79498" font-family="'Bitstream Vera Sans'" font-size="12.666px" opacity=".8" xml:space="preserve"><tspan x="-321.30408" y="-442.79498"/></text>
 <text x="1139.2388" y="-716.02905" font-family="'Bitstream Vera Sans'" font-size="12.666px" opacity=".8" xml:space="preserve"><tspan x="1139.2388" y="-716.02905"/></text>
 <text x="-1259.1204" y="-490.88626" font-family="'Bitstream Vera Sans'" font-size="12.666px" opacity=".8" xml:space="preserve"><tspan x="-1259.1204" y="-490.88626"/></text>
 <text x="-3082.8062" y="254.6673" font-family="'Bitstream Vera Sans'" font-size="12.666px" opacity=".8" xml:space="preserve"><tspan x="-3082.8062" y="254.6673"/></text>
 <g transform="matrix(.90475 0 0 .90475 -767.05 -701.44)">
  <text x="-664.2738" y="1159.4154" font-family="'Bitstream Vera Sans'" font-size="14px" opacity=".8" xml:space="preserve"><tspan x="-664.2738" y="1159.4154"/></text>
 </g>
 <text x="826.92194" y="-7.1015854" font-family="'Bitstream Vera Sans'" font-size="12.666px" opacity=".8" xml:space="preserve"><tspan x="826.92194" y="-7.1015854"/></text>
 <text x="850.88287" y="-47.843292" font-family="'Bitstream Vera Sans'" font-size="12.666px" opacity=".8" xml:space="preserve"><tspan x="850.88287" y="-47.843292"/></text>
 <text x="-619.67548" y="-77.921432" font-family="'Bitstream Vera Sans'" font-size="12.666px" opacity=".8" xml:space="preserve"><tspan x="-619.67548" y="-77.921432"/></text>
 <text x="-2443.3616" y="667.63202" font-family="'Bitstream Vera Sans'" font-size="12.666px" opacity=".8" xml:space="preserve"><tspan x="-2443.3616" y="667.63202"/></text>
 <text x="-505.18442" y="-463.24237" font-family="'Bitstream Vera Sans'" font-size="12.666px" opacity=".8" xml:space="preserve"><tspan x="-505.18442" y="-463.24237"/></text>
 <text x="302.41772" y="-876.71246" font-family="'Bitstream Vera Sans'" font-size="12.666px" opacity=".8" xml:space="preserve"><tspan x="302.41772" y="-876.71246"/></text>
 <text x="326.37866" y="-917.45422" font-family="'Bitstream Vera Sans'" font-size="12.666px" opacity=".8" xml:space="preserve"><tspan x="326.37866" y="-917.45422"/></text>
 <text x="-1165.0845" y="-924.66412" font-family="'Bitstream Vera Sans'" font-size="12.666px" opacity=".8" xml:space="preserve"><tspan x="-1165.0845" y="-924.66412"/></text>
 <text x="295.45825" y="-1197.8983" font-family="'Bitstream Vera Sans'" font-size="12.666px" opacity=".8" xml:space="preserve"><tspan x="295.45825" y="-1197.8983"/></text>
 <text x="1781.5818" y="-571.20691" font-family="'Bitstream Vera Sans'" font-size="12.666px" opacity=".8" xml:space="preserve"><tspan x="1781.5818" y="-571.20691"/></text>
 <text x="1805.5426" y="-611.94867" font-family="'Bitstream Vera Sans'" font-size="12.666px" opacity=".8" xml:space="preserve"><tspan x="1805.5426" y="-611.94867"/></text>
 <text x="314.07941" y="-619.15857" font-family="'Bitstream Vera Sans'" font-size="12.666px" opacity=".8" xml:space="preserve"><tspan x="314.07941" y="-619.15857"/></text>
 <text x="1774.6223" y="-892.39252" font-family="'Bitstream Vera Sans'" font-size="12.666px" opacity=".8" xml:space="preserve"><tspan x="1774.6223" y="-892.39252"/></text>
 <text x="-623.73688" y="-667.24988" font-family="'Bitstream Vera Sans'" font-size="12.666px" opacity=".8" xml:space="preserve"><tspan x="-623.73688" y="-667.24988"/></text>
 <text x="-2447.4226" y="78.303673" font-family="'Bitstream Vera Sans'" font-size="12.666px" opacity=".8" xml:space="preserve"><tspan x="-2447.4226" y="78.303673"/></text>
 <text x="-732.66711" y="171.17581" font-family="'Bitstream Vera Sans'" font-size="12.666px" opacity=".8" xml:space="preserve"><tspan x="-732.66711" y="171.17581"/></text>
 <text x="376.35718" y="-8.0063343" font-family="'Bitstream Vera Sans'" font-size="12.666px" opacity=".8" xml:space="preserve"><tspan x="376.35718" y="-8.0063343"/></text>
 <text x="400.31812" y="-48.748039" font-family="'Bitstream Vera Sans'" font-size="12.666px" opacity=".8" xml:space="preserve"><tspan x="400.31812" y="-48.748039"/></text>
 <text x="-1091.145" y="-55.958008" font-family="'Bitstream Vera Sans'" font-size="12.666px" opacity=".8" xml:space="preserve"><tspan x="-1091.145" y="-55.958008"/></text>
 <text x="369.39771" y="-329.19205" font-family="'Bitstream Vera Sans'" font-size="12.666px" opacity=".8" xml:space="preserve"><tspan x="369.39771" y="-329.19205"/></text>
 <text x="-658.33685" y="-58.672253" font-family="'Bitstream Vera Sans'" font-size="12.666px" opacity=".8" xml:space="preserve"><tspan x="-658.33685" y="-58.672253"/></text>
 <text x="-2482.0229" y="686.88129" font-family="'Bitstream Vera Sans'" font-size="12.666px" opacity=".8" xml:space="preserve"><tspan x="-2482.0229" y="686.88129"/></text>
 <text x="-507.24384" y="-920.20276" font-family="'Bitstream Vera Sans'" font-size="12.666px" opacity=".8" xml:space="preserve"><tspan x="-507.24384" y="-920.20276"/></text>
 <text x="300.35831" y="-1333.673" font-family="'Bitstream Vera Sans'" font-size="12.666px" opacity=".8" xml:space="preserve"><tspan x="300.35831" y="-1333.673"/></text>
 <text x="324.31921" y="-1374.4148" font-family="'Bitstream Vera Sans'" font-size="12.666px" opacity=".8" xml:space="preserve"><tspan x="324.31921" y="-1374.4148"/></text>
 <text x="-1167.1439" y="-1381.6246" font-family="'Bitstream Vera Sans'" font-size="12.666px" opacity=".8" xml:space="preserve"><tspan x="-1167.1439" y="-1381.6246"/></text>
 <text x="293.3988" y="-1654.8588" font-family="'Bitstream Vera Sans'" font-size="12.666px" opacity=".8" xml:space="preserve"><tspan x="293.3988" y="-1654.8588"/></text>
 <text x="1779.5222" y="-1028.1675" font-family="'Bitstream Vera Sans'" font-size="12.666px" opacity=".8" xml:space="preserve"><tspan x="1779.5222" y="-1028.1675"/></text>
 <text x="1803.483" y="-1068.9092" font-family="'Bitstream Vera Sans'" font-size="12.666px" opacity=".8" xml:space="preserve"><tspan x="1803.483" y="-1068.9092"/></text>
 <text x="312.01996" y="-1076.119" font-family="'Bitstream Vera Sans'" font-size="12.666px" opacity=".8" xml:space="preserve"><tspan x="312.01996" y="-1076.119"/></text>
 <text x="1772.5627" y="-1349.3531" font-family="'Bitstream Vera Sans'" font-size="12.666px" opacity=".8" xml:space="preserve"><tspan x="1772.5627" y="-1349.3531"/></text>
 <text x="-625.79633" y="-1124.2103" font-family="'Bitstream Vera Sans'" font-size="12.666px" opacity=".8" xml:space="preserve"><tspan x="-625.79633" y="-1124.2103"/></text>
 <text x="-2449.4822" y="-378.65677" font-family="'Bitstream Vera Sans'" font-size="12.666px" opacity=".8" xml:space="preserve"><tspan x="-2449.4822" y="-378.65677"/></text>
 <text x="-734.72656" y="-285.78461" font-family="'Bitstream Vera Sans'" font-size="12.666px" opacity=".8" xml:space="preserve"><tspan x="-734.72656" y="-285.78461"/></text>
 <text x="105.28795" y="-44.870464" font-family="'Bitstream Vera Sans'" font-size="12.666px" opacity=".8" xml:space="preserve"><tspan x="105.28795" y="-44.870464"/></text>
 <text x="129.24889" y="-85.612183" font-family="'Bitstream Vera Sans'" font-size="12.666px" opacity=".8" xml:space="preserve"><tspan x="129.24889" y="-85.612183"/></text>
 <text x="-1140.5677" y="-279.64078" font-family="'Bitstream Vera Sans'" font-size="12.666px" opacity=".8" xml:space="preserve"><tspan x="-1140.5677" y="-279.64078"/></text>
 <text x="-332.96576" y="-693.11096" font-family="'Bitstream Vera Sans'" font-size="12.666px" opacity=".8" xml:space="preserve"><tspan x="-332.96576" y="-693.11096"/></text>
 <text x="-309.00482" y="-733.85266" font-family="'Bitstream Vera Sans'" font-size="12.666px" opacity=".8" xml:space="preserve"><tspan x="-309.00482" y="-733.85266"/></text>
 <text x="-1800.4679" y="-741.06262" font-family="'Bitstream Vera Sans'" font-size="12.666px" opacity=".8" xml:space="preserve"><tspan x="-1800.4679" y="-741.06262"/></text>
 <text x="-339.9252" y="-1014.2966" font-family="'Bitstream Vera Sans'" font-size="12.666px" opacity=".8" xml:space="preserve"><tspan x="-339.9252" y="-1014.2966"/></text>
 <text x="1146.1982" y="-387.60532" font-family="'Bitstream Vera Sans'" font-size="12.666px" opacity=".8" xml:space="preserve"><tspan x="1146.1982" y="-387.60532"/></text>
 <text x="1170.1591" y="-428.34705" font-family="'Bitstream Vera Sans'" font-size="12.666px" opacity=".8" xml:space="preserve"><tspan x="1170.1591" y="-428.34705"/></text>
 <text x="-321.30408" y="-435.55698" font-family="'Bitstream Vera Sans'" font-size="12.666px" opacity=".8" xml:space="preserve"><tspan x="-321.30408" y="-435.55698"/></text>
 <text x="1139.2388" y="-708.79108" font-family="'Bitstream Vera Sans'" font-size="12.666px" opacity=".8" xml:space="preserve"><tspan x="1139.2388" y="-708.79108"/></text>
 <text x="-1259.1204" y="-483.64825" font-family="'Bitstream Vera Sans'" font-size="12.666px" opacity=".8" xml:space="preserve"><tspan x="-1259.1204" y="-483.64825"/></text>
 <text x="-3082.8062" y="261.90527" font-family="'Bitstream Vera Sans'" font-size="12.666px" opacity=".8" xml:space="preserve"><tspan x="-3082.8062" y="261.90527"/></text>
 <g transform="matrix(.90475 0 0 .90475 -767.05 -694.2)">
  <text x="-664.2738" y="1159.4154" font-family="'Bitstream Vera Sans'" font-size="14px" opacity=".8" xml:space="preserve"><tspan x="-664.2738" y="1159.4154"/></text>
 </g>
 <text x="385.59991" y="-386.37762" font-family="'Droid Sans'" font-size="12.666px" xml:space="preserve"><tspan x="385.59991" y="-386.37762"/><tspan x="385.59991" y="-370.54456"/></text>
 <text x="850.78387" y="-868.42218" font-family="'Bitstream Vera Sans'" font-size="12.666px" opacity=".8" xml:space="preserve"><tspan x="850.78387" y="-868.42218"/></text>
 <text x="-972.9021" y="-122.86873" font-family="'Bitstream Vera Sans'" font-size="12.666px" opacity=".8" xml:space="preserve"><tspan x="-972.9021" y="-122.86873"/></text>
 <text x="1577.8634" y="-1153.4181" font-family="'Bitstream Vera Sans'" font-size="12.666px" opacity=".8" xml:space="preserve"><tspan x="1577.8634" y="-1153.4181"/></text>
 <text x="1601.8242" y="-1194.1598" font-family="'Bitstream Vera Sans'" font-size="12.666px" opacity=".8" xml:space="preserve"><tspan x="1601.8242" y="-1194.1598"/></text>
 <text x="110.36107" y="-1201.3698" font-family="'Bitstream Vera Sans'" font-size="12.666px" opacity=".8" xml:space="preserve"><tspan x="110.36107" y="-1201.3698"/></text>
 <text x="1570.9039" y="-1474.6039" font-family="'Bitstream Vera Sans'" font-size="12.666px" opacity=".8" xml:space="preserve"><tspan x="1570.9039" y="-1474.6039"/></text>
 <text x="774.0426" y="-9.374054" font-family="'Bitstream Vera Sans'" font-size="12.666px" opacity=".8" xml:space="preserve"><tspan x="774.0426" y="-9.374054"/></text>
 <text x="798.00354" y="-50.115761" font-family="'Bitstream Vera Sans'" font-size="12.666px" opacity=".8" xml:space="preserve"><tspan x="798.00354" y="-50.115761"/></text>
 <text x="-672.55481" y="-80.193901" font-family="'Bitstream Vera Sans'" font-size="12.666px" opacity=".8" xml:space="preserve"><tspan x="-672.55481" y="-80.193901"/></text>
 <text x="-2496.241" y="665.35956" font-family="'Bitstream Vera Sans'" font-size="12.666px" opacity=".8" xml:space="preserve"><tspan x="-2496.241" y="665.35956"/></text>
 <text x="-558.06372" y="-465.51486" font-family="'Bitstream Vera Sans'" font-size="12.666px" opacity=".8" xml:space="preserve"><tspan x="-558.06372" y="-465.51486"/></text>
 <text x="249.53842" y="-878.98499" font-family="'Bitstream Vera Sans'" font-size="12.666px" opacity=".8" xml:space="preserve"><tspan x="249.53842" y="-878.98499"/></text>
 <text x="273.49936" y="-919.72668" font-family="'Bitstream Vera Sans'" font-size="12.666px" opacity=".8" xml:space="preserve"><tspan x="273.49936" y="-919.72668"/></text>
 <text x="-1217.9637" y="-926.93658" font-family="'Bitstream Vera Sans'" font-size="12.666px" opacity=".8" xml:space="preserve"><tspan x="-1217.9637" y="-926.93658"/></text>
 <text x="242.57895" y="-1200.1708" font-family="'Bitstream Vera Sans'" font-size="12.666px" opacity=".8" xml:space="preserve"><tspan x="242.57895" y="-1200.1708"/></text>
 <text x="1728.7025" y="-573.47937" font-family="'Bitstream Vera Sans'" font-size="12.666px" opacity=".8" xml:space="preserve"><tspan x="1728.7025" y="-573.47937"/></text>
 <text x="1752.6633" y="-614.22113" font-family="'Bitstream Vera Sans'" font-size="12.666px" opacity=".8" xml:space="preserve"><tspan x="1752.6633" y="-614.22113"/></text>
 <text x="261.2001" y="-621.43103" font-family="'Bitstream Vera Sans'" font-size="12.666px" opacity=".8" xml:space="preserve"><tspan x="261.2001" y="-621.43103"/></text>
 <text x="1721.743" y="-894.66504" font-family="'Bitstream Vera Sans'" font-size="12.666px" opacity=".8" xml:space="preserve"><tspan x="1721.743" y="-894.66504"/></text>
 <text x="-676.61621" y="-669.52234" font-family="'Bitstream Vera Sans'" font-size="12.666px" opacity=".8" xml:space="preserve"><tspan x="-676.61621" y="-669.52234"/></text>
 <text x="-2500.302" y="76.031204" font-family="'Bitstream Vera Sans'" font-size="12.666px" opacity=".8" xml:space="preserve"><tspan x="-2500.302" y="76.031204"/></text>
 <text x="-785.54645" y="168.90334" font-family="'Bitstream Vera Sans'" font-size="12.666px" opacity=".8" xml:space="preserve"><tspan x="-785.54645" y="168.90334"/></text>
 <text x="323.47787" y="-10.278803" font-family="'Bitstream Vera Sans'" font-size="12.666px" opacity=".8" xml:space="preserve"><tspan x="323.47787" y="-10.278803"/></text>
 <text x="347.43881" y="-51.020508" font-family="'Bitstream Vera Sans'" font-size="12.666px" opacity=".8" xml:space="preserve"><tspan x="347.43881" y="-51.020508"/></text>
 <text x="-1144.0243" y="-58.23048" font-family="'Bitstream Vera Sans'" font-size="12.666px" opacity=".8" xml:space="preserve"><tspan x="-1144.0243" y="-58.23048"/></text>
 <text x="316.5184" y="-331.46454" font-family="'Bitstream Vera Sans'" font-size="12.666px" opacity=".8" xml:space="preserve"><tspan x="316.5184" y="-331.46454"/></text>
 <text x="-711.21619" y="-60.944725" font-family="'Bitstream Vera Sans'" font-size="12.666px" opacity=".8" xml:space="preserve"><tspan x="-711.21619" y="-60.944725"/></text>
 <text x="-2534.9023" y="684.60876" font-family="'Bitstream Vera Sans'" font-size="12.666px" opacity=".8" xml:space="preserve"><tspan x="-2534.9023" y="684.60876"/></text>
 <text x="-560.12311" y="-922.47522" font-family="'Bitstream Vera Sans'" font-size="12.666px" opacity=".8" xml:space="preserve"><tspan x="-560.12311" y="-922.47522"/></text>
 <text x="247.479" y="-1335.9454" font-family="'Bitstream Vera Sans'" font-size="12.666px" opacity=".8" xml:space="preserve"><tspan x="247.479" y="-1335.9454"/></text>
 <text x="271.43991" y="-1376.6871" font-family="'Bitstream Vera Sans'" font-size="12.666px" opacity=".8" xml:space="preserve"><tspan x="271.43991" y="-1376.6871"/></text>
 <text x="-1220.0232" y="-1383.8971" font-family="'Bitstream Vera Sans'" font-size="12.666px" opacity=".8" xml:space="preserve"><tspan x="-1220.0232" y="-1383.8971"/></text>
 <text x="240.5195" y="-1657.1312" font-family="'Bitstream Vera Sans'" font-size="12.666px" opacity=".8" xml:space="preserve"><tspan x="240.5195" y="-1657.1312"/></text>
 <text x="1726.6429" y="-1030.4399" font-family="'Bitstream Vera Sans'" font-size="12.666px" opacity=".8" xml:space="preserve"><tspan x="1726.6429" y="-1030.4399"/></text>
 <text x="1750.6038" y="-1071.1815" font-family="'Bitstream Vera Sans'" font-size="12.666px" opacity=".8" xml:space="preserve"><tspan x="1750.6038" y="-1071.1815"/></text>
 <text x="259.14066" y="-1078.3915" font-family="'Bitstream Vera Sans'" font-size="12.666px" opacity=".8" xml:space="preserve"><tspan x="259.14066" y="-1078.3915"/></text>
 <text x="1719.6835" y="-1351.6256" font-family="'Bitstream Vera Sans'" font-size="12.666px" opacity=".8" xml:space="preserve"><tspan x="1719.6835" y="-1351.6256"/></text>
 <text x="-678.67566" y="-1126.4828" font-family="'Bitstream Vera Sans'" font-size="12.666px" opacity=".8" xml:space="preserve"><tspan x="-678.67566" y="-1126.4828"/></text>
 <text x="-2502.3616" y="-380.92926" font-family="'Bitstream Vera Sans'" font-size="12.666px" opacity=".8" xml:space="preserve"><tspan x="-2502.3616" y="-380.92926"/></text>
 <text x="-787.6059" y="-288.0571" font-family="'Bitstream Vera Sans'" font-size="12.666px" opacity=".8" xml:space="preserve"><tspan x="-787.6059" y="-288.0571"/></text>
 <text x="52.408642" y="-47.142933" font-family="'Bitstream Vera Sans'" font-size="12.666px" opacity=".8" xml:space="preserve"><tspan x="52.408642" y="-47.142933"/></text>
 <text x="76.369576" y="-87.884651" font-family="'Bitstream Vera Sans'" font-size="12.666px" opacity=".8" xml:space="preserve"><tspan x="76.369576" y="-87.884651"/></text>
 <text x="-1193.447" y="-281.91327" font-family="'Bitstream Vera Sans'" font-size="12.666px" opacity=".8" xml:space="preserve"><tspan x="-1193.447" y="-281.91327"/></text>
 <text x="-385.84506" y="-695.38342" font-family="'Bitstream Vera Sans'" font-size="12.666px" opacity=".8" xml:space="preserve"><tspan x="-385.84506" y="-695.38342"/></text>
 <text x="-361.88412" y="-736.12512" font-family="'Bitstream Vera Sans'" font-size="12.666px" opacity=".8" xml:space="preserve"><tspan x="-361.88412" y="-736.12512"/></text>
 <text x="-1853.3472" y="-743.33502" font-family="'Bitstream Vera Sans'" font-size="12.666px" opacity=".8" xml:space="preserve"><tspan x="-1853.3472" y="-743.33502"/></text>
 <text x="-392.8045" y="-1016.5692" font-family="'Bitstream Vera Sans'" font-size="12.666px" opacity=".8" xml:space="preserve"><tspan x="-392.8045" y="-1016.5692"/></text>
 <text x="1093.319" y="-389.87778" font-family="'Bitstream Vera Sans'" font-size="12.666px" opacity=".8" xml:space="preserve"><tspan x="1093.319" y="-389.87778"/></text>
 <text x="1117.2798" y="-430.61951" font-family="'Bitstream Vera Sans'" font-size="12.666px" opacity=".8" xml:space="preserve"><tspan x="1117.2798" y="-430.61951"/></text>
 <text x="-374.18338" y="-437.82947" font-family="'Bitstream Vera Sans'" font-size="12.666px" opacity=".8" xml:space="preserve"><tspan x="-374.18338" y="-437.82947"/></text>
 <text x="1086.3595" y="-711.06354" font-family="'Bitstream Vera Sans'" font-size="12.666px" opacity=".8" xml:space="preserve"><tspan x="1086.3595" y="-711.06354"/></text>
 <text x="-1311.9996" y="-485.92075" font-family="'Bitstream Vera Sans'" font-size="12.666px" opacity=".8" xml:space="preserve"><tspan x="-1311.9996" y="-485.92075"/></text>
 <text x="-3135.6855" y="259.63281" font-family="'Bitstream Vera Sans'" font-size="12.666px" opacity=".8" xml:space="preserve"><tspan x="-3135.6855" y="259.63281"/></text>
 <g transform="matrix(.90475 0 0 .90475 -819.92 -696.47)">
  <text x="-664.2738" y="1159.4154" font-family="'Bitstream Vera Sans'" font-size="14px" opacity=".8" xml:space="preserve"><tspan x="-664.2738" y="1159.4154"/></text>
 </g>
 <text x="774.0426" y="-2.1360664" font-family="'Bitstream Vera Sans'" font-size="12.666px" opacity=".8" xml:space="preserve"><tspan x="774.0426" y="-2.1360664"/></text>
 <text x="798.00354" y="-42.877769" font-family="'Bitstream Vera Sans'" font-size="12.666px" opacity=".8" xml:space="preserve"><tspan x="798.00354" y="-42.877769"/></text>
 <text x="-672.55481" y="-72.955917" font-family="'Bitstream Vera Sans'" font-size="12.666px" opacity=".8" xml:space="preserve"><tspan x="-672.55481" y="-72.955917"/></text>
 <text x="-2496.241" y="672.59753" font-family="'Bitstream Vera Sans'" font-size="12.666px" opacity=".8" xml:space="preserve"><tspan x="-2496.241" y="672.59753"/></text>
 <text x="-558.06372" y="-458.27686" font-family="'Bitstream Vera Sans'" font-size="12.666px" opacity=".8" xml:space="preserve"><tspan x="-558.06372" y="-458.27686"/></text>
 <text x="249.53842" y="-871.74695" font-family="'Bitstream Vera Sans'" font-size="12.666px" opacity=".8" xml:space="preserve"><tspan x="249.53842" y="-871.74695"/></text>
 <text x="273.49936" y="-912.48871" font-family="'Bitstream Vera Sans'" font-size="12.666px" opacity=".8" xml:space="preserve"><tspan x="273.49936" y="-912.48871"/></text>
 <text x="-1217.9637" y="-919.69861" font-family="'Bitstream Vera Sans'" font-size="12.666px" opacity=".8" xml:space="preserve"><tspan x="-1217.9637" y="-919.69861"/></text>
 <text x="242.57895" y="-1192.9327" font-family="'Bitstream Vera Sans'" font-size="12.666px" opacity=".8" xml:space="preserve"><tspan x="242.57895" y="-1192.9327"/></text>
 <text x="1728.7025" y="-566.24139" font-family="'Bitstream Vera Sans'" font-size="12.666px" opacity=".8" xml:space="preserve"><tspan x="1728.7025" y="-566.24139"/></text>
 <text x="1752.6633" y="-606.98315" font-family="'Bitstream Vera Sans'" font-size="12.666px" opacity=".8" xml:space="preserve"><tspan x="1752.6633" y="-606.98315"/></text>
 <text x="261.2001" y="-614.19305" font-family="'Bitstream Vera Sans'" font-size="12.666px" opacity=".8" xml:space="preserve"><tspan x="261.2001" y="-614.19305"/></text>
 <text x="1721.743" y="-887.427" font-family="'Bitstream Vera Sans'" font-size="12.666px" opacity=".8" xml:space="preserve"><tspan x="1721.743" y="-887.427"/></text>
 <text x="-676.61621" y="-662.28436" font-family="'Bitstream Vera Sans'" font-size="12.666px" opacity=".8" xml:space="preserve"><tspan x="-676.61621" y="-662.28436"/></text>
 <text x="-2500.302" y="83.269196" font-family="'Bitstream Vera Sans'" font-size="12.666px" opacity=".8" xml:space="preserve"><tspan x="-2500.302" y="83.269196"/></text>
 <text x="-785.54645" y="176.14133" font-family="'Bitstream Vera Sans'" font-size="12.666px" opacity=".8" xml:space="preserve"><tspan x="-785.54645" y="176.14133"/></text>
 <text x="323.47787" y="-3.0408154" font-family="'Bitstream Vera Sans'" font-size="12.666px" opacity=".8" xml:space="preserve"><tspan x="323.47787" y="-3.0408154"/></text>
 <text x="347.43881" y="-43.78252" font-family="'Bitstream Vera Sans'" font-size="12.666px" opacity=".8" xml:space="preserve"><tspan x="347.43881" y="-43.78252"/></text>
 <text x="-1144.0243" y="-50.992489" font-family="'Bitstream Vera Sans'" font-size="12.666px" opacity=".8" xml:space="preserve"><tspan x="-1144.0243" y="-50.992489"/></text>
 <text x="316.5184" y="-324.22653" font-family="'Bitstream Vera Sans'" font-size="12.666px" opacity=".8" xml:space="preserve"><tspan x="316.5184" y="-324.22653"/></text>
 <text x="-711.21619" y="-53.706734" font-family="'Bitstream Vera Sans'" font-size="12.666px" opacity=".8" xml:space="preserve"><tspan x="-711.21619" y="-53.706734"/></text>
 <text x="-2534.9023" y="691.8468" font-family="'Bitstream Vera Sans'" font-size="12.666px" opacity=".8" xml:space="preserve"><tspan x="-2534.9023" y="691.8468"/></text>
 <text x="-560.12311" y="-915.23724" font-family="'Bitstream Vera Sans'" font-size="12.666px" opacity=".8" xml:space="preserve"><tspan x="-560.12311" y="-915.23724"/></text>
 <text x="247.479" y="-1328.7074" font-family="'Bitstream Vera Sans'" font-size="12.666px" opacity=".8" xml:space="preserve"><tspan x="247.479" y="-1328.7074"/></text>
 <text x="271.43991" y="-1369.4492" font-family="'Bitstream Vera Sans'" font-size="12.666px" opacity=".8" xml:space="preserve"><tspan x="271.43991" y="-1369.4492"/></text>
 <text x="-1220.0232" y="-1376.6591" font-family="'Bitstream Vera Sans'" font-size="12.666px" opacity=".8" xml:space="preserve"><tspan x="-1220.0232" y="-1376.6591"/></text>
 <text x="240.5195" y="-1649.8932" font-family="'Bitstream Vera Sans'" font-size="12.666px" opacity=".8" xml:space="preserve"><tspan x="240.5195" y="-1649.8932"/></text>
 <text x="1726.6429" y="-1023.202" font-family="'Bitstream Vera Sans'" font-size="12.666px" opacity=".8" xml:space="preserve"><tspan x="1726.6429" y="-1023.202"/></text>
 <text x="1750.6038" y="-1063.9436" font-family="'Bitstream Vera Sans'" font-size="12.666px" opacity=".8" xml:space="preserve"><tspan x="1750.6038" y="-1063.9436"/></text>
 <text x="259.14066" y="-1071.1534" font-family="'Bitstream Vera Sans'" font-size="12.666px" opacity=".8" xml:space="preserve"><tspan x="259.14066" y="-1071.1534"/></text>
 <text x="1719.6835" y="-1344.3876" font-family="'Bitstream Vera Sans'" font-size="12.666px" opacity=".8" xml:space="preserve"><tspan x="1719.6835" y="-1344.3876"/></text>
 <text x="-678.67566" y="-1119.2448" font-family="'Bitstream Vera Sans'" font-size="12.666px" opacity=".8" xml:space="preserve"><tspan x="-678.67566" y="-1119.2448"/></text>
 <text x="-2502.3616" y="-373.69125" font-family="'Bitstream Vera Sans'" font-size="12.666px" opacity=".8" xml:space="preserve"><tspan x="-2502.3616" y="-373.69125"/></text>
 <text x="-787.6059" y="-280.81909" font-family="'Bitstream Vera Sans'" font-size="12.666px" opacity=".8" xml:space="preserve"><tspan x="-787.6059" y="-280.81909"/></text>
 <text x="52.408642" y="-39.904945" font-family="'Bitstream Vera Sans'" font-size="12.666px" opacity=".8" xml:space="preserve"><tspan x="52.408642" y="-39.904945"/></text>
 <text x="76.369576" y="-80.646667" font-family="'Bitstream Vera Sans'" font-size="12.666px" opacity=".8" xml:space="preserve"><tspan x="76.369576" y="-80.646667"/></text>
 <text x="-1193.447" y="-274.67526" font-family="'Bitstream Vera Sans'" font-size="12.666px" opacity=".8" xml:space="preserve"><tspan x="-1193.447" y="-274.67526"/></text>
 <text x="-385.84506" y="-688.14545" font-family="'Bitstream Vera Sans'" font-size="12.666px" opacity=".8" xml:space="preserve"><tspan x="-385.84506" y="-688.14545"/></text>
 <text x="-361.88412" y="-728.88715" font-family="'Bitstream Vera Sans'" font-size="12.666px" opacity=".8" xml:space="preserve"><tspan x="-361.88412" y="-728.88715"/></text>
 <text x="-1853.3472" y="-736.09711" font-family="'Bitstream Vera Sans'" font-size="12.666px" opacity=".8" xml:space="preserve"><tspan x="-1853.3472" y="-736.09711"/></text>
 <text x="-392.8045" y="-1009.3311" font-family="'Bitstream Vera Sans'" font-size="12.666px" opacity=".8" xml:space="preserve"><tspan x="-392.8045" y="-1009.3311"/></text>
 <text x="1093.319" y="-382.6398" font-family="'Bitstream Vera Sans'" font-size="12.666px" opacity=".8" xml:space="preserve"><tspan x="1093.319" y="-382.6398"/></text>
 <text x="1117.2798" y="-423.38153" font-family="'Bitstream Vera Sans'" font-size="12.666px" opacity=".8" xml:space="preserve"><tspan x="1117.2798" y="-423.38153"/></text>
 <text x="-374.18338" y="-430.59146" font-family="'Bitstream Vera Sans'" font-size="12.666px" opacity=".8" xml:space="preserve"><tspan x="-374.18338" y="-430.59146"/></text>
 <text x="1086.3595" y="-703.82556" font-family="'Bitstream Vera Sans'" font-size="12.666px" opacity=".8" xml:space="preserve"><tspan x="1086.3595" y="-703.82556"/></text>
 <text x="-1311.9996" y="-478.68274" font-family="'Bitstream Vera Sans'" font-size="12.666px" opacity=".8" xml:space="preserve"><tspan x="-1311.9996" y="-478.68274"/></text>
 <text x="-3135.6855" y="266.87079" font-family="'Bitstream Vera Sans'" font-size="12.666px" opacity=".8" xml:space="preserve"><tspan x="-3135.6855" y="266.87079"/></text>
 <g transform="matrix(.90475 0 0 .90475 -819.92 -689.23)">
  <text x="-664.2738" y="1159.4154" font-family="'Bitstream Vera Sans'" font-size="14px" opacity=".8" xml:space="preserve"><tspan x="-664.2738" y="1159.4154"/></text>
 </g>
 <text x="332.72061" y="-381.41211" font-family="'Droid Sans'" font-size="12.666px" xml:space="preserve"><tspan x="332.72061" y="-381.41211"/><tspan x="332.72061" y="-365.57904"/></text>
 <text x="797.90454" y="-863.45667" font-family="'Bitstream Vera Sans'" font-size="12.666px" opacity=".8" xml:space="preserve"><tspan x="797.90454" y="-863.45667"/></text>
 <text x="-1025.7815" y="-117.90321" font-family="'Bitstream Vera Sans'" font-size="12.666px" opacity=".8" xml:space="preserve"><tspan x="-1025.7815" y="-117.90321"/></text>
 <text x="1524.9841" y="-1148.4525" font-family="'Bitstream Vera Sans'" font-size="12.666px" opacity=".8" xml:space="preserve"><tspan x="1524.9841" y="-1148.4525"/></text>
 <text x="1548.9449" y="-1189.1942" font-family="'Bitstream Vera Sans'" font-size="12.666px" opacity=".8" xml:space="preserve"><tspan x="1548.9449" y="-1189.1942"/></text>
 <text x="57.481762" y="-1196.4042" font-family="'Bitstream Vera Sans'" font-size="12.666px" opacity=".8" xml:space="preserve"><tspan x="57.481762" y="-1196.4042"/></text>
 <text x="1518.0247" y="-1469.6383" font-family="'Bitstream Vera Sans'" font-size="12.666px" opacity=".8" xml:space="preserve"><tspan x="1518.0247" y="-1469.6383"/></text>
 <circle cx="16" cy="16" r="14" fill="#37a0f2"/>
 <path d="m9.9693 3.3795a14 14 0 0 0 -1.0951 0.5879h0.14356l0.072461 0.23379-0.2064 0.1927 0.8818 0.0247 0.1354 0.3185-0.9926-0.0369-0.0492-0.2447-0.5783-0.1258a14 14 0 0 0 -0.592 0.4238h0.3459v0.23105l-0.15176 0.20234h-0.72461v-0.030078a14 14 0 0 0 -4.3668 6.2482l0.076563 0.03691v1.1689l0.58652 1.0049 0.47852 0.07383 0.061524-0.34453-0.56465-0.8709-0.10938-0.84766h0.32949l0.13945 0.87227 0.81484 1.1908-0.20918 0.38418 0.51816 0.79434 1.2866 0.32v-0.20918l0.51406 0.07383-0.047852 0.36777 0.40332 0.07383 0.6248 0.1709 0.88184 1.0076 1.1279 0.08476 0.10938 0.92148-0.77109 0.54004-0.035546 0.82305-0.11074 0.50312 1.1156 1.4 0.08477 0.47852s0.40434 0.11074 0.45391 0.11074c0.0489 0 0.90644 0.65078 0.90644 0.65078v2.5293l0.30625 0.08613-0.20781 1.1662 0.51406 0.6877-0.09434 1.1566 0.67949 1.1977 0.8668 0.75742a14 14 0 0 0 0.04649 0.0082l0.83808 0.01504 0.08477-0.28301-0.64394-0.54414 0.03691-0.2707 0.11484-0.33086 0.02461-0.3377-0.43613-0.01367-0.22012-0.27617 0.3623-0.35 0.04922-0.2625-0.40469-0.11621 0.02461-0.24473 0.57559-0.0875 0.87637-0.42246 0.29395-0.54004 0.91875-1.1785-0.20781-0.92148 0.28164-0.49082 0.84492 0.02598 0.56875-0.45254 0.18457-1.7787 0.63027-0.80254 0.11074-0.5168-0.57558-0.18457-0.38008-0.62344-1.2988-0.01367-1.0295-0.39375-0.04785-0.73555-0.34453-0.60156-0.93105-0.01367-0.5373-0.84629-0.47852-0.23379-0.02461 0.25703-0.86953 0.05195-0.31856-0.44434-0.90644-0.18457-0.74785 0.86543-1.174-0.198-0.0862-1.329-0.8586-0.146 0.3446-0.652-0.0985-0.375-1.1279 0.756-0.7096-0.086-0.2529-0.557 0.1545-0.572 0.39102-0.72188 0.90098-0.45664 1.7391-0.0014-0.00413 0.53184 0.62481 0.29121-0.049217-0.90781 0.4498-0.45527 0.90918-0.59746 0.06289-0.42109 0.90645-0.94609 0.96387-0.53457-0.08477-0.071093 0.65215-0.61523 0.23926 0.062888 0.11074 0.13809 0.24746-0.27617 0.06016-0.025977-0.2707-0.038283-0.27617-0.092969v-0.26523l0.14629-0.11895h0.32129l0.14766 0.06426 0.12715 0.2584 0.15723-0.02324v-0.02324l0.04375 0.015043 0.45254-0.068362 0.06426-0.22148 0.25703 0.06426v0.24062l-0.23789 0.16406 0.03555 0.2625 0.81758 0.25293s0.0015 0.00427 0.0027 0.010941l0.18867-0.016408 0.01231-0.35547-0.64941-0.29668-0.03691-0.16953 0.53867-0.18457 0.02324-0.5168-0.56192-0.34316-0.03691-0.8709-0.77246 0.38008h-0.28164l0.07383-0.66309-1.05-0.24883-0.43477 0.32949v1.0035l-0.78203 0.24883-0.31309 0.65488-0.34043 0.054691v-0.83809l-0.735-0.1014-0.367-0.2393-0.148-0.5427 1.314-0.7711 0.642-0.1955 0.06563 0.43203 0.3582-0.017774 0.02734-0.21738 0.37461-0.054687 0.0069-0.075173-0.16133-0.066992-0.03691-0.23105 0.46074-0.038281 0.27754-0.29121 0.01504-0.020508 0.0041 0.00136 0.08477-0.0875 0.96797-0.12305 0.42793 0.36504-1.1225 0.59883 1.4287 0.3377 0.18457-0.47852h0.6248l0.22012-0.41699-0.44024-0.11074v-0.52773l-1.385-0.6153-0.955 0.1107-0.539 0.283 0.03691 0.6877-0.56465-0.086133-0.08613-0.38008 0.54004-0.49219-0.98027-0.047851-0.28164 0.084766-0.12168 0.33086 0.36641 0.062891-0.07246 0.36777-0.6248 0.036914-0.09707 0.24473-0.90644 0.025976s-0.02517-0.51543-0.06152-0.51543c-0.03637 2.45e-5 0.70957-0.012305 0.70957-0.012305l0.54-0.5291-0.294-0.1477-0.392 0.3815-0.649-0.037-0.3477-0.4771zm15.177 2.0303-0.4457 0.175-0.28574 0.31172 0.06563 0.36367 0.35137 0.049217 0.21055 0.53047 0.60566-0.24473 0.0998 0.7082h-0.18184l-0.49766-0.073828-0.55098 0.092969-0.5332 0.75469-0.76289 0.12031-0.11074 0.65488 0.32266 0.075195-0.09297 0.42109-0.75742-0.15176-0.69453 0.15176-0.14766 0.38691 0.12031 0.81348 0.40742 0.19141 0.68359-0.0041 0.46211-0.04101 0.14082-0.36914 0.72188-0.93926 0.47578 0.09707 0.46758-0.42383 0.0875 0.33086 1.1512 0.7793-0.14082 0.18867-0.51953-0.02734 0.19961 0.28301 0.31992 0.06973 0.37324-0.15586-0.0082-0.45117 0.1668-0.083398-0.13398-0.14219-0.76836-0.4293-0.20098-0.57012h0.63848l0.20371 0.20234 0.54961 0.47578 0.02324 0.57422 0.57012 0.60703 0.21191-0.83262 0.39375-0.21602 0.07383 0.68086 0.38555 0.42383 0.1791-0.0027a14 14 0 0 0 -2.079 -3.5451l-0.92832-0.0082-0.06289-0.21055 0.55234-0.28164a14 14 0 0 0 -1.3125 -1.3098zm-17.124 0.1449c0.027755 0 0 0.32129 0 0.32129l-0.726 0.0465-0.1381-0.1655 0.5141-0.1476s0.32224-0.054687 0.35-0.054687zm0.8832 1.5654 0.3486 0.0834-0.1203 0.469-0.3774 0.1203-0.2378-0.4895 0.3869-0.1832zm0.95566 1.1129h0.57832v0.17637h0.12715v0.30352h-0.88184l-0.3297-0.0916 0.082-0.2119 0.4238-0.1764zm0.8627 0.12988 0.30352 0.27617-0.30352 0.073828v-0.35zm0.66719 0.42383 0.22422 0.14082-0.18047 0.14902-0.17774-0.14902 0.13398-0.14082zm-1.6953 0.046487h0.48672l-0.6242 0.8736-0.257-0.138 0.0547-0.3678 0.3404-0.3678zm0.78203 0h0.49492v0.29395l-0.22012 0.14219-0.2748 0.051954v-0.48809zm0.61523 0.32266h0.03691l0.56055 0.16543v0.28574h-0.46895l-0.12852-0.18594v-0.26523zm-0.23106 0.26523v0.28711l-0.21055 0.21191h-0.46895l0.07383-0.32129 0.22148-0.019138 0.04511-0.11074 0.33906-0.047852zm14.574 1.2168-1.6543 0.12852-0.5127 0.27617h-0.65625l-0.32266-0.03281-0.79707 0.44434v0.83535l-1.6311 1.1785 0.13535 0.50312h0.33086l-0.08613 0.47852-0.23242 0.08613-0.01367 1.2523 1.4096 1.6078h0.6125l0.03828-0.09707h1.102l0.31719-0.29531h0.62617l0.3418 0.34453 0.93242 0.09707-0.12305 1.2414 1.0336 1.8293-0.54414 1.0432 0.03691 0.49082 0.42793 0.4293v1.1812l0.56328 0.75879v0.5168a14 14 0 0 0 3.23 -8.936 14 14 0 0 0 -0.595 -3.999h-0.6959l-0.71641-0.53457-0.75332 0.07383v0.46074h-0.23926l-0.25703-0.18457-1.307-0.33223v-0.84629z" fill="#a2f46a"/>
 <circle transform="matrix(1.4,0,0,1.4,-384.4,-20.4)" cx="286" cy="26" r="10" clip-path="url(#clipPath4186)" opacity="0" stroke-width=".45455"/>
 <circle transform="matrix(1.4,0,0,1.4,-384.4,-20.4)" cx="286" cy="26" r="10" clip-path="url(#clipPath4186)" opacity="0" stroke-width=".90909"/>
 <path d="m16 2a14 14 0 0 0 -14 14 14 14 0 0 0 0.0215 0.586 14 14 0 0 1 13.978 -13.586 14 14 0 0 1 13.979 13.414 14 14 0 0 0 0.021 -0.414 14 14 0 0 0 -14 -14z" fill="#fff" opacity=".2"/>
 <path d="m29.979 16.414a14 14 0 0 1 -13.979 13.586 14 14 0 0 1 -13.978 -13.414 14 14 0 0 0 -0.022 0.414 14 14 0 0 0 14 14 14 14 0 0 0 14 -14 14 14 0 0 0 -0.021 -0.586z" opacity=".2"/>
 <circle cx="24" cy="23" r="8" fill="#ffc921"/>
 <path d="m23.983 27-2.9828-4h2v-4h2v4h2z" fill="#2e2e2e"/>
 <path d="m31.979 23.424a8 8 0 0 1 -7.979 7.576 8 8 0 0 1 -7.979 -7.424 8 8 0 0 0 -0.021 0.424 8 8 0 0 0 8 8 8 8 0 0 0 8 -8 8 8 0 0 0 -0.021 -0.576z" opacity=".2"/>
</svg>
