<svg width="32" height="32" version="1.0" xmlns="http://www.w3.org/2000/svg">
 <defs>
  <clipPath id="clipPath4186">
   <circle cx="286" cy="26" r="10" fill="url(#linearGradient4190)"/>
  </clipPath>
  <clipPath id="clipPath-910713076">
   <g transform="translate(0,-1004.4)">
    <path transform="matrix(15.333,0,0,11.5,415,878.86)" d="m-24 13c0 1.105-0.672 2-1.5 2s-1.5-0.895-1.5-2 0.672-2 1.5-2 1.5 0.895 1.5 2z" fill="#1890d0"/>
   </g>
  </clipPath>
 </defs>
 <text x="877.22626" y="-5.1873989" font-family="'Bitstream Vera Sans'" font-size="12.666px" opacity=".8" xml:space="preserve"><tspan x="877.22626" y="-5.1873989"/></text>
 <text x="901.18719" y="-45.929108" font-family="'Bitstream Vera Sans'" font-size="12.666px" opacity=".8" xml:space="preserve"><tspan x="901.18719" y="-45.929108"/></text>
 <text x="-569.37115" y="-76.007248" font-family="'Bitstream Vera Sans'" font-size="12.666px" opacity=".8" xml:space="preserve"><tspan x="-569.37115" y="-76.007248"/></text>
 <text x="-2393.0571" y="669.5462" font-family="'Bitstream Vera Sans'" font-size="12.666px" opacity=".8" xml:space="preserve"><tspan x="-2393.0571" y="669.5462"/></text>
 <text x="-454.88007" y="-461.32822" font-family="'Bitstream Vera Sans'" font-size="12.666px" opacity=".8" xml:space="preserve"><tspan x="-454.88007" y="-461.32822"/></text>
 <text x="352.72208" y="-874.79834" font-family="'Bitstream Vera Sans'" font-size="12.666px" opacity=".8" xml:space="preserve"><tspan x="352.72208" y="-874.79834"/></text>
 <text x="376.68301" y="-915.54004" font-family="'Bitstream Vera Sans'" font-size="12.666px" opacity=".8" xml:space="preserve"><tspan x="376.68301" y="-915.54004"/></text>
 <text x="-1114.7802" y="-922.74994" font-family="'Bitstream Vera Sans'" font-size="12.666px" opacity=".8" xml:space="preserve"><tspan x="-1114.7802" y="-922.74994"/></text>
 <text x="345.7626" y="-1195.9841" font-family="'Bitstream Vera Sans'" font-size="12.666px" opacity=".8" xml:space="preserve"><tspan x="345.7626" y="-1195.9841"/></text>
 <text x="1831.8861" y="-569.29272" font-family="'Bitstream Vera Sans'" font-size="12.666px" opacity=".8" xml:space="preserve"><tspan x="1831.8861" y="-569.29272"/></text>
 <text x="1855.8469" y="-610.03448" font-family="'Bitstream Vera Sans'" font-size="12.666px" opacity=".8" xml:space="preserve"><tspan x="1855.8469" y="-610.03448"/></text>
 <text x="364.38376" y="-617.24438" font-family="'Bitstream Vera Sans'" font-size="12.666px" opacity=".8" xml:space="preserve"><tspan x="364.38376" y="-617.24438"/></text>
 <text x="1824.9266" y="-890.47839" font-family="'Bitstream Vera Sans'" font-size="12.666px" opacity=".8" xml:space="preserve"><tspan x="1824.9266" y="-890.47839"/></text>
 <text x="-573.43256" y="-665.33569" font-family="'Bitstream Vera Sans'" font-size="12.666px" opacity=".8" xml:space="preserve"><tspan x="-573.43256" y="-665.33569"/></text>
 <text x="-2397.1182" y="80.217857" font-family="'Bitstream Vera Sans'" font-size="12.666px" opacity=".8" xml:space="preserve"><tspan x="-2397.1182" y="80.217857"/></text>
 <text x="-682.36279" y="173.09" font-family="'Bitstream Vera Sans'" font-size="12.666px" opacity=".8" xml:space="preserve"><tspan x="-682.36279" y="173.09"/></text>
 <text x="426.66153" y="-6.0921478" font-family="'Bitstream Vera Sans'" font-size="12.666px" opacity=".8" xml:space="preserve"><tspan x="426.66153" y="-6.0921478"/></text>
 <text x="450.62247" y="-46.833855" font-family="'Bitstream Vera Sans'" font-size="12.666px" opacity=".8" xml:space="preserve"><tspan x="450.62247" y="-46.833855"/></text>
 <text x="-1040.8407" y="-54.043827" font-family="'Bitstream Vera Sans'" font-size="12.666px" opacity=".8" xml:space="preserve"><tspan x="-1040.8407" y="-54.043827"/></text>
 <text x="419.70206" y="-327.27789" font-family="'Bitstream Vera Sans'" font-size="12.666px" opacity=".8" xml:space="preserve"><tspan x="419.70206" y="-327.27789"/></text>
 <text x="-608.03253" y="-56.758072" font-family="'Bitstream Vera Sans'" font-size="12.666px" opacity=".8" xml:space="preserve"><tspan x="-608.03253" y="-56.758072"/></text>
 <text x="-2431.7185" y="688.79541" font-family="'Bitstream Vera Sans'" font-size="12.666px" opacity=".8" xml:space="preserve"><tspan x="-2431.7185" y="688.79541"/></text>
 <text x="-456.93948" y="-918.28857" font-family="'Bitstream Vera Sans'" font-size="12.666px" opacity=".8" xml:space="preserve"><tspan x="-456.93948" y="-918.28857"/></text>
 <text x="350.66266" y="-1331.7588" font-family="'Bitstream Vera Sans'" font-size="12.666px" opacity=".8" xml:space="preserve"><tspan x="350.66266" y="-1331.7588"/></text>
 <text x="374.62357" y="-1372.5005" font-family="'Bitstream Vera Sans'" font-size="12.666px" opacity=".8" xml:space="preserve"><tspan x="374.62357" y="-1372.5005"/></text>
 <text x="-1116.8396" y="-1379.7104" font-family="'Bitstream Vera Sans'" font-size="12.666px" opacity=".8" xml:space="preserve"><tspan x="-1116.8396" y="-1379.7104"/></text>
 <text x="343.70316" y="-1652.9446" font-family="'Bitstream Vera Sans'" font-size="12.666px" opacity=".8" xml:space="preserve"><tspan x="343.70316" y="-1652.9446"/></text>
 <text x="1829.8265" y="-1026.2533" font-family="'Bitstream Vera Sans'" font-size="12.666px" opacity=".8" xml:space="preserve"><tspan x="1829.8265" y="-1026.2533"/></text>
 <text x="1853.7874" y="-1066.9949" font-family="'Bitstream Vera Sans'" font-size="12.666px" opacity=".8" xml:space="preserve"><tspan x="1853.7874" y="-1066.9949"/></text>
 <text x="362.32431" y="-1074.2048" font-family="'Bitstream Vera Sans'" font-size="12.666px" opacity=".8" xml:space="preserve"><tspan x="362.32431" y="-1074.2048"/></text>
 <text x="1822.8671" y="-1347.439" font-family="'Bitstream Vera Sans'" font-size="12.666px" opacity=".8" xml:space="preserve"><tspan x="1822.8671" y="-1347.439"/></text>
 <text x="-575.492" y="-1122.2961" font-family="'Bitstream Vera Sans'" font-size="12.666px" opacity=".8" xml:space="preserve"><tspan x="-575.492" y="-1122.2961"/></text>
 <text x="-2399.1777" y="-376.74261" font-family="'Bitstream Vera Sans'" font-size="12.666px" opacity=".8" xml:space="preserve"><tspan x="-2399.1777" y="-376.74261"/></text>
 <text x="-684.42224" y="-283.87045" font-family="'Bitstream Vera Sans'" font-size="12.666px" opacity=".8" xml:space="preserve"><tspan x="-684.42224" y="-283.87045"/></text>
 <text x="155.5923" y="-42.956276" font-family="'Bitstream Vera Sans'" font-size="12.666px" opacity=".8" xml:space="preserve"><tspan x="155.5923" y="-42.956276"/></text>
 <text x="179.55324" y="-83.697998" font-family="'Bitstream Vera Sans'" font-size="12.666px" opacity=".8" xml:space="preserve"><tspan x="179.55324" y="-83.697998"/></text>
 <text x="-1090.2634" y="-277.72662" font-family="'Bitstream Vera Sans'" font-size="12.666px" opacity=".8" xml:space="preserve"><tspan x="-1090.2634" y="-277.72662"/></text>
 <text x="-282.66141" y="-691.19678" font-family="'Bitstream Vera Sans'" font-size="12.666px" opacity=".8" xml:space="preserve"><tspan x="-282.66141" y="-691.19678"/></text>
 <text x="-258.70047" y="-731.93848" font-family="'Bitstream Vera Sans'" font-size="12.666px" opacity=".8" xml:space="preserve"><tspan x="-258.70047" y="-731.93848"/></text>
 <text x="-1750.1636" y="-739.14838" font-family="'Bitstream Vera Sans'" font-size="12.666px" opacity=".8" xml:space="preserve"><tspan x="-1750.1636" y="-739.14838"/></text>
 <text x="-289.62085" y="-1012.3825" font-family="'Bitstream Vera Sans'" font-size="12.666px" opacity=".8" xml:space="preserve"><tspan x="-289.62085" y="-1012.3825"/></text>
 <text x="1196.5026" y="-385.69113" font-family="'Bitstream Vera Sans'" font-size="12.666px" opacity=".8" xml:space="preserve"><tspan x="1196.5026" y="-385.69113"/></text>
 <text x="1220.4634" y="-426.43286" font-family="'Bitstream Vera Sans'" font-size="12.666px" opacity=".8" xml:space="preserve"><tspan x="1220.4634" y="-426.43286"/></text>
 <text x="-270.99973" y="-433.64282" font-family="'Bitstream Vera Sans'" font-size="12.666px" opacity=".8" xml:space="preserve"><tspan x="-270.99973" y="-433.64282"/></text>
 <text x="1189.5431" y="-706.87689" font-family="'Bitstream Vera Sans'" font-size="12.666px" opacity=".8" xml:space="preserve"><tspan x="1189.5431" y="-706.87689"/></text>
 <text x="-1208.816" y="-481.7341" font-family="'Bitstream Vera Sans'" font-size="12.666px" opacity=".8" xml:space="preserve"><tspan x="-1208.816" y="-481.7341"/></text>
 <text x="-3032.5017" y="263.81946" font-family="'Bitstream Vera Sans'" font-size="12.666px" opacity=".8" xml:space="preserve"><tspan x="-3032.5017" y="263.81946"/></text>
 <g transform="matrix(.90475 0 0 .90475 -716.75 -692.29)">
  <text x="-664.2738" y="1159.4154" font-family="'Bitstream Vera Sans'" font-size="14px" opacity=".8" xml:space="preserve"><tspan x="-664.2738" y="1159.4154"/></text>
 </g>
 <text x="877.22626" y="2.0505886" font-family="'Bitstream Vera Sans'" font-size="12.666px" opacity=".8" xml:space="preserve"><tspan x="877.22626" y="2.0505886"/></text>
 <text x="901.18719" y="-38.691116" font-family="'Bitstream Vera Sans'" font-size="12.666px" opacity=".8" xml:space="preserve"><tspan x="901.18719" y="-38.691116"/></text>
 <text x="-569.37115" y="-68.769257" font-family="'Bitstream Vera Sans'" font-size="12.666px" opacity=".8" xml:space="preserve"><tspan x="-569.37115" y="-68.769257"/></text>
 <text x="-2393.0571" y="676.78418" font-family="'Bitstream Vera Sans'" font-size="12.666px" opacity=".8" xml:space="preserve"><tspan x="-2393.0571" y="676.78418"/></text>
 <text x="-454.88007" y="-454.09021" font-family="'Bitstream Vera Sans'" font-size="12.666px" opacity=".8" xml:space="preserve"><tspan x="-454.88007" y="-454.09021"/></text>
 <text x="352.72208" y="-867.5603" font-family="'Bitstream Vera Sans'" font-size="12.666px" opacity=".8" xml:space="preserve"><tspan x="352.72208" y="-867.5603"/></text>
 <text x="376.68301" y="-908.30206" font-family="'Bitstream Vera Sans'" font-size="12.666px" opacity=".8" xml:space="preserve"><tspan x="376.68301" y="-908.30206"/></text>
 <text x="-1114.7802" y="-915.51196" font-family="'Bitstream Vera Sans'" font-size="12.666px" opacity=".8" xml:space="preserve"><tspan x="-1114.7802" y="-915.51196"/></text>
 <text x="345.7626" y="-1188.7461" font-family="'Bitstream Vera Sans'" font-size="12.666px" opacity=".8" xml:space="preserve"><tspan x="345.7626" y="-1188.7461"/></text>
 <text x="1831.8861" y="-562.05475" font-family="'Bitstream Vera Sans'" font-size="12.666px" opacity=".8" xml:space="preserve"><tspan x="1831.8861" y="-562.05475"/></text>
 <text x="1855.8469" y="-602.79651" font-family="'Bitstream Vera Sans'" font-size="12.666px" opacity=".8" xml:space="preserve"><tspan x="1855.8469" y="-602.79651"/></text>
 <text x="364.38376" y="-610.00641" font-family="'Bitstream Vera Sans'" font-size="12.666px" opacity=".8" xml:space="preserve"><tspan x="364.38376" y="-610.00641"/></text>
 <text x="1824.9266" y="-883.24036" font-family="'Bitstream Vera Sans'" font-size="12.666px" opacity=".8" xml:space="preserve"><tspan x="1824.9266" y="-883.24036"/></text>
 <text x="-573.43256" y="-658.09772" font-family="'Bitstream Vera Sans'" font-size="12.666px" opacity=".8" xml:space="preserve"><tspan x="-573.43256" y="-658.09772"/></text>
 <text x="-2397.1182" y="87.455849" font-family="'Bitstream Vera Sans'" font-size="12.666px" opacity=".8" xml:space="preserve"><tspan x="-2397.1182" y="87.455849"/></text>
 <text x="-682.36279" y="180.32799" font-family="'Bitstream Vera Sans'" font-size="12.666px" opacity=".8" xml:space="preserve"><tspan x="-682.36279" y="180.32799"/></text>
 <text x="426.66153" y="1.1458397" font-family="'Bitstream Vera Sans'" font-size="12.666px" opacity=".8" xml:space="preserve"><tspan x="426.66153" y="1.1458397"/></text>
 <text x="450.62247" y="-39.595863" font-family="'Bitstream Vera Sans'" font-size="12.666px" opacity=".8" xml:space="preserve"><tspan x="450.62247" y="-39.595863"/></text>
 <text x="-1040.8407" y="-46.805836" font-family="'Bitstream Vera Sans'" font-size="12.666px" opacity=".8" xml:space="preserve"><tspan x="-1040.8407" y="-46.805836"/></text>
 <text x="419.70206" y="-320.03989" font-family="'Bitstream Vera Sans'" font-size="12.666px" opacity=".8" xml:space="preserve"><tspan x="419.70206" y="-320.03989"/></text>
 <text x="-608.03253" y="-49.520081" font-family="'Bitstream Vera Sans'" font-size="12.666px" opacity=".8" xml:space="preserve"><tspan x="-608.03253" y="-49.520081"/></text>
 <text x="-2431.7185" y="696.03345" font-family="'Bitstream Vera Sans'" font-size="12.666px" opacity=".8" xml:space="preserve"><tspan x="-2431.7185" y="696.03345"/></text>
 <text x="-456.93948" y="-911.0506" font-family="'Bitstream Vera Sans'" font-size="12.666px" opacity=".8" xml:space="preserve"><tspan x="-456.93948" y="-911.0506"/></text>
 <text x="350.66266" y="-1324.5208" font-family="'Bitstream Vera Sans'" font-size="12.666px" opacity=".8" xml:space="preserve"><tspan x="350.66266" y="-1324.5208"/></text>
 <text x="374.62357" y="-1365.2626" font-family="'Bitstream Vera Sans'" font-size="12.666px" opacity=".8" xml:space="preserve"><tspan x="374.62357" y="-1365.2626"/></text>
 <text x="-1116.8396" y="-1372.4724" font-family="'Bitstream Vera Sans'" font-size="12.666px" opacity=".8" xml:space="preserve"><tspan x="-1116.8396" y="-1372.4724"/></text>
 <text x="343.70316" y="-1645.7065" font-family="'Bitstream Vera Sans'" font-size="12.666px" opacity=".8" xml:space="preserve"><tspan x="343.70316" y="-1645.7065"/></text>
 <text x="1829.8265" y="-1019.0153" font-family="'Bitstream Vera Sans'" font-size="12.666px" opacity=".8" xml:space="preserve"><tspan x="1829.8265" y="-1019.0153"/></text>
 <text x="1853.7874" y="-1059.757" font-family="'Bitstream Vera Sans'" font-size="12.666px" opacity=".8" xml:space="preserve"><tspan x="1853.7874" y="-1059.757"/></text>
 <text x="362.32431" y="-1066.9668" font-family="'Bitstream Vera Sans'" font-size="12.666px" opacity=".8" xml:space="preserve"><tspan x="362.32431" y="-1066.9668"/></text>
 <text x="1822.8671" y="-1340.2009" font-family="'Bitstream Vera Sans'" font-size="12.666px" opacity=".8" xml:space="preserve"><tspan x="1822.8671" y="-1340.2009"/></text>
 <text x="-575.492" y="-1115.0581" font-family="'Bitstream Vera Sans'" font-size="12.666px" opacity=".8" xml:space="preserve"><tspan x="-575.492" y="-1115.0581"/></text>
 <text x="-2399.1777" y="-369.50461" font-family="'Bitstream Vera Sans'" font-size="12.666px" opacity=".8" xml:space="preserve"><tspan x="-2399.1777" y="-369.50461"/></text>
 <text x="-684.42224" y="-276.63245" font-family="'Bitstream Vera Sans'" font-size="12.666px" opacity=".8" xml:space="preserve"><tspan x="-684.42224" y="-276.63245"/></text>
 <text x="155.5923" y="-35.718292" font-family="'Bitstream Vera Sans'" font-size="12.666px" opacity=".8" xml:space="preserve"><tspan x="155.5923" y="-35.718292"/></text>
 <text x="179.55324" y="-76.460007" font-family="'Bitstream Vera Sans'" font-size="12.666px" opacity=".8" xml:space="preserve"><tspan x="179.55324" y="-76.460007"/></text>
 <text x="-1090.2634" y="-270.48859" font-family="'Bitstream Vera Sans'" font-size="12.666px" opacity=".8" xml:space="preserve"><tspan x="-1090.2634" y="-270.48859"/></text>
 <text x="-282.66141" y="-683.9588" font-family="'Bitstream Vera Sans'" font-size="12.666px" opacity=".8" xml:space="preserve"><tspan x="-282.66141" y="-683.9588"/></text>
 <text x="-258.70047" y="-724.7005" font-family="'Bitstream Vera Sans'" font-size="12.666px" opacity=".8" xml:space="preserve"><tspan x="-258.70047" y="-724.7005"/></text>
 <text x="-1750.1636" y="-731.91046" font-family="'Bitstream Vera Sans'" font-size="12.666px" opacity=".8" xml:space="preserve"><tspan x="-1750.1636" y="-731.91046"/></text>
 <text x="-289.62085" y="-1005.1445" font-family="'Bitstream Vera Sans'" font-size="12.666px" opacity=".8" xml:space="preserve"><tspan x="-289.62085" y="-1005.1445"/></text>
 <text x="1196.5026" y="-378.45316" font-family="'Bitstream Vera Sans'" font-size="12.666px" opacity=".8" xml:space="preserve"><tspan x="1196.5026" y="-378.45316"/></text>
 <text x="1220.4634" y="-419.19489" font-family="'Bitstream Vera Sans'" font-size="12.666px" opacity=".8" xml:space="preserve"><tspan x="1220.4634" y="-419.19489"/></text>
 <text x="-270.99973" y="-426.40482" font-family="'Bitstream Vera Sans'" font-size="12.666px" opacity=".8" xml:space="preserve"><tspan x="-270.99973" y="-426.40482"/></text>
 <text x="1189.5431" y="-699.63892" font-family="'Bitstream Vera Sans'" font-size="12.666px" opacity=".8" xml:space="preserve"><tspan x="1189.5431" y="-699.63892"/></text>
 <text x="-1208.816" y="-474.49609" font-family="'Bitstream Vera Sans'" font-size="12.666px" opacity=".8" xml:space="preserve"><tspan x="-1208.816" y="-474.49609"/></text>
 <text x="-3032.5017" y="271.05743" font-family="'Bitstream Vera Sans'" font-size="12.666px" opacity=".8" xml:space="preserve"><tspan x="-3032.5017" y="271.05743"/></text>
 <g transform="matrix(.90475 0 0 .90475 -716.75 -685.05)">
  <text x="-664.2738" y="1159.4154" font-family="'Bitstream Vera Sans'" font-size="14px" opacity=".8" xml:space="preserve"><tspan x="-664.2738" y="1159.4154"/></text>
 </g>
 <text x="435.90427" y="-377.22546" font-family="'Droid Sans'" font-size="12.666px" xml:space="preserve"><tspan x="435.90427" y="-377.22546"/><tspan x="435.90427" y="-361.3924"/></text>
 <text x="901.0882" y="-859.27002" font-family="'Bitstream Vera Sans'" font-size="12.666px" opacity=".8" xml:space="preserve"><tspan x="901.0882" y="-859.27002"/></text>
 <text x="-922.59778" y="-113.71655" font-family="'Bitstream Vera Sans'" font-size="12.666px" opacity=".8" xml:space="preserve"><tspan x="-922.59778" y="-113.71655"/></text>
 <text x="1628.1677" y="-1144.2659" font-family="'Bitstream Vera Sans'" font-size="12.666px" opacity=".8" xml:space="preserve"><tspan x="1628.1677" y="-1144.2659"/></text>
 <text x="1652.1285" y="-1185.0076" font-family="'Bitstream Vera Sans'" font-size="12.666px" opacity=".8" xml:space="preserve"><tspan x="1652.1285" y="-1185.0076"/></text>
 <text x="160.66542" y="-1192.2175" font-family="'Bitstream Vera Sans'" font-size="12.666px" opacity=".8" xml:space="preserve"><tspan x="160.66542" y="-1192.2175"/></text>
 <text x="1621.2083" y="-1465.4517" font-family="'Bitstream Vera Sans'" font-size="12.666px" opacity=".8" xml:space="preserve"><tspan x="1621.2083" y="-1465.4517"/></text>
 <path transform="matrix(0,-1,-1,0,0,0)" d="m-16-30c7.756 0 14 6.244 14 14s-6.244 14-14 14-14-6.244-14-14 6.244-14 14-14z" fill="#37a0f2"/>
 <path d="m16 2c-7.756 0-14 6.244-14 14 0 0.16884 0.01952 0.33264 0.02539 0.5 0.2641-7.5206 6.3878-13.5 13.975-13.5s13.711 5.9794 13.975 13.5c6e-3 -0.16736 0.0254-0.33116 0.0254-0.5 0-7.756-6.244-14-14-14z" fill="#fff" opacity=".2"/>
 <path d="m2.0254 16.5c-0.0059 0.167-0.0254 0.331-0.0254 0.5 0 7.756 6.244 14 14 14s14-6.244 14-14c0-0.16884-0.01952-0.33264-0.02539-0.5-0.264 7.521-6.388 13.5-13.975 13.5-7.5872 0-13.711-5.979-13.975-13.5z" opacity=".2"/>
 <circle transform="matrix(1.3333 0 0 1.3333 -365.33 -18.667)" cx="286" cy="26" r="10" clip-path="url(#clipPath4186)" opacity="0" stroke-width=".45455"/>
 <g transform="matrix(.63637 0 0 .63646 .72573 2.1787)" opacity=".2">
  <g clip-path="url(#clipPath-910713076)"><!-- color: #266597 -->
   <path d="m31.941 18.309c-0.645 0.152-1.25 0.461-1.781 0.844-0.871 1.191-2.078 2.152-3.684 2.531-0.609-0.445-1.352-0.961-1.859-1.547-2.324 0.266-5.523 0.781-6.074 3.02-0.574 2.324 0.949 5.359 2.188 5.535 1.176 0.164 4.957-0.887 6.785-1.379-1.531-1.195-3.293-1.719-4.254-1.781-1.133-0.09-2.109 0.113-3.125 0.375 1.484-0.957 2.828-1.672 4.156-1.938 0.996-0.188 2.543-0.195 4.402 0.5 2.305 0.863 2.855 2.094 4.473 2.648 1.07-0.168 0.527-1.355 0.305-2.18-0.148-0.449-0.266-0.789-0.313-0.938-0.082-0.25-1.238-3.207-1.406-3.969-0.113-0.52-0.016-1.195 0.188-1.723"/>
   <path d="m26.359 13.656c-1.613 0.68-1.668 1.965-1.758 3.359 0.676-0.613 2.801-1.063 3.375-1.559 1.695-1.469 2.352-4.504 1.996-4.055-1.152 1.457-3.02 1.926-3.613 2.254"/>
   <path d="m17.477 34.05s-1.602-1.063-1.57-1.402c1.051-5.699-2.574-1.645-2.848 0.906-0.289 2.449 0.613 5.273 0.746 5.445 0.215-2 0.406-3.109 3.672-4.953m0 4e-3"/>
   <path d="m34.988 21.492c-0.082-2.121-1.414-3.586-2.32-3.242-0.387 0.145-0.641 1.133-0.508 1.746 0.445 2.18 2.277 4.699 1.824 6.855-0.34 1.031-3.348 1.672-3.348 1.672s-0.059 0.883-0.172 1.484c-0.137 0.73-0.414 1.309-0.414 1.309s0.715 0.641 0.742 0.641c0.031 0 4.5-2.32 4.195-10.465"/>
   <path d="m33 27.332c-0.742-0.301-1-0.43-1.969-1.148-5.355-4-10.285-0.535-10.188-0.57 0.887-0.281 1.891-0.535 3.191-0.453 1.051 0.07 2.449 0.734 4.176 2.168 1.16 1.02 2.918 1.148 4.785 4e-3m4e-3 0"/>
   <path d="m27.973 15.902c-1.98 0.637-3.051 1.184-3.371 1.438-0.656 1.672 0.668 2.93 1.875 3.813 1.586-0.375 2.906-1.551 3.496-2.844-0.309 0.043-0.637-0.016-1-0.219-0.707-0.398-1.137-1.355-1-2.188"/>
   <path d="m30.855 15.586c-0.129-0.508-0.543-1.16-0.656-1.16-0.102 0-1.203 0.82-1.488 1.102-0.645 0.645-0.332 1.82 0.383 2.219 1.211 0.68 2.105-0.813 1.762-2.16"/>
   <path d="m29.914 13.867c0.484-0.465 1.129-1.227 1.297-2.387 0.098-1.039-0.156-1.68-0.469-2.477-0.152 1.555-0.379 3.285-1.438 5.121-0.332 0.578-0.152 0.473 0.609-0.258"/>
   <path d="m16.328 29.969c0.168 0.422 0.156 1.223-0.094 2.594-4e-3 0.012 0 0.02 0 0.031 0.176 0.246 0.539 0.543 0.902 0.813 1.25-0.582 2.82-1.672 2.719-1.688-0.668-0.113-2.734-0.617-3.527-1.75"/>
   <path d="m27.754 27.527c-0.055 0-0.098 0-0.219 0.031-1.555 0.434-5.527 1.449-6.148 2.125-0.242 0.516-0.48 2.574-3.969 3.879-0.098 0.035 2.93 1.992 3.094 2 9.883 0.414 9.871-6.676 9.742-7-0.961 0.016-1.777-0.32-2.406-0.938-0.031-0.031-0.059-0.063-0.094-0.094"/>
  </g>
 </g>
 <circle transform="matrix(1.3333 0 0 1.3333 -365.33 -18.667)" cx="286" cy="26" r="10" clip-path="url(#clipPath4186)" opacity="0" stroke-width=".90909"/>
 <g transform="matrix(.63637 0 0 .63646 .72573 1.1788)" fill="#f5ff71">
  <g clip-path="url(#clipPath-910713076)" fill="#f5ff71"><!-- color: #266597 -->
   <g fill="#f5ff71">
    <path d="m31.941 18.309c-0.645 0.152-1.25 0.461-1.781 0.844-0.871 1.191-2.078 2.152-3.684 2.531-0.609-0.445-1.352-0.961-1.859-1.547-2.324 0.266-5.523 0.781-6.074 3.02-0.574 2.324 0.949 5.359 2.188 5.535 1.176 0.164 4.957-0.887 6.785-1.379-1.531-1.195-3.293-1.719-4.254-1.781-1.133-0.09-2.109 0.113-3.125 0.375 1.484-0.957 2.828-1.672 4.156-1.938 0.996-0.188 2.543-0.195 4.402 0.5 2.305 0.863 2.855 2.094 4.473 2.648 1.07-0.168 0.527-1.355 0.305-2.18-0.148-0.449-0.266-0.789-0.313-0.938-0.082-0.25-1.238-3.207-1.406-3.969-0.113-0.52-0.016-1.195 0.188-1.723"/>
    <path d="m26.359 13.656c-1.613 0.68-1.668 1.965-1.758 3.359 0.676-0.613 2.801-1.063 3.375-1.559 1.695-1.469 2.352-4.504 1.996-4.055-1.152 1.457-3.02 1.926-3.613 2.254"/>
    <path d="m17.477 34.05s-1.602-1.063-1.57-1.402c1.051-5.699-2.574-1.645-2.848 0.906-0.289 2.449 0.613 5.273 0.746 5.445 0.215-2 0.406-3.109 3.672-4.953m0 4e-3"/>
    <path d="m34.988 21.492c-0.082-2.121-1.414-3.586-2.32-3.242-0.387 0.145-0.641 1.133-0.508 1.746 0.445 2.18 2.277 4.699 1.824 6.855-0.34 1.031-3.348 1.672-3.348 1.672s-0.059 0.883-0.172 1.484c-0.137 0.73-0.414 1.309-0.414 1.309s0.715 0.641 0.742 0.641c0.031 0 4.5-2.32 4.195-10.465"/>
    <path d="m33 27.332c-0.742-0.301-1-0.43-1.969-1.148-5.355-4-10.285-0.535-10.188-0.57 0.887-0.281 1.891-0.535 3.191-0.453 1.051 0.07 2.449 0.734 4.176 2.168 1.16 1.02 2.918 1.148 4.785 4e-3m4e-3 0"/>
    <path d="m27.973 15.902c-1.98 0.637-3.051 1.184-3.371 1.438-0.656 1.672 0.668 2.93 1.875 3.813 1.586-0.375 2.906-1.551 3.496-2.844-0.309 0.043-0.637-0.016-1-0.219-0.707-0.398-1.137-1.355-1-2.188"/>
    <path d="m30.855 15.586c-0.129-0.508-0.543-1.16-0.656-1.16-0.102 0-1.203 0.82-1.488 1.102-0.645 0.645-0.332 1.82 0.383 2.219 1.211 0.68 2.105-0.813 1.762-2.16"/>
    <path d="m29.914 13.867c0.484-0.465 1.129-1.227 1.297-2.387 0.098-1.039-0.156-1.68-0.469-2.477-0.152 1.555-0.379 3.285-1.438 5.121-0.332 0.578-0.152 0.473 0.609-0.258"/>
    <path d="m16.328 29.969c0.168 0.422 0.156 1.223-0.094 2.594-4e-3 0.012 0 0.02 0 0.031 0.176 0.246 0.539 0.543 0.902 0.813 1.25-0.582 2.82-1.672 2.719-1.688-0.668-0.113-2.734-0.617-3.527-1.75"/>
    <path d="m27.754 27.527c-0.055 0-0.098 0-0.219 0.031-1.555 0.434-5.527 1.449-6.148 2.125-0.242 0.516-0.48 2.574-3.969 3.879-0.098 0.035 2.93 1.992 3.094 2 9.883 0.414 9.871-6.676 9.742-7-0.961 0.016-1.777-0.32-2.406-0.938-0.031-0.031-0.059-0.063-0.094-0.094"/>
   </g>
  </g>
 </g>
</svg>
