<svg width="32" height="32" version="1.0" xmlns="http://www.w3.org/2000/svg">
 <text x="877.22626" y="-5.1873989" font-family="'Bitstream Vera Sans'" font-size="12.666px" opacity=".8" xml:space="preserve"><tspan x="877.22626" y="-5.1873989"/></text>
 <text x="901.18719" y="-45.929108" font-family="'Bitstream Vera Sans'" font-size="12.666px" opacity=".8" xml:space="preserve"><tspan x="901.18719" y="-45.929108"/></text>
 <text x="-569.37115" y="-76.007248" font-family="'Bitstream Vera Sans'" font-size="12.666px" opacity=".8" xml:space="preserve"><tspan x="-569.37115" y="-76.007248"/></text>
 <text x="-2393.0571" y="669.5462" font-family="'Bitstream Vera Sans'" font-size="12.666px" opacity=".8" xml:space="preserve"><tspan x="-2393.0571" y="669.5462"/></text>
 <text x="-454.88007" y="-461.32822" font-family="'Bitstream Vera Sans'" font-size="12.666px" opacity=".8" xml:space="preserve"><tspan x="-454.88007" y="-461.32822"/></text>
 <text x="352.72208" y="-874.79834" font-family="'Bitstream Vera Sans'" font-size="12.666px" opacity=".8" xml:space="preserve"><tspan x="352.72208" y="-874.79834"/></text>
 <text x="376.68301" y="-915.54004" font-family="'Bitstream Vera Sans'" font-size="12.666px" opacity=".8" xml:space="preserve"><tspan x="376.68301" y="-915.54004"/></text>
 <text x="-1114.7802" y="-922.74994" font-family="'Bitstream Vera Sans'" font-size="12.666px" opacity=".8" xml:space="preserve"><tspan x="-1114.7802" y="-922.74994"/></text>
 <text x="345.7626" y="-1195.9841" font-family="'Bitstream Vera Sans'" font-size="12.666px" opacity=".8" xml:space="preserve"><tspan x="345.7626" y="-1195.9841"/></text>
 <text x="1831.8861" y="-569.29272" font-family="'Bitstream Vera Sans'" font-size="12.666px" opacity=".8" xml:space="preserve"><tspan x="1831.8861" y="-569.29272"/></text>
 <text x="1855.8469" y="-610.03448" font-family="'Bitstream Vera Sans'" font-size="12.666px" opacity=".8" xml:space="preserve"><tspan x="1855.8469" y="-610.03448"/></text>
 <text x="364.38376" y="-617.24438" font-family="'Bitstream Vera Sans'" font-size="12.666px" opacity=".8" xml:space="preserve"><tspan x="364.38376" y="-617.24438"/></text>
 <text x="1824.9266" y="-890.47839" font-family="'Bitstream Vera Sans'" font-size="12.666px" opacity=".8" xml:space="preserve"><tspan x="1824.9266" y="-890.47839"/></text>
 <text x="-573.43256" y="-665.33569" font-family="'Bitstream Vera Sans'" font-size="12.666px" opacity=".8" xml:space="preserve"><tspan x="-573.43256" y="-665.33569"/></text>
 <text x="-2397.1182" y="80.217857" font-family="'Bitstream Vera Sans'" font-size="12.666px" opacity=".8" xml:space="preserve"><tspan x="-2397.1182" y="80.217857"/></text>
 <text x="-682.36279" y="173.09" font-family="'Bitstream Vera Sans'" font-size="12.666px" opacity=".8" xml:space="preserve"><tspan x="-682.36279" y="173.09"/></text>
 <text x="426.66153" y="-6.0921478" font-family="'Bitstream Vera Sans'" font-size="12.666px" opacity=".8" xml:space="preserve"><tspan x="426.66153" y="-6.0921478"/></text>
 <text x="450.62247" y="-46.833855" font-family="'Bitstream Vera Sans'" font-size="12.666px" opacity=".8" xml:space="preserve"><tspan x="450.62247" y="-46.833855"/></text>
 <text x="-1040.8407" y="-54.043827" font-family="'Bitstream Vera Sans'" font-size="12.666px" opacity=".8" xml:space="preserve"><tspan x="-1040.8407" y="-54.043827"/></text>
 <text x="419.70206" y="-327.27789" font-family="'Bitstream Vera Sans'" font-size="12.666px" opacity=".8" xml:space="preserve"><tspan x="419.70206" y="-327.27789"/></text>
 <text x="-608.03253" y="-56.758072" font-family="'Bitstream Vera Sans'" font-size="12.666px" opacity=".8" xml:space="preserve"><tspan x="-608.03253" y="-56.758072"/></text>
 <text x="-2431.7185" y="688.79541" font-family="'Bitstream Vera Sans'" font-size="12.666px" opacity=".8" xml:space="preserve"><tspan x="-2431.7185" y="688.79541"/></text>
 <text x="-456.93948" y="-918.28857" font-family="'Bitstream Vera Sans'" font-size="12.666px" opacity=".8" xml:space="preserve"><tspan x="-456.93948" y="-918.28857"/></text>
 <text x="350.66266" y="-1331.7588" font-family="'Bitstream Vera Sans'" font-size="12.666px" opacity=".8" xml:space="preserve"><tspan x="350.66266" y="-1331.7588"/></text>
 <text x="374.62357" y="-1372.5005" font-family="'Bitstream Vera Sans'" font-size="12.666px" opacity=".8" xml:space="preserve"><tspan x="374.62357" y="-1372.5005"/></text>
 <text x="-1116.8396" y="-1379.7104" font-family="'Bitstream Vera Sans'" font-size="12.666px" opacity=".8" xml:space="preserve"><tspan x="-1116.8396" y="-1379.7104"/></text>
 <text x="343.70316" y="-1652.9446" font-family="'Bitstream Vera Sans'" font-size="12.666px" opacity=".8" xml:space="preserve"><tspan x="343.70316" y="-1652.9446"/></text>
 <text x="1829.8265" y="-1026.2533" font-family="'Bitstream Vera Sans'" font-size="12.666px" opacity=".8" xml:space="preserve"><tspan x="1829.8265" y="-1026.2533"/></text>
 <text x="1853.7874" y="-1066.9949" font-family="'Bitstream Vera Sans'" font-size="12.666px" opacity=".8" xml:space="preserve"><tspan x="1853.7874" y="-1066.9949"/></text>
 <text x="362.32431" y="-1074.2048" font-family="'Bitstream Vera Sans'" font-size="12.666px" opacity=".8" xml:space="preserve"><tspan x="362.32431" y="-1074.2048"/></text>
 <text x="1822.8671" y="-1347.439" font-family="'Bitstream Vera Sans'" font-size="12.666px" opacity=".8" xml:space="preserve"><tspan x="1822.8671" y="-1347.439"/></text>
 <text x="-575.492" y="-1122.2961" font-family="'Bitstream Vera Sans'" font-size="12.666px" opacity=".8" xml:space="preserve"><tspan x="-575.492" y="-1122.2961"/></text>
 <text x="-2399.1777" y="-376.74261" font-family="'Bitstream Vera Sans'" font-size="12.666px" opacity=".8" xml:space="preserve"><tspan x="-2399.1777" y="-376.74261"/></text>
 <text x="-684.42224" y="-283.87045" font-family="'Bitstream Vera Sans'" font-size="12.666px" opacity=".8" xml:space="preserve"><tspan x="-684.42224" y="-283.87045"/></text>
 <text x="155.5923" y="-42.956276" font-family="'Bitstream Vera Sans'" font-size="12.666px" opacity=".8" xml:space="preserve"><tspan x="155.5923" y="-42.956276"/></text>
 <text x="179.55324" y="-83.697998" font-family="'Bitstream Vera Sans'" font-size="12.666px" opacity=".8" xml:space="preserve"><tspan x="179.55324" y="-83.697998"/></text>
 <text x="-1090.2634" y="-277.72662" font-family="'Bitstream Vera Sans'" font-size="12.666px" opacity=".8" xml:space="preserve"><tspan x="-1090.2634" y="-277.72662"/></text>
 <text x="-282.66141" y="-691.19678" font-family="'Bitstream Vera Sans'" font-size="12.666px" opacity=".8" xml:space="preserve"><tspan x="-282.66141" y="-691.19678"/></text>
 <text x="-258.70047" y="-731.93848" font-family="'Bitstream Vera Sans'" font-size="12.666px" opacity=".8" xml:space="preserve"><tspan x="-258.70047" y="-731.93848"/></text>
 <text x="-1750.1636" y="-739.14838" font-family="'Bitstream Vera Sans'" font-size="12.666px" opacity=".8" xml:space="preserve"><tspan x="-1750.1636" y="-739.14838"/></text>
 <text x="-289.62085" y="-1012.3825" font-family="'Bitstream Vera Sans'" font-size="12.666px" opacity=".8" xml:space="preserve"><tspan x="-289.62085" y="-1012.3825"/></text>
 <text x="1196.5026" y="-385.69113" font-family="'Bitstream Vera Sans'" font-size="12.666px" opacity=".8" xml:space="preserve"><tspan x="1196.5026" y="-385.69113"/></text>
 <text x="1220.4634" y="-426.43286" font-family="'Bitstream Vera Sans'" font-size="12.666px" opacity=".8" xml:space="preserve"><tspan x="1220.4634" y="-426.43286"/></text>
 <text x="-270.99973" y="-433.64282" font-family="'Bitstream Vera Sans'" font-size="12.666px" opacity=".8" xml:space="preserve"><tspan x="-270.99973" y="-433.64282"/></text>
 <text x="1189.5431" y="-706.87689" font-family="'Bitstream Vera Sans'" font-size="12.666px" opacity=".8" xml:space="preserve"><tspan x="1189.5431" y="-706.87689"/></text>
 <text x="-1208.816" y="-481.7341" font-family="'Bitstream Vera Sans'" font-size="12.666px" opacity=".8" xml:space="preserve"><tspan x="-1208.816" y="-481.7341"/></text>
 <text x="-3032.5017" y="263.81946" font-family="'Bitstream Vera Sans'" font-size="12.666px" opacity=".8" xml:space="preserve"><tspan x="-3032.5017" y="263.81946"/></text>
 <g transform="matrix(.90475 0 0 .90475 -716.75 -692.29)">
  <text x="-664.2738" y="1159.4154" font-family="'Bitstream Vera Sans'" font-size="14px" opacity=".8" xml:space="preserve"><tspan x="-664.2738" y="1159.4154"/></text>
 </g>
 <text x="877.22626" y="2.0505886" font-family="'Bitstream Vera Sans'" font-size="12.666px" opacity=".8" xml:space="preserve"><tspan x="877.22626" y="2.0505886"/></text>
 <text x="901.18719" y="-38.691116" font-family="'Bitstream Vera Sans'" font-size="12.666px" opacity=".8" xml:space="preserve"><tspan x="901.18719" y="-38.691116"/></text>
 <text x="-569.37115" y="-68.769257" font-family="'Bitstream Vera Sans'" font-size="12.666px" opacity=".8" xml:space="preserve"><tspan x="-569.37115" y="-68.769257"/></text>
 <text x="-2393.0571" y="676.78418" font-family="'Bitstream Vera Sans'" font-size="12.666px" opacity=".8" xml:space="preserve"><tspan x="-2393.0571" y="676.78418"/></text>
 <text x="-454.88007" y="-454.09021" font-family="'Bitstream Vera Sans'" font-size="12.666px" opacity=".8" xml:space="preserve"><tspan x="-454.88007" y="-454.09021"/></text>
 <text x="352.72208" y="-867.5603" font-family="'Bitstream Vera Sans'" font-size="12.666px" opacity=".8" xml:space="preserve"><tspan x="352.72208" y="-867.5603"/></text>
 <text x="376.68301" y="-908.30206" font-family="'Bitstream Vera Sans'" font-size="12.666px" opacity=".8" xml:space="preserve"><tspan x="376.68301" y="-908.30206"/></text>
 <text x="-1114.7802" y="-915.51196" font-family="'Bitstream Vera Sans'" font-size="12.666px" opacity=".8" xml:space="preserve"><tspan x="-1114.7802" y="-915.51196"/></text>
 <text x="345.7626" y="-1188.7461" font-family="'Bitstream Vera Sans'" font-size="12.666px" opacity=".8" xml:space="preserve"><tspan x="345.7626" y="-1188.7461"/></text>
 <text x="1831.8861" y="-562.05475" font-family="'Bitstream Vera Sans'" font-size="12.666px" opacity=".8" xml:space="preserve"><tspan x="1831.8861" y="-562.05475"/></text>
 <text x="1855.8469" y="-602.79651" font-family="'Bitstream Vera Sans'" font-size="12.666px" opacity=".8" xml:space="preserve"><tspan x="1855.8469" y="-602.79651"/></text>
 <text x="364.38376" y="-610.00641" font-family="'Bitstream Vera Sans'" font-size="12.666px" opacity=".8" xml:space="preserve"><tspan x="364.38376" y="-610.00641"/></text>
 <text x="1824.9266" y="-883.24036" font-family="'Bitstream Vera Sans'" font-size="12.666px" opacity=".8" xml:space="preserve"><tspan x="1824.9266" y="-883.24036"/></text>
 <text x="-573.43256" y="-658.09772" font-family="'Bitstream Vera Sans'" font-size="12.666px" opacity=".8" xml:space="preserve"><tspan x="-573.43256" y="-658.09772"/></text>
 <text x="-2397.1182" y="87.455849" font-family="'Bitstream Vera Sans'" font-size="12.666px" opacity=".8" xml:space="preserve"><tspan x="-2397.1182" y="87.455849"/></text>
 <text x="-682.36279" y="180.32799" font-family="'Bitstream Vera Sans'" font-size="12.666px" opacity=".8" xml:space="preserve"><tspan x="-682.36279" y="180.32799"/></text>
 <text x="426.66153" y="1.1458397" font-family="'Bitstream Vera Sans'" font-size="12.666px" opacity=".8" xml:space="preserve"><tspan x="426.66153" y="1.1458397"/></text>
 <text x="450.62247" y="-39.595863" font-family="'Bitstream Vera Sans'" font-size="12.666px" opacity=".8" xml:space="preserve"><tspan x="450.62247" y="-39.595863"/></text>
 <text x="-1040.8407" y="-46.805836" font-family="'Bitstream Vera Sans'" font-size="12.666px" opacity=".8" xml:space="preserve"><tspan x="-1040.8407" y="-46.805836"/></text>
 <text x="419.70206" y="-320.03989" font-family="'Bitstream Vera Sans'" font-size="12.666px" opacity=".8" xml:space="preserve"><tspan x="419.70206" y="-320.03989"/></text>
 <text x="-608.03253" y="-49.520081" font-family="'Bitstream Vera Sans'" font-size="12.666px" opacity=".8" xml:space="preserve"><tspan x="-608.03253" y="-49.520081"/></text>
 <text x="-2431.7185" y="696.03345" font-family="'Bitstream Vera Sans'" font-size="12.666px" opacity=".8" xml:space="preserve"><tspan x="-2431.7185" y="696.03345"/></text>
 <text x="-456.93948" y="-911.0506" font-family="'Bitstream Vera Sans'" font-size="12.666px" opacity=".8" xml:space="preserve"><tspan x="-456.93948" y="-911.0506"/></text>
 <text x="350.66266" y="-1324.5208" font-family="'Bitstream Vera Sans'" font-size="12.666px" opacity=".8" xml:space="preserve"><tspan x="350.66266" y="-1324.5208"/></text>
 <text x="374.62357" y="-1365.2626" font-family="'Bitstream Vera Sans'" font-size="12.666px" opacity=".8" xml:space="preserve"><tspan x="374.62357" y="-1365.2626"/></text>
 <text x="-1116.8396" y="-1372.4724" font-family="'Bitstream Vera Sans'" font-size="12.666px" opacity=".8" xml:space="preserve"><tspan x="-1116.8396" y="-1372.4724"/></text>
 <text x="343.70316" y="-1645.7065" font-family="'Bitstream Vera Sans'" font-size="12.666px" opacity=".8" xml:space="preserve"><tspan x="343.70316" y="-1645.7065"/></text>
 <text x="1829.8265" y="-1019.0153" font-family="'Bitstream Vera Sans'" font-size="12.666px" opacity=".8" xml:space="preserve"><tspan x="1829.8265" y="-1019.0153"/></text>
 <text x="1853.7874" y="-1059.757" font-family="'Bitstream Vera Sans'" font-size="12.666px" opacity=".8" xml:space="preserve"><tspan x="1853.7874" y="-1059.757"/></text>
 <text x="362.32431" y="-1066.9668" font-family="'Bitstream Vera Sans'" font-size="12.666px" opacity=".8" xml:space="preserve"><tspan x="362.32431" y="-1066.9668"/></text>
 <text x="1822.8671" y="-1340.2009" font-family="'Bitstream Vera Sans'" font-size="12.666px" opacity=".8" xml:space="preserve"><tspan x="1822.8671" y="-1340.2009"/></text>
 <text x="-575.492" y="-1115.0581" font-family="'Bitstream Vera Sans'" font-size="12.666px" opacity=".8" xml:space="preserve"><tspan x="-575.492" y="-1115.0581"/></text>
 <text x="-2399.1777" y="-369.50461" font-family="'Bitstream Vera Sans'" font-size="12.666px" opacity=".8" xml:space="preserve"><tspan x="-2399.1777" y="-369.50461"/></text>
 <text x="-684.42224" y="-276.63245" font-family="'Bitstream Vera Sans'" font-size="12.666px" opacity=".8" xml:space="preserve"><tspan x="-684.42224" y="-276.63245"/></text>
 <text x="155.5923" y="-35.718292" font-family="'Bitstream Vera Sans'" font-size="12.666px" opacity=".8" xml:space="preserve"><tspan x="155.5923" y="-35.718292"/></text>
 <text x="179.55324" y="-76.460007" font-family="'Bitstream Vera Sans'" font-size="12.666px" opacity=".8" xml:space="preserve"><tspan x="179.55324" y="-76.460007"/></text>
 <text x="-1090.2634" y="-270.48859" font-family="'Bitstream Vera Sans'" font-size="12.666px" opacity=".8" xml:space="preserve"><tspan x="-1090.2634" y="-270.48859"/></text>
 <text x="-282.66141" y="-683.9588" font-family="'Bitstream Vera Sans'" font-size="12.666px" opacity=".8" xml:space="preserve"><tspan x="-282.66141" y="-683.9588"/></text>
 <text x="-258.70047" y="-724.7005" font-family="'Bitstream Vera Sans'" font-size="12.666px" opacity=".8" xml:space="preserve"><tspan x="-258.70047" y="-724.7005"/></text>
 <text x="-1750.1636" y="-731.91046" font-family="'Bitstream Vera Sans'" font-size="12.666px" opacity=".8" xml:space="preserve"><tspan x="-1750.1636" y="-731.91046"/></text>
 <text x="-289.62085" y="-1005.1445" font-family="'Bitstream Vera Sans'" font-size="12.666px" opacity=".8" xml:space="preserve"><tspan x="-289.62085" y="-1005.1445"/></text>
 <text x="1196.5026" y="-378.45316" font-family="'Bitstream Vera Sans'" font-size="12.666px" opacity=".8" xml:space="preserve"><tspan x="1196.5026" y="-378.45316"/></text>
 <text x="1220.4634" y="-419.19489" font-family="'Bitstream Vera Sans'" font-size="12.666px" opacity=".8" xml:space="preserve"><tspan x="1220.4634" y="-419.19489"/></text>
 <text x="-270.99973" y="-426.40482" font-family="'Bitstream Vera Sans'" font-size="12.666px" opacity=".8" xml:space="preserve"><tspan x="-270.99973" y="-426.40482"/></text>
 <text x="1189.5431" y="-699.63892" font-family="'Bitstream Vera Sans'" font-size="12.666px" opacity=".8" xml:space="preserve"><tspan x="1189.5431" y="-699.63892"/></text>
 <text x="-1208.816" y="-474.49609" font-family="'Bitstream Vera Sans'" font-size="12.666px" opacity=".8" xml:space="preserve"><tspan x="-1208.816" y="-474.49609"/></text>
 <text x="-3032.5017" y="271.05743" font-family="'Bitstream Vera Sans'" font-size="12.666px" opacity=".8" xml:space="preserve"><tspan x="-3032.5017" y="271.05743"/></text>
 <g transform="matrix(.90475 0 0 .90475 -716.75 -685.05)">
  <text x="-664.2738" y="1159.4154" font-family="'Bitstream Vera Sans'" font-size="14px" opacity=".8" xml:space="preserve"><tspan x="-664.2738" y="1159.4154"/></text>
 </g>
 <text x="435.90427" y="-377.22546" font-family="'Droid Sans'" font-size="12.666px" xml:space="preserve"><tspan x="435.90427" y="-377.22546"/><tspan x="435.90427" y="-361.3924"/></text>
 <text x="901.0882" y="-859.27002" font-family="'Bitstream Vera Sans'" font-size="12.666px" opacity=".8" xml:space="preserve"><tspan x="901.0882" y="-859.27002"/></text>
 <text x="-922.59778" y="-113.71655" font-family="'Bitstream Vera Sans'" font-size="12.666px" opacity=".8" xml:space="preserve"><tspan x="-922.59778" y="-113.71655"/></text>
 <text x="1628.1677" y="-1144.2659" font-family="'Bitstream Vera Sans'" font-size="12.666px" opacity=".8" xml:space="preserve"><tspan x="1628.1677" y="-1144.2659"/></text>
 <text x="1652.1285" y="-1185.0076" font-family="'Bitstream Vera Sans'" font-size="12.666px" opacity=".8" xml:space="preserve"><tspan x="1652.1285" y="-1185.0076"/></text>
 <text x="160.66542" y="-1192.2175" font-family="'Bitstream Vera Sans'" font-size="12.666px" opacity=".8" xml:space="preserve"><tspan x="160.66542" y="-1192.2175"/></text>
 <text x="1621.2083" y="-1465.4517" font-family="'Bitstream Vera Sans'" font-size="12.666px" opacity=".8" xml:space="preserve"><tspan x="1621.2083" y="-1465.4517"/></text>
 <path d="m20.319 3.0067c-4.562 0.0722-14.42 0.7709-16.222 3.6549-0.3152 0.8311-0.8776 3.7524-1.1528 5.9854-0.0642 0.515-0.1243 1.172-0.1864 1.778a6.1364 6.1579 0 0 0 -1.7578 4.312 6.1364 6.1579 0 0 0 1.108 3.525c-0.01166 0.17601-0.065252 0.92075-0.065252 0.92075-0.083333 2.8581-0.01622 2.9594 2.698 4.0906 2.1695 0.90418 4.5173 1.3744 8.0846 1.6183 3.0515 0.20867 6.1391 0.11242 8.4921-0.2646 4.1376-0.66296 7.7277-2.0172 8.1259-3.0656 0.10935-0.28793 0.27401-1.4637 0.36621-2.6126 0.01861-0.23187 0.03001-0.42842 0.04528-0.64279a6.1364 6.1579 0 0 0 1.146 -3.569 6.1364 6.1579 0 0 0 -1.59 -4.125c-0.18-1.165-0.397-2.491-0.687-4.219-0.511-2.6831-1.12-5.2526-1.353-5.7105-0.682-1.3371-1.518-1.5942-5.46-1.6732-0.397-0.0107-0.94-0.013-1.591-0.0026z" fill="#7a6143"/>
 <path d="m18.48 26.625c0.92117-0.41277 1.3144-0.9798 0.77429-1.1165-0.18167-0.04597-0.65676 0.09756-1.0558 0.31895-0.89219 0.49506-2.128 0.53058-3.2177 0.09247-1.3678-0.54992-2.0249-0.24803-0.93285 0.42854 1.2083 0.74857 3.1133 0.86742 4.432 0.27651z" fill="#372c1e"/>
 <circle cx="7.5" cy="19.5" r="5.5" opacity=".2"/>
 <circle cx="7.5" cy="18.5" r="5.5" fill="#37a643"/>
 <circle cx="7" cy="18" r="1" fill="#372c1e"/>
 <circle cx="24.5" cy="19.5" r="5.5" opacity=".2"/>
 <circle cx="24.5" cy="18.5" r="5.5" fill="#37a643"/>
 <circle cx="25" cy="18" r="1" fill="#372c1e"/>
 <path d="m25.944 6.0652c0.04558 0.10315-2.9427 1.3204-5.4782 2.4488-2.5355 1.1283-3.6579 1.7404-3.7035 1.6372-0.02639-0.0597 1.5359-1.0519 2.5925-1.5631 2.0416-0.88137 4.0983-1.8279 6.5892-2.5229z" fill="#372c1e"/>
 <path d="m23.796 11.308c-0.109 0.029-1.355-1.165-2.544-2.7572-1.189-1.5916-1.87-2.9781-1.762-3.0068 0.10868-0.028628 0.86967 1.2385 2.0586 2.8302 1.189 1.5917 2.3556 2.9052 2.2469 2.9338z" fill="#372c1e"/>
 <path d="m20.318 3.0059c-4.562 0.0722-14.418 0.7722-16.22 3.6562-0.316 0.8312-0.8795 3.7509-1.1546 5.9839-0.0643 0.515-0.1235 1.172-0.1856 1.778a6.1364 6.1579 0 0 0 -1.7578 4.312 6.1364 6.1579 0 0 0 0.0234 0.481 6.1364 6.1579 0 0 1 1.7344 -3.793c0.0621-0.606 0.1213-1.263 0.1856-1.778 0.2751-2.233 0.8386-5.1527 1.1543-5.9839 1.8018-2.884 11.658-3.584 16.22-3.6562 0.652-0.0104 1.195-0.0069 1.592 0.0039 3.942 0.079 4.778 0.3347 5.459 1.6718 0.233 0.458 0.843 3.0281 1.354 5.7114 0.29 1.728 0.508 3.053 0.687 4.218a6.1364 6.1579 0 0 1 1.563 3.598 6.1364 6.1579 0 0 0 0.027 -0.473 6.1364 6.1579 0 0 0 -1.59 -4.125c-0.179-1.165-0.397-2.49-0.687-4.218-0.511-2.6833-1.121-5.2534-1.354-5.7114-0.681-1.3371-1.517-1.5928-5.459-1.6718-0.397-0.0108-0.94-0.0143-1.592-0.0039zm-18.273 20.158c0 1e-3 -0.0019 0.02-0.0019 0.02-0.016 0.547-0.0205 0.97-0.0078 1.341 0.0029-0.117 4e-3 -0.213 0.0078-0.341 0 0 0.0528-0.746 0.0644-0.922a6.1364 6.1579 0 0 1 -0.0625 -0.098z" fill="#fff" opacity=".1"/>
 <path d="m30.973 19.209a6.1364 6.1579 0 0 1 -1.118 3.098c-0.015 0.214-0.028 0.41-0.046 0.642-0.093 1.149-0.256 2.326-0.366 2.613-0.398 1.049-3.987 2.402-8.125 3.065-2.353 0.377-5.44 0.474-8.492 0.266-3.5671-0.244-5.9163-0.715-8.0858-1.62-2.194-0.914-2.6517-1.179-2.705-2.748-0.0619 2.5 0.113 2.668 2.705 3.748 2.1695 0.905 4.5187 1.376 8.0858 1.62 3.052 0.208 6.139 0.111 8.492-0.266 4.138-0.663 7.727-2.016 8.125-3.065 0.11-0.287 0.273-1.464 0.366-2.613 0.018-0.232 0.031-0.428 0.046-0.642a6.1364 6.1579 0 0 0 1.145 -3.571 6.1364 6.1579 0 0 0 -0.027 -0.527zm-29.95 8e-3a6.1364 6.1579 0 0 0 -0.0234 0.519 6.1364 6.1579 0 0 0 1.0449 3.428c0.0022-0.03 0.0511-0.73 0.0625-0.902a6.1364 6.1579 0 0 1 -1.084 -3.045z" opacity=".2"/>
</svg>
