<svg width="32" height="32" version="1" xmlns="http://www.w3.org/2000/svg">
 <rect transform="matrix(0,-1,-1,0,0,0)" x="-31" y="-30" width="28" height="28" rx="1.4" ry="1.4" style="opacity:.2"/>
 <rect transform="matrix(0,-1,-1,0,0,0)" x="-30" y="-30" width="28" height="28" rx="1.4" ry="1.4" style="fill:#5985cb"/>
 <path d="m7 16h14" style="fill:none;stroke-linejoin:round;stroke-width:2;stroke:#4f4f4f"/>
 <path d="m13.9 16 3.1-7" style="fill:none;stroke-linejoin:round;stroke-width:2;stroke:#4f4f4f"/>
 <path d="m14 16 3 7h7" style="fill:none;stroke-linejoin:round;stroke-width:2;stroke:#4f4f4f"/>
 <g transform="translate(0,1)" style="opacity:.2">
  <circle cx="7" cy="16" r="2"/>
  <circle cx="14" cy="16" r="2"/>
  <circle cx="21" cy="16" r="2"/>
  <circle cx="17" cy="23" r="2"/>
  <circle cx="24" cy="23" r="2"/>
  <circle cx="17" cy="9" r="2"/>
 </g>
 <circle cx="7" cy="16" r="2" style="fill:#ffffff"/>
 <circle cx="14" cy="16" r="2" style="fill:#ffffff"/>
 <circle cx="21" cy="16" r="2" style="fill:#ffffff"/>
 <circle cx="17" cy="23" r="2" style="fill:#ffffff"/>
 <circle cx="24" cy="23" r="2" style="fill:#ffffff"/>
 <circle cx="17" cy="9" r="2" style="fill:#ffffff"/>
 <path d="m3.4003906 2c-0.7756 0-1.4003906 0.6247906-1.4003906 1.4003906v1c0-0.7756 0.6247906-1.4003906 1.4003906-1.4003906h25.199218c0.7756 0 1.400391 0.6247906 1.400391 1.4003906v-1c0-0.7756-0.624791-1.4003906-1.400391-1.4003906h-25.199218z" style="fill:#ffffff;opacity:.2"/>
</svg>
