<svg width="32" height="32" version="1.0" xmlns="http://www.w3.org/2000/svg">
 <rect transform="matrix(.70710678 -.70710678 .70710678 .70710678 0 0)" x="-4.1843429" y="6.1944695" width="8.3999996" height="8.3999996" rx="1.4" ry="1.4" style="opacity:.2"/>
 <text x="877.22626" y="-5.1873989" font-size="12.666px" style="font-family:'Bitstream Vera Sans';font-size:12.666px;opacity:.8" xml:space="preserve"><tspan x="877.22626" y="-5.1873989"/></text>
 <text x="901.18719" y="-45.929108" font-size="12.666px" style="font-family:'Bitstream Vera Sans';font-size:12.666px;opacity:.8" xml:space="preserve"><tspan x="901.18719" y="-45.929108"/></text>
 <text x="-569.37115" y="-76.007248" font-size="12.666px" style="font-family:'Bitstream Vera Sans';font-size:12.666px;opacity:.8" xml:space="preserve"><tspan x="-569.37115" y="-76.007248"/></text>
 <text x="-2393.0571" y="669.5462" font-size="12.666px" style="font-family:'Bitstream Vera Sans';font-size:12.666px;opacity:.8" xml:space="preserve"><tspan x="-2393.0571" y="669.5462"/></text>
 <text x="-454.88007" y="-461.32822" font-size="12.666px" style="font-family:'Bitstream Vera Sans';font-size:12.666px;opacity:.8" xml:space="preserve"><tspan x="-454.88007" y="-461.32822"/></text>
 <text x="352.72208" y="-874.79834" font-size="12.666px" style="font-family:'Bitstream Vera Sans';font-size:12.666px;opacity:.8" xml:space="preserve"><tspan x="352.72208" y="-874.79834"/></text>
 <text x="376.68301" y="-915.54004" font-size="12.666px" style="font-family:'Bitstream Vera Sans';font-size:12.666px;opacity:.8" xml:space="preserve"><tspan x="376.68301" y="-915.54004"/></text>
 <text x="-1114.7802" y="-922.74994" font-size="12.666px" style="font-family:'Bitstream Vera Sans';font-size:12.666px;opacity:.8" xml:space="preserve"><tspan x="-1114.7802" y="-922.74994"/></text>
 <text x="345.7626" y="-1195.9841" font-size="12.666px" style="font-family:'Bitstream Vera Sans';font-size:12.666px;opacity:.8" xml:space="preserve"><tspan x="345.7626" y="-1195.9841"/></text>
 <text x="1831.8861" y="-569.29272" font-size="12.666px" style="font-family:'Bitstream Vera Sans';font-size:12.666px;opacity:.8" xml:space="preserve"><tspan x="1831.8861" y="-569.29272"/></text>
 <text x="1855.8469" y="-610.03448" font-size="12.666px" style="font-family:'Bitstream Vera Sans';font-size:12.666px;opacity:.8" xml:space="preserve"><tspan x="1855.8469" y="-610.03448"/></text>
 <text x="364.38376" y="-617.24438" font-size="12.666px" style="font-family:'Bitstream Vera Sans';font-size:12.666px;opacity:.8" xml:space="preserve"><tspan x="364.38376" y="-617.24438"/></text>
 <text x="1824.9266" y="-890.47839" font-size="12.666px" style="font-family:'Bitstream Vera Sans';font-size:12.666px;opacity:.8" xml:space="preserve"><tspan x="1824.9266" y="-890.47839"/></text>
 <text x="-573.43256" y="-665.33569" font-size="12.666px" style="font-family:'Bitstream Vera Sans';font-size:12.666px;opacity:.8" xml:space="preserve"><tspan x="-573.43256" y="-665.33569"/></text>
 <text x="-2397.1182" y="80.217857" font-size="12.666px" style="font-family:'Bitstream Vera Sans';font-size:12.666px;opacity:.8" xml:space="preserve"><tspan x="-2397.1182" y="80.217857"/></text>
 <text x="-682.36279" y="173.09" font-size="12.666px" style="font-family:'Bitstream Vera Sans';font-size:12.666px;opacity:.8" xml:space="preserve"><tspan x="-682.36279" y="173.09"/></text>
 <text x="426.66153" y="-6.0921478" font-size="12.666px" style="font-family:'Bitstream Vera Sans';font-size:12.666px;opacity:.8" xml:space="preserve"><tspan x="426.66153" y="-6.0921478"/></text>
 <text x="450.62247" y="-46.833855" font-size="12.666px" style="font-family:'Bitstream Vera Sans';font-size:12.666px;opacity:.8" xml:space="preserve"><tspan x="450.62247" y="-46.833855"/></text>
 <text x="-1040.8407" y="-54.043827" font-size="12.666px" style="font-family:'Bitstream Vera Sans';font-size:12.666px;opacity:.8" xml:space="preserve"><tspan x="-1040.8407" y="-54.043827"/></text>
 <text x="419.70206" y="-327.27789" font-size="12.666px" style="font-family:'Bitstream Vera Sans';font-size:12.666px;opacity:.8" xml:space="preserve"><tspan x="419.70206" y="-327.27789"/></text>
 <text x="-608.03253" y="-56.758072" font-size="12.666px" style="font-family:'Bitstream Vera Sans';font-size:12.666px;opacity:.8" xml:space="preserve"><tspan x="-608.03253" y="-56.758072"/></text>
 <text x="-2431.7185" y="688.79541" font-size="12.666px" style="font-family:'Bitstream Vera Sans';font-size:12.666px;opacity:.8" xml:space="preserve"><tspan x="-2431.7185" y="688.79541"/></text>
 <text x="-456.93948" y="-918.28857" font-size="12.666px" style="font-family:'Bitstream Vera Sans';font-size:12.666px;opacity:.8" xml:space="preserve"><tspan x="-456.93948" y="-918.28857"/></text>
 <text x="350.66266" y="-1331.7588" font-size="12.666px" style="font-family:'Bitstream Vera Sans';font-size:12.666px;opacity:.8" xml:space="preserve"><tspan x="350.66266" y="-1331.7588"/></text>
 <text x="374.62357" y="-1372.5005" font-size="12.666px" style="font-family:'Bitstream Vera Sans';font-size:12.666px;opacity:.8" xml:space="preserve"><tspan x="374.62357" y="-1372.5005"/></text>
 <text x="-1116.8396" y="-1379.7104" font-size="12.666px" style="font-family:'Bitstream Vera Sans';font-size:12.666px;opacity:.8" xml:space="preserve"><tspan x="-1116.8396" y="-1379.7104"/></text>
 <text x="343.70316" y="-1652.9446" font-size="12.666px" style="font-family:'Bitstream Vera Sans';font-size:12.666px;opacity:.8" xml:space="preserve"><tspan x="343.70316" y="-1652.9446"/></text>
 <text x="1829.8265" y="-1026.2533" font-size="12.666px" style="font-family:'Bitstream Vera Sans';font-size:12.666px;opacity:.8" xml:space="preserve"><tspan x="1829.8265" y="-1026.2533"/></text>
 <text x="1853.7874" y="-1066.9949" font-size="12.666px" style="font-family:'Bitstream Vera Sans';font-size:12.666px;opacity:.8" xml:space="preserve"><tspan x="1853.7874" y="-1066.9949"/></text>
 <text x="362.32431" y="-1074.2048" font-size="12.666px" style="font-family:'Bitstream Vera Sans';font-size:12.666px;opacity:.8" xml:space="preserve"><tspan x="362.32431" y="-1074.2048"/></text>
 <text x="1822.8671" y="-1347.439" font-size="12.666px" style="font-family:'Bitstream Vera Sans';font-size:12.666px;opacity:.8" xml:space="preserve"><tspan x="1822.8671" y="-1347.439"/></text>
 <text x="-575.492" y="-1122.2961" font-size="12.666px" style="font-family:'Bitstream Vera Sans';font-size:12.666px;opacity:.8" xml:space="preserve"><tspan x="-575.492" y="-1122.2961"/></text>
 <text x="-2399.1777" y="-376.74261" font-size="12.666px" style="font-family:'Bitstream Vera Sans';font-size:12.666px;opacity:.8" xml:space="preserve"><tspan x="-2399.1777" y="-376.74261"/></text>
 <text x="-684.42224" y="-283.87045" font-size="12.666px" style="font-family:'Bitstream Vera Sans';font-size:12.666px;opacity:.8" xml:space="preserve"><tspan x="-684.42224" y="-283.87045"/></text>
 <text x="155.5923" y="-42.956276" font-size="12.666px" style="font-family:'Bitstream Vera Sans';font-size:12.666px;opacity:.8" xml:space="preserve"><tspan x="155.5923" y="-42.956276"/></text>
 <text x="179.55324" y="-83.697998" font-size="12.666px" style="font-family:'Bitstream Vera Sans';font-size:12.666px;opacity:.8" xml:space="preserve"><tspan x="179.55324" y="-83.697998"/></text>
 <text x="-1090.2634" y="-277.72662" font-size="12.666px" style="font-family:'Bitstream Vera Sans';font-size:12.666px;opacity:.8" xml:space="preserve"><tspan x="-1090.2634" y="-277.72662"/></text>
 <text x="-282.66141" y="-691.19678" font-size="12.666px" style="font-family:'Bitstream Vera Sans';font-size:12.666px;opacity:.8" xml:space="preserve"><tspan x="-282.66141" y="-691.19678"/></text>
 <text x="-258.70047" y="-731.93848" font-size="12.666px" style="font-family:'Bitstream Vera Sans';font-size:12.666px;opacity:.8" xml:space="preserve"><tspan x="-258.70047" y="-731.93848"/></text>
 <text x="-1750.1636" y="-739.14838" font-size="12.666px" style="font-family:'Bitstream Vera Sans';font-size:12.666px;opacity:.8" xml:space="preserve"><tspan x="-1750.1636" y="-739.14838"/></text>
 <text x="-289.62085" y="-1012.3825" font-size="12.666px" style="font-family:'Bitstream Vera Sans';font-size:12.666px;opacity:.8" xml:space="preserve"><tspan x="-289.62085" y="-1012.3825"/></text>
 <text x="1196.5026" y="-385.69113" font-size="12.666px" style="font-family:'Bitstream Vera Sans';font-size:12.666px;opacity:.8" xml:space="preserve"><tspan x="1196.5026" y="-385.69113"/></text>
 <text x="1220.4634" y="-426.43286" font-size="12.666px" style="font-family:'Bitstream Vera Sans';font-size:12.666px;opacity:.8" xml:space="preserve"><tspan x="1220.4634" y="-426.43286"/></text>
 <text x="-270.99973" y="-433.64282" font-size="12.666px" style="font-family:'Bitstream Vera Sans';font-size:12.666px;opacity:.8" xml:space="preserve"><tspan x="-270.99973" y="-433.64282"/></text>
 <text x="1189.5431" y="-706.87689" font-size="12.666px" style="font-family:'Bitstream Vera Sans';font-size:12.666px;opacity:.8" xml:space="preserve"><tspan x="1189.5431" y="-706.87689"/></text>
 <text x="-1208.816" y="-481.7341" font-size="12.666px" style="font-family:'Bitstream Vera Sans';font-size:12.666px;opacity:.8" xml:space="preserve"><tspan x="-1208.816" y="-481.7341"/></text>
 <text x="-3032.5017" y="263.81946" font-size="12.666px" style="font-family:'Bitstream Vera Sans';font-size:12.666px;opacity:.8" xml:space="preserve"><tspan x="-3032.5017" y="263.81946"/></text>
 <g transform="matrix(.90475 0 0 .90475 -716.75 -692.29)">
  <text x="-664.2738" y="1159.4154" font-size="14px" style="font-family:'Bitstream Vera Sans';font-size:14px;opacity:.8" xml:space="preserve"><tspan x="-664.2738" y="1159.4154"/></text>
 </g>
 <text x="877.22626" y="2.0505886" font-size="12.666px" style="font-family:'Bitstream Vera Sans';font-size:12.666px;opacity:.8" xml:space="preserve"><tspan x="877.22626" y="2.0505886"/></text>
 <text x="901.18719" y="-38.691116" font-size="12.666px" style="font-family:'Bitstream Vera Sans';font-size:12.666px;opacity:.8" xml:space="preserve"><tspan x="901.18719" y="-38.691116"/></text>
 <text x="-569.37115" y="-68.769257" font-size="12.666px" style="font-family:'Bitstream Vera Sans';font-size:12.666px;opacity:.8" xml:space="preserve"><tspan x="-569.37115" y="-68.769257"/></text>
 <text x="-2393.0571" y="676.78418" font-size="12.666px" style="font-family:'Bitstream Vera Sans';font-size:12.666px;opacity:.8" xml:space="preserve"><tspan x="-2393.0571" y="676.78418"/></text>
 <text x="-454.88007" y="-454.09021" font-size="12.666px" style="font-family:'Bitstream Vera Sans';font-size:12.666px;opacity:.8" xml:space="preserve"><tspan x="-454.88007" y="-454.09021"/></text>
 <text x="352.72208" y="-867.5603" font-size="12.666px" style="font-family:'Bitstream Vera Sans';font-size:12.666px;opacity:.8" xml:space="preserve"><tspan x="352.72208" y="-867.5603"/></text>
 <text x="376.68301" y="-908.30206" font-size="12.666px" style="font-family:'Bitstream Vera Sans';font-size:12.666px;opacity:.8" xml:space="preserve"><tspan x="376.68301" y="-908.30206"/></text>
 <text x="-1114.7802" y="-915.51196" font-size="12.666px" style="font-family:'Bitstream Vera Sans';font-size:12.666px;opacity:.8" xml:space="preserve"><tspan x="-1114.7802" y="-915.51196"/></text>
 <text x="345.7626" y="-1188.7461" font-size="12.666px" style="font-family:'Bitstream Vera Sans';font-size:12.666px;opacity:.8" xml:space="preserve"><tspan x="345.7626" y="-1188.7461"/></text>
 <text x="1831.8861" y="-562.05475" font-size="12.666px" style="font-family:'Bitstream Vera Sans';font-size:12.666px;opacity:.8" xml:space="preserve"><tspan x="1831.8861" y="-562.05475"/></text>
 <text x="1855.8469" y="-602.79651" font-size="12.666px" style="font-family:'Bitstream Vera Sans';font-size:12.666px;opacity:.8" xml:space="preserve"><tspan x="1855.8469" y="-602.79651"/></text>
 <text x="364.38376" y="-610.00641" font-size="12.666px" style="font-family:'Bitstream Vera Sans';font-size:12.666px;opacity:.8" xml:space="preserve"><tspan x="364.38376" y="-610.00641"/></text>
 <text x="1824.9266" y="-883.24036" font-size="12.666px" style="font-family:'Bitstream Vera Sans';font-size:12.666px;opacity:.8" xml:space="preserve"><tspan x="1824.9266" y="-883.24036"/></text>
 <text x="-573.43256" y="-658.09772" font-size="12.666px" style="font-family:'Bitstream Vera Sans';font-size:12.666px;opacity:.8" xml:space="preserve"><tspan x="-573.43256" y="-658.09772"/></text>
 <text x="-2397.1182" y="87.455849" font-size="12.666px" style="font-family:'Bitstream Vera Sans';font-size:12.666px;opacity:.8" xml:space="preserve"><tspan x="-2397.1182" y="87.455849"/></text>
 <text x="-682.36279" y="180.32799" font-size="12.666px" style="font-family:'Bitstream Vera Sans';font-size:12.666px;opacity:.8" xml:space="preserve"><tspan x="-682.36279" y="180.32799"/></text>
 <text x="426.66153" y="1.1458397" font-size="12.666px" style="font-family:'Bitstream Vera Sans';font-size:12.666px;opacity:.8" xml:space="preserve"><tspan x="426.66153" y="1.1458397"/></text>
 <text x="450.62247" y="-39.595863" font-size="12.666px" style="font-family:'Bitstream Vera Sans';font-size:12.666px;opacity:.8" xml:space="preserve"><tspan x="450.62247" y="-39.595863"/></text>
 <text x="-1040.8407" y="-46.805836" font-size="12.666px" style="font-family:'Bitstream Vera Sans';font-size:12.666px;opacity:.8" xml:space="preserve"><tspan x="-1040.8407" y="-46.805836"/></text>
 <text x="419.70206" y="-320.03989" font-size="12.666px" style="font-family:'Bitstream Vera Sans';font-size:12.666px;opacity:.8" xml:space="preserve"><tspan x="419.70206" y="-320.03989"/></text>
 <text x="-608.03253" y="-49.520081" font-size="12.666px" style="font-family:'Bitstream Vera Sans';font-size:12.666px;opacity:.8" xml:space="preserve"><tspan x="-608.03253" y="-49.520081"/></text>
 <text x="-2431.7185" y="696.03345" font-size="12.666px" style="font-family:'Bitstream Vera Sans';font-size:12.666px;opacity:.8" xml:space="preserve"><tspan x="-2431.7185" y="696.03345"/></text>
 <text x="-456.93948" y="-911.0506" font-size="12.666px" style="font-family:'Bitstream Vera Sans';font-size:12.666px;opacity:.8" xml:space="preserve"><tspan x="-456.93948" y="-911.0506"/></text>
 <text x="350.66266" y="-1324.5208" font-size="12.666px" style="font-family:'Bitstream Vera Sans';font-size:12.666px;opacity:.8" xml:space="preserve"><tspan x="350.66266" y="-1324.5208"/></text>
 <text x="374.62357" y="-1365.2626" font-size="12.666px" style="font-family:'Bitstream Vera Sans';font-size:12.666px;opacity:.8" xml:space="preserve"><tspan x="374.62357" y="-1365.2626"/></text>
 <text x="-1116.8396" y="-1372.4724" font-size="12.666px" style="font-family:'Bitstream Vera Sans';font-size:12.666px;opacity:.8" xml:space="preserve"><tspan x="-1116.8396" y="-1372.4724"/></text>
 <text x="343.70316" y="-1645.7065" font-size="12.666px" style="font-family:'Bitstream Vera Sans';font-size:12.666px;opacity:.8" xml:space="preserve"><tspan x="343.70316" y="-1645.7065"/></text>
 <text x="1829.8265" y="-1019.0153" font-size="12.666px" style="font-family:'Bitstream Vera Sans';font-size:12.666px;opacity:.8" xml:space="preserve"><tspan x="1829.8265" y="-1019.0153"/></text>
 <text x="1853.7874" y="-1059.757" font-size="12.666px" style="font-family:'Bitstream Vera Sans';font-size:12.666px;opacity:.8" xml:space="preserve"><tspan x="1853.7874" y="-1059.757"/></text>
 <text x="362.32431" y="-1066.9668" font-size="12.666px" style="font-family:'Bitstream Vera Sans';font-size:12.666px;opacity:.8" xml:space="preserve"><tspan x="362.32431" y="-1066.9668"/></text>
 <text x="1822.8671" y="-1340.2009" font-size="12.666px" style="font-family:'Bitstream Vera Sans';font-size:12.666px;opacity:.8" xml:space="preserve"><tspan x="1822.8671" y="-1340.2009"/></text>
 <text x="-575.492" y="-1115.0581" font-size="12.666px" style="font-family:'Bitstream Vera Sans';font-size:12.666px;opacity:.8" xml:space="preserve"><tspan x="-575.492" y="-1115.0581"/></text>
 <text x="-2399.1777" y="-369.50461" font-size="12.666px" style="font-family:'Bitstream Vera Sans';font-size:12.666px;opacity:.8" xml:space="preserve"><tspan x="-2399.1777" y="-369.50461"/></text>
 <text x="-684.42224" y="-276.63245" font-size="12.666px" style="font-family:'Bitstream Vera Sans';font-size:12.666px;opacity:.8" xml:space="preserve"><tspan x="-684.42224" y="-276.63245"/></text>
 <text x="155.5923" y="-35.718292" font-size="12.666px" style="font-family:'Bitstream Vera Sans';font-size:12.666px;opacity:.8" xml:space="preserve"><tspan x="155.5923" y="-35.718292"/></text>
 <text x="179.55324" y="-76.460007" font-size="12.666px" style="font-family:'Bitstream Vera Sans';font-size:12.666px;opacity:.8" xml:space="preserve"><tspan x="179.55324" y="-76.460007"/></text>
 <text x="-1090.2634" y="-270.48859" font-size="12.666px" style="font-family:'Bitstream Vera Sans';font-size:12.666px;opacity:.8" xml:space="preserve"><tspan x="-1090.2634" y="-270.48859"/></text>
 <text x="-282.66141" y="-683.9588" font-size="12.666px" style="font-family:'Bitstream Vera Sans';font-size:12.666px;opacity:.8" xml:space="preserve"><tspan x="-282.66141" y="-683.9588"/></text>
 <text x="-258.70047" y="-724.7005" font-size="12.666px" style="font-family:'Bitstream Vera Sans';font-size:12.666px;opacity:.8" xml:space="preserve"><tspan x="-258.70047" y="-724.7005"/></text>
 <text x="-1750.1636" y="-731.91046" font-size="12.666px" style="font-family:'Bitstream Vera Sans';font-size:12.666px;opacity:.8" xml:space="preserve"><tspan x="-1750.1636" y="-731.91046"/></text>
 <text x="-289.62085" y="-1005.1445" font-size="12.666px" style="font-family:'Bitstream Vera Sans';font-size:12.666px;opacity:.8" xml:space="preserve"><tspan x="-289.62085" y="-1005.1445"/></text>
 <text x="1196.5026" y="-378.45316" font-size="12.666px" style="font-family:'Bitstream Vera Sans';font-size:12.666px;opacity:.8" xml:space="preserve"><tspan x="1196.5026" y="-378.45316"/></text>
 <text x="1220.4634" y="-419.19489" font-size="12.666px" style="font-family:'Bitstream Vera Sans';font-size:12.666px;opacity:.8" xml:space="preserve"><tspan x="1220.4634" y="-419.19489"/></text>
 <text x="-270.99973" y="-426.40482" font-size="12.666px" style="font-family:'Bitstream Vera Sans';font-size:12.666px;opacity:.8" xml:space="preserve"><tspan x="-270.99973" y="-426.40482"/></text>
 <text x="1189.5431" y="-699.63892" font-size="12.666px" style="font-family:'Bitstream Vera Sans';font-size:12.666px;opacity:.8" xml:space="preserve"><tspan x="1189.5431" y="-699.63892"/></text>
 <text x="-1208.816" y="-474.49609" font-size="12.666px" style="font-family:'Bitstream Vera Sans';font-size:12.666px;opacity:.8" xml:space="preserve"><tspan x="-1208.816" y="-474.49609"/></text>
 <text x="-3032.5017" y="271.05743" font-size="12.666px" style="font-family:'Bitstream Vera Sans';font-size:12.666px;opacity:.8" xml:space="preserve"><tspan x="-3032.5017" y="271.05743"/></text>
 <g transform="matrix(.90475 0 0 .90475 -716.75 -685.05)">
  <text x="-664.2738" y="1159.4154" font-size="14px" style="font-family:'Bitstream Vera Sans';font-size:14px;opacity:.8" xml:space="preserve"><tspan x="-664.2738" y="1159.4154"/></text>
 </g>
 <text x="435.90427" y="-377.22546" font-size="12.666px" style="font-family:'Droid Sans';font-size:12.666px" xml:space="preserve"><tspan x="435.90427" y="-377.22546"/><tspan x="435.90427" y="-361.3924"/></text>
 <text x="901.0882" y="-859.27002" font-size="12.666px" style="font-family:'Bitstream Vera Sans';font-size:12.666px;opacity:.8" xml:space="preserve"><tspan x="901.0882" y="-859.27002"/></text>
 <text x="-922.59778" y="-113.71655" font-size="12.666px" style="font-family:'Bitstream Vera Sans';font-size:12.666px;opacity:.8" xml:space="preserve"><tspan x="-922.59778" y="-113.71655"/></text>
 <text x="1628.1677" y="-1144.2659" font-size="12.666px" style="font-family:'Bitstream Vera Sans';font-size:12.666px;opacity:.8" xml:space="preserve"><tspan x="1628.1677" y="-1144.2659"/></text>
 <text x="1652.1285" y="-1185.0076" font-size="12.666px" style="font-family:'Bitstream Vera Sans';font-size:12.666px;opacity:.8" xml:space="preserve"><tspan x="1652.1285" y="-1185.0076"/></text>
 <text x="160.66542" y="-1192.2175" font-size="12.666px" style="font-family:'Bitstream Vera Sans';font-size:12.666px;opacity:.8" xml:space="preserve"><tspan x="160.66542" y="-1192.2175"/></text>
 <text x="1621.2083" y="-1465.4517" font-size="12.666px" style="font-family:'Bitstream Vera Sans';font-size:12.666px;opacity:.8" xml:space="preserve"><tspan x="1621.2083" y="-1465.4517"/></text>
 <rect transform="matrix(0,-1,-1,0,0,0)" x="-31" y="-31" width="29" height="29" rx="14.5" ry="14.5" style="opacity:.2"/>
 <rect transform="matrix(.70710678 -.70710678 .70710678 .70710678 0 0)" x="-3.4772363" y="5.4873629" width="8.3999996" height="8.3999996" rx="1.4" ry="1.4" style="fill:#597123"/>
 <path d="m7.3613281 0.97851562c-0.3578667 0-0.7160183 0.13594028-0.9902343 0.41015628l-3.9589844 3.9609375c-0.4046104 0.4046104-0.5088055 0.990105-0.3164063 1.4902344 0.0683657-0.1784308 0.172112-0.3459401 0.3164063-0.4902344l3.9589844-3.9609375c0.548432-0.548432 1.4320367-0.548432 1.9804687 0l3.9589845 3.9609375c0.144294 0.1442943 0.24804 0.3118036 0.316406 0.4902344 0.192399-0.5001294 0.088204-1.085624-0.316406-1.4902344l-3.9589845-3.9609375c-0.274216-0.274216-0.6323676-0.41015628-0.9902344-0.41015628z" style="fill:#ffffff;opacity:.1"/>
 <rect transform="matrix(0,-1,-1,0,0,0)" x="-30" y="-31" width="29" height="29" rx="14.5" ry="14.5" style="fill:#96ba42"/>
 <circle cx="16.5" cy="16.5" r="10.5" style="opacity:.2"/>
 <circle cx="16.5" cy="15.5" r="10.5" style="fill:#cccccc"/>
 <g transform="translate(0,1)" style="opacity:.1">
  <circle cx="16.5" cy="23.5" r="1.5"/>
  <circle cx="16.5" cy="7.5" r="1.5"/>
  <circle transform="rotate(90)" cx="15.5" cy="-8.5" r="1.5"/>
  <circle transform="rotate(90)" cx="15.5" cy="-24.5" r="1.5"/>
 </g>
 <rect transform="matrix(.8660254 .5 -.5 .8660254 0 0)" x="20.574789" y="-2.3808346" width="3" height="9" rx="1.5" ry="1.2857141" style="fill:#f45246"/>
 <ellipse cx="16.5" cy="16.5" rx="2.4997749" ry="2.5" style="opacity:.1"/>
 <ellipse cx="16.5" cy="15.5" rx="2.4997749" ry="2.5" style="fill:#4d4d4d"/>
 <circle cx="16.5" cy="23.5" r="1.5" style="fill:#4d4d4d"/>
 <circle cx="16.5" cy="7.5" r="1.5" style="fill:#4d4d4d"/>
 <circle transform="rotate(90)" cx="15.5" cy="-8.5" r="1.5" style="fill:#4d4d4d"/>
 <circle transform="rotate(90)" cx="15.5" cy="-24.5" r="1.5" style="fill:#4d4d4d"/>
 <path d="M 16.5 1 C 8.467 1 2 7.467 2 15.5 C 2 15.668901 2.0197182 15.832529 2.0253906 16 C 2.2895 8.2024902 8.6359007 2 16.5 2 C 24.364099 2 30.7105 8.2024902 30.974609 16 C 30.980282 15.832529 31 15.668901 31 15.5 C 31 7.467 24.533 1 16.5 1 z " style="fill:#ffffff;opacity:.2"/>
</svg>
