<svg width="32" height="32" version="1" xmlns="http://www.w3.org/2000/svg">
 <rect transform="matrix(0,-1,-1,0,0,0)" x="-29" y="-24" width="21" height="16" rx="1.25" ry="1.25" style="opacity:.2"/>
 <rect transform="matrix(0,-1,-1,0,0,0)" x="-28" y="-24" width="21" height="16" rx="1.25" ry="1.25" style="fill:#8e8e8e"/>
 <rect transform="matrix(0,-1,-1,0,0,0)" x="-26" y="-29" width="20" height="26" rx="1.25" ry="1.25" style="opacity:.2"/>
 <rect transform="matrix(0,-1,-1,0,0,0)" x="-25" y="-29" width="20" height="26" rx="1.25" ry="1.25" style="fill:#4f4f4f"/>
 <path d="m4.25 5c-0.6925 0-1.25 0.5575-1.25 1.25v1c0-0.6925 0.5575-1.25 1.25-1.25h23.5c0.692 0 1.25 0.5575 1.25 1.25v-1c0-0.6925-0.558-1.25-1.25-1.25z" style="fill:#ffffff;opacity:.1"/>
 <rect x="5" y="23" width="22" height="1" style="fill:#ffffff;opacity:.1"/>
 <rect transform="matrix(0,-1,-1,0,0,0)" x="-23" y="-27" width="16" height="22" rx="0" ry="0" style="fill:#1d83af"/>
 <path d="M 21.5,9 A 3.5,3.5 0 0 0 18,12.5 3.5,3.5 0 0 0 21.5,16 3.5,3.5 0 0 0 25,12.5 3.5,3.5 0 0 0 21.5,9 Z m -7,2 A 1.5,1.5 0 0 0 13,12.5 1.5,1.5 0 0 0 14.5,14 1.5,1.5 0 0 0 16,12.5 1.5,1.5 0 0 0 14.5,11 Z m -5,3 A 2.5,2.5 0 0 0 7,16.5 2.5,2.5 0 0 0 9.5,19 2.5,2.5 0 0 0 12,16.5 2.5,2.5 0 0 0 9.5,14 Z m 13.970703,4.470703 a 1,1 0 0 0 -1,1 1,1 0 0 0 1,1 1,1 0 0 0 1,-1 1,1 0 0 0 -1,-1 z M 18,19 a 2,2 0 0 0 -2,2 2,2 0 0 0 2,2 2,2 0 0 0 2,-2 2,2 0 0 0 -2,-2 z" style="opacity:.2"/>
 <circle cx="21.5" cy="11.5" r="3.5" style="fill:#f0f9fd"/>
 <circle cx="9.5" cy="15.5" r="2.5" style="fill:#c4e7f5"/>
 <circle cx="18" cy="20" r="2" style="fill:#a6daf0"/>
 <circle cx="14.5" cy="11.5" r="1.5" style="fill:#c4e7f5"/>
 <circle cx="23.471" cy="18.471" r="1" style="fill:#d3edf8"/>
</svg>
