<svg width="32" height="32" version="1.1" viewBox="0 0 32 32" xmlns="http://www.w3.org/2000/svg">
 <path d="m15.555989 3.0012281c-7.3240817-0.006567-13.358727 6.0249058-13.551258 13.633287-0.1958165 7.729148 5.7106665 14.158534 13.191696 14.360615 3.644634 0.09838 6.489848-1.299619 8.985797-3.653043 0.266507-0.222354 0.411514-0.36093 0.411514-0.36093s2.706631-2.840733 2.851889-5.185626c-0.690631 1.140972-1.324144 2.283368-3.04329 3.129422-0.788426 0.365213-1.511085 0.675939-2.239403 0.921464-0.04663 0.01187-0.09346 0.02288-0.140818 0.03418-0.34497 0.08234-0.706528 0.151501-1.085522 0.203705-0.04593 0.0063-0.09308 0.01189-0.13945 0.01777-0.393066 0.04985-0.798923 0.08615-1.218136 0.103904-0.04315 0.0018-0.08787 0.0013-0.131247 0.0027-0.41357 0.01415-0.836549 0.01293-1.265988-0.0041-0.02802-0.0011-0.05533-1.21e-4 -0.0834-0.0014-0.436715-0.01937-0.380042-0.05897-0.823872-0.110739-0.06334-0.0074-0.126655-0.01245-0.190035-0.02051-0.432038-0.0549-0.863904-0.127433-1.29333-0.213276-0.06938-0.01387-0.138621-0.02771-0.207808-0.04238-0.420232-0.08918-0.836695-0.193847-1.24548-0.313079-0.131063-0.03823-0.261637-0.07761-0.391007-0.118943-0.09777-0.03124-0.195893-0.06131-0.292571-0.09433-0.138158-0.04719-0.273122-0.0982-0.40878-0.149021-0.110644-0.04145-0.222062-0.0819-0.330852-0.125778-0.126066-0.05085-0.248539-0.105846-0.371866-0.159957-0.104519-0.04586-0.210703-0.08988-0.313079-0.138083-0.222894-0.104958-0.441992-0.214725-0.653501-0.330852-0.168328-0.09311-0.328527-0.190602-0.481239-0.292572-0.350706-0.234173-0.656791-0.492274-0.931034-0.762873-1.4277533-1.457009-1.3614655-3.170181-1.2864944-4.280568 0.094459-1.394769 1.2638184-4.454927 5.1117984-6.075644 2.37751-0.839468 5.173643-1.426575 7.51116-0.674008 1.758334 0.396731 3.022714 0.973616 4.694816 1.564027 0 0-0.01353 0.0291 0.448427 0.143552 3.251893 0.515123 2.886868-2.16384 2.886868-2.16384l-0.254887-0.626928c-0.05638-0.330366 0.191069-0.590913 0.191069-0.590913s-0.200442-0.7387262-0.16666-1.2269394c0.03424-0.4879884 0.0066-1.1135006-0.0998-2.0056186-0.106411-0.8921816-0.691976-1.6471821-0.881819-1.7858599-0.190277-0.1384278-1.076881-0.8068225-1.926324-1.1402087-0.849962-0.3333906-1.709005-0.5797738-2.767125-0.4306544-0.117485 0.016613-0.228689 0.034578-0.344523 0.051952-0.02051-0.00651-0.0366-0.013927-0.05879-0.020507-0.403487-0.1198269-0.688905-1.073407-1.018531-1.0655094-0.02523 6.049e-4 -0.05074 0.00276-0.07656 0.00547-0.02542 0.00266-0.05179 0.00606-0.07793 0.010937h-0.0014c-0.02664 0.00497-0.05313 0.011676-0.08066 0.01914-0.03006 0.00816-0.05902 0.018843-0.08613 0.031445-0.192902 0.089676-0.311075 1.1274854-0.384142 1.3488651-1.692467-0.8554742-3.584846-1.3581969-5.591668-1.412276-0.116888-0.00316-0.23237-0.00536-0.348625-0.00547zm7.457316 22.588163c-0.248456 0.0926-0.518157 0.170957-0.795685 0.243356 0.277371-0.07236 0.547395-0.150823 0.795685-0.243356z" style="opacity:.2"/>
 <path d="M 17.499764,7.0004732 A 10.499764,10.499764 0 0 0 7,17.500237 10.499764,10.499764 0 0 0 17.499764,28 10.499764,10.499764 0 0 0 27.999528,17.500237 10.499764,10.499764 0 0 0 17.499764,7.0004732 Z" style="fill:#f8952b"/>
 <path d="m17.29 10.52149c1.30062 0.307751 1.441738 1.965386 2.487932 2.369071 1.396 0.567061 1.515052-1.208137 0.7943-2.146826" style="fill:#946857"/>
 <path d="m21.462976 7.0127924c-1.465005-0.00175-3.05321 0.426933-4.213158 0.8303353-2.199722 0.7784014-3.571309 1.4083438-5.353657 2.6820893-0.472619 0.34319-2.3298477 1.70685-3.4583224 3.608445-3.1185909 5.513629-0.9120173 11.368037 3.1208444 12.698298 4.433892 1.658181 8.678089 2.137095 14.016425-2.580684-0.459493 0.367735 0 0-2.562157 1.335117-3.019834 1.125437-7.854828 0.763924-11.436709-1.202673-2.8816031-1.593988-2.5924137-3.940994-2.498242-5.335764 0.094459-1.394769 1.063807-4.455448 4.911787-6.076165 2.37751-0.839468 5.173146-1.426534 7.510663-0.673966 1.758335 0.39673 3.022223 1.11463 4.694324 1.705041 0 0-0.01377 0.02866 0.44819 0.143124 3.251893 0.515055 3.357036-2.346752 3.357036-2.346752l-0.09272-0.521442-0.28309-0.707504-0.134907-0.303126-0.08137-0.164272s-0.02345-0.2068301-0.05632-0.4169836c-0.06228 0.7855246-0.375081 1.2120496-0.375081 1.2120496-2.527463-0.479198-2.979212-2.6583675-5.644115-3.5730705-0.563231-0.2215073-1.20351-0.3113026-1.869421-0.3120971zm4.112132 17.238484c0.294389-0.235601 0.437011-0.396585 0.437055-0.396476-0.146194 0.136593-0.291749 0.268062-0.437055 0.396476z" style="opacity:.2"/>
 <path d="m15.555989 2.0006165c-7.3240817-0.006567-13.358727 6.0249058-13.551258 13.633286-0.1958165 7.729148 5.7106665 14.158534 13.191696 14.360615 3.644634 0.09838 6.489848-1.299619 8.985797-3.653043 0.266507-0.222354 0.411514-0.36093 0.411514-0.36093s2.706631-2.840733 2.851889-5.185626c-0.690631 1.140972-1.324144 2.283368-3.04329 3.129422-0.788426 0.365213-1.511085 0.675939-2.239403 0.921464-0.04663 0.01187-0.09346 0.02288-0.140818 0.03418-0.34497 0.08234-0.706528 0.151501-1.085522 0.203705-0.04593 0.0063-0.09308 0.01189-0.13945 0.01777-0.393066 0.04985-0.798923 0.08615-1.218136 0.103904-0.04315 0.0018-0.08787 0.0013-0.131247 0.0027-0.41357 0.01415-0.836549 0.01293-1.265988-0.0041-0.02802-0.0011-0.05533-1.21e-4 -0.0834-0.0014-0.436715-0.01937-0.380042-0.05897-0.823872-0.110739-0.06334-0.0074-0.126655-0.01245-0.190035-0.02051-0.432038-0.0549-0.863904-0.127433-1.29333-0.213276-0.06938-0.01387-0.138621-0.02771-0.207808-0.04238-0.420232-0.08918-0.836695-0.193847-1.24548-0.313079-0.131063-0.03823-0.261637-0.07761-0.391007-0.118943-0.09777-0.03124-0.195893-0.06131-0.292571-0.09433-0.138158-0.04719-0.273122-0.0982-0.40878-0.149021-0.110644-0.04145-0.222062-0.0819-0.330852-0.125778-0.126066-0.05085-0.248539-0.105846-0.371866-0.159957-0.104519-0.04586-0.210703-0.08988-0.313079-0.138083-0.222894-0.104958-0.441992-0.214725-0.653501-0.330852-0.168328-0.09311-0.328527-0.190602-0.481239-0.292572-0.350706-0.234173-0.656791-0.492274-0.931034-0.762873-1.4277533-1.457009-1.3614655-3.170181-1.2864944-4.280568 0.094459-1.394769 1.2638184-4.454927 5.1117984-6.075644 2.37751-0.839468 5.173643-1.426575 7.51116-0.674008 1.758334 0.396731 3.022714 0.973616 4.694816 1.564027 0 0-0.01353 0.0291 0.448427 0.143552 3.251893 0.515123 2.886868-2.16384 2.886868-2.16384l-0.254887-0.626928c-0.05638-0.3303658 0.191069-0.5909126 0.191069-0.5909126s-0.200442-0.7387262-0.16666-1.2269394c0.03424-0.4879884 0.0066-1.1135006-0.0998-2.0056186-0.106411-0.8921816-0.691976-1.6471821-0.881819-1.7858599-0.190277-0.1384278-1.076881-0.8068225-1.926324-1.1402087-0.849962-0.3333906-1.709005-0.5797738-2.767125-0.4306544-0.117485 0.016613-0.228689 0.034578-0.344523 0.051952-0.02051-0.00651-0.0366-0.013927-0.05879-0.020507-0.403487-0.1198269-0.688905-1.073407-1.018531-1.0655094-0.02523 6.049e-4 -0.05074 0.00276-0.07656 0.00547-0.02542 0.00266-0.05179 0.00606-0.07793 0.010937h-0.0014c-0.02664 0.00497-0.05313 0.011676-0.08066 0.01914-0.03006 0.00816-0.05902 0.018843-0.08613 0.031445-0.192902 0.089676-0.311075 1.1274854-0.384142 1.3488651-1.692467-0.8554742-3.584846-1.3581969-5.591668-1.412276-0.116888-0.00316-0.23237-0.00536-0.348625-0.00547zm7.457316 22.588162c-0.248456 0.0926-0.518157 0.170957-0.795685 0.243356 0.277371-0.07236 0.547395-0.150823 0.795685-0.243356z" style="fill:#946857"/>
 <path d="m15.556641 2c-7.3240821-0.006567-13.360204 6.0263849-13.552735 13.634766-0.00641 0.253062 0.011065 0.499897 0.017578 0.75 0.3180178-7.4888405 6.2923215-13.389307 13.535157-13.382813 0.116255 1.1e-4 0.230768 7.463e-4 0.347656 0.00391 2.006822 0.054079 3.89933 0.5585883 5.591797 1.4140625 0.07307-0.2213797 0.191863-1.2599334 0.384765-1.3496094 0.02711-0.012602 0.05588-0.02309 0.08594-0.03125 0.02753-0.00746 0.05344-0.014561 0.08008-0.019531h2e-3c0.02614-0.00488 0.0527-0.00906 0.07813-0.011719 0.02582-0.00271 0.05094-0.0033 0.07617-0.00391 0.329626-0.0079 0.614091 0.9446263 1.017578 1.0644532 0.02219 0.00658 0.04004 0.014974 0.06055 0.021484 0.115834-0.017374 0.226265-0.036121 0.34375-0.052734 1.05812-0.1491194 1.917616 0.09825 2.767578 0.4316406 0.849443 0.3333862 1.735504 1.0002441 1.925781 1.1386719 0.189843 0.1386778 0.776402 0.8949278 0.882813 1.7871093 0.1064 0.892118 0.133849 1.517871 0.09961 2.0058594-0.01 0.1441524 0.0018 0.3063821 0.02148 0.46875 0.059034-0.1450489 0.144478-0.2441406 0.144478-0.2441406s-0.199798-0.7383493-0.166016-1.2265625c0.03424-0.4879884 0.0068-1.1137414-0.09961-2.0058594-0.10641-0.8921816-0.692969-1.6464784-0.882812-1.7851562-0.190277-0.1384278-1.076338-0.8072388-1.925781-1.140625-0.849962-0.3333906-1.709458-0.5788069-2.767578-0.4296875-0.117485 0.016613-0.227916 0.033407-0.34375 0.050781-0.02051-0.00651-0.03836-0.012951-0.06055-0.019531-0.403487-0.1198269-0.687952-1.0743039-1.017578-1.0664063-0.02523 6.049e-4 -0.05035 0.00315-0.07617 0.00586-0.02542 0.00266-0.05199 0.00684-0.07813 0.011719h-2e-3c-0.02664 0.00497-0.05255 0.010114-0.08008 0.017578-0.03006 0.00816-0.05883 0.020601-0.08594 0.033203-0.192845 0.0896754-0.311641 1.1262759-0.384708 1.3476557-1.692467-0.8554742-3.584975-1.3580303-5.591797-1.4121094-0.116888-0.00316-0.231401-0.0057494-0.347656-0.0058594zm13.894531 8.648438c-0.02747 0.03041-0.228563 0.259078-0.175781 0.568359l0.191406 0.46875c0.114123-0.452779 0.06445-0.841797 0.06445-0.841797z" style="fill:#ffffff;opacity:.2"/>
 <path d="m21.462976 6.0148323c-1.465005-0.00175-3.05321 0.426933-4.213158 0.8303353-2.199722 0.7784014-3.571309 1.4083438-5.353657 2.6820897-0.472619 0.3431897-2.3298477 1.7068497-3.4583224 3.6084447-3.1185909 5.513629-0.9120173 11.368037 3.1208444 12.698298 4.433892 1.658181 8.678089 2.137095 14.016425-2.580684-0.459493 0.367735 0 0-2.562157 1.335117-3.019834 1.125437-7.854828 0.763924-11.436709-1.202673-2.8816031-1.593988-2.5924137-3.940994-2.498242-5.335764 0.094459-1.394769 1.063807-4.455448 4.911787-6.076165 2.37751-0.839468 5.173146-1.426534 7.510663-0.673966 1.758335 0.39673 3.022223 1.11463 4.694324 1.705041 0 0-0.01377 0.02866 0.44819 0.143124 3.251893 0.515055 3.357036-2.346752 3.357036-2.346752l-0.09272-0.521442-0.28309-0.7075046-0.134907-0.3031253-0.08137-0.1642724s-0.02345-0.2068299-0.05632-0.4169834c-0.06228 0.7855245-0.375081 1.2120497-0.375081 1.2120497-2.527463-0.4791981-2.979212-2.6583676-5.644115-3.5730706-0.563231-0.2215073-1.20351-0.3113026-1.869421-0.3120971zm4.112132 17.238484c0.294389-0.235601 0.437011-0.396585 0.437055-0.396476-0.146194 0.136593-0.291749 0.268062-0.437055 0.396476z" style="fill:#d3c9c6"/>
 <path d="m8.018169 13.108245-0.015169 0.124904c1.0170064-0.05153 2.263464 0.168848 3.188078 0.817358 0.716846 0.483945 1.362597 1.206173 2.281696 0.879426 0.628361-0.220365 0.663275-0.593523 0.422411-1.207125-0.203402-0.498908-0.539627-1.360432-0.955393-1.690741-0.598943-0.473973-2.14732-0.308462-2.225003-1.299629-0.05838-0.468513 0.236727-0.8209064 0.498506-1.1623782-4.83e-4 0-2.9983895 0.7537062-3.195126 3.5381852z" style="fill:#946857"/>
 <path d="m29.025226 10.999996s-0.115213 0.36329-0.656201 0.395169c-0.540776 0.0323-0.447246 0.784347 0.02168 1.205404 0.46914 0.421273 0.836034 0.536808 1.148723 0.213526 0.312265-0.322641 1.079212-0.857948-0.514204-1.814099z" style="opacity:.2"/>
 <path d="m29.025226 9.9999956s-0.115213 0.3632904-0.656201 0.3951694c-0.540776 0.0323-0.447246 0.784347 0.02168 1.205404 0.46914 0.421273 0.836034 0.536808 1.148723 0.213526 0.312265-0.322641 1.079212-0.857948-0.514204-1.8140994z" style="fill:#3f3f3f"/>
 <path d="m25.788632 9.6188805c-0.340116 0.4339785-0.968457 0.5086815-1.403747 0.1678939-0.435289-0.3425346-0.513248-0.9711424-0.172886-1.405371 0.33938-0.4332293 0.968212-0.5081826 1.403257-0.1668953 0.435535 0.3420359 0.51251 0.9703932 0.173376 1.4043724z" style="opacity:.2"/>
 <path d="m25.788632 8.6188804c-0.340116 0.433978-0.968457 0.5086813-1.403747 0.1678939-0.435289-0.3425346-0.513248-0.9711424-0.172886-1.405371 0.33938-0.4332293 0.968212-0.5081826 1.403257-0.1668953 0.435535 0.3420359 0.51251 0.9703932 0.173376 1.4043724z" style="fill:#3f3f3f"/>
 <path d="m29.722509 9.6750749c-0.02942 0.3857161-0.27488 0.6752521-0.547919 0.6460231-0.272811-0.02847-0.470008-0.3637313-0.439899-0.7501961 0.02965-0.3852154 0.274649-0.6745014 0.54746-0.6457726 0.27281 0.029476 0.470006 0.3644804 0.440358 0.7499456z" style="opacity:.2"/>
 <path d="m29.722509 8.6750748c-0.02942 0.3857158-0.27488 0.6752517-0.547919 0.6460232-0.272811-0.028475-0.470008-0.3637314-0.439899-0.7501962 0.02965-0.3852154 0.274649-0.6745014 0.54746-0.6457726 0.27281 0.029476 0.470006 0.3644804 0.440358 0.7499456z" style="fill:#3f3f3f"/>
</svg>
