<svg width="32" height="32" version="1.1" viewBox="0 0 32 32" xmlns="http://www.w3.org/2000/svg">
 <path d="m9.5163342 3.9999154c-2.2869735-5.984e-4 -4.3195925 1.5433243-5.082232 3.4208875-0.7630775 1.8786604-0.3816969 4.4048531 1.2598482 6.0002431l3.0629697 3.062411-3.0434975 3.046851c-1.0908792 1.047801-1.7839629 2.715305-1.7077079 4.21175 0.076256 1.496445 0.7290977 2.724282 1.6278721 3.623466 0.8987743 0.899183 2.1260683 1.5524 3.6218204 1.628604 1.4957528 0.0768 3.1624828-0.61711 4.2098798-1.708399l3.045445-3.044956 3.094125 3.097521c1.056298 1.061266 2.703942 1.71957 4.178724 1.634489 1.474782-0.08478 2.690728-0.733012 3.582876-1.624715 0.892149-0.891802 1.539452-2.105276 1.625925-3.580675 0.08637-1.473604-0.568269-3.122756-1.625925-4.180631h-0.0039l-3.09802-3.099415 3.059075-3.060516c1.663391-1.614541 2.030678-4.1868146 1.232587-6.0741526-0.79809-1.8874378-2.900077-3.416798-5.21659-3.3468781-1.423583 0.043887-2.778276 0.6408491-3.769808 1.6637141l-3.059063 3.0604161-3.061023-3.062411c-1.030474-1.061665-2.450388-1.6625172-3.9294805-1.6637141z" style="opacity:.2"/>
 <path d="m9.5163342 2.9999154c-2.2869735-5.984e-4 -4.3195925 1.5433243-5.082232 3.4208875-0.7630775 1.8786604-0.3816969 4.4048531 1.2598482 6.0002431l3.0629697 3.062411-3.0434975 3.046851c-1.0908792 1.047801-1.7839629 2.715305-1.7077079 4.21175 0.076256 1.496445 0.7290977 2.724282 1.6278721 3.623466 0.8987743 0.899183 2.1260683 1.5524 3.6218204 1.628604 1.4957528 0.0768 3.1624828-0.61711 4.2098798-1.708399l3.045445-3.044956 3.094125 3.097521c1.056298 1.061266 2.703942 1.71957 4.178724 1.634489 1.474782-0.08478 2.690728-0.733012 3.582876-1.624715 0.892149-0.891802 1.539452-2.105276 1.625925-3.580675 0.08637-1.473604-0.568269-3.122756-1.625925-4.180631h-0.0039l-3.09802-3.099415 3.059075-3.060516c1.663391-1.614541 2.030678-4.1868146 1.232587-6.0741526-0.79809-1.8874378-2.900077-3.416798-5.21659-3.3468781-1.423583 0.043887-2.778276 0.6408491-3.769808 1.6637141l-3.059063 3.0604161-3.061023-3.062411c-1.030474-1.061665-2.450388-1.6625172-3.9294805-1.6637141z" style="fill:#7ec242"/>
 <path d="m9.51514 9.5213 14 14" style="fill:none;opacity:.2;stroke-linecap:round;stroke-linejoin:round;stroke-width:3;stroke:#000000"/>
 <path d="m23.51534 9.5213-14 14" style="fill:none;opacity:.2;stroke-linecap:round;stroke-linejoin:round;stroke-width:3;stroke:#000000"/>
 <path d="m9.5 6.90625a1.50015 1.50015 0 0 0 -1.046875 2.5761719l5.941406 5.9394531-5.9394529 5.939453a1.50015 1.50015 0 1 0 2.1210939 2.121094l5.939453-5.939453 5.9375 5.939453a1.5005327 1.5005327 0 1 0 2.123047 -2.121094l-5.939453-5.939453 5.939453-5.9394531a1.50015 1.50015 0 0 0 -1.089844 -2.5761719 1.50015 1.50015 0 0 0 -1.03125 0.4550781l-5.939453 5.9394529-5.939453-5.9394529a1.50015 1.50015 0 0 0 -1.076172 -0.4550781z" style="fill:#ffffff"/>
 <path d="m9.515625 2.9999436c-2.2869735-5.985e-4 -4.3193917 1.5423586-5.0820312 3.4199219-0.305414 0.7519146-0.4182798 1.6086187-0.3496094 2.4667969 0.0483509-0.51189 0.1636506-1.0089753 0.3496094-1.4667969 0.7626395-1.8775633 2.7950577-3.4205204 5.0820312-3.4199219l0.00391 0.00391c1.479093 0.0012 2.899214 0.6023975 3.929688 1.6640626l3.060547 3.0625 3.060546-3.0605469c0.991533-1.022865 2.345948-1.6201756 3.769532-1.6640625 2.316512-0.06992 4.418706 1.4602184 5.216797 3.3476562 0.19928 0.4712613 0.325026 0.984528 0.376953 1.515625 0.06704-0.8785742-0.05422-1.7524327-0.376953-2.515625-0.798095-1.8874416-2.900289-3.4175799-5.216801-3.34766-1.423584 0.043887-2.777999 0.6411975-3.769532 1.6640625l-3.060546 3.0605469-3.060547-3.0625c-1.030474-1.0616651-2.450595-1.6628656-3.9296878-1.6640626zm-1.2578125 12.984375-2.5449219 2.546875c-1.0908792 1.047801-1.7832862 2.714492-1.7070312 4.210938 0.00472 0.09254 0.018296 0.181013 0.027344 0.271484 0.1346206-1.286178 0.7632076-2.602134 1.6796872-3.482422l3.0449219-3.046875zm16.50586 0.0039-0.5 0.5 3.099609 3.097657h0.0039c0.878207 0.878389 1.470617 2.165205 1.599609 3.419921 0.0081-0.07961 0.02063-0.157069 0.02539-0.238281 0.08637-1.473604-0.567344-3.123766-1.625-4.18164h-0.0039z" style="fill:#ffffff;opacity:.2"/>
</svg>
