<svg width="32" height="32" version="1" xmlns="http://www.w3.org/2000/svg">
 <path d="m2.3216974 17.774243 12.904059 12.904059c0.42893 0.42893 1.119555 0.428931 1.548486 0l12.904058-12.904059c0.428931-0.428931 0.428931-1.119556 0-1.548486l-12.904058-12.904059c-0.428931-0.428931-1.119556-0.4289317-1.548487-7e-7l-12.904058 12.904059c-0.428931 0.428931-0.4289302 1.119556 7e-7 1.548487zm-0.068933 2.832842 10.138903 10.138903c0.337017 0.337017 0.879651 0.337017 1.216668 0l10.138902-10.138903c0.337017-0.337017 0.337017-0.879651 0-1.216668l-10.138902-10.138903c-0.337017-0.337017-0.879651-0.337017-1.216668 0l-10.138903 10.138903c-0.337017 0.337017-0.337017 0.879651 0 1.216668zm6.000001 1e-6 10.138902 10.138902c0.337017 0.337017 0.879652 0.337017 1.216669 0l10.138902-10.138902c0.337017-0.337017 0.337017-0.879652 0-1.216669l-10.138902-10.138903c-0.337017-0.337017-0.879651-0.3370163-1.216668 7e-7l-10.138902 10.138902c-0.337017 0.337017-0.3370177 0.879652-7e-7 1.216669z" style="opacity:.2"/>
 <rect transform="matrix(.70710676 .7071068 .70710676 -.7071068 0 0)" x="14.6" y="-12.27" width="16.059" height="16.059" rx=".86" ry=".86" style="fill:#4bae4f"/>
 <rect transform="matrix(.70710676 .7071068 .70710676 -.7071068 0 0)" x="18.84" y="-8.03" width="16.059" height="16.059" rx=".86" ry=".86" style="fill:#4bae4f"/>
 <rect transform="matrix(.70710676 .7071068 .70710676 -.7071068 0 0)" x="12.41" y="-10.22" width="20.439" height="20.439" rx="1.095" ry="1.095" style="fill:#f58411"/>
 <path d="m16.000379 1.999999c-0.279889 0-0.560925 0.1078001-0.775391 0.3222656l-12.904297 12.904297c-0.347803 0.347803-0.397877 0.860546-0.18164 1.273437 0.05044-0.09631 0.100513-0.19231 0.18164-0.273437l12.904297-12.904297c0.428931-0.4289309 1.119898-0.4289309 1.548829 0l12.904296 12.904297c0.08119 0.08119 0.13314 0.177041 0.183594 0.273437 0.216091-0.412853 0.164145-0.925699-0.183594-1.273437l-12.904296-12.904297c-0.214466-0.2144655-0.493549-0.3222656-0.773438-0.3222656z" style="fill:#ffffff;opacity:.2"/>
 <g transform="matrix(.54664975 0 0 .5081458 -1.7777777 1)" style="opacity:.2">
  <path d="m34.350656 42.310691c1.437009-0.127169 1.640335-0.517345 2.390632-1.216774 0.763013-0.699429 0.861501-1.510999 0.861501-2.719104 0-1.093653 0.06677-2.335121-0.683528-3.098134-0.750297-0.763013-1.11888-1.42749-2.568605-1.821714zm-3.658649-21.64733c-1.30984 0.08902-1.704749 0.624737-2.429612 1.298732-0.724863 0.661279-0.822522 1.518059-0.822522 2.637146 0 1.017351 0.06587 1.896427 0.727145 2.570422 0.673995 0.673995 1.100697 0.945799 2.524989 1.365456zm-7.3173 21.64733v-4.919848h2.032583c0.05087 1.742214 0.510474 2.489351 1.476959 3.379533 0.966484 0.890183 1.900224 1.502164 3.807758 1.540315v-8.855726c-2.924885-0.813881-4.356221-2.2922-5.538892-3.347702-1.182671-1.068219-1.778408-2.479836-1.778408-4.234767 0-2.034703 0.70383-3.668781 2.102688-4.90232 1.398859-1.233539 2.722101-2.122152 5.214612-2.274754v-4.919848h3.658649v4.919848c1.284406 0.443611 1.715926 0.54538 2.571942 0.825028 1.244941 0.406705 2.597263 0.718931 3.729066 1.240324v4.822435h-2.032583c-0.152603-1.47516-0.714198-2.592083-1.591663-3.444114-0.877466-0.852032-1.176169-1.361282-2.676762-1.475734v8.855726c3.128355 0.852031 4.186988 1.751771 5.433243 2.858141 1.258972 1.093653 1.884057 2.185697 1.884057 4.029646 0 2.111004-0.822877 4.067271-2.208338 5.450797-1.316261 1.314424-2.425698 2.230205-5.108962 2.420959v4.919848h-3.658649v-4.919848c-1.181098-0.281837-1.863711-0.430765-3.17355-0.761405-1.30984-0.317922-2.719458-0.570689-4.14375-1.206534z"/>
 </g>
 <g transform="matrix(.54664975 0 0 .5081458 -1.7777777 3.7907597e-8)" style="fill:#ffffff">
  <path d="m34.350656 42.310691c1.437009-0.127169 1.640335-0.517345 2.390632-1.216774 0.763013-0.699429 0.861501-1.510999 0.861501-2.719104 0-1.093653 0.06677-2.335121-0.683528-3.098134-0.750297-0.763013-1.11888-1.42749-2.568605-1.821714zm-3.658649-21.64733c-1.30984 0.08902-1.704749 0.624737-2.429612 1.298732-0.724863 0.661279-0.822522 1.518059-0.822522 2.637146 0 1.017351 0.06587 1.896427 0.727145 2.570422 0.673995 0.673995 1.100697 0.945799 2.524989 1.365456zm-7.3173 21.64733v-4.919848h2.032583c0.05087 1.742214 0.510474 2.489351 1.476959 3.379533 0.966484 0.890183 1.900224 1.502164 3.807758 1.540315v-8.855726c-2.924885-0.813881-4.356221-2.2922-5.538892-3.347702-1.182671-1.068219-1.778408-2.479836-1.778408-4.234767 0-2.034703 0.70383-3.668781 2.102688-4.90232 1.398859-1.233539 2.722101-2.122152 5.214612-2.274754v-4.919848h3.658649v4.919848c1.284406 0.443611 1.715926 0.54538 2.571942 0.825028 1.244941 0.406705 2.597263 0.718931 3.729066 1.240324v4.822435h-2.032583c-0.152603-1.47516-0.714198-2.592083-1.591663-3.444114-0.877466-0.852032-1.176169-1.361282-2.676762-1.475734v8.855726c3.128355 0.852031 4.186988 1.751771 5.433243 2.858141 1.258972 1.093653 1.884057 2.185697 1.884057 4.029646 0 2.111004-0.822877 4.067271-2.208338 5.450797-1.316261 1.314424-2.425698 2.230205-5.108962 2.420959v4.919848h-3.658649v-4.919848c-1.181098-0.281837-1.863711-0.430765-3.17355-0.761405-1.30984-0.317922-2.719458-0.570689-4.14375-1.206534z" style="fill:#ffffff"/>
 </g>
</svg>
