<svg width="32" height="32" version="1" xmlns="http://www.w3.org/2000/svg">
 <path d="m3 15v13.6c0 0.7756 0.6244 1.4 1.4 1.4h22.2c0.7756 0 1.4-0.6244 1.4-1.4v-13.6z" style="opacity:.2"/>
 <path d="m3 14v13.6c0 0.7756 0.6244 1.4 1.4 1.4h22.2c0.7756 0 1.4-0.6244 1.4-1.4v-13.6z" style="fill:#ffffbf"/>
 <path d="m28 14v-8.6c0-0.7756-0.6244-1.4-1.4-1.4h-22.2c-0.7756 0-1.4 0.6244-1.4 1.4v8.6z" style="fill:#6765f6"/>
 <rect x="8" y="15" width="5" height="5" style="opacity:.1"/>
 <rect x="8" y="14" width="5" height="5" style="fill:#3f3f3f"/>
 <rect x="18" y="15" width="5" height="5" style="opacity:.1"/>
 <rect x="18" y="14" width="5" height="5" style="fill:#3f3f3f"/>
 <path d="M 4.4003906 4 C 3.6247906 4 3 4.6247906 3 5.4003906 L 3 6.4003906 C 3 5.6247906 3.6247906 5 4.4003906 5 L 26.599609 5 C 27.375209 5 28 5.6247906 28 6.4003906 L 28 5.4003906 C 28 4.6247906 27.375209 4 26.599609 4 L 4.4003906 4 z" style="fill:#ffffff;opacity:.1"/>
</svg>
