<svg width="32" height="32" version="1.1" viewBox="0 0 32 32" xmlns="http://www.w3.org/2000/svg">
 <circle cx="16" cy="17" r="14" style="opacity:.2"/>
 <circle cx="16" cy="16" r="14" style="fill:#7ea043"/>
 <path d="M 16 2 A 14 14 0 0 0 2 16 A 14 14 0 0 0 2.0214844 16.585938 A 14 14 0 0 1 16 3 A 14 14 0 0 1 29.978516 16.414062 A 14 14 0 0 0 30 16 A 14 14 0 0 0 16 2 z" style="fill:#ffffff;opacity:.2"/>
 <path d="m15.009045 26.475051c-1.596568-0.108946-3.109518-0.647663-4.533418-1.614214-0.782424-0.531113-2.046991-1.776309-2.046991-2.015633 0-0.134691 0.118997-0.242128 0.614673-0.554885 0.338071-0.213315 0.654311-0.387847 0.702757-0.387847 0.04847 0 0.393905 0.293529 0.767679 0.652287 1.019116 0.978175 2.040507 1.55752 3.398187 1.927501 0.513262 0.139859 0.747546 0.160246 1.837285 0.159885 1.151051-4.16e-4 1.303433-0.01558 1.942903-0.192743 4.474418-1.240171 6.789261-6.129701 4.896725-10.343124-0.838871-1.867626-2.534261-3.390804-4.480386-4.025294-2.801043-0.9132124-5.837978-0.1421387-7.858279 1.995189-0.23849 0.252303-0.465158 0.458732-0.503705 0.458732-0.0905 0-1.268119-0.757228-1.330715-0.855669-0.08256-0.129846 0.16473-0.452553 0.880246-1.148734 1.088896-1.0594674 2.196431-1.7327664 3.614291-2.1972234 1.803616-0.590821 3.917587-0.58567 5.718584 0.01387 3.290313 1.095436 5.720733 3.9460384 6.283521 7.3698664 0.142937 0.869592 0.105754 2.593481-0.07359 3.409824-0.444097 2.021678-1.567526 3.90239-3.087408 5.168567-1.95067 1.625056-4.202262 2.352921-6.74236 2.179586zm-9.009037-9.318328c0-3.305283 0.02343-6.009027 0.05204-6.008318 0.09133 0.0023 10.092043 5.929155 10.102995 5.987513 0.0087 0.04632-9.795193 5.883999-10.068299 5.995121-0.06899 0.02808-0.08674-1.194069-0.08674-5.974316zm8.916536 5.78515c-0.653509-0.09928-1.505215-0.400701-2.075466-0.734512-0.598386-0.350282-1.428696-1.093253-1.428696-1.278416 0-0.141569 1.130499-0.89922 1.342446-0.899697 0.07047-1.41e-4 0.264246 0.119529 0.430604 0.26596 1.297564 1.14216 3.358115 1.235926 4.806561 0.218722 1.072159-0.752947 1.696602-1.953924 1.692257-3.254677-0.0036-1.157636-0.360012-2.03021-1.152514-2.823699-0.969952-0.971171-2.29335-1.383573-3.568576-1.112057-0.642027 0.136705-1.111428 0.353369-1.652094 0.762593-0.234222 0.177289-0.473662 0.32233-0.532091 0.32233-0.05842 0-0.389818-0.176909-0.736414-0.393128-0.809873-0.505221-0.81382-0.554984-0.09242-1.16554 0.608709-0.515175 1.668318-1.072225 2.376587-1.249408 2.347806-0.587328 4.86332 0.393622 6.207027 2.420496 0.686425 1.03541 0.976557 2.021666 0.961151 3.267238-0.01159 0.941603-0.179094 1.633422-0.604648 2.498116-0.348892 0.708911-0.927867 1.436661-1.535222 1.929697-0.501854 0.407399-1.633495 0.967004-2.262627 1.118886-0.574904 0.138776-1.62652 0.190551-2.175873 0.107103z" style="opacity:.2"/>
 <path d="m15.009041 25.475051c-1.596568-0.108946-3.109518-0.647663-4.533418-1.614214-0.782424-0.531113-2.046991-1.776309-2.046991-2.015633 0-0.134691 0.118997-0.242128 0.614673-0.554885 0.338071-0.213315 0.654311-0.387847 0.702757-0.387847 0.04847 0 0.393905 0.293529 0.767679 0.652287 1.019116 0.978175 2.040507 1.55752 3.398187 1.927501 0.513262 0.139859 0.747546 0.160246 1.837285 0.159885 1.151051-4.16e-4 1.303433-0.01558 1.942903-0.192743 4.474418-1.240171 6.789261-6.129701 4.896725-10.343125-0.838871-1.867626-2.534261-3.3908037-4.480386-4.0252935-2.801043-0.9132125-5.837978-0.142139-7.858279 1.9951885-0.23849 0.252303-0.465158 0.458732-0.503705 0.458732-0.0905 0-1.268119-0.757228-1.330715-0.855669-0.08256-0.129846 0.16473-0.452553 0.880246-1.1487337 1.088896-1.0594674 2.196431-1.7327668 3.614291-2.1972239 1.803616-0.5908204 3.917587-0.5856695 5.718584 0.01387 3.290313 1.0954359 5.720733 3.9460386 6.283521 7.3698666 0.142937 0.869592 0.105754 2.593482-0.07359 3.409825-0.444097 2.021678-1.567526 3.90239-3.087408 5.168567-1.95067 1.625056-4.202262 2.352921-6.74236 2.179586zm-9.009037-9.318329c0-3.305283 0.02343-6.009027 0.05204-6.008318 0.09133 0.0023 10.092043 5.929155 10.102995 5.987513 0.0087 0.04632-9.795193 5.884-10.068299 5.995122-0.06899 0.02808-0.08674-1.194069-0.08674-5.974317zm8.916536 5.785151c-0.653509-0.09928-1.505215-0.400701-2.075466-0.734512-0.598386-0.350282-1.428696-1.093253-1.428696-1.278416 0-0.141569 1.130499-0.89922 1.342446-0.899697 0.07047-1.41e-4 0.264246 0.119529 0.430604 0.26596 1.297564 1.14216 3.358115 1.235926 4.806561 0.218722 1.072159-0.752947 1.696602-1.953924 1.692257-3.254678-0.0036-1.157636-0.360012-2.03021-1.152514-2.823699-0.969952-0.971171-2.29335-1.383573-3.568576-1.112057-0.642027 0.136705-1.111428 0.353369-1.652094 0.762593-0.234222 0.177289-0.473662 0.32233-0.532091 0.32233-0.05842 0-0.389818-0.176909-0.736414-0.393128-0.809873-0.505221-0.81382-0.554984-0.09242-1.16554 0.608709-0.515175 1.668318-1.072225 2.376587-1.249408 2.347806-0.587328 4.86332 0.393622 6.207027 2.420496 0.686425 1.03541 0.976557 2.021666 0.961151 3.267238-0.01159 0.941604-0.179094 1.633423-0.604648 2.498117-0.348892 0.708911-0.927867 1.436661-1.535222 1.929697-0.501854 0.407399-1.633495 0.967004-2.262627 1.118886-0.574904 0.138776-1.62652 0.190551-2.175873 0.107103z" style="fill:#ffffff"/>
</svg>
