<svg width="32" height="32" version="1.1" viewBox="0 0 32 32" xmlns="http://www.w3.org/2000/svg">
 <rect transform="matrix(0,-1,-1,0,0,0)" x="-30" y="-30" width="9" height="28" rx="1.25" ry="1.25" style="opacity:.2"/>
 <rect transform="matrix(0,-1,-1,0,0,0)" x="-29" y="-30" width="9" height="28" rx="1.25" ry="1.25" style="fill:#8e8e8e"/>
 <path d="m12 23-2 3" style="fill:none;opacity:.5;stroke-linecap:round;stroke-width:1.9992;stroke:#000000"/>
 <path d="m9 23-2 3" style="fill:none;opacity:.5;stroke-linecap:round;stroke-width:1.9992;stroke:#000000"/>
 <path d="m6 23-2 3" style="fill:none;opacity:.5;stroke-linecap:round;stroke-width:1.9992;stroke:#000000"/>
 <path d="m15 23-2 3" style="fill:none;opacity:.5;stroke-linecap:round;stroke-width:1.9992;stroke:#000000"/>
 <circle cx="19.5" cy="23.5" r="1.5" style="opacity:.2"/>
 <circle cx="23.5" cy="23.5" r="1.5" style="opacity:.2"/>
 <circle cx="27.5" cy="23.5" r="1.5" style="opacity:.2"/>
 <circle cx="19.5" cy="22.5" r="1.5" style="fill:#76ff03"/>
 <circle cx="23.5" cy="22.5" r="1.5" style="fill:#ffff00"/>
 <circle cx="27.5" cy="22.5" r="1.5" style="fill:#ffcd40"/>
 <rect transform="matrix(0,-1,-1,0,0,0)" x="-21" y="-30" width="9" height="28" rx="1.25" ry="1.25" style="opacity:.2"/>
 <rect transform="matrix(0,-1,-1,0,0,0)" x="-20" y="-30" width="9" height="28" rx="1.25" ry="1.25" style="fill:#8e8e8e"/>
 <path d="m12 14-2 3" style="fill:none;opacity:.5;stroke-linecap:round;stroke-width:1.9992;stroke:#000000"/>
 <path d="m9 14-2 3" style="fill:none;opacity:.5;stroke-linecap:round;stroke-width:1.9992;stroke:#000000"/>
 <path d="m6 14-2 3" style="fill:none;opacity:.5;stroke-linecap:round;stroke-width:1.9992;stroke:#000000"/>
 <path d="m15 14-2 3" style="fill:none;opacity:.5;stroke-linecap:round;stroke-width:1.9992;stroke:#000000"/>
 <circle cx="19.5" cy="14.5" r="1.5" style="opacity:.2"/>
 <circle cx="23.5" cy="14.5" r="1.5" style="opacity:.2"/>
 <circle cx="27.5" cy="14.5" r="1.5" style="opacity:.2"/>
 <circle cx="19.5" cy="13.5" r="1.5" style="fill:#76ff03"/>
 <circle cx="23.5" cy="13.5" r="1.5" style="fill:#ffff00"/>
 <circle cx="27.5" cy="13.5" r="1.5" style="fill:#ffcd40"/>
 <rect transform="matrix(0,-1,-1,0,0,0)" x="-12" y="-30" width="9" height="28" rx="1.25" ry="1.25" style="opacity:.2"/>
 <rect transform="matrix(0,-1,-1,0,0,0)" x="-11" y="-30" width="9" height="28" rx="1.25" ry="1.25" style="fill:#8e8e8e"/>
 <path d="m12 5-2 3" style="fill:none;opacity:.5;stroke-linecap:round;stroke-width:1.9992;stroke:#000000"/>
 <path d="m9 5-2 3" style="fill:none;opacity:.5;stroke-linecap:round;stroke-width:1.9992;stroke:#000000"/>
 <path d="m6 5-2 3" style="fill:none;opacity:.5;stroke-linecap:round;stroke-width:1.9992;stroke:#000000"/>
 <path d="m15 5-2 3" style="fill:none;opacity:.5;stroke-linecap:round;stroke-width:1.9992;stroke:#000000"/>
 <circle cx="19.5" cy="5.5" r="1.5" style="opacity:.2"/>
 <circle cx="23.5" cy="5.5" r="1.5" style="opacity:.2"/>
 <circle cx="27.5" cy="5.5" r="1.5" style="opacity:.2"/>
 <circle cx="19.5" cy="4.5" r="1.5" style="fill:#76ff03"/>
 <circle cx="23.5" cy="4.5" r="1.5" style="fill:#ffff00"/>
 <circle cx="27.5" cy="4.5" r="1.5" style="fill:#ffcd40"/>
 <path d="m3.25 2c-0.6925 0-1.25 0.5575-1.25 1.25v1c0-0.6925 0.5575-1.25 1.25-1.25h25.5c0.692 0 1.25 0.5575 1.25 1.25v-1c0-0.6925-0.558-1.25-1.25-1.25z" style="fill:#ffffff;opacity:.2"/>
 <rect transform="matrix(0,-1,-1,0,0,0)" x="-32" y="-32" width="16" height="16" rx="8" ry="8" style="opacity:.2"/>
 <rect transform="matrix(0,-1,-1,0,0,0)" x="-31" y="-32" width="16" height="16" rx="8" ry="8" style="fill:#02a8f3"/>
 <path d="m24.0152 17.4c-2.362121 0-4.381201 1.46948-5.196001 3.5366-0.04337 0.105144-0.08146 0.21284-0.118412 0.321088-0.0073 0.0224-0.01562 0.04417-0.02259 0.0667-0.1772 0.5412-0.2784 1.116-0.2784 1.7156 0 3.0668 2.5044 5.56 5.584801 5.56 2.33984 0 4.3448-1.44032 5.1752-3.47612 2.16e-4 -5.2e-4 5.6e-4 -1e-3 8e-4 -0.0016 0.05966-0.1402 0.11-0.284676 0.15814-0.43044 0.180188-0.5456 0.281228-1.12692 0.281228-1.73184 0-3.06612-2.50504-5.56-5.5848-5.56zm-0.401961 0.86788v1.87144c-0.53324-0.01873-1.04316-0.07498-1.5144-0.163644 0.07078-0.16514 0.144984-0.324188 0.225916-0.4692 0.373072-0.66856 0.8236-1.0856 1.28852-1.2386zm0.797721 0.03102c0.04192 0.0069 0.08456 0.01176 0.1262 0.01939 0.42008 0.183028 0.8238 0.5802 1.16308 1.18816 0.07943 0.142344 0.152356 0.298184 0.22202 0.45992-0.46912 0.09099-0.9786 0.150044-1.51128 0.1714v-1.83888zm-2.499881 0.383132c-0.10006 0.139084-0.196548 0.283036-0.283564 0.43896-0.115832 0.207576-0.21942 0.43244-0.314724 0.667-0.233504-0.06818-0.44952-0.145368-0.65128-0.228792 0.364092-0.35588 0.78604-0.65132 1.24956-0.87716zm4.289201 0.11944c0.21784 0.08699 0.384848 0.168136 0.55232 0.249732 0.21264 0.147708 0.41292 0.3116 0.59828 0.49092-0.199308 0.08436-0.41368 0.162616-0.64504 0.231896-0.0938-0.22928-0.195004-0.44964-0.308492-0.65304-0.06197-0.111052-0.128724-0.216344-0.197092-0.319536zm1.67176 1.3402c0.50896 0.6898 0.8356 1.5194 0.90988 2.42364h-1.50196c-0.02932-0.7262-0.138748-1.41308-0.315504-2.03744 0.318552-0.09721 0.61772-0.208756 0.8912-0.33582 0.0074-0.01732 0.0116-0.0338 0.01636-0.05041zm-7.752801 0.05274c0.286324 0.13264 0.60184 0.24752 0.93716 0.347456-0.174452 0.62068-0.282504 1.30264-0.311608 2.02348h-1.49648c0.07242-0.8812 0.3841-1.69168 0.87096-2.37092zm6.070801 0.52972c0.158724 0.55616 0.261536 1.17876 0.291352 1.8412h-2.07064v-1.63336c0.62676-0.02289 1.2256-0.09336 1.77928-0.207852zm-4.358801 0.01163c0.555 0.111488 1.15476 0.17802 1.78164 0.197768v1.6318h-2.06984c0.02961-0.65792 0.13136-1.27632 0.28824-1.82956zm-2.58324 2.62376h1.49648c0.0299 0.74064 0.142652 1.44108 0.325632 2.07544-0.327756 0.09704-0.63536 0.209288-0.91692 0.337372-0.50544-0.6874-0.8304-1.51304-0.90524-2.4128zm2.295 0h2.06984v1.68764c-0.62156 0.01952-1.21656 0.08486-1.7676 0.194668-0.165312-0.56644-0.27172-1.20372-0.30226-1.88232zm2.867561 0h2.07064c-0.03074 0.68312-0.13818 1.32468-0.305376 1.89396-0.54976-0.112788-1.14376-0.1821-1.76528-0.204752v-1.6892zm2.86912 0h1.50196c-0.0757 0.91032-0.40748 1.74472-0.92312 2.43684-0.0015-0.0024-0.0016-0.0053-0.0031-0.0078-0.277416-0.128888-0.58152-0.241552-0.90524-0.3397 0.185328-0.63796 0.299408-1.3434 0.329528-2.0894zm-3.666841 2.48184v1.81484c-0.46468-0.153232-0.91552-0.56868-1.28852-1.23704-0.07265-0.130192-0.139576-0.271512-0.204104-0.41804 0.46524-0.08638 0.96756-0.141284 1.4926-0.159768zm0.797721 0.0016c0.52496 0.02086 1.02676 0.07797 1.49028 0.166748-0.06349 0.143516-0.129688 0.281728-0.200988 0.40952-0.37312 0.66864-0.82416 1.08396-1.28928 1.23704v-1.81328zm-3.077121 0.343576c0.08994 0.216252 0.186084 0.42528 0.293692 0.61812 0.0846 0.151612 0.177324 0.293136 0.274216 0.42888-0.44032-0.215756-0.84184-0.49524-1.19268-0.82908 0.195356-0.07861 0.40096-0.153296 0.62476-0.217936zm5.352001 0.01396c0.221428 0.06562 0.4252 0.140772 0.61776 0.220264-0.348508 0.32828-0.74608 0.60328-1.18176 0.81588 0.09728-0.137124 0.190604-0.279368 0.275772-0.432 0.105308-0.188716 0.199832-0.392996 0.288236-0.60416z" style="fill-rule:evenodd;fill:#ffffff"/>
</svg>
