<svg width="32" height="32" version="1.1" xmlns="http://www.w3.org/2000/svg">
 <rect transform="matrix(0,-1,-1,0,0,0)" x="-31" y="-30" width="28" height="28" rx="1.4" ry="1.4" style="opacity:.2"/>
 <rect transform="matrix(0,-1,-1,0,0,0)" x="-30" y="-30" width="28" height="28" rx="1.4" ry="1.4" style="fill:#2c9bff"/>
 <path d="m18 6-4 0.6054688v14.46875l4-1.074219v-5.589844l4 6.589844 4-1.5-5-6 5.001953-6.4980469-3.880859-1.0019531-4.121094 6.558594zm-8.1445312 3.9238281c-0.094592 0-0.1891851 0.036841-0.2617188 0.1093749l-1.5722656 1.572266c-0.1450675 0.145067-0.1101437 0.352307 0 0.52539l1.6269531 2.554688c-0.1205423 0.250221-0.2249229 0.50791-0.3125 0.771484-0.00385 0.01134-0.00989 0.02184-0.013672 0.0332l-2.9511718 0.65625c-0.2002702 0.044513-0.3710937 0.165942-0.3710937 0.371097v1.964844c0 0.205155 0.1708235 0.32659 0.3710938 0.371094l2.9511718 0.65625c0.00646 0.0194 0.016787 0.03731 0.023437 0.05664 0.085245 0.256042 0.186352 0.506527 0.3027344 0.75l-1.6269531 2.552735c-0.1101437 0.173083-0.1450675 0.380323 0 0.52539l1.5722661 1.572266c0.1450675 0.145067 0.3783676 0.145067 0.523438 0l2.550781-1.625c0.250759 0.121949 0.509105 0.227636 0.773437 0.316406 0.01735 0.0061 0.03339 0.01554 0.05078 0.02148l0.654296 2.949218c0 0.205156 0.16594 0.371094 0.371094 0.371094h2.220703c0.205155 0 0.32659-0.170824 0.371094-0.371094l0.654297-3.039062c0.300604-0.113013 0.592418-0.248149 0.873047-0.404297l2.490234 1.78125c0.145068 0.145067 0.378371 0.145067 0.523438 0l1.572265-1.572266c0.145068-0.145067 0.110144-0.352307 0-0.52539l-0.947265-1.4375-0.09961 0.03711c-0.225251 0.08461-0.478825-0.0032-0.603515-0.208984l-0.996092-1.640621c-0.829936 1.985195-2.789933 3.380859-5.076172 3.380859-3.037566 0-5.5-2.462434-5.5-5.5 0-2.33092 1.452799-4.31835 3.5-5.119141v-1.095703l-0.0078 0.03516c-0.02208 0.0075-0.04245 0.01957-0.06445 0.02734-0.260825 0.08662-0.515895 0.189688-0.763672 0.308594l-2.54689-1.623047c-0.072536-0.0725334-0.1671269-0.1093749-0.2617192-0.1093749z" style="opacity:.2"/>
 <path d="m18 5l-4 0.6054688v14.46875l4-1.074219v-5.589844l4 6.589844 4-1.5-5-6 5.001953-6.4980469-3.880859-1.0019531-4.121094 6.558594v-6.558594zm-8.1445312 3.9238281c-0.0945921 0-0.1891851 0.036841-0.2617188 0.109375l-1.5722656 1.5722659c-0.1450675 0.145067-0.1101437 0.352307 0 0.52539l1.6269531 2.554688c-0.1205423 0.250221-0.2249229 0.50791-0.3125 0.771484-0.00385 0.01134-0.0098899 0.021843-0.0136719 0.033203l-2.9511718 0.65625c-0.2002703 0.04451-0.3710938 0.165939-0.3710938 0.371094v1.964844c0 0.205155 0.1708235 0.32659 0.3710938 0.371094l2.9511718 0.65625c0.00646 0.0194 0.0167875 0.03731 0.0234375 0.05664 0.085245 0.256042 0.186352 0.506527 0.3027344 0.75l-1.6269531 2.552735c-0.1101437 0.173083-0.1450675 0.380323 0 0.52539l1.5722656 1.572266c0.1450675 0.145067 0.3783676 0.145067 0.523438 0l2.550781-1.625c0.250759 0.121949 0.509105 0.227636 0.773437 0.316406 0.01735 0.0061 0.033392 0.015545 0.050782 0.021485l0.654296 2.949218c0 0.205156 0.16594 0.371094 0.371094 0.371094h2.220703c0.205155 0 0.32659-0.170824 0.371094-0.371094l0.654297-3.039062c0.300604-0.113013 0.592418-0.248149 0.873047-0.404297l2.490234 1.78125c0.145068 0.145067 0.378371 0.145067 0.523438 0l1.572265-1.572266c0.145068-0.145067 0.110144-0.352307 0-0.52539l-0.947265-1.4375-0.09961 0.037109c-0.225251 0.08461-0.478825-0.0032-0.603515-0.208984l-0.996094-1.640625c-0.829936 1.985195-2.789933 3.380859-5.076172 3.380859-3.037566 0-5.5-2.462434-5.5-5.5 0-2.33092 1.452799-4.31835 3.5-5.119141v-1.095703l-0.007812 0.035156c-0.022081 0.007501-0.042454 0.019574-0.064454 0.027344-0.260825 0.08662-0.515895 0.189688-0.763672 0.308594l-2.546874-1.6230469c-0.072536-0.0725335-0.1671269-0.109375-0.2617192-0.109375z" style="fill:#ffffff"/>
 <path d="M 3.4003906 2 C 2.6247906 2 2 2.6247906 2 3.4003906 L 2 4.4003906 C 2 3.6247906 2.6247906 3 3.4003906 3 L 28.599609 3 C 29.375209 3 30 3.6247906 30 4.4003906 L 30 3.4003906 C 30 2.6247906 29.375209 2 28.599609 2 L 3.4003906 2 z" style="fill:#ffffff;opacity:.2"/>
 <circle cx="24" cy="24" r="8" fill-rule="evenodd" opacity=".2"/>
 <circle cx="24" cy="23" r="8" fill="#cd4242" fill-rule="evenodd"/>
 <path d="m22.964 19-0.0882 1.0536a3.1429 3.1429 0 0 0 -0.91852 0.53126l-0.95759-0.4509-1 1.7321 0.86941 0.6038a3.1429 3.1429 0 0 0 -0.048 0.53013 3.1429 3.1429 0 0 0 0.0457 0.53237l-0.867 0.602 1 1.7321 0.95536-0.44978a3.1429 3.1429 0 0 0 0.92075 0.5279l0.0882 1.0558h2l0.0882-1.0536a3.1429 3.1429 0 0 0 0.91854 -0.53126l0.95758 0.4509 1-1.7321-0.86942-0.6038a3.1429 3.1429 0 0 0 0.048 -0.53013 3.1429 3.1429 0 0 0 -0.0457 -0.53237l0.86719-0.60156-1-1.7321-0.95536 0.44978a3.1429 3.1429 0 0 0 -0.92076 -0.5279l-0.088-1.056h-2zm1 2.8572a1.1429 1.1429 0 0 1 1.143 1.143 1.1429 1.1429 0 0 1 -1.1429 1.1428 1.1429 1.1429 0 0 1 -1.1429 -1.1428 1.1429 1.1429 0 0 1 1.1428 -1.1428z" fill="#fff"/>
</svg>
