<svg width="32" height="32" version="1" xmlns="http://www.w3.org/2000/svg">
 <path d="m3.4 3h25.2c0.7756 0 1.4 0.6244 1.4 1.4v20.507445l-0.955734 3.082897c-0.229663 0.740818-0.729378 1.315159-1.450302 1.601207l-3.549698 1.408451h-20.644266c-0.7756 0-1.4-0.6244-1.4-1.4v-25.2c0-0.7756 0.6244-1.4 1.4-1.4z" style="opacity:.2"/>
 <path d="m3.4 2h25.2c0.7756 0 1.4 0.6244 1.4 1.4v21.507445l-1.458753 3.189537c-0.322587 0.705332-0.401379 0.789309-1.14849 0.997585l-3.247888 0.905433h-20.744869c-0.7756 0-1.4-0.6244-1.4-1.4v-25.2c0-0.7756 0.6244-1.4 1.4-1.4z" style="fill:#cccccc"/>
 <circle cx="10" cy="16" r="5" style="fill:#2b8ede"/>
 <circle cx="22" cy="16" r="5" style="fill:#d74c94"/>
 <path d="M 3.4003906,2 C 2.6247906,2 2,2.6247906 2,3.4003906 l 0,1 C 2,3.6247906 2.6247906,3 3.4003906,3 L 28.599609,3 C 29.375209,3 30,3.6247906 30,4.4003906 l 0,-1 C 30,2.6247906 29.375209,2 28.599609,2 L 3.4003906,2 Z" style="fill:#ffffff;opacity:.2"/>
 <circle cx="24" cy="25" r="7" style="opacity:.2"/>
 <circle cx="24" cy="24" r="7" style="fill:#9a3cdb"/>
 <path d="m23.983 20-2.9828 4h2v4h2v-4h2z" style="fill:#ffffff"/>
</svg>
