<svg width="32" height="32" version="1.0" xmlns="http://www.w3.org/2000/svg">
 <text x="877.22626" y="-5.1873989" font-family="'Bitstream Vera Sans'" font-size="12.666px" opacity=".8" xml:space="preserve"><tspan x="877.22626" y="-5.1873989"/></text>
 <text x="901.18719" y="-45.929108" font-family="'Bitstream Vera Sans'" font-size="12.666px" opacity=".8" xml:space="preserve"><tspan x="901.18719" y="-45.929108"/></text>
 <text x="-569.37115" y="-76.007248" font-family="'Bitstream Vera Sans'" font-size="12.666px" opacity=".8" xml:space="preserve"><tspan x="-569.37115" y="-76.007248"/></text>
 <text x="-2393.0571" y="669.5462" font-family="'Bitstream Vera Sans'" font-size="12.666px" opacity=".8" xml:space="preserve"><tspan x="-2393.0571" y="669.5462"/></text>
 <text x="-454.88007" y="-461.32822" font-family="'Bitstream Vera Sans'" font-size="12.666px" opacity=".8" xml:space="preserve"><tspan x="-454.88007" y="-461.32822"/></text>
 <text x="352.72208" y="-874.79834" font-family="'Bitstream Vera Sans'" font-size="12.666px" opacity=".8" xml:space="preserve"><tspan x="352.72208" y="-874.79834"/></text>
 <text x="376.68301" y="-915.54004" font-family="'Bitstream Vera Sans'" font-size="12.666px" opacity=".8" xml:space="preserve"><tspan x="376.68301" y="-915.54004"/></text>
 <text x="-1114.7802" y="-922.74994" font-family="'Bitstream Vera Sans'" font-size="12.666px" opacity=".8" xml:space="preserve"><tspan x="-1114.7802" y="-922.74994"/></text>
 <text x="345.7626" y="-1195.9841" font-family="'Bitstream Vera Sans'" font-size="12.666px" opacity=".8" xml:space="preserve"><tspan x="345.7626" y="-1195.9841"/></text>
 <text x="1831.8861" y="-569.29272" font-family="'Bitstream Vera Sans'" font-size="12.666px" opacity=".8" xml:space="preserve"><tspan x="1831.8861" y="-569.29272"/></text>
 <text x="1855.8469" y="-610.03448" font-family="'Bitstream Vera Sans'" font-size="12.666px" opacity=".8" xml:space="preserve"><tspan x="1855.8469" y="-610.03448"/></text>
 <text x="364.38376" y="-617.24438" font-family="'Bitstream Vera Sans'" font-size="12.666px" opacity=".8" xml:space="preserve"><tspan x="364.38376" y="-617.24438"/></text>
 <text x="1824.9266" y="-890.47839" font-family="'Bitstream Vera Sans'" font-size="12.666px" opacity=".8" xml:space="preserve"><tspan x="1824.9266" y="-890.47839"/></text>
 <text x="-573.43256" y="-665.33569" font-family="'Bitstream Vera Sans'" font-size="12.666px" opacity=".8" xml:space="preserve"><tspan x="-573.43256" y="-665.33569"/></text>
 <text x="-2397.1182" y="80.217857" font-family="'Bitstream Vera Sans'" font-size="12.666px" opacity=".8" xml:space="preserve"><tspan x="-2397.1182" y="80.217857"/></text>
 <text x="-682.36279" y="173.09" font-family="'Bitstream Vera Sans'" font-size="12.666px" opacity=".8" xml:space="preserve"><tspan x="-682.36279" y="173.09"/></text>
 <text x="426.66153" y="-6.0921478" font-family="'Bitstream Vera Sans'" font-size="12.666px" opacity=".8" xml:space="preserve"><tspan x="426.66153" y="-6.0921478"/></text>
 <text x="450.62247" y="-46.833855" font-family="'Bitstream Vera Sans'" font-size="12.666px" opacity=".8" xml:space="preserve"><tspan x="450.62247" y="-46.833855"/></text>
 <text x="-1040.8407" y="-54.043827" font-family="'Bitstream Vera Sans'" font-size="12.666px" opacity=".8" xml:space="preserve"><tspan x="-1040.8407" y="-54.043827"/></text>
 <text x="419.70206" y="-327.27789" font-family="'Bitstream Vera Sans'" font-size="12.666px" opacity=".8" xml:space="preserve"><tspan x="419.70206" y="-327.27789"/></text>
 <text x="-608.03253" y="-56.758072" font-family="'Bitstream Vera Sans'" font-size="12.666px" opacity=".8" xml:space="preserve"><tspan x="-608.03253" y="-56.758072"/></text>
 <text x="-2431.7185" y="688.79541" font-family="'Bitstream Vera Sans'" font-size="12.666px" opacity=".8" xml:space="preserve"><tspan x="-2431.7185" y="688.79541"/></text>
 <text x="-456.93948" y="-918.28857" font-family="'Bitstream Vera Sans'" font-size="12.666px" opacity=".8" xml:space="preserve"><tspan x="-456.93948" y="-918.28857"/></text>
 <text x="350.66266" y="-1331.7588" font-family="'Bitstream Vera Sans'" font-size="12.666px" opacity=".8" xml:space="preserve"><tspan x="350.66266" y="-1331.7588"/></text>
 <text x="374.62357" y="-1372.5005" font-family="'Bitstream Vera Sans'" font-size="12.666px" opacity=".8" xml:space="preserve"><tspan x="374.62357" y="-1372.5005"/></text>
 <text x="-1116.8396" y="-1379.7104" font-family="'Bitstream Vera Sans'" font-size="12.666px" opacity=".8" xml:space="preserve"><tspan x="-1116.8396" y="-1379.7104"/></text>
 <text x="343.70316" y="-1652.9446" font-family="'Bitstream Vera Sans'" font-size="12.666px" opacity=".8" xml:space="preserve"><tspan x="343.70316" y="-1652.9446"/></text>
 <text x="1829.8265" y="-1026.2533" font-family="'Bitstream Vera Sans'" font-size="12.666px" opacity=".8" xml:space="preserve"><tspan x="1829.8265" y="-1026.2533"/></text>
 <text x="1853.7874" y="-1066.9949" font-family="'Bitstream Vera Sans'" font-size="12.666px" opacity=".8" xml:space="preserve"><tspan x="1853.7874" y="-1066.9949"/></text>
 <text x="362.32431" y="-1074.2048" font-family="'Bitstream Vera Sans'" font-size="12.666px" opacity=".8" xml:space="preserve"><tspan x="362.32431" y="-1074.2048"/></text>
 <text x="1822.8671" y="-1347.439" font-family="'Bitstream Vera Sans'" font-size="12.666px" opacity=".8" xml:space="preserve"><tspan x="1822.8671" y="-1347.439"/></text>
 <text x="-575.492" y="-1122.2961" font-family="'Bitstream Vera Sans'" font-size="12.666px" opacity=".8" xml:space="preserve"><tspan x="-575.492" y="-1122.2961"/></text>
 <text x="-2399.1777" y="-376.74261" font-family="'Bitstream Vera Sans'" font-size="12.666px" opacity=".8" xml:space="preserve"><tspan x="-2399.1777" y="-376.74261"/></text>
 <text x="-684.42224" y="-283.87045" font-family="'Bitstream Vera Sans'" font-size="12.666px" opacity=".8" xml:space="preserve"><tspan x="-684.42224" y="-283.87045"/></text>
 <text x="155.5923" y="-42.956276" font-family="'Bitstream Vera Sans'" font-size="12.666px" opacity=".8" xml:space="preserve"><tspan x="155.5923" y="-42.956276"/></text>
 <text x="179.55324" y="-83.697998" font-family="'Bitstream Vera Sans'" font-size="12.666px" opacity=".8" xml:space="preserve"><tspan x="179.55324" y="-83.697998"/></text>
 <text x="-1090.2634" y="-277.72662" font-family="'Bitstream Vera Sans'" font-size="12.666px" opacity=".8" xml:space="preserve"><tspan x="-1090.2634" y="-277.72662"/></text>
 <text x="-282.66141" y="-691.19678" font-family="'Bitstream Vera Sans'" font-size="12.666px" opacity=".8" xml:space="preserve"><tspan x="-282.66141" y="-691.19678"/></text>
 <text x="-258.70047" y="-731.93848" font-family="'Bitstream Vera Sans'" font-size="12.666px" opacity=".8" xml:space="preserve"><tspan x="-258.70047" y="-731.93848"/></text>
 <text x="-1750.1636" y="-739.14838" font-family="'Bitstream Vera Sans'" font-size="12.666px" opacity=".8" xml:space="preserve"><tspan x="-1750.1636" y="-739.14838"/></text>
 <text x="-289.62085" y="-1012.3825" font-family="'Bitstream Vera Sans'" font-size="12.666px" opacity=".8" xml:space="preserve"><tspan x="-289.62085" y="-1012.3825"/></text>
 <text x="1196.5026" y="-385.69113" font-family="'Bitstream Vera Sans'" font-size="12.666px" opacity=".8" xml:space="preserve"><tspan x="1196.5026" y="-385.69113"/></text>
 <text x="1220.4634" y="-426.43286" font-family="'Bitstream Vera Sans'" font-size="12.666px" opacity=".8" xml:space="preserve"><tspan x="1220.4634" y="-426.43286"/></text>
 <text x="-270.99973" y="-433.64282" font-family="'Bitstream Vera Sans'" font-size="12.666px" opacity=".8" xml:space="preserve"><tspan x="-270.99973" y="-433.64282"/></text>
 <text x="1189.5431" y="-706.87689" font-family="'Bitstream Vera Sans'" font-size="12.666px" opacity=".8" xml:space="preserve"><tspan x="1189.5431" y="-706.87689"/></text>
 <text x="-1208.816" y="-481.7341" font-family="'Bitstream Vera Sans'" font-size="12.666px" opacity=".8" xml:space="preserve"><tspan x="-1208.816" y="-481.7341"/></text>
 <text x="-3032.5017" y="263.81946" font-family="'Bitstream Vera Sans'" font-size="12.666px" opacity=".8" xml:space="preserve"><tspan x="-3032.5017" y="263.81946"/></text>
 <g transform="matrix(.90475 0 0 .90475 -716.75 -692.29)">
  <text x="-664.2738" y="1159.4154" font-family="'Bitstream Vera Sans'" font-size="14px" opacity=".8" xml:space="preserve"><tspan x="-664.2738" y="1159.4154"/></text>
 </g>
 <text x="877.22626" y="2.0505886" font-family="'Bitstream Vera Sans'" font-size="12.666px" opacity=".8" xml:space="preserve"><tspan x="877.22626" y="2.0505886"/></text>
 <text x="901.18719" y="-38.691116" font-family="'Bitstream Vera Sans'" font-size="12.666px" opacity=".8" xml:space="preserve"><tspan x="901.18719" y="-38.691116"/></text>
 <text x="-569.37115" y="-68.769257" font-family="'Bitstream Vera Sans'" font-size="12.666px" opacity=".8" xml:space="preserve"><tspan x="-569.37115" y="-68.769257"/></text>
 <text x="-2393.0571" y="676.78418" font-family="'Bitstream Vera Sans'" font-size="12.666px" opacity=".8" xml:space="preserve"><tspan x="-2393.0571" y="676.78418"/></text>
 <text x="-454.88007" y="-454.09021" font-family="'Bitstream Vera Sans'" font-size="12.666px" opacity=".8" xml:space="preserve"><tspan x="-454.88007" y="-454.09021"/></text>
 <text x="352.72208" y="-867.5603" font-family="'Bitstream Vera Sans'" font-size="12.666px" opacity=".8" xml:space="preserve"><tspan x="352.72208" y="-867.5603"/></text>
 <text x="376.68301" y="-908.30206" font-family="'Bitstream Vera Sans'" font-size="12.666px" opacity=".8" xml:space="preserve"><tspan x="376.68301" y="-908.30206"/></text>
 <text x="-1114.7802" y="-915.51196" font-family="'Bitstream Vera Sans'" font-size="12.666px" opacity=".8" xml:space="preserve"><tspan x="-1114.7802" y="-915.51196"/></text>
 <text x="345.7626" y="-1188.7461" font-family="'Bitstream Vera Sans'" font-size="12.666px" opacity=".8" xml:space="preserve"><tspan x="345.7626" y="-1188.7461"/></text>
 <text x="1831.8861" y="-562.05475" font-family="'Bitstream Vera Sans'" font-size="12.666px" opacity=".8" xml:space="preserve"><tspan x="1831.8861" y="-562.05475"/></text>
 <text x="1855.8469" y="-602.79651" font-family="'Bitstream Vera Sans'" font-size="12.666px" opacity=".8" xml:space="preserve"><tspan x="1855.8469" y="-602.79651"/></text>
 <text x="364.38376" y="-610.00641" font-family="'Bitstream Vera Sans'" font-size="12.666px" opacity=".8" xml:space="preserve"><tspan x="364.38376" y="-610.00641"/></text>
 <text x="1824.9266" y="-883.24036" font-family="'Bitstream Vera Sans'" font-size="12.666px" opacity=".8" xml:space="preserve"><tspan x="1824.9266" y="-883.24036"/></text>
 <text x="-573.43256" y="-658.09772" font-family="'Bitstream Vera Sans'" font-size="12.666px" opacity=".8" xml:space="preserve"><tspan x="-573.43256" y="-658.09772"/></text>
 <text x="-2397.1182" y="87.455849" font-family="'Bitstream Vera Sans'" font-size="12.666px" opacity=".8" xml:space="preserve"><tspan x="-2397.1182" y="87.455849"/></text>
 <text x="-682.36279" y="180.32799" font-family="'Bitstream Vera Sans'" font-size="12.666px" opacity=".8" xml:space="preserve"><tspan x="-682.36279" y="180.32799"/></text>
 <text x="426.66153" y="1.1458397" font-family="'Bitstream Vera Sans'" font-size="12.666px" opacity=".8" xml:space="preserve"><tspan x="426.66153" y="1.1458397"/></text>
 <text x="450.62247" y="-39.595863" font-family="'Bitstream Vera Sans'" font-size="12.666px" opacity=".8" xml:space="preserve"><tspan x="450.62247" y="-39.595863"/></text>
 <text x="-1040.8407" y="-46.805836" font-family="'Bitstream Vera Sans'" font-size="12.666px" opacity=".8" xml:space="preserve"><tspan x="-1040.8407" y="-46.805836"/></text>
 <text x="419.70206" y="-320.03989" font-family="'Bitstream Vera Sans'" font-size="12.666px" opacity=".8" xml:space="preserve"><tspan x="419.70206" y="-320.03989"/></text>
 <text x="-608.03253" y="-49.520081" font-family="'Bitstream Vera Sans'" font-size="12.666px" opacity=".8" xml:space="preserve"><tspan x="-608.03253" y="-49.520081"/></text>
 <text x="-2431.7185" y="696.03345" font-family="'Bitstream Vera Sans'" font-size="12.666px" opacity=".8" xml:space="preserve"><tspan x="-2431.7185" y="696.03345"/></text>
 <text x="-456.93948" y="-911.0506" font-family="'Bitstream Vera Sans'" font-size="12.666px" opacity=".8" xml:space="preserve"><tspan x="-456.93948" y="-911.0506"/></text>
 <text x="350.66266" y="-1324.5208" font-family="'Bitstream Vera Sans'" font-size="12.666px" opacity=".8" xml:space="preserve"><tspan x="350.66266" y="-1324.5208"/></text>
 <text x="374.62357" y="-1365.2626" font-family="'Bitstream Vera Sans'" font-size="12.666px" opacity=".8" xml:space="preserve"><tspan x="374.62357" y="-1365.2626"/></text>
 <text x="-1116.8396" y="-1372.4724" font-family="'Bitstream Vera Sans'" font-size="12.666px" opacity=".8" xml:space="preserve"><tspan x="-1116.8396" y="-1372.4724"/></text>
 <text x="343.70316" y="-1645.7065" font-family="'Bitstream Vera Sans'" font-size="12.666px" opacity=".8" xml:space="preserve"><tspan x="343.70316" y="-1645.7065"/></text>
 <text x="1829.8265" y="-1019.0153" font-family="'Bitstream Vera Sans'" font-size="12.666px" opacity=".8" xml:space="preserve"><tspan x="1829.8265" y="-1019.0153"/></text>
 <text x="1853.7874" y="-1059.757" font-family="'Bitstream Vera Sans'" font-size="12.666px" opacity=".8" xml:space="preserve"><tspan x="1853.7874" y="-1059.757"/></text>
 <text x="362.32431" y="-1066.9668" font-family="'Bitstream Vera Sans'" font-size="12.666px" opacity=".8" xml:space="preserve"><tspan x="362.32431" y="-1066.9668"/></text>
 <text x="1822.8671" y="-1340.2009" font-family="'Bitstream Vera Sans'" font-size="12.666px" opacity=".8" xml:space="preserve"><tspan x="1822.8671" y="-1340.2009"/></text>
 <text x="-575.492" y="-1115.0581" font-family="'Bitstream Vera Sans'" font-size="12.666px" opacity=".8" xml:space="preserve"><tspan x="-575.492" y="-1115.0581"/></text>
 <text x="-2399.1777" y="-369.50461" font-family="'Bitstream Vera Sans'" font-size="12.666px" opacity=".8" xml:space="preserve"><tspan x="-2399.1777" y="-369.50461"/></text>
 <text x="-684.42224" y="-276.63245" font-family="'Bitstream Vera Sans'" font-size="12.666px" opacity=".8" xml:space="preserve"><tspan x="-684.42224" y="-276.63245"/></text>
 <text x="155.5923" y="-35.718292" font-family="'Bitstream Vera Sans'" font-size="12.666px" opacity=".8" xml:space="preserve"><tspan x="155.5923" y="-35.718292"/></text>
 <text x="179.55324" y="-76.460007" font-family="'Bitstream Vera Sans'" font-size="12.666px" opacity=".8" xml:space="preserve"><tspan x="179.55324" y="-76.460007"/></text>
 <text x="-1090.2634" y="-270.48859" font-family="'Bitstream Vera Sans'" font-size="12.666px" opacity=".8" xml:space="preserve"><tspan x="-1090.2634" y="-270.48859"/></text>
 <text x="-282.66141" y="-683.9588" font-family="'Bitstream Vera Sans'" font-size="12.666px" opacity=".8" xml:space="preserve"><tspan x="-282.66141" y="-683.9588"/></text>
 <text x="-258.70047" y="-724.7005" font-family="'Bitstream Vera Sans'" font-size="12.666px" opacity=".8" xml:space="preserve"><tspan x="-258.70047" y="-724.7005"/></text>
 <text x="-1750.1636" y="-731.91046" font-family="'Bitstream Vera Sans'" font-size="12.666px" opacity=".8" xml:space="preserve"><tspan x="-1750.1636" y="-731.91046"/></text>
 <text x="-289.62085" y="-1005.1445" font-family="'Bitstream Vera Sans'" font-size="12.666px" opacity=".8" xml:space="preserve"><tspan x="-289.62085" y="-1005.1445"/></text>
 <text x="1196.5026" y="-378.45316" font-family="'Bitstream Vera Sans'" font-size="12.666px" opacity=".8" xml:space="preserve"><tspan x="1196.5026" y="-378.45316"/></text>
 <text x="1220.4634" y="-419.19489" font-family="'Bitstream Vera Sans'" font-size="12.666px" opacity=".8" xml:space="preserve"><tspan x="1220.4634" y="-419.19489"/></text>
 <text x="-270.99973" y="-426.40482" font-family="'Bitstream Vera Sans'" font-size="12.666px" opacity=".8" xml:space="preserve"><tspan x="-270.99973" y="-426.40482"/></text>
 <text x="1189.5431" y="-699.63892" font-family="'Bitstream Vera Sans'" font-size="12.666px" opacity=".8" xml:space="preserve"><tspan x="1189.5431" y="-699.63892"/></text>
 <text x="-1208.816" y="-474.49609" font-family="'Bitstream Vera Sans'" font-size="12.666px" opacity=".8" xml:space="preserve"><tspan x="-1208.816" y="-474.49609"/></text>
 <text x="-3032.5017" y="271.05743" font-family="'Bitstream Vera Sans'" font-size="12.666px" opacity=".8" xml:space="preserve"><tspan x="-3032.5017" y="271.05743"/></text>
 <g transform="matrix(.90475 0 0 .90475 -716.75 -685.05)">
  <text x="-664.2738" y="1159.4154" font-family="'Bitstream Vera Sans'" font-size="14px" opacity=".8" xml:space="preserve"><tspan x="-664.2738" y="1159.4154"/></text>
 </g>
 <text x="435.90427" y="-377.22546" font-family="'Droid Sans'" font-size="12.666px" xml:space="preserve"><tspan x="435.90427" y="-377.22546"/><tspan x="435.90427" y="-361.3924"/></text>
 <text x="901.0882" y="-859.27002" font-family="'Bitstream Vera Sans'" font-size="12.666px" opacity=".8" xml:space="preserve"><tspan x="901.0882" y="-859.27002"/></text>
 <text x="-922.59778" y="-113.71655" font-family="'Bitstream Vera Sans'" font-size="12.666px" opacity=".8" xml:space="preserve"><tspan x="-922.59778" y="-113.71655"/></text>
 <text x="1628.1677" y="-1144.2659" font-family="'Bitstream Vera Sans'" font-size="12.666px" opacity=".8" xml:space="preserve"><tspan x="1628.1677" y="-1144.2659"/></text>
 <text x="1652.1285" y="-1185.0076" font-family="'Bitstream Vera Sans'" font-size="12.666px" opacity=".8" xml:space="preserve"><tspan x="1652.1285" y="-1185.0076"/></text>
 <text x="160.66542" y="-1192.2175" font-family="'Bitstream Vera Sans'" font-size="12.666px" opacity=".8" xml:space="preserve"><tspan x="160.66542" y="-1192.2175"/></text>
 <text x="1621.2083" y="-1465.4517" font-family="'Bitstream Vera Sans'" font-size="12.666px" opacity=".8" xml:space="preserve"><tspan x="1621.2083" y="-1465.4517"/></text>
 <text transform="rotate(30)" x="761.99878" y="17.564156" font-family="'Bitstream Vera Sans'" font-size="12.666px" opacity=".8" xml:space="preserve"><tspan x="761.99878" y="17.564156"/></text>
 <text transform="rotate(30)" x="785.95972" y="-23.177551" font-family="'Bitstream Vera Sans'" font-size="12.666px" opacity=".8" xml:space="preserve"><tspan x="785.95972" y="-23.177551"/></text>
 <text transform="rotate(30)" x="-684.59863" y="-53.255692" font-family="'Bitstream Vera Sans'" font-size="12.666px" opacity=".8" xml:space="preserve"><tspan x="-684.59863" y="-53.255692"/></text>
 <text transform="rotate(30)" x="-2508.2847" y="692.29779" font-family="'Bitstream Vera Sans'" font-size="12.666px" opacity=".8" xml:space="preserve"><tspan x="-2508.2847" y="692.29779"/></text>
 <text transform="rotate(30)" x="-570.10754" y="-438.57666" font-family="'Bitstream Vera Sans'" font-size="12.666px" opacity=".8" xml:space="preserve"><tspan x="-570.10754" y="-438.57666"/></text>
 <text transform="rotate(30)" x="237.49458" y="-852.04675" font-family="'Bitstream Vera Sans'" font-size="12.666px" opacity=".8" xml:space="preserve"><tspan x="237.49458" y="-852.04675"/></text>
 <text transform="rotate(30)" x="261.45554" y="-892.78845" font-family="'Bitstream Vera Sans'" font-size="12.666px" opacity=".8" xml:space="preserve"><tspan x="261.45554" y="-892.78845"/></text>
 <text transform="rotate(30)" x="-1230.0077" y="-899.99835" font-family="'Bitstream Vera Sans'" font-size="12.666px" opacity=".8" xml:space="preserve"><tspan x="-1230.0077" y="-899.99835"/></text>
 <text transform="rotate(30)" x="230.53511" y="-1173.2327" font-family="'Bitstream Vera Sans'" font-size="12.666px" opacity=".8" xml:space="preserve"><tspan x="230.53511" y="-1173.2327"/></text>
 <text transform="rotate(30)" x="1716.6586" y="-546.54114" font-family="'Bitstream Vera Sans'" font-size="12.666px" opacity=".8" xml:space="preserve"><tspan x="1716.6586" y="-546.54114"/></text>
 <text transform="rotate(30)" x="1740.6194" y="-587.2829" font-family="'Bitstream Vera Sans'" font-size="12.666px" opacity=".8" xml:space="preserve"><tspan x="1740.6194" y="-587.2829"/></text>
 <text transform="rotate(30)" x="249.15628" y="-594.4928" font-family="'Bitstream Vera Sans'" font-size="12.666px" opacity=".8" xml:space="preserve"><tspan x="249.15628" y="-594.4928"/></text>
 <text transform="rotate(30)" x="1709.6991" y="-867.72681" font-family="'Bitstream Vera Sans'" font-size="12.666px" opacity=".8" xml:space="preserve"><tspan x="1709.6991" y="-867.72681"/></text>
 <text transform="rotate(30)" x="-688.66003" y="-642.58411" font-family="'Bitstream Vera Sans'" font-size="12.666px" opacity=".8" xml:space="preserve"><tspan x="-688.66003" y="-642.58411"/></text>
 <text transform="rotate(30)" x="-2512.3457" y="102.96941" font-family="'Bitstream Vera Sans'" font-size="12.666px" opacity=".8" xml:space="preserve"><tspan x="-2512.3457" y="102.96941"/></text>
 <text transform="rotate(30)" x="-797.59027" y="195.84155" font-family="'Bitstream Vera Sans'" font-size="12.666px" opacity=".8" xml:space="preserve"><tspan x="-797.59027" y="195.84155"/></text>
 <text transform="rotate(30)" x="311.43405" y="16.659407" font-family="'Bitstream Vera Sans'" font-size="12.666px" opacity=".8" xml:space="preserve"><tspan x="311.43405" y="16.659407"/></text>
 <text transform="rotate(30)" x="335.39499" y="-24.0823" font-family="'Bitstream Vera Sans'" font-size="12.666px" opacity=".8" xml:space="preserve"><tspan x="335.39499" y="-24.0823"/></text>
 <text transform="rotate(30)" x="-1156.0682" y="-31.292273" font-family="'Bitstream Vera Sans'" font-size="12.666px" opacity=".8" xml:space="preserve"><tspan x="-1156.0682" y="-31.292273"/></text>
 <text transform="rotate(30)" x="304.47458" y="-304.52634" font-family="'Bitstream Vera Sans'" font-size="12.666px" opacity=".8" xml:space="preserve"><tspan x="304.47458" y="-304.52634"/></text>
 <text transform="rotate(30)" x="-723.26001" y="-34.006516" font-family="'Bitstream Vera Sans'" font-size="12.666px" opacity=".8" xml:space="preserve"><tspan x="-723.26001" y="-34.006516"/></text>
 <text transform="rotate(30)" x="-2546.946" y="711.547" font-family="'Bitstream Vera Sans'" font-size="12.666px" opacity=".8" xml:space="preserve"><tspan x="-2546.946" y="711.547"/></text>
 <text transform="rotate(30)" x="-572.16699" y="-895.53699" font-family="'Bitstream Vera Sans'" font-size="12.666px" opacity=".8" xml:space="preserve"><tspan x="-572.16699" y="-895.53699"/></text>
 <text transform="rotate(30)" x="235.43517" y="-1309.0073" font-family="'Bitstream Vera Sans'" font-size="12.666px" opacity=".8" xml:space="preserve"><tspan x="235.43517" y="-1309.0073"/></text>
 <text transform="rotate(30)" x="259.39609" y="-1349.749" font-family="'Bitstream Vera Sans'" font-size="12.666px" opacity=".8" xml:space="preserve"><tspan x="259.39609" y="-1349.749"/></text>
 <text transform="rotate(30)" x="-1232.0671" y="-1356.959" font-family="'Bitstream Vera Sans'" font-size="12.666px" opacity=".8" xml:space="preserve"><tspan x="-1232.0671" y="-1356.959"/></text>
 <text transform="rotate(30)" x="228.47566" y="-1630.1931" font-family="'Bitstream Vera Sans'" font-size="12.666px" opacity=".8" xml:space="preserve"><tspan x="228.47566" y="-1630.1931"/></text>
 <text transform="rotate(30)" x="1714.599" y="-1003.5017" font-family="'Bitstream Vera Sans'" font-size="12.666px" opacity=".8" xml:space="preserve"><tspan x="1714.599" y="-1003.5017"/></text>
 <text transform="rotate(30)" x="1738.5598" y="-1044.2434" font-family="'Bitstream Vera Sans'" font-size="12.666px" opacity=".8" xml:space="preserve"><tspan x="1738.5598" y="-1044.2434"/></text>
 <text transform="rotate(30)" x="247.09682" y="-1051.4534" font-family="'Bitstream Vera Sans'" font-size="12.666px" opacity=".8" xml:space="preserve"><tspan x="247.09682" y="-1051.4534"/></text>
 <text transform="rotate(30)" x="1707.6395" y="-1324.6875" font-family="'Bitstream Vera Sans'" font-size="12.666px" opacity=".8" xml:space="preserve"><tspan x="1707.6395" y="-1324.6875"/></text>
 <text transform="rotate(30)" x="-690.71948" y="-1099.5447" font-family="'Bitstream Vera Sans'" font-size="12.666px" opacity=".8" xml:space="preserve"><tspan x="-690.71948" y="-1099.5447"/></text>
 <text transform="rotate(30)" x="-2514.4053" y="-353.99106" font-family="'Bitstream Vera Sans'" font-size="12.666px" opacity=".8" xml:space="preserve"><tspan x="-2514.4053" y="-353.99106"/></text>
 <text transform="rotate(30)" x="-799.64972" y="-261.1189" font-family="'Bitstream Vera Sans'" font-size="12.666px" opacity=".8" xml:space="preserve"><tspan x="-799.64972" y="-261.1189"/></text>
 <text transform="rotate(30)" x="40.364811" y="-20.204721" font-family="'Bitstream Vera Sans'" font-size="12.666px" opacity=".8" xml:space="preserve"><tspan x="40.364811" y="-20.204721"/></text>
 <text transform="rotate(30)" x="64.325752" y="-60.946442" font-family="'Bitstream Vera Sans'" font-size="12.666px" opacity=".8" xml:space="preserve"><tspan x="64.325752" y="-60.946442"/></text>
 <text transform="rotate(30)" x="-1205.491" y="-254.97507" font-family="'Bitstream Vera Sans'" font-size="12.666px" opacity=".8" xml:space="preserve"><tspan x="-1205.491" y="-254.97507"/></text>
 <text transform="rotate(30)" x="-397.88889" y="-668.44519" font-family="'Bitstream Vera Sans'" font-size="12.666px" opacity=".8" xml:space="preserve"><tspan x="-397.88889" y="-668.44519"/></text>
 <text transform="rotate(30)" x="-373.92795" y="-709.18689" font-family="'Bitstream Vera Sans'" font-size="12.666px" opacity=".8" xml:space="preserve"><tspan x="-373.92795" y="-709.18689"/></text>
 <text transform="rotate(30)" x="-1865.3911" y="-716.39679" font-family="'Bitstream Vera Sans'" font-size="12.666px" opacity=".8" xml:space="preserve"><tspan x="-1865.3911" y="-716.39679"/></text>
 <text transform="rotate(30)" x="-404.84833" y="-989.63092" font-family="'Bitstream Vera Sans'" font-size="12.666px" opacity=".8" xml:space="preserve"><tspan x="-404.84833" y="-989.63092"/></text>
 <text transform="rotate(30)" x="1081.275" y="-362.93958" font-family="'Bitstream Vera Sans'" font-size="12.666px" opacity=".8" xml:space="preserve"><tspan x="1081.275" y="-362.93958"/></text>
 <text transform="rotate(30)" x="1105.2358" y="-403.6813" font-family="'Bitstream Vera Sans'" font-size="12.666px" opacity=".8" xml:space="preserve"><tspan x="1105.2358" y="-403.6813"/></text>
 <text transform="rotate(30)" x="-386.2272" y="-410.89127" font-family="'Bitstream Vera Sans'" font-size="12.666px" opacity=".8" xml:space="preserve"><tspan x="-386.2272" y="-410.89127"/></text>
 <text transform="rotate(30)" x="1074.3156" y="-684.12531" font-family="'Bitstream Vera Sans'" font-size="12.666px" opacity=".8" xml:space="preserve"><tspan x="1074.3156" y="-684.12531"/></text>
 <text transform="rotate(30)" x="-1324.0436" y="-458.98254" font-family="'Bitstream Vera Sans'" font-size="12.666px" opacity=".8" xml:space="preserve"><tspan x="-1324.0436" y="-458.98254"/></text>
 <text transform="rotate(30)" x="-3147.7292" y="286.57101" font-family="'Bitstream Vera Sans'" font-size="12.666px" opacity=".8" xml:space="preserve"><tspan x="-3147.7292" y="286.57101"/></text>
 <text transform="rotate(30)" x="-1432.9792" y="379.44263" font-family="'Bitstream Vera Sans'" font-size="12.667px" opacity=".8" xml:space="preserve"><tspan x="-1432.9792" y="379.44263"/></text>
 <text transform="rotate(30)" x="761.99878" y="24.802143" font-family="'Bitstream Vera Sans'" font-size="12.666px" opacity=".8" xml:space="preserve"><tspan x="761.99878" y="24.802143"/></text>
 <text transform="rotate(30)" x="785.95972" y="-15.939561" font-family="'Bitstream Vera Sans'" font-size="12.666px" opacity=".8" xml:space="preserve"><tspan x="785.95972" y="-15.939561"/></text>
 <text transform="rotate(30)" x="-684.59863" y="-46.017704" font-family="'Bitstream Vera Sans'" font-size="12.666px" opacity=".8" xml:space="preserve"><tspan x="-684.59863" y="-46.017704"/></text>
 <text transform="rotate(30)" x="-2508.2847" y="699.53577" font-family="'Bitstream Vera Sans'" font-size="12.666px" opacity=".8" xml:space="preserve"><tspan x="-2508.2847" y="699.53577"/></text>
 <text transform="rotate(30)" x="-570.10754" y="-431.33865" font-family="'Bitstream Vera Sans'" font-size="12.666px" opacity=".8" xml:space="preserve"><tspan x="-570.10754" y="-431.33865"/></text>
 <text transform="rotate(30)" x="237.49458" y="-844.80872" font-family="'Bitstream Vera Sans'" font-size="12.666px" opacity=".8" xml:space="preserve"><tspan x="237.49458" y="-844.80872"/></text>
 <text transform="rotate(30)" x="261.45554" y="-885.55048" font-family="'Bitstream Vera Sans'" font-size="12.666px" opacity=".8" xml:space="preserve"><tspan x="261.45554" y="-885.55048"/></text>
 <text transform="rotate(30)" x="-1230.0077" y="-892.76038" font-family="'Bitstream Vera Sans'" font-size="12.666px" opacity=".8" xml:space="preserve"><tspan x="-1230.0077" y="-892.76038"/></text>
 <text transform="rotate(30)" x="230.53511" y="-1165.9946" font-family="'Bitstream Vera Sans'" font-size="12.666px" opacity=".8" xml:space="preserve"><tspan x="230.53511" y="-1165.9946"/></text>
 <text transform="rotate(30)" x="1716.6586" y="-539.30316" font-family="'Bitstream Vera Sans'" font-size="12.666px" opacity=".8" xml:space="preserve"><tspan x="1716.6586" y="-539.30316"/></text>
 <text transform="rotate(30)" x="1740.6194" y="-580.04492" font-family="'Bitstream Vera Sans'" font-size="12.666px" opacity=".8" xml:space="preserve"><tspan x="1740.6194" y="-580.04492"/></text>
 <text transform="rotate(30)" x="249.15628" y="-587.25482" font-family="'Bitstream Vera Sans'" font-size="12.666px" opacity=".8" xml:space="preserve"><tspan x="249.15628" y="-587.25482"/></text>
 <text transform="rotate(30)" x="1709.6991" y="-860.48877" font-family="'Bitstream Vera Sans'" font-size="12.666px" opacity=".8" xml:space="preserve"><tspan x="1709.6991" y="-860.48877"/></text>
 <text transform="rotate(30)" x="-688.66003" y="-635.34613" font-family="'Bitstream Vera Sans'" font-size="12.666px" opacity=".8" xml:space="preserve"><tspan x="-688.66003" y="-635.34613"/></text>
 <text transform="rotate(30)" x="-2512.3457" y="110.20741" font-family="'Bitstream Vera Sans'" font-size="12.666px" opacity=".8" xml:space="preserve"><tspan x="-2512.3457" y="110.20741"/></text>
 <text transform="rotate(30)" x="-797.59027" y="203.07954" font-family="'Bitstream Vera Sans'" font-size="12.666px" opacity=".8" xml:space="preserve"><tspan x="-797.59027" y="203.07954"/></text>
 <text transform="rotate(30)" x="311.43405" y="23.897396" font-family="'Bitstream Vera Sans'" font-size="12.666px" opacity=".8" xml:space="preserve"><tspan x="311.43405" y="23.897396"/></text>
 <text transform="rotate(30)" x="335.39499" y="-16.844309" font-family="'Bitstream Vera Sans'" font-size="12.666px" opacity=".8" xml:space="preserve"><tspan x="335.39499" y="-16.844309"/></text>
 <text transform="rotate(30)" x="-1156.0682" y="-24.054281" font-family="'Bitstream Vera Sans'" font-size="12.666px" opacity=".8" xml:space="preserve"><tspan x="-1156.0682" y="-24.054281"/></text>
 <text transform="rotate(30)" x="304.47458" y="-297.28833" font-family="'Bitstream Vera Sans'" font-size="12.666px" opacity=".8" xml:space="preserve"><tspan x="304.47458" y="-297.28833"/></text>
 <text transform="rotate(30)" x="-723.26001" y="-26.768526" font-family="'Bitstream Vera Sans'" font-size="12.666px" opacity=".8" xml:space="preserve"><tspan x="-723.26001" y="-26.768526"/></text>
 <text transform="rotate(30)" x="-2546.946" y="718.78503" font-family="'Bitstream Vera Sans'" font-size="12.666px" opacity=".8" xml:space="preserve"><tspan x="-2546.946" y="718.78503"/></text>
 <text transform="rotate(30)" x="-572.16699" y="-888.29901" font-family="'Bitstream Vera Sans'" font-size="12.666px" opacity=".8" xml:space="preserve"><tspan x="-572.16699" y="-888.29901"/></text>
 <text transform="rotate(30)" x="235.43517" y="-1301.7693" font-family="'Bitstream Vera Sans'" font-size="12.666px" opacity=".8" xml:space="preserve"><tspan x="235.43517" y="-1301.7693"/></text>
 <text transform="rotate(30)" x="259.39609" y="-1342.5111" font-family="'Bitstream Vera Sans'" font-size="12.666px" opacity=".8" xml:space="preserve"><tspan x="259.39609" y="-1342.5111"/></text>
 <text transform="rotate(30)" x="-1232.0671" y="-1349.7209" font-family="'Bitstream Vera Sans'" font-size="12.666px" opacity=".8" xml:space="preserve"><tspan x="-1232.0671" y="-1349.7209"/></text>
 <text transform="rotate(30)" x="228.47566" y="-1622.9551" font-family="'Bitstream Vera Sans'" font-size="12.666px" opacity=".8" xml:space="preserve"><tspan x="228.47566" y="-1622.9551"/></text>
 <text transform="rotate(30)" x="1714.599" y="-996.26373" font-family="'Bitstream Vera Sans'" font-size="12.666px" opacity=".8" xml:space="preserve"><tspan x="1714.599" y="-996.26373"/></text>
 <text transform="rotate(30)" x="1738.5598" y="-1037.0054" font-family="'Bitstream Vera Sans'" font-size="12.666px" opacity=".8" xml:space="preserve"><tspan x="1738.5598" y="-1037.0054"/></text>
 <text transform="rotate(30)" x="247.09682" y="-1044.2153" font-family="'Bitstream Vera Sans'" font-size="12.666px" opacity=".8" xml:space="preserve"><tspan x="247.09682" y="-1044.2153"/></text>
 <text transform="rotate(30)" x="1707.6395" y="-1317.4495" font-family="'Bitstream Vera Sans'" font-size="12.666px" opacity=".8" xml:space="preserve"><tspan x="1707.6395" y="-1317.4495"/></text>
 <text transform="rotate(30)" x="-690.71948" y="-1092.3066" font-family="'Bitstream Vera Sans'" font-size="12.666px" opacity=".8" xml:space="preserve"><tspan x="-690.71948" y="-1092.3066"/></text>
 <text transform="rotate(30)" x="-2514.4053" y="-346.75305" font-family="'Bitstream Vera Sans'" font-size="12.666px" opacity=".8" xml:space="preserve"><tspan x="-2514.4053" y="-346.75305"/></text>
 <text transform="rotate(30)" x="-799.64972" y="-253.88089" font-family="'Bitstream Vera Sans'" font-size="12.666px" opacity=".8" xml:space="preserve"><tspan x="-799.64972" y="-253.88089"/></text>
 <text transform="rotate(30)" x="40.364811" y="-12.966735" font-family="'Bitstream Vera Sans'" font-size="12.666px" opacity=".8" xml:space="preserve"><tspan x="40.364811" y="-12.966735"/></text>
 <text transform="rotate(30)" x="64.325752" y="-53.708454" font-family="'Bitstream Vera Sans'" font-size="12.666px" opacity=".8" xml:space="preserve"><tspan x="64.325752" y="-53.708454"/></text>
 <text transform="rotate(30)" x="-1205.491" y="-247.73705" font-family="'Bitstream Vera Sans'" font-size="12.666px" opacity=".8" xml:space="preserve"><tspan x="-1205.491" y="-247.73705"/></text>
 <text transform="rotate(30)" x="-397.88889" y="-661.20721" font-family="'Bitstream Vera Sans'" font-size="12.666px" opacity=".8" xml:space="preserve"><tspan x="-397.88889" y="-661.20721"/></text>
 <text transform="rotate(30)" x="-373.92795" y="-701.94891" font-family="'Bitstream Vera Sans'" font-size="12.666px" opacity=".8" xml:space="preserve"><tspan x="-373.92795" y="-701.94891"/></text>
 <text transform="rotate(30)" x="-1865.3911" y="-709.15887" font-family="'Bitstream Vera Sans'" font-size="12.666px" opacity=".8" xml:space="preserve"><tspan x="-1865.3911" y="-709.15887"/></text>
 <text transform="rotate(30)" x="-404.84833" y="-982.39288" font-family="'Bitstream Vera Sans'" font-size="12.666px" opacity=".8" xml:space="preserve"><tspan x="-404.84833" y="-982.39288"/></text>
 <text transform="rotate(30)" x="1081.275" y="-355.7016" font-family="'Bitstream Vera Sans'" font-size="12.666px" opacity=".8" xml:space="preserve"><tspan x="1081.275" y="-355.7016"/></text>
 <text transform="rotate(30)" x="1105.2358" y="-396.44333" font-family="'Bitstream Vera Sans'" font-size="12.666px" opacity=".8" xml:space="preserve"><tspan x="1105.2358" y="-396.44333"/></text>
 <text transform="rotate(30)" x="-386.2272" y="-403.65326" font-family="'Bitstream Vera Sans'" font-size="12.666px" opacity=".8" xml:space="preserve"><tspan x="-386.2272" y="-403.65326"/></text>
 <text transform="rotate(30)" x="1074.3156" y="-676.88733" font-family="'Bitstream Vera Sans'" font-size="12.666px" opacity=".8" xml:space="preserve"><tspan x="1074.3156" y="-676.88733"/></text>
 <text transform="rotate(30)" x="-1324.0436" y="-451.74454" font-family="'Bitstream Vera Sans'" font-size="12.666px" opacity=".8" xml:space="preserve"><tspan x="-1324.0436" y="-451.74454"/></text>
 <text transform="rotate(30)" x="-3147.7292" y="293.80899" font-family="'Bitstream Vera Sans'" font-size="12.666px" opacity=".8" xml:space="preserve"><tspan x="-3147.7292" y="293.80899"/></text>
 <text transform="rotate(30)" x="-1432.9792" y="386.68265" font-family="'Bitstream Vera Sans'" font-size="12.667px" opacity=".8" xml:space="preserve"><tspan x="-1432.9792" y="386.68265"/></text>
 <text transform="rotate(30)" x="320.67679" y="-354.47391" font-family="'Droid Sans'" font-size="12.666px" xml:space="preserve"><tspan x="320.67679" y="-354.47391"/><tspan x="320.67679" y="-338.64084"/></text>
 <text transform="rotate(30)" x="785.86072" y="-836.51843" font-family="'Bitstream Vera Sans'" font-size="12.666px" opacity=".8" xml:space="preserve"><tspan x="785.86072" y="-836.51843"/></text>
 <text transform="rotate(30)" x="-1037.8253" y="-90.964996" font-family="'Bitstream Vera Sans'" font-size="12.666px" opacity=".8" xml:space="preserve"><tspan x="-1037.8253" y="-90.964996"/></text>
 <text transform="rotate(30)" x="1512.9402" y="-1121.5144" font-family="'Bitstream Vera Sans'" font-size="12.666px" opacity=".8" xml:space="preserve"><tspan x="1512.9402" y="-1121.5144"/></text>
 <text transform="rotate(30)" x="1536.901" y="-1162.2561" font-family="'Bitstream Vera Sans'" font-size="12.666px" opacity=".8" xml:space="preserve"><tspan x="1536.901" y="-1162.2561"/></text>
 <text transform="rotate(30)" x="45.437931" y="-1169.4661" font-family="'Bitstream Vera Sans'" font-size="12.666px" opacity=".8" xml:space="preserve"><tspan x="45.437931" y="-1169.4661"/></text>
 <text transform="rotate(30)" x="1505.9807" y="-1442.7002" font-family="'Bitstream Vera Sans'" font-size="12.666px" opacity=".8" xml:space="preserve"><tspan x="1505.9807" y="-1442.7002"/></text>
 <rect x="2" y="9" width="28" height="14" rx="4.2" ry="4.2" fill="#4d4d4d"/>
 <rect x="9" y="11" width="14" height="10" fill="#0093cd"/>
 <g transform="translate(.5 .2)" fill="none" stroke="#fff" stroke-width=".5">
  <path d="m9.85 18.8v-3.15h2.8v-2.8h-3.15"/>
  <path d="m17 12.85h-1.75v5.6h-1.75"/>
  <path d="m17.85 18.8v-3.15h2.8v-2.8h-3.15"/>
 </g>
 <g transform="translate(0,1)" opacity=".2">
  <path d="m5.4 13c-0.3324 0-0.6 0.2676-0.6 0.6v1.2l-1.2-1e-6c-0.3324 0-0.6 0.2676-0.6 0.6v1.2c0 0.3324 0.2676 0.6 0.6 0.6h1.2v1.2c0 0.332 0.2676 0.6 0.6 0.6h1.2c0.3324-2e-6 0.6-0.2676 0.6-0.6v-1.2h1.2c0.3324 0 0.6-0.2676 0.6-0.6v-1.2c0-0.332-0.2676-0.6-0.6-0.6h-1.2v-1.2c0-0.332-0.2676-0.6-0.6-0.6h-1.2z"/>
  <circle transform="rotate(90)" cx="14" cy="-26" r="1"/>
  <circle transform="rotate(90)" cx="18" cy="-26" r="1"/>
  <circle transform="scale(-1)" cx="-28" cy="-16" r="1"/>
  <circle transform="scale(-1)" cx="-24" cy="-16" r="1"/>
 </g>
 <g fill="#697e83">
  <path d="m5.4 13c-0.3324 0-0.6 0.2676-0.6 0.6v1.2l-1.2-1e-6c-0.3324 0-0.6 0.2676-0.6 0.6v1.2c0 0.3324 0.2676 0.6 0.6 0.6h1.2v1.2c0 0.332 0.2676 0.6 0.6 0.6h1.2c0.3324-2e-6 0.6-0.2676 0.6-0.6v-1.2h1.2c0.3324 0 0.6-0.2676 0.6-0.6v-1.2c0-0.332-0.2676-0.6-0.6-0.6h-1.2v-1.2c0-0.332-0.2676-0.6-0.6-0.6h-1.2z"/>
  <circle transform="rotate(90)" cx="14" cy="-26" r="1"/>
  <circle transform="rotate(90)" cx="18" cy="-26" r="1"/>
  <circle transform="scale(-1)" cx="-28" cy="-16" r="1"/>
  <circle transform="scale(-1)" cx="-24" cy="-16" r="1"/>
 </g>
 <path d="m2 18.801v1c0 2.327 1.8724 4.199 4.1992 4.199h19.602c2.327 0 4.199-1.872 4.199-4.199v-1c0 2.327-1.872 4.199-4.199 4.199h-19.602c-2.3266 0-4.199-1.872-4.199-4.199z" opacity=".2"/>
 <path d="m6.1992 9c-2.3268 0-4.1992 1.872-4.1992 4.199v1c0-2.327 1.8724-4.199 4.1992-4.199h19.602c2.327 0 4.199 1.872 4.199 4.199v-1c0-2.327-1.872-4.199-4.199-4.199h-19.602z" fill="#fff" opacity=".1"/>
</svg>
