<svg width="32" height="32" version="1" xmlns="http://www.w3.org/2000/svg">
 <rect transform="matrix(0,-1,-1,0,0,0)" x="-31" y="-30" width="28" height="28" rx="1.4" ry="1.4" style="opacity:.2"/>
 <rect transform="matrix(0,-1,-1,0,0,0)" x="-30" y="-30" width="28" height="28" rx="1.4" ry="1.4" style="fill:#3c6eb4"/>
 <path d="m19.507812 8.000124c-0.100023-0.00609-0.260178 0.057943-0.552734 0.1855469-0.347271 0.1514756-1.136108 0.2753906-1.753906 0.2753906-2.186353 0.044646-3.93601 0.7937085-5.353516 2.2050785-1.9240286 1.928684-2.5299823 4.354464-1.652344 6.607422 0.202591 0.52005 0.326048 1.049298 0.273438 1.175781-0.05259 0.126477-0.422565 0.476837-0.8203125 0.779297-0.8642072 0.657078-1.4618049 1.716632-1.6113281 2.855468-0.089815 0.684071-0.027838 1.010418 0.3535156 1.824219 0.8190025 1.747578 2.676585 2.496148 4.65625 1.876953 1.146276-0.358516 2.292731-1.632446 3.210937-3.564453 0.793027-1.668725 0.826618-1.709236 1.677735-2.009765 1.43489-0.506683 2.339574-1.065769 3.238281-2.003907 1.593278-1.663256 2.184306-3.817978 1.613281-5.876953-0.256589-0.925123-0.47278-1.244131-1.634765-2.4218749-0.736025-0.7460246-1.388445-1.5014051-1.451172-1.6777343-0.05288-0.1485542-0.093334-0.2244042-0.19336-0.2304688zm-3.867187 2c0.681144 0.0028 1.207836 0.208356 1.351563 0.617187 0.04712 0.134067-0.151514 0.76668-0.44336 1.404297-0.750512 1.639777-0.989845 2.540902-1.443359 5.433594-0.562458 3.587533-1.176917 5.136871-2.408203 6.06836-0.776215 0.587188-1.729123 0.636937-2.238282 0.11914-0.440501-0.447975-0.568186-1.009382-0.363281-1.597656 0.16231-0.465997 0.318924-0.540626 1.501953-0.714844 0.823061-0.121185 1.402344-0.691261 1.402344-1.4375 0-0.46958-0.188837-0.739851-0.828125-1.416016-0.98906-1.046138-1.421227-2.050741-1.425781-3.318359-0.0072-1.982662 0.963302-3.668566 2.621094-4.554687 0.757936-0.405123 1.592292-0.6063113 2.273437-0.603516zm2.533203 1.001953c0.204095-0.03048 0.463436 0.208441 0.830078 0.707031 1.448618 1.969844 1.300256 4.951352-0.332031 6.664063-0.695799 0.730063-0.859357 0.774173-1.341797 0.380859-0.279053-0.2275-0.332376-0.433578-0.330078-1.265625 0.0033-1.274698 0.382391-4.395963 0.677734-5.582031 0.143119-0.574731 0.291997-0.873794 0.496094-0.904297z" style="opacity:.2"/>
 <path d="m19.507812 7c-0.100023-0.00609-0.260178 0.0579431-0.552734 0.1855469-0.347271 0.1514756-1.136108 0.2753906-1.753906 0.2753906-2.186353 0.044646-3.93601 0.7937085-5.353516 2.2050781-1.9240286 1.9286844-2.5299823 4.3544644-1.652344 6.6074224 0.202591 0.52005 0.326048 1.049298 0.273438 1.175781-0.05259 0.126477-0.422565 0.476837-0.8203125 0.779297-0.8642072 0.657078-1.4618049 1.716632-1.6113281 2.855468-0.089815 0.684071-0.0278385 1.010418 0.3535156 1.824219 0.8190025 1.747578 2.676585 2.496148 4.65625 1.876953 1.146276-0.358516 2.292731-1.632446 3.210937-3.564453 0.793027-1.668725 0.826618-1.709236 1.677735-2.009765 1.43489-0.506683 2.339574-1.065769 3.238281-2.003907 1.593278-1.663256 2.184306-3.817978 1.613281-5.876953-0.256589-0.925123-0.47278-1.244131-1.634765-2.4218749-0.736025-0.7460246-1.388445-1.5014051-1.451172-1.6777343-0.05288-0.1485542-0.093334-0.2244042-0.19336-0.2304688zm-3.867187 2c0.681144 0.0028 1.207836 0.2083559 1.351563 0.6171875 0.047119 0.1340669-0.151514 0.7666795-0.44336 1.4042965-0.750512 1.639777-0.989845 2.540902-1.443359 5.433594-0.562458 3.587533-1.176917 5.136871-2.408203 6.06836-0.776215 0.587188-1.729123 0.636937-2.238282 0.11914-0.440501-0.447975-0.568186-1.009382-0.363281-1.597656 0.16231-0.465997 0.318924-0.540626 1.501953-0.714844 0.823061-0.121185 1.402344-0.691261 1.402344-1.4375 0-0.46958-0.188837-0.739851-0.828125-1.416016-0.98906-1.046138-1.421227-2.050741-1.425781-3.318359-0.0072-1.982662 0.963302-3.668566 2.621094-4.5546874 0.757936-0.4051224 1.592292-0.6063109 2.273437-0.6035156zm2.533203 1.001953c0.204095-0.0304798 0.463436 0.208441 0.830078 0.707031 1.448618 1.969844 1.300256 4.951352-0.332031 6.664063-0.695799 0.730063-0.859357 0.774173-1.341797 0.380859-0.279053-0.2275-0.332376-0.433578-0.330078-1.265625 0.0033-1.274698 0.382391-4.395963 0.677734-5.582031 0.143119-0.574731 0.291997-0.873794 0.496094-0.904297z" style="fill:#ffffff"/>
 <path d="M 3.4003906 2 C 2.6247906 2 2 2.6247906 2 3.4003906 L 2 4.4003906 C 2 3.6247906 2.6247906 3 3.4003906 3 L 28.599609 3 C 29.375209 3 30 3.6247906 30 4.4003906 L 30 3.4003906 C 30 2.6247906 29.375209 2 28.599609 2 L 3.4003906 2 z" style="fill:#ffffff;opacity:.1"/>
</svg>
