<svg width="32" height="32" version="1" xmlns="http://www.w3.org/2000/svg">
 <defs>
  <clipPath id="clipPath4483">
   <path d="m91.5 254c-0.831 0-1.5 0.669-1.5 1.5v25c0 0.831 0.669 1.5 1.5 1.5h16.5l10-10v-16.5c0-0.831-0.669-1.5-1.5-1.5z" fill="#fecd38"/>
  </clipPath>
 </defs>
 <path d="m28 2s2 0 2 2v24c0 2-2 2-2 2h-16l-10-10v-16c0-2 2-2 2-2z" style="fill:#303d75"/>
 <path transform="matrix(-1,0,0,1,120,-252)" d="m118 272h-8.5c-0.82843 0-1.5 0.67158-1.5 1.5v8.5z" clip-path="url(#clipPath4483)" style="opacity:.2"/>
 <path d="m2 20h8.5c0.828 0 1.5 0.672 1.5 1.5v8.5z" style="fill:#44559e"/>
 <path d="m10.5 20c0.828 0 1.5 0.672 1.5 1.5v1c0-0.828-0.672-1.5-1.5-1.5h-7.5l-1-1h8.5z" style="fill:#ffffff;opacity:.1"/>
 <path d="m2 20 10 10h16.5c0.831 0 1.5-0.669 1.5-1.5v1c0 0.831-0.669 1.5-1.5 1.5h-16.5l-10-10v-1z" style="opacity:.2"/>
 <path d="m16 7.9999999a5 5 0 0 0 -0.4375 0.0214844 4.6666673 4.6666673 0 0 0 -0.097656 0.0117187 5 5 0 0 0 -4.464844 4.966797 5 5 0 0 0 2e-3 0.03711 3.5 3.5 0 0 0 -3.002 3.46289 3.5 3.5 0 0 0 0.0019531 0.085938 3.3333338 3.3333338 0 0 0 -0.0019531 0.080078 3.3333338 3.3333338 0 0 0 3.333984 3.333984h0.166016 8.5a4.0000005 4.0000005 0 0 0 4 -4 4.0000005 4.0000005 0 0 0 -3.080078 -3.882812 5 5 0 0 0 -4.240234 -4.0644537 4.6666673 4.6666673 0 0 0 -0.064454 -0.0097656 5 5 0 0 0 -0.304687 -0.0273438 4.6666673 4.6666673 0 0 0 -0.310547 -0.015625zm-0.0098 2.0019531c0.0514 0.0013 0.103059 0.0016 0.154297 0.0059a2.0002 2.0002 0 0 0 0.04883 0.0039c0.06109 0.0036 0.120885 0.01025 0.181641 0.01758a2.0002 2.0002 0 0 0 0.0332 0.0039c1.294249 0.177691 2.310672 1.153882 2.542969 2.439453a2.0002 2.0002 0 0 0 1.509766 1.591797c0.909621 0.214954 1.532726 1.00331 1.537109 1.9375-0.001406 1.126862-0.870687 1.998017-1.998012 1.998017h-8.5-0.166016c-0.760301 1.48e-4 -1.3341323-0.573683-1.333984-1.333984 7.7e-5 -0.0025-9.15e-5 -0.0053 0-0.0078a2.0002 2.0002 0 0 0 0 -0.142578c-1.81e-4 -0.0052 1.28e-4 -0.01046 0-0.01563 3.24e-4 -0.760541 0.534308-1.374198 1.287109-1.482422a2.0002 2.0002 0 0 0 1.712891 -2.015633c0.0014-1.548232 1.140347-2.81476 2.679688-2.980469a2.0002 2.0002 0 0 0 0.04492 -0.0059c0.0079-1e-3 0.01549-9.9e-4 0.02344-2e-3 0.08074-0.0075 0.161108-0.01076 0.242187-0.01172z" style="opacity:.2"/>
 <path d="m16 7a5 5 0 0 0 -0.4375 0.0214844 4.6666673 4.6666673 0 0 0 -0.097656 0.0117187 5 5 0 0 0 -4.464844 4.9667969 5 5 0 0 0 0.001953 0.037109 3.5 3.5 0 0 0 -3.001953 3.462891 3.5 3.5 0 0 0 0.0019531 0.085938 3.3333338 3.3333338 0 0 0 -0.0019531 0.080078 3.3333338 3.3333338 0 0 0 3.333984 3.333984h0.166016 8.5a4.0000005 4.0000005 0 0 0 4 -4 4.0000005 4.0000005 0 0 0 -3.080078 -3.882812 5 5 0 0 0 -4.240234 -4.0644536 4.6666673 4.6666673 0 0 0 -0.064454 -0.0097656 5 5 0 0 0 -0.304687 -0.0273438 4.6666673 4.6666673 0 0 0 -0.310547 -0.015625zm-0.009766 2.0019531c0.0514 0.00132 0.103059 0.0015694 0.154297 0.0058594a2.0002 2.0002 0 0 0 0.048828 0.0039063c0.06109 0.0036 0.120885 0.0102461 0.181641 0.0175781a2.0002 2.0002 0 0 0 0.033203 0.0039062c1.294249 0.1776912 2.310672 1.1538819 2.542969 2.4394529a2.0002 2.0002 0 0 0 1.509766 1.591797c0.909621 0.214954 1.532726 1.00331 1.537109 1.9375-0.001441 1.126892-0.870722 1.998047-1.998047 1.998047h-8.5-0.166016c-0.760301 1.48e-4 -1.3341323-0.573683-1.333984-1.333984 7.7e-5 -0.0025-9.15e-5 -0.005313 0-0.007813a2.0002 2.0002 0 0 0 0 -0.142578c-1.81e-4 -0.0052 1.28e-4 -0.010455 0-0.015625 3.24e-4 -0.760541 0.534308-1.374198 1.287109-1.482422a2.0002 2.0002 0 0 0 1.712891 -2.015625c0.0014-1.548232 1.140347-2.81476 2.679688-2.9804686a2.0002 2.0002 0 0 0 0.044921 -0.0058594c0.0079-0.00104 0.015488-9.898e-4 0.023438-0.0019531 0.08074-0.00752 0.161108-0.0107608 0.242187-0.0117188z" style="fill:#5d8cb9"/>
 <path d="m4 2s-2 0-2 2v1c0-2 2-2 2-2h24s2 0 2 2v-1c0-2-2-2-2-2h-24z" style="fill:#ffffff;opacity:.1"/>
</svg>
