<svg width="32" height="32" version="1.1" viewBox="0 0 32 32" xmlns="http://www.w3.org/2000/svg">
 <path d="M 16,3 A 14,14 0 0 0 2,17 14,14 0 0 0 16,31 14,14 0 0 0 30,17 14,14 0 0 0 16,3 Z" style="opacity:.2"/>
 <path d="M 16,2 A 14,14 0 0 0 2,16 14,14 0 0 0 16,30 14,14 0 0 0 30,16 14,14 0 0 0 16,2 Z" style="fill:#28287b"/>
 <path d="m16.61137 6.9999997c-0.359095 1.181e-4 -0.72835 0.015402-1.107962 0.047243-3.359396 0.2817371-5.7686523 1.9798301-7.7146376 3.9920243h-1.801e-4c-1.3728966 1.420639-2.3930788 3.412793-2.6800767 5.408969-0.4164237 2.896278 0.3659383 5.48148 2.342317 7.34487 1.6758989 1.58009 4.3266124 2.138054 7.1085614 2.199964 1.951213 0.04346 3.783216-0.117016 5.423552-0.494817 0.820166-0.188899 1.623249-0.430572 2.140089-0.740374 0.516834-0.309801 0.866834-0.708996 0.87808-1.197995l1.81e-4 -2e-3v-2e-3c1.8e-5 -0.796232-0.460156-1.449936-1.128589-1.982445-1.935347-1.365542-3.520001-2.152579-5.666549-3.237167-0.59158-0.280079-1.125942-0.647408-1.204934-1.232859-0.101058-0.748989 1.040611-0.976104 1.597557-1.037457 0.775821-0.06996 1.429668-0.03934 2.219293 0.03985 0.78963 0.07915 1.672835 0.785676 1.943275 0.891581l0.02099 0.0083 0.0224 0.0033c0.05388 0.0072 0.133649-0.02286 0.168876-0.06187 0.03521-0.03908 0.04178-0.07 0.04654-0.09113 0.0095-0.0423 0.0064-0.06167 0.0045-0.08303-0.0032-0.04267-0.01127-0.08328-0.02273-0.134499-0.02292-0.102429-0.06116-0.239838-0.112121-0.405445-0.178668-1.026263-0.78637-2.499722-1.210451-3.381048-0.100675-0.180195-0.201119-0.337117-0.304445-0.461679-0.103173-0.124372-0.204844-0.225352-0.354686-0.264243-0.197067-0.05317-0.481245-0.06705-0.862396-0.06225-0.382065 0.0051-0.921406 0.03315-1.447214 0.08479-1.051625 0.103213-2.185272 0.299276-3.389813 0.588072-1.20455 0.288796-2.340734 0.667036-3.134903 1.154103-0.3970845 0.243534-0.8116013 0.514633-0.9993795 0.833448-0.1877528 0.318769-0.233532 1.093815-0.089029 1.465333v1.81e-4c0.3073227 0.80666 1.1857425 1.412604 2.1456005 1.932554 2.006863 1.091851 3.778953 1.78834 5.67428 2.957949 0.697798 0.3794 1.165113 0.942714 1.06036 1.513364-0.110226 0.600461-0.831917 0.900913-1.455453 1.107324-1.12134 0.371196-2.251923 0.332287-3.246072 0.298178-2.304363-0.098947-4.459866-0.583428-6.0422877-2.374504-0.9832677-1.112916-1.1168888-2.257005-1.2238266-3.895787-0.1047564-1.60528 0.5215137-3.396162 1.4209091-4.728798 1.9993546-2.96247 4.6027212-4.6775936 8.0530902-5.1352811 4.071308-0.5201854 6.853199 0.9398391 8.633442 2.5130421 0.890124 0.786603 1.526908 1.738363 1.938446 2.347461 0.205765 0.304554 0.355226 0.557224 0.452347 0.729274 0.04855 0.08602 0.08378 0.151657 0.107538 0.195316 0.0119 0.02182 0.02008 0.03688 0.02942 0.05253 0.0045 0.0079-0.0027 0.0067 0.03194 0.04249 0.0086 0.0089 0.0638 0.04346 0.064 0.04352 1.8e-4 7.1e-5 0.232618-0.07794 0.232701-0.07809 8.4e-5 -1.81e-4 0.02672-0.08767 0.02607-0.103478-6.3e-4 -0.01577-2e-3 -0.02324-0.0032-0.02942-0.01-0.05183-0.01487-0.04977-0.02383-0.07086-0.0088-0.02111-0.02041-0.04661-0.03508-0.07739-0.02936-0.0616-0.07132-0.144317-0.126747-0.246083-0.110898-0.20354-0.27546-0.482391-0.496998-0.810017-0.443064-0.65525-1.113962-1.641413-2.038575-2.4664525-1.618061-1.4438201-4.020513-2.809483-7.308474-2.900854-0.117426-0.00326-0.23605-0.00495-0.355741-0.00495z" style="opacity:.2"/>
 <path d="m16.61137 5.9999998c-0.359095 1.181e-4 -0.72835 0.015402-1.107962 0.047243-3.359396 0.2817371-5.7686523 1.9798301-7.7146376 3.9920242h-1.801e-4c-1.3728966 1.420639-2.3930788 3.412793-2.6800767 5.408969-0.4164237 2.896278 0.3659383 5.48148 2.342317 7.34487 1.6758989 1.58009 4.3266124 2.138054 7.1085614 2.199964 1.951213 0.04346 3.783216-0.117016 5.423552-0.494817 0.820166-0.188899 1.623249-0.430572 2.140089-0.740374 0.516834-0.309801 0.866834-0.708996 0.87808-1.197995l1.81e-4 -2e-3v-2e-3c1.8e-5 -0.796232-0.460156-1.449936-1.128589-1.982445-1.935347-1.365542-3.520001-2.152579-5.666549-3.237167-0.59158-0.280079-1.125942-0.647408-1.204934-1.232859-0.101058-0.748989 1.040611-0.976104 1.597557-1.037457 0.775821-0.06996 1.429668-0.03934 2.219293 0.03985 0.78963 0.07915 1.672835 0.785676 1.943275 0.891581l0.02099 0.0083 0.0224 0.0033c0.05388 0.0072 0.133649-0.02286 0.168876-0.06187 0.03521-0.03908 0.04178-0.07 0.04654-0.09113 0.0095-0.0423 0.0064-0.06167 0.0045-0.08303-0.0032-0.04267-0.01127-0.08328-0.02273-0.134499-0.02292-0.102429-0.06116-0.239838-0.112121-0.405445-0.178668-1.026263-0.78637-2.499722-1.210451-3.381048-0.100675-0.180195-0.201119-0.337117-0.304445-0.461679-0.103173-0.124372-0.204844-0.225352-0.354686-0.264243-0.197067-0.05317-0.481245-0.06705-0.862396-0.06225-0.382065 0.0051-0.921406 0.03315-1.447214 0.08479-1.051625 0.103213-2.185272 0.299276-3.389813 0.588072-1.20455 0.288796-2.340734 0.667036-3.134903 1.154103-0.3970845 0.243534-0.8116013 0.514633-0.9993795 0.833448-0.1877528 0.318769-0.233532 1.093815-0.089029 1.465333v1.81e-4c0.3073227 0.80666 1.1857425 1.412604 2.1456005 1.932554 2.006863 1.091851 3.778953 1.78834 5.67428 2.957949 0.697798 0.3794 1.165113 0.942714 1.06036 1.513364-0.110226 0.600461-0.831917 0.900913-1.455453 1.107324-1.12134 0.371196-2.251923 0.332287-3.246072 0.298178-2.304363-0.098947-4.459866-0.583428-6.0422877-2.374504-0.9832677-1.112916-1.1168888-2.257005-1.2238266-3.895787-0.1047564-1.60528 0.5215137-3.396162 1.4209091-4.728798 1.9993546-2.9624702 4.6027212-4.6775935 8.0530902-5.135281 4.071308-0.5201854 6.853199 0.9398391 8.633442 2.513042 0.890124 0.786603 1.526908 1.738363 1.938446 2.347461 0.205765 0.304554 0.355226 0.557224 0.452347 0.729274 0.04855 0.08602 0.08378 0.151657 0.107538 0.195316 0.0119 0.02182 0.02008 0.03688 0.02942 0.05253 0.0045 0.0079-0.0027 0.0067 0.03194 0.04249 0.0086 0.0089 0.0638 0.04346 0.064 0.04352 1.8e-4 7.1e-5 0.232618-0.07794 0.232701-0.07809 8.4e-5 -1.81e-4 0.02672-0.08767 0.02607-0.103478-6.3e-4 -0.01577-2e-3 -0.02324-0.0032-0.02942-0.01-0.05183-0.01487-0.04977-0.02383-0.07086-0.0088-0.02111-0.02041-0.04661-0.03508-0.07739-0.02936-0.0616-0.07132-0.144317-0.126747-0.246083-0.110898-0.20354-0.27546-0.482391-0.496998-0.810017-0.443064-0.65525-1.113962-1.6414131-2.038575-2.4664524-1.618061-1.4438201-4.020513-2.809483-7.308474-2.900854-0.117426-0.00326-0.23605-0.00495-0.355741-0.00495z" style="fill:#9868ff"/>
 <path d="M 16 2 A 14 14 0 0 0 2 16 A 14 14 0 0 0 2.0214844 16.414062 A 14 14 0 0 1 16 3 A 14 14 0 0 1 29.978516 16.585938 A 14 14 0 0 0 30 16 A 14 14 0 0 0 16 2 z" style="fill:#ffffff;opacity:.1"/>
</svg>
