<svg width="32" height="32" version="1.0" xmlns="http://www.w3.org/2000/svg">
 <text x="877.22626" y="-5.1873989" font-family="'Bitstream Vera Sans'" font-size="12.666px" opacity=".8" xml:space="preserve"><tspan x="877.22626" y="-5.1873989"/></text>
 <text x="901.18719" y="-45.929108" font-family="'Bitstream Vera Sans'" font-size="12.666px" opacity=".8" xml:space="preserve"><tspan x="901.18719" y="-45.929108"/></text>
 <text x="-569.37115" y="-76.007248" font-family="'Bitstream Vera Sans'" font-size="12.666px" opacity=".8" xml:space="preserve"><tspan x="-569.37115" y="-76.007248"/></text>
 <text x="-2393.0571" y="669.5462" font-family="'Bitstream Vera Sans'" font-size="12.666px" opacity=".8" xml:space="preserve"><tspan x="-2393.0571" y="669.5462"/></text>
 <text x="-454.88007" y="-461.32822" font-family="'Bitstream Vera Sans'" font-size="12.666px" opacity=".8" xml:space="preserve"><tspan x="-454.88007" y="-461.32822"/></text>
 <text x="352.72208" y="-874.79834" font-family="'Bitstream Vera Sans'" font-size="12.666px" opacity=".8" xml:space="preserve"><tspan x="352.72208" y="-874.79834"/></text>
 <text x="376.68301" y="-915.54004" font-family="'Bitstream Vera Sans'" font-size="12.666px" opacity=".8" xml:space="preserve"><tspan x="376.68301" y="-915.54004"/></text>
 <text x="-1114.7802" y="-922.74994" font-family="'Bitstream Vera Sans'" font-size="12.666px" opacity=".8" xml:space="preserve"><tspan x="-1114.7802" y="-922.74994"/></text>
 <text x="345.7626" y="-1195.9841" font-family="'Bitstream Vera Sans'" font-size="12.666px" opacity=".8" xml:space="preserve"><tspan x="345.7626" y="-1195.9841"/></text>
 <text x="1831.8861" y="-569.29272" font-family="'Bitstream Vera Sans'" font-size="12.666px" opacity=".8" xml:space="preserve"><tspan x="1831.8861" y="-569.29272"/></text>
 <text x="1855.8469" y="-610.03448" font-family="'Bitstream Vera Sans'" font-size="12.666px" opacity=".8" xml:space="preserve"><tspan x="1855.8469" y="-610.03448"/></text>
 <text x="364.38376" y="-617.24438" font-family="'Bitstream Vera Sans'" font-size="12.666px" opacity=".8" xml:space="preserve"><tspan x="364.38376" y="-617.24438"/></text>
 <text x="1824.9266" y="-890.47839" font-family="'Bitstream Vera Sans'" font-size="12.666px" opacity=".8" xml:space="preserve"><tspan x="1824.9266" y="-890.47839"/></text>
 <text x="-573.43256" y="-665.33569" font-family="'Bitstream Vera Sans'" font-size="12.666px" opacity=".8" xml:space="preserve"><tspan x="-573.43256" y="-665.33569"/></text>
 <text x="-2397.1182" y="80.217857" font-family="'Bitstream Vera Sans'" font-size="12.666px" opacity=".8" xml:space="preserve"><tspan x="-2397.1182" y="80.217857"/></text>
 <text x="-682.36279" y="173.09" font-family="'Bitstream Vera Sans'" font-size="12.666px" opacity=".8" xml:space="preserve"><tspan x="-682.36279" y="173.09"/></text>
 <text x="426.66153" y="-6.0921478" font-family="'Bitstream Vera Sans'" font-size="12.666px" opacity=".8" xml:space="preserve"><tspan x="426.66153" y="-6.0921478"/></text>
 <text x="450.62247" y="-46.833855" font-family="'Bitstream Vera Sans'" font-size="12.666px" opacity=".8" xml:space="preserve"><tspan x="450.62247" y="-46.833855"/></text>
 <text x="-1040.8407" y="-54.043827" font-family="'Bitstream Vera Sans'" font-size="12.666px" opacity=".8" xml:space="preserve"><tspan x="-1040.8407" y="-54.043827"/></text>
 <text x="419.70206" y="-327.27789" font-family="'Bitstream Vera Sans'" font-size="12.666px" opacity=".8" xml:space="preserve"><tspan x="419.70206" y="-327.27789"/></text>
 <text x="-608.03253" y="-56.758072" font-family="'Bitstream Vera Sans'" font-size="12.666px" opacity=".8" xml:space="preserve"><tspan x="-608.03253" y="-56.758072"/></text>
 <text x="-2431.7185" y="688.79541" font-family="'Bitstream Vera Sans'" font-size="12.666px" opacity=".8" xml:space="preserve"><tspan x="-2431.7185" y="688.79541"/></text>
 <text x="-456.93948" y="-918.28857" font-family="'Bitstream Vera Sans'" font-size="12.666px" opacity=".8" xml:space="preserve"><tspan x="-456.93948" y="-918.28857"/></text>
 <text x="350.66266" y="-1331.7588" font-family="'Bitstream Vera Sans'" font-size="12.666px" opacity=".8" xml:space="preserve"><tspan x="350.66266" y="-1331.7588"/></text>
 <text x="374.62357" y="-1372.5005" font-family="'Bitstream Vera Sans'" font-size="12.666px" opacity=".8" xml:space="preserve"><tspan x="374.62357" y="-1372.5005"/></text>
 <text x="-1116.8396" y="-1379.7104" font-family="'Bitstream Vera Sans'" font-size="12.666px" opacity=".8" xml:space="preserve"><tspan x="-1116.8396" y="-1379.7104"/></text>
 <text x="343.70316" y="-1652.9446" font-family="'Bitstream Vera Sans'" font-size="12.666px" opacity=".8" xml:space="preserve"><tspan x="343.70316" y="-1652.9446"/></text>
 <text x="1829.8265" y="-1026.2533" font-family="'Bitstream Vera Sans'" font-size="12.666px" opacity=".8" xml:space="preserve"><tspan x="1829.8265" y="-1026.2533"/></text>
 <text x="1853.7874" y="-1066.9949" font-family="'Bitstream Vera Sans'" font-size="12.666px" opacity=".8" xml:space="preserve"><tspan x="1853.7874" y="-1066.9949"/></text>
 <text x="362.32431" y="-1074.2048" font-family="'Bitstream Vera Sans'" font-size="12.666px" opacity=".8" xml:space="preserve"><tspan x="362.32431" y="-1074.2048"/></text>
 <text x="1822.8671" y="-1347.439" font-family="'Bitstream Vera Sans'" font-size="12.666px" opacity=".8" xml:space="preserve"><tspan x="1822.8671" y="-1347.439"/></text>
 <text x="-575.492" y="-1122.2961" font-family="'Bitstream Vera Sans'" font-size="12.666px" opacity=".8" xml:space="preserve"><tspan x="-575.492" y="-1122.2961"/></text>
 <text x="-2399.1777" y="-376.74261" font-family="'Bitstream Vera Sans'" font-size="12.666px" opacity=".8" xml:space="preserve"><tspan x="-2399.1777" y="-376.74261"/></text>
 <text x="-684.42224" y="-283.87045" font-family="'Bitstream Vera Sans'" font-size="12.666px" opacity=".8" xml:space="preserve"><tspan x="-684.42224" y="-283.87045"/></text>
 <text x="155.5923" y="-42.956276" font-family="'Bitstream Vera Sans'" font-size="12.666px" opacity=".8" xml:space="preserve"><tspan x="155.5923" y="-42.956276"/></text>
 <text x="179.55324" y="-83.697998" font-family="'Bitstream Vera Sans'" font-size="12.666px" opacity=".8" xml:space="preserve"><tspan x="179.55324" y="-83.697998"/></text>
 <text x="-1090.2634" y="-277.72662" font-family="'Bitstream Vera Sans'" font-size="12.666px" opacity=".8" xml:space="preserve"><tspan x="-1090.2634" y="-277.72662"/></text>
 <text x="-282.66141" y="-691.19678" font-family="'Bitstream Vera Sans'" font-size="12.666px" opacity=".8" xml:space="preserve"><tspan x="-282.66141" y="-691.19678"/></text>
 <text x="-258.70047" y="-731.93848" font-family="'Bitstream Vera Sans'" font-size="12.666px" opacity=".8" xml:space="preserve"><tspan x="-258.70047" y="-731.93848"/></text>
 <text x="-1750.1636" y="-739.14838" font-family="'Bitstream Vera Sans'" font-size="12.666px" opacity=".8" xml:space="preserve"><tspan x="-1750.1636" y="-739.14838"/></text>
 <text x="-289.62085" y="-1012.3825" font-family="'Bitstream Vera Sans'" font-size="12.666px" opacity=".8" xml:space="preserve"><tspan x="-289.62085" y="-1012.3825"/></text>
 <text x="1196.5026" y="-385.69113" font-family="'Bitstream Vera Sans'" font-size="12.666px" opacity=".8" xml:space="preserve"><tspan x="1196.5026" y="-385.69113"/></text>
 <text x="1220.4634" y="-426.43286" font-family="'Bitstream Vera Sans'" font-size="12.666px" opacity=".8" xml:space="preserve"><tspan x="1220.4634" y="-426.43286"/></text>
 <text x="-270.99973" y="-433.64282" font-family="'Bitstream Vera Sans'" font-size="12.666px" opacity=".8" xml:space="preserve"><tspan x="-270.99973" y="-433.64282"/></text>
 <text x="1189.5431" y="-706.87689" font-family="'Bitstream Vera Sans'" font-size="12.666px" opacity=".8" xml:space="preserve"><tspan x="1189.5431" y="-706.87689"/></text>
 <text x="-1208.816" y="-481.7341" font-family="'Bitstream Vera Sans'" font-size="12.666px" opacity=".8" xml:space="preserve"><tspan x="-1208.816" y="-481.7341"/></text>
 <text x="-3032.5017" y="263.81946" font-family="'Bitstream Vera Sans'" font-size="12.666px" opacity=".8" xml:space="preserve"><tspan x="-3032.5017" y="263.81946"/></text>
 <g transform="matrix(.90475 0 0 .90475 -716.75 -692.29)">
  <text x="-664.2738" y="1159.4154" font-family="'Bitstream Vera Sans'" font-size="14px" opacity=".8" xml:space="preserve"><tspan x="-664.2738" y="1159.4154"/></text>
 </g>
 <text x="877.22626" y="2.0505886" font-family="'Bitstream Vera Sans'" font-size="12.666px" opacity=".8" xml:space="preserve"><tspan x="877.22626" y="2.0505886"/></text>
 <text x="901.18719" y="-38.691116" font-family="'Bitstream Vera Sans'" font-size="12.666px" opacity=".8" xml:space="preserve"><tspan x="901.18719" y="-38.691116"/></text>
 <text x="-569.37115" y="-68.769257" font-family="'Bitstream Vera Sans'" font-size="12.666px" opacity=".8" xml:space="preserve"><tspan x="-569.37115" y="-68.769257"/></text>
 <text x="-2393.0571" y="676.78418" font-family="'Bitstream Vera Sans'" font-size="12.666px" opacity=".8" xml:space="preserve"><tspan x="-2393.0571" y="676.78418"/></text>
 <text x="-454.88007" y="-454.09021" font-family="'Bitstream Vera Sans'" font-size="12.666px" opacity=".8" xml:space="preserve"><tspan x="-454.88007" y="-454.09021"/></text>
 <text x="352.72208" y="-867.5603" font-family="'Bitstream Vera Sans'" font-size="12.666px" opacity=".8" xml:space="preserve"><tspan x="352.72208" y="-867.5603"/></text>
 <text x="376.68301" y="-908.30206" font-family="'Bitstream Vera Sans'" font-size="12.666px" opacity=".8" xml:space="preserve"><tspan x="376.68301" y="-908.30206"/></text>
 <text x="-1114.7802" y="-915.51196" font-family="'Bitstream Vera Sans'" font-size="12.666px" opacity=".8" xml:space="preserve"><tspan x="-1114.7802" y="-915.51196"/></text>
 <text x="345.7626" y="-1188.7461" font-family="'Bitstream Vera Sans'" font-size="12.666px" opacity=".8" xml:space="preserve"><tspan x="345.7626" y="-1188.7461"/></text>
 <text x="1831.8861" y="-562.05475" font-family="'Bitstream Vera Sans'" font-size="12.666px" opacity=".8" xml:space="preserve"><tspan x="1831.8861" y="-562.05475"/></text>
 <text x="1855.8469" y="-602.79651" font-family="'Bitstream Vera Sans'" font-size="12.666px" opacity=".8" xml:space="preserve"><tspan x="1855.8469" y="-602.79651"/></text>
 <text x="364.38376" y="-610.00641" font-family="'Bitstream Vera Sans'" font-size="12.666px" opacity=".8" xml:space="preserve"><tspan x="364.38376" y="-610.00641"/></text>
 <text x="1824.9266" y="-883.24036" font-family="'Bitstream Vera Sans'" font-size="12.666px" opacity=".8" xml:space="preserve"><tspan x="1824.9266" y="-883.24036"/></text>
 <text x="-573.43256" y="-658.09772" font-family="'Bitstream Vera Sans'" font-size="12.666px" opacity=".8" xml:space="preserve"><tspan x="-573.43256" y="-658.09772"/></text>
 <text x="-2397.1182" y="87.455849" font-family="'Bitstream Vera Sans'" font-size="12.666px" opacity=".8" xml:space="preserve"><tspan x="-2397.1182" y="87.455849"/></text>
 <text x="-682.36279" y="180.32799" font-family="'Bitstream Vera Sans'" font-size="12.666px" opacity=".8" xml:space="preserve"><tspan x="-682.36279" y="180.32799"/></text>
 <text x="426.66153" y="1.1458397" font-family="'Bitstream Vera Sans'" font-size="12.666px" opacity=".8" xml:space="preserve"><tspan x="426.66153" y="1.1458397"/></text>
 <text x="450.62247" y="-39.595863" font-family="'Bitstream Vera Sans'" font-size="12.666px" opacity=".8" xml:space="preserve"><tspan x="450.62247" y="-39.595863"/></text>
 <text x="-1040.8407" y="-46.805836" font-family="'Bitstream Vera Sans'" font-size="12.666px" opacity=".8" xml:space="preserve"><tspan x="-1040.8407" y="-46.805836"/></text>
 <text x="419.70206" y="-320.03989" font-family="'Bitstream Vera Sans'" font-size="12.666px" opacity=".8" xml:space="preserve"><tspan x="419.70206" y="-320.03989"/></text>
 <text x="-608.03253" y="-49.520081" font-family="'Bitstream Vera Sans'" font-size="12.666px" opacity=".8" xml:space="preserve"><tspan x="-608.03253" y="-49.520081"/></text>
 <text x="-2431.7185" y="696.03345" font-family="'Bitstream Vera Sans'" font-size="12.666px" opacity=".8" xml:space="preserve"><tspan x="-2431.7185" y="696.03345"/></text>
 <text x="-456.93948" y="-911.0506" font-family="'Bitstream Vera Sans'" font-size="12.666px" opacity=".8" xml:space="preserve"><tspan x="-456.93948" y="-911.0506"/></text>
 <text x="350.66266" y="-1324.5208" font-family="'Bitstream Vera Sans'" font-size="12.666px" opacity=".8" xml:space="preserve"><tspan x="350.66266" y="-1324.5208"/></text>
 <text x="374.62357" y="-1365.2626" font-family="'Bitstream Vera Sans'" font-size="12.666px" opacity=".8" xml:space="preserve"><tspan x="374.62357" y="-1365.2626"/></text>
 <text x="-1116.8396" y="-1372.4724" font-family="'Bitstream Vera Sans'" font-size="12.666px" opacity=".8" xml:space="preserve"><tspan x="-1116.8396" y="-1372.4724"/></text>
 <text x="343.70316" y="-1645.7065" font-family="'Bitstream Vera Sans'" font-size="12.666px" opacity=".8" xml:space="preserve"><tspan x="343.70316" y="-1645.7065"/></text>
 <text x="1829.8265" y="-1019.0153" font-family="'Bitstream Vera Sans'" font-size="12.666px" opacity=".8" xml:space="preserve"><tspan x="1829.8265" y="-1019.0153"/></text>
 <text x="1853.7874" y="-1059.757" font-family="'Bitstream Vera Sans'" font-size="12.666px" opacity=".8" xml:space="preserve"><tspan x="1853.7874" y="-1059.757"/></text>
 <text x="362.32431" y="-1066.9668" font-family="'Bitstream Vera Sans'" font-size="12.666px" opacity=".8" xml:space="preserve"><tspan x="362.32431" y="-1066.9668"/></text>
 <text x="1822.8671" y="-1340.2009" font-family="'Bitstream Vera Sans'" font-size="12.666px" opacity=".8" xml:space="preserve"><tspan x="1822.8671" y="-1340.2009"/></text>
 <text x="-575.492" y="-1115.0581" font-family="'Bitstream Vera Sans'" font-size="12.666px" opacity=".8" xml:space="preserve"><tspan x="-575.492" y="-1115.0581"/></text>
 <text x="-2399.1777" y="-369.50461" font-family="'Bitstream Vera Sans'" font-size="12.666px" opacity=".8" xml:space="preserve"><tspan x="-2399.1777" y="-369.50461"/></text>
 <text x="-684.42224" y="-276.63245" font-family="'Bitstream Vera Sans'" font-size="12.666px" opacity=".8" xml:space="preserve"><tspan x="-684.42224" y="-276.63245"/></text>
 <text x="155.5923" y="-35.718292" font-family="'Bitstream Vera Sans'" font-size="12.666px" opacity=".8" xml:space="preserve"><tspan x="155.5923" y="-35.718292"/></text>
 <text x="179.55324" y="-76.460007" font-family="'Bitstream Vera Sans'" font-size="12.666px" opacity=".8" xml:space="preserve"><tspan x="179.55324" y="-76.460007"/></text>
 <text x="-1090.2634" y="-270.48859" font-family="'Bitstream Vera Sans'" font-size="12.666px" opacity=".8" xml:space="preserve"><tspan x="-1090.2634" y="-270.48859"/></text>
 <text x="-282.66141" y="-683.9588" font-family="'Bitstream Vera Sans'" font-size="12.666px" opacity=".8" xml:space="preserve"><tspan x="-282.66141" y="-683.9588"/></text>
 <text x="-258.70047" y="-724.7005" font-family="'Bitstream Vera Sans'" font-size="12.666px" opacity=".8" xml:space="preserve"><tspan x="-258.70047" y="-724.7005"/></text>
 <text x="-1750.1636" y="-731.91046" font-family="'Bitstream Vera Sans'" font-size="12.666px" opacity=".8" xml:space="preserve"><tspan x="-1750.1636" y="-731.91046"/></text>
 <text x="-289.62085" y="-1005.1445" font-family="'Bitstream Vera Sans'" font-size="12.666px" opacity=".8" xml:space="preserve"><tspan x="-289.62085" y="-1005.1445"/></text>
 <text x="1196.5026" y="-378.45316" font-family="'Bitstream Vera Sans'" font-size="12.666px" opacity=".8" xml:space="preserve"><tspan x="1196.5026" y="-378.45316"/></text>
 <text x="1220.4634" y="-419.19489" font-family="'Bitstream Vera Sans'" font-size="12.666px" opacity=".8" xml:space="preserve"><tspan x="1220.4634" y="-419.19489"/></text>
 <text x="-270.99973" y="-426.40482" font-family="'Bitstream Vera Sans'" font-size="12.666px" opacity=".8" xml:space="preserve"><tspan x="-270.99973" y="-426.40482"/></text>
 <text x="1189.5431" y="-699.63892" font-family="'Bitstream Vera Sans'" font-size="12.666px" opacity=".8" xml:space="preserve"><tspan x="1189.5431" y="-699.63892"/></text>
 <text x="-1208.816" y="-474.49609" font-family="'Bitstream Vera Sans'" font-size="12.666px" opacity=".8" xml:space="preserve"><tspan x="-1208.816" y="-474.49609"/></text>
 <text x="-3032.5017" y="271.05743" font-family="'Bitstream Vera Sans'" font-size="12.666px" opacity=".8" xml:space="preserve"><tspan x="-3032.5017" y="271.05743"/></text>
 <g transform="matrix(.90475 0 0 .90475 -716.75 -685.05)">
  <text x="-664.2738" y="1159.4154" font-family="'Bitstream Vera Sans'" font-size="14px" opacity=".8" xml:space="preserve"><tspan x="-664.2738" y="1159.4154"/></text>
 </g>
 <text x="435.90427" y="-377.22546" font-family="'Droid Sans'" font-size="12.666px" xml:space="preserve"><tspan x="435.90427" y="-377.22546"/><tspan x="435.90427" y="-361.3924"/></text>
 <text x="901.0882" y="-859.27002" font-family="'Bitstream Vera Sans'" font-size="12.666px" opacity=".8" xml:space="preserve"><tspan x="901.0882" y="-859.27002"/></text>
 <text x="-922.59778" y="-113.71655" font-family="'Bitstream Vera Sans'" font-size="12.666px" opacity=".8" xml:space="preserve"><tspan x="-922.59778" y="-113.71655"/></text>
 <text x="1628.1677" y="-1144.2659" font-family="'Bitstream Vera Sans'" font-size="12.666px" opacity=".8" xml:space="preserve"><tspan x="1628.1677" y="-1144.2659"/></text>
 <text x="1652.1285" y="-1185.0076" font-family="'Bitstream Vera Sans'" font-size="12.666px" opacity=".8" xml:space="preserve"><tspan x="1652.1285" y="-1185.0076"/></text>
 <text x="160.66542" y="-1192.2175" font-family="'Bitstream Vera Sans'" font-size="12.666px" opacity=".8" xml:space="preserve"><tspan x="160.66542" y="-1192.2175"/></text>
 <text x="1621.2083" y="-1465.4517" font-family="'Bitstream Vera Sans'" font-size="12.666px" opacity=".8" xml:space="preserve"><tspan x="1621.2083" y="-1465.4517"/></text>
 <text x="822.44916" y="-2.0410566" font-family="'Bitstream Vera Sans'" font-size="12.666px" opacity=".8" xml:space="preserve"><tspan x="822.44916" y="-2.0410566"/></text>
 <text x="846.4101" y="-42.782761" font-family="'Bitstream Vera Sans'" font-size="12.666px" opacity=".8" xml:space="preserve"><tspan x="846.4101" y="-42.782761"/></text>
 <text x="-624.14825" y="-72.860901" font-family="'Bitstream Vera Sans'" font-size="12.666px" opacity=".8" xml:space="preserve"><tspan x="-624.14825" y="-72.860901"/></text>
 <text x="-2447.8342" y="672.69257" font-family="'Bitstream Vera Sans'" font-size="12.666px" opacity=".8" xml:space="preserve"><tspan x="-2447.8342" y="672.69257"/></text>
 <text x="-509.6572" y="-458.18188" font-family="'Bitstream Vera Sans'" font-size="12.666px" opacity=".8" xml:space="preserve"><tspan x="-509.6572" y="-458.18188"/></text>
 <text x="297.94495" y="-871.65198" font-family="'Bitstream Vera Sans'" font-size="12.666px" opacity=".8" xml:space="preserve"><tspan x="297.94495" y="-871.65198"/></text>
 <text x="321.90588" y="-912.39368" font-family="'Bitstream Vera Sans'" font-size="12.666px" opacity=".8" xml:space="preserve"><tspan x="321.90588" y="-912.39368"/></text>
 <text x="-1169.5573" y="-919.60358" font-family="'Bitstream Vera Sans'" font-size="12.666px" opacity=".8" xml:space="preserve"><tspan x="-1169.5573" y="-919.60358"/></text>
 <text x="290.98547" y="-1192.8378" font-family="'Bitstream Vera Sans'" font-size="12.666px" opacity=".8" xml:space="preserve"><tspan x="290.98547" y="-1192.8378"/></text>
 <text x="1777.109" y="-566.14636" font-family="'Bitstream Vera Sans'" font-size="12.666px" opacity=".8" xml:space="preserve"><tspan x="1777.109" y="-566.14636"/></text>
 <text x="1801.0698" y="-606.88812" font-family="'Bitstream Vera Sans'" font-size="12.666px" opacity=".8" xml:space="preserve"><tspan x="1801.0698" y="-606.88812"/></text>
 <text x="309.60663" y="-614.09802" font-family="'Bitstream Vera Sans'" font-size="12.666px" opacity=".8" xml:space="preserve"><tspan x="309.60663" y="-614.09802"/></text>
 <text x="1770.1495" y="-887.33203" font-family="'Bitstream Vera Sans'" font-size="12.666px" opacity=".8" xml:space="preserve"><tspan x="1770.1495" y="-887.33203"/></text>
 <text x="-628.20966" y="-662.18933" font-family="'Bitstream Vera Sans'" font-size="12.666px" opacity=".8" xml:space="preserve"><tspan x="-628.20966" y="-662.18933"/></text>
 <text x="-2451.8953" y="83.364197" font-family="'Bitstream Vera Sans'" font-size="12.666px" opacity=".8" xml:space="preserve"><tspan x="-2451.8953" y="83.364197"/></text>
 <text x="-737.13989" y="176.23634" font-family="'Bitstream Vera Sans'" font-size="12.666px" opacity=".8" xml:space="preserve"><tspan x="-737.13989" y="176.23634"/></text>
 <text x="371.8844" y="-2.9458055" font-family="'Bitstream Vera Sans'" font-size="12.666px" opacity=".8" xml:space="preserve"><tspan x="371.8844" y="-2.9458055"/></text>
 <text x="395.84534" y="-43.687511" font-family="'Bitstream Vera Sans'" font-size="12.666px" opacity=".8" xml:space="preserve"><tspan x="395.84534" y="-43.687511"/></text>
 <text x="-1095.6178" y="-50.897484" font-family="'Bitstream Vera Sans'" font-size="12.666px" opacity=".8" xml:space="preserve"><tspan x="-1095.6178" y="-50.897484"/></text>
 <text x="364.92493" y="-324.13156" font-family="'Bitstream Vera Sans'" font-size="12.666px" opacity=".8" xml:space="preserve"><tspan x="364.92493" y="-324.13156"/></text>
 <text x="-662.80963" y="-53.611729" font-family="'Bitstream Vera Sans'" font-size="12.666px" opacity=".8" xml:space="preserve"><tspan x="-662.80963" y="-53.611729"/></text>
 <text x="-2486.4956" y="691.94177" font-family="'Bitstream Vera Sans'" font-size="12.666px" opacity=".8" xml:space="preserve"><tspan x="-2486.4956" y="691.94177"/></text>
 <text x="-511.71661" y="-915.14221" font-family="'Bitstream Vera Sans'" font-size="12.666px" opacity=".8" xml:space="preserve"><tspan x="-511.71661" y="-915.14221"/></text>
 <text x="295.88553" y="-1328.6124" font-family="'Bitstream Vera Sans'" font-size="12.666px" opacity=".8" xml:space="preserve"><tspan x="295.88553" y="-1328.6124"/></text>
 <text x="319.84644" y="-1369.3541" font-family="'Bitstream Vera Sans'" font-size="12.666px" opacity=".8" xml:space="preserve"><tspan x="319.84644" y="-1369.3541"/></text>
 <text x="-1171.6167" y="-1376.5641" font-family="'Bitstream Vera Sans'" font-size="12.666px" opacity=".8" xml:space="preserve"><tspan x="-1171.6167" y="-1376.5641"/></text>
 <text x="288.92603" y="-1649.7982" font-family="'Bitstream Vera Sans'" font-size="12.666px" opacity=".8" xml:space="preserve"><tspan x="288.92603" y="-1649.7982"/></text>
 <text x="1775.0494" y="-1023.1069" font-family="'Bitstream Vera Sans'" font-size="12.666px" opacity=".8" xml:space="preserve"><tspan x="1775.0494" y="-1023.1069"/></text>
 <text x="1799.0103" y="-1063.8485" font-family="'Bitstream Vera Sans'" font-size="12.666px" opacity=".8" xml:space="preserve"><tspan x="1799.0103" y="-1063.8485"/></text>
 <text x="307.54718" y="-1071.0585" font-family="'Bitstream Vera Sans'" font-size="12.666px" opacity=".8" xml:space="preserve"><tspan x="307.54718" y="-1071.0585"/></text>
 <text x="1768.09" y="-1344.2926" font-family="'Bitstream Vera Sans'" font-size="12.666px" opacity=".8" xml:space="preserve"><tspan x="1768.09" y="-1344.2926"/></text>
 <text x="-630.2691" y="-1119.1498" font-family="'Bitstream Vera Sans'" font-size="12.666px" opacity=".8" xml:space="preserve"><tspan x="-630.2691" y="-1119.1498"/></text>
 <text x="-2453.9548" y="-373.59628" font-family="'Bitstream Vera Sans'" font-size="12.666px" opacity=".8" xml:space="preserve"><tspan x="-2453.9548" y="-373.59628"/></text>
 <text x="-739.19934" y="-280.72412" font-family="'Bitstream Vera Sans'" font-size="12.666px" opacity=".8" xml:space="preserve"><tspan x="-739.19934" y="-280.72412"/></text>
 <text x="100.81518" y="-39.809937" font-family="'Bitstream Vera Sans'" font-size="12.666px" opacity=".8" xml:space="preserve"><tspan x="100.81518" y="-39.809937"/></text>
 <text x="124.77612" y="-80.551659" font-family="'Bitstream Vera Sans'" font-size="12.666px" opacity=".8" xml:space="preserve"><tspan x="124.77612" y="-80.551659"/></text>
 <text x="-1145.0405" y="-274.58029" font-family="'Bitstream Vera Sans'" font-size="12.666px" opacity=".8" xml:space="preserve"><tspan x="-1145.0405" y="-274.58029"/></text>
 <text x="-337.43854" y="-688.05042" font-family="'Bitstream Vera Sans'" font-size="12.666px" opacity=".8" xml:space="preserve"><tspan x="-337.43854" y="-688.05042"/></text>
 <text x="-313.4776" y="-728.79211" font-family="'Bitstream Vera Sans'" font-size="12.666px" opacity=".8" xml:space="preserve"><tspan x="-313.4776" y="-728.79211"/></text>
 <text x="-1804.9407" y="-736.00201" font-family="'Bitstream Vera Sans'" font-size="12.666px" opacity=".8" xml:space="preserve"><tspan x="-1804.9407" y="-736.00201"/></text>
 <text x="-344.39798" y="-1009.2361" font-family="'Bitstream Vera Sans'" font-size="12.666px" opacity=".8" xml:space="preserve"><tspan x="-344.39798" y="-1009.2361"/></text>
 <text x="1141.7255" y="-382.5448" font-family="'Bitstream Vera Sans'" font-size="12.666px" opacity=".8" xml:space="preserve"><tspan x="1141.7255" y="-382.5448"/></text>
 <text x="1165.6863" y="-423.28653" font-family="'Bitstream Vera Sans'" font-size="12.666px" opacity=".8" xml:space="preserve"><tspan x="1165.6863" y="-423.28653"/></text>
 <text x="-325.77686" y="-430.49649" font-family="'Bitstream Vera Sans'" font-size="12.666px" opacity=".8" xml:space="preserve"><tspan x="-325.77686" y="-430.49649"/></text>
 <text x="1134.766" y="-703.73053" font-family="'Bitstream Vera Sans'" font-size="12.666px" opacity=".8" xml:space="preserve"><tspan x="1134.766" y="-703.73053"/></text>
 <text x="-1263.5931" y="-478.58777" font-family="'Bitstream Vera Sans'" font-size="12.666px" opacity=".8" xml:space="preserve"><tspan x="-1263.5931" y="-478.58777"/></text>
 <text x="-3087.2788" y="266.96579" font-family="'Bitstream Vera Sans'" font-size="12.666px" opacity=".8" xml:space="preserve"><tspan x="-3087.2788" y="266.96579"/></text>
 <text x="-1372.5288" y="359.83743" font-family="'Bitstream Vera Sans'" font-size="12.667px" opacity=".8" xml:space="preserve"><tspan x="-1372.5288" y="359.83743"/></text>
 <text x="822.44916" y="5.1969318" font-family="'Bitstream Vera Sans'" font-size="12.666px" opacity=".8" xml:space="preserve"><tspan x="822.44916" y="5.1969318"/></text>
 <text x="846.4101" y="-35.544773" font-family="'Bitstream Vera Sans'" font-size="12.666px" opacity=".8" xml:space="preserve"><tspan x="846.4101" y="-35.544773"/></text>
 <text x="-624.14825" y="-65.622917" font-family="'Bitstream Vera Sans'" font-size="12.666px" opacity=".8" xml:space="preserve"><tspan x="-624.14825" y="-65.622917"/></text>
 <text x="-2447.8342" y="679.93054" font-family="'Bitstream Vera Sans'" font-size="12.666px" opacity=".8" xml:space="preserve"><tspan x="-2447.8342" y="679.93054"/></text>
 <text x="-509.6572" y="-450.94388" font-family="'Bitstream Vera Sans'" font-size="12.666px" opacity=".8" xml:space="preserve"><tspan x="-509.6572" y="-450.94388"/></text>
 <text x="297.94495" y="-864.41394" font-family="'Bitstream Vera Sans'" font-size="12.666px" opacity=".8" xml:space="preserve"><tspan x="297.94495" y="-864.41394"/></text>
 <text x="321.90588" y="-905.1557" font-family="'Bitstream Vera Sans'" font-size="12.666px" opacity=".8" xml:space="preserve"><tspan x="321.90588" y="-905.1557"/></text>
 <text x="-1169.5573" y="-912.3656" font-family="'Bitstream Vera Sans'" font-size="12.666px" opacity=".8" xml:space="preserve"><tspan x="-1169.5573" y="-912.3656"/></text>
 <text x="290.98547" y="-1185.5997" font-family="'Bitstream Vera Sans'" font-size="12.666px" opacity=".8" xml:space="preserve"><tspan x="290.98547" y="-1185.5997"/></text>
 <text x="1777.109" y="-558.90839" font-family="'Bitstream Vera Sans'" font-size="12.666px" opacity=".8" xml:space="preserve"><tspan x="1777.109" y="-558.90839"/></text>
 <text x="1801.0698" y="-599.65015" font-family="'Bitstream Vera Sans'" font-size="12.666px" opacity=".8" xml:space="preserve"><tspan x="1801.0698" y="-599.65015"/></text>
 <text x="309.60663" y="-606.86005" font-family="'Bitstream Vera Sans'" font-size="12.666px" opacity=".8" xml:space="preserve"><tspan x="309.60663" y="-606.86005"/></text>
 <text x="1770.1495" y="-880.09399" font-family="'Bitstream Vera Sans'" font-size="12.666px" opacity=".8" xml:space="preserve"><tspan x="1770.1495" y="-880.09399"/></text>
 <text x="-628.20966" y="-654.95135" font-family="'Bitstream Vera Sans'" font-size="12.666px" opacity=".8" xml:space="preserve"><tspan x="-628.20966" y="-654.95135"/></text>
 <text x="-2451.8953" y="90.602188" font-family="'Bitstream Vera Sans'" font-size="12.666px" opacity=".8" xml:space="preserve"><tspan x="-2451.8953" y="90.602188"/></text>
 <text x="-737.13989" y="183.47433" font-family="'Bitstream Vera Sans'" font-size="12.666px" opacity=".8" xml:space="preserve"><tspan x="-737.13989" y="183.47433"/></text>
 <text x="371.8844" y="4.2921829" font-family="'Bitstream Vera Sans'" font-size="12.666px" opacity=".8" xml:space="preserve"><tspan x="371.8844" y="4.2921829"/></text>
 <text x="395.84534" y="-36.449524" font-family="'Bitstream Vera Sans'" font-size="12.666px" opacity=".8" xml:space="preserve"><tspan x="395.84534" y="-36.449524"/></text>
 <text x="-1095.6178" y="-43.659492" font-family="'Bitstream Vera Sans'" font-size="12.666px" opacity=".8" xml:space="preserve"><tspan x="-1095.6178" y="-43.659492"/></text>
 <text x="364.92493" y="-316.89355" font-family="'Bitstream Vera Sans'" font-size="12.666px" opacity=".8" xml:space="preserve"><tspan x="364.92493" y="-316.89355"/></text>
 <text x="-662.80963" y="-46.373737" font-family="'Bitstream Vera Sans'" font-size="12.666px" opacity=".8" xml:space="preserve"><tspan x="-662.80963" y="-46.373737"/></text>
 <text x="-2486.4956" y="699.17981" font-family="'Bitstream Vera Sans'" font-size="12.666px" opacity=".8" xml:space="preserve"><tspan x="-2486.4956" y="699.17981"/></text>
 <text x="-511.71661" y="-907.90424" font-family="'Bitstream Vera Sans'" font-size="12.666px" opacity=".8" xml:space="preserve"><tspan x="-511.71661" y="-907.90424"/></text>
 <text x="295.88553" y="-1321.3744" font-family="'Bitstream Vera Sans'" font-size="12.666px" opacity=".8" xml:space="preserve"><tspan x="295.88553" y="-1321.3744"/></text>
 <text x="319.84644" y="-1362.1162" font-family="'Bitstream Vera Sans'" font-size="12.666px" opacity=".8" xml:space="preserve"><tspan x="319.84644" y="-1362.1162"/></text>
 <text x="-1171.6167" y="-1369.326" font-family="'Bitstream Vera Sans'" font-size="12.666px" opacity=".8" xml:space="preserve"><tspan x="-1171.6167" y="-1369.326"/></text>
 <text x="288.92603" y="-1642.5602" font-family="'Bitstream Vera Sans'" font-size="12.666px" opacity=".8" xml:space="preserve"><tspan x="288.92603" y="-1642.5602"/></text>
 <text x="1775.0494" y="-1015.869" font-family="'Bitstream Vera Sans'" font-size="12.666px" opacity=".8" xml:space="preserve"><tspan x="1775.0494" y="-1015.869"/></text>
 <text x="1799.0103" y="-1056.6106" font-family="'Bitstream Vera Sans'" font-size="12.666px" opacity=".8" xml:space="preserve"><tspan x="1799.0103" y="-1056.6106"/></text>
 <text x="307.54718" y="-1063.8204" font-family="'Bitstream Vera Sans'" font-size="12.666px" opacity=".8" xml:space="preserve"><tspan x="307.54718" y="-1063.8204"/></text>
 <text x="1768.09" y="-1337.0546" font-family="'Bitstream Vera Sans'" font-size="12.666px" opacity=".8" xml:space="preserve"><tspan x="1768.09" y="-1337.0546"/></text>
 <text x="-630.2691" y="-1111.9117" font-family="'Bitstream Vera Sans'" font-size="12.666px" opacity=".8" xml:space="preserve"><tspan x="-630.2691" y="-1111.9117"/></text>
 <text x="-2453.9548" y="-366.35828" font-family="'Bitstream Vera Sans'" font-size="12.666px" opacity=".8" xml:space="preserve"><tspan x="-2453.9548" y="-366.35828"/></text>
 <text x="-739.19934" y="-273.48611" font-family="'Bitstream Vera Sans'" font-size="12.666px" opacity=".8" xml:space="preserve"><tspan x="-739.19934" y="-273.48611"/></text>
 <text x="100.81518" y="-32.571945" font-family="'Bitstream Vera Sans'" font-size="12.666px" opacity=".8" xml:space="preserve"><tspan x="100.81518" y="-32.571945"/></text>
 <text x="124.77612" y="-73.313667" font-family="'Bitstream Vera Sans'" font-size="12.666px" opacity=".8" xml:space="preserve"><tspan x="124.77612" y="-73.313667"/></text>
 <text x="-1145.0405" y="-267.34225" font-family="'Bitstream Vera Sans'" font-size="12.666px" opacity=".8" xml:space="preserve"><tspan x="-1145.0405" y="-267.34225"/></text>
 <text x="-337.43854" y="-680.81244" font-family="'Bitstream Vera Sans'" font-size="12.666px" opacity=".8" xml:space="preserve"><tspan x="-337.43854" y="-680.81244"/></text>
 <text x="-313.4776" y="-721.55414" font-family="'Bitstream Vera Sans'" font-size="12.666px" opacity=".8" xml:space="preserve"><tspan x="-313.4776" y="-721.55414"/></text>
 <text x="-1804.9407" y="-728.7641" font-family="'Bitstream Vera Sans'" font-size="12.666px" opacity=".8" xml:space="preserve"><tspan x="-1804.9407" y="-728.7641"/></text>
 <text x="-344.39798" y="-1001.9981" font-family="'Bitstream Vera Sans'" font-size="12.666px" opacity=".8" xml:space="preserve"><tspan x="-344.39798" y="-1001.9981"/></text>
 <text x="1141.7255" y="-375.30682" font-family="'Bitstream Vera Sans'" font-size="12.666px" opacity=".8" xml:space="preserve"><tspan x="1141.7255" y="-375.30682"/></text>
 <text x="1165.6863" y="-416.04855" font-family="'Bitstream Vera Sans'" font-size="12.666px" opacity=".8" xml:space="preserve"><tspan x="1165.6863" y="-416.04855"/></text>
 <text x="-325.77686" y="-423.25848" font-family="'Bitstream Vera Sans'" font-size="12.666px" opacity=".8" xml:space="preserve"><tspan x="-325.77686" y="-423.25848"/></text>
 <text x="1134.766" y="-696.49255" font-family="'Bitstream Vera Sans'" font-size="12.666px" opacity=".8" xml:space="preserve"><tspan x="1134.766" y="-696.49255"/></text>
 <text x="-1263.5931" y="-471.34976" font-family="'Bitstream Vera Sans'" font-size="12.666px" opacity=".8" xml:space="preserve"><tspan x="-1263.5931" y="-471.34976"/></text>
 <text x="-3087.2788" y="274.20377" font-family="'Bitstream Vera Sans'" font-size="12.666px" opacity=".8" xml:space="preserve"><tspan x="-3087.2788" y="274.20377"/></text>
 <text x="-1372.5288" y="367.07742" font-family="'Bitstream Vera Sans'" font-size="12.667px" opacity=".8" xml:space="preserve"><tspan x="-1372.5288" y="367.07742"/></text>
 <text x="381.12714" y="-374.07913" font-family="'Droid Sans'" font-size="12.666px" xml:space="preserve"><tspan x="381.12714" y="-374.07913"/><tspan x="381.12714" y="-358.24606"/></text>
 <text x="846.3111" y="-856.12366" font-family="'Bitstream Vera Sans'" font-size="12.666px" opacity=".8" xml:space="preserve"><tspan x="846.3111" y="-856.12366"/></text>
 <text x="-977.37488" y="-110.57021" font-family="'Bitstream Vera Sans'" font-size="12.666px" opacity=".8" xml:space="preserve"><tspan x="-977.37488" y="-110.57021"/></text>
 <text x="1573.3906" y="-1141.1195" font-family="'Bitstream Vera Sans'" font-size="12.666px" opacity=".8" xml:space="preserve"><tspan x="1573.3906" y="-1141.1195"/></text>
 <text x="1597.3514" y="-1181.8612" font-family="'Bitstream Vera Sans'" font-size="12.666px" opacity=".8" xml:space="preserve"><tspan x="1597.3514" y="-1181.8612"/></text>
 <text x="105.8883" y="-1189.0712" font-family="'Bitstream Vera Sans'" font-size="12.666px" opacity=".8" xml:space="preserve"><tspan x="105.8883" y="-1189.0712"/></text>
 <text x="1566.4312" y="-1462.3053" font-family="'Bitstream Vera Sans'" font-size="12.666px" opacity=".8" xml:space="preserve"><tspan x="1566.4312" y="-1462.3053"/></text>
 <rect transform="matrix(0,-1,-1,0,0,0)" x="-30" y="-30" width="28" height="28" rx="14" ry="14" fill="#355871"/>
 <path d="m2.0254 16.5c-0.0059 0.167-0.0254 0.331-0.0254 0.5 0 7.756 6.244 14 14 14s14-6.244 14-14c0-0.169-0.02-0.333-0.025-0.5-0.264 7.521-6.388 13.5-13.975 13.5-7.5872 0-13.711-5.979-13.975-13.5z" opacity=".2"/>
 <path d="m16 2c-7.756 0-14 6.244-14 14 0 0.169 0.0195 0.333 0.0254 0.5 0.2637-7.5206 6.3874-13.5 13.975-13.5 7.587 0 13.711 5.9794 13.975 13.5 5e-3 -0.167 0.025-0.331 0.025-0.5 0-7.756-6.244-14-14-14z" fill="#fff" opacity=".1"/>
 <path d="m25 5-8 10 9 2-18 13 7-11-9-2z" opacity=".2"/>
 <path d="m25 4-8 10 9 2-18 13 7-11-9-2z" fill="#3bb8d6"/>
</svg>
