<svg width="32" height="32" version="1.1" viewBox="0 0 32 32" xmlns="http://www.w3.org/2000/svg">
 <path d="m16 2a14 14 0 0 0 -14 14 14 14 0 0 0 14 14 14 14 0 0 0 14 -14 14 14 0 0 0 -14 -14z" style="fill:#4f4f4f"/>
 <path d="m16 2a14 14 0 0 0 -14 14 14 14 0 0 0 0.0215 0.414 14 14 0 0 1 13.978 -13.414 14 14 0 0 1 13.979 13.586 14 14 0 0 0 0.021 -0.586 14 14 0 0 0 -14 -14z" fill="#ffffff" style="opacity:.1"/>
 <path d="m2.0215 16.414a14 14 0 0 0 -0.0215 0.586 14 14 0 0 0 14 14 14 14 0 0 0 14 -14 14 14 0 0 0 -0.021 -0.414 14 14 0 0 1 -13.979 13.414 14 14 0 0 1 -13.978 -13.586z" opacity=".2"/>
 <path d="m19 24.198719c0 0.973668-1.353022 3.801281-3 3.801281-2.056263 0-5-2.241194-5-3.709939 0-1.468743 1.943736-2.290061 4-2.290061 2.056263 0 4 1.158461 4 2.198719zm5.000001-7.687896a2.000001 1.4891763 0 0 1 -2.000001 1.489177 2.000001 1.4891763 0 0 1 -2.000001 -1.489177 2.000001 1.4891763 0 0 1 2.000001 -1.489176 2.000001 1.4891763 0 0 1 2.000001 1.489176zm2.127387-9.1765295s-7.472347 6.4150395-15.509624 6.6657065c-2.2042309 0.068678-3.8155447-0.483887-4.8986827-1-1.0831371-0.516129-2.4541202-1.815392-2.4541202-1.815392l-0.4273084 1.045422s0.7324863 0.690584 1.0852753 0.944351c0.2852238 1.526221 1.4206297 5.825619 6.077072 5.825619 3.942178 0 5.435273-3.210172 5.858447-4.820919 5.841602-1.664664 10.977655-6.0429429 10.977655-6.0429429z" style="opacity:.1"/>
 <path d="m19 23.198719c0 0.973668-1.353022 3.801281-3 3.801281-2.056263 0-5-2.241194-5-3.709939 0-1.468743 1.943736-2.290061 4-2.290061 2.056263 0 4 1.158461 4 2.198719zm5.000001-7.687896c1e-6 0.82245-0.895431 1.489177-2.000001 1.489177s-2.000002-0.666727-2.000001-1.489177c0-0.822449 0.895431-1.489176 2.000001-1.489176s2.000001 0.666727 2.000001 1.489176zm1.568183-8.7164839s-6.913143 5.9549939-14.95042 6.2056609c-2.2042309 0.068678-3.8155447-0.483887-4.8986827-1-1.0831371-0.516129-2.1016279-1.514898-2.1016279-1.514898l-0.4727627 0.991887s0.4254483 0.443625 0.7782373 0.697392c0.2852238 1.526221 1.4206297 5.825619 6.077072 5.825619 3.942178 0 5.435273-3.210172 5.858447-4.820919 5.841602-1.664664 10.449001-5.6410666 10.449001-5.6410666z" style="fill:#e6e6e6"/>
</svg>
