<svg width="32" height="32" version="1" xmlns="http://www.w3.org/2000/svg">
 <path d="m13.419459 3c-0.759531 0-1.414496 0.6244-1.414496 1.4v13.9685l-4.6861409-3.91932c-0.5887923-0.492445-1.4016363-0.548429-1.9386549 0l-0.9693617 0.98987c-0.5370699 0.548432-0.5583086 1.452866 0 1.97967l7.8692885 7.42523c0.880995 3.781561 4.187704 6.152102 7.994269 6.15605 4.543076 0 7.725637-3.760808 7.725637-8.4v-18.2c0-0.7756-0.510655-1.4-1.270186-1.4h-1.370995c-0.75953 0-1.357579 0.6244-1.357579 1.4v7.8981c0-0.497959-0.624879-1.29817-1.38441-1.29817h-0.971473c-0.75953 0-1.642876 0.800218-1.642876 1.29817v0.0055c0-0.500941-0.339582-1.30363-1.099114-1.30363h-1.370994c-0.75953 0-1.528651 0.802696-1.528651 1.30363v-7.9037c0-0.7756-0.453807-1.4-1.213338-1.4h-1.370995z" style="opacity:.2"/>
 <path d="m13.419459 2.00005c-0.759531 0-1.414496 0.6244-1.414496 1.4v13.9685l-4.6861409-3.91932c-0.5887923-0.492445-1.4016363-0.548429-1.9386549 0l-0.9693617 0.98987c-0.5370699 0.548432-0.5583086 1.452866 0 1.97967l7.8692885 7.42523c0.880995 3.781561 4.187704 6.152102 7.994269 6.15605 4.543076 0 7.725637-3.760808 7.725637-8.4v-18.2c0-0.7756-0.510655-1.4-1.270186-1.4h-1.370995c-0.75953 0-1.357579 0.6244-1.357579 1.4v7.8981c0-0.497959-0.624879-1.29817-1.38441-1.29817h-0.971473c-0.75953 0-1.642876 0.800218-1.642876 1.29817v0.0055c0-0.500941-0.339582-1.30363-1.099114-1.30363h-1.370994c-0.75953 0-1.528651 0.802696-1.528651 1.30363v-7.9037c0-0.7756-0.453807-1.4-1.213338-1.4h-1.370995z" style="fill:#fabd7f"/>
 <path d="m13.419922 2c-0.759531 0-1.414063 0.6247906-1.414063 1.4003906v1c0-0.7756 0.654532-1.4003906 1.414063-1.4003906h1.371094c0.759531 0 1.21289 0.6247906 1.21289 1.4003906v-1c0-0.7756-0.453359-1.4003906-1.21289-1.4003906h-1.371094zm11.939453 0c-0.75953 0-1.357422 0.6247906-1.357422 1.4003906v1c0-0.7756 0.597892-1.4003906 1.357422-1.4003906h1.371094c0.759531 0 1.269531 0.6247906 1.269531 1.4003906v-1c0-0.7756-0.51-1.4003906-1.269531-1.4003906h-1.371094zm-7.826172 8c-0.75953 0-1.529297 0.8018-1.529297 1.302734v1c0-0.500934 0.769767-1.302734 1.529297-1.302734h1.371094c0.757783 0 1.096095 0.79766 1.097656 1.298828 0-0.497952 0.883048-1.298828 1.642578-1.298828h0.972657c0.75953 0 1.384765 0.800869 1.384765 1.298828v-1c0-0.497959-0.625235-1.298828-1.384765-1.298828h-0.972657c-0.75953 0-1.642578 0.800876-1.642578 1.298828-0.001561-0.501168-0.339873-1.298828-1.097656-1.298828h-1.371094zm-11.203125 3.058594c-0.3439373-0.006998-0.6807094 0.11641-0.9492187 0.390625l-0.9707032 0.990234c-0.3977455 0.40616-0.510372 1.00718-0.3164062 1.505859 0.06859-0.18451 0.1721147-0.358515 0.3164062-0.505859l0.9707032-0.990234c0.5370186-0.548429 1.3487077-0.492445 1.9375 0l4.6874996 3.919922v-1l-4.6874996-3.919922c-0.2943962-0.246223-0.6443439-0.383627-0.9882813-0.390625z" style="fill:#ffffff;opacity:.2"/>
</svg>
