<svg width="32" height="32" version="1.0" xmlns="http://www.w3.org/2000/svg">
 <rect transform="matrix(0,-1,-1,0,0,0)" x="-31" y="-27" width="27.999977" height="22" rx="1.3999988" ry="1.375" style="opacity:.2"/>
 <text x="877.22626" y="-5.1873989" font-size="12.666px" style="font-family:'Bitstream Vera Sans';font-size:12.666px;opacity:.8" xml:space="preserve"><tspan x="877.22626" y="-5.1873989"/></text>
 <text x="901.18719" y="-45.929108" font-size="12.666px" style="font-family:'Bitstream Vera Sans';font-size:12.666px;opacity:.8" xml:space="preserve"><tspan x="901.18719" y="-45.929108"/></text>
 <text x="-569.37115" y="-76.007248" font-size="12.666px" style="font-family:'Bitstream Vera Sans';font-size:12.666px;opacity:.8" xml:space="preserve"><tspan x="-569.37115" y="-76.007248"/></text>
 <text x="-2393.0571" y="669.5462" font-size="12.666px" style="font-family:'Bitstream Vera Sans';font-size:12.666px;opacity:.8" xml:space="preserve"><tspan x="-2393.0571" y="669.5462"/></text>
 <text x="-454.88007" y="-461.32822" font-size="12.666px" style="font-family:'Bitstream Vera Sans';font-size:12.666px;opacity:.8" xml:space="preserve"><tspan x="-454.88007" y="-461.32822"/></text>
 <text x="352.72208" y="-874.79834" font-size="12.666px" style="font-family:'Bitstream Vera Sans';font-size:12.666px;opacity:.8" xml:space="preserve"><tspan x="352.72208" y="-874.79834"/></text>
 <text x="376.68301" y="-915.54004" font-size="12.666px" style="font-family:'Bitstream Vera Sans';font-size:12.666px;opacity:.8" xml:space="preserve"><tspan x="376.68301" y="-915.54004"/></text>
 <text x="-1114.7802" y="-922.74994" font-size="12.666px" style="font-family:'Bitstream Vera Sans';font-size:12.666px;opacity:.8" xml:space="preserve"><tspan x="-1114.7802" y="-922.74994"/></text>
 <text x="345.7626" y="-1195.9841" font-size="12.666px" style="font-family:'Bitstream Vera Sans';font-size:12.666px;opacity:.8" xml:space="preserve"><tspan x="345.7626" y="-1195.9841"/></text>
 <text x="1831.8861" y="-569.29272" font-size="12.666px" style="font-family:'Bitstream Vera Sans';font-size:12.666px;opacity:.8" xml:space="preserve"><tspan x="1831.8861" y="-569.29272"/></text>
 <text x="1855.8469" y="-610.03448" font-size="12.666px" style="font-family:'Bitstream Vera Sans';font-size:12.666px;opacity:.8" xml:space="preserve"><tspan x="1855.8469" y="-610.03448"/></text>
 <text x="364.38376" y="-617.24438" font-size="12.666px" style="font-family:'Bitstream Vera Sans';font-size:12.666px;opacity:.8" xml:space="preserve"><tspan x="364.38376" y="-617.24438"/></text>
 <text x="1824.9266" y="-890.47839" font-size="12.666px" style="font-family:'Bitstream Vera Sans';font-size:12.666px;opacity:.8" xml:space="preserve"><tspan x="1824.9266" y="-890.47839"/></text>
 <text x="-573.43256" y="-665.33569" font-size="12.666px" style="font-family:'Bitstream Vera Sans';font-size:12.666px;opacity:.8" xml:space="preserve"><tspan x="-573.43256" y="-665.33569"/></text>
 <text x="-2397.1182" y="80.217857" font-size="12.666px" style="font-family:'Bitstream Vera Sans';font-size:12.666px;opacity:.8" xml:space="preserve"><tspan x="-2397.1182" y="80.217857"/></text>
 <text x="-682.36279" y="173.09" font-size="12.666px" style="font-family:'Bitstream Vera Sans';font-size:12.666px;opacity:.8" xml:space="preserve"><tspan x="-682.36279" y="173.09"/></text>
 <text x="426.66153" y="-6.0921478" font-size="12.666px" style="font-family:'Bitstream Vera Sans';font-size:12.666px;opacity:.8" xml:space="preserve"><tspan x="426.66153" y="-6.0921478"/></text>
 <text x="450.62247" y="-46.833855" font-size="12.666px" style="font-family:'Bitstream Vera Sans';font-size:12.666px;opacity:.8" xml:space="preserve"><tspan x="450.62247" y="-46.833855"/></text>
 <text x="-1040.8407" y="-54.043827" font-size="12.666px" style="font-family:'Bitstream Vera Sans';font-size:12.666px;opacity:.8" xml:space="preserve"><tspan x="-1040.8407" y="-54.043827"/></text>
 <text x="419.70206" y="-327.27789" font-size="12.666px" style="font-family:'Bitstream Vera Sans';font-size:12.666px;opacity:.8" xml:space="preserve"><tspan x="419.70206" y="-327.27789"/></text>
 <text x="-608.03253" y="-56.758072" font-size="12.666px" style="font-family:'Bitstream Vera Sans';font-size:12.666px;opacity:.8" xml:space="preserve"><tspan x="-608.03253" y="-56.758072"/></text>
 <text x="-2431.7185" y="688.79541" font-size="12.666px" style="font-family:'Bitstream Vera Sans';font-size:12.666px;opacity:.8" xml:space="preserve"><tspan x="-2431.7185" y="688.79541"/></text>
 <text x="-456.93948" y="-918.28857" font-size="12.666px" style="font-family:'Bitstream Vera Sans';font-size:12.666px;opacity:.8" xml:space="preserve"><tspan x="-456.93948" y="-918.28857"/></text>
 <text x="350.66266" y="-1331.7588" font-size="12.666px" style="font-family:'Bitstream Vera Sans';font-size:12.666px;opacity:.8" xml:space="preserve"><tspan x="350.66266" y="-1331.7588"/></text>
 <text x="374.62357" y="-1372.5005" font-size="12.666px" style="font-family:'Bitstream Vera Sans';font-size:12.666px;opacity:.8" xml:space="preserve"><tspan x="374.62357" y="-1372.5005"/></text>
 <text x="-1116.8396" y="-1379.7104" font-size="12.666px" style="font-family:'Bitstream Vera Sans';font-size:12.666px;opacity:.8" xml:space="preserve"><tspan x="-1116.8396" y="-1379.7104"/></text>
 <text x="343.70316" y="-1652.9446" font-size="12.666px" style="font-family:'Bitstream Vera Sans';font-size:12.666px;opacity:.8" xml:space="preserve"><tspan x="343.70316" y="-1652.9446"/></text>
 <text x="1829.8265" y="-1026.2533" font-size="12.666px" style="font-family:'Bitstream Vera Sans';font-size:12.666px;opacity:.8" xml:space="preserve"><tspan x="1829.8265" y="-1026.2533"/></text>
 <text x="1853.7874" y="-1066.9949" font-size="12.666px" style="font-family:'Bitstream Vera Sans';font-size:12.666px;opacity:.8" xml:space="preserve"><tspan x="1853.7874" y="-1066.9949"/></text>
 <text x="362.32431" y="-1074.2048" font-size="12.666px" style="font-family:'Bitstream Vera Sans';font-size:12.666px;opacity:.8" xml:space="preserve"><tspan x="362.32431" y="-1074.2048"/></text>
 <text x="1822.8671" y="-1347.439" font-size="12.666px" style="font-family:'Bitstream Vera Sans';font-size:12.666px;opacity:.8" xml:space="preserve"><tspan x="1822.8671" y="-1347.439"/></text>
 <text x="-575.492" y="-1122.2961" font-size="12.666px" style="font-family:'Bitstream Vera Sans';font-size:12.666px;opacity:.8" xml:space="preserve"><tspan x="-575.492" y="-1122.2961"/></text>
 <text x="-2399.1777" y="-376.74261" font-size="12.666px" style="font-family:'Bitstream Vera Sans';font-size:12.666px;opacity:.8" xml:space="preserve"><tspan x="-2399.1777" y="-376.74261"/></text>
 <text x="-684.42224" y="-283.87045" font-size="12.666px" style="font-family:'Bitstream Vera Sans';font-size:12.666px;opacity:.8" xml:space="preserve"><tspan x="-684.42224" y="-283.87045"/></text>
 <text x="155.5923" y="-42.956276" font-size="12.666px" style="font-family:'Bitstream Vera Sans';font-size:12.666px;opacity:.8" xml:space="preserve"><tspan x="155.5923" y="-42.956276"/></text>
 <text x="179.55324" y="-83.697998" font-size="12.666px" style="font-family:'Bitstream Vera Sans';font-size:12.666px;opacity:.8" xml:space="preserve"><tspan x="179.55324" y="-83.697998"/></text>
 <text x="-1090.2634" y="-277.72662" font-size="12.666px" style="font-family:'Bitstream Vera Sans';font-size:12.666px;opacity:.8" xml:space="preserve"><tspan x="-1090.2634" y="-277.72662"/></text>
 <text x="-282.66141" y="-691.19678" font-size="12.666px" style="font-family:'Bitstream Vera Sans';font-size:12.666px;opacity:.8" xml:space="preserve"><tspan x="-282.66141" y="-691.19678"/></text>
 <text x="-258.70047" y="-731.93848" font-size="12.666px" style="font-family:'Bitstream Vera Sans';font-size:12.666px;opacity:.8" xml:space="preserve"><tspan x="-258.70047" y="-731.93848"/></text>
 <text x="-1750.1636" y="-739.14838" font-size="12.666px" style="font-family:'Bitstream Vera Sans';font-size:12.666px;opacity:.8" xml:space="preserve"><tspan x="-1750.1636" y="-739.14838"/></text>
 <text x="-289.62085" y="-1012.3825" font-size="12.666px" style="font-family:'Bitstream Vera Sans';font-size:12.666px;opacity:.8" xml:space="preserve"><tspan x="-289.62085" y="-1012.3825"/></text>
 <text x="1196.5026" y="-385.69113" font-size="12.666px" style="font-family:'Bitstream Vera Sans';font-size:12.666px;opacity:.8" xml:space="preserve"><tspan x="1196.5026" y="-385.69113"/></text>
 <text x="1220.4634" y="-426.43286" font-size="12.666px" style="font-family:'Bitstream Vera Sans';font-size:12.666px;opacity:.8" xml:space="preserve"><tspan x="1220.4634" y="-426.43286"/></text>
 <text x="-270.99973" y="-433.64282" font-size="12.666px" style="font-family:'Bitstream Vera Sans';font-size:12.666px;opacity:.8" xml:space="preserve"><tspan x="-270.99973" y="-433.64282"/></text>
 <text x="1189.5431" y="-706.87689" font-size="12.666px" style="font-family:'Bitstream Vera Sans';font-size:12.666px;opacity:.8" xml:space="preserve"><tspan x="1189.5431" y="-706.87689"/></text>
 <text x="-1208.816" y="-481.7341" font-size="12.666px" style="font-family:'Bitstream Vera Sans';font-size:12.666px;opacity:.8" xml:space="preserve"><tspan x="-1208.816" y="-481.7341"/></text>
 <text x="-3032.5017" y="263.81946" font-size="12.666px" style="font-family:'Bitstream Vera Sans';font-size:12.666px;opacity:.8" xml:space="preserve"><tspan x="-3032.5017" y="263.81946"/></text>
 <g transform="matrix(.90475 0 0 .90475 -716.75 -692.29)">
  <text x="-664.2738" y="1159.4154" font-size="14px" style="font-family:'Bitstream Vera Sans';font-size:14px;opacity:.8" xml:space="preserve"><tspan x="-664.2738" y="1159.4154"/></text>
 </g>
 <text x="877.22626" y="2.0505886" font-size="12.666px" style="font-family:'Bitstream Vera Sans';font-size:12.666px;opacity:.8" xml:space="preserve"><tspan x="877.22626" y="2.0505886"/></text>
 <text x="901.18719" y="-38.691116" font-size="12.666px" style="font-family:'Bitstream Vera Sans';font-size:12.666px;opacity:.8" xml:space="preserve"><tspan x="901.18719" y="-38.691116"/></text>
 <text x="-569.37115" y="-68.769257" font-size="12.666px" style="font-family:'Bitstream Vera Sans';font-size:12.666px;opacity:.8" xml:space="preserve"><tspan x="-569.37115" y="-68.769257"/></text>
 <text x="-2393.0571" y="676.78418" font-size="12.666px" style="font-family:'Bitstream Vera Sans';font-size:12.666px;opacity:.8" xml:space="preserve"><tspan x="-2393.0571" y="676.78418"/></text>
 <text x="-454.88007" y="-454.09021" font-size="12.666px" style="font-family:'Bitstream Vera Sans';font-size:12.666px;opacity:.8" xml:space="preserve"><tspan x="-454.88007" y="-454.09021"/></text>
 <text x="352.72208" y="-867.5603" font-size="12.666px" style="font-family:'Bitstream Vera Sans';font-size:12.666px;opacity:.8" xml:space="preserve"><tspan x="352.72208" y="-867.5603"/></text>
 <text x="376.68301" y="-908.30206" font-size="12.666px" style="font-family:'Bitstream Vera Sans';font-size:12.666px;opacity:.8" xml:space="preserve"><tspan x="376.68301" y="-908.30206"/></text>
 <text x="-1114.7802" y="-915.51196" font-size="12.666px" style="font-family:'Bitstream Vera Sans';font-size:12.666px;opacity:.8" xml:space="preserve"><tspan x="-1114.7802" y="-915.51196"/></text>
 <text x="345.7626" y="-1188.7461" font-size="12.666px" style="font-family:'Bitstream Vera Sans';font-size:12.666px;opacity:.8" xml:space="preserve"><tspan x="345.7626" y="-1188.7461"/></text>
 <text x="1831.8861" y="-562.05475" font-size="12.666px" style="font-family:'Bitstream Vera Sans';font-size:12.666px;opacity:.8" xml:space="preserve"><tspan x="1831.8861" y="-562.05475"/></text>
 <text x="1855.8469" y="-602.79651" font-size="12.666px" style="font-family:'Bitstream Vera Sans';font-size:12.666px;opacity:.8" xml:space="preserve"><tspan x="1855.8469" y="-602.79651"/></text>
 <text x="364.38376" y="-610.00641" font-size="12.666px" style="font-family:'Bitstream Vera Sans';font-size:12.666px;opacity:.8" xml:space="preserve"><tspan x="364.38376" y="-610.00641"/></text>
 <text x="1824.9266" y="-883.24036" font-size="12.666px" style="font-family:'Bitstream Vera Sans';font-size:12.666px;opacity:.8" xml:space="preserve"><tspan x="1824.9266" y="-883.24036"/></text>
 <text x="-573.43256" y="-658.09772" font-size="12.666px" style="font-family:'Bitstream Vera Sans';font-size:12.666px;opacity:.8" xml:space="preserve"><tspan x="-573.43256" y="-658.09772"/></text>
 <text x="-2397.1182" y="87.455849" font-size="12.666px" style="font-family:'Bitstream Vera Sans';font-size:12.666px;opacity:.8" xml:space="preserve"><tspan x="-2397.1182" y="87.455849"/></text>
 <text x="-682.36279" y="180.32799" font-size="12.666px" style="font-family:'Bitstream Vera Sans';font-size:12.666px;opacity:.8" xml:space="preserve"><tspan x="-682.36279" y="180.32799"/></text>
 <text x="426.66153" y="1.1458397" font-size="12.666px" style="font-family:'Bitstream Vera Sans';font-size:12.666px;opacity:.8" xml:space="preserve"><tspan x="426.66153" y="1.1458397"/></text>
 <text x="450.62247" y="-39.595863" font-size="12.666px" style="font-family:'Bitstream Vera Sans';font-size:12.666px;opacity:.8" xml:space="preserve"><tspan x="450.62247" y="-39.595863"/></text>
 <text x="-1040.8407" y="-46.805836" font-size="12.666px" style="font-family:'Bitstream Vera Sans';font-size:12.666px;opacity:.8" xml:space="preserve"><tspan x="-1040.8407" y="-46.805836"/></text>
 <text x="419.70206" y="-320.03989" font-size="12.666px" style="font-family:'Bitstream Vera Sans';font-size:12.666px;opacity:.8" xml:space="preserve"><tspan x="419.70206" y="-320.03989"/></text>
 <text x="-608.03253" y="-49.520081" font-size="12.666px" style="font-family:'Bitstream Vera Sans';font-size:12.666px;opacity:.8" xml:space="preserve"><tspan x="-608.03253" y="-49.520081"/></text>
 <text x="-2431.7185" y="696.03345" font-size="12.666px" style="font-family:'Bitstream Vera Sans';font-size:12.666px;opacity:.8" xml:space="preserve"><tspan x="-2431.7185" y="696.03345"/></text>
 <text x="-456.93948" y="-911.0506" font-size="12.666px" style="font-family:'Bitstream Vera Sans';font-size:12.666px;opacity:.8" xml:space="preserve"><tspan x="-456.93948" y="-911.0506"/></text>
 <text x="350.66266" y="-1324.5208" font-size="12.666px" style="font-family:'Bitstream Vera Sans';font-size:12.666px;opacity:.8" xml:space="preserve"><tspan x="350.66266" y="-1324.5208"/></text>
 <text x="374.62357" y="-1365.2626" font-size="12.666px" style="font-family:'Bitstream Vera Sans';font-size:12.666px;opacity:.8" xml:space="preserve"><tspan x="374.62357" y="-1365.2626"/></text>
 <text x="-1116.8396" y="-1372.4724" font-size="12.666px" style="font-family:'Bitstream Vera Sans';font-size:12.666px;opacity:.8" xml:space="preserve"><tspan x="-1116.8396" y="-1372.4724"/></text>
 <text x="343.70316" y="-1645.7065" font-size="12.666px" style="font-family:'Bitstream Vera Sans';font-size:12.666px;opacity:.8" xml:space="preserve"><tspan x="343.70316" y="-1645.7065"/></text>
 <text x="1829.8265" y="-1019.0153" font-size="12.666px" style="font-family:'Bitstream Vera Sans';font-size:12.666px;opacity:.8" xml:space="preserve"><tspan x="1829.8265" y="-1019.0153"/></text>
 <text x="1853.7874" y="-1059.757" font-size="12.666px" style="font-family:'Bitstream Vera Sans';font-size:12.666px;opacity:.8" xml:space="preserve"><tspan x="1853.7874" y="-1059.757"/></text>
 <text x="362.32431" y="-1066.9668" font-size="12.666px" style="font-family:'Bitstream Vera Sans';font-size:12.666px;opacity:.8" xml:space="preserve"><tspan x="362.32431" y="-1066.9668"/></text>
 <text x="1822.8671" y="-1340.2009" font-size="12.666px" style="font-family:'Bitstream Vera Sans';font-size:12.666px;opacity:.8" xml:space="preserve"><tspan x="1822.8671" y="-1340.2009"/></text>
 <text x="-575.492" y="-1115.0581" font-size="12.666px" style="font-family:'Bitstream Vera Sans';font-size:12.666px;opacity:.8" xml:space="preserve"><tspan x="-575.492" y="-1115.0581"/></text>
 <text x="-2399.1777" y="-369.50461" font-size="12.666px" style="font-family:'Bitstream Vera Sans';font-size:12.666px;opacity:.8" xml:space="preserve"><tspan x="-2399.1777" y="-369.50461"/></text>
 <text x="-684.42224" y="-276.63245" font-size="12.666px" style="font-family:'Bitstream Vera Sans';font-size:12.666px;opacity:.8" xml:space="preserve"><tspan x="-684.42224" y="-276.63245"/></text>
 <text x="155.5923" y="-35.718292" font-size="12.666px" style="font-family:'Bitstream Vera Sans';font-size:12.666px;opacity:.8" xml:space="preserve"><tspan x="155.5923" y="-35.718292"/></text>
 <text x="179.55324" y="-76.460007" font-size="12.666px" style="font-family:'Bitstream Vera Sans';font-size:12.666px;opacity:.8" xml:space="preserve"><tspan x="179.55324" y="-76.460007"/></text>
 <text x="-1090.2634" y="-270.48859" font-size="12.666px" style="font-family:'Bitstream Vera Sans';font-size:12.666px;opacity:.8" xml:space="preserve"><tspan x="-1090.2634" y="-270.48859"/></text>
 <text x="-282.66141" y="-683.9588" font-size="12.666px" style="font-family:'Bitstream Vera Sans';font-size:12.666px;opacity:.8" xml:space="preserve"><tspan x="-282.66141" y="-683.9588"/></text>
 <text x="-258.70047" y="-724.7005" font-size="12.666px" style="font-family:'Bitstream Vera Sans';font-size:12.666px;opacity:.8" xml:space="preserve"><tspan x="-258.70047" y="-724.7005"/></text>
 <text x="-1750.1636" y="-731.91046" font-size="12.666px" style="font-family:'Bitstream Vera Sans';font-size:12.666px;opacity:.8" xml:space="preserve"><tspan x="-1750.1636" y="-731.91046"/></text>
 <text x="-289.62085" y="-1005.1445" font-size="12.666px" style="font-family:'Bitstream Vera Sans';font-size:12.666px;opacity:.8" xml:space="preserve"><tspan x="-289.62085" y="-1005.1445"/></text>
 <text x="1196.5026" y="-378.45316" font-size="12.666px" style="font-family:'Bitstream Vera Sans';font-size:12.666px;opacity:.8" xml:space="preserve"><tspan x="1196.5026" y="-378.45316"/></text>
 <text x="1220.4634" y="-419.19489" font-size="12.666px" style="font-family:'Bitstream Vera Sans';font-size:12.666px;opacity:.8" xml:space="preserve"><tspan x="1220.4634" y="-419.19489"/></text>
 <text x="-270.99973" y="-426.40482" font-size="12.666px" style="font-family:'Bitstream Vera Sans';font-size:12.666px;opacity:.8" xml:space="preserve"><tspan x="-270.99973" y="-426.40482"/></text>
 <text x="1189.5431" y="-699.63892" font-size="12.666px" style="font-family:'Bitstream Vera Sans';font-size:12.666px;opacity:.8" xml:space="preserve"><tspan x="1189.5431" y="-699.63892"/></text>
 <text x="-1208.816" y="-474.49609" font-size="12.666px" style="font-family:'Bitstream Vera Sans';font-size:12.666px;opacity:.8" xml:space="preserve"><tspan x="-1208.816" y="-474.49609"/></text>
 <text x="-3032.5017" y="271.05743" font-size="12.666px" style="font-family:'Bitstream Vera Sans';font-size:12.666px;opacity:.8" xml:space="preserve"><tspan x="-3032.5017" y="271.05743"/></text>
 <g transform="matrix(.90475 0 0 .90475 -716.75 -685.05)">
  <text x="-664.2738" y="1159.4154" font-size="14px" style="font-family:'Bitstream Vera Sans';font-size:14px;opacity:.8" xml:space="preserve"><tspan x="-664.2738" y="1159.4154"/></text>
 </g>
 <text x="435.90427" y="-377.22546" font-size="12.666px" style="font-family:'Droid Sans';font-size:12.666px" xml:space="preserve"><tspan x="435.90427" y="-377.22546"/><tspan x="435.90427" y="-361.3924"/></text>
 <text x="901.0882" y="-859.27002" font-size="12.666px" style="font-family:'Bitstream Vera Sans';font-size:12.666px;opacity:.8" xml:space="preserve"><tspan x="901.0882" y="-859.27002"/></text>
 <text x="-922.59778" y="-113.71655" font-size="12.666px" style="font-family:'Bitstream Vera Sans';font-size:12.666px;opacity:.8" xml:space="preserve"><tspan x="-922.59778" y="-113.71655"/></text>
 <text x="1628.1677" y="-1144.2659" font-size="12.666px" style="font-family:'Bitstream Vera Sans';font-size:12.666px;opacity:.8" xml:space="preserve"><tspan x="1628.1677" y="-1144.2659"/></text>
 <text x="1652.1285" y="-1185.0076" font-size="12.666px" style="font-family:'Bitstream Vera Sans';font-size:12.666px;opacity:.8" xml:space="preserve"><tspan x="1652.1285" y="-1185.0076"/></text>
 <text x="160.66542" y="-1192.2175" font-size="12.666px" style="font-family:'Bitstream Vera Sans';font-size:12.666px;opacity:.8" xml:space="preserve"><tspan x="160.66542" y="-1192.2175"/></text>
 <text x="1621.2083" y="-1465.4517" font-size="12.666px" style="font-family:'Bitstream Vera Sans';font-size:12.666px;opacity:.8" xml:space="preserve"><tspan x="1621.2083" y="-1465.4517"/></text>
 <rect transform="matrix(0,-1,-1,0,0,0)" x="-29.999989" y="-27" width="27.999977" height="22" rx="1.3999988" ry="1.375" style="fill:#ff4848"/>
 <path d="m9.7304688 3c0.057871 0.2079536 0.1503911 0.5644531 0.1503906 0.5644531l0.1718746 0.5175781-0.005859 0.0019532 0.011719 0.0351562c0.04381 0.13678 0.07905 0.275082 0.107422 0.4160156 0.02831 0.1409169 0.0495 0.2868079 0.0625 0.4296876 0.01276 0.1429054 0.018095 0.284982 0.015625 0.4277343-0.0021 0.1427712-0.012247 0.2833642-0.029297 0.4238281-0.017 0.1404552-0.040546 0.2780591-0.072266 0.4140626-0.03173 0.136026-0.0709 0.2728795-0.117187 0.4023437-0.0462964 0.1294366-0.097546 0.2542872-0.1582035 0.375-0.060674 0.1207135-0.130213 0.2338928-0.2050781 0.34375l0.0136718-0.0039063c-0.0794677 0.1115808-0.1522547 0.2298297-0.21875 0.3496094-0.0665208 0.1197692-0.1249842 0.2424352-0.1777343 0.3691406-0.0527326 0.1267001-0.1004167 0.2543895-0.1386719 0.3867188-0.038258 0.1323384-0.0668257 0.2676066-0.0898438 0.4042969-0.02307 0.1366742-0.0398479 0.2782433-0.046875 0.4179687-0.0072399 0.1397178-0.0057537 0.2784534 0.0039063 0.4199219 0.00958 0.1414755 0.0295816 0.2857836 0.0566406 0.4277345 0.027031 0.141931 0.060316 0.280776 0.1054688 0.421875 0.037404 0.116763 0.08113 0.231853 0.1289062 0.341797 0.047784 0.109918 0.1007264 0.215627 0.1582031 0.318359 0.1148949 0.205466 0.2474005 0.395917 0.3964844 0.570313 0.1490944 0.174383 0.3167644 0.332397 0.4941404 0.472656 0.177318 0.140247 0.364784 0.262155 0.564453 0.365234 0.199663 0.103067 0.412878 0.185187 0.628907 0.248047 0.216062 0.06285 0.437569 0.1054 0.664062 0.125 0.226492 0.0196 0.452585 0.018898 0.683594-0.007812 0.11551-0.01336 0.232159-0.033094 0.347656-0.058594 0.115531-0.02552 0.23286-0.059586 0.347656-0.097656 0.114763-0.03804 0.227854-0.07638 0.335938-0.125 0.108082-0.0486 0.211466-0.105676 0.3125-0.164063 0.202059-0.116813 0.388946-0.252774 0.560547-0.404297 0.171566-0.151521 0.326778-0.317833 0.464843-0.498047 0.138069-0.180216 0.257829-0.373308 0.359376-0.576171 0.101537-0.202912 0.182185-0.415193 0.24414-0.634766 0.06198-0.219573 0.107546-0.4494599 0.126953-0.6796876 0.01942-0.2302313 0.016495-0.4604333-0.009765-0.6953125-0.01303-0.1174399-0.031561-0.2360759-0.056641-0.3535157-0.02505-0.117485-0.058323-0.2367564-0.095703-0.3535156-0.04519-0.1411066-0.09975-0.2753599-0.160156-0.40625-0.06038-0.1308851-0.126941-0.2549515-0.201172-0.375-0.074244-0.1200346-0.153476-0.2370855-0.240235-0.3457031-0.086728-0.1086098-0.179431-0.2100309-0.277343-0.3066406-0.097943-0.0965866-0.200835-0.1875557-0.308594-0.2714844-0.107759-0.0839553-0.221646-0.1617492-0.337891-0.2324219-0.116256-0.0707062-0.235966-0.1345802-0.359375-0.1914062-0.123412-0.0568497-0.251632-0.1060806-0.380859-0.1484375l0.021484-0.0078125c-0.124431-0.0437936-0.245712-0.0932779-0.365234-0.1542969-0.11953-0.0609888-0.236472-0.1323981-0.349609-0.2089844-0.11313-0.0766086-0.222834-0.1613346-0.328126-0.2519531-0.105259-0.0906287-0.206807-0.1879785-0.302734-0.2910156-0.095935-0.1030413-0.186373-0.2103632-0.271484-0.3242188-0.085123-0.1138829-0.163504-0.2343241-0.236328-0.3574218-0.072819-0.1230992-0.142138-0.2501227-0.201172-0.3808594-0.044988-0.0996176-0.082815-0.2012437-0.119141-0.3046875l0.005859-0.0019531-0.220703-0.6640626s-0.02574-0.093765-0.03125-0.1132812h-1.4316402zm9.9589842 7.001953c-0.139608-0.0058099-0.280672-0.001234-0.421875 0.009766-0.141214 0.01089-0.282334 0.030284-0.423828 0.058593-0.141518 0.02831-0.281373 0.062921-0.421875 0.109376-0.116267 0.038429-0.230479 0.08403-0.339844 0.132812-0.109334 0.04878-0.216294 0.101791-0.318359 0.160156-0.204149 0.116739-0.391672 0.251722-0.564453 0.402344-0.172786 0.150645-0.328375 0.315552-0.466797 0.494141-0.138434 0.178581-0.262183 0.369738-0.363281 0.570312-0.101079 0.200554-0.181385 0.412323-0.242188 0.628906-0.06076 0.216582-0.09974 0.441334-0.117187 0.667969-0.01751 0.226641-0.011252 0.454806 0.017578 0.685547 0.01441 0.115374 0.032044 0.230436 0.058594 0.345703 0.02654 0.115288 0.060559 0.231269 0.099609 0.345703 0.03905 0.114415 0.08131 0.226358 0.130859 0.333985 0.04953 0.107636 0.106726 0.212002 0.166016 0.3125 0.118537 0.200983 0.255282 0.386436 0.408203 0.55664 0.152928 0.170192 0.322631 0.324507 0.503906 0.460938 0.181275 0.13643 0.374556 0.255756 0.578125 0.355468 0.203606 0.09969 0.414904 0.178278 0.634766 0.238282 0.219888 0.06 0.447546 0.0998 0.677734 0.117187 0.230114 0.01736 0.464882 0.014628 0.699219-0.013672 0.117165-0.01415 0.232532-0.034457 0.349609-0.060547 0.117095-0.026109 0.235295-0.061169 0.351563-0.099609 0.140506-0.04645 0.276089-0.100557 0.40625-0.162109 0.13016-0.06154 0.253828-0.12782 0.373047-0.203125 0.119208-0.0753 0.232166-0.156426 0.339844-0.244141 0.10769-0.0877 0.211079-0.180513 0.30664-0.279297 0.09556-0.09878 0.18474-0.205941 0.267578-0.314453 0.08284-0.108493 0.157039-0.221022 0.226563-0.33789 0.06953-0.116878 0.133831-0.237418 0.189453-0.361329 0.05563-0.123889 0.103386-0.251258 0.144531-0.380859l0.007813 0.019531c0.04256-0.12481 0.09255-0.24518 0.152343-0.365234 0.05982-0.120066 0.129622-0.239687 0.205079-0.353516 0.07545-0.113807 0.160472-0.22401 0.25-0.330078 0.089529-0.106072 0.185075-0.207826 0.287109-0.304687 0.102002-0.09684 0.207369-0.191228 0.320312-0.277344 0.11293-0.08614 0.233197-0.164366 0.355469-0.238281 0.122273-0.07392 0.248885-0.140941 0.378906-0.201172 0.09829-0.04551 0.198603-0.08597 0.300782-0.123047l0.003906 0.005859c0.598706-0.120915 1.155703-0.124781 1.798828-0.125v-1.392578c-0.650132 5.48e-4 -1.320767 0.0078-2.115234 0.158203l-0.003907-0.005859-0.033203 0.011719c-0.136203 0.04503-0.277494 0.08367-0.417968 0.113281-0.140482 0.02958-0.281211 0.050153-0.423829 0.064453-0.142612 0.01428-0.285135 0.022164-0.427734 0.021484-0.142612-7.7e-4 -0.285343-0.011593-0.425781-0.027343-0.14045-0.01572-0.277917-0.035917-0.414063-0.066407-0.136146-0.03052-0.272625-0.07206-0.402343-0.117187-0.129724-0.0451-0.253893-0.09277-0.375-0.152344-0.121129-0.05958-0.237243-0.129273-0.347657-0.203125l0.00586 0.015625c-0.112224-0.07853-0.231319-0.153345-0.351563-0.21875-0.120249-0.06543-0.242103-0.120272-0.36914-0.171875-0.127039-0.05159-0.258093-0.09967-0.390626-0.136719-0.132518-0.03705-0.265622-0.064127-0.402343-0.085937-0.136715-0.0218-0.2764-0.037189-0.416016-0.042969zm-10.324219 4c-0.1160088 0.0026-0.2343938 0.009298-0.3515625 0.023438-0.1171652 0.01414-0.2344729 0.03641-0.3515625 0.0625-0.1170826 0.0261-0.2333227 0.057283-0.3496094 0.095703-0.1405074 0.04646-0.2741299 0.100551-0.4042969 0.162109-0.130153 0.06154-0.2557992 0.131695-0.375 0.207031-0.1192253 0.0753-0.2321656 0.154472-0.3398437 0.242188-0.107697 0.08771-0.211085 0.184421-0.3066406 0.283203-0.095567 0.09878-0.18474 0.200073-0.2675782 0.308594-0.082844 0.108495-0.158999 0.221014-0.2285156 0.33789-0.069527 0.116884-0.1299251 0.237393-0.1855469 0.361329-0.055647 0.123896-0.1073545 0.251232-0.1484375 0.380859l-0.0058594-0.017578c-0.042582 0.124816-0.094503 0.24517-0.1542968 0.365234-0.0598114 0.120072-0.1257162 0.239697-0.2011719 0.353516-0.1784382 0.222427-0.4224234 0.339741-0.6953125 0.40625v2.220703c0.130333-1.72e-4 0.4142086-3.8e-5 0.421875 0 0.1426115 7.7e-4 0.283353 0.007697 0.4238281 0.023437 0.1404318 0.01573 0.2779035 0.03787 0.4140625 0.06836 0.1361456 0.03051 0.2726325 0.06814 0.4023438 0.113281 0.1297116 0.04513 0.2538721 0.09866 0.375 0.158203 0.1211216 0.05958 0.2372705 0.123418 0.3476562 0.197266l-0.0058594-0.013672c0.1121715 0.07852 0.2313327 0.15139 0.3515626 0.216797 0.1202569 0.06544 0.2421089 0.122216 0.3691406 0.173828 0.1270443 0.05159 0.2581074 0.097719 0.390625 0.134766 0.1325246 0.03706 0.2656611 0.062174 0.4023437 0.083984 0.1367218 0.02181 0.2783526 0.041085 0.4179688 0.046875 0.1396093 0.0058 0.2787193 0.001134 0.4199219-0.009766 0.1412023-0.01088 0.2823292-0.02831 0.4238282-0.05664 0.141512-0.02831 0.281342-0.064859 0.421875-0.111329 0.116255-0.03844 0.232419-0.08404 0.341797-0.132812 0.10934-0.04878 0.214334-0.101787 0.316406-0.160156 0.204143-0.116743 0.393626-0.251729 0.566406-0.402344 0.172787-0.150653 0.328388-0.319449 0.466797-0.498047 0.13844-0.17859 0.26023-0.367767 0.361328-0.568359 0.101079-0.200562 0.179496-0.412312 0.240235-0.628906 0.06076-0.216596 0.101696-0.437434 0.11914-0.664063 0.01745-0.226654 0.015148-0.456748-0.013672-0.6875-0.01448-0.115379-0.033937-0.232399-0.060547-0.347656-0.02654-0.115305-0.06244-0.231282-0.101562-0.345703-0.03905-0.114422-0.08131-0.224392-0.130859-0.332032-0.04955-0.10764-0.108679-0.210065-0.167969-0.310546-0.118543-0.201001-0.253348-0.388365-0.40625-0.558594-0.152934-0.170198-0.322606-0.324501-0.503906-0.460938-0.18127-0.136432-0.374538-0.253805-0.578125-0.353515-0.2036-0.0997-0.416851-0.180222-0.636719-0.240235-0.219882-0.06-0.4476202-0.09983-0.6777345-0.117187-0.1150603-0.0087-0.2296936-0.012306-0.3457031-0.009766zm7.0917966 3.027344c-0.114688 0.0014-0.230203 0.008104-0.345703 0.021484-0.115499 0.01337-0.232137 0.031151-0.347656 0.056641-0.115518 0.02552-0.230912 0.059606-0.345703 0.097656-0.114765 0.03804-0.227866 0.08028-0.335938 0.128906-0.108078 0.04859-0.209515 0.103709-0.310547 0.16211-0.202055 0.116813-0.390918 0.252776-0.5625 0.404297-0.171568 0.151522-0.326782 0.317834-0.464843 0.498047-0.13806 0.180216-0.259786 0.373281-0.361329 0.576171-0.10152 0.202911-0.182126 0.417153-0.24414 0.636719-0.06197 0.219584-0.107547 0.445555-0.126953 0.675781-0.01941 0.230232-0.016475 0.464344 0.009765 0.699219 0.01306 0.11744 0.033584 0.234109 0.058594 0.351563 0.02505 0.117485 0.05636 0.236756 0.09375 0.353515 0.04519 0.141108 0.09976 0.275361 0.160156 0.40625 0.06037 0.130886 0.126945 0.256885 0.201172 0.376953 0.07423 0.120056 0.153493 0.233179 0.240235 0.341797 0.08674 0.108637 0.179428 0.213949 0.277343 0.310547 0.09792 0.09659 0.202786 0.185587 0.310547 0.269531 0.107749 0.08395 0.219699 0.159777 0.335938 0.230469 0.116257 0.0707 0.235975 0.13654 0.359375 0.193359 0.1234 0.056851 0.251656 0.108048 0.380859 0.150391l-0.021484 0.003906c0.124432 0.04378 0.245712 0.097221 0.365234 0.158203 0.119524 0.061 0.236481 0.128482 0.349609 0.205079 0.113131 0.07661 0.224811 0.163281 0.330079 0.253906 0.10526 0.09062 0.204845 0.187995 0.300781 0.291015 0.09592 0.103039 0.190282 0.212299 0.27539 0.326172 0.08512 0.113864 0.16156 0.232373 0.234376 0.355469 0.07281 0.123099 0.140186 0.24817 0.199218 0.378906 0.04493 0.0995 0.08276 0.201345 0.119141 0.304688l-0.007813 0.003906 0.226563 0.666016s0.416042 1.335701 0.591797 3.082031h1.408203c-0.182723-2.015844-0.6914-3.537103-0.691406-3.537109l-0.173829-0.513672 0.007813-0.001953-0.011719-0.03711c-0.0438-0.136775-0.077171-0.277045-0.105468-0.417968-0.028331-0.140918-0.051454-0.280913-0.064454-0.423829-0.01277-0.14291-0.015531-0.286935-0.013672-0.429687 0.0021-0.142776 0.012317-0.285324 0.029297-0.425781 0.017-0.140474 0.040546-0.279997 0.072266-0.416016 0.03174-0.136022 0.070911-0.270943 0.117187-0.400391 0.0463-0.129444 0.09755-0.254294 0.158204-0.375 0.06067-0.120717 0.130223-0.235856 0.205078-0.345703l-0.015625 0.007813c0.07954-0.111567 0.152257-0.231784 0.21875-0.351563 0.06651-0.119767 0.124986-0.24244 0.177734-0.36914 0.05274-0.126705 0.100418-0.256342 0.138672-0.388672 0.03825-0.132337 0.066824-0.265669 0.089844-0.402344 0.02295-0.136674 0.037892-0.276291 0.044922-0.416016 0.0068-0.139711 0.0097-0.280407 0-0.421875-0.0096-0.141477-0.031534-0.28385-0.058594-0.425781-0.02703-0.141943-0.06032-0.28273-0.105469-0.423828-0.03739-0.116764-0.07912-0.229909-0.126953-0.339844-0.04781-0.109927-0.102683-0.217581-0.160156-0.320312-0.114903-0.205468-0.247402-0.395932-0.396485-0.570313-0.149083-0.174384-0.314846-0.332401-0.492187-0.472656-0.177336-0.140252-0.364798-0.262156-0.564453-0.365234-0.199647-0.103068-0.410913-0.18714-0.626953-0.25-0.216038-0.06285-0.437581-0.105407-0.664063-0.125-0.113241-0.0098-0.22711-0.013129-0.341797-0.011719z" style="opacity:.2"/>
 <path d="m9.7304688 2c0.057871 0.2079536 0.1503911 0.5644531 0.1503906 0.5644531l0.1718746 0.5175781-0.005859 0.0019532 0.011719 0.0351562c0.04381 0.13678 0.079053 0.275082 0.107422 0.4160156 0.02831 0.1409169 0.0495 0.2868079 0.0625 0.4296876 0.01276 0.1429054 0.018105 0.284982 0.015625 0.4277343-0.0021 0.1427712-0.012247 0.2833641-0.029297 0.4238281-0.017 0.1404552-0.040546 0.2780591-0.072266 0.4140626-0.03173 0.136026-0.070898 0.2728795-0.117187 0.4023437-0.0462958 0.1294366-0.0975456 0.2542872-0.1582035 0.375-0.060674 0.1207135-0.130213 0.2338928-0.2050781 0.34375l0.0136718-0.0039063c-0.0795095 0.1115736-0.1522547 0.2298297-0.21875 0.3496094-0.0665209 0.1197692-0.1249842 0.2424352-0.1777343 0.3691406-0.0527326 0.1267-0.1004167 0.2543895-0.1386719 0.3867188-0.038258 0.1323384-0.0668257 0.2676066-0.0898438 0.4042969-0.0230699 0.1366742-0.0398479 0.2782433-0.046875 0.4179687-0.0072399 0.1397178-0.0057537 0.2784534 0.0039063 0.4199219 0.00958 0.1414755 0.0295816 0.2857837 0.0566406 0.4277344 0.027031 0.1419312 0.0603158 0.280776 0.1054688 0.421875 0.037404 0.116763 0.0811303 0.2318528 0.1289062 0.3417969 0.047784 0.1099179 0.1007263 0.2156272 0.1582031 0.3183592 0.1148949 0.205466 0.2474005 0.395917 0.3964844 0.570313 0.1490944 0.174383 0.3167644 0.332397 0.4941404 0.472656 0.177318 0.140247 0.364784 0.262155 0.564453 0.365234 0.199663 0.103067 0.412878 0.185187 0.628907 0.248047 0.216062 0.06285 0.437569 0.1054 0.664062 0.125 0.226492 0.0196 0.452585 0.018908 0.683594-0.007812 0.11551-0.01336 0.232159-0.033094 0.347656-0.058594 0.115531-0.02552 0.23286-0.059586 0.347656-0.097656 0.114763-0.03804 0.227854-0.076379 0.335938-0.125 0.108082-0.0486 0.211466-0.105676 0.3125-0.164063 0.202059-0.116813 0.388946-0.252774 0.560547-0.404297 0.171566-0.151521 0.326777-0.317833 0.464843-0.498047 0.138068-0.180216 0.25783-0.373307 0.359376-0.576171 0.101538-0.2029109 0.182185-0.4151927 0.24414-0.6347661 0.06198-0.219573 0.107546-0.4494598 0.126953-0.6796875 0.01942-0.2302313 0.016455-0.4604333-0.009765-0.6953125-0.013028-0.1174399-0.031564-0.236076-0.056641-0.3535157-0.025047-0.1174851-0.058317-0.2367564-0.095703-0.3535156-0.045186-0.1411066-0.099751-0.2753599-0.160156-0.40625-0.060383-0.1308851-0.126941-0.2549515-0.201172-0.375-0.074271-0.1200226-0.153476-0.2370855-0.240235-0.3457031-0.086728-0.1086098-0.179431-0.2100309-0.277343-0.3066406-0.097943-0.0965866-0.200835-0.1875557-0.308594-0.2714844-0.107759-0.0839553-0.221646-0.1617492-0.337891-0.2324219-0.116256-0.0707062-0.235966-0.1345802-0.359375-0.1914062-0.123412-0.0568497-0.251632-0.1060806-0.380859-0.1484375l0.021484-0.0078125c-0.124435-0.0437911-0.245712-0.0932779-0.365234-0.1542969-0.11953-0.0609888-0.236471-0.1323981-0.349609-0.2089844-0.11313-0.0766086-0.222835-0.1613346-0.328126-0.2519531-0.105259-0.0906287-0.206807-0.1879785-0.302734-0.2910156-0.095935-0.1030413-0.186373-0.2103632-0.271484-0.3242188-0.085123-0.1138829-0.163504-0.2343241-0.236328-0.3574218-0.072819-0.1230992-0.142138-0.2501227-0.201172-0.3808594-0.044988-0.0996176-0.082815-0.2012437-0.119141-0.3046875l0.005859-0.0019531-0.220703-0.6640626s-0.025745-0.0937651-0.03125-0.1132812h-1.4316402zm9.9589842 7.0019531c-0.139608-0.00581-0.280672-0.0012044-0.421875 0.0097657-0.141214 0.010892-0.282334 0.0302787-0.423828 0.0585937-0.141518 0.028308-0.281373 0.0629161-0.421875 0.109375-0.116267 0.03843-0.230479 0.0840316-0.339844 0.1328125-0.109334 0.048783-0.216294 0.101791-0.318359 0.1601562-0.204149 0.116739-0.391672 0.2517214-0.564453 0.4023438-0.172786 0.150645-0.328375 0.315552-0.466797 0.494141-0.138434 0.178581-0.262183 0.369738-0.363281 0.570312-0.101079 0.200554-0.181385 0.412323-0.242188 0.628906-0.06076 0.216582-0.099743 0.441334-0.117187 0.667969-0.01751 0.226641-0.011252 0.454806 0.017578 0.685547 0.01441 0.115374 0.032043 0.230436 0.058594 0.345703 0.02654 0.115288 0.060559 0.231269 0.099609 0.345703 0.03905 0.114415 0.08131 0.226358 0.130859 0.333985 0.04953 0.107636 0.106726 0.212002 0.166016 0.3125 0.118537 0.200983 0.255282 0.386436 0.408203 0.55664 0.152928 0.170192 0.322631 0.324507 0.503906 0.460938 0.181275 0.13643 0.374556 0.255756 0.578125 0.355468 0.203606 0.099691 0.414904 0.178278 0.634766 0.238282 0.219888 0.06 0.447546 0.0998 0.677734 0.117187 0.230114 0.01736 0.464882 0.014628 0.699219-0.013672 0.117165-0.01415 0.232532-0.034455 0.349609-0.060547 0.117095-0.026108 0.235295-0.061169 0.351563-0.099609 0.140506-0.04645 0.276089-0.100557 0.40625-0.162109 0.13016-0.06154 0.253828-0.12782 0.373047-0.203125 0.119208-0.0753 0.232166-0.156426 0.339844-0.244141 0.10769-0.0877 0.211079-0.180513 0.30664-0.279297 0.09556-0.09878 0.18474-0.205941 0.267578-0.314453 0.08284-0.108493 0.157039-0.221022 0.226563-0.33789 0.06953-0.116878 0.133831-0.237418 0.189453-0.361329 0.05563-0.123889 0.103386-0.251258 0.144531-0.380859l0.007813 0.019531c0.04256-0.12481 0.092545-0.24518 0.152343-0.365234 0.05982-0.120066 0.129623-0.239687 0.205079-0.353516 0.07545-0.113807 0.160473-0.22401 0.25-0.330078 0.089529-0.106072 0.185075-0.207826 0.287109-0.304687 0.102002-0.09684 0.207369-0.191228 0.320312-0.277344 0.11293-0.08614 0.233197-0.164366 0.355469-0.238281 0.122273-0.07392 0.248885-0.140941 0.378906-0.201172 0.09829-0.04551 0.198603-0.085967 0.300782-0.123047l0.003906 0.005859c0.598686-0.120847 1.155703-0.124781 1.798828-0.125v-1.3925779c-0.650132 5.48e-4 -1.320767 0.0077776-2.115234 0.1582029l-0.003907-0.0058591-0.033203 0.0117191c-0.136203 0.04503-0.277493 0.083671-0.417968 0.113281-0.140482 0.02958-0.281211 0.050153-0.423829 0.064453-0.142612 0.01428-0.285135 0.022164-0.427734 0.021484-0.142612-7.7e-4 -0.285343-0.011593-0.425781-0.027343-0.14045-0.01572-0.277917-0.035917-0.414063-0.066407-0.136146-0.03052-0.272625-0.072059-0.402343-0.1171871-0.129724-0.0451029-0.253892-0.0927738-0.375-0.1523438-0.121129-0.0595769-0.237243-0.1292729-0.347657-0.203125l0.00586 0.015625c-0.112224-0.0785266-0.231319-0.1533456-0.351563-0.21875-0.120249-0.065429-0.242103-0.1202724-0.36914-0.171875-0.127039-0.05159-0.258094-0.0996745-0.390626-0.1367187-0.132518-0.037051-0.265622-0.0641345-0.402343-0.0859375-0.136715-0.021798-0.2764-0.0371868-0.416016-0.0429688zm-10.324219 3.9999999c-0.1160088 0.0026-0.2343938 0.009288-0.3515625 0.023438-0.1171652 0.01414-0.2344729 0.03641-0.3515625 0.0625-0.1170826 0.0261-0.2333227 0.057283-0.3496094 0.095703-0.1405074 0.04646-0.2741299 0.100551-0.4042969 0.162109-0.130153 0.06154-0.2557992 0.131695-0.375 0.207031-0.1192253 0.0753-0.2321656 0.154472-0.3398437 0.242188-0.107697 0.08771-0.211085 0.184421-0.3066406 0.283203-0.095567 0.09878-0.18474 0.200073-0.2675782 0.308594-0.082844 0.108495-0.158999 0.221014-0.2285156 0.33789-0.069527 0.116884-0.1299251 0.237394-0.1855469 0.361329-0.055647 0.123897-0.1073545 0.251232-0.1484375 0.380859l-0.0058594-0.017578c-0.0425819 0.124816-0.0945029 0.24517-0.1542968 0.365234-0.059812 0.120069-0.1257162 0.239697-0.2011719 0.353516-0.1784382 0.222427-0.4224234 0.339741-0.6953125 0.40625v2.220703c0.130333-1.72e-4 0.4142086-3.8e-5 0.421875 0 0.1426115 7.7e-4 0.283353 0.007727 0.4238281 0.023437 0.1404318 0.01573 0.2779035 0.03787 0.4140625 0.06836 0.1361456 0.03051 0.2726325 0.068144 0.4023438 0.113281 0.1297116 0.04513 0.2538721 0.098657 0.375 0.158203 0.1211216 0.05958 0.2372705 0.123418 0.3476562 0.197266l-0.0058594-0.013672c0.1121715 0.07852 0.2313328 0.15139 0.3515626 0.216797 0.120257 0.06544 0.2421089 0.122216 0.3691406 0.173828 0.1270443 0.05159 0.2581074 0.097722 0.390625 0.134766 0.1325246 0.03706 0.2656611 0.062174 0.4023437 0.083984 0.1367218 0.02181 0.2783526 0.041085 0.4179688 0.046875 0.1396093 0.0058 0.2787193 0.001134 0.4199219-0.009766 0.1412024-0.01088 0.2823292-0.02831 0.4238282-0.05664 0.141512-0.02831 0.281342-0.06486 0.421875-0.111329 0.116255-0.03844 0.232419-0.084042 0.341797-0.132812 0.10934-0.04878 0.214334-0.101787 0.316406-0.160156 0.204143-0.116743 0.393626-0.251729 0.566406-0.402344 0.172787-0.150653 0.328388-0.319449 0.466797-0.498047 0.13844-0.17859 0.26023-0.367767 0.361328-0.568359 0.101079-0.200562 0.179496-0.412311 0.240235-0.628906 0.06076-0.216595 0.101696-0.437434 0.11914-0.664063 0.01745-0.226654 0.015148-0.456748-0.013672-0.6875-0.01448-0.115379-0.033937-0.232399-0.060547-0.347656-0.026539-0.115305-0.062441-0.231282-0.101562-0.345703-0.03905-0.114422-0.081309-0.224392-0.130859-0.332032s-0.108679-0.210065-0.167969-0.310546c-0.118543-0.201001-0.253348-0.388365-0.40625-0.558594-0.152934-0.170198-0.322606-0.324501-0.503906-0.460938-0.18127-0.136432-0.374538-0.253805-0.578125-0.353515-0.2036-0.0997-0.416851-0.180222-0.636719-0.240235-0.219882-0.06-0.4476202-0.099833-0.6777345-0.117187-0.1150603-0.0087-0.2296936-0.012336-0.3457031-0.009766zm7.0917966 3.027344c-0.114688 0.0014-0.230203 0.008114-0.345703 0.021484-0.115499 0.01337-0.232137 0.031151-0.347656 0.056641-0.115518 0.02552-0.230912 0.059606-0.345703 0.097656-0.114765 0.03804-0.227866 0.080283-0.335938 0.128906-0.108078 0.04859-0.209515 0.103709-0.310547 0.16211-0.202055 0.116813-0.390918 0.252776-0.5625 0.404297-0.171568 0.151522-0.326782 0.317834-0.464843 0.498047-0.13806 0.180216-0.259787 0.373281-0.361329 0.576171-0.10152 0.202911-0.182126 0.417153-0.24414 0.636719-0.06197 0.219584-0.107547 0.445555-0.126953 0.675781-0.01941 0.230232-0.016445 0.464344 0.009765 0.699219 0.01306 0.11744 0.033584 0.234109 0.058594 0.351563 0.02505 0.117485 0.05636 0.236756 0.09375 0.353515 0.04519 0.141108 0.099755 0.275361 0.160156 0.40625 0.06037 0.130886 0.126945 0.256885 0.201172 0.376953 0.07423 0.120056 0.153493 0.233179 0.240235 0.341797 0.08674 0.108637 0.179428 0.213949 0.277343 0.310547 0.09792 0.09659 0.202786 0.185587 0.310547 0.269531 0.107749 0.08395 0.219699 0.159777 0.335938 0.230469 0.116257 0.0707 0.235975 0.13654 0.359375 0.193359 0.1234 0.056851 0.251656 0.108048 0.380859 0.150391l-0.021484 0.003906c0.124432 0.04378 0.245712 0.097218 0.365234 0.158203 0.119524 0.061 0.23648 0.128482 0.349609 0.205079 0.11313 0.07661 0.224811 0.163281 0.330079 0.253906 0.10526 0.09062 0.204845 0.187995 0.300781 0.291015 0.09592 0.103038 0.190282 0.212299 0.27539 0.326172 0.08512 0.113864 0.16156 0.232373 0.234376 0.355469 0.07281 0.123099 0.140186 0.24817 0.199218 0.378906 0.04493 0.0995 0.082756 0.201345 0.119141 0.304688l-0.007813 0.003906 0.226563 0.666016s0.6107 1.849611 0.675781 4.082031h1.384766c-0.06525-2.49418-0.751946-4.537102-0.751953-4.537109l-0.173829-0.513672 0.007813-0.001953-0.011719-0.03711c-0.0438-0.136775-0.077165-0.277044-0.105468-0.417968-0.028331-0.140917-0.051454-0.280913-0.064454-0.423829-0.01277-0.14291-0.01553-0.286935-0.013672-0.429687 0.0021-0.142776 0.012317-0.285324 0.029297-0.425781 0.017-0.140474 0.040546-0.279997 0.072266-0.416016 0.03174-0.136022 0.070911-0.270943 0.117187-0.400391 0.0463-0.129444 0.09755-0.254294 0.158204-0.375 0.06067-0.120717 0.130223-0.235856 0.205078-0.345703l-0.015625 0.007813c0.07954-0.111567 0.152257-0.231784 0.21875-0.351563 0.06651-0.119767 0.124986-0.24244 0.177734-0.36914 0.05274-0.126705 0.100418-0.256342 0.138672-0.388672 0.03825-0.132337 0.066824-0.265669 0.089844-0.402344 0.02295-0.136674 0.037892-0.276291 0.044922-0.416016 0.0068-0.139711 0.0097-0.280407 0-0.421875-0.0096-0.141477-0.031534-0.28385-0.058594-0.425781-0.02703-0.141943-0.060319-0.28273-0.105469-0.423828-0.03739-0.116764-0.079115-0.229909-0.126953-0.339844-0.04781-0.109927-0.102683-0.217581-0.160156-0.320312-0.114903-0.205468-0.247402-0.395932-0.396485-0.570313-0.149083-0.174384-0.314846-0.332401-0.492187-0.472656-0.177336-0.140252-0.364798-0.262156-0.564453-0.365234-0.199647-0.103068-0.410913-0.18714-0.626953-0.25-0.216038-0.06285-0.437581-0.105407-0.664063-0.125-0.113241-0.0098-0.22711-0.013129-0.341797-0.011719z" style="fill:#ffffff"/>
 <path d="m26.387677 3.2755849 0.0123 6.6896428v-6.5652288c0-0.04261-0.0086-0.082796-0.01231-0.124414z" style="fill:#ffffff"/>
 <path d="m6.375 2c-0.76175 0-1.375 0.6247913-1.375 1.4003906v1c0-0.7755993 0.61325-1.4003906 1.375-1.4003906h19.25c0.76175 0 1.375 0.6247913 1.375 1.4003906v-1c0-0.7755993-0.61325-1.4003906-1.375-1.4003906h-19.25z" style="fill:#ffffff;opacity:.2"/>
</svg>
