<svg width="32" height="32" version="1" xmlns="http://www.w3.org/2000/svg">
 <path d="m2 26.5v1c0 0.831 0.669 1.5 1.5 1.5h25c0.831 0 1.5-0.669 1.5-1.5v-1c0 0.831-0.669 1.5-1.5 1.5h-25c-0.831 0-1.5-0.669-1.5-1.5z" style="opacity:.2"/>
 <rect x="2" y="4" width="28" height="24" rx="1.5" ry="1.5" style="fill:#4f4f4f"/>
 <path d="m3.5 4c-0.831 0-1.5 0.669-1.5 1.5v1c0-0.831 0.669-1.5 1.5-1.5h25c0.831 0 1.5 0.669 1.5 1.5v-1c0-0.831-0.669-1.5-1.5-1.5h-25z" style="fill:#ffffff;opacity:.1"/>
 <path d="m6 8v1h-0.5c-0.831 0-1.5 0.669-1.5 1.5s0.669 1.5 1.5 1.5h0.5v1h-1.9082c0.206 0.582 0.754 1 1.4082 1h0.5v1h1v-1h0.5c0.831 0 1.5-0.669 1.5-1.5s-0.669-1.5-1.5-1.5h-0.5v-1h1.9082c-0.206-0.582-0.754-1-1.408-1h-0.5v-1h-1zm-0.5 2h0.5v1h-0.5c-0.277 0-0.5-0.223-0.5-0.5s0.223-0.5 0.5-0.5zm1.5 2h0.5c0.277 0 0.5 0.223 0.5 0.5s-0.2233 0.513-0.5 0.5h-0.5zm4 2v1h6v-1z" style="opacity:.2"/>
 <path d="m6 7v1h-0.5c-0.831 0-1.5 0.669-1.5 1.5s0.669 1.5 1.5 1.5h0.5v1h-1.9082c0.206 0.582 0.754 1 1.4082 1h0.5v1h1v-1h0.5c0.831 0 1.5-0.669 1.5-1.5s-0.669-1.5-1.5-1.5h-0.5v-1h1.9082c-0.206-0.582-0.754-1-1.408-1h-0.5v-1h-1zm-0.5 2h0.5v1h-0.5c-0.277 0-0.5-0.223-0.5-0.5s0.223-0.5 0.5-0.5zm1.5 2h0.5c0.277 0 0.5 0.223 0.5 0.5s-0.2233 0.513-0.5 0.5h-0.5zm4 2v1h6v-1z" style="fill:#ffffff"/>
 <circle cx="24" cy="23.001" r="8" style="fill-rule:evenodd;fill:#bb46da"/>
 <g transform="translate(-404,-46.998)" style="enable-background:new;fill:#ffffff">
  <path d="m424 66h0.67187c4.05 0 7.33 3.278 7.33 7.328v0.672h-0.67188c-0.36436 0-0.65625-0.30511-0.65625-0.67188 0-3.3137-2.6863-6-6-6-0.36 0-0.67-0.289-0.67-0.656v-0.672z"/>
  <path d="m424 68.672h0.67187c2.5773 0 4.6562 2.0789 4.6562 4.6562v0.67188h-0.65625c-0.36 0-0.67-0.305-0.67-0.672 0-1.841-1.49-3.328-3.33-3.328-0.36 0-0.67-0.305-0.67-0.672v-0.65625z"/>
  <path d="m425.33 71.328c0.73638 0 1.3438 0.60737 1.3438 1.3438 0 0.736-0.61 1.328-1.34 1.328-0.74 0-1.33-0.592-1.33-1.328 0-0.73638 0.59174-1.3438 1.3281-1.3438z"/>
 </g>
 <path d="M 31.979,23.426 A 8,8 0 0 1 24,31.002 8,8 0 0 1 16.021,23.578 8,8 0 0 0 16,24 a 8,8 0 0 0 8,8 8,8 0 0 0 8,-8 8,8 0 0 0 -0.02148,-0.57422 z" style="opacity:.2"/>
</svg>
