<svg width="32" height="32" version="1" xmlns="http://www.w3.org/2000/svg">
 <rect transform="matrix(0,-1,-1,0,0,0)" x="-31" y="-30" width="28" height="28" rx="1.4" ry="1.4" style="opacity:.2"/>
 <rect transform="matrix(0,-1,-1,0,0,0)" x="-30" y="-30" width="28" height="28" rx="1.4" ry="1.4" style="fill:#1493ca"/>
 <path d="M 3.4003906 2 C 2.6247906 2 2 2.6247906 2 3.4003906 L 2 4.4003906 C 2 3.6247906 2.6247906 3 3.4003906 3 L 28.599609 3 C 29.375209 3 30 3.6247906 30 4.4003906 L 30 3.4003906 C 30 2.6247906 29.375209 2 28.599609 2 L 3.4003906 2 z" style="fill:#ffffff;opacity:.2"/>
 <path d="m16 8c-2.8204 0-5 2.293378-5 5.142578v1.857422h-1.109375c-0.4932 0-0.890625 0.472703-0.890625 0.970703v9.128906c0 0.498 0.397425 0.900391 0.890625 0.900391h12.21875c0.493 0 0.890625-0.402391 0.890625-0.900391v-9.128906c0-0.498-0.398625-1.002703-0.890625-0.970703h-1.109375v-1.857422c0-2.8493-2.18-5.142578-5-5.142578zm0 2c1.7627 0 3 1.361778 3 3.142578v1.857422h-6v-1.857422c0-1.781 1.237-3.142578 3-3.142578zm0 7a2 2 0 0 1 2 2 2 2 0 0 1 -1.048828 1.757812c0.020184 0.079445 0.048828 0.156291 0.048828 0.242188v2c0 0.554-0.446 1-1 1s-1-0.446-1-1v-2c0-0.08523 0.02895-0.161347 0.04883-0.240234a2 2 0 0 1 -1.04883 -1.759766 2 2 0 0 1 2 -2z" style="opacity:.2"/>
 <path d="m16 7c-2.8204 0-5 2.2933782-5 5.142578v1.857422h-1.109375c-0.4932 0-0.890625 0.472703-0.890625 0.970703v9.128906c0 0.498 0.397425 0.900391 0.890625 0.900391h12.21875c0.493 0 0.890625-0.402391 0.890625-0.900391v-9.128906c0-0.498-0.398625-1.002703-0.890625-0.970703h-1.109375v-1.857422c0-2.8492997-2.18-5.142578-5-5.142578zm0 2c1.7627 0 3 1.361778 3 3.142578v1.857422h-6v-1.857422c0-1.781 1.237-3.142578 3-3.142578zm0 7a2 2 0 0 1 2 2 2 2 0 0 1 -1.048828 1.757812c0.020184 0.079445 0.048828 0.156291 0.048828 0.242188v2c0 0.554-0.446 1-1 1s-1-0.446-1-1v-2c0-0.085231 0.028946-0.161347 0.048828-0.240234a2 2 0 0 1 -1.048828 -1.759766 2 2 0 0 1 2 -2z" style="fill:#ffffff"/>
</svg>
