<svg width="32" height="32" version="1" xmlns="http://www.w3.org/2000/svg">
 <rect x="2" y="3" width="28" height="28" rx="1.4" ry="1.4" style="opacity:.2"/>
 <rect x="2" y="2" width="28" height="28" rx="1.4" ry="1.4" style="fill:#e4e4e4"/>
 <path d="M 15.916016 10.058594 L 6 17 L 13.558594 22.291016 L 14.154297 19.207031 L 11 17 L 15.136719 14.103516 L 15.916016 10.058594 z M 18.626953 11.839844 L 18.033203 14.923828 L 21 17 L 17.107422 19.724609 L 16.328125 23.769531 L 26 17 L 18.626953 11.839844 z" style="opacity:.1"/>
 <path d="M 15.916016,9.0585938 6,16 13.558594,21.291016 14.154297,18.207031 11,16 15.136719,13.103516 Z" style="fill:#483c8f"/>
 <path d="M 18.626953,10.839844 18.033203,13.923828 21,16 17.107422,18.724609 16.328125,22.769531 26,16 Z" style="fill:#4b8adf"/>
 <path d="M 3.4003906 2 C 2.6247906 2 2 2.6247906 2 3.4003906 L 2 4.4003906 C 2 3.6247906 2.6247906 3 3.4003906 3 L 28.599609 3 C 29.375209 3 30 3.6247906 30 4.4003906 L 30 3.4003906 C 30 2.6247906 29.375209 2 28.599609 2 L 3.4003906 2 z" style="fill:#ffffff;opacity:.2"/>
</svg>
