<svg width="32" height="32" version="1" xmlns="http://www.w3.org/2000/svg">
 <rect transform="matrix(0,-1,-1,0,0,0)" x="-31" y="-30" width="28" height="28" rx="1.4" ry="1.4" style="opacity:.2"/>
 <rect transform="matrix(0,-1,-1,0,0,0)" x="-30" y="-30" width="28" height="28" rx="1.4" ry="1.4" style="fill:#704b91"/>
 <rect x="7" y="16" width="3" height="3" style="fill:#4c8a4c"/>
 <rect x="10" y="16" width="3" height="3" style="fill:#e45e5e"/>
 <rect x="13" y="16" width="3" height="3" style="fill:#7079ff"/>
 <rect x="16" y="16" width="3" height="3" style="fill:#cdcdcd"/>
 <rect x="19" y="16" width="3" height="3" style="fill:#ffbd1a"/>
 <rect x="22" y="16" width="3" height="3" style="fill:#f3f3f3"/>
 <rect x="7" y="13" width="3" height="3" style="fill:#7079ff"/>
 <rect x="10" y="13" width="3" height="3" style="fill:#f3f3f3"/>
 <rect x="13" y="13" width="3" height="3" style="fill:#4c8a4c"/>
 <rect x="16" y="13" width="3" height="3" style="fill:#f3f3f3"/>
 <rect x="19" y="13" width="3" height="3" style="fill:#cdcdcd"/>
 <rect x="22" y="13" width="3" height="3" style="fill:#7079ff"/>
 <rect x="7" y="10" width="3" height="3" style="fill:#f3f3f3"/>
 <rect x="10" y="10" width="3" height="3" style="fill:#ffee35"/>
 <rect x="13" y="10" width="3" height="3" style="fill:#ffbd1a"/>
 <rect x="16" y="10" width="3" height="3" style="fill:#db5fe8"/>
 <rect x="19" y="10" width="3" height="3" style="fill:#ffee35"/>
 <rect x="10" y="19" width="3" height="3" style="fill:#ffbd1a"/>
 <rect x="13" y="19" width="3" height="3" style="fill:#db5fe8"/>
 <rect x="16" y="19" width="3" height="3" style="fill:#e45e5e"/>
 <rect x="19" y="19" width="3" height="3" style="fill:#ffee35"/>
 <rect x="22" y="19" width="3" height="3" style="fill:#e45e5e"/>
 <rect x="13" y="22" width="3" height="3" style="fill:#7079ff"/>
 <rect x="16" y="22" width="3" height="3" style="fill:#f3f3f3"/>
 <rect x="19" y="22" width="3" height="3" style="fill:#4c8a4c"/>
 <rect x="22" y="22" width="3" height="3" style="fill:#db5fe8"/>
 <rect x="7" y="7" width="3" height="3" style="fill:#ffbd1a"/>
 <rect x="10" y="7" width="3" height="3" style="fill:#e45e5e"/>
 <rect x="13" y="7" width="3" height="3" style="fill:#ffee35"/>
 <rect x="16" y="7" width="3" height="3" style="fill:#7079ff"/>
 <rect x="7" y="10" width="12" height="1" style="opacity:.2"/>
 <rect x="7" y="13" width="15" height="1" style="opacity:.2"/>
 <rect x="7" y="16" width="18" height="1" style="opacity:.2"/>
 <rect x="7" y="19" width="18" height="1" style="opacity:.2"/>
 <rect x="10" y="22" width="15" height="1" style="opacity:.2"/>
 <rect x="13" y="25" width="12" height="1" style="opacity:.2"/>
 <path d="M 3.4003906 2 C 2.6247906 2 2 2.6247906 2 3.4003906 L 2 4.4003906 C 2 3.6247906 2.6247906 3 3.4003906 3 L 28.599609 3 C 29.375209 3 30 3.6247906 30 4.4003906 L 30 3.4003906 C 30 2.6247906 29.375209 2 28.599609 2 L 3.4003906 2 z" style="fill:#ffffff;opacity:.1"/>
</svg>
