<svg width="32" height="32" version="1.1" viewBox="0 0 32 32" xmlns="http://www.w3.org/2000/svg">
 <path d="m10.135706 4.9999997c-0.6094313 5.98e-5 -1.103457 0.4832081-1.1035184 1.0792201 0 4.8969092-0.9242857 8.4622612-1.8729643 9.8926042-0.5375636 0.810495-0.9482657 1.239102-1.5949294 1.542947-0.6466631 0.303845-1.790073 0.492183-3.4607752 0.492183-0.6094316 6e-5 -1.1034581 0.483209-1.1035187 1.079221v8.834605c6.101e-5 0.596012 0.49408741 1.079161 1.1035187 1.07922 6.0176378 0 11.478469-2.606119 14.471829-7.119269 2.939584-4.43207 3.710366-9.808763 3.710366-15.801511-6.1e-5 -0.5960123-0.494087-1.0791607-1.103519-1.0792201z" style="fill-rule:evenodd;opacity:.2"/>
 <path d="m10.135706 3.9999999c-0.6094313 5.98e-5 -1.103457 0.4832081-1.1035184 1.0792201 0 4.8969091-0.9242857 8.462261-1.8729643 9.892604-0.5375636 0.810495-0.9482657 1.239102-1.5949294 1.542947-0.6466631 0.303845-1.790073 0.492183-3.4607752 0.492183-0.6094316 6e-5 -1.1034581 0.483209-1.1035187 1.079221v8.834605c6.101e-5 0.596012 0.49408741 1.079161 1.1035187 1.07922 6.0176378 0 11.478469-2.606119 14.471829-7.119269 2.939584-4.43207 3.710366-9.808763 3.710366-15.801511-6.1e-5 -0.5960123-0.494087-1.0791607-1.103519-1.0792201z" style="fill-rule:evenodd;fill:#115ccc"/>
 <path d="m10.134766 4c-0.6094317 5.98e-5 -1.1034546 0.4840661-1.103516 1.0800781 0 4.8969091-0.9224152 8.4622349-1.8710938 9.8925779-0.5375636 0.810495-0.9490394 1.239124-1.5957031 1.542969-0.6466631 0.303845-1.7902353 0.492188-3.4609375 0.492187-0.6094316 6.1e-5 -1.103455 0.482113-1.1035156 1.078126v1c6.06e-5 -0.596013 0.494084-1.078065 1.1035156-1.078126 1.6707022 1e-6 2.8142744-0.188342 3.4609375-0.492187 0.6466637-0.303845 1.0581395-0.732474 1.5957031-1.542969 0.9486786-1.430343 1.8710938-4.995669 1.8710938-9.8925779 6.14e-5 -0.596012 0.4940843-1.0800183 1.103516-1.0800781h9.046875c0.58056 5.66e-5 1.044056 0.4432018 1.08789 1 0.004343-0.3074928 0.015625-0.6090681 0.015625-0.9199219-6.1e-5 -0.5960123-0.494083-1.0800187-1.103515-1.0800781h-9.046875z" style="fill-rule:evenodd;fill:#ffffff;opacity:.1"/>
 <path d="m10.107588 4.9999997a1.1080731 1.109036 0 0 0 -0.9965174 1.5929971l10.551609 21.782149a1.1080731 1.109036 0 0 0 0.997598 0.624854h9.232658a1.1080731 1.109036 0 0 0 0.996517 -1.591915l-10.551609-21.783232a1.1080731 1.109036 0 0 0 -0.996517 -0.6248534h-9.233739z" style="opacity:.2"/>
 <path d="m10.107588 3.9999999a1.1080731 1.109036 0 0 0 -0.9965174 1.5929971l10.551609 21.782149a1.1080731 1.109036 0 0 0 0.997598 0.624854h9.232658a1.1080731 1.109036 0 0 0 0.996517 -1.591915l-10.551609-21.783232a1.1080731 1.109036 0 0 0 -0.996517 -0.6248534h-9.233739z" style="fill:#3387f5"/>
 <path d="m10.107422 4a1.1080731 1.109036 0 0 0 -0.9960939 1.59375l0.0078125 0.015625a1.1080731 1.109036 0 0 1 0.9882814 -0.609375h9.234375a1.1080731 1.109036 0 0 1 0.996094 0.625l10.542968 21.767578a1.1080731 1.109036 0 0 0 0.007813 -0.984375l-10.550781-21.783203a1.1080731 1.109036 0 0 0 -0.996094 -0.625h-9.234375z" style="fill:#ffffff;opacity:.2"/>
</svg>
