<svg width="32" height="32" version="1.0" xmlns="http://www.w3.org/2000/svg">
 <text x="877.22626" y="-5.1873989" font-family="'Bitstream Vera Sans'" font-size="12.666px" opacity=".8" xml:space="preserve"><tspan x="877.22626" y="-5.1873989"/></text>
 <text x="901.18719" y="-45.929108" font-family="'Bitstream Vera Sans'" font-size="12.666px" opacity=".8" xml:space="preserve"><tspan x="901.18719" y="-45.929108"/></text>
 <text x="-569.37115" y="-76.007248" font-family="'Bitstream Vera Sans'" font-size="12.666px" opacity=".8" xml:space="preserve"><tspan x="-569.37115" y="-76.007248"/></text>
 <text x="-2393.0571" y="669.5462" font-family="'Bitstream Vera Sans'" font-size="12.666px" opacity=".8" xml:space="preserve"><tspan x="-2393.0571" y="669.5462"/></text>
 <text x="-454.88007" y="-461.32822" font-family="'Bitstream Vera Sans'" font-size="12.666px" opacity=".8" xml:space="preserve"><tspan x="-454.88007" y="-461.32822"/></text>
 <text x="352.72208" y="-874.79834" font-family="'Bitstream Vera Sans'" font-size="12.666px" opacity=".8" xml:space="preserve"><tspan x="352.72208" y="-874.79834"/></text>
 <text x="376.68301" y="-915.54004" font-family="'Bitstream Vera Sans'" font-size="12.666px" opacity=".8" xml:space="preserve"><tspan x="376.68301" y="-915.54004"/></text>
 <text x="-1114.7802" y="-922.74994" font-family="'Bitstream Vera Sans'" font-size="12.666px" opacity=".8" xml:space="preserve"><tspan x="-1114.7802" y="-922.74994"/></text>
 <text x="345.7626" y="-1195.9841" font-family="'Bitstream Vera Sans'" font-size="12.666px" opacity=".8" xml:space="preserve"><tspan x="345.7626" y="-1195.9841"/></text>
 <text x="1831.8861" y="-569.29272" font-family="'Bitstream Vera Sans'" font-size="12.666px" opacity=".8" xml:space="preserve"><tspan x="1831.8861" y="-569.29272"/></text>
 <text x="1855.8469" y="-610.03448" font-family="'Bitstream Vera Sans'" font-size="12.666px" opacity=".8" xml:space="preserve"><tspan x="1855.8469" y="-610.03448"/></text>
 <text x="364.38376" y="-617.24438" font-family="'Bitstream Vera Sans'" font-size="12.666px" opacity=".8" xml:space="preserve"><tspan x="364.38376" y="-617.24438"/></text>
 <text x="1824.9266" y="-890.47839" font-family="'Bitstream Vera Sans'" font-size="12.666px" opacity=".8" xml:space="preserve"><tspan x="1824.9266" y="-890.47839"/></text>
 <text x="-573.43256" y="-665.33569" font-family="'Bitstream Vera Sans'" font-size="12.666px" opacity=".8" xml:space="preserve"><tspan x="-573.43256" y="-665.33569"/></text>
 <text x="-2397.1182" y="80.217857" font-family="'Bitstream Vera Sans'" font-size="12.666px" opacity=".8" xml:space="preserve"><tspan x="-2397.1182" y="80.217857"/></text>
 <text x="-682.36279" y="173.09" font-family="'Bitstream Vera Sans'" font-size="12.666px" opacity=".8" xml:space="preserve"><tspan x="-682.36279" y="173.09"/></text>
 <text x="426.66153" y="-6.0921478" font-family="'Bitstream Vera Sans'" font-size="12.666px" opacity=".8" xml:space="preserve"><tspan x="426.66153" y="-6.0921478"/></text>
 <text x="450.62247" y="-46.833855" font-family="'Bitstream Vera Sans'" font-size="12.666px" opacity=".8" xml:space="preserve"><tspan x="450.62247" y="-46.833855"/></text>
 <text x="-1040.8407" y="-54.043827" font-family="'Bitstream Vera Sans'" font-size="12.666px" opacity=".8" xml:space="preserve"><tspan x="-1040.8407" y="-54.043827"/></text>
 <text x="419.70206" y="-327.27789" font-family="'Bitstream Vera Sans'" font-size="12.666px" opacity=".8" xml:space="preserve"><tspan x="419.70206" y="-327.27789"/></text>
 <text x="-608.03253" y="-56.758072" font-family="'Bitstream Vera Sans'" font-size="12.666px" opacity=".8" xml:space="preserve"><tspan x="-608.03253" y="-56.758072"/></text>
 <text x="-2431.7185" y="688.79541" font-family="'Bitstream Vera Sans'" font-size="12.666px" opacity=".8" xml:space="preserve"><tspan x="-2431.7185" y="688.79541"/></text>
 <text x="-456.93948" y="-918.28857" font-family="'Bitstream Vera Sans'" font-size="12.666px" opacity=".8" xml:space="preserve"><tspan x="-456.93948" y="-918.28857"/></text>
 <text x="350.66266" y="-1331.7588" font-family="'Bitstream Vera Sans'" font-size="12.666px" opacity=".8" xml:space="preserve"><tspan x="350.66266" y="-1331.7588"/></text>
 <text x="374.62357" y="-1372.5005" font-family="'Bitstream Vera Sans'" font-size="12.666px" opacity=".8" xml:space="preserve"><tspan x="374.62357" y="-1372.5005"/></text>
 <text x="-1116.8396" y="-1379.7104" font-family="'Bitstream Vera Sans'" font-size="12.666px" opacity=".8" xml:space="preserve"><tspan x="-1116.8396" y="-1379.7104"/></text>
 <text x="343.70316" y="-1652.9446" font-family="'Bitstream Vera Sans'" font-size="12.666px" opacity=".8" xml:space="preserve"><tspan x="343.70316" y="-1652.9446"/></text>
 <text x="1829.8265" y="-1026.2533" font-family="'Bitstream Vera Sans'" font-size="12.666px" opacity=".8" xml:space="preserve"><tspan x="1829.8265" y="-1026.2533"/></text>
 <text x="1853.7874" y="-1066.9949" font-family="'Bitstream Vera Sans'" font-size="12.666px" opacity=".8" xml:space="preserve"><tspan x="1853.7874" y="-1066.9949"/></text>
 <text x="362.32431" y="-1074.2048" font-family="'Bitstream Vera Sans'" font-size="12.666px" opacity=".8" xml:space="preserve"><tspan x="362.32431" y="-1074.2048"/></text>
 <text x="1822.8671" y="-1347.439" font-family="'Bitstream Vera Sans'" font-size="12.666px" opacity=".8" xml:space="preserve"><tspan x="1822.8671" y="-1347.439"/></text>
 <text x="-575.492" y="-1122.2961" font-family="'Bitstream Vera Sans'" font-size="12.666px" opacity=".8" xml:space="preserve"><tspan x="-575.492" y="-1122.2961"/></text>
 <text x="-2399.1777" y="-376.74261" font-family="'Bitstream Vera Sans'" font-size="12.666px" opacity=".8" xml:space="preserve"><tspan x="-2399.1777" y="-376.74261"/></text>
 <text x="-684.42224" y="-283.87045" font-family="'Bitstream Vera Sans'" font-size="12.666px" opacity=".8" xml:space="preserve"><tspan x="-684.42224" y="-283.87045"/></text>
 <text x="155.5923" y="-42.956276" font-family="'Bitstream Vera Sans'" font-size="12.666px" opacity=".8" xml:space="preserve"><tspan x="155.5923" y="-42.956276"/></text>
 <text x="179.55324" y="-83.697998" font-family="'Bitstream Vera Sans'" font-size="12.666px" opacity=".8" xml:space="preserve"><tspan x="179.55324" y="-83.697998"/></text>
 <text x="-1090.2634" y="-277.72662" font-family="'Bitstream Vera Sans'" font-size="12.666px" opacity=".8" xml:space="preserve"><tspan x="-1090.2634" y="-277.72662"/></text>
 <text x="-282.66141" y="-691.19678" font-family="'Bitstream Vera Sans'" font-size="12.666px" opacity=".8" xml:space="preserve"><tspan x="-282.66141" y="-691.19678"/></text>
 <text x="-258.70047" y="-731.93848" font-family="'Bitstream Vera Sans'" font-size="12.666px" opacity=".8" xml:space="preserve"><tspan x="-258.70047" y="-731.93848"/></text>
 <text x="-1750.1636" y="-739.14838" font-family="'Bitstream Vera Sans'" font-size="12.666px" opacity=".8" xml:space="preserve"><tspan x="-1750.1636" y="-739.14838"/></text>
 <text x="-289.62085" y="-1012.3825" font-family="'Bitstream Vera Sans'" font-size="12.666px" opacity=".8" xml:space="preserve"><tspan x="-289.62085" y="-1012.3825"/></text>
 <text x="1196.5026" y="-385.69113" font-family="'Bitstream Vera Sans'" font-size="12.666px" opacity=".8" xml:space="preserve"><tspan x="1196.5026" y="-385.69113"/></text>
 <text x="1220.4634" y="-426.43286" font-family="'Bitstream Vera Sans'" font-size="12.666px" opacity=".8" xml:space="preserve"><tspan x="1220.4634" y="-426.43286"/></text>
 <text x="-270.99973" y="-433.64282" font-family="'Bitstream Vera Sans'" font-size="12.666px" opacity=".8" xml:space="preserve"><tspan x="-270.99973" y="-433.64282"/></text>
 <text x="1189.5431" y="-706.87689" font-family="'Bitstream Vera Sans'" font-size="12.666px" opacity=".8" xml:space="preserve"><tspan x="1189.5431" y="-706.87689"/></text>
 <text x="-1208.816" y="-481.7341" font-family="'Bitstream Vera Sans'" font-size="12.666px" opacity=".8" xml:space="preserve"><tspan x="-1208.816" y="-481.7341"/></text>
 <text x="-3032.5017" y="263.81946" font-family="'Bitstream Vera Sans'" font-size="12.666px" opacity=".8" xml:space="preserve"><tspan x="-3032.5017" y="263.81946"/></text>
 <g transform="matrix(.90475 0 0 .90475 -716.75 -692.29)">
  <text x="-664.2738" y="1159.4154" font-family="'Bitstream Vera Sans'" font-size="14px" opacity=".8" xml:space="preserve"><tspan x="-664.2738" y="1159.4154"/></text>
 </g>
 <text x="877.22626" y="2.0505886" font-family="'Bitstream Vera Sans'" font-size="12.666px" opacity=".8" xml:space="preserve"><tspan x="877.22626" y="2.0505886"/></text>
 <text x="901.18719" y="-38.691116" font-family="'Bitstream Vera Sans'" font-size="12.666px" opacity=".8" xml:space="preserve"><tspan x="901.18719" y="-38.691116"/></text>
 <text x="-569.37115" y="-68.769257" font-family="'Bitstream Vera Sans'" font-size="12.666px" opacity=".8" xml:space="preserve"><tspan x="-569.37115" y="-68.769257"/></text>
 <text x="-2393.0571" y="676.78418" font-family="'Bitstream Vera Sans'" font-size="12.666px" opacity=".8" xml:space="preserve"><tspan x="-2393.0571" y="676.78418"/></text>
 <text x="-454.88007" y="-454.09021" font-family="'Bitstream Vera Sans'" font-size="12.666px" opacity=".8" xml:space="preserve"><tspan x="-454.88007" y="-454.09021"/></text>
 <text x="352.72208" y="-867.5603" font-family="'Bitstream Vera Sans'" font-size="12.666px" opacity=".8" xml:space="preserve"><tspan x="352.72208" y="-867.5603"/></text>
 <text x="376.68301" y="-908.30206" font-family="'Bitstream Vera Sans'" font-size="12.666px" opacity=".8" xml:space="preserve"><tspan x="376.68301" y="-908.30206"/></text>
 <text x="-1114.7802" y="-915.51196" font-family="'Bitstream Vera Sans'" font-size="12.666px" opacity=".8" xml:space="preserve"><tspan x="-1114.7802" y="-915.51196"/></text>
 <text x="345.7626" y="-1188.7461" font-family="'Bitstream Vera Sans'" font-size="12.666px" opacity=".8" xml:space="preserve"><tspan x="345.7626" y="-1188.7461"/></text>
 <text x="1831.8861" y="-562.05475" font-family="'Bitstream Vera Sans'" font-size="12.666px" opacity=".8" xml:space="preserve"><tspan x="1831.8861" y="-562.05475"/></text>
 <text x="1855.8469" y="-602.79651" font-family="'Bitstream Vera Sans'" font-size="12.666px" opacity=".8" xml:space="preserve"><tspan x="1855.8469" y="-602.79651"/></text>
 <text x="364.38376" y="-610.00641" font-family="'Bitstream Vera Sans'" font-size="12.666px" opacity=".8" xml:space="preserve"><tspan x="364.38376" y="-610.00641"/></text>
 <text x="1824.9266" y="-883.24036" font-family="'Bitstream Vera Sans'" font-size="12.666px" opacity=".8" xml:space="preserve"><tspan x="1824.9266" y="-883.24036"/></text>
 <text x="-573.43256" y="-658.09772" font-family="'Bitstream Vera Sans'" font-size="12.666px" opacity=".8" xml:space="preserve"><tspan x="-573.43256" y="-658.09772"/></text>
 <text x="-2397.1182" y="87.455849" font-family="'Bitstream Vera Sans'" font-size="12.666px" opacity=".8" xml:space="preserve"><tspan x="-2397.1182" y="87.455849"/></text>
 <text x="-682.36279" y="180.32799" font-family="'Bitstream Vera Sans'" font-size="12.666px" opacity=".8" xml:space="preserve"><tspan x="-682.36279" y="180.32799"/></text>
 <text x="426.66153" y="1.1458397" font-family="'Bitstream Vera Sans'" font-size="12.666px" opacity=".8" xml:space="preserve"><tspan x="426.66153" y="1.1458397"/></text>
 <text x="450.62247" y="-39.595863" font-family="'Bitstream Vera Sans'" font-size="12.666px" opacity=".8" xml:space="preserve"><tspan x="450.62247" y="-39.595863"/></text>
 <text x="-1040.8407" y="-46.805836" font-family="'Bitstream Vera Sans'" font-size="12.666px" opacity=".8" xml:space="preserve"><tspan x="-1040.8407" y="-46.805836"/></text>
 <text x="419.70206" y="-320.03989" font-family="'Bitstream Vera Sans'" font-size="12.666px" opacity=".8" xml:space="preserve"><tspan x="419.70206" y="-320.03989"/></text>
 <text x="-608.03253" y="-49.520081" font-family="'Bitstream Vera Sans'" font-size="12.666px" opacity=".8" xml:space="preserve"><tspan x="-608.03253" y="-49.520081"/></text>
 <text x="-2431.7185" y="696.03345" font-family="'Bitstream Vera Sans'" font-size="12.666px" opacity=".8" xml:space="preserve"><tspan x="-2431.7185" y="696.03345"/></text>
 <text x="-456.93948" y="-911.0506" font-family="'Bitstream Vera Sans'" font-size="12.666px" opacity=".8" xml:space="preserve"><tspan x="-456.93948" y="-911.0506"/></text>
 <text x="350.66266" y="-1324.5208" font-family="'Bitstream Vera Sans'" font-size="12.666px" opacity=".8" xml:space="preserve"><tspan x="350.66266" y="-1324.5208"/></text>
 <text x="374.62357" y="-1365.2626" font-family="'Bitstream Vera Sans'" font-size="12.666px" opacity=".8" xml:space="preserve"><tspan x="374.62357" y="-1365.2626"/></text>
 <text x="-1116.8396" y="-1372.4724" font-family="'Bitstream Vera Sans'" font-size="12.666px" opacity=".8" xml:space="preserve"><tspan x="-1116.8396" y="-1372.4724"/></text>
 <text x="343.70316" y="-1645.7065" font-family="'Bitstream Vera Sans'" font-size="12.666px" opacity=".8" xml:space="preserve"><tspan x="343.70316" y="-1645.7065"/></text>
 <text x="1829.8265" y="-1019.0153" font-family="'Bitstream Vera Sans'" font-size="12.666px" opacity=".8" xml:space="preserve"><tspan x="1829.8265" y="-1019.0153"/></text>
 <text x="1853.7874" y="-1059.757" font-family="'Bitstream Vera Sans'" font-size="12.666px" opacity=".8" xml:space="preserve"><tspan x="1853.7874" y="-1059.757"/></text>
 <text x="362.32431" y="-1066.9668" font-family="'Bitstream Vera Sans'" font-size="12.666px" opacity=".8" xml:space="preserve"><tspan x="362.32431" y="-1066.9668"/></text>
 <text x="1822.8671" y="-1340.2009" font-family="'Bitstream Vera Sans'" font-size="12.666px" opacity=".8" xml:space="preserve"><tspan x="1822.8671" y="-1340.2009"/></text>
 <text x="-575.492" y="-1115.0581" font-family="'Bitstream Vera Sans'" font-size="12.666px" opacity=".8" xml:space="preserve"><tspan x="-575.492" y="-1115.0581"/></text>
 <text x="-2399.1777" y="-369.50461" font-family="'Bitstream Vera Sans'" font-size="12.666px" opacity=".8" xml:space="preserve"><tspan x="-2399.1777" y="-369.50461"/></text>
 <text x="-684.42224" y="-276.63245" font-family="'Bitstream Vera Sans'" font-size="12.666px" opacity=".8" xml:space="preserve"><tspan x="-684.42224" y="-276.63245"/></text>
 <text x="155.5923" y="-35.718292" font-family="'Bitstream Vera Sans'" font-size="12.666px" opacity=".8" xml:space="preserve"><tspan x="155.5923" y="-35.718292"/></text>
 <text x="179.55324" y="-76.460007" font-family="'Bitstream Vera Sans'" font-size="12.666px" opacity=".8" xml:space="preserve"><tspan x="179.55324" y="-76.460007"/></text>
 <text x="-1090.2634" y="-270.48859" font-family="'Bitstream Vera Sans'" font-size="12.666px" opacity=".8" xml:space="preserve"><tspan x="-1090.2634" y="-270.48859"/></text>
 <text x="-282.66141" y="-683.9588" font-family="'Bitstream Vera Sans'" font-size="12.666px" opacity=".8" xml:space="preserve"><tspan x="-282.66141" y="-683.9588"/></text>
 <text x="-258.70047" y="-724.7005" font-family="'Bitstream Vera Sans'" font-size="12.666px" opacity=".8" xml:space="preserve"><tspan x="-258.70047" y="-724.7005"/></text>
 <text x="-1750.1636" y="-731.91046" font-family="'Bitstream Vera Sans'" font-size="12.666px" opacity=".8" xml:space="preserve"><tspan x="-1750.1636" y="-731.91046"/></text>
 <text x="-289.62085" y="-1005.1445" font-family="'Bitstream Vera Sans'" font-size="12.666px" opacity=".8" xml:space="preserve"><tspan x="-289.62085" y="-1005.1445"/></text>
 <text x="1196.5026" y="-378.45316" font-family="'Bitstream Vera Sans'" font-size="12.666px" opacity=".8" xml:space="preserve"><tspan x="1196.5026" y="-378.45316"/></text>
 <text x="1220.4634" y="-419.19489" font-family="'Bitstream Vera Sans'" font-size="12.666px" opacity=".8" xml:space="preserve"><tspan x="1220.4634" y="-419.19489"/></text>
 <text x="-270.99973" y="-426.40482" font-family="'Bitstream Vera Sans'" font-size="12.666px" opacity=".8" xml:space="preserve"><tspan x="-270.99973" y="-426.40482"/></text>
 <text x="1189.5431" y="-699.63892" font-family="'Bitstream Vera Sans'" font-size="12.666px" opacity=".8" xml:space="preserve"><tspan x="1189.5431" y="-699.63892"/></text>
 <text x="-1208.816" y="-474.49609" font-family="'Bitstream Vera Sans'" font-size="12.666px" opacity=".8" xml:space="preserve"><tspan x="-1208.816" y="-474.49609"/></text>
 <text x="-3032.5017" y="271.05743" font-family="'Bitstream Vera Sans'" font-size="12.666px" opacity=".8" xml:space="preserve"><tspan x="-3032.5017" y="271.05743"/></text>
 <g transform="matrix(.90475 0 0 .90475 -716.75 -685.05)">
  <text x="-664.2738" y="1159.4154" font-family="'Bitstream Vera Sans'" font-size="14px" opacity=".8" xml:space="preserve"><tspan x="-664.2738" y="1159.4154"/></text>
 </g>
 <text x="435.90427" y="-377.22546" font-family="'Droid Sans'" font-size="12.666px" xml:space="preserve"><tspan x="435.90427" y="-377.22546"/><tspan x="435.90427" y="-361.3924"/></text>
 <text x="901.0882" y="-859.27002" font-family="'Bitstream Vera Sans'" font-size="12.666px" opacity=".8" xml:space="preserve"><tspan x="901.0882" y="-859.27002"/></text>
 <text x="-922.59778" y="-113.71655" font-family="'Bitstream Vera Sans'" font-size="12.666px" opacity=".8" xml:space="preserve"><tspan x="-922.59778" y="-113.71655"/></text>
 <text x="1628.1677" y="-1144.2659" font-family="'Bitstream Vera Sans'" font-size="12.666px" opacity=".8" xml:space="preserve"><tspan x="1628.1677" y="-1144.2659"/></text>
 <text x="1652.1285" y="-1185.0076" font-family="'Bitstream Vera Sans'" font-size="12.666px" opacity=".8" xml:space="preserve"><tspan x="1652.1285" y="-1185.0076"/></text>
 <text x="160.66542" y="-1192.2175" font-family="'Bitstream Vera Sans'" font-size="12.666px" opacity=".8" xml:space="preserve"><tspan x="160.66542" y="-1192.2175"/></text>
 <text x="1621.2083" y="-1465.4517" font-family="'Bitstream Vera Sans'" font-size="12.666px" opacity=".8" xml:space="preserve"><tspan x="1621.2083" y="-1465.4517"/></text>
 <path d="m3.3535 22c-0.7495 0-1.3535 0.596-1.3535 1.334v5.332c0 0.738 0.604 1.334 1.3535 1.334h1.293c0.7495 0 1.3535-0.596 1.3535-1.334v-5.332c0-0.738-0.604-1.334-1.3535-1.334h-1.293zm23.998 0c-0.75 0-1.352 0.596-1.352 1.334v5.332c0 0.738 0.602 1.334 1.352 1.334h1.2949c0.749 0 1.353-0.596 1.353-1.334v-5.332c0-0.738-0.604-1.334-1.354-1.334h-1.2949z" fill="#303030"/>
 <path d="m2 28.666v1c0 0.738 0.604 1.334 1.3535 1.334h1.293c0.7495 0 1.3535-0.596 1.3535-1.334v-1c0 0.738-0.604 1.334-1.3535 1.334h-1.293c-0.7495 0-1.3535-0.596-1.3535-1.334zm24 0v1c0 0.738 0.602 1.334 1.352 1.334h1.2949c0.749 0 1.353-0.596 1.353-1.334v-1c0 0.738-0.604 1.334-1.354 1.334h-1.295c-0.749 0-1.351-0.596-1.351-1.334z" opacity=".2"/>
 <g transform="matrix(.90867 0 0 .88557 1.6347 2)" fill="#4d4d4d">
  <g fill="#4d4d4d">
   <path transform="matrix(.77036 0 0 .79045 -2.6794 -3.1618)" d="m24.002 4c-7.384 0-13.371 5.8328-13.371 13.031 0 1.2664 0.19247 2.487 0.53906 3.6445 0 0-2.0468 7.2865-1.3867 10.883 0.19231 1.0477 0.5872 2.0562 1.1094 3.0059 2.034-2.741 7.26-4.561 13.107-4.565 5.8442 0.0017 11.071 1.8183 13.111 4.5566 0.52053-0.94737 0.91546-1.9531 1.1074-2.998 0.66062-3.5962-1.3867-10.883-1.3867-10.883 0.34789-1.1576 0.53906-2.3782 0.53906-3.6445 1e-3 -7.1969-5.982-13.031-13.368-13.031z" fill="#4d4d4d"/>
  </g>
 </g>
 <circle cx="11" cy="10" r="2" opacity=".2"/>
 <circle cx="11" cy="9" r="2" fill="#fff"/>
 <circle cx="21" cy="10" r="2" opacity=".2"/>
 <circle cx="21" cy="9" r="2" fill="#fff"/>
 <ellipse cx="16" cy="19.5" rx="7" ry="7.7" fill="#fff"/>
 <g transform="matrix(.90867 0 0 .88557 1.6347 2)">
  <path transform="matrix(1.1005 0 0 1.1292 -1.799 -2.2584)" d="m6.6719 10.527c-0.013097 0.19748-0.03125 0.39304-0.03125 0.59375 0 0.69564 0.10485 1.3653 0.25781 2.0156 0.046133-0.17529 0.12109-0.46289 0.12109-0.46289-0.2049-0.684-0.3129-1.407-0.3477-2.147zm18.656 0.0059c-0.03509 0.73767-0.14064 1.4583-0.3457 2.1406 0 0 0.07495 0.2876 0.12109 0.46289 0.15316-0.65034 0.25586-1.32 0.25586-2.0156 0-0.1987-0.01842-0.39235-0.03125-0.58789zm-9.328 8.666c-4.0927 0.0026-7.7518 1.2768-9.1758 3.1953-0.36552-0.66474-0.64078-1.3701-0.77539-2.1035-0.040261-0.21935-0.050762-0.47893-0.064453-0.73242-0.029921 0.63378-0.026081 1.2392 0.064453 1.7324 0.13461 0.7334 0.40987 1.4388 0.77539 2.1035 1.4243-1.918 5.0831-3.192 9.1761-3.195 4.0909 0.0012 7.7498 1.2746 9.1777 3.1914 0.36437-0.66316 0.64102-1.3681 0.77539-2.0996 0.09061-0.49323 0.09435-1.0986 0.06445-1.7324-0.01371 0.25348-0.02416 0.51308-0.06445 0.73242-0.13437 0.73148-0.41102 1.4345-0.77539 2.0977-1.428-1.916-5.087-3.188-9.178-3.189z" opacity=".3"/>
 </g>
 <circle cx="11" cy="9" r="1" fill="#303030"/>
 <circle cx="21" cy="9" r="1" fill="#303030"/>
 <path d="m14 11h4c-0.32067 3.0818-2 6-2 6s-2-3.4637-2-6z" opacity=".2"/>
 <path d="m14 10h4c-0.32067 3.0818-2 6-2 6s-2-3.4637-2-6z" fill="#cd5252"/>
 <path d="m16 16a4 4 0 0 0 -4 4 4 4 0 0 0 4 4 4 4 0 0 0 4 -4 4 4 0 0 0 -4 -4zm0 1.6a2.4 2.4 0 0 1 1.5594 0.57656l-1.559 0.9-1.558-0.899a2.4 2.4 0 0 1 1.558 -0.578zm2.3594 1.9609a2.4 2.4 0 0 1 0.041 0.439 2.4 2.4 0 0 1 -1.6 2.2609v-1.8l1.5594-0.9zm-4.7172 0.0016 1.5578 0.8984v1.7984a2.4 2.4 0 0 1 -1.6 -2.259 2.4 2.4 0 0 1 0.042 -0.438z" fill="#303030"/>
 <path d="m16 20c-5.4124 0-10 2.2386-10 5 0.00231 0.48394 0.61562 1 0.61562 1h-3.6156v3h6.1545c1.8285 0.914 4.2855 0.998 6.8455 1 2.5633-4.66e-4 5.0242-0.08473 6.8551-1h6.145v-3h-3.6129s0.61147-0.51612 0.61289-1c0-2.7614-4.5876-5-10-5z" fill="#f5432a"/>
 <ellipse transform="matrix(.70175 -.71242 .86961 .49374 0 0)" cx="-8.7299" cy="19.809" rx="2.4847" ry="4.3939" fill="#4d4d4d"/>
 <ellipse transform="matrix(-.70175 -.71242 -.86961 .49374 0 0)" cx="-25.086" cy="-3.7905" rx="2.4847" ry="4.3939" fill="#4d4d4d"/>
 <ellipse cx="10.5" cy="25.6" rx="1.5" ry="1.4" opacity=".2"/>
 <ellipse cx="10.5" cy="24.6" rx="1.5" ry="1.4" fill="#fff"/>
 <ellipse cx="21.5" cy="25.6" rx="1.5" ry="1.4" opacity=".2"/>
 <ellipse cx="21.5" cy="24.6" rx="1.5" ry="1.4" fill="#fff"/>
 <path d="m15.667 23c-0.18467 0-0.33333 0.446-0.33333 1v2c0 0.554 0.14867 1 0.33333 1 0.184 0 0.333-0.446 0.333-1v-2c0-0.554-0.14867-1-0.33333-1zm-1.3333 0.66667c-0.185 0-0.334 0.297-0.334 0.666v1.3333c0 0.36933 0.14867 0.66667 0.33333 0.66667 0.18467 0 0.33333-0.29733 0.33333-0.66667v-1.3333c0-0.36933-0.14867-0.66667-0.33333-0.66667z" opacity=".5"/>
 <path d="m16.333 23c0.18467 0 0.33333 0.446 0.33333 1v2c0 0.554-0.14867 1-0.33333 1-0.184 0-0.333-0.446-0.333-1v-2c0-0.554 0.14867-1 0.33333-1zm1.3333 0.66667c0.185 0 0.334 0.297 0.334 0.666v1.3333c0 0.36933-0.14867 0.66667-0.33333 0.66667-0.18467 0-0.33333-0.29733-0.33333-0.66667v-1.3333c0-0.36933 0.14867-0.66667 0.33333-0.66667z" opacity=".5"/>
 <path d="m16.002 2c-5.1685 0-9.3612 4.0821-9.3612 9.121 0 0.13802 0.024819 0.26983 0.03125 0.40624 0.3156-4.7599 4.367-8.5269 9.3299-8.5269 4.9664 0 9.0135 3.7708 9.3261 8.5331 0.0066-0.13837 0.03125-0.2721 0.03125-0.4121 0-5.0378-4.187-9.1209-9.3569-9.1209zm-9.1037 12.137c-0.2579 0.97999-1.0357 4.1689-0.91399 6.4219 0.1228-2.601 1.0351-5.8849 1.0351-5.8849-0.0522-0.175-0.079099-0.359-0.1211-0.53699zm18.205 0c-0.04201 0.17839-0.06867 0.36268-0.12109 0.5371 0 0 0.91245 3.2839 1.0352 5.8847 0.12186-2.2527-0.65608-5.4418-0.91405-6.4218z" fill="#fff" opacity=".1"/>
 <path d="m16 20c-5.4124 0-10 2.2386-10 5 5.622e-4 0.11777 0.040413 0.23789 0.095703 0.35156 0.6513-2.455 4.9233-4.352 9.9043-4.352 4.9836 0 9.2587 1.899 9.9062 4.3555 0.056-0.115 0.094-0.237 0.094-0.356 0-2.761-4.588-5-10-5zm-13 6v1h3.6152s-0.6129-0.516-0.6152-1h-3zm23 0c-0.0014 0.48388-0.61328 1-0.61328 1h3.613v-1h-3z" fill="#fff" opacity=".2"/>
 <path d="m6.0957 25.352c-0.0564 0.212-0.0957 0.428-0.0957 0.648h0.61523s-0.34763-0.29501-0.51953-0.64844zm19.811 0.0039c-0.172 0.351-0.52 0.644-0.52 0.644h0.613c0-0.21876-0.03804-0.43318-0.09375-0.64453zm-22.907 3.644v1h6.1543c1.8287 0.914 4.2857 0.998 6.8457 1 2.5633-4.66e-4 5.0246-0.08473 6.8555-1h6.144v-1h-6.145c-1.83 0.915-4.292 1-6.855 1-2.56-2e-3 -5.017-0.086-6.8457-1h-6.1543z" opacity=".2"/>
 <path d="m3.3535 22c-0.7495 0-1.3535 0.596-1.3535 1.334v1c0-0.738 0.604-1.334 1.3535-1.334h1.293c0.7495 0 1.3535 0.596 1.3535 1.334v-1c0-0.738-0.604-1.334-1.3535-1.334h-1.293zm23.998 0c-0.75 0-1.352 0.596-1.352 1.334v1c0-0.738 0.602-1.334 1.352-1.334h1.2949c0.749 0 1.353 0.596 1.353 1.334v-1c0-0.738-0.604-1.334-1.354-1.334h-1.2949z" fill="#fff" opacity=".1"/>
</svg>
