<svg width="32" height="32" version="1" xmlns="http://www.w3.org/2000/svg">
 <rect x="2" y="2" width="29" height="29" rx="1.45" ry="1.45" style="opacity:.2"/>
 <rect x="2" y="1" width="29" height="29" rx="1.45" ry="1.45" style="fill:#cccccc"/>
 <path d="m16.499983 6.4996663v6.9996607m-6.999983-2.999661h14m-10 12h6m-3.000017 3.99997v-15.79c2.380474 3.85671 4.263622 9.890582 9.000017 10.8m-8.985876 4.97006v-15.789999c-2.380474 3.85671-4.27773 9.890581-9.014124 10.799999" style="fill:none;opacity:.1;stroke-linecap:round;stroke-linejoin:round;stroke-width:3;stroke:#000000"/>
 <path d="m16.499983 25.49997v-15.79c2.380474 3.8567099 4.263622 9.8905819 9.000017 10.8m-8.985876 4.97006v-15.789999c-2.380474 3.8567104-4.27773 9.8905814-9.014124 10.799999" style="fill:none;stroke-linecap:round;stroke-linejoin:round;stroke-width:3;stroke:#3f3f3f"/>
 <path d="m13.5 21.5h6" style="fill:none;stroke-linecap:round;stroke-linejoin:round;stroke-width:3;stroke:#3f3f3f"/>
 <path d="m9.5 9.5h14" style="fill:none;stroke-linecap:round;stroke-linejoin:round;stroke-width:3;stroke:#3f3f3f"/>
 <path d="m16.499983 5.5v6.999661" style="fill:none;stroke-linecap:round;stroke-linejoin:round;stroke-width:3;stroke:#3f3f3f"/>
 <path d="M 3.4492188 1 C 2.6459188 1 2 1.6459188 2 2.4492188 L 2 3.4492188 C 2 2.6459188 2.6459188 2 3.4492188 2 L 29.550781 2 C 30.354081 2 31 2.6459188 31 3.4492188 L 31 2.4492188 C 31 1.6459188 30.354081 1 29.550781 1 L 3.4492188 1 z" style="fill:#ffffff;opacity:.2"/>
</svg>
