<svg width="32" height="32" version="1" xmlns="http://www.w3.org/2000/svg">
 <rect x="2" y="3" width="28" height="28" rx="1.4" ry="1.4" style="opacity:.2"/>
 <rect x="2" y="2" width="28" height="28" rx="1.4" ry="1.4" style="fill:#616bdd"/>
 <path d="m3.4004 2c-0.7756 0-1.4004 0.6248-1.4004 1.4004v1c0-0.7756 0.6248-1.4004 1.4004-1.4004h25.2c0.775 0 1.4 0.6248 1.4 1.4004v-1c0-0.7756-0.625-1.4004-1.4-1.4004h-25.2z" style="fill:#ffffff;opacity:.1"/>
 <rect x="6" y="8" width="6" height="6" rx=".75" ry=".75" style="fill:#ffffff;opacity:.1"/>
 <rect x="13" y="8" width="6" height="6" rx=".75" ry=".75" style="fill:#ffffff;opacity:.1"/>
 <rect x="20" y="8" width="6" height="6" rx=".75" ry=".75" style="fill:#ffffff;opacity:.1"/>
 <rect x="13" y="15" width="6" height="6" rx=".75" ry=".75" style="fill:#ffffff;opacity:.1"/>
 <rect x="13" y="22" width="6" height="6" rx=".75" ry=".75" style="fill:#ffffff;opacity:.1"/>
 <rect x="6" y="7" width="6" height="6" rx=".75" ry=".75" style="fill:#30356e"/>
 <rect x="13" y="7" width="6" height="6" rx=".75" ry=".75" style="fill:#30356e"/>
 <rect x="20" y="7" width="6" height="6" rx=".75" ry=".75" style="fill:#30356e"/>
 <rect x="13" y="14" width="6" height="6" rx=".75" ry=".75" style="fill:#30356e"/>
 <rect x="13" y="21" width="6" height="6" rx=".75" ry=".75" style="fill:#30356e"/>
</svg>
