<svg width="32" height="32" version="1" xmlns="http://www.w3.org/2000/svg">
 <rect x="2" y="4" width="27" height="27" rx="1.35" ry="1.35" style="opacity:.2"/>
 <rect x="2" y="3" width="27" height="27" rx="1.35" ry="1.35" style="fill:#cccccc"/>
 <g transform="translate(0,1)">
  <rect x="14" y="14" width="3" height="3" ry=".721" style="fill:#d07517"/>
  <rect x="14" y="10" width="3" height="3" ry=".721" style="fill:#d07517"/>
  <rect x="14" y="22" width="3" height="3" ry=".721" style="fill:#d07517"/>
  <rect x="14" y="18" width="3" height="3" ry=".721" style="fill:#d07517"/>
  <rect x="14" y="6" width="3" height="3" ry=".721" style="fill:#d07517"/>
  <rect x="10" y="6" width="3" height="3" ry=".721" style="fill:#d07517"/>
  <rect x="6" y="6" width="3" height="3" ry=".721" style="fill:#d07517"/>
  <rect x="22" y="6" width="3" height="3" ry=".721" style="fill:#d07517"/>
  <rect x="18" y="6" width="3" height="3" ry=".721" style="fill:#d07517"/>
 </g>
 <path d="M 3.3496094 3 C 2.6017094 3 2 3.6017094 2 4.3496094 L 2 5.3496094 C 2 4.6017094 2.6017094 4 3.3496094 4 L 27.650391 4 C 28.398291 4 29 4.6017094 29 5.3496094 L 29 4.3496094 C 29 3.6017094 28.398291 3 27.650391 3 L 3.3496094 3 z" style="fill:#ffffff;opacity:.2"/>
</svg>
