<svg width="32" height="32" version="1" xmlns="http://www.w3.org/2000/svg">
 <rect transform="matrix(0,-1,-1,0,0,0)" x="-31" y="-30" width="28" height="28" rx="1.4" ry="1.4" style="opacity:.2"/>
 <rect transform="matrix(0,-1,-1,0,0,0)" x="-30" y="-30" width="28" height="28" rx="1.4" ry="1.4" style="fill:#4f4f4f"/>
 <path d="m9 6.5v5.599609c0-0.7 1.725975-2.099609 2.800781-2.099609h3.199219v13l-2 2h7l-2-2v-9.25c0.579164-4.0920962 2.030707-5.0224151 4.964844-5.75h-12.777344l-1.1875-1.5zm-2.5 7.5 1.5 2v8.900391l-1.5 2.099609h7l-1.5-2.099609v-8.900391l1.5-2h-7zm13 0 1.5 2v8.900391l-1.5 2.099609h7l-1.5-2.099609v-8.900391l1.5-2h-7z" style="opacity:.2"/>
 <path d="m9 5.5v5.6c0-0.7 1.725194-2.1 2.8-2.1h3.2v13l-2 2h7l-2-2v-9.249312c0.579164-4.0920962 2.030278-5.0231031 4.964415-5.750688h-12.776961z" style="fill:#ff8e19"/>
 <path d="m6.5 13h7l-1.5 2v8.9l1.5 2.1h-7l1.5-2.1v-8.9z" style="fill:#1289db"/>
 <path d="m19.5 13h7l-1.5 2v8.9l1.5 2.1h-7l1.5-2.1v-8.9z" style="fill:#1289db"/>
 <path d="m9 5.5v1l1.1875 1.5h10.179688c0.697731-0.4468587 1.549077-0.7399814 2.597656-1h-12.777344l-1.1875-1.5zm-2.5 7.5l0.75 1h5.5l0.75-1h-7zm13 0l0.75 1h5.5l0.75-1h-7zm-4.5 9l-2 2h1l1-1v-1zm3 0v1l1 1h1l-2-2zm-10 1.900391l-1.5 2.099609h0.7148438l0.7851562-1.099609v-1zm4 0v1l0.785156 1.099609h0.714844l-1.5-2.099609zm9 0l-1.5 2.099609h0.714844l0.785156-1.099609v-1zm4 0v1l0.785156 1.099609h0.714844l-1.5-2.099609z" style="fill:#ffffff;opacity:.1"/>
 <path d="M 3.4003906 2 C 2.6247906 2 2 2.6247906 2 3.4003906 L 2 4.4003906 C 2 3.6247906 2.6247906 3 3.4003906 3 L 28.599609 3 C 29.375209 3 30 3.6247906 30 4.4003906 L 30 3.4003906 C 30 2.6247906 29.375209 2 28.599609 2 L 3.4003906 2 z" style="fill:#ffffff;opacity:.1"/>
</svg>
