<svg width="32" height="32" version="1" xmlns="http://www.w3.org/2000/svg">
 <path d="m16 2.9991167c-2.216 0-4 1.784-4 4v4.6699223l-1.771484-1.7714848c-1.1990956-1.1990949-3.1309836-1.1990949-4.3300785 0-1.1990949 1.1990948-1.1990949 3.1309838 0 4.3300788l5.7714845 5.771484-5.7714845 5.771484c-1.1990949 1.199095-1.1990949 3.130984 0 4.330078 1.1990949 1.199095 3.1309833 1.199095 4.3300785 0l3.695312-3.695312c0.606075 0.369007 1.311827 0.59375 2.076172 0.59375s1.470097-0.224743 2.076172-0.59375l3.695312 3.695312c1.199095 1.199095 3.130984 1.199095 4.330078 0 1.199095-1.199094 1.199095-3.130983 0-4.330078l-5.771484-5.771484 5.771484-5.771484c1.199095-1.199095 1.199095-3.130984 0-4.3300788-1.199094-1.1990949-3.130983-1.1990949-4.330078 0l-1.771484 1.7714848v-4.6699223c0-2.216-1.784-4-4-4z" style="opacity:.2"/>
 <path d="m16 2c-2.216 0-4 1.784-4 4v4.669922l-1.771484-1.7714845c-1.1990956-1.1990949-3.1309836-1.1990949-4.3300785 0-1.1990949 1.1990945-1.1990949 3.1309835 0 4.3300785l5.7714845 5.771484-5.7714845 5.771484c-1.1990949 1.199095-1.1990949 3.130984 0 4.330078 1.1990949 1.199095 3.1309833 1.199095 4.3300785 0l3.695312-3.695312c0.606075 0.369007 1.311827 0.59375 2.076172 0.59375s1.470097-0.224743 2.076172-0.59375l3.695312 3.695312c1.199095 1.199095 3.130984 1.199095 4.330078 0 1.199095-1.199094 1.199095-3.130983 0-4.330078l-5.771484-5.771484 5.771484-5.771484c1.199095-1.199095 1.199095-3.130984 0-4.3300785-1.199094-1.1990949-3.130983-1.1990949-4.330078 0l-1.771484 1.7714845v-4.669922c0-2.216-1.784-4-4-4z" style="fill:#2d5a37"/>
 <path d="m16 2c-2.216 0-4 1.784-4 4v1c0-2.216 1.784-4 4-4s4 1.784 4 4v-1c0-2.216-1.784-4-4-4zm-7.9375 6c-0.7827458 0-1.564515 0.2988901-2.1640625 0.8984375-0.7274558 0.7274556-1.0067591 1.7244415-0.8515625 2.6640625 0.100863-0.608603 0.3803475-1.192848 0.8515625-1.6640625 1.1990949-1.1990949 3.1309825-1.1990949 4.3300785 0l1.771484 1.7714845v-1l-1.771484-1.7714845c-0.5995482-0.5995474-1.3832702-0.8984375-2.166016-0.8984375zm15.873047 0c-0.782746 0-1.564515 0.2988901-2.164063 0.8984375l-1.771484 1.7714845v1l1.771484-1.7714845c1.199095-1.1990949 3.130985-1.1990949 4.330078 0 0.471216 0.4712145 0.7507 1.0554595 0.851563 1.6640625 0.155197-0.939621-0.124107-1.9366069-0.851563-2.6640625-0.599547-0.5995474-1.383269-0.8984375-2.166015-0.8984375zm-12.765625 11.5l-5.2714845 5.271484c-0.7274558 0.727456-1.0067591 1.724442-0.8515625 2.664063 0.100863-0.608603 0.3803475-1.192848 0.8515625-1.664063l5.7714845-5.771484-0.5-0.5zm9.660156 0l-0.5 0.5 5.771484 5.771484c0.471216 0.471215 0.7507 1.05546 0.851563 1.664063 0.155197-0.939621-0.124107-1.936607-0.851563-2.664063l-5.271484-5.271484z" style="fill:#ffffff;opacity:.1"/>
 <rect transform="matrix(0,-1,-1,0,0,0)" x="-30" y="-26" width="21" height="20" rx="10.5" ry="10" style="opacity:.2"/>
 <rect transform="matrix(0,-1,-1,0,0,0)" x="-29" y="-26" width="21" height="20" rx="10.5" ry="10" style="fill:#6d7481"/>
 <path d="m10.029297 13.970873a1.0000999 1.0000999 0 0 0 -1.013672 1.015625h-0.00195v3.84375a1.0000999 1.0000999 0 0 0 -0.00195 0.0098 1.0000999 1.0000999 0 0 0 -0.00391 0.03516 1.0000999 1.0000999 0 0 0 -0.00586 0.08203 1.0000999 1.0000999 0 0 0 0.00195 0.08984 1.0000999 1.0000999 0 0 0 0.00391 0.04687 1.0000999 1.0000999 0 0 0 0.00586 0.05078v3.841797a1.0000999 1.0000999 0 0 0 0.013672 0.169922 1.0000999 1.0000999 0 0 0 0.021484 0.09766 1.0000999 1.0000999 0 0 0 0.029297 0.09375 1.0000999 1.0000999 0 0 0 0 0.0039 1.0000999 1.0000999 0 0 0 0.037109 0.08594 1.0000999 1.0000999 0 0 0 0.00195 0.0059 1.0000999 1.0000999 0 0 0 0.048828 0.08398 1.0000999 1.0000999 0 0 0 0.056641 0.08203 1.0000999 1.0000999 0 0 0 0.064453 0.07617 1.0000999 1.0000999 0 0 0 0.066406 0.06641 1.0000999 1.0000999 0 0 0 0.00586 0.0039 1.0000999 1.0000999 0 0 0 0.00195 2e-3 1.0000999 1.0000999 0 0 0 0.076172 0.05859 1.0000999 1.0000999 0 0 0 0.082031 0.05273 1.0000999 1.0000999 0 0 0 0.00586 0.0039 1.0000999 1.0000999 0 0 0 0.060547 0.0293 1.0000999 1.0000999 0 0 0 0.037109 0.01758 1.0000999 1.0000999 0 0 0 0.082031 0.03125 1.0000999 1.0000999 0 0 0 0.171875 0.03906 1.0000999 1.0000999 0 0 0 0.048828 0.0059 1.0000999 1.0000999 0 0 0 0.015625 0 1.0000999 1.0000999 0 0 0 0.074219 0.0039 1.0000999 1.0000999 0 0 0 0.07227 -0.0039 1.0000999 1.0000999 0 0 0 0.01172 0 1.0000999 1.0000999 0 0 0 0.0039 0 1.0000999 1.0000999 0 0 0 0.04883 -0.0059 1.0000999 1.0000999 0 0 0 0.171875 -0.03906 1.0000999 1.0000999 0 0 0 0.08984 -0.03516 1.0000999 1.0000999 0 0 0 2e-3 0 1.0000999 1.0000999 0 0 0 0.0059 -2e-3 1.0000999 1.0000999 0 0 0 0.08203 -0.04297 1.0000999 1.0000999 0 0 0 2e-3 0 1.0000999 1.0000999 0 0 0 0.0039 -2e-3 1.0000999 1.0000999 0 0 0 0.158203 -0.111329 1.0000999 1.0000999 0 0 0 0.0078 -0.0059 1.0000999 1.0000999 0 0 0 0.06641 -0.06641 1.0000999 1.0000999 0 0 0 0.06445 -0.07617 1.0000999 1.0000999 0 0 0 0.05664 -0.08203 1.0000999 1.0000999 0 0 0 0.04883 -0.08398 1.0000999 1.0000999 0 0 0 2e-3 -0.0059 1.0000999 1.0000999 0 0 0 0.03711 -0.08594 1.0000999 1.0000999 0 0 0 0 -0.0039 1.0000999 1.0000999 0 0 0 0.0293 -0.09375 1.0000999 1.0000999 0 0 0 0.02148 -0.09766 1.0000999 1.0000999 0 0 0 0.01367 -0.169922v-3h1.998047v3a1.0000999 1.0000999 0 0 0 0.01367 0.169922 1.0000999 1.0000999 0 0 0 0.02148 0.09766 1.0000999 1.0000999 0 0 0 0.0293 0.09375 1.0000999 1.0000999 0 0 0 0 0.0039 1.0000999 1.0000999 0 0 0 0.03711 0.08594 1.0000999 1.0000999 0 0 0 2e-3 0.0059 1.0000999 1.0000999 0 0 0 0.04883 0.08398 1.0000999 1.0000999 0 0 0 0.05664 0.08203 1.0000999 1.0000999 0 0 0 0.06445 0.07617 1.0000999 1.0000999 0 0 0 0.06641 0.06641 1.0000999 1.0000999 0 0 0 0.0059 0.0039 1.0000999 1.0000999 0 0 0 2e-3 2e-3 1.0000999 1.0000999 0 0 0 0.07617 0.05859 1.0000999 1.0000999 0 0 0 0.08203 0.05273 1.0000999 1.0000999 0 0 0 0.0039 2e-3 1.0000999 1.0000999 0 0 0 2e-3 2e-3 1.0000999 1.0000999 0 0 0 0.06055 0.0293 1.0000999 1.0000999 0 0 0 0.02539 0.01367 1.0000999 1.0000999 0 0 0 0.01172 0.0039 1.0000999 1.0000999 0 0 0 0.08203 0.03125 1.0000999 1.0000999 0 0 0 0.171875 0.03906 1.0000999 1.0000999 0 0 0 0.04883 0.0059 1.0000999 1.0000999 0 0 0 0.01563 0 1.0000999 1.0000999 0 0 0 0.07422 0.0039 1.0000999 1.0000999 0 0 0 0.07227 -0.0039 1.0000999 1.0000999 0 0 0 0.01172 0 1.0000999 1.0000999 0 0 0 0.0039 0 1.0000999 1.0000999 0 0 0 0.04883 -0.0059 1.0000999 1.0000999 0 0 0 0.171875 -0.03906 1.0000999 1.0000999 0 0 0 0.08984 -0.03516 1.0000999 1.0000999 0 0 0 2e-3 0 1.0000999 1.0000999 0 0 0 0.0059 -2e-3 1.0000999 1.0000999 0 0 0 0.08203 -0.04297 1.0000999 1.0000999 0 0 0 2e-3 0 1.0000999 1.0000999 0 0 0 0.0039 -2e-3 1.0000999 1.0000999 0 0 0 0.158203 -0.111329 1.0000999 1.0000999 0 0 0 2e-3 -2e-3 1.0000999 1.0000999 0 0 0 0.0059 -0.0039 1.0000999 1.0000999 0 0 0 0.06641 -0.06641 1.0000999 1.0000999 0 0 0 0.06445 -0.07617 1.0000999 1.0000999 0 0 0 0.05664 -0.08203 1.0000999 1.0000999 0 0 0 0.04883 -0.08398 1.0000999 1.0000999 0 0 0 0 -2e-3 1.0000999 1.0000999 0 0 0 2e-3 -0.0039 1.0000999 1.0000999 0 0 0 0.03711 -0.08594 1.0000999 1.0000999 0 0 0 0 -2e-3 1.0000999 1.0000999 0 0 0 0 -2e-3 1.0000999 1.0000999 0 0 0 0.0293 -0.09375 1.0000999 1.0000999 0 0 0 0.02148 -0.09766 1.0000999 1.0000999 0 0 0 0.01367 -0.169922v-3.841797a1.0000999 1.0000999 0 0 0 0.0059 -0.05078 1.0000999 1.0000999 0 0 0 0.0039 -0.04687 1.0000999 1.0000999 0 0 0 2e-3 -0.05469 1.0000999 1.0000999 0 0 0 -2e-3 -0.05859 1.0000999 1.0000999 0 0 0 0 -0.0039 1.0000999 1.0000999 0 0 0 0 -0.0098 1.0000999 1.0000999 0 0 0 -0.0098 -0.08203 1.0000999 1.0000999 0 0 0 0 -0.0078v-3.84375h-2e-3a1.0000999 1.0000999 0 0 0 -1.01422 -1.015417 1.0000999 1.0000999 0 0 0 -0.673828 0.277344 1.0000999 1.0000999 0 0 0 -0.07031 0.07226 1.0000999 1.0000999 0 0 0 -0.04883 0.0625 1.0000999 1.0000999 0 0 0 -0.0332 0.04492 1.0000999 1.0000999 0 0 0 -0.01172 0.01758 1.0000999 1.0000999 0 0 0 -0.148437 0.695313v2.845703h-1.998047v-2.845703a1.0000999 1.0000999 0 0 0 -0.148437 -0.695313 1.0000999 1.0000999 0 0 0 -2e-3 -0.0039 1.0000999 1.0000999 0 0 0 -0.0293 -0.04297 1.0000999 1.0000999 0 0 0 -0.01367 -0.01563 1.0000999 1.0000999 0 0 0 -0.04883 -0.0625 1.0000999 1.0000999 0 0 0 -0.07031 -0.07226 1.0000999 1.0000999 0 0 0 -0.673828 -0.277344zm8.970703 2.029297a3 3 0 0 0 -3 3 3 3 0 0 0 3 3 3 3 0 0 0 0.742188 -0.09766c-0.02222 0.08373-0.03618 0.182045-0.0625 0.257812-0.143248 0.412386-0.32376 0.657951-0.501954 0.777344-0.178193 0.119393-0.409818 0.202995-0.970703 0.08398a1.0001777 1.0001777 0 1 0 -0.414062 1.957032c0.939115 0.199245 1.83249 0.06703 2.498047-0.378907 0.665556-0.445936 1.047546-1.116027 1.279296-1.783203 0.463508-1.334323 0.429688-2.816398 0.429688-3.816398a1.0001 1.0001 0 0 0 -0.005859 -0.115234 3 3 0 0 0 -2.994141 -2.884766zm0 2a1 1 0 0 1 1 1 1 1 0 0 1 -1 1 1 1 0 0 1 -1 -1 1 1 0 0 1 1 -1z" style="opacity:.2"/>
 <path d="m10.029297 12.970703a1.0000999 1.0000999 0 0 0 -1.013672 1.015625h-0.0019531v3.84375a1.0000999 1.0000999 0 0 0 -0.0019531 0.009766 1.0000999 1.0000999 0 0 0 -0.0039063 0.035156 1.0000999 1.0000999 0 0 0 -0.0058594 0.082031 1.0000999 1.0000999 0 0 0 0.0019531 0.089844 1.0000999 1.0000999 0 0 0 0.0039063 0.046875 1.0000999 1.0000999 0 0 0 0.0058594 0.050781v3.841797a1.0000999 1.0000999 0 0 0 0.0136719 0.169922 1.0000999 1.0000999 0 0 0 0.0214843 0.097656 1.0000999 1.0000999 0 0 0 0.0292969 0.09375 1.0000999 1.0000999 0 0 0 0 0.003906 1.0000999 1.0000999 0 0 0 0.0371094 0.085938 1.0000999 1.0000999 0 0 0 0.0019531 0.005859 1.0000999 1.0000999 0 0 0 0.0488281 0.083985 1.0000999 1.0000999 0 0 0 0.0566406 0.082031 1.0000999 1.0000999 0 0 0 0.0644532 0.076172 1.0000999 1.0000999 0 0 0 0.0664062 0.066406 1.0000999 1.0000999 0 0 0 0.0058594 0.003906 1.0000999 1.0000999 0 0 0 0.0019531 0.001953 1.0000999 1.0000999 0 0 0 0.0761719 0.058594 1.0000999 1.0000999 0 0 0 0.0820312 0.052735 1.0000999 1.0000999 0 0 0 0.0058594 0.003906 1.0000999 1.0000999 0 0 0 0.0605469 0.029297 1.0000999 1.0000999 0 0 0 0.0371094 0.017578 1.0000999 1.0000999 0 0 0 0.0820312 0.03125 1.0000999 1.0000999 0 0 0 0.171875 0.039062 1.0000999 1.0000999 0 0 0 0.0488281 0.00586 1.0000999 1.0000999 0 0 0 0.015625 0 1.0000999 1.0000999 0 0 0 0.0742188 0.003906 1.0000999 1.0000999 0 0 0 0.072266 -0.003906 1.0000999 1.0000999 0 0 0 0.011718 0 1.0000999 1.0000999 0 0 0 0.003907 0 1.0000999 1.0000999 0 0 0 0.048828 -0.00586 1.0000999 1.0000999 0 0 0 0.171875 -0.039062 1.0000999 1.0000999 0 0 0 0.089843 -0.035156 1.0000999 1.0000999 0 0 0 0.001954 0 1.0000999 1.0000999 0 0 0 0.005859 -0.001954 1.0000999 1.0000999 0 0 0 0.082031 -0.042968 1.0000999 1.0000999 0 0 0 0.001953 0 1.0000999 1.0000999 0 0 0 0.003907 -0.001953 1.0000999 1.0000999 0 0 0 0.158203 -0.111329 1.0000999 1.0000999 0 0 0 0.007812 -0.005859 1.0000999 1.0000999 0 0 0 0.066407 -0.066406 1.0000999 1.0000999 0 0 0 0.064453 -0.076172 1.0000999 1.0000999 0 0 0 0.05664 -0.082031 1.0000999 1.0000999 0 0 0 0.048828 -0.083985 1.0000999 1.0000999 0 0 0 0.001953 -0.005859 1.0000999 1.0000999 0 0 0 0.03711 -0.085938 1.0000999 1.0000999 0 0 0 0 -0.003906 1.0000999 1.0000999 0 0 0 0.029297 -0.09375 1.0000999 1.0000999 0 0 0 0.021484 -0.097656 1.0000999 1.0000999 0 0 0 0.013672 -0.169922v-3h1.998047v3a1.0000999 1.0000999 0 0 0 0.013672 0.169922 1.0000999 1.0000999 0 0 0 0.021484 0.097656 1.0000999 1.0000999 0 0 0 0.029297 0.09375 1.0000999 1.0000999 0 0 0 0 0.003906 1.0000999 1.0000999 0 0 0 0.037109 0.085938 1.0000999 1.0000999 0 0 0 0.001954 0.005859 1.0000999 1.0000999 0 0 0 0.048828 0.083985 1.0000999 1.0000999 0 0 0 0.05664 0.082031 1.0000999 1.0000999 0 0 0 0.064453 0.076172 1.0000999 1.0000999 0 0 0 0.066407 0.066406 1.0000999 1.0000999 0 0 0 0.005859 0.003906 1.0000999 1.0000999 0 0 0 0.001953 0.001953 1.0000999 1.0000999 0 0 0 0.076172 0.058594 1.0000999 1.0000999 0 0 0 0.082031 0.052735 1.0000999 1.0000999 0 0 0 0.003907 0.001953 1.0000999 1.0000999 0 0 0 0.001953 0.001953 1.0000999 1.0000999 0 0 0 0.060547 0.029297 1.0000999 1.0000999 0 0 0 0.02539 0.013672 1.0000999 1.0000999 0 0 0 0.011719 0.003906 1.0000999 1.0000999 0 0 0 0.082031 0.03125 1.0000999 1.0000999 0 0 0 0.171875 0.039062 1.0000999 1.0000999 0 0 0 0.048828 0.00586 1.0000999 1.0000999 0 0 0 0.015625 0 1.0000999 1.0000999 0 0 0 0.074219 0.003906 1.0000999 1.0000999 0 0 0 0.072266 -0.003906 1.0000999 1.0000999 0 0 0 0.011718 0 1.0000999 1.0000999 0 0 0 0.003907 0 1.0000999 1.0000999 0 0 0 0.048828 -0.00586 1.0000999 1.0000999 0 0 0 0.171875 -0.039062 1.0000999 1.0000999 0 0 0 0.089843 -0.035156 1.0000999 1.0000999 0 0 0 0.001954 0 1.0000999 1.0000999 0 0 0 0.005859 -0.001954 1.0000999 1.0000999 0 0 0 0.082031 -0.042968 1.0000999 1.0000999 0 0 0 0.001953 0 1.0000999 1.0000999 0 0 0 0.003907 -0.001953 1.0000999 1.0000999 0 0 0 0.158203 -0.111329 1.0000999 1.0000999 0 0 0 0.001953 -0.001953 1.0000999 1.0000999 0 0 0 0.005859 -0.003906 1.0000999 1.0000999 0 0 0 0.066407 -0.066406 1.0000999 1.0000999 0 0 0 0.064453 -0.076172 1.0000999 1.0000999 0 0 0 0.05664 -0.082031 1.0000999 1.0000999 0 0 0 0.048828 -0.083985 1.0000999 1.0000999 0 0 0 0 -0.001953 1.0000999 1.0000999 0 0 0 0.001953 -0.003906 1.0000999 1.0000999 0 0 0 0.03711 -0.085938 1.0000999 1.0000999 0 0 0 0 -0.001953 1.0000999 1.0000999 0 0 0 0 -0.001953 1.0000999 1.0000999 0 0 0 0.029297 -0.09375 1.0000999 1.0000999 0 0 0 0.021484 -0.097656 1.0000999 1.0000999 0 0 0 0.013672 -0.169922v-3.841797a1.0000999 1.0000999 0 0 0 0.005859 -0.050781 1.0000999 1.0000999 0 0 0 0.003907 -0.046875 1.0000999 1.0000999 0 0 0 0.001953 -0.054687 1.0000999 1.0000999 0 0 0 -0.001953 -0.058594 1.0000999 1.0000999 0 0 0 0 -0.003906 1.0000999 1.0000999 0 0 0 0 -0.009766 1.0000999 1.0000999 0 0 0 -0.009766 -0.082031 1.0000999 1.0000999 0 0 0 0 -0.007813v-3.84375h-0.001953a1.0000999 1.0000999 0 0 0 -1.013672 -1.015625 1.0000999 1.0000999 0 0 0 -0.673828 0.277344 1.0000999 1.0000999 0 0 0 -0.070313 0.072265 1.0000999 1.0000999 0 0 0 -0.048828 0.0625 1.0000999 1.0000999 0 0 0 -0.033203 0.044922 1.0000999 1.0000999 0 0 0 -0.011719 0.017578 1.0000999 1.0000999 0 0 0 -0.148437 0.695313v2.845703h-1.998047v-2.845703a1.0000999 1.0000999 0 0 0 -0.148437 -0.695313 1.0000999 1.0000999 0 0 0 -0.001954 -0.003906 1.0000999 1.0000999 0 0 0 -0.029296 -0.042968 1.0000999 1.0000999 0 0 0 -0.013672 -0.015626 1.0000999 1.0000999 0 0 0 -0.048828 -0.0625 1.0000999 1.0000999 0 0 0 -0.070313 -0.072265 1.0000999 1.0000999 0 0 0 -0.673828 -0.277344zm8.970703 2.029297a3 3 0 0 0 -3 3 3 3 0 0 0 3 3 3 3 0 0 0 0.742188 -0.097656c-0.022221 0.08373-0.036181 0.182045-0.0625 0.257812-0.143248 0.412386-0.32376 0.657951-0.501954 0.777344-0.178193 0.119393-0.409818 0.202995-0.970703 0.083984a1.0001777 1.0001777 0 1 0 -0.414062 1.957032c0.939115 0.199245 1.83249 0.06703 2.498047-0.378907 0.665556-0.445936 1.047546-1.116027 1.279296-1.783203 0.463508-1.334331 0.429688-2.816406 0.429688-3.816406a1.0001 1.0001 0 0 0 -0.005859 -0.115234 3 3 0 0 0 -2.994141 -2.884766zm0 2a1 1 0 0 1 1 1 1 1 0 0 1 -1 1 1 1 0 0 1 -1 -1 1 1 0 0 1 1 -1z" style="fill:#c4c4c4"/>
</svg>
