<svg width="32" height="32" version="1" xmlns="http://www.w3.org/2000/svg">
 <rect transform="matrix(0,-1,-1,0,0,0)" x="-30" y="-29" width="26" height="26" rx="1.25" ry="1.25" style="opacity:.2"/>
 <rect transform="matrix(0,-1,-1,0,0,0)" x="-29" y="-29" width="26" height="26" rx="1.25" ry="1.25" style="fill:#4f4f4f"/>
 <g style="opacity:.4">
  <rect x="4" y="22" width="11" height="6" rx="1.25" ry="1.25"/>
  <rect x="17" y="22" width="11" height="6" rx="1.25" ry="1.25"/>
  <rect x="24" y="7" width="4" height="1"/>
  <rect x="24" y="9" width="4" height="1"/>
  <rect x="24" y="11" width="4" height="1"/>
  <rect x="24" y="13" width="4" height="1"/>
  <rect x="24" y="15" width="4" height="1"/>
  <rect x="24" y="17" width="4" height="1"/>
 </g>
 <path d="m4.25 3c-0.6925 0-1.25 0.5575-1.25 1.25v1c0-0.6925 0.5575-1.25 1.25-1.25h23.5c0.692 0 1.25 0.5575 1.25 1.25v-1c0-0.6925-0.558-1.25-1.25-1.25h-23.5z" style="fill:#ffffff;opacity:.1"/>
</svg>
