<svg width="32" height="32" version="1.1" viewBox="0 0 32 32" xmlns="http://www.w3.org/2000/svg">
 <g transform="translate(0,-1020.3622)">
  <path d="m16 1023.3619c-2.68477 0-5 2.4976-5 5.6 0 7-4.0000001 7.7-4.0000001 12.6001 0 5.4123 4.0294371 9.7999 9.0000001 9.7999s9-4.3876 9-9.7999c0-4.9001-4-5.6001-4-12.6001 0-3.1024-2.31523-5.6-5-5.6z" style="opacity:.2"/>
  <path d="m16 1022.3622c-2.68477 0-5 2.4976-5 5.6 0 7-4.0000001 7.7-4.0000001 12.6001 0 5.4123 4.0294371 9.7999 9.0000001 9.7999s9-4.3876 9-9.7999c0-4.9001-4-5.6001-4-12.6001 0-3.1024-2.31523-5.6-5-5.6z" style="fill:#3d7284"/>
  <path d="m16 1031.3622c-1.789845 0-3 1.5164-3 3.3999 0 4.2501-3 4.675-3 7.65 0 3.2861 2.686292 5.9501 6 5.9501s6-2.664 6-5.9501c0-2.975-3-3.3999-3-7.65 0-1.8835-1.210155-3.3999-3-3.3999z" style="opacity:.1"/>
  <path d="m16 1030.3622c-1.789845 0-3 1.5164-3 3.3999 0 4.2501-3 4.675-3 7.65 0 3.2861 2.686292 5.9501 6 5.9501s6-2.664 6-5.9501c0-2.975-3-3.3999-3-7.65 0-1.8835-1.210155-3.3999-3-3.3999z" style="fill:#ffffff"/>
  <path d="m11.518362 1051.3414c-0.301322-0.048-0.567776-0.1377-1.151596-0.3896-0.8692114-0.3752-1.274527-0.4969-2.8654141-0.86-0.7935422-0.1811-1.0892818-0.2615-1.7780262-0.4843-0.25054-0.081-0.5844708-0.1844-0.7420682-0.2297-0.4278188-0.1231-0.5412413-0.171-0.697986-0.2944-0.2138286-0.1684-0.3134799-0.4281-0.2752614-0.7174 0.024487-0.1854 0.089202-0.3635 0.2678312-0.7373 0.2387432-0.4997 0.8315087-0.6794 0.8678748-1.171 0.021395-0.2894 0.00385-0.6148-0.069576-1.2922-0.043458-0.401-0.053384-0.5487-0.05402-0.8037-6.553e-4 -0.2768 0.00289-0.084 0.031375-0.1898 0.107042-0.3965 0.1885079-0.6252 0.5674386-0.7238 0.1096821-0.029-0.1198026-0.033 0.3949462-0.043 0.320433-0.01 0.5059466-0.018 0.5470273-0.028 0.2220168-0.051 0.3836566-0.1339 0.5342945-0.2774 0.1434914-0.1368 0.2416964-0.8763 0.4289907-1.2095 0.2915535-0.5142 0.8667135-0.5091 1.3363934-0.5282 0.1331608 0.028 0.1774343 0.046 0.3232772 0.1304 0.1467821 0.084 0.1882943 0.1182 0.31593 0.2541 0.3211956 0.3421 0.4745292 0.5532 1.194931 1.6444 0.570977 0.8651 0.745434 1.1418 0.975591 1.5476 0.250723 0.4423 0.702704 1.1517 0.870261 1.366 0.02839 0.037 0.202232 0.2571 0.386305 0.4904 0.184082 0.2337 0.352425 0.4521 0.374104 0.4857 0.345688 0.4822 0.588364 1.0364 0.67469 1.5901 0.02902 0.193 0.03003 0.2256 0.01379 0.4465-0.0206 0.2805-0.0385 0.4004-0.06891 0.4616-0.0122 0.025-0.03901 0.092-0.05957 0.1487-0.264308 0.7364-0.923124 1.2889-1.68637 1.4144-0.162306 0.027-0.484151 0.027-0.656255 0z" style="opacity:.2"/>
  <path d="m11.518362 1050.3417c-0.301322-0.048-0.567776-0.1377-1.151596-0.3896-0.8692114-0.3752-1.274527-0.4969-2.8654141-0.86-0.7935422-0.1811-1.0892818-0.2615-1.7780262-0.4843-0.25054-0.081-0.5844708-0.1844-0.7420682-0.2297-0.4278188-0.1231-0.5412413-0.171-0.697986-0.2944-0.2138286-0.1684-0.3134799-0.4281-0.2752614-0.7174 0.024487-0.1854 0.089202-0.3635 0.2678312-0.7373 0.2387432-0.4997 0.8315087-0.6794 0.8678748-1.171 0.021395-0.2894 0.00385-0.6148-0.069576-1.2922-0.043458-0.4009-0.053384-0.5486-0.05402-0.8037-6.553e-4 -0.2768 0.00289-0.084 0.031375-0.1898 0.107042-0.3964 0.1885079-0.6252 0.5674386-0.7238 0.1096821-0.029-0.1198026-0.033 0.3949462-0.043 0.320433-0.01 0.5059466-0.018 0.5470273-0.028 0.2220168-0.051 0.3836566-0.1339 0.5342945-0.2774 0.1434914-0.1368 0.2416964-0.8763 0.4289907-1.2095 0.2915535-0.5142 0.8667135-0.5091 1.3363934-0.5282 0.1331608 0.028 0.1774343 0.046 0.3232772 0.1304 0.1467821 0.084 0.1882943 0.1182 0.31593 0.2541 0.3211956 0.3421 0.4745292 0.5532 1.194931 1.6444 0.570977 0.8651 0.745434 1.1418 0.975591 1.5476 0.250723 0.4423 0.702704 1.1517 0.870261 1.366 0.02839 0.037 0.202232 0.2571 0.386305 0.4904 0.184082 0.2337 0.352425 0.4521 0.374104 0.4857 0.345688 0.4822 0.588364 1.0364 0.67469 1.5901 0.02902 0.193 0.03003 0.2256 0.01379 0.4465-0.0206 0.2805-0.0385 0.4004-0.06891 0.4616-0.0122 0.025-0.03901 0.092-0.05957 0.1487-0.264308 0.7364-0.923124 1.2889-1.68637 1.4144-0.162306 0.027-0.484151 0.027-0.656255 0z" style="fill:#eab108"/>
  <path d="m23.211618 1051.008c0.230019-0.1616 0.413791-0.3428 0.793491-0.7845 0.565276-0.6576 0.550647-0.9212 1.719523-1.8631 0.583076-0.4696 0.794973-0.6552 1.273796-1.1161 0.1742-0.1676 0.40826-0.3873 0.520166-0.4882 0.303772-0.2738 0.377994-0.3588 0.456774-0.5226 0.107499-0.2234 0.08237-0.4742-0.06932-0.6929-0.09724-0.1402-0.224858-0.2581-0.528107-0.488-0.405353-0.3074-0.521283-0.5717-0.755481-0.955-0.1378-0.2256 0.04204-0.7961-0.178164-1.3746-0.130277-0.3422-0.183347-0.4658-0.288695-0.6727-0.114311-0.2244-0.137727-0.263-0.205119-0.3366-0.253296-0.2775-0.534509-0.3713-0.889757-0.297-0.102857 0.022-0.163313 0.047-0.594452 0.2483-0.268752 0.1248-0.50993 0.2316-0.547869 0.2407-0.204919 0.05-0.373808 0.047-0.558304-0.01-0.175773-0.052-0.315119 0.3137-0.608707 0.1201-0.200844-0.1315-0.416413-0.2957-0.570671-0.3383-0.214328-0.059-0.213621-0.059-0.413901-0.037-0.192794 0.024-0.334838 0.079-0.491678 0.2014-0.09886 0.077-0.127856 0.11-0.214028 0.2373-0.08656 0.1284-0.107144 0.1724-0.156608 0.3344-0.124461 0.4078-0.164037 0.6411-0.308782 1.818-0.114613 0.9331-0.144494 1.2281-0.166961 1.6505-0.02446 0.4601-0.104986 1.2185-0.155019 1.4603-0.0084 0.041-0.06106 0.2906-0.116891 0.5545-0.05576 0.2642-0.104715 0.5095-0.108762 0.5455-0.08662 0.5313-0.05799 1.0787 0.100205 1.5623 0.05599 0.168 0.06871 0.1949 0.173847 0.3672 0.133459 0.2187 0.198054 0.3085 0.248675 0.3456 0.0202 0.015 0.07035 0.058 0.111159 0.096 0.524799 0.4888 1.300504 0.6677 1.985632 0.4586 0.145595-0.044 0.412573-0.1757 0.544325-0.2672z" style="opacity:.2"/>
  <path d="m23.211618 1050.0083c0.230019-0.1616 0.413791-0.3428 0.793491-0.7845 0.565276-0.6576 0.550647-0.9212 1.719523-1.8631 0.583076-0.4696 0.794973-0.6552 1.273796-1.1161 0.1742-0.1676 0.40826-0.3873 0.520166-0.4882 0.303772-0.2738 0.377994-0.3588 0.456774-0.5226 0.107499-0.2234 0.08237-0.4742-0.06932-0.6929-0.09724-0.1402-0.224858-0.2581-0.528107-0.488-0.405353-0.3074-0.521283-0.5717-0.755481-0.955-0.1378-0.2256 0.04204-0.7961-0.178164-1.3746-0.130277-0.3422-0.183347-0.4658-0.288695-0.6727-0.114311-0.2244-0.137727-0.263-0.205119-0.3366-0.253296-0.2775-0.534509-0.3712-0.889757-0.2969-0.102857 0.022-0.163313 0.047-0.594452 0.2483-0.268752 0.1247-0.50993 0.2315-0.547869 0.2406-0.204919 0.05-0.373808 0.047-0.558304-0.01-0.175773-0.052-0.315119 0.3138-0.608707 0.1201-0.200844-0.1315-0.416413-0.2957-0.570671-0.3383-0.214328-0.059-0.213621-0.059-0.413901-0.037-0.192794 0.024-0.334838 0.079-0.491678 0.2014-0.09886 0.077-0.127856 0.11-0.214028 0.2373-0.08656 0.1284-0.107144 0.1724-0.156608 0.3344-0.124461 0.4078-0.164037 0.6411-0.308782 1.818-0.114613 0.9331-0.144494 1.2281-0.166961 1.6505-0.02446 0.4601-0.104986 1.2186-0.155019 1.4604-0.0084 0.041-0.06106 0.2905-0.116891 0.5545-0.05576 0.2641-0.104715 0.5095-0.108762 0.5455-0.08662 0.5313-0.05799 1.0787 0.100205 1.5623 0.05599 0.168 0.06871 0.1949 0.173847 0.3672 0.133459 0.2187 0.198054 0.3085 0.248675 0.3456 0.0202 0.015 0.07035 0.058 0.111159 0.096 0.524799 0.4887 1.300504 0.6677 1.985632 0.4586 0.145595-0.044 0.412573-0.1757 0.544325-0.2672z" style="fill:#eab108"/>
  <circle cx="14" cy="1028.362" r="2" style="opacity:.1"/>
  <circle cx="14" cy="1027.362" r="2" style="fill:#ffffff"/>
  <circle cx="14" cy="1027.362" r="1" style="fill:#323232"/>
  <path d="m19 1030.8622c0 1.9331-1.343146 3.5-3 3.5s-3-1.5669-3-3.5z" style="opacity:.1"/>
  <path d="m19 1029.8622c0 1.9331-1.343146 3.5-3 3.5s-3-1.5669-3-3.5z" style="fill:#f77d00"/>
  <circle cx="18" cy="1028.362" r="2" style="opacity:.1"/>
  <circle cx="18" cy="1027.362" r="2" style="fill:#ffffff"/>
  <circle cx="18" cy="1027.362" r="1" style="fill:#323232"/>
  <path d="m19 1030.0289c0 0.3333-1.343146 2.3333-3 2.3333s-3-2-3-2.3333c0-0.9205 1.343146-1.6667 3-1.6667s3 0.7462 3 1.6667z" style="fill:#eab108"/>
  <path transform="translate(0,1020.3622)" d="m25.314453 20.03125c-0.080278-0.002672-0.165094 0.004863-0.253906 0.023438-0.102857 0.021999-0.162611 0.046746-0.59375 0.248046-0.268752 0.1247-0.510889 0.231135-0.548828 0.240235-0.204919 0.05-0.374098 0.047234-0.558594-0.009766-0.175773-0.052-0.313834 0.314794-0.607422 0.121094-0.200844-0.1315-0.416054-0.295291-0.570312-0.337891-0.214328-0.059-0.213783-0.059109-0.414063-0.037109-0.192794 0.024-0.335347 0.078772-0.492187 0.201172-0.09886 0.077-0.128672 0.109028-0.214844 0.236328-0.08656 0.1284-0.106786 0.171984-0.15625 0.333984-0.124461 0.4078-0.163849 0.64146-0.308594 1.81836-0.114613 0.9331-0.143549 1.22799-0.166015 1.65039-0.024461 0.4601-0.106217 1.219138-0.15625 1.460938-0.008401 0.041-0.061357 0.290687-0.117188 0.554687-0.05576 0.2641-0.103375 0.508922-0.107422 0.544922-0.059981 0.367905-0.061157 0.742794-0.005859 1.09961 0.004502-0.03324 4.57e-4 -0.066476 0.005859-0.09961 0.004047-0.036 0.051662-0.280722 0.107422-0.544922 0.055831-0.2639 0.108787-0.513687 0.117188-0.554687 0.050033-0.2418 0.131789-1.000838 0.15625-1.460938 0.022466-0.4224 0.051402-0.71729 0.166015-1.65039 0.144745-1.1769 0.184133-1.41056 0.308594-1.81836 0.049464-0.162 0.06969-0.205584 0.15625-0.333984 0.086172-0.1273 0.115984-0.159328 0.214844-0.236328 0.15684-0.1224 0.299393-0.179125 0.492187-0.203125 0.20028-0.022 0.199735-0.021891 0.414063 0.037109 0.154258 0.0426 0.369468 0.208344 0.570312 0.339844 0.293588 0.1936 0.431649-0.173094 0.607422-0.121094 0.184496 0.057 0.353675 0.059766 0.558594 0.009766 0.037939-0.0091 0.280076-0.115435 0.548828-0.240235 0.431139-0.2013 0.490893-0.226047 0.59375-0.248046 0.355248-0.0743 0.637329 0.019375 0.890625 0.296874 0.067392 0.073601 0.090767 0.111538 0.205078 0.335938 0.105348 0.2069 0.156832 0.331628 0.287109 0.673828 0.220204 0.5785 0.041888 1.1494 0.179688 1.375 0.234198 0.3833 0.350506 0.645725 0.755859 0.953125 0.24202 0.183481 0.35905 0.295222 0.451172 0.404297 0.067156-0.076609 0.104891-0.140236 0.144531-0.222656 0.107499-0.2234 0.083331-0.47466-0.068359-0.69336-0.09724-0.1402-0.224095-0.256428-0.527344-0.486328-0.405353-0.3074-0.521661-0.571778-0.755859-0.955078-0.1378-0.2256 0.040516-0.7965-0.179688-1.375-0.130277-0.3422-0.181761-0.466928-0.287109-0.673828-0.114311-0.2244-0.137686-0.262337-0.205078-0.335938-0.189972-0.208124-0.395884-0.312296-0.636719-0.320312z" style="fill:#ffffff;opacity:.2"/>
  <path d="m23.451121 1043.411c-1.151714 0-1.160296-0.9568-1.390242-2.0854-0.255824-1.2556-0.419339-1.9815 1.585454-2.0854 1.735866-0.5704 2.004098 4.1039-0.195212 4.1708z" style="fill:#3d7284"/>
  <path transform="translate(0,1020.3622)" d="m16 2c-2.68477 0-5 2.4972094-5 5.5996094 0 6.9999996-4 7.6995096-4 12.59961 0 0.176731 0.0169053 0.349008 0.0253906 0.523437 0.2551769-4.466966 3.9746094-5.362417 3.9746094-12.123047 0-3.1024 2.31523-5.5996094 5-5.5996094s5 2.4972094 5 5.5996094c0 6.7606296 3.719433 7.6560806 3.974609 12.123047 0.008486-0.174429 0.025391-0.346706 0.025391-0.523437 0-4.9001-4-5.59961-4-12.59961 0-3.1024-2.31523-5.5996094-5-5.5996094z" style="fill:#ffffff;opacity:.1"/>
  <path transform="translate(0,1020.3622)" d="m8.8613281 20c-0.4696799 0.0191-1.0463371 0.015097-1.3378906 0.529297-0.1872943 0.3332-0.284243 1.072184-0.4277344 1.208984-0.1506379 0.1435-0.3131394 0.226344-0.5351562 0.277344-0.0410807 0.01-0.226442 0.017344-0.546875 0.027344-0.5147488 0.01-0.2848492 0.013969-0.3945313 0.042969-0.3789307 0.0986-0.4613174 0.328209-0.5683594 0.724609-0.028485 0.1058-0.0319053-0.087347-0.03125 0.189453 6.004e-4 0.240806 0.0132337 0.405092 0.0507813 0.757812 0.0993804-0.357131 0.1908624-0.57873 0.5488281-0.671874 0.1096821-0.029-0.1202175-0.032969 0.3945313-0.042969 0.320433-0.01 0.5057943-0.017344 0.546875-0.027344 0.2220168-0.051 0.3845183-0.133844 0.5351562-0.277344 0.1434914-0.1368 0.2404401-0.877737 0.4277344-1.210937 0.2915535-0.5142 0.8682107-0.508244 1.3378906-0.527344 0.1331608 0.028 0.1764228 0.046459 0.3222657 0.130859 0.146782 0.084 0.1887705 0.118007 0.3164062 0.253907 0.3211956 0.3421 0.4749107 0.553331 1.195312 1.644531 0.570977 0.8651 0.744453 1.141075 0.97461 1.546875 0.250723 0.4423 0.703537 1.152887 0.871094 1.367187 0.02839 0.037 0.202645 0.256935 0.386718 0.490235 0.184082 0.2337 0.351368 0.450775 0.373047 0.484375 0.306918 0.42812 0.525627 0.913406 0.632813 1.404297 0.020546-0.071246 0.040294-0.144604 0.05664-0.367188 0.01624-0.2209 0.015348-0.252312-0.013672-0.445312-0.086326-0.5537-0.330093-1.109597-0.675781-1.591797-0.021679-0.0336-0.188965-0.250675-0.373047-0.484375-0.184073-0.2333-0.358328-0.453235-0.386718-0.490235-0.167557-0.2143-0.620371-0.924887-0.871094-1.367187-0.230157-0.4058-0.403633-0.681775-0.97461-1.546875-0.7204013-1.0912-0.8741164-1.302431-1.195312-1.644531-0.1276357-0.1359-0.1696242-0.169907-0.3164062-0.253907-0.1458429-0.0844-0.1891049-0.102859-0.3222657-0.130859zm-3.7480469 5.236328c-0.1261902 0.390081-0.6235376 0.5826-0.8378906 1.03125-0.1786292 0.3738-0.2430911 0.550928-0.2675781 0.736328-0.0283184 0.21436 0.019382 0.411602 0.1328125 0.56836 0.0377424-0.091481 0.0723541-0.176038 0.1347656-0.306641 0.2387432-0.4997 0.8327745-0.678322 0.8691406-1.169922 0.0155449-0.210268 8.157e-4 -0.489895-0.03125-0.859375z" style="fill:#ffffff;opacity:.2"/>
 </g>
</svg>
