<svg width="32" height="32" version="1" xmlns="http://www.w3.org/2000/svg">
 <path d="m6 3h20v10h-20z" fill="#b7b7b7"/>
 <rect x="2" y="12" width="28" height="17" rx="1.4" ry="1.417" fill="#4f4f4f"/>
 <g style="opacity:.4">
  <rect x="8" y="16" width="16" height="2"/>
  <rect x="10" y="20" width="12" height="2"/>
  <rect x="12" y="24" width="8" height="2"/>
 </g>
 <path d="m2 27.584v1c0 0.785 0.6248 1.416 1.4004 1.416h25.2c0.775 0 1.4-0.631 1.4-1.416v-1c0 0.785-0.625 1.416-1.4 1.416h-25.2c-0.7752 0-1.4-0.631-1.4-1.416z" opacity=".2"/>
 <path d="m6 3v1h20v-1h-20z" fill="#fff" opacity=".2"/>
 <circle cx="24.5" cy="24.5" r="7.5" style="opacity:.2"/>
 <circle cx="24.5" cy="23.5" r="7.5" style="fill:#3cd240"/>
 <path d="m21 24 3.5 4 3.5-4h-2v-5h-3v5z" style="fill:#ffffff"/>
 <rect x="8" y="5" width="5" height="3" style="opacity:.5"/>
 <rect x="19" y="5" width="5" height="3" style="opacity:.5"/>
</svg>
