<svg width="32" height="32" version="1" xmlns="http://www.w3.org/2000/svg">
 <rect transform="matrix(0,-1,-1,0,0,0)" x="-30" y="-30" width="28" height="28" rx="1.5" ry="1.5" fill="#407ec2"/>
 <path d="m3.5 2c-0.831 0-1.5 0.669-1.5 1.5v1c0-0.831 0.669-1.5 1.5-1.5h25c0.831 0 1.5 0.669 1.5 1.5v-1c0-0.831-0.669-1.5-1.5-1.5h-25z" fill="#fff" opacity=".1"/>
 <path d="m2 28.5v1c0 0.831 0.669 1.5 1.5 1.5h25c0.831 0 1.5-0.669 1.5-1.5v-1c0 0.831-0.669 1.5-1.5 1.5h-25c-0.831 0-1.5-0.669-1.5-1.5z" opacity=".2"/>
 <path d="m10 10v1h12v-1h-8z" opacity=".2"/>
 <path d="m20.5 26c0.831 0 1.5-0.669 1.5-1.5v-13c0-0.831-0.669-1.5-1.5-1.5h-13c-0.831 0-1.5 0.669-1.5 1.5v13c0 0.831 0.669 1.5 1.5 1.5zm-2.5-4h-8v-8h8z" fill="#f7870d"/>
 <path d="m24.5 22c0.831 0 1.5-0.669 1.5-1.5v-13c0-0.831-0.669-1.5-1.5-1.5h-13c-0.831 0-1.5 0.669-1.5 1.5v2.5h12v8h-8v-4h-4v6.5c0 0.831 0.669 1.5 1.5 1.5z" style="fill:#ffe270"/>
 <path d="m10 14v1h8v-1h-8zm-4 10.5v1c0 0.831 0.669 1.5 1.5 1.5h13c0.831 0 1.5-0.669 1.5-1.5v-1c0 0.831-0.669 1.5-1.5 1.5h-13c-0.831 0-1.5-0.669-1.5-1.5z" opacity=".2"/>
 <path d="m10 20.5v1c0 0.831 0.669 1.5 1.5 1.5h13c0.831 0 1.5-0.669 1.5-1.5v-1c0 0.831-0.669 1.5-1.5 1.5h-13c-0.831 0-1.5-0.669-1.5-1.5z" opacity=".2"/>
</svg>
