<svg width="32" height="32" version="1" xmlns="http://www.w3.org/2000/svg">
 <rect transform="matrix(0,-1,-1,0,0,0)" x="-30" y="-30" width="28" height="28" rx="1.4" ry="1.4" fill="#407ec2"/>
 <rect x="6" y="25" width="20" height="2" style="opacity:.2"/>
 <path d="m15 20v4h-9v2h20v-2h-9v-4h-2z" style="fill:#3f3f3f"/>
 <path d="m3.4004 2c-0.7756 0-1.4004 0.6248-1.4004 1.4004v1c0-0.7756 0.6248-1.4004 1.4004-1.4004h25.2c0.775 0 1.4 0.6248 1.4 1.4004v-1c0-0.7756-0.625-1.4004-1.4-1.4004h-25.2z" fill="#fff" opacity=".2"/>
 <path d="m2 28.6v1c0 0.775 0.6248 1.4 1.4004 1.4h25.2c0.775 0 1.4-0.625 1.4-1.4v-1c0 0.775-0.625 1.4-1.4 1.4h-25.2c-0.7752 0-1.4-0.625-1.4-1.4z" opacity=".2"/>
 <circle cx="7" cy="26" r="3" opacity=".2"/>
 <circle cx="7" cy="25" r="3" fill="#f7870d"/>
 <circle cx="16" cy="26" r="3" opacity=".2"/>
 <circle cx="16" cy="25" r="3" fill="#f7870d"/>
 <circle cx="25" cy="26" r="3" opacity=".2"/>
 <circle cx="25" cy="25" r="3" fill="#f7870d"/>
 <path d="m9.6699 5c-0.9249 0-1.6699 0.745-1.6699 1.6699v12.66c0 0.925 0.745 1.67 1.6699 1.67h12.66c0.925 0 1.67-0.745 1.67-1.67v-12.66c0-0.925-0.745-1.67-1.67-1.67h-12.66zm2.3301 4h8v8h-8v-8z" opacity=".2"/>
 <path d="m9.6699 4c-0.9249 0-1.6699 0.745-1.6699 1.6699v12.66c0 0.925 0.745 1.67 1.6699 1.67h12.66c0.925 0 1.67-0.745 1.67-1.67v-12.66c0-0.925-0.745-1.67-1.67-1.67h-12.66zm2.3301 4h8v8h-8v-8z" style="fill:#ffe270"/>
</svg>
