<svg width="32" height="32" version="1.0" xmlns="http://www.w3.org/2000/svg">
 <g transform="translate(-52.273,-18.186)" display="none">
  <rect x="2" y="2" width="44" height="44" rx="9" ry="9" fill="#abe1ad"/>
 </g>
 <rect transform="matrix(0,-1,-1,0,0,0)" x="-30" y="-30" width="28" height="28" rx="14" ry="14" fill="#4d4d4d"/>
 <path d="m19 8a8 8 0 0 0 -8 8 8 8 0 0 0 6e-3 0.156c-2e-3 0.049-0.012 0.096-0.012 0.145 2e-3 0.126 4e-3 0.253 0.012 0.379 0 0.025-2e-3 0.049-2e-3 0.074v1.492l-0.01 0.555-1.826 2.881c-0.4203 0.801-0.0229 1.298 0.879 1.31l0.957 0.014v2.25c0 0.941 0.879 1.73 1.824 1.73l2.172 0.028v2.935c0.332 0.023 0.662 0.051 1 0.051 2.987 0 5.745-0.933 8.014-2.516v-4.884c0-0.13-7e-3 -0.238-0.01-0.36a8 8 0 0 0 2.996 -6.24 8 8 0 0 0 -8 -8z" opacity=".2"/>
 <path d="m19 7a8 8 0 0 0 -8 8 8 8 0 0 0 6e-3 0.156c-2e-3 0.049-0.012 0.096-0.012 0.145 2e-3 0.126 4e-3 0.253 0.012 0.379 0 0.025-2e-3 0.049-2e-3 0.074v1.492l-0.01 0.555-1.826 2.881c-0.4203 0.801-0.0229 1.298 0.879 1.31l0.957 0.014v2.25c0 0.941 0.879 1.73 1.824 1.73l2.172 0.028v3.935c0.332 0.023 0.662 0.051 1 0.051 2.987 0 5.745-0.933 8.014-2.516v-5.884c0-0.13-8e-3 -0.238-0.01-0.36a8 8 0 0 0 2.996 -6.24 8 8 0 0 0 -8 -8z" fill="#6084ff"/>
 <g transform="translate(0,1)" opacity=".2">
  <path d="m19.5 10a4.5 4.5 0 0 0 -4.5 4.5 4.5 4.5 0 0 0 4.5 4.5 4.5 4.5 0 0 0 4.5 -4.5 4.5 4.5 0 0 0 -4.5 -4.5zm0 2a2.5 2.5 0 0 1 2.5 2.5 2.5 2.5 0 0 1 -2.5 2.5 2.5 2.5 0 0 1 -2.5 -2.5 2.5 2.5 0 0 1 2.5 -2.5z"/>
  <circle cx="19.5" cy="14.5" r="1.5"/>
 </g>
 <g fill="#fff">
  <path d="m19.5 10a4.5 4.5 0 0 0 -4.5 4.5 4.5 4.5 0 0 0 4.5 4.5 4.5 4.5 0 0 0 4.5 -4.5 4.5 4.5 0 0 0 -4.5 -4.5zm0 2a2.5 2.5 0 0 1 2.5 2.5 2.5 2.5 0 0 1 -2.5 2.5 2.5 2.5 0 0 1 -2.5 -2.5 2.5 2.5 0 0 1 2.5 -2.5z"/>
  <circle cx="19.5" cy="14.5" r="1.5"/>
 </g>
 <path d="m16 2c-7.756 0-14 6.244-14 14 0 0.169 0.0195 0.333 0.0254 0.5 0.2637-7.5206 6.3874-13.5 13.975-13.5 7.587 0 13.711 5.9794 13.975 13.5 5e-3 -0.167 0.025-0.331 0.025-0.5 0-7.756-6.244-14-14-14z" fill="#fff" opacity=".1"/>
 <path d="m2.0254 16.5c-0.0059 0.167-0.0254 0.331-0.0254 0.5 0 7.756 6.244 14 14 14s14-6.244 14-14c0-0.16884-0.01952-0.33264-0.02539-0.5-0.264 7.521-6.388 13.5-13.975 13.5-7.5872 0-13.711-5.979-13.975-13.5z" opacity=".2"/>
</svg>
