<svg width="32" height="32" version="1.1" xmlns="http://www.w3.org/2000/svg">
 <path d="m4.4628906 2.9639957a2.50025 2.50025 0 0 0 -2.4628906 2.5351562v17a2.50025 2.50025 0 0 0 3.7050781 2.191406l8.7949219-4.83789 8.794922 4.83789a2.50025 2.50025 0 0 0 3.705078 -2.191406v-17a2.50025 2.50025 0 1 0 -5 0v12.771484l-6.294922-3.46289a2.50025 2.50025 0 0 0 -2.410156 0l-6.294922 3.46289v-12.771484a2.50025 2.50025 0 0 0 -2.5371094 -2.5351562z" style="opacity:.2"/>
 <path d="m14.461969 7.9641744a2.5002501 2.5002501 0 0 0 -2.461483 2.5352056v18.00037a2.5002501 2.5002501 0 0 0 2.499709 2.49971h12.000247a2.5002501 2.5002501 0 1 0 0 -4.99942h-9.500537v-15.50066a2.5002501 2.5002501 0 0 0 -2.537936 -2.5352056z" style="fill-rule:evenodd;opacity:.2"/>
 <path d="m4.5 4.5v17l10-5.5 10 5.5v-17" style="fill:none;stroke-linecap:round;stroke-linejoin:round;stroke-width:5;stroke:#508d4c"/>
 <path d="m4.4628906 1.9648438a2.50025 2.50025 0 0 0 -2.4628906 2.5351562v1a2.50025 2.50025 0 0 1 2.4628906 -2.5351562 2.50025 2.50025 0 0 1 2.5371094 2.5351562v-1a2.50025 2.50025 0 0 0 -2.5371094 -2.5351562zm20 0a2.50025 2.50025 0 0 0 -2.462891 2.5351562v1a2.50025 2.50025 0 1 1 5 0v-1a2.50025 2.50025 0 0 0 -2.537109 -2.5351562zm-9.955079 11.535156a2.50025 2.50025 0 0 0 -1.21289 0.308594l-6.294922 3.46289v1l6.294922-3.46289a2.50025 2.50025 0 0 1 2.410156 0l6.294922 3.46289v-1l-6.294922-3.46289a2.50025 2.50025 0 0 0 -1.197266 -0.308594z" style="fill:#ffffff;opacity:.2"/>
 <path d="m14.5 9.5000001v18h12" style="fill:none;stroke-linecap:round;stroke-linejoin:round;stroke-width:5;stroke:#ff6f57"/>
 <path d="M 14.462891 6.9648438 A 2.5002501 2.5002501 0 0 0 12 9.5 L 12 10.5 A 2.5002501 2.5002501 0 0 1 14.462891 7.9648438 A 2.5002501 2.5002501 0 0 1 17 10.5 L 17 9.5 A 2.5002501 2.5002501 0 0 0 14.462891 6.9648438 z M 17 25 L 17 26 L 26.5 26 A 2.5002501 2.5002501 0 0 1 29.001953 28.001953 A 2.5002501 2.5002501 0 0 0 26.5 25 L 17 25 z" style="fill-rule:evenodd;fill:#ffffff;opacity:.2"/>
</svg>
