<svg width="32" height="32" version="1.1" xmlns="http://www.w3.org/2000/svg">
 <text x="833.55237" y="-12.600443" font-family="'Bitstream Vera Sans'" font-size="12.666px" opacity=".8" xml:space="preserve"><tspan x="833.55237" y="-12.600443"/></text>
 <text x="857.51331" y="-53.342148" font-family="'Bitstream Vera Sans'" font-size="12.666px" opacity=".8" xml:space="preserve"><tspan x="857.51331" y="-53.342148"/></text>
 <text x="-613.04504" y="-83.420288" font-family="'Bitstream Vera Sans'" font-size="12.666px" opacity=".8" xml:space="preserve"><tspan x="-613.04504" y="-83.420288"/></text>
 <text x="-2436.731" y="662.13318" font-family="'Bitstream Vera Sans'" font-size="12.666px" opacity=".8" xml:space="preserve"><tspan x="-2436.731" y="662.13318"/></text>
 <text x="-498.55399" y="-468.74127" font-family="'Bitstream Vera Sans'" font-size="12.666px" opacity=".8" xml:space="preserve"><tspan x="-498.55399" y="-468.74127"/></text>
 <text x="309.04816" y="-882.21136" font-family="'Bitstream Vera Sans'" font-size="12.666px" opacity=".8" xml:space="preserve"><tspan x="309.04816" y="-882.21136"/></text>
 <text x="333.00909" y="-922.95306" font-family="'Bitstream Vera Sans'" font-size="12.666px" opacity=".8" xml:space="preserve"><tspan x="333.00909" y="-922.95306"/></text>
 <text x="-1158.4541" y="-930.16296" font-family="'Bitstream Vera Sans'" font-size="12.666px" opacity=".8" xml:space="preserve"><tspan x="-1158.4541" y="-930.16296"/></text>
 <text x="302.08868" y="-1203.3972" font-family="'Bitstream Vera Sans'" font-size="12.666px" opacity=".8" xml:space="preserve"><tspan x="302.08868" y="-1203.3972"/></text>
 <text x="1788.2122" y="-576.70575" font-family="'Bitstream Vera Sans'" font-size="12.666px" opacity=".8" xml:space="preserve"><tspan x="1788.2122" y="-576.70575"/></text>
 <text x="1812.173" y="-617.44751" font-family="'Bitstream Vera Sans'" font-size="12.666px" opacity=".8" xml:space="preserve"><tspan x="1812.173" y="-617.44751"/></text>
 <text x="320.70984" y="-624.65741" font-family="'Bitstream Vera Sans'" font-size="12.666px" opacity=".8" xml:space="preserve"><tspan x="320.70984" y="-624.65741"/></text>
 <text x="1781.2527" y="-897.89142" font-family="'Bitstream Vera Sans'" font-size="12.666px" opacity=".8" xml:space="preserve"><tspan x="1781.2527" y="-897.89142"/></text>
 <text x="-617.10645" y="-672.74872" font-family="'Bitstream Vera Sans'" font-size="12.666px" opacity=".8" xml:space="preserve"><tspan x="-617.10645" y="-672.74872"/></text>
 <text x="-2440.792" y="72.804817" font-family="'Bitstream Vera Sans'" font-size="12.666px" opacity=".8" xml:space="preserve"><tspan x="-2440.792" y="72.804817"/></text>
 <text x="-726.03668" y="165.67696" font-family="'Bitstream Vera Sans'" font-size="12.666px" opacity=".8" xml:space="preserve"><tspan x="-726.03668" y="165.67696"/></text>
 <text x="382.98761" y="-13.505192" font-family="'Bitstream Vera Sans'" font-size="12.666px" opacity=".8" xml:space="preserve"><tspan x="382.98761" y="-13.505192"/></text>
 <text x="406.94855" y="-54.246899" font-family="'Bitstream Vera Sans'" font-size="12.666px" opacity=".8" xml:space="preserve"><tspan x="406.94855" y="-54.246899"/></text>
 <text x="-1084.5146" y="-61.456871" font-family="'Bitstream Vera Sans'" font-size="12.666px" opacity=".8" xml:space="preserve"><tspan x="-1084.5146" y="-61.456871"/></text>
 <text x="376.02814" y="-334.69095" font-family="'Bitstream Vera Sans'" font-size="12.666px" opacity=".8" xml:space="preserve"><tspan x="376.02814" y="-334.69095"/></text>
 <text x="-651.70642" y="-64.171112" font-family="'Bitstream Vera Sans'" font-size="12.666px" opacity=".8" xml:space="preserve"><tspan x="-651.70642" y="-64.171112"/></text>
 <text x="-2475.3923" y="681.38239" font-family="'Bitstream Vera Sans'" font-size="12.666px" opacity=".8" xml:space="preserve"><tspan x="-2475.3923" y="681.38239"/></text>
 <text x="-500.6134" y="-925.7016" font-family="'Bitstream Vera Sans'" font-size="12.666px" opacity=".8" xml:space="preserve"><tspan x="-500.6134" y="-925.7016"/></text>
 <text x="306.98874" y="-1339.1719" font-family="'Bitstream Vera Sans'" font-size="12.666px" opacity=".8" xml:space="preserve"><tspan x="306.98874" y="-1339.1719"/></text>
 <text x="330.94965" y="-1379.9136" font-family="'Bitstream Vera Sans'" font-size="12.666px" opacity=".8" xml:space="preserve"><tspan x="330.94965" y="-1379.9136"/></text>
 <text x="-1160.5135" y="-1387.1235" font-family="'Bitstream Vera Sans'" font-size="12.666px" opacity=".8" xml:space="preserve"><tspan x="-1160.5135" y="-1387.1235"/></text>
 <text x="300.02924" y="-1660.3577" font-family="'Bitstream Vera Sans'" font-size="12.666px" opacity=".8" xml:space="preserve"><tspan x="300.02924" y="-1660.3577"/></text>
 <text x="1786.1526" y="-1033.6663" font-family="'Bitstream Vera Sans'" font-size="12.666px" opacity=".8" xml:space="preserve"><tspan x="1786.1526" y="-1033.6663"/></text>
 <text x="1810.1134" y="-1074.408" font-family="'Bitstream Vera Sans'" font-size="12.666px" opacity=".8" xml:space="preserve"><tspan x="1810.1134" y="-1074.408"/></text>
 <text x="318.65039" y="-1081.6179" font-family="'Bitstream Vera Sans'" font-size="12.666px" opacity=".8" xml:space="preserve"><tspan x="318.65039" y="-1081.6179"/></text>
 <text x="1779.1931" y="-1354.8521" font-family="'Bitstream Vera Sans'" font-size="12.666px" opacity=".8" xml:space="preserve"><tspan x="1779.1931" y="-1354.8521"/></text>
 <text x="-619.16589" y="-1129.7092" font-family="'Bitstream Vera Sans'" font-size="12.666px" opacity=".8" xml:space="preserve"><tspan x="-619.16589" y="-1129.7092"/></text>
 <text x="-2442.8516" y="-384.15567" font-family="'Bitstream Vera Sans'" font-size="12.666px" opacity=".8" xml:space="preserve"><tspan x="-2442.8516" y="-384.15567"/></text>
 <text x="-728.09613" y="-291.28351" font-family="'Bitstream Vera Sans'" font-size="12.666px" opacity=".8" xml:space="preserve"><tspan x="-728.09613" y="-291.28351"/></text>
 <text x="111.91839" y="-50.36932" font-family="'Bitstream Vera Sans'" font-size="12.666px" opacity=".8" xml:space="preserve"><tspan x="111.91839" y="-50.36932"/></text>
 <text x="135.87932" y="-91.111038" font-family="'Bitstream Vera Sans'" font-size="12.666px" opacity=".8" xml:space="preserve"><tspan x="135.87932" y="-91.111038"/></text>
 <text x="-1133.9374" y="-285.13968" font-family="'Bitstream Vera Sans'" font-size="12.666px" opacity=".8" xml:space="preserve"><tspan x="-1133.9374" y="-285.13968"/></text>
 <text x="-326.33533" y="-698.6098" font-family="'Bitstream Vera Sans'" font-size="12.666px" opacity=".8" xml:space="preserve"><tspan x="-326.33533" y="-698.6098"/></text>
 <text x="-302.37439" y="-739.3515" font-family="'Bitstream Vera Sans'" font-size="12.666px" opacity=".8" xml:space="preserve"><tspan x="-302.37439" y="-739.3515"/></text>
 <text x="-1793.8375" y="-746.5614" font-family="'Bitstream Vera Sans'" font-size="12.666px" opacity=".8" xml:space="preserve"><tspan x="-1793.8375" y="-746.5614"/></text>
 <text x="-333.29477" y="-1019.7955" font-family="'Bitstream Vera Sans'" font-size="12.666px" opacity=".8" xml:space="preserve"><tspan x="-333.29477" y="-1019.7955"/></text>
 <text x="1152.8286" y="-393.10419" font-family="'Bitstream Vera Sans'" font-size="12.666px" opacity=".8" xml:space="preserve"><tspan x="1152.8286" y="-393.10419"/></text>
 <text x="1176.7894" y="-433.84592" font-family="'Bitstream Vera Sans'" font-size="12.666px" opacity=".8" xml:space="preserve"><tspan x="1176.7894" y="-433.84592"/></text>
 <text x="-314.67365" y="-441.05588" font-family="'Bitstream Vera Sans'" font-size="12.666px" opacity=".8" xml:space="preserve"><tspan x="-314.67365" y="-441.05588"/></text>
 <text x="1145.8691" y="-714.28992" font-family="'Bitstream Vera Sans'" font-size="12.666px" opacity=".8" xml:space="preserve"><tspan x="1145.8691" y="-714.28992"/></text>
 <text x="-1252.49" y="-489.14716" font-family="'Bitstream Vera Sans'" font-size="12.666px" opacity=".8" xml:space="preserve"><tspan x="-1252.49" y="-489.14716"/></text>
 <text x="-3076.1755" y="256.4064" font-family="'Bitstream Vera Sans'" font-size="12.666px" opacity=".8" xml:space="preserve"><tspan x="-3076.1755" y="256.4064"/></text>
 <g transform="matrix(.90475 0 0 .90475 -760.42 -699.7)">
  <text x="-664.2738" y="1159.4154" font-family="'Bitstream Vera Sans'" font-size="14px" opacity=".8" xml:space="preserve"><tspan x="-664.2738" y="1159.4154"/></text>
 </g>
 <text x="833.55237" y="-5.3624554" font-family="'Bitstream Vera Sans'" font-size="12.666px" opacity=".8" xml:space="preserve"><tspan x="833.55237" y="-5.3624554"/></text>
 <text x="857.51331" y="-46.10416" font-family="'Bitstream Vera Sans'" font-size="12.666px" opacity=".8" xml:space="preserve"><tspan x="857.51331" y="-46.10416"/></text>
 <text x="-613.04504" y="-76.182304" font-family="'Bitstream Vera Sans'" font-size="12.666px" opacity=".8" xml:space="preserve"><tspan x="-613.04504" y="-76.182304"/></text>
 <text x="-2436.731" y="669.37115" font-family="'Bitstream Vera Sans'" font-size="12.666px" opacity=".8" xml:space="preserve"><tspan x="-2436.731" y="669.37115"/></text>
 <text x="-498.55399" y="-461.50327" font-family="'Bitstream Vera Sans'" font-size="12.666px" opacity=".8" xml:space="preserve"><tspan x="-498.55399" y="-461.50327"/></text>
 <text x="309.04816" y="-874.97333" font-family="'Bitstream Vera Sans'" font-size="12.666px" opacity=".8" xml:space="preserve"><tspan x="309.04816" y="-874.97333"/></text>
 <text x="333.00909" y="-915.71509" font-family="'Bitstream Vera Sans'" font-size="12.666px" opacity=".8" xml:space="preserve"><tspan x="333.00909" y="-915.71509"/></text>
 <text x="-1158.4541" y="-922.92499" font-family="'Bitstream Vera Sans'" font-size="12.666px" opacity=".8" xml:space="preserve"><tspan x="-1158.4541" y="-922.92499"/></text>
 <text x="302.08868" y="-1196.1592" font-family="'Bitstream Vera Sans'" font-size="12.666px" opacity=".8" xml:space="preserve"><tspan x="302.08868" y="-1196.1592"/></text>
 <text x="1788.2122" y="-569.46777" font-family="'Bitstream Vera Sans'" font-size="12.666px" opacity=".8" xml:space="preserve"><tspan x="1788.2122" y="-569.46777"/></text>
 <text x="1812.173" y="-610.20953" font-family="'Bitstream Vera Sans'" font-size="12.666px" opacity=".8" xml:space="preserve"><tspan x="1812.173" y="-610.20953"/></text>
 <text x="320.70984" y="-617.41943" font-family="'Bitstream Vera Sans'" font-size="12.666px" opacity=".8" xml:space="preserve"><tspan x="320.70984" y="-617.41943"/></text>
 <text x="1781.2527" y="-890.65338" font-family="'Bitstream Vera Sans'" font-size="12.666px" opacity=".8" xml:space="preserve"><tspan x="1781.2527" y="-890.65338"/></text>
 <text x="-617.10645" y="-665.51074" font-family="'Bitstream Vera Sans'" font-size="12.666px" opacity=".8" xml:space="preserve"><tspan x="-617.10645" y="-665.51074"/></text>
 <text x="-2440.792" y="80.042809" font-family="'Bitstream Vera Sans'" font-size="12.666px" opacity=".8" xml:space="preserve"><tspan x="-2440.792" y="80.042809"/></text>
 <text x="-726.03668" y="172.91495" font-family="'Bitstream Vera Sans'" font-size="12.666px" opacity=".8" xml:space="preserve"><tspan x="-726.03668" y="172.91495"/></text>
 <text x="382.98761" y="-6.2672043" font-family="'Bitstream Vera Sans'" font-size="12.666px" opacity=".8" xml:space="preserve"><tspan x="382.98761" y="-6.2672043"/></text>
 <text x="406.94855" y="-47.008911" font-family="'Bitstream Vera Sans'" font-size="12.666px" opacity=".8" xml:space="preserve"><tspan x="406.94855" y="-47.008911"/></text>
 <text x="-1084.5146" y="-54.21888" font-family="'Bitstream Vera Sans'" font-size="12.666px" opacity=".8" xml:space="preserve"><tspan x="-1084.5146" y="-54.21888"/></text>
 <text x="376.02814" y="-327.45294" font-family="'Bitstream Vera Sans'" font-size="12.666px" opacity=".8" xml:space="preserve"><tspan x="376.02814" y="-327.45294"/></text>
 <text x="-651.70642" y="-56.933125" font-family="'Bitstream Vera Sans'" font-size="12.666px" opacity=".8" xml:space="preserve"><tspan x="-651.70642" y="-56.933125"/></text>
 <text x="-2475.3923" y="688.62042" font-family="'Bitstream Vera Sans'" font-size="12.666px" opacity=".8" xml:space="preserve"><tspan x="-2475.3923" y="688.62042"/></text>
 <text x="-500.6134" y="-918.46362" font-family="'Bitstream Vera Sans'" font-size="12.666px" opacity=".8" xml:space="preserve"><tspan x="-500.6134" y="-918.46362"/></text>
 <text x="306.98874" y="-1331.9338" font-family="'Bitstream Vera Sans'" font-size="12.666px" opacity=".8" xml:space="preserve"><tspan x="306.98874" y="-1331.9338"/></text>
 <text x="330.94965" y="-1372.6757" font-family="'Bitstream Vera Sans'" font-size="12.666px" opacity=".8" xml:space="preserve"><tspan x="330.94965" y="-1372.6757"/></text>
 <text x="-1160.5135" y="-1379.8855" font-family="'Bitstream Vera Sans'" font-size="12.666px" opacity=".8" xml:space="preserve"><tspan x="-1160.5135" y="-1379.8855"/></text>
 <text x="300.02924" y="-1653.1196" font-family="'Bitstream Vera Sans'" font-size="12.666px" opacity=".8" xml:space="preserve"><tspan x="300.02924" y="-1653.1196"/></text>
 <text x="1786.1526" y="-1026.4282" font-family="'Bitstream Vera Sans'" font-size="12.666px" opacity=".8" xml:space="preserve"><tspan x="1786.1526" y="-1026.4282"/></text>
 <text x="1810.1134" y="-1067.17" font-family="'Bitstream Vera Sans'" font-size="12.666px" opacity=".8" xml:space="preserve"><tspan x="1810.1134" y="-1067.17"/></text>
 <text x="318.65039" y="-1074.3799" font-family="'Bitstream Vera Sans'" font-size="12.666px" opacity=".8" xml:space="preserve"><tspan x="318.65039" y="-1074.3799"/></text>
 <text x="1779.1931" y="-1347.614" font-family="'Bitstream Vera Sans'" font-size="12.666px" opacity=".8" xml:space="preserve"><tspan x="1779.1931" y="-1347.614"/></text>
 <text x="-619.16589" y="-1122.4712" font-family="'Bitstream Vera Sans'" font-size="12.666px" opacity=".8" xml:space="preserve"><tspan x="-619.16589" y="-1122.4712"/></text>
 <text x="-2442.8516" y="-376.91766" font-family="'Bitstream Vera Sans'" font-size="12.666px" opacity=".8" xml:space="preserve"><tspan x="-2442.8516" y="-376.91766"/></text>
 <text x="-728.09613" y="-284.0455" font-family="'Bitstream Vera Sans'" font-size="12.666px" opacity=".8" xml:space="preserve"><tspan x="-728.09613" y="-284.0455"/></text>
 <text x="111.91839" y="-43.131332" font-family="'Bitstream Vera Sans'" font-size="12.666px" opacity=".8" xml:space="preserve"><tspan x="111.91839" y="-43.131332"/></text>
 <text x="135.87932" y="-83.873055" font-family="'Bitstream Vera Sans'" font-size="12.666px" opacity=".8" xml:space="preserve"><tspan x="135.87932" y="-83.873055"/></text>
 <text x="-1133.9374" y="-277.90164" font-family="'Bitstream Vera Sans'" font-size="12.666px" opacity=".8" xml:space="preserve"><tspan x="-1133.9374" y="-277.90164"/></text>
 <text x="-326.33533" y="-691.37183" font-family="'Bitstream Vera Sans'" font-size="12.666px" opacity=".8" xml:space="preserve"><tspan x="-326.33533" y="-691.37183"/></text>
 <text x="-302.37439" y="-732.11353" font-family="'Bitstream Vera Sans'" font-size="12.666px" opacity=".8" xml:space="preserve"><tspan x="-302.37439" y="-732.11353"/></text>
 <text x="-1793.8375" y="-739.32349" font-family="'Bitstream Vera Sans'" font-size="12.666px" opacity=".8" xml:space="preserve"><tspan x="-1793.8375" y="-739.32349"/></text>
 <text x="-333.29477" y="-1012.5575" font-family="'Bitstream Vera Sans'" font-size="12.666px" opacity=".8" xml:space="preserve"><tspan x="-333.29477" y="-1012.5575"/></text>
 <text x="1152.8286" y="-385.86621" font-family="'Bitstream Vera Sans'" font-size="12.666px" opacity=".8" xml:space="preserve"><tspan x="1152.8286" y="-385.86621"/></text>
 <text x="1176.7894" y="-426.60794" font-family="'Bitstream Vera Sans'" font-size="12.666px" opacity=".8" xml:space="preserve"><tspan x="1176.7894" y="-426.60794"/></text>
 <text x="-314.67365" y="-433.81787" font-family="'Bitstream Vera Sans'" font-size="12.666px" opacity=".8" xml:space="preserve"><tspan x="-314.67365" y="-433.81787"/></text>
 <text x="1145.8691" y="-707.05194" font-family="'Bitstream Vera Sans'" font-size="12.666px" opacity=".8" xml:space="preserve"><tspan x="1145.8691" y="-707.05194"/></text>
 <text x="-1252.49" y="-481.90915" font-family="'Bitstream Vera Sans'" font-size="12.666px" opacity=".8" xml:space="preserve"><tspan x="-1252.49" y="-481.90915"/></text>
 <text x="-3076.1755" y="263.64438" font-family="'Bitstream Vera Sans'" font-size="12.666px" opacity=".8" xml:space="preserve"><tspan x="-3076.1755" y="263.64438"/></text>
 <g transform="matrix(.90475 0 0 .90475 -760.42 -692.46)">
  <text x="-664.2738" y="1159.4154" font-family="'Bitstream Vera Sans'" font-size="14px" opacity=".8" xml:space="preserve"><tspan x="-664.2738" y="1159.4154"/></text>
 </g>
 <text x="392.23035" y="-384.63852" font-family="'Droid Sans'" font-size="12.666px" xml:space="preserve"><tspan x="392.23035" y="-384.63852"/><tspan x="392.23035" y="-368.80545"/></text>
 <text x="857.41431" y="-866.68304" font-family="'Bitstream Vera Sans'" font-size="12.666px" opacity=".8" xml:space="preserve"><tspan x="857.41431" y="-866.68304"/></text>
 <text x="-966.27167" y="-121.12959" font-family="'Bitstream Vera Sans'" font-size="12.666px" opacity=".8" xml:space="preserve"><tspan x="-966.27167" y="-121.12959"/></text>
 <text x="1584.4938" y="-1151.679" font-family="'Bitstream Vera Sans'" font-size="12.666px" opacity=".8" xml:space="preserve"><tspan x="1584.4938" y="-1151.679"/></text>
 <text x="1608.4546" y="-1192.4207" font-family="'Bitstream Vera Sans'" font-size="12.666px" opacity=".8" xml:space="preserve"><tspan x="1608.4546" y="-1192.4207"/></text>
 <text x="116.99151" y="-1199.6306" font-family="'Bitstream Vera Sans'" font-size="12.666px" opacity=".8" xml:space="preserve"><tspan x="116.99151" y="-1199.6306"/></text>
 <text x="1577.5343" y="-1472.8647" font-family="'Bitstream Vera Sans'" font-size="12.666px" opacity=".8" xml:space="preserve"><tspan x="1577.5343" y="-1472.8647"/></text>
 <rect transform="matrix(0,-1,-1,0,0,0)" x="-30" y="-30" width="28" height="28" rx="1.4" ry="1.4" fill="#e79d67"/>
 <path d="m5.3397 6c-0.1882 0-0.3397 0.1515-0.3397 0.3397v21.32c0 0.189 0.1515 0.34 0.3397 0.34h21.32c0.189 0 0.34-0.151 0.34-0.34v-21.32c0-0.1884-0.151-0.3399-0.34-0.3399z" opacity=".2"/>
 <path d="m5.3397 5c-0.1882 0-0.3397 0.1515-0.3397 0.3397v21.32c0 0.18837 0.15152 0.33962 0.33969 0.33962h21.321c0.188 0 0.339-0.151 0.339-0.34v-21.32c0-0.1884-0.151-0.3399-0.34-0.3399z" fill="#fff"/>
 <path d="m9 5v23l7-4 7 4v-23z" fill="#e84228"/>
 <path d="m3.4004 2c-0.7756 0-1.4004 0.6248-1.4004 1.4004v1c0-0.7756 0.6248-1.4004 1.4004-1.4004h25.2c0.775 0 1.4 0.6248 1.4 1.4004v-1c0-0.7756-0.625-1.4004-1.4-1.4004h-25.2z" fill="#fff" opacity=".2"/>
 <path d="m2 28.6v1c0 0.775 0.6248 1.4 1.4004 1.4h25.2c0.775 0 1.4-0.625 1.4-1.4v-1c0 0.775-0.625 1.4-1.4 1.4h-25.2c-0.7752 0-1.4-0.625-1.4-1.4z" opacity=".2"/>
 <path d="m16 11 1.5 3.5 3.5 0.5-2.5 2.5 0.5 3.5-3-1.5-3 1.5 0.5-3.5-2.5-2.5 3.5-0.5z" opacity=".2"/>
 <path transform="matrix(.95106 0 0 1 .53838 0)" d="m16.257 10 1.5772 3.5 3.6801 0.5l-2.628 2.5 0.526 3.5-3.155-1.5-3.154 1.5 0.526-3.5-2.629-2.5 3.68-0.5z" fill="#fff"/>
 <path transform="matrix(.95106 0 0 1 .53838 0)" d="m16.257 10 1.5772 3.5 3.6801 0.5l-2.628 2.5 0.526 3.5-3.155-1.5-3.154 1.5 0.526-3.5-2.629-2.5 3.68-0.5z" fill="#fff"/>
</svg>
