<svg width="32" height="32" version="1.1" viewBox="0 0 32 32" xmlns="http://www.w3.org/2000/svg">
 <rect transform="matrix(0,-1,-1,0,0,0)" x="-31" y="-30" width="28" height="28" rx="2.1" ry="2.1" style="opacity:.2"/>
 <rect transform="matrix(0,-1,-1,0,0,0)" x="-30" y="-30" width="28" height="28" rx="2.1" ry="2.1" style="fill:#008366"/>
 <path d="m13.732351 6.0086118c-0.364124 0.030229-0.500633 0.086828-0.637572 0.2611107-0.147162 0.1872931-0.273344 0.2307804-0.810566 0.2807642-0.409276 0.038081-0.696841 0.1130218-0.806381 0.2105732-0.211135 0.1880249-0.410167 0.6447376-0.410167 0.9419641 0 0.2107861 0.02062 0.2201012 0.343201 0.1684586 0.190246-0.030461 0.484604-0.00831 0.662684 0.050536 0.261 0.086235 0.301206 0.1294243 0.217638 0.230227-0.05961 0.071912-0.263472 0.051938-0.486897 0.051938-0.447867 0-0.494687 0.1254948-0.182762 0.48853l0.200898 0.2344382 0.345991-0.1853047c0.393912-0.2113726 0.671566-0.1622348 0.948683-0.0056 0.105541 0.05965 0.580928 0.1307346 1.057505 0.157228 0.810161 0.045044 0.594968 0.063811 0.791034 0.2919947 0.127099 0.1479215 0.301869 0.3547516 0.301348 0.5250286-0.0017 0.5740286-0.403157 1.5907576-1.593208 3.0069846-0.602492 0.716999-0.721173 2.029767-0.722673 2.376158-4.72e-4 0.105981-0.03849 0.214893-0.08371 0.24286-0.08674 0.05366-0.140922-0.276225-0.22322-1.358899-0.0815-1.072136-0.282124-1.671007-0.743602-2.147824-0.270776-0.279782-0.52208-0.446563-0.774293-0.513803-0.441088-0.117587-0.467851-0.207691-0.10882-0.356571 0.144955-0.06011 0.263678-0.143717 0.263678-0.185305 0-0.106656-0.401778-0.194258-0.661288-0.144592-0.266175 0.05094-0.2728 0.0037-0.03348-0.251285 0.47083-0.5017258-0.33052-0.3856078-1.1621331 0.168456-0.7463318 0.497247-1.2016986 1.008936-1.2709574 1.378531-0.043708 0.233222-0.1834002 0.436891-0.4966636 0.725776-0.5807899 0.535589-0.7122774 0.806803-0.6375713 1.305553 0.1089427 0.727282 0.1923083 0.786846 0.5315416 0.383243 0.212603-0.252942 0.7060736-0.516 0.7966159-0.425358 0.08841 0.08851-0.1397642 0.404096-0.4059814 0.561529-0.3364832 0.198978-0.3327546 0.339029 0.011165 0.45905 0.3266094 0.113982 0.3873651 0.0837 0.5720011-0.282168 0.2128952-0.421872 0.4634563-0.659729 0.814752-0.773506 0.1740881-0.05638 0.5022051-0.274656 0.7296482-0.485722 0.227445-0.211065 0.456634-0.383243 0.509221-0.383243 0.180508 0 0.514139 0.419789 0.604087 0.759467 0.04951 0.186954 0.133839 0.930241 0.186948 1.652298 0.163742 2.225578 0.387468 2.540487 1.197015 4.304626 0.259539 0.565583 0.471551 1.085292 0.471551 1.154393 0 0.09318-0.678736 0.140296-1.194293 0.185304-1.219847 0.106528-1.731739 0.520954-1.820635 1.475417-0.032051 0.34411-0.0018 0.54414 0.115795 0.767889 0.242826 0.461735 0.388405 0.453109 0.323668-0.01965-0.05542-0.404744 0.09149-0.663147 0.200897-0.353762 0.0808 0.228492 0.391979 0.554508 0.528752 0.554508 0.139268 0 0.140496-0.0127 0.03069-0.301822-0.09615-0.253197-0.03765-0.278707 0.207874-0.09264 0.234881 0.177986 0.313965 0.09104 0.253912-0.279362-0.09504-0.586337 0.840721-1.096603 1.953241-0.766492 0.540815 0.160472 0.690438 0.174856 0.929153 0.08844 0.455569-0.164918 1.102126-0.125802 1.399252 0.124486 0.299184 0.252025 0.05651 0.910591-0.152068 1.208698-0.212415 0.3036-0.544807 0.431674-1.376987 0.533452-0.421592 0.05157-0.859249 0.155093-0.973796 0.230228-0.228102 0.149623-0.411562 0.485102-0.411562 0.753851 0 0.231318 0.105294 0.21655 0.33483-0.04774 0.105031-0.12093 0.269961-0.218997 0.366918-0.218997 0.220402 0 0.221308 0.04721 0.0014 0.32709-0.158301 0.201476-0.249009 0.72718-0.125561 0.72718 0.02741 0 0.179519-0.138135 0.339016-0.307437 0.159497-0.1693 0.37412-0.307437 0.477132-0.307437 0.218574 0 0.230634 0.06673 0.05301 0.301821-0.132374 0.175215-0.18092 0.755679-0.06278 0.749642 0.03624-0.0018 0.145315-0.129633 0.242752-0.284977 0.16539-0.263686 0.372468-0.397949 1.068664-0.692083 0.153795-0.06497 0.740267-0.606226 1.303046-1.20167 1.00534-1.063687 0.993213-1.088149 0.964719-1.450148l-0.0293-0.369204 1.019146-0.106691c0.901906-0.321818 1.381898-0.348207 1.907189-0.07581 0.696954 0.361418 1.355359 0.987571 1.259796 1.57649-0.07033 0.433412-0.308327 1.254968-0.90962 1.313165-1.431205-0.02692-3.427235 0.891042-3.201861 2.225867 0.185853 0.89625 1.347472 1.48981 2.51267 1.756181 0.366554 0.08384 0.85593 0.111731 1.471855 0.08563 1.542591-0.06535 2.528972-0.145104 3.355273-0.994371 0.302321-0.310725 0.691934-1.051568 0.834282-1.414042l0.76588 0.417849v-2.012193l-1.99996 0.878193 1.048486 0.603848c-0.123198 0.102527-0.285216 0.352524-0.468762 0.542268-0.811539 0.838916-1.367792 0.836556-2.38287 0.973315-0.832958 0.11222-1.746329-0.0055-2.31399-0.2569-0.465445-0.206114-0.825913-0.651224-0.825913-0.982674 0-0.311755 0.371772-0.596966 0.820334-0.612066 1.213547-0.04084 1.439765-0.151613 1.439765-0.151613 0.873833-0.265904 1.701531-1.784499 1.701531-2.740258 0-0.243888 0.03828-0.543543 0.0851-0.666816 0.06948-0.182939 0.02938-0.340327-0.217639-0.85633-0.205656-0.429591-0.284547-0.500992-0.248331-0.645454 0.04387-0.174983-0.03785-0.305319-0.461786-0.734198-0.458735-0.464079-0.503779-0.683544-0.407376-0.838082 0.05953-0.09543 0.10882-0.193449 0.10882-0.217592 0-0.02414-0.228452-0.158536-0.50643-0.299014-0.27798-0.140478-0.602195-0.334439-0.721279-0.430973-0.187394-0.151909-0.201072-0.195326-0.09765-0.32007 0.06573-0.07927 0.09663-0.166834 0.06836-0.195132-0.02828-0.0283-0.358704-0.108777-0.733835-0.179689-0.846564-0.160025-0.977923-0.229455-1.012859-0.533452-0.0153-0.133039-0.05858-0.23875-0.09627-0.234438-0.03767 0.0042-0.45813 0.0795-0.934732 0.167054-0.936868 0.172089-1.149582 0.148662-1.149582-0.127747 0-0.227855 0.0018-0.229001-0.584556 0.08423-0.957471 0.511498-1.734858 0.197449-1.494178-0.606756 0.06054-0.202277 0.224284-0.534931 0.364127-0.738408 0.559215-0.813691 1.624948-1.072776 3.584596-1.16305 1.092048-0.0503 1.583715-0.0992 1.904343-0.244265 0.505762-0.228819 1.667157-1.032523 1.884056-1.435731 0.09279-0.172482 0.198455-0.313053 0.235777-0.313053 0.183308 0 0.419932-0.375232 0.419932-0.666814 0-0.394639 0.1807-0.365882 0.287395 0.04632 0.105859 0.40897 0.285926 0.207558 0.27484-0.307437-0.0094-0.436765 0.05587-0.486556 0.252516-0.193728 0.212718 0.316736 0.281836 0.105486 0.160441-0.485722-0.116856-0.569284-0.878965-1.961407-1.194187-2.3612217-0.099879-0.1266808-0.892224-0.2529412-1.026575-0.2807643-0.184773-0.0382579-0.429839-0.1923808-0.695648-0.6345274-0.199911-0.3325327-0.459131-0.6423641-0.602693-0.7173519-0.226576-0.1183465-0.292295-0.1165655-0.637572 0.0154418-0.419697 0.1604615-0.457468 0.2263945-0.239961 0.4071079 0.175046 0.1454353 0.470157 0.8147872 0.470157 1.0655002-1e-6 0.1790746-3e-3 0.1797257-0.182761 0.016847-0.100625-0.0911643-0.383165-0.3056117-0.454811-0.4758951-0.124426-0.2957532-0.136294-0.3020603-0.256702-0.1389781-0.222289 0.3010655-0.159949 0.717265 0.139512 0.9307335 0.293115 0.2089482 0.557122 0.6680474 0.655708 1.1413061 0.03527 0.169302 0.138768 0.431786 0.230195 0.582585 0.342766 0.565466 0.276709 1.886892-0.251122 2.137642-0.183684 0.08726-0.776485 0.165664-1.686704 0.223208-2.093637 0.132377-3.045008 0.40359-4.049172 1.390468-0.479915 0.471656-0.511661 0.489428-0.45481 0.24988 0.09119-0.384222 0.130814-0.898587 0.998909-2.034137 1.114035-1.457259 1.257428-1.807369 1.255856-2.8525633-3e-3 -0.8934918-0.411223-1.9101303-1.357725-2.6784907-0.194963-0.1352592-0.333092-0.2804923-0.306927-0.3228788 0.02616-0.042386 0.207346-0.077209 0.401796-0.077209 0.412067 0 0.419822-0.1353923 0.02232-0.3678011-0.331287-0.1936995-1.430716-0.3653704-2.027113-0.3158623z" style="opacity:.2"/>
 <path d="m13.732351 5.0086117c-0.364124 0.030229-0.500633 0.086828-0.637572 0.2611107-0.147162 0.1872931-0.273344 0.2307804-0.810566 0.2807642-0.409276 0.038081-0.696841 0.1130218-0.806381 0.2105732-0.211135 0.1880249-0.410167 0.6447376-0.410167 0.9419641 0 0.2107861 0.02062 0.2201012 0.343201 0.1684586 0.190246-0.030461 0.484604-0.00831 0.662684 0.050536 0.261 0.086235 0.301206 0.1294243 0.217638 0.230227-0.05961 0.071912-0.263472 0.051938-0.486897 0.051938-0.447867 0-0.494687 0.1254948-0.182762 0.48853l0.200898 0.2344382 0.345991-0.1853047c0.393912-0.2113726 0.671566-0.1622348 0.948683-0.0056 0.105541 0.05965 0.580928 0.1307346 1.057505 0.157228 0.810161 0.045044 0.594968 0.063811 0.791034 0.2919947 0.127099 0.1479215 0.301869 0.3547516 0.301348 0.5250286-0.0017 0.574029-0.403157 1.5907577-1.593208 3.0069847-0.602492 0.716999-0.721173 2.029767-0.722673 2.376158-4.72e-4 0.105981-0.03849 0.214893-0.08371 0.24286-0.08674 0.05366-0.140922-0.276225-0.22322-1.358899-0.0815-1.072136-0.282124-1.671007-0.743602-2.147824-0.270776-0.279782-0.52208-0.446563-0.774293-0.513803-0.441088-0.117587-0.467851-0.207691-0.10882-0.3565711 0.144955-0.060109 0.263678-0.1437172 0.263678-0.1853045 0-0.1066569-0.401778-0.1942589-0.661288-0.1445929-0.266175 0.050939-0.2728 0.00373-0.03348-0.2512844 0.47083-0.501726-0.33052-0.385608-1.1621331 0.1684561-0.7463318 0.4972468-1.2016986 1.0089358-1.2709574 1.3785308-0.043708 0.233222-0.1834002 0.436891-0.4966636 0.725776-0.5807899 0.535589-0.7122774 0.806803-0.6375713 1.305553 0.1089427 0.727282 0.1923083 0.786846 0.5315416 0.383243 0.212603-0.252942 0.7060736-0.516 0.7966159-0.425358 0.08841 0.08851-0.1397642 0.404096-0.4059814 0.561529-0.3364832 0.198978-0.3327546 0.339029 0.011165 0.45905 0.3266094 0.113982 0.3873651 0.0837 0.5720011-0.282168 0.2128952-0.421872 0.4634563-0.659729 0.814752-0.773506 0.1740881-0.05638 0.5022051-0.274656 0.7296482-0.485722 0.227445-0.211065 0.456634-0.383243 0.509221-0.383243 0.180508 0 0.514139 0.419789 0.604087 0.759467 0.04951 0.186954 0.133839 0.930241 0.186948 1.652298 0.163742 2.225578 0.387468 2.540487 1.197015 4.304626 0.259539 0.565583 0.471551 1.085292 0.471551 1.154393 0 0.09318-0.678736 0.140296-1.194293 0.185304-1.219847 0.106528-1.731739 0.520954-1.820635 1.475417-0.032051 0.34411-0.0018 0.54414 0.115795 0.767889 0.242826 0.461735 0.388405 0.453109 0.323668-0.01965-0.05542-0.404744 0.09149-0.663147 0.200897-0.353762 0.0808 0.228492 0.391979 0.554508 0.528752 0.554508 0.139268 0 0.140496-0.0127 0.03069-0.301822-0.09615-0.253197-0.03765-0.278707 0.207874-0.09264 0.234881 0.177986 0.313965 0.09104 0.253912-0.279362-0.09504-0.586337 0.840721-1.096603 1.953241-0.766492 0.540815 0.160472 0.690438 0.174856 0.929153 0.08844 0.455569-0.164918 1.102126-0.125802 1.399252 0.124486 0.299184 0.252025 0.05651 0.910591-0.152068 1.208698-0.212415 0.3036-0.544807 0.431674-1.376987 0.533452-0.421592 0.05157-0.859249 0.155093-0.973796 0.230228-0.228102 0.149623-0.411562 0.485102-0.411562 0.753851 0 0.231318 0.105294 0.21655 0.33483-0.04774 0.105031-0.12093 0.269961-0.218997 0.366918-0.218997 0.220402 0 0.221308 0.04721 0.0014 0.32709-0.158301 0.201476-0.249009 0.72718-0.125561 0.72718 0.02741 0 0.179519-0.138135 0.339016-0.307437 0.159497-0.1693 0.37412-0.307437 0.477132-0.307437 0.218574 0 0.230634 0.06673 0.05301 0.301821-0.132374 0.175215-0.18092 0.755679-0.06278 0.749642 0.03624-0.0018 0.145315-0.129633 0.242752-0.284977 0.16539-0.263686 0.372468-0.397949 1.068664-0.692083 0.153795-0.06497 0.740267-0.606226 1.303046-1.20167 1.00534-1.063687 0.993213-1.088149 0.964719-1.450148l-0.0293-0.369204 1.019146-0.106691c0.901906-0.321818 1.381898-0.348207 1.907189-0.07581 0.696954 0.361418 1.355359 0.987571 1.259796 1.57649-0.07033 0.433412-0.308327 1.254968-0.90962 1.313165-1.431205-0.02692-3.427235 0.891042-3.201861 2.225867 0.185853 0.89625 1.347472 1.48981 2.51267 1.756181 0.366554 0.08384 0.85593 0.111731 1.471855 0.08563 1.542591-0.06535 2.528972-0.145104 3.355273-0.994371 0.302321-0.310725 0.691934-1.051568 0.834282-1.414042l0.76588 0.417849v-2.012193l-1.99996 0.878193 1.048486 0.603848c-0.123198 0.102527-0.285216 0.352524-0.468762 0.542268-0.811539 0.838916-1.367792 0.836556-2.38287 0.973315-0.832958 0.11222-1.746329-0.0055-2.31399-0.2569-0.465445-0.206114-0.825913-0.651224-0.825913-0.982674 0-0.311755 0.371772-0.596966 0.820334-0.612066 1.213547-0.04084 1.439765-0.151613 1.439765-0.151613 0.873833-0.265904 1.701531-1.784499 1.701531-2.740258 0-0.243888 0.03828-0.543543 0.0851-0.666816 0.06948-0.182939 0.02938-0.340327-0.217639-0.85633-0.205656-0.429591-0.284547-0.500992-0.248331-0.645454 0.04387-0.174983-0.03785-0.305319-0.461786-0.734198-0.458735-0.464079-0.503779-0.683544-0.407376-0.838082 0.05953-0.09543 0.10882-0.193449 0.10882-0.217592 0-0.02414-0.228452-0.158536-0.50643-0.299014-0.27798-0.140478-0.602195-0.334439-0.721279-0.430973-0.187394-0.151909-0.201072-0.195326-0.09765-0.32007 0.06573-0.07927 0.09663-0.166834 0.06836-0.195132-0.02828-0.0283-0.358704-0.108777-0.733835-0.179689-0.846564-0.160025-0.977923-0.229455-1.012859-0.533452-0.0153-0.133039-0.05858-0.23875-0.09627-0.234438-0.03767 0.0042-0.45813 0.0795-0.934732 0.167054-0.936868 0.172089-1.149582 0.148662-1.149582-0.127747 0-0.227855 0.0018-0.229001-0.584556 0.08423-0.957471 0.511498-1.734858 0.197449-1.494178-0.606756 0.06054-0.202277 0.224284-0.534931 0.364127-0.738408 0.559215-0.813691 1.624948-1.072776 3.584596-1.16305 1.092048-0.0503 1.583715-0.0992 1.904343-0.244265 0.505762-0.228819 1.667157-1.032523 1.884056-1.435731 0.09279-0.172482 0.198455-0.313053 0.235777-0.313053 0.183308 0 0.419932-0.375232 0.419932-0.666814 0-0.394639 0.1807-0.365882 0.287395 0.04632 0.105859 0.40897 0.285926 0.207558 0.27484-0.307437-0.0094-0.436765 0.05587-0.486556 0.252516-0.193728 0.212718 0.316736 0.281836 0.105486 0.160441-0.485722-0.116856-0.5692845-0.878965-1.9614071-1.194187-2.3612218-0.099879-0.1266808-0.892224-0.2529412-1.026575-0.2807643-0.184773-0.0382579-0.429839-0.1923808-0.695648-0.6345274-0.199911-0.3325327-0.459131-0.6423641-0.602693-0.7173519-0.226576-0.1183465-0.292295-0.1165655-0.637572 0.0154418-0.419697 0.1604615-0.457468 0.2263945-0.239961 0.4071079 0.175046 0.1454353 0.470157 0.8147872 0.470157 1.0655002-1e-6 0.1790746-3e-3 0.1797257-0.182761 0.016847-0.100625-0.0911643-0.383165-0.3056117-0.454811-0.4758951-0.124426-0.2957532-0.136294-0.3020603-0.256702-0.1389781-0.222289 0.3010655-0.159949 0.717265 0.139512 0.9307335 0.293115 0.2089482 0.557122 0.6680474 0.655708 1.1413061 0.03527 0.1693016 0.138768 0.4317857 0.230195 0.5825854 0.342766 0.5654657 0.276709 1.8868917-0.251122 2.1376417-0.183684 0.08726-0.776485 0.165664-1.686704 0.223208-2.093637 0.132377-3.045008 0.40359-4.049172 1.390468-0.479915 0.471656-0.511661 0.489428-0.45481 0.24988 0.09119-0.384222 0.130814-0.898587 0.998909-2.034137 1.114035-1.457259 1.257428-1.8073686 1.255856-2.8525634-3e-3 -0.8934918-0.411223-1.9101303-1.357725-2.6784907-0.194963-0.1352592-0.333092-0.2804923-0.306927-0.3228788 0.02616-0.042386 0.207346-0.077209 0.401796-0.077209 0.412067 0 0.419822-0.1353923 0.02232-0.3678011-0.331287-0.1936995-1.430716-0.3653704-2.027113-0.3158623z" style="fill:#badc86"/>
 <path d="M 4.0996094 2 C 2.9362094 2 2 2.9362094 2 4.0996094 L 2 5.0996094 C 2 3.9362094 2.9362094 3 4.0996094 3 L 27.900391 3 C 29.063791 3 30 3.9362094 30 5.0996094 L 30 4.0996094 C 30 2.9362094 29.063791 2 27.900391 2 L 4.0996094 2 z" style="fill:#ffffff;opacity:.2"/>
</svg>
