<svg width="32" height="32" version="1" xmlns="http://www.w3.org/2000/svg">
 <path d="m16 3c-7.731986 0-14 6.2680142-14 14 0 7.731986 6.268014 14 14 14s14-6.268014 14-14c0-7.7319858-6.268014-14-14-14z" style="opacity:.2"/>
 <path d="m16 2c-7.731986 0-14 6.2680142-14 14 0 7.731986 6.268014 14 14 14s14-6.268014 14-14c0-7.7319858-6.268014-14-14-14z" style="fill:#4f4f4f"/>
 <path d="m16 7a10 10 0 0 0 -10 10 10 10 0 0 0 10 10 10 10 0 0 0 10 -10 10 10 0 0 0 -10 -10zm-3 5 4 2.5 4 2.5-4 2.5-4 2.5v-10z" opacity=".2"/>
 <path d="m16 6a10 10 0 0 0 -10 10 10 10 0 0 0 10 10 10 10 0 0 0 10 -10 10 10 0 0 0 -10 -10zm-3 5 4 2.5 4 2.5-4 2.5-4 2.5v-10z" fill="#fff"/>
 <path d="M 16 2 C 8.268014 2 2 8.2680142 2 16 C 2 16.168777 2.0194674 16.332668 2.0253906 16.5 C 2.2908203 9.0015478 8.4367912 3 16 3 C 23.563209 3 29.70918 9.0015478 29.974609 16.5 C 29.980533 16.332668 30 16.168777 30 16 C 30 8.2680142 23.731986 2 16 2 z" style="fill:#ffffff;opacity:.1"/>
</svg>
