<svg width="32" height="32" version="1" xmlns="http://www.w3.org/2000/svg">
 <ellipse transform="matrix(.97235312 -.23351535 .28643384 .95810002 0 0)" cx="9.902" cy="22.244" rx="15.315" ry="6.281" style="opacity:.2"/>
 <path d="m14.999999 6.9999972c-6.9999997 0-5.3718577 6.1708868-8.9558637 8.0970968-3.636053 2.06286-1.632773 3.909577-1.044136 5.902903 0.993082 3.323732 3.774955 0.975422 12-1 8.224645-1.974968 9.993206-1.676515 9-5-0.595535-1.971097 1.359116-3.797884-2.891142-3.971833-3.454568 0.189212-3.108858-4.0281668-8.108858-4.0281668z" style="fill:#4f4f4f"/>
 <path d="m15 7c-6.9999997 0-5.3710721 6.171446-8.9550781 8.097656-1.9389974 1.100061-2.2592074 2.137782-2.0605469 3.169922 0.1733779-0.706773 0.7453359-1.42571 2.0605469-2.171875 3.584006-1.92621 1.9550784-8.095703 8.9550781-8.095703 5 0 4.654807 4.216556 8.109375 4.027344 2.083734 0.08528 2.674001 0.569427 2.806641 1.271484 0.101898-1.217082 0.156963-2.150194-2.806641-2.271484-3.454568 0.189212-3.109375-4.027344-8.109375-4.027344zm10.904297 7.429688c-0.040386 0.492355-0.069492 1.023551 0.095703 1.570312 0.089401 0.299155 0.1475 0.559924 0.189453 0.804688 0.115892-0.455977 0.042287-1.029234-0.189453-1.804688-0.058291-0.192932-0.078066-0.381561-0.095703-0.570312z" style="fill:#ffffff;opacity:.1"/>
 <ellipse transform="matrix(.97235312 -.23351535 .28643384 .95810002 0 0)" cx="10.189" cy="21.271" rx="15.315" ry="6.281" style="fill:#2e72de"/>
 <ellipse transform="matrix(.97262806 -.23236752 .21506239 .97660031 0 0)" cx="11.55" cy="26.811" rx="7.163" ry="3.153" style="opacity:.2"/>
 <ellipse transform="matrix(.97262806 -.23236752 .21506239 .97660031 0 0)" cx="11.765" cy="25.838" rx="7.163" ry="3.153" style="fill:#ffffff"/>
 <path d="m21.560547 11.003906a6.2692939 15.31979 77.128662 0 0 -7.359375 0.978516 6.2692939 15.31979 77.128662 0 0 -13.144531 9.291016 6.2692939 15.31979 77.128662 0 1 13.144531 -8.291016 6.2692939 15.31979 77.128662 0 1 16.691406 2.441406 6.2692939 15.31979 77.128662 0 1 0.050781 0.302734 6.2692939 15.31979 77.128662 0 0 -0.050781 -1.302734 6.2692939 15.31979 77.128662 0 0 -9.332031 -3.419922z" style="fill:#ffffff;opacity:.1"/>
</svg>
