<svg width="32" height="32" version="1.0" xmlns="http://www.w3.org/2000/svg">
 <text x="877.22626" y="-5.1873989" font-family="'Bitstream Vera Sans'" font-size="12.666px" opacity=".8" xml:space="preserve"><tspan x="877.22626" y="-5.1873989"/></text>
 <text x="901.18719" y="-45.929108" font-family="'Bitstream Vera Sans'" font-size="12.666px" opacity=".8" xml:space="preserve"><tspan x="901.18719" y="-45.929108"/></text>
 <text x="-569.37115" y="-76.007248" font-family="'Bitstream Vera Sans'" font-size="12.666px" opacity=".8" xml:space="preserve"><tspan x="-569.37115" y="-76.007248"/></text>
 <text x="-2393.0571" y="669.5462" font-family="'Bitstream Vera Sans'" font-size="12.666px" opacity=".8" xml:space="preserve"><tspan x="-2393.0571" y="669.5462"/></text>
 <text x="-454.88007" y="-461.32822" font-family="'Bitstream Vera Sans'" font-size="12.666px" opacity=".8" xml:space="preserve"><tspan x="-454.88007" y="-461.32822"/></text>
 <text x="352.72208" y="-874.79834" font-family="'Bitstream Vera Sans'" font-size="12.666px" opacity=".8" xml:space="preserve"><tspan x="352.72208" y="-874.79834"/></text>
 <text x="376.68301" y="-915.54004" font-family="'Bitstream Vera Sans'" font-size="12.666px" opacity=".8" xml:space="preserve"><tspan x="376.68301" y="-915.54004"/></text>
 <text x="-1114.7802" y="-922.74994" font-family="'Bitstream Vera Sans'" font-size="12.666px" opacity=".8" xml:space="preserve"><tspan x="-1114.7802" y="-922.74994"/></text>
 <text x="345.7626" y="-1195.9841" font-family="'Bitstream Vera Sans'" font-size="12.666px" opacity=".8" xml:space="preserve"><tspan x="345.7626" y="-1195.9841"/></text>
 <text x="1831.8861" y="-569.29272" font-family="'Bitstream Vera Sans'" font-size="12.666px" opacity=".8" xml:space="preserve"><tspan x="1831.8861" y="-569.29272"/></text>
 <text x="1855.8469" y="-610.03448" font-family="'Bitstream Vera Sans'" font-size="12.666px" opacity=".8" xml:space="preserve"><tspan x="1855.8469" y="-610.03448"/></text>
 <text x="364.38376" y="-617.24438" font-family="'Bitstream Vera Sans'" font-size="12.666px" opacity=".8" xml:space="preserve"><tspan x="364.38376" y="-617.24438"/></text>
 <text x="1824.9266" y="-890.47839" font-family="'Bitstream Vera Sans'" font-size="12.666px" opacity=".8" xml:space="preserve"><tspan x="1824.9266" y="-890.47839"/></text>
 <text x="-573.43256" y="-665.33569" font-family="'Bitstream Vera Sans'" font-size="12.666px" opacity=".8" xml:space="preserve"><tspan x="-573.43256" y="-665.33569"/></text>
 <text x="-2397.1182" y="80.217857" font-family="'Bitstream Vera Sans'" font-size="12.666px" opacity=".8" xml:space="preserve"><tspan x="-2397.1182" y="80.217857"/></text>
 <text x="-682.36279" y="173.09" font-family="'Bitstream Vera Sans'" font-size="12.666px" opacity=".8" xml:space="preserve"><tspan x="-682.36279" y="173.09"/></text>
 <text x="426.66153" y="-6.0921478" font-family="'Bitstream Vera Sans'" font-size="12.666px" opacity=".8" xml:space="preserve"><tspan x="426.66153" y="-6.0921478"/></text>
 <text x="450.62247" y="-46.833855" font-family="'Bitstream Vera Sans'" font-size="12.666px" opacity=".8" xml:space="preserve"><tspan x="450.62247" y="-46.833855"/></text>
 <text x="-1040.8407" y="-54.043827" font-family="'Bitstream Vera Sans'" font-size="12.666px" opacity=".8" xml:space="preserve"><tspan x="-1040.8407" y="-54.043827"/></text>
 <text x="419.70206" y="-327.27789" font-family="'Bitstream Vera Sans'" font-size="12.666px" opacity=".8" xml:space="preserve"><tspan x="419.70206" y="-327.27789"/></text>
 <text x="-608.03253" y="-56.758072" font-family="'Bitstream Vera Sans'" font-size="12.666px" opacity=".8" xml:space="preserve"><tspan x="-608.03253" y="-56.758072"/></text>
 <text x="-2431.7185" y="688.79541" font-family="'Bitstream Vera Sans'" font-size="12.666px" opacity=".8" xml:space="preserve"><tspan x="-2431.7185" y="688.79541"/></text>
 <text x="-456.93948" y="-918.28857" font-family="'Bitstream Vera Sans'" font-size="12.666px" opacity=".8" xml:space="preserve"><tspan x="-456.93948" y="-918.28857"/></text>
 <text x="350.66266" y="-1331.7588" font-family="'Bitstream Vera Sans'" font-size="12.666px" opacity=".8" xml:space="preserve"><tspan x="350.66266" y="-1331.7588"/></text>
 <text x="374.62357" y="-1372.5005" font-family="'Bitstream Vera Sans'" font-size="12.666px" opacity=".8" xml:space="preserve"><tspan x="374.62357" y="-1372.5005"/></text>
 <text x="-1116.8396" y="-1379.7104" font-family="'Bitstream Vera Sans'" font-size="12.666px" opacity=".8" xml:space="preserve"><tspan x="-1116.8396" y="-1379.7104"/></text>
 <text x="343.70316" y="-1652.9446" font-family="'Bitstream Vera Sans'" font-size="12.666px" opacity=".8" xml:space="preserve"><tspan x="343.70316" y="-1652.9446"/></text>
 <text x="1829.8265" y="-1026.2533" font-family="'Bitstream Vera Sans'" font-size="12.666px" opacity=".8" xml:space="preserve"><tspan x="1829.8265" y="-1026.2533"/></text>
 <text x="1853.7874" y="-1066.9949" font-family="'Bitstream Vera Sans'" font-size="12.666px" opacity=".8" xml:space="preserve"><tspan x="1853.7874" y="-1066.9949"/></text>
 <text x="362.32431" y="-1074.2048" font-family="'Bitstream Vera Sans'" font-size="12.666px" opacity=".8" xml:space="preserve"><tspan x="362.32431" y="-1074.2048"/></text>
 <text x="1822.8671" y="-1347.439" font-family="'Bitstream Vera Sans'" font-size="12.666px" opacity=".8" xml:space="preserve"><tspan x="1822.8671" y="-1347.439"/></text>
 <text x="-575.492" y="-1122.2961" font-family="'Bitstream Vera Sans'" font-size="12.666px" opacity=".8" xml:space="preserve"><tspan x="-575.492" y="-1122.2961"/></text>
 <text x="-2399.1777" y="-376.74261" font-family="'Bitstream Vera Sans'" font-size="12.666px" opacity=".8" xml:space="preserve"><tspan x="-2399.1777" y="-376.74261"/></text>
 <text x="-684.42224" y="-283.87045" font-family="'Bitstream Vera Sans'" font-size="12.666px" opacity=".8" xml:space="preserve"><tspan x="-684.42224" y="-283.87045"/></text>
 <text x="155.5923" y="-42.956276" font-family="'Bitstream Vera Sans'" font-size="12.666px" opacity=".8" xml:space="preserve"><tspan x="155.5923" y="-42.956276"/></text>
 <text x="179.55324" y="-83.697998" font-family="'Bitstream Vera Sans'" font-size="12.666px" opacity=".8" xml:space="preserve"><tspan x="179.55324" y="-83.697998"/></text>
 <text x="-1090.2634" y="-277.72662" font-family="'Bitstream Vera Sans'" font-size="12.666px" opacity=".8" xml:space="preserve"><tspan x="-1090.2634" y="-277.72662"/></text>
 <text x="-282.66141" y="-691.19678" font-family="'Bitstream Vera Sans'" font-size="12.666px" opacity=".8" xml:space="preserve"><tspan x="-282.66141" y="-691.19678"/></text>
 <text x="-258.70047" y="-731.93848" font-family="'Bitstream Vera Sans'" font-size="12.666px" opacity=".8" xml:space="preserve"><tspan x="-258.70047" y="-731.93848"/></text>
 <text x="-1750.1636" y="-739.14838" font-family="'Bitstream Vera Sans'" font-size="12.666px" opacity=".8" xml:space="preserve"><tspan x="-1750.1636" y="-739.14838"/></text>
 <text x="-289.62085" y="-1012.3825" font-family="'Bitstream Vera Sans'" font-size="12.666px" opacity=".8" xml:space="preserve"><tspan x="-289.62085" y="-1012.3825"/></text>
 <text x="1196.5026" y="-385.69113" font-family="'Bitstream Vera Sans'" font-size="12.666px" opacity=".8" xml:space="preserve"><tspan x="1196.5026" y="-385.69113"/></text>
 <text x="1220.4634" y="-426.43286" font-family="'Bitstream Vera Sans'" font-size="12.666px" opacity=".8" xml:space="preserve"><tspan x="1220.4634" y="-426.43286"/></text>
 <text x="-270.99973" y="-433.64282" font-family="'Bitstream Vera Sans'" font-size="12.666px" opacity=".8" xml:space="preserve"><tspan x="-270.99973" y="-433.64282"/></text>
 <text x="1189.5431" y="-706.87689" font-family="'Bitstream Vera Sans'" font-size="12.666px" opacity=".8" xml:space="preserve"><tspan x="1189.5431" y="-706.87689"/></text>
 <text x="-1208.816" y="-481.7341" font-family="'Bitstream Vera Sans'" font-size="12.666px" opacity=".8" xml:space="preserve"><tspan x="-1208.816" y="-481.7341"/></text>
 <text x="-3032.5017" y="263.81946" font-family="'Bitstream Vera Sans'" font-size="12.666px" opacity=".8" xml:space="preserve"><tspan x="-3032.5017" y="263.81946"/></text>
 <g transform="matrix(.90475 0 0 .90475 -716.75 -692.29)">
  <text x="-664.2738" y="1159.4154" font-family="'Bitstream Vera Sans'" font-size="14px" opacity=".8" xml:space="preserve"><tspan x="-664.2738" y="1159.4154"/></text>
 </g>
 <text x="877.22626" y="2.0505886" font-family="'Bitstream Vera Sans'" font-size="12.666px" opacity=".8" xml:space="preserve"><tspan x="877.22626" y="2.0505886"/></text>
 <text x="901.18719" y="-38.691116" font-family="'Bitstream Vera Sans'" font-size="12.666px" opacity=".8" xml:space="preserve"><tspan x="901.18719" y="-38.691116"/></text>
 <text x="-569.37115" y="-68.769257" font-family="'Bitstream Vera Sans'" font-size="12.666px" opacity=".8" xml:space="preserve"><tspan x="-569.37115" y="-68.769257"/></text>
 <text x="-2393.0571" y="676.78418" font-family="'Bitstream Vera Sans'" font-size="12.666px" opacity=".8" xml:space="preserve"><tspan x="-2393.0571" y="676.78418"/></text>
 <text x="-454.88007" y="-454.09021" font-family="'Bitstream Vera Sans'" font-size="12.666px" opacity=".8" xml:space="preserve"><tspan x="-454.88007" y="-454.09021"/></text>
 <text x="352.72208" y="-867.5603" font-family="'Bitstream Vera Sans'" font-size="12.666px" opacity=".8" xml:space="preserve"><tspan x="352.72208" y="-867.5603"/></text>
 <text x="376.68301" y="-908.30206" font-family="'Bitstream Vera Sans'" font-size="12.666px" opacity=".8" xml:space="preserve"><tspan x="376.68301" y="-908.30206"/></text>
 <text x="-1114.7802" y="-915.51196" font-family="'Bitstream Vera Sans'" font-size="12.666px" opacity=".8" xml:space="preserve"><tspan x="-1114.7802" y="-915.51196"/></text>
 <text x="345.7626" y="-1188.7461" font-family="'Bitstream Vera Sans'" font-size="12.666px" opacity=".8" xml:space="preserve"><tspan x="345.7626" y="-1188.7461"/></text>
 <text x="1831.8861" y="-562.05475" font-family="'Bitstream Vera Sans'" font-size="12.666px" opacity=".8" xml:space="preserve"><tspan x="1831.8861" y="-562.05475"/></text>
 <text x="1855.8469" y="-602.79651" font-family="'Bitstream Vera Sans'" font-size="12.666px" opacity=".8" xml:space="preserve"><tspan x="1855.8469" y="-602.79651"/></text>
 <text x="364.38376" y="-610.00641" font-family="'Bitstream Vera Sans'" font-size="12.666px" opacity=".8" xml:space="preserve"><tspan x="364.38376" y="-610.00641"/></text>
 <text x="1824.9266" y="-883.24036" font-family="'Bitstream Vera Sans'" font-size="12.666px" opacity=".8" xml:space="preserve"><tspan x="1824.9266" y="-883.24036"/></text>
 <text x="-573.43256" y="-658.09772" font-family="'Bitstream Vera Sans'" font-size="12.666px" opacity=".8" xml:space="preserve"><tspan x="-573.43256" y="-658.09772"/></text>
 <text x="-2397.1182" y="87.455849" font-family="'Bitstream Vera Sans'" font-size="12.666px" opacity=".8" xml:space="preserve"><tspan x="-2397.1182" y="87.455849"/></text>
 <text x="-682.36279" y="180.32799" font-family="'Bitstream Vera Sans'" font-size="12.666px" opacity=".8" xml:space="preserve"><tspan x="-682.36279" y="180.32799"/></text>
 <text x="426.66153" y="1.1458397" font-family="'Bitstream Vera Sans'" font-size="12.666px" opacity=".8" xml:space="preserve"><tspan x="426.66153" y="1.1458397"/></text>
 <text x="450.62247" y="-39.595863" font-family="'Bitstream Vera Sans'" font-size="12.666px" opacity=".8" xml:space="preserve"><tspan x="450.62247" y="-39.595863"/></text>
 <text x="-1040.8407" y="-46.805836" font-family="'Bitstream Vera Sans'" font-size="12.666px" opacity=".8" xml:space="preserve"><tspan x="-1040.8407" y="-46.805836"/></text>
 <text x="419.70206" y="-320.03989" font-family="'Bitstream Vera Sans'" font-size="12.666px" opacity=".8" xml:space="preserve"><tspan x="419.70206" y="-320.03989"/></text>
 <text x="-608.03253" y="-49.520081" font-family="'Bitstream Vera Sans'" font-size="12.666px" opacity=".8" xml:space="preserve"><tspan x="-608.03253" y="-49.520081"/></text>
 <text x="-2431.7185" y="696.03345" font-family="'Bitstream Vera Sans'" font-size="12.666px" opacity=".8" xml:space="preserve"><tspan x="-2431.7185" y="696.03345"/></text>
 <text x="-456.93948" y="-911.0506" font-family="'Bitstream Vera Sans'" font-size="12.666px" opacity=".8" xml:space="preserve"><tspan x="-456.93948" y="-911.0506"/></text>
 <text x="350.66266" y="-1324.5208" font-family="'Bitstream Vera Sans'" font-size="12.666px" opacity=".8" xml:space="preserve"><tspan x="350.66266" y="-1324.5208"/></text>
 <text x="374.62357" y="-1365.2626" font-family="'Bitstream Vera Sans'" font-size="12.666px" opacity=".8" xml:space="preserve"><tspan x="374.62357" y="-1365.2626"/></text>
 <text x="-1116.8396" y="-1372.4724" font-family="'Bitstream Vera Sans'" font-size="12.666px" opacity=".8" xml:space="preserve"><tspan x="-1116.8396" y="-1372.4724"/></text>
 <text x="343.70316" y="-1645.7065" font-family="'Bitstream Vera Sans'" font-size="12.666px" opacity=".8" xml:space="preserve"><tspan x="343.70316" y="-1645.7065"/></text>
 <text x="1829.8265" y="-1019.0153" font-family="'Bitstream Vera Sans'" font-size="12.666px" opacity=".8" xml:space="preserve"><tspan x="1829.8265" y="-1019.0153"/></text>
 <text x="1853.7874" y="-1059.757" font-family="'Bitstream Vera Sans'" font-size="12.666px" opacity=".8" xml:space="preserve"><tspan x="1853.7874" y="-1059.757"/></text>
 <text x="362.32431" y="-1066.9668" font-family="'Bitstream Vera Sans'" font-size="12.666px" opacity=".8" xml:space="preserve"><tspan x="362.32431" y="-1066.9668"/></text>
 <text x="1822.8671" y="-1340.2009" font-family="'Bitstream Vera Sans'" font-size="12.666px" opacity=".8" xml:space="preserve"><tspan x="1822.8671" y="-1340.2009"/></text>
 <text x="-575.492" y="-1115.0581" font-family="'Bitstream Vera Sans'" font-size="12.666px" opacity=".8" xml:space="preserve"><tspan x="-575.492" y="-1115.0581"/></text>
 <text x="-2399.1777" y="-369.50461" font-family="'Bitstream Vera Sans'" font-size="12.666px" opacity=".8" xml:space="preserve"><tspan x="-2399.1777" y="-369.50461"/></text>
 <text x="-684.42224" y="-276.63245" font-family="'Bitstream Vera Sans'" font-size="12.666px" opacity=".8" xml:space="preserve"><tspan x="-684.42224" y="-276.63245"/></text>
 <text x="155.5923" y="-35.718292" font-family="'Bitstream Vera Sans'" font-size="12.666px" opacity=".8" xml:space="preserve"><tspan x="155.5923" y="-35.718292"/></text>
 <text x="179.55324" y="-76.460007" font-family="'Bitstream Vera Sans'" font-size="12.666px" opacity=".8" xml:space="preserve"><tspan x="179.55324" y="-76.460007"/></text>
 <text x="-1090.2634" y="-270.48859" font-family="'Bitstream Vera Sans'" font-size="12.666px" opacity=".8" xml:space="preserve"><tspan x="-1090.2634" y="-270.48859"/></text>
 <text x="-282.66141" y="-683.9588" font-family="'Bitstream Vera Sans'" font-size="12.666px" opacity=".8" xml:space="preserve"><tspan x="-282.66141" y="-683.9588"/></text>
 <text x="-258.70047" y="-724.7005" font-family="'Bitstream Vera Sans'" font-size="12.666px" opacity=".8" xml:space="preserve"><tspan x="-258.70047" y="-724.7005"/></text>
 <text x="-1750.1636" y="-731.91046" font-family="'Bitstream Vera Sans'" font-size="12.666px" opacity=".8" xml:space="preserve"><tspan x="-1750.1636" y="-731.91046"/></text>
 <text x="-289.62085" y="-1005.1445" font-family="'Bitstream Vera Sans'" font-size="12.666px" opacity=".8" xml:space="preserve"><tspan x="-289.62085" y="-1005.1445"/></text>
 <text x="1196.5026" y="-378.45316" font-family="'Bitstream Vera Sans'" font-size="12.666px" opacity=".8" xml:space="preserve"><tspan x="1196.5026" y="-378.45316"/></text>
 <text x="1220.4634" y="-419.19489" font-family="'Bitstream Vera Sans'" font-size="12.666px" opacity=".8" xml:space="preserve"><tspan x="1220.4634" y="-419.19489"/></text>
 <text x="-270.99973" y="-426.40482" font-family="'Bitstream Vera Sans'" font-size="12.666px" opacity=".8" xml:space="preserve"><tspan x="-270.99973" y="-426.40482"/></text>
 <text x="1189.5431" y="-699.63892" font-family="'Bitstream Vera Sans'" font-size="12.666px" opacity=".8" xml:space="preserve"><tspan x="1189.5431" y="-699.63892"/></text>
 <text x="-1208.816" y="-474.49609" font-family="'Bitstream Vera Sans'" font-size="12.666px" opacity=".8" xml:space="preserve"><tspan x="-1208.816" y="-474.49609"/></text>
 <text x="-3032.5017" y="271.05743" font-family="'Bitstream Vera Sans'" font-size="12.666px" opacity=".8" xml:space="preserve"><tspan x="-3032.5017" y="271.05743"/></text>
 <g transform="matrix(.90475 0 0 .90475 -716.75 -685.05)">
  <text x="-664.2738" y="1159.4154" font-family="'Bitstream Vera Sans'" font-size="14px" opacity=".8" xml:space="preserve"><tspan x="-664.2738" y="1159.4154"/></text>
 </g>
 <text x="435.90427" y="-377.22546" font-family="'Droid Sans'" font-size="12.666px" xml:space="preserve"><tspan x="435.90427" y="-377.22546"/><tspan x="435.90427" y="-361.3924"/></text>
 <text x="901.0882" y="-859.27002" font-family="'Bitstream Vera Sans'" font-size="12.666px" opacity=".8" xml:space="preserve"><tspan x="901.0882" y="-859.27002"/></text>
 <text x="-922.59778" y="-113.71655" font-family="'Bitstream Vera Sans'" font-size="12.666px" opacity=".8" xml:space="preserve"><tspan x="-922.59778" y="-113.71655"/></text>
 <text x="1628.1677" y="-1144.2659" font-family="'Bitstream Vera Sans'" font-size="12.666px" opacity=".8" xml:space="preserve"><tspan x="1628.1677" y="-1144.2659"/></text>
 <text x="1652.1285" y="-1185.0076" font-family="'Bitstream Vera Sans'" font-size="12.666px" opacity=".8" xml:space="preserve"><tspan x="1652.1285" y="-1185.0076"/></text>
 <text x="160.66542" y="-1192.2175" font-family="'Bitstream Vera Sans'" font-size="12.666px" opacity=".8" xml:space="preserve"><tspan x="160.66542" y="-1192.2175"/></text>
 <text x="1621.2083" y="-1465.4517" font-family="'Bitstream Vera Sans'" font-size="12.666px" opacity=".8" xml:space="preserve"><tspan x="1621.2083" y="-1465.4517"/></text>
 <rect transform="matrix(0,-1,-1,0,0,0)" x="-29" y="-29" width="26" height="26" rx="13" ry="13" fill="#5db43e"/>
 <path d="m16 3c-7.202 0-13 5.798-13 13 0 0.169 0.0191 0.333 0.0254 0.5 0.2633-6.9663 5.9416-12.5 12.975-12.5 7.033 0 12.711 5.5337 12.975 12.5 6e-3 -0.167 0.025-0.331 0.025-0.5 0-7.202-5.798-13-13-13z" fill="#fff" opacity=".2"/>
 <path d="m16.017 9.0001c1.7532 0.0037 3.531 0.52833 4.9196 1.5668 0.97624 1.0798-0.88389 2.2362-1.7217 1.1833-2.522-1.4652-6.0788-0.94934-7.9763 1.2413-1.0095 1.0871-1.5784 2.5377-1.5717 3.994h1.6667c-0.8892 1.28-1.778 2.56-2.6669 3.84l-2.6667-3.84h1.6667c-0.053013-3.4772 2.5514-6.7845 6.048-7.6851 0.7502-0.19742 1.5231-0.308 2.302-0.30025zm7.3167 4.1607c0.888 1.28 1.777 2.561 2.666 3.841h-1.6667c0.04725 3.5187-2.6237 6.8634-6.1816 7.7164-2.4008 0.64371-5.1155 0.174-7.0886-1.2988-1.0067-1.0978 0.87926-2.2431 1.7248-1.1806 2.4435 1.4235 5.8653 0.97198 7.7941-1.0611 1.117-1.105 1.7598-2.6358 1.7513-4.176h-1.6667l2.6667-3.8406z" opacity=".2"/>
 <path d="m3.0254 16.5c-0.0063 0.167-0.0254 0.331-0.0254 0.5 0 7.202 5.798 13 13 13s13-5.798 13-13c0-0.169-0.019-0.333-0.025-0.5-0.264 6.966-5.942 12.5-12.975 12.5s-12.711-5.534-12.975-12.5z" opacity=".2"/>
 <text x="877.22638" y="-5.187499" font-family="'Bitstream Vera Sans'" font-size="12.666px" opacity=".8" xml:space="preserve"><tspan x="877.22638" y="-5.187499"/></text>
 <text x="901.18732" y="-45.929207" font-family="'Bitstream Vera Sans'" font-size="12.666px" opacity=".8" xml:space="preserve"><tspan x="901.18732" y="-45.929207"/></text>
 <text x="-569.37103" y="-76.007347" font-family="'Bitstream Vera Sans'" font-size="12.666px" opacity=".8" xml:space="preserve"><tspan x="-569.37103" y="-76.007347"/></text>
 <text x="-2393.0571" y="669.54608" font-family="'Bitstream Vera Sans'" font-size="12.666px" opacity=".8" xml:space="preserve"><tspan x="-2393.0571" y="669.54608"/></text>
 <text x="-454.87997" y="-461.32831" font-family="'Bitstream Vera Sans'" font-size="12.666px" opacity=".8" xml:space="preserve"><tspan x="-454.87997" y="-461.32831"/></text>
 <text x="352.72217" y="-874.79846" font-family="'Bitstream Vera Sans'" font-size="12.666px" opacity=".8" xml:space="preserve"><tspan x="352.72217" y="-874.79846"/></text>
 <text x="376.68311" y="-915.54016" font-family="'Bitstream Vera Sans'" font-size="12.666px" opacity=".8" xml:space="preserve"><tspan x="376.68311" y="-915.54016"/></text>
 <text x="-1114.78" y="-922.75006" font-family="'Bitstream Vera Sans'" font-size="12.666px" opacity=".8" xml:space="preserve"><tspan x="-1114.78" y="-922.75006"/></text>
 <text x="345.7627" y="-1195.9843" font-family="'Bitstream Vera Sans'" font-size="12.666px" opacity=".8" xml:space="preserve"><tspan x="345.7627" y="-1195.9843"/></text>
 <text x="1831.8862" y="-569.29285" font-family="'Bitstream Vera Sans'" font-size="12.666px" opacity=".8" xml:space="preserve"><tspan x="1831.8862" y="-569.29285"/></text>
 <text x="1855.847" y="-610.03461" font-family="'Bitstream Vera Sans'" font-size="12.666px" opacity=".8" xml:space="preserve"><tspan x="1855.847" y="-610.03461"/></text>
 <text x="364.38385" y="-617.24451" font-family="'Bitstream Vera Sans'" font-size="12.666px" opacity=".8" xml:space="preserve"><tspan x="364.38385" y="-617.24451"/></text>
 <text x="1824.9268" y="-890.47852" font-family="'Bitstream Vera Sans'" font-size="12.666px" opacity=".8" xml:space="preserve"><tspan x="1824.9268" y="-890.47852"/></text>
 <text x="-573.43243" y="-665.33582" font-family="'Bitstream Vera Sans'" font-size="12.666px" opacity=".8" xml:space="preserve"><tspan x="-573.43243" y="-665.33582"/></text>
 <text x="-2397.1182" y="80.217758" font-family="'Bitstream Vera Sans'" font-size="12.666px" opacity=".8" xml:space="preserve"><tspan x="-2397.1182" y="80.217758"/></text>
 <text x="-682.36267" y="173.08989" font-family="'Bitstream Vera Sans'" font-size="12.666px" opacity=".8" xml:space="preserve"><tspan x="-682.36267" y="173.08989"/></text>
 <text x="426.66162" y="-6.092248" font-family="'Bitstream Vera Sans'" font-size="12.666px" opacity=".8" xml:space="preserve"><tspan x="426.66162" y="-6.092248"/></text>
 <text x="450.62256" y="-46.833954" font-family="'Bitstream Vera Sans'" font-size="12.666px" opacity=".8" xml:space="preserve"><tspan x="450.62256" y="-46.833954"/></text>
 <text x="-1040.8406" y="-54.043926" font-family="'Bitstream Vera Sans'" font-size="12.666px" opacity=".8" xml:space="preserve"><tspan x="-1040.8406" y="-54.043926"/></text>
 <text x="419.70215" y="-327.27798" font-family="'Bitstream Vera Sans'" font-size="12.666px" opacity=".8" xml:space="preserve"><tspan x="419.70215" y="-327.27798"/></text>
 <text x="-608.03241" y="-56.758171" font-family="'Bitstream Vera Sans'" font-size="12.666px" opacity=".8" xml:space="preserve"><tspan x="-608.03241" y="-56.758171"/></text>
 <text x="-2431.7185" y="688.79529" font-family="'Bitstream Vera Sans'" font-size="12.666px" opacity=".8" xml:space="preserve"><tspan x="-2431.7185" y="688.79529"/></text>
 <text x="-456.93939" y="-918.2887" font-family="'Bitstream Vera Sans'" font-size="12.666px" opacity=".8" xml:space="preserve"><tspan x="-456.93939" y="-918.2887"/></text>
 <text x="350.66275" y="-1331.7589" font-family="'Bitstream Vera Sans'" font-size="12.666px" opacity=".8" xml:space="preserve"><tspan x="350.66275" y="-1331.7589"/></text>
 <text x="374.62366" y="-1372.5006" font-family="'Bitstream Vera Sans'" font-size="12.666px" opacity=".8" xml:space="preserve"><tspan x="374.62366" y="-1372.5006"/></text>
 <text x="-1116.8395" y="-1379.7106" font-family="'Bitstream Vera Sans'" font-size="12.666px" opacity=".8" xml:space="preserve"><tspan x="-1116.8395" y="-1379.7106"/></text>
 <text x="343.70325" y="-1652.9447" font-family="'Bitstream Vera Sans'" font-size="12.666px" opacity=".8" xml:space="preserve"><tspan x="343.70325" y="-1652.9447"/></text>
 <text x="1829.8267" y="-1026.2534" font-family="'Bitstream Vera Sans'" font-size="12.666px" opacity=".8" xml:space="preserve"><tspan x="1829.8267" y="-1026.2534"/></text>
 <text x="1853.7875" y="-1066.995" font-family="'Bitstream Vera Sans'" font-size="12.666px" opacity=".8" xml:space="preserve"><tspan x="1853.7875" y="-1066.995"/></text>
 <text x="362.3244" y="-1074.205" font-family="'Bitstream Vera Sans'" font-size="12.666px" opacity=".8" xml:space="preserve"><tspan x="362.3244" y="-1074.205"/></text>
 <text x="1822.8672" y="-1347.4391" font-family="'Bitstream Vera Sans'" font-size="12.666px" opacity=".8" xml:space="preserve"><tspan x="1822.8672" y="-1347.4391"/></text>
 <text x="-575.49188" y="-1122.2963" font-family="'Bitstream Vera Sans'" font-size="12.666px" opacity=".8" xml:space="preserve"><tspan x="-575.49188" y="-1122.2963"/></text>
 <text x="-2399.1777" y="-376.74271" font-family="'Bitstream Vera Sans'" font-size="12.666px" opacity=".8" xml:space="preserve"><tspan x="-2399.1777" y="-376.74271"/></text>
 <text x="-684.42212" y="-283.87054" font-family="'Bitstream Vera Sans'" font-size="12.666px" opacity=".8" xml:space="preserve"><tspan x="-684.42212" y="-283.87054"/></text>
 <text x="155.59241" y="-42.956375" font-family="'Bitstream Vera Sans'" font-size="12.666px" opacity=".8" xml:space="preserve"><tspan x="155.59241" y="-42.956375"/></text>
 <text x="179.55334" y="-83.698097" font-family="'Bitstream Vera Sans'" font-size="12.666px" opacity=".8" xml:space="preserve"><tspan x="179.55334" y="-83.698097"/></text>
 <text x="-1090.2633" y="-277.72672" font-family="'Bitstream Vera Sans'" font-size="12.666px" opacity=".8" xml:space="preserve"><tspan x="-1090.2633" y="-277.72672"/></text>
 <text x="-282.66132" y="-691.1969" font-family="'Bitstream Vera Sans'" font-size="12.666px" opacity=".8" xml:space="preserve"><tspan x="-282.66132" y="-691.1969"/></text>
 <text x="-258.70038" y="-731.9386" font-family="'Bitstream Vera Sans'" font-size="12.666px" opacity=".8" xml:space="preserve"><tspan x="-258.70038" y="-731.9386"/></text>
 <text x="-1750.1635" y="-739.1485" font-family="'Bitstream Vera Sans'" font-size="12.666px" opacity=".8" xml:space="preserve"><tspan x="-1750.1635" y="-739.1485"/></text>
 <text x="-289.62076" y="-1012.3826" font-family="'Bitstream Vera Sans'" font-size="12.666px" opacity=".8" xml:space="preserve"><tspan x="-289.62076" y="-1012.3826"/></text>
 <text x="1196.5027" y="-385.69122" font-family="'Bitstream Vera Sans'" font-size="12.666px" opacity=".8" xml:space="preserve"><tspan x="1196.5027" y="-385.69122"/></text>
 <text x="1220.4635" y="-426.43295" font-family="'Bitstream Vera Sans'" font-size="12.666px" opacity=".8" xml:space="preserve"><tspan x="1220.4635" y="-426.43295"/></text>
 <text x="-270.99963" y="-433.64291" font-family="'Bitstream Vera Sans'" font-size="12.666px" opacity=".8" xml:space="preserve"><tspan x="-270.99963" y="-433.64291"/></text>
 <text x="1189.5432" y="-706.87701" font-family="'Bitstream Vera Sans'" font-size="12.666px" opacity=".8" xml:space="preserve"><tspan x="1189.5432" y="-706.87701"/></text>
 <text x="-1208.8159" y="-481.73419" font-family="'Bitstream Vera Sans'" font-size="12.666px" opacity=".8" xml:space="preserve"><tspan x="-1208.8159" y="-481.73419"/></text>
 <text x="-3032.5017" y="263.81937" font-family="'Bitstream Vera Sans'" font-size="12.666px" opacity=".8" xml:space="preserve"><tspan x="-3032.5017" y="263.81937"/></text>
 <text x="-1317.7516" y="356.69098" font-family="'Bitstream Vera Sans'" font-size="12.667px" opacity=".8" xml:space="preserve"><tspan x="-1317.7516" y="356.69098"/></text>
 <text x="877.22638" y="2.0504887" font-family="'Bitstream Vera Sans'" font-size="12.666px" opacity=".8" xml:space="preserve"><tspan x="877.22638" y="2.0504887"/></text>
 <text x="901.18732" y="-38.691216" font-family="'Bitstream Vera Sans'" font-size="12.666px" opacity=".8" xml:space="preserve"><tspan x="901.18732" y="-38.691216"/></text>
 <text x="-569.37103" y="-68.769356" font-family="'Bitstream Vera Sans'" font-size="12.666px" opacity=".8" xml:space="preserve"><tspan x="-569.37103" y="-68.769356"/></text>
 <text x="-2393.0571" y="676.78406" font-family="'Bitstream Vera Sans'" font-size="12.666px" opacity=".8" xml:space="preserve"><tspan x="-2393.0571" y="676.78406"/></text>
 <text x="-454.87997" y="-454.0903" font-family="'Bitstream Vera Sans'" font-size="12.666px" opacity=".8" xml:space="preserve"><tspan x="-454.87997" y="-454.0903"/></text>
 <text x="352.72217" y="-867.56042" font-family="'Bitstream Vera Sans'" font-size="12.666px" opacity=".8" xml:space="preserve"><tspan x="352.72217" y="-867.56042"/></text>
 <text x="376.68311" y="-908.30219" font-family="'Bitstream Vera Sans'" font-size="12.666px" opacity=".8" xml:space="preserve"><tspan x="376.68311" y="-908.30219"/></text>
 <text x="-1114.78" y="-915.51208" font-family="'Bitstream Vera Sans'" font-size="12.666px" opacity=".8" xml:space="preserve"><tspan x="-1114.78" y="-915.51208"/></text>
 <text x="345.7627" y="-1188.7462" font-family="'Bitstream Vera Sans'" font-size="12.666px" opacity=".8" xml:space="preserve"><tspan x="345.7627" y="-1188.7462"/></text>
 <text x="1831.8862" y="-562.05487" font-family="'Bitstream Vera Sans'" font-size="12.666px" opacity=".8" xml:space="preserve"><tspan x="1831.8862" y="-562.05487"/></text>
 <text x="1855.847" y="-602.79663" font-family="'Bitstream Vera Sans'" font-size="12.666px" opacity=".8" xml:space="preserve"><tspan x="1855.847" y="-602.79663"/></text>
 <text x="364.38385" y="-610.00653" font-family="'Bitstream Vera Sans'" font-size="12.666px" opacity=".8" xml:space="preserve"><tspan x="364.38385" y="-610.00653"/></text>
 <text x="1824.9268" y="-883.24048" font-family="'Bitstream Vera Sans'" font-size="12.666px" opacity=".8" xml:space="preserve"><tspan x="1824.9268" y="-883.24048"/></text>
 <text x="-573.43243" y="-658.09784" font-family="'Bitstream Vera Sans'" font-size="12.666px" opacity=".8" xml:space="preserve"><tspan x="-573.43243" y="-658.09784"/></text>
 <text x="-2397.1182" y="87.45575" font-family="'Bitstream Vera Sans'" font-size="12.666px" opacity=".8" xml:space="preserve"><tspan x="-2397.1182" y="87.45575"/></text>
 <text x="-682.36267" y="180.32788" font-family="'Bitstream Vera Sans'" font-size="12.666px" opacity=".8" xml:space="preserve"><tspan x="-682.36267" y="180.32788"/></text>
 <text x="426.66162" y="1.1457397" font-family="'Bitstream Vera Sans'" font-size="12.666px" opacity=".8" xml:space="preserve"><tspan x="426.66162" y="1.1457397"/></text>
 <text x="450.62256" y="-39.595963" font-family="'Bitstream Vera Sans'" font-size="12.666px" opacity=".8" xml:space="preserve"><tspan x="450.62256" y="-39.595963"/></text>
 <text x="-1040.8406" y="-46.805935" font-family="'Bitstream Vera Sans'" font-size="12.666px" opacity=".8" xml:space="preserve"><tspan x="-1040.8406" y="-46.805935"/></text>
 <text x="419.70215" y="-320.03998" font-family="'Bitstream Vera Sans'" font-size="12.666px" opacity=".8" xml:space="preserve"><tspan x="419.70215" y="-320.03998"/></text>
 <text x="-608.03241" y="-49.52018" font-family="'Bitstream Vera Sans'" font-size="12.666px" opacity=".8" xml:space="preserve"><tspan x="-608.03241" y="-49.52018"/></text>
 <text x="-2431.7185" y="696.03333" font-family="'Bitstream Vera Sans'" font-size="12.666px" opacity=".8" xml:space="preserve"><tspan x="-2431.7185" y="696.03333"/></text>
 <text x="-456.93939" y="-911.05072" font-family="'Bitstream Vera Sans'" font-size="12.666px" opacity=".8" xml:space="preserve"><tspan x="-456.93939" y="-911.05072"/></text>
 <text x="350.66275" y="-1324.5209" font-family="'Bitstream Vera Sans'" font-size="12.666px" opacity=".8" xml:space="preserve"><tspan x="350.66275" y="-1324.5209"/></text>
 <text x="374.62366" y="-1365.2627" font-family="'Bitstream Vera Sans'" font-size="12.666px" opacity=".8" xml:space="preserve"><tspan x="374.62366" y="-1365.2627"/></text>
 <text x="-1116.8395" y="-1372.4725" font-family="'Bitstream Vera Sans'" font-size="12.666px" opacity=".8" xml:space="preserve"><tspan x="-1116.8395" y="-1372.4725"/></text>
 <text x="343.70325" y="-1645.7067" font-family="'Bitstream Vera Sans'" font-size="12.666px" opacity=".8" xml:space="preserve"><tspan x="343.70325" y="-1645.7067"/></text>
 <text x="1829.8267" y="-1019.0154" font-family="'Bitstream Vera Sans'" font-size="12.666px" opacity=".8" xml:space="preserve"><tspan x="1829.8267" y="-1019.0154"/></text>
 <text x="1853.7875" y="-1059.7571" font-family="'Bitstream Vera Sans'" font-size="12.666px" opacity=".8" xml:space="preserve"><tspan x="1853.7875" y="-1059.7571"/></text>
 <text x="362.3244" y="-1066.9669" font-family="'Bitstream Vera Sans'" font-size="12.666px" opacity=".8" xml:space="preserve"><tspan x="362.3244" y="-1066.9669"/></text>
 <text x="1822.8672" y="-1340.201" font-family="'Bitstream Vera Sans'" font-size="12.666px" opacity=".8" xml:space="preserve"><tspan x="1822.8672" y="-1340.201"/></text>
 <text x="-575.49188" y="-1115.0582" font-family="'Bitstream Vera Sans'" font-size="12.666px" opacity=".8" xml:space="preserve"><tspan x="-575.49188" y="-1115.0582"/></text>
 <text x="-2399.1777" y="-369.5047" font-family="'Bitstream Vera Sans'" font-size="12.666px" opacity=".8" xml:space="preserve"><tspan x="-2399.1777" y="-369.5047"/></text>
 <text x="-684.42212" y="-276.63254" font-family="'Bitstream Vera Sans'" font-size="12.666px" opacity=".8" xml:space="preserve"><tspan x="-684.42212" y="-276.63254"/></text>
 <text x="155.59241" y="-35.718391" font-family="'Bitstream Vera Sans'" font-size="12.666px" opacity=".8" xml:space="preserve"><tspan x="155.59241" y="-35.718391"/></text>
 <text x="179.55334" y="-76.460106" font-family="'Bitstream Vera Sans'" font-size="12.666px" opacity=".8" xml:space="preserve"><tspan x="179.55334" y="-76.460106"/></text>
 <text x="-1090.2633" y="-270.48868" font-family="'Bitstream Vera Sans'" font-size="12.666px" opacity=".8" xml:space="preserve"><tspan x="-1090.2633" y="-270.48868"/></text>
 <text x="-282.66132" y="-683.95892" font-family="'Bitstream Vera Sans'" font-size="12.666px" opacity=".8" xml:space="preserve"><tspan x="-282.66132" y="-683.95892"/></text>
 <text x="-258.70038" y="-724.70062" font-family="'Bitstream Vera Sans'" font-size="12.666px" opacity=".8" xml:space="preserve"><tspan x="-258.70038" y="-724.70062"/></text>
 <text x="-1750.1635" y="-731.91058" font-family="'Bitstream Vera Sans'" font-size="12.666px" opacity=".8" xml:space="preserve"><tspan x="-1750.1635" y="-731.91058"/></text>
 <text x="-289.62076" y="-1005.1446" font-family="'Bitstream Vera Sans'" font-size="12.666px" opacity=".8" xml:space="preserve"><tspan x="-289.62076" y="-1005.1446"/></text>
 <text x="1196.5027" y="-378.45325" font-family="'Bitstream Vera Sans'" font-size="12.666px" opacity=".8" xml:space="preserve"><tspan x="1196.5027" y="-378.45325"/></text>
 <text x="1220.4635" y="-419.19498" font-family="'Bitstream Vera Sans'" font-size="12.666px" opacity=".8" xml:space="preserve"><tspan x="1220.4635" y="-419.19498"/></text>
 <text x="-270.99963" y="-426.40491" font-family="'Bitstream Vera Sans'" font-size="12.666px" opacity=".8" xml:space="preserve"><tspan x="-270.99963" y="-426.40491"/></text>
 <text x="1189.5432" y="-699.63904" font-family="'Bitstream Vera Sans'" font-size="12.666px" opacity=".8" xml:space="preserve"><tspan x="1189.5432" y="-699.63904"/></text>
 <text x="-1208.8159" y="-474.49619" font-family="'Bitstream Vera Sans'" font-size="12.666px" opacity=".8" xml:space="preserve"><tspan x="-1208.8159" y="-474.49619"/></text>
 <text x="-3032.5017" y="271.05734" font-family="'Bitstream Vera Sans'" font-size="12.666px" opacity=".8" xml:space="preserve"><tspan x="-3032.5017" y="271.05734"/></text>
 <text x="-1317.7516" y="363.931" font-family="'Bitstream Vera Sans'" font-size="12.667px" opacity=".8" xml:space="preserve"><tspan x="-1317.7516" y="363.931"/></text>
 <text x="435.90436" y="-377.22556" font-family="'Droid Sans'" font-size="12.666px" xml:space="preserve"><tspan x="435.90436" y="-377.22556"/><tspan x="435.90436" y="-361.39249"/></text>
 <text x="901.08832" y="-859.27014" font-family="'Bitstream Vera Sans'" font-size="12.666px" opacity=".8" xml:space="preserve"><tspan x="901.08832" y="-859.27014"/></text>
 <text x="-922.59766" y="-113.71665" font-family="'Bitstream Vera Sans'" font-size="12.666px" opacity=".8" xml:space="preserve"><tspan x="-922.59766" y="-113.71665"/></text>
 <text x="1628.1678" y="-1144.266" font-family="'Bitstream Vera Sans'" font-size="12.666px" opacity=".8" xml:space="preserve"><tspan x="1628.1678" y="-1144.266"/></text>
 <text x="1652.1287" y="-1185.0077" font-family="'Bitstream Vera Sans'" font-size="12.666px" opacity=".8" xml:space="preserve"><tspan x="1652.1287" y="-1185.0077"/></text>
 <text x="160.66553" y="-1192.2177" font-family="'Bitstream Vera Sans'" font-size="12.666px" opacity=".8" xml:space="preserve"><tspan x="160.66553" y="-1192.2177"/></text>
 <text x="1621.2084" y="-1465.4518" font-family="'Bitstream Vera Sans'" font-size="12.666px" opacity=".8" xml:space="preserve"><tspan x="1621.2084" y="-1465.4518"/></text>
 <path d="m16.017 8.0003c1.7532 0.0037 3.531 0.52833 4.9196 1.5668 0.97624 1.0798-0.88389 2.2362-1.7217 1.1833-2.522-1.4652-6.0788-0.94934-7.9763 1.2413-1.0095 1.0871-1.5784 2.5377-1.5717 3.994h1.6667c-0.8892 1.28-1.778 2.56-2.6669 3.84l-2.6667-3.84h1.6667c-0.053013-3.4772 2.5514-6.7845 6.048-7.6851 0.7502-0.19742 1.5231-0.308 2.302-0.30025zm7.3167 4.1607c0.888 1.28 1.777 2.561 2.666 3.841h-1.6667c0.04725 3.5187-2.6237 6.8634-6.1816 7.7164-2.4008 0.64371-5.1155 0.174-7.0886-1.2988-1.0067-1.0978 0.87926-2.2431 1.7248-1.1806 2.4435 1.4235 5.8653 0.97198 7.7941-1.0611 1.117-1.105 1.7598-2.6358 1.7513-4.176h-1.6667l2.6667-3.8406z" fill="#fff"/>
</svg>
