<svg width="32" height="32" version="1" xmlns="http://www.w3.org/2000/svg">
 <path d="m4.9473684 2.7435897c-1.6073514 0-2.9473684 1.3522883-2.9473684 2.974359v4.4615383c0 0.89628 0.4305555 1.681848 1.0678454 2.230769-0.6372899 0.548922-1.0678454 1.33449-1.0678454 2.23077v4.461538c0 0.89628 0.4305555 1.681848 1.0678454 2.230769-0.6372899 0.548922-1.0678454 1.33449-1.0678454 2.23077v4.461538c0 1.622071 1.340017 2.974359 2.9473684 2.974359h22.105264c1.607351 0 2.947368-1.352288 2.947368-2.974359v-4.461538c0-0.89628-0.430555-1.681848-1.067846-2.23077 0.637291-0.548921 1.067846-1.334489 1.067846-2.230769v-4.461538c0-0.89628-0.430555-1.681848-1.067846-2.23077 0.637291-0.548921 1.067846-1.334489 1.067846-2.230769v-4.4615383c0-1.6220707-1.340017-2.974359-2.947368-2.974359h-8.842106c-0.888146 0-1.666585 0.4344983-2.210526 1.0776243-0.543941-0.643126-1.32238-1.0776243-2.210526-1.0776243z" style="opacity:.2"/>
 <path d="m4.9473684 2c-1.6073514 0-2.9473684 1.3522882-2.9473684 2.974359v22.307692c0 1.622071 1.340017 2.974359 2.9473684 2.974359h22.105264c1.607351 0 2.947368-1.352288 2.947368-2.974359v-22.307692c0-1.6220708-1.340017-2.974359-2.947368-2.974359h-22.105264z" style="fill:#333333"/>
 <path d="m4.9473684 2c-1.6073514 0-2.9473684 1.3522882-2.9473684 2.974359v0.7435897c0-1.6220707 1.340017-2.974359 2.9473684-2.974359h22.105264c1.607351 0 2.947368 1.3522883 2.947368 2.974359v-0.7435897c0-1.6220708-1.340017-2.974359-2.947368-2.974359h-22.105264z" style="fill:#ffffff;opacity:.1"/>
 <path d="m19.290024 9.7072304-0.263274 0.6329566-0.07356 0.453228 0.01355 0.171913-0.675606 0.08986-0.03097-0.168008-0.187777-0.420016-0.414269-0.5430921-0.42395 0.1152601-0.09098 0.677888 0.04453 0.45909 0.05807 0.160192-0.631085 0.263731-0.07163-0.154331-0.290377-0.35555-0.538163-0.41611-0.38136 0.222706 0.08711 0.677888 0.160675 0.431739 0.09679 0.140658-0.542026 0.418063-0.108407-0.128936-0.371682-0.269592-0.627212-0.259824-0.311671 0.312571 0.257467 0.634909 0.267145 0.373131 0.129703 0.111354-0.416206 0.545045-0.139381-0.09572-0.425884-0.164099-0.673674-0.08596-0.218749 0.382899 0.410398 0.545046 0.352324 0.291081 0.154866 0.07424-0.261339 0.63491-0.160674-0.05665-0.452987-0.04493-0.673672 0.09182-0.112279 0.42783 0.536227 0.418064 0.416206 0.189498 0.166483 0.03125-0.08905 0.681795-0.168418-0.01367-0.45105 0.07424-0.625278 0.26373v0.443461l0.625278 0.263732 0.45105 0.07619 0.168418-0.01367 0.08905 0.681796-0.166483 0.03125-0.416206 0.189495-0.536227 0.418064 0.112279 0.427831 0.673672 0.09182 0.452987-0.04494 0.160674-0.0586 0.261339 0.636863-0.154866 0.07228-0.352324 0.291081-0.410398 0.545047 0.218749 0.384853 0.673674-0.08791 0.425884-0.162145 0.139381-0.09768 0.416206 0.547-0.129703 0.109399-0.267145 0.375085-0.257467 0.632956 0.311671 0.312571 0.627212-0.259825 0.371682-0.267638 0.108407-0.13089 0.542035 0.420018-0.09679 0.140657-0.160675 0.429785-0.08711 0.679841 0.38136 0.220754 0.538163-0.414157 0.290377-0.357503 0.07163-0.154332 0.631085 0.263732-0.05807 0.162146-0.04453 0.457135 0.09098 0.679842 0.42395 0.113307 0.414269-0.541138 0.187777-0.420018 0.03097-0.168006 0.675606 0.08986-0.01355 0.16996 0.07356 0.455182 0.263265 0.631003h0.4375l0.263275-0.631003 0.07356-0.455182-0.01355-0.16996 0.675608-0.08986 0.03097 0.168006 0.187777 0.420018 0.414269 0.541138 0.42395-0.113307 0.09098-0.679842-0.04452-0.457135-0.05614-0.162146 0.629148-0.263732 0.07163 0.154332 0.290376 0.357503 0.5401 0.414157 0.379425-0.220754-0.08711-0.679841-0.160674-0.429785-0.09679-0.140657 0.542034-0.420018 0.110343 0.13089 0.369746 0.267638 0.627213 0.259825 0.311669-0.312571-0.257466-0.632956-0.267147-0.375085-0.129701-0.109399 0.416206-0.547 0.139381 0.09768 0.42782 0.162145 0.671736 0.08791 0.220687-0.384853-0.412334-0.545047-0.352323-0.291081-0.152931-0.07228 0.259403-0.636863 0.160673 0.0586 0.454923 0.04494 0.671737-0.09182 0.114214-0.427831-0.538163-0.418064-0.416206-0.189495-0.166481-0.03125 0.08905-0.681796 0.16842 0.01367 0.45105-0.07619 0.627213-0.263732v-0.443459l-0.627213-0.263729-0.45105-0.07424-0.16842 0.01367-0.08905-0.681795 0.166481-0.03125 0.416202-0.189497 0.538163-0.418064-0.114214-0.42783-0.671737-0.09182-0.454923 0.04493-0.160673 0.05665-0.259403-0.634911 0.152931-0.07424 0.352323-0.291081 0.412334-0.545045-0.220687-0.382899-0.671736 0.08596-0.42782 0.164099-0.139381 0.09572-0.416206-0.545046 0.129701-0.111353 0.267147-0.373131 0.257466-0.63491-0.311669-0.312571-0.627213 0.259825-0.369746 0.269592-0.110343 0.128935-0.542034-0.418063 0.09679-0.140657 0.160674-0.43174 0.08711-0.677887-0.379425-0.222706-0.5401 0.41611-0.290376 0.355549-0.07163 0.154332-0.629148-0.263732 0.05614-0.160192 0.04452-0.459088-0.09098-0.677889-0.42395-0.1152601-0.414269 0.5430921-0.187777 0.420016-0.03097 0.168007-0.675608-0.08987 0.01355-0.171913-0.07356-0.453228-0.263275-0.6329564zm0.21875 5.8782876c1.185397 0 2.146847 0.970255 2.146847 2.166506 0 1.196253-0.96145 2.166508-2.146847 2.166508s-2.146848-0.970255-2.146848-2.166508c0-1.196251 0.961451-2.166506 2.146848-2.166506z" style="opacity:.2"/>
 <path d="m9.841186 8.4960193-0.338773 0.5977912-0.0426 0.2187998 0.02129 0.3828989-0.679478 0.1152608-0.106471-0.3672708-0.110344-0.193404-0.514933-0.4532276l-0.3349 0.1562854 2e-3 0.6876569 0.07356 0.2109847 0.205201 0.3203864-0.530434 0.443459-0.272972-0.265685-0.191648-0.1094-0.6698008-0.132843-0.212943 0.302803 0.3426441 0.595838 0.1664821 0.146518 0.338772 0.173868-0.2400403 0.650539-0.3697459-0.09182h-0.2206768l-0.6446352 0.224662-0.034845 0.371178 0.5923673 0.33992 0.2168143 0.04299 0.3794243-0.01953 0.114215 0.685704-0.3639381 0.105493-0.1916482 0.113307-0.4471792 0.517695 0.1529316 0.339921 0.6814154-0.0039 0.2090708-0.07228 0.3174776-0.209031 0.439436 0.535277-0.263275 0.277407-0.108406 0.193403-0.131638 0.675934 0.300056 0.214893 0.590431-0.345781 0.145188-0.169961 0.172291-0.339921 0.644634 0.242242-0.09098 0.371179 2e-3 0.224659 0.220685 0.650539 0.36781 0.03517 0.336836-0.597791 0.0426-0.218801-0.01936-0.382899 0.679481-0.115259 0.104536 0.36727 0.112277 0.193402 0.512997 0.451275 0.336837-0.154332-0.0038-0.687656-0.07162-0.210984-0.207135-0.322339 0.53042-0.441507 0.27489 0.263732 0.191647 0.111353 0.669802 0.132843 0.212888-0.304757-0.342644-0.593885-0.166482-0.146517-0.338772-0.173867 0.240044-0.650539 0.36781 0.08986h0.222622l0.644634-0.222707 0.03485-0.371178-0.592369-0.341875-0.216813-0.04299-0.379425 0.01954-0.114215-0.683749 0.363938-0.107445 0.191649-0.111354 0.44718-0.51965-0.152931-0.337967-0.681417 2e-3 -0.209095 0.07421-0.319413 0.207116-0.4375-0.535278 0.261339-0.275453 0.110342-0.193403 0.131638-0.6759246-0.301992-0.2168464-0.588495 0.3477353-0.145188 0.1680059-0.172289 0.3418748-0.644635-0.2422419 0.08905-0.3731319v-0.2228219l-0.220689-0.6505384-0.36781-0.0351643zm-0.220686 2.6724807c0.05095-3.76e-4 0.103055 0.0029 0.154866 0.0078 0.828981 0.07926 1.437503 0.822007 1.358962 1.658579-0.07855 0.836572-0.814549 1.450665-1.643529 1.371405-0.828981-0.07926-1.437502-0.822009-1.358961-1.65858 0.07363-0.784288 0.72449-1.374017 1.488662-1.37922z" style="opacity:.2"/>
 <path d="m9.841185 7.9487224-0.338772 0.5977911-0.0426 0.2188006 0.02129 0.3828989-0.679479 0.1152601-0.106471-0.3672716-0.110343-0.1934032-0.514933-0.4532269-0.334901 0.1562847 2e-3 0.6876569 0.07356 0.2109862 0.205201 0.3203838-0.530421 0.443461-0.272963-0.2656865-0.191649-0.1093992-0.6698009-0.132843-0.2129423 0.3028031l0.3426441 0.5958396 0.1664822 0.146517 0.338772 0.173867-0.2400404 0.650539-0.3697459-0.09182h-0.2207254l-0.6446345 0.22466-0.034845 0.371178 0.5923672 0.33992 0.2168136 0.04299 0.3794251-0.01953 0.1142149 0.685704-0.3639381 0.105492-0.1916482 0.113307-0.4471791 0.517696 0.1529308 0.339921 0.6814161-0.0039 0.2090708-0.07228 0.317478-0.209033 0.439436 0.535277-0.263275 0.277407-0.108407 0.193404-0.131637 0.675934 0.300055 0.214893 0.590431-0.345782 0.145189-0.169961 0.17229-0.33992 0.644635 0.242242-0.09098 0.371178 2e-3 0.224661 0.220685 0.650538 0.367811 0.03517 0.336835-0.597792 0.0426-0.218799-0.01936-0.382899 0.679481-0.115261 0.104534 0.367271 0.11228 0.193403 0.512997 0.451274 0.336836-0.154332-0.0038-0.687656-0.07162-0.210985-0.207136-0.322339 0.530421-0.441505 0.27489 0.263731 0.191647 0.111353 0.669802 0.132842 0.212941-0.304756-0.342643-0.593885-0.166482-0.146517-0.338772-0.173868 0.240044-0.650539 0.367809 0.08986h0.222622l0.644635-0.222707 0.03485-0.371178-0.592368-0.341874-0.216813-0.04299-0.379425 0.01954-0.114215-0.683749 0.363939-0.107446 0.191648-0.111353 0.447179-0.519639-0.152931-0.337968-0.681417 2e-3 -0.209094 0.07421-0.319414 0.207078-0.4375-0.535277 0.26134-0.2754539 0.110342-0.1933912 0.131637-0.6759342-0.301992-0.2168464-0.588495 0.3477353-0.145187 0.1680074-0.172291 0.3418743-0.644633-0.2422422 0.08905-0.3731334v-0.2226926l-0.220689-0.6505385-0.367809-0.0351643zm-0.220685 2.6724816c0.05095-3.75e-4 0.103055 0.0029 0.154866 0.0078 0.828981 0.07926 1.437503 0.822008 1.358961 1.658579-0.07855 0.836572-0.814548 1.450666-1.643529 1.371405-0.82898-0.07926-1.437501-0.822009-1.35896-1.658581 0.07363-0.784286 0.72449-1.374016 1.488662-1.379218z" style="fill:#2c9bff"/>
 <g transform="matrix(.08990774 .02552565 -.02529402 .09073107 9.043286 21.456775)" style="opacity:.2">
  <path transform="matrix(.63847128 -.17962306 .17962306 .63847128 -302.70316 -365.43611)" d="m281.09375 583.25-5.84375 1.09375-2.625 10.6875 0.3125 3.5625 2 5.78125-10 4.78125-3.28125-5.15625-2.5625-2.46875-9.96875-4.65625-4.53125 3.875 3.0625 10.5625 2.0625 2.90625 4.625 4.03125-6.28125 9.15625-5.40625-2.84375-3.46875-0.84375-10.96875 0.9375-2 5.625 7.96875 7.59375 3.21875 1.53125 6.03125 1.15625-0.84375 11.09375-6.125 0.21875-3.4375 1-9.03125 6.3125 1.09375 5.84375 10.71875 2.625 3.53125-0.3125 5.8125-2 4.78125 10.03125-5.15625 3.25-2.5 2.59375-4.65625 9.96875 3.875 4.53125 10.59375-3.09375 2.90625-2.0625 4.03125-4.59375 9.15625 6.25-2.84375 5.4375-0.84375 3.46875 0.9375 10.96875 5.625 1.96875 7.59375-7.9375 1.53125-3.25 1.15625-6 11.09375 0.84375 0.21875 6.125 1 3.40625 6.3125 9.03125 5.84375-1.09375 2.625-10.6875-0.3125-3.5625-2-5.78125 10.03125-4.8125 3.25 5.1875l2.59375 2.46875 9.96875 4.65625 4.53125-3.875-3.09375-10.5625-2.0625-2.9375-4.625-4 6.28125-9.1875 5.4375 2.875 3.46875 0.84375 10.96875-0.96875 1.96875-5.59375-7.96875-7.625-3.21875-1.5-6.03125-1.1875 0.875-11.0625 6.125-0.25 3.40625-1 9.03125-6.28125-1.09375-5.875-10.6875-2.59375-3.5625 0.3125-5.78125 1.96875-4.8125-10 5.1875-3.28125 2.46875-2.5625 4.65625-9.96875-3.875-4.53125-10.5625 3.0625-2.9375 2.0625-4 4.625-9.1875-6.28125 2.84375-5.40625 0.875-3.46875-0.96875-10.96875-5.625-1.96875-7.59375 7.9375-1.5 3.25-1.1875 6-11.0625-0.84375-0.25-6.125-1-3.4375zm9.96875 42.15625c2.007 0.045 4.04067 0.36869 6.0625 0.9375 12.93971 3.64037 20.48412 17.06029 16.84375 30s-17.09154 20.48412-30.03125 16.84375-20.48412-17.09154-16.84375-30.03125c3.07156-10.91788 13.13095-17.993 23.96875-17.75z"/>
 </g>
 <path d="m19.290024 9.1599342-0.263274 0.632957-0.07356 0.4532258 0.01355 0.171915-0.675606 0.08986-0.03097-0.168007-0.187777-0.4200183-0.414269-0.5430904-0.42395 0.1152594-0.09098 0.6778883 0.04453 0.459089 0.05807 0.160192-0.631085 0.263733-0.07163-0.154334-0.290377-0.355548-0.538163-0.41611-0.38136 0.222706 0.08711 0.677888 0.160675 0.431739 0.09679 0.140657-0.542035 0.418063-0.108407-0.128935-0.371682-0.269593-0.627212-0.259823-0.311671 0.31257 0.257467 0.634909 0.267145 0.373132 0.129703 0.111353-0.416206 0.545045-0.139381-0.09572-0.425884-0.164099-0.673674-0.08596-0.218749 0.382899 0.410398 0.545046 0.352324 0.291081 0.154866 0.07423-0.261339 0.63491-0.160674-0.05665-0.452987-0.04493-0.673672 0.09182-0.112279 0.42783 0.536227 0.418064 0.416206 0.189497 0.166483 0.03125-0.08905 0.681795-0.168418-0.01368-0.45105 0.07423-0.625278 0.263731v0.44346l0.625278 0.263733 0.45105 0.07619 0.168418-0.01367 0.08905 0.681796-0.166483 0.03125-0.416206 0.189496-0.536227 0.418063 0.112279 0.427832 0.673672 0.09182 0.452987-0.04493 0.160674-0.0586 0.261339 0.636861-0.154866 0.07229-0.352324 0.291081-0.410398 0.545046 0.218749 0.384852 0.673674-0.08791 0.425884-0.162146 0.139381-0.09768 0.416206 0.546998-0.129703 0.1094-0.267145 0.375085-0.257467 0.632957 0.311671 0.312571 0.627212-0.259826 0.371682-0.267638 0.108407-0.130889 0.542035 0.420017-0.09679 0.140658-0.160675 0.429783-0.08711 0.679843 0.38136 0.220752 0.538163-0.414156 0.290377-0.357502 0.07163-0.154332 0.631085 0.263732-0.05807 0.162146-0.04453 0.457135 0.09098 0.679841 0.42395 0.113307 0.414269-0.541139 0.187777-0.420016 0.03097-0.168008 0.675606 0.08986-0.01355 0.16996 0.07356 0.455181 0.263274 0.631003h0.4375l0.263275-0.631003 0.07356-0.455181-0.01355-0.16996 0.675608-0.08986 0.03097 0.168008 0.187777 0.420016 0.414269 0.541139 0.42395-0.113307 0.09098-0.679841-0.04452-0.457135-0.05614-0.162146 0.629148-0.263732 0.07163 0.154332 0.290376 0.357502 0.5401 0.414156 0.379425-0.220752-0.08711-0.679843-0.160674-0.429783-0.09679-0.140658 0.542034-0.420017 0.110343 0.130889 0.369746 0.267638 0.627213 0.259826 0.311669-0.312571-0.257466-0.632957-0.267147-0.375085-0.129701-0.1094 0.416206-0.546998 0.139381 0.09768 0.42782 0.162146 0.671736 0.08791 0.220687-0.384852-0.412334-0.545046-0.352323-0.291081-0.152931-0.07229 0.259403-0.636861 0.160673 0.0586 0.454923 0.04493 0.671737-0.09182 0.114214-0.427832-0.538163-0.418062-0.416206-0.189496-0.166481-0.03125 0.08905-0.681796 0.16842 0.01367 0.45105-0.07619 0.627213-0.263734v-0.443457l-0.627213-0.263732-0.45105-0.07423-0.16842 0.01368-0.08905-0.681796 0.166481-0.03125 0.416206-0.189496 0.538159-0.418064-0.114214-0.42783-0.671737-0.09182-0.454923 0.04493-0.160673 0.05665-0.259403-0.634911 0.152931-0.07423 0.352323-0.291083 0.412334-0.545045-0.220687-0.382899-0.671736 0.08596-0.42782 0.164099-0.139381 0.09572-0.416206-0.545046 0.129701-0.111352 0.267147-0.373132 0.257466-0.63491-0.311669-0.31257-0.627213 0.259824-0.369746 0.269593-0.110343 0.128934-0.542034-0.418062 0.09679-0.140658 0.160674-0.431738 0.08711-0.677889-0.379425-0.222705-0.5401 0.416109-0.290376 0.355549-0.07163 0.154333-0.629148-0.263733 0.05614-0.160192 0.04452-0.459088-0.09098-0.6778888-0.42395-0.1152594-0.414269 0.5430904-0.187777 0.4200178-0.03097 0.168008-0.675608-0.08986 0.01355-0.171915-0.07356-0.4532263-0.263275-0.6329569zm0.21875 5.8782868c1.185397 0 2.146847 0.970255 2.146847 2.166507 0 1.196253-0.96145 2.166507-2.146847 2.166507s-2.146848-0.970254-2.146848-2.166507c0-1.196252 0.961451-2.166507 2.146848-2.166507z" style="fill:#fecd38"/>
 <g transform="matrix(.08990774 .02552565 -.02529402 .09073107 9.043286 20.909478)" style="fill:#73ba25">
  <path transform="matrix(.63847128 -.17962306 .17962306 .63847128 -302.70316 -365.43611)" d="m281.09375 583.25-5.84375 1.09375-2.625 10.6875 0.3125 3.5625 2 5.78125-10 4.78125-3.28125-5.15625-2.5625-2.46875-9.96875-4.65625-4.53125 3.875 3.0625 10.5625 2.0625 2.90625 4.625 4.03125-6.28125 9.15625-5.40625-2.84375-3.46875-0.84375-10.96875 0.9375-2 5.625 7.96875 7.59375 3.21875 1.53125 6.03125 1.15625-0.84375 11.09375-6.125 0.21875-3.4375 1-9.03125 6.3125 1.09375 5.84375 10.71875 2.625 3.53125-0.3125 5.8125-2 4.78125 10.03125-5.15625 3.25-2.5 2.59375-4.65625 9.96875 3.875 4.53125 10.59375-3.09375 2.90625-2.0625 4.03125-4.59375 9.15625 6.25-2.84375 5.4375-0.84375 3.46875 0.9375 10.96875 5.625 1.96875 7.59375-7.9375 1.53125-3.25 1.15625-6 11.09375 0.84375 0.21875 6.125 1 3.40625 6.3125 9.03125 5.84375-1.09375 2.625-10.6875-0.3125-3.5625-2-5.78125 10.03125-4.8125 3.25 5.1875l2.59375 2.46875 9.96875 4.65625 4.53125-3.875-3.09375-10.5625-2.0625-2.9375-4.625-4 6.28125-9.1875 5.4375 2.875 3.46875 0.84375 10.96875-0.96875 1.96875-5.59375-7.96875-7.625-3.21875-1.5-6.03125-1.1875 0.875-11.0625 6.125-0.25 3.40625-1 9.03125-6.28125-1.09375-5.875-10.6875-2.59375-3.5625 0.3125-5.78125 1.96875-4.8125-10 5.1875-3.28125 2.46875-2.5625 4.65625-9.96875-3.875-4.53125-10.5625 3.0625-2.9375 2.0625-4 4.625-9.1875-6.28125 2.84375-5.40625 0.875-3.46875-0.96875-10.96875-5.625-1.96875-7.59375 7.9375-1.5 3.25-1.1875 6-11.0625-0.84375-0.25-6.125-1-3.4375zm9.96875 42.15625c2.007 0.045 4.04067 0.36869 6.0625 0.9375 12.93971 3.64037 20.48412 17.06029 16.84375 30s-17.09154 20.48412-30.03125 16.84375-20.48412-17.09154-16.84375-30.03125c3.07156-10.91788 13.13095-17.993 23.96875-17.75z" style="fill:#73ba25"/>
 </g>
 <path d="m19.290512 9.1599349-0.26375 0.6328113-0.07309 0.4532308 0.01271 0.172098-0.674735 0.08979-0.03177-0.167824-0.187485-0.4200918-0.414163-0.5430213-0.423695 0.115446-0.0911 0.6777071 0.03071 0.317474 0.06037-0.447884 0.423696-0.1154469 0.414162 0.5430209 0.187486 0.420093 0.03177 0.167823 0.674736-0.08979-0.01271-0.172099 0.07309-0.453231 0.26375-0.6328105h0.437466l0.262691 0.6328105 0.07415 0.453231-0.01377 0.172099 0.675794 0.08979 0.03071-0.167823 0.187484-0.420093 0.414162-0.5430209 0.423695 0.1154469 0.06037 0.447884 0.03071-0.317474-0.0911-0.6777071-0.423696-0.115446-0.414161 0.5430213-0.187486 0.4200918-0.03071 0.167824-0.675794-0.08979 0.01377-0.172098-0.07415-0.4532308-0.262692-0.6328113zm-3.575988 0.9673891-0.381326 0.222339 0.06567 0.508815 0.315652-0.183857 0.538094 0.415816 0.290232 0.354888 0.07203 0.154996 0.631306-0.264027-0.05826-0.160342-0.03389-0.348473-0.539153 0.225545-0.07203-0.154995-0.290231-0.354888zm7.590502 0-0.540211 0.415817-0.290232 0.354888-0.07203 0.154995-0.539153-0.226613-0.03389 0.349542-0.05614 0.160341 0.629188 0.264027 0.07203-0.154996 0.29023-0.354888 0.540212-0.415816 0.313534 0.183857 0.06567-0.508815zm-9.27681 1.232486-0.311415 0.31213 0.157826 0.389094 0.153589-0.153928 0.62707 0.259752 0.371793 0.269374 0.1091 0.12934 0.541272-0.417954-0.09639-0.1411-0.09639-0.257614-0.34849 0.269372-0.1091-0.129342-0.371793-0.269371zm10.960999 0-0.62707 0.259753-0.369673 0.269371-0.110161 0.129342-0.349548-0.269372-0.09639 0.257614-0.09639 0.141099 0.54233 0.417954 0.110161-0.12934 0.369673-0.269373 0.62707-0.259752 0.15359 0.153928 0.157827-0.389095zm-12.273395 1.6312-0.218203 0.38268 0.177953 0.236236 0.04025-0.07161 0.673677 0.08552 0.425814 0.164615 0.139819 0.09513 0.416285-0.545157-0.130287-0.111171-0.09851-0.136823-0.187485 0.245855-0.139821-0.09514-0.425813-0.164616zm13.585792 0-0.671558 0.08552-0.427933 0.164617-0.139819 0.09513-0.187485-0.245856-0.09851 0.136824-0.130287 0.11117 0.416281 0.545158 0.139819-0.09514 0.427933-0.164616 0.671558-0.08552 0.04132 0.07161 0.179011-0.236236zm-13.071002 1.7413-0.07732 0.187064-0.161004-0.05665-0.452296-0.0449-0.673675 0.09086-0.112279 0.428643 0.146174 0.114378 0.63978-0.08658 0.452296 0.0449 0.161004 0.05665 0.261632-0.634949-0.154649-0.07483zm12.557271 0-0.03071 0.02458-0.152531 0.07483 0.259512 0.634951 0.161005-0.05665 0.454414-0.0449 0.638719 0.08658 0.147234-0.114376-0.114398-0.428644-0.671556-0.09086-0.454414 0.04489-0.161005 0.05665zm-12.985203 1.777644-0.01908 0.147515-0.168418-0.0139-0.451237 0.07483-0.62495 0.264028v0.44254l0.123931 0.05238 0.501019-0.21165 0.451237-0.07483 0.168418 0.0139 0.08898-0.681983zm13.412076 0-0.0699 0.01283 0.08898 0.681984 0.168419-0.0139 0.451236 0.07483 0.503137 0.211649 0.123932-0.05238v-0.442541l-0.627077-0.264029-0.451236-0.07483-0.168419 0.0139zm-8.825575 0.96846c-0.01143 0.09048-0.02754 0.180041-0.02754 0.273648 0 1.196253 0.961679 2.166738 2.147076 2.166738s2.147076-0.970485 2.147076-2.166738c0-0.09361-0.01612-0.183166-0.02754-0.273648-0.134819 1.065525-1.027121 1.893089-2.119536 1.893089-1.092414 0-1.984717-0.827564-2.119536-1.893089zm-4.586501 0.968457-0.09639 0.01817-0.41628 0.189202-0.535975 0.417956 0.112279 0.427575 0.03495 0.0042 0.388741-0.302511 0.41628-0.189202 0.1663-0.03206zm13.412076 0-0.0699 0.533401 0.1663 0.03206 0.416281 0.189203 0.3898 0.30251 0.03389-0.0042 0.114399-0.427574-0.538095-0.417956-0.416279-0.189203zm-12.984144 1.775507-0.323068 0.266166-0.409925 0.545158 0.176893 0.31213 0.233032-0.309992 0.352727-0.290751 0.154649-0.07269zm12.557271 0.0011-0.183248 0.448953 0.152531 0.07269 0.352725 0.290752 0.234093 0.308923 0.177951-0.311061-0.412044-0.545158zm-11.644207 1.641888-0.169478 0.237305-0.257395 0.63281 0.157826 0.158204 0.09957-0.243719 0.266928-0.375197 0.130286-0.1101zm10.730084 0-0.227737 0.299303 0.130287 0.1101 0.266928 0.375197 0.09957 0.243719 0.157827-0.158204-0.257396-0.63281zm-9.389089 1.341517-0.06461 0.173169-0.08686 0.679845 0.06461 0.03741 0.02225-0.169963 0.161004-0.429714 0.09639-0.141099zm8.048094 0-0.192782 0.149652 0.09639 0.1411 0.161004 0.429714 0.02225 0.169961 0.06462-0.03741-0.08686-0.679845zm-6.378734 0.920357-0.01059 0.1101 0.03071 0.229822 0.01377-0.140031 0.05826-0.16141zm4.709374 0.0011-0.09004 0.03741 0.05613 0.16141 0.01377 0.140032 0.03071-0.229822z" style="fill:#ffffff;opacity:.2"/>
 <path d="m9.841048 7.9491269-0.338956 0.5975368-0.04238 0.2191322 0.02119 0.3826803-0.678972 0.1154453-0.106983-0.3677156-0.110161-0.1934775-0.51479-0.4532299-0.334719 0.1560654 0.0021 0.5462276 0.3326-0.1549961 0.514791 0.4532291 0.110161 0.1934791 0.106982 0.3677141 0.678972-0.1154453-0.02119-0.3826796 0.04238-0.2191321 0.338957-0.5975376l0.367556 0.035276 0.175832 0.5162967 0.04555-0.1902713v-0.2234057l-0.221356-0.6499152zm2.050684 0.6659493-0.588935 0.3474052-0.145116 0.167823-0.172656 0.3420594-0.555041-0.2084423v0.1410991l-0.08898 0.3730605 0.644017 0.2415799 0.172656-0.3420605 0.145116-0.167823 0.588935-0.3474051 0.207612 0.1496512 0.09427-0.4799538zm-5.5408746 0.9449405-0.2129069 0.3035787 0.1726561 0.3014406 0.040254-0.056654 0.6694384 0.132548 0.191722 0.109032 0.273284 0.266165 0.530678-0.44361-0.205492-0.3206815-0.01483-0.0427638-0.310353 0.2597533-0.273283-0.2661653-0.191723-0.1090318zm6.9867356 0.6680873-0.68215 0.0021-0.20867 0.07483-0.31883 0.206305-0.198078-0.240512-0.240447 0.253339 0.438525 0.535538 0.31883-0.207375 0.20867-0.07483 0.654611-0.0011 0.18007-0.209512zm-6.5217301 1.011216-0.069911 0.190271-0.3696745-0.09086h-0.221379l-0.644017 0.224476-0.034956 0.370922 0.2044331 0.117584 0.4745389-0.165685h0.2213805l0.3696744 0.09193 0.2393875-0.650983zm5.7580191 0.587916-0.08685 0.02565 0.114397 0.683052 0.379209-0.01925 0.217142 0.04276 0.387681 0.224477 0.169479-0.0588 0.03496-0.370922-0.592116-0.342059-0.217142-0.04276-0.379208 0.01924zm-1.464926 0.588985c-0.138901 0.768616-0.833492 1.318233-1.618516 1.243175-0.686828-0.06567-1.215855-0.589527-1.334641-1.242106-0.0079 0.04359-0.02014 0.08547-0.02436 0.13041-0.07854 0.836572 0.530023 1.579732 1.359002 1.658993 0.828981 0.07926 1.565397-0.534876 1.643939-1.371449 0.01355-0.14429-4.85e-4 -0.283239-0.02542-0.419023zm-4.417024 0.592192-0.2775205 0.08017-0.1917227 0.113307-0.4469979 0.517366 0.1535896 0.339923h0.025421l0.2679873-0.309993 0.1917219-0.113307 0.364378-0.105824zm5.758019 0.587915-0.169478 0.459644 0.338957 0.174238 0.1663 0.146443 0.169478 0.29289 0.172656-0.246925-0.342134-0.593261-0.1663-0.146445zm-5.115061 0.96739-0.02224 0.02353-0.108043 0.193479-0.131345 0.675568 0.09321 0.06734 0.03813-0.195617 0.108042-0.193477 0.263753-0.277925zm4.134206 0.460712-0.220321 0.183857 0.206552 0.32282 0.07203 0.21058 0.0011 0.141101 0.0032-0.0011-0.0042-0.687328zm-2.633266 0.547296 0.0011 0.08231 0.04449 0.131479 0.04449-0.180651z" style="fill:#ffffff;opacity:.2"/>
 <path d="m8.484163 16.487653-0.36226 0.06842-0.162062 0.668086 0.01907 0.223408 0.03495 0.10155 0.108043-0.445748 0.362259-0.06841 0.390859 0.56226 0.06249 0.215926 0.01483 0.38268 0.685328 0.05238 0.07415-0.375197 0.09215-0.203099 0.471359-0.495987 0.347432 0.122927 0.02436 0.2822 0.03602-0.143238-0.06037-0.686258-0.347431-0.122927-0.471361 0.495987-0.09215 0.203098-0.07415 0.375198-0.685328-0.05238-0.01483-0.38268-0.06249-0.214856zm-1.9807756 0.851943-0.2806986 0.24265 0.1260501 0.438265 0.1546485-0.133619 0.6175366 0.290752 0.158885 0.154996 0.203374 0.321751 0.619654-0.298234-0.123931-0.36237-0.01059-0.120789-0.485131 0.234097-0.203374-0.321751-0.158886-0.154996zm5.6023116 0.43399-0.65355 0.191339-0.182189 0.129343-0.247862 0.288612-0.373911-0.258683-0.01908 0.07483-0.175833 0.338853 0.56881 0.392301 0.247862-0.289683 0.182189-0.128272 0.65355-0.191341 0.07626 0.08979 0.164182-0.353819zm-6.2177288 1.244245-0.6789717 0.05879-0.1239311 0.351682 0.1970181 0.189201 0.6058847-0.05238 0.2150253 0.05238 0.3347193 0.177444 0.3897998-0.571881-0.2330329-0.205235-0.1567669 0.230889-0.3347193-0.178512zm5.8957198 0.446814-0.200195 0.127205 0.297645 0.625329 0.359082-0.122929 0.220322-0.01924 0.522204 0.128273 0.207611-0.146444-0.06779-0.366647-0.662024-0.162478-0.220322 0.01925-0.359081 0.122928zm-5.6732797 1.145903-0.011649 0.153927-0.3792076 0.0139-0.2129069 0.06199-0.5592779 0.394438 0.067792 0.365577 0.1408784 0.03528 0.3506086-0.247993 0.2129068-0.06306 0.3792069-0.01283 0.052964-0.693741zm4.4350297 0.30251c-0.0086 0.04812-0.01096 0.09626-0.02436 0.144306-0.225508 0.808915-1.059505 1.280479-1.861081 1.052905-0.570605-0.162-0.965204-0.636782-1.067712-1.187591-0.137139 0.763031 0.313035 1.520627 1.067712 1.734886 0.801576 0.227576 1.635573-0.243988 1.861081-1.052904 0.06512-0.233552 0.06614-0.468482 0.02436-0.691602zm1.482935 0.315336-0.04238 0.538746 0.37391 0.07376 0.199138 0.09407 0.295527 0.285406 0.07626-0.0064 0.121812-0.349543-0.493605-0.476745-0.199138-0.09407zm-5.6732808 1.144833-0.1207529 0.07696-0.1546492 0.162478-0.2881126 0.623191 0.1631228 0.193477 0.1249898-0.269372 0.1546492-0.162479 0.3198896-0.203098zm5.1881498 0.445747-0.233033 0.344199 0.287054 0.250132 0.127108 0.183857 0.06462 0.222339 0.127108-0.109032-0.191721-0.660603-0.127109-0.183857zm-4.052647 0.894703-0.03389 0.143236 0.03389 0.406197 0.01801-0.07589 0.175834-0.339923zm2.678814 0.252269-0.134524 0.06521 0.08898 0.259753 0.05403-0.223409z" style="fill:#ffffff;opacity:.2"/>
</svg>
