<svg width="32" height="32" version="1" xmlns="http://www.w3.org/2000/svg">
 <rect x="2" y="17" width="28" height="14" rx="2.1" ry="2.1" style="opacity:.2"/>
 <rect transform="rotate(90)" x="2" y="-9" width="17" height="3" ry="1.5" style="fill:#8e8e8e"/>
 <rect x="2" y="16" width="28" height="14" rx="2.1" ry="2.1" style="fill:#4f4f4f"/>
 <circle cx="24" cy="24" r="3" style="opacity:.2"/>
 <circle cx="24" cy="23" r="3" style="fill:#c0f957"/>
 <circle cx="16" cy="24" r="3" style="opacity:.2"/>
 <circle cx="16" cy="23" r="3" style="fill:#91af5b"/>
 <path d="m7.5 2c-0.831 0-1.5 0.669-1.5 1.5v1c0-0.831 0.669-1.5 1.5-1.5s1.5 0.669 1.5 1.5v-1c0-0.831-0.669-1.5-1.5-1.5z" style="fill:#ffffff;opacity:.1"/>
 <path d="m4.0996094 16c-1.1634 0-2.0996094 0.936209-2.0996094 2.099609v1c0-1.1634 0.9362094-2.099609 2.0996094-2.099609h23.800782c1.1634 0 2.099609 0.936209 2.099609 2.099609v-1c0-1.1634-0.936209-2.099609-2.099609-2.099609h-23.800782z" style="fill:#ffffff;opacity:.1"/>
</svg>
