<svg width="32" height="32" version="1.1" viewBox="0 0 32 32" xmlns="http://www.w3.org/2000/svg">
 <rect transform="matrix(0,-1,-1,0,0,0)" x="-30" y="-30" width="9" height="28" rx="1.25" ry="1.25" style="opacity:.2"/>
 <rect transform="matrix(0,-1,-1,0,0,0)" x="-29" y="-30" width="9" height="28" rx="1.25" ry="1.25" style="fill:#8e8e8e"/>
 <path d="m12 23-2 3" style="fill:none;opacity:.5;stroke-linecap:round;stroke-width:1.9992;stroke:#000000"/>
 <path d="m9 23-2 3" style="fill:none;opacity:.5;stroke-linecap:round;stroke-width:1.9992;stroke:#000000"/>
 <path d="m6 23-2 3" style="fill:none;opacity:.5;stroke-linecap:round;stroke-width:1.9992;stroke:#000000"/>
 <path d="m15 23-2 3" style="fill:none;opacity:.5;stroke-linecap:round;stroke-width:1.9992;stroke:#000000"/>
 <circle cx="19.5" cy="23.5" r="1.5" style="opacity:.2"/>
 <circle cx="23.5" cy="23.5" r="1.5" style="opacity:.2"/>
 <circle cx="27.5" cy="23.5" r="1.5" style="opacity:.2"/>
 <circle cx="19.5" cy="22.5" r="1.5" style="fill:#76ff03"/>
 <circle cx="23.5" cy="22.5" r="1.5" style="fill:#ffff00"/>
 <circle cx="27.5" cy="22.5" r="1.5" style="fill:#ffcd40"/>
 <rect transform="matrix(0,-1,-1,0,0,0)" x="-21" y="-30" width="9" height="28" rx="1.25" ry="1.25" style="opacity:.2"/>
 <rect transform="matrix(0,-1,-1,0,0,0)" x="-20" y="-30" width="9" height="28" rx="1.25" ry="1.25" style="fill:#8e8e8e"/>
 <path d="m12 14-2 3" style="fill:none;opacity:.5;stroke-linecap:round;stroke-width:1.9992;stroke:#000000"/>
 <path d="m9 14-2 3" style="fill:none;opacity:.5;stroke-linecap:round;stroke-width:1.9992;stroke:#000000"/>
 <path d="m6 14-2 3" style="fill:none;opacity:.5;stroke-linecap:round;stroke-width:1.9992;stroke:#000000"/>
 <path d="m15 14-2 3" style="fill:none;opacity:.5;stroke-linecap:round;stroke-width:1.9992;stroke:#000000"/>
 <circle cx="19.5" cy="14.5" r="1.5" style="opacity:.2"/>
 <circle cx="23.5" cy="14.5" r="1.5" style="opacity:.2"/>
 <circle cx="27.5" cy="14.5" r="1.5" style="opacity:.2"/>
 <circle cx="19.5" cy="13.5" r="1.5" style="fill:#76ff03"/>
 <circle cx="23.5" cy="13.5" r="1.5" style="fill:#ffff00"/>
 <circle cx="27.5" cy="13.5" r="1.5" style="fill:#ffcd40"/>
 <rect transform="matrix(0,-1,-1,0,0,0)" x="-12" y="-30" width="9" height="28" rx="1.25" ry="1.25" style="opacity:.2"/>
 <rect transform="matrix(0,-1,-1,0,0,0)" x="-11" y="-30" width="9" height="28" rx="1.25" ry="1.25" style="fill:#8e8e8e"/>
 <path d="m12 5-2 3" style="fill:none;opacity:.5;stroke-linecap:round;stroke-width:1.9992;stroke:#000000"/>
 <path d="m9 5-2 3" style="fill:none;opacity:.5;stroke-linecap:round;stroke-width:1.9992;stroke:#000000"/>
 <path d="m6 5-2 3" style="fill:none;opacity:.5;stroke-linecap:round;stroke-width:1.9992;stroke:#000000"/>
 <path d="m15 5-2 3" style="fill:none;opacity:.5;stroke-linecap:round;stroke-width:1.9992;stroke:#000000"/>
 <circle cx="19.5" cy="5.5" r="1.5" style="opacity:.2"/>
 <circle cx="23.5" cy="5.5" r="1.5" style="opacity:.2"/>
 <circle cx="27.5" cy="5.5" r="1.5" style="opacity:.2"/>
 <circle cx="19.5" cy="4.5" r="1.5" style="fill:#76ff03"/>
 <circle cx="23.5" cy="4.5" r="1.5" style="fill:#ffff00"/>
 <circle cx="27.5" cy="4.5" r="1.5" style="fill:#ffcd40"/>
 <path d="m3.25 2c-0.6925 0-1.25 0.5575-1.25 1.25v1c0-0.6925 0.5575-1.25 1.25-1.25h25.5c0.692 0 1.25 0.5575 1.25 1.25v-1c0-0.6925-0.558-1.25-1.25-1.25z" style="fill:#ffffff;opacity:.2"/>
 <rect transform="matrix(0,-1,-1,0,0,0)" x="-32" y="-32" width="16" height="16" rx="8" ry="8" style="opacity:.2"/>
 <rect transform="matrix(0,-1,-1,0,0,0)" x="-31" y="-32" width="16" height="16" rx="8" ry="8" style="fill:#02a8f3"/>
 <path d="m24.021903 17.459169c-3.0928 0-5.6 2.5072-5.6 5.6s2.5072 5.6 5.6 5.6 5.6-2.5072 5.6-5.6-2.5072-5.6-5.6-5.6zm-0.523906 1.116719c0.06093-0.0064 0.137584 0.0036 0.199062 0 0.0073 0.02914-0.04316 0.133702-0.112656 0.285468-0.442521 0.966721-0.468664 2.098616-0.05797 2.70375 0.07432 0.109715 0.142188 0.213931 0.142188 0.2275 0 0.01357-0.08 0.02844-0.170625 0.02844-0.212744 1e-6 -0.414437-0.129271-0.825781-0.455-0.182735-0.144698-0.419839-0.265979-0.511875-0.284375-0.144526-0.02887-0.18272-0.01636-0.369688 0.170626-0.173956 0.173926-0.2275 0.26843-0.2275 0.427655 0 0.603805 0.717263 1.082562 2.049687 1.365 1.809486 0.38351 2.254619 0.727414 2.304532 1.678907 0.06267 1.193145-0.571945 2.092575-1.963282 2.789062-0.166065 0.08316-0.271574 0.116413-0.34125 0.143281-0.03088-0.0027-0.05562 0.0027-0.08641 0-0.01184-0.03689-0.02844-0.122216-0.02844-0.284374 0-0.633716-0.249238-1.286789-0.625624-1.651563-0.101034-0.09793-0.383372-0.305037-0.625626-0.455-0.242245-0.149954-0.48694-0.323804-0.541406-0.398125-0.09024-0.123331-0.09669-0.198726-0.02735-0.426562 0.126381-0.416116 0.276311-0.649267 0.56875-0.912188 0.153315-0.137839 0.307286-0.2521 0.34125-0.254844 0.03398-0.0027-0.195485-0.07274-0.540312-0.143281-0.344811-0.07068-0.850462-0.218426-1.11125-0.312813-0.476876-0.17255-1.120634-0.535179-1.366094-0.797343-0.01038-0.01112-0.01942-0.0186-0.02844-0.02844 0.351687-1.4009 1.338513-2.548565 2.646875-3.101875 0.273759-0.115791 0.556315-0.195005 0.854219-0.255938 0.148387-0.03033 0.301785-0.04239 0.455-0.05797zm4.27 2.135c0.106974 0.06612 0.511419 0.940933 0.626719 1.367187 0.148858 0.550296 0.138084 1.501933 0 2.048594-0.05256 0.208062-0.120876 0.402337-0.143282 0.426563-0.02241 0.02423-0.104575-0.113901-0.200156-0.283282-0.09559-0.169355-0.399229-0.529615-0.652969-0.797344-0.73241-0.77284-0.848199-1.175863-0.541406-1.792656 0.154718-0.311029 0.828302-1.020157 0.911094-0.969062z" style="fill:#ffffff"/>
</svg>
