<svg width="32" height="32" version="1.1" viewBox="0 0 32 32.000001" xmlns="http://www.w3.org/2000/svg">
 <path d="m16 8.5a7.5 7.5 0 0 0 -7.5 7.5 7.5 7.5 0 0 0 7.5 7.5 7.5 7.5 0 0 0 7.5 -7.5 7.5 7.5 0 0 0 -7.5 -7.5zm0 4.5c1.6569 0 3 1.3431 3 3s-1.3431 3-3 3-3-1.3431-3-3 1.3431-3 3-3z" opacity=".2"/>
 <path d="m16 1c-8.31 0-15 6.69-15 15s6.69 15 15 15 15-6.69 15-15-6.69-15-15-15zm0 9a6 6 0 0 1 6 6 6 6 0 0 1 -6 6 6 6 0 0 1 -6 -6 6 6 0 0 1 6 -6z" fill="#ccc"/>
 <path d="m16 1c8.3024 0 14.986 6.69 14.986 15 0 0.1259-6e-3 0.2499-0.0087 0.375-0.198-8.1346-6.8-14.625-14.977-14.625-8.1763 0-14.779 6.4904-14.978 14.625-0.0022-0.125-8e-3 -0.249-8e-3 -0.375 0-8.31 6.6839-15 14.986-15zm2.959 15.375c0.01566 0.1241 0.03806 0.2466 0.03806 0.375 0 1.6569-1.3419 3-2.9973 3-1.6553 0-2.9973-1.3431-2.9973-3 0-0.1284 0.0224-0.2509 0.03806-0.375 0.18614 1.4779 1.4321 2.625 2.9592 2.625s2.7731-1.1471 2.9592-2.625z" fill="#fff" opacity=".4"/>
 <path d="m1.0254 16.5c-0.0055 0.168-0.0254 0.331-0.0254 0.5 0 8.31 6.69 15 15 15s15-6.69 15-15c0-0.169-0.02-0.332-0.025-0.5-0.265 8.074-6.834 14.5-14.975 14.5-8.1411 0-14.71-6.426-14.975-14.5z" opacity=".2"/>
 <circle cx="24" cy="23" r="8" fill="#42a1cd"/>
 <path d="m23.983 27-2.9828-4h2v-4h2v4h2z" fill="#fff"/>
 <path d="m31.979 23.424a8 8 0 0 1 -7.979 7.576 8 8 0 0 1 -7.979 -7.424 8 8 0 0 0 -0.021 0.424 8 8 0 0 0 8 8 8 8 0 0 0 8 -8 8 8 0 0 0 -0.02148 -0.57617z" opacity=".2"/>
</svg>
