<svg width="32" height="32" version="1.1" xmlns="http://www.w3.org/2000/svg">
 <rect x="3" y="6" width="25" height="22" rx="1.25" ry="1.25" style="opacity:.2"/>
 <path d="m3 7.9v17.85c0 0.6925 0.5575 1.25 1.25 1.25h22.5c0.6925 0 1.25-0.5575 1.25-1.25v-17.85z" style="fill:#8e8e8e"/>
 <path d="m4.25 5c-0.6925 0-1.25 0.5575-1.25 1.25v1.75h25v-1.75c0-0.6925-0.558-1.25-1.25-1.25h-22.5z" style="fill:#323232"/>
 <path d="m10.5 24c-0.831 0-1.5 0.669-1.5 1.5v1.5h13v-1.5c0-0.831-0.669-1.5-1.5-1.5h-10z" style="fill:#323232"/>
 <path d="m4.25 5c-0.6925 0-1.25 0.5575-1.25 1.25v1c0-0.6925 0.5575-1.25 1.25-1.25h22.5c0.692 0 1.25 0.5575 1.25 1.25v-1c0-0.6925-0.558-1.25-1.25-1.25h-22.5z" style="fill:#ffffff;opacity:.1"/>
</svg>
