<svg width="32" height="32" version="1" xmlns="http://www.w3.org/2000/svg">
 <path d="M 5.375,2 C 3.5196443,2 2,3.570553 2,5.4003906 L 2,9.599609 c 0,0.939076 0.4083792,1.800522 1.0488281,2.425782 C 2.4049283,12.663318 2,13.541862 2,14.5 l 0,4 c 0,0.958138 0.4049283,1.836682 1.0488281,2.474609 C 2.4083792,21.599869 2,22.461315 2,23.400391 l 0,4.199218 C 2,29.429447 3.5196436,31 5.375,31 l 8.25,0 C 14.549204,31 15.388732,30.60952 16,29.992188 16.611268,30.60952 17.450796,31 18.375,31 l 8.25,0 C 28.480356,31 30,29.429447 30,27.599609 l 0,-4.199218 C 30,22.461315 29.591621,21.599869 28.951172,20.974609 29.595072,20.336682 30,19.458138 30,18.5 l 0,-4 C 30,13.541862 29.595072,12.663318 28.951172,12.025391 29.591621,11.400131 30,10.538685 30,9.599609 L 30,5.4003906 C 30,3.570553 28.480356,2 26.625,2 l -8.25,0 C 17.450796,2 16.611268,2.39048 16,3.0078125 15.388732,2.39048 14.549204,2 13.625,2 Z" style="opacity:.2"/>
 <path d="M 5.375,1 C 3.5196443,1 2,2.570553 2,4.4003906 L 2,8.5996094 C 2,9.538685 2.4083792,10.400131 3.0488281,11.025391 2.4049283,11.663318 2,12.541862 2,13.5 l 0,4 c 0,0.958138 0.4049283,1.836682 1.0488281,2.474609 C 2.4083792,20.599869 2,21.461315 2,22.400391 l 0,4.199218 C 2,28.429447 3.5196436,30 5.375,30 l 8.25,0 C 14.549204,30 15.388732,29.60952 16,28.992188 16.611268,29.60952 17.450796,30 18.375,30 l 8.25,0 C 28.480356,30 30,28.429447 30,26.599609 l 0,-4.199218 C 30,21.461315 29.591621,20.599869 28.951172,19.974609 29.595072,19.336682 30,18.458138 30,17.5 l 0,-4 C 30,12.541862 29.595072,11.663318 28.951172,11.025391 29.591621,10.400131 30,9.538685 30,8.5996094 L 30,4.4003906 C 30,2.570553 28.480356,1 26.625,1 l -8.25,0 C 17.450796,1 16.611268,1.39048 16,2.0078125 15.388732,1.39048 14.549204,1 13.625,1 Z" style="fill:#4f4f4f"/>
 <path d="m5.375 4c-0.76175 0-1.375 0.6247906-1.375 1.4003906v4.1992188c0 0.7755996 0.61325 1.4003906 1.375 1.4003906h8.25c0.761751 0 1.375-0.624791 1.375-1.4003906v-4.1992188c0-0.7756-0.613249-1.4003906-1.375-1.4003906h-8.25zm13 0c-0.761751 0-1.375 0.6247906-1.375 1.4003906v4.1992188c0 0.7755996 0.613249 1.4003906 1.375 1.4003906h8.25c0.76175 0 1.375-0.624791 1.375-1.4003906v-4.1992188c0-0.7756-0.61325-1.4003906-1.375-1.4003906h-8.25zm-12.875 9c-0.831 0-1.5 0.669-1.5 1.5v4c0 0.831 0.669 1.5 1.5 1.5h2c0.831 0 1.5-0.669 1.5-1.5v-4c0-0.831-0.669-1.5-1.5-1.5h-2zm6.75 0c-0.692501 0-1.25 0.624791-1.25 1.400391v4.199218c0 0.7756 0.557499 1.400391 1.25 1.400391h7.5c0.6925 0 1.25-0.624791 1.25-1.400391v-4.199218c0-0.7756-0.5575-1.400391-1.25-1.400391h-7.5zm12.25 0c-0.831 0-1.5 0.669-1.5 1.5v4c0 0.831 0.669 1.5 1.5 1.5h2c0.831 0 1.5-0.669 1.5-1.5v-4c0-0.831-0.669-1.5-1.5-1.5h-2zm-19.125 9c-0.76175 0-1.375 0.624791-1.375 1.400391v4.199218c0 0.7756 0.61325 1.400391 1.375 1.400391h8.25c0.761751 0 1.375-0.624791 1.375-1.400391v-4.199218c0-0.7756-0.613249-1.400391-1.375-1.400391h-8.25zm13 0c-0.761751 0-1.375 0.624791-1.375 1.400391v4.199218c0 0.7756 0.613249 1.400391 1.375 1.400391h8.25c0.76175 0 1.375-0.624791 1.375-1.400391v-4.199218c0-0.7756-0.61325-1.400391-1.375-1.400391h-8.25z" style="opacity:.2"/>
 <path d="m5.375 3c-0.76175 0-1.375 0.6247906-1.375 1.4003906v4.1992188c0 0.7755996 0.61325 1.4003906 1.375 1.4003906h8.25c0.761751 0 1.375-0.624791 1.375-1.4003906v-4.1992188c0-0.7756-0.613249-1.4003906-1.375-1.4003906h-8.25zm13 0c-0.761751 0-1.375 0.6247906-1.375 1.4003906v4.1992188c0 0.7755996 0.613249 1.4003906 1.375 1.4003906h8.25c0.76175 0 1.375-0.624791 1.375-1.4003906v-4.1992188c0-0.7756-0.61325-1.4003906-1.375-1.4003906h-8.25zm-12.875 9c-0.831 0-1.5 0.669-1.5 1.5v4c0 0.831 0.669 1.5 1.5 1.5h2c0.831 0 1.5-0.669 1.5-1.5v-4c0-0.831-0.669-1.5-1.5-1.5h-2zm6.75 0c-0.692501 0-1.25 0.624791-1.25 1.400391v4.199218c0 0.7756 0.557499 1.400391 1.25 1.400391h7.5c0.6925 0 1.25-0.624791 1.25-1.400391v-4.199218c0-0.7756-0.5575-1.400391-1.25-1.400391h-7.5zm12.25 0c-0.831 0-1.5 0.669-1.5 1.5v4c0 0.831 0.669 1.5 1.5 1.5h2c0.831 0 1.5-0.669 1.5-1.5v-4c0-0.831-0.669-1.5-1.5-1.5h-2zm-19.125 9c-0.76175 0-1.375 0.624791-1.375 1.400391v4.199218c0 0.7756 0.61325 1.400391 1.375 1.400391h8.25c0.761751 0 1.375-0.624791 1.375-1.400391v-4.199218c0-0.7756-0.613249-1.400391-1.375-1.400391h-8.25zm13 0c-0.761751 0-1.375 0.624791-1.375 1.400391v4.199218c0 0.7756 0.613249 1.400391 1.375 1.400391h8.25c0.76175 0 1.375-0.624791 1.375-1.400391v-4.199218c0-0.7756-0.61325-1.400391-1.375-1.400391h-8.25z" style="fill:#f45c49"/>
 <path d="M 5.375,1 C 3.5196443,1 2,2.570553 2,4.4003906 l 0,1 C 2,3.570553 3.5196443,2 5.375,2 l 8.25,0 C 14.549204,2 15.388732,2.39048 16,3.0078125 16.611268,2.39048 17.450796,2 18.375,2 l 8.25,0 C 28.480356,2 30,3.570553 30,5.4003906 l 0,-1 C 30,2.570553 28.480356,1 26.625,1 l -8.25,0 C 17.450796,1 16.611268,1.39048 16,2.0078125 15.388732,1.39048 14.549204,1 13.625,1 L 5.375,1 Z M 2.6289062,11.529297 C 2.2352574,12.094258 2,12.773109 2,13.5 l 0,1 C 2,13.541862 2.4049283,12.663318 3.0488281,12.025391 2.8936715,11.873914 2.7543152,11.706243 2.6289062,11.529297 Z m 26.7421878,0 c -0.125409,0.176946 -0.264766,0.344617 -0.419922,0.496094 C 29.595072,12.663318 30,13.541862 30,14.5 l 0,-1 c 0,-0.726891 -0.235257,-1.405742 -0.628906,-1.970703 z M 2.6289062,20.470703 C 2.2366575,21.024149 2,21.688817 2,22.400391 l 0,1 C 2,22.461315 2.4083792,21.599869 3.0488281,20.974609 2.8934226,20.820645 2.7541384,20.650435 2.6289062,20.470703 Z m 26.7421878,0 c -0.125232,0.179732 -0.264517,0.349942 -0.419922,0.503906 C 29.591621,21.599869 30,22.461315 30,23.400391 l 0,-1 c 0,-0.711574 -0.236657,-1.376242 -0.628906,-1.929688 z" style="fill:#ffffff;opacity:.1"/>
</svg>
