<svg width="32" height="32" version="1.1" viewBox="0 0 32 32" xmlns="http://www.w3.org/2000/svg">
 <path d="m16 3a14 14 0 0 0 -14 14 14 14 0 0 0 14 14 14 14 0 0 0 14 -14 14 14 0 0 0 -14 -14z" style="opacity:.2"/>
 <path d="m16 2a14 14 0 0 0 -14 14 14 14 0 0 0 14 14 14 14 0 0 0 14 -14 14 14 0 0 0 -14 -14z" style="fill:#9aca3c"/>
 <path d="m11.5 10.500035 5.2 6.50002" style="fill:none;opacity:.2;stroke-linecap:round;stroke-linejoin:round;stroke-width:3;stroke:#000000"/>
 <path d="m12.5 23.500035 10-13" style="fill:none;opacity:.2;stroke-linecap:round;stroke-linejoin:round;stroke-width:3;stroke:#000000"/>
 <path d="m12.5 22.5 10-13" style="fill:none;stroke-linecap:round;stroke-linejoin:round;stroke-width:3;stroke:#ffffff"/>
 <path d="m11.5 9.5 5.2 6.50002" style="fill:none;stroke-linecap:round;stroke-linejoin:round;stroke-width:3;stroke:#ffffff"/>
 <path d="m16 2a14 14 0 0 0 -14 14 14 14 0 0 0 0.0214844 0.414062 14 14 0 0 1 13.978516 -13.414062 14 14 0 0 1 13.978516 13.585938 14 14 0 0 0 0.021484 -0.585938 14 14 0 0 0 -14 -14z" style="fill:#ffffff;opacity:.2"/>
 <circle cx="24" cy="24" r="8" style="opacity:.2"/>
 <circle cx="24" cy="23" r="8" style="fill:#4f4f4f"/>
 <path d="m22 19a3.9999999 3.9999999 0 0 0 -4 4 3.9999999 3.9999999 0 0 0 4 4 3.9999999 3.9999999 0 0 0 4 -4 3.9999999 3.9999999 0 0 0 -4 -4zm0 2a1.9999999 1.9999999 0 0 1 2 2 1.9999999 1.9999999 0 0 1 -2 2 1.9999999 1.9999999 0 0 1 -2 -2 1.9999999 1.9999999 0 0 1 2 -2z" style="fill:#ffffff"/>
 <rect x="25" y="22" width="5" height="2" style="fill:#ffffff"/>
 <rect transform="rotate(90)" x="24" y="-29" width="2" height="1" style="fill:#ffffff"/>
</svg>
