<svg width="22" height="22" version="1.1" viewBox="0 0 22 22" xmlns="http://www.w3.org/2000/svg">
 <circle cx="11" cy="11.5" r="10" style="opacity:.2"/>
 <circle cx="11" cy="11" r="10" style="fill:#ff8a18"/>
 <path d="M 11,1 A 10,10 0 0 0 1,11 10,10 0 0 0 1.01075,11.291 10,10 0 0 1 11,1.5 10,10 0 0 1 20.9895,11.209 10,10 0 0 0 21,11 10,10 0 0 0 11,1 Z" style="fill:#ffffff;opacity:.2"/>
 <circle cx="11" cy="11.5" r="7" style="opacity:.2"/>
 <circle cx="11" cy="11" r="7" style="fill:#ffffff"/>
 <path d="m9.3574219 5.2578125l-1.4140625 1.4140625 4.2421876 4.242187-4.2421876 4.242188 1.4140625 1.414062 4.2421871-4.242187 1.414063-1.414063-1.414063-1.414062-4.2421871-4.2421875z" style="fill:#3f3f3f"/>
</svg>
