<svg width="22" height="22" version="1" xmlns="http://www.w3.org/2000/svg">
 <path d="m4 4.5c-1.6567856 1.657e-4 -2.9998343 1.3432144-3 3v8c1.657e-4 1.656786 1.3432144 2.999834 3 3h2c0.2068189-8.72e-4 0.4129934-0.02313 0.6152345-0.06641 0.128584 0.0086 0.249752 0.06613 0.378906 0.06641h0.0058595c1.4821855 0 2.808717-0.610755 3.863281-1.523438 1.175895 0.894044 2.564926 1.523438 4.136719 1.523438h0.0039c2.492879-0.0032 4.306296-1.341101 5.552735-3.5 0.64609-1.122613 0.498821-2.533107-0.365229-3.498047 0.866526-0.965218 1.014658-2.377989 0.367188-3.501953-1.247045-2.159946-3.062551-3.498027-5.556641-3.5h-0.001953c-2.185582 0-4.072083 1.0955995-5.361328 2.6933595-0.229818-0.1165095-0.456225-0.2084405-0.701172-0.294922-0.2857247-1.3953939-1.5131538-2.3975767-2.9375-2.3984375z" style="opacity:.2"/>
 <path d="M 4,4 C 2.3432144,4.0001657 1.0001657,5.3432144 1,7 v 5 3 c 1.657e-4,1.656786 1.3432144,2.999834 3,3 h 2 c 0.2068189,-8.72e-4 0.4129934,-0.02313 0.6152345,-0.06641 0.128584,0.0086 0.249752,0.06613 0.378906,0.06641 H 7 C 8.4821855,18 9.808717,17.389245 10.863281,16.476562 12.039176,17.370606 13.428207,18 15,18 h 0.0039 c 2.492879,-0.0032 4.306296,-1.341101 5.552735,-3.5 0.64609,-1.122613 0.498821,-2.533107 -0.365229,-3.498047 C 21.057932,10.036735 21.206064,8.6239636 20.558594,7.5 19.311549,5.340054 17.496043,4.001973 15.001953,4 H 15 C 12.814418,4 10.927917,5.0955995 9.638672,6.6933595 9.408854,6.57685 9.182447,6.484919 8.9375,6.3984375 8.6517753,5.0030436 7.4243462,4.0008608 6,4 Z" style="fill:#4f4f4f"/>
 <path d="m4 7.5v8h2v-0.174805a3 3 0 0 0 1 0.174805 3 3 0 0 0 3 -3 3 3 0 0 0 -3 -3 3 3 0 0 0 -1 0.175781v-2.175781zm11 0a4 4 0 0 0 -4 4 4 4 0 0 0 4 4 4 4 0 0 0 3.458008 -2h-3.458008a2 2 0 0 1 -2 -2 2 2 0 0 1 2 -2h3.459961a4 4 0 0 0 -3.459961 -2zm-8 4a1 1 0 0 1 1 1 1 1 0 0 1 -1 1 1 1 0 0 1 -1 -1 1 1 0 0 1 1 -1z" style="opacity:.2"/>
 <g transform="matrix(.5 0 0 .5 -7 -1)" style="fill:#74bed2">
  <path transform="matrix(2,0,0,2,12,0)" d="m5 8v8h2v-0.173828a3 3 0 0 0 1 0.173828 3 3 0 0 0 3 -3 3 3 0 0 0 -3 -3 3 3 0 0 0 -1 0.175781v-2.175781zm11 0a4 4 0 0 0 -4 4 4 4 0 0 0 4 4 4 4 0 0 0 3.458984 -2h-3.458984a2 2 0 0 1 -2 -2 2 2 0 0 1 2 -2h3.460938a4 4 0 0 0 -3.460938 -2zm-8 4a1 1 0 0 1 1 1 1 1 0 0 1 -1 1 1 1 0 0 1 -1 -1 1 1 0 0 1 1 -1z" style="fill:#74bed2"/>
  <path transform="matrix(2,0,0,2,12,0)" d="m5 8v8h2v-0.173828a3 3 0 0 0 1 0.173828 3 3 0 0 0 3 -3 3 3 0 0 0 -3 -3 3 3 0 0 0 -1 0.175781v-2.175781zm11 0a4 4 0 0 0 -4 4 4 4 0 0 0 4 4 4 4 0 0 0 3.458984 -2h-3.458984a2 2 0 0 1 -2 -2 2 2 0 0 1 2 -2h3.460938a4 4 0 0 0 -3.460938 -2zm-8 4a1 1 0 0 1 1 1 1 1 0 0 1 -1 1 1 1 0 0 1 -1 -1 1 1 0 0 1 1 -1z" style="fill:none"/>
 </g>
 <path d="m4 4c-1.6567856 1.657e-4 -2.9998343 1.3432144-3 3v0.5c1.657e-4 -1.6567856 1.3432144-2.9998343 3-3h2c1.4243462 8.608e-4 2.6517753 1.0030436 2.9375 2.3984375 0.244947 0.086481 0.471354 0.1784124 0.701172 0.2949219 1.289245-1.59776 3.175746-2.6933594 5.361328-2.6933594h2e-3c2.49409 0.00197 4.309596 1.340054 5.556641 3.5 0.228136 0.3960285 0.352754 0.828144 0.386718 1.263672 0.053388-0.5997034-0.071229-1.2159235-0.386765-1.763672-1.247045-2.159946-3.062551-3.498027-5.556641-3.5h-0.001953c-2.185582 0-4.072083 1.0955994-5.361328 2.6933594-0.229818-0.1165095-0.456225-0.2084404-0.701172-0.2949219-0.2857247-1.3953939-1.5131538-2.3975767-2.9375-2.3984375zm16.382812 7.251953c-0.06142 0.08488-0.120254 0.170745-0.191406 0.25 0.445243 0.497231 0.695891 1.1126 0.75 1.746094 0.05726-0.701436-0.134739-1.40894-0.558594-1.996094z" style="fill:#ffffff;opacity:.1"/>
</svg>
