<svg width="22" height="22" version="1" xmlns="http://www.w3.org/2000/svg">
 <rect transform="scale(1,-1)" x="1" y="-21.5" width="20" height="20" rx="1" ry="1" style="opacity:.2"/>
 <rect transform="scale(1,-1)" x="1" y="-21" width="20" height="20" rx="1" ry="1" style="fill:#fecd38"/>
 <path d="m2 2.4999996v2h2v-2h-2zm4 0v2h2v-2h-2zm4 0v2h2v-2h-2zm4 0v2h2v-2h-2zm4 0v2h2v-2h-2zm-15 4v9.9999994h7v-9.9999994h-7zm9 0v9.9999994h7v-9.9999994h-7zm-10 11.999999v2h2v-2h-2zm4 0v2h2v-2h-2zm4 0v2h2v-2h-2zm4 0v2h2v-2h-2zm4 0v2h2v-2h-2z" style="opacity:.2"/>
 <path d="m2 2v2h2v-2h-2zm4 0v2h2v-2h-2zm4 0v2h2v-2h-2zm4 0v2h2v-2h-2zm4 0v2h2v-2h-2zm-15 4v10h7v-10h-7zm9 0v10h7v-10h-7zm-10 12v2h2v-2h-2zm4 0v2h2v-2h-2zm4 0v2h2v-2h-2zm4 0v2h2v-2h-2zm4 0v2h2v-2h-2z" style="fill:#336894"/>
 <path d="m2 1c-0.554 0-1 0.446-1 1v0.5c0-0.554 0.446-1 1-1h18c0.554 0 1 0.446 1 1v-0.5c0-0.554-0.446-1-1-1h-18z" style="fill:#ffffff;opacity:.2"/>
</svg>
