<svg width="22" height="22" version="1.1" viewBox="0 0 22 22" xmlns="http://www.w3.org/2000/svg">
 <rect transform="rotate(-90)" x="-20.5" y="1" width="6" height="20" rx="1" ry="1" style="opacity:.2"/>
 <rect transform="rotate(-90)" x="-20" y="1" width="6" height="20" rx="1" ry="1" style="fill:#8e8e8e"/>
 <path d="m14.5 15.5 1 3" style="opacity:.5;stroke-linecap:round;stroke:#000000"/>
 <path d="m16.5 15.5 1 3" style="opacity:.5;stroke-linecap:round;stroke:#000000"/>
 <path d="m18.5 15.5 1 3" style="opacity:.5;stroke-linecap:round;stroke:#000000"/>
 <path d="m12.5 15.5 1 3" style="opacity:.5;stroke-linecap:round;stroke:#000000"/>
 <circle transform="scale(-1,1)" cx="-8" cy="16.5" r="1" style="opacity:.2"/>
 <circle transform="scale(-1,1)" cx="-5.5" cy="16.5" r="1" style="opacity:.2"/>
 <circle transform="scale(-1,1)" cx="-3" cy="16.5" r="1" style="opacity:.2"/>
 <circle transform="scale(-1,1)" cx="-8" cy="16" r="1" style="fill:#76ff03"/>
 <circle transform="scale(-1,1)" cx="-5.5" cy="16" r="1" style="fill:#ffff00"/>
 <circle transform="scale(-1,1)" cx="-3" cy="16" r="1" style="fill:#ffcd40"/>
 <rect transform="rotate(-90)" x="-14.5" y="1" width="6" height="20" rx="1" ry="1" style="opacity:.2"/>
 <rect transform="rotate(-90)" x="-14" y="1" width="6" height="20" rx="1" ry="1" style="fill:#8e8e8e"/>
 <path d="m14.5 9.5 1 3" style="opacity:.5;stroke-linecap:round;stroke:#000000"/>
 <path d="m16.5 9.5 1 3" style="opacity:.5;stroke-linecap:round;stroke:#000000"/>
 <path d="m18.5 9.5 1 3" style="opacity:.5;stroke-linecap:round;stroke:#000000"/>
 <path d="m12.5 9.5 1 3" style="opacity:.5;stroke-linecap:round;stroke:#000000"/>
 <circle transform="scale(-1,1)" cx="-5.5" cy="10.5" r="1" style="opacity:.2"/>
 <circle transform="scale(-1,1)" cx="-3" cy="10.5" r="1" style="opacity:.2"/>
 <circle transform="scale(-1,1)" cx="-5.5" cy="10" r="1" style="fill:#ffff00"/>
 <circle transform="scale(-1,1)" cx="-3" cy="10" r="1" style="fill:#ffcd40"/>
 <rect transform="rotate(-90)" x="-8.5" y="1" width="6" height="20" rx="1" ry="1" style="opacity:.2"/>
 <rect transform="rotate(-90)" x="-8" y="1" width="6" height="20" rx="1" ry="1" style="fill:#8e8e8e"/>
 <path d="m14.5 3.5 1 3" style="opacity:.5;stroke-linecap:round;stroke:#000000"/>
 <path d="m16.5 3.5 1 3" style="opacity:.5;stroke-linecap:round;stroke:#000000"/>
 <path d="m18.5 3.5 1 3" style="opacity:.5;stroke-linecap:round;stroke:#000000"/>
 <path d="m12.5 3.5 1 3" style="opacity:.5;stroke-linecap:round;stroke:#000000"/>
 <circle transform="scale(-1,1)" cx="-3" cy="4.5" r="1" style="opacity:.2"/>
 <circle transform="scale(-1,1)" cx="-3" cy="4" r="1" style="fill:#ffcd40"/>
 <path d="m20 2c0.554 0 1 0.446 1 1v0.5c0-0.554-0.446-1-1-1h-18c-0.554 0-1 0.446-1 1v-0.5c0-0.554 0.446-1 1-1z" style="fill:#ffffff;opacity:.2"/>
</svg>
