<svg width="22" height="22" version="1.1" viewBox="0 0 5.82 5.82" xmlns="http://www.w3.org/2000/svg">
 <g transform="translate(0,-291.17916)">
  <circle cx="2.91" cy="294.222" r="2.646" style="opacity:.2"/>
  <circle cx="2.91" cy="294.09" r="2.646" style="fill:#fb6651"/>
  <g transform="matrix(-.04134115 0 0 .04469371 4.9030613 293.02942)" style="fill-rule:evenodd;opacity:.2">
   <path transform="matrix(-3.2000001,0,0,2.9599616,125.00003,-44.356689)" d="m19.480469 16.002273c-1e-6 7e-6 -0.398064 6.5e-5 -0.570313 0.01953-3.910157-0.02148-6.097528 2.679496-8.023437 5.069993-0.850249 1.05937-1.5332034 1.904297-1.5332034 1.904297-1.535425 1.588342-3.3903888 3.258083-5.0878906 4.191406 0.090728 0.538241 0.2034529 1.072543 0.3378906 1.601562 0.6495778-0.30503 1.2166102-0.60347 1.5429688-0.865234 1.6408812-1.31611 4.5102436-3.886719 4.8027346-3.886719s0.79588-0.123653 1.005859 0.603516-0.416015 2.021484-0.416016 2.021484c0 0-0.637325 1.085166-0.615234 1.681641 0.300535 2.150024 2.175701 4.302633 3.935547 4.597656 1.267694 0.173502 3.140624 0.058595 3.140624 0.058595l0.04102-0.318c-0.04102-0.48242-1.033204-0.68786-1.033204-0.68786-0.0078 0.0059-1.260447 0.241183-1.808593-0.0098-0.924653-0.423377-2.00586-2.087641-2.00586-2.298828s0.308594-0.876953 0.308594-0.876953 1.021091 0.137931 1.359375 0.137931 1.212891 0.04102 1.212891 0.04102l0.654294 0.727334c0.205907 0.397343 0.461914 0.198971 0.803488 0.290899l1.45823 0.01574 1.009765-0.021483v-0.513603c0 0.513603 0-0.486397-0.653626-0.501272-0.566369-0.02679-1.304912-0.101002-1.367857-0.305437-0.103175-0.335095 0.04297-0.492188 0.04297-0.492188s0.728755-0.35302 2.265625-0.04883c1.53687 0.304193 2.712888 0.86133 2.712888 0.86133-0.439415 0.811387-0.841499 1.415451-0.920291 2.246772-0.079709 0.753228-0.079709 0.753228 0.415314 0.753228h2.504977s0-1-0.6781-0.949763c-0.475549-0.01582-1.024999-0.04291-1.024999-0.08364 0-0.190083 0.906225-1.413866 0.906225-1.413866l0.785156-0.46289s1.469557 0.461169 2.623047 0.753906 2.449219 0.15125 2.449219 0.15125c0.450181 0.270909 0.538562 0.923585 0.761952 1.307851 0.1775 0.697152 0.1775 0.697152 0.565943 0.711782 0.85114 0.02253 1.711216-0.01509 2.543201-0.07518 0 0 0.06836-0.93945-1.316409-0.93945 0 0-0.504535-0.31934-0.595703-0.794924-0.09117-0.475584-0.03711-2.151756-0.03711-2.151756l0.683594-0.05664 0.90039 0.910975 0.560547 0.05469 0.779297 0.967345s0.837502 0.113154 1.357422-0.08398c0.519919-0.197154 1.46163-0.579028 2.005859-1.167969 0.544229-0.58894 0.906778-1.982525 0.722657-2.767578-0.184123-0.785054-1.199219-1.72461-1.199219-1.724609-2.151341-2.040452-4.792962-4.185658-6.873047-4.204502-0.331723 0-1.157147 0.513759-1.634766 0.169922-2.976609-2.0523-6.235523-4.003133-9.804687-4.148694zm15.519531 7.997765c0.552285 0 1 0.447715 1 1s-0.447715 1-1 1-1-0.447715-1-1 0.447715-1 1-1z"/>
  </g>
  <g transform="matrix(-.04134115 0 0 .04469371 4.9030613 292.89704)" style="fill-rule:evenodd">
   <path transform="matrix(-3.2000001,0,0,2.9599616,125.00003,-44.356689)" d="m19.480469 16.002273c-1e-6 7e-6 -0.398064 6.5e-5 -0.570313 0.01953-3.910157-0.02148-6.097528 2.679496-8.023437 5.069993-0.850249 1.05937-1.5332034 1.904297-1.5332034 1.904297-1.535425 1.588342-3.3903888 3.258083-5.0878906 4.191406 0.090728 0.538241 0.2034529 1.072543 0.3378906 1.601562 0.6495778-0.30503 1.2166102-0.60347 1.5429688-0.865234 1.6408812-1.31611 4.5102436-3.886719 4.8027346-3.886719s0.79588-0.123653 1.005859 0.603516-0.416015 2.021484-0.416016 2.021484c0 0-0.637325 1.085166-0.615234 1.681641 0.300535 2.150024 2.175701 4.302633 3.935547 4.597656 1.267694 0.173502 3.140624 0.058595 3.140624 0.058595l0.04102-0.318c-0.04102-0.48242-1.033204-0.68786-1.033204-0.68786-0.0078 0.0059-1.260447 0.241183-1.808593-0.0098-0.924653-0.423377-2.00586-2.087641-2.00586-2.298828s0.308594-0.876953 0.308594-0.876953 1.021091 0.137931 1.359375 0.137931 1.212891 0.04102 1.212891 0.04102l0.654294 0.727334c0.205907 0.397343 0.461914 0.198971 0.803488 0.290899l1.45823 0.01574 1.009765-0.021483v-0.513603c0 0.513603 0-0.486397-0.653626-0.501272-0.566369-0.02679-1.304912-0.101002-1.367857-0.305437-0.103175-0.335095 0.04297-0.492188 0.04297-0.492188s0.728755-0.35302 2.265625-0.04883c1.53687 0.304193 2.712888 0.86133 2.712888 0.86133-0.439415 0.811387-0.841499 1.415451-0.920291 2.246772-0.079709 0.753228-0.079709 0.753228 0.415314 0.753228h2.504977s0-1-0.6781-0.949763c-0.475549-0.01582-1.024999-0.04291-1.024999-0.08364 0-0.190083 0.906225-1.413866 0.906225-1.413866l0.785156-0.46289s1.469557 0.461169 2.623047 0.753906 2.449219 0.15125 2.449219 0.15125c0.450181 0.270909 0.538562 0.923585 0.761952 1.307851 0.1775 0.697152 0.1775 0.697152 0.565943 0.711782 0.85114 0.02253 1.711216-0.01509 2.543201-0.07518 0 0 0.06836-0.93945-1.316409-0.93945 0 0-0.504535-0.31934-0.595703-0.794924-0.09117-0.475584-0.03711-2.151756-0.03711-2.151756l0.683594-0.05664 0.90039 0.910975 0.560547 0.05469 0.779297 0.967345s0.837502 0.113154 1.357422-0.08398c0.519919-0.197154 1.46163-0.579028 2.005859-1.167969 0.544229-0.58894 0.906778-1.982525 0.722657-2.767578-0.184123-0.785054-1.199219-1.72461-1.199219-1.724609-2.151341-2.040452-4.792962-4.185658-6.873047-4.204502-0.331723 0-1.157147 0.513759-1.634766 0.169922-2.976609-2.0523-6.235523-4.003133-9.804687-4.148694zm15.519531 7.997765c0.552285 0 1 0.447715 1 1s-0.447715 1-1 1-1-0.447715-1-1 0.447715-1 1-1z" style="fill:#ffffff"/>
  </g>
  <path d="m2.9104168 291.44375a2.6458333 2.6458333 0 0 0 -2.6458335 2.64583 2.6458333 2.6458333 0 0 0 0.002842 0.077 2.6458333 2.6458333 0 0 1 2.6429913 -2.59054 2.6458333 2.6458333 0 0 1 2.6429912 2.56883 2.6458333 2.6458333 0 0 0 0.00284 -0.0553 2.6458333 2.6458333 0 0 0 -2.6458334 -2.64583z" style="fill:#ffffff;opacity:.2"/>
 </g>
</svg>
