<svg width="22" height="22" version="1.1" viewBox="0 0 5.82 5.82" xmlns="http://www.w3.org/2000/svg">
 <g transform="translate(0,-291.17915)">
  <path d="m2.910416 294.22186c-1.7197912 0-2.6458326 2.64583-2.6458326 2.64583h0.92604142c0.6614582 0 0.7937498-0.92605 1.7197912-1.85209 0.9260415 0.92604 1.0583331 1.85209 1.7197913 1.85209h0.9260417s-0.5951529-1.69796-1.7164325-2.37298c7.8e-4 8e-5 0.00155-8e-5 0.00232 0-0.076273-0.0509-0.1878899-0.10674-0.3136759-0.15477-0.016096-6e-3 -0.032555-0.0115-0.048834-0.0173-0.028469-0.0101-0.056904-0.0196-0.0863-0.0287-0.013547-4e-3 -0.027155-8e-3 -0.040824-0.0117-0.1507155-0.043-0.3075212-0.07-0.4420918-0.0605z" style="opacity:.2"/>
  <path d="m5.556249 296.7354s-0.9260415-2.64583-2.6458328-2.64583v0.79374c0.9260414 0.92604 1.058333 1.85209 1.7197912 1.85209z" style="fill:#eba43c"/>
  <path d="m2.910416 294.08957v0.13229c1.4914639 0 2.3834499 1.98516 2.5946729 2.51354h0.05116s-0.9260414-2.64583-2.6458329-2.64583z" style="fill:#ffffff;opacity:.1"/>
  <path d="m0.26458333 296.7354s0.92604157-2.64583 2.6458328-2.64583c0.3085543-0.0218 0.735945 0.14215 0.9318347 0.27274-0.4840276-0.051-0.9318346 0.521-0.9318346 0.521-0.9260414 0.92604-1.058333 1.85209-1.7197912 1.85209z" style="fill:#4f4f4f"/>
  <path d="m2.910416 294.08957c-1.7197912 0-2.6458326 2.64583-2.6458326 2.64583h0.0511597c0.21122309-0.52838 1.103209-2.51354 2.5946729-2.51354 0.2202069-0.0156 0.4997364 0.0639 0.7136513 0.15787 0.071003-0.0172 0.1438878-0.0251 0.2180745-0.0173-0.1958897-0.13059-0.6231716-0.29465-0.9317258-0.27285z" style="fill:#ffffff;opacity:.1"/>
  <path d="m0.26458338 291.57597s0.59515241 1.69796 1.7164322 2.37298c-7.8e-4 -7e-5 -0.00155 9e-5 -0.00233 0 0.076273 0.0508 0.18789 0.10675 0.3136759 0.15478 0.016096 6e-3 0.032555 0.0115 0.048834 0.0173 0.028469 0.0101 0.056904 0.0196 0.0863 0.0287 0.013548 4e-3 0.027156 8e-3 0.040824 0.0116 0.1507155 0.043 0.3075213 0.07 0.4420917 0.0605 1.7197913 0 2.6458332-2.64583 2.6458332-2.64583h-0.9260371c-0.6614582 0-0.7937498 0.92604-1.7197913 1.85208-0.9260414-0.92604-1.058333-1.85208-1.7197912-1.85208z" style="opacity:.2"/>
  <path d="m0.26458338 291.44373s0.92604142 2.64584 2.6458326 2.64584l1e-7 -0.79375c-0.9260414-0.92604-1.058333-1.85209-1.7197912-1.85209z" style="fill:#568cbf"/>
  <path d="m0.26458338 291.44374s0.0188236 0.0514 0.0511597 0.13229h0.87488172c0.6614581 0 0.7937498 0.92604 1.7197912 1.85208v-0.13229c-0.9260414-0.92604-1.0583331-1.85208-1.7197912-1.85208z" style="fill:#ffffff;opacity:.1"/>
  <path d="m5.556249 291.44373s-0.9260416 2.64584-2.6458329 2.64584c-0.3085542 0.0218-0.7359449-0.14215-0.9318346-0.27275 0.4840276 0.051 0.9318346-0.521 0.9318346-0.521 0.9260414-0.92604 1.058333-1.85209 1.7197912-1.85209z" style="fill:#4f4f4f"/>
  <path d="m4.6302072 291.44374c-0.6614582 0-0.7937498 0.92604-1.7197912 1.85208 0 0-0.4476983 0.57191-0.9317259 0.5209 0.056089 0.0374 0.1322517 0.0773 0.2180746 0.11498 0.3922526-0.0947 0.7136513-0.50359 0.7136513-0.50359 0.9260414-0.92604 1.058333-1.85208 1.7197912-1.85208h0.8748817c0.032336-0.0809 0.05116-0.13229 0.05116-0.13229z" style="fill:#ffffff;opacity:.1"/>
 </g>
</svg>
