<svg width="22" height="22" version="1.1" viewBox="0 0 22 22" xmlns="http://www.w3.org/2000/svg">
 <path d="m11 1a10 10 0 0 0 -10 10 10 10 0 0 0 10 10 10 10 0 0 0 10 -10 10 10 0 0 0 -10 -10z" style="fill:#1c75bc"/>
 <path d="m1.01075 11.209a10 10 0 0 0 -0.01075 0.291 10 10 0 0 0 10 10 10 10 0 0 0 10 -10 10 10 0 0 0 -0.0105 -0.209 10 10 0 0 1 -9.9895 9.709 10 10 0 0 1 -9.989 -9.791z" style="opacity:.2"/>
 <path d="m11 1a10 10 0 0 0 -10 10 10 10 0 0 0 0.01075 0.209 10 10 0 0 1 9.989 -9.709 10 10 0 0 1 9.9895 9.791 10 10 0 0 0 0.0105 -0.291 10 10 0 0 0 -10 -10z" style="fill:#ffffff;opacity:.2"/>
 <path d="m7.4881405 7.5-0.62207 2h7.6341755l-1.5 4h-7.378316l-0.6220705 2h7.9574175c0.997632-0.0182 2.023155-0.623178 2.415039-1.581054l1.566406-4.708985c0.369782-1.5246665-0.995577-1.709961-2.051757-1.709961zm-1.738281 3-0.75 2h4.5001405l0.75-2z" style="opacity:.2"/>
 <path d="m7.4881405 7-0.62207 2h7.6341755l-1.5 4h-7.378316l-0.6220705 2h7.9574175c0.997632-0.01821 2.023155-0.623178 2.415039-1.581054l1.566406-4.708985c0.369782-1.5246665-0.995577-1.709961-2.051757-1.709961zm-1.738281 3-0.75 2h4.5001405l0.75-2z" style="fill:#ffffff"/>
</svg>
