<svg width="22" height="22" version="1" xmlns="http://www.w3.org/2000/svg">
 <circle cx="11" cy="11.5" r="10" style="opacity:.2"/>
 <circle cx="11" cy="11" r="10" style="fill:#a43b84"/>
 <path d="m7 6.5v6s0 4 3 4h5v-10h-2v8h-2.5c-1.5 0-1.5-2-1.5-2v-6z" style="opacity:.2"/>
 <path d="m7 6v6s0 4 3 4h5v-10h-2v8h-2.5c-1.5 0-1.5-2-1.5-2v-6z" style="fill:#ffffff"/>
 <path d="M 11,1 A 10,10 0 0 0 1,11 10,10 0 0 0 1,11.293 10,10 0 0 1 11,1.5 10,10 0 0 1 21,11.207 10,10 0 0 0 21,11 10,10 0 0 0 11,1 Z" style="fill:#ffffff;opacity:.1"/>
</svg>
