<svg width="22" height="22" version="1.1" viewBox="0 0 22 22" xmlns="http://www.w3.org/2000/svg">
 <path d="m11 0.99999984a10 10 0 0 0 -10 10 10 10 0 0 0 10 10 10 10 0 0 0 10 -10 10 10 0 0 0 -10 -10z" style="fill:#f4b400"/>
 <g transform="matrix(.35714286 0 0 .35714286 -.4285716 -.07132067)" style="opacity:.3">
  <path d="m21 31.411697-2.472136-5.009094-5.527864-0.803245 4-3.899037-0.944272-5.505527 4.944272 2.599357 4.944271-2.599357-0.944271 5.505527l4 3.899036-5.527864 0.803246z"/>
  <path d="m40 26.608452-2.472136-5.009095-5.527864-0.803245 4-3.899036-0.944272-5.505528 4.944272 2.599358 4.944271-2.599358-0.944271 5.505528l4 3.899036-5.527864 0.803246z"/>
  <path d="m23 51.411697-2.472136-5.009094-5.527864-0.803245 4-3.899037-0.944272-5.505527 4.944272 2.599357 4.944271-2.599357-0.944271 5.505527l4 3.899036-5.527864 0.803246z"/>
  <path d="m45 45.411697-2.472136-5.009094-5.527864-0.803245 4-3.899037-0.944272-5.505527 4.944272 2.599357 4.944271-2.599357-0.944271 5.505527l4 3.899036-5.527864 0.803246z"/>
 </g>
 <path d="m7.0714289 10.789892-0.8829058-1.7889625-1.9742372-0.2868733 1.4285716-1.3925131-0.3372402-1.9662598 1.7658115 0.9283421 1.7658113-0.9283422l-0.33724 1.96626 1.4285716 1.3925129-1.9742373 0.2868734z" style="fill:#ffffff"/>
 <g transform="matrix(.35714286 0 0 .35714286 -.42857144 -.4285716)">
  <path d="m40 26.608452-2.472136-5.009095-5.527864-0.803245 4-3.899036-0.944272-5.505528 4.944272 2.599358 4.944271-2.599358-0.944271 5.505528l4 3.899036-5.527864 0.803246z" style="fill:#ffffff"/>
 </g>
 <path d="m7.7857142 17.932749-0.8829057-1.788963-1.9742372-0.286873 1.4285715-1.392513-0.3372401-1.96626l1.7658115 0.928342 1.7658113-0.928342-0.33724 1.96626 1.4285715 1.392513-1.9742373 0.286873z" style="fill:#ffffff"/>
 <g transform="matrix(.35714286 0 0 .35714286 -.42857144 -.4285716)">
  <path d="m45 45.411697-2.472136-5.009094-5.527864-0.803245 4-3.899037-0.944272-5.505527 4.944272 2.599357 4.944271-2.599357-0.944271 5.505527l4 3.899036-5.527864 0.803246z" style="fill:#ffffff"/>
 </g>
 <path d="m11 1a10 10 0 0 0 -9.9297 8.9258 10 9.5 0 0 1 9.9297 -8.4258 10 9.5 0 0 1 9.961 8.724 10 10 0 0 0 -9.961 -9.224zm9.9609 9.2236a10 10 0 0 1 0.039 0.776 10 9.5 0 0 0 -0.039 -0.776zm-19.891-0.2982a10 9.5 0 0 0 -0.024414 0.19629 10 10 0 0 1 0.024414 -0.19629zm-0.024414 0.19629a10 10 0 0 0 -0.0459 0.878 10 9.5 0 0 1 0.0459 -0.878z" fill="#ffffff" opacity=".2"/>
 <path d="m11 21.5a10 10 0 0 1 -9.9297 -8.926 10 9.5 0 0 0 9.9297 8.426 10 9.5 0 0 0 9.961 -8.724 10 10 0 0 1 -9.961 9.224zm9.9609-9.2236a10 10 0 0 0 0.039 -0.776 10 9.5 0 0 1 -0.039 0.776zm-19.891 0.298a10 9.5 0 0 1 -0.024414 -0.19625 10 10 0 0 0 0.024414 0.19625zm-0.0244-0.196a10 10 0 0 1 -0.0459 -0.878 10 9.5 0 0 0 0.0459 0.878z" opacity=".2"/>
 <g transform="matrix(.30555555 0 0 .30555555 2.666667 2.876807)">
  <g transform="matrix(1.0285714,0,0,1.0285714,-1.7142865,-1.701158)">
   <g transform="matrix(1.0590144,0,0,1.1482519,-3.5495395,-8.0126388)" style="opacity:.3;stroke:#000000">
    <path d="m57.721022 39.515725-5.693342 18.218703-5.693346-18.218703" style="fill:none;stroke-linecap:round;stroke-linejoin:round;stroke-width:4.5546761;stroke:#000000"/>
    <path d="m40.639906 39.499973-11.386675 18.218703m0-18.218703 11.386675 18.218703" style="fill:none;stroke-linecap:round;stroke-width:4.5546761;stroke:#000000"/>
   </g>
   <g transform="matrix(1.0590144,0,0,1.1482519,-3.5495395,-8.9221609)">
    <path d="m57.721022 39.515725-5.693342 18.218703-5.693346-18.218703" style="fill:none;stroke-linecap:round;stroke-linejoin:round;stroke-width:4.5546761;stroke:#c2352a"/>
    <path d="m40.639906 39.499973-11.386675 18.218703m0-18.218703 11.386675 18.218703" style="fill:none;stroke-linecap:round;stroke-width:4.5546761;stroke:#c2352a"/>
   </g>
  </g>
 </g>
</svg>
