<svg width="22" height="22" version="1" xmlns="http://www.w3.org/2000/svg">
 <path d="m11.005023 12.500019a0.85722853 0.80014242 0 0 0 -0.391741 0.08594l-3.3197554 1.567309-1.158481-0.370341a0.85722853 0.80014242 0 0 0 -1.135045 0.757871v2.159545a0.85722853 0.80014242 0 0 0 0.40346 0.678178l5.1428574 3.000233a0.85722853 0.80014242 0 0 0 0.907366 0l5.142857-3.000233a0.85722853 0.80014242 0 0 0 0.403459 -0.678174v-1.920464a0.85722853 0.80014242 0 0 0 -1.3125 -0.676615l-1.021205 0.598485-3.177456-2.059536a0.85722853 0.80014242 0 0 0 -0.483816 -0.142198z" style="opacity:.2"/>
 <path d="m11.005023 12.000015a0.85722853 0.80014242 0 0 0 -0.391741 0.08594l-3.3197554 1.567309-1.158481-0.370341a0.85722853 0.80014242 0 0 0 -1.135045 0.757871v2.159545a0.85722853 0.80014242 0 0 0 0.40346 0.678178l5.1428574 3.000233a0.85722853 0.80014242 0 0 0 0.907366 0l5.142857-3.000233a0.85722853 0.80014242 0 0 0 0.403459 -0.678174v-1.920464a0.85722853 0.80014242 0 0 0 -1.3125 -0.676615l-1.021205 0.598485-3.177456-2.059536a0.85722853 0.80014242 0 0 0 -0.483816 -0.142198z" style="fill:#1383d9"/>
 <path d="m7 2.0000046-6 3.75 4 3.2499996-4 3.2499998 6 3.75 4-3.5 4 3.5 6-3.75-4-3.2499998 4-3.2499996-6-3.75-4 3.5-4-3.5z" style="opacity:.2"/>
 <path d="m7 1.5000002-6 3.75 4 3.25l-4 3.2499998 6 3.75 4-3.5 4 3.5 6-3.75-4-3.2499998 4-3.25-6-3.75-4 3.5-4-3.5z" style="fill:#5aacff"/>
 <path d="m17 9.0000042-6 3.4999998-6-3.4999998 6-3.4999996z" style="opacity:.2"/>
 <path d="M 17,8.5000002 11,12 5,8.5000002 l 6,-3.5 z" style="fill:#ffffff"/>
 <path d="m 7,1.5000002 -6,3.75 L 1.3476562,5.5332033 7,2.0000002 l 4,3.5 4,-3.5 5.652344,3.5332031 L 21,5.2500002 l -6,-3.75 -4,3.5 -4,-3.5 z m -2.3085938,7.25 L 1,11.75 1.3476562,11.966797 5,9.0000002 l -0.3085938,-0.25 z m 12.6171878,0 L 17,9.0000002 20.652344,11.966797 21,11.75 17.308594,8.7500002 Z" style="fill:#ffffff;opacity:.2"/>
</svg>
