<svg width="22" height="22" version="1" xmlns="http://www.w3.org/2000/svg">
 <g transform="translate(-1,-1)">
  <g transform="matrix(.5 0 0 .5 .00017 1.5)" style="opacity:.2">
   <path d="m38.0578 4.1033393-20.231418 4.2133783c-3.540675 0.425971-3.826722 3.6829394-3.826382 3.6786264v14.270656c-0.653-0.173-1.325-0.262-2-0.266-4.4183 0-8 3.5817-8 8s3.5817 8 8 8c4.0287-0.0038 7.4261-3.0029 7.9297-7 0 0 0.07031-0.72732 0.07031-1v-20.07l16-3.458025v11.793682c-0.653-0.173-1.325-0.262-2-0.266-4.4183 0-8 3.5817-8 8s3.5817 8 8 8c4.0287-0.0038 7.4261-3.0029 7.9297-7l0.07-1v-22.70271s0.0273-3.9023963-3.94191-3.1936082z"/>
  </g>
  <g transform="matrix(.5 0 0 .5 .00017 1.0001714)" style="fill:#3c8cf8">
   <path d="m38.0578 4.1033393-20.231418 4.2133783c-3.540675 0.425971-3.826722 3.6829394-3.826382 3.6786264v14.270656c-0.653-0.173-1.325-0.262-2-0.266-4.4183 0-8 3.5817-8 8s3.5817 8 8 8c4.0287-0.0038 7.4261-3.0029 7.9297-7 0 0 0.07031-0.72732 0.07031-1v-20.07l16-3.458025v11.793682c-0.653-0.173-1.325-0.262-2-0.266-4.4183 0-8 3.5817-8 8s3.5817 8 8 8c4.0287-0.0038 7.4261-3.0029 7.9297-7l0.07-1v-22.70271s0.0273-3.9023963-3.94191-3.1936082z" style="fill:#4f4f4f"/>
  </g>
  <g transform="matrix(.5 0 0 .5 .00017 1.0001714)" style="fill:#ffffff;opacity:.1">
   <path transform="matrix(2,0,0,2,-3.4e-4,-2.0003428)" d="m19.683594 3.0195312c-0.18956-0.019436-0.406221-0.011096-0.654297 0.033203l-10.115234 2.1054689c-1.7703375 0.2129855-1.9142325 1.8420003-1.9140625 1.8398438v0.5c-1.7e-4 0.0021565 0.143725-1.6268583 1.9140625-1.8398438l10.115234-2.1074219c1.984605-0.354394 1.970703 1.5976563 1.970703 1.5976563v-0.5s0.01051-1.4928511-1.316406-1.6289063zm-2.683594 8.9804688c-2.20915 0-4 1.79085-4 4 0 0.08558 0.02009 0.165752 0.02539 0.25 0.131402-2.090432 1.851043-3.75 3.97461-3.75 0.3375 2e-3 0.6735 0.04631 1 0.132812v-0.5c-0.3265-0.086499-0.6625-0.130812-1-0.132812zm-11 2c-2.20915 0-4 1.79085-4 4 0 0.08558 0.020095 0.165752 0.025391 0.25 0.1314005-2.090432 1.8510424-3.75 3.974609-3.75 0.3375 2e-3 0.6735 0.04631 1 0.132812v-0.5c-0.3265-0.086499-0.6625-0.130812-1-0.132812z" style="fill:#ffffff"/>
  </g>
 </g>
 <circle cx="16" cy="16" r="6" style="fill:#69c561"/>
 <g transform="matrix(.5 0 0 .5 -2.5 -1)" style="fill:#ffffff">
  <rect x="33" y="34" width="2" height="6"/>
  <rect x="29" y="36" width="2" height="4"/>
  <rect x="37" y="32" width="2" height="8"/>
  <rect x="41" y="28" width="2" height="12"/>
 </g>
</svg>
