<svg width="22" height="22" version="1" xmlns="http://www.w3.org/2000/svg">
 <path d="M 22,11 A 10.5,10.5 0 0 1 11.5,21.5 10.5,10.5 0 0 1 1,11 10.5,10.5 0 0 1 11.5,0.5 10.5,10.5 0 0 1 22,11 Z" style="opacity:.2"/>
 <path d="m17.098633 7.97691-1.931641 1.132811-0.907226 0.532227a1.0001 1.0001 0 0 1 -1.238281 -0.181641c-0.711981-0.765751-2.346826-1.460936-4.271485-1.460936-1.4233365 0-2.6983255 0.362991-3.5458985 0.878905-0.847573 0.515915-1.2041015 1.098529-1.2041015 1.621094 0 0.522564 0.3565285 1.105179 1.2041015 1.621094 0.847573 0.515914 2.122562 0.878906 3.5458985 0.878906 1.924659 0 3.559504-0.695187 4.271485-1.460938a1.0001 1.0001 0 0 1 1.238281 -0.18164l0.907226 0.532226 1.931641 1.132813c-0.01869-0.04968-0.0193-0.04045-0.03808-0.0918-0.265577-0.726124-0.560553-1.565145-0.560553-2.430661s0.294961-1.704756 0.560547-2.430663c0.01879-0.05136 0.01938-0.0421 0.03808-0.091797z" style="fill:#72a0d1"/>
 <path d="M 22,10.5 A 10.5,10.5 0 0 1 11.5,21 10.5,10.5 0 0 1 1,10.5 10.5,10.5 0 0 1 11.5,0 10.5,10.5 0 0 1 22,10.5 Z" style="fill:#d76337"/>
 <path d="m17.769531 6.000226c-0.276925 0.00864-0.55306 0.088251-0.794922 0.2304688l-2.818359 1.6542968-0.412109 0.2402344c-1.276437-0.9914737-2.982612-1.625-4.994141-1.625-1.7523004 0-3.3524197 0.421038-4.5859375 1.171875s-2.1640626 1.917694-2.1640625 3.328125c-1e-7 1.410431 0.9305448 2.577288 2.1640625 3.328125s2.833637 1.171875 4.5859375 1.171875c2.011371 0 3.716098-0.635866 4.992188-1.626953l0.414062 0.242187 2.820312 1.654297c1.07829 0.632185 2.523524-0.218264 2.523438-1.458984a1.0001 1.0001 0 0 0 -0.0918 -0.419922s-0.23432-0.505503-0.46875-1.146484c-0.234424-0.640982-0.43945-1.456998-0.43945-1.744141 0-0.287144 0.205023-1.103159 0.439453-1.744141 0.23443-0.6409812 0.46875-1.146484 0.46875-1.146484a1.0001 1.0001 0 0 0 0.091797 -0.4199219c6.09e-4 -0.9322302-0.786392-1.7179374-1.728516-1.6894531a1.0001 1.0001 0 0 0 -2e-3 0z" style="opacity:.2"/>
 <path d="m17.769531 5.5c-0.276925 0.00864-0.55306 0.088251-0.794922 0.2304688l-2.818359 1.6542968-0.412109 0.2402344c-1.276437-0.9914737-2.982612-1.625-4.994141-1.625-1.7523004 0-3.3524197 0.421038-4.5859375 1.171875s-2.1640626 1.917694-2.1640625 3.328125c-1e-7 1.410431 0.9305448 2.577288 2.1640625 3.328125s2.833637 1.171875 4.5859375 1.171875c2.011371 0 3.716098-0.635866 4.992188-1.626953l0.414062 0.242187 2.820312 1.654297c1.07829 0.632185 2.523524-0.218264 2.523438-1.458984a1.0001 1.0001 0 0 0 -0.0918 -0.419922s-0.23432-0.505503-0.46875-1.146484c-0.234424-0.640982-0.43945-1.456998-0.43945-1.744141 0-0.287144 0.205023-1.103159 0.439453-1.7441406s0.46875-1.1464844 0.46875-1.1464844a1.0001 1.0001 0 0 0 0.091797 -0.4199219c6.09e-4 -0.9322302-0.786392-1.7179374-1.728516-1.6894531a1.0001 1.0001 0 0 0 -2e-3 0z" style="fill:#142f56"/>
 <path d="M 17.097656,7.9765625 15.167969,9.109375 14.259766,9.642578 C 13.85544,9.879689 13.34068,9.80418 13.021484,9.460938 12.309505,8.6951873 10.674659,8 8.75,8 7.3266633,8 6.050698,8.3629926 5.203125,8.8789062 4.355552,9.39482 4,9.977435 4,10.5 4,11.022564 4.355552,11.603226 5.203125,12.119141 6.050698,12.635055 7.3266635,13 8.75,13 c 1.924659,0 3.559502,-0.695188 4.271484,-1.460938 0.319196,-0.343242 0.833956,-0.418751 1.238282,-0.18164 l 0.908203,0.53125 1.929687,1.132812 c -0.01863,-0.04951 -0.0184,-0.04063 -0.03711,-0.0918 C 16.794977,12.203561 16.5,11.365516 16.5,10.5 c 0,-0.865516 0.294963,-1.7057331 0.560547,-2.4316406 0.01874,-0.051219 0.01846,-0.042242 0.03711,-0.091797 z" style="fill:#8dc6ff"/>
 <path d="M 11.5,0 A 10.5,10.5 0 0 0 1,10.5 10.5,10.5 0 0 0 1.0097656,10.796875 10.5,10.5 0 0 1 11.5,0.5 10.5,10.5 0 0 1 21.990234,10.703125 10.5,10.5 0 0 0 22,10.5 10.5,10.5 0 0 0 11.5,0 Z" style="fill:#ffffff;opacity:.2"/>
</svg>
