<svg width="22" height="22" version="1" xmlns="http://www.w3.org/2000/svg">
 <rect transform="matrix(0,-1,-1,0,0,0)" x="-21.5" y="-21" width="19.999" height="19.999" rx="10" ry="10" style="opacity:.2"/>
 <rect transform="matrix(0,-1,-1,0,0,0)" x="-21" y="-21" width="19.999" height="19.999" rx="10" ry="10" style="fill:#4882e3"/>
 <path d="m9.7201 1.0840295c-1.3003 0.16479-2.5193 0.57942-3.6122 1.1913l0.70993 0.17773 0.45897 0.32128v0.27538l0.7813 0.5059-0.183 0.7353-0.413-0.3212-0.2765 0.3212-0.3215 0.1836-0.1835-0.5517 0.092-0.3213-0.092-0.2295-0.46-0.414h-0.18359l0.18359 0.45995v0.41307c-0.1804-0.0504-0.3664-0.0683-0.5514-0.0919l0.50583 0.36815 0.045899 0.22948 0.59763 0.50583 0.59668-0.13769v-0.36815l0.27636 0.18359-0.13769 0.32226h0.45897l0.23046 0.41307 0.27538 0.32226 0.55173 0.091792-0.32226 0.32128-0.091792 0.32226h0.41405l0.50488 0.27538v0.82712h-0.22948l-0.2297 0.2294-0.5058-0.2295-0.1836-0.5059-0.3681-0.2294-0.0459-0.1836-0.5967-0.1377-0.3223 0.3672-0.3671 0.1835 0.2294 0.4141-0.3212-0.0918-0.1846-0.414 0.414-0.459h-0.18359l-0.36815 0.32128-0.091792 0.45995-0.32128 0.41307-0.0918-0.5967-0.1845-0.0928c-0.1946 0.2062-0.341 0.4575-0.5049 0.6895l-0.64353 0.045899-0.32226 0.23046 0.13867 0.22948 0.36718 0.32128h0.50583l0.6894-0.2295 0.3213 0.0459 0.2754 0.2754 0.7353-0.7353 0.5058-0.1377 0.7354 0.0918 0.6894 0.1845c0.3754 0.4343 0.7471 0.881 1.1025 1.332l0.4142 1.0576005-0.1847 0.1836 0.3677 0.5518-0.4136 0.965c-0.3347 0.386-0.6765 0.762-1.0107 1.148l-0.5059-0.413-0.1836 0.23-0.5517-0.322-0.18359 0.18359h-0.50488l-0.32226 0.36718 0.18359 0.64353-0.36718 0.41405 0.045898 0.73533-0.32128 0.55078 0.22948 0.45994c0.019589 0.334459 0.045899 0.676179 0.045899 1.010699-0.1613 0.45318-0.35352 0.87652-0.50583 1.333l-0.091792 0.73533v0.36718h-0.27538l-0.45995-0.27538h-0.43846c1.6375 1.1704 3.6402 1.8661 5.8153 1.8661 1.6333 0 3.1683-0.39618 4.5272-1.0849l0.02246-0.0459-0.32226-0.32128-0.09179-0.32226-0.50488-0.13769-0.36815-1.0107 0.09179-0.22948-0.22948-0.41405-0.59763-0.13769-0.27538-0.68943 0.0459-0.91892-0.45995-0.64353-0.0459-0.64353c0.62708-0.31726 1.2164-0.63813 1.8388-0.96482l0.32128-0.64353 0.55173-0.13769 0.32128-0.82712 0.73533 0.09179 0.68943-0.50488 0.68943 0.64258v0.09179c0.20808-0.06132 0.45826-0.06741 0.64353-0.18359l0.13769-0.45897v-0.45994l0.45897 0.0459c-0.03823-0.30893-0.09931-0.65593-0.13769-0.96482h0.27636l0.27538 0.36718 0.27538 0.13769 0.36815-0.22948 0.0459-0.4589695-0.0459-0.55173-0.59763-0.41405h-0.45897l-0.09277-0.27538-0.55078 0.13769-0.41405 0.50583-0.09179-0.87302-0.735-0.5969-0.23-0.6894-0.551-0.2295-0.322-0.414-0.689-0.1377-0.322-0.5517h1.0117l-0.64353-0.27538h-0.45995l-0.59668-0.22948-0.09277 0.59668-0.27538-0.41307 0.32128-0.22948-0.09179-0.23046 0.23046-0.22948 0.27538-0.045899-0.09179-0.27538 0.22948-0.41405 0.45995 0.18359-0.09179-0.36718 0.55078-0.32226 0.41405 0.78123-0.0459 0.23046 0.41307 0.18359 0.27636 0.59763 0.09179-0.55173 0.73533-0.27538 0.13769-0.41405-0.96482-0.55173-0.41405-0.41307-0.0459-0.50583 0.02441-0.014648c-0.107-0.0708-0.22-0.1326-0.329-0.1993l0.16601 0.39843h-0.45994l-0.13769-0.36815-0.41307 0.32128h-0.36815v-0.36718l0.41405-0.18456 0.36718 0.23046-0.0459-0.091792c-0.185-0.1334-0.363-0.2857-0.551-0.4141l-0.46 0.1387c-0.286 0.1979-0.541 0.3989-0.827 0.5966l-0.46-0.413 0.506-0.1836 0.183-0.46 0.359-0.04c-0.194-0.0716-0.386-0.14432-0.585-0.20412l-0.92187 0.65818v0.41307l0.367 0.4141-0.504 1.0107-0.369-0.1836-0.413-0.6894c-0.617-0.1946-1.21-0.4203-1.7928-0.6895l0.0459 0.2754-0.2754 0.1846-0.5058-0.3682 0.2304-0.2754 0.3672 0.1836 0.0459-0.0459-0.4521-1.2314zm-4.5975 1.828c-0.1561 0.1135-0.3147 0.2236-0.4638 0.3457l0.18261 0.20605 0.50583-0.55173h-0.2246zm3.8085 0.50583h0.27636v0.27538l-0.18359 0.22948v0.41405l0.091792 0.59763-0.4605-0.0919-0.367-0.322 0.3215-0.3213c0.1007-0.2738 0.1951-0.5186 0.3212-0.7812zm0.6894 0.5977 0.2764 0.0918-0.0459 0.5508-0.414-0.2294 0.1835-0.413zm-7.1688 4.6873-0.414 0.459-0.459-0.046c-0.16153 0.15-0.32212 0.2785-0.47262 0.428-0.06885 0.4755005-0.10645 0.9619005-0.10645 1.4569005 0 3.2835 1.574 6.1778 4.0038 7.998799l-0.622-0.739 0.0928-0.321-0.5518-0.46 0.4131-0.414-0.459-0.367-0.4599-0.275-0.1836-0.231 0.13769-0.50488v-1.2871l-0.36718-0.781229-0.41405-0.459951-0.50583-1.194299v-0.32226c0.23653 0.03041 0.45799 0.07601 0.68943 0.09277l-0.4591-0.505-0.6436-0.460001-0.36811-0.4132v-0.4140495c0.07882-0.1516 0.15114-0.3533 0.23051-0.5049l0.32128 0.41307 0.22948-0.32128 0.36815-0.27636v-0.55078zm1.792 0.2295-0.4131 0.5049-0.5517 1.1494995-0.32128 0.36718 0.18359 0.41405-0.32128 0.36718c0.13426 0.0088 0.2751 0 0.41307 0 0.25063-0.53738 0.45267-1.0921 0.64353-1.6542l0.3213-0.3669995 0.1846-0.6894-0.1387-0.0918zm16.748 1.8055995c-0.01833 0.03204-0.0664 0.12402-0.0664 0.12402l-0.78123 0.45995-0.82712 0.22948-0.32226 0.45995-0.55078 0.41307-0.27636-0.09179-0.22948 0.13769v0.0459l0.27538 0.87302 0.23046 0.32226-0.0459 0.18359 0.18359 0.68943-0.68943 1.2412-0.68943 0.64258-0.32128 0.41405 0.0459 0.96482-0.23046 0.50583 0.16894 0.74218c2.5033-1.8139 4.1327-4.753099 4.1327-8.0942 0-0.08804-0.0046-0.17521-0.0068-0.262689z" style="opacity:.2"/>
 <path d="m11 1.0005795c-5.5398 0-9.9997 4.4599-9.9997 9.9997005 0 0.084-2e-3 0.1665 0 0.24999 0.13178-5.4233005 4.5434-9.7502005 9.9997-9.7502005 5.4558 0 9.8677 4.3269 9.9997 9.7497005 2e-3 -0.0835 0-0.166 0-0.24999 0-5.5398005-4.4599-9.9997005-9.9997-9.9997005z" style="fill:#ffffff;opacity:.2"/>
</svg>
