<svg width="22" height="22" version="1" xmlns="http://www.w3.org/2000/svg">
 <g transform="translate(-1,-1)">
  <rect transform="matrix(0,-1,-1,0,0,0)" x="-22.5" y="-22" width="20" height="20" rx="1.5" ry="1.5" style="opacity:.2"/>
  <rect transform="matrix(0,-1,-1,0,0,0)" x="-22" y="-22" width="20" height="20" rx="1.5" ry="1.5" style="fill:#1e87e4"/>
  <path d="m3.5 2c-0.831 0-1.5 0.669-1.5 1.5v0.5c0-0.831 0.669-1.5 1.5-1.5h17c0.831 0 1.5 0.669 1.5 1.5v-0.5c0-0.831-0.669-1.5-1.5-1.5z" style="fill:#ffffff;opacity:.2"/>
  <path d="m20.001 5.3363q0 0.9965-1.707 2.7031l-2.748 2.7486 1.637 8.544 0.012 0.069q0 0.16-0.103 0.264l-0.734 0.733q-0.103 0.102-0.263 0.102-0.241 0-0.332-0.205l-3.138-6.587-2.8066 2.806q0.7786 2.727 0.7786 2.887t-0.103 0.263l-0.7329 0.734q-0.1031 0.102-0.2634 0.102-0.2062 0-0.3207-0.184l-1.7753-3.207-3.2069-1.775q-0.1948-0.102-0.1948-0.321 0-0.16 0.1031-0.263l0.733-0.744q0.1031-0.103 0.2635-0.103 0.1603 0 2.8863 0.779l2.8061-2.806-6.5858-3.1384q-0.2062-0.0915-0.2062-0.3322 0-0.1603 0.1031-0.2634l0.733-0.7329q0.1031-0.1029 0.2635-0.1029 0.0458 0 0.0687 0.0114l8.5447 1.6378 2.748-2.7488q1.708-1.7066 2.703-1.7066 0.367 0 0.602 0.2348 0.235 0.2347 0.235 0.6013z" style="fill:#2873b4"/>
  <path d="m20.001 4.8363q0 0.9965-1.707 2.7031l-2.748 2.7486 1.637 8.544 0.012 0.069q0 0.16-0.103 0.264l-0.734 0.733q-0.103 0.102-0.263 0.102-0.241 0-0.332-0.205l-3.138-6.587-2.8066 2.806q0.7786 2.727 0.7786 2.887t-0.103 0.263l-0.7329 0.734q-0.1031 0.102-0.2634 0.102-0.2062 0-0.3207-0.184l-1.7753-3.207-3.2069-1.775q-0.1948-0.102-0.1948-0.321 0-0.16 0.1031-0.263l0.733-0.744q0.1031-0.103 0.2635-0.103 0.1603 0 2.8863 0.779l2.8061-2.806-6.5858-3.1384q-0.2062-0.0915-0.2062-0.3322 0-0.1603 0.1031-0.2634l0.733-0.7329q0.1031-0.1029 0.2635-0.1029 0.0458 0 0.0687 0.0114l8.5447 1.6378 2.748-2.7488q1.708-1.7066 2.703-1.7066 0.367 0 0.602 0.2348 0.235 0.2347 0.235 0.6013z" style="fill:#ffffff"/>
 </g>
</svg>
