<svg width="22" height="22" version="1" xmlns="http://www.w3.org/2000/svg" xmlns:xlink="http://www.w3.org/1999/xlink">
 <defs>
  <linearGradient id="linearGradient4652" x1="30.577" x2="45" y1="19.129" y2="27.456" gradientTransform="matrix(.5 0 0 .5 -.5 -1.0000004)" gradientUnits="userSpaceOnUse">
   <stop style="stop-color:#7d329a" offset="0"/>
   <stop style="stop-color:#ac5cce" offset="1"/>
  </linearGradient>
 </defs>
 <path d="m9.253973 1.4999123c-2.3658437 0.035402-7.1029611 3.9556499-7.6901643 8.6699227-0.1690912 1.357523 0.00448 2.802943 0.4424237 4.15332 0.2420337 4.2378 5.7243275 6.945145 9.1483076 7.174805 4.188893 0.100177 8.101138-3.517338 8.869961-4.488282 1.406071-2.110761-0.584072-6.660829-2.359593-9.3105468-1.948486-2.9078455-5.580765-5.0251702-8.410935-6.1992189z" style="opacity:.2"/>
 <path d="m7.0000001 10.890016c-1.0162846 3.142944-2.9582336 6.629721-7.0000001 6.045335 0.2672597-2.628774 1.3585835-5.275518 2.900195-7.3993114 0.3249745-0.447697 0.9955165-0.6461799 1.2728815-1.0360399z" style="opacity:.2"/>
 <path d="M 7.0000001,10.390016 C 5.9837155,13.53296 4.0417665,17.019737 0,16.435351 0.2672597,13.806577 1.3585835,11.159833 2.900195,9.0360396 3.2251695,8.5883422 3.8957115,8.3898597 4.1730765,7.9999997 Z" style="fill:#653578"/>
 <path d="m9.253973 0.9999997c-2.3658437 0.035402-7.1029611 3.95565-7.6901643 8.6699219-0.1690912 1.3575244 0.00448 2.8029444 0.4424237 4.1533204 0.2420337 4.2378 5.7243275 6.945146 9.1483076 7.174805 4.188893 0.100178 8.101138-3.517338 8.869961-4.488281 1.406071-2.110761-0.584072-6.6608304-2.359593-9.3105473-1.948486-2.9078455-5.580765-5.0251703-8.410935-6.199219z" style="fill:#7d329a"/>
 <path d="m9.253973 0.9999997c-2.3658437 0.035402-7.1032259 3.95565-7.6904291 8.6699219-0.053374 0.4285054-0.069088 0.8663744-0.056641 1.3066414 0.00742-0.271253 0.023523-0.540757 0.056641-0.806641 0.5872032-4.7142723 5.3245854-8.6345208 7.6904291-8.6699223 2.83017 1.1740487 6.462648 3.2913735 8.411133 6.199219 1.302198 1.9433479 2.71465 4.9059123 2.823242 7.1816413 0.1037-2.324918-1.423072-5.5920854-2.823242-7.6816413-1.948485-2.9078455-5.580963-5.0251703-8.411133-6.199219z" style="fill:#ffffff;opacity:.1"/>
 <ellipse transform="matrix(.67816244 -.73491204 .72426347 .68952333 0 0)" cx="-6.728" cy="14.584" rx="3.486" ry="4.455" style="fill:#fcf8fd"/>
 <path d="m15.890016 6.9999997c3.142943 1.088876 6.629721 3.1695363 6.045335 7.5000003-2.628773-0.28635-5.275518-1.455626-7.399312-3.107352-0.447697-0.348186-0.646179-1.066625-1.036039-1.363802z" style="opacity:.2"/>
 <path d="m15.890016 6.4999997c3.142943 1.088876 6.629721 3.1695359 6.045335 7.5000003-2.628773-0.28635-5.275518-1.455626-7.399312-3.107352-0.447697-0.348186-0.646179-1.0666254-1.036039-1.3638024z" style="fill:url(#linearGradient4652)"/>
 <path d="m7.9610894 10.795081c0.486369 2.154875-3.7080631 4.377165-5.8124304 3.514167-1.0128891-0.415385-1.185493-1.996887-1.1428209-3.234187 0.043013-1.0959474-0.064725-1.4296484 1.0104904-1.5342334 2.0363333-0.192504 5.7310409 0.307354 5.9447609 1.2542534z" style="opacity:.2"/>
 <path d="m7.9610894 10.295081c0.486369 2.154875-3.7080631 4.377165-5.8124304 3.514167-1.0128891-0.415385-1.185493-1.996887-1.1428209-3.234187 0.0430134-1.0959474-0.0647254-1.4296484 1.0104904-1.5342334 2.0363333-0.1925039 5.7310409 0.307354 5.9447609 1.2542534z" style="fill:#ffc102"/>
 <g transform="matrix(.25 0 0 .25 -2.75 1.9999996)" style="opacity:.2">
  <circle transform="scale(-1,1)" cx="-19" cy="26" r="8"/>
  <circle transform="scale(-1,1)" cx="-16.389" cy="25.983" r="4"/>
 </g>
 <circle transform="scale(-1,1)" cx="-6" cy="8.5" r="3" style="opacity:.2"/>
 <circle transform="scale(-1,1)" cx="-6" cy="8" r="3" style="fill:#ffffff"/>
 <circle transform="scale(-1,1)" cx="-5.5" cy="7.5" r="1.5" style="fill:#3f3f3f"/>
 <circle transform="scale(-1,1)" cx="-2" cy="8" r="2" style="fill:#ffffff"/>
 <circle transform="scale(-1,1)" cx="-2" cy="8" r="1" style="fill:#3f3f3f"/>
</svg>
