<svg width="22" height="22" version="1.1" viewBox="0 0 22 22" xmlns="http://www.w3.org/2000/svg">
 <path d="m11.000001 21.5c-0.482732 0-1.00934-0.541445-1.486129-0.616961-0.476787-0.07552-1.1449375 0.276698-1.6040415 0.127526-0.459105-0.149172-0.792624-0.826848-1.2227405-1.046003s-1.174405-0.09065-1.5649425-0.374392-0.4983195-1.031313-0.839662-1.372656c-0.3413426-0.341342-1.0889132-0.449124-1.3726553-0.839662-0.2837424-0.390537-0.1552369-1.134826-0.3743923-1.564943-0.2191553-0.430116-0.8968309-0.763635-1.046003-1.222739s0.2030416-1.127255 0.1275258-1.604043-0.6169607-1.003396-0.6169607-1.486126c0-0.482732 0.541445-1.00934 0.6169608-1.486129 0.0755157-0.476787-0.2766981-1.1449375-0.127526-1.6040415 0.1491721-0.459105 0.826848-0.792624 1.0460034-1.2227405 0.2191553-0.4301165 0.0906496-1.174405 0.3743917-1.5649425 0.2837424-0.3905375 1.0313133-0.4983195 1.3726561-0.839662 0.341342-0.3413425 0.4491235-1.0889132 0.8396615-1.3726553 0.3905375-0.2837424 1.1348265-0.1552369 1.564943-0.3743924 0.4301165-0.2191552 0.763635-0.8968308 1.2227395-1.0460029 0.4591045-0.1491722 1.127255 0.2030416 1.604043 0.1275258s1.003396-0.6169607 1.486127-0.6169607 1.009339 0.541445 1.486128 0.6169608c0.476787 0.075516 1.144937-0.2766981 1.604041-0.127526 0.459105 0.1491722 0.792624 0.826848 1.222741 1.0460034 0.430116 0.2191552 1.174405 0.09065 1.564942 0.3743917 0.390538 0.2837424 0.49832 1.0313136 0.839662 1.3726561 0.341343 0.341342 1.088914 0.4491235 1.372656 0.8396615 0.283742 0.3905375 0.155237 1.1348265 0.374392 1.564943s0.896831 0.763635 1.046003 1.2227395-0.203042 1.127255-0.127526 1.604043 0.616961 1.003396 0.616961 1.486127-0.541445 1.009339-0.616961 1.486128c-0.07552 0.476787 0.276698 1.144937 0.127526 1.604041-0.149172 0.459105-0.826848 0.792624-1.046003 1.222741-0.219155 0.430116-0.09065 1.174405-0.374392 1.564942-0.283742 0.390538-1.031313 0.49832-1.372656 0.839662-0.341342 0.341343-0.449123 1.088914-0.839661 1.372656s-1.134827 0.155237-1.564943 0.374392c-0.430117 0.219155-0.763635 0.896831-1.22274 1.046003-0.459104 0.149172-1.127255-0.203042-1.604043-0.127526s-1.003396 0.616961-1.486126 0.616961z" style="fill-rule:evenodd;opacity:.2"/>
 <path d="m11.000001 21c-0.482732 0-1.00934-0.541445-1.486129-0.616961-0.476787-0.07552-1.1449375 0.276698-1.6040415 0.127526-0.459105-0.149172-0.792624-0.826848-1.2227405-1.046003s-1.174405-0.09065-1.5649425-0.374392-0.4983195-1.031313-0.839662-1.372656c-0.3413426-0.341342-1.0889132-0.449124-1.3726553-0.839662-0.2837424-0.390537-0.1552369-1.134826-0.3743923-1.564943-0.2191553-0.430116-0.8968309-0.763635-1.046003-1.222739s0.2030416-1.127255 0.1275258-1.604043-0.6169607-1.003396-0.6169607-1.486126c0-0.482732 0.541445-1.00934 0.6169608-1.486129 0.0755157-0.476787-0.2766981-1.1449375-0.127526-1.6040415 0.1491721-0.459105 0.826848-0.792624 1.0460034-1.2227405 0.2191553-0.4301165 0.0906496-1.174405 0.3743917-1.5649425 0.2837424-0.3905375 1.0313133-0.4983195 1.3726561-0.839662 0.341342-0.3413426 0.4491235-1.0889132 0.8396615-1.3726553 0.3905375-0.2837424 1.1348265-0.1552369 1.564943-0.3743923 0.4301165-0.2191553 0.763635-0.8968309 1.2227395-1.046003s1.127255 0.2030416 1.604043 0.1275258 1.003396-0.6169607 1.486127-0.6169607 1.009339 0.541445 1.486128 0.6169608c0.476787 0.075516 1.144937-0.2766981 1.604041-0.127526 0.459105 0.1491722 0.792624 0.826848 1.222741 1.0460034 0.430116 0.2191552 1.174405 0.09065 1.564942 0.3743917 0.390538 0.2837424 0.49832 1.0313133 0.839662 1.3726561 0.341343 0.341342 1.088914 0.4491235 1.372656 0.8396615 0.283742 0.3905375 0.155237 1.1348265 0.374392 1.564943s0.896831 0.763635 1.046003 1.2227395-0.203042 1.127255-0.127526 1.604043 0.616961 1.003396 0.616961 1.486127-0.541445 1.009339-0.616961 1.486128c-0.07552 0.476787 0.276698 1.144937 0.127526 1.604041-0.149172 0.459105-0.826848 0.792624-1.046003 1.222741-0.219155 0.430116-0.09065 1.174405-0.374392 1.564942-0.283742 0.390538-1.031313 0.49832-1.372656 0.839662-0.341342 0.341343-0.449123 1.088914-0.839661 1.372656s-1.134827 0.155237-1.564943 0.374392c-0.430117 0.219155-0.763635 0.896831-1.22274 1.046003-0.459104 0.149172-1.127255-0.203042-1.604043-0.127526s-1.003396 0.616961-1.486126 0.616961z" style="fill-rule:evenodd;fill:#ff8e03"/>
 <path d="m11 19.5c-0.386185 0-0.807471-0.433156-1.188902-0.493569-0.381431-0.06041-0.91595 0.221359-1.283234 0.102021-0.3672835-0.119338-0.6340985-0.661479-0.978192-0.836803-0.344093-0.175324-0.939524-0.072519-1.251954-0.299513s-0.3986555-0.825051-0.6717295-1.098124c-0.273074-0.273075-0.8711305-0.359299-1.0981245-0.67173-0.2269935-0.31243-0.1241895-0.907861-0.2995135-1.251954-0.1753245-0.344094-0.7174649-0.610908-0.8368026-0.978192-0.1193377-0.367283 0.1624334-0.901804 0.1020207-1.283234-0.0604126-0.38143-0.4935686-0.802717-0.4935686-1.188902s0.4331561-0.807471 0.4935687-1.188902-0.2213586-0.91595-0.1020209-1.283234c0.1193377-0.3672835 0.6614787-0.6340985 0.8368027-0.978192 0.1753245-0.344093 0.0725195-0.939524 0.2995135-1.251954s0.8250505-0.3986555 1.0981245-0.6717295 0.359299-0.8711305 0.6717295-1.0981245c0.31243-0.2269935 0.907861-0.1241895 1.2519545-0.2995135 0.344093-0.1753245 0.610908-0.717465 0.9781915-0.8368025 0.3672835-0.1193378 0.901804 0.1624335 1.283235 0.1020206 0.38143-0.0604126 0.802716-0.4935686 1.188901-0.4935686s0.807472 0.4331561 1.188902 0.4935687c0.381431 0.060413 0.91595-0.2213586 1.283234-0.1020209s0.634099 0.6614787 0.978192 0.8368027c0.344093 0.1753245 0.939524 0.072519 1.251954 0.2995135 0.31243 0.226994 0.398655 0.8250505 0.67173 1.0981245 0.273074 0.273074 0.87113 0.359299 1.098124 0.6717295 0.226994 0.31243 0.12419 0.907861 0.299514 1.2519545 0.175324 0.344093 0.717465 0.610908 0.836802 0.9781915 0.119338 0.367283-0.162433 0.901804-0.10202 1.283235 0.060412 0.38143 0.493568 0.802716 0.493568 1.188901s-0.433156 0.807472-0.493569 1.188902c-0.06041 0.381431 0.221359 0.91595 0.102021 1.283234s-0.661479 0.634099-0.836803 0.978192-0.07252 0.939524-0.299513 1.251954c-0.226994 0.31243-0.825051 0.398655-1.098125 0.67173-0.273074 0.273074-0.359299 0.87113-0.671729 1.098124s-0.907861 0.12419-1.251955 0.299514c-0.344093 0.175324-0.610908 0.717465-0.978191 0.836802-0.367283 0.119338-0.901804-0.162434-1.283234-0.10202-0.38143 0.060412-0.802717 0.493568-1.188902 0.493568z" style="fill-rule:evenodd;opacity:.2"/>
 <path d="m11 1c-0.482731 0-1.00954 0.5416718-1.486328 0.6171875-0.476788 0.0755159-1.144411-0.2771019-1.603516-0.1279297-0.4591045 0.1491721-0.7925395 0.8267431-1.222656 1.0458985s-1.174892 0.0912576-1.5654295 0.375c-0.390538 0.2837421-0.498502 1.0307277-0.839844 1.3720702-0.3413427 0.3413425-1.0883279 0.4493065-1.3720703 0.839844-0.2837421 0.3905375-0.1558447 1.135313-0.375 1.5654295-0.2191554 0.4301165-0.8967262 0.7635515-1.0458984 1.222656-0.051317 0.157937-0.036365 0.3430655-0.00684 0.53418 0.00298-0.01111 0.0033-0.0233 0.00684-0.03418 0.1491722-0.4591045 0.826743-0.7925395 1.0458984-1.222656 0.2191553-0.4301165 0.0912579-1.174892 0.375-1.5654295 0.2837424-0.3905375 1.0307276-0.4985015 1.3720703-0.839844 0.341342-0.3413425 0.449306-1.0883281 0.839844-1.3720703 0.3905375-0.2837423 1.135313-0.1558445 1.5654295-0.375 0.4301165-0.2191553 0.763552-0.8967263 1.222656-1.0458984 0.459105-0.1491722 1.126728 0.2034455 1.603516 0.1279297 0.476788-0.0755157 1.003597-0.6171875 1.486328-0.6171875 0.482732 0 1.00954 0.5416717 1.486328 0.6171875 0.476788 0.075516 1.144412-0.2771018 1.603516-0.1279297 0.459105 0.1491722 0.79254 0.826743 1.222656 1.0458984 0.430116 0.2191553 1.174892 0.091258 1.565429 0.375 0.390538 0.2837425 0.498502 1.0307278 0.839844 1.3720703 0.341343 0.341342 1.088328 0.449306 1.372071 0.839844 0.283742 0.3905375 0.155844 1.135313 0.375 1.5654295 0.219155 0.4301165 0.896726 0.763552 1.045898 1.222656 0.0036 0.01088 0.0038 0.02307 0.0068 0.03418 0.02953-0.1911145 0.04448-0.3762425-0.0068-0.53418-0.149172-0.459104-0.826743-0.7925395-1.045898-1.222656-0.219156-0.4301165-0.091258-1.174892-0.375-1.5654295-0.283743-0.390538-1.030728-0.498502-1.372071-0.839844-0.341342-0.3413427-0.449306-1.0883278-0.839844-1.3720702-0.390537-0.2837422-1.135313-0.1558448-1.565429-0.375-0.430116-0.2191555-0.763551-0.8967263-1.222656-1.0458985-0.459104-0.1491721-1.126728 0.2034455-1.603516 0.1279297s-1.003596-0.6171875-1.486328-0.6171875zm-9.4003906 8.580078c-0.1108212 0.459087-0.5996094 0.959339-0.5996094 1.419922 0 0.08213 0.019515 0.165793 0.045898 0.25 0.1286931-0.410742 0.508621-0.840657 0.571289-1.236328 0.020973-0.132418 0.00753-0.280233-0.017578-0.433594zm18.800781 0c-0.02511 0.153362-0.03855 0.301176-0.01758 0.433594 0.06267 0.39567 0.442596 0.825587 0.571289 1.236328 0.026386-0.084207 0.045901-0.167871 0.045901-0.25 0-0.460582-0.488788-0.960836-0.59961-1.419922zm-18.800781 3.339844c-0.063154 0.385751-0.2051611 0.808259-0.1171875 1.135742 0.056309-0.364432 0.1843031-0.756568 0.1347656-1.069336-0.00346-0.02187-0.012249-0.04433-0.017578-0.06641zm18.800781 0c-0.0053 0.02208-0.01412 0.04453-0.01758 0.06641-0.04953 0.312768 0.07846 0.704904 0.134766 1.069336 0.08797-0.327482-0.05403-0.749991-0.117188-1.135742z" style="fill-rule:evenodd;fill:#ffffff;opacity:.2"/>
 <path d="m18.85379 1.5c1.744999 1.7 1.744999 6.8-1.744998 8.5l-3.489996-3.3999995c3.489996 0 5.234994-3.4000006 5.234994-5.1000005z" style="opacity:.2"/>
 <path d="m18.85379 1c1.744999 1.7 1.744999 6.8-1.744998 8.5l-3.489996-3.3999995c3.489996 0 5.234994-3.4000005 5.234994-5.1000005z" style="fill:#f95050"/>
 <path d="m3.1462096 1.5c-1.7449984 1.6999999-1.7449984 6.8 1.7449984 8.5l3.489996-3.3999995c-3.489996 0-5.2349944-3.4000006-5.2349944-5.1000005z" style="opacity:.2"/>
 <path d="M 3.1462096,1 C 1.4012112,2.7 1.4012112,7.8 4.891208,9.5 L 8.381204,6.1000005 C 4.891208,6.1000005 3.1462096,2.7 3.1462096,1 Z" style="fill:#f95050"/>
 <path d="m11 19c-0.386185 0-0.807471-0.433156-1.188902-0.493569s-0.91595 0.221359-1.283234 0.102021c-0.3672835-0.119338-0.6340985-0.661479-0.978192-0.836803-0.344093-0.175324-0.939524-0.072519-1.251954-0.299513s-0.3986555-0.825051-0.6717295-1.098124c-0.273074-0.273075-0.8711305-0.359299-1.0981245-0.67173-0.2269935-0.31243-0.1241895-0.907861-0.2995135-1.251954-0.1753245-0.344094-0.7174649-0.610908-0.8368026-0.978192-0.1193377-0.367283 0.1624334-0.901804 0.1020207-1.283234-0.0604126-0.38143-0.4935686-0.802717-0.4935686-1.188902s0.4331561-0.807471 0.4935687-1.188902-0.2213586-0.91595-0.1020209-1.283234c0.1193377-0.3672835 0.6614787-0.6340985 0.8368027-0.978192 0.1753245-0.344093 0.0725195-0.939524 0.2995135-1.251954s0.8250505-0.3986555 1.0981245-0.6717295 0.359299-0.8711305 0.6717295-1.0981245c0.31243-0.2269935 0.907861-0.1241895 1.2519545-0.2995135 0.344093-0.1753245 0.610908-0.7174649 0.9781915-0.8368025 0.3672835-0.1193378 0.901804 0.1624334 1.283235 0.1020206 0.38143-0.0604126 0.802716-0.4935686 1.188901-0.4935686s0.807472 0.4331561 1.188902 0.4935687c0.381431 0.060413 0.91595-0.2213586 1.283234-0.1020209s0.634099 0.6614787 0.978192 0.8368027c0.344093 0.1753245 0.939524 0.072519 1.251954 0.2995135 0.31243 0.226994 0.398655 0.8250505 0.67173 1.0981245 0.273074 0.273074 0.87113 0.359299 1.098124 0.6717295 0.226994 0.31243 0.12419 0.907861 0.299514 1.2519545 0.175324 0.344093 0.717465 0.610908 0.836802 0.9781915 0.119338 0.3672835-0.162433 0.901804-0.10202 1.283235 0.060412 0.38143 0.493568 0.802716 0.493568 1.188901s-0.433156 0.807472-0.493569 1.188902c-0.06041 0.381431 0.221359 0.91595 0.102021 1.283234s-0.661479 0.634099-0.836803 0.978192-0.07252 0.939524-0.299513 1.251954c-0.226994 0.31243-0.825051 0.398655-1.098125 0.67173-0.273074 0.273074-0.359299 0.87113-0.671729 1.098124s-0.907861 0.12419-1.251955 0.299514c-0.344093 0.175324-0.610908 0.717465-0.978191 0.836802-0.367283 0.119338-0.901804-0.162434-1.283234-0.10202-0.38143 0.060412-0.802717 0.493568-1.188902 0.493568z" style="fill-rule:evenodd;fill:#ffd059"/>
 <path d="m 11,10 c 0,0 -0.57673,-0.877102 -0.733735,-1.2767058 -0.157009,-0.399604 -0.327455,-0.8063725 -0.244579,-1.09432 0.08288,-0.287943 0.215815,-0.4380655 0.489158,-0.5471565 0.273342,-0.1090915 0.704971,-0.109092 0.978312,0 0.273342,0.109091 0.406279,0.259214 0.489157,0.5471565 0.08288,0.2879475 -0.08757,0.6947155 -0.244578,1.0943205 C 11.57673,9.122898 11,10 11,10 Z" style="opacity:.4"/>
 <path d="m11.000001 12s0.57673 0.877102 0.733734 1.276705c0.157009 0.399605 0.327456 0.806373 0.244579 1.094321-0.08288 0.287942-0.215815 0.438065-0.489158 0.547155-0.273342 0.109092-0.70497 0.109092-0.978312 1e-6s-0.406279-0.259214-0.489157-0.547157c-0.08288-0.287947 0.08757-0.694716 0.244578-1.09432 0.157005-0.399603 0.733736-1.276705 0.733736-1.276705z" style="opacity:.4"/>
 <path d="m11 3c-0.386185 0-0.807046 0.4327514-1.188476 0.493164-0.381431 0.0604127-0.91592-0.2209002-1.2832035-0.1015625s-0.634423 0.6615895-0.978516 0.836914c-0.3440935 0.175324-0.939523 0.072811-1.251953 0.299805-0.3124305 0.226994-0.398801 0.824582-0.671875 1.097656s-0.870662 0.359445-1.097656 0.671875-0.1244805 0.90786-0.299805 1.251953c-0.175324 0.3440935-0.7175762 0.6112325-0.836914 0.978516-0.046584 0.1433695-0.02656 0.313976 0.00488 0.4892575 0.1264294-0.3616455 0.6584585-0.6271165 0.832031-0.9677735 0.1753245-0.344093 0.072811-0.939523 0.299805-1.251953s0.824582-0.398801 1.097656-0.671875 0.3594445-0.870662 0.671875-1.097656c0.312435-0.2269935 0.9078645-0.124481 1.251958-0.299805 0.344093-0.1753245 0.6112325-0.7175765 0.978516-0.8369139 0.3672835-0.1193378 0.9017725 0.1619754 1.2832035 0.1015625 0.381428-0.0604127 0.802289-0.4931641 1.188474-0.4931641s0.807046 0.4327514 1.188477 0.493164c0.38143 0.060413 0.915919-0.2209001 1.283203-0.1015625 0.367283 0.119338 0.634422 0.66159 0.978516 0.836914 0.344093 0.1753245 0.939522 0.072811 1.251952 0.299805s0.398801 0.824582 0.671875 1.097656 0.870662 0.3594445 1.097656 0.671875c0.226994 0.31243 0.124481 0.9078595 0.299805 1.251953 0.173573 0.3406565 0.705602 0.606128 0.832031 0.9677735 0.03145-0.1752815 0.05147-0.3458885 0.0049-0.4892575-0.119337-0.3672835-0.661589-0.634423-0.836914-0.978516-0.175324-0.3440935-0.072811-0.939523-0.299805-1.251953-0.226994-0.3124305-0.824582-0.398801-1.097656-0.671875s-0.359445-0.870662-0.671875-1.097656-0.907859-0.1244805-1.251953-0.299805c-0.34411-0.175324-0.611249-0.7175762-0.978532-0.836914-0.367284-0.1193376-0.901773 0.1619751-1.283203 0.1015625-0.381431-0.0604126-0.802292-0.493164-1.188477-0.493164zm-7.5322266 6.907227c-0.1069612 0.355428-0.4677734 0.738567-0.4677734 1.092773 0 0.08198 0.022382 0.165575 0.053711 0.25 0.1162551-0.313284 0.3918648-0.638015 0.4394531-0.938476 0.019309-0.121911 9.45e-4 -0.261569-0.025391-0.404297zm15.064453 0c-0.02634 0.142728-0.0447 0.282386-0.02539 0.404297 0.04759 0.30046 0.323198 0.625192 0.439453 0.938476 0.031329-0.084425 0.053711-0.168021 0.053711-0.25 0-0.354206-0.360813-0.737345-0.467774-1.092773zm-15.064453 2.685547c-0.056058 0.303838-0.1573676 0.629011-0.076172 0.878906 0.00119 0.0037 0.0036 0.0071 0.00488 0.01074 0.049107-0.273755 0.1335102-0.561407 0.09668-0.793946-5e-3 -0.03158-0.015734-0.06361-0.025391-0.0957zm15.064453 0c-0.0097 0.03209-0.02039 0.06412-0.02539 0.0957-0.03683 0.232538 0.04757 0.520191 0.09668 0.793945 0.0013-0.0037 0.0037-0.0071 0.0049-0.01074 0.0812-0.249895-0.02011-0.575068-0.07617-0.878906z" style="fill-rule:evenodd;fill:#ffffff;opacity:.2"/>
 <path d="m12 11s0.877102-0.57673 1.276706-0.733735c0.399604-0.157009 0.806372-0.327455 1.09432-0.244579 0.287943 0.08288 0.438065 0.215815 0.547156 0.489158 0.109092 0.273342 0.109092 0.704971 0 0.978312-0.109091 0.273342-0.259214 0.406279-0.547156 0.489157-0.287948 0.08288-0.694716-0.08757-1.094321-0.244578-0.399603-0.157005-1.276705-0.733735-1.276705-0.733735z" style="opacity:.4"/>
 <path d="m10 11.000001s-0.877102 0.57673-1.276705 0.733734c-0.399605 0.157009-0.806373 0.327456-1.094321 0.244579-0.287942-0.08288-0.438065-0.215815-0.547155-0.489158-0.109092-0.273342-0.109092-0.70497-1e-6 -0.978312s0.259214-0.406279 0.547157-0.489157c0.287947-0.08288 0.694716 0.08757 1.09432 0.244578 0.399603 0.157005 1.276705 0.733736 1.276705 0.733736z" style="opacity:.4"/>
 <path d="m11.707107 10.292893s0.212395-1.028014 0.383938-1.4215963c0.171541-0.3935848 0.338646-0.8017371 0.600858-0.9467445 0.262211-0.1450015 0.462363-0.1571549 0.732785-0.041011 0.270421 0.1161427 0.575629 0.4213501 0.691771 0.6917711 0.116143 0.2704209 0.10399 0.4705747-0.04101 0.7327837-0.145005 0.262215-0.553159 0.429317-0.946744 0.600859-0.393582 0.171543-1.421596 0.383938-1.421596 0.383938z" style="opacity:.4"/>
 <path d="m10.292894 11.707107s-0.212395 1.028015-0.383939 1.421595c-0.171541 0.393586-0.338645 0.801739-0.600858 0.946746-0.262211 0.145-0.4623629 0.157154-0.7327838 0.04101-0.2704217-0.116143-0.5756288-0.42135-0.6917718-0.691771s-0.1039906-0.470574 0.041012-0.732784c0.1450043-0.262215 0.5531597-0.429317 0.9467439-0.600859 0.3935817-0.171542 1.4215967-0.383937 1.4215967-0.383937z" style="opacity:.4"/>
 <path d="m10.292893 10.292893s-0.212395-1.028014-0.383938-1.4215963c-0.171541-0.3935848-0.338646-0.8017371-0.600858-0.9467445-0.262211-0.1450015-0.4623631-0.1571549-0.7327847-0.0410112-0.2704214 0.1161427-0.5756295 0.4213501-0.6917711 0.6917711-0.116143 0.2704209-0.1039907 0.4705749 0.0410118 0.7327839 0.1450047 0.262215 0.5531594 0.429317 0.9467443 0.600859 0.3935817 0.171543 1.4215957 0.383938 1.4215957 0.383938z" style="opacity:.4"/>
 <path d="m11.707106 11.707107s0.212395 1.028015 0.383939 1.421595c0.171541 0.393586 0.338645 0.801739 0.600858 0.946746 0.262211 0.145 0.462363 0.157154 0.732784 0.04101 0.270422-0.116143 0.575629-0.42135 0.691772-0.691771s0.10399-0.470574-0.04101-0.732784c-0.145004-0.262215-0.553159-0.429317-0.946743-0.600859-0.393582-0.171542-1.421597-0.383937-1.421597-0.383937z" style="opacity:.4"/>
</svg>
