<svg width="22" height="22" version="1.1" viewBox="0 0 22 22" xmlns="http://www.w3.org/2000/svg">
 <path d="M 10.5,1.5 A 9.5,10 0 0 0 2.2695312,6.5195312 2,2 0 0 0 2,6.5 2,2 0 0 0 0,8.5 2,2 0 0 0 1.0800781,10.273438 9.5,10 0 0 0 1,11.5 a 9.5,10 0 0 0 9.5,10 9.5,10 0 0 0 0.837891,-0.04687 l -0.0098,0.0078 C 15.751766,21.227925 19.674931,19.910106 21,19.5 19.009566,18.857165 18.72171,16.928798 19.21875,15.460938 a 9.5,10 0 0 0 0.07422,-0.189454 c 0.03482,-0.08763 0.06126,-0.180574 0.101562,-0.263672 l -0.01367,0.01172 A 9.5,10 0 0 0 20,11.5 9.5,10 0 0 0 19.916016,10.277344 2,2 0 0 0 21,8.5 2,2 0 0 0 19,6.5 2,2 0 0 0 18.724609,6.5214844 9.5,10 0 0 0 10.5,1.5 Z" style="fill-rule:evenodd;opacity:.2"/>
 <ellipse cx="10.5" cy="11" rx="9.5" ry="10" style="fill-rule:evenodd;fill:#cccccc"/>
 <circle cx="19" cy="8" r="2" style="fill-rule:evenodd;fill:#cccccc"/>
 <circle cx="2" cy="8" r="2" style="fill-rule:evenodd;fill:#cccccc"/>
 <path d="m11.327949 20.961689c4.423641-0.233013 8.346982-1.551583 9.672051-1.961689-2.201241-0.710918-2.328408-3-1.6045-4.492535z" style="fill:#cccccc"/>
 <ellipse transform="matrix(.98715126 .1597886 -.18862892 .98204844 0 0)" cx="7.99" cy="7.355" rx="2.466" ry="3.028" style="fill-rule:evenodd;opacity:.1"/>
 <ellipse transform="matrix(.98715126 .1597886 -.18862892 .98204844 0 0)" cx="7.896" cy="6.862" rx="2.466" ry="3.028" style="fill-rule:evenodd;fill:#3f3f3f"/>
 <ellipse transform="matrix(.98725549 -.15914335 .18938562 .98190279 0 0)" cx="12.634" cy="10.704" rx="2.465" ry="3.029" style="fill-rule:evenodd;opacity:.1"/>
 <ellipse transform="matrix(.98725549 -.15914335 .18938562 .98190279 0 0)" cx="12.729" cy="10.21" rx="2.465" ry="3.029" style="fill-rule:evenodd;fill:#3f3f3f"/>
 <path d="M 10.5,1 A 9.5,10 0 0 0 2.2695312,6.0195312 2,2 0 0 0 2,6 2,2 0 0 0 0,8 2,2 0 0 0 0.0175781,8.2539062 2,2 0 0 1 2,6.5 2,2 0 0 1 2.2695312,6.5195312 9.5,10 0 0 1 10.5,1.5 9.5,10 0 0 1 18.724609,6.5214844 2,2 0 0 1 19,6.5 2,2 0 0 1 20.982422,8.2460938 2,2 0 0 0 21,8 2,2 0 0 0 19,6 2,2 0 0 0 18.724609,6.0214844 9.5,10 0 0 0 10.5,1 Z M 1.0429688,10.251953 A 9.5,10 0 0 0 1,11 9.5,10 0 0 0 1.00977,11.199219 9.5,10 0 0 1 1.080082,10.273438 2,2 0 0 1 1.042973,10.251948 Z m 18.9140622,0.002 a 2,2 0 0 1 -0.04102,0.02344 9.5,10 0 0 1 0.07422,1.042968 A 9.5,10 0 0 0 20,11 9.5,10 0 0 0 19.957031,10.253906 Z m -0.93164,6.201172 c -0.07757,1.048672 0.266635,2.13227 1.314453,2.75 C 20.555535,19.13762 20.848827,19.046788 21,19 19.647127,18.563073 19.093317,17.531519 19.025391,16.455078 Z" style="fill-rule:evenodd;fill:#ffffff;opacity:.2"/>
</svg>
