<svg width="22" height="22" version="1.1" xmlns="http://www.w3.org/2000/svg">
 <path d="m7.6660156 14-3.6660156 6h14l4-6z" style="fill:#4e8dcc"/>
 <path d="m7 2 7.333984 12h7.666016l-7-12z" style="fill:#fcc345"/>
 <path d="m7 2-7 12 4 6 7-11.455078z" style="fill:#6cbf48"/>
 <path d="m21.84375 14.232422-3.84375 5.767578h-13.695312l-0.3046875 0.5h14l4-6z" style="opacity:.2"/>
 <path d="m7 2 7.333984 12h7.666016l-7-12z" style="fill:#fcc345;image-rendering:optimizeQuality;shape-rendering:geometricPrecision"/>
 <path d="m7 2.5 7.029297 11.5h0.304687l-7.0292965-11.5z" style="opacity:.2"/>
 <path d="m10.847656 8.7949219-6.847656 11.205078-3.84375-5.767578-0.15625 0.267578l4 6 7-11.455078z" style="opacity:.2"/>
 <path d="m7 2-7 12 0.15625 0.232422 6.84375-11.732422h8l6.84375 11.732422 0.15625-0.232422-7-12zm0.9707031 12-0.3046875 0.5h6.6679684l-0.304687-0.5z" style="fill:#ffffff;opacity:.2"/>
</svg>
