<svg width="22" height="22" version="1.1" viewBox="0 0 22 22" xmlns="http://www.w3.org/2000/svg">
 <path d="m11 1.5v5h-5l-5 5h5v5l5 5v-5h5l4.5-4.5 0.5-0.5h-5v-5z" style="opacity:.2"/>
 <path d="m6 6-5 5h10v-5" style="fill:#fec006"/>
 <path d="m16 6-5-5v10h5" style="fill:#f34235"/>
 <path d="m6 16 5 5v-10h-5" style="fill:#4bae4f"/>
 <path d="m16 16 5-5h-10v5" style="fill:#2095f2"/>
 <path d="m11 11v0.5h9.5l0.5-0.5z" style="fill:#ffffff;opacity:.2"/>
 <path d="m16 6-5 5h5z" style="fill:#9c27b0"/>
 <path d="m6 11v5l5-5z" style="fill:#1ea362"/>
 <path d="m11 11v5h5z" style="fill:#3e50b4"/>
 <path d="m6 6 5 5v-5z" style="fill:#fe9700"/>
 <path d="m11 1v0.5l5 5v-0.5zm-5 5-5 5h0.5l4.5-4.5h5v-0.5z" style="fill:#ffffff;opacity:.2"/>
 <path d="m11 8.5-1 2-2 1 2 1 1 2 1-2 2-1-2-1z" style="opacity:.2"/>
 <path d="m11 8-1 2-2 1 2 1 1 2 1-2 2-1-2-1z" style="fill:#ffffff"/>
 <path d="m8 11 2 1 1 2v-3z" style="fill:#ebebeb"/>
 <path d="m14 11-2 1-1 2v-3z" style="fill:#dfdfdf"/>
</svg>
