<svg width="22" height="22" version="1" xmlns="http://www.w3.org/2000/svg">
 <rect x="1" y="4" width="20" height="14" rx="1" ry="1" style="fill:#4f4f4f"/>
 <path d="m2 4c-0.554 0-1 0.446-1 1v0.5c0-0.554 0.446-1 1-1h18c0.554 0 1 0.446 1 1v-0.5c0-0.554-0.446-1-1-1z" style="fill:#ffffff;opacity:.1"/>
 <path d="m1 17v0.5c0 0.554 0.446 1 1 1h18c0.554 0 1-0.446 1-1v-0.5c0 0.554-0.446 1-1 1h-18c-0.554 0-1-0.446-1-1z" style="opacity:.2"/>
 <circle cx="5" cy="8.5" r="1" style="opacity:.2"/>
 <circle cx="8" cy="8.5" r="1" style="opacity:.2"/>
 <circle cx="11" cy="8.5" r="1" style="opacity:.2"/>
 <circle cx="14" cy="8.5" r="1" style="opacity:.2"/>
 <circle cx="17" cy="8.5" r="1" style="opacity:.2"/>
 <circle cx="7" cy="12.5" r="1" style="opacity:.2"/>
 <circle cx="10" cy="12.5" r="1" style="opacity:.2"/>
 <circle cx="13" cy="12.5" r="1" style="opacity:.2"/>
 <circle cx="16" cy="12.5" r="1" style="opacity:.2"/>
 <rect x="4" y="15.5" width="14" height="2" rx=".5" ry=".5" style="opacity:.2"/>
 <circle cx="5" cy="8" r="1" style="fill:#cccccc"/>
 <circle cx="8" cy="8" r="1" style="fill:#cccccc"/>
 <circle cx="11" cy="8" r="1" style="fill:#cccccc"/>
 <circle cx="14" cy="8" r="1" style="fill:#cccccc"/>
 <circle cx="17" cy="8" r="1" style="fill:#cccccc"/>
 <circle cx="7" cy="12" r="1" style="fill:#cccccc"/>
 <circle cx="10" cy="12" r="1" style="fill:#cccccc"/>
 <circle cx="13" cy="12" r="1" style="fill:#cccccc"/>
 <circle cx="16" cy="12" r="1" style="fill:#cccccc"/>
 <rect x="4" y="15" width="14" height="2" rx=".5" ry=".5" style="fill:#cccccc"/>
 <circle cx="16.5" cy="16.5" r="5.5" style="fill:#f57f17"/>
 <path d="m16.5 14c-2.35 0-3.5 1.5-4 2.5 0.5 1 1.65 2.5 4 2.5s3.5-1.5 4-2.5c-0.5-1-1.65-2.5-4-2.5zm0 1c0.817 0 1.5 0.683 1.5 1.5s-0.683 1.5-1.5 1.5-1.5-0.683-1.5-1.5 0.683-1.5 1.5-1.5zm0 1c-0.264 0-0.5 0.236-0.5 0.5s0.236 0.5 0.5 0.5 0.5-0.236 0.5-0.5-0.236-0.5-0.5-0.5z" style="fill:#ffffff"/>
</svg>
