<svg width="22" height="22" version="1.0" xmlns="http://www.w3.org/2000/svg">
 <text x="809.29407" y="8.8126011" font-family="'Bitstream Vera Sans'" font-size="12.666px" opacity=".8" xml:space="preserve"><tspan x="809.29407" y="8.8126011"/></text>
 <text x="833.255" y="-31.929106" font-family="'Bitstream Vera Sans'" font-size="12.666px" opacity=".8" xml:space="preserve"><tspan x="833.255" y="-31.929106"/></text>
 <text x="-637.30334" y="-62.007248" font-family="'Bitstream Vera Sans'" font-size="12.666px" opacity=".8" xml:space="preserve"><tspan x="-637.30334" y="-62.007248"/></text>
 <text x="-2460.9893" y="683.5462" font-family="'Bitstream Vera Sans'" font-size="12.666px" opacity=".8" xml:space="preserve"><tspan x="-2460.9893" y="683.5462"/></text>
 <text x="-522.81226" y="-447.32822" font-family="'Bitstream Vera Sans'" font-size="12.666px" opacity=".8" xml:space="preserve"><tspan x="-522.81226" y="-447.32822"/></text>
 <text x="284.78989" y="-860.79834" font-family="'Bitstream Vera Sans'" font-size="12.666px" opacity=".8" xml:space="preserve"><tspan x="284.78989" y="-860.79834"/></text>
 <text x="308.75082" y="-901.54004" font-family="'Bitstream Vera Sans'" font-size="12.666px" opacity=".8" xml:space="preserve"><tspan x="308.75082" y="-901.54004"/></text>
 <text x="-1182.7124" y="-908.74994" font-family="'Bitstream Vera Sans'" font-size="12.666px" opacity=".8" xml:space="preserve"><tspan x="-1182.7124" y="-908.74994"/></text>
 <text x="277.83041" y="-1181.9841" font-family="'Bitstream Vera Sans'" font-size="12.666px" opacity=".8" xml:space="preserve"><tspan x="277.83041" y="-1181.9841"/></text>
 <text x="1763.9539" y="-555.29272" font-family="'Bitstream Vera Sans'" font-size="12.666px" opacity=".8" xml:space="preserve"><tspan x="1763.9539" y="-555.29272"/></text>
 <text x="1787.9147" y="-596.03448" font-family="'Bitstream Vera Sans'" font-size="12.666px" opacity=".8" xml:space="preserve"><tspan x="1787.9147" y="-596.03448"/></text>
 <text x="296.45157" y="-603.24438" font-family="'Bitstream Vera Sans'" font-size="12.666px" opacity=".8" xml:space="preserve"><tspan x="296.45157" y="-603.24438"/></text>
 <text x="1756.9944" y="-876.47839" font-family="'Bitstream Vera Sans'" font-size="12.666px" opacity=".8" xml:space="preserve"><tspan x="1756.9944" y="-876.47839"/></text>
 <text x="-641.36475" y="-651.33569" font-family="'Bitstream Vera Sans'" font-size="12.666px" opacity=".8" xml:space="preserve"><tspan x="-641.36475" y="-651.33569"/></text>
 <text x="-2465.0503" y="94.217857" font-family="'Bitstream Vera Sans'" font-size="12.666px" opacity=".8" xml:space="preserve"><tspan x="-2465.0503" y="94.217857"/></text>
 <text x="-750.29498" y="187.09" font-family="'Bitstream Vera Sans'" font-size="12.666px" opacity=".8" xml:space="preserve"><tspan x="-750.29498" y="187.09"/></text>
 <text x="358.72934" y="7.9078522" font-family="'Bitstream Vera Sans'" font-size="12.666px" opacity=".8" xml:space="preserve"><tspan x="358.72934" y="7.9078522"/></text>
 <text x="382.69028" y="-32.833855" font-family="'Bitstream Vera Sans'" font-size="12.666px" opacity=".8" xml:space="preserve"><tspan x="382.69028" y="-32.833855"/></text>
 <text x="-1108.7729" y="-40.043827" font-family="'Bitstream Vera Sans'" font-size="12.666px" opacity=".8" xml:space="preserve"><tspan x="-1108.7729" y="-40.043827"/></text>
 <text x="351.76987" y="-313.27789" font-family="'Bitstream Vera Sans'" font-size="12.666px" opacity=".8" xml:space="preserve"><tspan x="351.76987" y="-313.27789"/></text>
 <text x="-675.96472" y="-42.758072" font-family="'Bitstream Vera Sans'" font-size="12.666px" opacity=".8" xml:space="preserve"><tspan x="-675.96472" y="-42.758072"/></text>
 <text x="-2499.6506" y="702.79541" font-family="'Bitstream Vera Sans'" font-size="12.666px" opacity=".8" xml:space="preserve"><tspan x="-2499.6506" y="702.79541"/></text>
 <text x="-524.8717" y="-904.28857" font-family="'Bitstream Vera Sans'" font-size="12.666px" opacity=".8" xml:space="preserve"><tspan x="-524.8717" y="-904.28857"/></text>
 <text x="282.73047" y="-1317.7588" font-family="'Bitstream Vera Sans'" font-size="12.666px" opacity=".8" xml:space="preserve"><tspan x="282.73047" y="-1317.7588"/></text>
 <text x="306.69138" y="-1358.5005" font-family="'Bitstream Vera Sans'" font-size="12.666px" opacity=".8" xml:space="preserve"><tspan x="306.69138" y="-1358.5005"/></text>
 <text x="-1184.7719" y="-1365.7104" font-family="'Bitstream Vera Sans'" font-size="12.666px" opacity=".8" xml:space="preserve"><tspan x="-1184.7719" y="-1365.7104"/></text>
 <text x="275.77097" y="-1638.9446" font-family="'Bitstream Vera Sans'" font-size="12.666px" opacity=".8" xml:space="preserve"><tspan x="275.77097" y="-1638.9446"/></text>
 <text x="1761.8943" y="-1012.2533" font-family="'Bitstream Vera Sans'" font-size="12.666px" opacity=".8" xml:space="preserve"><tspan x="1761.8943" y="-1012.2533"/></text>
 <text x="1785.8551" y="-1052.9949" font-family="'Bitstream Vera Sans'" font-size="12.666px" opacity=".8" xml:space="preserve"><tspan x="1785.8551" y="-1052.9949"/></text>
 <text x="294.39212" y="-1060.2048" font-family="'Bitstream Vera Sans'" font-size="12.666px" opacity=".8" xml:space="preserve"><tspan x="294.39212" y="-1060.2048"/></text>
 <text x="1754.9348" y="-1333.439" font-family="'Bitstream Vera Sans'" font-size="12.666px" opacity=".8" xml:space="preserve"><tspan x="1754.9348" y="-1333.439"/></text>
 <text x="-643.42419" y="-1108.2961" font-family="'Bitstream Vera Sans'" font-size="12.666px" opacity=".8" xml:space="preserve"><tspan x="-643.42419" y="-1108.2961"/></text>
 <text x="-2467.1099" y="-362.74261" font-family="'Bitstream Vera Sans'" font-size="12.666px" opacity=".8" xml:space="preserve"><tspan x="-2467.1099" y="-362.74261"/></text>
 <text x="-752.35443" y="-269.87045" font-family="'Bitstream Vera Sans'" font-size="12.666px" opacity=".8" xml:space="preserve"><tspan x="-752.35443" y="-269.87045"/></text>
 <text x="87.660095" y="-28.956278" font-family="'Bitstream Vera Sans'" font-size="12.666px" opacity=".8" xml:space="preserve"><tspan x="87.660095" y="-28.956278"/></text>
 <text x="111.62103" y="-69.697998" font-family="'Bitstream Vera Sans'" font-size="12.666px" opacity=".8" xml:space="preserve"><tspan x="111.62103" y="-69.697998"/></text>
 <text x="-1158.1957" y="-263.72662" font-family="'Bitstream Vera Sans'" font-size="12.666px" opacity=".8" xml:space="preserve"><tspan x="-1158.1957" y="-263.72662"/></text>
 <text x="-350.5936" y="-677.19678" font-family="'Bitstream Vera Sans'" font-size="12.666px" opacity=".8" xml:space="preserve"><tspan x="-350.5936" y="-677.19678"/></text>
 <text x="-326.63266" y="-717.93848" font-family="'Bitstream Vera Sans'" font-size="12.666px" opacity=".8" xml:space="preserve"><tspan x="-326.63266" y="-717.93848"/></text>
 <text x="-1818.0958" y="-725.14838" font-family="'Bitstream Vera Sans'" font-size="12.666px" opacity=".8" xml:space="preserve"><tspan x="-1818.0958" y="-725.14838"/></text>
 <text x="-357.55304" y="-998.38251" font-family="'Bitstream Vera Sans'" font-size="12.666px" opacity=".8" xml:space="preserve"><tspan x="-357.55304" y="-998.38251"/></text>
 <text x="1128.5703" y="-371.69113" font-family="'Bitstream Vera Sans'" font-size="12.666px" opacity=".8" xml:space="preserve"><tspan x="1128.5703" y="-371.69113"/></text>
 <text x="1152.5311" y="-412.43286" font-family="'Bitstream Vera Sans'" font-size="12.666px" opacity=".8" xml:space="preserve"><tspan x="1152.5311" y="-412.43286"/></text>
 <text x="-338.93192" y="-419.64282" font-family="'Bitstream Vera Sans'" font-size="12.666px" opacity=".8" xml:space="preserve"><tspan x="-338.93192" y="-419.64282"/></text>
 <text x="1121.6108" y="-692.87689" font-family="'Bitstream Vera Sans'" font-size="12.666px" opacity=".8" xml:space="preserve"><tspan x="1121.6108" y="-692.87689"/></text>
 <text x="-1276.7483" y="-467.7341" font-family="'Bitstream Vera Sans'" font-size="12.666px" opacity=".8" xml:space="preserve"><tspan x="-1276.7483" y="-467.7341"/></text>
 <text x="-3100.4338" y="277.81946" font-family="'Bitstream Vera Sans'" font-size="12.666px" opacity=".8" xml:space="preserve"><tspan x="-3100.4338" y="277.81946"/></text>
 <text x="-1385.684" y="370.6911" font-family="'Bitstream Vera Sans'" font-size="12.667px" opacity=".8" xml:space="preserve"><tspan x="-1385.684" y="370.6911"/></text>
 <text x="809.29407" y="16.050589" font-family="'Bitstream Vera Sans'" font-size="12.666px" opacity=".8" xml:space="preserve"><tspan x="809.29407" y="16.050589"/></text>
 <text x="833.255" y="-24.691116" font-family="'Bitstream Vera Sans'" font-size="12.666px" opacity=".8" xml:space="preserve"><tspan x="833.255" y="-24.691116"/></text>
 <text x="-637.30334" y="-54.76926" font-family="'Bitstream Vera Sans'" font-size="12.666px" opacity=".8" xml:space="preserve"><tspan x="-637.30334" y="-54.76926"/></text>
 <text x="-2460.9893" y="690.78418" font-family="'Bitstream Vera Sans'" font-size="12.666px" opacity=".8" xml:space="preserve"><tspan x="-2460.9893" y="690.78418"/></text>
 <text x="-522.81226" y="-440.09021" font-family="'Bitstream Vera Sans'" font-size="12.666px" opacity=".8" xml:space="preserve"><tspan x="-522.81226" y="-440.09021"/></text>
 <text x="284.78989" y="-853.5603" font-family="'Bitstream Vera Sans'" font-size="12.666px" opacity=".8" xml:space="preserve"><tspan x="284.78989" y="-853.5603"/></text>
 <text x="308.75082" y="-894.30206" font-family="'Bitstream Vera Sans'" font-size="12.666px" opacity=".8" xml:space="preserve"><tspan x="308.75082" y="-894.30206"/></text>
 <text x="-1182.7124" y="-901.51196" font-family="'Bitstream Vera Sans'" font-size="12.666px" opacity=".8" xml:space="preserve"><tspan x="-1182.7124" y="-901.51196"/></text>
 <text x="277.83041" y="-1174.7461" font-family="'Bitstream Vera Sans'" font-size="12.666px" opacity=".8" xml:space="preserve"><tspan x="277.83041" y="-1174.7461"/></text>
 <text x="1763.9539" y="-548.05475" font-family="'Bitstream Vera Sans'" font-size="12.666px" opacity=".8" xml:space="preserve"><tspan x="1763.9539" y="-548.05475"/></text>
 <text x="1787.9147" y="-588.79651" font-family="'Bitstream Vera Sans'" font-size="12.666px" opacity=".8" xml:space="preserve"><tspan x="1787.9147" y="-588.79651"/></text>
 <text x="296.45157" y="-596.00641" font-family="'Bitstream Vera Sans'" font-size="12.666px" opacity=".8" xml:space="preserve"><tspan x="296.45157" y="-596.00641"/></text>
 <text x="1756.9944" y="-869.24036" font-family="'Bitstream Vera Sans'" font-size="12.666px" opacity=".8" xml:space="preserve"><tspan x="1756.9944" y="-869.24036"/></text>
 <text x="-641.36475" y="-644.09772" font-family="'Bitstream Vera Sans'" font-size="12.666px" opacity=".8" xml:space="preserve"><tspan x="-641.36475" y="-644.09772"/></text>
 <text x="-2465.0503" y="101.45585" font-family="'Bitstream Vera Sans'" font-size="12.666px" opacity=".8" xml:space="preserve"><tspan x="-2465.0503" y="101.45585"/></text>
 <text x="-750.29498" y="194.32799" font-family="'Bitstream Vera Sans'" font-size="12.666px" opacity=".8" xml:space="preserve"><tspan x="-750.29498" y="194.32799"/></text>
 <text x="358.72934" y="15.14584" font-family="'Bitstream Vera Sans'" font-size="12.666px" opacity=".8" xml:space="preserve"><tspan x="358.72934" y="15.14584"/></text>
 <text x="382.69028" y="-25.595865" font-family="'Bitstream Vera Sans'" font-size="12.666px" opacity=".8" xml:space="preserve"><tspan x="382.69028" y="-25.595865"/></text>
 <text x="-1108.7729" y="-32.805836" font-family="'Bitstream Vera Sans'" font-size="12.666px" opacity=".8" xml:space="preserve"><tspan x="-1108.7729" y="-32.805836"/></text>
 <text x="351.76987" y="-306.03989" font-family="'Bitstream Vera Sans'" font-size="12.666px" opacity=".8" xml:space="preserve"><tspan x="351.76987" y="-306.03989"/></text>
 <text x="-675.96472" y="-35.520081" font-family="'Bitstream Vera Sans'" font-size="12.666px" opacity=".8" xml:space="preserve"><tspan x="-675.96472" y="-35.520081"/></text>
 <text x="-2499.6506" y="710.03345" font-family="'Bitstream Vera Sans'" font-size="12.666px" opacity=".8" xml:space="preserve"><tspan x="-2499.6506" y="710.03345"/></text>
 <text x="-524.8717" y="-897.0506" font-family="'Bitstream Vera Sans'" font-size="12.666px" opacity=".8" xml:space="preserve"><tspan x="-524.8717" y="-897.0506"/></text>
 <text x="282.73047" y="-1310.5208" font-family="'Bitstream Vera Sans'" font-size="12.666px" opacity=".8" xml:space="preserve"><tspan x="282.73047" y="-1310.5208"/></text>
 <text x="306.69138" y="-1351.2626" font-family="'Bitstream Vera Sans'" font-size="12.666px" opacity=".8" xml:space="preserve"><tspan x="306.69138" y="-1351.2626"/></text>
 <text x="-1184.7719" y="-1358.4724" font-family="'Bitstream Vera Sans'" font-size="12.666px" opacity=".8" xml:space="preserve"><tspan x="-1184.7719" y="-1358.4724"/></text>
 <text x="275.77097" y="-1631.7065" font-family="'Bitstream Vera Sans'" font-size="12.666px" opacity=".8" xml:space="preserve"><tspan x="275.77097" y="-1631.7065"/></text>
 <text x="1761.8943" y="-1005.0153" font-family="'Bitstream Vera Sans'" font-size="12.666px" opacity=".8" xml:space="preserve"><tspan x="1761.8943" y="-1005.0153"/></text>
 <text x="1785.8551" y="-1045.757" font-family="'Bitstream Vera Sans'" font-size="12.666px" opacity=".8" xml:space="preserve"><tspan x="1785.8551" y="-1045.757"/></text>
 <text x="294.39212" y="-1052.9668" font-family="'Bitstream Vera Sans'" font-size="12.666px" opacity=".8" xml:space="preserve"><tspan x="294.39212" y="-1052.9668"/></text>
 <text x="1754.9348" y="-1326.2009" font-family="'Bitstream Vera Sans'" font-size="12.666px" opacity=".8" xml:space="preserve"><tspan x="1754.9348" y="-1326.2009"/></text>
 <text x="-643.42419" y="-1101.0581" font-family="'Bitstream Vera Sans'" font-size="12.666px" opacity=".8" xml:space="preserve"><tspan x="-643.42419" y="-1101.0581"/></text>
 <text x="-2467.1099" y="-355.50461" font-family="'Bitstream Vera Sans'" font-size="12.666px" opacity=".8" xml:space="preserve"><tspan x="-2467.1099" y="-355.50461"/></text>
 <text x="-752.35443" y="-262.63245" font-family="'Bitstream Vera Sans'" font-size="12.666px" opacity=".8" xml:space="preserve"><tspan x="-752.35443" y="-262.63245"/></text>
 <text x="87.660095" y="-21.71829" font-family="'Bitstream Vera Sans'" font-size="12.666px" opacity=".8" xml:space="preserve"><tspan x="87.660095" y="-21.71829"/></text>
 <text x="111.62103" y="-62.460011" font-family="'Bitstream Vera Sans'" font-size="12.666px" opacity=".8" xml:space="preserve"><tspan x="111.62103" y="-62.460011"/></text>
 <text x="-1158.1957" y="-256.48859" font-family="'Bitstream Vera Sans'" font-size="12.666px" opacity=".8" xml:space="preserve"><tspan x="-1158.1957" y="-256.48859"/></text>
 <text x="-350.5936" y="-669.9588" font-family="'Bitstream Vera Sans'" font-size="12.666px" opacity=".8" xml:space="preserve"><tspan x="-350.5936" y="-669.9588"/></text>
 <text x="-326.63266" y="-710.7005" font-family="'Bitstream Vera Sans'" font-size="12.666px" opacity=".8" xml:space="preserve"><tspan x="-326.63266" y="-710.7005"/></text>
 <text x="-1818.0958" y="-717.91046" font-family="'Bitstream Vera Sans'" font-size="12.666px" opacity=".8" xml:space="preserve"><tspan x="-1818.0958" y="-717.91046"/></text>
 <text x="-357.55304" y="-991.14447" font-family="'Bitstream Vera Sans'" font-size="12.666px" opacity=".8" xml:space="preserve"><tspan x="-357.55304" y="-991.14447"/></text>
 <text x="1128.5703" y="-364.45316" font-family="'Bitstream Vera Sans'" font-size="12.666px" opacity=".8" xml:space="preserve"><tspan x="1128.5703" y="-364.45316"/></text>
 <text x="1152.5311" y="-405.19489" font-family="'Bitstream Vera Sans'" font-size="12.666px" opacity=".8" xml:space="preserve"><tspan x="1152.5311" y="-405.19489"/></text>
 <text x="-338.93192" y="-412.40482" font-family="'Bitstream Vera Sans'" font-size="12.666px" opacity=".8" xml:space="preserve"><tspan x="-338.93192" y="-412.40482"/></text>
 <text x="1121.6108" y="-685.63892" font-family="'Bitstream Vera Sans'" font-size="12.666px" opacity=".8" xml:space="preserve"><tspan x="1121.6108" y="-685.63892"/></text>
 <text x="-1276.7483" y="-460.49609" font-family="'Bitstream Vera Sans'" font-size="12.666px" opacity=".8" xml:space="preserve"><tspan x="-1276.7483" y="-460.49609"/></text>
 <text x="-3100.4338" y="285.05743" font-family="'Bitstream Vera Sans'" font-size="12.666px" opacity=".8" xml:space="preserve"><tspan x="-3100.4338" y="285.05743"/></text>
 <text x="-1385.684" y="377.93109" font-family="'Bitstream Vera Sans'" font-size="12.667px" opacity=".8" xml:space="preserve"><tspan x="-1385.684" y="377.93109"/></text>
 <text x="367.97208" y="-363.22546" font-family="'Droid Sans'" font-size="12.666px" xml:space="preserve"><tspan x="367.97208" y="-363.22546"/><tspan x="367.97208" y="-347.3924"/></text>
 <text x="833.15601" y="-845.27002" font-family="'Bitstream Vera Sans'" font-size="12.666px" opacity=".8" xml:space="preserve"><tspan x="833.15601" y="-845.27002"/></text>
 <text x="-990.52997" y="-99.716553" font-family="'Bitstream Vera Sans'" font-size="12.666px" opacity=".8" xml:space="preserve"><tspan x="-990.52997" y="-99.716553"/></text>
 <text x="1560.2355" y="-1130.2659" font-family="'Bitstream Vera Sans'" font-size="12.666px" opacity=".8" xml:space="preserve"><tspan x="1560.2355" y="-1130.2659"/></text>
 <text x="1584.1963" y="-1171.0076" font-family="'Bitstream Vera Sans'" font-size="12.666px" opacity=".8" xml:space="preserve"><tspan x="1584.1963" y="-1171.0076"/></text>
 <text x="92.733215" y="-1178.2175" font-family="'Bitstream Vera Sans'" font-size="12.666px" opacity=".8" xml:space="preserve"><tspan x="92.733215" y="-1178.2175"/></text>
 <text x="1553.276" y="-1451.4517" font-family="'Bitstream Vera Sans'" font-size="12.666px" opacity=".8" xml:space="preserve"><tspan x="1553.276" y="-1451.4517"/></text>
 <rect transform="matrix(0,-1,-1,0,0,0)" x="-21" y="-21" width="20" height="20" rx="1" ry="1" fill="#dcdcbe"/>
 <g transform="matrix(.5 0 0 .5 -1.25 -1)" fill="#00008b" opacity=".1">
  <g transform="translate(-17)" fill="#00008b">
   <path transform="translate(17.5)" d="m6 4c-0.7411 0-1.379 0.4042-1.7246 1h1.7246v4h-2v1h2v4h-2v1h2v4h-2v1h2v4h-2v1h2v4h-2v1h2v4h-2v1h2v4h-2v1h2v4h1v-4h4v4h1v-4h4v4h1v-4h4v4h1v-4h4v4h1v-4h4v4h1v-4h4v4h1v-4h4v4h1v-4h2v-1h-2v-4h2v-1h-2v-4h2v-1h-2v-4h2v-1h-2v-4h2v-1h-2v-4h2v-1h-2v-4h2v-1h-2v-4h1.725c-0.346-0.5958-0.984-1-1.725-1h-36zm1 1h4v4h-4v-4zm5 0h4v4h-4v-4zm5 0h4v4h-4v-4zm5 0h4v4h-4v-4zm5 0h4v4h-4v-4zm5 0h4v4h-4v-4zm5 0h4v4h-4v-4zm-30 5h4v4h-4v-4zm5 0h4v4h-4v-4zm5 0h4v4h-4v-4zm5 0h4v4h-4v-4zm5 0h4v4h-4v-4zm5 0h4v4h-4v-4zm5 0h4v4h-4v-4zm-30 5h4v4h-4v-4zm5 0h4v4h-4v-4zm5 0h4v4h-4v-4zm5 0h4v4h-4v-4zm5 0h4v4h-4v-4zm5 0h4v4h-4v-4zm5 0h4v4h-4v-4zm-30 5h4v4h-4v-4zm5 0h4v4h-4v-4zm5 0h4v4h-4v-4zm5 0h4v4h-4v-4zm5 0h4v4h-4v-4zm5 0h4v4h-4v-4zm5 0h4v4h-4v-4zm-30 5h4v4h-4v-4zm5 0h4v4h-4v-4zm5 0h4v4h-4v-4zm5 0h4v4h-4v-4zm5 0h4v4h-4v-4zm5 0h4v4h-4v-4zm5 0h4v4h-4v-4zm-30 5h4v4h-4v-4zm5 0h4v4h-4v-4zm5 0h4v4h-4v-4zm5 0h4v4h-4v-4zm5 0h4v4h-4v-4zm5 0h4v4h-4v-4zm5 0h4v4h-4v-4zm-30 5h4v4h-4v-4zm5 0h4v4h-4v-4zm5 0h4v4h-4v-4zm5 0h4v4h-4v-4zm5 0h4v4h-4v-4zm5 0h4v4h-4v-4zm5 0h4v4h-4v-4z" fill="#00008b"/>
  </g>
 </g>
 <path d="m2 1c-0.554 0-1 0.446-1 1v0.5c0-0.554 0.446-1 1-1h18c0.554 0 1 0.446 1 1v-0.5c0-0.554-0.446-1-1-1h-18z" fill="#fff" opacity=".2"/>
 <path d="m2 21.5c-0.554 0-1-0.446-1-1v-0.5c0 0.554 0.446 1 1 1h18c0.554 0 1-0.446 1-1v0.5c0 0.554-0.446 1-1 1h-18z" opacity=".2"/>
 <g transform="matrix(.5 0 0 .5 -1 -1)" fill="#ff2f2f">
  <rect x="4" y="24" width="4" height="1"/>
  <rect x="10" y="24" width="4" height="1"/>
  <rect x="16" y="24" width="4" height="1"/>
  <rect x="22" y="24" width="4" height="1"/>
  <rect x="28" y="24" width="4" height="1"/>
  <rect x="34" y="24" width="4" height="1"/>
  <rect x="40" y="24" width="4" height="1"/>
 </g>
 <path d="m3 14s5.397 3.5072 7.5 2c4.073-2.919-3.7508-10.906 1-12.5 3.136-1.0524 6.5 6.5 6.5 6.5" fill="none" stroke="#2e2e2e" stroke-linecap="round" stroke-linejoin="round"/>
</svg>
