<svg width="22" height="22" version="1" xmlns="http://www.w3.org/2000/svg">
 <path d="m21 11v-7c0-0.554-0.446-1-1-1h-18c-0.554 0-1 0.446-1 1v14c0 0.554 0.446 1 1 1h11z" style="fill:#8847bd"/>
 <path d="m19 11.905538v-6.905538h-16v12h10.908706z" style="fill:#a675ce"/>
 <path d="m8.764261 7.5002022a0.74727215 0.78102555 0 0 0 -0.764261 0.780726v2.7192618 2.719263a0.74727215 0.78102555 0 0 0 1.120721 0.676022l2.252444-1.359632 2.253177-1.359632a0.74727215 0.78102555 0 0 0 0 -1.352802l-2.253177-1.3596307-2.252444-1.3596311a0.74727215 0.78102555 0 0 0 -0.35646 -0.103945z" style="opacity:.2"/>
 <path d="m8.764261 7.0002022a0.74727215 0.78102555 0 0 0 -0.764261 0.780726v2.7192618 2.719263a0.74727215 0.78102555 0 0 0 1.120721 0.676022l2.252444-1.359632 2.253177-1.359632a0.74727215 0.78102555 0 0 0 0 -1.352802l-2.253177-1.3596303-2.252444-1.3596315a0.74727215 0.78102555 0 0 0 -0.35646 -0.103945z" style="fill:#ffffff"/>
 <path d="m2 3c-0.554 0-1 0.446-1 1v0.5c0-0.554 0.446-1 1-1h18c0.554 0 1 0.446 1 1v-0.5c0-0.554-0.446-1-1-1h-18z" style="fill:#ffffff;opacity:.1"/>
 <path d="m21 11h-7c-0.5523 0-1 0.44772-1 1v7z" style="fill:#cfb2dd"/>
 <path d="m14 11c-0.5523 0-1 0.44772-1 1v0.5c0-0.5523 0.447715-1 1-1h6.5l0.5-0.5h-7z" style="fill:#ffffff;opacity:.2"/>
 <path d="m21 11-8 8h-11c-0.554 0-1-0.446-1-1v0.5c0 0.554 0.446 1 1 1h11l8-8v-0.5z" style="opacity:.2"/>
</svg>
