<svg width="22" height="22" version="1.0" xmlns="http://www.w3.org/2000/svg">
 <text x="877.22626" y="8.8126011" font-family="'Bitstream Vera Sans'" font-size="12.666px" opacity=".8" xml:space="preserve"><tspan x="877.22626" y="8.8126011"/></text>
 <text x="901.18719" y="-31.929106" font-family="'Bitstream Vera Sans'" font-size="12.666px" opacity=".8" xml:space="preserve"><tspan x="901.18719" y="-31.929106"/></text>
 <text x="-569.37115" y="-62.007248" font-family="'Bitstream Vera Sans'" font-size="12.666px" opacity=".8" xml:space="preserve"><tspan x="-569.37115" y="-62.007248"/></text>
 <text x="-2393.0571" y="683.5462" font-family="'Bitstream Vera Sans'" font-size="12.666px" opacity=".8" xml:space="preserve"><tspan x="-2393.0571" y="683.5462"/></text>
 <text x="-454.88007" y="-447.32822" font-family="'Bitstream Vera Sans'" font-size="12.666px" opacity=".8" xml:space="preserve"><tspan x="-454.88007" y="-447.32822"/></text>
 <text x="352.72208" y="-860.79834" font-family="'Bitstream Vera Sans'" font-size="12.666px" opacity=".8" xml:space="preserve"><tspan x="352.72208" y="-860.79834"/></text>
 <text x="376.68301" y="-901.54004" font-family="'Bitstream Vera Sans'" font-size="12.666px" opacity=".8" xml:space="preserve"><tspan x="376.68301" y="-901.54004"/></text>
 <text x="-1114.7802" y="-908.74994" font-family="'Bitstream Vera Sans'" font-size="12.666px" opacity=".8" xml:space="preserve"><tspan x="-1114.7802" y="-908.74994"/></text>
 <text x="345.7626" y="-1181.9841" font-family="'Bitstream Vera Sans'" font-size="12.666px" opacity=".8" xml:space="preserve"><tspan x="345.7626" y="-1181.9841"/></text>
 <text x="1831.8861" y="-555.29272" font-family="'Bitstream Vera Sans'" font-size="12.666px" opacity=".8" xml:space="preserve"><tspan x="1831.8861" y="-555.29272"/></text>
 <text x="1855.8469" y="-596.03448" font-family="'Bitstream Vera Sans'" font-size="12.666px" opacity=".8" xml:space="preserve"><tspan x="1855.8469" y="-596.03448"/></text>
 <text x="364.38376" y="-603.24438" font-family="'Bitstream Vera Sans'" font-size="12.666px" opacity=".8" xml:space="preserve"><tspan x="364.38376" y="-603.24438"/></text>
 <text x="1824.9266" y="-876.47839" font-family="'Bitstream Vera Sans'" font-size="12.666px" opacity=".8" xml:space="preserve"><tspan x="1824.9266" y="-876.47839"/></text>
 <text x="-573.43256" y="-651.33569" font-family="'Bitstream Vera Sans'" font-size="12.666px" opacity=".8" xml:space="preserve"><tspan x="-573.43256" y="-651.33569"/></text>
 <text x="-2397.1182" y="94.217857" font-family="'Bitstream Vera Sans'" font-size="12.666px" opacity=".8" xml:space="preserve"><tspan x="-2397.1182" y="94.217857"/></text>
 <text x="-682.36279" y="187.09" font-family="'Bitstream Vera Sans'" font-size="12.666px" opacity=".8" xml:space="preserve"><tspan x="-682.36279" y="187.09"/></text>
 <text x="426.66153" y="7.9078522" font-family="'Bitstream Vera Sans'" font-size="12.666px" opacity=".8" xml:space="preserve"><tspan x="426.66153" y="7.9078522"/></text>
 <text x="450.62247" y="-32.833855" font-family="'Bitstream Vera Sans'" font-size="12.666px" opacity=".8" xml:space="preserve"><tspan x="450.62247" y="-32.833855"/></text>
 <text x="-1040.8407" y="-40.043827" font-family="'Bitstream Vera Sans'" font-size="12.666px" opacity=".8" xml:space="preserve"><tspan x="-1040.8407" y="-40.043827"/></text>
 <text x="419.70206" y="-313.27789" font-family="'Bitstream Vera Sans'" font-size="12.666px" opacity=".8" xml:space="preserve"><tspan x="419.70206" y="-313.27789"/></text>
 <text x="-608.03253" y="-42.758072" font-family="'Bitstream Vera Sans'" font-size="12.666px" opacity=".8" xml:space="preserve"><tspan x="-608.03253" y="-42.758072"/></text>
 <text x="-2431.7185" y="702.79541" font-family="'Bitstream Vera Sans'" font-size="12.666px" opacity=".8" xml:space="preserve"><tspan x="-2431.7185" y="702.79541"/></text>
 <text x="-456.93948" y="-904.28857" font-family="'Bitstream Vera Sans'" font-size="12.666px" opacity=".8" xml:space="preserve"><tspan x="-456.93948" y="-904.28857"/></text>
 <text x="350.66266" y="-1317.7588" font-family="'Bitstream Vera Sans'" font-size="12.666px" opacity=".8" xml:space="preserve"><tspan x="350.66266" y="-1317.7588"/></text>
 <text x="374.62357" y="-1358.5005" font-family="'Bitstream Vera Sans'" font-size="12.666px" opacity=".8" xml:space="preserve"><tspan x="374.62357" y="-1358.5005"/></text>
 <text x="-1116.8396" y="-1365.7104" font-family="'Bitstream Vera Sans'" font-size="12.666px" opacity=".8" xml:space="preserve"><tspan x="-1116.8396" y="-1365.7104"/></text>
 <text x="343.70316" y="-1638.9446" font-family="'Bitstream Vera Sans'" font-size="12.666px" opacity=".8" xml:space="preserve"><tspan x="343.70316" y="-1638.9446"/></text>
 <text x="1829.8265" y="-1012.2533" font-family="'Bitstream Vera Sans'" font-size="12.666px" opacity=".8" xml:space="preserve"><tspan x="1829.8265" y="-1012.2533"/></text>
 <text x="1853.7874" y="-1052.9949" font-family="'Bitstream Vera Sans'" font-size="12.666px" opacity=".8" xml:space="preserve"><tspan x="1853.7874" y="-1052.9949"/></text>
 <text x="362.32431" y="-1060.2048" font-family="'Bitstream Vera Sans'" font-size="12.666px" opacity=".8" xml:space="preserve"><tspan x="362.32431" y="-1060.2048"/></text>
 <text x="1822.8671" y="-1333.439" font-family="'Bitstream Vera Sans'" font-size="12.666px" opacity=".8" xml:space="preserve"><tspan x="1822.8671" y="-1333.439"/></text>
 <text x="-575.492" y="-1108.2961" font-family="'Bitstream Vera Sans'" font-size="12.666px" opacity=".8" xml:space="preserve"><tspan x="-575.492" y="-1108.2961"/></text>
 <text x="-2399.1777" y="-362.74261" font-family="'Bitstream Vera Sans'" font-size="12.666px" opacity=".8" xml:space="preserve"><tspan x="-2399.1777" y="-362.74261"/></text>
 <text x="-684.42224" y="-269.87045" font-family="'Bitstream Vera Sans'" font-size="12.666px" opacity=".8" xml:space="preserve"><tspan x="-684.42224" y="-269.87045"/></text>
 <text x="155.5923" y="-28.956278" font-family="'Bitstream Vera Sans'" font-size="12.666px" opacity=".8" xml:space="preserve"><tspan x="155.5923" y="-28.956278"/></text>
 <text x="179.55324" y="-69.697998" font-family="'Bitstream Vera Sans'" font-size="12.666px" opacity=".8" xml:space="preserve"><tspan x="179.55324" y="-69.697998"/></text>
 <text x="-1090.2634" y="-263.72662" font-family="'Bitstream Vera Sans'" font-size="12.666px" opacity=".8" xml:space="preserve"><tspan x="-1090.2634" y="-263.72662"/></text>
 <text x="-282.66141" y="-677.19678" font-family="'Bitstream Vera Sans'" font-size="12.666px" opacity=".8" xml:space="preserve"><tspan x="-282.66141" y="-677.19678"/></text>
 <text x="-258.70047" y="-717.93848" font-family="'Bitstream Vera Sans'" font-size="12.666px" opacity=".8" xml:space="preserve"><tspan x="-258.70047" y="-717.93848"/></text>
 <text x="-1750.1636" y="-725.14838" font-family="'Bitstream Vera Sans'" font-size="12.666px" opacity=".8" xml:space="preserve"><tspan x="-1750.1636" y="-725.14838"/></text>
 <text x="-289.62085" y="-998.38251" font-family="'Bitstream Vera Sans'" font-size="12.666px" opacity=".8" xml:space="preserve"><tspan x="-289.62085" y="-998.38251"/></text>
 <text x="1196.5026" y="-371.69113" font-family="'Bitstream Vera Sans'" font-size="12.666px" opacity=".8" xml:space="preserve"><tspan x="1196.5026" y="-371.69113"/></text>
 <text x="1220.4634" y="-412.43286" font-family="'Bitstream Vera Sans'" font-size="12.666px" opacity=".8" xml:space="preserve"><tspan x="1220.4634" y="-412.43286"/></text>
 <text x="-270.99973" y="-419.64282" font-family="'Bitstream Vera Sans'" font-size="12.666px" opacity=".8" xml:space="preserve"><tspan x="-270.99973" y="-419.64282"/></text>
 <text x="1189.5431" y="-692.87689" font-family="'Bitstream Vera Sans'" font-size="12.666px" opacity=".8" xml:space="preserve"><tspan x="1189.5431" y="-692.87689"/></text>
 <text x="-1208.816" y="-467.7341" font-family="'Bitstream Vera Sans'" font-size="12.666px" opacity=".8" xml:space="preserve"><tspan x="-1208.816" y="-467.7341"/></text>
 <text x="-3032.5017" y="277.81946" font-family="'Bitstream Vera Sans'" font-size="12.666px" opacity=".8" xml:space="preserve"><tspan x="-3032.5017" y="277.81946"/></text>
 <g transform="matrix(.90475 0 0 .90475 -716.75 -678.29)">
  <text x="-664.2738" y="1159.4154" font-family="'Bitstream Vera Sans'" font-size="14px" opacity=".8" xml:space="preserve"><tspan x="-664.2738" y="1159.4154"/></text>
 </g>
 <text x="877.22626" y="16.050589" font-family="'Bitstream Vera Sans'" font-size="12.666px" opacity=".8" xml:space="preserve"><tspan x="877.22626" y="16.050589"/></text>
 <text x="901.18719" y="-24.691116" font-family="'Bitstream Vera Sans'" font-size="12.666px" opacity=".8" xml:space="preserve"><tspan x="901.18719" y="-24.691116"/></text>
 <text x="-569.37115" y="-54.76926" font-family="'Bitstream Vera Sans'" font-size="12.666px" opacity=".8" xml:space="preserve"><tspan x="-569.37115" y="-54.76926"/></text>
 <text x="-2393.0571" y="690.78418" font-family="'Bitstream Vera Sans'" font-size="12.666px" opacity=".8" xml:space="preserve"><tspan x="-2393.0571" y="690.78418"/></text>
 <text x="-454.88007" y="-440.09021" font-family="'Bitstream Vera Sans'" font-size="12.666px" opacity=".8" xml:space="preserve"><tspan x="-454.88007" y="-440.09021"/></text>
 <text x="352.72208" y="-853.5603" font-family="'Bitstream Vera Sans'" font-size="12.666px" opacity=".8" xml:space="preserve"><tspan x="352.72208" y="-853.5603"/></text>
 <text x="376.68301" y="-894.30206" font-family="'Bitstream Vera Sans'" font-size="12.666px" opacity=".8" xml:space="preserve"><tspan x="376.68301" y="-894.30206"/></text>
 <text x="-1114.7802" y="-901.51196" font-family="'Bitstream Vera Sans'" font-size="12.666px" opacity=".8" xml:space="preserve"><tspan x="-1114.7802" y="-901.51196"/></text>
 <text x="345.7626" y="-1174.7461" font-family="'Bitstream Vera Sans'" font-size="12.666px" opacity=".8" xml:space="preserve"><tspan x="345.7626" y="-1174.7461"/></text>
 <text x="1831.8861" y="-548.05475" font-family="'Bitstream Vera Sans'" font-size="12.666px" opacity=".8" xml:space="preserve"><tspan x="1831.8861" y="-548.05475"/></text>
 <text x="1855.8469" y="-588.79651" font-family="'Bitstream Vera Sans'" font-size="12.666px" opacity=".8" xml:space="preserve"><tspan x="1855.8469" y="-588.79651"/></text>
 <text x="364.38376" y="-596.00641" font-family="'Bitstream Vera Sans'" font-size="12.666px" opacity=".8" xml:space="preserve"><tspan x="364.38376" y="-596.00641"/></text>
 <text x="1824.9266" y="-869.24036" font-family="'Bitstream Vera Sans'" font-size="12.666px" opacity=".8" xml:space="preserve"><tspan x="1824.9266" y="-869.24036"/></text>
 <text x="-573.43256" y="-644.09772" font-family="'Bitstream Vera Sans'" font-size="12.666px" opacity=".8" xml:space="preserve"><tspan x="-573.43256" y="-644.09772"/></text>
 <text x="-2397.1182" y="101.45585" font-family="'Bitstream Vera Sans'" font-size="12.666px" opacity=".8" xml:space="preserve"><tspan x="-2397.1182" y="101.45585"/></text>
 <text x="-682.36279" y="194.32799" font-family="'Bitstream Vera Sans'" font-size="12.666px" opacity=".8" xml:space="preserve"><tspan x="-682.36279" y="194.32799"/></text>
 <text x="426.66153" y="15.14584" font-family="'Bitstream Vera Sans'" font-size="12.666px" opacity=".8" xml:space="preserve"><tspan x="426.66153" y="15.14584"/></text>
 <text x="450.62247" y="-25.595865" font-family="'Bitstream Vera Sans'" font-size="12.666px" opacity=".8" xml:space="preserve"><tspan x="450.62247" y="-25.595865"/></text>
 <text x="-1040.8407" y="-32.805836" font-family="'Bitstream Vera Sans'" font-size="12.666px" opacity=".8" xml:space="preserve"><tspan x="-1040.8407" y="-32.805836"/></text>
 <text x="419.70206" y="-306.03989" font-family="'Bitstream Vera Sans'" font-size="12.666px" opacity=".8" xml:space="preserve"><tspan x="419.70206" y="-306.03989"/></text>
 <text x="-608.03253" y="-35.520081" font-family="'Bitstream Vera Sans'" font-size="12.666px" opacity=".8" xml:space="preserve"><tspan x="-608.03253" y="-35.520081"/></text>
 <text x="-2431.7185" y="710.03345" font-family="'Bitstream Vera Sans'" font-size="12.666px" opacity=".8" xml:space="preserve"><tspan x="-2431.7185" y="710.03345"/></text>
 <text x="-456.93948" y="-897.0506" font-family="'Bitstream Vera Sans'" font-size="12.666px" opacity=".8" xml:space="preserve"><tspan x="-456.93948" y="-897.0506"/></text>
 <text x="350.66266" y="-1310.5208" font-family="'Bitstream Vera Sans'" font-size="12.666px" opacity=".8" xml:space="preserve"><tspan x="350.66266" y="-1310.5208"/></text>
 <text x="374.62357" y="-1351.2626" font-family="'Bitstream Vera Sans'" font-size="12.666px" opacity=".8" xml:space="preserve"><tspan x="374.62357" y="-1351.2626"/></text>
 <text x="-1116.8396" y="-1358.4724" font-family="'Bitstream Vera Sans'" font-size="12.666px" opacity=".8" xml:space="preserve"><tspan x="-1116.8396" y="-1358.4724"/></text>
 <text x="343.70316" y="-1631.7065" font-family="'Bitstream Vera Sans'" font-size="12.666px" opacity=".8" xml:space="preserve"><tspan x="343.70316" y="-1631.7065"/></text>
 <text x="1829.8265" y="-1005.0153" font-family="'Bitstream Vera Sans'" font-size="12.666px" opacity=".8" xml:space="preserve"><tspan x="1829.8265" y="-1005.0153"/></text>
 <text x="1853.7874" y="-1045.757" font-family="'Bitstream Vera Sans'" font-size="12.666px" opacity=".8" xml:space="preserve"><tspan x="1853.7874" y="-1045.757"/></text>
 <text x="362.32431" y="-1052.9668" font-family="'Bitstream Vera Sans'" font-size="12.666px" opacity=".8" xml:space="preserve"><tspan x="362.32431" y="-1052.9668"/></text>
 <text x="1822.8671" y="-1326.2009" font-family="'Bitstream Vera Sans'" font-size="12.666px" opacity=".8" xml:space="preserve"><tspan x="1822.8671" y="-1326.2009"/></text>
 <text x="-575.492" y="-1101.0581" font-family="'Bitstream Vera Sans'" font-size="12.666px" opacity=".8" xml:space="preserve"><tspan x="-575.492" y="-1101.0581"/></text>
 <text x="-2399.1777" y="-355.50461" font-family="'Bitstream Vera Sans'" font-size="12.666px" opacity=".8" xml:space="preserve"><tspan x="-2399.1777" y="-355.50461"/></text>
 <text x="-684.42224" y="-262.63245" font-family="'Bitstream Vera Sans'" font-size="12.666px" opacity=".8" xml:space="preserve"><tspan x="-684.42224" y="-262.63245"/></text>
 <text x="155.5923" y="-21.71829" font-family="'Bitstream Vera Sans'" font-size="12.666px" opacity=".8" xml:space="preserve"><tspan x="155.5923" y="-21.71829"/></text>
 <text x="179.55324" y="-62.460011" font-family="'Bitstream Vera Sans'" font-size="12.666px" opacity=".8" xml:space="preserve"><tspan x="179.55324" y="-62.460011"/></text>
 <text x="-1090.2634" y="-256.48859" font-family="'Bitstream Vera Sans'" font-size="12.666px" opacity=".8" xml:space="preserve"><tspan x="-1090.2634" y="-256.48859"/></text>
 <text x="-282.66141" y="-669.9588" font-family="'Bitstream Vera Sans'" font-size="12.666px" opacity=".8" xml:space="preserve"><tspan x="-282.66141" y="-669.9588"/></text>
 <text x="-258.70047" y="-710.7005" font-family="'Bitstream Vera Sans'" font-size="12.666px" opacity=".8" xml:space="preserve"><tspan x="-258.70047" y="-710.7005"/></text>
 <text x="-1750.1636" y="-717.91046" font-family="'Bitstream Vera Sans'" font-size="12.666px" opacity=".8" xml:space="preserve"><tspan x="-1750.1636" y="-717.91046"/></text>
 <text x="-289.62085" y="-991.14447" font-family="'Bitstream Vera Sans'" font-size="12.666px" opacity=".8" xml:space="preserve"><tspan x="-289.62085" y="-991.14447"/></text>
 <text x="1196.5026" y="-364.45316" font-family="'Bitstream Vera Sans'" font-size="12.666px" opacity=".8" xml:space="preserve"><tspan x="1196.5026" y="-364.45316"/></text>
 <text x="1220.4634" y="-405.19489" font-family="'Bitstream Vera Sans'" font-size="12.666px" opacity=".8" xml:space="preserve"><tspan x="1220.4634" y="-405.19489"/></text>
 <text x="-270.99973" y="-412.40482" font-family="'Bitstream Vera Sans'" font-size="12.666px" opacity=".8" xml:space="preserve"><tspan x="-270.99973" y="-412.40482"/></text>
 <text x="1189.5431" y="-685.63892" font-family="'Bitstream Vera Sans'" font-size="12.666px" opacity=".8" xml:space="preserve"><tspan x="1189.5431" y="-685.63892"/></text>
 <text x="-1208.816" y="-460.49609" font-family="'Bitstream Vera Sans'" font-size="12.666px" opacity=".8" xml:space="preserve"><tspan x="-1208.816" y="-460.49609"/></text>
 <text x="-3032.5017" y="285.05743" font-family="'Bitstream Vera Sans'" font-size="12.666px" opacity=".8" xml:space="preserve"><tspan x="-3032.5017" y="285.05743"/></text>
 <g transform="matrix(.90475 0 0 .90475 -716.75 -671.05)">
  <text x="-664.2738" y="1159.4154" font-family="'Bitstream Vera Sans'" font-size="14px" opacity=".8" xml:space="preserve"><tspan x="-664.2738" y="1159.4154"/></text>
 </g>
 <text x="435.90427" y="-363.22546" font-family="'Droid Sans'" font-size="12.666px" xml:space="preserve"><tspan x="435.90427" y="-363.22546"/><tspan x="435.90427" y="-347.3924"/></text>
 <text x="901.0882" y="-845.27002" font-family="'Bitstream Vera Sans'" font-size="12.666px" opacity=".8" xml:space="preserve"><tspan x="901.0882" y="-845.27002"/></text>
 <text x="-922.59778" y="-99.716553" font-family="'Bitstream Vera Sans'" font-size="12.666px" opacity=".8" xml:space="preserve"><tspan x="-922.59778" y="-99.716553"/></text>
 <text x="1628.1677" y="-1130.2659" font-family="'Bitstream Vera Sans'" font-size="12.666px" opacity=".8" xml:space="preserve"><tspan x="1628.1677" y="-1130.2659"/></text>
 <text x="1652.1285" y="-1171.0076" font-family="'Bitstream Vera Sans'" font-size="12.666px" opacity=".8" xml:space="preserve"><tspan x="1652.1285" y="-1171.0076"/></text>
 <text x="160.66542" y="-1178.2175" font-family="'Bitstream Vera Sans'" font-size="12.666px" opacity=".8" xml:space="preserve"><tspan x="160.66542" y="-1178.2175"/></text>
 <text x="1621.2083" y="-1451.4517" font-family="'Bitstream Vera Sans'" font-size="12.666px" opacity=".8" xml:space="preserve"><tspan x="1621.2083" y="-1451.4517"/></text>
 <text x="877.22626" y="8.8126011" font-family="'Bitstream Vera Sans'" font-size="12.666px" opacity=".8" xml:space="preserve"><tspan x="877.22626" y="8.8126011"/></text>
 <text x="901.18719" y="-31.929106" font-family="'Bitstream Vera Sans'" font-size="12.666px" opacity=".8" xml:space="preserve"><tspan x="901.18719" y="-31.929106"/></text>
 <text x="-569.37115" y="-62.007248" font-family="'Bitstream Vera Sans'" font-size="12.666px" opacity=".8" xml:space="preserve"><tspan x="-569.37115" y="-62.007248"/></text>
 <text x="-2393.0571" y="683.5462" font-family="'Bitstream Vera Sans'" font-size="12.666px" opacity=".8" xml:space="preserve"><tspan x="-2393.0571" y="683.5462"/></text>
 <text x="-454.88007" y="-447.32822" font-family="'Bitstream Vera Sans'" font-size="12.666px" opacity=".8" xml:space="preserve"><tspan x="-454.88007" y="-447.32822"/></text>
 <text x="352.72208" y="-860.79834" font-family="'Bitstream Vera Sans'" font-size="12.666px" opacity=".8" xml:space="preserve"><tspan x="352.72208" y="-860.79834"/></text>
 <text x="376.68301" y="-901.54004" font-family="'Bitstream Vera Sans'" font-size="12.666px" opacity=".8" xml:space="preserve"><tspan x="376.68301" y="-901.54004"/></text>
 <text x="-1114.7802" y="-908.74994" font-family="'Bitstream Vera Sans'" font-size="12.666px" opacity=".8" xml:space="preserve"><tspan x="-1114.7802" y="-908.74994"/></text>
 <text x="345.7626" y="-1181.9841" font-family="'Bitstream Vera Sans'" font-size="12.666px" opacity=".8" xml:space="preserve"><tspan x="345.7626" y="-1181.9841"/></text>
 <text x="1831.8861" y="-555.29272" font-family="'Bitstream Vera Sans'" font-size="12.666px" opacity=".8" xml:space="preserve"><tspan x="1831.8861" y="-555.29272"/></text>
 <text x="1855.8469" y="-596.03448" font-family="'Bitstream Vera Sans'" font-size="12.666px" opacity=".8" xml:space="preserve"><tspan x="1855.8469" y="-596.03448"/></text>
 <text x="364.38376" y="-603.24438" font-family="'Bitstream Vera Sans'" font-size="12.666px" opacity=".8" xml:space="preserve"><tspan x="364.38376" y="-603.24438"/></text>
 <text x="1824.9266" y="-876.47839" font-family="'Bitstream Vera Sans'" font-size="12.666px" opacity=".8" xml:space="preserve"><tspan x="1824.9266" y="-876.47839"/></text>
 <text x="-573.43256" y="-651.33569" font-family="'Bitstream Vera Sans'" font-size="12.666px" opacity=".8" xml:space="preserve"><tspan x="-573.43256" y="-651.33569"/></text>
 <text x="-2397.1182" y="94.217857" font-family="'Bitstream Vera Sans'" font-size="12.666px" opacity=".8" xml:space="preserve"><tspan x="-2397.1182" y="94.217857"/></text>
 <text x="-682.36279" y="187.09" font-family="'Bitstream Vera Sans'" font-size="12.666px" opacity=".8" xml:space="preserve"><tspan x="-682.36279" y="187.09"/></text>
 <text x="426.66153" y="7.9078522" font-family="'Bitstream Vera Sans'" font-size="12.666px" opacity=".8" xml:space="preserve"><tspan x="426.66153" y="7.9078522"/></text>
 <text x="450.62247" y="-32.833855" font-family="'Bitstream Vera Sans'" font-size="12.666px" opacity=".8" xml:space="preserve"><tspan x="450.62247" y="-32.833855"/></text>
 <text x="-1040.8407" y="-40.043827" font-family="'Bitstream Vera Sans'" font-size="12.666px" opacity=".8" xml:space="preserve"><tspan x="-1040.8407" y="-40.043827"/></text>
 <text x="419.70206" y="-313.27789" font-family="'Bitstream Vera Sans'" font-size="12.666px" opacity=".8" xml:space="preserve"><tspan x="419.70206" y="-313.27789"/></text>
 <text x="-608.03253" y="-42.758072" font-family="'Bitstream Vera Sans'" font-size="12.666px" opacity=".8" xml:space="preserve"><tspan x="-608.03253" y="-42.758072"/></text>
 <text x="-2431.7185" y="702.79541" font-family="'Bitstream Vera Sans'" font-size="12.666px" opacity=".8" xml:space="preserve"><tspan x="-2431.7185" y="702.79541"/></text>
 <text x="-456.93948" y="-904.28857" font-family="'Bitstream Vera Sans'" font-size="12.666px" opacity=".8" xml:space="preserve"><tspan x="-456.93948" y="-904.28857"/></text>
 <text x="350.66266" y="-1317.7588" font-family="'Bitstream Vera Sans'" font-size="12.666px" opacity=".8" xml:space="preserve"><tspan x="350.66266" y="-1317.7588"/></text>
 <text x="374.62357" y="-1358.5005" font-family="'Bitstream Vera Sans'" font-size="12.666px" opacity=".8" xml:space="preserve"><tspan x="374.62357" y="-1358.5005"/></text>
 <text x="-1116.8396" y="-1365.7104" font-family="'Bitstream Vera Sans'" font-size="12.666px" opacity=".8" xml:space="preserve"><tspan x="-1116.8396" y="-1365.7104"/></text>
 <text x="343.70316" y="-1638.9446" font-family="'Bitstream Vera Sans'" font-size="12.666px" opacity=".8" xml:space="preserve"><tspan x="343.70316" y="-1638.9446"/></text>
 <text x="1829.8265" y="-1012.2533" font-family="'Bitstream Vera Sans'" font-size="12.666px" opacity=".8" xml:space="preserve"><tspan x="1829.8265" y="-1012.2533"/></text>
 <text x="1853.7874" y="-1052.9949" font-family="'Bitstream Vera Sans'" font-size="12.666px" opacity=".8" xml:space="preserve"><tspan x="1853.7874" y="-1052.9949"/></text>
 <text x="362.32431" y="-1060.2048" font-family="'Bitstream Vera Sans'" font-size="12.666px" opacity=".8" xml:space="preserve"><tspan x="362.32431" y="-1060.2048"/></text>
 <text x="1822.8671" y="-1333.439" font-family="'Bitstream Vera Sans'" font-size="12.666px" opacity=".8" xml:space="preserve"><tspan x="1822.8671" y="-1333.439"/></text>
 <text x="-575.492" y="-1108.2961" font-family="'Bitstream Vera Sans'" font-size="12.666px" opacity=".8" xml:space="preserve"><tspan x="-575.492" y="-1108.2961"/></text>
 <text x="-2399.1777" y="-362.74261" font-family="'Bitstream Vera Sans'" font-size="12.666px" opacity=".8" xml:space="preserve"><tspan x="-2399.1777" y="-362.74261"/></text>
 <text x="-684.42224" y="-269.87045" font-family="'Bitstream Vera Sans'" font-size="12.666px" opacity=".8" xml:space="preserve"><tspan x="-684.42224" y="-269.87045"/></text>
 <text x="155.5923" y="-28.956278" font-family="'Bitstream Vera Sans'" font-size="12.666px" opacity=".8" xml:space="preserve"><tspan x="155.5923" y="-28.956278"/></text>
 <text x="179.55324" y="-69.697998" font-family="'Bitstream Vera Sans'" font-size="12.666px" opacity=".8" xml:space="preserve"><tspan x="179.55324" y="-69.697998"/></text>
 <text x="-1090.2634" y="-263.72662" font-family="'Bitstream Vera Sans'" font-size="12.666px" opacity=".8" xml:space="preserve"><tspan x="-1090.2634" y="-263.72662"/></text>
 <text x="-282.66141" y="-677.19678" font-family="'Bitstream Vera Sans'" font-size="12.666px" opacity=".8" xml:space="preserve"><tspan x="-282.66141" y="-677.19678"/></text>
 <text x="-258.70047" y="-717.93848" font-family="'Bitstream Vera Sans'" font-size="12.666px" opacity=".8" xml:space="preserve"><tspan x="-258.70047" y="-717.93848"/></text>
 <text x="-1750.1636" y="-725.14838" font-family="'Bitstream Vera Sans'" font-size="12.666px" opacity=".8" xml:space="preserve"><tspan x="-1750.1636" y="-725.14838"/></text>
 <text x="-289.62085" y="-998.38251" font-family="'Bitstream Vera Sans'" font-size="12.666px" opacity=".8" xml:space="preserve"><tspan x="-289.62085" y="-998.38251"/></text>
 <text x="1196.5026" y="-371.69113" font-family="'Bitstream Vera Sans'" font-size="12.666px" opacity=".8" xml:space="preserve"><tspan x="1196.5026" y="-371.69113"/></text>
 <text x="1220.4634" y="-412.43286" font-family="'Bitstream Vera Sans'" font-size="12.666px" opacity=".8" xml:space="preserve"><tspan x="1220.4634" y="-412.43286"/></text>
 <text x="-270.99973" y="-419.64282" font-family="'Bitstream Vera Sans'" font-size="12.666px" opacity=".8" xml:space="preserve"><tspan x="-270.99973" y="-419.64282"/></text>
 <text x="1189.5431" y="-692.87689" font-family="'Bitstream Vera Sans'" font-size="12.666px" opacity=".8" xml:space="preserve"><tspan x="1189.5431" y="-692.87689"/></text>
 <text x="-1208.816" y="-467.7341" font-family="'Bitstream Vera Sans'" font-size="12.666px" opacity=".8" xml:space="preserve"><tspan x="-1208.816" y="-467.7341"/></text>
 <text x="-3032.5017" y="277.81946" font-family="'Bitstream Vera Sans'" font-size="12.666px" opacity=".8" xml:space="preserve"><tspan x="-3032.5017" y="277.81946"/></text>
 <g transform="matrix(.90475 0 0 .90475 -716.75 -678.29)">
  <text x="-664.2738" y="1159.4154" font-family="'Bitstream Vera Sans'" font-size="14px" opacity=".8" xml:space="preserve"><tspan x="-664.2738" y="1159.4154"/></text>
 </g>
 <text x="877.22626" y="16.050589" font-family="'Bitstream Vera Sans'" font-size="12.666px" opacity=".8" xml:space="preserve"><tspan x="877.22626" y="16.050589"/></text>
 <text x="901.18719" y="-24.691116" font-family="'Bitstream Vera Sans'" font-size="12.666px" opacity=".8" xml:space="preserve"><tspan x="901.18719" y="-24.691116"/></text>
 <text x="-569.37115" y="-54.76926" font-family="'Bitstream Vera Sans'" font-size="12.666px" opacity=".8" xml:space="preserve"><tspan x="-569.37115" y="-54.76926"/></text>
 <text x="-2393.0571" y="690.78418" font-family="'Bitstream Vera Sans'" font-size="12.666px" opacity=".8" xml:space="preserve"><tspan x="-2393.0571" y="690.78418"/></text>
 <text x="-454.88007" y="-440.09021" font-family="'Bitstream Vera Sans'" font-size="12.666px" opacity=".8" xml:space="preserve"><tspan x="-454.88007" y="-440.09021"/></text>
 <text x="352.72208" y="-853.5603" font-family="'Bitstream Vera Sans'" font-size="12.666px" opacity=".8" xml:space="preserve"><tspan x="352.72208" y="-853.5603"/></text>
 <text x="376.68301" y="-894.30206" font-family="'Bitstream Vera Sans'" font-size="12.666px" opacity=".8" xml:space="preserve"><tspan x="376.68301" y="-894.30206"/></text>
 <text x="-1114.7802" y="-901.51196" font-family="'Bitstream Vera Sans'" font-size="12.666px" opacity=".8" xml:space="preserve"><tspan x="-1114.7802" y="-901.51196"/></text>
 <text x="345.7626" y="-1174.7461" font-family="'Bitstream Vera Sans'" font-size="12.666px" opacity=".8" xml:space="preserve"><tspan x="345.7626" y="-1174.7461"/></text>
 <text x="1831.8861" y="-548.05475" font-family="'Bitstream Vera Sans'" font-size="12.666px" opacity=".8" xml:space="preserve"><tspan x="1831.8861" y="-548.05475"/></text>
 <text x="1855.8469" y="-588.79651" font-family="'Bitstream Vera Sans'" font-size="12.666px" opacity=".8" xml:space="preserve"><tspan x="1855.8469" y="-588.79651"/></text>
 <text x="364.38376" y="-596.00641" font-family="'Bitstream Vera Sans'" font-size="12.666px" opacity=".8" xml:space="preserve"><tspan x="364.38376" y="-596.00641"/></text>
 <text x="1824.9266" y="-869.24036" font-family="'Bitstream Vera Sans'" font-size="12.666px" opacity=".8" xml:space="preserve"><tspan x="1824.9266" y="-869.24036"/></text>
 <text x="-573.43256" y="-644.09772" font-family="'Bitstream Vera Sans'" font-size="12.666px" opacity=".8" xml:space="preserve"><tspan x="-573.43256" y="-644.09772"/></text>
 <text x="-2397.1182" y="101.45585" font-family="'Bitstream Vera Sans'" font-size="12.666px" opacity=".8" xml:space="preserve"><tspan x="-2397.1182" y="101.45585"/></text>
 <text x="-682.36279" y="194.32799" font-family="'Bitstream Vera Sans'" font-size="12.666px" opacity=".8" xml:space="preserve"><tspan x="-682.36279" y="194.32799"/></text>
 <text x="426.66153" y="15.14584" font-family="'Bitstream Vera Sans'" font-size="12.666px" opacity=".8" xml:space="preserve"><tspan x="426.66153" y="15.14584"/></text>
 <text x="450.62247" y="-25.595865" font-family="'Bitstream Vera Sans'" font-size="12.666px" opacity=".8" xml:space="preserve"><tspan x="450.62247" y="-25.595865"/></text>
 <text x="-1040.8407" y="-32.805836" font-family="'Bitstream Vera Sans'" font-size="12.666px" opacity=".8" xml:space="preserve"><tspan x="-1040.8407" y="-32.805836"/></text>
 <text x="419.70206" y="-306.03989" font-family="'Bitstream Vera Sans'" font-size="12.666px" opacity=".8" xml:space="preserve"><tspan x="419.70206" y="-306.03989"/></text>
 <text x="-608.03253" y="-35.520081" font-family="'Bitstream Vera Sans'" font-size="12.666px" opacity=".8" xml:space="preserve"><tspan x="-608.03253" y="-35.520081"/></text>
 <text x="-2431.7185" y="710.03345" font-family="'Bitstream Vera Sans'" font-size="12.666px" opacity=".8" xml:space="preserve"><tspan x="-2431.7185" y="710.03345"/></text>
 <text x="-456.93948" y="-897.0506" font-family="'Bitstream Vera Sans'" font-size="12.666px" opacity=".8" xml:space="preserve"><tspan x="-456.93948" y="-897.0506"/></text>
 <text x="350.66266" y="-1310.5208" font-family="'Bitstream Vera Sans'" font-size="12.666px" opacity=".8" xml:space="preserve"><tspan x="350.66266" y="-1310.5208"/></text>
 <text x="374.62357" y="-1351.2626" font-family="'Bitstream Vera Sans'" font-size="12.666px" opacity=".8" xml:space="preserve"><tspan x="374.62357" y="-1351.2626"/></text>
 <text x="-1116.8396" y="-1358.4724" font-family="'Bitstream Vera Sans'" font-size="12.666px" opacity=".8" xml:space="preserve"><tspan x="-1116.8396" y="-1358.4724"/></text>
 <text x="343.70316" y="-1631.7065" font-family="'Bitstream Vera Sans'" font-size="12.666px" opacity=".8" xml:space="preserve"><tspan x="343.70316" y="-1631.7065"/></text>
 <text x="1829.8265" y="-1005.0153" font-family="'Bitstream Vera Sans'" font-size="12.666px" opacity=".8" xml:space="preserve"><tspan x="1829.8265" y="-1005.0153"/></text>
 <text x="1853.7874" y="-1045.757" font-family="'Bitstream Vera Sans'" font-size="12.666px" opacity=".8" xml:space="preserve"><tspan x="1853.7874" y="-1045.757"/></text>
 <text x="362.32431" y="-1052.9668" font-family="'Bitstream Vera Sans'" font-size="12.666px" opacity=".8" xml:space="preserve"><tspan x="362.32431" y="-1052.9668"/></text>
 <text x="1822.8671" y="-1326.2009" font-family="'Bitstream Vera Sans'" font-size="12.666px" opacity=".8" xml:space="preserve"><tspan x="1822.8671" y="-1326.2009"/></text>
 <text x="-575.492" y="-1101.0581" font-family="'Bitstream Vera Sans'" font-size="12.666px" opacity=".8" xml:space="preserve"><tspan x="-575.492" y="-1101.0581"/></text>
 <text x="-2399.1777" y="-355.50461" font-family="'Bitstream Vera Sans'" font-size="12.666px" opacity=".8" xml:space="preserve"><tspan x="-2399.1777" y="-355.50461"/></text>
 <text x="-684.42224" y="-262.63245" font-family="'Bitstream Vera Sans'" font-size="12.666px" opacity=".8" xml:space="preserve"><tspan x="-684.42224" y="-262.63245"/></text>
 <text x="155.5923" y="-21.71829" font-family="'Bitstream Vera Sans'" font-size="12.666px" opacity=".8" xml:space="preserve"><tspan x="155.5923" y="-21.71829"/></text>
 <text x="179.55324" y="-62.460011" font-family="'Bitstream Vera Sans'" font-size="12.666px" opacity=".8" xml:space="preserve"><tspan x="179.55324" y="-62.460011"/></text>
 <text x="-1090.2634" y="-256.48859" font-family="'Bitstream Vera Sans'" font-size="12.666px" opacity=".8" xml:space="preserve"><tspan x="-1090.2634" y="-256.48859"/></text>
 <text x="-282.66141" y="-669.9588" font-family="'Bitstream Vera Sans'" font-size="12.666px" opacity=".8" xml:space="preserve"><tspan x="-282.66141" y="-669.9588"/></text>
 <text x="-258.70047" y="-710.7005" font-family="'Bitstream Vera Sans'" font-size="12.666px" opacity=".8" xml:space="preserve"><tspan x="-258.70047" y="-710.7005"/></text>
 <text x="-1750.1636" y="-717.91046" font-family="'Bitstream Vera Sans'" font-size="12.666px" opacity=".8" xml:space="preserve"><tspan x="-1750.1636" y="-717.91046"/></text>
 <text x="-289.62085" y="-991.14447" font-family="'Bitstream Vera Sans'" font-size="12.666px" opacity=".8" xml:space="preserve"><tspan x="-289.62085" y="-991.14447"/></text>
 <text x="1196.5026" y="-364.45316" font-family="'Bitstream Vera Sans'" font-size="12.666px" opacity=".8" xml:space="preserve"><tspan x="1196.5026" y="-364.45316"/></text>
 <text x="1220.4634" y="-405.19489" font-family="'Bitstream Vera Sans'" font-size="12.666px" opacity=".8" xml:space="preserve"><tspan x="1220.4634" y="-405.19489"/></text>
 <text x="-270.99973" y="-412.40482" font-family="'Bitstream Vera Sans'" font-size="12.666px" opacity=".8" xml:space="preserve"><tspan x="-270.99973" y="-412.40482"/></text>
 <text x="1189.5431" y="-685.63892" font-family="'Bitstream Vera Sans'" font-size="12.666px" opacity=".8" xml:space="preserve"><tspan x="1189.5431" y="-685.63892"/></text>
 <text x="-1208.816" y="-460.49609" font-family="'Bitstream Vera Sans'" font-size="12.666px" opacity=".8" xml:space="preserve"><tspan x="-1208.816" y="-460.49609"/></text>
 <text x="-3032.5017" y="285.05743" font-family="'Bitstream Vera Sans'" font-size="12.666px" opacity=".8" xml:space="preserve"><tspan x="-3032.5017" y="285.05743"/></text>
 <g transform="matrix(.90475 0 0 .90475 -716.75 -671.05)">
  <text x="-664.2738" y="1159.4154" font-family="'Bitstream Vera Sans'" font-size="14px" opacity=".8" xml:space="preserve"><tspan x="-664.2738" y="1159.4154"/></text>
 </g>
 <text x="435.90427" y="-363.22546" font-family="'Droid Sans'" font-size="12.666px" xml:space="preserve"><tspan x="435.90427" y="-363.22546"/><tspan x="435.90427" y="-347.3924"/></text>
 <text x="901.0882" y="-845.27002" font-family="'Bitstream Vera Sans'" font-size="12.666px" opacity=".8" xml:space="preserve"><tspan x="901.0882" y="-845.27002"/></text>
 <text x="-922.59778" y="-99.716553" font-family="'Bitstream Vera Sans'" font-size="12.666px" opacity=".8" xml:space="preserve"><tspan x="-922.59778" y="-99.716553"/></text>
 <text x="1628.1677" y="-1130.2659" font-family="'Bitstream Vera Sans'" font-size="12.666px" opacity=".8" xml:space="preserve"><tspan x="1628.1677" y="-1130.2659"/></text>
 <text x="1652.1285" y="-1171.0076" font-family="'Bitstream Vera Sans'" font-size="12.666px" opacity=".8" xml:space="preserve"><tspan x="1652.1285" y="-1171.0076"/></text>
 <text x="160.66542" y="-1178.2175" font-family="'Bitstream Vera Sans'" font-size="12.666px" opacity=".8" xml:space="preserve"><tspan x="160.66542" y="-1178.2175"/></text>
 <text x="1621.2083" y="-1451.4517" font-family="'Bitstream Vera Sans'" font-size="12.666px" opacity=".8" xml:space="preserve"><tspan x="1621.2083" y="-1451.4517"/></text>
 <path d="m11 1.0004c-5.5554 0-9.9998 4.4444-9.9998 9.9998s4.4444 9.9998 9.9998 9.9998c0.88888 0 1.6666-0.77779 1.6666-1.6666 0-0.44444-0.11111-0.77779-0.44444-1.1111-0.222-0.33349-0.44399-0.66699-0.44399-1.1115 0-0.88888 0.77779-1.6666 1.6666-1.6666h2c3.111 1e-3 5.555-2.443 5.555-5.5542 0-4.8889-4.444-8.8888-10-8.8888z" fill="#4d4d4d"/>
 <path d="m7.5 4.5c-0.79999 0-1.5 0.70001-1.5 1.5s0.70001 1.5 1.5 1.5 1.5-0.70001 1.5-1.5-0.70001-1.5-1.5-1.5zm6 0c-0.79999 0-1.5 0.70001-1.5 1.5s0.70001 1.5 1.5 1.5 1.5-0.70001 1.5-1.5-0.70001-1.5-1.5-1.5zm-9 4c-0.79999 0-1.5 0.70001-1.5 1.5 0 0.8 0.7 1.5 1.5 1.5s1.5-0.7 1.5-1.5c0-0.79999-0.70001-1.5-1.5-1.5zm13 0c-0.79999 0-1.5 0.70001-1.5 1.5 0 0.8 0.7 1.5 1.5 1.5 0.79999 0 1.5-0.70002 1.5-1.5 0-0.79999-0.70001-1.5-1.5-1.5z" opacity=".2"/>
 <path d="m4.4999 11c-0.79999 0-1.5-0.69999-1.5-1.5 0-0.79999 0.69999-1.5 1.5-1.5 0.79999 0 1.5 0.69999 1.5 1.5 0 0.79999-0.69999 1.5-1.5 1.5z" fill="#f1a443"/>
 <path d="m7.5 7c-0.8 0-1.5-0.7-1.5-1.5s0.7-1.4999 1.5-1.4999c0.79999 0 1.5 0.69999 1.5 1.5 0 0.79999-0.69999 1.5-1.5 1.5z" fill="#3f90dc"/>
 <path d="m13.5 7c-0.79999 0-1.5-0.69999-1.5-1.5 0-0.79999 0.69999-1.5 1.5-1.5 0.79999 0 1.5 0.69999 1.5 1.5 0 0.79999-0.69999 1.5-1.5 1.5z" fill="#56a913"/>
 <path d="m17.5 11c-0.8 0-1.5-0.7-1.5-1.4998 0-0.8 0.7-1.4999 1.5-1.4999 0.79999 0 1.5 0.69999 1.5 1.5 0 0.79999-0.69999 1.5-1.5 1.5z" fill="#f35b5b"/>
 <path d="m11 1.0004c-5.5554 0-9.9998 4.4444-9.9998 9.9998 0 0.084 0.00385 0.1665 0.00585 0.25 0.1314-5.4379 4.5226-9.7498 9.9938-9.7498 5.4334 0 9.8018 3.8269 9.9908 8.5693 2e-3 -0.0605 9e-3 -0.12 9e-3 -0.181 0-4.8884-4.4444-8.8883-9.9998-8.8883zm0.80648 16.343c-0.0155 0.088-0.029 0.177-0.029 0.2685 0 0.44449 0.223 0.77799 0.44499 1.111 0.254 0.254 0.37749 0.50799 0.42299 0.81049 9e-3 -0.066 0.0215-0.132 0.0215-0.2 0-0.44449-0.111-0.77699-0.44449-1.1105-0.181-0.272-0.35549-0.54749-0.41599-0.87948z" fill="#fff" opacity=".1"/>
 <path d="m20.991 10.07c-0.093 3.0234-2.4965 5.3749-5.5464 5.3749h-2c-0.88898 0-1.667 0.77799-1.667 1.667 0 0.0815 0.0155 0.1565 0.029 0.2315 0.137-0.77099 0.83998-1.3985 1.638-1.3985h2c3.1109 0 5.5554-2.4445 5.5554-5.5559 0-0.107-0.0045-0.213-9e-3 -0.319zm-19.985 1.18c-2e-3 0.0835-0.00585 0.166-0.00585 0.25 0 5.5554 4.4444 9.9998 9.9998 9.9998 0.88898 0 1.667-0.77799 1.667-1.667 0-0.1065-0.0075-0.2045-0.0215-0.3-0.1065 0.80199-0.82448 1.467-1.6455 1.467-5.4714 0-9.8628-4.3119-9.9938-9.7498z" opacity=".2"/>
</svg>
