<svg width="22" height="22" version="1" xmlns="http://www.w3.org/2000/svg">
 <rect transform="matrix(0,-1,-1,0,0,0)" x="-19" y="-21" width="16" height="20" rx="1" ry="1" style="fill:#e2d144"/>
 <path d="m1 18v0.5c0 0.554 0.446 1 1 1h18c0.554 0 1-0.446 1-1v-0.5c0 0.554-0.446 1-1 1h-18c-0.554 0-1-0.446-1-1z" style="opacity:.2"/>
 <rect x="5" y="3" width="1" height="8" style="opacity:.5"/>
 <rect x="7" y="3" width="1" height="4" style="opacity:.5"/>
 <rect x="9" y="3" width="1" height="4" style="opacity:.5"/>
 <rect x="11" y="3" width="1" height="4" style="opacity:.5"/>
 <rect x="13" y="3" width="1" height="4" style="opacity:.5"/>
 <rect x="15" y="3" width="1" height="6" style="opacity:.5"/>
 <rect x="17" y="3" width="1" height="4" style="opacity:.5"/>
 <rect x="19" y="3" width="1" height="4" style="opacity:.5"/>
 <path d="m3 12v6h5v-6zm1 1h3v4h-3z" style="opacity:.5"/>
 <path d="m2 3c-0.554 0-1 0.446-1 1v0.5c0-0.554 0.446-1 1-1h18c0.554 0 1 0.446 1 1v-0.5c0-0.554-0.446-1-1-1h-18z" style="fill:#ffffff;opacity:.2"/>
</svg>
