<svg width="22" height="22" version="1.1" viewBox="0 0 22 22" xmlns="http://www.w3.org/2000/svg">
 <circle cx="11" cy="11.5" r="10" style="opacity:.2"/>
 <circle cx="11" cy="11" r="10" style="fill:#8bc34a"/>
 <path d="M 11,1 A 10,10 0 0 0 1,11 10,10 0 0 0 1.01075,11.291 10,10 0 0 1 11,1.5 10,10 0 0 1 20.9895,11.209 10,10 0 0 0 21,11 10,10 0 0 0 11,1 Z" style="fill:#ffffff;opacity:.2"/>
 <circle cx="11" cy="11.5" r="7" style="opacity:.2"/>
 <circle cx="11" cy="11" r="7" style="fill:#ffffff"/>
 <path d="m1.0498047 10.5a10 10 0 0 0 -0.0498047 1 10 10 0 0 0 0.060547 1h19.889648a10 10 0 0 0 0.0498 -1 10 10 0 0 0 -0.06055 -1z" style="opacity:.2"/>
 <path d="M 1.0498047,10 A 10,10 0 0 0 1,11 10,10 0 0 0 1.0605469,12 H 20.950195 A 10,10 0 0 0 21,11 10,10 0 0 0 20.939453,10 Z" style="fill:#4f4f4f"/>
 <rect y="8.5" width="6" height="6" rx="1" ry="1" style="opacity:.2"/>
 <rect y="8" width="6" height="6" rx="1" ry="1" style="fill:#4f4f4f"/>
</svg>
