<svg width="22" height="22" version="1" xmlns="http://www.w3.org/2000/svg">
 <g transform="translate(-1,-1)">
  <rect transform="matrix(0,-1,-1,0,0,0)" x="-21.5" y="-18" width="16" height="12" rx="1" ry="1" style="opacity:.2"/>
  <rect transform="matrix(0,-1,-1,0,0,0)" x="-21" y="-18" width="16" height="12" rx="1" ry="1" style="fill:#8e8e8e"/>
  <rect transform="matrix(0,-1,-1,0,0,0)" x="-19.5" y="-22" width="16" height="20" rx="1" ry="1" style="opacity:.2"/>
  <rect transform="matrix(0,-1,-1,0,0,0)" x="-19" y="-22" width="16" height="20" rx="1" ry="1" style="fill:#4f4f4f"/>
  <path d="m3 3c-0.554 0-1 0.446-1 1v0.5c0-0.554 0.446-1 1-1h18c0.554 0 1 0.446 1 1v-0.5c0-0.554-0.446-1-1-1z" style="fill:#ffffff;opacity:.1"/>
  <rect transform="matrix(0,-1,-1,0,0,0)" x="-18" y="-21" width="14" height="18" rx="0" ry="0" style="fill:#1d83af"/>
  <path d="m16.5 5.5a2.5 2.5 0 0 0 -2.5 2.5 2.5 2.5 0 0 0 2.5 2.5 2.5 2.5 0 0 0 2.5 -2.5 2.5 2.5 0 0 0 -2.5 -2.5zm-5.5 2a1 1 0 0 0 -1 1 1 1 0 0 0 1 1 1 1 0 0 0 1 -1 1 1 0 0 0 -1 -1zm-4 2a2 2 0 0 0 -2 2 2 2 0 0 0 2 2 2 2 0 0 0 2 -2 2 2 0 0 0 -2 -2zm11 3a1 1 0 0 0 -1 1 1 1 0 0 0 1 1 1 1 0 0 0 1 -1 1 1 0 0 0 -1 -1zm-4.5 1a1.5 1.5 0 0 0 -1.5 1.5 1.5 1.5 0 0 0 1.5 1.5 1.5 1.5 0 0 0 1.5 -1.5 1.5 1.5 0 0 0 -1.5 -1.5z" style="opacity:.2"/>
  <circle cx="16.5" cy="7.5" r="2.5" style="fill:#f0f9fd"/>
  <circle cx="7" cy="11" r="2" style="fill:#c4e7f5"/>
  <circle cx="13.5" cy="14.5" r="1.5" style="fill:#a6daf0"/>
  <circle cx="11" cy="8" r="1" style="fill:#c4e7f5"/>
  <circle cx="18" cy="13" r="1" style="fill:#d3edf8"/>
 </g>
</svg>
