<svg width="22" height="22" version="1.0" xmlns="http://www.w3.org/2000/svg">
 <text x="877.22626" y="-15.187399" font-family="'Bitstream Vera Sans'" font-size="12.666px" opacity=".8" xml:space="preserve"><tspan x="877.22626" y="-15.187399"/></text>
 <text x="901.18719" y="-55.929108" font-family="'Bitstream Vera Sans'" font-size="12.666px" opacity=".8" xml:space="preserve"><tspan x="901.18719" y="-55.929108"/></text>
 <text x="-569.37115" y="-86.007248" font-family="'Bitstream Vera Sans'" font-size="12.666px" opacity=".8" xml:space="preserve"><tspan x="-569.37115" y="-86.007248"/></text>
 <text x="-2393.0571" y="659.5462" font-family="'Bitstream Vera Sans'" font-size="12.666px" opacity=".8" xml:space="preserve"><tspan x="-2393.0571" y="659.5462"/></text>
 <text x="-454.88007" y="-471.32822" font-family="'Bitstream Vera Sans'" font-size="12.666px" opacity=".8" xml:space="preserve"><tspan x="-454.88007" y="-471.32822"/></text>
 <text x="352.72208" y="-884.79834" font-family="'Bitstream Vera Sans'" font-size="12.666px" opacity=".8" xml:space="preserve"><tspan x="352.72208" y="-884.79834"/></text>
 <text x="376.68301" y="-925.54004" font-family="'Bitstream Vera Sans'" font-size="12.666px" opacity=".8" xml:space="preserve"><tspan x="376.68301" y="-925.54004"/></text>
 <text x="-1114.7802" y="-932.74994" font-family="'Bitstream Vera Sans'" font-size="12.666px" opacity=".8" xml:space="preserve"><tspan x="-1114.7802" y="-932.74994"/></text>
 <text x="345.7626" y="-1205.9841" font-family="'Bitstream Vera Sans'" font-size="12.666px" opacity=".8" xml:space="preserve"><tspan x="345.7626" y="-1205.9841"/></text>
 <text x="1831.8861" y="-579.29272" font-family="'Bitstream Vera Sans'" font-size="12.666px" opacity=".8" xml:space="preserve"><tspan x="1831.8861" y="-579.29272"/></text>
 <text x="1855.8469" y="-620.03448" font-family="'Bitstream Vera Sans'" font-size="12.666px" opacity=".8" xml:space="preserve"><tspan x="1855.8469" y="-620.03448"/></text>
 <text x="364.38376" y="-627.24438" font-family="'Bitstream Vera Sans'" font-size="12.666px" opacity=".8" xml:space="preserve"><tspan x="364.38376" y="-627.24438"/></text>
 <text x="1824.9266" y="-900.47839" font-family="'Bitstream Vera Sans'" font-size="12.666px" opacity=".8" xml:space="preserve"><tspan x="1824.9266" y="-900.47839"/></text>
 <text x="-573.43256" y="-675.33569" font-family="'Bitstream Vera Sans'" font-size="12.666px" opacity=".8" xml:space="preserve"><tspan x="-573.43256" y="-675.33569"/></text>
 <text x="-2397.1182" y="70.217857" font-family="'Bitstream Vera Sans'" font-size="12.666px" opacity=".8" xml:space="preserve"><tspan x="-2397.1182" y="70.217857"/></text>
 <text x="-682.36279" y="163.09" font-family="'Bitstream Vera Sans'" font-size="12.666px" opacity=".8" xml:space="preserve"><tspan x="-682.36279" y="163.09"/></text>
 <text x="426.66153" y="-16.092148" font-family="'Bitstream Vera Sans'" font-size="12.666px" opacity=".8" xml:space="preserve"><tspan x="426.66153" y="-16.092148"/></text>
 <text x="450.62247" y="-56.833855" font-family="'Bitstream Vera Sans'" font-size="12.666px" opacity=".8" xml:space="preserve"><tspan x="450.62247" y="-56.833855"/></text>
 <text x="-1040.8407" y="-64.043823" font-family="'Bitstream Vera Sans'" font-size="12.666px" opacity=".8" xml:space="preserve"><tspan x="-1040.8407" y="-64.043823"/></text>
 <text x="419.70206" y="-337.27789" font-family="'Bitstream Vera Sans'" font-size="12.666px" opacity=".8" xml:space="preserve"><tspan x="419.70206" y="-337.27789"/></text>
 <text x="-608.03253" y="-66.758072" font-family="'Bitstream Vera Sans'" font-size="12.666px" opacity=".8" xml:space="preserve"><tspan x="-608.03253" y="-66.758072"/></text>
 <text x="-2431.7185" y="678.79541" font-family="'Bitstream Vera Sans'" font-size="12.666px" opacity=".8" xml:space="preserve"><tspan x="-2431.7185" y="678.79541"/></text>
 <text x="-456.93948" y="-928.28857" font-family="'Bitstream Vera Sans'" font-size="12.666px" opacity=".8" xml:space="preserve"><tspan x="-456.93948" y="-928.28857"/></text>
 <text x="350.66266" y="-1341.7588" font-family="'Bitstream Vera Sans'" font-size="12.666px" opacity=".8" xml:space="preserve"><tspan x="350.66266" y="-1341.7588"/></text>
 <text x="374.62357" y="-1382.5005" font-family="'Bitstream Vera Sans'" font-size="12.666px" opacity=".8" xml:space="preserve"><tspan x="374.62357" y="-1382.5005"/></text>
 <text x="-1116.8396" y="-1389.7104" font-family="'Bitstream Vera Sans'" font-size="12.666px" opacity=".8" xml:space="preserve"><tspan x="-1116.8396" y="-1389.7104"/></text>
 <text x="343.70316" y="-1662.9446" font-family="'Bitstream Vera Sans'" font-size="12.666px" opacity=".8" xml:space="preserve"><tspan x="343.70316" y="-1662.9446"/></text>
 <text x="1829.8265" y="-1036.2533" font-family="'Bitstream Vera Sans'" font-size="12.666px" opacity=".8" xml:space="preserve"><tspan x="1829.8265" y="-1036.2533"/></text>
 <text x="1853.7874" y="-1076.9949" font-family="'Bitstream Vera Sans'" font-size="12.666px" opacity=".8" xml:space="preserve"><tspan x="1853.7874" y="-1076.9949"/></text>
 <text x="362.32431" y="-1084.2048" font-family="'Bitstream Vera Sans'" font-size="12.666px" opacity=".8" xml:space="preserve"><tspan x="362.32431" y="-1084.2048"/></text>
 <text x="1822.8671" y="-1357.439" font-family="'Bitstream Vera Sans'" font-size="12.666px" opacity=".8" xml:space="preserve"><tspan x="1822.8671" y="-1357.439"/></text>
 <text x="-575.492" y="-1132.2961" font-family="'Bitstream Vera Sans'" font-size="12.666px" opacity=".8" xml:space="preserve"><tspan x="-575.492" y="-1132.2961"/></text>
 <text x="-2399.1777" y="-386.74261" font-family="'Bitstream Vera Sans'" font-size="12.666px" opacity=".8" xml:space="preserve"><tspan x="-2399.1777" y="-386.74261"/></text>
 <text x="-684.42224" y="-293.87045" font-family="'Bitstream Vera Sans'" font-size="12.666px" opacity=".8" xml:space="preserve"><tspan x="-684.42224" y="-293.87045"/></text>
 <text x="155.5923" y="-52.956276" font-family="'Bitstream Vera Sans'" font-size="12.666px" opacity=".8" xml:space="preserve"><tspan x="155.5923" y="-52.956276"/></text>
 <text x="179.55324" y="-93.697998" font-family="'Bitstream Vera Sans'" font-size="12.666px" opacity=".8" xml:space="preserve"><tspan x="179.55324" y="-93.697998"/></text>
 <text x="-1090.2634" y="-287.72662" font-family="'Bitstream Vera Sans'" font-size="12.666px" opacity=".8" xml:space="preserve"><tspan x="-1090.2634" y="-287.72662"/></text>
 <text x="-282.66141" y="-701.19678" font-family="'Bitstream Vera Sans'" font-size="12.666px" opacity=".8" xml:space="preserve"><tspan x="-282.66141" y="-701.19678"/></text>
 <text x="-258.70047" y="-741.93848" font-family="'Bitstream Vera Sans'" font-size="12.666px" opacity=".8" xml:space="preserve"><tspan x="-258.70047" y="-741.93848"/></text>
 <text x="-1750.1636" y="-749.14838" font-family="'Bitstream Vera Sans'" font-size="12.666px" opacity=".8" xml:space="preserve"><tspan x="-1750.1636" y="-749.14838"/></text>
 <text x="-289.62085" y="-1022.3825" font-family="'Bitstream Vera Sans'" font-size="12.666px" opacity=".8" xml:space="preserve"><tspan x="-289.62085" y="-1022.3825"/></text>
 <text x="1196.5026" y="-395.69113" font-family="'Bitstream Vera Sans'" font-size="12.666px" opacity=".8" xml:space="preserve"><tspan x="1196.5026" y="-395.69113"/></text>
 <text x="1220.4634" y="-436.43286" font-family="'Bitstream Vera Sans'" font-size="12.666px" opacity=".8" xml:space="preserve"><tspan x="1220.4634" y="-436.43286"/></text>
 <text x="-270.99973" y="-443.64282" font-family="'Bitstream Vera Sans'" font-size="12.666px" opacity=".8" xml:space="preserve"><tspan x="-270.99973" y="-443.64282"/></text>
 <text x="1189.5431" y="-716.87689" font-family="'Bitstream Vera Sans'" font-size="12.666px" opacity=".8" xml:space="preserve"><tspan x="1189.5431" y="-716.87689"/></text>
 <text x="-1208.816" y="-491.7341" font-family="'Bitstream Vera Sans'" font-size="12.666px" opacity=".8" xml:space="preserve"><tspan x="-1208.816" y="-491.7341"/></text>
 <text x="-3032.5017" y="253.81946" font-family="'Bitstream Vera Sans'" font-size="12.666px" opacity=".8" xml:space="preserve"><tspan x="-3032.5017" y="253.81946"/></text>
 <g transform="matrix(.90475 0 0 .90475 -716.75 -702.29)">
  <text x="-664.2738" y="1159.4154" font-family="'Bitstream Vera Sans'" font-size="14px" opacity=".8" xml:space="preserve"><tspan x="-664.2738" y="1159.4154"/></text>
 </g>
 <text x="877.22626" y="-7.9494114" font-family="'Bitstream Vera Sans'" font-size="12.666px" opacity=".8" xml:space="preserve"><tspan x="877.22626" y="-7.9494114"/></text>
 <text x="901.18719" y="-48.691116" font-family="'Bitstream Vera Sans'" font-size="12.666px" opacity=".8" xml:space="preserve"><tspan x="901.18719" y="-48.691116"/></text>
 <text x="-569.37115" y="-78.769257" font-family="'Bitstream Vera Sans'" font-size="12.666px" opacity=".8" xml:space="preserve"><tspan x="-569.37115" y="-78.769257"/></text>
 <text x="-2393.0571" y="666.78418" font-family="'Bitstream Vera Sans'" font-size="12.666px" opacity=".8" xml:space="preserve"><tspan x="-2393.0571" y="666.78418"/></text>
 <text x="-454.88007" y="-464.09021" font-family="'Bitstream Vera Sans'" font-size="12.666px" opacity=".8" xml:space="preserve"><tspan x="-454.88007" y="-464.09021"/></text>
 <text x="352.72208" y="-877.5603" font-family="'Bitstream Vera Sans'" font-size="12.666px" opacity=".8" xml:space="preserve"><tspan x="352.72208" y="-877.5603"/></text>
 <text x="376.68301" y="-918.30206" font-family="'Bitstream Vera Sans'" font-size="12.666px" opacity=".8" xml:space="preserve"><tspan x="376.68301" y="-918.30206"/></text>
 <text x="-1114.7802" y="-925.51196" font-family="'Bitstream Vera Sans'" font-size="12.666px" opacity=".8" xml:space="preserve"><tspan x="-1114.7802" y="-925.51196"/></text>
 <text x="345.7626" y="-1198.7461" font-family="'Bitstream Vera Sans'" font-size="12.666px" opacity=".8" xml:space="preserve"><tspan x="345.7626" y="-1198.7461"/></text>
 <text x="1831.8861" y="-572.05475" font-family="'Bitstream Vera Sans'" font-size="12.666px" opacity=".8" xml:space="preserve"><tspan x="1831.8861" y="-572.05475"/></text>
 <text x="1855.8469" y="-612.79651" font-family="'Bitstream Vera Sans'" font-size="12.666px" opacity=".8" xml:space="preserve"><tspan x="1855.8469" y="-612.79651"/></text>
 <text x="364.38376" y="-620.00641" font-family="'Bitstream Vera Sans'" font-size="12.666px" opacity=".8" xml:space="preserve"><tspan x="364.38376" y="-620.00641"/></text>
 <text x="1824.9266" y="-893.24036" font-family="'Bitstream Vera Sans'" font-size="12.666px" opacity=".8" xml:space="preserve"><tspan x="1824.9266" y="-893.24036"/></text>
 <text x="-573.43256" y="-668.09772" font-family="'Bitstream Vera Sans'" font-size="12.666px" opacity=".8" xml:space="preserve"><tspan x="-573.43256" y="-668.09772"/></text>
 <text x="-2397.1182" y="77.455849" font-family="'Bitstream Vera Sans'" font-size="12.666px" opacity=".8" xml:space="preserve"><tspan x="-2397.1182" y="77.455849"/></text>
 <text x="-682.36279" y="170.32799" font-family="'Bitstream Vera Sans'" font-size="12.666px" opacity=".8" xml:space="preserve"><tspan x="-682.36279" y="170.32799"/></text>
 <text x="426.66153" y="-8.8541603" font-family="'Bitstream Vera Sans'" font-size="12.666px" opacity=".8" xml:space="preserve"><tspan x="426.66153" y="-8.8541603"/></text>
 <text x="450.62247" y="-49.595863" font-family="'Bitstream Vera Sans'" font-size="12.666px" opacity=".8" xml:space="preserve"><tspan x="450.62247" y="-49.595863"/></text>
 <text x="-1040.8407" y="-56.805836" font-family="'Bitstream Vera Sans'" font-size="12.666px" opacity=".8" xml:space="preserve"><tspan x="-1040.8407" y="-56.805836"/></text>
 <text x="419.70206" y="-330.03989" font-family="'Bitstream Vera Sans'" font-size="12.666px" opacity=".8" xml:space="preserve"><tspan x="419.70206" y="-330.03989"/></text>
 <text x="-608.03253" y="-59.520081" font-family="'Bitstream Vera Sans'" font-size="12.666px" opacity=".8" xml:space="preserve"><tspan x="-608.03253" y="-59.520081"/></text>
 <text x="-2431.7185" y="686.03345" font-family="'Bitstream Vera Sans'" font-size="12.666px" opacity=".8" xml:space="preserve"><tspan x="-2431.7185" y="686.03345"/></text>
 <text x="-456.93948" y="-921.0506" font-family="'Bitstream Vera Sans'" font-size="12.666px" opacity=".8" xml:space="preserve"><tspan x="-456.93948" y="-921.0506"/></text>
 <text x="350.66266" y="-1334.5208" font-family="'Bitstream Vera Sans'" font-size="12.666px" opacity=".8" xml:space="preserve"><tspan x="350.66266" y="-1334.5208"/></text>
 <text x="374.62357" y="-1375.2626" font-family="'Bitstream Vera Sans'" font-size="12.666px" opacity=".8" xml:space="preserve"><tspan x="374.62357" y="-1375.2626"/></text>
 <text x="-1116.8396" y="-1382.4724" font-family="'Bitstream Vera Sans'" font-size="12.666px" opacity=".8" xml:space="preserve"><tspan x="-1116.8396" y="-1382.4724"/></text>
 <text x="343.70316" y="-1655.7065" font-family="'Bitstream Vera Sans'" font-size="12.666px" opacity=".8" xml:space="preserve"><tspan x="343.70316" y="-1655.7065"/></text>
 <text x="1829.8265" y="-1029.0154" font-family="'Bitstream Vera Sans'" font-size="12.666px" opacity=".8" xml:space="preserve"><tspan x="1829.8265" y="-1029.0154"/></text>
 <text x="1853.7874" y="-1069.757" font-family="'Bitstream Vera Sans'" font-size="12.666px" opacity=".8" xml:space="preserve"><tspan x="1853.7874" y="-1069.757"/></text>
 <text x="362.32431" y="-1076.9668" font-family="'Bitstream Vera Sans'" font-size="12.666px" opacity=".8" xml:space="preserve"><tspan x="362.32431" y="-1076.9668"/></text>
 <text x="1822.8671" y="-1350.2009" font-family="'Bitstream Vera Sans'" font-size="12.666px" opacity=".8" xml:space="preserve"><tspan x="1822.8671" y="-1350.2009"/></text>
 <text x="-575.492" y="-1125.0581" font-family="'Bitstream Vera Sans'" font-size="12.666px" opacity=".8" xml:space="preserve"><tspan x="-575.492" y="-1125.0581"/></text>
 <text x="-2399.1777" y="-379.50461" font-family="'Bitstream Vera Sans'" font-size="12.666px" opacity=".8" xml:space="preserve"><tspan x="-2399.1777" y="-379.50461"/></text>
 <text x="-684.42224" y="-286.63245" font-family="'Bitstream Vera Sans'" font-size="12.666px" opacity=".8" xml:space="preserve"><tspan x="-684.42224" y="-286.63245"/></text>
 <text x="155.5923" y="-45.718292" font-family="'Bitstream Vera Sans'" font-size="12.666px" opacity=".8" xml:space="preserve"><tspan x="155.5923" y="-45.718292"/></text>
 <text x="179.55324" y="-86.460007" font-family="'Bitstream Vera Sans'" font-size="12.666px" opacity=".8" xml:space="preserve"><tspan x="179.55324" y="-86.460007"/></text>
 <text x="-1090.2634" y="-280.48859" font-family="'Bitstream Vera Sans'" font-size="12.666px" opacity=".8" xml:space="preserve"><tspan x="-1090.2634" y="-280.48859"/></text>
 <text x="-282.66141" y="-693.9588" font-family="'Bitstream Vera Sans'" font-size="12.666px" opacity=".8" xml:space="preserve"><tspan x="-282.66141" y="-693.9588"/></text>
 <text x="-258.70047" y="-734.7005" font-family="'Bitstream Vera Sans'" font-size="12.666px" opacity=".8" xml:space="preserve"><tspan x="-258.70047" y="-734.7005"/></text>
 <text x="-1750.1636" y="-741.91046" font-family="'Bitstream Vera Sans'" font-size="12.666px" opacity=".8" xml:space="preserve"><tspan x="-1750.1636" y="-741.91046"/></text>
 <text x="-289.62085" y="-1015.1445" font-family="'Bitstream Vera Sans'" font-size="12.666px" opacity=".8" xml:space="preserve"><tspan x="-289.62085" y="-1015.1445"/></text>
 <text x="1196.5026" y="-388.45316" font-family="'Bitstream Vera Sans'" font-size="12.666px" opacity=".8" xml:space="preserve"><tspan x="1196.5026" y="-388.45316"/></text>
 <text x="1220.4634" y="-429.19489" font-family="'Bitstream Vera Sans'" font-size="12.666px" opacity=".8" xml:space="preserve"><tspan x="1220.4634" y="-429.19489"/></text>
 <text x="-270.99973" y="-436.40482" font-family="'Bitstream Vera Sans'" font-size="12.666px" opacity=".8" xml:space="preserve"><tspan x="-270.99973" y="-436.40482"/></text>
 <text x="1189.5431" y="-709.63892" font-family="'Bitstream Vera Sans'" font-size="12.666px" opacity=".8" xml:space="preserve"><tspan x="1189.5431" y="-709.63892"/></text>
 <text x="-1208.816" y="-484.49609" font-family="'Bitstream Vera Sans'" font-size="12.666px" opacity=".8" xml:space="preserve"><tspan x="-1208.816" y="-484.49609"/></text>
 <text x="-3032.5017" y="261.05743" font-family="'Bitstream Vera Sans'" font-size="12.666px" opacity=".8" xml:space="preserve"><tspan x="-3032.5017" y="261.05743"/></text>
 <g transform="matrix(.90475 0 0 .90475 -716.75 -695.05)">
  <text x="-664.2738" y="1159.4154" font-family="'Bitstream Vera Sans'" font-size="14px" opacity=".8" xml:space="preserve"><tspan x="-664.2738" y="1159.4154"/></text>
 </g>
 <text x="435.90427" y="-387.22546" font-family="'Droid Sans'" font-size="12.666px" xml:space="preserve"><tspan x="435.90427" y="-387.22546"/><tspan x="435.90427" y="-371.3924"/></text>
 <text x="901.0882" y="-869.27002" font-family="'Bitstream Vera Sans'" font-size="12.666px" opacity=".8" xml:space="preserve"><tspan x="901.0882" y="-869.27002"/></text>
 <text x="-922.59778" y="-123.71655" font-family="'Bitstream Vera Sans'" font-size="12.666px" opacity=".8" xml:space="preserve"><tspan x="-922.59778" y="-123.71655"/></text>
 <text x="1628.1677" y="-1154.2659" font-family="'Bitstream Vera Sans'" font-size="12.666px" opacity=".8" xml:space="preserve"><tspan x="1628.1677" y="-1154.2659"/></text>
 <text x="1652.1285" y="-1195.0076" font-family="'Bitstream Vera Sans'" font-size="12.666px" opacity=".8" xml:space="preserve"><tspan x="1652.1285" y="-1195.0076"/></text>
 <text x="160.66542" y="-1202.2175" font-family="'Bitstream Vera Sans'" font-size="12.666px" opacity=".8" xml:space="preserve"><tspan x="160.66542" y="-1202.2175"/></text>
 <text x="1621.2083" y="-1475.4517" font-family="'Bitstream Vera Sans'" font-size="12.666px" opacity=".8" xml:space="preserve"><tspan x="1621.2083" y="-1475.4517"/></text>
 <rect transform="matrix(0,-1,-1,0,0,0)" x="-21" y="-21" width="20" height="20" rx="1" ry="1" fill="#4ba9c0"/>
 <path d="m2 1c-0.554 0-1 0.446-1 1v0.5c0-0.554 0.446-1 1-1h18c0.554 0 1 0.446 1 1v-0.5c0-0.554-0.446-1-1-1h-18z" fill="#fff" opacity=".2"/>
 <path d="m2 21.5c-0.554 0-1-0.446-1-1v-0.5c0 0.554 0.446 1 1 1h18c0.554 0 1-0.446 1-1v0.5c0 0.554-0.446 1-1 1h-18z" opacity=".2"/>
 <path d="m10.339 16.476c-0.4443-0.041-1.3299-0.204-1.712-0.315-0.8172-0.237-1.5411-0.622-2.1344-1.134-0.118-0.102-0.2611-0.184-0.3216-0.184-0.060011 0-0.62898 0.17699-1.2644 0.39332-0.6354 0.21633-1.1864 0.39332-1.2244 0.39332-0.1215 0-0.2091-0.15076-0.35656-0.61367-0.16141-0.50669-0.17231-0.60082-0.078619-0.67848 0.035888-0.02977 0.48806-0.19506 1.0048-0.36733s0.94668-0.33467 0.95543-0.36089c0.01834-0.05495-0.70931-0.10818-1.4789-0.10818-0.48094 0-0.51011-0.0056-0.6244-0.11974-0.11093-0.1108-0.11769-0.14071-0.090553-0.40011 0.016155-0.1542 0.029337-0.39035 0.029337-0.52477 0-0.39769 0.00302-0.39876 1.0343-0.38148l0.48209 0.01478 0.057611-0.39498c0.0669-0.458 0.2177-0.882 0.4496-1.263 0.123-0.202 0.1588-0.306 0.1433-0.416-0.2191-1.5707-0.2503-2.1759-0.1372-3.3368 0.0915-0.9389 0.2355-1.1792 0.7066-1.1792 0.49315 0 1.7641 0.57531 3.1064 1.8935l0.67697 0.66483 0.44466-0.04952c0.55923-0.062283 1.2857-0.062469 1.9928-3.765e-4l0.54841 0.04805 0.77195-0.734c1.0245-0.97414 1.7468-1.2797 2.2063-1.5553 0.32624-0.19574 0.42482-0.23222 0.66967-0.24779 0.2689-0.017115 0.29598-0.00938 0.4269 0.12136 0.2684 0.26809 0.38344 0.83685 0.38441 2.0179 7.49e-4 0.71047-0.02322 0.84137-0.14226 1.8926l-0.05825 0.51554 0.20018 0.30688c0.25241 0.38694 0.41061 0.81958 0.4837 1.3227l0.05713 0.39332 0.46174-0.01586c0.61224-0.01274 0.77897-0.0026 0.85033 0.05127 0.07435 0.05622 0.09473 0.15576 0.12542 0.61257 0.02154 0.32065 0.0191 0.5782-0.0059 0.62491-0.04967 0.0927-0.27303 0.13711-0.69471 0.13812-0.16562 3.76e-4 -0.53657 0.01428-0.82433 0.03083-0.75012 0.04317-0.70241 0.10092 0.3822 0.46256 0.48302 0.16105 0.90995 0.32452 0.94874 0.36326 0.06314 0.06307 0.06229 0.10178-0.0081 0.37003-0.11326 0.43131-0.27708 0.81617-0.37234 0.8747-0.06559 0.04031-0.31082-0.02725-1.2045-0.33178-0.61719-0.21032-1.1623-0.3821-1.2113-0.38175-0.04903 3.77e-4 -0.27835 0.14454-0.50961 0.32042-0.89115 0.67774-2.0167 1.1053-3.2947 1.2515-0.39089 0.04473-1.4423 0.05351-1.8513 0.01545z" opacity=".2"/>
 <path d="m10.339 15.976c-0.4443-0.041-1.3299-0.204-1.712-0.315-0.8172-0.237-1.5411-0.622-2.1344-1.134-0.118-0.102-0.2611-0.184-0.3216-0.184-0.060011 0-0.62898 0.17699-1.2644 0.39332-0.6354 0.21633-1.1864 0.39332-1.2244 0.39332-0.1215 0-0.2091-0.15076-0.35656-0.61367-0.16141-0.50669-0.17231-0.60082-0.078619-0.67848 0.035888-0.02977 0.48806-0.19506 1.0048-0.36733s0.94668-0.33467 0.95543-0.36089c0.01834-0.05495-0.70931-0.10818-1.4789-0.10818-0.48094 0-0.51011-0.0056-0.6244-0.11974-0.11093-0.1108-0.11769-0.14071-0.090553-0.40011 0.016155-0.1542 0.029337-0.39035 0.029337-0.52477 0-0.39769 0.00302-0.39876 1.0343-0.38148l0.48209 0.01478 0.057611-0.39498c0.0669-0.458 0.2177-0.882 0.4496-1.2628 0.123-0.2021 0.1588-0.306 0.1433-0.4164-0.2191-1.5705-0.2503-2.1757-0.1372-3.3366 0.0915-0.9389 0.2355-1.1792 0.7066-1.1792 0.49315 0 1.7641 0.57531 3.1064 1.8935l0.67697 0.66483 0.44466-0.04952c0.55923-0.062283 1.2857-0.062469 1.9928-3.765e-4l0.54841 0.04805 0.77195-0.734c1.0245-0.97414 1.7468-1.2797 2.2063-1.5553 0.32624-0.19574 0.42482-0.23222 0.66967-0.24779 0.2689-0.017115 0.29598-0.00938 0.4269 0.12136 0.2684 0.26809 0.38344 0.83685 0.38441 2.0179 7.49e-4 0.71047-0.02322 0.84137-0.14226 1.8926l-0.05825 0.51554 0.20018 0.30688c0.25241 0.38694 0.41061 0.81958 0.4837 1.3227l0.05713 0.39332 0.46174-0.01586c0.61224-0.01274 0.77897-0.0026 0.85033 0.05127 0.07435 0.05622 0.09473 0.15576 0.12542 0.61257 0.02154 0.32065 0.0191 0.5782-0.0059 0.62491-0.04967 0.0927-0.27303 0.13711-0.69471 0.13812-0.16562 3.76e-4 -0.53657 0.01428-0.82433 0.03083-0.75012 0.04317-0.70241 0.10092 0.3822 0.46256 0.48302 0.16105 0.90995 0.32452 0.94874 0.36326 0.06314 0.06307 0.06229 0.10178-0.0081 0.37003-0.11326 0.43131-0.27708 0.81617-0.37234 0.8747-0.06559 0.04031-0.31082-0.02725-1.2045-0.33178-0.61719-0.21032-1.1623-0.3821-1.2113-0.38175-0.04903 3.77e-4 -0.27835 0.14454-0.50961 0.32042-0.89115 0.67774-2.0167 1.1053-3.2947 1.2515-0.39089 0.04473-1.4423 0.05351-1.8513 0.01545z" fill="#fff"/>
 <circle cx="8" cy="11.5" r="1" opacity=".2"/>
 <circle cx="8" cy="11" r="1" fill="#303030"/>
 <circle cx="14" cy="11.5" r="1" opacity=".2"/>
 <circle cx="14" cy="11" r="1" fill="#303030"/>
</svg>
