<svg width="22" height="22" version="1" xmlns="http://www.w3.org/2000/svg">
 <g transform="translate(-1,-1)">
  <path d="M 12,4 C 9.1525,4 6.7275,5.729 5.6835,8.176 3.03285,8.567 1,10.808 1,13.5455 1,16.558 3.46245,19 6.5,19 l 11.6875,0 C 20.8455,19 23,16.863 23,14.2275 23,11.7775 21.1425,9.77 18.746,9.497 18.121,6.37 15.337,4 12,4 Z" style="fill:#cccccc"/>
  <path d="M 12,4 C 9.1525,4 6.7275,5.7285 5.6835,8.176 3.03285,8.5665 1,10.8085 1,13.546 1,13.6265 1.00825,13.7045 1.0117,13.784 1.13705,11.167 3.1182,9.054 5.6835,8.676 6.7275,6.2285 9.1525,4.5 12,4.5 c 3.337,0 6.121,2.3695 6.746,5.497 2.312,0.263 4.117,2.142 4.2425,4.4735 C 22.9925,14.3895 23,14.3095 23,14.2275 23,11.7775 21.1425,9.77 18.746,9.497 18.121,6.3695 15.337,4 12,4 Z" style="fill:#ffffff;opacity:.2"/>
  <path d="m1.0117 13.784c-0.00415 0.0875-0.0117 0.1735-0.0117 0.262 0 3.0125 2.46245 5.454 5.5 5.454h11.6875c2.658 0 4.8125-2.1365 4.8125-4.7725 0-0.0865-7e-3 -0.1715-0.0115-0.257-0.129 2.522-2.226 4.5295-4.801 4.5295h-11.6875c-2.95645 0-5.3615-2.315-5.4885-5.216z" style="opacity:.2"/>
  <path d="m13.0125 7.9935758s2 1 2 4.0000002c0 3-2 3.999999-2 3.999999" style="fill:none;opacity:.5;stroke-linecap:round;stroke-linejoin:round;stroke-width:2;stroke:#000000"/>
  <path d="m9.0127495 8.9935758s1.9997505 1.0000005 2.0000005 3.0000002c2.49e-4 2-2.0000005 3-2.0000005 3" style="fill:none;opacity:.5;stroke-linecap:round;stroke-linejoin:round;stroke-width:2;stroke:#000000"/>
 </g>
</svg>
