<svg width="22" height="22" version="1.1" viewBox="0 0 44 44" xmlns="http://www.w3.org/2000/svg">
 <g transform="translate(-2,-2)">
  <rect transform="matrix(0,-1,-1,0,0,0)" x="-45" y="-44" width="40" height="40" rx="2" ry="2" style="opacity:.2"/>
  <rect transform="matrix(0,-1,-1,0,0,0)" x="-44" y="-44" width="40" height="40" rx="2" ry="2" style="fill:#4a5579"/>
  <path d="m6 4c-1.108 0-2 0.892-2 2v1c0-1.108 0.892-2 2-2h36c1.108 0 2 0.892 2 2v-1c0-1.108-0.892-2-2-2z" style="fill:#ffffff;opacity:.1"/>
  <path d="m14.035 36.957c0-0.149 5.009-6.176 5.116-6.152 0.059 0.016 2.3 0.965 4.972 2.114 4.569 1.962 4.874 2.079 4.995 1.915 0.188-0.254 0.831-1.599 1.171-2.45l0.289-0.724-0.484-0.266c-0.69-0.375-1.702-1.216-2.335-1.939-0.578-0.66-1.621-2.251-1.621-2.474 0-0.074 0.332 0.262 0.738 0.746 1.137 1.353 3.757 3.479 3.921 3.178 0.195-0.359 0.324-1.415 0.316-2.643-8e-3 -1.497-0.203-2.661-0.719-4.268l-0.289-0.903-1.421-0.445c-0.785-0.25-1.57-0.492-1.746-0.551-0.617-0.195-0.23-0.184 0.668 0.02 1.078 0.242 2.175 0.441 2.851 0.527 0.602 0.074 0.73-0.043 0.793-0.703 0.082-0.849-0.461-3.193-1.016-4.355-0.219-0.465-0.32-0.57-0.761-0.771-1.465-0.684-6.059-1.309-8.009-1.105-0.844 0.086-1.707 0.293-1.979 0.465-0.074 0.059 0.468 0.191 1.401 0.363 0.84 0.156 1.453 0.293 1.363 0.317-0.102 0.016-1.414-0.13-2.94-0.325-2.672-0.344-2.77-0.352-2.965-0.18-0.391 0.352-0.945 1.31-1.063 1.825-0.109 0.497-0.102 0.556 0.145 1.06 0.422 0.863 1.211 1.493 2.996 2.396 0.844 0.439 1.515 0.798 1.491 0.825-0.027 0.023-0.749-0.246-1.601-0.603l-1.559-0.645-2.284 0.641c-1.254 0.349-2.324 0.638-2.375 0.638-0.063 0-0.094-1.517-0.094-4.089 0-3.936 8e-3 -4.1 0.203-4.502 0.117-0.246 0.348-0.509 0.555-0.634l0.359-0.223 10.459-0.031c5.749-0.016 10.697 0 10.974 0.031 0.641 0.078 1.219 0.548 1.371 1.114 0.066 0.246 0.09 3.971 0.074 11.057l-0.027 10.674-0.223 0.355c-0.129 0.211-0.391 0.441-0.633 0.559-0.41 0.2-0.492 0.204-10.735 0.204-5.679 0-10.33-0.035-10.33-0.074m-0.02 0.02" style="opacity:.2"/>
  <path d="m14.035 35.957c0-0.149 5.009-6.176 5.116-6.152 0.059 0.016 2.3 0.965 4.972 2.114 4.569 1.962 4.874 2.079 4.995 1.915 0.188-0.254 0.831-1.599 1.171-2.45l0.289-0.724-0.484-0.266c-0.69-0.375-1.702-1.216-2.335-1.939-0.578-0.66-1.621-2.251-1.621-2.474 0-0.074 0.332 0.262 0.738 0.746 1.137 1.353 3.757 3.479 3.921 3.178 0.195-0.359 0.324-1.415 0.316-2.643-8e-3 -1.497-0.203-2.661-0.719-4.268l-0.289-0.903-1.421-0.445c-0.785-0.25-1.57-0.492-1.746-0.551-0.617-0.195-0.23-0.184 0.668 0.02 1.078 0.242 2.175 0.441 2.851 0.527 0.602 0.074 0.73-0.043 0.793-0.703 0.082-0.849-0.461-3.193-1.016-4.355-0.219-0.465-0.32-0.57-0.761-0.771-1.465-0.684-6.059-1.309-8.009-1.105-0.844 0.086-1.707 0.293-1.979 0.465-0.074 0.059 0.468 0.191 1.401 0.363 0.84 0.156 1.453 0.293 1.363 0.317-0.102 0.016-1.414-0.13-2.94-0.325-2.672-0.344-2.77-0.352-2.965-0.18-0.391 0.352-0.945 1.31-1.063 1.825-0.109 0.497-0.102 0.556 0.145 1.06 0.422 0.863 1.211 1.493 2.996 2.396 0.844 0.439 1.515 0.798 1.491 0.825-0.027 0.023-0.749-0.246-1.601-0.603l-1.559-0.645-2.284 0.641c-1.254 0.349-2.324 0.638-2.375 0.638-0.063 0-0.094-1.517-0.094-4.089 0-3.936 8e-3 -4.1 0.203-4.502 0.117-0.246 0.348-0.509 0.555-0.634l0.359-0.223 10.459-0.031c5.749-0.016 10.697 0 10.974 0.031 0.641 0.078 1.219 0.548 1.371 1.114 0.066 0.246 0.09 3.971 0.074 11.057l-0.027 10.674-0.223 0.355c-0.129 0.211-0.391 0.441-0.633 0.559-0.41 0.2-0.492 0.204-10.735 0.204-5.679 0-10.33-0.035-10.33-0.074m-0.02 0.02" style="fill:#ffffff"/>
 </g>
</svg>
