<svg width="22" height="22" version="1" xmlns="http://www.w3.org/2000/svg">
 <rect transform="scale(-1,1)" x="-19" y="1.5" width="16" height="20" rx="1" ry="1" style="opacity:.2"/>
 <rect transform="scale(-1,1)" x="-19" y="1" width="16" height="20" rx="1" ry="1" style="fill:#8e8e8e"/>
 <rect x="6" y="4" width="10" height="6" rx="0" ry="0" style="opacity:.5"/>
 <path d="m8.5 13v6l6-3" style="opacity:.2"/>
 <path d="m8.5 12.5v6l6-3" style="fill:#e4e4e4"/>
 <path d="m4 1c-0.554 0-1 0.446-1 1v0.5c0-0.554 0.446-1 1-1h14c0.554 0 1 0.446 1 1v-0.5c0-0.554-0.446-1-1-1z" style="fill:#ffffff;opacity:.2"/>
</svg>
