<svg width="22" height="22" version="1.0" xmlns="http://www.w3.org/2000/svg">
 <text x="877.22626" y="8.8126011" font-family="'Bitstream Vera Sans'" font-size="12.666px" opacity=".8" xml:space="preserve"><tspan x="877.22626" y="8.8126011"/></text>
 <text x="901.18719" y="-31.929106" font-family="'Bitstream Vera Sans'" font-size="12.666px" opacity=".8" xml:space="preserve"><tspan x="901.18719" y="-31.929106"/></text>
 <text x="-569.37115" y="-62.007248" font-family="'Bitstream Vera Sans'" font-size="12.666px" opacity=".8" xml:space="preserve"><tspan x="-569.37115" y="-62.007248"/></text>
 <text x="-2393.0571" y="683.5462" font-family="'Bitstream Vera Sans'" font-size="12.666px" opacity=".8" xml:space="preserve"><tspan x="-2393.0571" y="683.5462"/></text>
 <text x="-454.88007" y="-447.32822" font-family="'Bitstream Vera Sans'" font-size="12.666px" opacity=".8" xml:space="preserve"><tspan x="-454.88007" y="-447.32822"/></text>
 <text x="352.72208" y="-860.79834" font-family="'Bitstream Vera Sans'" font-size="12.666px" opacity=".8" xml:space="preserve"><tspan x="352.72208" y="-860.79834"/></text>
 <text x="376.68301" y="-901.54004" font-family="'Bitstream Vera Sans'" font-size="12.666px" opacity=".8" xml:space="preserve"><tspan x="376.68301" y="-901.54004"/></text>
 <text x="-1114.7802" y="-908.74994" font-family="'Bitstream Vera Sans'" font-size="12.666px" opacity=".8" xml:space="preserve"><tspan x="-1114.7802" y="-908.74994"/></text>
 <text x="345.7626" y="-1181.9841" font-family="'Bitstream Vera Sans'" font-size="12.666px" opacity=".8" xml:space="preserve"><tspan x="345.7626" y="-1181.9841"/></text>
 <text x="1831.8861" y="-555.29272" font-family="'Bitstream Vera Sans'" font-size="12.666px" opacity=".8" xml:space="preserve"><tspan x="1831.8861" y="-555.29272"/></text>
 <text x="1855.8469" y="-596.03448" font-family="'Bitstream Vera Sans'" font-size="12.666px" opacity=".8" xml:space="preserve"><tspan x="1855.8469" y="-596.03448"/></text>
 <text x="364.38376" y="-603.24438" font-family="'Bitstream Vera Sans'" font-size="12.666px" opacity=".8" xml:space="preserve"><tspan x="364.38376" y="-603.24438"/></text>
 <text x="1824.9266" y="-876.47839" font-family="'Bitstream Vera Sans'" font-size="12.666px" opacity=".8" xml:space="preserve"><tspan x="1824.9266" y="-876.47839"/></text>
 <text x="-573.43256" y="-651.33569" font-family="'Bitstream Vera Sans'" font-size="12.666px" opacity=".8" xml:space="preserve"><tspan x="-573.43256" y="-651.33569"/></text>
 <text x="-2397.1182" y="94.217857" font-family="'Bitstream Vera Sans'" font-size="12.666px" opacity=".8" xml:space="preserve"><tspan x="-2397.1182" y="94.217857"/></text>
 <text x="-682.36279" y="187.09" font-family="'Bitstream Vera Sans'" font-size="12.666px" opacity=".8" xml:space="preserve"><tspan x="-682.36279" y="187.09"/></text>
 <text x="426.66153" y="7.9078522" font-family="'Bitstream Vera Sans'" font-size="12.666px" opacity=".8" xml:space="preserve"><tspan x="426.66153" y="7.9078522"/></text>
 <text x="450.62247" y="-32.833855" font-family="'Bitstream Vera Sans'" font-size="12.666px" opacity=".8" xml:space="preserve"><tspan x="450.62247" y="-32.833855"/></text>
 <text x="-1040.8407" y="-40.043827" font-family="'Bitstream Vera Sans'" font-size="12.666px" opacity=".8" xml:space="preserve"><tspan x="-1040.8407" y="-40.043827"/></text>
 <text x="419.70206" y="-313.27789" font-family="'Bitstream Vera Sans'" font-size="12.666px" opacity=".8" xml:space="preserve"><tspan x="419.70206" y="-313.27789"/></text>
 <text x="-608.03253" y="-42.758072" font-family="'Bitstream Vera Sans'" font-size="12.666px" opacity=".8" xml:space="preserve"><tspan x="-608.03253" y="-42.758072"/></text>
 <text x="-2431.7185" y="702.79541" font-family="'Bitstream Vera Sans'" font-size="12.666px" opacity=".8" xml:space="preserve"><tspan x="-2431.7185" y="702.79541"/></text>
 <text x="-456.93948" y="-904.28857" font-family="'Bitstream Vera Sans'" font-size="12.666px" opacity=".8" xml:space="preserve"><tspan x="-456.93948" y="-904.28857"/></text>
 <text x="350.66266" y="-1317.7588" font-family="'Bitstream Vera Sans'" font-size="12.666px" opacity=".8" xml:space="preserve"><tspan x="350.66266" y="-1317.7588"/></text>
 <text x="374.62357" y="-1358.5005" font-family="'Bitstream Vera Sans'" font-size="12.666px" opacity=".8" xml:space="preserve"><tspan x="374.62357" y="-1358.5005"/></text>
 <text x="-1116.8396" y="-1365.7104" font-family="'Bitstream Vera Sans'" font-size="12.666px" opacity=".8" xml:space="preserve"><tspan x="-1116.8396" y="-1365.7104"/></text>
 <text x="343.70316" y="-1638.9446" font-family="'Bitstream Vera Sans'" font-size="12.666px" opacity=".8" xml:space="preserve"><tspan x="343.70316" y="-1638.9446"/></text>
 <text x="1829.8265" y="-1012.2533" font-family="'Bitstream Vera Sans'" font-size="12.666px" opacity=".8" xml:space="preserve"><tspan x="1829.8265" y="-1012.2533"/></text>
 <text x="1853.7874" y="-1052.9949" font-family="'Bitstream Vera Sans'" font-size="12.666px" opacity=".8" xml:space="preserve"><tspan x="1853.7874" y="-1052.9949"/></text>
 <text x="362.32431" y="-1060.2048" font-family="'Bitstream Vera Sans'" font-size="12.666px" opacity=".8" xml:space="preserve"><tspan x="362.32431" y="-1060.2048"/></text>
 <text x="1822.8671" y="-1333.439" font-family="'Bitstream Vera Sans'" font-size="12.666px" opacity=".8" xml:space="preserve"><tspan x="1822.8671" y="-1333.439"/></text>
 <text x="-575.492" y="-1108.2961" font-family="'Bitstream Vera Sans'" font-size="12.666px" opacity=".8" xml:space="preserve"><tspan x="-575.492" y="-1108.2961"/></text>
 <text x="-2399.1777" y="-362.74261" font-family="'Bitstream Vera Sans'" font-size="12.666px" opacity=".8" xml:space="preserve"><tspan x="-2399.1777" y="-362.74261"/></text>
 <text x="-684.42224" y="-269.87045" font-family="'Bitstream Vera Sans'" font-size="12.666px" opacity=".8" xml:space="preserve"><tspan x="-684.42224" y="-269.87045"/></text>
 <text x="155.5923" y="-28.956278" font-family="'Bitstream Vera Sans'" font-size="12.666px" opacity=".8" xml:space="preserve"><tspan x="155.5923" y="-28.956278"/></text>
 <text x="179.55324" y="-69.697998" font-family="'Bitstream Vera Sans'" font-size="12.666px" opacity=".8" xml:space="preserve"><tspan x="179.55324" y="-69.697998"/></text>
 <text x="-1090.2634" y="-263.72662" font-family="'Bitstream Vera Sans'" font-size="12.666px" opacity=".8" xml:space="preserve"><tspan x="-1090.2634" y="-263.72662"/></text>
 <text x="-282.66141" y="-677.19678" font-family="'Bitstream Vera Sans'" font-size="12.666px" opacity=".8" xml:space="preserve"><tspan x="-282.66141" y="-677.19678"/></text>
 <text x="-258.70047" y="-717.93848" font-family="'Bitstream Vera Sans'" font-size="12.666px" opacity=".8" xml:space="preserve"><tspan x="-258.70047" y="-717.93848"/></text>
 <text x="-1750.1636" y="-725.14838" font-family="'Bitstream Vera Sans'" font-size="12.666px" opacity=".8" xml:space="preserve"><tspan x="-1750.1636" y="-725.14838"/></text>
 <text x="-289.62085" y="-998.38251" font-family="'Bitstream Vera Sans'" font-size="12.666px" opacity=".8" xml:space="preserve"><tspan x="-289.62085" y="-998.38251"/></text>
 <text x="1196.5026" y="-371.69113" font-family="'Bitstream Vera Sans'" font-size="12.666px" opacity=".8" xml:space="preserve"><tspan x="1196.5026" y="-371.69113"/></text>
 <text x="1220.4634" y="-412.43286" font-family="'Bitstream Vera Sans'" font-size="12.666px" opacity=".8" xml:space="preserve"><tspan x="1220.4634" y="-412.43286"/></text>
 <text x="-270.99973" y="-419.64282" font-family="'Bitstream Vera Sans'" font-size="12.666px" opacity=".8" xml:space="preserve"><tspan x="-270.99973" y="-419.64282"/></text>
 <text x="1189.5431" y="-692.87689" font-family="'Bitstream Vera Sans'" font-size="12.666px" opacity=".8" xml:space="preserve"><tspan x="1189.5431" y="-692.87689"/></text>
 <text x="-1208.816" y="-467.7341" font-family="'Bitstream Vera Sans'" font-size="12.666px" opacity=".8" xml:space="preserve"><tspan x="-1208.816" y="-467.7341"/></text>
 <text x="-3032.5017" y="277.81946" font-family="'Bitstream Vera Sans'" font-size="12.666px" opacity=".8" xml:space="preserve"><tspan x="-3032.5017" y="277.81946"/></text>
 <g transform="matrix(.90475 0 0 .90475 -716.75 -678.29)">
  <text x="-664.2738" y="1159.4154" font-family="'Bitstream Vera Sans'" font-size="14px" opacity=".8" xml:space="preserve"><tspan x="-664.2738" y="1159.4154"/></text>
 </g>
 <text x="877.22626" y="16.050589" font-family="'Bitstream Vera Sans'" font-size="12.666px" opacity=".8" xml:space="preserve"><tspan x="877.22626" y="16.050589"/></text>
 <text x="901.18719" y="-24.691116" font-family="'Bitstream Vera Sans'" font-size="12.666px" opacity=".8" xml:space="preserve"><tspan x="901.18719" y="-24.691116"/></text>
 <text x="-569.37115" y="-54.76926" font-family="'Bitstream Vera Sans'" font-size="12.666px" opacity=".8" xml:space="preserve"><tspan x="-569.37115" y="-54.76926"/></text>
 <text x="-2393.0571" y="690.78418" font-family="'Bitstream Vera Sans'" font-size="12.666px" opacity=".8" xml:space="preserve"><tspan x="-2393.0571" y="690.78418"/></text>
 <text x="-454.88007" y="-440.09021" font-family="'Bitstream Vera Sans'" font-size="12.666px" opacity=".8" xml:space="preserve"><tspan x="-454.88007" y="-440.09021"/></text>
 <text x="352.72208" y="-853.5603" font-family="'Bitstream Vera Sans'" font-size="12.666px" opacity=".8" xml:space="preserve"><tspan x="352.72208" y="-853.5603"/></text>
 <text x="376.68301" y="-894.30206" font-family="'Bitstream Vera Sans'" font-size="12.666px" opacity=".8" xml:space="preserve"><tspan x="376.68301" y="-894.30206"/></text>
 <text x="-1114.7802" y="-901.51196" font-family="'Bitstream Vera Sans'" font-size="12.666px" opacity=".8" xml:space="preserve"><tspan x="-1114.7802" y="-901.51196"/></text>
 <text x="345.7626" y="-1174.7461" font-family="'Bitstream Vera Sans'" font-size="12.666px" opacity=".8" xml:space="preserve"><tspan x="345.7626" y="-1174.7461"/></text>
 <text x="1831.8861" y="-548.05475" font-family="'Bitstream Vera Sans'" font-size="12.666px" opacity=".8" xml:space="preserve"><tspan x="1831.8861" y="-548.05475"/></text>
 <text x="1855.8469" y="-588.79651" font-family="'Bitstream Vera Sans'" font-size="12.666px" opacity=".8" xml:space="preserve"><tspan x="1855.8469" y="-588.79651"/></text>
 <text x="364.38376" y="-596.00641" font-family="'Bitstream Vera Sans'" font-size="12.666px" opacity=".8" xml:space="preserve"><tspan x="364.38376" y="-596.00641"/></text>
 <text x="1824.9266" y="-869.24036" font-family="'Bitstream Vera Sans'" font-size="12.666px" opacity=".8" xml:space="preserve"><tspan x="1824.9266" y="-869.24036"/></text>
 <text x="-573.43256" y="-644.09772" font-family="'Bitstream Vera Sans'" font-size="12.666px" opacity=".8" xml:space="preserve"><tspan x="-573.43256" y="-644.09772"/></text>
 <text x="-2397.1182" y="101.45585" font-family="'Bitstream Vera Sans'" font-size="12.666px" opacity=".8" xml:space="preserve"><tspan x="-2397.1182" y="101.45585"/></text>
 <text x="-682.36279" y="194.32799" font-family="'Bitstream Vera Sans'" font-size="12.666px" opacity=".8" xml:space="preserve"><tspan x="-682.36279" y="194.32799"/></text>
 <text x="426.66153" y="15.14584" font-family="'Bitstream Vera Sans'" font-size="12.666px" opacity=".8" xml:space="preserve"><tspan x="426.66153" y="15.14584"/></text>
 <text x="450.62247" y="-25.595865" font-family="'Bitstream Vera Sans'" font-size="12.666px" opacity=".8" xml:space="preserve"><tspan x="450.62247" y="-25.595865"/></text>
 <text x="-1040.8407" y="-32.805836" font-family="'Bitstream Vera Sans'" font-size="12.666px" opacity=".8" xml:space="preserve"><tspan x="-1040.8407" y="-32.805836"/></text>
 <text x="419.70206" y="-306.03989" font-family="'Bitstream Vera Sans'" font-size="12.666px" opacity=".8" xml:space="preserve"><tspan x="419.70206" y="-306.03989"/></text>
 <text x="-608.03253" y="-35.520081" font-family="'Bitstream Vera Sans'" font-size="12.666px" opacity=".8" xml:space="preserve"><tspan x="-608.03253" y="-35.520081"/></text>
 <text x="-2431.7185" y="710.03345" font-family="'Bitstream Vera Sans'" font-size="12.666px" opacity=".8" xml:space="preserve"><tspan x="-2431.7185" y="710.03345"/></text>
 <text x="-456.93948" y="-897.0506" font-family="'Bitstream Vera Sans'" font-size="12.666px" opacity=".8" xml:space="preserve"><tspan x="-456.93948" y="-897.0506"/></text>
 <text x="350.66266" y="-1310.5208" font-family="'Bitstream Vera Sans'" font-size="12.666px" opacity=".8" xml:space="preserve"><tspan x="350.66266" y="-1310.5208"/></text>
 <text x="374.62357" y="-1351.2626" font-family="'Bitstream Vera Sans'" font-size="12.666px" opacity=".8" xml:space="preserve"><tspan x="374.62357" y="-1351.2626"/></text>
 <text x="-1116.8396" y="-1358.4724" font-family="'Bitstream Vera Sans'" font-size="12.666px" opacity=".8" xml:space="preserve"><tspan x="-1116.8396" y="-1358.4724"/></text>
 <text x="343.70316" y="-1631.7065" font-family="'Bitstream Vera Sans'" font-size="12.666px" opacity=".8" xml:space="preserve"><tspan x="343.70316" y="-1631.7065"/></text>
 <text x="1829.8265" y="-1005.0153" font-family="'Bitstream Vera Sans'" font-size="12.666px" opacity=".8" xml:space="preserve"><tspan x="1829.8265" y="-1005.0153"/></text>
 <text x="1853.7874" y="-1045.757" font-family="'Bitstream Vera Sans'" font-size="12.666px" opacity=".8" xml:space="preserve"><tspan x="1853.7874" y="-1045.757"/></text>
 <text x="362.32431" y="-1052.9668" font-family="'Bitstream Vera Sans'" font-size="12.666px" opacity=".8" xml:space="preserve"><tspan x="362.32431" y="-1052.9668"/></text>
 <text x="1822.8671" y="-1326.2009" font-family="'Bitstream Vera Sans'" font-size="12.666px" opacity=".8" xml:space="preserve"><tspan x="1822.8671" y="-1326.2009"/></text>
 <text x="-575.492" y="-1101.0581" font-family="'Bitstream Vera Sans'" font-size="12.666px" opacity=".8" xml:space="preserve"><tspan x="-575.492" y="-1101.0581"/></text>
 <text x="-2399.1777" y="-355.50461" font-family="'Bitstream Vera Sans'" font-size="12.666px" opacity=".8" xml:space="preserve"><tspan x="-2399.1777" y="-355.50461"/></text>
 <text x="-684.42224" y="-262.63245" font-family="'Bitstream Vera Sans'" font-size="12.666px" opacity=".8" xml:space="preserve"><tspan x="-684.42224" y="-262.63245"/></text>
 <text x="155.5923" y="-21.71829" font-family="'Bitstream Vera Sans'" font-size="12.666px" opacity=".8" xml:space="preserve"><tspan x="155.5923" y="-21.71829"/></text>
 <text x="179.55324" y="-62.460011" font-family="'Bitstream Vera Sans'" font-size="12.666px" opacity=".8" xml:space="preserve"><tspan x="179.55324" y="-62.460011"/></text>
 <text x="-1090.2634" y="-256.48859" font-family="'Bitstream Vera Sans'" font-size="12.666px" opacity=".8" xml:space="preserve"><tspan x="-1090.2634" y="-256.48859"/></text>
 <text x="-282.66141" y="-669.9588" font-family="'Bitstream Vera Sans'" font-size="12.666px" opacity=".8" xml:space="preserve"><tspan x="-282.66141" y="-669.9588"/></text>
 <text x="-258.70047" y="-710.7005" font-family="'Bitstream Vera Sans'" font-size="12.666px" opacity=".8" xml:space="preserve"><tspan x="-258.70047" y="-710.7005"/></text>
 <text x="-1750.1636" y="-717.91046" font-family="'Bitstream Vera Sans'" font-size="12.666px" opacity=".8" xml:space="preserve"><tspan x="-1750.1636" y="-717.91046"/></text>
 <text x="-289.62085" y="-991.14447" font-family="'Bitstream Vera Sans'" font-size="12.666px" opacity=".8" xml:space="preserve"><tspan x="-289.62085" y="-991.14447"/></text>
 <text x="1196.5026" y="-364.45316" font-family="'Bitstream Vera Sans'" font-size="12.666px" opacity=".8" xml:space="preserve"><tspan x="1196.5026" y="-364.45316"/></text>
 <text x="1220.4634" y="-405.19489" font-family="'Bitstream Vera Sans'" font-size="12.666px" opacity=".8" xml:space="preserve"><tspan x="1220.4634" y="-405.19489"/></text>
 <text x="-270.99973" y="-412.40482" font-family="'Bitstream Vera Sans'" font-size="12.666px" opacity=".8" xml:space="preserve"><tspan x="-270.99973" y="-412.40482"/></text>
 <text x="1189.5431" y="-685.63892" font-family="'Bitstream Vera Sans'" font-size="12.666px" opacity=".8" xml:space="preserve"><tspan x="1189.5431" y="-685.63892"/></text>
 <text x="-1208.816" y="-460.49609" font-family="'Bitstream Vera Sans'" font-size="12.666px" opacity=".8" xml:space="preserve"><tspan x="-1208.816" y="-460.49609"/></text>
 <text x="-3032.5017" y="285.05743" font-family="'Bitstream Vera Sans'" font-size="12.666px" opacity=".8" xml:space="preserve"><tspan x="-3032.5017" y="285.05743"/></text>
 <g transform="matrix(.90475 0 0 .90475 -716.75 -671.05)">
  <text x="-664.2738" y="1159.4154" font-family="'Bitstream Vera Sans'" font-size="14px" opacity=".8" xml:space="preserve"><tspan x="-664.2738" y="1159.4154"/></text>
 </g>
 <text x="435.90427" y="-363.22546" font-family="'Droid Sans'" font-size="12.666px" xml:space="preserve"><tspan x="435.90427" y="-363.22546"/><tspan x="435.90427" y="-347.3924"/></text>
 <text x="901.0882" y="-845.27002" font-family="'Bitstream Vera Sans'" font-size="12.666px" opacity=".8" xml:space="preserve"><tspan x="901.0882" y="-845.27002"/></text>
 <text x="-922.59778" y="-99.716553" font-family="'Bitstream Vera Sans'" font-size="12.666px" opacity=".8" xml:space="preserve"><tspan x="-922.59778" y="-99.716553"/></text>
 <text x="1628.1677" y="-1130.2659" font-family="'Bitstream Vera Sans'" font-size="12.666px" opacity=".8" xml:space="preserve"><tspan x="1628.1677" y="-1130.2659"/></text>
 <text x="1652.1285" y="-1171.0076" font-family="'Bitstream Vera Sans'" font-size="12.666px" opacity=".8" xml:space="preserve"><tspan x="1652.1285" y="-1171.0076"/></text>
 <text x="160.66542" y="-1178.2175" font-family="'Bitstream Vera Sans'" font-size="12.666px" opacity=".8" xml:space="preserve"><tspan x="160.66542" y="-1178.2175"/></text>
 <text x="1621.2083" y="-1451.4517" font-family="'Bitstream Vera Sans'" font-size="12.666px" opacity=".8" xml:space="preserve"><tspan x="1621.2083" y="-1451.4517"/></text>
 <path d="m11 2c-2.2793 0-4.3588 0.7085-5.8923 1.899-1.5336 1.1906-2.6077 2.8946-2.6077 4.7894v0.68489c-1.5226 0.76858-2.4998 2.7844-2.4998 5.1474 0 3.0245 1.7739 5.4792 3.9998 5.4792v-11.312c0-1.4187 0.6912-2.7242 1.9572-3.707 1.266-0.9831 3.0534-1.481 5.0428-1.481 1.9895 0 3.777 0.49795 5.0429 1.481 1.266 0.9828 1.951 2.2883 1.957 3.7074v10.315h-0.5v-9.7907c-0.3435 0-0.828 0.17135-1 0.3422v9.4485h-2.5v-1.49431c0-0.828-0.169-1.509-1-1.509h-3c-0.8309 0-1 0.681-1 1.509v0.99621c0 0.82785 0.16915 1.4943 1.0001 1.4943h8.0499c2.225-1e-3 3.95-2.455 3.95-5.478 0-2.363-0.978-4.379-2.5-5.1477v-0.68489c0-1.8948-1.074-3.5988-2.607-4.7894-1.534-1.1905-3.613-1.899-5.893-1.899zm-6.5 7.213v10.787c0.3435 0 0.828-0.17135 1-0.51355v-9.9312c-0.172-0.1704-0.6565-0.3418-1-0.3418z" fill="#4d4d4d"/>
 <path d="m11 2c-2.2795 0-4.3591 0.7079-5.8926 1.8984-1.5336 1.1906-2.6074 2.8943-2.6074 4.7891v0.5c0-1.8948 1.0738-3.5985 2.6074-4.7891 1.5335-1.1905 3.6131-1.8984 5.8926-1.8984s4.3591 0.70792 5.8926 1.8984c1.533 1.1906 2.607 2.8943 2.607 4.7891v-0.5c0-1.8948-1.074-3.5985-2.607-4.7891-1.534-1.1905-3.614-1.8984-5.893-1.8984zm-6.5 7.2129v0.5c0.3435 0 0.828 0.17095 1 0.3418v-0.5c-0.172-0.1712-0.6565-0.3421-1-0.3421zm13 0c-0.3435 0-0.828 0.17095-1 0.3418v0.5c0.172-0.17085 0.6565-0.3418 1-0.3418v-0.5zm-15 0.1601c-1.5226 0.769-2.5 2.785-2.5 5.148 0 0.07094 0.01369 0.13674 0.015625 0.20703 0.078148-2.233 1.026-4.119 2.4844-4.855v-0.5zm17 0v0.5c1.4592 0.73662 2.4072 2.6238 2.4844 4.8594 2e-3 -0.071 0.016-0.138 0.016-0.211 0-2.363-0.978-4.379-2.5-5.148zm-9.5 6.627c-0.83099 0-1 0.68192-1 1.5098v0.5c0-0.828 0.169-1.51 1-1.51h3c0.83099 0 1 0.68192 1 1.5098v-0.5c0-0.828-0.169-1.51-1-1.51h-3zm4 3.0039v0.50005h2.5v-0.5h-2.5zm3.5 0v0.5h0.5v-0.5h-0.5z" fill="#fff" opacity=".1"/>
 <path d="m11 3.5c-1.9895 0-3.777 0.4974-5.043 1.4805-1.266 0.9827-1.957 2.2879-1.957 3.707v0.5c0-1.4191 0.691-2.7243 1.957-3.707 1.266-0.9831 3.0535-1.4805 5.043-1.4805 1.989 0 3.777 0.4974 5.043 1.4805 1.266 0.9827 1.951 2.2879 1.957 3.707v-0.5c-6e-3 -1.4191-0.691-2.7243-1.957-3.707-1.266-0.9831-3.054-1.4805-5.043-1.4805zm-10.984 11.229c-0.003438 0.098-0.015625 0.193-0.015625 0.292 0 3.025 1.7742 5.479 4 5.479v-0.5c-2.1736 0-3.9038-2.345-3.9844-5.271zm21.969 0.0039c-0.081 2.922-1.763 5.265-3.934 5.267h-8.051c-0.831 0-1-0.666-1-1.494v0.5c0 0.828 0.169 1.494 1 1.494h8.0508c2.224-2e-3 3.949-2.456 3.949-5.479 0-0.098-0.012-0.192-0.016-0.289zm-16.485 4.753c-0.172 0.343-0.6565 0.514-1 0.514v0.5c0.3435 0 0.828-0.17147 1-0.51367v-0.5z" opacity=".2"/>
</svg>
