<svg width="22" height="22" version="1" xmlns="http://www.w3.org/2000/svg">
 <path d="m4 1c-0.554 0-1 0.446-1 1v18c0 0.554 0.446 1 1 1h14c0.554 0 1-0.446 1-1v-18c0-0.554-0.446-1-1-1h-14z" fill="#7a6a4d"/>
 <path d="m4 1c-0.554 0-1 0.446-1 1v18c0 0.554 0.446 1 1 1h2v-20h-1.9998z" opacity=".2"/>
 <path d="m14 1.5v9l1.5-1 1.5 1v-9z" opacity=".2"/>
 <path d="m14 1v9l1.5-1 1.5 1v-9z" style="fill:#f2bc61"/>
 <path d="m4 1c-0.554 0-1 0.446-1 1v0.5c0-0.554 0.446-1 1-1h14c0.554 0 1 0.446 1 1v-0.5c0-0.554-0.446-1-1-1h-14z" fill="#fff" opacity=".1"/>
 <path d="m3 20v0.5c0 0.554 0.446 1 1 1h14c0.554 0 1-0.446 1-1v-0.5c0 0.554-0.446 1-1 1h-14c-0.554 0-1-0.446-1-1z" opacity=".2"/>
</svg>
