<svg width="22" height="22" version="1" xmlns="http://www.w3.org/2000/svg">
 <path d="m6 1.4988964a3.0003 3.0003 0 0 0 -3 3v9.0000016a3.0003 3.0003 0 0 0 3 3h1.75l2.849609 3.800781a3.0003 3.0003 0 0 0 4.800782 0l3-4a3.0003 3.0003 0 0 0 -1.400391 -4.625v-0.675781c0-1.4111884-0.140925-2.7254218-0.609375-3.990236-0.495947-1.3390557-1.374763-2.5238424-2.601563-3.3125-1.225373-0.78774-2.410407-1.0399778-3.498046-1.1347656a3.0003 3.0003 0 0 0 -2.291016 -1.0625z" style="opacity:.2"/>
 <path d="m6 0.9999992a3.0003 3.0003 0 0 0 -3 3v9.0000008a3.0003 3.0003 0 0 0 3 3h1.75l2.849609 3.800781a3.0003 3.0003 0 0 0 4.800782 0l3-4a3.0003 3.0003 0 0 0 -1.400391 -4.625v-0.675781c0-1.4111884-0.140925-2.7254215-0.609375-3.9902352-0.495947-1.3390557-1.374763-2.5238424-2.601563-3.3125-1.225373-0.78774-2.410407-1.0399778-3.498046-1.1347656a3.0003 3.0003 0 0 0 -2.291016 -1.0625z" style="fill:#e14343"/>
 <path d="M 6,4.4999992 V 13.5 H 8 V 7.4999992 c 1.4999997,0 2.573394,0.07606 3.083984,0.4042969 0.255296,0.1641181 0.445096,0.3718741 0.619141,0.8417971 C 11.87717,9.2160156 12,9.9490736 12,11 v 3.5 H 9.9999997 L 13,18.5 l 3,-4 H 14 V 11 C 14,9.8009256 13.87283,8.8464832 13.578125,8.0507802 13.28342,7.255078 12.78572,6.6190839 12.166016,6.2207023 10.926606,5.4239391 9.4999997,5.4999992 8,5.4999992 v -1 z" style="opacity:.2"/>
 <path d="M 6,3.9999992 V 13 H 8 V 6.9999992 c 1.4999997,0 2.573394,0.07606 3.083984,0.4042969 0.255296,0.1641184 0.445096,0.3718742 0.619141,0.8417971 C 11.87717,8.7160152 12,9.4490736 12,10.5 V 14 H 9.9999997 L 13,18 16,14 H 14 V 10.5 C 14,9.3009256 13.87283,8.3464832 13.578125,7.5507804 13.28342,6.755078 12.78572,6.1190839 12.166016,5.7207023 10.926606,4.9239391 9.4999997,4.9999992 8,4.9999992 v -1 z" style="fill:#ffffff"/>
 <path d="m6 0.9999992a3.0003 3.0003 0 0 0 -3 3v0.5a3.0003 3.0003 0 0 1 3 -3h2a3.0003 3.0003 0 0 1 2.291016 1.0625c1.087639 0.094788 2.272674 0.3470256 3.498046 1.1347656 1.2268 0.7886576 2.105616 1.9734443 2.601563 3.3125 0.46845 1.2648144 0.609375 2.5790468 0.609375 3.9902352v-0.5c0-1.4111884-0.140925-2.7254215-0.609375-3.9902352-0.495947-1.3390557-1.374763-2.5238424-2.601563-3.3125-1.225372-0.78774-2.410407-1.0399778-3.498046-1.1347656a3.0003 3.0003 0 0 0 -2.291016 -1.0625zm11 10.175782v0.5a3.0003 3.0003 0 0 1 1.984375 2.582031 3.0003 3.0003 0 0 0 -1.984375 -3.082031z" style="fill:#ffffff;opacity:.2"/>
</svg>
