<svg width="22" height="22" version="1" xmlns="http://www.w3.org/2000/svg">
 <path d="m2 21.5c-0.554 0-1-0.446-1-1v-0.5c0 0.554 0.446 1 1 1h18c0.554 0 1-0.446 1-1v0.5c0 0.554-0.446 1-1 1z" style="opacity:.2"/>
 <rect transform="matrix(0,-1,-1,0,0,0)" x="-21" y="-21" width="20" height="20" rx="1" ry="1" style="fill:#4f4f4f"/>
 <path d="m2 1c-0.554 0-1 0.446-1 1v0.5c0-0.554 0.446-1 1-1h18c0.554 0 1 0.446 1 1v-0.5c0-0.554-0.446-1-1-1z" style="fill:#ffffff;opacity:.1"/>
 <path d="m12 4h3v14l-3-0.5z" style="fill:#d44338"/>
 <path d="m6 4.5v14l3-0.5v-13.5z" style="opacity:.2"/>
 <path d="m6 4v14l3-0.5v-13.5z" style="fill:#d44338"/>
 <path d="m6 4.5 6 13.5 3 0.5v-0.5l-3-0.5v-6l-3-7z" style="opacity:.2"/>
 <path d="m6 4 6 13.5 3 0.5-6-14z" style="fill:#ff695e"/>
</svg>
