<svg width="22" height="22" version="1" xmlns="http://www.w3.org/2000/svg">
 <path d="m9.4988609 1.500384c-4.6639745 0-8.4984785 3.8356587-8.4984785 8.501037 0 4.665378 3.834504 8.501037 8.4984785 8.501037h0.0039c0.9309491-0.0015 1.8358851-0.19343 2.7085001-0.490294l2.259361 2.260041c1.378787 1.379204 3.850687 1.806071 5.479488 0.17678 1.627625-1.628116 1.201082-4.101938-0.176727-5.480161l-2.261308-2.261995c0.294575-0.871682 0.484915-1.775098 0.485265-2.704431v-1e-3c0-4.6653553-3.834504-8.501014-8.4984771-8.501014z" style="opacity:.2"/>
 <path d="m9.4988609 1.0003934c-4.6639745 0-8.4984785 3.8356589-8.4984785 8.5010376 0 4.665378 3.834504 8.501037 8.4984785 8.501037h0.0039c0.9309491-0.0015 1.8358851-0.193431 2.7085001-0.490294l2.259361 2.260041c1.378787 1.379203 3.850687 1.806071 5.479488 0.176779 1.627625-1.628116 1.201082-4.101938-0.176727-5.48016l-2.261308-2.261995c0.294575-0.871682 0.484915-1.775099 0.485265-2.704432v-1e-3c0-4.6653547-3.834504-8.5010136-8.4984771-8.5010136z" style="fill:#4f4f4f"/>
 <path d="m12.45463 12.400061c-0.897417 2.36e-4 -0.45463 0.621767-0.45463 1l0.02671 0.440777 4.266254 4.266254c0.942508 0.98168 2.395742-0.471554 1.414062-1.414062l-5-5c-0.188266-0.193533 0.01761 0.707047-0.252396 0.707031z" style="opacity:.2"/>
 <path d="m12.45463 12c-0.897417 2.36e-4 -0.45463 0.621767-0.45463 1l0.02671 0.440777 4.266254 4.266254c0.942508 0.98168 2.395742-0.471554 1.414062-1.414062l-5-5c-0.188266-0.193533 0.017606 0.707047-0.252396 0.707031z" style="fill:#a27f41"/>
 <path d="m9.4999999 4.5c-3.0375661 1e-7 -5.4999999 2.4624339-5.5 5.5 1e-7 3.037566 2.4624339 5.5 5.5 5.5s5.5000001-2.462434 5.5000001-5.5c0-3.0375661-2.462434-5.4999999-5.5000001-5.5z" style="opacity:.2"/>
 <path d="m9.4999999 4c-3.0375661 1e-7 -5.4999999 2.4624339-5.5 5.5 1e-7 3.037566 2.4624339 5.5 5.5 5.5s5.5000001-2.462434 5.5000001-5.5c0-3.0375661-2.462434-5.4999999-5.5000001-5.5z" style="fill:#62aeff"/>
 <path d="m9.4988609 1.0003934c-4.6639745 0-8.4988609 3.8354349-8.4988609 8.5008136 0 0.08434 0.010206 0.166215 0.012695 0.249995 0.1351693-4.5506162 3.9065065-8.2508182 8.4861659-8.2508182 4.5806431 0 8.3525351 3.701808 8.4861651 8.2537472 0.0031-0.08411 0.01266-0.167405 0.01269-0.251948v-1e-3c0-4.6653312-3.834887-8.5007896-8.4988601-8.5007896zm8.1297271 11.323025c-0.03815 0.127997-0.0734 0.257108-0.116209 0.383782l2.260698 2.261675c0.692275 0.692483 1.143717 1.66167 1.215798 2.661082 0.06787-1.169447-0.408396-2.353427-1.215798-3.161072z" style="fill:#ffffff;opacity:.1"/>
 <path d="m6.9999999 6.5000002v0.9999996 2.0000002 1 3h1v-3h3.0000001v3h1v-6.9999998h-4.0000001zm1 0.9999996h3.0000001v2.0000002h-3.0000001z" style="opacity:.2"/>
 <path d="m6.9999999 6.0000002v0.9999996 2.0000002 1 3h1v-3h3.0000001v3h1v-6.9999998h-4.0000001zm1 0.9999996h3.0000001v2.0000002h-3.0000001z" style="fill:#ffffff"/>
</svg>
