<svg width="22" height="22" version="1.1" viewBox="0 0 22 22" xmlns="http://www.w3.org/2000/svg">
 <path d="m11 1.5a10 10 0 0 0 -10 10 10 10 0 0 0 10 10 10 10 0 0 0 10 -10 10 10 0 0 0 -10 -10z" style="opacity:.2"/>
 <path d="M 11,1 C 5.4771525,1 1,5.4771525 1,11 c 0,4.299171 2.7129724,7.964695 6.520301,9.377953 1.083682,0.402256 2.094298,-1.183883 3.317974,-1.183883 5.522847,0 9.245283,-2.617314 9.245283,-8.140162 0,-4.454492 -2.157826,-7.2314194 -6.182447,-8.5249276 C 13.750168,2.4804677 13.759386,1.3842313 13.60541,1.3427923 12.774731,1.1192353 11.90129,1 11,1 Z" style="fill:#3168b2"/>
 <path d="M 13.536133,1.8330078 C 11.92125,2.7455033 7.6662645,5.368207 8,7.6777345 c 0.4618225,3.1959165 6.803134,2.6551765 7,5.1562505 0.239872,3.047443 -4.170818,6.113656 -7.0908205,7.664062 C 8.9067019,20.826633 9.94976,20.996027 11,21 16.40626,20.9965 20.830872,16.696909 20.989258,11.292969 20.89512,6.8294633 17.853669,2.9690671 13.536133,1.8330078 Z" style="opacity:.2"/>
 <path d="M 13.536133,1.3330078 C 11.92125,2.2455033 7.6662645,4.868207 8,7.1777345 8.4618225,10.373651 14.803134,9.832911 15,12.333985 15.255576,15.580933 10.133784,18.872328 7.336914,20.302734 8.5034264,20.762766 9.746054,20.999299 11,21 16.522847,21 21,16.522847 21,11 20.997244,6.4561705 17.931406,2.4853828 13.536133,1.3330078 Z" style="fill:#e4e4e4"/>
 <path d="m3.0117188 5.5c-0.389202 0.517332-0.7274969 1.0737077-1.0117188 1.6621094v0.3378906h-0.1621094c-0.1247461 0.2852705-0.2358312 0.5765824-0.3339844 0.875-0.0095729 0.0336318-0.0222432 0.0964289-0.03125 0.125h1.5273438v6h-1.5371094c0.00372 0.01166 0.00985 0.03824 0.013672 0.05078 0.1041317 0.324873 0.2296942 0.639788 0.3652343 0.94922h0.1582031v0.355469c0.2829493 0.582849 0.6235685 1.131678 1.0097656 1.644531h1.9902344 5 2 5 1.988281a10 10 0 0 0 0.65625 -1h-0.644531v-1h1v0.337891a10 10 0 0 0 0.527344 -1.337891h-1.527344v-6h1.537109a10 10 0 0 0 -0.537109 -1.3261719v0.3261719h-1v-1h0.646484a10 10 0 0 0 -0.666015 -1h-15.96875zm-0.0117188 1h1v1h-1v-1zm2 0h1v1h-1v-1zm2 0h1v1h-1v-1zm2 0h1v1h-1v-1zm2 0h1v1h-1v-1zm2 0h1v1h-1v-1zm2 0h1v1h-1v-1zm2 0h1v1h-1v-1zm-12 2h5v6h-5v-6zm7 0h5v6h-5v-6zm-9 7h1v1h-1v-1zm2 0h1v1h-1v-1zm2 0h1v1h-1v-1zm2 0h1v1h-1v-1zm2 0h1v1h-1v-1zm2 0h1v1h-1v-1zm2 0h1v1h-1v-1zm2 0h1v1h-1v-1z" style="opacity:.2"/>
 <path d="m3.0117188 5c-0.389202 0.517332-0.7274969 1.0737077-1.0117188 1.6621094v0.3378906h-0.1621094c-0.1247461 0.2852705-0.2358312 0.5765824-0.3339844 0.875-0.0095729 0.0336318-0.0222432 0.0964289-0.03125 0.125h1.5273438v6h-1.5371094c0.00372 0.01166 0.00985 0.03824 0.013672 0.05078 0.1041317 0.324873 0.2296942 0.639788 0.3652343 0.94922h0.1582031v0.355469c0.2829493 0.582849 0.6235685 1.131678 1.0097656 1.644531h1.9902344 5 2 5 1.988281a10 10 0 0 0 0.65625 -1h-0.644531v-1h1v0.337891a10 10 0 0 0 0.527344 -1.337891h-1.527344v-6h1.537109a10 10 0 0 0 -0.537109 -1.3261719v0.3261719h-1v-1h0.646484a10 10 0 0 0 -0.666015 -1h-15.96875zm-0.0117188 1h1v1h-1v-1zm2 0h1v1h-1v-1zm2 0h1v1h-1v-1zm2 0h1v1h-1v-1zm2 0h1v1h-1v-1zm2 0h1v1h-1v-1zm2 0h1v1h-1v-1zm2 0h1v1h-1v-1zm-12 2h5v6h-5v-6zm7 0h5v6h-5v-6zm-9 7h1v1h-1v-1zm2 0h1v1h-1v-1zm2 0h1v1h-1v-1zm2 0h1v1h-1v-1zm2 0h1v1h-1v-1zm2 0h1v1h-1v-1zm2 0h1v1h-1v-1zm2 0h1v1h-1v-1z" style="fill:#3c3c3c"/>
 <path d="M 11,1 A 10,10 0 0 0 1.0705,9.926 10,9.5 0 0 1 11,1.5 10,9.5 0 0 1 20.961,10.2235 10,10 0 0 0 11,1 Z m 9.961,9.2235 A 10,10 0 0 1 21,11 10,9.5 0 0 0 20.961,10.2235 Z M 1.0705,9.926 A 10,9.5 0 0 0 1.0461,10.122 10,10 0 0 1 1.0705,9.926 Z M 1.0461,10.122 A 10,10 0 0 0 1.0002,11 10,9.5 0 0 1 1.0461,10.122 Z" style="fill:#ffffff;opacity:.1"/>
</svg>
