<svg width="22" height="22" version="1.0" xmlns="http://www.w3.org/2000/svg">
 <defs>
  <clipPath id="clipPath4186">
   <circle cx="286" cy="26" r="10" fill="url(#linearGradient4190)"/>
  </clipPath>
 </defs>
 <path d="m11 1a10 10 0 0 0 -10 10 10 10 0 0 0 10 10 10 10 0 0 0 10 -10 10 10 0 0 0 -10 -10zm0 4a5 6 0 0 1 5 6 5 6 0 0 1 -5 6 5 6 0 0 1 -5 -6 5 6 0 0 1 5 -6z" fill="#e74c3c"/>
 <circle transform="translate(-275 -15)" cx="286" cy="26" r="10" clip-path="url(#clipPath4186)" opacity="0" stroke-width=".45455"/>
 <circle transform="translate(-275 -15)" cx="286" cy="26" r="10" clip-path="url(#clipPath4186)" opacity="0" stroke-width=".90909"/>
 <path d="m11 1a10 10 0 0 0 -10 10 10 10 0 0 0 0.00977 0.20703 10 10 0 0 1 9.9902 -9.707 10 10 0 0 1 9.99 9.793 10 10 0 0 0 0.01 -0.293 10 10 0 0 0 -10 -10zm4.9922 10.197a5 6 0 0 1 -4.992 5.803 5 6 0 0 1 -4.9921 -5.697 5 6 0 0 0 -0.0078 0.197 5 6 0 0 0 5 6 5 6 0 0 0 5 -6 5 6 0 0 0 -0.0078 -0.30273z" fill="#fff" opacity=".2"/>
 <path d="m11 5a5 6 0 0 0 -5 6 5 6 0 0 0 0.00781 0.30273 5 6 0 0 1 4.9922 -5.803 5 6 0 0 1 4.992 5.697 5 6 0 0 0 8e-3 -0.197 5 6 0 0 0 -5 -6zm-9.9902 6.207a10 10 0 0 0 -0.0097 0.293 10 10 0 0 0 10 10 10 10 0 0 0 10 -10 10 10 0 0 0 -0.0098 -0.20703 10 10 0 0 1 -9.99 9.707 10 10 0 0 1 -9.9902 -9.793z" opacity=".2"/>
</svg>
