<svg width="22" height="22" version="1.1" viewBox="0 0 22 22" xmlns="http://www.w3.org/2000/svg">
 <path d="M 1.0108143,11.209066 A 9.9999354,9.9999354 0 0 0 1.0000643,11.500065 9.9999354,9.9999354 0 0 0 11,21.5 9.9999354,9.9999354 0 0 0 20.999936,11.500065 9.9999354,9.9999354 0 0 0 20.989436,11.291066 9.9999354,9.9999354 0 0 1 11,21.000003 9.9999354,9.9999354 0 0 1 1.0110643,11.209066 Z" style="opacity:.2"/>
 <g transform="matrix(.12161308 0 0 .12161308 -33.50528 -46.754837)" style="clip-rule:evenodd;fill-rule:evenodd">
  <circle cx="365.958" cy="474.907" r="82.228" style="fill:#3cb054"/>
 </g>
 <g transform="matrix(.11876449 0 0 .11351953 -32.408313 -42.458493)" style="clip-rule:evenodd;fill-rule:evenodd;opacity:.2">
  <path d="m331.819 431.279c61.093 2.189 84.652 37.71 72.825 69.411-3.351 8.821-6.911 13.649-14.399 18.679 0.305-1.271 0.619-2.549 0.856-3.85 4.43-24.732-1.38606-54.5875-42.44206-71.0265 32.665 18.834 40.85161 52.854 28.03606 74.0685-25.927 3.948-44.876-17.502-44.876-42.215z"/>
 </g>
 <path d="m6.9999995 6.0001001c7.2556795 0.2484939 10.053652 4.2808209 8.6490245 7.8795039-0.397979 1.001356-0.820781 1.549428-1.710091 2.120432 0.03622-0.144284 0.07352-0.289362 0.101663-0.437051 0.526126-2.807565-0.164614-6.196747-5.0406094-8.0628946 3.8794424 2.1380266 4.8517214 5.9999616 3.3296874 8.4082216-3.0792055 0.448175-5.3296745-1.986819-5.3296745-4.792227z" style="clip-rule:evenodd;fill-rule:evenodd;fill:#ffffff"/>
 <path d="m11 1.0001324a9.9999354 9.9999354 0 0 0 -9.9999357 9.9999356 9.9999354 9.9999354 0 0 0 0.01075 0.208998 9.9999354 9.9999354 0 0 1 9.9889357 -9.7089368 9.9999354 9.9999354 0 0 1 9.989436 9.7909368 9.9999354 9.9999354 0 0 0 0.0105 -0.290998 9.9999354 9.9999354 0 0 0 -9.999936 -9.9999356z" style="fill:#ffffff;opacity:.2"/>
</svg>
