<svg width="22" height="22" version="1" xmlns="http://www.w3.org/2000/svg">
 <g transform="matrix(.5 0 0 .5 -1 -1)">
  <circle cx="24" cy="24" r="20" style="fill:#e97247"/>
  <path d="M 24,4 A 20,20 0 0 0 4,24 20,20 0 0 0 4.0215,24.582 20,20 0 0 1 23.9995,5 20,20 0 0 1 43.9785,24.418 20,20 0 0 0 43.9995,24 a 20,20 0 0 0 -20,-20 z" style="fill:#ffffff;opacity:.2"/>
  <path d="M 43.979,24.418 A 20,20 0 0 1 24,44 20,20 0 0 1 4.022,24.582 20,20 0 0 0 4,25 20,20 0 0 0 24,45 20,20 0 0 0 44,25 20,20 0 0 0 43.979,24.418 Z" style="opacity:.2"/>
  <circle cx="24" cy="25" r="14" style="opacity:.2"/>
  <circle cx="24" cy="24" r="14" style="fill:#ffffff"/>
  <path d="M 34.25,14.482422 31,17.5 24,24 l 7,6.5 3.246094,3.013672 A 14,14 0 0 0 38,24 14,14 0 0 0 34.25,14.482422 Z" style="fill:#666666"/>
  <path d="m34.007925 22.000137s1.062461 1.099368 1 2.99979c-0.06246 1.900422-1 3.00021-1 3.00021" style="fill:none;opacity:.2;stroke-linecap:round;stroke-linejoin:round;stroke-width:2;stroke:#000000"/>
  <path d="m34.007925 21s1.062461 1.099368 1 2.99979c-0.06246 1.900422-1 3.00021-1 3.00021" style="fill:none;stroke-linecap:round;stroke-linejoin:round;stroke-width:2;stroke:#f3f3f3"/>
 </g>
</svg>
