<svg width="22" height="22" version="1" xmlns="http://www.w3.org/2000/svg">
 <rect x="1" y="4" width="20" height="14" rx="1" ry="1" style="fill:#4f4f4f"/>
 <path d="m2 4c-0.554 0-1 0.446-1 1v0.5c0-0.554 0.446-1 1-1h18c0.554 0 1 0.446 1 1v-0.5c0-0.554-0.446-1-1-1z" style="fill:#ffffff;opacity:.1"/>
 <path d="m1 17v0.5c0 0.554 0.446 1 1 1h18c0.554 0 1-0.446 1-1v-0.5c0 0.554-0.446 1-1 1h-18c-0.554 0-1-0.446-1-1z" style="opacity:.2"/>
 <circle cx="5" cy="8.5" r="1" style="opacity:.2"/>
 <circle cx="8" cy="8.5" r="1" style="opacity:.2"/>
 <circle cx="11" cy="8.5" r="1" style="opacity:.2"/>
 <circle cx="14" cy="8.5" r="1" style="opacity:.2"/>
 <circle cx="17" cy="8.5" r="1" style="opacity:.2"/>
 <circle cx="7" cy="12.5" r="1" style="opacity:.2"/>
 <circle cx="10" cy="12.5" r="1" style="opacity:.2"/>
 <circle cx="13" cy="12.5" r="1" style="opacity:.2"/>
 <circle cx="16" cy="12.5" r="1" style="opacity:.2"/>
 <rect x="4" y="15.5" width="14" height="2" rx=".5" ry=".5" style="opacity:.2"/>
 <circle cx="5" cy="8" r="1" style="fill:#e4e4e4"/>
 <circle cx="8" cy="8" r="1" style="fill:#e4e4e4"/>
 <circle cx="11" cy="8" r="1" style="fill:#e4e4e4"/>
 <circle cx="14" cy="8" r="1" style="fill:#e4e4e4"/>
 <circle cx="17" cy="8" r="1" style="fill:#ff8834"/>
 <circle cx="7" cy="12" r="1" style="fill:#e4e4e4"/>
 <circle cx="10" cy="12" r="1" style="fill:#e4e4e4"/>
 <circle cx="13" cy="12" r="1" style="fill:#ff8834"/>
 <circle cx="16" cy="12" r="1" style="fill:#e4e4e4"/>
 <rect x="4" y="15" width="14" height="2" rx=".5" ry=".5" style="fill:#e4e4e4"/>
</svg>
