<svg width="22" height="22" version="1.1" viewBox="0 0 22 22" xmlns="http://www.w3.org/2000/svg">
 <path d="m2 2c-0.554 0-1 0.446-1 1v15 1c0 0.554 0.446 1 1 1h18c0.554 0 1-0.446 1-1v-1-15c0-0.554-0.446-1-1-1h-18z" style="fill:#8b346f"/>
 <path d="m2 2c-0.554 0-1 0.446-1 1v15 1c0 0.554 0.446 1 1 1h3v-18h-3z" style="opacity:.2"/>
 <path d="m2 2c-0.554 0-1 0.446-1 1v0.5c0-0.554 0.446-1 1-1h18c0.554 0 1 0.446 1 1v-0.5c0-0.554-0.446-1-1-1z" style="fill:#ffffff;opacity:.1"/>
 <path d="m1 19v0.5c0 0.554 0.446 1 1 1h18c0.554 0 1-0.446 1-1v-0.5c0 0.554-0.446 1-1 1h-18c-0.554 0-1-0.446-1-1z" style="opacity:.2"/>
 <g transform="translate(-2,-2.5)" style="opacity:.2">
  <rect x="4" y="6" width="2" height="2" rx=".25" ry=".25"/>
  <rect x="4" y="9" width="2" height="2" rx=".25" ry=".25"/>
  <rect x="4" y="12" width="2" height="2" rx=".25" ry=".25"/>
  <rect x="4" y="15" width="2" height="2" rx=".25" ry=".25"/>
 </g>
 <rect x="2" y="3" width="2" height="2" rx=".25" ry=".25" style="fill:#ffffff"/>
 <rect x="2" y="6" width="2" height="2" rx=".25" ry=".25" style="fill:#ffffff"/>
 <rect x="2" y="9" width="2" height="2" rx=".25" ry=".25" style="fill:#ffffff"/>
 <rect x="2" y="12" width="2" height="2" rx=".25" ry=".25" style="fill:#ffffff"/>
</svg>
