<svg width="22" height="22" version="1" xmlns="http://www.w3.org/2000/svg">
 <g transform="translate(-1 -1)">
  <path d="m7.026 4.5v0.00195c-2.4885 0-4.3601 2.0013-4.4909 4.4807l-0.4988 9.4603c-0.315 1.85 1.4831 3.018 2.9946 0.995 0.9425-1.279 2.9691-3.938 2.9691-3.938l8 0.04044 2.9887 4.0231c1.4989 2.012 3.187 0.35648 2.9965-1.0053l-0.496-9.4746c7.84e-4 -0.034624 0.0098-0.066882 0.0098-0.1017 0-2.4824-2.0028-4.4827-4.4909-4.4827h-9.9833z" opacity=".2"/>
  <path d="m7.026 4v0.00195c-2.4885 0-4.3601 2.0013-4.4909 4.4807l-0.4988 9.4603c-0.315 1.85 1.4831 3.018 2.9946 0.995 0.9425-1.279 2.9691-3.938 2.9691-3.938l8 0.04044 2.9887 4.0231c1.4989 2.012 3.187 0.35648 2.9965-1.0053l-0.496-9.4746c7.84e-4 -0.034624 0.0098-0.066882 0.0098-0.1017 0-2.4824-2.0028-4.4827-4.4909-4.4827h-9.9833z" fill="#4f4f4f"/>
  <path d="m7.0254 4v0.00195c-2.4885 0-4.3594 2.0011-4.4902 4.4805l-0.4981 9.4605c-0.04388 0.25773-0.03947 0.49623-0.00781 0.7207 0.00595-0.07516-0.00543-0.14294 0.00781-0.2207l0.4981-9.4606c0.1307-2.4794 2.0017-4.4804 4.4902-4.4804v-0.00195h9.9844c2.488 0 4.49 2 4.49 4.4824 0 0.034819-9e-3 0.066938-0.0098 0.10156l0.48633 9.3223c0.0094-0.11657 0.02387-0.23289 0.0078-0.34766l-0.494-9.474c1e-3 -0.0346 0.01-0.0668 0.01-0.1016 0-2.4824-2.002-4.4824-4.49-4.4824h-9.9846z" fill="#fff" opacity=".1"/>
  <path d="m6 6.5v2h-2v2h2v2h2v-2h2v-2h-2v-2h-2z" opacity=".2"/>
  <path d="m6 6v2h-2v2h2v2h2v-2h2v-2h-2v-2h-2z" fill="#e4e4e4"/>
  <path d="m17 6.5a1 1 0 0 0 -1 1 1 1 0 0 0 1 1 1 1 0 0 0 1 -1 1 1 0 0 0 -1 -1zm-2 2a1 1 0 0 0 -1 1 1 1 0 0 0 1 1 1 1 0 0 0 1 -1 1 1 0 0 0 -1 -1zm4 0a1 1 0 0 0 -1 1 1 1 0 0 0 1 1 1 1 0 0 0 1 -1 1 1 0 0 0 -1 -1zm-2 2a1 1 0 0 0 -1 1 1 1 0 0 0 1 1 1 1 0 0 0 1 -1 1 1 0 0 0 -1 -1z" opacity=".2"/>
  <g transform="translate(0,1)">
   <circle cx="15" cy="8" r="1" fill="#ee5353"/>
   <circle transform="rotate(90)" cx="10" cy="-17" r="1" fill="#ffca58"/>
   <circle cx="17" cy="6" r="1" fill="#ee5353"/>
   <circle transform="rotate(90)" cx="8" cy="-19" r="1" fill="#ffca58"/>
  </g>
 </g>
</svg>
