<svg width="22" height="22" version="1.0" xmlns="http://www.w3.org/2000/svg">
 <defs>
  <clipPath id="clipPath4186">
   <circle cx="286" cy="26" r="10" style="fill:url(#linearGradient4190)"/>
  </clipPath>
 </defs>
 <g transform="translate(-1,-1)">
  <circle cx="12" cy="12" r="10" style="fill:#2f67ba"/>
  <circle transform="translate(-274,-14)" cx="286" cy="26" r="10" clip-path="url(#clipPath4186)" style="opacity:0"/>
  <circle transform="translate(-274,-14)" cx="286" cy="26" r="10" clip-path="url(#clipPath4186)" style="opacity:0"/>
  <path d="m12 2c-5.5395 0-9.999 4.46-9.999 10 0 0.08386-2e-3 0.166645 0 0.25 0.1321-5.423 4.5435-9.75 9.999-9.75s9.867 4.3268 9.999 9.75c2e-3 -0.08335 0-0.16614 0-0.25 0-5.54-4.4595-10-9.999-10z" style="fill:#ffffff;opacity:.2"/>
  <path d="M 21.9895,12.209 A 10,10 0 0 1 12,22 10,10 0 0 1 2.011,12.291 10,10 0 0 0 2,12.5 a 10,10 0 0 0 10,10 10,10 0 0 0 10,-10 10,10 0 0 0 -0.0105,-0.291 z" style="opacity:.2"/>
  <path d="m7 8.5a4 4 0 0 0 -4 4 4 4 0 0 0 4 4 4 4 0 0 0 2 -0.540039v4.540039h2v-8-4h-2v0.541992a4 4 0 0 0 -2 -0.541992zm0 2a2 2 0 0 1 2 2 2 2 0 0 1 -2 2 2 2 0 0 1 -2 -2 2 2 0 0 1 2 -2z" style="opacity:.2"/>
  <path d="m7 8a4 4 0 0 0 -4 4 4 4 0 0 0 4 4 4 4 0 0 0 2 -0.540039v4.540039h2v-8-4h-2v0.541992a4 4 0 0 0 -2 -0.541992zm0 2a2 2 0 0 1 2 2 2 2 0 0 1 -2 2 2 2 0 0 1 -2 -2 2 2 0 0 1 2 -2z" style="fill:#7fc1de"/>
  <path d="m17 16.5a4 4 0 0 0 4 -4 4 4 0 0 0 -4 -4 4 4 0 0 0 -2 0.540039v-4.540039h-2v8 4h2v-0.541992a4 4 0 0 0 2 0.541992zm0-2a2 2 0 0 1 -2 -2 2 2 0 0 1 2 -2 2 2 0 0 1 2 2 2 2 0 0 1 -2 2z" style="opacity:.2"/>
  <path d="m17 16a4 4 0 0 0 4 -4 4 4 0 0 0 -4 -4 4 4 0 0 0 -2 0.540039v-4.540039h-2v8 4h2v-0.541992a4 4 0 0 0 2 0.541992zm0-2a2 2 0 0 1 -2 -2 2 2 0 0 1 2 -2 2 2 0 0 1 2 2 2 2 0 0 1 -2 2z" style="fill:#ffffff"/>
 </g>
</svg>
