<svg width="22" height="22" version="1.0" xmlns="http://www.w3.org/2000/svg">
 <rect transform="matrix(0,-1,-1,0,0,0)" x="-21" y="-21" width="20" height="20" rx="1" ry="1" fill="#66a6de"/>
 <path d="m9 6.5a3 3 0 0 1 -3 3 3 3 0 0 1 -3 -3 3 3 0 0 1 3 -3 3 3 0 0 1 3 3z" opacity=".2"/>
 <path d="m9 6a3 3 0 0 1 -3 3 3 3 0 0 1 -3 -3 3 3 0 0 1 3 -3 3 3 0 0 1 3 3z" fill="#fff"/>
 <path d="m9 16a3 3 0 0 1 -3 3 3 3 0 0 1 -3 -3 3 3 0 0 1 3 -3 3 3 0 0 1 3 3z" fill="#4d4d4d"/>
 <path d="m19 16.5a3 3 0 0 0 -3 -3 3 3 0 0 0 -3 3 3 3 0 0 0 3 3 3 3 0 0 0 3 -3z" opacity=".2"/>
 <path d="m19 16a3 3 0 0 0 -3 -3 3 3 0 0 0 -3 3 3 3 0 0 0 3 3 3 3 0 0 0 3 -3z" fill="#fff"/>
 <path d="m19 6a3 3 0 0 0 -3 -3 3 3 0 0 0 -3 3 3 3 0 0 0 3 3 3 3 0 0 0 3 -3z" fill="#4d4d4d"/>
 <path d="m2 1c-0.554 0-1 0.446-1 1v0.5c0-0.554 0.446-1 1-1h18c0.554 0 1 0.446 1 1v-0.5c0-0.554-0.446-1-1-1h-18z" fill="#fff" opacity=".2"/>
 <path d="m2 21.5c-0.554 0-1-0.446-1-1v-0.5c0 0.554 0.446 1 1 1h18c0.554 0 1-0.446 1-1v0.5c0 0.554-0.446 1-1 1h-18z" opacity=".2"/>
</svg>
