<svg width="22" height="22" version="1" xmlns="http://www.w3.org/2000/svg">
 <circle cx="11" cy="11" r="10" style="fill:#2f67ba"/>
 <rect transform="matrix(0,-1,-1,0,0,0)" x="-18.5" y="-18" width="14" height="14" rx="7" ry="7" style="opacity:.2"/>
 <rect transform="matrix(0,-1,-1,0,0,0)" x="-18" y="-18" width="14" height="14" rx="7" ry="7" style="fill:#4bd076"/>
 <g transform="matrix(.5 0 0 .5 -235.5 -83.99975)" style="enable-background:new;opacity:.2">
  <path d="m489 183v8.1875c-0.32-0.12-0.64-0.19-1-0.19-1.6568 0-3 1.3432-3 3s1.3432 3 3 3 3-1.3432 3-3v-7h6v4.1875c-0.32-0.12-0.64-0.19-1-0.19-1.6568 0-3 1.3432-3 3s1.3432 3 3 3 3-1.3432 3-3v-11h-1z"/>
 </g>
 <g transform="matrix(.5 0 0 .5 -235.5 -84.49975)" style="enable-background:new;fill:#3f3f3f">
  <path d="m489 183v8.1875c-0.32-0.12-0.64-0.19-1-0.19-1.6568 0-3 1.3432-3 3s1.3432 3 3 3 3-1.3432 3-3v-7h6v4.1875c-0.32-0.12-0.64-0.19-1-0.19-1.6568 0-3 1.3432-3 3s1.3432 3 3 3 3-1.3432 3-3v-11h-1z" style="fill:#3f3f3f"/>
 </g>
 <path d="M 11,1 A 10,10 0 0 0 1,11 10,10 0 0 0 1.0107,11.291 10,10 0 0 1 11,1.5 10,10 0 0 1 20.989,11.209 10,10 0 0 0 21,11 10,10 0 0 0 11,1 Z" style="fill:#ffffff;opacity:.2"/>
 <path d="M 20.989,11.209 A 10,10 0 0 1 11,21 10,10 0 0 1 1.0107,11.291 10,10 0 0 0 1,11.5 a 10,10 0 0 0 10,10 10,10 0 0 0 10,-10 10,10 0 0 0 -0.01074,-0.29102 z" style="opacity:.2"/>
 <path d="M 11,4 C 7.122,4 4,7.122 4,11 4,11.08452 4.00878,11.166218 4.011719,11.25 4.1437474,7.4898619 7.2065251,4.5 11,4.5 c 3.793475,0 6.856253,2.9898619 6.988281,6.75 C 17.991223,11.166218 18,11.084525 18,11 18,7.122 14.878,4 11,4 Z" style="fill:#ffffff;opacity:.2"/>
</svg>
