<svg width="22" height="22" version="1" xmlns="http://www.w3.org/2000/svg">
 <rect transform="scale(-1,1)" x="-19" y="1" width="16" height="20" rx="1" ry="1" style="fill:#e4e4e4"/>
 <circle transform="rotate(-90)" cx="-13" cy="11" r="7" style="fill:#3f3f3f"/>
 <circle transform="matrix(0,-1,-1,0,0,0)" cx="-13.5" cy="-11" r="5" style="opacity:.2"/>
 <circle transform="matrix(0,-1,-1,0,0,0)" cx="-13" cy="-11" r="5" style="fill:#fec006"/>
 <circle transform="matrix(0,-1,-1,0,0,0)" cx="-13" cy="-11" r="2" style="fill:#3f3f3f"/>
 <circle transform="rotate(90)" cx="4" cy="-6" r="1" style="fill:#3f3f3f"/>
 <circle transform="rotate(90)" cx="4" cy="-16" r="1" style="fill:#3f3f3f"/>
 <path d="m3 20v0.5c0 0.554 0.446 1 1 1h14c0.554 0 1-0.446 1-1v-0.5c0 0.554-0.446 1-1 1h-14c-0.554 0-1-0.446-1-1z" style="opacity:.2"/>
 <path d="m4 1c-0.554 0-1 0.446-1 1v0.5c0-0.554 0.446-1 1-1h14c0.554 0 1 0.446 1 1v-0.5c0-0.554-0.446-1-1-1z" style="fill:#ffffff;opacity:.1"/>
</svg>
