<svg width="22" height="22" version="1" xmlns="http://www.w3.org/2000/svg">
 <rect x="1" y="1.5" width="20" height="20" rx="1" ry="1" style="opacity:.2"/>
 <path d="m11 1h-9c-0.554 0-1 0.446-1 1v9h10z" style="fill:#cf4f8c"/>
 <path d="m11 1h9c0.554 0 1 0.446 1 1v9h-10z" style="fill:#6655e4"/>
 <path d="m11 21h-9c-0.554 0-1-0.446-1-1v-9h10z" style="fill:#ff8c2a"/>
 <path d="m11 21h9c0.554 0 1-0.446 1-1v-9h-10z" style="fill:#cf4f8c"/>
 <rect x="4" y="4" width="14" height="14" style="fill:#3f3f3f"/>
 <path d="m6.5 15h4" style="fill:none;opacity:.2;stroke-linecap:round;stroke:#000000"/>
 <path d="m6.5 14.5h4" style="fill:none;stroke-linecap:round;stroke:#ffffff"/>
 <path d="m10.5 11s2.022 0.175 2-2-2-2-2-2m0 4v-4" style="fill:none;opacity:.2;stroke-linecap:round;stroke-linejoin:bevel;stroke:#000000"/>
 <path d="m10.5 10.5s2.022 0.175 2-2-2-2-2-2m0 4v-4" style="fill:none;stroke-linecap:round;stroke-linejoin:bevel;stroke:#ffffff"/>
 <path d="m8.5 11-1-1.5m-1-0.5s2 0.232 2-1-2-1-2-1m0 4v-4" style="fill:none;opacity:.2;stroke-linecap:round;stroke:#000000"/>
 <path d="m8.5 10.5-1-1.5m-1-0.5s2 0.232 2-1-2-1-2-1m0 4v-4" style="fill:none;stroke-linecap:round;stroke:#ffffff"/>
 <path d="m2 1c-0.554 0-1 0.446-1 1v0.5c0-0.554 0.446-1 1-1h18c0.554 0 1 0.446 1 1v-0.5c0-0.554-0.446-1-1-1z" style="fill:#ffffff;opacity:.2"/>
</svg>
