<svg width="22" height="22" version="1.1" viewBox="0 0 22 22" xmlns="http://www.w3.org/2000/svg">
 <path d="m5.5 1.4995a2.5 2.5 0 0 0 -2.5 2.5 2.5 2.5 0 0 0 2.5 2.5 2.5 2.5 0 0 0 2.5 -2.5 2.5 2.5 0 0 0 -2.5 -2.5zm2.4385 0c0.6529 0.6372 1.0615 1.5239 1.0615 2.5 0 1.9212-1.5788 3.5-3.5 3.5-0.9761 0-1.8628-0.4086-2.5-1.0615v12.562c0 1.5 1 2.5 2.5176 2.5 1.4824 0 2.4824-1 2.4824-2.5v-3.5h1.7041l-1.0009-1.401c-0.4547-0.605-0.7017-1.341-0.7031-2.097v-2e-3c0-1.9212 1.5788-3.5 3.5-3.5h1e-3c1.1003 0.0015 2.1385 0.52146 2.7979 1.4023l0.0127 0.01856 2.6436 3.7021c1.306-1.339 2.044-3.229 2.045-5.123-2e-3 -3.5-2.5-7-6.5-7zm3.5615 8c-1.3807 0-2.5 1.1193-2.5 2.5 1e-3 0.54048 0.1771 1.0661 0.50195 1.498l5 7c0.471 0.63 1.211 1.001 1.998 1.002 1.381 0 2.5-1.119 2.5-2.5-1e-3 -0.54-0.177-1.066-0.502-1.498l-5-7c-0.471-0.63-1.211-1.001-1.998-1.002z" style="opacity:.2"/>
 <path d="m7.9385 0.9995c0.6529 0.6372 1.0615 1.5239 1.0615 2.5 0 1.9212-1.5788 3.5-3.5 3.5-0.9761 0-1.8628-0.4086-2.5-1.0615v12.562c0 1.5 1 2.5 2.5176 2.5 1.4824 0 2.4824-1 2.4824-2.5v-3.5h1.7041l-1.0009-1.401c-0.4547-0.605-0.7017-1.341-0.7031-2.097v-2e-3c0-1.921 1.579-3.5 3.5-3.5h1e-3c1.1003 0.0015 2.1385 0.52146 2.7979 1.4023l0.0127 0.01856 2.6436 3.7021c1.306-1.339 2.044-3.229 2.045-5.123-2e-3 -3.5-2.5-7-6.5-7z" style="fill:#3eb07b"/>
 <circle cx="5.5" cy="3.499" r="2.5" style="fill:#764d80"/>
 <path d="m11.5 8.9995c-1.3807 0-2.5 1.1193-2.5 2.5 1e-3 0.54048 0.1771 1.0661 0.50195 1.498l5 7c0.471 0.63 1.211 1.001 1.998 1.002 1.381 0 2.5-1.119 2.5-2.5-1e-3 -0.54-0.177-1.066-0.502-1.498l-5-7c-0.471-0.63-1.211-1.001-1.998-1.002z" style="fill:#764d80"/>
 <path d="m7.9394531 0.9995c0.1565816 0.1528164 0.295662 0.3206916 0.421875 0.5h4.1386719c3.899554 0 6.364734 3.3263696 6.488281 6.7363281 0.002589-0.0788632 0.011677-0.1574114 0.011719-0.2363281-2e-3 -3.5-2.5-7-6.5-7h-4.5605469zm1.0351563 2.7519531c-0.1330463 1.8031748-1.6396827 3.2480469-3.4746094 3.2480469-0.9761 0-1.8628-0.4076469-2.5-1.0605469v0.4980469c0.6372 0.6529 1.5239 1.0625 2.5 1.0625 1.9212 0 3.5-1.5788 3.5-3.5 0-0.084892-0.0193175-0.1646126-0.0253906-0.2480469zm-0.9511719 8.0253909c-0.0049005 0.075113-0.0234375 0.146388-0.0234375 0.222656v2e-3c0.0014 0.756 0.248425 1.492656 0.703125 2.097656l0.642578 0.900344h0.357422l-1-1.400391c-0.3990384-0.530939-0.6261883-1.164567-0.6796875-1.822265z" style="fill:#ffffff;opacity:.1"/>
 <path d="M 5.5,0.9995 A 2.5,2.5 0 0 0 3,3.4995 2.5,2.5 0 0 0 3.0136719,3.7377812 2.5,2.5 0 0 1 5.5,1.4995 2.5,2.5 0 0 1 7.9863281,3.7612188 2.5,2.5 0 0 0 8,3.4995 2.5,2.5 0 0 0 5.5,0.9995 Z" style="fill:#ffffff;opacity:.1"/>
 <path d="m11.5 8.9995c-1.3807 0-2.5 1.1193-2.5 2.5 1.71e-4 0.0923 0.01319 0.182399 0.02344 0.273438 0.11621-1.272786 1.173478-2.273438 2.47656-2.273438 0.787 1e-3 1.527047 0.371953 1.998047 1.001953l5 7c0.269375 0.358062 0.428667 0.780993 0.478515 1.222656 0.006805-0.075196 0.023438-0.147636 0.023438-0.224609-1e-3 -0.54-0.176953-1.066047-0.501953-1.498047l-5-7c-0.471-0.63-1.211047-1.000953-1.998047-1.001953z" style="fill:#ffffff;opacity:.1"/>
</svg>
