<svg width="22" height="22" version="1" xmlns="http://www.w3.org/2000/svg">
 <path d="m10.256632 1.5c-1.0507622 8.151e-4 -2.1035674 0.0599925-3.0929922 0.1914062-1.4636144 0.1943957-2.8274009 0.5297181-4.0667462 1.0527344-0.3897032 0.1644591-0.7434469 0.3405533-1.075229 0.5234375-0.9995275 0.5500575-1.5214717 1.1922037-1.773835 1.8261719-0.2146913 0.5524295-0.1599611 0.5584916-0.1736758 0.6464844-0.013715 0.087993-0.01854 0.1376895-0.023417 0.1835937-0.00975 0.091808-0.014498 0.1581786-0.019514 0.2304688-0.010031 0.1445802-0.017574 0.2974717-0.023416 0.4628906l-0.007805 0.2402344 0.0292712 0.2382812c0.073091 0.5837135 0.1635714 1.1574961 0.2673437 1.7246094 0.78966906 3.0607495 2.4037378 6.7321515 4.0491826 8.7499955 0.6380924 0.753913 1.0879157 1.216905 1.9455595 1.876954 0.8203721 0.631365 1.6376317 1.123531 2.6441656 1.599609 0.1088654 0.05149 0.2070444 0.09697 0.2946644 0.136719 0.04381 0.01988 0.08207 0.03794 0.134648 0.06055 0.02629 0.01131 0.05252 0.02114 0.113181 0.04492 0.03033 0.01189 0.06671 0.02611 0.15221 0.05469 0.04275 0.01429 0.09416 0.03295 0.200996 0.06055 0.05342 0.0138 0.2261592 0.04879 0.2263642 0.04883 2.04e-4 3.6e-5 0.524802 0.04687 0.524931 0.04687 6.32e-4 0 0.537053-0.04578 0.655675-0.07227 0.118621-0.02648 0.186779-0.04725 0.241975-0.06445 0.110392-0.0344 0.163037-0.05523 0.206849-0.07227 0.08762-0.03406 0.127457-0.05239 0.167822-0.07031 0.08073-0.03585 0.141773-0.06553 0.208801-0.09766 0.134057-0.06425 0.283314-0.137369 0.44102-0.216797 0.31541-0.158855 0.566395-0.281361 0.89765-0.474609 0.968741-0.599507 1.867479-1.294851 2.655876-2.052776l2e-3 -2e-3 2e-3 -2e-3c3.029954-3.041619 4.369846-7.029924 4.901948-11.279297 0.131743-0.7722334-0.135718-1.6028335-0.218548-2.0019531-0.327195-0.9876708-1.00817-1.3570428-1.773942-1.8260299-0.331786-0.1828856-0.685526-0.3589794-1.075229-0.5234375-1.239345-0.523018-2.603131-0.8583387-4.066746-1.0527344-1.073745-0.1426127-2.224113-0.2000249-3.362286-0.1894531-0.069603-5.317e-4 -0.140224-0.0019977-0.210752-0.0019531z" style="opacity:.2"/>
 <path d="m10.256632 1c-1.0507622 8.151e-4 -2.1035674 0.0599925-3.0929922 0.1914062-1.4636144 0.1943957-2.8274009 0.5297181-4.0667462 1.0527344-0.3897032 0.1644591-0.7434469 0.3405533-1.075229 0.5234375-0.9995275 0.5500575-1.5214717 1.1922037-1.773835 1.8261719-0.2146913 0.5524295-0.1599611 0.5584916-0.1736758 0.6464844-0.013715 0.087993-0.01854 0.1376895-0.023417 0.1835937-0.00975 0.091808-0.014498 0.1581786-0.019514 0.2304688-0.010031 0.1445802-0.017574 0.2974717-0.023416 0.4628906l-0.007805 0.2402344 0.0292712 0.2382812c0.073091 0.5837135 0.1635714 1.1574961 0.2673437 1.7246094 0.78966906 3.0607495 2.4037378 6.7321515 4.0491826 8.7499955 0.6380924 0.753913 1.0879157 1.216905 1.9455595 1.876954 0.8203721 0.631365 1.6376317 1.123531 2.6441656 1.599609 0.1088654 0.05149 0.2070444 0.09697 0.2946644 0.136719 0.04381 0.01988 0.08207 0.03794 0.134648 0.06055 0.02629 0.01131 0.05252 0.02114 0.113181 0.04492 0.03033 0.01189 0.06671 0.02611 0.15221 0.05469 0.04275 0.01429 0.09416 0.03295 0.200996 0.06055 0.05342 0.0138 0.2261592 0.04879 0.2263642 0.04883 2.04e-4 3.6e-5 0.524802 0.04687 0.524931 0.04687 6.32e-4 0 0.537053-0.04578 0.655675-0.07227 0.118621-0.02648 0.186779-0.04725 0.241975-0.06445 0.110392-0.0344 0.163037-0.05523 0.206849-0.07227 0.08762-0.03406 0.127457-0.05239 0.167822-0.07031 0.08073-0.03585 0.141773-0.06553 0.208801-0.09766 0.134057-0.06425 0.283314-0.137369 0.44102-0.216797 0.31541-0.158855 0.566395-0.281361 0.89765-0.474609 0.968741-0.599507 1.867479-1.294851 2.655876-2.052776l2e-3 -2e-3 2e-3 -2e-3c3.029954-3.041619 4.369846-7.029924 4.901948-11.279297 0.131743-0.7722334-0.135718-1.6028335-0.218548-2.0019531-0.327195-0.9876708-1.00817-1.3570428-1.773942-1.8260299-0.331786-0.1828856-0.685526-0.3589794-1.075229-0.5234375-1.239345-0.523018-2.603131-0.8583387-4.066746-1.0527344-1.073745-0.1426127-2.224113-0.2000249-3.362286-0.1894531-0.069603-5.317e-4 -0.140224-0.0019977-0.210752-0.0019531z" style="fill:#cccccc"/>
 <path d="m10.26242 4.500001c-0.9343212 7.241e-4 -1.8789019 0.0562829-2.7045014 0.1658416-1.249564 0.1658203-2.3738794 0.4531259-3.2981624 0.842841-0.522543 0.2203257-1.1887611 0.5872401-1.2221364 0.6730683-0.011171 0.028719-0.028099 0.2724757-0.037618 0.5417 0.070641 0.5636549 0.1551967 1.1130506 0.2552111 1.6482141 0.047083 0.3313906 0.1845034 0.999157 0.3191983 1.517855 0.1897265 0.73063 0.3127675 0.984314 0.6241605 1.286997 0.188842 0.183561 0.332593 0.281211 0.6166745 0.418879 0.4107515 0.199053 0.8928045 0.32982 1.7661194 0.479098 0.5395405 0.09223 1.051465 0.212254 1.477976 0.346577 2.7073404 0.852643 5.0905474 2.770888 5.2087054 4.192459 8e-3 0.09656 0.01934 0.190389 0.02515 0.208537 0.01551 0.04843 0.185683-0.09899 0.65289-0.565643 2.432247-2.439469 3.567571-5.652477 4.053909-9.5329731-0.0095-0.2692243-0.02645-0.5129788-0.03762-0.5417-0.03337-0.085829-0.699592-0.4527426-1.222138-0.6730683-0.92428-0.3897151-2.048595-0.6770207-3.29816-0.842841-0.895842-0.1188798-1.931689-0.174105-2.9426-0.1647235-0.07891-7.724e-4 -0.157924-0.00116-0.237065-0.00111zm-4.5480708 8.478962c-0.165539-0.0013-0.293766 0.0077-0.3651135 0.02824-0.061704 0.01775-0.1505245 0.07005-0.198269 0.116728-0.1318825 0.128951-0.1112755 0.242949 0.108871 0.602424 0.4023955 0.657064 0.8971204 1.343633 1.3732714 1.905722 0.293321 0.346258 1.168472 1.191807 1.487123 1.436828 0.7064197 0.54319 1.1953577 0.837849 2.0987059 1.264747 0.193594 0.09149 0.358734 0.166347 0.366957 0.166347 0.04055 0 1.05495-0.510456 1.310983-0.65969 0.448368-0.26134 0.79245-0.491996 0.880958-0.590561 0.04403-0.04904 0.108914-0.150581 0.144165-0.225666 0.125248-0.266787 0.07245-0.62322-0.145825-0.984125-0.754164-1.246954-3.1612702-2.492863-5.6358884-2.917146-0.51699-0.08864-1.061753-0.141069-1.4259384-0.143845z" style="opacity:.2"/>
 <path d="m10.255861 1c-1.0507622 8.151e-4 -2.1023719 0.0599926-3.0917967 0.1914062-1.4636144 0.1943958-2.8270609 0.5297181-4.0664063 1.0527344-0.3897032 0.1644591-0.7443897 0.3405533-1.0761718 0.5234375-0.9995275 0.5500575-1.5210742 1.1922037-1.7734375 1.8261719-0.2146913 0.5524295-0.1601134 0.5584916-0.1738281 0.6464844-0.013715 0.087993-0.0185605 0.1376895-0.0234376 0.1835937-0.0097499 0.091808-0.0145152 0.1581786-0.0195312 0.2304688-0.010031 0.1445802-0.0175955 0.2974717-0.0234375 0.4628906l-0.0078125 0.2402344 0.015625 0.1210937c0.00485-0.1108557 0.0086-0.2229641 0.015625-0.3242187 0.00502-0.07229 0.00978-0.1386608 0.019531-0.2304688 0.00488-0.045904 0.00972-0.095601 0.023438-0.1835937 0.0137145-0.0879928-0.0408634-0.0940549 0.1738279-0.6464844 0.2523633-0.6339682 0.77390996-1.2761144 1.7734375-1.8261719 0.3317821-0.1828842 0.6864686-0.3589784 1.0761718-0.5234375 1.2393454-0.5230163 2.6027919-0.8583386 4.0664063-1.0527344 0.9894248-0.1314136 2.0410345-0.1905911 3.0917967-0.1914062 0.07053-4.46e-5 0.141335 0.00142 0.210938 0.00195 1.138173-0.010572 2.289536 0.046841 3.363281 0.1894531 1.463615 0.1943958 2.827061 0.5297164 4.066406 1.0527344 0.389703 0.1644581 0.742433 0.3405519 1.074219 0.5234375 0.765772 0.4689871 1.448196 0.8385011 1.775391 1.8261719 0.05589 0.2693214 0.187777 0.7402008 0.232422 1.2519531 0.047086-0.6954641-0.158486-1.3956831-0.232422-1.75195-0.327195-0.9876708-1.009619-1.3571848-1.775391-1.8261719-0.331786-0.1828856-0.684516-0.3589794-1.074219-0.5234375-1.239345-0.523018-2.602791-0.8583386-4.066406-1.0527344-1.073745-0.1426126-2.225108-0.2000249-3.363281-0.1894531-0.069603-5.317e-4 -0.14041-0.0019977-0.210938-0.0019531z" style="fill:#ffffff;opacity:.2"/>
 <path d="m10.26242 4.000001c-0.9343212 7.241e-4 -1.8789019 0.0562829-2.7045014 0.1658416-1.249564 0.1658203-2.3738794 0.4531259-3.2981624 0.842841-0.522543 0.2203257-1.1887611 0.5872401-1.2221364 0.6730683-0.011171 0.028719-0.028099 0.2724757-0.037618 0.5417 0.070641 0.5636549 0.1551967 1.1130506 0.2552111 1.6482141 0.047083 0.3313906 0.1845034 0.999157 0.3191983 1.517855 0.1897265 0.73063 0.3127675 0.984314 0.6241605 1.286997 0.188842 0.183561 0.332593 0.281211 0.6166745 0.418879 0.4107515 0.199053 0.8928045 0.32982 1.7661194 0.479098 0.5395405 0.09223 1.051465 0.212254 1.477976 0.346577 2.7073404 0.852643 5.0905474 2.770888 5.2087054 4.192459 8e-3 0.09656 0.01934 0.190389 0.02515 0.208537 0.01551 0.04843 0.185683-0.09899 0.65289-0.565643 2.432247-2.439469 3.567571-5.652477 4.053909-9.5329731-0.0095-0.2692243-0.02645-0.5129788-0.03762-0.5417-0.03337-0.085829-0.699592-0.4527426-1.222138-0.6730683-0.92428-0.3897151-2.048595-0.6770207-3.29816-0.842841-0.895842-0.1188798-1.931689-0.174105-2.9426-0.1647235-0.07891-7.724e-4 -0.157924-0.00116-0.237065-0.00111zm-4.5480708 8.478962c-0.165539-0.0013-0.293766 0.0077-0.3651135 0.02824-0.061704 0.01775-0.1505245 0.07005-0.198269 0.116728-0.1318825 0.128951-0.1112755 0.242949 0.108871 0.602424 0.4023955 0.657064 0.8971204 1.343633 1.3732714 1.905722 0.293321 0.346258 1.168472 1.191807 1.487123 1.436828 0.7064197 0.54319 1.1953577 0.837849 2.0987059 1.264747 0.193594 0.09149 0.358734 0.166347 0.366957 0.166347 0.04055 0 1.05495-0.510456 1.310983-0.65969 0.448368-0.26134 0.79245-0.491996 0.880958-0.590561 0.04403-0.04904 0.108914-0.150581 0.144165-0.225666 0.125248-0.266787 0.07245-0.62322-0.145825-0.984125-0.754164-1.246954-3.1612702-2.492863-5.6358884-2.917146-0.51699-0.08864-1.061753-0.141069-1.4259384-0.143845z" style="fill:#0087db"/>
 <circle cx="4" cy="5.5" r="4" style="opacity:.2"/>
 <circle cx="4" cy="5" r="4" style="fill:#e6e6e6"/>
 <circle cx="4" cy="5.5" r="2" style="opacity:.2"/>
 <circle cx="4" cy="5" r="2" style="fill:#4f4f4f"/>
 <path d="M 4.0000018,1 A 4,4 0 0 0 1.84e-6,5 4,4 0 0 0 0.00976744,5.2832031 4,4 0 0 1 4.0000018,1.5 4,4 0 0 1 7.9902362,5.2109375 4,4 0 0 0 8.0000018,5 a 4,4 0 0 0 -4,-4 z" style="fill:#ffffff;opacity:.2"/>
</svg>
