<svg width="22" height="22" version="1.1" viewBox="0 0 22 22" xmlns="http://www.w3.org/2000/svg">
 <path d="m1.022087 11.209a10 10 0 0 0 -0.01075 0.291 10 10 0 0 0 10 10 10 10 0 0 0 10 -10 10 10 0 0 0 -0.0105 -0.209 10 10 0 0 1 -9.9895 9.709 10 10 0 0 1 -9.9890001 -9.791z" style="opacity:.2"/>
 <path d="m11.055545 8.0291775c-5.5228471 0-10.044208-2.552025-10.044208 2.9708225 0 5.522847 4.4771523 10 9.9999999 10 5.522847 0 10-4.477153 10-10 0-5.5228475-4.432944-2.9708225-9.955792-2.9708225z" style="fill:#4882e3"/>
 <path d="m11.011337 1a10 10 0 0 0 -10 10 10 10 0 0 0 0.010742 0.208985 9.999966 9.999966 0 0 1 0.016601 -0.448243c0.00431 1e-4 0.00644-9.9e-5 0.010742 0a9.999966 9.999966 0 0 1 0.02832 -0.477539c1.0922479-0.547445 2.0913325-0.766546 3.0312499-0.772461 0.792243-5e-3 1.5433631 0.142113 2.277344 0.360352 2.5135142 0.147909 4.7323921 1.221304 7.3720701 1.356445 2.485604-0.109917 5.804361-1.412823 7.09668-1.726562a9.999966 9.999966 0 0 1 0.113281 0.80957c1e-3 1.18e-4 0.0028-1.18e-4 0.0039 0a9.999966 9.999966 0 0 1 0.03711 0.740234 10 10 0 0 0 2e-3 -0.05078 10 10 0 0 0 -10 -10z" style="fill:#335a9e"/>
 <path d="m20.802734 9.068359c-1.600331 0.471765-4.808836 1.559321-7.044922 1.658203-4.3354439-0.221958-7.5486319-2.9458729-12.738281-0.097656a10 10 0 0 0 -0.00195 0.01172c0.00892 0.499182 0.055401 0.997955 0.1386718 1.490234 0.4492682-0.152645 1.291745-0.237755 2.8320313 0.13086 2.8162269 0.673968 6.7998906 0.29374 9.0624996-0.404297 2.262614-0.698039 4.562849-0.968805 5.886719-1.041016 0.784233-0.04278 1.585877 0.302432 2.041016 0.595703a10 10 0 0 0 0.0214811 -0.41211 10 10 0 0 0 -0.197266 -1.931641z" style="fill:#7767c0"/>
 <path d="m1.020126 10.359411c-0.00389 0.08004-0.00682 0.160124-0.00879 0.240234a10 10 0 0 0 0.2148436 2.046875c0.5105187-0.0513 1.4274322-0.140253 3.0458982 0.247071 2.7491641 0.657921 5.3576682-0.493386 7.5664061-1.174805 0.135209-0.04171 0.270387-0.07547 0.403321-0.103516-0.0015-3.6e-5 -0.0044 3.7e-5 -0.0059 0-3.8161878-0.948903-5.2181369-1.115498-11.215779-1.255859zm11.22168 1.255859c0.47865 0.01107 1.015347-0.01711 1.575195-0.06152-0.501395-0.05979-1.027948-0.05393-1.575195 0.06152zm1.575195-0.06152c1.366448 0.162929 2.541164 0.808259 3.405273 1.016601 1.832056 0.441719 2.869952 0.649726 3.448242 0.600586a10 10 0 0 0 0.309571 -1.816406c0.0018-0.02715 0.0052-0.05503 0.0068-0.08203a10 10 0 0 0 0.02445 -0.672856c-6e-4 -0.01563-0.0013-0.03125-2e-3 -0.04687-2.24614 0.297368-4.967335 0.824459-7.192383 1.000977z" style="fill:#595afd"/>
 <path d="m15.338207 4.5002c-1.050355-0.052088-2.07834 0.2914415-2.690085 1.1337095-3.34e-4 2.49e-4 -6.5e-4 4.99e-4 -1e-3 7.5e-4 -0.72961 1.0184605-1.114275 2.216371-1.43333 3.3831185-1e-6 2.5e-4 -1e-6 5e-4 0 7.5e-4 -0.4411 1.633763-1.18595 3.180017-2.1235699 4.592615-1.94353 2.913749-4.5614227 5.449381-7.8451976 6.729394-0.073993 0.03589-0.1240092 0.10479-0.188375 0.159181-0.12474685 0.117208-0.028282 0.325732 0.14181 0.306545 2.30273-0.270536 4.0987574-1.903752 5.7973825-3.264784 1.3654651-0.133756 2.7123351-0.400389 4.032355-0.752808 6.5e-4 -2.46e-4 0.0014-4.95e-4 2e-3 -7.5e-4 1.855135-0.521512 4.00979-1.244216 5.27575-2.807728 1.261945-1.547581 1.466395-3.451089 1.00539-5.3169665-0.15676-0.745649-0.985245-1.5099005-1.8-1.671053-0.0219-0.07706 0.0072-0.4142625-0.01435-0.4919735 0.17667-0.193569 0.543847-0.340931 0.719107-0.594574 0.194755-0.2818595 0.358288-0.4807805 0.258463-0.8671575-0.0054-0.02042-0.01432-0.03972-0.02645-0.056999-0.21483-0.309905-0.756285-0.480639-1.110325-0.4812695z" style="opacity:.2"/>
 <path d="m3.9882813 9.490632c-0.7852249 5e-3 -1.8974331 0.175229-2.8671874 0.541015a10 10 0 0 0 -0.1210938 1.46875 10 10 0 0 0 0.013672 0.375c0.6569048-0.234893 1.5639874-0.433157 2.0214843-0.408203 1.3238665 0.07221 4.8135639 2.225789 7.0761716 2.923828 2.262604 0.698038 5.054867-1.546736 7.871094-2.220703 0.714655-0.171029 1.862155 0.0067 2.96875 0.279297a10 10 0 0 0 0.048828 -0.949219 10 10 0 0 0 -0.054688 -0.955078c-0.340163-0.02874-0.898859-0.03502-1.542968 0.179687-1.010952 0.336984-4.284107 1.190569-6.740235 1.123047-3.1510409-0.205181-5.6128315-2.366927-8.6738277-2.347656z" style="opacity:.2"/>
 <path d="m3.9882813 8.9902344c-0.7852249 0.0049805-1.8974331 0.1752296-2.8671874 0.5410156a10 10 0 0 0 -0.1210938 1.46875 10 10 0 0 0 0.013672 0.375c0.6569048-0.234893 1.5639874-0.433157 2.0214843-0.408203 1.3238665 0.07221 4.8135639 2.225789 7.0761716 2.923828 2.262604 0.698038 5.054867-1.546736 7.871094-2.220703 0.714655-0.171029 1.862155 0.0067 2.96875 0.279297a10 10 0 0 0 0.048828 -0.949219 10 10 0 0 0 -0.054688 -0.955078c-0.340163-0.02874-0.898859-0.03502-1.542968 0.179687-1.010952 0.336984-4.284107 1.190569-6.740235 1.123047-3.1510409-0.205181-5.6128316-2.3669272-8.6738277-2.347656z" style="fill:#8a72ff"/>
 <path d="m15.338207 4c-1.050355-0.052088-2.07834 0.2914415-2.690085 1.1337095-3.34e-4 2.49e-4 -6.5e-4 4.99e-4 -1e-3 7.5e-4 -0.72961 1.0184605-1.114275 2.216371-1.43333 3.383118-1e-6 2.5e-4 -1e-6 5e-4 0 7.5e-4 -0.4411 1.6337635-1.18595 3.1800165-2.1235699 4.5926155-1.94353 2.913749-4.5614227 5.449381-7.8451976 6.729394-0.073993 0.03589-0.1240092 0.10479-0.188375 0.15918-0.12474685 0.117208-0.028282 0.325732 0.14181 0.306545 2.30273-0.270535 4.0987574-1.903751 5.7973825-3.264784 1.3654651-0.133755 2.7123351-0.400389 4.032355-0.752807 6.5e-4 -2.46e-4 0.0014-4.95e-4 2e-3 -7.5e-4 1.855135-0.521512 4.00979-1.244217 5.27575-2.807728 1.261945-1.547581 1.466395-3.451089 1.00539-5.3169665-0.15676-0.745649-0.985245-1.5099005-1.8-1.671053-0.0219-0.07706 0.0072-0.4142625-0.01435-0.4919735 0.17667-0.193569 0.543847-0.340931 0.719107-0.594574 0.194755-0.2818595 0.358288-0.4807805 0.258463-0.8671575-0.0054-0.02042-0.01432-0.03972-0.02645-0.056999-0.21483-0.309905-0.756285-0.480639-1.110325-0.4812695z" style="fill:#50ddee"/>
 <path d="m11.011337 1a10 10 0 0 0 -10 10 10 10 0 0 0 0.01075 0.209 10 10 0 0 1 9.989 -9.709 10 10 0 0 1 9.9895 9.791 10 10 0 0 0 0.0105 -0.291 10 10 0 0 0 -10 -10z" style="fill:#ffffff;opacity:.1"/>
</svg>
