<svg width="22" height="22" version="1.1" viewBox="0 0 22 22" xmlns="http://www.w3.org/2000/svg">
 <g transform="translate(0,-1030.3622)">
  <g transform="translate(-1,1.0000174)">
   <circle cx="12" cy="1040.8622" r="10" style="opacity:.2"/>
   <circle cx="12" cy="1040.3622" r="10" style="fill:#4d4d4d"/>
   <path d="m9 1035.8622v1h1.5v1h-2.5v2.5h-1v-1.5h-1v4h1v-1.5h1v1.5l2 2h4.5l1-1 1 0.01v0.4922h1l0.5-0.5v-4l-0.5-0.5h-1v0.5h-0.375l-2-2h-2.625v-1h1.5v-1zm0 3h4.5l2 2h1.5v2h-2l-1 1h-3.375l-1.625-1.625z" style="opacity:.2"/>
   <path d="m9 1035.3622v1h1.5v1h-2.5v2.5h-1v-1.5h-1v4h1v-1.5h1v1.5l2 2h4.5l1-1 1 0.01v0.4922h1l0.5-0.5v-4l-0.5-0.5h-1v0.5h-0.375l-2-2h-2.625v-1h1.5v-1zm0 3h4.5l2 2h1.5v2h-2l-1 1h-3.375l-1.625-1.625z" style="fill:#ffa92c"/>
   <path d="m12 1030.3622a10 10 0 0 0 -10 10 10 10 0 0 0 0.010742 0.291 10 10 0 0 1 9.989258 -9.791 10 10 0 0 1 9.989258 9.709 10 10 0 0 0 0.01074 -0.209 10 10 0 0 0 -10 -10z" style="fill:#ffffff;opacity:.1"/>
  </g>
 </g>
</svg>
