<svg width="22" height="22" version="1.1" viewBox="0 0 22 22" xmlns="http://www.w3.org/2000/svg">
 <g transform="translate(0 -1030.4)">
  <g transform="translate(-1 1)">
   <circle cx="12" cy="1040.9" r="10" opacity=".2"/>
   <circle cx="12" cy="1040.4" r="10" fill="#4f4f4f"/>
   <path d="m9 1035.9v1h1.5v1h-2.5v2.5h-1v-1.5h-1v4h1v-1.5h1v1.5l2 2h4.5l1-1 1 0.01v0.4922h1l0.5-0.5v-4l-0.5-0.5h-1v0.5h-0.375l-2-2h-2.625v-1h1.5v-1zm0 3h4.5l2 2h1.5v2h-2l-1 1h-3.375l-1.625-1.625z" opacity=".2"/>
   <path d="m9 1035.4v1h1.5v1h-2.5v2.5h-1v-1.5h-1v4h1v-1.5h1v1.5l2 2h4.5l1-1 1 0.01v0.4922h1l0.5-0.5v-4l-0.5-0.5h-1v0.5h-0.375l-2-2h-2.625v-1h1.5v-1zm0 3h4.5l2 2h1.5v2h-2l-1 1h-3.375l-1.625-1.625z" fill="#ffa92c"/>
   <path d="m12 1030.4a10 10 0 0 0 -10 10 10 10 0 0 0 0.010742 0.291 10 10 0 0 1 9.9893 -9.791 10 10 0 0 1 9.9893 9.709 10 10 0 0 0 0.01074 -0.209 10 10 0 0 0 -10 -10z" fill="#fff" opacity=".1"/>
  </g>
 </g>
 <circle cx="17" cy="17" r="5" style="fill:#3f92e7"/>
 <path d="m16.223001 14-0.06613 0.7902a2.3572 2.3572 0 0 0 -0.6889 0.39844l-0.718201-0.33818-0.75 1.2991 0.65205 0.45285a2.3572 2.3572 0 0 0 -0.036 0.3976 2.3572 2.3572 0 0 0 0.0343 0.39928l-0.6505 0.4515 0.75 1.2991 0.716501-0.33733a2.3572 2.3572 0 0 0 0.69055 0.39592l0.06613 0.79185h1.5l0.06612-0.7902a2.3572 2.3572 0 0 0 0.6889 -0.39844l0.7182 0.33817 0.75-1.2991-0.65205-0.45285a2.3572 2.3572 0 0 0 0.036 -0.3976 2.3572 2.3572 0 0 0 -0.0343 -0.39928l0.6504-0.45118-0.75-1.2991-0.7165 0.33734a2.3572 2.3572 0 0 0 -0.6905 -0.395l-0.06612-0.79185h-1.5zm0.75 2.1428a0.85715 0.85715 0 0 1 0.857 0.857 0.85715 0.85715 0 0 1 -0.857 0.857 0.85715 0.85715 0 0 1 -0.857 -0.857 0.85715 0.85715 0 0 1 0.857 -0.857z" style="fill:#ffffff"/>
</svg>
