<svg width="22" height="22" version="1" xmlns="http://www.w3.org/2000/svg">
 <path d="m11 1h-9c-0.554 0-1 0.446-1 1v9h10z" style="fill:#8e8e8e"/>
 <path d="m11 1h9c0.554 0 1 0.446 1 1v9h-10z" style="fill:#cccccc"/>
 <path d="m11 21h-9c-0.554 0-1-0.446-1-1v-9h10z" style="fill:#45792a"/>
 <path d="m11 21h9c0.554 0 1-0.446 1-1v-9h-10z" style="fill:#8e8e8e"/>
 <path d="m2 1c-0.554 0-1 0.446-1 1v0.5c0-0.554 0.446-1 1-1h18c0.554 0 1 0.446 1 1v-0.5c0-0.554-0.446-1-1-1h-18z" style="fill:#ffffff;opacity:.2"/>
 <path d="m2 21.5c-0.554 0-1-0.446-1-1v-0.5c0 0.554 0.446 1 1 1h18c0.554 0 1-0.446 1-1v0.5c0 0.554-0.446 1-1 1h-18z" style="opacity:.2"/>
 <circle cx="6" cy="6.5" r="3" style="opacity:.1"/>
 <circle cx="6" cy="6" r="3" style="fill:#ffffff"/>
 <path transform="matrix(.37324164 0 0 .49728728 .748359 -.73002504)" d="m14.070352 26.759076 4.018844 6.960842 4.018844 6.960843h-8.037688-8.037689l4.018844-6.960842z" style="opacity:.1"/>
 <path transform="matrix(.37324164 0 0 .49728728 .748359 -1.3069482)" d="m14.070352 26.759076 4.018844 6.960842 4.018844 6.960843h-8.037688-8.037689l4.018844-6.960842z" style="fill:#ffdd4c"/>
 <path d="m15 3.5v2h-2v2h2v2h2v-2h2v-2h-2v-2h-2z" style="opacity:.1"/>
 <path d="m15 3v2h-2v2h2v2h2v-2h2v-2h-2v-2h-2z" style="fill:#3f3f3f"/>
 <path d="m19 12.5-2 1.3v5.7h2z" style="opacity:.1"/>
 <path d="m19 12-2 1.3v5.7h2z" style="fill:#3f3f3f"/>
 <path transform="matrix(0 .3110347 .43098232 0 1.4673116 10.623632)" d="m14.070352 26.759076 4.018844 6.960842 4.018844 6.960843h-8.037688-8.037689l4.018844-6.960842z" style="opacity:.1"/>
 <path transform="matrix(0 .3110347 .43098232 0 1.4673116 10.123632)" d="m14.070352 26.759076 4.018844 6.960842 4.018844 6.960843h-8.037688-8.037689l4.018844-6.960842z" style="fill:#e33939"/>
</svg>
