<svg width="22" height="22" version="1.1" viewBox="0 0 22 22" xmlns="http://www.w3.org/2000/svg">
 <path d="m17.6 20 3.4-4.589025v-13.410975c0-0.554-0.446-1-1-1h-18c-0.554 0-1 0.446-1 1v18c0 0.554 0.446 1 1 1h14.6c0.554 0 0.670199-0.554863 1-1z" style="fill:#e4e4e4"/>
 <path d="m10 4.499875c-2.0670685 2.7205995-6 2-6 4.75 0 3.334116 4.7905695 3.297154 4 7.250001-0.5 2.5-3.5 2-5 2" style="fill:none;opacity:.2;stroke-linecap:round;stroke-linejoin:round;stroke-width:2;stroke:#000000"/>
 <path d="m2 0.9999998c-0.554 0-1 0.446-1 1v0.5c0-0.554 0.446-1 1-1h18c0.554 0 1 0.446 1 1v-0.5c0-0.554-0.446-1-1-1z" style="fill:#ffffff;opacity:.2"/>
 <path d="m2 21.5c-0.554 0-1-0.446-1-1v-0.5c0 0.554 0.446 1 1 1h14.6c0.554 0 1-0.446 1-1v0.5c0 0.554-0.446 1-1 1z" style="opacity:.2"/>
 <path d="m10 4c-2.0670685 2.7205995-6 2-6 4.75 0 3.334115 4.7905695 3.297153 4 7.25-0.5 2.5-3.5 2-5 2" style="fill:none;stroke-linecap:round;stroke-linejoin:round;stroke-width:2;stroke:#4f4f4f"/>
 <path d="m12.0001 18.499876v-11.000001c0.546325-1.7918645 1.25121-3 3-3 2 0 3 1 3 3 0 2.000001-4 3.500001-4 4.750001s4 5.25 5 6.25" style="fill:none;opacity:.2;stroke-linecap:round;stroke-linejoin:round;stroke-width:2;stroke:#000000"/>
 <path d="m12.0001 18v-11c0.546325-1.7918645 1.25121-3 3-3 2 0 3 1 3 3s-4 3.5-4 4.75 4 5.25 5 6.25" style="fill:none;stroke-linecap:round;stroke-linejoin:round;stroke-width:2;stroke:#85722f"/>
 <circle cx="16" cy="16" r="6" style="fill-rule:evenodd;fill:#61b12f"/>
 <path d="m15.24399 12.99967-0.06673 0.7902a2.3784 2.3572 0 0 0 -0.6951 0.39844l-0.72465-0.33818-0.75675 1.2991 0.65795 0.45285a2.3784 2.3572 0 0 0 -0.03632 0.3976 2.3784 2.3572 0 0 0 0.03461 0.39928l-0.657 0.4515 0.75675 1.2991 0.72295-0.33733a2.3784 2.3572 0 0 0 0.6968 0.39592l0.06672 0.79185h1.5135l0.06672-0.7902a2.3784 2.3572 0 0 0 0.6951 -0.39844l0.72465 0.33817 0.75675-1.2991-0.65795-0.45285a2.3784 2.3572 0 0 0 0.0363 -0.3976 2.3784 2.3572 0 0 0 -0.0346 -0.39928l0.6565-0.4505-0.75675-1.2991-0.723 0.33734a2.3784 2.3572 0 0 0 -0.6965 -0.396l-0.06672-0.79185h-1.5135zm0.75675 2.1428a0.86485 0.85715 0 0 1 0.864 0.857 0.86485 0.85715 0 0 1 -0.865 0.857 0.86485 0.85715 0 0 1 -0.865 -0.857 0.86485 0.85715 0 0 1 0.865 -0.857z" style="fill:#ffffff"/>
</svg>
