<svg width="22" height="22" version="1.0" xmlns="http://www.w3.org/2000/svg">
 <text x="877.22626" y="8.8126011" font-family="'Bitstream Vera Sans'" font-size="12.666px" opacity=".8" xml:space="preserve"><tspan x="877.22626" y="8.8126011"/></text>
 <text x="901.18719" y="-31.929106" font-family="'Bitstream Vera Sans'" font-size="12.666px" opacity=".8" xml:space="preserve"><tspan x="901.18719" y="-31.929106"/></text>
 <text x="-569.37115" y="-62.007248" font-family="'Bitstream Vera Sans'" font-size="12.666px" opacity=".8" xml:space="preserve"><tspan x="-569.37115" y="-62.007248"/></text>
 <text x="-2393.0571" y="683.5462" font-family="'Bitstream Vera Sans'" font-size="12.666px" opacity=".8" xml:space="preserve"><tspan x="-2393.0571" y="683.5462"/></text>
 <text x="-454.88007" y="-447.32822" font-family="'Bitstream Vera Sans'" font-size="12.666px" opacity=".8" xml:space="preserve"><tspan x="-454.88007" y="-447.32822"/></text>
 <text x="352.72208" y="-860.79834" font-family="'Bitstream Vera Sans'" font-size="12.666px" opacity=".8" xml:space="preserve"><tspan x="352.72208" y="-860.79834"/></text>
 <text x="376.68301" y="-901.54004" font-family="'Bitstream Vera Sans'" font-size="12.666px" opacity=".8" xml:space="preserve"><tspan x="376.68301" y="-901.54004"/></text>
 <text x="-1114.7802" y="-908.74994" font-family="'Bitstream Vera Sans'" font-size="12.666px" opacity=".8" xml:space="preserve"><tspan x="-1114.7802" y="-908.74994"/></text>
 <text x="345.7626" y="-1181.9841" font-family="'Bitstream Vera Sans'" font-size="12.666px" opacity=".8" xml:space="preserve"><tspan x="345.7626" y="-1181.9841"/></text>
 <text x="1831.8861" y="-555.29272" font-family="'Bitstream Vera Sans'" font-size="12.666px" opacity=".8" xml:space="preserve"><tspan x="1831.8861" y="-555.29272"/></text>
 <text x="1855.8469" y="-596.03448" font-family="'Bitstream Vera Sans'" font-size="12.666px" opacity=".8" xml:space="preserve"><tspan x="1855.8469" y="-596.03448"/></text>
 <text x="364.38376" y="-603.24438" font-family="'Bitstream Vera Sans'" font-size="12.666px" opacity=".8" xml:space="preserve"><tspan x="364.38376" y="-603.24438"/></text>
 <text x="1824.9266" y="-876.47839" font-family="'Bitstream Vera Sans'" font-size="12.666px" opacity=".8" xml:space="preserve"><tspan x="1824.9266" y="-876.47839"/></text>
 <text x="-573.43256" y="-651.33569" font-family="'Bitstream Vera Sans'" font-size="12.666px" opacity=".8" xml:space="preserve"><tspan x="-573.43256" y="-651.33569"/></text>
 <text x="-2397.1182" y="94.217857" font-family="'Bitstream Vera Sans'" font-size="12.666px" opacity=".8" xml:space="preserve"><tspan x="-2397.1182" y="94.217857"/></text>
 <text x="-682.36279" y="187.09" font-family="'Bitstream Vera Sans'" font-size="12.666px" opacity=".8" xml:space="preserve"><tspan x="-682.36279" y="187.09"/></text>
 <text x="426.66153" y="7.9078522" font-family="'Bitstream Vera Sans'" font-size="12.666px" opacity=".8" xml:space="preserve"><tspan x="426.66153" y="7.9078522"/></text>
 <text x="450.62247" y="-32.833855" font-family="'Bitstream Vera Sans'" font-size="12.666px" opacity=".8" xml:space="preserve"><tspan x="450.62247" y="-32.833855"/></text>
 <text x="-1040.8407" y="-40.043827" font-family="'Bitstream Vera Sans'" font-size="12.666px" opacity=".8" xml:space="preserve"><tspan x="-1040.8407" y="-40.043827"/></text>
 <text x="419.70206" y="-313.27789" font-family="'Bitstream Vera Sans'" font-size="12.666px" opacity=".8" xml:space="preserve"><tspan x="419.70206" y="-313.27789"/></text>
 <text x="-608.03253" y="-42.758072" font-family="'Bitstream Vera Sans'" font-size="12.666px" opacity=".8" xml:space="preserve"><tspan x="-608.03253" y="-42.758072"/></text>
 <text x="-2431.7185" y="702.79541" font-family="'Bitstream Vera Sans'" font-size="12.666px" opacity=".8" xml:space="preserve"><tspan x="-2431.7185" y="702.79541"/></text>
 <text x="-456.93948" y="-904.28857" font-family="'Bitstream Vera Sans'" font-size="12.666px" opacity=".8" xml:space="preserve"><tspan x="-456.93948" y="-904.28857"/></text>
 <text x="350.66266" y="-1317.7588" font-family="'Bitstream Vera Sans'" font-size="12.666px" opacity=".8" xml:space="preserve"><tspan x="350.66266" y="-1317.7588"/></text>
 <text x="374.62357" y="-1358.5005" font-family="'Bitstream Vera Sans'" font-size="12.666px" opacity=".8" xml:space="preserve"><tspan x="374.62357" y="-1358.5005"/></text>
 <text x="-1116.8396" y="-1365.7104" font-family="'Bitstream Vera Sans'" font-size="12.666px" opacity=".8" xml:space="preserve"><tspan x="-1116.8396" y="-1365.7104"/></text>
 <text x="343.70316" y="-1638.9446" font-family="'Bitstream Vera Sans'" font-size="12.666px" opacity=".8" xml:space="preserve"><tspan x="343.70316" y="-1638.9446"/></text>
 <text x="1829.8265" y="-1012.2533" font-family="'Bitstream Vera Sans'" font-size="12.666px" opacity=".8" xml:space="preserve"><tspan x="1829.8265" y="-1012.2533"/></text>
 <text x="1853.7874" y="-1052.9949" font-family="'Bitstream Vera Sans'" font-size="12.666px" opacity=".8" xml:space="preserve"><tspan x="1853.7874" y="-1052.9949"/></text>
 <text x="362.32431" y="-1060.2048" font-family="'Bitstream Vera Sans'" font-size="12.666px" opacity=".8" xml:space="preserve"><tspan x="362.32431" y="-1060.2048"/></text>
 <text x="1822.8671" y="-1333.439" font-family="'Bitstream Vera Sans'" font-size="12.666px" opacity=".8" xml:space="preserve"><tspan x="1822.8671" y="-1333.439"/></text>
 <text x="-575.492" y="-1108.2961" font-family="'Bitstream Vera Sans'" font-size="12.666px" opacity=".8" xml:space="preserve"><tspan x="-575.492" y="-1108.2961"/></text>
 <text x="-2399.1777" y="-362.74261" font-family="'Bitstream Vera Sans'" font-size="12.666px" opacity=".8" xml:space="preserve"><tspan x="-2399.1777" y="-362.74261"/></text>
 <text x="-684.42224" y="-269.87045" font-family="'Bitstream Vera Sans'" font-size="12.666px" opacity=".8" xml:space="preserve"><tspan x="-684.42224" y="-269.87045"/></text>
 <text x="155.5923" y="-28.956278" font-family="'Bitstream Vera Sans'" font-size="12.666px" opacity=".8" xml:space="preserve"><tspan x="155.5923" y="-28.956278"/></text>
 <text x="179.55324" y="-69.697998" font-family="'Bitstream Vera Sans'" font-size="12.666px" opacity=".8" xml:space="preserve"><tspan x="179.55324" y="-69.697998"/></text>
 <text x="-1090.2634" y="-263.72662" font-family="'Bitstream Vera Sans'" font-size="12.666px" opacity=".8" xml:space="preserve"><tspan x="-1090.2634" y="-263.72662"/></text>
 <text x="-282.66141" y="-677.19678" font-family="'Bitstream Vera Sans'" font-size="12.666px" opacity=".8" xml:space="preserve"><tspan x="-282.66141" y="-677.19678"/></text>
 <text x="-258.70047" y="-717.93848" font-family="'Bitstream Vera Sans'" font-size="12.666px" opacity=".8" xml:space="preserve"><tspan x="-258.70047" y="-717.93848"/></text>
 <text x="-1750.1636" y="-725.14838" font-family="'Bitstream Vera Sans'" font-size="12.666px" opacity=".8" xml:space="preserve"><tspan x="-1750.1636" y="-725.14838"/></text>
 <text x="-289.62085" y="-998.38251" font-family="'Bitstream Vera Sans'" font-size="12.666px" opacity=".8" xml:space="preserve"><tspan x="-289.62085" y="-998.38251"/></text>
 <text x="1196.5026" y="-371.69113" font-family="'Bitstream Vera Sans'" font-size="12.666px" opacity=".8" xml:space="preserve"><tspan x="1196.5026" y="-371.69113"/></text>
 <text x="1220.4634" y="-412.43286" font-family="'Bitstream Vera Sans'" font-size="12.666px" opacity=".8" xml:space="preserve"><tspan x="1220.4634" y="-412.43286"/></text>
 <text x="-270.99973" y="-419.64282" font-family="'Bitstream Vera Sans'" font-size="12.666px" opacity=".8" xml:space="preserve"><tspan x="-270.99973" y="-419.64282"/></text>
 <text x="1189.5431" y="-692.87689" font-family="'Bitstream Vera Sans'" font-size="12.666px" opacity=".8" xml:space="preserve"><tspan x="1189.5431" y="-692.87689"/></text>
 <text x="-1208.816" y="-467.7341" font-family="'Bitstream Vera Sans'" font-size="12.666px" opacity=".8" xml:space="preserve"><tspan x="-1208.816" y="-467.7341"/></text>
 <text x="-3032.5017" y="277.81946" font-family="'Bitstream Vera Sans'" font-size="12.666px" opacity=".8" xml:space="preserve"><tspan x="-3032.5017" y="277.81946"/></text>
 <g transform="matrix(.90475 0 0 .90475 -716.75 -678.29)">
  <text x="-664.2738" y="1159.4154" font-family="'Bitstream Vera Sans'" font-size="14px" opacity=".8" xml:space="preserve"><tspan x="-664.2738" y="1159.4154"/></text>
 </g>
 <text x="877.22626" y="16.050589" font-family="'Bitstream Vera Sans'" font-size="12.666px" opacity=".8" xml:space="preserve"><tspan x="877.22626" y="16.050589"/></text>
 <text x="901.18719" y="-24.691116" font-family="'Bitstream Vera Sans'" font-size="12.666px" opacity=".8" xml:space="preserve"><tspan x="901.18719" y="-24.691116"/></text>
 <text x="-569.37115" y="-54.76926" font-family="'Bitstream Vera Sans'" font-size="12.666px" opacity=".8" xml:space="preserve"><tspan x="-569.37115" y="-54.76926"/></text>
 <text x="-2393.0571" y="690.78418" font-family="'Bitstream Vera Sans'" font-size="12.666px" opacity=".8" xml:space="preserve"><tspan x="-2393.0571" y="690.78418"/></text>
 <text x="-454.88007" y="-440.09021" font-family="'Bitstream Vera Sans'" font-size="12.666px" opacity=".8" xml:space="preserve"><tspan x="-454.88007" y="-440.09021"/></text>
 <text x="352.72208" y="-853.5603" font-family="'Bitstream Vera Sans'" font-size="12.666px" opacity=".8" xml:space="preserve"><tspan x="352.72208" y="-853.5603"/></text>
 <text x="376.68301" y="-894.30206" font-family="'Bitstream Vera Sans'" font-size="12.666px" opacity=".8" xml:space="preserve"><tspan x="376.68301" y="-894.30206"/></text>
 <text x="-1114.7802" y="-901.51196" font-family="'Bitstream Vera Sans'" font-size="12.666px" opacity=".8" xml:space="preserve"><tspan x="-1114.7802" y="-901.51196"/></text>
 <text x="345.7626" y="-1174.7461" font-family="'Bitstream Vera Sans'" font-size="12.666px" opacity=".8" xml:space="preserve"><tspan x="345.7626" y="-1174.7461"/></text>
 <text x="1831.8861" y="-548.05475" font-family="'Bitstream Vera Sans'" font-size="12.666px" opacity=".8" xml:space="preserve"><tspan x="1831.8861" y="-548.05475"/></text>
 <text x="1855.8469" y="-588.79651" font-family="'Bitstream Vera Sans'" font-size="12.666px" opacity=".8" xml:space="preserve"><tspan x="1855.8469" y="-588.79651"/></text>
 <text x="364.38376" y="-596.00641" font-family="'Bitstream Vera Sans'" font-size="12.666px" opacity=".8" xml:space="preserve"><tspan x="364.38376" y="-596.00641"/></text>
 <text x="1824.9266" y="-869.24036" font-family="'Bitstream Vera Sans'" font-size="12.666px" opacity=".8" xml:space="preserve"><tspan x="1824.9266" y="-869.24036"/></text>
 <text x="-573.43256" y="-644.09772" font-family="'Bitstream Vera Sans'" font-size="12.666px" opacity=".8" xml:space="preserve"><tspan x="-573.43256" y="-644.09772"/></text>
 <text x="-2397.1182" y="101.45585" font-family="'Bitstream Vera Sans'" font-size="12.666px" opacity=".8" xml:space="preserve"><tspan x="-2397.1182" y="101.45585"/></text>
 <text x="-682.36279" y="194.32799" font-family="'Bitstream Vera Sans'" font-size="12.666px" opacity=".8" xml:space="preserve"><tspan x="-682.36279" y="194.32799"/></text>
 <text x="426.66153" y="15.14584" font-family="'Bitstream Vera Sans'" font-size="12.666px" opacity=".8" xml:space="preserve"><tspan x="426.66153" y="15.14584"/></text>
 <text x="450.62247" y="-25.595865" font-family="'Bitstream Vera Sans'" font-size="12.666px" opacity=".8" xml:space="preserve"><tspan x="450.62247" y="-25.595865"/></text>
 <text x="-1040.8407" y="-32.805836" font-family="'Bitstream Vera Sans'" font-size="12.666px" opacity=".8" xml:space="preserve"><tspan x="-1040.8407" y="-32.805836"/></text>
 <text x="419.70206" y="-306.03989" font-family="'Bitstream Vera Sans'" font-size="12.666px" opacity=".8" xml:space="preserve"><tspan x="419.70206" y="-306.03989"/></text>
 <text x="-608.03253" y="-35.520081" font-family="'Bitstream Vera Sans'" font-size="12.666px" opacity=".8" xml:space="preserve"><tspan x="-608.03253" y="-35.520081"/></text>
 <text x="-2431.7185" y="710.03345" font-family="'Bitstream Vera Sans'" font-size="12.666px" opacity=".8" xml:space="preserve"><tspan x="-2431.7185" y="710.03345"/></text>
 <text x="-456.93948" y="-897.0506" font-family="'Bitstream Vera Sans'" font-size="12.666px" opacity=".8" xml:space="preserve"><tspan x="-456.93948" y="-897.0506"/></text>
 <text x="350.66266" y="-1310.5208" font-family="'Bitstream Vera Sans'" font-size="12.666px" opacity=".8" xml:space="preserve"><tspan x="350.66266" y="-1310.5208"/></text>
 <text x="374.62357" y="-1351.2626" font-family="'Bitstream Vera Sans'" font-size="12.666px" opacity=".8" xml:space="preserve"><tspan x="374.62357" y="-1351.2626"/></text>
 <text x="-1116.8396" y="-1358.4724" font-family="'Bitstream Vera Sans'" font-size="12.666px" opacity=".8" xml:space="preserve"><tspan x="-1116.8396" y="-1358.4724"/></text>
 <text x="343.70316" y="-1631.7065" font-family="'Bitstream Vera Sans'" font-size="12.666px" opacity=".8" xml:space="preserve"><tspan x="343.70316" y="-1631.7065"/></text>
 <text x="1829.8265" y="-1005.0153" font-family="'Bitstream Vera Sans'" font-size="12.666px" opacity=".8" xml:space="preserve"><tspan x="1829.8265" y="-1005.0153"/></text>
 <text x="1853.7874" y="-1045.757" font-family="'Bitstream Vera Sans'" font-size="12.666px" opacity=".8" xml:space="preserve"><tspan x="1853.7874" y="-1045.757"/></text>
 <text x="362.32431" y="-1052.9668" font-family="'Bitstream Vera Sans'" font-size="12.666px" opacity=".8" xml:space="preserve"><tspan x="362.32431" y="-1052.9668"/></text>
 <text x="1822.8671" y="-1326.2009" font-family="'Bitstream Vera Sans'" font-size="12.666px" opacity=".8" xml:space="preserve"><tspan x="1822.8671" y="-1326.2009"/></text>
 <text x="-575.492" y="-1101.0581" font-family="'Bitstream Vera Sans'" font-size="12.666px" opacity=".8" xml:space="preserve"><tspan x="-575.492" y="-1101.0581"/></text>
 <text x="-2399.1777" y="-355.50461" font-family="'Bitstream Vera Sans'" font-size="12.666px" opacity=".8" xml:space="preserve"><tspan x="-2399.1777" y="-355.50461"/></text>
 <text x="-684.42224" y="-262.63245" font-family="'Bitstream Vera Sans'" font-size="12.666px" opacity=".8" xml:space="preserve"><tspan x="-684.42224" y="-262.63245"/></text>
 <text x="155.5923" y="-21.71829" font-family="'Bitstream Vera Sans'" font-size="12.666px" opacity=".8" xml:space="preserve"><tspan x="155.5923" y="-21.71829"/></text>
 <text x="179.55324" y="-62.460011" font-family="'Bitstream Vera Sans'" font-size="12.666px" opacity=".8" xml:space="preserve"><tspan x="179.55324" y="-62.460011"/></text>
 <text x="-1090.2634" y="-256.48859" font-family="'Bitstream Vera Sans'" font-size="12.666px" opacity=".8" xml:space="preserve"><tspan x="-1090.2634" y="-256.48859"/></text>
 <text x="-282.66141" y="-669.9588" font-family="'Bitstream Vera Sans'" font-size="12.666px" opacity=".8" xml:space="preserve"><tspan x="-282.66141" y="-669.9588"/></text>
 <text x="-258.70047" y="-710.7005" font-family="'Bitstream Vera Sans'" font-size="12.666px" opacity=".8" xml:space="preserve"><tspan x="-258.70047" y="-710.7005"/></text>
 <text x="-1750.1636" y="-717.91046" font-family="'Bitstream Vera Sans'" font-size="12.666px" opacity=".8" xml:space="preserve"><tspan x="-1750.1636" y="-717.91046"/></text>
 <text x="-289.62085" y="-991.14447" font-family="'Bitstream Vera Sans'" font-size="12.666px" opacity=".8" xml:space="preserve"><tspan x="-289.62085" y="-991.14447"/></text>
 <text x="1196.5026" y="-364.45316" font-family="'Bitstream Vera Sans'" font-size="12.666px" opacity=".8" xml:space="preserve"><tspan x="1196.5026" y="-364.45316"/></text>
 <text x="1220.4634" y="-405.19489" font-family="'Bitstream Vera Sans'" font-size="12.666px" opacity=".8" xml:space="preserve"><tspan x="1220.4634" y="-405.19489"/></text>
 <text x="-270.99973" y="-412.40482" font-family="'Bitstream Vera Sans'" font-size="12.666px" opacity=".8" xml:space="preserve"><tspan x="-270.99973" y="-412.40482"/></text>
 <text x="1189.5431" y="-685.63892" font-family="'Bitstream Vera Sans'" font-size="12.666px" opacity=".8" xml:space="preserve"><tspan x="1189.5431" y="-685.63892"/></text>
 <text x="-1208.816" y="-460.49609" font-family="'Bitstream Vera Sans'" font-size="12.666px" opacity=".8" xml:space="preserve"><tspan x="-1208.816" y="-460.49609"/></text>
 <text x="-3032.5017" y="285.05743" font-family="'Bitstream Vera Sans'" font-size="12.666px" opacity=".8" xml:space="preserve"><tspan x="-3032.5017" y="285.05743"/></text>
 <g transform="matrix(.90475 0 0 .90475 -716.75 -671.05)">
  <text x="-664.2738" y="1159.4154" font-family="'Bitstream Vera Sans'" font-size="14px" opacity=".8" xml:space="preserve"><tspan x="-664.2738" y="1159.4154"/></text>
 </g>
 <text x="435.90427" y="-363.22546" font-family="'Droid Sans'" font-size="12.666px" xml:space="preserve"><tspan x="435.90427" y="-363.22546"/><tspan x="435.90427" y="-347.3924"/></text>
 <text x="901.0882" y="-845.27002" font-family="'Bitstream Vera Sans'" font-size="12.666px" opacity=".8" xml:space="preserve"><tspan x="901.0882" y="-845.27002"/></text>
 <text x="-922.59778" y="-99.716553" font-family="'Bitstream Vera Sans'" font-size="12.666px" opacity=".8" xml:space="preserve"><tspan x="-922.59778" y="-99.716553"/></text>
 <text x="1628.1677" y="-1130.2659" font-family="'Bitstream Vera Sans'" font-size="12.666px" opacity=".8" xml:space="preserve"><tspan x="1628.1677" y="-1130.2659"/></text>
 <text x="1652.1285" y="-1171.0076" font-family="'Bitstream Vera Sans'" font-size="12.666px" opacity=".8" xml:space="preserve"><tspan x="1652.1285" y="-1171.0076"/></text>
 <text x="160.66542" y="-1178.2175" font-family="'Bitstream Vera Sans'" font-size="12.666px" opacity=".8" xml:space="preserve"><tspan x="160.66542" y="-1178.2175"/></text>
 <text x="1621.2083" y="-1451.4517" font-family="'Bitstream Vera Sans'" font-size="12.666px" opacity=".8" xml:space="preserve"><tspan x="1621.2083" y="-1451.4517"/></text>
 <text x="874.22626" y="9.8126011" font-family="'Bitstream Vera Sans'" font-size="12.666px" opacity=".8" xml:space="preserve"><tspan x="874.22626" y="9.8126011"/></text>
 <text x="898.18719" y="-30.929106" font-family="'Bitstream Vera Sans'" font-size="12.666px" opacity=".8" xml:space="preserve"><tspan x="898.18719" y="-30.929106"/></text>
 <text x="-572.37115" y="-61.007248" font-family="'Bitstream Vera Sans'" font-size="12.666px" opacity=".8" xml:space="preserve"><tspan x="-572.37115" y="-61.007248"/></text>
 <text x="-2396.0571" y="684.5462" font-family="'Bitstream Vera Sans'" font-size="12.666px" opacity=".8" xml:space="preserve"><tspan x="-2396.0571" y="684.5462"/></text>
 <text x="-457.88007" y="-446.32822" font-family="'Bitstream Vera Sans'" font-size="12.666px" opacity=".8" xml:space="preserve"><tspan x="-457.88007" y="-446.32822"/></text>
 <text x="349.72208" y="-859.79834" font-family="'Bitstream Vera Sans'" font-size="12.666px" opacity=".8" xml:space="preserve"><tspan x="349.72208" y="-859.79834"/></text>
 <text x="373.68301" y="-900.54004" font-family="'Bitstream Vera Sans'" font-size="12.666px" opacity=".8" xml:space="preserve"><tspan x="373.68301" y="-900.54004"/></text>
 <text x="-1117.7802" y="-907.74994" font-family="'Bitstream Vera Sans'" font-size="12.666px" opacity=".8" xml:space="preserve"><tspan x="-1117.7802" y="-907.74994"/></text>
 <text x="342.7626" y="-1180.9841" font-family="'Bitstream Vera Sans'" font-size="12.666px" opacity=".8" xml:space="preserve"><tspan x="342.7626" y="-1180.9841"/></text>
 <text x="1828.8861" y="-554.29272" font-family="'Bitstream Vera Sans'" font-size="12.666px" opacity=".8" xml:space="preserve"><tspan x="1828.8861" y="-554.29272"/></text>
 <text x="1852.8469" y="-595.03448" font-family="'Bitstream Vera Sans'" font-size="12.666px" opacity=".8" xml:space="preserve"><tspan x="1852.8469" y="-595.03448"/></text>
 <text x="361.38376" y="-602.24438" font-family="'Bitstream Vera Sans'" font-size="12.666px" opacity=".8" xml:space="preserve"><tspan x="361.38376" y="-602.24438"/></text>
 <text x="1821.9266" y="-875.47839" font-family="'Bitstream Vera Sans'" font-size="12.666px" opacity=".8" xml:space="preserve"><tspan x="1821.9266" y="-875.47839"/></text>
 <text x="-576.43256" y="-650.33569" font-family="'Bitstream Vera Sans'" font-size="12.666px" opacity=".8" xml:space="preserve"><tspan x="-576.43256" y="-650.33569"/></text>
 <text x="-2400.1182" y="95.217857" font-family="'Bitstream Vera Sans'" font-size="12.666px" opacity=".8" xml:space="preserve"><tspan x="-2400.1182" y="95.217857"/></text>
 <text x="-685.36279" y="188.09" font-family="'Bitstream Vera Sans'" font-size="12.666px" opacity=".8" xml:space="preserve"><tspan x="-685.36279" y="188.09"/></text>
 <text x="423.66153" y="8.9078522" font-family="'Bitstream Vera Sans'" font-size="12.666px" opacity=".8" xml:space="preserve"><tspan x="423.66153" y="8.9078522"/></text>
 <text x="447.62247" y="-31.833855" font-family="'Bitstream Vera Sans'" font-size="12.666px" opacity=".8" xml:space="preserve"><tspan x="447.62247" y="-31.833855"/></text>
 <text x="-1043.8407" y="-39.043827" font-family="'Bitstream Vera Sans'" font-size="12.666px" opacity=".8" xml:space="preserve"><tspan x="-1043.8407" y="-39.043827"/></text>
 <text x="416.70206" y="-312.27789" font-family="'Bitstream Vera Sans'" font-size="12.666px" opacity=".8" xml:space="preserve"><tspan x="416.70206" y="-312.27789"/></text>
 <text x="-611.03253" y="-41.758072" font-family="'Bitstream Vera Sans'" font-size="12.666px" opacity=".8" xml:space="preserve"><tspan x="-611.03253" y="-41.758072"/></text>
 <text x="-2434.7185" y="703.79541" font-family="'Bitstream Vera Sans'" font-size="12.666px" opacity=".8" xml:space="preserve"><tspan x="-2434.7185" y="703.79541"/></text>
 <text x="-459.93948" y="-903.28857" font-family="'Bitstream Vera Sans'" font-size="12.666px" opacity=".8" xml:space="preserve"><tspan x="-459.93948" y="-903.28857"/></text>
 <text x="347.66266" y="-1316.7588" font-family="'Bitstream Vera Sans'" font-size="12.666px" opacity=".8" xml:space="preserve"><tspan x="347.66266" y="-1316.7588"/></text>
 <text x="371.62357" y="-1357.5005" font-family="'Bitstream Vera Sans'" font-size="12.666px" opacity=".8" xml:space="preserve"><tspan x="371.62357" y="-1357.5005"/></text>
 <text x="-1119.8396" y="-1364.7104" font-family="'Bitstream Vera Sans'" font-size="12.666px" opacity=".8" xml:space="preserve"><tspan x="-1119.8396" y="-1364.7104"/></text>
 <text x="340.70316" y="-1637.9446" font-family="'Bitstream Vera Sans'" font-size="12.666px" opacity=".8" xml:space="preserve"><tspan x="340.70316" y="-1637.9446"/></text>
 <text x="1826.8265" y="-1011.2533" font-family="'Bitstream Vera Sans'" font-size="12.666px" opacity=".8" xml:space="preserve"><tspan x="1826.8265" y="-1011.2533"/></text>
 <text x="1850.7874" y="-1051.9949" font-family="'Bitstream Vera Sans'" font-size="12.666px" opacity=".8" xml:space="preserve"><tspan x="1850.7874" y="-1051.9949"/></text>
 <text x="359.32431" y="-1059.2048" font-family="'Bitstream Vera Sans'" font-size="12.666px" opacity=".8" xml:space="preserve"><tspan x="359.32431" y="-1059.2048"/></text>
 <text x="1819.8671" y="-1332.439" font-family="'Bitstream Vera Sans'" font-size="12.666px" opacity=".8" xml:space="preserve"><tspan x="1819.8671" y="-1332.439"/></text>
 <text x="-578.492" y="-1107.2961" font-family="'Bitstream Vera Sans'" font-size="12.666px" opacity=".8" xml:space="preserve"><tspan x="-578.492" y="-1107.2961"/></text>
 <text x="-2402.1777" y="-361.74261" font-family="'Bitstream Vera Sans'" font-size="12.666px" opacity=".8" xml:space="preserve"><tspan x="-2402.1777" y="-361.74261"/></text>
 <text x="-687.42224" y="-268.87045" font-family="'Bitstream Vera Sans'" font-size="12.666px" opacity=".8" xml:space="preserve"><tspan x="-687.42224" y="-268.87045"/></text>
 <text x="152.5923" y="-27.956278" font-family="'Bitstream Vera Sans'" font-size="12.666px" opacity=".8" xml:space="preserve"><tspan x="152.5923" y="-27.956278"/></text>
 <text x="176.55324" y="-68.697998" font-family="'Bitstream Vera Sans'" font-size="12.666px" opacity=".8" xml:space="preserve"><tspan x="176.55324" y="-68.697998"/></text>
 <text x="-1093.2634" y="-262.72662" font-family="'Bitstream Vera Sans'" font-size="12.666px" opacity=".8" xml:space="preserve"><tspan x="-1093.2634" y="-262.72662"/></text>
 <text x="-285.66141" y="-676.19678" font-family="'Bitstream Vera Sans'" font-size="12.666px" opacity=".8" xml:space="preserve"><tspan x="-285.66141" y="-676.19678"/></text>
 <text x="-261.70047" y="-716.93848" font-family="'Bitstream Vera Sans'" font-size="12.666px" opacity=".8" xml:space="preserve"><tspan x="-261.70047" y="-716.93848"/></text>
 <text x="-1753.1636" y="-724.14838" font-family="'Bitstream Vera Sans'" font-size="12.666px" opacity=".8" xml:space="preserve"><tspan x="-1753.1636" y="-724.14838"/></text>
 <text x="-292.62085" y="-997.38251" font-family="'Bitstream Vera Sans'" font-size="12.666px" opacity=".8" xml:space="preserve"><tspan x="-292.62085" y="-997.38251"/></text>
 <text x="1193.5026" y="-370.69113" font-family="'Bitstream Vera Sans'" font-size="12.666px" opacity=".8" xml:space="preserve"><tspan x="1193.5026" y="-370.69113"/></text>
 <text x="1217.4634" y="-411.43286" font-family="'Bitstream Vera Sans'" font-size="12.666px" opacity=".8" xml:space="preserve"><tspan x="1217.4634" y="-411.43286"/></text>
 <text x="-273.99973" y="-418.64282" font-family="'Bitstream Vera Sans'" font-size="12.666px" opacity=".8" xml:space="preserve"><tspan x="-273.99973" y="-418.64282"/></text>
 <text x="1186.5431" y="-691.87689" font-family="'Bitstream Vera Sans'" font-size="12.666px" opacity=".8" xml:space="preserve"><tspan x="1186.5431" y="-691.87689"/></text>
 <text x="-1211.816" y="-466.7341" font-family="'Bitstream Vera Sans'" font-size="12.666px" opacity=".8" xml:space="preserve"><tspan x="-1211.816" y="-466.7341"/></text>
 <text x="-3035.5017" y="278.81946" font-family="'Bitstream Vera Sans'" font-size="12.666px" opacity=".8" xml:space="preserve"><tspan x="-3035.5017" y="278.81946"/></text>
 <text x="-1320.7462" y="371.69156" font-family="'Bitstream Vera Sans'" font-size="12.666px" opacity=".8" xml:space="preserve"><tspan x="-1320.7462" y="371.69156"/></text>
 <text x="874.22626" y="17.050589" font-family="'Bitstream Vera Sans'" font-size="12.666px" opacity=".8" xml:space="preserve"><tspan x="874.22626" y="17.050589"/></text>
 <text x="898.18719" y="-23.691116" font-family="'Bitstream Vera Sans'" font-size="12.666px" opacity=".8" xml:space="preserve"><tspan x="898.18719" y="-23.691116"/></text>
 <text x="-572.37115" y="-53.76926" font-family="'Bitstream Vera Sans'" font-size="12.666px" opacity=".8" xml:space="preserve"><tspan x="-572.37115" y="-53.76926"/></text>
 <text x="-2396.0571" y="691.78418" font-family="'Bitstream Vera Sans'" font-size="12.666px" opacity=".8" xml:space="preserve"><tspan x="-2396.0571" y="691.78418"/></text>
 <text x="-457.88007" y="-439.09021" font-family="'Bitstream Vera Sans'" font-size="12.666px" opacity=".8" xml:space="preserve"><tspan x="-457.88007" y="-439.09021"/></text>
 <text x="349.72208" y="-852.5603" font-family="'Bitstream Vera Sans'" font-size="12.666px" opacity=".8" xml:space="preserve"><tspan x="349.72208" y="-852.5603"/></text>
 <text x="373.68301" y="-893.30206" font-family="'Bitstream Vera Sans'" font-size="12.666px" opacity=".8" xml:space="preserve"><tspan x="373.68301" y="-893.30206"/></text>
 <text x="-1117.7802" y="-900.51196" font-family="'Bitstream Vera Sans'" font-size="12.666px" opacity=".8" xml:space="preserve"><tspan x="-1117.7802" y="-900.51196"/></text>
 <text x="342.7626" y="-1173.7461" font-family="'Bitstream Vera Sans'" font-size="12.666px" opacity=".8" xml:space="preserve"><tspan x="342.7626" y="-1173.7461"/></text>
 <text x="1828.8861" y="-547.05475" font-family="'Bitstream Vera Sans'" font-size="12.666px" opacity=".8" xml:space="preserve"><tspan x="1828.8861" y="-547.05475"/></text>
 <text x="1852.8469" y="-587.79651" font-family="'Bitstream Vera Sans'" font-size="12.666px" opacity=".8" xml:space="preserve"><tspan x="1852.8469" y="-587.79651"/></text>
 <text x="361.38376" y="-595.00641" font-family="'Bitstream Vera Sans'" font-size="12.666px" opacity=".8" xml:space="preserve"><tspan x="361.38376" y="-595.00641"/></text>
 <text x="1821.9266" y="-868.24036" font-family="'Bitstream Vera Sans'" font-size="12.666px" opacity=".8" xml:space="preserve"><tspan x="1821.9266" y="-868.24036"/></text>
 <text x="-576.43256" y="-643.09772" font-family="'Bitstream Vera Sans'" font-size="12.666px" opacity=".8" xml:space="preserve"><tspan x="-576.43256" y="-643.09772"/></text>
 <text x="-2400.1182" y="102.45585" font-family="'Bitstream Vera Sans'" font-size="12.666px" opacity=".8" xml:space="preserve"><tspan x="-2400.1182" y="102.45585"/></text>
 <text x="-685.36279" y="195.32799" font-family="'Bitstream Vera Sans'" font-size="12.666px" opacity=".8" xml:space="preserve"><tspan x="-685.36279" y="195.32799"/></text>
 <text x="423.66153" y="16.14584" font-family="'Bitstream Vera Sans'" font-size="12.666px" opacity=".8" xml:space="preserve"><tspan x="423.66153" y="16.14584"/></text>
 <text x="447.62247" y="-24.595865" font-family="'Bitstream Vera Sans'" font-size="12.666px" opacity=".8" xml:space="preserve"><tspan x="447.62247" y="-24.595865"/></text>
 <text x="-1043.8407" y="-31.805836" font-family="'Bitstream Vera Sans'" font-size="12.666px" opacity=".8" xml:space="preserve"><tspan x="-1043.8407" y="-31.805836"/></text>
 <text x="416.70206" y="-305.03989" font-family="'Bitstream Vera Sans'" font-size="12.666px" opacity=".8" xml:space="preserve"><tspan x="416.70206" y="-305.03989"/></text>
 <text x="-611.03253" y="-34.520081" font-family="'Bitstream Vera Sans'" font-size="12.666px" opacity=".8" xml:space="preserve"><tspan x="-611.03253" y="-34.520081"/></text>
 <text x="-2434.7185" y="711.03345" font-family="'Bitstream Vera Sans'" font-size="12.666px" opacity=".8" xml:space="preserve"><tspan x="-2434.7185" y="711.03345"/></text>
 <text x="-459.93948" y="-896.0506" font-family="'Bitstream Vera Sans'" font-size="12.666px" opacity=".8" xml:space="preserve"><tspan x="-459.93948" y="-896.0506"/></text>
 <text x="347.66266" y="-1309.5208" font-family="'Bitstream Vera Sans'" font-size="12.666px" opacity=".8" xml:space="preserve"><tspan x="347.66266" y="-1309.5208"/></text>
 <text x="371.62357" y="-1350.2626" font-family="'Bitstream Vera Sans'" font-size="12.666px" opacity=".8" xml:space="preserve"><tspan x="371.62357" y="-1350.2626"/></text>
 <text x="-1119.8396" y="-1357.4724" font-family="'Bitstream Vera Sans'" font-size="12.666px" opacity=".8" xml:space="preserve"><tspan x="-1119.8396" y="-1357.4724"/></text>
 <text x="340.70316" y="-1630.7065" font-family="'Bitstream Vera Sans'" font-size="12.666px" opacity=".8" xml:space="preserve"><tspan x="340.70316" y="-1630.7065"/></text>
 <text x="1826.8265" y="-1004.0153" font-family="'Bitstream Vera Sans'" font-size="12.666px" opacity=".8" xml:space="preserve"><tspan x="1826.8265" y="-1004.0153"/></text>
 <text x="1850.7874" y="-1044.757" font-family="'Bitstream Vera Sans'" font-size="12.666px" opacity=".8" xml:space="preserve"><tspan x="1850.7874" y="-1044.757"/></text>
 <text x="359.32431" y="-1051.9668" font-family="'Bitstream Vera Sans'" font-size="12.666px" opacity=".8" xml:space="preserve"><tspan x="359.32431" y="-1051.9668"/></text>
 <text x="1819.8671" y="-1325.2009" font-family="'Bitstream Vera Sans'" font-size="12.666px" opacity=".8" xml:space="preserve"><tspan x="1819.8671" y="-1325.2009"/></text>
 <text x="-578.492" y="-1100.0581" font-family="'Bitstream Vera Sans'" font-size="12.666px" opacity=".8" xml:space="preserve"><tspan x="-578.492" y="-1100.0581"/></text>
 <text x="-2402.1777" y="-354.50461" font-family="'Bitstream Vera Sans'" font-size="12.666px" opacity=".8" xml:space="preserve"><tspan x="-2402.1777" y="-354.50461"/></text>
 <text x="-687.42224" y="-261.63245" font-family="'Bitstream Vera Sans'" font-size="12.666px" opacity=".8" xml:space="preserve"><tspan x="-687.42224" y="-261.63245"/></text>
 <text x="152.5923" y="-20.71829" font-family="'Bitstream Vera Sans'" font-size="12.666px" opacity=".8" xml:space="preserve"><tspan x="152.5923" y="-20.71829"/></text>
 <text x="176.55324" y="-61.460011" font-family="'Bitstream Vera Sans'" font-size="12.666px" opacity=".8" xml:space="preserve"><tspan x="176.55324" y="-61.460011"/></text>
 <text x="-1093.2634" y="-255.4886" font-family="'Bitstream Vera Sans'" font-size="12.666px" opacity=".8" xml:space="preserve"><tspan x="-1093.2634" y="-255.4886"/></text>
 <text x="-285.66141" y="-668.9588" font-family="'Bitstream Vera Sans'" font-size="12.666px" opacity=".8" xml:space="preserve"><tspan x="-285.66141" y="-668.9588"/></text>
 <text x="-261.70047" y="-709.7005" font-family="'Bitstream Vera Sans'" font-size="12.666px" opacity=".8" xml:space="preserve"><tspan x="-261.70047" y="-709.7005"/></text>
 <text x="-1753.1636" y="-716.91046" font-family="'Bitstream Vera Sans'" font-size="12.666px" opacity=".8" xml:space="preserve"><tspan x="-1753.1636" y="-716.91046"/></text>
 <text x="-292.62085" y="-990.14447" font-family="'Bitstream Vera Sans'" font-size="12.666px" opacity=".8" xml:space="preserve"><tspan x="-292.62085" y="-990.14447"/></text>
 <text x="1193.5026" y="-363.45316" font-family="'Bitstream Vera Sans'" font-size="12.666px" opacity=".8" xml:space="preserve"><tspan x="1193.5026" y="-363.45316"/></text>
 <text x="1217.4634" y="-404.19489" font-family="'Bitstream Vera Sans'" font-size="12.666px" opacity=".8" xml:space="preserve"><tspan x="1217.4634" y="-404.19489"/></text>
 <text x="-273.99973" y="-411.40482" font-family="'Bitstream Vera Sans'" font-size="12.666px" opacity=".8" xml:space="preserve"><tspan x="-273.99973" y="-411.40482"/></text>
 <text x="1186.5431" y="-684.63892" font-family="'Bitstream Vera Sans'" font-size="12.666px" opacity=".8" xml:space="preserve"><tspan x="1186.5431" y="-684.63892"/></text>
 <text x="-1211.816" y="-459.49609" font-family="'Bitstream Vera Sans'" font-size="12.666px" opacity=".8" xml:space="preserve"><tspan x="-1211.816" y="-459.49609"/></text>
 <text x="-3035.5017" y="286.05743" font-family="'Bitstream Vera Sans'" font-size="12.666px" opacity=".8" xml:space="preserve"><tspan x="-3035.5017" y="286.05743"/></text>
 <text x="-1320.7462" y="378.92953" font-family="'Bitstream Vera Sans'" font-size="12.666px" opacity=".8" xml:space="preserve"><tspan x="-1320.7462" y="378.92953"/></text>
 <text x="432.90427" y="-362.22546" font-family="'Droid Sans'" font-size="12.666px" xml:space="preserve"><tspan x="432.90427" y="-362.22546"/><tspan x="432.90427" y="-346.3924"/></text>
 <text x="898.0882" y="-844.27002" font-family="'Bitstream Vera Sans'" font-size="12.666px" opacity=".8" xml:space="preserve"><tspan x="898.0882" y="-844.27002"/></text>
 <text x="-925.59778" y="-98.716553" font-family="'Bitstream Vera Sans'" font-size="12.666px" opacity=".8" xml:space="preserve"><tspan x="-925.59778" y="-98.716553"/></text>
 <text x="1625.1677" y="-1129.2659" font-family="'Bitstream Vera Sans'" font-size="12.666px" opacity=".8" xml:space="preserve"><tspan x="1625.1677" y="-1129.2659"/></text>
 <text x="1649.1285" y="-1170.0076" font-family="'Bitstream Vera Sans'" font-size="12.666px" opacity=".8" xml:space="preserve"><tspan x="1649.1285" y="-1170.0076"/></text>
 <text x="157.66542" y="-1177.2175" font-family="'Bitstream Vera Sans'" font-size="12.666px" opacity=".8" xml:space="preserve"><tspan x="157.66542" y="-1177.2175"/></text>
 <text x="1618.2083" y="-1450.4517" font-family="'Bitstream Vera Sans'" font-size="12.666px" opacity=".8" xml:space="preserve"><tspan x="1618.2083" y="-1450.4517"/></text>
 <path d="m20 0.99999-14 2.5v8.6329c-0.32639-0.08629-0.66239-0.13092-0.99999-0.13281-2.2091 0-4 1.7908-4 4 0 2.2091 1.7908 4 4 4 2.0143-0.0019 3.713-1.5014 3.9648-3.5 0 0 0.035155-0.36366 0.035155-0.5v-10.035l7.9999-1.4287v5.0965c-0.3265-0.0865-0.66249-0.131-0.99999-0.133-2.2091 0-4 1.7908-4 4 0 2.2091 1.7908 4 4 4 2.0143-0.0019 3.713-1.5014 3.9648-3.5l0.035-0.5v-12.5z" fill="#69c561"/>
 <path d="m17 4.5361-7.9999 1.4287v0.5l7.9999-1.4287v-0.5zm3 8.9639-0.035 0.5c-0.252 1.9985-1.9505 3.498-3.965 3.5-2.125 0-3.8575-1.658-3.9875-3.75-5e-3 0.083-0.0125 0.1655-0.0125 0.25 0 2.2091 1.7908 4 4 4 2.0143-0.0019 3.713-1.5014 3.9648-3.5l0.035-0.5v-0.5zm-11 2.5c0 0.13634-0.035155 0.5-0.035155 0.5-0.252 1.9985-1.9505 3.498-3.965 3.5-2.1248 0-3.8577-1.658-3.9873-3.75-0.0051 0.083-0.0126 0.166-0.0126 0.25 0 2.209 1.7908 4 4 4 2.0143-2e-3 3.713-1.501 3.9648-3.5 0 0 0.035155-0.36366 0.035155-0.5v-0.5z" opacity=".2"/>
 <path d="m20 0.99999-14 2.5v0.5l14-2.5v-0.5zm-4 8.4999c-2.2091 0-4 1.7908-4 4 0 0.08436 0.0076 0.16693 0.01269 0.25 0.12963-2.0921 1.8625-3.75 3.9873-3.75 0.3376 0.0019 0.67359 0.04652 0.99999 0.13281v-0.5c-0.326-0.0866-0.662-0.1312-1-0.1331zm-11 2.5001c-2.2091 0-4 1.7908-4 4 0 0.08436 0.00755 0.16693 0.012695 0.25 0.12963-2.0921 1.8625-3.75 3.9873-3.75 0.3376 0.0019 0.67359 0.04652 0.99999 0.13281v-0.5c-0.3265-0.0865-0.66239-0.131-0.99999-0.133z" fill="#fff" opacity=".2"/>
 <g transform="translate(0 .99998)">
  <circle cx="16" cy="15" r="6" fill="#f5c839"/>
  <g transform="translate(-2e-6 -2)" fill="#fff">
   <rect x="14" y="13" width="1" height="8"/>
   <rect x="17" y="13" width="1" height="8"/>
  </g>
  <g transform="matrix(0 1 -1 0 33 -.99998)" fill="#fff">
   <rect x="14" y="13" width="1" height="8"/>
   <rect x="17" y="13" width="1" height="8"/>
  </g>
 </g>
</svg>
