<svg width="22" height="22" version="1.1" viewBox="0 0 22 22" xmlns="http://www.w3.org/2000/svg">
 <path d="M 11,1.5 C 8.012452,1.5820796 4.6710595,2.0416408 2.0925293,2.7017325 1.3892931,2.8846594 1.1259831,2.9861488 1,3.1787656 V 20.552035 C 1,21.176691 4.7500125,21.489296 5.355469,21.5 6.0000125,21.489296 8.964344,21.175673 9,20.552035 V 18.466 h 2 2 v 2.086034 C 13,21.176691 15.999987,21.489296 16.644531,21.5 17.249987,21.489296 21,21.176691 21,20.552035 V 3.1787656 C 20.874017,2.9861488 20.610707,2.8846594 19.90747,2.7017325 17.328941,2.0416408 13.987548,1.5820796 11,1.5 Z" style="opacity:.2"/>
 <path d="M 11,1 C 8.012452,1.0820796 4.6710595,1.5416408 2.0925293,2.2017325 1.3892931,2.3846594 1.1259831,2.4861488 1,2.6787656 V 20.052035 C 1,20.676691 4.7500125,20.989296 5.355469,21 6.0000125,20.989296 8.964344,20.675673 9,20.052035 V 18 h 2 2 v 2.052034 C 13,20.676691 15.999987,20.989296 16.644531,21 17.249987,20.989296 21,20.676691 21,20.052035 V 2.6787656 C 20.874017,2.4861488 20.610707,2.3846594 19.90747,2.2017325 17.328941,1.5416408 13.987548,1.0820796 11,1 Z" style="fill:#e84343"/>
 <path d="m5 11.214001c3.9865-0.225145 7.9805-0.33982 12 0-0.662 3.672572-3.086 3.712799-5.5 3.771036-2.715 0.159703-6.02-0.949813-6.5-3.771036" style="opacity:.2"/>
 <path d="m5.3189975 8.5c0.9107965-0.0863565 0.907131-0.095679 2.5253065-0.2242325 0.1754705-0.486736 0.3344475-0.778189-0.3042095-1.684932-0.703256-1.010272-1.832588-0.5750555-2.2907355 0.1879235-0.3917155 0.856695-0.2863415 1.3954415 0.0696385 1.721241" style="fill:#2f2f2f"/>
 <path d="M 7,7.5000005 C 7,7.773942 6.7764505,8 6.5000005,8 6.2235495,8 6,7.773942 6,7.5000005 6,7.226058 6.2235495,7 6.5000005,7 6.7764505,7 7,7.226058 7,7.5000005 m 0,0" style="fill:#ffffff"/>
 <path d="m14.23594 9.503056c0.92102 0.017225 2.26406-0.003056 2.381129-0.003056 0.375743-0.266708 0.640048-1.3068695-0.024285-2.330918-0.729102-1.1440665-1.904903-0.651212-2.381129 0.212811-0.407173 0.970151-0.128581 1.6116395 0.02428 2.115051" style="opacity:.2"/>
 <path d="M 14.23594,9.003056 C 15.15696,9.020281 16.5,9 16.617069,9 16.992812,8.733292 17.257117,7.6931305 16.592784,6.669082 15.863682,5.5250155 14.687881,6.01787 14.211655,6.881893 13.804482,7.852044 14.083074,8.4935325 14.23594,8.996944" style="fill:#2f2f2f"/>
 <path d="M 16,7.5 C 16,7.7784 15.775684,8 15.498287,8 15.224315,8 15,7.7784 15,7.5 15,7.22606 15.224315,7 15.498287,7 15.775684,7 16,7.22606 16,7.5 m 0,0" style="fill:#ffffff"/>
 <path d="m5 10.714001c3.9865-0.225145 7.9805-0.33982 12 0-0.662 3.672572-3.086 3.712799-5.5 3.771036-2.715 0.159704-6.02-0.949813-6.5-3.771036" style="fill:#2f2f2f"/>
 <path d="m5.9976765 12.050442c0.04646 0.229825-0.077175 0.469779 0.130867 0.615659 1.288516 0.899848 3.7065485 1.29961 5.3476515 1.333393 2.171789 0.01177 3.883616-0.178127 4.466441-0.961783 0.126994-0.171985 0.047539-0.750085 0.057364-1.006015l-1.223016-0.0302 1.223016-0.116192v-0.837702h-5.99303l-0.00697 0.952398h-1l-0.01153-1h-2.988469l0.0023 0.947558 0.9392875 0.03224" style="fill:#ffffff"/>
 <path d="m5.00876 9.026144v0.02855c-0.01168 0.03535-0.01168 0.07432 0 0.109674 0.01168 0.04442 0.039615 0.07976 0.069583 0.115113 0.1112315 0.122364 0.2818875 0.198502 0.4560995 0.216176 0.176751 0.01768 0.3570575-0.01949 0.5140005-0.09563 0.1371345-0.06571 0.2559845-0.157714 0.392611-0.224787 0.1330715-0.06209 0.275793-0.09563 0.4286725-0.104236 0.2183995-0.0091 0.436291 0.04079 0.658754 0.01949 0.1091995-0.0091 0.216368-0.03716 0.305759-0.09563 0.04368-0.02855 0.083296-0.0639 0.1112315-0.1028761 0.032-0.04622 0.049775-0.09019 0.05333-0.141851 0.0061-0.06028-0.01168-0.118739-0.039615-0.1735761-0.027935-0.0530151-0.0716145-0.1010541-0.11885-0.1418421-0.09701-0.083389-0.214336-0.143211-0.3255675-0.210738-0.059425-0.037165-0.1208815-0.0779505-0.194528-0.097438-0.085328-0.023115-0.1803065-0.00725-0.2717295-0.017675-0.09701-0.00906-0.18437-0.044415-0.275793-0.067074-0.1864015-0.0494-0.3849925-0.053024-0.5774885-0.0213-0.190465 0.02991-0.3707715 0.1010635-0.535841 0.194876-0.1569425 0.088373-0.301696 0.205299-0.3728025 0.3557615-0.013715 0.02991-0.02387 0.06209-0.039615 0.092-0.055362 0.1327866-0.138658 0.2551507-0.2382075 0.3630128" style="opacity:.2"/>
 <path d="m5.00876 8.5261437v0.02855c-0.01168 0.03535-0.01168 0.07432 0 0.1096741 0.01168 0.04442 0.039615 0.07976 0.069583 0.115113 0.1112315 0.1223641 0.2818875 0.1985021 0.4560995 0.2161761 0.176751 0.01768 0.3570575-0.01949 0.5140005-0.09563 0.1371345-0.06571 0.2559845-0.1577141 0.392611-0.2247871 0.1330715-0.06209 0.275793-0.09563 0.4286725-0.1042361 0.2183995-0.0091 0.436291 0.04079 0.658754 0.01949 0.1091995-0.0091 0.216368-0.03716 0.305759-0.095626 0.04368-0.02855 0.083296-0.063901 0.1112315-0.102876 0.032-0.046225 0.049775-0.090187 0.05333-0.1418515 0.0061-0.06027-0.01168-0.118733-0.039615-0.17357-0.027935-0.0530245-0.0716145-0.1010635-0.11885-0.1418515-0.09701-0.083389-0.214336-0.143211-0.3255675-0.210738-0.059425-0.037165-0.1208815-0.0779505-0.194528-0.097438-0.085328-0.023115-0.1803065-0.00725-0.2717295-0.017675-0.09701-0.00906-0.18437-0.044415-0.275793-0.067074-0.1864015-0.0494-0.3849925-0.053024-0.5774885-0.0213-0.190465 0.02991-0.3707715 0.1010635-0.535841 0.194876-0.1569425 0.088373-0.301696 0.205299-0.3728025 0.3557615-0.013715 0.02991-0.02387 0.062088-0.039615 0.092-0.055362 0.1327875-0.138658 0.2551515-0.2382075 0.3630135" style="fill:#de7295"/>
 <path d="M 11,1 C 8.012452,1.0820796 4.6713035,1.5420568 2.0927735,2.2021485 1.3895372,2.3850754 1.1259831,2.4860941 1,2.678711 V 3.1787109 C 1.1259831,2.9860941 1.3895372,2.8850754 2.0927735,2.7021485 4.6713035,2.0420568 8.012452,1.5820796 11,1.5 13.987548,1.58208 17.328696,2.0420568 19.907226,2.7021485 20.610463,2.8850754 20.874017,2.9860941 21,3.1787109 V 2.678711 C 20.874017,2.4860941 20.610463,2.3850754 19.907226,2.2021485 17.328696,1.5420568 13.987548,1.0820796 11,1 Z" style="fill:#ffffff;opacity:.2"/>
 <path d="m7.4050855 2.9736296 2.1213205 2.1213203" style="fill:none;opacity:.2;stroke-linecap:round;stroke-linejoin:bevel;stroke-width:1px;stroke:#000000"/>
 <path d="M 7.4050501,5.0949146 9.52637,2.9735942" style="fill:none;opacity:.2;stroke-linecap:round;stroke:#000000"/>
 <g transform="rotate(-45,6.9636039,4.9120469)">
  <path d="m9 3.5v3" style="fill:none;stroke-linecap:round;stroke-linejoin:bevel;stroke-width:1px;stroke:#e6e6e6"/>
  <path d="m7.5 4.99995h3" style="fill:none;stroke-linecap:round;stroke:#efefef"/>
 </g>
</svg>
