<svg width="22" height="22" version="1.1" viewBox="0 0 22 22" xmlns="http://www.w3.org/2000/svg">
 <circle cx="11" cy="11.5" r="10" style="opacity:.2"/>
 <circle cx="11" cy="11" r="10" style="fill:#7861e6"/>
 <path d="M 11.000065,0.9998663 A 10.000065,10.000065 0 0 0 1,10.999932 10.000065,10.000065 0 0 0 1.0107501,11.290933 10.000065,10.000065 0 0 1 11.000065,1.4998696 10.000065,10.000065 0 0 1 20.98963,11.208933 10.000065,10.000065 0 0 0 21.00013,10.999932 10.000065,10.000065 0 0 0 11.000065,0.9998663 Z" style="fill:#ffffff;opacity:.2"/>
 <circle cx="11" cy="11.5" r="7" style="opacity:.2"/>
 <circle cx="11" cy="11" r="7" style="fill:#acc0ff"/>
 <path d="m8.0000456 9.500048 3.0000194 4.000026 8.000052-10.000065" style="fill:none;opacity:.2;stroke-linecap:round;stroke-linejoin:round;stroke-width:4.0000262;stroke:#000000"/>
 <path d="m8.0000456 8.9999185 3.0000194 4.0000265 8.000052-10.000066" style="fill:none;stroke-linecap:round;stroke-linejoin:round;stroke-width:4;stroke:#3f3f3f"/>
</svg>
