<svg width="22" height="22" version="1.1" viewBox="0 0 22 22" xmlns="http://www.w3.org/2000/svg">
 <path d="m11.0544 1.0009264a2.2828 2.274 0 0 0 -1.1953999 0.3033l-6.7172001 3.8631a2.2828 2.274 0 0 0 -1.1414 1.9694v7.7263006a2.2828 2.274 0 0 0 1.1414 1.9693l6.7172001 3.8632a2.2828 2.274 0 0 0 2.2827999 0l6.7172-3.8632a2.2828 2.274 0 0 0 1.1414 -1.9693v-7.7263006a2.2828 2.274 0 0 0 -1.14 -1.9696l-6.718-3.8631a2.2828 2.274 0 0 0 -1.0875 -0.30332z" style="fill:#28a390"/>
 <path d="m11.0544 1.0012264a2.2828 2.274 0 0 0 -1.1955999 0.3027l-6.7168001 3.8633a2.2828 2.274 0 0 0 -1.1416 1.9697v0.5a2.2828 2.274 0 0 1 1.1416 -1.9697l6.7168001-3.8633a2.2828 2.274 0 0 1 1.1952999 -0.30273 2.2828 2.274 0 0 1 1.0879 0.30273l6.7168 3.8633a2.2828 2.274 0 0 1 1.1416 1.9697v-0.5a2.2828 2.274 0 0 0 -1.143 -1.9697l-6.716-3.8633a2.2828 2.274 0 0 0 -1.088 -0.3027z" style="fill:#ffffff;opacity:.2"/>
 <path d="m2.0004 14.863227v0.5a2.2828 2.274 0 0 0 1.1416 1.9687l6.7168001 3.8633a2.2828 2.274 0 0 0 2.2831999 0l6.7168-3.8633a2.2828 2.274 0 0 0 1.1416 -1.9687v-0.5a2.2828 2.274 0 0 1 -1.1416 1.9687l-6.7168 3.8633a2.2828 2.274 0 0 1 -2.2831999 0l-6.7172001-3.863a2.2828 2.274 0 0 1 -1.1416 -1.969z" style="opacity:.2"/>
 <circle cx="9" cy="9.5" r="3" style="opacity:.2"/>
 <circle cx="9" cy="9" r="3" style="fill:#ffd16d"/>
 <path d="m12.0002 8.4999997a3 3 0 0 0 -2.8281249 2.0097663 3 3 0 0 0 -0.171875 -0.009766 3 3 0 0 0 -3 3 3 3 0 0 0 3 3h5.9999999a2 2 0 0 0 2 -2 2 2 0 0 0 -2 -2 2 2 0 0 0 -0.179688 0.0098 3 3 0 0 0 0.179688 -1.0098 3 3 0 0 0 -3 -3.0000003z" style="opacity:.2"/>
 <path d="m12.0002 7.9999997a3 3 0 0 0 -2.8281249 2.0097663 3 3 0 0 0 -0.171875 -0.00977 3 3 0 0 0 -3 3.0000003 3 3 0 0 0 3 3l5.9999999 3.7e-6a2 2 0 0 0 2 -2 2 2 0 0 0 -2 -2 2 2 0 0 0 -0.179688 0.0098 3 3 0 0 0 0.179688 -1.0098 3 3 0 0 0 -3 -3.0000003z" style="fill:#e8f3f2"/>
</svg>
