<svg width="22" height="22" version="1" xmlns="http://www.w3.org/2000/svg">
 <g transform="translate(-1,-1)">
  <rect x="2" y="2.5" width="20" height="20" rx="1" ry="1" style="opacity:.2"/>
  <rect x="2" y="2" width="20" height="20" rx="1" ry="1" style="fill:#616bdd"/>
  <path d="m3 2c-0.554 0-1 0.446-1 1v0.5c0-0.554 0.446-1 1-1h18c0.554 0 1 0.446 1 1v-0.5c0-0.554-0.446-1-1-1z" style="fill:#ffffff;opacity:.1"/>
  <rect x="5" y="5.5" width="4" height="4" rx=".5" ry=".5" style="fill:#ffffff;opacity:.1"/>
  <rect x="10" y="5.5" width="4" height="4" rx=".5" ry=".5" style="fill:#ffffff;opacity:.1"/>
  <rect x="15" y="5.5" width="4" height="4" rx=".5" ry=".5" style="fill:#ffffff;opacity:.1"/>
  <rect x="10" y="10.5" width="4" height="4" rx=".5" ry=".5" style="fill:#ffffff;opacity:.1"/>
  <rect x="10" y="15.5" width="4" height="4" rx=".5" ry=".5" style="fill:#ffffff;opacity:.1"/>
  <rect x="5" y="5" width="4" height="4" rx=".5" ry=".5" style="fill:#30356e"/>
  <rect x="10" y="5" width="4" height="4" rx=".5" ry=".5" style="fill:#30356e"/>
  <rect x="15" y="5" width="4" height="4" rx=".5" ry=".5" style="fill:#30356e"/>
  <rect x="10" y="10" width="4" height="4" rx=".5" ry=".5" style="fill:#30356e"/>
  <rect x="10" y="15" width="4" height="4" rx=".5" ry=".5" style="fill:#30356e"/>
 </g>
</svg>
