<svg width="22" height="22" version="1" xmlns="http://www.w3.org/2000/svg">
 <path d="m1 19v0.5c0 0.554 0.446 1 1 1h18c0.554 0 1-0.446 1-1v-0.5c0 0.554-0.446 1-1 1h-18c-0.554 0-1-0.446-1-1z" style="opacity:.2"/>
 <rect x="1" y="2" width="20" height="18" rx="1" ry="1" style="fill:#4f4f4f"/>
 <path d="m21 19v-16c0-0.554-0.446-1-1-1h-9v18h9c0.554 0 1-0.446 1-1z" style="fill:#ffffff;opacity:.15"/>
 <path d="m2 2c-0.554 0-1 0.446-1 1v0.5c0-0.554 0.446-1 1-1h18c0.554 0 1 0.446 1 1v-0.5c0-0.554-0.446-1-1-1z" style="fill:#ffffff;opacity:.1"/>
 <path d="m5 4.5v1h-0.5c-0.831 0-1.5 0.669-1.5 1.5s0.669 1.5 1.5 1.5h0.5v1h-1.9082c0.206 0.582 0.754 1 1.4082 1h0.5v1h1v-1h0.5c0.831 0 1.5-0.669 1.5-1.5s-0.669-1.5-1.5-1.5h-0.5v-1h1.9082c-0.206-0.582-0.754-1-1.408-1h-0.5v-1zm-0.5 2h0.5v1h-0.5c-0.277 0-0.5-0.223-0.5-0.5s0.223-0.5 0.5-0.5zm1.5 2h0.5c0.277 0 0.5 0.223 0.5 0.5s-0.2233 0.513-0.5 0.5h-0.5z" style="opacity:.2"/>
 <path d="m5 4v1h-0.5c-0.831 0-1.5 0.669-1.5 1.5s0.669 1.5 1.5 1.5h0.5v1h-1.9082c0.206 0.582 0.754 1 1.4082 1h0.5v1h1v-1h0.5c0.831 0 1.5-0.669 1.5-1.5s-0.669-1.5-1.5-1.5h-0.5v-1h1.9082c-0.206-0.582-0.754-1-1.408-1h-0.5v-1zm-0.5 2h0.5v1h-0.5c-0.277 0-0.5-0.223-0.5-0.5s0.223-0.5 0.5-0.5zm1.5 2h0.5c0.277 0 0.5 0.223 0.5 0.5s-0.2233 0.513-0.5 0.5h-0.5z" style="fill:#ffffff"/>
 <path d="m14 4.5v1h-1.5v1h1.5v3h-1.5v1h1.5v1h1v-1h2v1h1v-1h1.5v-1h-1.5v-3h1.5v-1h-1.5v-1h-1v1h-2v-1zm1 2h2v3h-2z" style="opacity:.2"/>
 <path d="m14 4v1h-1.5v1h1.5v3h-1.5v1h1.5v1h1v-1h2v1h1v-1h1.5v-1h-1.5v-3h1.5v-1h-1.5v-1h-1v1h-2v-1zm1 2h2v3h-2z" style="fill:#ffffff"/>
</svg>
