<svg width="22" height="22" version="1.1" viewBox="0 0 22 22" xmlns="http://www.w3.org/2000/svg">
 <g transform="translate(-1,-1)">
  <path d="m12 1a10 10 0 0 0 -10 10 10 10 0 0 0 0.00781 0.193359c-9.269e-4 0.052473-0.00781 0.10357-0.00781 0.15625 5.05e-5 0.03108 0.00353 0.06075 0.00391 0.0918-0.0010538 0.018997-0.00301 0.039591-0.00391 0.058591 0.00457 2.723917 1.3338959 5.281762 3.4765625 7.072266a10 10 0 0 0 0.2480469 0.203125c0.0934496 0.073326 0.1790859 0.154209 0.2753906 0.224609v3l2.6523438-1.560547c0.407772 0.139341 0.8262074 0.244303 1.2480468 0.332031a10 10 0 0 0 0.2031254 0.04297c0.23035 0.04315 0.462266 0.07587 0.695312 0.103516a10 10 0 0 0 0.265625 0.03516c0.3106 0.028826 0.622518 0.045773 0.935547 0.04687a10 10 0 0 0 0.820312 -0.03906c0.255228-0.02004 0.506283-0.05189 0.75586-0.08984a10 10 0 0 0 0.152344 -0.02148c4.51054-0.753783 8.004692-4.377747 8.246093-8.865234 8e-3 -0.110565 0.01377-0.220451 0.01758-0.332031 3e-3 -0.051 0.0058-0.101343 0.0078-0.152344-5e-4 -0.0205-9.53e-4 -0.042-2e-3 -0.0625 5e-4 -0.03 2e-3 -0.05789 2e-3 -0.08789 0-0.05922-0.0086-0.116815-0.0098-0.175781a10 10 0 0 0 0.009811 -0.17384 10 10 0 0 0 -10 -10z" style="fill:#bad632"/>
  <path d="m21.99114 11.673987c-0.0038 0.104295-0.0092 0.208086-0.0166 0.311526-0.271501 5.047018-4.655016 9.008532-9.974535 9.014532-1.141404-4e-3 -2.273608-0.193571-3.3476617-0.560552l-2.6525093 1.560505v0.500002l2.6523593-1.560555c1.0740037 0.367001 2.2060077 0.556501 3.3475117 0.560501 5.319519-6e-3 9.703034-3.967513 9.974535-9.014531 8e-3 -0.110565 0.01377-0.221431 0.01758-0.333011 3e-3 -0.051 6e-3 -0.101501 8e-3 -0.152501-5e-4 -0.0205-0.0015-0.041-2e-3 -0.0615 5e-4 -0.03 2e-3 -0.059 2e-3 -0.089 0-0.05927-0.0076-0.116771-0.0088-0.175781zm-19.98407 0.026c-8.5e-4 0.0505-0.00685 0.0995-0.00685 0.149501 5.05e-5 0.03108 0.00255 0.06173 0.00293 0.09278-0.00105 0.019-0.00205 0.0385-0.00295 0.0575 0.00494 2.943511 1.5445054 5.70502 4.000014 7.500026v-0.500001c-2.3996584-1.754511-3.9204137-4.432021-3.993164-7.300031z" style="opacity:.2"/>
  <path d="m12 4.5a7 7 0 0 0 -7 7 7 7 0 0 0 7 7v1.5c0.684592-7.72e-4 1.353183-0.06963 2-0.195312v-1.603516a7 7 0 0 0 5 -6.701172 7 7 0 0 0 -7 -7z" style="opacity:.1"/>
  <path d="m12 4c-3.8659932 0-7 3.1340068-7 7 0 3.865993 3.1340068 7 7 7v3c0.684592-7.72e-4 1.353183-0.06963 2-0.195312v-3.103516c2.964138-0.883733 4.996892-3.608101 5-6.701172 0-3.8659932-3.134007-7-7-7z" style="fill:#578418"/>
  <path d="m12 7.5a4 4 0 0 0 -4 4v5.234375a7 7 0 0 0 2 0.966797v-2.742188a4 4 0 0 0 2 0.541016 4 4 0 0 0 4 -4 4 4 0 0 0 -4 -4z" style="opacity:.1"/>
  <path d="m12 7a4 4 0 0 0 -4 4v5.734375a7 7 0 0 0 2 0.966797v-3.242188a4 4 0 0 0 2 0.541016 4 4 0 0 0 4 -4 4 4 0 0 0 -4 -4z" style="fill:#252920"/>
  <path d="M 12,1 A 10,10 0 0 0 2,11 10,10 0 0 0 2.00781,11.193359 C 2.0068831,11.245832 2,11.296929 2,11.349609 c 3.76e-5,0.02313 8.093e-4,0.04564 0.00195,0.06836 A 10,10 0 0 1 12,1.5 a 10,10 0 0 1 10,10 c -5e-4,-0.0205 -9.53e-4,-0.042 -0.002,-0.0625 5e-4,-0.03 0.002,-0.05789 0.002,-0.08789 0,-0.05922 -0.0086,-0.116815 -0.0098,-0.175781 A 10,10 0 0 0 22,11 10,10 0 0 0 12,1 Z" style="fill:#ffffff;opacity:.2"/>
 </g>
</svg>
