<svg width="22" height="22" version="1.1" viewBox="0 0 22 22" xmlns="http://www.w3.org/2000/svg">
 <path d="M 1.0098,11.207 A 10,10 0 0 0 1,11.5 a 10,10 0 0 0 10,10 10,10 0 0 0 10,-10 10,10 0 0 0 -0.0098,-0.20703 10,10 0 0 1 -9.99,9.707 10,10 0 0 1 -9.9902,-9.793 z" style="opacity:.2"/>
 <path d="M 11,1 A 10,10 0 0 0 1,11 10,10 0 0 0 11,21 10,10 0 0 0 21,11 10,10 0 0 0 11,1 Z" style="fill:#4f4f4f"/>
 <path d="m7.7128906 6.4959404c-0.1637129-2.502e-4 -0.3469592 0.00391-0.5585937 0.00391-0.8997727-0.017924-1.8012959 0.010918-2.7011719 0-0.6238339-0.0047-0.4793855 0.7248572-0.2988281 1.03125 1.9963266 3.3875916 4.3557816 7.1799766 6.5546871 10.755859 0.422499 0.593634 0.866767-0.211819 1.103516-0.55664 0.598348-0.871468 1.091967-1.783974 1.597656-2.697266 0.213587-0.613827-0.383139-1.086951-0.595703-1.607426-1.297058-2.193782-2.661802-4.34703-3.986328-6.5214835-0.3169729-0.3620837-0.6240955-0.4074526-1.1152344-0.4082031zm6.6464844 0.00391c-0.639303 0-0.232422 0.7207031-0.232422 0.7207031s0.959592 1.8161735 1.511719 2.8105465c0.552127 0.994375 0.850003 0.138594 0.988281-0.136719 0.497512-0.9905629 0.930584-2.023213 1.279297-2.7089875 0.348712-0.6857754-0.378906-0.6855469-0.378906-0.6855469z" style="opacity:.2"/>
 <path d="M 11,1 A 10,10 0 0 0 1,11 10,10 0 0 0 1.0098,11.207 10,10 0 0 1 11,1.5 10,10 0 0 1 20.99,11.293 10,10 0 0 0 21,11 10,10 0 0 0 11,1 Z" style="fill:#ffffff;opacity:.1"/>
 <path d="M 7.7128906,5.9960938 C 7.5491777,5.9958436 7.3659314,6 7.1542969,6 6.2545242,5.9820758 5.353001,6.0109182 4.453125,6 3.8292911,5.9953 3.9737395,6.7248572 4.1542969,7.03125 c 1.9963266,3.387592 4.3557816,7.179977 6.5546871,10.755859 0.422499,0.593634 0.866767,-0.211819 1.103516,-0.55664 0.598348,-0.871468 1.091967,-1.783974 1.597656,-2.697266 C 13.623743,13.91938 13.027017,13.446256 12.814453,12.925781 11.517395,10.731999 10.152651,8.5787502 8.828125,6.4042969 8.5111521,6.0422132 8.2040295,5.9968443 7.7128906,5.9960938 Z M 14.359375,6 c -0.639303,0 -0.232422,0.7207031 -0.232422,0.7207031 0,0 0.959592,1.8161734 1.511719,2.8105469 0.552127,0.994375 0.850003,0.138594 0.988281,-0.136719 C 17.124465,8.4039715 17.557537,7.3713214 17.90625,6.6855469 18.254962,5.9997715 17.527344,6 17.527344,6 Z" style="fill:#cccccc"/>
 <path d="M 7.7128906,5.9960938 C 7.5491777,5.9958436 7.3659314,6 7.1542969,6 6.2545242,5.9820758 5.353001,6.0109182 4.453125,6 3.9843489,5.9964682 3.9489099,6.4076092 4.0371094,6.7421875 4.0938773,6.5993072 4.2200398,6.4982439 4.453125,6.5 c 0.899876,0.010918 1.8013992,-0.017924 2.7011719,0 0.2116345,0 0.3948808,-0.00416 0.5585937,-0.00391 0.4911389,7.504e-4 0.7982615,0.046119 1.1152344,0.4082031 1.324526,2.1744529 2.68927,4.3277019 3.986328,6.5214839 0.150875,0.369427 0.48488,0.716507 0.595703,1.105469 0.211673,-0.612888 -0.383361,-1.085538 -0.595703,-1.605469 C 11.517395,10.731999 10.152651,8.5787502 8.828125,6.4042969 8.5111521,6.0422132 8.2040295,5.9968443 7.7128906,5.9960938 Z M 14.359375,6 C 13.884887,6 13.988237,6.3949113 14.072266,6.5996094 14.126417,6.5414624 14.213169,6.5 14.359375,6.5 h 3.167969 c 0,0 0.258011,0.00357 0.392578,0.1503906 C 18.221321,6.0039874 17.527344,6 17.527344,6 Z" style="fill:#ffffff;opacity:.2"/>
</svg>
