<svg width="22" height="22" version="1.0" xmlns="http://www.w3.org/2000/svg">
 <path d="m8.5 5.5c-2.5464-0.0062-4.5 2.067-4.5 4 0.0019 0.1674 0.0193 0.3345 0.052 0.5h8.897c0.03235-0.1655 0.0494-0.3326 0.051-0.5-0.0013-0.33879-0.06578-0.67563-0.1915-1h7.1915v-1h-7.8135c-0.84-0.9383-1.14-1.9938-3.686-2z" opacity=".2"/>
 <text x="877.22626" y="8.8126011" font-family="'Bitstream Vera Sans'" font-size="12.666px" opacity=".8" xml:space="preserve"><tspan x="877.22626" y="8.8126011"/></text>
 <text x="901.18719" y="-31.929106" font-family="'Bitstream Vera Sans'" font-size="12.666px" opacity=".8" xml:space="preserve"><tspan x="901.18719" y="-31.929106"/></text>
 <text x="-569.37115" y="-62.007248" font-family="'Bitstream Vera Sans'" font-size="12.666px" opacity=".8" xml:space="preserve"><tspan x="-569.37115" y="-62.007248"/></text>
 <text x="-2393.0571" y="683.5462" font-family="'Bitstream Vera Sans'" font-size="12.666px" opacity=".8" xml:space="preserve"><tspan x="-2393.0571" y="683.5462"/></text>
 <text x="-454.88007" y="-447.32822" font-family="'Bitstream Vera Sans'" font-size="12.666px" opacity=".8" xml:space="preserve"><tspan x="-454.88007" y="-447.32822"/></text>
 <text x="352.72208" y="-860.79834" font-family="'Bitstream Vera Sans'" font-size="12.666px" opacity=".8" xml:space="preserve"><tspan x="352.72208" y="-860.79834"/></text>
 <text x="376.68301" y="-901.54004" font-family="'Bitstream Vera Sans'" font-size="12.666px" opacity=".8" xml:space="preserve"><tspan x="376.68301" y="-901.54004"/></text>
 <text x="-1114.7802" y="-908.74994" font-family="'Bitstream Vera Sans'" font-size="12.666px" opacity=".8" xml:space="preserve"><tspan x="-1114.7802" y="-908.74994"/></text>
 <text x="345.7626" y="-1181.9841" font-family="'Bitstream Vera Sans'" font-size="12.666px" opacity=".8" xml:space="preserve"><tspan x="345.7626" y="-1181.9841"/></text>
 <text x="1831.8861" y="-555.29272" font-family="'Bitstream Vera Sans'" font-size="12.666px" opacity=".8" xml:space="preserve"><tspan x="1831.8861" y="-555.29272"/></text>
 <text x="1855.8469" y="-596.03448" font-family="'Bitstream Vera Sans'" font-size="12.666px" opacity=".8" xml:space="preserve"><tspan x="1855.8469" y="-596.03448"/></text>
 <text x="364.38376" y="-603.24438" font-family="'Bitstream Vera Sans'" font-size="12.666px" opacity=".8" xml:space="preserve"><tspan x="364.38376" y="-603.24438"/></text>
 <text x="1824.9266" y="-876.47839" font-family="'Bitstream Vera Sans'" font-size="12.666px" opacity=".8" xml:space="preserve"><tspan x="1824.9266" y="-876.47839"/></text>
 <text x="-573.43256" y="-651.33569" font-family="'Bitstream Vera Sans'" font-size="12.666px" opacity=".8" xml:space="preserve"><tspan x="-573.43256" y="-651.33569"/></text>
 <text x="-2397.1182" y="94.217857" font-family="'Bitstream Vera Sans'" font-size="12.666px" opacity=".8" xml:space="preserve"><tspan x="-2397.1182" y="94.217857"/></text>
 <text x="-682.36279" y="187.09" font-family="'Bitstream Vera Sans'" font-size="12.666px" opacity=".8" xml:space="preserve"><tspan x="-682.36279" y="187.09"/></text>
 <text x="426.66153" y="7.9078522" font-family="'Bitstream Vera Sans'" font-size="12.666px" opacity=".8" xml:space="preserve"><tspan x="426.66153" y="7.9078522"/></text>
 <text x="450.62247" y="-32.833855" font-family="'Bitstream Vera Sans'" font-size="12.666px" opacity=".8" xml:space="preserve"><tspan x="450.62247" y="-32.833855"/></text>
 <text x="-1040.8407" y="-40.043827" font-family="'Bitstream Vera Sans'" font-size="12.666px" opacity=".8" xml:space="preserve"><tspan x="-1040.8407" y="-40.043827"/></text>
 <text x="419.70206" y="-313.27789" font-family="'Bitstream Vera Sans'" font-size="12.666px" opacity=".8" xml:space="preserve"><tspan x="419.70206" y="-313.27789"/></text>
 <text x="-608.03253" y="-42.758072" font-family="'Bitstream Vera Sans'" font-size="12.666px" opacity=".8" xml:space="preserve"><tspan x="-608.03253" y="-42.758072"/></text>
 <text x="-2431.7185" y="702.79541" font-family="'Bitstream Vera Sans'" font-size="12.666px" opacity=".8" xml:space="preserve"><tspan x="-2431.7185" y="702.79541"/></text>
 <text x="-456.93948" y="-904.28857" font-family="'Bitstream Vera Sans'" font-size="12.666px" opacity=".8" xml:space="preserve"><tspan x="-456.93948" y="-904.28857"/></text>
 <text x="350.66266" y="-1317.7588" font-family="'Bitstream Vera Sans'" font-size="12.666px" opacity=".8" xml:space="preserve"><tspan x="350.66266" y="-1317.7588"/></text>
 <text x="374.62357" y="-1358.5005" font-family="'Bitstream Vera Sans'" font-size="12.666px" opacity=".8" xml:space="preserve"><tspan x="374.62357" y="-1358.5005"/></text>
 <text x="-1116.8396" y="-1365.7104" font-family="'Bitstream Vera Sans'" font-size="12.666px" opacity=".8" xml:space="preserve"><tspan x="-1116.8396" y="-1365.7104"/></text>
 <text x="343.70316" y="-1638.9446" font-family="'Bitstream Vera Sans'" font-size="12.666px" opacity=".8" xml:space="preserve"><tspan x="343.70316" y="-1638.9446"/></text>
 <text x="1829.8265" y="-1012.2533" font-family="'Bitstream Vera Sans'" font-size="12.666px" opacity=".8" xml:space="preserve"><tspan x="1829.8265" y="-1012.2533"/></text>
 <text x="1853.7874" y="-1052.9949" font-family="'Bitstream Vera Sans'" font-size="12.666px" opacity=".8" xml:space="preserve"><tspan x="1853.7874" y="-1052.9949"/></text>
 <text x="362.32431" y="-1060.2048" font-family="'Bitstream Vera Sans'" font-size="12.666px" opacity=".8" xml:space="preserve"><tspan x="362.32431" y="-1060.2048"/></text>
 <text x="1822.8671" y="-1333.439" font-family="'Bitstream Vera Sans'" font-size="12.666px" opacity=".8" xml:space="preserve"><tspan x="1822.8671" y="-1333.439"/></text>
 <text x="-575.492" y="-1108.2961" font-family="'Bitstream Vera Sans'" font-size="12.666px" opacity=".8" xml:space="preserve"><tspan x="-575.492" y="-1108.2961"/></text>
 <text x="-2399.1777" y="-362.74261" font-family="'Bitstream Vera Sans'" font-size="12.666px" opacity=".8" xml:space="preserve"><tspan x="-2399.1777" y="-362.74261"/></text>
 <text x="-684.42224" y="-269.87045" font-family="'Bitstream Vera Sans'" font-size="12.666px" opacity=".8" xml:space="preserve"><tspan x="-684.42224" y="-269.87045"/></text>
 <text x="155.5923" y="-28.956278" font-family="'Bitstream Vera Sans'" font-size="12.666px" opacity=".8" xml:space="preserve"><tspan x="155.5923" y="-28.956278"/></text>
 <text x="179.55324" y="-69.697998" font-family="'Bitstream Vera Sans'" font-size="12.666px" opacity=".8" xml:space="preserve"><tspan x="179.55324" y="-69.697998"/></text>
 <text x="-1090.2634" y="-263.72662" font-family="'Bitstream Vera Sans'" font-size="12.666px" opacity=".8" xml:space="preserve"><tspan x="-1090.2634" y="-263.72662"/></text>
 <text x="-282.66141" y="-677.19678" font-family="'Bitstream Vera Sans'" font-size="12.666px" opacity=".8" xml:space="preserve"><tspan x="-282.66141" y="-677.19678"/></text>
 <text x="-258.70047" y="-717.93848" font-family="'Bitstream Vera Sans'" font-size="12.666px" opacity=".8" xml:space="preserve"><tspan x="-258.70047" y="-717.93848"/></text>
 <text x="-1750.1636" y="-725.14838" font-family="'Bitstream Vera Sans'" font-size="12.666px" opacity=".8" xml:space="preserve"><tspan x="-1750.1636" y="-725.14838"/></text>
 <text x="-289.62085" y="-998.38251" font-family="'Bitstream Vera Sans'" font-size="12.666px" opacity=".8" xml:space="preserve"><tspan x="-289.62085" y="-998.38251"/></text>
 <text x="1196.5026" y="-371.69113" font-family="'Bitstream Vera Sans'" font-size="12.666px" opacity=".8" xml:space="preserve"><tspan x="1196.5026" y="-371.69113"/></text>
 <text x="1220.4634" y="-412.43286" font-family="'Bitstream Vera Sans'" font-size="12.666px" opacity=".8" xml:space="preserve"><tspan x="1220.4634" y="-412.43286"/></text>
 <text x="-270.99973" y="-419.64282" font-family="'Bitstream Vera Sans'" font-size="12.666px" opacity=".8" xml:space="preserve"><tspan x="-270.99973" y="-419.64282"/></text>
 <text x="1189.5431" y="-692.87689" font-family="'Bitstream Vera Sans'" font-size="12.666px" opacity=".8" xml:space="preserve"><tspan x="1189.5431" y="-692.87689"/></text>
 <text x="-1208.816" y="-467.7341" font-family="'Bitstream Vera Sans'" font-size="12.666px" opacity=".8" xml:space="preserve"><tspan x="-1208.816" y="-467.7341"/></text>
 <text x="-3032.5017" y="277.81946" font-family="'Bitstream Vera Sans'" font-size="12.666px" opacity=".8" xml:space="preserve"><tspan x="-3032.5017" y="277.81946"/></text>
 <g transform="matrix(.90475 0 0 .90475 -716.75 -678.29)">
  <text x="-664.2738" y="1159.4154" font-family="'Bitstream Vera Sans'" font-size="14px" opacity=".8" xml:space="preserve"><tspan x="-664.2738" y="1159.4154"/></text>
 </g>
 <text x="877.22626" y="16.050589" font-family="'Bitstream Vera Sans'" font-size="12.666px" opacity=".8" xml:space="preserve"><tspan x="877.22626" y="16.050589"/></text>
 <text x="901.18719" y="-24.691116" font-family="'Bitstream Vera Sans'" font-size="12.666px" opacity=".8" xml:space="preserve"><tspan x="901.18719" y="-24.691116"/></text>
 <text x="-569.37115" y="-54.76926" font-family="'Bitstream Vera Sans'" font-size="12.666px" opacity=".8" xml:space="preserve"><tspan x="-569.37115" y="-54.76926"/></text>
 <text x="-2393.0571" y="690.78418" font-family="'Bitstream Vera Sans'" font-size="12.666px" opacity=".8" xml:space="preserve"><tspan x="-2393.0571" y="690.78418"/></text>
 <text x="-454.88007" y="-440.09021" font-family="'Bitstream Vera Sans'" font-size="12.666px" opacity=".8" xml:space="preserve"><tspan x="-454.88007" y="-440.09021"/></text>
 <text x="352.72208" y="-853.5603" font-family="'Bitstream Vera Sans'" font-size="12.666px" opacity=".8" xml:space="preserve"><tspan x="352.72208" y="-853.5603"/></text>
 <text x="376.68301" y="-894.30206" font-family="'Bitstream Vera Sans'" font-size="12.666px" opacity=".8" xml:space="preserve"><tspan x="376.68301" y="-894.30206"/></text>
 <text x="-1114.7802" y="-901.51196" font-family="'Bitstream Vera Sans'" font-size="12.666px" opacity=".8" xml:space="preserve"><tspan x="-1114.7802" y="-901.51196"/></text>
 <text x="345.7626" y="-1174.7461" font-family="'Bitstream Vera Sans'" font-size="12.666px" opacity=".8" xml:space="preserve"><tspan x="345.7626" y="-1174.7461"/></text>
 <text x="1831.8861" y="-548.05475" font-family="'Bitstream Vera Sans'" font-size="12.666px" opacity=".8" xml:space="preserve"><tspan x="1831.8861" y="-548.05475"/></text>
 <text x="1855.8469" y="-588.79651" font-family="'Bitstream Vera Sans'" font-size="12.666px" opacity=".8" xml:space="preserve"><tspan x="1855.8469" y="-588.79651"/></text>
 <text x="364.38376" y="-596.00641" font-family="'Bitstream Vera Sans'" font-size="12.666px" opacity=".8" xml:space="preserve"><tspan x="364.38376" y="-596.00641"/></text>
 <text x="1824.9266" y="-869.24036" font-family="'Bitstream Vera Sans'" font-size="12.666px" opacity=".8" xml:space="preserve"><tspan x="1824.9266" y="-869.24036"/></text>
 <text x="-573.43256" y="-644.09772" font-family="'Bitstream Vera Sans'" font-size="12.666px" opacity=".8" xml:space="preserve"><tspan x="-573.43256" y="-644.09772"/></text>
 <text x="-2397.1182" y="101.45585" font-family="'Bitstream Vera Sans'" font-size="12.666px" opacity=".8" xml:space="preserve"><tspan x="-2397.1182" y="101.45585"/></text>
 <text x="-682.36279" y="194.32799" font-family="'Bitstream Vera Sans'" font-size="12.666px" opacity=".8" xml:space="preserve"><tspan x="-682.36279" y="194.32799"/></text>
 <text x="426.66153" y="15.14584" font-family="'Bitstream Vera Sans'" font-size="12.666px" opacity=".8" xml:space="preserve"><tspan x="426.66153" y="15.14584"/></text>
 <text x="450.62247" y="-25.595865" font-family="'Bitstream Vera Sans'" font-size="12.666px" opacity=".8" xml:space="preserve"><tspan x="450.62247" y="-25.595865"/></text>
 <text x="-1040.8407" y="-32.805836" font-family="'Bitstream Vera Sans'" font-size="12.666px" opacity=".8" xml:space="preserve"><tspan x="-1040.8407" y="-32.805836"/></text>
 <text x="419.70206" y="-306.03989" font-family="'Bitstream Vera Sans'" font-size="12.666px" opacity=".8" xml:space="preserve"><tspan x="419.70206" y="-306.03989"/></text>
 <text x="-608.03253" y="-35.520081" font-family="'Bitstream Vera Sans'" font-size="12.666px" opacity=".8" xml:space="preserve"><tspan x="-608.03253" y="-35.520081"/></text>
 <text x="-2431.7185" y="710.03345" font-family="'Bitstream Vera Sans'" font-size="12.666px" opacity=".8" xml:space="preserve"><tspan x="-2431.7185" y="710.03345"/></text>
 <text x="-456.93948" y="-897.0506" font-family="'Bitstream Vera Sans'" font-size="12.666px" opacity=".8" xml:space="preserve"><tspan x="-456.93948" y="-897.0506"/></text>
 <text x="350.66266" y="-1310.5208" font-family="'Bitstream Vera Sans'" font-size="12.666px" opacity=".8" xml:space="preserve"><tspan x="350.66266" y="-1310.5208"/></text>
 <text x="374.62357" y="-1351.2626" font-family="'Bitstream Vera Sans'" font-size="12.666px" opacity=".8" xml:space="preserve"><tspan x="374.62357" y="-1351.2626"/></text>
 <text x="-1116.8396" y="-1358.4724" font-family="'Bitstream Vera Sans'" font-size="12.666px" opacity=".8" xml:space="preserve"><tspan x="-1116.8396" y="-1358.4724"/></text>
 <text x="343.70316" y="-1631.7065" font-family="'Bitstream Vera Sans'" font-size="12.666px" opacity=".8" xml:space="preserve"><tspan x="343.70316" y="-1631.7065"/></text>
 <text x="1829.8265" y="-1005.0153" font-family="'Bitstream Vera Sans'" font-size="12.666px" opacity=".8" xml:space="preserve"><tspan x="1829.8265" y="-1005.0153"/></text>
 <text x="1853.7874" y="-1045.757" font-family="'Bitstream Vera Sans'" font-size="12.666px" opacity=".8" xml:space="preserve"><tspan x="1853.7874" y="-1045.757"/></text>
 <text x="362.32431" y="-1052.9668" font-family="'Bitstream Vera Sans'" font-size="12.666px" opacity=".8" xml:space="preserve"><tspan x="362.32431" y="-1052.9668"/></text>
 <text x="1822.8671" y="-1326.2009" font-family="'Bitstream Vera Sans'" font-size="12.666px" opacity=".8" xml:space="preserve"><tspan x="1822.8671" y="-1326.2009"/></text>
 <text x="-575.492" y="-1101.0581" font-family="'Bitstream Vera Sans'" font-size="12.666px" opacity=".8" xml:space="preserve"><tspan x="-575.492" y="-1101.0581"/></text>
 <text x="-2399.1777" y="-355.50461" font-family="'Bitstream Vera Sans'" font-size="12.666px" opacity=".8" xml:space="preserve"><tspan x="-2399.1777" y="-355.50461"/></text>
 <text x="-684.42224" y="-262.63245" font-family="'Bitstream Vera Sans'" font-size="12.666px" opacity=".8" xml:space="preserve"><tspan x="-684.42224" y="-262.63245"/></text>
 <text x="155.5923" y="-21.71829" font-family="'Bitstream Vera Sans'" font-size="12.666px" opacity=".8" xml:space="preserve"><tspan x="155.5923" y="-21.71829"/></text>
 <text x="179.55324" y="-62.460011" font-family="'Bitstream Vera Sans'" font-size="12.666px" opacity=".8" xml:space="preserve"><tspan x="179.55324" y="-62.460011"/></text>
 <text x="-1090.2634" y="-256.48859" font-family="'Bitstream Vera Sans'" font-size="12.666px" opacity=".8" xml:space="preserve"><tspan x="-1090.2634" y="-256.48859"/></text>
 <text x="-282.66141" y="-669.9588" font-family="'Bitstream Vera Sans'" font-size="12.666px" opacity=".8" xml:space="preserve"><tspan x="-282.66141" y="-669.9588"/></text>
 <text x="-258.70047" y="-710.7005" font-family="'Bitstream Vera Sans'" font-size="12.666px" opacity=".8" xml:space="preserve"><tspan x="-258.70047" y="-710.7005"/></text>
 <text x="-1750.1636" y="-717.91046" font-family="'Bitstream Vera Sans'" font-size="12.666px" opacity=".8" xml:space="preserve"><tspan x="-1750.1636" y="-717.91046"/></text>
 <text x="-289.62085" y="-991.14447" font-family="'Bitstream Vera Sans'" font-size="12.666px" opacity=".8" xml:space="preserve"><tspan x="-289.62085" y="-991.14447"/></text>
 <text x="1196.5026" y="-364.45316" font-family="'Bitstream Vera Sans'" font-size="12.666px" opacity=".8" xml:space="preserve"><tspan x="1196.5026" y="-364.45316"/></text>
 <text x="1220.4634" y="-405.19489" font-family="'Bitstream Vera Sans'" font-size="12.666px" opacity=".8" xml:space="preserve"><tspan x="1220.4634" y="-405.19489"/></text>
 <text x="-270.99973" y="-412.40482" font-family="'Bitstream Vera Sans'" font-size="12.666px" opacity=".8" xml:space="preserve"><tspan x="-270.99973" y="-412.40482"/></text>
 <text x="1189.5431" y="-685.63892" font-family="'Bitstream Vera Sans'" font-size="12.666px" opacity=".8" xml:space="preserve"><tspan x="1189.5431" y="-685.63892"/></text>
 <text x="-1208.816" y="-460.49609" font-family="'Bitstream Vera Sans'" font-size="12.666px" opacity=".8" xml:space="preserve"><tspan x="-1208.816" y="-460.49609"/></text>
 <text x="-3032.5017" y="285.05743" font-family="'Bitstream Vera Sans'" font-size="12.666px" opacity=".8" xml:space="preserve"><tspan x="-3032.5017" y="285.05743"/></text>
 <g transform="matrix(.90475 0 0 .90475 -716.75 -671.05)">
  <text x="-664.2738" y="1159.4154" font-family="'Bitstream Vera Sans'" font-size="14px" opacity=".8" xml:space="preserve"><tspan x="-664.2738" y="1159.4154"/></text>
 </g>
 <text x="435.90427" y="-363.22546" font-family="'Droid Sans'" font-size="12.666px" xml:space="preserve"><tspan x="435.90427" y="-363.22546"/><tspan x="435.90427" y="-347.3924"/></text>
 <text x="901.0882" y="-845.27002" font-family="'Bitstream Vera Sans'" font-size="12.666px" opacity=".8" xml:space="preserve"><tspan x="901.0882" y="-845.27002"/></text>
 <text x="-922.59778" y="-99.716553" font-family="'Bitstream Vera Sans'" font-size="12.666px" opacity=".8" xml:space="preserve"><tspan x="-922.59778" y="-99.716553"/></text>
 <text x="1628.1677" y="-1130.2659" font-family="'Bitstream Vera Sans'" font-size="12.666px" opacity=".8" xml:space="preserve"><tspan x="1628.1677" y="-1130.2659"/></text>
 <text x="1652.1285" y="-1171.0076" font-family="'Bitstream Vera Sans'" font-size="12.666px" opacity=".8" xml:space="preserve"><tspan x="1652.1285" y="-1171.0076"/></text>
 <text x="160.66542" y="-1178.2175" font-family="'Bitstream Vera Sans'" font-size="12.666px" opacity=".8" xml:space="preserve"><tspan x="160.66542" y="-1178.2175"/></text>
 <text x="1621.2083" y="-1451.4517" font-family="'Bitstream Vera Sans'" font-size="12.666px" opacity=".8" xml:space="preserve"><tspan x="1621.2083" y="-1451.4517"/></text>
 <path d="m8.5 5c-2.5464-0.0062-4.5 2.067-4.5 4 0.0019 0.1674 0.0193 0.3345 0.052 0.5h8.897c0.032-0.1655 0.049-0.3326 0.051-0.5-1e-3 -0.3388-0.066-0.6756-0.192-1h7.192v-1h-7.814c-0.84-0.9383-1.14-1.9938-3.686-2z" fill="#5b7338"/>
 <rect x="1" y="9" width="19" height="6" rx="1" ry="1" fill="#38592b"/>
 <path d="m1 14v0.5c0 0.554 0.446 1 1 1h17c0.554 0 1-0.446 1-1v-0.5c0 0.554-0.446 1-1 1h-17c-0.554 0-1-0.446-1-1z" opacity=".2"/>
 <rect x="2" y="13" width="17" height="5" rx="2.5" ry="2.5" fill="#4d4d4d"/>
 <g transform="matrix(.5 0 0 .5 -1 0)" opacity=".2">
  <circle cx="11" cy="32" r="3"/>
  <circle cx="19" cy="32" r="3"/>
  <circle cx="27" cy="32" r="3"/>
  <circle cx="35" cy="32" r="3"/>
 </g>
 <circle cx="4.5" cy="15.5" r="1.5" fill="#c4c4c4"/>
 <circle cx="8.5" cy="15.5" r="1.5" fill="#c4c4c4"/>
 <circle cx="12.5" cy="15.5" r="1.5" fill="#c4c4c4"/>
 <circle cx="16.5" cy="15.5" r="1.5" fill="#c4c4c4"/>
 <path d="m2.0127 15.75c-0.0081 0.082-0.0127 0.166-0.0127 0.25 0 1.385 1.115 2.5 2.5 2.5h12c1.385 0 2.5-1.115 2.5-2.5 0-0.084-4e-3 -0.168-0.012-0.25-0.126 1.266-1.188 2.25-2.488 2.25h-12c-1.3004 0-2.3624-0.984-2.4873-2.25z" opacity=".2"/>
 <path d="m4.5 13c-1.385 0-2.5 1.115-2.5 2.5 0 0.084 0.0046 0.168 0.0127 0.25 0.1249-1.266 1.1869-2.25 2.4873-2.25h12c1.3005 0 2.3625 0.9835 2.4875 2.25 8e-3 -0.082 0.012-0.166 0.012-0.25 0-1.385-1.115-2.5-2.5-2.5h-12z" fill="#fff" opacity=".1"/>
 <path d="m2 9c-0.554 0-1 0.446-1 1v0.5c0-0.554 0.446-1 1-1h17c0.554 0 1 0.446 1 1v-0.5c0-0.554-0.446-1-1-1h-17z" fill="#fff" opacity=".1"/>
</svg>
