<svg width="22" height="22" version="1.1" viewBox="0 0 22 22" xmlns="http://www.w3.org/2000/svg">
 <path d="M 11,1 A 10,10 0 0 0 1,11 10,10 0 0 0 11,21 10,10 0 0 0 21,11 10,10 0 0 0 11,1 Z" style="fill:#f3b616"/>
 <path d="M 1.01075,11.209 A 10,10 0 0 0 1,11.5 10,10 0 0 0 11,21.5 10,10 0 0 0 21,11.5 10,10 0 0 0 20.9895,11.291 10,10 0 0 1 11,21 10,10 0 0 1 1.011,11.209 Z" style="opacity:.2"/>
 <path d="m11 1a10 10 0 0 0 -10 10 10 10 0 0 0 0.01075 0.209 10 10 0 0 1 9.989 -9.709 10 10 0 0 1 9.9895 9.791 10 10 0 0 0 0.0105 -0.291 10 10 0 0 0 -10 -10z" style="fill:#ffffff;opacity:.2"/>
 <path d="m18.44905 1.5c0.353048 2.06e-5 0.550349 0.2795412 0.591899 0.8385724l-0.445933 2.6327176h0.109034l0.233642-0.195018h0.06231v0.058506c-0.321929 0.247038-0.633456 0.92309-0.934581 2.028166-0.11424 0.9490935-0.30635 1.8266645-0.576327 2.632723-0.238847 0.832078-0.358267 1.599138-0.358252 2.301192l-0.451715 1.384614c-1e-5 0.117015 0.171328 0.234026 0.514018 0.351027-0.06232 0.27303-0.155775 0.409542-0.280372 0.409538v0.07801h0.109034v0.0585c-1.5e-5 0.143019-0.176543 0.214525-0.529595 0.21452l0.0623 0.07801v0.273021h-0.109034c0.07268 0.273031 0.22844 0.409538 0.467292 0.409538v0.136508h-0.467292v0.07801c0.15575 5e-6 0.233636 0.117016 0.233646 0.351032l-0.654203 0.27302 0.0623 0.07801v0.05851c-9e-6 0.09101-0.07789 0.136512-0.233646 0.136512v0.078c0.197287 5e-6 0.29594 0.04549 0.29595 0.136513-0.280382 0.117011-0.649021 0.695559-1.105917 1.735645-0.467296 0.923066-0.87228 1.384603-1.214946 1.384603h-0.124612c-0.259613-0.208019-0.472492-0.897078-0.638629-2.067176-0.664598-1.781144-0.996893-2.82773-0.996883-3.139759-1e-5 -0.806059-0.212888-1.164292-0.63863-2.074371-0.114235-0.403027-0.192115-1.107791-0.233646-1.718853h-0.280372c-0.706134 1.339119-1.074773 2.005584-1.105922 2.759638-0.197301 0.442041-0.353067 0.975085-0.467288 1.599133 0.425748 0.143018 0.638626 0.279526 0.638631 0.409532v0.07801c-0.332304-0.052-0.565946-0.149511-0.700939-0.292524-0.145379 0.351032-0.3374895 0.92604-0.5763215 2.525167-0.1869195 0.741064-0.4205655 1.021131-0.700933 1.021131-0.789205-0.325025-1.4486025-0.767607-1.978193-1.508671-0.083076 6e-6 -0.218074-0.370529-0.404984-1.111592-0.11423 5e-6 -0.1921105-0.370529-0.233646-1.111593-0.3946025-1.053082-0.6645885-1.85561-0.809968-3.207725v-2.028172h-0.062308l-0.2803724 0.07801v-0.07801c0-0.09099 0.093457-0.136497 0.2803724-0.136507l-0.062303-1.1700985v-0.9165795l-0.4517155-3.4248886v-1.2481049c0.1973012-0.7800465 0.5399815-1.1700774 1.0280365-1.1700979l0.186925 0.195018-0.186915-0.058505c0.758046 1.0401013 1.20457 2.4173208 1.339563 3.1323663h0.5295955v0.1365125h-0.4049835v0.1560145c0.1557605 0.5980601 0.2699855 0.8970876 0.3426805 0.8970726h0.1246115l0.280372-0.078008 0.062304 0.078008 0.062308-0.078008 0.062303 0.078008v0.058505c-0.2076875 0.156025-0.347871 0.3705445-0.420561 0.6435545h-0.04672v0.1365075h0.1090345c0.1453745 2.1711955 0.4153655 3.3154615 0.809968 4.4335495l0.233646 0.195013h0.1246065c0.155761 1e-5 0.4828645 0.239651 0.9813105-1.281484 0.321908-0.689043 0.555549-1.193586 0.700933-1.7136392l-0.0623-0.2145201c0.3219-0.5070314 0.654194-0.7605494 0.996879-0.7605649h0.109035c0.218064 1.55e-5 0.373825 0.1430235 0.467292 0.4290395 0.290749 0.429045 0.524395 0.972592 0.700933 1.8306507l0.872276 2.028166c0.114216 0.143024 0.171328 0.305534 0.171338 0.487546 0.321903 0.767066 0.612657 0.956281 0.872276 1.203299h0.186915c0.218059 5e-6 0.508813-1.131087 0.872271-3.029252 0.0623 1e-5 0.233636-0.507032 0.514018-1.521126v-0.078007l-0.29634-0.136513-0.233646 0.078008h-0.29595v-0.1560145l0.591899-0.058506h0.467683c0.44651-1.677124 0.856685-2.977234 1.230529-3.9003245 0.124597-1.8981397 0.29594-2.8472172 0.514019-2.8472326l0.850922-0.3510324" style="opacity:.2"/>
 <path d="m18.44905 1c0.353048 2.06e-5 0.550349 0.2795412 0.591899 0.8385724l-0.445933 2.6327176h0.109034l0.233642-0.195018h0.06231v0.058506c-0.321929 0.247038-0.633456 0.92309-0.934581 2.028166-0.11424 0.9490935-0.30635 1.8266645-0.576327 2.632723-0.238847 0.832078-0.358267 1.599138-0.358252 2.301192l-0.451715 1.384614c-1e-5 0.117015 0.171328 0.234026 0.514018 0.351027-0.06232 0.27303-0.155775 0.409542-0.280372 0.409538v0.07801h0.109034v0.0585c-1.5e-5 0.143019-0.176543 0.214525-0.529595 0.21452l0.0623 0.07801v0.273021h-0.109034c0.07268 0.273031 0.22844 0.409538 0.467292 0.409538v0.136508h-0.467292v0.07801c0.15575 5e-6 0.233636 0.117016 0.233646 0.351032l-0.654203 0.27302 0.0623 0.07801v0.05851c-9e-6 0.09101-0.07789 0.136512-0.233646 0.136512v0.078c0.197287 5e-6 0.29594 0.04549 0.29595 0.136513-0.280382 0.117011-0.649021 0.695559-1.105917 1.735645-0.467296 0.923066-0.87228 1.384603-1.214946 1.384603h-0.124612c-0.259613-0.208019-0.472492-0.897078-0.638629-2.067176-0.664598-1.781144-0.996893-2.82773-0.996883-3.139759-1e-5 -0.806059-0.212888-1.164292-0.63863-2.074371-0.114235-0.403027-0.192115-1.107791-0.233646-1.718853h-0.280372c-0.706134 1.339119-1.074773 2.005584-1.105922 2.759638-0.197301 0.442041-0.353067 0.975085-0.467288 1.599133 0.425748 0.143018 0.638626 0.279526 0.638631 0.409532v0.07801c-0.332304-0.052-0.565946-0.149511-0.700939-0.292524-0.145379 0.351032-0.3374895 0.92604-0.5763215 2.525167-0.1869195 0.741064-0.4205655 1.021131-0.700933 1.021131-0.789205-0.325025-1.4486025-0.767607-1.978193-1.508671-0.083076 6e-6 -0.218074-0.370529-0.404984-1.111592-0.11423 5e-6 -0.1921105-0.370529-0.233646-1.111593-0.3946025-1.053082-0.6645885-1.85561-0.809968-3.207725v-2.028172h-0.062308l-0.2803724 0.07801v-0.07801c0-0.09099 0.093457-0.1364975 0.2803724-0.1365075l-0.062303-1.170098v-0.9165795l-0.4517155-3.4248886v-1.2481049c0.1973012-0.7800465 0.5399815-1.1700774 1.0280365-1.1700979l0.186925 0.195018-0.186915-0.058505c0.758046 1.0401013 1.20457 2.4173208 1.339563 3.1323663h0.5295955v0.1365125h-0.4049835v0.1560145c0.1557605 0.5980601 0.2699855 0.8970876 0.3426805 0.8970726h0.1246115l0.280372-0.078008 0.062304 0.078008 0.062308-0.078008 0.062303 0.078008v0.058505c-0.2076875 0.156025-0.347871 0.3705445-0.420561 0.6435545h-0.04672v0.1365075h0.1090345c0.1453745 2.1711955 0.4153655 3.3154615 0.809968 4.4335495l0.233646 0.195013h0.1246065c0.155761 1e-5 0.4828645 0.239651 0.9813105-1.281484 0.321908-0.689043 0.555549-1.1935863 0.700933-1.7136392l-0.0623-0.2145201c0.3219-0.5070314 0.654194-0.7605494 0.996879-0.7605649h0.109035c0.218064 1.55e-5 0.373825 0.1430235 0.467292 0.4290395 0.290749 0.429045 0.524395 0.972592 0.700933 1.8306507l0.872276 2.028166c0.114216 0.143024 0.171328 0.305534 0.171338 0.487546 0.321903 0.767066 0.612657 0.956281 0.872276 1.203299h0.186915c0.218059 5e-6 0.508813-1.131087 0.872271-3.029252 0.0623 1e-5 0.233636-0.507032 0.514018-1.521126v-0.078007l-0.29634-0.136513-0.233646 0.078008h-0.29595v-0.1560145l0.591899-0.058506h0.467683c0.44651-1.677124 0.856685-2.977234 1.230529-3.9003245 0.124597-1.8981397 0.29594-2.8472172 0.514019-2.8472326l0.850922-0.3510324" style="fill:#ffffff"/>
</svg>
