<svg width="22" height="22" version="1" xmlns="http://www.w3.org/2000/svg">
 <rect transform="matrix(0,-1,-1,0,0,0)" x="-21" y="-21" width="20" height="20" rx="1" ry="1" fill="#4f4f4f"/>
 <path d="m2 1c-0.554 0-1 0.446-1 1v0.5c0-0.554 0.446-1 1-1h18c0.554 0 1 0.446 1 1v-0.5c0-0.554-0.446-1-1-1h-18z" fill="#fff" opacity=".1"/>
 <path d="m2 21.5c-0.554 0-1-0.446-1-1v-0.5c0 0.554 0.446 1 1 1h18c0.554 0 1-0.446 1-1v0.5c0 0.554-0.446 1-1 1h-18z" opacity=".2"/>
 <g transform="matrix(.5 0 0 .5 -1 -.5)" opacity=".2">
  <path d="m9 8h12c0.554 0 1 0.446 1 1v12c0 0.554-0.446 1-1 1h-12c-0.554 0-1-0.446-1-1v-12c0-0.554 0.446-1 1-1z"/>
  <path d="m27 8h12c0.554 0 1 0.446 1 1v12c0 0.554-0.446 1-1 1h-12c-0.554 0-1-0.446-1-1v-12c0-0.554 0.446-1 1-1z"/>
  <g transform="translate(0,18)">
   <path d="m9 8h12c0.554 0 1 0.446 1 1v12c0 0.554-0.446 1-1 1h-12c-0.554 0-1-0.446-1-1v-12c0-0.554 0.446-1 1-1z"/>
   <path d="m27 8h12c0.554 0 1 0.446 1 1v12c0 0.554-0.446 1-1 1h-12c-0.554 0-1-0.446-1-1v-12c0-0.554 0.446-1 1-1z"/>
  </g>
 </g>
 <g transform="matrix(.5 0 0 .5 -1 -1)" fill="#48aeff">
  <path d="m9 8h12c0.554 0 1 0.446 1 1v12c0 0.554-0.446 1-1 1h-12c-0.554 0-1-0.446-1-1v-12c0-0.554 0.446-1 1-1z"/>
  <path d="m27 8h12c0.554 0 1 0.446 1 1v12c0 0.554-0.446 1-1 1h-12c-0.554 0-1-0.446-1-1v-12c0-0.554 0.446-1 1-1z"/>
  <g transform="translate(0,18)">
   <path d="m9 8h12c0.554 0 1 0.446 1 1v12c0 0.554-0.446 1-1 1h-12c-0.554 0-1-0.446-1-1v-12c0-0.554 0.446-1 1-1z"/>
   <path d="m27 8h12c0.554 0 1 0.446 1 1v12c0 0.554-0.446 1-1 1h-12c-0.554 0-1-0.446-1-1v-12c0-0.554 0.446-1 1-1z"/>
  </g>
 </g>
 <circle cx="16" cy="16" r="6" fill="#fa6257"/>
 <path d="m18.806 13.194c-0.25906-0.25906-0.67615-0.25906-0.93525 0l-1.871 1.871-1.871-1.871c-0.25906-0.25906-0.6762-0.25906-0.93525 0-0.25906 0.25906-0.25906 0.67615 0 0.93525l1.8704 1.8704-1.8704 1.8704c-0.25906 0.25906-0.25906 0.6762 0 0.93525 0.25906 0.25906 0.6762 0.25906 0.93525 0l1.871-1.871 1.8704 1.8704c0.25906 0.25906 0.6762 0.25906 0.93525 1e-6 0.25906-0.25906 0.25906-0.6762 0-0.93525l-1.8704-1.8704 1.8704-1.8704c0.25906-0.25906 0.25906-0.6762 0-0.93525z" fill="#fff"/>
</svg>
