<svg width="22" height="22" version="1.1" xmlns="http://www.w3.org/2000/svg">
 <text x="833.55237" y="-22.600443" font-family="'Bitstream Vera Sans'" font-size="12.666px" opacity=".8" xml:space="preserve"><tspan x="833.55237" y="-22.600443"/></text>
 <text x="857.51331" y="-63.342148" font-family="'Bitstream Vera Sans'" font-size="12.666px" opacity=".8" xml:space="preserve"><tspan x="857.51331" y="-63.342148"/></text>
 <text x="-613.04504" y="-93.420288" font-family="'Bitstream Vera Sans'" font-size="12.666px" opacity=".8" xml:space="preserve"><tspan x="-613.04504" y="-93.420288"/></text>
 <text x="-2436.731" y="652.13318" font-family="'Bitstream Vera Sans'" font-size="12.666px" opacity=".8" xml:space="preserve"><tspan x="-2436.731" y="652.13318"/></text>
 <text x="-498.55399" y="-478.74127" font-family="'Bitstream Vera Sans'" font-size="12.666px" opacity=".8" xml:space="preserve"><tspan x="-498.55399" y="-478.74127"/></text>
 <text x="309.04816" y="-892.21136" font-family="'Bitstream Vera Sans'" font-size="12.666px" opacity=".8" xml:space="preserve"><tspan x="309.04816" y="-892.21136"/></text>
 <text x="333.00909" y="-932.95306" font-family="'Bitstream Vera Sans'" font-size="12.666px" opacity=".8" xml:space="preserve"><tspan x="333.00909" y="-932.95306"/></text>
 <text x="-1158.4541" y="-940.16296" font-family="'Bitstream Vera Sans'" font-size="12.666px" opacity=".8" xml:space="preserve"><tspan x="-1158.4541" y="-940.16296"/></text>
 <text x="302.08868" y="-1213.3972" font-family="'Bitstream Vera Sans'" font-size="12.666px" opacity=".8" xml:space="preserve"><tspan x="302.08868" y="-1213.3972"/></text>
 <text x="1788.2122" y="-586.70575" font-family="'Bitstream Vera Sans'" font-size="12.666px" opacity=".8" xml:space="preserve"><tspan x="1788.2122" y="-586.70575"/></text>
 <text x="1812.173" y="-627.44751" font-family="'Bitstream Vera Sans'" font-size="12.666px" opacity=".8" xml:space="preserve"><tspan x="1812.173" y="-627.44751"/></text>
 <text x="320.70984" y="-634.65741" font-family="'Bitstream Vera Sans'" font-size="12.666px" opacity=".8" xml:space="preserve"><tspan x="320.70984" y="-634.65741"/></text>
 <text x="1781.2527" y="-907.89142" font-family="'Bitstream Vera Sans'" font-size="12.666px" opacity=".8" xml:space="preserve"><tspan x="1781.2527" y="-907.89142"/></text>
 <text x="-617.10645" y="-682.74872" font-family="'Bitstream Vera Sans'" font-size="12.666px" opacity=".8" xml:space="preserve"><tspan x="-617.10645" y="-682.74872"/></text>
 <text x="-2440.792" y="62.804817" font-family="'Bitstream Vera Sans'" font-size="12.666px" opacity=".8" xml:space="preserve"><tspan x="-2440.792" y="62.804817"/></text>
 <text x="-726.03668" y="155.67696" font-family="'Bitstream Vera Sans'" font-size="12.666px" opacity=".8" xml:space="preserve"><tspan x="-726.03668" y="155.67696"/></text>
 <text x="382.98761" y="-23.505192" font-family="'Bitstream Vera Sans'" font-size="12.666px" opacity=".8" xml:space="preserve"><tspan x="382.98761" y="-23.505192"/></text>
 <text x="406.94855" y="-64.246902" font-family="'Bitstream Vera Sans'" font-size="12.666px" opacity=".8" xml:space="preserve"><tspan x="406.94855" y="-64.246902"/></text>
 <text x="-1084.5146" y="-71.456871" font-family="'Bitstream Vera Sans'" font-size="12.666px" opacity=".8" xml:space="preserve"><tspan x="-1084.5146" y="-71.456871"/></text>
 <text x="376.02814" y="-344.69095" font-family="'Bitstream Vera Sans'" font-size="12.666px" opacity=".8" xml:space="preserve"><tspan x="376.02814" y="-344.69095"/></text>
 <text x="-651.70642" y="-74.171112" font-family="'Bitstream Vera Sans'" font-size="12.666px" opacity=".8" xml:space="preserve"><tspan x="-651.70642" y="-74.171112"/></text>
 <text x="-2475.3923" y="671.38239" font-family="'Bitstream Vera Sans'" font-size="12.666px" opacity=".8" xml:space="preserve"><tspan x="-2475.3923" y="671.38239"/></text>
 <text x="-500.6134" y="-935.7016" font-family="'Bitstream Vera Sans'" font-size="12.666px" opacity=".8" xml:space="preserve"><tspan x="-500.6134" y="-935.7016"/></text>
 <text x="306.98874" y="-1349.1719" font-family="'Bitstream Vera Sans'" font-size="12.666px" opacity=".8" xml:space="preserve"><tspan x="306.98874" y="-1349.1719"/></text>
 <text x="330.94965" y="-1389.9136" font-family="'Bitstream Vera Sans'" font-size="12.666px" opacity=".8" xml:space="preserve"><tspan x="330.94965" y="-1389.9136"/></text>
 <text x="-1160.5135" y="-1397.1235" font-family="'Bitstream Vera Sans'" font-size="12.666px" opacity=".8" xml:space="preserve"><tspan x="-1160.5135" y="-1397.1235"/></text>
 <text x="300.02924" y="-1670.3577" font-family="'Bitstream Vera Sans'" font-size="12.666px" opacity=".8" xml:space="preserve"><tspan x="300.02924" y="-1670.3577"/></text>
 <text x="1786.1526" y="-1043.6663" font-family="'Bitstream Vera Sans'" font-size="12.666px" opacity=".8" xml:space="preserve"><tspan x="1786.1526" y="-1043.6663"/></text>
 <text x="1810.1134" y="-1084.408" font-family="'Bitstream Vera Sans'" font-size="12.666px" opacity=".8" xml:space="preserve"><tspan x="1810.1134" y="-1084.408"/></text>
 <text x="318.65039" y="-1091.6179" font-family="'Bitstream Vera Sans'" font-size="12.666px" opacity=".8" xml:space="preserve"><tspan x="318.65039" y="-1091.6179"/></text>
 <text x="1779.1931" y="-1364.8521" font-family="'Bitstream Vera Sans'" font-size="12.666px" opacity=".8" xml:space="preserve"><tspan x="1779.1931" y="-1364.8521"/></text>
 <text x="-619.16589" y="-1139.7092" font-family="'Bitstream Vera Sans'" font-size="12.666px" opacity=".8" xml:space="preserve"><tspan x="-619.16589" y="-1139.7092"/></text>
 <text x="-2442.8516" y="-394.15567" font-family="'Bitstream Vera Sans'" font-size="12.666px" opacity=".8" xml:space="preserve"><tspan x="-2442.8516" y="-394.15567"/></text>
 <text x="-728.09613" y="-301.28351" font-family="'Bitstream Vera Sans'" font-size="12.666px" opacity=".8" xml:space="preserve"><tspan x="-728.09613" y="-301.28351"/></text>
 <text x="111.91839" y="-60.36932" font-family="'Bitstream Vera Sans'" font-size="12.666px" opacity=".8" xml:space="preserve"><tspan x="111.91839" y="-60.36932"/></text>
 <text x="135.87932" y="-101.11104" font-family="'Bitstream Vera Sans'" font-size="12.666px" opacity=".8" xml:space="preserve"><tspan x="135.87932" y="-101.11104"/></text>
 <text x="-1133.9374" y="-295.13968" font-family="'Bitstream Vera Sans'" font-size="12.666px" opacity=".8" xml:space="preserve"><tspan x="-1133.9374" y="-295.13968"/></text>
 <text x="-326.33533" y="-708.6098" font-family="'Bitstream Vera Sans'" font-size="12.666px" opacity=".8" xml:space="preserve"><tspan x="-326.33533" y="-708.6098"/></text>
 <text x="-302.37439" y="-749.3515" font-family="'Bitstream Vera Sans'" font-size="12.666px" opacity=".8" xml:space="preserve"><tspan x="-302.37439" y="-749.3515"/></text>
 <text x="-1793.8375" y="-756.5614" font-family="'Bitstream Vera Sans'" font-size="12.666px" opacity=".8" xml:space="preserve"><tspan x="-1793.8375" y="-756.5614"/></text>
 <text x="-333.29477" y="-1029.7954" font-family="'Bitstream Vera Sans'" font-size="12.666px" opacity=".8" xml:space="preserve"><tspan x="-333.29477" y="-1029.7954"/></text>
 <text x="1152.8286" y="-403.10419" font-family="'Bitstream Vera Sans'" font-size="12.666px" opacity=".8" xml:space="preserve"><tspan x="1152.8286" y="-403.10419"/></text>
 <text x="1176.7894" y="-443.84592" font-family="'Bitstream Vera Sans'" font-size="12.666px" opacity=".8" xml:space="preserve"><tspan x="1176.7894" y="-443.84592"/></text>
 <text x="-314.67365" y="-451.05588" font-family="'Bitstream Vera Sans'" font-size="12.666px" opacity=".8" xml:space="preserve"><tspan x="-314.67365" y="-451.05588"/></text>
 <text x="1145.8691" y="-724.28992" font-family="'Bitstream Vera Sans'" font-size="12.666px" opacity=".8" xml:space="preserve"><tspan x="1145.8691" y="-724.28992"/></text>
 <text x="-1252.49" y="-499.14716" font-family="'Bitstream Vera Sans'" font-size="12.666px" opacity=".8" xml:space="preserve"><tspan x="-1252.49" y="-499.14716"/></text>
 <text x="-3076.1755" y="246.4064" font-family="'Bitstream Vera Sans'" font-size="12.666px" opacity=".8" xml:space="preserve"><tspan x="-3076.1755" y="246.4064"/></text>
 <g transform="matrix(.90475 0 0 .90475 -760.42 -709.7)">
  <text x="-664.2738" y="1159.4154" font-family="'Bitstream Vera Sans'" font-size="14px" opacity=".8" xml:space="preserve"><tspan x="-664.2738" y="1159.4154"/></text>
 </g>
 <text x="833.55237" y="-15.362455" font-family="'Bitstream Vera Sans'" font-size="12.666px" opacity=".8" xml:space="preserve"><tspan x="833.55237" y="-15.362455"/></text>
 <text x="857.51331" y="-56.10416" font-family="'Bitstream Vera Sans'" font-size="12.666px" opacity=".8" xml:space="preserve"><tspan x="857.51331" y="-56.10416"/></text>
 <text x="-613.04504" y="-86.182304" font-family="'Bitstream Vera Sans'" font-size="12.666px" opacity=".8" xml:space="preserve"><tspan x="-613.04504" y="-86.182304"/></text>
 <text x="-2436.731" y="659.37115" font-family="'Bitstream Vera Sans'" font-size="12.666px" opacity=".8" xml:space="preserve"><tspan x="-2436.731" y="659.37115"/></text>
 <text x="-498.55399" y="-471.50327" font-family="'Bitstream Vera Sans'" font-size="12.666px" opacity=".8" xml:space="preserve"><tspan x="-498.55399" y="-471.50327"/></text>
 <text x="309.04816" y="-884.97333" font-family="'Bitstream Vera Sans'" font-size="12.666px" opacity=".8" xml:space="preserve"><tspan x="309.04816" y="-884.97333"/></text>
 <text x="333.00909" y="-925.71509" font-family="'Bitstream Vera Sans'" font-size="12.666px" opacity=".8" xml:space="preserve"><tspan x="333.00909" y="-925.71509"/></text>
 <text x="-1158.4541" y="-932.92499" font-family="'Bitstream Vera Sans'" font-size="12.666px" opacity=".8" xml:space="preserve"><tspan x="-1158.4541" y="-932.92499"/></text>
 <text x="302.08868" y="-1206.1592" font-family="'Bitstream Vera Sans'" font-size="12.666px" opacity=".8" xml:space="preserve"><tspan x="302.08868" y="-1206.1592"/></text>
 <text x="1788.2122" y="-579.46777" font-family="'Bitstream Vera Sans'" font-size="12.666px" opacity=".8" xml:space="preserve"><tspan x="1788.2122" y="-579.46777"/></text>
 <text x="1812.173" y="-620.20953" font-family="'Bitstream Vera Sans'" font-size="12.666px" opacity=".8" xml:space="preserve"><tspan x="1812.173" y="-620.20953"/></text>
 <text x="320.70984" y="-627.41943" font-family="'Bitstream Vera Sans'" font-size="12.666px" opacity=".8" xml:space="preserve"><tspan x="320.70984" y="-627.41943"/></text>
 <text x="1781.2527" y="-900.65338" font-family="'Bitstream Vera Sans'" font-size="12.666px" opacity=".8" xml:space="preserve"><tspan x="1781.2527" y="-900.65338"/></text>
 <text x="-617.10645" y="-675.51074" font-family="'Bitstream Vera Sans'" font-size="12.666px" opacity=".8" xml:space="preserve"><tspan x="-617.10645" y="-675.51074"/></text>
 <text x="-2440.792" y="70.042809" font-family="'Bitstream Vera Sans'" font-size="12.666px" opacity=".8" xml:space="preserve"><tspan x="-2440.792" y="70.042809"/></text>
 <text x="-726.03668" y="162.91495" font-family="'Bitstream Vera Sans'" font-size="12.666px" opacity=".8" xml:space="preserve"><tspan x="-726.03668" y="162.91495"/></text>
 <text x="382.98761" y="-16.267204" font-family="'Bitstream Vera Sans'" font-size="12.666px" opacity=".8" xml:space="preserve"><tspan x="382.98761" y="-16.267204"/></text>
 <text x="406.94855" y="-57.008911" font-family="'Bitstream Vera Sans'" font-size="12.666px" opacity=".8" xml:space="preserve"><tspan x="406.94855" y="-57.008911"/></text>
 <text x="-1084.5146" y="-64.21888" font-family="'Bitstream Vera Sans'" font-size="12.666px" opacity=".8" xml:space="preserve"><tspan x="-1084.5146" y="-64.21888"/></text>
 <text x="376.02814" y="-337.45294" font-family="'Bitstream Vera Sans'" font-size="12.666px" opacity=".8" xml:space="preserve"><tspan x="376.02814" y="-337.45294"/></text>
 <text x="-651.70642" y="-66.933121" font-family="'Bitstream Vera Sans'" font-size="12.666px" opacity=".8" xml:space="preserve"><tspan x="-651.70642" y="-66.933121"/></text>
 <text x="-2475.3923" y="678.62042" font-family="'Bitstream Vera Sans'" font-size="12.666px" opacity=".8" xml:space="preserve"><tspan x="-2475.3923" y="678.62042"/></text>
 <text x="-500.6134" y="-928.46362" font-family="'Bitstream Vera Sans'" font-size="12.666px" opacity=".8" xml:space="preserve"><tspan x="-500.6134" y="-928.46362"/></text>
 <text x="306.98874" y="-1341.9338" font-family="'Bitstream Vera Sans'" font-size="12.666px" opacity=".8" xml:space="preserve"><tspan x="306.98874" y="-1341.9338"/></text>
 <text x="330.94965" y="-1382.6757" font-family="'Bitstream Vera Sans'" font-size="12.666px" opacity=".8" xml:space="preserve"><tspan x="330.94965" y="-1382.6757"/></text>
 <text x="-1160.5135" y="-1389.8855" font-family="'Bitstream Vera Sans'" font-size="12.666px" opacity=".8" xml:space="preserve"><tspan x="-1160.5135" y="-1389.8855"/></text>
 <text x="300.02924" y="-1663.1196" font-family="'Bitstream Vera Sans'" font-size="12.666px" opacity=".8" xml:space="preserve"><tspan x="300.02924" y="-1663.1196"/></text>
 <text x="1786.1526" y="-1036.4282" font-family="'Bitstream Vera Sans'" font-size="12.666px" opacity=".8" xml:space="preserve"><tspan x="1786.1526" y="-1036.4282"/></text>
 <text x="1810.1134" y="-1077.17" font-family="'Bitstream Vera Sans'" font-size="12.666px" opacity=".8" xml:space="preserve"><tspan x="1810.1134" y="-1077.17"/></text>
 <text x="318.65039" y="-1084.3799" font-family="'Bitstream Vera Sans'" font-size="12.666px" opacity=".8" xml:space="preserve"><tspan x="318.65039" y="-1084.3799"/></text>
 <text x="1779.1931" y="-1357.614" font-family="'Bitstream Vera Sans'" font-size="12.666px" opacity=".8" xml:space="preserve"><tspan x="1779.1931" y="-1357.614"/></text>
 <text x="-619.16589" y="-1132.4712" font-family="'Bitstream Vera Sans'" font-size="12.666px" opacity=".8" xml:space="preserve"><tspan x="-619.16589" y="-1132.4712"/></text>
 <text x="-2442.8516" y="-386.91766" font-family="'Bitstream Vera Sans'" font-size="12.666px" opacity=".8" xml:space="preserve"><tspan x="-2442.8516" y="-386.91766"/></text>
 <text x="-728.09613" y="-294.0455" font-family="'Bitstream Vera Sans'" font-size="12.666px" opacity=".8" xml:space="preserve"><tspan x="-728.09613" y="-294.0455"/></text>
 <text x="111.91839" y="-53.131332" font-family="'Bitstream Vera Sans'" font-size="12.666px" opacity=".8" xml:space="preserve"><tspan x="111.91839" y="-53.131332"/></text>
 <text x="135.87932" y="-93.873055" font-family="'Bitstream Vera Sans'" font-size="12.666px" opacity=".8" xml:space="preserve"><tspan x="135.87932" y="-93.873055"/></text>
 <text x="-1133.9374" y="-287.90164" font-family="'Bitstream Vera Sans'" font-size="12.666px" opacity=".8" xml:space="preserve"><tspan x="-1133.9374" y="-287.90164"/></text>
 <text x="-326.33533" y="-701.37183" font-family="'Bitstream Vera Sans'" font-size="12.666px" opacity=".8" xml:space="preserve"><tspan x="-326.33533" y="-701.37183"/></text>
 <text x="-302.37439" y="-742.11353" font-family="'Bitstream Vera Sans'" font-size="12.666px" opacity=".8" xml:space="preserve"><tspan x="-302.37439" y="-742.11353"/></text>
 <text x="-1793.8375" y="-749.32349" font-family="'Bitstream Vera Sans'" font-size="12.666px" opacity=".8" xml:space="preserve"><tspan x="-1793.8375" y="-749.32349"/></text>
 <text x="-333.29477" y="-1022.5575" font-family="'Bitstream Vera Sans'" font-size="12.666px" opacity=".8" xml:space="preserve"><tspan x="-333.29477" y="-1022.5575"/></text>
 <text x="1152.8286" y="-395.86621" font-family="'Bitstream Vera Sans'" font-size="12.666px" opacity=".8" xml:space="preserve"><tspan x="1152.8286" y="-395.86621"/></text>
 <text x="1176.7894" y="-436.60794" font-family="'Bitstream Vera Sans'" font-size="12.666px" opacity=".8" xml:space="preserve"><tspan x="1176.7894" y="-436.60794"/></text>
 <text x="-314.67365" y="-443.81787" font-family="'Bitstream Vera Sans'" font-size="12.666px" opacity=".8" xml:space="preserve"><tspan x="-314.67365" y="-443.81787"/></text>
 <text x="1145.8691" y="-717.05194" font-family="'Bitstream Vera Sans'" font-size="12.666px" opacity=".8" xml:space="preserve"><tspan x="1145.8691" y="-717.05194"/></text>
 <text x="-1252.49" y="-491.90915" font-family="'Bitstream Vera Sans'" font-size="12.666px" opacity=".8" xml:space="preserve"><tspan x="-1252.49" y="-491.90915"/></text>
 <text x="-3076.1755" y="253.64438" font-family="'Bitstream Vera Sans'" font-size="12.666px" opacity=".8" xml:space="preserve"><tspan x="-3076.1755" y="253.64438"/></text>
 <g transform="matrix(.90475 0 0 .90475 -760.42 -702.46)">
  <text x="-664.2738" y="1159.4154" font-family="'Bitstream Vera Sans'" font-size="14px" opacity=".8" xml:space="preserve"><tspan x="-664.2738" y="1159.4154"/></text>
 </g>
 <text x="392.23035" y="-394.63852" font-family="'Droid Sans'" font-size="12.666px" xml:space="preserve"><tspan x="392.23035" y="-394.63852"/><tspan x="392.23035" y="-378.80545"/></text>
 <text x="857.41431" y="-876.68304" font-family="'Bitstream Vera Sans'" font-size="12.666px" opacity=".8" xml:space="preserve"><tspan x="857.41431" y="-876.68304"/></text>
 <text x="-966.27167" y="-131.12959" font-family="'Bitstream Vera Sans'" font-size="12.666px" opacity=".8" xml:space="preserve"><tspan x="-966.27167" y="-131.12959"/></text>
 <text x="1584.4938" y="-1161.679" font-family="'Bitstream Vera Sans'" font-size="12.666px" opacity=".8" xml:space="preserve"><tspan x="1584.4938" y="-1161.679"/></text>
 <text x="1608.4546" y="-1202.4207" font-family="'Bitstream Vera Sans'" font-size="12.666px" opacity=".8" xml:space="preserve"><tspan x="1608.4546" y="-1202.4207"/></text>
 <text x="116.99151" y="-1209.6306" font-family="'Bitstream Vera Sans'" font-size="12.666px" opacity=".8" xml:space="preserve"><tspan x="116.99151" y="-1209.6306"/></text>
 <text x="1577.5343" y="-1482.8647" font-family="'Bitstream Vera Sans'" font-size="12.666px" opacity=".8" xml:space="preserve"><tspan x="1577.5343" y="-1482.8647"/></text>
 <rect transform="matrix(0,-1,-1,0,0,0)" x="-21" y="-21" width="20" height="20" rx="1" ry="1" fill="#e79d67"/>
 <path d="m3.247 3.4999c-0.13686 0-0.24707 0.11022-0.24707 0.24707v15.506c0 0.137 0.1102 0.247 0.24705 0.247h15.506c0.137 0 0.247-0.11 0.247-0.247v-15.506c0-0.1368-0.11-0.247-0.247-0.247z" opacity=".2"/>
 <path d="m3.247 3c-0.1368 0-0.247 0.1102-0.247 0.2471v15.506c0 0.137 0.1102 0.247 0.24705 0.247h15.506c0.137 0 0.247-0.11 0.247-0.247v-15.506c0-0.1368-0.11-0.247-0.247-0.247z" fill="#fff"/>
 <path d="m6 3v17l5-3 5 3v-17z" fill="#e84228"/>
 <path d="m1 2.5v-0.5c0-0.554 0.446-1 1-1h18c0.554 0 1 0.446 1 1v0.5c0-0.554-0.446-1-1-1h-18c-0.554 0-1 0.446-1 1z" fill="#fff" opacity=".2"/>
 <path d="m1 20v0.5c0 0.554 0.446 1 1 1h18c0.554 0 1-0.446 1-1v-0.5c0 0.554-0.446 1-1 1h-18c-0.554 0-1-0.446-1-1z" opacity=".2"/>
 <path d="m11 6.5 1.236 2.6334 2.764 0.4223-2 2.0503 0.472 2.894-2.472-1.367-2.4721 1.367 0.4721-2.894-2-2.0503 2.7639-0.4223z" opacity=".2"/>
 <path d="m11 6 1.236 2.6334 2.764 0.4223-2 2.0503 0.472 2.894-2.472-1.367-2.4721 1.367 0.4721-2.894-2-2.0503 2.7639-0.4223z" fill="#fff"/>
 <path d="m11 6 1.236 2.6334 2.764 0.4223-2 2.0503 0.472 2.894-2.472-1.367-2.4721 1.367 0.4721-2.894-2-2.0503 2.7639-0.4223z" fill="#fff"/>
</svg>
