<svg width="16" height="16" version="1.1" viewBox="0 0 16 16" xmlns="http://www.w3.org/2000/svg">
 <path d="m8 0a8 8 0 0 0 -8 8 8 8 0 0 0 8 8 8 8 0 0 0 8 -8 8 8 0 0 0 -8 -8z" style="fill:#e3ac33"/>
 <path d="m8.1542115 2c-0.0578033 0.1722285-0.1116738 0.3233938-0.1751641 0.5330355-0.210415 0.6947788-0.4104748 1.5487261-0.4081576 2.0324067 0.0022314 0.4619187 0.2026657 1.2820178 0.4115098 1.9485958 0.0535375 0.1708533 0.0812374 0.2371723 0.126554 0.3704432 0.0616597-0.1247111 0.0894476-0.1925705 0.1692978-0.3452999 0.3391412-0.6486768 0.7635282-1.3967756 1.237882-1.875681 0.4896576-0.4943757 1.2606016-0.9424642 1.9301576-1.3007403 0.08524-0.045612 0.140383-0.06963 0.22126-0.1114678a6.0075428 6.0075428 0 0 0 -3.5133395 -1.2512922zm-0.9194021 0.04861a6.0075428 6.0075428 0 0 0 -3.3691858 1.5965916c0.080288 0.1607786 0.1488781 0.3031544 0.251432 0.4944826 0.3416138 0.6373282 0.8010509 1.382055 1.1532337 1.7373934 0.3495716 0.3527003 1.1205989 0.8396386 1.7834892 1.2043583 0.1013966 0.055789 0.171176 0.088876 0.2631652 0.1374495-0.0527789-0.1534691-0.0898682-0.2457226-0.1533735-0.4483866-0.2188741-0.6984932-0.4476825-1.5276487-0.4509008-2.2017044-0.0033471-0.6958168 0.2249254-1.5578897 0.445034-2.2846762 0.0280295-0.0925565 0.049488-0.1487078 0.077106-0.2355082zm5.1191506 1.8161755c-0.16325 0.081192-0.308699 0.1508884-0.502863 0.2547842-0.64007 0.3424964-1.385285 0.8045528-1.72566 1.1482049-0.3250601 0.3281925-0.7633571 1.0496516-1.0870238 1.6686688-0.0826865 0.1581546-0.1097578 0.2243543-0.1718119 0.3503286 0.1276453-0.0430325 0.2136845-0.0764447 0.3628998-0.1232019 0.6984928-0.2188741 1.5276489-0.4476825 2.2017049-0.4509008 0.695816-0.00335 1.557889 0.2249254 2.284676 0.445034 0.09256 0.02803 0.148707 0.049488 0.235508 0.077106a6.0075428 6.0075428 0 0 0 -1.59743 -3.3700238zm-9.1026677 0.4676632a6.0075428 6.0075428 0 0 0 -1.2512922 3.5125017c0.1698414 0.056666 0.3179423 0.1085309 0.5246542 0.1709733 0.6922165 0.2091016 1.5438471 0.410955 2.0441402 0.4131864 0.4965809 0.00223 1.3862349-0.1989951 2.1128648-0.4098337 0.077669-0.022537 0.1258932-0.040195 0.1977932-0.06202-0.0846149-0.0448083-0.1462884-0.0735681-0.2380223-0.1240396-0.6904666-0.3798926-1.4843389-0.8513302-1.9804439-1.3518645-0.4934875-0.4979026-0.94433-1.269529-1.3015784-1.9360246-0.0441194-0.0823111-0.0675711-0.1347025-0.1081156-0.212879zm8.1832647 3.238441c-0.461917 0.00223-1.282017 0.2026657-1.9485952 0.4115098-0.15613 0.048924-0.2407467 0.082054-0.369605 0.125716 0.1209331 0.059944 0.2055523 0.097511 0.3444618 0.1701358 0.6486774 0.3391416 1.3967754 0.7635282 1.8756804 1.237882 0.494376 0.4896577 0.942465 1.2606007 1.300741 1.9301577 0.04561 0.08524 0.06963 0.140383 0.111467 0.22126a6.0075428 6.0075428 0 0 0 1.251293 -3.5133396c-0.172229-0.0578033-0.323393-0.1116738-0.533035-0.1751641-0.694779-0.210415-1.548726-0.4104748-2.032408-0.4081576zm-4.256739 1.1917866c-0.0916268 0.028184-0.1557705 0.0512422-0.2564603 0.0804582-0.7568581 0.2196092-1.6511847 0.4473285-2.3559154 0.444196-0.7010185-0.0031325-1.565809-0.2305536-2.2897054-0.4492247-0.0895189-0.0270426-0.1430752-0.0479596-0.2271268-0.0745914a6.0075428 6.0075428 0 0 0 1.5965916 3.3708616c0.1607786-0.080287 0.3031544-0.148878 0.4944826-0.251432 0.6373282-0.341613 1.3820545-0.801051 1.7373934-1.153234 0.3526998-0.349571 0.8396386-1.1205984 1.2043583-1.7834886 0.038959-0.070809 0.0618-0.1185919 0.096382-0.1835451zm1.6100017 0.1399638c0.019353 0.063766 0.03526 0.1068902 0.055315 0.1760021 0.2196096 0.7568581 0.4473289 1.6511848 0.4441964 2.3559148-0.00313 0.701019-0.2305536 1.565809-0.4492247 2.289706-0.027043 0.08952-0.04796 0.143075-0.074591 0.227126a6.0075428 6.0075428 0 0 0 3.3717006 -1.597429c-0.0812-0.163251-0.150889-0.3087-0.254784-0.502863-0.342499-0.64007-0.804555-1.385285-1.148207-1.725661-0.328192-0.3250592-1.0496511-0.7633562-1.6686685-1.0870229-0.1140627-0.0596343-0.1758232-0.0858504-0.2757368-0.135773zm-0.8305629 0.2179073c-0.043759 0.0829071-0.0735774 0.1463047-0.1240399 0.2380222-0.3798926 0.6904664-0.8513302 1.4843394-1.3518645 1.9804444-0.4979026 0.493487-1.269529 0.94433-1.9360246 1.301578-0.082311 0.04412-0.1347025 0.06757-0.212879 0.108115a6.0075428 6.0075428 0 0 0 3.5125017 1.251293c0.0566661-0.169842 0.1085309-0.317942 0.1709733-0.524655 0.2091016-0.692216 0.410955-1.543846 0.4131864-2.044139 0.0022314-0.496582-0.1989951-1.386235-0.4098337-2.1128654-0.0225369-0.077669-0.0405295-0.1273685-0.0620197-0.1977932z" style="fill:#383838"/>
 <circle cx="8" cy="8" r="2" style="fill:#cccccc"/>
</svg>
