<svg width="16" height="16" version="1.1" viewBox="0 0 16 16" xmlns="http://www.w3.org/2000/svg">
 <rect transform="matrix(0,-1,-1,0,0,0)" x="-16" y="-16" width="16" height="16" rx=".8" ry=".8" style="fill:#345784"/>
 <path d="m8.2148436 3.0009368c-0.041702 0.00136-0.084804 0.00553-0.13125 0.01172-0.5223796 0.0695776-0.6657648 0.1959668-0.985156 0.8664064-0.215428 0.4522056-0.3232008 0.7636015-0.6007812 0.8232831-0.1656773-0.2499951-0.3854596-0.3537332-0.5118173-0.4750015-0.8256058-0.7923525-0.8085121 0.8126459-1.0413079 1.3726567-0.350178-0.3072444-0.8049504-0.8023232-1.254654-1.1737428-0.402062-0.3320716-0.8000724-0.5332628-1.1156584-0.3236792-0.2500804 0.175358-0.4625554 0.5515984-0.5398438 1.4148436-0.105588 1.1793224 0.0011 1.6176256 0.7500002 2.5942984 0.846848 1.1044132 1.5300952 2.2846775 3.5277788 3.6715465 0.8652796 0.60071 1.5904028 1.092187 1.6117188 1.092187 0.1198176 0-1.1580796-1.659972-1.9320312-2.509376-0.9253886-1.0736131-1.3565756-2.2770504-0.6280227-3.266079 0.847954-0.3836698 1.3345651 0.4606213 1.8118823 0.8916559 0.4467564 0.482756 0.854978 1.1923455 1.2117188 1.6892671 0.4210417 0.39453 1.0673779 0.315983 1.3534095-0.033061 0.6116865-0.7464396 0.2214141-1.9053037-0.4994231-2.8517669-0.0810964-0.3461388 0.0722012-0.3988012 0.4265624-0.3984372 0.4482222 4.4e-4 1.3990122 0.4742004 1.9104842 0.9171872 0.632066 0.547432 0.678483 0.6576392 1.382094 2.0531252 0.415334 0.8237407 0.827279 1.3921847 0.915625 1.5071997 0.157335 0.204838 0.160641 0.203704 0.163281-0.05234-0.132769-2.1321301-0.812683-4.0743421-2.412562-5.5306409-0.270629-0.236558-1.164295-1.0134387-1.864391-1.4818771-1.020022-0.6825056-1.2557444-0.8190132-1.5476564-0.8093752z" style="fill:#8d8069"/>
 <ellipse transform="matrix(.4366245 -.89964384 .68883367 .72491943 0 0)" cx=".92" cy="12.192" rx=".725" ry="1.067" style="fill:#ffffff"/>
</svg>
