<svg width="16" height="16" version="1.1" viewBox="0 0 16 16" xmlns="http://www.w3.org/2000/svg">
 <circle cx="8" cy="8" r="8" style="fill:#4f4f4f"/>
 <path d="m8 3c-2.209139 0-4 1.790861-4 4v1.0878906c-0.5985922 0.2116336-0.9991092 0.7772073-1 1.4121094 0 0.828427 0.6715729 1.5 1.5 1.5 0.1704498-6.76e-4 0.3395376-0.030398 0.5-0.087891v0.087891h1v-1.5-1.5h-1v-1c0-1.6568542 1.3431458-3 3-3s3 1.3431458 3 3v1.0878906c-0.598592 0.2116336-0.999109 0.7772073-1 1.4121094 0 0.828427 0.671573 1.5 1.5 1.5s1.5-0.671573 1.5-1.5c-8.91e-4 -0.6349021-0.401408-1.2004758-1-1.4121094v-1.0878906c0-2.209139-1.790861-4-4-4zm-4 6h1v1h-1zm7 0h1v1h-1z" style="fill:#2993e4"/>
</svg>
