<svg width="16" height="16" version="1" xmlns="http://www.w3.org/2000/svg">
 <rect x="5" y="1" width="5" height="5" fill="#4799e2"/>
 <path d="m1 1h4v5h-5v-4s0-1 1-1z" fill="#66b7fe"/>
 <path d="m10 1h4s1 0 1 1v4h-5z" fill="#66fe76"/>
 <rect x="5" y="6" width="5" height="5" fill="#3182c6"/>
 <rect y="6" width="5" height="5" fill="#20c931"/>
 <rect x="10" y="6" width="5" height="5" fill="#20c931"/>
 <rect x="5" y="11" width="5" height="5" fill="#1e4f77"/>
 <path d="m0 11h5v5h-4c-1 0-1-1-1-1z" fill="#278e33"/>
 <path d="m10 11h5v4c0 1-1 1-1 1h-4z" fill="#278e33"/>
</svg>
