<svg width="16" height="16" version="1.1" viewBox="0 0 16 16" xmlns="http://www.w3.org/2000/svg">
 <path d="m9 2-4 4" fill="none" stroke="#cbbb2e" stroke-width="3"/>
 <rect transform="scale(-1,1)" x="-6" y="6" width="4" height="8.5" ry="0" fill="#cbbb2e"/>
 <path d="m6 13h-4c-0.554 0-1 0.446-1 1s0.446 1 1 1h4c0.554 0 1-0.446 1-1s-0.446-1-1-1z" fill="#d6c84a"/>
 <path d="m7 14c1 0 1 1 1 1v1h-8v-1c0-1 1-1 1-1z" fill="#3f3f3f"/>
 <path d="m9 2 2 2" fill="none" stroke="#cbbb2e" stroke-linecap="square" stroke-width="2"/>
 <rect transform="scale(-1,1)" x="-11" y="1" width="4" height="4" ry="2" opacity=".2"/>
 <rect transform="scale(-1,1)" x="-7" y="5" width="6" height="6" ry="3" opacity=".2"/>
 <rect transform="scale(-1,1)" x="-7" y="4" width="6" height="6" ry="3" fill="#d6c84a"/>
 <rect transform="scale(-1,1)" x="-6" y="5" width="4" height="4" ry="2" fill="#3f3f3f"/>
 <rect transform="scale(-1,1)" x="-5" y="6" width="2" height="2" ry="1" fill="#fff" opacity=".1"/>
 <rect transform="scale(-1,1)" x="-11" width="4" height="4" ry="2" fill="#d6c84a"/>
 <path d="m12.5 7.5-2-3e-3v-2l2-2h2v2" fill="none" stroke="#3f3f3f" stroke-linecap="round" stroke-linejoin="round"/>
 <rect transform="scale(-1,1)" x="-10" y="1" width="2" height="2" ry="1" fill="#3f3f3f"/>
</svg>
