<svg width="16" height="16" version="1" xmlns="http://www.w3.org/2000/svg">
 <path d="m6.1928385 0c-1.0982 1.38422-1.42735 2.0661956-1.03125 2.9472656 0.3591 0.79867 1.286913 1.2057044 0.820313 3.0527344 0.7664-0.89992 1.375237-2.0428938 0.773437-2.9648438-0.6122-0.9376999-0.9475-1.5071562-0.5625-3.0351562zm3.0000004 0c-1.0982 1.38422-1.4273504 2.0661956-1.03125 2.9472656 0.3591 0.79867 1.2869125 1.2057044 0.8203125 3.0527344 0.7664-0.89992 1.3752376-2.0428938 0.7734375-2.9648438-0.6122-0.9376999-0.9475-1.5071562-0.5625-3.0351562zm2.9999991 0c-1.098199 1.38422-1.427349 2.0661956-1.031249 2.9472656 0.3591 0.79867 1.286912 1.2057044 0.820312 3.0527344 0.7664-0.89992 1.375237-2.0428938 0.773437-2.9648438-0.6122-0.9376999-0.947499-1.5071562-0.5625-3.0351562z" style="fill:#956b5f"/>
 <path d="m15 10c0 3-2 5-5 5h-2c-3 0-4.7598-1.56569-4.959-4h-0.541c-1.5 0-1.5-1.5-1.5-1.5v-1c0-1.5 1.5-1.5 1.5-1.5h0.5 12zm-12.5-2c-0.5-0.0323-0.5156 0.53125-0.5156 0.53125v1c0 0.46875 0.5156 0.46875 0.5156 0.46875h0.5l-0.01-1.98438z" style="fill:#e4e4e4"/>
</svg>
