<svg width="16" height="16" version="1" xmlns="http://www.w3.org/2000/svg">
 <path d="m7.2076874 0.00143226c0.051768-0.02741973 0.7354925 0.3427243 1.4388751 0.77880826 1.0296904 0.63839298 1.6840705 1.2028545 2.2574975 1.9507874 0.141689 0.1848277 0.258827 0.3772674 0.364185 0.5723583 0.06127 0.080576 0.119197 0.1632772 0.173592 0.2479349 1.113415 1.7687455 0.50902 4.0008122-1.349727 4.9853369-1.8587475 0.984526-4.2679763 0.3486899-5.3811612-1.4201779-0.0512071-0.0814251-0.0994565-0.164376-0.1436631-0.2491908-0.0537947-0.0796966-0.1131849-0.1567886-0.1591222-0.2389189-0.6307743-1.1281136-0.5025752-2.3358105 0.1926213-3.3636568 0.3680573-0.5441723 1.1058297-1.0989825 1.6370911-1.3817229 0.6627773-0.3527329 0.8862031-1.0660997 0.9282146-1.6864568 0.00672-0.0993015 0.026098-0.18689106 0.041569-0.19508503z" style="fill:#975a34"/>
 <path d="m4.7273437 6a0.7273297 0.66673327 0 0 0 -0.7023999 0.8398446l2.5453998 8.6666664a0.7273297 0.66673327 0 0 0 0.7023996 0.493489h1.4545137a0.7273297 0.66673327 0 0 0 0.7023999 -0.493489l2.5453992-8.6666664a0.7273297 0.66673327 0 0 0 -0.7024 -0.8398446z" style="fill:#f1b65c"/>
 <rect x="3" y="6" width="10" height="1" rx=".455" ry=".5" style="fill:#ffcf88"/>
</svg>
