<svg width="16" height="16" version="1.1" viewBox="0 0 16 16" xmlns="http://www.w3.org/2000/svg">
 <path d="m8 0-0.7619048 1-0.8380952-0.5-0.5666668 1.2262c-1.7548188 0.3611-2.9947504 1.2092-4.0223199 2.5498-1.7973066 2.3449-1.8110133 6.3907-1.8110133 8.6764s4.190476 3.0476 8 3.0476 8-0.7619 8-3.0476-0.01372-6.3315-1.811013-8.6764c-1.02757-1.3406-2.267501-2.1887-4.02232-2.5498l-0.566667-1.2262-0.8380952 0.5z" style="fill:#81b427"/>
 <circle cx="11.5" cy="8.5" r="1.5" style="fill:#ffffff"/>
 <circle cx="8" cy="12.5" r="1.5" style="fill:#86572f"/>
 <path d="m8.0000004 9.9999c-0.076585 1e-4 -0.150514 0.035-0.2047416 0.098l-1.7012171 1.7377c-0.1820414 0.2101-0.086301 0.831 0.1712383 0.8311l1.7347204 0.3333 1.7347207-0.3333c0.2575358-1e-4 0.3532789-0.621 0.1712383-0.8311l-1.7012173-1.7377c-0.054228-0.063-0.128157-0.097-0.2047417-0.098z" style="fill:#ffc12e"/>
 <rect x="11" y="8" width="1" height="1" style="fill:#3f3f3f"/>
 <path d="M 4.5,8 A 1.5,1.5 0 0 0 3,9.5 1.5,1.5 0 0 0 3.0878906,10 1.5,1.5 0 0 1 4.5,9 1.5,1.5 0 0 1 5.9121094,10 1.5,1.5 0 0 0 6,9.5 1.5,1.5 0 0 0 4.5,8 Z" style="fill:#ffffff"/>
</svg>
