<svg width="16" height="16" version="1.1" viewBox="0 0 16 16" xmlns="http://www.w3.org/2000/svg">
 <rect transform="rotate(-90)" x="-15" width="5" height="16" rx=".769" ry=".8" style="fill:#8e8e8e"/>
 <path d="m10.100312 11.5 1.2 2" style="opacity:.5;stroke-linecap:round;stroke:#000000"/>
 <path d="m11.700312 11.5 1.2 2" style="opacity:.5;stroke-linecap:round;stroke:#000000"/>
 <path d="m13.300312 11.5 1.2 2" style="opacity:.5;stroke-linecap:round;stroke:#000000"/>
 <path d="m8.5003119 11.5 1.2 2" style="opacity:.5;stroke-linecap:round;stroke:#000000"/>
 <circle transform="scale(-1,1)" cx="-6" cy="12" r="1" style="fill:#76ff03"/>
 <circle transform="scale(-1,1)" cx="-4" cy="12" r="1" style="fill:#ffff00"/>
 <circle transform="scale(-1,1)" cx="-2" cy="12" r="1" style="fill:#ffcd40"/>
 <rect transform="rotate(-90)" x="-10" width="5" height="16" rx=".769" ry=".8" style="fill:#8e8e8e"/>
 <path d="m10.100312 6.5 1.2 2" style="opacity:.5;stroke-linecap:round;stroke:#000000"/>
 <path d="m11.700312 6.5 1.2 2" style="opacity:.5;stroke-linecap:round;stroke:#000000"/>
 <path d="m13.300312 6.5 1.2 2" style="opacity:.5;stroke-linecap:round;stroke:#000000"/>
 <path d="m8.5003119 6.5 1.2 2" style="opacity:.5;stroke-linecap:round;stroke:#000000"/>
 <circle transform="scale(-1,1)" cx="-4" cy="7" r="1" style="fill:#ffff00"/>
 <circle transform="scale(-1,1)" cx="-2" cy="7" r="1" style="fill:#ffcd40"/>
 <rect transform="rotate(-90)" x="-5" width="5" height="16" rx=".769" ry=".8" style="fill:#8e8e8e"/>
 <path d="m10.100312 1.5 1.2 2" style="opacity:.5;stroke-linecap:round;stroke:#000000"/>
 <path d="m11.700312 1.5 1.2 2" style="opacity:.5;stroke-linecap:round;stroke:#000000"/>
 <path d="m13.300312 1.5 1.2 2" style="opacity:.5;stroke-linecap:round;stroke:#000000"/>
 <path d="m8.5003119 1.5 1.2 2" style="opacity:.5;stroke-linecap:round;stroke:#000000"/>
 <circle transform="scale(-1,1)" cx="-2" cy="2" r="1" style="fill:#ffcd40"/>
</svg>
