<svg width="16" height="16" version="1" xmlns="http://www.w3.org/2000/svg">
 <path d="m14 15.143v-14.286c0-0.47471-0.365-0.857-0.818-0.857h-10.364c-0.4531 0-0.818 0.38229-0.818 0.85714v14.286c0 0.475 0.3649 0.857 0.8182 0.857h10.364c0.453 0 0.818-0.382 0.818-0.857z" style="fill:#1f4a55"/>
 <path d="m7.0004875 5.5h-1.5004875v5h1.4995125m1.0004875 0h0.6184083c1.108 0 1.8815917-0.892 1.8815917-2v-1c0-1.108-0.7735917-2-1.8815917-2h-0.6184083" style="fill:none;stroke:#ffffff"/>
 <path d="m3.9999999 3v1h1.0000001v-1zm3.0000001 0v1h5v-1zm-3.0000001 3v1h3v-1zm4.0000001 0v1h1v-1zm2.267 0v1h1.733v-1zm-6.2670001 3v1h1.3333333v-1zm3.0000001 0v1h1v-1zm3 0v1h2v-1zm-6.0000001 3v1h3.0000001v-1zm3.9999998 0v1h4.0000003v-1z" style="fill-rule:evenodd;fill:#ffffff;opacity:.15"/>
</svg>
