<svg width="16" height="16" version="1.1" viewBox="0 0 4.23 4.23" xmlns="http://www.w3.org/2000/svg">
 <g transform="translate(0,-292.76666)">
  <circle cx="2.117" cy="294.883" r="2.117" style="fill:#fb6651"/>
  <path transform="matrix(.26458333 0 0 .26458333 0 292.76666)" d="m6.1914062 5.0019531c-3e-7 0-0.1576617-0.00166-0.2265624 0.00586-1.5640631-0.0075597-2.4405738 1.2722945-3.2109376 2.228515-0.3400996 0.4237229-0.6132812 0.7617188-0.6132812 0.7617188-0.6141701 0.6353386-1.3561554 1.3024773-2.0351562 1.6757812 0.0362914 0.2154331 0.08294367 0.4290089 0.13671875 0.6406249 0.25983115-0.122079 0.48664405-0.24101 0.6171875-0.345703 0.6563526-0.5264504 1.7033161-1.3551411 1.8203125-1.3551411s0.2187835-0.032241 0.3027752 0.2587823c0.083992 0.2910236-0.066447 0.5924526-0.066447 0.5924526s-0.1553209 0.4333112-0.1464844 0.6718752c0.120214 0.860031 0.2698117 1.721847 0.9737501 1.839843 0.5070776 0.069544 1.2558593 0.023438 1.2558593 0.023438l0.017578-0.128906c-0.016403-0.193134-0.4140624-0.275391-0.4140624-0.275391-0.00312 0.0023-0.5033979 0.09625-0.7226562-0.0039-0.3698608-0.169323-0.2022657-0.833496-0.2022657-0.917969 0-0.08428 0.1230469-0.351562 0.1230468-0.351562 0 0 0.4076549 0.05469 0.5429688 0.05469 0.1353146 0 0.4863281 0.01563 0.4863281 0.01563l0.2617188 0.490234c0.0823634 0.159105 0.1836826 0.080513 0.3203125 0.117174l0.5839844 0.0078 0.4042968-0.0078v-0.205078c0 0.205606-2.699e-4 -0.195503-0.2617187-0.201172-0.2265487-0.01134-0.5216969-0.03946-0.546875-0.121094-0.041269-0.134173 0.017578-0.396484 0.017578-0.396484s0.2915034-0.1419881 0.90625-0.01953c0.6147481 0.1217 1.8835783 0.743773 1.8835783 0.743773-0.175767 0.324661-0.3356738 0.565914-0.3671875 0.898437-0.031899 0.301228-0.032009 0.302734 0.1660156 0.302734h1.0019531s-2.428e-4 -0.400966-0.2714844-0.380859c-0.1902198-0.0076-0.4101562-0.01809-0.4101562-0.0332 0-0.07597 0.3632812-0.566406 0.3632812-0.566406 0.118375-0.021121 0.3214953 0.014553 0.5636874 0.017604 0.4760023 6e-3 0.7789456 0.06055 0.7789456 0.06055 0.180072 0.108473 0.215332 0.469364 0.304688 0.622851 0.071 0.278929 0.07119 0.277533 0.226562 0.283203 0.340456 0.0076 0.884354-0.0066 1.217148-0.0293 0 0-0.17302-0.376953-0.726914-0.376953 0 0-0.201816-0.126296-0.238281-0.316407-0.03647-0.19011-0.01367-1.261182-0.01367-1.261182l1.006209-0.021487s0 0.900355 0.363283 0.97458c0 0 0.335002 0.04421 0.542969-0.03516 0.207969-0.07899 0.58309-0.131649 0.800781-0.367151 0.217693-0.235465 0.362711-1.0942002 0.289063-1.4082034-0.07365-0.3140818-0.478518-0.6894562-0.478518-0.6894562-0.860536-0.816189-1.517578-2.4746094-2.517578-2.4746094s-0.808952 0.437537-1 0.3c-1.1906435-0.8209134-2.3809278-1.2398422-3.8085938-1.2980469zm6.3085938 2.9980469c0.27614 0 0.5 0.2237921 0.5 0.5 0 0.2762835-0.223858 0.5-0.5 0.5-0.276144 0-0.5-0.2241323-0.5-0.5 0-0.2759055 0.223858-0.5 0.5-0.5z" style="fill-rule:evenodd;fill:#ffffff"/>
 </g>
</svg>
