<svg width="16" height="16" version="1.1" viewBox="0 0 16 16" xmlns="http://www.w3.org/2000/svg">
 <g transform="translate(0,-1036.3622)">
  <path d="m7.9999998 1036.3622c-2.7614236 0-4.9999998 2.2385-4.9999998 5v5h4.9999998 5.0000002v-5c0-2.7615-2.238577-5-5.0000002-5zm0 2c1.8409496 0 2.8167932 1.1679 3.0000002 3v3.3333h-3.0000002-2.9999998v-3.3333c0-1.8412 1.1590503-3 2.9999998-3z" style="fill:#cccccc"/>
  <path d="m2.8571541 1042.3627s-0.8571411-0.048-0.8571411 0.8451v3.6362c0.7645513 3.1674 2.6094497 3.9352 4.0454714 4.8424 0.5140857 0.3249 1.2297645 0.6785 1.9545157 0.6758 0.7247512 0 1.4404301-0.3509 1.9545158-0.6758 1.4360221-0.9072 3.2809201-1.675 4.0454711-4.8424v-3.6362c0-0.8928-0.857141-0.8451-0.857141-0.8451h-5.1428459z" style="fill-rule:evenodd;fill:#385455"/>
  <path transform="translate(0,1036.3622)" d="m4 10l-1.8398438 0.998047c0.4409954 1.434819 1.117716 2.329518 1.8652344 2.966797l1.9746094-1.964844-0.5-1-1 0.5-0.5-1.5z" style="fill-rule:evenodd;fill:#a2db44"/>
  <path transform="translate(0,1036.3622)" d="m7 12.5l-1.5820312 2.439453c0.2111094 0.127349 0.4276173 0.258836 0.6269531 0.384766 0.2648254 0.167368 0.5841872 0.340732 0.9296875 0.470703l0.5253906-2.794922-0.5-0.5z" style="fill-rule:evenodd;fill:#a2db44"/>
  <path d="m3 1043.3622v2h2v-1z" style="fill-rule:evenodd;fill:#a2db44"/>
  <path transform="translate(0,1036.3622)" d="M 8 7 A 1 1 0 0 0 7 8 A 1 1 0 0 0 7.6835938 8.9472656 L 7 11 L 8 11.5 L 9 11 L 8.3164062 8.9472656 A 1 1 0 0 0 9 8 A 1 1 0 0 0 8 7 z" style="opacity:.3"/>
  <path d="m12 1046.3622 1.839844 0.998c-0.440996 1.4349-1.117716 2.3296-1.865235 2.9668l-1.974609-1.9648 0.5-1 1 0.5 0.5-1.5z" style="fill-rule:evenodd;fill:#a2db44"/>
  <path d="m9 1048.8622 1.582031 2.4395c-0.211109 0.1273-0.427617 0.2588-0.6269529 0.3847-0.2648254 0.1674-0.5841872 0.3408-0.9296875 0.4707l-0.5253906-2.7949 0.5-0.5z" style="fill-rule:evenodd;fill:#a2db44"/>
  <path d="m13 1043.3622v2h-2v-1z" style="fill-rule:evenodd;fill:#a2db44"/>
 </g>
</svg>
