<svg width="16" height="16" version="1" xmlns="http://www.w3.org/2000/svg">
 <rect transform="matrix(0,-1,-1,0,0,0)" x="-15" y="-16" width="14" height="16" rx=".7" ry=".8" style="fill:#4f4f4f"/>
 <path d="m1 13h2v1h-2z" style="fill:#933333"/>
 <path d="m1 11h2v1h-2z" style="fill:#933333"/>
 <path d="m1 9h2v1h-2z" style="fill:#933333"/>
 <path d="m1 7h2v1h-2z" style="fill:#f88383"/>
 <path d="m1 5h2v1h-2z" style="fill:#f88383"/>
 <path d="m4 13h2v1h-2z" style="fill:#e8aa34"/>
 <path d="m4 11h2v1h-2z" style="fill:#e8aa34"/>
 <path d="m4 9h2v1h-2z" style="fill:#e8aa34"/>
 <path d="m7 13h2v1h-2z" style="fill:#76185e"/>
 <path d="m7 11h2v1h-2z" style="fill:#76185e"/>
 <path d="m7 9h2v1h-2z" style="fill:#76185e"/>
 <path d="m7 7h2v1h-2z" style="fill:#e272c5"/>
 <path d="m7 5h2v1h-2z" style="fill:#e272c5"/>
 <path d="m7 3h2v1h-2z" style="fill:#e272c5"/>
 <path d="m10 13h2v1h-2z" style="fill:#4ab225"/>
 <path d="m10 11h2v1h-2z" style="fill:#4ab225"/>
 <path d="m10 9h2v1h-2z" style="fill:#4ab225"/>
 <path d="m10 7h2v1h-2z" style="fill:#98e97b"/>
 <path d="m10 5h2v1h-2z" style="fill:#98e97b"/>
 <path d="m13 13h2v1h-2z" style="fill:#0f3b95"/>
 <path d="m13 11h2v1h-2z" style="fill:#0f3b95"/>
 <path d="m13 9h2v1h-2z" style="fill:#0f3b95"/>
 <path d="m13 7h2v1h-2z" style="fill:#4fc2e1"/>
 <path d="m13 5h2v1h-2z" style="fill:#4fc2e1"/>
 <path d="m13 3.0666665h2v0.9333335h-2z" style="fill:#4fc2e1"/>
</svg>
