<svg width="16" height="16" version="1.1" viewBox="0 0 4.23 4.23" xmlns="http://www.w3.org/2000/svg">
 <g transform="translate(0,-292.76665)">
  <path d="m0.26458341 292.76665c-0.14657916 0-0.26458333 0.118-0.26458333 0.26458v3.70417c0 0.14658 0.11800417 0.26458 0.26458333 0.26458h2.38125l1.5875-1.5875v-2.38125c0-0.14658-0.1180042-0.26458-0.2645834-0.26458z" style="fill:#ffa234"/>
  <path d="m4.2333334 295.41249-1.5875 1.5875v-1.32292s0-0.26458 0.2645833-0.26458z" style="fill:#ffcd82"/>
  <path transform="matrix(.26458333 0 0 .26458333 0 292.76665)" d="M 5 3 A 2.9999999 2.9999999 0 0 0 2.1738281 5 L 5 5 L 5 7 L 2.1757812 7 A 2.9999999 2.9999999 0 0 0 5 9 A 2.9999999 2.9999999 0 0 0 7.8242188 7 L 13 7 L 13 5 L 7.8261719 5 A 2.9999999 2.9999999 0 0 0 5 3 z" style="fill:#4b4b4b"/>
 </g>
</svg>
