<svg width="16" height="16" version="1" xmlns="http://www.w3.org/2000/svg">
 <rect transform="matrix(0,-1,-1,0,0,0)" x="-14" y="-16" width="13" height="16" rx=".813" ry=".8" style="fill:#c52f2f"/>
 <path d="m0 8v5.1875c0 0.450125 0.3568 0.8125 0.8 0.8125h14.4c0.4432 0 0.8-0.362375 0.8-0.8125v-2.138367c-4.9085-1.7627034-12.014881-3.0196413-16-3.049133z" style="opacity:.2"/>
 <path d="m12.986705 5.5c0 1.3807117-1.119289 2.5-2.5 2.5-0.35635 0-0.6952871-0.0745575-1.0020616-0.2089237-0.8818513-0.3862484-0.4090325-1.074555-0.4090325-2.0989163 0-0.4797479-0.953773-1.1200933-0.7194938-1.5007296 0.4399746-0.7148337 1.2296238-1.1914304 2.1305879-1.1914304 1.380711 0 2.5 1.1192883 2.5 2.5z" style="fill:#ff783e"/>
 <circle cx="14" cy="4" r="1" style="fill:#ffba46"/>
 <path d="M 2.4090909,3 C 2.1824545,3 2,3.1824545 2,3.4090909 L 2,11.590909 C 2,11.817545 2.1824545,12 2.4090909,12 l 0.7015271,0 0.1166547,0 3.389382,0 c 0.00906,0 0.016724,-0.006 0.025568,-0.0072 C 9.0690005,11.916065 10.997328,9.9279892 11,7.5 10.998478,5.0677698 9.0645952,3.0769141 6.633434,3.0047941 6.6275717,3.0043077 6.6226074,3 6.6166547,3 L 3.2272727,3 3.110618,3 Z M 4,5 6.5,5 C 8.0815427,5 9,5.9184573 9,7.5 8.9999998,9.0815426 8.0650731,9.7723532 6.5,10 L 4,10 Z" style="fill:#ffffff"/>
</svg>
