<svg width="16" height="16" version="1" xmlns="http://www.w3.org/2000/svg">
 <path d="m4.3428356 1.0000003c-0.2526822-1.129e-5 -0.4941047 0.1067193-0.666968 0.2948603l-3.4285912 4.0334666c-0.31952976 0.3479682-0.33069563 0.8858716-0.02589257 1.2473455l7.0857548 8.1000143c0.3647945 0.432418 1.0209274 0.432418 1.3857219 0l7.0857545-8.1000143c0.304804-0.3614733 0.293639-0.8993766-0.02589-1.2473455l-3.428592-4.0334666c-0.172864-0.1881417-0.414288-0.29487244-0.666971-0.2948603h-3.6571628z" style="fill:#87d53c"/>
 <path d="m8 1.0000001 3.809523 4.7894736-7.6190468-1e-7z" style="fill:#87d53c"/>
 <path d="M 7.9999998,15 12,6 4.0000001,6 Z" style="opacity:.2"/>
 <path d="m4.34375 1c-0.2526822-1.129e-5 -0.4951055 0.1067809-0.6679688 0.2949219l-3.4277343 4.0332031c-0.17250408 0.1878571-0.24867724 0.4309488-0.24023438 0.671875h15.984376c0.008443-0.2409262-0.067731-0.4840175-0.240235-0.671875l-3.427734-4.0332031c-0.172864-0.1881417-0.415286-0.29493404-0.667969-0.2949219h-7.3125z" style="opacity:.2"/>
 <path d="m8 1 4 5h-7.9999997z" style="fill:#87d53c"/>
</svg>
