<svg width="16" height="16" version="1.0" xmlns="http://www.w3.org/2000/svg">
 <text x="877.22626" y="-21.187399" font-family="'Bitstream Vera Sans'" font-size="12.666px" opacity=".8" xml:space="preserve"><tspan x="877.22626" y="-21.187399"/></text>
 <text x="901.18719" y="-61.929108" font-family="'Bitstream Vera Sans'" font-size="12.666px" opacity=".8" xml:space="preserve"><tspan x="901.18719" y="-61.929108"/></text>
 <text x="-569.37115" y="-92.007248" font-family="'Bitstream Vera Sans'" font-size="12.666px" opacity=".8" xml:space="preserve"><tspan x="-569.37115" y="-92.007248"/></text>
 <text x="-2393.0571" y="653.5462" font-family="'Bitstream Vera Sans'" font-size="12.666px" opacity=".8" xml:space="preserve"><tspan x="-2393.0571" y="653.5462"/></text>
 <text x="-454.88007" y="-477.32822" font-family="'Bitstream Vera Sans'" font-size="12.666px" opacity=".8" xml:space="preserve"><tspan x="-454.88007" y="-477.32822"/></text>
 <text x="352.72208" y="-890.79834" font-family="'Bitstream Vera Sans'" font-size="12.666px" opacity=".8" xml:space="preserve"><tspan x="352.72208" y="-890.79834"/></text>
 <text x="376.68301" y="-931.54004" font-family="'Bitstream Vera Sans'" font-size="12.666px" opacity=".8" xml:space="preserve"><tspan x="376.68301" y="-931.54004"/></text>
 <text x="-1114.7802" y="-938.74994" font-family="'Bitstream Vera Sans'" font-size="12.666px" opacity=".8" xml:space="preserve"><tspan x="-1114.7802" y="-938.74994"/></text>
 <text x="345.7626" y="-1211.9841" font-family="'Bitstream Vera Sans'" font-size="12.666px" opacity=".8" xml:space="preserve"><tspan x="345.7626" y="-1211.9841"/></text>
 <text x="1831.8861" y="-585.29272" font-family="'Bitstream Vera Sans'" font-size="12.666px" opacity=".8" xml:space="preserve"><tspan x="1831.8861" y="-585.29272"/></text>
 <text x="1855.8469" y="-626.03448" font-family="'Bitstream Vera Sans'" font-size="12.666px" opacity=".8" xml:space="preserve"><tspan x="1855.8469" y="-626.03448"/></text>
 <text x="364.38376" y="-633.24438" font-family="'Bitstream Vera Sans'" font-size="12.666px" opacity=".8" xml:space="preserve"><tspan x="364.38376" y="-633.24438"/></text>
 <text x="1824.9266" y="-906.47839" font-family="'Bitstream Vera Sans'" font-size="12.666px" opacity=".8" xml:space="preserve"><tspan x="1824.9266" y="-906.47839"/></text>
 <text x="-573.43256" y="-681.33569" font-family="'Bitstream Vera Sans'" font-size="12.666px" opacity=".8" xml:space="preserve"><tspan x="-573.43256" y="-681.33569"/></text>
 <text x="-2397.1182" y="64.217857" font-family="'Bitstream Vera Sans'" font-size="12.666px" opacity=".8" xml:space="preserve"><tspan x="-2397.1182" y="64.217857"/></text>
 <text x="-682.36279" y="157.09" font-family="'Bitstream Vera Sans'" font-size="12.666px" opacity=".8" xml:space="preserve"><tspan x="-682.36279" y="157.09"/></text>
 <text x="426.66153" y="-22.092148" font-family="'Bitstream Vera Sans'" font-size="12.666px" opacity=".8" xml:space="preserve"><tspan x="426.66153" y="-22.092148"/></text>
 <text x="450.62247" y="-62.833855" font-family="'Bitstream Vera Sans'" font-size="12.666px" opacity=".8" xml:space="preserve"><tspan x="450.62247" y="-62.833855"/></text>
 <text x="-1040.8407" y="-70.043823" font-family="'Bitstream Vera Sans'" font-size="12.666px" opacity=".8" xml:space="preserve"><tspan x="-1040.8407" y="-70.043823"/></text>
 <text x="419.70206" y="-343.27789" font-family="'Bitstream Vera Sans'" font-size="12.666px" opacity=".8" xml:space="preserve"><tspan x="419.70206" y="-343.27789"/></text>
 <text x="-608.03253" y="-72.758072" font-family="'Bitstream Vera Sans'" font-size="12.666px" opacity=".8" xml:space="preserve"><tspan x="-608.03253" y="-72.758072"/></text>
 <text x="-2431.7185" y="672.79541" font-family="'Bitstream Vera Sans'" font-size="12.666px" opacity=".8" xml:space="preserve"><tspan x="-2431.7185" y="672.79541"/></text>
 <text x="-456.93948" y="-934.28857" font-family="'Bitstream Vera Sans'" font-size="12.666px" opacity=".8" xml:space="preserve"><tspan x="-456.93948" y="-934.28857"/></text>
 <text x="350.66266" y="-1347.7588" font-family="'Bitstream Vera Sans'" font-size="12.666px" opacity=".8" xml:space="preserve"><tspan x="350.66266" y="-1347.7588"/></text>
 <text x="374.62357" y="-1388.5005" font-family="'Bitstream Vera Sans'" font-size="12.666px" opacity=".8" xml:space="preserve"><tspan x="374.62357" y="-1388.5005"/></text>
 <text x="-1116.8396" y="-1395.7104" font-family="'Bitstream Vera Sans'" font-size="12.666px" opacity=".8" xml:space="preserve"><tspan x="-1116.8396" y="-1395.7104"/></text>
 <text x="343.70316" y="-1668.9446" font-family="'Bitstream Vera Sans'" font-size="12.666px" opacity=".8" xml:space="preserve"><tspan x="343.70316" y="-1668.9446"/></text>
 <text x="1829.8265" y="-1042.2533" font-family="'Bitstream Vera Sans'" font-size="12.666px" opacity=".8" xml:space="preserve"><tspan x="1829.8265" y="-1042.2533"/></text>
 <text x="1853.7874" y="-1082.9949" font-family="'Bitstream Vera Sans'" font-size="12.666px" opacity=".8" xml:space="preserve"><tspan x="1853.7874" y="-1082.9949"/></text>
 <text x="362.32431" y="-1090.2048" font-family="'Bitstream Vera Sans'" font-size="12.666px" opacity=".8" xml:space="preserve"><tspan x="362.32431" y="-1090.2048"/></text>
 <text x="1822.8671" y="-1363.439" font-family="'Bitstream Vera Sans'" font-size="12.666px" opacity=".8" xml:space="preserve"><tspan x="1822.8671" y="-1363.439"/></text>
 <text x="-575.492" y="-1138.2961" font-family="'Bitstream Vera Sans'" font-size="12.666px" opacity=".8" xml:space="preserve"><tspan x="-575.492" y="-1138.2961"/></text>
 <text x="-2399.1777" y="-392.74261" font-family="'Bitstream Vera Sans'" font-size="12.666px" opacity=".8" xml:space="preserve"><tspan x="-2399.1777" y="-392.74261"/></text>
 <text x="-684.42224" y="-299.87045" font-family="'Bitstream Vera Sans'" font-size="12.666px" opacity=".8" xml:space="preserve"><tspan x="-684.42224" y="-299.87045"/></text>
 <text x="155.5923" y="-58.956276" font-family="'Bitstream Vera Sans'" font-size="12.666px" opacity=".8" xml:space="preserve"><tspan x="155.5923" y="-58.956276"/></text>
 <text x="179.55324" y="-99.697998" font-family="'Bitstream Vera Sans'" font-size="12.666px" opacity=".8" xml:space="preserve"><tspan x="179.55324" y="-99.697998"/></text>
 <text x="-1090.2634" y="-293.72662" font-family="'Bitstream Vera Sans'" font-size="12.666px" opacity=".8" xml:space="preserve"><tspan x="-1090.2634" y="-293.72662"/></text>
 <text x="-282.66141" y="-707.19678" font-family="'Bitstream Vera Sans'" font-size="12.666px" opacity=".8" xml:space="preserve"><tspan x="-282.66141" y="-707.19678"/></text>
 <text x="-258.70047" y="-747.93848" font-family="'Bitstream Vera Sans'" font-size="12.666px" opacity=".8" xml:space="preserve"><tspan x="-258.70047" y="-747.93848"/></text>
 <text x="-1750.1636" y="-755.14838" font-family="'Bitstream Vera Sans'" font-size="12.666px" opacity=".8" xml:space="preserve"><tspan x="-1750.1636" y="-755.14838"/></text>
 <text x="-289.62085" y="-1028.3826" font-family="'Bitstream Vera Sans'" font-size="12.666px" opacity=".8" xml:space="preserve"><tspan x="-289.62085" y="-1028.3826"/></text>
 <text x="1196.5026" y="-401.69113" font-family="'Bitstream Vera Sans'" font-size="12.666px" opacity=".8" xml:space="preserve"><tspan x="1196.5026" y="-401.69113"/></text>
 <text x="1220.4634" y="-442.43286" font-family="'Bitstream Vera Sans'" font-size="12.666px" opacity=".8" xml:space="preserve"><tspan x="1220.4634" y="-442.43286"/></text>
 <text x="-270.99973" y="-449.64282" font-family="'Bitstream Vera Sans'" font-size="12.666px" opacity=".8" xml:space="preserve"><tspan x="-270.99973" y="-449.64282"/></text>
 <text x="1189.5431" y="-722.87689" font-family="'Bitstream Vera Sans'" font-size="12.666px" opacity=".8" xml:space="preserve"><tspan x="1189.5431" y="-722.87689"/></text>
 <text x="-1208.816" y="-497.7341" font-family="'Bitstream Vera Sans'" font-size="12.666px" opacity=".8" xml:space="preserve"><tspan x="-1208.816" y="-497.7341"/></text>
 <text x="-3032.5017" y="247.81946" font-family="'Bitstream Vera Sans'" font-size="12.666px" opacity=".8" xml:space="preserve"><tspan x="-3032.5017" y="247.81946"/></text>
 <g transform="matrix(.90475 0 0 .90475 -716.75 -708.29)">
  <text x="-664.2738" y="1159.4154" font-family="'Bitstream Vera Sans'" font-size="14px" opacity=".8" xml:space="preserve"><tspan x="-664.2738" y="1159.4154"/></text>
 </g>
 <text x="877.22626" y="-13.949411" font-family="'Bitstream Vera Sans'" font-size="12.666px" opacity=".8" xml:space="preserve"><tspan x="877.22626" y="-13.949411"/></text>
 <text x="901.18719" y="-54.691116" font-family="'Bitstream Vera Sans'" font-size="12.666px" opacity=".8" xml:space="preserve"><tspan x="901.18719" y="-54.691116"/></text>
 <text x="-569.37115" y="-84.769257" font-family="'Bitstream Vera Sans'" font-size="12.666px" opacity=".8" xml:space="preserve"><tspan x="-569.37115" y="-84.769257"/></text>
 <text x="-2393.0571" y="660.78418" font-family="'Bitstream Vera Sans'" font-size="12.666px" opacity=".8" xml:space="preserve"><tspan x="-2393.0571" y="660.78418"/></text>
 <text x="-454.88007" y="-470.09021" font-family="'Bitstream Vera Sans'" font-size="12.666px" opacity=".8" xml:space="preserve"><tspan x="-454.88007" y="-470.09021"/></text>
 <text x="352.72208" y="-883.5603" font-family="'Bitstream Vera Sans'" font-size="12.666px" opacity=".8" xml:space="preserve"><tspan x="352.72208" y="-883.5603"/></text>
 <text x="376.68301" y="-924.30206" font-family="'Bitstream Vera Sans'" font-size="12.666px" opacity=".8" xml:space="preserve"><tspan x="376.68301" y="-924.30206"/></text>
 <text x="-1114.7802" y="-931.51196" font-family="'Bitstream Vera Sans'" font-size="12.666px" opacity=".8" xml:space="preserve"><tspan x="-1114.7802" y="-931.51196"/></text>
 <text x="345.7626" y="-1204.7461" font-family="'Bitstream Vera Sans'" font-size="12.666px" opacity=".8" xml:space="preserve"><tspan x="345.7626" y="-1204.7461"/></text>
 <text x="1831.8861" y="-578.05475" font-family="'Bitstream Vera Sans'" font-size="12.666px" opacity=".8" xml:space="preserve"><tspan x="1831.8861" y="-578.05475"/></text>
 <text x="1855.8469" y="-618.79651" font-family="'Bitstream Vera Sans'" font-size="12.666px" opacity=".8" xml:space="preserve"><tspan x="1855.8469" y="-618.79651"/></text>
 <text x="364.38376" y="-626.00641" font-family="'Bitstream Vera Sans'" font-size="12.666px" opacity=".8" xml:space="preserve"><tspan x="364.38376" y="-626.00641"/></text>
 <text x="1824.9266" y="-899.24036" font-family="'Bitstream Vera Sans'" font-size="12.666px" opacity=".8" xml:space="preserve"><tspan x="1824.9266" y="-899.24036"/></text>
 <text x="-573.43256" y="-674.09772" font-family="'Bitstream Vera Sans'" font-size="12.666px" opacity=".8" xml:space="preserve"><tspan x="-573.43256" y="-674.09772"/></text>
 <text x="-2397.1182" y="71.455849" font-family="'Bitstream Vera Sans'" font-size="12.666px" opacity=".8" xml:space="preserve"><tspan x="-2397.1182" y="71.455849"/></text>
 <text x="-682.36279" y="164.32799" font-family="'Bitstream Vera Sans'" font-size="12.666px" opacity=".8" xml:space="preserve"><tspan x="-682.36279" y="164.32799"/></text>
 <text x="426.66153" y="-14.85416" font-family="'Bitstream Vera Sans'" font-size="12.666px" opacity=".8" xml:space="preserve"><tspan x="426.66153" y="-14.85416"/></text>
 <text x="450.62247" y="-55.595863" font-family="'Bitstream Vera Sans'" font-size="12.666px" opacity=".8" xml:space="preserve"><tspan x="450.62247" y="-55.595863"/></text>
 <text x="-1040.8407" y="-62.805836" font-family="'Bitstream Vera Sans'" font-size="12.666px" opacity=".8" xml:space="preserve"><tspan x="-1040.8407" y="-62.805836"/></text>
 <text x="419.70206" y="-336.03989" font-family="'Bitstream Vera Sans'" font-size="12.666px" opacity=".8" xml:space="preserve"><tspan x="419.70206" y="-336.03989"/></text>
 <text x="-608.03253" y="-65.520081" font-family="'Bitstream Vera Sans'" font-size="12.666px" opacity=".8" xml:space="preserve"><tspan x="-608.03253" y="-65.520081"/></text>
 <text x="-2431.7185" y="680.03345" font-family="'Bitstream Vera Sans'" font-size="12.666px" opacity=".8" xml:space="preserve"><tspan x="-2431.7185" y="680.03345"/></text>
 <text x="-456.93948" y="-927.0506" font-family="'Bitstream Vera Sans'" font-size="12.666px" opacity=".8" xml:space="preserve"><tspan x="-456.93948" y="-927.0506"/></text>
 <text x="350.66266" y="-1340.5208" font-family="'Bitstream Vera Sans'" font-size="12.666px" opacity=".8" xml:space="preserve"><tspan x="350.66266" y="-1340.5208"/></text>
 <text x="374.62357" y="-1381.2626" font-family="'Bitstream Vera Sans'" font-size="12.666px" opacity=".8" xml:space="preserve"><tspan x="374.62357" y="-1381.2626"/></text>
 <text x="-1116.8396" y="-1388.4724" font-family="'Bitstream Vera Sans'" font-size="12.666px" opacity=".8" xml:space="preserve"><tspan x="-1116.8396" y="-1388.4724"/></text>
 <text x="343.70316" y="-1661.7065" font-family="'Bitstream Vera Sans'" font-size="12.666px" opacity=".8" xml:space="preserve"><tspan x="343.70316" y="-1661.7065"/></text>
 <text x="1829.8265" y="-1035.0154" font-family="'Bitstream Vera Sans'" font-size="12.666px" opacity=".8" xml:space="preserve"><tspan x="1829.8265" y="-1035.0154"/></text>
 <text x="1853.7874" y="-1075.757" font-family="'Bitstream Vera Sans'" font-size="12.666px" opacity=".8" xml:space="preserve"><tspan x="1853.7874" y="-1075.757"/></text>
 <text x="362.32431" y="-1082.9668" font-family="'Bitstream Vera Sans'" font-size="12.666px" opacity=".8" xml:space="preserve"><tspan x="362.32431" y="-1082.9668"/></text>
 <text x="1822.8671" y="-1356.2009" font-family="'Bitstream Vera Sans'" font-size="12.666px" opacity=".8" xml:space="preserve"><tspan x="1822.8671" y="-1356.2009"/></text>
 <text x="-575.492" y="-1131.0581" font-family="'Bitstream Vera Sans'" font-size="12.666px" opacity=".8" xml:space="preserve"><tspan x="-575.492" y="-1131.0581"/></text>
 <text x="-2399.1777" y="-385.50461" font-family="'Bitstream Vera Sans'" font-size="12.666px" opacity=".8" xml:space="preserve"><tspan x="-2399.1777" y="-385.50461"/></text>
 <text x="-684.42224" y="-292.63245" font-family="'Bitstream Vera Sans'" font-size="12.666px" opacity=".8" xml:space="preserve"><tspan x="-684.42224" y="-292.63245"/></text>
 <text x="155.5923" y="-51.718292" font-family="'Bitstream Vera Sans'" font-size="12.666px" opacity=".8" xml:space="preserve"><tspan x="155.5923" y="-51.718292"/></text>
 <text x="179.55324" y="-92.460007" font-family="'Bitstream Vera Sans'" font-size="12.666px" opacity=".8" xml:space="preserve"><tspan x="179.55324" y="-92.460007"/></text>
 <text x="-1090.2634" y="-286.48859" font-family="'Bitstream Vera Sans'" font-size="12.666px" opacity=".8" xml:space="preserve"><tspan x="-1090.2634" y="-286.48859"/></text>
 <text x="-282.66141" y="-699.9588" font-family="'Bitstream Vera Sans'" font-size="12.666px" opacity=".8" xml:space="preserve"><tspan x="-282.66141" y="-699.9588"/></text>
 <text x="-258.70047" y="-740.7005" font-family="'Bitstream Vera Sans'" font-size="12.666px" opacity=".8" xml:space="preserve"><tspan x="-258.70047" y="-740.7005"/></text>
 <text x="-1750.1636" y="-747.91046" font-family="'Bitstream Vera Sans'" font-size="12.666px" opacity=".8" xml:space="preserve"><tspan x="-1750.1636" y="-747.91046"/></text>
 <text x="-289.62085" y="-1021.1445" font-family="'Bitstream Vera Sans'" font-size="12.666px" opacity=".8" xml:space="preserve"><tspan x="-289.62085" y="-1021.1445"/></text>
 <text x="1196.5026" y="-394.45316" font-family="'Bitstream Vera Sans'" font-size="12.666px" opacity=".8" xml:space="preserve"><tspan x="1196.5026" y="-394.45316"/></text>
 <text x="1220.4634" y="-435.19489" font-family="'Bitstream Vera Sans'" font-size="12.666px" opacity=".8" xml:space="preserve"><tspan x="1220.4634" y="-435.19489"/></text>
 <text x="-270.99973" y="-442.40482" font-family="'Bitstream Vera Sans'" font-size="12.666px" opacity=".8" xml:space="preserve"><tspan x="-270.99973" y="-442.40482"/></text>
 <text x="1189.5431" y="-715.63892" font-family="'Bitstream Vera Sans'" font-size="12.666px" opacity=".8" xml:space="preserve"><tspan x="1189.5431" y="-715.63892"/></text>
 <text x="-1208.816" y="-490.49609" font-family="'Bitstream Vera Sans'" font-size="12.666px" opacity=".8" xml:space="preserve"><tspan x="-1208.816" y="-490.49609"/></text>
 <text x="-3032.5017" y="255.05743" font-family="'Bitstream Vera Sans'" font-size="12.666px" opacity=".8" xml:space="preserve"><tspan x="-3032.5017" y="255.05743"/></text>
 <g transform="matrix(.90475 0 0 .90475 -716.75 -701.05)">
  <text x="-664.2738" y="1159.4154" font-family="'Bitstream Vera Sans'" font-size="14px" opacity=".8" xml:space="preserve"><tspan x="-664.2738" y="1159.4154"/></text>
 </g>
 <text x="435.90427" y="-393.22546" font-family="'Droid Sans'" font-size="12.666px" xml:space="preserve"><tspan x="435.90427" y="-393.22546"/><tspan x="435.90427" y="-377.3924"/></text>
 <text x="901.0882" y="-875.27002" font-family="'Bitstream Vera Sans'" font-size="12.666px" opacity=".8" xml:space="preserve"><tspan x="901.0882" y="-875.27002"/></text>
 <text x="-922.59778" y="-129.71655" font-family="'Bitstream Vera Sans'" font-size="12.666px" opacity=".8" xml:space="preserve"><tspan x="-922.59778" y="-129.71655"/></text>
 <text x="1628.1677" y="-1160.2659" font-family="'Bitstream Vera Sans'" font-size="12.666px" opacity=".8" xml:space="preserve"><tspan x="1628.1677" y="-1160.2659"/></text>
 <text x="1652.1285" y="-1201.0076" font-family="'Bitstream Vera Sans'" font-size="12.666px" opacity=".8" xml:space="preserve"><tspan x="1652.1285" y="-1201.0076"/></text>
 <text x="160.66542" y="-1208.2175" font-family="'Bitstream Vera Sans'" font-size="12.666px" opacity=".8" xml:space="preserve"><tspan x="160.66542" y="-1208.2175"/></text>
 <text x="1621.2083" y="-1481.4517" font-family="'Bitstream Vera Sans'" font-size="12.666px" opacity=".8" xml:space="preserve"><tspan x="1621.2083" y="-1481.4517"/></text>
 <path d="m6.8869 0.001683c-1.8869-0.001683-2.8869 0.8079-2.8866 1.2953 5e-3 0.58-0.0075 1.1183 0 1.703-3e-4 0-1.1091 0.0284-1.5295 0.0284-0.33587 0-0.59091-0.0072-0.78481 0.0772-0.196 0.0868-0.3356 0.1988-0.4399 0.336-0.2114 0.2696-0.2461 1.1729-0.2461 1.5117 0 0 0.00235 0.2716 0.072387 0.80999 0.0595 0.418 0.529 3.3164 0.9763 4.1939 0.1736 0.3428 0.2887 0.4848 0.6288 0.6368 0.98 0.223 4.5748 0.861 4.7997-0.028 0.3064-0.7854 0.459-1.0523 0.5227-1.566 0 0.3468 0.054763 1.3208 1.0212 1.65 0.38293 0.1292 1.1727 0.2436 1.9777 0.3328 0.729 0.079 1.001 0.353 1.001 2.14 0 1.086 0.016 0.877-1.229 0.877-1.1241 0-1.771 0.071-1.771-0.5s0.1765-0.5 1-0.5v-0.99997c-1.647 0-2.0001 0-2.0001 1.8828 0 1.7172 0.66705 2.1172 3.0005 2.1172 1.8298 0 2.4755-0.06 3.2306-2.2992 0.14906-0.4428 0.51346-1.7932 0.73169-4.0624 0.13712-1.4328-0.13217-5.7588-0.3467-6.8555v-0.0016c-0.124-0.6393-0.518-0.9518-0.88-1.0765-1.614-0.3618-3.028-0.5255-4.736-0.7048 0-0.4-0.1054-0.58912-0.4685-0.73112-0.4843-0.18468-1.1007-0.25588-1.6446-0.2672z" fill="#7ec242"/>
 <path d="m13 8.0001h-2c0-0.55228 0.44772-1 1-1s1 0.44772 1 1z" fill="#fff"/>
</svg>
