<svg width="16" height="16" version="1.0" xmlns="http://www.w3.org/2000/svg">
 <text x="877.22626" y="-21.187399" font-family="'Bitstream Vera Sans'" font-size="12.666px" opacity=".8" xml:space="preserve"><tspan x="877.22626" y="-21.187399"/></text>
 <text x="901.18719" y="-61.929108" font-family="'Bitstream Vera Sans'" font-size="12.666px" opacity=".8" xml:space="preserve"><tspan x="901.18719" y="-61.929108"/></text>
 <text x="-569.37115" y="-92.007248" font-family="'Bitstream Vera Sans'" font-size="12.666px" opacity=".8" xml:space="preserve"><tspan x="-569.37115" y="-92.007248"/></text>
 <text x="-2393.0571" y="653.5462" font-family="'Bitstream Vera Sans'" font-size="12.666px" opacity=".8" xml:space="preserve"><tspan x="-2393.0571" y="653.5462"/></text>
 <text x="-454.88007" y="-477.32822" font-family="'Bitstream Vera Sans'" font-size="12.666px" opacity=".8" xml:space="preserve"><tspan x="-454.88007" y="-477.32822"/></text>
 <text x="352.72208" y="-890.79834" font-family="'Bitstream Vera Sans'" font-size="12.666px" opacity=".8" xml:space="preserve"><tspan x="352.72208" y="-890.79834"/></text>
 <text x="376.68301" y="-931.54004" font-family="'Bitstream Vera Sans'" font-size="12.666px" opacity=".8" xml:space="preserve"><tspan x="376.68301" y="-931.54004"/></text>
 <text x="-1114.7802" y="-938.74994" font-family="'Bitstream Vera Sans'" font-size="12.666px" opacity=".8" xml:space="preserve"><tspan x="-1114.7802" y="-938.74994"/></text>
 <text x="345.7626" y="-1211.9841" font-family="'Bitstream Vera Sans'" font-size="12.666px" opacity=".8" xml:space="preserve"><tspan x="345.7626" y="-1211.9841"/></text>
 <text x="1831.8861" y="-585.29272" font-family="'Bitstream Vera Sans'" font-size="12.666px" opacity=".8" xml:space="preserve"><tspan x="1831.8861" y="-585.29272"/></text>
 <text x="1855.8469" y="-626.03448" font-family="'Bitstream Vera Sans'" font-size="12.666px" opacity=".8" xml:space="preserve"><tspan x="1855.8469" y="-626.03448"/></text>
 <text x="364.38376" y="-633.24438" font-family="'Bitstream Vera Sans'" font-size="12.666px" opacity=".8" xml:space="preserve"><tspan x="364.38376" y="-633.24438"/></text>
 <text x="1824.9266" y="-906.47839" font-family="'Bitstream Vera Sans'" font-size="12.666px" opacity=".8" xml:space="preserve"><tspan x="1824.9266" y="-906.47839"/></text>
 <text x="-573.43256" y="-681.33569" font-family="'Bitstream Vera Sans'" font-size="12.666px" opacity=".8" xml:space="preserve"><tspan x="-573.43256" y="-681.33569"/></text>
 <text x="-2397.1182" y="64.217857" font-family="'Bitstream Vera Sans'" font-size="12.666px" opacity=".8" xml:space="preserve"><tspan x="-2397.1182" y="64.217857"/></text>
 <text x="-682.36279" y="157.09" font-family="'Bitstream Vera Sans'" font-size="12.666px" opacity=".8" xml:space="preserve"><tspan x="-682.36279" y="157.09"/></text>
 <text x="426.66153" y="-22.092148" font-family="'Bitstream Vera Sans'" font-size="12.666px" opacity=".8" xml:space="preserve"><tspan x="426.66153" y="-22.092148"/></text>
 <text x="450.62247" y="-62.833855" font-family="'Bitstream Vera Sans'" font-size="12.666px" opacity=".8" xml:space="preserve"><tspan x="450.62247" y="-62.833855"/></text>
 <text x="-1040.8407" y="-70.043823" font-family="'Bitstream Vera Sans'" font-size="12.666px" opacity=".8" xml:space="preserve"><tspan x="-1040.8407" y="-70.043823"/></text>
 <text x="419.70206" y="-343.27789" font-family="'Bitstream Vera Sans'" font-size="12.666px" opacity=".8" xml:space="preserve"><tspan x="419.70206" y="-343.27789"/></text>
 <text x="-608.03253" y="-72.758072" font-family="'Bitstream Vera Sans'" font-size="12.666px" opacity=".8" xml:space="preserve"><tspan x="-608.03253" y="-72.758072"/></text>
 <text x="-2431.7185" y="672.79541" font-family="'Bitstream Vera Sans'" font-size="12.666px" opacity=".8" xml:space="preserve"><tspan x="-2431.7185" y="672.79541"/></text>
 <text x="-456.93948" y="-934.28857" font-family="'Bitstream Vera Sans'" font-size="12.666px" opacity=".8" xml:space="preserve"><tspan x="-456.93948" y="-934.28857"/></text>
 <text x="350.66266" y="-1347.7588" font-family="'Bitstream Vera Sans'" font-size="12.666px" opacity=".8" xml:space="preserve"><tspan x="350.66266" y="-1347.7588"/></text>
 <text x="374.62357" y="-1388.5005" font-family="'Bitstream Vera Sans'" font-size="12.666px" opacity=".8" xml:space="preserve"><tspan x="374.62357" y="-1388.5005"/></text>
 <text x="-1116.8396" y="-1395.7104" font-family="'Bitstream Vera Sans'" font-size="12.666px" opacity=".8" xml:space="preserve"><tspan x="-1116.8396" y="-1395.7104"/></text>
 <text x="343.70316" y="-1668.9446" font-family="'Bitstream Vera Sans'" font-size="12.666px" opacity=".8" xml:space="preserve"><tspan x="343.70316" y="-1668.9446"/></text>
 <text x="1829.8265" y="-1042.2533" font-family="'Bitstream Vera Sans'" font-size="12.666px" opacity=".8" xml:space="preserve"><tspan x="1829.8265" y="-1042.2533"/></text>
 <text x="1853.7874" y="-1082.9949" font-family="'Bitstream Vera Sans'" font-size="12.666px" opacity=".8" xml:space="preserve"><tspan x="1853.7874" y="-1082.9949"/></text>
 <text x="362.32431" y="-1090.2048" font-family="'Bitstream Vera Sans'" font-size="12.666px" opacity=".8" xml:space="preserve"><tspan x="362.32431" y="-1090.2048"/></text>
 <text x="1822.8671" y="-1363.439" font-family="'Bitstream Vera Sans'" font-size="12.666px" opacity=".8" xml:space="preserve"><tspan x="1822.8671" y="-1363.439"/></text>
 <text x="-575.492" y="-1138.2961" font-family="'Bitstream Vera Sans'" font-size="12.666px" opacity=".8" xml:space="preserve"><tspan x="-575.492" y="-1138.2961"/></text>
 <text x="-2399.1777" y="-392.74261" font-family="'Bitstream Vera Sans'" font-size="12.666px" opacity=".8" xml:space="preserve"><tspan x="-2399.1777" y="-392.74261"/></text>
 <text x="-684.42224" y="-299.87045" font-family="'Bitstream Vera Sans'" font-size="12.666px" opacity=".8" xml:space="preserve"><tspan x="-684.42224" y="-299.87045"/></text>
 <text x="155.5923" y="-58.956276" font-family="'Bitstream Vera Sans'" font-size="12.666px" opacity=".8" xml:space="preserve"><tspan x="155.5923" y="-58.956276"/></text>
 <text x="179.55324" y="-99.697998" font-family="'Bitstream Vera Sans'" font-size="12.666px" opacity=".8" xml:space="preserve"><tspan x="179.55324" y="-99.697998"/></text>
 <text x="-1090.2634" y="-293.72662" font-family="'Bitstream Vera Sans'" font-size="12.666px" opacity=".8" xml:space="preserve"><tspan x="-1090.2634" y="-293.72662"/></text>
 <text x="-282.66141" y="-707.19678" font-family="'Bitstream Vera Sans'" font-size="12.666px" opacity=".8" xml:space="preserve"><tspan x="-282.66141" y="-707.19678"/></text>
 <text x="-258.70047" y="-747.93848" font-family="'Bitstream Vera Sans'" font-size="12.666px" opacity=".8" xml:space="preserve"><tspan x="-258.70047" y="-747.93848"/></text>
 <text x="-1750.1636" y="-755.14838" font-family="'Bitstream Vera Sans'" font-size="12.666px" opacity=".8" xml:space="preserve"><tspan x="-1750.1636" y="-755.14838"/></text>
 <text x="-289.62085" y="-1028.3826" font-family="'Bitstream Vera Sans'" font-size="12.666px" opacity=".8" xml:space="preserve"><tspan x="-289.62085" y="-1028.3826"/></text>
 <text x="1196.5026" y="-401.69113" font-family="'Bitstream Vera Sans'" font-size="12.666px" opacity=".8" xml:space="preserve"><tspan x="1196.5026" y="-401.69113"/></text>
 <text x="1220.4634" y="-442.43286" font-family="'Bitstream Vera Sans'" font-size="12.666px" opacity=".8" xml:space="preserve"><tspan x="1220.4634" y="-442.43286"/></text>
 <text x="-270.99973" y="-449.64282" font-family="'Bitstream Vera Sans'" font-size="12.666px" opacity=".8" xml:space="preserve"><tspan x="-270.99973" y="-449.64282"/></text>
 <text x="1189.5431" y="-722.87689" font-family="'Bitstream Vera Sans'" font-size="12.666px" opacity=".8" xml:space="preserve"><tspan x="1189.5431" y="-722.87689"/></text>
 <text x="-1208.816" y="-497.7341" font-family="'Bitstream Vera Sans'" font-size="12.666px" opacity=".8" xml:space="preserve"><tspan x="-1208.816" y="-497.7341"/></text>
 <text x="-3032.5017" y="247.81946" font-family="'Bitstream Vera Sans'" font-size="12.666px" opacity=".8" xml:space="preserve"><tspan x="-3032.5017" y="247.81946"/></text>
 <g transform="matrix(.90475 0 0 .90475 -716.75 -708.29)">
  <text x="-664.2738" y="1159.4154" font-family="'Bitstream Vera Sans'" font-size="14px" opacity=".8" xml:space="preserve"><tspan x="-664.2738" y="1159.4154"/></text>
 </g>
 <text x="877.22626" y="-13.949411" font-family="'Bitstream Vera Sans'" font-size="12.666px" opacity=".8" xml:space="preserve"><tspan x="877.22626" y="-13.949411"/></text>
 <text x="901.18719" y="-54.691116" font-family="'Bitstream Vera Sans'" font-size="12.666px" opacity=".8" xml:space="preserve"><tspan x="901.18719" y="-54.691116"/></text>
 <text x="-569.37115" y="-84.769257" font-family="'Bitstream Vera Sans'" font-size="12.666px" opacity=".8" xml:space="preserve"><tspan x="-569.37115" y="-84.769257"/></text>
 <text x="-2393.0571" y="660.78418" font-family="'Bitstream Vera Sans'" font-size="12.666px" opacity=".8" xml:space="preserve"><tspan x="-2393.0571" y="660.78418"/></text>
 <text x="-454.88007" y="-470.09021" font-family="'Bitstream Vera Sans'" font-size="12.666px" opacity=".8" xml:space="preserve"><tspan x="-454.88007" y="-470.09021"/></text>
 <text x="352.72208" y="-883.5603" font-family="'Bitstream Vera Sans'" font-size="12.666px" opacity=".8" xml:space="preserve"><tspan x="352.72208" y="-883.5603"/></text>
 <text x="376.68301" y="-924.30206" font-family="'Bitstream Vera Sans'" font-size="12.666px" opacity=".8" xml:space="preserve"><tspan x="376.68301" y="-924.30206"/></text>
 <text x="-1114.7802" y="-931.51196" font-family="'Bitstream Vera Sans'" font-size="12.666px" opacity=".8" xml:space="preserve"><tspan x="-1114.7802" y="-931.51196"/></text>
 <text x="345.7626" y="-1204.7461" font-family="'Bitstream Vera Sans'" font-size="12.666px" opacity=".8" xml:space="preserve"><tspan x="345.7626" y="-1204.7461"/></text>
 <text x="1831.8861" y="-578.05475" font-family="'Bitstream Vera Sans'" font-size="12.666px" opacity=".8" xml:space="preserve"><tspan x="1831.8861" y="-578.05475"/></text>
 <text x="1855.8469" y="-618.79651" font-family="'Bitstream Vera Sans'" font-size="12.666px" opacity=".8" xml:space="preserve"><tspan x="1855.8469" y="-618.79651"/></text>
 <text x="364.38376" y="-626.00641" font-family="'Bitstream Vera Sans'" font-size="12.666px" opacity=".8" xml:space="preserve"><tspan x="364.38376" y="-626.00641"/></text>
 <text x="1824.9266" y="-899.24036" font-family="'Bitstream Vera Sans'" font-size="12.666px" opacity=".8" xml:space="preserve"><tspan x="1824.9266" y="-899.24036"/></text>
 <text x="-573.43256" y="-674.09772" font-family="'Bitstream Vera Sans'" font-size="12.666px" opacity=".8" xml:space="preserve"><tspan x="-573.43256" y="-674.09772"/></text>
 <text x="-2397.1182" y="71.455849" font-family="'Bitstream Vera Sans'" font-size="12.666px" opacity=".8" xml:space="preserve"><tspan x="-2397.1182" y="71.455849"/></text>
 <text x="-682.36279" y="164.32799" font-family="'Bitstream Vera Sans'" font-size="12.666px" opacity=".8" xml:space="preserve"><tspan x="-682.36279" y="164.32799"/></text>
 <text x="426.66153" y="-14.85416" font-family="'Bitstream Vera Sans'" font-size="12.666px" opacity=".8" xml:space="preserve"><tspan x="426.66153" y="-14.85416"/></text>
 <text x="450.62247" y="-55.595863" font-family="'Bitstream Vera Sans'" font-size="12.666px" opacity=".8" xml:space="preserve"><tspan x="450.62247" y="-55.595863"/></text>
 <text x="-1040.8407" y="-62.805836" font-family="'Bitstream Vera Sans'" font-size="12.666px" opacity=".8" xml:space="preserve"><tspan x="-1040.8407" y="-62.805836"/></text>
 <text x="419.70206" y="-336.03989" font-family="'Bitstream Vera Sans'" font-size="12.666px" opacity=".8" xml:space="preserve"><tspan x="419.70206" y="-336.03989"/></text>
 <text x="-608.03253" y="-65.520081" font-family="'Bitstream Vera Sans'" font-size="12.666px" opacity=".8" xml:space="preserve"><tspan x="-608.03253" y="-65.520081"/></text>
 <text x="-2431.7185" y="680.03345" font-family="'Bitstream Vera Sans'" font-size="12.666px" opacity=".8" xml:space="preserve"><tspan x="-2431.7185" y="680.03345"/></text>
 <text x="-456.93948" y="-927.0506" font-family="'Bitstream Vera Sans'" font-size="12.666px" opacity=".8" xml:space="preserve"><tspan x="-456.93948" y="-927.0506"/></text>
 <text x="350.66266" y="-1340.5208" font-family="'Bitstream Vera Sans'" font-size="12.666px" opacity=".8" xml:space="preserve"><tspan x="350.66266" y="-1340.5208"/></text>
 <text x="374.62357" y="-1381.2626" font-family="'Bitstream Vera Sans'" font-size="12.666px" opacity=".8" xml:space="preserve"><tspan x="374.62357" y="-1381.2626"/></text>
 <text x="-1116.8396" y="-1388.4724" font-family="'Bitstream Vera Sans'" font-size="12.666px" opacity=".8" xml:space="preserve"><tspan x="-1116.8396" y="-1388.4724"/></text>
 <text x="343.70316" y="-1661.7065" font-family="'Bitstream Vera Sans'" font-size="12.666px" opacity=".8" xml:space="preserve"><tspan x="343.70316" y="-1661.7065"/></text>
 <text x="1829.8265" y="-1035.0154" font-family="'Bitstream Vera Sans'" font-size="12.666px" opacity=".8" xml:space="preserve"><tspan x="1829.8265" y="-1035.0154"/></text>
 <text x="1853.7874" y="-1075.757" font-family="'Bitstream Vera Sans'" font-size="12.666px" opacity=".8" xml:space="preserve"><tspan x="1853.7874" y="-1075.757"/></text>
 <text x="362.32431" y="-1082.9668" font-family="'Bitstream Vera Sans'" font-size="12.666px" opacity=".8" xml:space="preserve"><tspan x="362.32431" y="-1082.9668"/></text>
 <text x="1822.8671" y="-1356.2009" font-family="'Bitstream Vera Sans'" font-size="12.666px" opacity=".8" xml:space="preserve"><tspan x="1822.8671" y="-1356.2009"/></text>
 <text x="-575.492" y="-1131.0581" font-family="'Bitstream Vera Sans'" font-size="12.666px" opacity=".8" xml:space="preserve"><tspan x="-575.492" y="-1131.0581"/></text>
 <text x="-2399.1777" y="-385.50461" font-family="'Bitstream Vera Sans'" font-size="12.666px" opacity=".8" xml:space="preserve"><tspan x="-2399.1777" y="-385.50461"/></text>
 <text x="-684.42224" y="-292.63245" font-family="'Bitstream Vera Sans'" font-size="12.666px" opacity=".8" xml:space="preserve"><tspan x="-684.42224" y="-292.63245"/></text>
 <text x="155.5923" y="-51.718292" font-family="'Bitstream Vera Sans'" font-size="12.666px" opacity=".8" xml:space="preserve"><tspan x="155.5923" y="-51.718292"/></text>
 <text x="179.55324" y="-92.460007" font-family="'Bitstream Vera Sans'" font-size="12.666px" opacity=".8" xml:space="preserve"><tspan x="179.55324" y="-92.460007"/></text>
 <text x="-1090.2634" y="-286.48859" font-family="'Bitstream Vera Sans'" font-size="12.666px" opacity=".8" xml:space="preserve"><tspan x="-1090.2634" y="-286.48859"/></text>
 <text x="-282.66141" y="-699.9588" font-family="'Bitstream Vera Sans'" font-size="12.666px" opacity=".8" xml:space="preserve"><tspan x="-282.66141" y="-699.9588"/></text>
 <text x="-258.70047" y="-740.7005" font-family="'Bitstream Vera Sans'" font-size="12.666px" opacity=".8" xml:space="preserve"><tspan x="-258.70047" y="-740.7005"/></text>
 <text x="-1750.1636" y="-747.91046" font-family="'Bitstream Vera Sans'" font-size="12.666px" opacity=".8" xml:space="preserve"><tspan x="-1750.1636" y="-747.91046"/></text>
 <text x="-289.62085" y="-1021.1445" font-family="'Bitstream Vera Sans'" font-size="12.666px" opacity=".8" xml:space="preserve"><tspan x="-289.62085" y="-1021.1445"/></text>
 <text x="1196.5026" y="-394.45316" font-family="'Bitstream Vera Sans'" font-size="12.666px" opacity=".8" xml:space="preserve"><tspan x="1196.5026" y="-394.45316"/></text>
 <text x="1220.4634" y="-435.19489" font-family="'Bitstream Vera Sans'" font-size="12.666px" opacity=".8" xml:space="preserve"><tspan x="1220.4634" y="-435.19489"/></text>
 <text x="-270.99973" y="-442.40482" font-family="'Bitstream Vera Sans'" font-size="12.666px" opacity=".8" xml:space="preserve"><tspan x="-270.99973" y="-442.40482"/></text>
 <text x="1189.5431" y="-715.63892" font-family="'Bitstream Vera Sans'" font-size="12.666px" opacity=".8" xml:space="preserve"><tspan x="1189.5431" y="-715.63892"/></text>
 <text x="-1208.816" y="-490.49609" font-family="'Bitstream Vera Sans'" font-size="12.666px" opacity=".8" xml:space="preserve"><tspan x="-1208.816" y="-490.49609"/></text>
 <text x="-3032.5017" y="255.05743" font-family="'Bitstream Vera Sans'" font-size="12.666px" opacity=".8" xml:space="preserve"><tspan x="-3032.5017" y="255.05743"/></text>
 <g transform="matrix(.90475 0 0 .90475 -716.75 -701.05)">
  <text x="-664.2738" y="1159.4154" font-family="'Bitstream Vera Sans'" font-size="14px" opacity=".8" xml:space="preserve"><tspan x="-664.2738" y="1159.4154"/></text>
 </g>
 <text x="435.90427" y="-393.22546" font-family="'Droid Sans'" font-size="12.666px" xml:space="preserve"><tspan x="435.90427" y="-393.22546"/><tspan x="435.90427" y="-377.3924"/></text>
 <text x="901.0882" y="-875.27002" font-family="'Bitstream Vera Sans'" font-size="12.666px" opacity=".8" xml:space="preserve"><tspan x="901.0882" y="-875.27002"/></text>
 <text x="-922.59778" y="-129.71655" font-family="'Bitstream Vera Sans'" font-size="12.666px" opacity=".8" xml:space="preserve"><tspan x="-922.59778" y="-129.71655"/></text>
 <text x="1628.1677" y="-1160.2659" font-family="'Bitstream Vera Sans'" font-size="12.666px" opacity=".8" xml:space="preserve"><tspan x="1628.1677" y="-1160.2659"/></text>
 <text x="1652.1285" y="-1201.0076" font-family="'Bitstream Vera Sans'" font-size="12.666px" opacity=".8" xml:space="preserve"><tspan x="1652.1285" y="-1201.0076"/></text>
 <text x="160.66542" y="-1208.2175" font-family="'Bitstream Vera Sans'" font-size="12.666px" opacity=".8" xml:space="preserve"><tspan x="160.66542" y="-1208.2175"/></text>
 <text x="1621.2083" y="-1481.4517" font-family="'Bitstream Vera Sans'" font-size="12.666px" opacity=".8" xml:space="preserve"><tspan x="1621.2083" y="-1481.4517"/></text>
 <text x="877.22626" y="-21.187399" font-family="'Bitstream Vera Sans'" font-size="12.666px" opacity=".8" xml:space="preserve"><tspan x="877.22626" y="-21.187399"/></text>
 <text x="901.18719" y="-61.929108" font-family="'Bitstream Vera Sans'" font-size="12.666px" opacity=".8" xml:space="preserve"><tspan x="901.18719" y="-61.929108"/></text>
 <text x="-569.37115" y="-92.007248" font-family="'Bitstream Vera Sans'" font-size="12.666px" opacity=".8" xml:space="preserve"><tspan x="-569.37115" y="-92.007248"/></text>
 <text x="-2393.0571" y="653.5462" font-family="'Bitstream Vera Sans'" font-size="12.666px" opacity=".8" xml:space="preserve"><tspan x="-2393.0571" y="653.5462"/></text>
 <text x="-454.88007" y="-477.32822" font-family="'Bitstream Vera Sans'" font-size="12.666px" opacity=".8" xml:space="preserve"><tspan x="-454.88007" y="-477.32822"/></text>
 <text x="352.72208" y="-890.79834" font-family="'Bitstream Vera Sans'" font-size="12.666px" opacity=".8" xml:space="preserve"><tspan x="352.72208" y="-890.79834"/></text>
 <text x="376.68301" y="-931.54004" font-family="'Bitstream Vera Sans'" font-size="12.666px" opacity=".8" xml:space="preserve"><tspan x="376.68301" y="-931.54004"/></text>
 <text x="-1114.7802" y="-938.74994" font-family="'Bitstream Vera Sans'" font-size="12.666px" opacity=".8" xml:space="preserve"><tspan x="-1114.7802" y="-938.74994"/></text>
 <text x="345.7626" y="-1211.9841" font-family="'Bitstream Vera Sans'" font-size="12.666px" opacity=".8" xml:space="preserve"><tspan x="345.7626" y="-1211.9841"/></text>
 <text x="1831.8861" y="-585.29272" font-family="'Bitstream Vera Sans'" font-size="12.666px" opacity=".8" xml:space="preserve"><tspan x="1831.8861" y="-585.29272"/></text>
 <text x="1855.8469" y="-626.03448" font-family="'Bitstream Vera Sans'" font-size="12.666px" opacity=".8" xml:space="preserve"><tspan x="1855.8469" y="-626.03448"/></text>
 <text x="364.38376" y="-633.24438" font-family="'Bitstream Vera Sans'" font-size="12.666px" opacity=".8" xml:space="preserve"><tspan x="364.38376" y="-633.24438"/></text>
 <text x="1824.9266" y="-906.47839" font-family="'Bitstream Vera Sans'" font-size="12.666px" opacity=".8" xml:space="preserve"><tspan x="1824.9266" y="-906.47839"/></text>
 <text x="-573.43256" y="-681.33569" font-family="'Bitstream Vera Sans'" font-size="12.666px" opacity=".8" xml:space="preserve"><tspan x="-573.43256" y="-681.33569"/></text>
 <text x="-2397.1182" y="64.217857" font-family="'Bitstream Vera Sans'" font-size="12.666px" opacity=".8" xml:space="preserve"><tspan x="-2397.1182" y="64.217857"/></text>
 <text x="-682.36279" y="157.09" font-family="'Bitstream Vera Sans'" font-size="12.666px" opacity=".8" xml:space="preserve"><tspan x="-682.36279" y="157.09"/></text>
 <text x="426.66153" y="-22.092148" font-family="'Bitstream Vera Sans'" font-size="12.666px" opacity=".8" xml:space="preserve"><tspan x="426.66153" y="-22.092148"/></text>
 <text x="450.62247" y="-62.833855" font-family="'Bitstream Vera Sans'" font-size="12.666px" opacity=".8" xml:space="preserve"><tspan x="450.62247" y="-62.833855"/></text>
 <text x="-1040.8407" y="-70.043823" font-family="'Bitstream Vera Sans'" font-size="12.666px" opacity=".8" xml:space="preserve"><tspan x="-1040.8407" y="-70.043823"/></text>
 <text x="419.70206" y="-343.27789" font-family="'Bitstream Vera Sans'" font-size="12.666px" opacity=".8" xml:space="preserve"><tspan x="419.70206" y="-343.27789"/></text>
 <text x="-608.03253" y="-72.758072" font-family="'Bitstream Vera Sans'" font-size="12.666px" opacity=".8" xml:space="preserve"><tspan x="-608.03253" y="-72.758072"/></text>
 <text x="-2431.7185" y="672.79541" font-family="'Bitstream Vera Sans'" font-size="12.666px" opacity=".8" xml:space="preserve"><tspan x="-2431.7185" y="672.79541"/></text>
 <text x="-456.93948" y="-934.28857" font-family="'Bitstream Vera Sans'" font-size="12.666px" opacity=".8" xml:space="preserve"><tspan x="-456.93948" y="-934.28857"/></text>
 <text x="350.66266" y="-1347.7588" font-family="'Bitstream Vera Sans'" font-size="12.666px" opacity=".8" xml:space="preserve"><tspan x="350.66266" y="-1347.7588"/></text>
 <text x="374.62357" y="-1388.5005" font-family="'Bitstream Vera Sans'" font-size="12.666px" opacity=".8" xml:space="preserve"><tspan x="374.62357" y="-1388.5005"/></text>
 <text x="-1116.8396" y="-1395.7104" font-family="'Bitstream Vera Sans'" font-size="12.666px" opacity=".8" xml:space="preserve"><tspan x="-1116.8396" y="-1395.7104"/></text>
 <text x="343.70316" y="-1668.9446" font-family="'Bitstream Vera Sans'" font-size="12.666px" opacity=".8" xml:space="preserve"><tspan x="343.70316" y="-1668.9446"/></text>
 <text x="1829.8265" y="-1042.2533" font-family="'Bitstream Vera Sans'" font-size="12.666px" opacity=".8" xml:space="preserve"><tspan x="1829.8265" y="-1042.2533"/></text>
 <text x="1853.7874" y="-1082.9949" font-family="'Bitstream Vera Sans'" font-size="12.666px" opacity=".8" xml:space="preserve"><tspan x="1853.7874" y="-1082.9949"/></text>
 <text x="362.32431" y="-1090.2048" font-family="'Bitstream Vera Sans'" font-size="12.666px" opacity=".8" xml:space="preserve"><tspan x="362.32431" y="-1090.2048"/></text>
 <text x="1822.8671" y="-1363.439" font-family="'Bitstream Vera Sans'" font-size="12.666px" opacity=".8" xml:space="preserve"><tspan x="1822.8671" y="-1363.439"/></text>
 <text x="-575.492" y="-1138.2961" font-family="'Bitstream Vera Sans'" font-size="12.666px" opacity=".8" xml:space="preserve"><tspan x="-575.492" y="-1138.2961"/></text>
 <text x="-2399.1777" y="-392.74261" font-family="'Bitstream Vera Sans'" font-size="12.666px" opacity=".8" xml:space="preserve"><tspan x="-2399.1777" y="-392.74261"/></text>
 <text x="-684.42224" y="-299.87045" font-family="'Bitstream Vera Sans'" font-size="12.666px" opacity=".8" xml:space="preserve"><tspan x="-684.42224" y="-299.87045"/></text>
 <text x="155.5923" y="-58.956276" font-family="'Bitstream Vera Sans'" font-size="12.666px" opacity=".8" xml:space="preserve"><tspan x="155.5923" y="-58.956276"/></text>
 <text x="179.55324" y="-99.697998" font-family="'Bitstream Vera Sans'" font-size="12.666px" opacity=".8" xml:space="preserve"><tspan x="179.55324" y="-99.697998"/></text>
 <text x="-1090.2634" y="-293.72662" font-family="'Bitstream Vera Sans'" font-size="12.666px" opacity=".8" xml:space="preserve"><tspan x="-1090.2634" y="-293.72662"/></text>
 <text x="-282.66141" y="-707.19678" font-family="'Bitstream Vera Sans'" font-size="12.666px" opacity=".8" xml:space="preserve"><tspan x="-282.66141" y="-707.19678"/></text>
 <text x="-258.70047" y="-747.93848" font-family="'Bitstream Vera Sans'" font-size="12.666px" opacity=".8" xml:space="preserve"><tspan x="-258.70047" y="-747.93848"/></text>
 <text x="-1750.1636" y="-755.14838" font-family="'Bitstream Vera Sans'" font-size="12.666px" opacity=".8" xml:space="preserve"><tspan x="-1750.1636" y="-755.14838"/></text>
 <text x="-289.62085" y="-1028.3826" font-family="'Bitstream Vera Sans'" font-size="12.666px" opacity=".8" xml:space="preserve"><tspan x="-289.62085" y="-1028.3826"/></text>
 <text x="1196.5026" y="-401.69113" font-family="'Bitstream Vera Sans'" font-size="12.666px" opacity=".8" xml:space="preserve"><tspan x="1196.5026" y="-401.69113"/></text>
 <text x="1220.4634" y="-442.43286" font-family="'Bitstream Vera Sans'" font-size="12.666px" opacity=".8" xml:space="preserve"><tspan x="1220.4634" y="-442.43286"/></text>
 <text x="-270.99973" y="-449.64282" font-family="'Bitstream Vera Sans'" font-size="12.666px" opacity=".8" xml:space="preserve"><tspan x="-270.99973" y="-449.64282"/></text>
 <text x="1189.5431" y="-722.87689" font-family="'Bitstream Vera Sans'" font-size="12.666px" opacity=".8" xml:space="preserve"><tspan x="1189.5431" y="-722.87689"/></text>
 <text x="-1208.816" y="-497.7341" font-family="'Bitstream Vera Sans'" font-size="12.666px" opacity=".8" xml:space="preserve"><tspan x="-1208.816" y="-497.7341"/></text>
 <text x="-3032.5017" y="247.81946" font-family="'Bitstream Vera Sans'" font-size="12.666px" opacity=".8" xml:space="preserve"><tspan x="-3032.5017" y="247.81946"/></text>
 <text x="-1317.7462" y="340.69156" font-family="'Bitstream Vera Sans'" font-size="12.666px" opacity=".8" xml:space="preserve"><tspan x="-1317.7462" y="340.69156"/></text>
 <text x="877.22626" y="-13.949411" font-family="'Bitstream Vera Sans'" font-size="12.666px" opacity=".8" xml:space="preserve"><tspan x="877.22626" y="-13.949411"/></text>
 <text x="901.18719" y="-54.691116" font-family="'Bitstream Vera Sans'" font-size="12.666px" opacity=".8" xml:space="preserve"><tspan x="901.18719" y="-54.691116"/></text>
 <text x="-569.37115" y="-84.769257" font-family="'Bitstream Vera Sans'" font-size="12.666px" opacity=".8" xml:space="preserve"><tspan x="-569.37115" y="-84.769257"/></text>
 <text x="-2393.0571" y="660.78418" font-family="'Bitstream Vera Sans'" font-size="12.666px" opacity=".8" xml:space="preserve"><tspan x="-2393.0571" y="660.78418"/></text>
 <text x="-454.88007" y="-470.09021" font-family="'Bitstream Vera Sans'" font-size="12.666px" opacity=".8" xml:space="preserve"><tspan x="-454.88007" y="-470.09021"/></text>
 <text x="352.72208" y="-883.5603" font-family="'Bitstream Vera Sans'" font-size="12.666px" opacity=".8" xml:space="preserve"><tspan x="352.72208" y="-883.5603"/></text>
 <text x="376.68301" y="-924.30206" font-family="'Bitstream Vera Sans'" font-size="12.666px" opacity=".8" xml:space="preserve"><tspan x="376.68301" y="-924.30206"/></text>
 <text x="-1114.7802" y="-931.51196" font-family="'Bitstream Vera Sans'" font-size="12.666px" opacity=".8" xml:space="preserve"><tspan x="-1114.7802" y="-931.51196"/></text>
 <text x="345.7626" y="-1204.7461" font-family="'Bitstream Vera Sans'" font-size="12.666px" opacity=".8" xml:space="preserve"><tspan x="345.7626" y="-1204.7461"/></text>
 <text x="1831.8861" y="-578.05475" font-family="'Bitstream Vera Sans'" font-size="12.666px" opacity=".8" xml:space="preserve"><tspan x="1831.8861" y="-578.05475"/></text>
 <text x="1855.8469" y="-618.79651" font-family="'Bitstream Vera Sans'" font-size="12.666px" opacity=".8" xml:space="preserve"><tspan x="1855.8469" y="-618.79651"/></text>
 <text x="364.38376" y="-626.00641" font-family="'Bitstream Vera Sans'" font-size="12.666px" opacity=".8" xml:space="preserve"><tspan x="364.38376" y="-626.00641"/></text>
 <text x="1824.9266" y="-899.24036" font-family="'Bitstream Vera Sans'" font-size="12.666px" opacity=".8" xml:space="preserve"><tspan x="1824.9266" y="-899.24036"/></text>
 <text x="-573.43256" y="-674.09772" font-family="'Bitstream Vera Sans'" font-size="12.666px" opacity=".8" xml:space="preserve"><tspan x="-573.43256" y="-674.09772"/></text>
 <text x="-2397.1182" y="71.455849" font-family="'Bitstream Vera Sans'" font-size="12.666px" opacity=".8" xml:space="preserve"><tspan x="-2397.1182" y="71.455849"/></text>
 <text x="-682.36279" y="164.32799" font-family="'Bitstream Vera Sans'" font-size="12.666px" opacity=".8" xml:space="preserve"><tspan x="-682.36279" y="164.32799"/></text>
 <text x="426.66153" y="-14.85416" font-family="'Bitstream Vera Sans'" font-size="12.666px" opacity=".8" xml:space="preserve"><tspan x="426.66153" y="-14.85416"/></text>
 <text x="450.62247" y="-55.595863" font-family="'Bitstream Vera Sans'" font-size="12.666px" opacity=".8" xml:space="preserve"><tspan x="450.62247" y="-55.595863"/></text>
 <text x="-1040.8407" y="-62.805836" font-family="'Bitstream Vera Sans'" font-size="12.666px" opacity=".8" xml:space="preserve"><tspan x="-1040.8407" y="-62.805836"/></text>
 <text x="419.70206" y="-336.03989" font-family="'Bitstream Vera Sans'" font-size="12.666px" opacity=".8" xml:space="preserve"><tspan x="419.70206" y="-336.03989"/></text>
 <text x="-608.03253" y="-65.520081" font-family="'Bitstream Vera Sans'" font-size="12.666px" opacity=".8" xml:space="preserve"><tspan x="-608.03253" y="-65.520081"/></text>
 <text x="-2431.7185" y="680.03345" font-family="'Bitstream Vera Sans'" font-size="12.666px" opacity=".8" xml:space="preserve"><tspan x="-2431.7185" y="680.03345"/></text>
 <text x="-456.93948" y="-927.0506" font-family="'Bitstream Vera Sans'" font-size="12.666px" opacity=".8" xml:space="preserve"><tspan x="-456.93948" y="-927.0506"/></text>
 <text x="350.66266" y="-1340.5208" font-family="'Bitstream Vera Sans'" font-size="12.666px" opacity=".8" xml:space="preserve"><tspan x="350.66266" y="-1340.5208"/></text>
 <text x="374.62357" y="-1381.2626" font-family="'Bitstream Vera Sans'" font-size="12.666px" opacity=".8" xml:space="preserve"><tspan x="374.62357" y="-1381.2626"/></text>
 <text x="-1116.8396" y="-1388.4724" font-family="'Bitstream Vera Sans'" font-size="12.666px" opacity=".8" xml:space="preserve"><tspan x="-1116.8396" y="-1388.4724"/></text>
 <text x="343.70316" y="-1661.7065" font-family="'Bitstream Vera Sans'" font-size="12.666px" opacity=".8" xml:space="preserve"><tspan x="343.70316" y="-1661.7065"/></text>
 <text x="1829.8265" y="-1035.0154" font-family="'Bitstream Vera Sans'" font-size="12.666px" opacity=".8" xml:space="preserve"><tspan x="1829.8265" y="-1035.0154"/></text>
 <text x="1853.7874" y="-1075.757" font-family="'Bitstream Vera Sans'" font-size="12.666px" opacity=".8" xml:space="preserve"><tspan x="1853.7874" y="-1075.757"/></text>
 <text x="362.32431" y="-1082.9668" font-family="'Bitstream Vera Sans'" font-size="12.666px" opacity=".8" xml:space="preserve"><tspan x="362.32431" y="-1082.9668"/></text>
 <text x="1822.8671" y="-1356.2009" font-family="'Bitstream Vera Sans'" font-size="12.666px" opacity=".8" xml:space="preserve"><tspan x="1822.8671" y="-1356.2009"/></text>
 <text x="-575.492" y="-1131.0581" font-family="'Bitstream Vera Sans'" font-size="12.666px" opacity=".8" xml:space="preserve"><tspan x="-575.492" y="-1131.0581"/></text>
 <text x="-2399.1777" y="-385.50461" font-family="'Bitstream Vera Sans'" font-size="12.666px" opacity=".8" xml:space="preserve"><tspan x="-2399.1777" y="-385.50461"/></text>
 <text x="-684.42224" y="-292.63245" font-family="'Bitstream Vera Sans'" font-size="12.666px" opacity=".8" xml:space="preserve"><tspan x="-684.42224" y="-292.63245"/></text>
 <text x="155.5923" y="-51.718292" font-family="'Bitstream Vera Sans'" font-size="12.666px" opacity=".8" xml:space="preserve"><tspan x="155.5923" y="-51.718292"/></text>
 <text x="179.55324" y="-92.460007" font-family="'Bitstream Vera Sans'" font-size="12.666px" opacity=".8" xml:space="preserve"><tspan x="179.55324" y="-92.460007"/></text>
 <text x="-1090.2634" y="-286.48859" font-family="'Bitstream Vera Sans'" font-size="12.666px" opacity=".8" xml:space="preserve"><tspan x="-1090.2634" y="-286.48859"/></text>
 <text x="-282.66141" y="-699.9588" font-family="'Bitstream Vera Sans'" font-size="12.666px" opacity=".8" xml:space="preserve"><tspan x="-282.66141" y="-699.9588"/></text>
 <text x="-258.70047" y="-740.7005" font-family="'Bitstream Vera Sans'" font-size="12.666px" opacity=".8" xml:space="preserve"><tspan x="-258.70047" y="-740.7005"/></text>
 <text x="-1750.1636" y="-747.91046" font-family="'Bitstream Vera Sans'" font-size="12.666px" opacity=".8" xml:space="preserve"><tspan x="-1750.1636" y="-747.91046"/></text>
 <text x="-289.62085" y="-1021.1445" font-family="'Bitstream Vera Sans'" font-size="12.666px" opacity=".8" xml:space="preserve"><tspan x="-289.62085" y="-1021.1445"/></text>
 <text x="1196.5026" y="-394.45316" font-family="'Bitstream Vera Sans'" font-size="12.666px" opacity=".8" xml:space="preserve"><tspan x="1196.5026" y="-394.45316"/></text>
 <text x="1220.4634" y="-435.19489" font-family="'Bitstream Vera Sans'" font-size="12.666px" opacity=".8" xml:space="preserve"><tspan x="1220.4634" y="-435.19489"/></text>
 <text x="-270.99973" y="-442.40482" font-family="'Bitstream Vera Sans'" font-size="12.666px" opacity=".8" xml:space="preserve"><tspan x="-270.99973" y="-442.40482"/></text>
 <text x="1189.5431" y="-715.63892" font-family="'Bitstream Vera Sans'" font-size="12.666px" opacity=".8" xml:space="preserve"><tspan x="1189.5431" y="-715.63892"/></text>
 <text x="-1208.816" y="-490.49609" font-family="'Bitstream Vera Sans'" font-size="12.666px" opacity=".8" xml:space="preserve"><tspan x="-1208.816" y="-490.49609"/></text>
 <text x="-3032.5017" y="255.05743" font-family="'Bitstream Vera Sans'" font-size="12.666px" opacity=".8" xml:space="preserve"><tspan x="-3032.5017" y="255.05743"/></text>
 <text x="-1317.7462" y="347.92953" font-family="'Bitstream Vera Sans'" font-size="12.666px" opacity=".8" xml:space="preserve"><tspan x="-1317.7462" y="347.92953"/></text>
 <text x="435.90427" y="-393.22546" font-family="'Droid Sans'" font-size="12.666px" xml:space="preserve"><tspan x="435.90427" y="-393.22546"/><tspan x="435.90427" y="-377.3924"/></text>
 <text x="901.0882" y="-875.27002" font-family="'Bitstream Vera Sans'" font-size="12.666px" opacity=".8" xml:space="preserve"><tspan x="901.0882" y="-875.27002"/></text>
 <text x="-922.59778" y="-129.71655" font-family="'Bitstream Vera Sans'" font-size="12.666px" opacity=".8" xml:space="preserve"><tspan x="-922.59778" y="-129.71655"/></text>
 <text x="1628.1677" y="-1160.2659" font-family="'Bitstream Vera Sans'" font-size="12.666px" opacity=".8" xml:space="preserve"><tspan x="1628.1677" y="-1160.2659"/></text>
 <text x="1652.1285" y="-1201.0076" font-family="'Bitstream Vera Sans'" font-size="12.666px" opacity=".8" xml:space="preserve"><tspan x="1652.1285" y="-1201.0076"/></text>
 <text x="160.66542" y="-1208.2175" font-family="'Bitstream Vera Sans'" font-size="12.666px" opacity=".8" xml:space="preserve"><tspan x="160.66542" y="-1208.2175"/></text>
 <text x="1621.2083" y="-1481.4517" font-family="'Bitstream Vera Sans'" font-size="12.666px" opacity=".8" xml:space="preserve"><tspan x="1621.2083" y="-1481.4517"/></text>
 <g transform="matrix(.57142 0 0 .57142 -5.1495 -1.2858)">
  <rect transform="matrix(0,-1,-1,0,0,0)" x="-30.25" y="-37.012" width="28" height="28" rx="14" ry="14" fill="#d6d6d6"/>
  <g transform="matrix(.3869 0 0 .3869 9.0117 2.2504)" fill="#4d4d4d">
   <path d="m22.57 2.648c-4.489 1.82-8.517 4.496-11.971 7.949-3.455 3.454-6.128 7.483-7.949 11.971-1.758 4.336-2.65 8.918-2.65 13.618 0 4.699 0.892 9.281 2.65 13.615 1.821 4.489 4.495 8.518 7.949 11.971 3.454 3.455 7.481 6.129 11.971 7.949 4.336 1.76 8.917 2.649 13.617 2.649s9.28-0.892 13.616-2.649c4.488-1.82 8.518-4.494 11.971-7.949 3.455-3.453 6.129-7.48 7.949-11.971 1.758-4.334 2.648-8.916 2.648-13.615 0-4.7-0.891-9.282-2.648-13.618-1.82-4.488-4.496-8.518-7.949-11.971s-7.479-6.129-11.971-7.949c-4.336-1.757-8.916-2.648-13.616-2.648s-9.281 0.891-13.617 2.648zm-13.526 48.771c-1.743-1.094-3.349-2.354-4.771-3.838-2.172-6.112-2.54-12.729-1.101-19.01 0.677-1.335 1.447-2.617 2.318-3.845 0.269-0.379 0.518-0.774 0.806-1.142l8.166 4.832v0.205c-0.021 4.392 0.425 8.752 1.313 13.049 3e-3 0.02 6e-3 0.031 0.01 0.049l-6.333 9.93c-0.138-0.07-0.275-0.146-0.408-0.23zm24.28 16.787c1.409 0.719 2.858 1.326 4.347 1.82-6.325 0.275-12.713-1.207-18.36-4.447l13.689 2.439c0.105 0.067 0.212 0.131 0.324 0.188zm-0.05-2.471-16.154-2.879c-1.89-2.295-3.59-4.723-5.051-7.318-0.372-0.66-0.787-1.301-1.102-1.99l6.327-9.92c0.14 0.035 0.296 0.072 0.473 0.119 3.958 1.059 7.986 1.812 12.042 2.402 0.237 0.033 0.435 0.062 0.604 0.08l7.584 13.113c-1.316 1.85-2.647 3.69-4.007 5.51-0.226 0.303-0.466 0.594-0.716 0.883zm26.876-5.586c-1.286 1.287-2.651 2.447-4.08 3.481-0.237-1.894-0.646-3.75-1.223-5.563l8.092-15.096c2.229-1.015 4.379-2.166 6.375-3.593 0.261-0.185 0.478-0.392 0.646-0.618-0.586 7.801-3.856 15.436-9.81 21.389zm-0.359-19.578c0.301 0.574 0.598 1.154 0.896 1.742l-7.816 14.58c-0.045 0.01-0.088 0.02-0.133 0.026-4.225 0.789-8.484 1.209-12.779 1.229l-7.8-13.487c1.214-2.254 2.417-4.517 3.61-6.781 0.81-1.536 1.606-3.082 2.401-4.627l16.143-1.658c1.977 2.9 3.85 5.862 5.478 8.976zm-3.275-17.294c-0.766 2.023-1.586 4.025-2.401 6.031l-15.726 1.615c-0.188-0.248-0.383-0.492-0.588-0.725-1.857-2.103-3.726-4.193-5.592-6.289 0.017-0.021 0.034-0.037 0.051-0.056-0.753-0.752-1.508-1.504-2.261-2.258l4.378-13.181c0.302-0.08 0.606-0.147 0.913-0.18 2.38-0.242 4.763-0.516 7.149-0.654 1.461-0.082 2.93-0.129 4.416-0.024l10.832 12.209c-0.373 1.178-0.737 2.359-1.171 3.512zm3.634-11.056c2.988 2.99 5.302 6.402 6.938 10.047-2.024-1.393-4.188-2.539-6.463-3.473-0.354-0.146-0.717-0.275-1.086-0.402l-10.662-12.017c0.074-0.519 0.113-1.039 0.129-1.563 4.056 1.651 7.858 4.123 11.144 7.408zm-34.816-8.039c0.042 0.031 0.062 0.057 0.086 0.064 2.437 0.842 4.654 2.082 6.744 3.553l-4.09 12.317c-0.021 6e-3 -0.041 0.012-0.061 0.021-0.837 0.346-1.69 0.656-2.514 1.031-3.395 1.543-6.705 3.252-9.823 5.301l-8.071-4.775c0.012-0.252 0.055-0.508 0.141-0.736 0.542-1.444 1.075-2.896 1.688-4.311 0.472-1.09 1.01-2.143 1.597-3.172 0.384-0.424 0.782-0.844 1.192-1.254 3.833-3.832 8.363-6.553 13.186-8.162-0.025 0.039-0.051 0.08-0.075 0.123z" fill="#4d4d4d"/>
  </g>
 </g>
</svg>
