<svg width="16" height="16" version="1" xmlns="http://www.w3.org/2000/svg">
 <path d="M 15,15.280303 15,6.4403614 13.859456,5.3141004 C 13.579765,5.0379121 11.848393,3.5319658 11.467035,3.4595943 L 8.1057554,1.0089336 4.312215,3.5730752 C 3.9881702,3.7921044 2.3375425,5.1419615 2.066961,5.4275814 L 1,6.5538423 1,15.280303 C 1,15.679015 1.3122,16 1.7000001,16 L 14.300001,16 C 14.6878,16 15,15.679015 15,15.280303 Z" style="fill:#cccccc"/>
 <rect x="1" y="6" width="14" height="1" style="opacity:.15"/>
 <path d="m2.5070386 1h1c0.277 0 0.5 0.223 0.5 0.5v3.6c0 0.277-0.223 0.5-0.5 0.5h-1c-0.277 0-0.5-0.223-0.5-0.5v-3.6c0-0.277 0.223-0.5 0.5-0.5z" style="fill:#4f4f4f"/>
 <rect x="2" y="9" width="4" height="6" rx=".6" ry=".563" style="fill:#956a42"/>
 <path d="M 10.041667,9 C 9.4717904,9 9,9.4717904 9,10.041667 l 0,2.916667 C 9,13.52821 9.4717904,14 10.041667,14 l 2.916667,0 C 13.52821,14 14,13.52821 14,12.958334 l 0,-2.916667 C 14,9.4717904 13.52821,9 12.958334,9 l -2.916667,0 z" style="fill:#956a42"/>
 <path d="m10.1875 9.997894c-0.110361 0-0.1875 0.07719-0.1875 0.187632v2.626842c0 0.110439 0.07714 0.187632 0.1875 0.187632h2.625001c0.110361 0 0.1875-0.0772 0.1875-0.187632v-2.626842c0-0.110439-0.07714-0.187632-0.1875-0.187632h-2.625001z" style="fill:#c2eeff"/>
 <circle cx="4.5" cy="12.5" r=".5" style="fill:#ffffff"/>
 <path d="m2.4065896 5.2303082c-0.2333921 0.1941149-0.425256 0.3586943-0.5017798 0.4373155l-1.0964238 1.1260874v-0.3896636h1.5982036z" style="opacity:.05"/>
 <path d="m4.0047932 3.56195c-0.3696205 0.2724778-1.0785893 0.832141-1.5982036 1.2643107v1.1737393h1.5982036z" style="opacity:.15"/>
 <path d="M 6,2.4936506 4.2587891,3.4088897 C 4.21217,3.4333982 4.0844544,3.5121994 4,3.56195 L 4,6 6,6 Z" style="opacity:.05"/>
 <path d="M 8,1.4417508 6,2.4936506 6,6 8,6 Z" style="opacity:.15"/>
 <path d="M 9.135742,1.3442978 8,1.9417021 8,6 10,6 10,1.834716 Z" style="opacity:.05"/>
 <path d="m10 2.8351971v3.1648029h2v-2.0309065z" style="opacity:.15"/>
 <path d="m12 3.9690935v2.0309065h1.598203v-0.9711971c-0.188234-0.1250816-0.347426-0.2168885-0.433107-0.2327142z" style="opacity:.05"/>
 <path d="m13.594015 5.1787675v1.22528h1.598203v0.2764302l-1.17212-1.1268683c-0.06799-0.065352-0.22921-0.2070686-0.426083-0.3748419z" style="opacity:.05"/>
 <path d="M 8.0003022,1 1,7" style="fill:none;stroke-linecap:round;stroke-linejoin:round;stroke-width:2;stroke:#5d5d5d"/>
 <path d="m8 1 7 6" style="fill:none;stroke-linecap:round;stroke-linejoin:round;stroke-width:2;stroke:#5d5d5d"/>
</svg>
