<svg width="16" height="16" version="1" xmlns="http://www.w3.org/2000/svg">
 <path d="m7.999768 7.3783858e-6c-0.419067 0-0.838413 0.1561985-1.151675 0.4694532l-6.3786469 6.3793576c-0.6265247 0.6265088-0.6256359 1.6749775 9.143e-4 2.301487l6.3786466 6.3793578c0.626525 0.626509 1.675928 0.627398 2.302453 9.14e-4l6.378647-6.3793571c0.626524-0.6265095 0.626524-1.6758758 0-2.3023849l-6.378664-6.3793744c-0.313262-0.3132547-0.732609-0.4694532-1.151675-0.4694532z" style="fill:#c2352a"/>
 <path d="m4.3359375 2.9804688l-0.3554687 0.3554687 2.2695312 2.2695313v4.8945312h0.5v-4.3945312l3.0722656 3.0722656 0.3554684-0.3554688-5.8417965-5.8417968z" style="fill:#3f3f3f"/>
 <circle cx="9.5" cy="8.5" r="1.5" fill="#fff"/>
 <circle cx="6.5" cy="10.5" r="1.5" fill="#fff"/>
 <circle cx="6.5" cy="5.5" r="1.5" fill="#fff"/>
</svg>
