<svg width="16" height="16" version="1" xmlns="http://www.w3.org/2000/svg">
 <rect x="1" y="4" width="13" height="9" rx=".813" ry=".804" style="fill:#8e8e8e"/>
 <path d="m 3.648442,6 7.703117,0 c 0.355627,0 0.700391,0.2834612 0.641925,0.625 l -0.641925,3.749999 C 11.293095,10.716538 11.06526,11 10.709632,11 L 4.2903684,11 C 3.9347411,11 3.7069067,10.716538 3.648442,10.374999 L 3.0065157,6.625 C 2.9480508,6.2834612 3.2928147,6 3.648442,6 Z" style="fill:#2bd677"/>
 <rect y="7" width="3" height="3" rx=".682" ry=".643" style="fill:#b3b3b3"/>
 <rect x="1" y="8" width="1" height="1" style="opacity:.5"/>
 <rect x="12" y="7" width="3" height="3" rx=".682" ry=".643" style="fill:#b3b3b3"/>
 <rect x="13" y="8" width="1" height="1" style="opacity:.5"/>
 <rect x="4" y="7" width="1" height="1" style="fill:#ffffff"/>
 <rect x="6" y="7" width="1" height="1" style="fill:#ffffff"/>
 <rect x="8" y="7" width="1" height="1" style="fill:#ffffff"/>
 <rect x="10" y="7" width="1" height="1" style="fill:#ffffff"/>
 <rect x="5" y="9" width="1" height="1" style="fill:#ffffff"/>
 <rect x="7" y="9" width="1" height="1" style="fill:#ffffff"/>
 <rect x="9" y="9" width="1" height="1" style="fill:#ffffff"/>
</svg>
