<svg width="16" height="16" version="1.1" viewBox="0 0 16 16" xmlns="http://www.w3.org/2000/svg">
 <g transform="translate(0 -1036.4)">
  <text x="877.22626" y="1015.1748" font-family="'Bitstream Vera Sans'" font-size="12.666px" opacity=".8" xml:space="preserve"><tspan x="877.22626" y="1015.1748"/></text>
  <text x="901.18719" y="974.43311" font-family="'Bitstream Vera Sans'" font-size="12.666px" opacity=".8" xml:space="preserve"><tspan x="901.18719" y="974.43311"/></text>
  <text x="-569.37115" y="944.35498" font-family="'Bitstream Vera Sans'" font-size="12.666px" opacity=".8" xml:space="preserve"><tspan x="-569.37115" y="944.35498"/></text>
  <text x="-2393.0571" y="1689.9084" font-family="'Bitstream Vera Sans'" font-size="12.666px" opacity=".8" xml:space="preserve"><tspan x="-2393.0571" y="1689.9084"/></text>
  <text x="-454.88007" y="559.034" font-family="'Bitstream Vera Sans'" font-size="12.666px" opacity=".8" xml:space="preserve"><tspan x="-454.88007" y="559.034"/></text>
  <text x="352.72208" y="145.56386" font-family="'Bitstream Vera Sans'" font-size="12.666px" opacity=".8" xml:space="preserve"><tspan x="352.72208" y="145.56386"/></text>
  <text x="376.68301" y="104.82216" font-family="'Bitstream Vera Sans'" font-size="12.666px" opacity=".8" xml:space="preserve"><tspan x="376.68301" y="104.82216"/></text>
  <text x="-1114.7802" y="97.612259" font-family="'Bitstream Vera Sans'" font-size="12.666px" opacity=".8" xml:space="preserve"><tspan x="-1114.7802" y="97.612259"/></text>
  <text x="345.7626" y="-175.62193" font-family="'Bitstream Vera Sans'" font-size="12.666px" opacity=".8" xml:space="preserve"><tspan x="345.7626" y="-175.62193"/></text>
  <text x="1831.8861" y="451.06949" font-family="'Bitstream Vera Sans'" font-size="12.666px" opacity=".8" xml:space="preserve"><tspan x="1831.8861" y="451.06949"/></text>
  <text x="1855.8469" y="410.32773" font-family="'Bitstream Vera Sans'" font-size="12.666px" opacity=".8" xml:space="preserve"><tspan x="1855.8469" y="410.32773"/></text>
  <text x="364.38376" y="403.11783" font-family="'Bitstream Vera Sans'" font-size="12.666px" opacity=".8" xml:space="preserve"><tspan x="364.38376" y="403.11783"/></text>
  <text x="1824.9266" y="129.8838" font-family="'Bitstream Vera Sans'" font-size="12.666px" opacity=".8" xml:space="preserve"><tspan x="1824.9266" y="129.8838"/></text>
  <text x="-573.43256" y="355.02652" font-family="'Bitstream Vera Sans'" font-size="12.666px" opacity=".8" xml:space="preserve"><tspan x="-573.43256" y="355.02652"/></text>
  <text x="-2397.1182" y="1100.5801" font-family="'Bitstream Vera Sans'" font-size="12.666px" opacity=".8" xml:space="preserve"><tspan x="-2397.1182" y="1100.5801"/></text>
  <text x="-682.36279" y="1193.4521" font-family="'Bitstream Vera Sans'" font-size="12.666px" opacity=".8" xml:space="preserve"><tspan x="-682.36279" y="1193.4521"/></text>
  <text x="426.66153" y="1014.2701" font-family="'Bitstream Vera Sans'" font-size="12.666px" opacity=".8" xml:space="preserve"><tspan x="426.66153" y="1014.2701"/></text>
  <text x="450.62247" y="973.52832" font-family="'Bitstream Vera Sans'" font-size="12.666px" opacity=".8" xml:space="preserve"><tspan x="450.62247" y="973.52832"/></text>
  <text x="-1040.8407" y="966.31836" font-family="'Bitstream Vera Sans'" font-size="12.666px" opacity=".8" xml:space="preserve"><tspan x="-1040.8407" y="966.31836"/></text>
  <text x="419.70206" y="693.08429" font-family="'Bitstream Vera Sans'" font-size="12.666px" opacity=".8" xml:space="preserve"><tspan x="419.70206" y="693.08429"/></text>
  <text x="-608.03253" y="963.60413" font-family="'Bitstream Vera Sans'" font-size="12.666px" opacity=".8" xml:space="preserve"><tspan x="-608.03253" y="963.60413"/></text>
  <text x="-2431.7185" y="1709.1576" font-family="'Bitstream Vera Sans'" font-size="12.666px" opacity=".8" xml:space="preserve"><tspan x="-2431.7185" y="1709.1576"/></text>
  <text x="-456.93948" y="102.07362" font-family="'Bitstream Vera Sans'" font-size="12.666px" opacity=".8" xml:space="preserve"><tspan x="-456.93948" y="102.07362"/></text>
  <text x="350.66266" y="-311.39658" font-family="'Bitstream Vera Sans'" font-size="12.666px" opacity=".8" xml:space="preserve"><tspan x="350.66266" y="-311.39658"/></text>
  <text x="374.62357" y="-352.13828" font-family="'Bitstream Vera Sans'" font-size="12.666px" opacity=".8" xml:space="preserve"><tspan x="374.62357" y="-352.13828"/></text>
  <text x="-1116.8396" y="-359.34824" font-family="'Bitstream Vera Sans'" font-size="12.666px" opacity=".8" xml:space="preserve"><tspan x="-1116.8396" y="-359.34824"/></text>
  <text x="343.70316" y="-632.5824" font-family="'Bitstream Vera Sans'" font-size="12.666px" opacity=".8" xml:space="preserve"><tspan x="343.70316" y="-632.5824"/></text>
  <text x="1829.8265" y="-5.8910961" font-family="'Bitstream Vera Sans'" font-size="12.666px" opacity=".8" xml:space="preserve"><tspan x="1829.8265" y="-5.8910961"/></text>
  <text x="1853.7874" y="-46.632671" font-family="'Bitstream Vera Sans'" font-size="12.666px" opacity=".8" xml:space="preserve"><tspan x="1853.7874" y="-46.632671"/></text>
  <text x="362.32431" y="-53.842632" font-family="'Bitstream Vera Sans'" font-size="12.666px" opacity=".8" xml:space="preserve"><tspan x="362.32431" y="-53.842632"/></text>
  <text x="1822.8671" y="-327.07675" font-family="'Bitstream Vera Sans'" font-size="12.666px" opacity=".8" xml:space="preserve"><tspan x="1822.8671" y="-327.07675"/></text>
  <text x="-575.492" y="-101.93394" font-family="'Bitstream Vera Sans'" font-size="12.666px" opacity=".8" xml:space="preserve"><tspan x="-575.492" y="-101.93394"/></text>
  <text x="-2399.1777" y="643.61957" font-family="'Bitstream Vera Sans'" font-size="12.666px" opacity=".8" xml:space="preserve"><tspan x="-2399.1777" y="643.61957"/></text>
  <text x="-684.42224" y="736.49176" font-family="'Bitstream Vera Sans'" font-size="12.666px" opacity=".8" xml:space="preserve"><tspan x="-684.42224" y="736.49176"/></text>
  <text x="155.5923" y="977.40594" font-family="'Bitstream Vera Sans'" font-size="12.666px" opacity=".8" xml:space="preserve"><tspan x="155.5923" y="977.40594"/></text>
  <text x="179.55324" y="936.66418" font-family="'Bitstream Vera Sans'" font-size="12.666px" opacity=".8" xml:space="preserve"><tspan x="179.55324" y="936.66418"/></text>
  <text x="-1090.2634" y="742.63556" font-family="'Bitstream Vera Sans'" font-size="12.666px" opacity=".8" xml:space="preserve"><tspan x="-1090.2634" y="742.63556"/></text>
  <text x="-282.66141" y="329.16544" font-family="'Bitstream Vera Sans'" font-size="12.666px" opacity=".8" xml:space="preserve"><tspan x="-282.66141" y="329.16544"/></text>
  <text x="-258.70047" y="288.42374" font-family="'Bitstream Vera Sans'" font-size="12.666px" opacity=".8" xml:space="preserve"><tspan x="-258.70047" y="288.42374"/></text>
  <text x="-1750.1636" y="281.21384" font-family="'Bitstream Vera Sans'" font-size="12.666px" opacity=".8" xml:space="preserve"><tspan x="-1750.1636" y="281.21384"/></text>
  <text x="-289.62085" y="7.9796925" font-family="'Bitstream Vera Sans'" font-size="12.666px" opacity=".8" xml:space="preserve"><tspan x="-289.62085" y="7.9796925"/></text>
  <text x="1196.5026" y="634.67108" font-family="'Bitstream Vera Sans'" font-size="12.666px" opacity=".8" xml:space="preserve"><tspan x="1196.5026" y="634.67108"/></text>
  <text x="1220.4634" y="593.92932" font-family="'Bitstream Vera Sans'" font-size="12.666px" opacity=".8" xml:space="preserve"><tspan x="1220.4634" y="593.92932"/></text>
  <text x="-270.99973" y="586.71936" font-family="'Bitstream Vera Sans'" font-size="12.666px" opacity=".8" xml:space="preserve"><tspan x="-270.99973" y="586.71936"/></text>
  <text x="1189.5431" y="313.48532" font-family="'Bitstream Vera Sans'" font-size="12.666px" opacity=".8" xml:space="preserve"><tspan x="1189.5431" y="313.48532"/></text>
  <text x="-1208.816" y="538.62811" font-family="'Bitstream Vera Sans'" font-size="12.666px" opacity=".8" xml:space="preserve"><tspan x="-1208.816" y="538.62811"/></text>
  <text x="-3032.5017" y="1284.1816" font-family="'Bitstream Vera Sans'" font-size="12.666px" opacity=".8" xml:space="preserve"><tspan x="-3032.5017" y="1284.1816"/></text>
  <text x="-1317.7517" y="1377.0533" font-family="'Bitstream Vera Sans'" font-size="12.667px" opacity=".8" xml:space="preserve"><tspan x="-1317.7517" y="1377.0533"/></text>
  <text x="877.22626" y="1022.4128" font-family="'Bitstream Vera Sans'" font-size="12.666px" opacity=".8" xml:space="preserve"><tspan x="877.22626" y="1022.4128"/></text>
  <text x="901.18719" y="981.67108" font-family="'Bitstream Vera Sans'" font-size="12.666px" opacity=".8" xml:space="preserve"><tspan x="901.18719" y="981.67108"/></text>
  <text x="-569.37115" y="951.59296" font-family="'Bitstream Vera Sans'" font-size="12.666px" opacity=".8" xml:space="preserve"><tspan x="-569.37115" y="951.59296"/></text>
  <text x="-2393.0571" y="1697.1464" font-family="'Bitstream Vera Sans'" font-size="12.666px" opacity=".8" xml:space="preserve"><tspan x="-2393.0571" y="1697.1464"/></text>
  <text x="-454.88007" y="566.27197" font-family="'Bitstream Vera Sans'" font-size="12.666px" opacity=".8" xml:space="preserve"><tspan x="-454.88007" y="566.27197"/></text>
  <text x="352.72208" y="152.8019" font-family="'Bitstream Vera Sans'" font-size="12.666px" opacity=".8" xml:space="preserve"><tspan x="352.72208" y="152.8019"/></text>
  <text x="376.68301" y="112.06013" font-family="'Bitstream Vera Sans'" font-size="12.666px" opacity=".8" xml:space="preserve"><tspan x="376.68301" y="112.06013"/></text>
  <text x="-1114.7802" y="104.85023" font-family="'Bitstream Vera Sans'" font-size="12.666px" opacity=".8" xml:space="preserve"><tspan x="-1114.7802" y="104.85023"/></text>
  <text x="345.7626" y="-168.3839" font-family="'Bitstream Vera Sans'" font-size="12.666px" opacity=".8" xml:space="preserve"><tspan x="345.7626" y="-168.3839"/></text>
  <text x="1831.8861" y="458.30746" font-family="'Bitstream Vera Sans'" font-size="12.666px" opacity=".8" xml:space="preserve"><tspan x="1831.8861" y="458.30746"/></text>
  <text x="1855.8469" y="417.5657" font-family="'Bitstream Vera Sans'" font-size="12.666px" opacity=".8" xml:space="preserve"><tspan x="1855.8469" y="417.5657"/></text>
  <text x="364.38376" y="410.3558" font-family="'Bitstream Vera Sans'" font-size="12.666px" opacity=".8" xml:space="preserve"><tspan x="364.38376" y="410.3558"/></text>
  <text x="1824.9266" y="137.12184" font-family="'Bitstream Vera Sans'" font-size="12.666px" opacity=".8" xml:space="preserve"><tspan x="1824.9266" y="137.12184"/></text>
  <text x="-573.43256" y="362.2645" font-family="'Bitstream Vera Sans'" font-size="12.666px" opacity=".8" xml:space="preserve"><tspan x="-573.43256" y="362.2645"/></text>
  <text x="-2397.1182" y="1107.818" font-family="'Bitstream Vera Sans'" font-size="12.666px" opacity=".8" xml:space="preserve"><tspan x="-2397.1182" y="1107.818"/></text>
  <text x="-682.36279" y="1200.6902" font-family="'Bitstream Vera Sans'" font-size="12.666px" opacity=".8" xml:space="preserve"><tspan x="-682.36279" y="1200.6902"/></text>
  <text x="426.66153" y="1021.5081" font-family="'Bitstream Vera Sans'" font-size="12.666px" opacity=".8" xml:space="preserve"><tspan x="426.66153" y="1021.5081"/></text>
  <text x="450.62247" y="980.76636" font-family="'Bitstream Vera Sans'" font-size="12.666px" opacity=".8" xml:space="preserve"><tspan x="450.62247" y="980.76636"/></text>
  <text x="-1040.8407" y="973.55634" font-family="'Bitstream Vera Sans'" font-size="12.666px" opacity=".8" xml:space="preserve"><tspan x="-1040.8407" y="973.55634"/></text>
  <text x="419.70206" y="700.32233" font-family="'Bitstream Vera Sans'" font-size="12.666px" opacity=".8" xml:space="preserve"><tspan x="419.70206" y="700.32233"/></text>
  <text x="-608.03253" y="970.8421" font-family="'Bitstream Vera Sans'" font-size="12.666px" opacity=".8" xml:space="preserve"><tspan x="-608.03253" y="970.8421"/></text>
  <text x="-2431.7185" y="1716.3956" font-family="'Bitstream Vera Sans'" font-size="12.666px" opacity=".8" xml:space="preserve"><tspan x="-2431.7185" y="1716.3956"/></text>
  <text x="-456.93948" y="109.3116" font-family="'Bitstream Vera Sans'" font-size="12.666px" opacity=".8" xml:space="preserve"><tspan x="-456.93948" y="109.3116"/></text>
  <text x="350.66266" y="-304.15854" font-family="'Bitstream Vera Sans'" font-size="12.666px" opacity=".8" xml:space="preserve"><tspan x="350.66266" y="-304.15854"/></text>
  <text x="374.62357" y="-344.90036" font-family="'Bitstream Vera Sans'" font-size="12.666px" opacity=".8" xml:space="preserve"><tspan x="374.62357" y="-344.90036"/></text>
  <text x="-1116.8396" y="-352.1102" font-family="'Bitstream Vera Sans'" font-size="12.666px" opacity=".8" xml:space="preserve"><tspan x="-1116.8396" y="-352.1102"/></text>
  <text x="343.70316" y="-625.34436" font-family="'Bitstream Vera Sans'" font-size="12.666px" opacity=".8" xml:space="preserve"><tspan x="343.70316" y="-625.34436"/></text>
  <text x="1829.8265" y="1.3468802" font-family="'Bitstream Vera Sans'" font-size="12.666px" opacity=".8" xml:space="preserve"><tspan x="1829.8265" y="1.3468802"/></text>
  <text x="1853.7874" y="-39.394756" font-family="'Bitstream Vera Sans'" font-size="12.666px" opacity=".8" xml:space="preserve"><tspan x="1853.7874" y="-39.394756"/></text>
  <text x="362.32431" y="-46.604595" font-family="'Bitstream Vera Sans'" font-size="12.666px" opacity=".8" xml:space="preserve"><tspan x="362.32431" y="-46.604595"/></text>
  <text x="1822.8671" y="-319.83871" font-family="'Bitstream Vera Sans'" font-size="12.666px" opacity=".8" xml:space="preserve"><tspan x="1822.8671" y="-319.83871"/></text>
  <text x="-575.492" y="-94.695908" font-family="'Bitstream Vera Sans'" font-size="12.666px" opacity=".8" xml:space="preserve"><tspan x="-575.492" y="-94.695908"/></text>
  <text x="-2399.1777" y="650.8576" font-family="'Bitstream Vera Sans'" font-size="12.666px" opacity=".8" xml:space="preserve"><tspan x="-2399.1777" y="650.8576"/></text>
  <text x="-684.42224" y="743.72974" font-family="'Bitstream Vera Sans'" font-size="12.666px" opacity=".8" xml:space="preserve"><tspan x="-684.42224" y="743.72974"/></text>
  <text x="155.5923" y="984.64392" font-family="'Bitstream Vera Sans'" font-size="12.666px" opacity=".8" xml:space="preserve"><tspan x="155.5923" y="984.64392"/></text>
  <text x="179.55324" y="943.90216" font-family="'Bitstream Vera Sans'" font-size="12.666px" opacity=".8" xml:space="preserve"><tspan x="179.55324" y="943.90216"/></text>
  <text x="-1090.2634" y="749.8736" font-family="'Bitstream Vera Sans'" font-size="12.666px" opacity=".8" xml:space="preserve"><tspan x="-1090.2634" y="749.8736"/></text>
  <text x="-282.66141" y="336.40341" font-family="'Bitstream Vera Sans'" font-size="12.666px" opacity=".8" xml:space="preserve"><tspan x="-282.66141" y="336.40341"/></text>
  <text x="-258.70047" y="295.66171" font-family="'Bitstream Vera Sans'" font-size="12.666px" opacity=".8" xml:space="preserve"><tspan x="-258.70047" y="295.66171"/></text>
  <text x="-1750.1636" y="288.45175" font-family="'Bitstream Vera Sans'" font-size="12.666px" opacity=".8" xml:space="preserve"><tspan x="-1750.1636" y="288.45175"/></text>
  <text x="-289.62085" y="15.21773" font-family="'Bitstream Vera Sans'" font-size="12.666px" opacity=".8" xml:space="preserve"><tspan x="-289.62085" y="15.21773"/></text>
  <text x="1196.5026" y="641.90906" font-family="'Bitstream Vera Sans'" font-size="12.666px" opacity=".8" xml:space="preserve"><tspan x="1196.5026" y="641.90906"/></text>
  <text x="1220.4634" y="601.1673" font-family="'Bitstream Vera Sans'" font-size="12.666px" opacity=".8" xml:space="preserve"><tspan x="1220.4634" y="601.1673"/></text>
  <text x="-270.99973" y="593.9574" font-family="'Bitstream Vera Sans'" font-size="12.666px" opacity=".8" xml:space="preserve"><tspan x="-270.99973" y="593.9574"/></text>
  <text x="1189.5431" y="320.7233" font-family="'Bitstream Vera Sans'" font-size="12.666px" opacity=".8" xml:space="preserve"><tspan x="1189.5431" y="320.7233"/></text>
  <text x="-1208.816" y="545.86609" font-family="'Bitstream Vera Sans'" font-size="12.666px" opacity=".8" xml:space="preserve"><tspan x="-1208.816" y="545.86609"/></text>
  <text x="-3032.5017" y="1291.4197" font-family="'Bitstream Vera Sans'" font-size="12.666px" opacity=".8" xml:space="preserve"><tspan x="-3032.5017" y="1291.4197"/></text>
  <text x="-1317.7517" y="1384.2933" font-family="'Bitstream Vera Sans'" font-size="12.667px" opacity=".8" xml:space="preserve"><tspan x="-1317.7517" y="1384.2933"/></text>
  <text x="435.90427" y="643.13672" font-family="'Droid Sans'" font-size="12.666px" xml:space="preserve"><tspan x="435.90427" y="643.13672"/><tspan x="435.90427" y="658.96979"/></text>
  <text x="901.0882" y="161.09218" font-family="'Bitstream Vera Sans'" font-size="12.666px" opacity=".8" xml:space="preserve"><tspan x="901.0882" y="161.09218"/></text>
  <text x="-922.59778" y="906.64563" font-family="'Bitstream Vera Sans'" font-size="12.666px" opacity=".8" xml:space="preserve"><tspan x="-922.59778" y="906.64563"/></text>
  <text x="1628.1677" y="-123.90367" font-family="'Bitstream Vera Sans'" font-size="12.666px" opacity=".8" xml:space="preserve"><tspan x="1628.1677" y="-123.90367"/></text>
  <text x="1652.1285" y="-164.64537" font-family="'Bitstream Vera Sans'" font-size="12.666px" opacity=".8" xml:space="preserve"><tspan x="1652.1285" y="-164.64537"/></text>
  <text x="160.66542" y="-171.85533" font-family="'Bitstream Vera Sans'" font-size="12.666px" opacity=".8" xml:space="preserve"><tspan x="160.66542" y="-171.85533"/></text>
  <text x="1621.2083" y="-445.08945" font-family="'Bitstream Vera Sans'" font-size="12.666px" opacity=".8" xml:space="preserve"><tspan x="1621.2083" y="-445.08945"/></text>
  <rect transform="matrix(0,-1,-1,0,0,0)" x="-1052.4" y="-16" width="16" height="16" rx=".8" ry=".8" fill="#fa5c5c"/>
  <path transform="translate(0 1036.4)" d="m4.9473 3.5742a2.6961 4.6884 20.06 0 0 -3.5918 3.9004 2.6961 4.6884 20.06 0 0 1.2265 5.0564 2.6961 4.6884 20.06 0 0 2.8614 -1.531h5.1136a4.6884 2.6961 69.94 0 0 2.861 1.531 4.6884 2.6961 69.94 0 0 1.227 -5.0564 4.6884 2.6961 69.94 0 0 -4.063 -3.8633 4.6884 2.6961 69.94 0 0 -1.3515 1.3887h-2.461a2.6961 4.6884 20.06 0 0 -1.3515 -1.3887 2.6961 4.6884 20.06 0 0 -0.4707 -0.0371zm2.0527 2.4258h2v2h1l-2 2-2-2h1v-2z" fill="#ffc0ff"/>
 </g>
</svg>
