<svg width="16" height="16" version="1.0" xmlns="http://www.w3.org/2000/svg">
 <defs>
  <clipPath id="clipPath4186">
   <circle cx="286" cy="26" r="10" fill="url(#linearGradient4190)"/>
  </clipPath>
 </defs>
 <circle cx="8" cy="8" r="8" fill="#578cff"/>
 <circle transform="matrix(1.4,0,0,1.4,-384.4,-36.4)" cx="286" cy="26" r="10" clip-path="url(#clipPath4186)" opacity="0" stroke-width=".45455"/>
 <circle transform="matrix(1.4,0,0,1.4,-384.4,-36.4)" cx="286" cy="26" r="10" clip-path="url(#clipPath4186)" opacity="0" stroke-width=".90909"/>
 <path d="m9.1738 3a5 5 0 0 0 -4.6326 3.125h-0.99244l-0.625 1.25h1.2952a5 5 0 0 0 -0.0452 0.625l-0.625 1.25h0.791a5 5 0 0 0 4.834 3.75 5 5 0 0 0 3.9025 -1.875h-1.8331a3.75 3.75 0 0 1 -2.0692 0.625 3.75 3.75 0 0 1 -3.5313 -2.5h4.1562l0.625-1.25h-5a3.75 3.75 0 0 1 0.0563 -0.625h4.9438l0.625-1.25h-5.1181a3.75 3.75 0 0 1 3.2431 -1.875 3.75 3.75 0 0 1 2.0682 0.625h1.8294a5 5 0 0 0 -3.8972 -1.875z" fill="#ffff70"/>
</svg>
