<svg width="16" height="16" version="1.0" xmlns="http://www.w3.org/2000/svg">
 <text x="877.22626" y="-21.187399" font-family="'Bitstream Vera Sans'" font-size="12.666px" opacity=".8" xml:space="preserve"><tspan x="877.22626" y="-21.187399"/></text>
 <text x="901.18719" y="-61.929108" font-family="'Bitstream Vera Sans'" font-size="12.666px" opacity=".8" xml:space="preserve"><tspan x="901.18719" y="-61.929108"/></text>
 <text x="-569.37115" y="-92.007248" font-family="'Bitstream Vera Sans'" font-size="12.666px" opacity=".8" xml:space="preserve"><tspan x="-569.37115" y="-92.007248"/></text>
 <text x="-2393.0571" y="653.5462" font-family="'Bitstream Vera Sans'" font-size="12.666px" opacity=".8" xml:space="preserve"><tspan x="-2393.0571" y="653.5462"/></text>
 <text x="-454.88007" y="-477.32822" font-family="'Bitstream Vera Sans'" font-size="12.666px" opacity=".8" xml:space="preserve"><tspan x="-454.88007" y="-477.32822"/></text>
 <text x="352.72208" y="-890.79834" font-family="'Bitstream Vera Sans'" font-size="12.666px" opacity=".8" xml:space="preserve"><tspan x="352.72208" y="-890.79834"/></text>
 <text x="376.68301" y="-931.54004" font-family="'Bitstream Vera Sans'" font-size="12.666px" opacity=".8" xml:space="preserve"><tspan x="376.68301" y="-931.54004"/></text>
 <text x="-1114.7802" y="-938.74994" font-family="'Bitstream Vera Sans'" font-size="12.666px" opacity=".8" xml:space="preserve"><tspan x="-1114.7802" y="-938.74994"/></text>
 <text x="345.7626" y="-1211.9841" font-family="'Bitstream Vera Sans'" font-size="12.666px" opacity=".8" xml:space="preserve"><tspan x="345.7626" y="-1211.9841"/></text>
 <text x="1831.8861" y="-585.29272" font-family="'Bitstream Vera Sans'" font-size="12.666px" opacity=".8" xml:space="preserve"><tspan x="1831.8861" y="-585.29272"/></text>
 <text x="1855.8469" y="-626.03448" font-family="'Bitstream Vera Sans'" font-size="12.666px" opacity=".8" xml:space="preserve"><tspan x="1855.8469" y="-626.03448"/></text>
 <text x="364.38376" y="-633.24438" font-family="'Bitstream Vera Sans'" font-size="12.666px" opacity=".8" xml:space="preserve"><tspan x="364.38376" y="-633.24438"/></text>
 <text x="1824.9266" y="-906.47839" font-family="'Bitstream Vera Sans'" font-size="12.666px" opacity=".8" xml:space="preserve"><tspan x="1824.9266" y="-906.47839"/></text>
 <text x="-573.43256" y="-681.33569" font-family="'Bitstream Vera Sans'" font-size="12.666px" opacity=".8" xml:space="preserve"><tspan x="-573.43256" y="-681.33569"/></text>
 <text x="-2397.1182" y="64.217857" font-family="'Bitstream Vera Sans'" font-size="12.666px" opacity=".8" xml:space="preserve"><tspan x="-2397.1182" y="64.217857"/></text>
 <text x="-682.36279" y="157.09" font-family="'Bitstream Vera Sans'" font-size="12.666px" opacity=".8" xml:space="preserve"><tspan x="-682.36279" y="157.09"/></text>
 <text x="426.66153" y="-22.092148" font-family="'Bitstream Vera Sans'" font-size="12.666px" opacity=".8" xml:space="preserve"><tspan x="426.66153" y="-22.092148"/></text>
 <text x="450.62247" y="-62.833855" font-family="'Bitstream Vera Sans'" font-size="12.666px" opacity=".8" xml:space="preserve"><tspan x="450.62247" y="-62.833855"/></text>
 <text x="-1040.8407" y="-70.043823" font-family="'Bitstream Vera Sans'" font-size="12.666px" opacity=".8" xml:space="preserve"><tspan x="-1040.8407" y="-70.043823"/></text>
 <text x="419.70206" y="-343.27789" font-family="'Bitstream Vera Sans'" font-size="12.666px" opacity=".8" xml:space="preserve"><tspan x="419.70206" y="-343.27789"/></text>
 <text x="-608.03253" y="-72.758072" font-family="'Bitstream Vera Sans'" font-size="12.666px" opacity=".8" xml:space="preserve"><tspan x="-608.03253" y="-72.758072"/></text>
 <text x="-2431.7185" y="672.79541" font-family="'Bitstream Vera Sans'" font-size="12.666px" opacity=".8" xml:space="preserve"><tspan x="-2431.7185" y="672.79541"/></text>
 <text x="-456.93948" y="-934.28857" font-family="'Bitstream Vera Sans'" font-size="12.666px" opacity=".8" xml:space="preserve"><tspan x="-456.93948" y="-934.28857"/></text>
 <text x="350.66266" y="-1347.7588" font-family="'Bitstream Vera Sans'" font-size="12.666px" opacity=".8" xml:space="preserve"><tspan x="350.66266" y="-1347.7588"/></text>
 <text x="374.62357" y="-1388.5005" font-family="'Bitstream Vera Sans'" font-size="12.666px" opacity=".8" xml:space="preserve"><tspan x="374.62357" y="-1388.5005"/></text>
 <text x="-1116.8396" y="-1395.7104" font-family="'Bitstream Vera Sans'" font-size="12.666px" opacity=".8" xml:space="preserve"><tspan x="-1116.8396" y="-1395.7104"/></text>
 <text x="343.70316" y="-1668.9446" font-family="'Bitstream Vera Sans'" font-size="12.666px" opacity=".8" xml:space="preserve"><tspan x="343.70316" y="-1668.9446"/></text>
 <text x="1829.8265" y="-1042.2533" font-family="'Bitstream Vera Sans'" font-size="12.666px" opacity=".8" xml:space="preserve"><tspan x="1829.8265" y="-1042.2533"/></text>
 <text x="1853.7874" y="-1082.9949" font-family="'Bitstream Vera Sans'" font-size="12.666px" opacity=".8" xml:space="preserve"><tspan x="1853.7874" y="-1082.9949"/></text>
 <text x="362.32431" y="-1090.2048" font-family="'Bitstream Vera Sans'" font-size="12.666px" opacity=".8" xml:space="preserve"><tspan x="362.32431" y="-1090.2048"/></text>
 <text x="1822.8671" y="-1363.439" font-family="'Bitstream Vera Sans'" font-size="12.666px" opacity=".8" xml:space="preserve"><tspan x="1822.8671" y="-1363.439"/></text>
 <text x="-575.492" y="-1138.2961" font-family="'Bitstream Vera Sans'" font-size="12.666px" opacity=".8" xml:space="preserve"><tspan x="-575.492" y="-1138.2961"/></text>
 <text x="-2399.1777" y="-392.74261" font-family="'Bitstream Vera Sans'" font-size="12.666px" opacity=".8" xml:space="preserve"><tspan x="-2399.1777" y="-392.74261"/></text>
 <text x="-684.42224" y="-299.87045" font-family="'Bitstream Vera Sans'" font-size="12.666px" opacity=".8" xml:space="preserve"><tspan x="-684.42224" y="-299.87045"/></text>
 <text x="155.5923" y="-58.956276" font-family="'Bitstream Vera Sans'" font-size="12.666px" opacity=".8" xml:space="preserve"><tspan x="155.5923" y="-58.956276"/></text>
 <text x="179.55324" y="-99.697998" font-family="'Bitstream Vera Sans'" font-size="12.666px" opacity=".8" xml:space="preserve"><tspan x="179.55324" y="-99.697998"/></text>
 <text x="-1090.2634" y="-293.72662" font-family="'Bitstream Vera Sans'" font-size="12.666px" opacity=".8" xml:space="preserve"><tspan x="-1090.2634" y="-293.72662"/></text>
 <text x="-282.66141" y="-707.19678" font-family="'Bitstream Vera Sans'" font-size="12.666px" opacity=".8" xml:space="preserve"><tspan x="-282.66141" y="-707.19678"/></text>
 <text x="-258.70047" y="-747.93848" font-family="'Bitstream Vera Sans'" font-size="12.666px" opacity=".8" xml:space="preserve"><tspan x="-258.70047" y="-747.93848"/></text>
 <text x="-1750.1636" y="-755.14838" font-family="'Bitstream Vera Sans'" font-size="12.666px" opacity=".8" xml:space="preserve"><tspan x="-1750.1636" y="-755.14838"/></text>
 <text x="-289.62085" y="-1028.3826" font-family="'Bitstream Vera Sans'" font-size="12.666px" opacity=".8" xml:space="preserve"><tspan x="-289.62085" y="-1028.3826"/></text>
 <text x="1196.5026" y="-401.69113" font-family="'Bitstream Vera Sans'" font-size="12.666px" opacity=".8" xml:space="preserve"><tspan x="1196.5026" y="-401.69113"/></text>
 <text x="1220.4634" y="-442.43286" font-family="'Bitstream Vera Sans'" font-size="12.666px" opacity=".8" xml:space="preserve"><tspan x="1220.4634" y="-442.43286"/></text>
 <text x="-270.99973" y="-449.64282" font-family="'Bitstream Vera Sans'" font-size="12.666px" opacity=".8" xml:space="preserve"><tspan x="-270.99973" y="-449.64282"/></text>
 <text x="1189.5431" y="-722.87689" font-family="'Bitstream Vera Sans'" font-size="12.666px" opacity=".8" xml:space="preserve"><tspan x="1189.5431" y="-722.87689"/></text>
 <text x="-1208.816" y="-497.7341" font-family="'Bitstream Vera Sans'" font-size="12.666px" opacity=".8" xml:space="preserve"><tspan x="-1208.816" y="-497.7341"/></text>
 <text x="-3032.5017" y="247.81946" font-family="'Bitstream Vera Sans'" font-size="12.666px" opacity=".8" xml:space="preserve"><tspan x="-3032.5017" y="247.81946"/></text>
 <g transform="matrix(.90475 0 0 .90475 -716.75 -708.29)">
  <text x="-664.2738" y="1159.4154" font-family="'Bitstream Vera Sans'" font-size="14px" opacity=".8" xml:space="preserve"><tspan x="-664.2738" y="1159.4154"/></text>
 </g>
 <text x="877.22626" y="-13.949411" font-family="'Bitstream Vera Sans'" font-size="12.666px" opacity=".8" xml:space="preserve"><tspan x="877.22626" y="-13.949411"/></text>
 <text x="901.18719" y="-54.691116" font-family="'Bitstream Vera Sans'" font-size="12.666px" opacity=".8" xml:space="preserve"><tspan x="901.18719" y="-54.691116"/></text>
 <text x="-569.37115" y="-84.769257" font-family="'Bitstream Vera Sans'" font-size="12.666px" opacity=".8" xml:space="preserve"><tspan x="-569.37115" y="-84.769257"/></text>
 <text x="-2393.0571" y="660.78418" font-family="'Bitstream Vera Sans'" font-size="12.666px" opacity=".8" xml:space="preserve"><tspan x="-2393.0571" y="660.78418"/></text>
 <text x="-454.88007" y="-470.09021" font-family="'Bitstream Vera Sans'" font-size="12.666px" opacity=".8" xml:space="preserve"><tspan x="-454.88007" y="-470.09021"/></text>
 <text x="352.72208" y="-883.5603" font-family="'Bitstream Vera Sans'" font-size="12.666px" opacity=".8" xml:space="preserve"><tspan x="352.72208" y="-883.5603"/></text>
 <text x="376.68301" y="-924.30206" font-family="'Bitstream Vera Sans'" font-size="12.666px" opacity=".8" xml:space="preserve"><tspan x="376.68301" y="-924.30206"/></text>
 <text x="-1114.7802" y="-931.51196" font-family="'Bitstream Vera Sans'" font-size="12.666px" opacity=".8" xml:space="preserve"><tspan x="-1114.7802" y="-931.51196"/></text>
 <text x="345.7626" y="-1204.7461" font-family="'Bitstream Vera Sans'" font-size="12.666px" opacity=".8" xml:space="preserve"><tspan x="345.7626" y="-1204.7461"/></text>
 <text x="1831.8861" y="-578.05475" font-family="'Bitstream Vera Sans'" font-size="12.666px" opacity=".8" xml:space="preserve"><tspan x="1831.8861" y="-578.05475"/></text>
 <text x="1855.8469" y="-618.79651" font-family="'Bitstream Vera Sans'" font-size="12.666px" opacity=".8" xml:space="preserve"><tspan x="1855.8469" y="-618.79651"/></text>
 <text x="364.38376" y="-626.00641" font-family="'Bitstream Vera Sans'" font-size="12.666px" opacity=".8" xml:space="preserve"><tspan x="364.38376" y="-626.00641"/></text>
 <text x="1824.9266" y="-899.24036" font-family="'Bitstream Vera Sans'" font-size="12.666px" opacity=".8" xml:space="preserve"><tspan x="1824.9266" y="-899.24036"/></text>
 <text x="-573.43256" y="-674.09772" font-family="'Bitstream Vera Sans'" font-size="12.666px" opacity=".8" xml:space="preserve"><tspan x="-573.43256" y="-674.09772"/></text>
 <text x="-2397.1182" y="71.455849" font-family="'Bitstream Vera Sans'" font-size="12.666px" opacity=".8" xml:space="preserve"><tspan x="-2397.1182" y="71.455849"/></text>
 <text x="-682.36279" y="164.32799" font-family="'Bitstream Vera Sans'" font-size="12.666px" opacity=".8" xml:space="preserve"><tspan x="-682.36279" y="164.32799"/></text>
 <text x="426.66153" y="-14.85416" font-family="'Bitstream Vera Sans'" font-size="12.666px" opacity=".8" xml:space="preserve"><tspan x="426.66153" y="-14.85416"/></text>
 <text x="450.62247" y="-55.595863" font-family="'Bitstream Vera Sans'" font-size="12.666px" opacity=".8" xml:space="preserve"><tspan x="450.62247" y="-55.595863"/></text>
 <text x="-1040.8407" y="-62.805836" font-family="'Bitstream Vera Sans'" font-size="12.666px" opacity=".8" xml:space="preserve"><tspan x="-1040.8407" y="-62.805836"/></text>
 <text x="419.70206" y="-336.03989" font-family="'Bitstream Vera Sans'" font-size="12.666px" opacity=".8" xml:space="preserve"><tspan x="419.70206" y="-336.03989"/></text>
 <text x="-608.03253" y="-65.520081" font-family="'Bitstream Vera Sans'" font-size="12.666px" opacity=".8" xml:space="preserve"><tspan x="-608.03253" y="-65.520081"/></text>
 <text x="-2431.7185" y="680.03345" font-family="'Bitstream Vera Sans'" font-size="12.666px" opacity=".8" xml:space="preserve"><tspan x="-2431.7185" y="680.03345"/></text>
 <text x="-456.93948" y="-927.0506" font-family="'Bitstream Vera Sans'" font-size="12.666px" opacity=".8" xml:space="preserve"><tspan x="-456.93948" y="-927.0506"/></text>
 <text x="350.66266" y="-1340.5208" font-family="'Bitstream Vera Sans'" font-size="12.666px" opacity=".8" xml:space="preserve"><tspan x="350.66266" y="-1340.5208"/></text>
 <text x="374.62357" y="-1381.2626" font-family="'Bitstream Vera Sans'" font-size="12.666px" opacity=".8" xml:space="preserve"><tspan x="374.62357" y="-1381.2626"/></text>
 <text x="-1116.8396" y="-1388.4724" font-family="'Bitstream Vera Sans'" font-size="12.666px" opacity=".8" xml:space="preserve"><tspan x="-1116.8396" y="-1388.4724"/></text>
 <text x="343.70316" y="-1661.7065" font-family="'Bitstream Vera Sans'" font-size="12.666px" opacity=".8" xml:space="preserve"><tspan x="343.70316" y="-1661.7065"/></text>
 <text x="1829.8265" y="-1035.0154" font-family="'Bitstream Vera Sans'" font-size="12.666px" opacity=".8" xml:space="preserve"><tspan x="1829.8265" y="-1035.0154"/></text>
 <text x="1853.7874" y="-1075.757" font-family="'Bitstream Vera Sans'" font-size="12.666px" opacity=".8" xml:space="preserve"><tspan x="1853.7874" y="-1075.757"/></text>
 <text x="362.32431" y="-1082.9668" font-family="'Bitstream Vera Sans'" font-size="12.666px" opacity=".8" xml:space="preserve"><tspan x="362.32431" y="-1082.9668"/></text>
 <text x="1822.8671" y="-1356.2009" font-family="'Bitstream Vera Sans'" font-size="12.666px" opacity=".8" xml:space="preserve"><tspan x="1822.8671" y="-1356.2009"/></text>
 <text x="-575.492" y="-1131.0581" font-family="'Bitstream Vera Sans'" font-size="12.666px" opacity=".8" xml:space="preserve"><tspan x="-575.492" y="-1131.0581"/></text>
 <text x="-2399.1777" y="-385.50461" font-family="'Bitstream Vera Sans'" font-size="12.666px" opacity=".8" xml:space="preserve"><tspan x="-2399.1777" y="-385.50461"/></text>
 <text x="-684.42224" y="-292.63245" font-family="'Bitstream Vera Sans'" font-size="12.666px" opacity=".8" xml:space="preserve"><tspan x="-684.42224" y="-292.63245"/></text>
 <text x="155.5923" y="-51.718292" font-family="'Bitstream Vera Sans'" font-size="12.666px" opacity=".8" xml:space="preserve"><tspan x="155.5923" y="-51.718292"/></text>
 <text x="179.55324" y="-92.460007" font-family="'Bitstream Vera Sans'" font-size="12.666px" opacity=".8" xml:space="preserve"><tspan x="179.55324" y="-92.460007"/></text>
 <text x="-1090.2634" y="-286.48859" font-family="'Bitstream Vera Sans'" font-size="12.666px" opacity=".8" xml:space="preserve"><tspan x="-1090.2634" y="-286.48859"/></text>
 <text x="-282.66141" y="-699.9588" font-family="'Bitstream Vera Sans'" font-size="12.666px" opacity=".8" xml:space="preserve"><tspan x="-282.66141" y="-699.9588"/></text>
 <text x="-258.70047" y="-740.7005" font-family="'Bitstream Vera Sans'" font-size="12.666px" opacity=".8" xml:space="preserve"><tspan x="-258.70047" y="-740.7005"/></text>
 <text x="-1750.1636" y="-747.91046" font-family="'Bitstream Vera Sans'" font-size="12.666px" opacity=".8" xml:space="preserve"><tspan x="-1750.1636" y="-747.91046"/></text>
 <text x="-289.62085" y="-1021.1445" font-family="'Bitstream Vera Sans'" font-size="12.666px" opacity=".8" xml:space="preserve"><tspan x="-289.62085" y="-1021.1445"/></text>
 <text x="1196.5026" y="-394.45316" font-family="'Bitstream Vera Sans'" font-size="12.666px" opacity=".8" xml:space="preserve"><tspan x="1196.5026" y="-394.45316"/></text>
 <text x="1220.4634" y="-435.19489" font-family="'Bitstream Vera Sans'" font-size="12.666px" opacity=".8" xml:space="preserve"><tspan x="1220.4634" y="-435.19489"/></text>
 <text x="-270.99973" y="-442.40482" font-family="'Bitstream Vera Sans'" font-size="12.666px" opacity=".8" xml:space="preserve"><tspan x="-270.99973" y="-442.40482"/></text>
 <text x="1189.5431" y="-715.63892" font-family="'Bitstream Vera Sans'" font-size="12.666px" opacity=".8" xml:space="preserve"><tspan x="1189.5431" y="-715.63892"/></text>
 <text x="-1208.816" y="-490.49609" font-family="'Bitstream Vera Sans'" font-size="12.666px" opacity=".8" xml:space="preserve"><tspan x="-1208.816" y="-490.49609"/></text>
 <text x="-3032.5017" y="255.05743" font-family="'Bitstream Vera Sans'" font-size="12.666px" opacity=".8" xml:space="preserve"><tspan x="-3032.5017" y="255.05743"/></text>
 <g transform="matrix(.90475 0 0 .90475 -716.75 -701.05)">
  <text x="-664.2738" y="1159.4154" font-family="'Bitstream Vera Sans'" font-size="14px" opacity=".8" xml:space="preserve"><tspan x="-664.2738" y="1159.4154"/></text>
 </g>
 <text x="435.90427" y="-393.22546" font-family="'Droid Sans'" font-size="12.666px" xml:space="preserve"><tspan x="435.90427" y="-393.22546"/><tspan x="435.90427" y="-377.3924"/></text>
 <text x="901.0882" y="-875.27002" font-family="'Bitstream Vera Sans'" font-size="12.666px" opacity=".8" xml:space="preserve"><tspan x="901.0882" y="-875.27002"/></text>
 <text x="-922.59778" y="-129.71655" font-family="'Bitstream Vera Sans'" font-size="12.666px" opacity=".8" xml:space="preserve"><tspan x="-922.59778" y="-129.71655"/></text>
 <text x="1628.1677" y="-1160.2659" font-family="'Bitstream Vera Sans'" font-size="12.666px" opacity=".8" xml:space="preserve"><tspan x="1628.1677" y="-1160.2659"/></text>
 <text x="1652.1285" y="-1201.0076" font-family="'Bitstream Vera Sans'" font-size="12.666px" opacity=".8" xml:space="preserve"><tspan x="1652.1285" y="-1201.0076"/></text>
 <text x="160.66542" y="-1208.2175" font-family="'Bitstream Vera Sans'" font-size="12.666px" opacity=".8" xml:space="preserve"><tspan x="160.66542" y="-1208.2175"/></text>
 <text x="1621.2083" y="-1481.4517" font-family="'Bitstream Vera Sans'" font-size="12.666px" opacity=".8" xml:space="preserve"><tspan x="1621.2083" y="-1481.4517"/></text>
 <text x="819.32794" y="-35.830967" font-family="'Bitstream Vera Sans'" font-size="12.666px" opacity=".8" xml:space="preserve"><tspan x="819.32794" y="-35.830967"/></text>
 <text x="843.28888" y="-76.572678" font-family="'Bitstream Vera Sans'" font-size="12.666px" opacity=".8" xml:space="preserve"><tspan x="843.28888" y="-76.572678"/></text>
 <text x="-627.26947" y="-106.65082" font-family="'Bitstream Vera Sans'" font-size="12.666px" opacity=".8" xml:space="preserve"><tspan x="-627.26947" y="-106.65082"/></text>
 <text x="-2450.9553" y="638.90265" font-family="'Bitstream Vera Sans'" font-size="12.666px" opacity=".8" xml:space="preserve"><tspan x="-2450.9553" y="638.90265"/></text>
 <text x="-512.77838" y="-491.97177" font-family="'Bitstream Vera Sans'" font-size="12.666px" opacity=".8" xml:space="preserve"><tspan x="-512.77838" y="-491.97177"/></text>
 <text x="294.82376" y="-905.44189" font-family="'Bitstream Vera Sans'" font-size="12.666px" opacity=".8" xml:space="preserve"><tspan x="294.82376" y="-905.44189"/></text>
 <text x="318.7847" y="-946.18359" font-family="'Bitstream Vera Sans'" font-size="12.666px" opacity=".8" xml:space="preserve"><tspan x="318.7847" y="-946.18359"/></text>
 <text x="-1172.6785" y="-953.39349" font-family="'Bitstream Vera Sans'" font-size="12.666px" opacity=".8" xml:space="preserve"><tspan x="-1172.6785" y="-953.39349"/></text>
 <text x="287.86429" y="-1226.6277" font-family="'Bitstream Vera Sans'" font-size="12.666px" opacity=".8" xml:space="preserve"><tspan x="287.86429" y="-1226.6277"/></text>
 <text x="1773.9878" y="-599.93628" font-family="'Bitstream Vera Sans'" font-size="12.666px" opacity=".8" xml:space="preserve"><tspan x="1773.9878" y="-599.93628"/></text>
 <text x="1797.9486" y="-640.67804" font-family="'Bitstream Vera Sans'" font-size="12.666px" opacity=".8" xml:space="preserve"><tspan x="1797.9486" y="-640.67804"/></text>
 <text x="306.48544" y="-647.88794" font-family="'Bitstream Vera Sans'" font-size="12.666px" opacity=".8" xml:space="preserve"><tspan x="306.48544" y="-647.88794"/></text>
 <text x="1767.0283" y="-921.12195" font-family="'Bitstream Vera Sans'" font-size="12.666px" opacity=".8" xml:space="preserve"><tspan x="1767.0283" y="-921.12195"/></text>
 <text x="-631.33087" y="-695.97925" font-family="'Bitstream Vera Sans'" font-size="12.666px" opacity=".8" xml:space="preserve"><tspan x="-631.33087" y="-695.97925"/></text>
 <text x="-2455.0164" y="49.574287" font-family="'Bitstream Vera Sans'" font-size="12.666px" opacity=".8" xml:space="preserve"><tspan x="-2455.0164" y="49.574287"/></text>
 <text x="-740.26111" y="142.44643" font-family="'Bitstream Vera Sans'" font-size="12.666px" opacity=".8" xml:space="preserve"><tspan x="-740.26111" y="142.44643"/></text>
 <text x="368.76321" y="-36.735718" font-family="'Bitstream Vera Sans'" font-size="12.666px" opacity=".8" xml:space="preserve"><tspan x="368.76321" y="-36.735718"/></text>
 <text x="392.72415" y="-77.477417" font-family="'Bitstream Vera Sans'" font-size="12.666px" opacity=".8" xml:space="preserve"><tspan x="392.72415" y="-77.477417"/></text>
 <text x="-1098.739" y="-84.687393" font-family="'Bitstream Vera Sans'" font-size="12.666px" opacity=".8" xml:space="preserve"><tspan x="-1098.739" y="-84.687393"/></text>
 <text x="361.80374" y="-357.92145" font-family="'Bitstream Vera Sans'" font-size="12.666px" opacity=".8" xml:space="preserve"><tspan x="361.80374" y="-357.92145"/></text>
 <text x="-665.93085" y="-87.401642" font-family="'Bitstream Vera Sans'" font-size="12.666px" opacity=".8" xml:space="preserve"><tspan x="-665.93085" y="-87.401642"/></text>
 <text x="-2489.6167" y="658.15186" font-family="'Bitstream Vera Sans'" font-size="12.666px" opacity=".8" xml:space="preserve"><tspan x="-2489.6167" y="658.15186"/></text>
 <text x="-514.83777" y="-948.93213" font-family="'Bitstream Vera Sans'" font-size="12.666px" opacity=".8" xml:space="preserve"><tspan x="-514.83777" y="-948.93213"/></text>
 <text x="292.76434" y="-1362.4023" font-family="'Bitstream Vera Sans'" font-size="12.666px" opacity=".8" xml:space="preserve"><tspan x="292.76434" y="-1362.4023"/></text>
 <text x="316.72525" y="-1403.144" font-family="'Bitstream Vera Sans'" font-size="12.666px" opacity=".8" xml:space="preserve"><tspan x="316.72525" y="-1403.144"/></text>
 <text x="-1174.7379" y="-1410.354" font-family="'Bitstream Vera Sans'" font-size="12.666px" opacity=".8" xml:space="preserve"><tspan x="-1174.7379" y="-1410.354"/></text>
 <text x="285.80484" y="-1683.5881" font-family="'Bitstream Vera Sans'" font-size="12.666px" opacity=".8" xml:space="preserve"><tspan x="285.80484" y="-1683.5881"/></text>
 <text x="1771.9282" y="-1056.8969" font-family="'Bitstream Vera Sans'" font-size="12.666px" opacity=".8" xml:space="preserve"><tspan x="1771.9282" y="-1056.8969"/></text>
 <text x="1795.889" y="-1097.6384" font-family="'Bitstream Vera Sans'" font-size="12.666px" opacity=".8" xml:space="preserve"><tspan x="1795.889" y="-1097.6384"/></text>
 <text x="304.42599" y="-1104.8484" font-family="'Bitstream Vera Sans'" font-size="12.666px" opacity=".8" xml:space="preserve"><tspan x="304.42599" y="-1104.8484"/></text>
 <text x="1764.9688" y="-1378.0825" font-family="'Bitstream Vera Sans'" font-size="12.666px" opacity=".8" xml:space="preserve"><tspan x="1764.9688" y="-1378.0825"/></text>
 <text x="-633.39032" y="-1152.9397" font-family="'Bitstream Vera Sans'" font-size="12.666px" opacity=".8" xml:space="preserve"><tspan x="-633.39032" y="-1152.9397"/></text>
 <text x="-2457.0759" y="-407.38617" font-family="'Bitstream Vera Sans'" font-size="12.666px" opacity=".8" xml:space="preserve"><tspan x="-2457.0759" y="-407.38617"/></text>
 <text x="-742.32056" y="-314.51401" font-family="'Bitstream Vera Sans'" font-size="12.666px" opacity=".8" xml:space="preserve"><tspan x="-742.32056" y="-314.51401"/></text>
 <text x="97.693993" y="-73.599838" font-family="'Bitstream Vera Sans'" font-size="12.666px" opacity=".8" xml:space="preserve"><tspan x="97.693993" y="-73.599838"/></text>
 <text x="121.65493" y="-114.34157" font-family="'Bitstream Vera Sans'" font-size="12.666px" opacity=".8" xml:space="preserve"><tspan x="121.65493" y="-114.34157"/></text>
 <text x="-1148.1617" y="-308.37018" font-family="'Bitstream Vera Sans'" font-size="12.666px" opacity=".8" xml:space="preserve"><tspan x="-1148.1617" y="-308.37018"/></text>
 <text x="-340.55972" y="-721.84033" font-family="'Bitstream Vera Sans'" font-size="12.666px" opacity=".8" xml:space="preserve"><tspan x="-340.55972" y="-721.84033"/></text>
 <text x="-316.59879" y="-762.58203" font-family="'Bitstream Vera Sans'" font-size="12.666px" opacity=".8" xml:space="preserve"><tspan x="-316.59879" y="-762.58203"/></text>
 <text x="-1808.0619" y="-769.79193" font-family="'Bitstream Vera Sans'" font-size="12.666px" opacity=".8" xml:space="preserve"><tspan x="-1808.0619" y="-769.79193"/></text>
 <text x="-347.51917" y="-1043.0261" font-family="'Bitstream Vera Sans'" font-size="12.666px" opacity=".8" xml:space="preserve"><tspan x="-347.51917" y="-1043.0261"/></text>
 <text x="1138.6042" y="-416.33469" font-family="'Bitstream Vera Sans'" font-size="12.666px" opacity=".8" xml:space="preserve"><tspan x="1138.6042" y="-416.33469"/></text>
 <text x="1162.5651" y="-457.07642" font-family="'Bitstream Vera Sans'" font-size="12.666px" opacity=".8" xml:space="preserve"><tspan x="1162.5651" y="-457.07642"/></text>
 <text x="-328.89804" y="-464.28638" font-family="'Bitstream Vera Sans'" font-size="12.666px" opacity=".8" xml:space="preserve"><tspan x="-328.89804" y="-464.28638"/></text>
 <text x="1131.6448" y="-737.52045" font-family="'Bitstream Vera Sans'" font-size="12.666px" opacity=".8" xml:space="preserve"><tspan x="1131.6448" y="-737.52045"/></text>
 <text x="-1266.7144" y="-512.37769" font-family="'Bitstream Vera Sans'" font-size="12.666px" opacity=".8" xml:space="preserve"><tspan x="-1266.7144" y="-512.37769"/></text>
 <text x="-3090.3999" y="233.17589" font-family="'Bitstream Vera Sans'" font-size="12.666px" opacity=".8" xml:space="preserve"><tspan x="-3090.3999" y="233.17589"/></text>
 <text x="-1375.65" y="326.04752" font-family="'Bitstream Vera Sans'" font-size="12.667px" opacity=".8" xml:space="preserve"><tspan x="-1375.65" y="326.04752"/></text>
 <text x="819.32794" y="-28.592979" font-family="'Bitstream Vera Sans'" font-size="12.666px" opacity=".8" xml:space="preserve"><tspan x="819.32794" y="-28.592979"/></text>
 <text x="843.28888" y="-69.334686" font-family="'Bitstream Vera Sans'" font-size="12.666px" opacity=".8" xml:space="preserve"><tspan x="843.28888" y="-69.334686"/></text>
 <text x="-627.26947" y="-99.412827" font-family="'Bitstream Vera Sans'" font-size="12.666px" opacity=".8" xml:space="preserve"><tspan x="-627.26947" y="-99.412827"/></text>
 <text x="-2450.9553" y="646.14062" font-family="'Bitstream Vera Sans'" font-size="12.666px" opacity=".8" xml:space="preserve"><tspan x="-2450.9553" y="646.14062"/></text>
 <text x="-512.77838" y="-484.73376" font-family="'Bitstream Vera Sans'" font-size="12.666px" opacity=".8" xml:space="preserve"><tspan x="-512.77838" y="-484.73376"/></text>
 <text x="294.82376" y="-898.20386" font-family="'Bitstream Vera Sans'" font-size="12.666px" opacity=".8" xml:space="preserve"><tspan x="294.82376" y="-898.20386"/></text>
 <text x="318.7847" y="-938.94562" font-family="'Bitstream Vera Sans'" font-size="12.666px" opacity=".8" xml:space="preserve"><tspan x="318.7847" y="-938.94562"/></text>
 <text x="-1172.6785" y="-946.15552" font-family="'Bitstream Vera Sans'" font-size="12.666px" opacity=".8" xml:space="preserve"><tspan x="-1172.6785" y="-946.15552"/></text>
 <text x="287.86429" y="-1219.3896" font-family="'Bitstream Vera Sans'" font-size="12.666px" opacity=".8" xml:space="preserve"><tspan x="287.86429" y="-1219.3896"/></text>
 <text x="1773.9878" y="-592.6983" font-family="'Bitstream Vera Sans'" font-size="12.666px" opacity=".8" xml:space="preserve"><tspan x="1773.9878" y="-592.6983"/></text>
 <text x="1797.9486" y="-633.44006" font-family="'Bitstream Vera Sans'" font-size="12.666px" opacity=".8" xml:space="preserve"><tspan x="1797.9486" y="-633.44006"/></text>
 <text x="306.48544" y="-640.64996" font-family="'Bitstream Vera Sans'" font-size="12.666px" opacity=".8" xml:space="preserve"><tspan x="306.48544" y="-640.64996"/></text>
 <text x="1767.0283" y="-913.88391" font-family="'Bitstream Vera Sans'" font-size="12.666px" opacity=".8" xml:space="preserve"><tspan x="1767.0283" y="-913.88391"/></text>
 <text x="-631.33087" y="-688.74127" font-family="'Bitstream Vera Sans'" font-size="12.666px" opacity=".8" xml:space="preserve"><tspan x="-631.33087" y="-688.74127"/></text>
 <text x="-2455.0164" y="56.812279" font-family="'Bitstream Vera Sans'" font-size="12.666px" opacity=".8" xml:space="preserve"><tspan x="-2455.0164" y="56.812279"/></text>
 <text x="-740.26111" y="149.68442" font-family="'Bitstream Vera Sans'" font-size="12.666px" opacity=".8" xml:space="preserve"><tspan x="-740.26111" y="149.68442"/></text>
 <text x="368.76321" y="-29.497728" font-family="'Bitstream Vera Sans'" font-size="12.666px" opacity=".8" xml:space="preserve"><tspan x="368.76321" y="-29.497728"/></text>
 <text x="392.72415" y="-70.239426" font-family="'Bitstream Vera Sans'" font-size="12.666px" opacity=".8" xml:space="preserve"><tspan x="392.72415" y="-70.239426"/></text>
 <text x="-1098.739" y="-77.449402" font-family="'Bitstream Vera Sans'" font-size="12.666px" opacity=".8" xml:space="preserve"><tspan x="-1098.739" y="-77.449402"/></text>
 <text x="361.80374" y="-350.68344" font-family="'Bitstream Vera Sans'" font-size="12.666px" opacity=".8" xml:space="preserve"><tspan x="361.80374" y="-350.68344"/></text>
 <text x="-665.93085" y="-80.163651" font-family="'Bitstream Vera Sans'" font-size="12.666px" opacity=".8" xml:space="preserve"><tspan x="-665.93085" y="-80.163651"/></text>
 <text x="-2489.6167" y="665.38989" font-family="'Bitstream Vera Sans'" font-size="12.666px" opacity=".8" xml:space="preserve"><tspan x="-2489.6167" y="665.38989"/></text>
 <text x="-514.83777" y="-941.69415" font-family="'Bitstream Vera Sans'" font-size="12.666px" opacity=".8" xml:space="preserve"><tspan x="-514.83777" y="-941.69415"/></text>
 <text x="292.76434" y="-1355.1643" font-family="'Bitstream Vera Sans'" font-size="12.666px" opacity=".8" xml:space="preserve"><tspan x="292.76434" y="-1355.1643"/></text>
 <text x="316.72525" y="-1395.9061" font-family="'Bitstream Vera Sans'" font-size="12.666px" opacity=".8" xml:space="preserve"><tspan x="316.72525" y="-1395.9061"/></text>
 <text x="-1174.7379" y="-1403.116" font-family="'Bitstream Vera Sans'" font-size="12.666px" opacity=".8" xml:space="preserve"><tspan x="-1174.7379" y="-1403.116"/></text>
 <text x="285.80484" y="-1676.3501" font-family="'Bitstream Vera Sans'" font-size="12.666px" opacity=".8" xml:space="preserve"><tspan x="285.80484" y="-1676.3501"/></text>
 <text x="1771.9282" y="-1049.6589" font-family="'Bitstream Vera Sans'" font-size="12.666px" opacity=".8" xml:space="preserve"><tspan x="1771.9282" y="-1049.6589"/></text>
 <text x="1795.889" y="-1090.4005" font-family="'Bitstream Vera Sans'" font-size="12.666px" opacity=".8" xml:space="preserve"><tspan x="1795.889" y="-1090.4005"/></text>
 <text x="304.42599" y="-1097.6104" font-family="'Bitstream Vera Sans'" font-size="12.666px" opacity=".8" xml:space="preserve"><tspan x="304.42599" y="-1097.6104"/></text>
 <text x="1764.9688" y="-1370.8445" font-family="'Bitstream Vera Sans'" font-size="12.666px" opacity=".8" xml:space="preserve"><tspan x="1764.9688" y="-1370.8445"/></text>
 <text x="-633.39032" y="-1145.7017" font-family="'Bitstream Vera Sans'" font-size="12.666px" opacity=".8" xml:space="preserve"><tspan x="-633.39032" y="-1145.7017"/></text>
 <text x="-2457.0759" y="-400.14816" font-family="'Bitstream Vera Sans'" font-size="12.666px" opacity=".8" xml:space="preserve"><tspan x="-2457.0759" y="-400.14816"/></text>
 <text x="-742.32056" y="-307.276" font-family="'Bitstream Vera Sans'" font-size="12.666px" opacity=".8" xml:space="preserve"><tspan x="-742.32056" y="-307.276"/></text>
 <text x="97.693993" y="-66.361862" font-family="'Bitstream Vera Sans'" font-size="12.666px" opacity=".8" xml:space="preserve"><tspan x="97.693993" y="-66.361862"/></text>
 <text x="121.65493" y="-107.10358" font-family="'Bitstream Vera Sans'" font-size="12.666px" opacity=".8" xml:space="preserve"><tspan x="121.65493" y="-107.10358"/></text>
 <text x="-1148.1617" y="-301.13214" font-family="'Bitstream Vera Sans'" font-size="12.666px" opacity=".8" xml:space="preserve"><tspan x="-1148.1617" y="-301.13214"/></text>
 <text x="-340.55972" y="-714.60236" font-family="'Bitstream Vera Sans'" font-size="12.666px" opacity=".8" xml:space="preserve"><tspan x="-340.55972" y="-714.60236"/></text>
 <text x="-316.59879" y="-755.34406" font-family="'Bitstream Vera Sans'" font-size="12.666px" opacity=".8" xml:space="preserve"><tspan x="-316.59879" y="-755.34406"/></text>
 <text x="-1808.0619" y="-762.55402" font-family="'Bitstream Vera Sans'" font-size="12.666px" opacity=".8" xml:space="preserve"><tspan x="-1808.0619" y="-762.55402"/></text>
 <text x="-347.51917" y="-1035.7881" font-family="'Bitstream Vera Sans'" font-size="12.666px" opacity=".8" xml:space="preserve"><tspan x="-347.51917" y="-1035.7881"/></text>
 <text x="1138.6042" y="-409.09671" font-family="'Bitstream Vera Sans'" font-size="12.666px" opacity=".8" xml:space="preserve"><tspan x="1138.6042" y="-409.09671"/></text>
 <text x="1162.5651" y="-449.83844" font-family="'Bitstream Vera Sans'" font-size="12.666px" opacity=".8" xml:space="preserve"><tspan x="1162.5651" y="-449.83844"/></text>
 <text x="-328.89804" y="-457.04837" font-family="'Bitstream Vera Sans'" font-size="12.666px" opacity=".8" xml:space="preserve"><tspan x="-328.89804" y="-457.04837"/></text>
 <text x="1131.6448" y="-730.28247" font-family="'Bitstream Vera Sans'" font-size="12.666px" opacity=".8" xml:space="preserve"><tspan x="1131.6448" y="-730.28247"/></text>
 <text x="-1266.7144" y="-505.13965" font-family="'Bitstream Vera Sans'" font-size="12.666px" opacity=".8" xml:space="preserve"><tspan x="-1266.7144" y="-505.13965"/></text>
 <text x="-3090.3999" y="240.41388" font-family="'Bitstream Vera Sans'" font-size="12.666px" opacity=".8" xml:space="preserve"><tspan x="-3090.3999" y="240.41388"/></text>
 <text x="-1375.65" y="333.28751" font-family="'Bitstream Vera Sans'" font-size="12.667px" opacity=".8" xml:space="preserve"><tspan x="-1375.65" y="333.28751"/></text>
 <text x="378.00595" y="-407.86902" font-family="'Droid Sans'" font-size="12.666px" xml:space="preserve"><tspan x="378.00595" y="-407.86902"/><tspan x="378.00595" y="-392.03595"/></text>
 <text x="843.18988" y="-889.91357" font-family="'Bitstream Vera Sans'" font-size="12.666px" opacity=".8" xml:space="preserve"><tspan x="843.18988" y="-889.91357"/></text>
 <text x="-980.49609" y="-144.36012" font-family="'Bitstream Vera Sans'" font-size="12.666px" opacity=".8" xml:space="preserve"><tspan x="-980.49609" y="-144.36012"/></text>
 <text x="1570.2694" y="-1174.9094" font-family="'Bitstream Vera Sans'" font-size="12.666px" opacity=".8" xml:space="preserve"><tspan x="1570.2694" y="-1174.9094"/></text>
 <text x="1594.2302" y="-1215.6511" font-family="'Bitstream Vera Sans'" font-size="12.666px" opacity=".8" xml:space="preserve"><tspan x="1594.2302" y="-1215.6511"/></text>
 <text x="102.76711" y="-1222.8611" font-family="'Bitstream Vera Sans'" font-size="12.666px" opacity=".8" xml:space="preserve"><tspan x="102.76711" y="-1222.8611"/></text>
 <text x="1563.3099" y="-1496.0952" font-family="'Bitstream Vera Sans'" font-size="12.666px" opacity=".8" xml:space="preserve"><tspan x="1563.3099" y="-1496.0952"/></text>
 <rect transform="matrix(0,-1,-1,0,0,0)" x="-15" y="-15" width="14" height="14" rx=".75" ry=".75" fill="#dcdcbe"/>
 <path d="m1.75 1c-0.4155 0-0.75 0.3345-0.75 0.75v12.5c0 0.4155 0.3345 0.75 0.75 0.75h12.5c0.4155 0 0.75-0.3345 0.75-0.75v-12.5c0-0.4155-0.3345-0.75-0.75-0.75h-12.5zm-0.25 0.5h1v1h-1v-1zm1.5 0h1v1h-1v-1zm1.5 0h1v1h-1v-1zm1.5 0h1v1h-1v-1zm1.5 0h1v1h-1v-1zm1.5 0h1v1h-1v-1zm1.5 0h1v1h-1v-1zm1.5 0h1v1h-1v-1zm1.5 0h1v1h-1v-1zm-12 1.5h1v1h-1v-1zm1.5 0h1v1h-1v-1zm1.5 0h1v1h-1v-1zm1.5 0h1v1h-1v-1zm1.5 0h1v1h-1v-1zm1.5 0h1v1h-1v-1zm1.5 0h1v1h-1v-1zm1.5 0h1v1h-1v-1zm1.5 0h1v1h-1v-1zm-12 1.5h1v1h-1v-1zm1.5 0h1v1h-1v-1zm1.5 0h1v1h-1v-1zm1.5 0h1v1h-1v-1zm1.5 0h1v1h-1v-1zm1.5 0h1v1h-1v-1zm1.5 0h1v1h-1v-1zm1.5 0h1v1h-1v-1zm1.5 0h1v1h-1v-1zm-12 1.5h1v1h-1v-1zm1.5 0h1v1h-1v-1zm1.5 0h1v1h-1v-1zm1.5 0h1v1h-1v-1zm1.5 0h1v1h-1v-1zm1.5 0h1v1h-1v-1zm1.5 0h1v1h-1v-1zm1.5 0h1v1h-1v-1zm1.5 0h1v1h-1v-1zm-12 1.5h1v1h-1v-1zm1.5 0h1v1h-1v-1zm1.5 0h1v1h-1v-1zm1.5 0h1v1h-1v-1zm1.5 0h1v1h-1v-1zm1.5 0h1v1h-1v-1zm1.5 0h1v1h-1v-1zm1.5 0h1v1h-1v-1zm1.5 0h1v1h-1v-1zm-12 1.5h1v1h-1v-1zm1.5 0h1v1h-1v-1zm1.5 0h1v1h-1v-1zm1.5 0h1v1h-1v-1zm1.5 0h1v1h-1v-1zm1.5 0h1v1h-1v-1zm1.5 0h1v1h-1v-1zm1.5 0h1v1h-1v-1zm1.5 0h1v1h-1v-1zm-12 1.5h1v1h-1v-1zm1.5 0h1v1h-1v-1zm1.5 0h1v1h-1v-1zm1.5 0h1v1h-1v-1zm1.5 0h1v1h-1v-1zm1.5 0h1v1h-1v-1zm1.5 0h1v1h-1v-1zm1.5 0h1v1h-1v-1zm1.5 0h1v1h-1v-1zm-12 1.5h1v1h-1v-1zm1.5 0h1v1h-1v-1zm1.5 0h1v1h-1v-1zm1.5 0h1v1h-1v-1zm1.5 0h1v1h-1v-1zm1.5 0h1v1h-1v-1zm1.5 0h1v1h-1v-1zm1.5 0h1v1h-1v-1zm1.5 0h1v1h-1v-1zm-12 1.5h1v1h-1v-1zm1.5 0h1v1h-1v-1zm1.5 0h1v1h-1v-1zm1.5 0h1v1h-1v-1zm1.5 0h1v1h-1v-1zm1.5 0h1v1h-1v-1zm1.5 0h1v1h-1v-1zm1.5 0h1v1h-1v-1zm1.5 0h1v1h-1v-1z" fill="#00008b" opacity=".1"/>
 <path d="m1.75 1c-0.4155 0-0.75 0.3345-0.75 0.75v0.5c0-0.4155 0.3345-0.75 0.75-0.75h12.5c0.4155 0 0.75 0.3345 0.75 0.75v-0.5c0-0.4155-0.3345-0.75-0.75-0.75h-12.5z" fill="#fff" opacity=".1"/>
 <g transform="matrix(.5 0 0 .5 .1105 .043602)" fill="#ff2f2f">
  <rect x="1.779" y="15.913" width="4" height="1"/>
  <rect x="7.779" y="15.913" width="4" height="1"/>
  <rect x="13.779" y="15.913" width="4" height="1"/>
  <rect x="19.779" y="15.913" width="4" height="1"/>
  <rect x="25.779" y="15.913" width="4" height="1"/>
 </g>
 <path d="m2.75 10.25s3.6038 2.0006 5 1c2.704-1.9378-2.6539-6.9415 0.5-8 2.0821-0.6987 4.5 4 4.5 4" fill="none" stroke="#2e2e2e" stroke-linecap="round" stroke-linejoin="round" stroke-width=".5"/>
</svg>
