<svg width="16" height="16" version="1.1" viewBox="0 0 16 16" xmlns="http://www.w3.org/2000/svg">
 <rect width="12" height="12" rx="1" ry="1" style="fill:#fecd38"/>
 <path d="m0 4v5h4.428571c-1.52967-3.6464311-3.059303-4.9296417-4.428571-5z" style="fill:#9d9d9d"/>
 <rect x="2" y="2" width="12" height="12" rx="1" ry="1" style="fill:#e97e10"/>
 <path d="m2 6v5h4.428571c-1.52967-3.6464311-3.059303-4.9296417-4.428571-5z" style="fill:#7d7d7d"/>
 <rect x="4" y="4" width="12" height="12" rx="1" ry="1" style="fill:#df574d"/>
 <circle cx="8" cy="10.75" r="1.75" style="fill:#fecd38"/>
 <path d="m4 8v5h4.428571c-1.52967-3.6464311-3.059303-4.9296417-4.428571-5z" style="fill:#5d5d5d"/>
 <path d="m7 13h9c-4.5-11.25-9 0-9 0z" style="fill:#e4e4e4"/>
</svg>
