<svg width="16" height="16" version="1" xmlns="http://www.w3.org/2000/svg">
 <rect transform="matrix(0,-1,-1,0,0,0)" x="-16" y="-16" width="16" height="16" rx=".857" ry=".857" fill="#4a5579"/>
 <path d="m4.6782 11.986c0-0.05 1.6696-2.0589 1.7053-2.0509 0.0197 0.0054 0.7668 0.3219 1.6573 0.7049 1.523 0.654 1.6246 0.693 1.665 0.638 0.0626-0.084 0.2772-0.533 0.3902-0.817l0.097-0.241-0.162-0.088c-0.2299-0.125-0.5672-0.4057-0.7781-0.6468-0.1927-0.2201-0.5403-0.7505-0.5403-0.8249 0-0.0246 0.1107 0.0874 0.246 0.2489 0.3789 0.4509 1.2524 1.1598 1.3074 1.0593 0.065-0.1198 0.108-0.4716 0.105-0.8809-3e-3 -0.499-0.068-0.8872-0.24-1.4229l-0.096-0.3008-0.4739-0.1485c-0.2616-0.0833-0.5232-0.1641-0.5818-0.1837-0.2057-0.0651-0.0767-0.0614 0.2226 0.0066 0.3592 0.0808 0.7251 0.1471 0.9501 0.1758 0.201 0.0247 0.244-0.0143 0.265-0.2345 0.027-0.2828-0.154-1.0643-0.339-1.4515-0.073-0.1551-0.1066-0.1901-0.2539-0.2569-0.4883-0.2281-2.0196-0.4366-2.6694-0.3685-0.2813 0.0287-0.5689 0.0977-0.6599 0.1551-0.0247 0.0197 0.1563 0.0637 0.4672 0.1211 0.28 0.052 0.4843 0.0977 0.4543 0.1054-0.034 0.0053-0.4713-0.0431-0.9802-0.1081-0.8904-0.1148-0.9231-0.1174-0.9881-0.0601-0.1303 0.1175-0.3149 0.4367-0.3542 0.6084-0.0363 0.1655-0.034 0.1851 0.0483 0.3532 0.1406 0.2879 0.4036 0.4977 0.9984 0.7989 0.2813 0.1461 0.5053 0.2658 0.4973 0.2748-9e-3 0.0077-0.25-0.082-0.5339-0.2008l-0.5196-0.2151-0.7615 0.2138c-0.4179 0.1161-0.7745 0.2124-0.7915 0.2124-0.021 0-0.0313-0.5056-0.0313-1.3628 0-1.3121 0.0027-1.3668 0.0677-1.5009 0.039-0.0821 0.1159-0.1695 0.1849-0.2112l0.1197-0.0743 3.4862-0.0104c1.9162-0.0053 3.5655 0 3.6585 0.0104 0.213 0.026 0.406 0.1824 0.457 0.3712 0.022 0.082 0.03 1.3238 0.024 3.6856l-9e-3 3.5587-0.074 0.118c-0.043 0.07-0.13 0.147-0.211 0.186-0.137 0.067-0.164 0.068-3.5786 0.068-1.8929 0-3.4432-0.012-3.4432-0.025m-0.0067 7e-3" style="fill:#ffffff"/>
</svg>
