<svg width="16" height="16" version="1" xmlns="http://www.w3.org/2000/svg">
 <path d="m7 0c-3.8423039 1.5369215e-7 -6.9999998 3.1576961-7 7 1.5369215e-7 3.842304 3.1576961 7 7 7h0.0039c0.797734-0.0013 1.568283-0.177376 2.3125-0.441406l1.533203 1.533203c0.584189 0.608468 1.489216 0.978967 2.302735 0.9375 0.813519-0.04147 1.488818-0.397022 1.984375-0.892578 0.495556-0.495557 0.851111-1.170856 0.892578-1.984375 0.04147-0.813519-0.329032-1.718546-0.9375-2.302735l-1.533197-1.5332028c0.26403-0.744217 0.440131-1.514766 0.441406-2.3125v-0.0039062c0-3.8423039-3.157696-6.9999998-7-7z" style="fill:#4f4f4f"/>
 <path d="m9.9902344 8.9902344a1.0001 1.0001 0 0 0 -0.6972656 1.7167966l3.0000002 3a1.0001 1.0001 0 1 0 1.414062 -1.414062l-3-3.0000002a1.0001 1.0001 0 0 0 -0.7167966 -0.3027344z" style="fill:#a27f41"/>
 <path d="m7 2a5.0000002 5.0000002 0 0 0 -5 5 5.0000002 5.0000002 0 0 0 5 5 5.0000002 5.0000002 0 0 0 5 -5 5.0000002 5.0000002 0 0 0 -5 -5z" style="fill:#62aeff"/>
 <path d="m5 4v1 2 1 2h1v-2h2v2h1v-6h-3-1zm1 1h2v2h-2v-2z" style="fill:#ffffff"/>
</svg>
