<svg width="16" height="16" version="1" xmlns="http://www.w3.org/2000/svg">
 <rect transform="matrix(0,-1,-1,0,0,0)" x="-14" y="-16" width="12" height="16" rx=".818" ry=".857" style="fill:#325f78"/>
 <rect transform="matrix(0,-1,-1,0,0,0)" x="-13" y="-14" width="10" height="12" rx="0" ry="0" style="opacity:.2"/>
 <path d="m2.25 4c-0.13853 0-0.25 0.11147-0.25 0.25v1.5c0 0.13867 0.11147 0.25 0.25 0.25h1.5c0.1385 0 0.25-0.1113 0.25-0.25v-1.5c0-0.13853-0.11147-0.25-0.25-0.25h-1.5zm3 0c-0.13853 0-0.25 0.11147-0.25 0.25v1.5c0 0.1387 0.1115 0.25 0.25 0.25h1.5c0.1385 0 0.25-0.1113 0.25-0.25v-1.5c0-0.13853-0.11147-0.25-0.25-0.25h-1.5zm3 0c-0.13853 0-0.25 0.11147-0.25 0.25v1.5c0 0.1387 0.1115 0.25 0.25 0.25h1.5c0.1385 0 0.25-0.1113 0.25-0.25v-1.5c0-0.13853-0.11147-0.25-0.25-0.25h-1.5zm3 0c-0.13853 0-0.25 0.11147-0.25 0.25v1.5c0 0.1387 0.111 0.25 0.25 0.25h1.5c0.139 0 0.25-0.1113 0.25-0.25v-1.5c0-0.13853-0.11147-0.25-0.25-0.25h-1.5zm-9 3c-0.13853 0-0.25 0.11147-0.25 0.25v1.5c0 0.13867 0.11147 0.25 0.25 0.25h1.5c0.1385 0 0.25-0.1113 0.25-0.25v-1.5c0-0.13853-0.11147-0.25-0.25-0.25h-1.5zm3 0c-0.13853 0-0.25 0.11147-0.25 0.25v1.5c0 0.1387 0.1115 0.25 0.25 0.25h1.5c0.1385 0 0.25-0.1113 0.25-0.25v-1.5c0-0.13853-0.11147-0.25-0.25-0.25h-1.5zm3 0c-0.13853 0-0.25 0.11147-0.25 0.25v1.5c0 0.1387 0.1115 0.25 0.25 0.25h1.5c0.1385 0 0.25-0.1113 0.25-0.25v-1.5c0-0.13853-0.11147-0.25-0.25-0.25h-1.5zm3 0c-0.13853 0-0.25 0.11147-0.25 0.25v1.5c0 0.1387 0.111 0.25 0.25 0.25h1.5c0.139 0 0.25-0.1113 0.25-0.25v-1.5c0-0.13853-0.11147-0.25-0.25-0.25h-1.5zm-7.0195312 3c-0.1280001 0-0.2304688 0.11133-0.2304688 0.25v1.5c0 0.139 0.1024687 0.25 0.2304688 0.25h7.5390622c0.128 0 0.230469-0.111 0.230469-0.25v-1.5c0-0.139-0.102469-0.25-0.230469-0.25h-7.5390622z" style="fill:#ffffff"/>
</svg>
