<svg width="16" height="16" version="1.1" viewBox="0 0 16 16" xmlns="http://www.w3.org/2000/svg">
 <path d="M 8,0 C 3.581722,0 0,3.581722 0,8 c 0,3.439337 2.1703779,6.371756 5.2162408,7.502362 0.8669456,0.321806 1.6754384,-0.947106 2.6543792,-0.947106 4.418278,0 7.396226,-2.093851 7.396226,-6.5121292 0,-3.563594 -1.72626,-5.7851359 -4.945957,-6.8199424 C 10.200134,1.1843741 10.207509,0.30738504 10.084328,0.27423388 9.4197848,0.09538824 8.721032,0 8,0 Z" style="fill:#3168b2"/>
 <path d="m10.028906 0.26640624c-1.2919064 0.7299964-4.2958944 2.8281594-4.028906 4.6757814 0.369458 2.5567332 4.842507 2.1241412 5 4.125 0.204461 2.5975584-3.6929732 5.2306744-5.9304688 6.3750004 0.93321 0.368025 1.9273122 0.557252 2.9304688 0.557812 4.418278 0 8-3.581722 8-8-0.0022-3.6350637-2.454875-6.8116939-5.971094-7.7335938z" style="fill:#e4e4e4"/>
 <path d="m1.7636719 3a8 8 0 0 0 -1.1738282 2h1.4101562v6h-1.3925781c0.00589033 0.014432 0.01356296 0.066275 0.01953124 0.083984a8 8 0 0 0 1.1289063 1.916016h1.4433594 4 1.6015624 3.9999998 1.435547a8 8 0 0 0 0.361328 -0.5h-0.597656v-1h1v0.345703a8 8 0 0 0 0.410156 -0.845703h-1.410156v-6h1.408203c-9.61e-4 -0.0023652-0.002942-0.0112139-0.003906-0.0136719a8 8 0 0 0 -0.404297 -0.8398437v0.3535156h-1v-1h0.607422a8 8 0 0 0 -0.363281 -0.5h-12.480469zm0.2363281 0.5h1v1h-1v-1zm2 0h1v1h-1v-1zm2 0h1v1h-1v-1zm2 0h1v1h-1v-1zm2 0h1v1h-1v-1zm2 0h1v1h-1v-1zm-8 1.5h3v6h-3v-6zm5 0h3v6h-3v-6zm-7 6.5h1v1h-1v-1zm2 0h1v1h-1v-1zm2 0h1v1h-1v-1zm2 0h1v1h-1v-1zm2 0h1v1h-1v-1zm2 0h1v1h-1v-1z" style="fill:#3c3c3c"/>
</svg>
