<svg width="16" height="16" version="1" xmlns="http://www.w3.org/2000/svg">
 <path d="m0.8 0c-0.4432 0-0.8 0.3568-0.8 0.8v4.8h9.6v-5.6h-8.8z" style="fill:#ffc129"/>
 <path d="m9.6 0v5.6h6.4v-4.8c0-0.4432-0.3568-0.8-0.8-0.8h-5.6z" style="fill:#5fb319"/>
 <path d="m6.4 5.6v10.4h8.8c0.4432 0 0.8-0.3568 0.8-0.8v-9.6z" style="fill:#e74b4b"/>
 <path d="m0 5.6v9.6c0 0.4432 0.3568 0.8 0.8 0.8h5.7v-10.4z" style="fill:#35abe4"/>
 <rect transform="rotate(90)" x="5" y="-7" width="11" height="1" style="fill:#ffffff"/>
 <rect y="5" width="16" height="1" style="fill:#ffffff"/>
 <rect transform="rotate(90)" y="-10" width="6" height="1" style="fill:#ffffff"/>
</svg>
