<svg width="16" height="16" version="1" xmlns="http://www.w3.org/2000/svg">
 <path d="m5 15-2-2h-1.8c-0.6648 0-1.2-0.535-1.2-1.2v-9.6c0-0.6648 0.5352-1.2 1.2-1.2h12.6c0.665 0 1.2 0.5352 1.2 1.2v9.6c0 0.665-0.535 1.2-1.2 1.2h-1.8l-2 2z" style="fill:#afafb1"/>
 <path d="m6 13-2-2h-2v-8h11v8h-2l-2 2z" style="opacity:.6"/>
 <g transform="scale(1,-1)" style="fill:#f8c44e">
  <rect x="5" y="-4" width="1" height="1"/>
  <rect x="7" y="-4" width="1" height="1"/>
  <rect x="9" y="-4" width="1" height="1"/>
  <rect x="3" y="-4" width="1" height="1"/>
  <rect x="11" y="-4" width="1" height="1"/>
 </g>
</svg>
