<svg width="16" height="16" version="1" xmlns="http://www.w3.org/2000/svg">
 <path d="m4 1c-2.216 0-4 1.784-4 4l0.0078125 1.9102c-8.522e-4 0.0304-0.0078125 0.0591-0.0078125 0.0898 0 0.0261 0.0073196 0.0502 0.0078125 0.0762l0.021484 6.0668c-0.25174 1.482 1.1865 2.419 2.3945 0.798l2.1289-2.941h6.8943l2.129 2.941c1.208 1.621 2.646 0.684 2.395-0.798l0.021-6.0668c1e-3 -0.026 8e-3 -0.0501 8e-3 -0.0762 0-0.0241-7e-3 -0.0463-8e-3 -0.0703l8e-3 -1.9297c0-2.216-1.784-4-4-4h-8z" fill="#4f4f4f"/>
 <g fill="#e4e4e4">
  <rect x="3" y="3" width="2" height="4" ry="0"/>
  <rect transform="matrix(0,1,1,0,0,0)" x="4" y="2" width="2" height="4" ry="0"/>
 </g>
 <path d="m12.023 2.8051a0.75 0.75 0 0 0 -0.75 0.75 0.75 0.75 0 0 0 0.75 0.75 0.75 0.75 0 0 0 0.75 -0.75 0.75 0.75 0 0 0 -0.75 -0.75z" fill="#ee5353"/>
 <path d="m13.46 4.2113a0.75 0.75 0 0 0 -0.75 0.75 0.75 0.75 0 0 0 0.75 0.75 0.75 0.75 0 0 0 0.75 -0.75 0.75 0.75 0 0 0 -0.75 -0.75z" fill="#ffca58"/>
 <path d="m10.5 4.2426a0.75 0.75 0 0 0 -0.75 0.75 0.75 0.75 0 0 0 0.75 0.75 0.75 0.75 0 0 0 0.75 -0.75 0.75 0.75 0 0 0 -0.75 -0.75z" fill="#ee5353"/>
 <path d="m12.024 5.7192a0.75 0.75 0 0 0 -0.75 0.75 0.75 0.75 0 0 0 0.75 0.75 0.75 0.75 0 0 0 0.75 -0.75 0.75 0.75 0 0 0 -0.75 -0.75z" fill="#ffca58"/>
</svg>
