<svg width="16" height="16" version="1" xmlns="http://www.w3.org/2000/svg">
 <rect transform="matrix(0,-1,-1,0,0,0)" x="-16" y="-16" width="16" height="16" rx=".8" ry=".8" style="fill:#4f4f4f"/>
 <path d="m13.813868 2.0000005c-0.022-1.892e-4 -0.06571 0.0014-0.112436 0.00416-0.06231 0.00372-0.11713 0.00671-0.121819 0.00671-0.0047 0-0.02751 0.027084-0.05074 0.060185-0.0232 0.0331-0.04738 0.062942-0.05372 0.066317-0.0063 0.0034-0.04635 0.019028-0.08891 0.03478-0.07162 0.026512-0.07941 0.028124-0.104668 0.021796-0.03444-0.00863-0.08498-0.00586-0.521534 0.028496l-0.202637 0.015952-0.100441 0.095112c-0.05524 0.052308-0.103828 0.099178-0.107986 0.1041619-0.0042 0.00498-0.03531 0.018144-0.06922 0.02924-0.122277 0.040014-0.223442 0.098601-0.294787 0.1707144-0.05034 0.050882-0.06697 0.077878-0.107688 0.1748808-0.01694 0.040363-0.03206 0.074629-0.03358 0.076146-0.0016 0.00156-0.02673-0.012712-0.05601-0.031624-0.15842-0.1023464-0.312336-0.1497884-0.486136-0.1498332-0.24403-5.64e-5 -0.462084 0.065665-0.626663 0.1888644-0.15948 0.1193816-0.29007 0.268326-0.364403 0.415646-0.0282 0.055879-0.05768 0.1715808-0.07176 0.2815896-0.01465 0.114502-0.01019 0.304088 0.0093 0.3936516 0.03308 0.152286 0.159684 0.432396 0.301362 0.6667344 0.167845 0.2776208 0.305107 0.4528652 0.637103 0.8134152 0.128515 0.1395672 0.156244 0.1685568 0.42394 0.4431788 0.208858 0.214262 0.276985 0.2941548 0.36428 0.4272068 0.189876 0.2894084 0.288756 0.5655512 0.259524 0.7247932-0.01521 0.082853-0.07042 0.1667704-0.147847 0.224718-0.05211 0.039-0.169099 0.097608-0.237624 0.1190464-0.05784 0.018096-0.129649 0.032344-0.135194 0.026828-2e-3 -0.00204 0.0068-0.045635 0.0197-0.096928 0.04188-0.1669864 0.05757-0.316356 0.04841-0.4608104-0.015803-0.2490108-0.114914-0.49889-0.260442-0.6565332-0.114705-0.1242544-0.322165-0.2627492-0.474056-0.3164672-0.088189-0.031188-0.136595-0.038208-0.237947-0.034504-0.109686 0.00401-0.169015 0.017484-0.24784 0.056303-0.101073 0.049774-0.1504 0.1182192-0.149936 0.208052 1.9e-4 0.04039 0.0031 0.053002 0.01888 0.082241 0.02366 0.043848 0.06557 0.085998 0.100975 0.101578 0.01516 0.00667 0.0558 0.015016 0.09034 0.018544 0.08716 0.0089 0.153782 0.027196 0.228252 0.062682 0.07315 0.034864 0.123826 0.07121 0.189635 0.1360348 0.0801 0.078906 0.124282 0.1577688 0.148904 0.2657892 0.01407 0.061628 0.01406 0.1954488 0 0.2522632-0.01412 0.057048-0.04634 0.1390616-0.06282 0.1598964l-0.013337 0.0168644-0.122118-0.1191956c-0.161333-0.1574796-0.382405-0.3645736-0.444846-0.4167092-0.223104-0.1862864-0.451188-0.3174528-0.6341956-0.364734-0.02968-0.007664-0.0571684-0.017052-0.0610896-0.020844-0.00392-0.00376-0.010592-0.029672-0.014828-0.0575276-0.035216-0.2316264-0.137774-0.4982704-0.263826-0.6859352-0.0743912-0.1107556-0.1384844-0.1861136-0.267566-0.314576-0.1890776-0.1881684-0.3673336-0.3206312-0.5543368-0.4119244l-0.0958544-0.0467964-0.018096-0.0648084c-0.0546904-0.19586-0.1591584-0.4067956-0.2827804-0.570968-0.0582008-0.0772924-0.1817372-0.2045312-0.2551744-0.2628216-0.1952944-0.1550128-0.4089836-0.2451896-0.6773496-0.2858428-0.1106952-0.016772-0.3360208-0.022792-0.4469096-0.011944-0.224654 0.021972-0.41439 0.0878768-0.553852 0.1923752-0.280116 0.2098884-0.5331408 0.5694236-0.646612 0.9188-0.0906316 0.2790576-0.4006892 1.5358264-0.5601776 2.2705928-0.020476 0.0943372-0.039924 0.136942-0.1019588 0.2233576-0.0601744 0.0838284-0.1129844 0.138798-0.161332 0.1679456-0.032264 0.019452-0.040492 0.021608-0.0812884 0.021252-0.0548368-4.8e-4 -0.1082816-0.021904-0.1298616-0.0520496-0.038288-0.053484-0.0551196-0.1526236-0.0495436-0.2918504 0.00384-0.096032 0.011544-0.1484756 0.0525148-0.3580328 0.0441612-0.2258816 0.004332-0.3913024-0.1269532-0.5273-0.064226-0.06653-0.1645856-0.1250192-0.2586056-0.1507104-0.0596372-0.016292-0.1775376-0.014976-0.2433668 0.00272-0.178974 0.0481148-0.3226788 0.1561536-0.4182972 0.314476-0.01682 0.027856-0.037076 0.066307-0.045018 0.085456-0.024312 0.058601-0.025092 0.058546-0.066846-0.00429-0.0204124-0.030718-0.0573264-0.0758008-0.0820336-0.1001908-0.0448712-0.0442968-0.0450172-0.044382-0.1308316-0.0720672-0.0472516-0.015244-0.107528-0.038472-0.1339512-0.0516176-0.065164-0.03242-0.1175736-0.0487196-0.1832076-0.0569696-0.03032-0.00384-0.1225832-0.018-0.2050356-0.031536-0.143066-0.023504-0.1530136-0.026068-0.2177292-0.0561268-0.0747916-0.03474-0.0677508-0.02756-0.1447268-0.1474092-0.0485428-0.0755808-0.084392-0.107252-0.1353314-0.1195052-0.0968388-0.023296-0.2161714 0.0674376-0.2256661 0.1715804-0.00321 0.034316-0.00543 0.03928-0.022034 0.047833-0.032782 0.016864-0.070301 0.055436-0.085561 0.087966-0.04104 0.087473 3.212e-4 0.2076996 0.084219 0.2445988 0.021488 0.00945 0.1873437 0.037092 0.2225858 0.037092 0.00453 0 0.03636 0.020836 0.070735 0.046313 0.061311 0.045435 0.063537 0.047998 0.1164515 0.1345144 0.02968 0.048508 0.068785 0.1056104 0.08693 0.1268976 0.018148 0.021288 0.038872 0.050178 0.046064 0.064203 0.022324 0.043559 0.087627 0.1247384 0.12478 0.1551612 0.019528 0.015984 0.047798 0.045711 0.062869 0.066071 0.07652 0.1033968 0.1669664 0.1476536 0.3406248 0.1666712l0.072475 0.00794 0.05162 0.037068c0.071915 0.051642 0.1666588 0.097225 0.2425456 0.1166984 0.085782 0.022016 0.1791016 0.019036 0.2722276-0.00869 0.034224-0.010188 0.063359-0.016708 0.064744-0.014476 0.0014 0.00224 0.00568 0.037952 0.00956 0.079386 0.02534 0.270848 0.1376484 0.4919392 0.3382024 0.6657828 0.1762868 0.1528088 0.3119816 0.2152492 0.5498496 0.25303 0.084576 0.013436 0.2505632 0.015004 0.3245544 0.00308 0.1356056-0.02188 0.3022-0.097383 0.4357484-0.1974804 0.157534-0.1180836 0.3072336-0.3227408 0.4648556-0.6355356 0.1652392-0.3279116 0.2527688-0.5915172 0.3688904-1.1109288 0.0585664-0.2619664 0.1151396-0.5556412 0.1496492-0.776868 0.0123-0.0788296 0.031112-0.1787324 0.0418124-0.2219972 0.0563084-0.227682 0.1562908-0.4348964 0.295346-0.6121388 0.0517268-0.065932 0.157398-0.1662876 0.1980984-0.1881212 0.092618-0.049685 0.223304-0.047842 0.338812 0.00476 0.04421 0.020132 0.262094 0.1805156 0.2601336 0.1914844-7.6e-4 0.00447-0.037252 0.022404-0.081001 0.039872-0.1884504 0.07523-0.345296 0.175832-0.4671696 0.2996528-0.1369688 0.1391564-0.2446684 0.311246-0.302058 0.4826548-0.032368 0.096678-0.03994 0.1498064-0.039836 0.27929 9.48e-5 0.154496 0.01926 0.2697896 0.063862 0.3848372 0.062063 0.1600816 0.195306 0.2929632 0.3461324 0.3451868 0.089641 0.031036 0.152714 0.021436 0.2070852-0.031504 0.048365-0.047091 0.07098-0.1081392 0.062035-0.1674744-0.0024-0.015904-0.018196-0.052106-0.036716-0.084158-0.0618224-0.1069836-0.0934152-0.2039536-0.0990372-0.304038-0.005484-0.0975752 0.022904-0.24113 0.0648068-0.3277916 0.025924-0.0536136 0.0898412-0.1254272 0.1552676-0.174448 0.081946-0.0613968 0.206458-0.1145024 0.2918656-0.1244868l0.035748-0.00418-0.00448 0.059134c-0.00463 0.060913-0.0078 0.080632-0.057075 0.3542988-0.015988 0.08878-0.033304 0.1941744-0.03848 0.2342128-0.04153 0.3210332-0.021996 0.6363056 0.051184 0.8260008 0.00172 0.00454-0.015464 0.020924-0.040259 0.0383-0.2328404 0.1631948-0.441556 0.4072492-0.5682116 0.6644152-0.1464108 0.2972768-0.2355856 0.643784-0.2355856 0.915388v0.079892l-0.049295 0.040417c-0.06912 0.056667-0.167596 0.15639-0.2270712 0.2299472-0.2346176 0.2901668-0.350848 0.6224988-0.3388492 0.9688728 0.00546 0.1578092 0.025652 0.26297 0.082618 0.430445 0.1044424 0.307046 0.2608928 0.542631 0.4594128 0.691808 0.059298 0.04456 0.2528792 0.139047 0.358724 0.175104 0.222856 0.07591 0.4526328 0.11076 0.6762556 0.102557 0.1042772-0.0038 0.1171956-6e-3 0.8591164-0.146705 0.4142864-0.07855 0.9408292-0.178346 1.170086-0.221778 0.2292568-0.04343 0.4454668-0.08512 0.4804688-0.09264 0.157893-0.0339 0.338254 0.0043 0.440471 0.09321 0.05159 0.04489 0.08024 0.117744 0.06923 0.176088-0.0088 0.04688-0.09075 0.116544-0.190728 0.162223-0.09176 0.04193-0.178509 0.0665-0.357157 0.101195-0.13734 0.02667-0.161941 0.03415-0.23228 0.07062-0.139452 0.0723-0.252107 0.2026-0.2872294 0.332207-0.017632 0.06506-0.019816 0.201266-0.00415 0.258901 0.047502 0.174775 0.1759654 0.318247 0.3550184 0.396504 0.09816 0.04291 0.236021 0.06811 0.325563 0.05951 0.02397-0.0023 0.04396-0.0015 0.04601 0.0018 2e-3 0.0032-0.01038 0.02904-0.02751 0.05739-0.01713 0.02834-0.04049 0.07357-0.05194 0.100505-0.02447 0.05757-0.02508 0.06928-0.01379 0.264195 0.0078 0.134587 0.0185 0.196985 0.04569 0.266774 7e-3 0.01791 0.01587 0.0578 0.01975 0.08862 0.01228 0.09749 0.02329 0.150419 0.0397 0.190832l0.01592 0.03923-0.0076 0.10027-0.0076 0.100279-0.05188 0.08175c-0.05623 0.08861-0.07146 0.123274-0.07146 0.162526 0 0.04581 0.01327 0.07535 0.05066 0.112717 0.05923 0.05921 0.131958 0.08485 0.196782 0.06938 0.02975-0.0071 0.0341-0.0066 0.05517 0.0063 0.01258 0.0078 0.03484 0.0178 0.04946 0.02233 0.04885 0.0152 0.09203 0.01146 0.141297-0.0122 0.05443-0.02614 0.0889-0.05881 0.109689-0.103984 0.02279-0.04952 0.01802-0.102027-0.01766-0.194367l-0.0269-0.06963 0.018-0.117112c0.01774-0.115383 0.01834-0.117472 0.04097-0.142423 0.0346-0.03816 0.04946-0.06163 0.06936-0.109636 0.01-0.02402 0.03669-0.0679 0.05941-0.09753 0.04764-0.0621 0.09434-0.150995 0.113542-0.216086 0.0073-0.02485 0.0292-0.0861 0.04859-0.136119l0.03525-0.09095-0.0034-0.06115c-0.0026-0.04759-0.0087-0.07709-0.02742-0.133076l-0.02403-0.07194 0.01074-0.08932c0.01234-0.102736 0.01317-0.150381 0.0039-0.225566-0.01403-0.113549-0.04963-0.199292-0.116911-0.281519-0.02279-0.02786-0.04148-0.05491-0.04148-0.06013-2.2e-5 -0.0054 0.0246-0.02309 0.05734-0.04115 0.116156-0.06407 0.244824-0.173706 0.328159-0.279609 0.126011-0.160144 0.209776-0.465565 0.187783-0.684663-0.01889-0.188206-0.07512-0.358441-0.161843-0.49-0.09543-0.144751-0.245683-0.273392-0.42143-0.3607904-0.140939-0.070087-0.280774-0.1043712-0.540924-0.132634-0.102158-0.011084-0.499053-0.011096-0.61411 0-0.353503 0.034088-0.7951458 0.1219524-1.2632178 0.2513234-0.080503 0.02225-0.1854176 0.04906-0.2331372 0.05959-0.096444 0.02128-0.6282748 0.09046-0.6911472 0.08991-0.0431216-3.57e-4 -0.1790384-0.020805-0.2402584-0.036137-0.128494-0.032168-0.2366584-0.081706-0.283998-0.130051-0.034348-0.0350762-0.08275-0.1263206-0.0971604-0.1831762-0.004912-0.01938-0.01098-0.0570796-0.013496-0.0837756-0.004304-0.0456756-0.00236-0.0573092 0.032616-0.1973936 0.020456-0.081872 0.03974-0.148856 0.042844-0.148856 0.00312 0 0.030368 0.023296 0.060593 0.051778 0.2465218 0.2273464 0.5576826 0.3290584 0.8143706 0.3510552 0.3460004 0.010376 0.792588-0.1461764 0.9395212-0.4157904 0.0933236-0.1797308 0.0947384-0.3603596 0.00348-0.4452684-0.036128-0.033612-0.0785588-0.0481796-0.1403148-0.0481796-0.07336 0-0.1258176 0.028156-0.1632972 0.087668-0.043548 0.069148-0.056407 0.085858-0.096737 0.1256372-0.071008 0.070038-0.1852948 0.1305944-0.3029524 0.1605396-0.074779 0.019032-0.1838404 0.020492-0.245008 0.00328-0.057466-0.01618-0.15283-0.061377-0.1996776-0.094629-0.0658758-0.0467586-0.1693246-0.1664042-0.1718482-0.1987538-8.8e-4 -0.011428 0.176574-0.066675 0.4120452-0.1282708 0.23976-0.062717 0.396384-0.1191912 0.571738-0.2061484 0.168054-0.083337 0.2720168-0.1542776 0.3810588-0.2600148 0.037056-0.035932 0.070436-0.065329 0.074178-0.065329 0.00376 0 0.025104 0.00816 0.04748 0.018152 0.109558 0.048894 0.2988996 0.1045612 0.4314344 0.126836 0.177678 0.029864 0.318647 0.031832 0.4904 0.00687 0.31682-0.046041 0.582391-0.1315748 0.803545-0.2588036 0.0309-0.017776 0.06015-0.032316 0.065-0.032316 0.0049 0 0.05117 0.013992 0.102914 0.031104 0.168398 0.055685 0.311303 0.081145 0.488648 0.087051 0.254168 0.00847 0.484041-0.03906 0.695558-0.1437868 0.154253-0.076374 0.249899-0.1458376 0.368668-0.267792 0.213808-0.219544 0.367454-0.4715812 0.428427-0.7027496 0.02851-0.1081064 0.03452-0.175228 0.02589-0.2897864-0.028092-0.3731424-0.165107-0.726414-0.40308-1.0393164-0.202868-0.2667444-0.67189-0.8064064-1.232867-1.4185424-0.202105-0.2205356-0.197154-0.2149564-0.273371-0.30743-0.097888-0.1187668-0.135542-0.2054292-0.153564-0.353396-0.014356-0.1178728 0.024412-0.2041052 0.105996-0.2357824 0.09408-0.036524 0.287989 0.079287 0.457438 0.2731948 0.132537 0.151668 0.192819 0.2037008 0.292736 0.2526588 0.175727 0.086105 0.347128 0.081662 0.516886-0.013404 0.07488-0.041929 0.157361-0.1260324 0.191711-0.195466 0.0397-0.080255 0.05876-0.1619568 0.06274-0.2690288 0.0057-0.1539992-0.02519-0.2739064-0.107266-0.4159056-0.01148-0.019856-0.01935-0.037612-0.0175-0.039448 0.0019-0.00188 0.06045-0.00648 0.130223-0.010308 0.122024-0.00669 0.128321-0.00768 0.165049-0.026184 0.021-0.01058 0.05393-0.030228 0.07318-0.043668s0.06221-0.042695 0.09546-0.065007c0.06772-0.045444 0.123882-0.097504 0.183444-0.170034 0.03003-0.036564 0.04998-0.054118 0.07899-0.069496 0.05097-0.02702 0.09302-0.068852 0.116389-0.1157824l0.01892-0.03798 0.06682-0.023316c0.06349-0.022152 0.07099-0.023336 0.150271-0.023736 0.127259-6.8e-4 0.182722-0.015564 0.229024-0.06162 0.03988-0.039672 0.05024-0.067471 0.05024-0.1350335 1.9e-5 -0.068527-0.0108-0.098236-0.05338-0.1466176-0.02014-0.02288-0.0249-0.033796-0.02857-0.065391-0.0076-0.065442-0.05145-0.1366244-0.09009-0.1462712-0.0018-4.8e-4 -0.0067-6.8e-4 -0.01408-7.6e-4zm-5.3304488 3.3122859c0.00562-0.00104 0.01572 0.00528 0.037812 0.022228 0.110898 0.085103 0.2238692 0.200214 0.3128464 0.318754 0.1835644 0.244554 0.2791068 0.5244736 0.2670196 0.7823324-0.00605 0.1290396-0.038268 0.2218276-0.102318 0.294658-0.053198 0.060491-0.115262 0.080754-0.193488 0.063177-0.1486692-0.0333998-0.2569516-0.1479726-0.3091304-0.3270742-0.0506672-0.1739152-0.0647272-0.5340804-0.033072-0.8473404 0.00545-0.053963 0.00996-0.1422684 0.010032-0.196232 6.36e-5 -0.053964 0.00268-0.1022052 0.00588-0.1071904 0.00116-0.00184 0.00252-3e-3 0.00443-0.00332zm1.1521384 1.7382492c0.08558 8.8e-4 0.179702 0.024756 0.27889 0.071905 0.1005174 0.047784 0.3370314 0.211994 0.5251524 0.3646108 0.160626 0.1303104 0.299053 0.2490868 0.297098 0.2549212-0.0048 0.014288-0.154394 0.052271-0.279399 0.070929-0.06272 0.00936-0.314839 0.01714-0.371028 0.011448-0.07317-0.00741-0.2033314-0.030976-0.2626698-0.04755-0.1655056-0.0462268-0.3549292-0.1642412-0.437426-0.2725264-0.05235-0.0687152-0.0923252-0.167934-0.0921388-0.228674 9.52e-5 -0.030568 0.026372-0.079858 0.06114-0.1146708 0.074431-0.074527 0.1703496-0.1114952 0.2803812-0.1103928zm-1.1625544 0.298428c0.00803 2.76e-5 0.015952 3.836e-4 0.023804 9.6e-4 0.091508 0.00728 0.1644096 0.033152 0.1999752 0.070979 0.034752 0.036964 0.047217 0.1317188 0.027384 0.2081504-0.0642644 0.2476298-0.3773788 0.482793-0.916142 0.6880494-0.0930596 0.035456-0.2447044 0.0808076-0.2701892 0.0808076-0.00582 0-0.00685-0.0064-0.00372-0.022956 0.016876-0.0894784 0.0736336-0.2388516 0.1376928-0.3623724 0.154532-0.2979756 0.372166-0.5183912 0.6108028-0.6185924 0.073192-0.030732 0.13422-0.045236 0.1904048-0.04504z" style="fill:#3ffe3f"/>
</svg>
