<svg width="16" height="16" version="1" xmlns="http://www.w3.org/2000/svg">
 <rect y="1" width="16" height="14" rx=".8" ry=".8" style="fill:#4f4f4f"/>
 <g transform="translate(-420,-62.00008)" style="enable-background:new;fill:#de62ff">
  <path d="m424 66h0.67187c4.05 0 7.33 3.278 7.33 7.328v0.672h-0.67188c-0.36436 0-0.65625-0.30511-0.65625-0.67188 0-3.3137-2.6863-6-6-6-0.36 0-0.67-0.289-0.67-0.656v-0.672z" style="fill:#de62ff"/>
  <path d="m424 68.672h0.67187c2.5773 0 4.6562 2.0789 4.6562 4.6562v0.67188h-0.65625c-0.36 0-0.67-0.305-0.67-0.672 0-1.841-1.49-3.328-3.33-3.328-0.36 0-0.67-0.305-0.67-0.672v-0.65625z" style="fill:#de62ff"/>
  <path d="m425.33 71.328c0.73638 0 1.3438 0.60737 1.3438 1.3438 0 0.736-0.61 1.328-1.34 1.328-0.74 0-1.33-0.592-1.33-1.328 0-0.73638 0.59174-1.3438 1.3281-1.3438z" style="fill:#de62ff"/>
 </g>
</svg>
