<svg width="16" height="16" version="1" xmlns="http://www.w3.org/2000/svg">
 <rect transform="matrix(0,-1,-1,0,0,0)" x="-16" y="-16" width="16" height="16" rx=".8" ry=".8" style="fill:#029499"/>
 <path d="m5.8652344 2.3046875l-1.7304688 1 1.5878906 2.7480469a3 3 0 0 0 -0.5488281 0.9472656h-3.1738281v2h3.1757812a3 3 0 0 0 0.546875 0.9433594l-1.5878906 2.7519526 1.7304688 1 1.5878906-2.75a3 3 0 0 0 0.546875 0.054688 3 3 0 0 0 0.546875 -0.052734l1.587891 2.748046 1.730468-1-1.58789-2.7480464a3 3 0 0 0 0.548828 -0.9472656h3.173828v-2h-3.175781a3 3 0 0 0 -0.546875 -0.9433594l1.58789-2.7519531-1.730468-1-1.587891 2.75a3 3 0 0 0 -0.546875 -0.0546875 3 3 0 0 0 -0.546875 0.0527344l-1.5878906-2.7480469zm2.1347656 3.6953125a2 2 0 0 1 2 2 2 2 0 0 1 -2 2 2 2 0 0 1 -2 -2 2 2 0 0 1 2 -2z" style="fill:#ffffff"/>
</svg>
