<svg width="16" height="16" version="1" xmlns="http://www.w3.org/2000/svg">
 <rect transform="matrix(0,-1,-1,0,0,0)" x="-16" y="-16" width="16" height="16" rx="8" ry="8" fill="#1ed760"/>
 <g transform="translate(-2.9999783,-3.000333)" style="fill:#ffffff">
  <path d="m9.5156248 7.0019529c-0.9490239 0.019851-1.9490002 0.1461536-2.9667969 0.4707031-0.3603172 0.081097-0.6203147 0.6063703-0.5312498 1.0585938 0.089085 0.4522236 0.5273475 0.7332572 0.8749998 0.5878907 4.1285651-1.3164548 8.1835941 0.8242187 8.1835941 0.8242187 0.323871 0.1720428 0.739984-0.057993 0.875-0.4707032 0.135007-0.4127103-0.01988-0.9275663-0.34375-1.0996093 0 0-2.488613-1.3273008-5.6855472-1.3710938-0.1332069-0.00125-0.2706737-0.0025-0.40625 0z" style="fill:#ffffff"/>
  <path d="m9.9511718 10.001953c-0.7891285 0.0071-1.6299794 0.159143-2.5273439 0.488281-0.2707921 0.0709-0.4759654 0.520758-0.4121093 0.929688 0.063828 0.408891 0.35469 0.655301 0.6171874 0.53125 3.734701-1.369859 6.642578 0.974609 6.642578 0.974609 0.23403 0.185405 0.554643 0.0046 0.675782-0.353515 0.121139-0.358159 0.02702-0.83413-0.207032-1.019532 0 0-1.828281-1.458901-4.466796-1.550781-0.109939-0.0042-0.209535-1e-3 -0.3222662 0z" style="fill:#ffffff"/>
  <path d="m10.265625 13c-0.6048735-4e-3 -1.2662882 0.09714-1.9765627 0.314453-0.1798438 0.03549-0.3232871 0.31549-0.2832031 0.560547 0.040092 0.245007 0.23873 0.389433 0.4121094 0.314453 3.0205894-0.924151 5.0566404 0.734375 5.0566404 0.734375 0.14905 0.144109 0.395068 0.07692 0.486329-0.140625 0.09126-0.217562 0.01211-0.521479-0.152344-0.628906-1.100766-0.650287-2.251351-1.129347-3.542969-1.154297z" style="fill:#ffffff"/>
 </g>
</svg>
