<svg width="16" height="16" version="1" xmlns="http://www.w3.org/2000/svg">
 <rect transform="matrix(0,-1,-1,0,0,0)" x="-13" y="-15" width="10" height="14" rx="2.857" ry="2.8" style="fill:#4f4f4f"/>
 <path d="M 13,9.2857144 V 6.7142857 C 13,5.7645714 12.108,5 11,5 H 5 C 3.8919999,5 3,5.7645714 3,6.7142857 V 9.2857144 C 3,10.235428 3.8919999,11 5,11 h 1 l 2,-1 2,1 h 1 c 1.108,0 2,-0.764572 2,-1.7142856 z" style="fill:#48aad5"/>
 <rect transform="rotate(90)" x="7" y="-2" width="2" height="2" rx=".25" ry=".5" style="fill:#929292"/>
 <rect transform="rotate(90)" x="7" y="-16" width="2" height="2" rx=".25" ry=".5" style="fill:#929292"/>
</svg>
