<svg width="16" height="16" version="1.0" xmlns="http://www.w3.org/2000/svg">
 <text x="877.22626" y="-21.187399" font-family="'Bitstream Vera Sans'" font-size="12.666px" opacity=".8" xml:space="preserve"><tspan x="877.22626" y="-21.187399"/></text>
 <text x="901.18719" y="-61.929108" font-family="'Bitstream Vera Sans'" font-size="12.666px" opacity=".8" xml:space="preserve"><tspan x="901.18719" y="-61.929108"/></text>
 <text x="-569.37115" y="-92.007248" font-family="'Bitstream Vera Sans'" font-size="12.666px" opacity=".8" xml:space="preserve"><tspan x="-569.37115" y="-92.007248"/></text>
 <text x="-2393.0571" y="653.5462" font-family="'Bitstream Vera Sans'" font-size="12.666px" opacity=".8" xml:space="preserve"><tspan x="-2393.0571" y="653.5462"/></text>
 <text x="-454.88007" y="-477.32822" font-family="'Bitstream Vera Sans'" font-size="12.666px" opacity=".8" xml:space="preserve"><tspan x="-454.88007" y="-477.32822"/></text>
 <text x="352.72208" y="-890.79834" font-family="'Bitstream Vera Sans'" font-size="12.666px" opacity=".8" xml:space="preserve"><tspan x="352.72208" y="-890.79834"/></text>
 <text x="376.68301" y="-931.54004" font-family="'Bitstream Vera Sans'" font-size="12.666px" opacity=".8" xml:space="preserve"><tspan x="376.68301" y="-931.54004"/></text>
 <text x="-1114.7802" y="-938.74994" font-family="'Bitstream Vera Sans'" font-size="12.666px" opacity=".8" xml:space="preserve"><tspan x="-1114.7802" y="-938.74994"/></text>
 <text x="345.7626" y="-1211.9841" font-family="'Bitstream Vera Sans'" font-size="12.666px" opacity=".8" xml:space="preserve"><tspan x="345.7626" y="-1211.9841"/></text>
 <text x="1831.8861" y="-585.29272" font-family="'Bitstream Vera Sans'" font-size="12.666px" opacity=".8" xml:space="preserve"><tspan x="1831.8861" y="-585.29272"/></text>
 <text x="1855.8469" y="-626.03448" font-family="'Bitstream Vera Sans'" font-size="12.666px" opacity=".8" xml:space="preserve"><tspan x="1855.8469" y="-626.03448"/></text>
 <text x="364.38376" y="-633.24438" font-family="'Bitstream Vera Sans'" font-size="12.666px" opacity=".8" xml:space="preserve"><tspan x="364.38376" y="-633.24438"/></text>
 <text x="1824.9266" y="-906.47839" font-family="'Bitstream Vera Sans'" font-size="12.666px" opacity=".8" xml:space="preserve"><tspan x="1824.9266" y="-906.47839"/></text>
 <text x="-573.43256" y="-681.33569" font-family="'Bitstream Vera Sans'" font-size="12.666px" opacity=".8" xml:space="preserve"><tspan x="-573.43256" y="-681.33569"/></text>
 <text x="-2397.1182" y="64.217857" font-family="'Bitstream Vera Sans'" font-size="12.666px" opacity=".8" xml:space="preserve"><tspan x="-2397.1182" y="64.217857"/></text>
 <text x="-682.36279" y="157.09" font-family="'Bitstream Vera Sans'" font-size="12.666px" opacity=".8" xml:space="preserve"><tspan x="-682.36279" y="157.09"/></text>
 <text x="426.66153" y="-22.092148" font-family="'Bitstream Vera Sans'" font-size="12.666px" opacity=".8" xml:space="preserve"><tspan x="426.66153" y="-22.092148"/></text>
 <text x="450.62247" y="-62.833855" font-family="'Bitstream Vera Sans'" font-size="12.666px" opacity=".8" xml:space="preserve"><tspan x="450.62247" y="-62.833855"/></text>
 <text x="-1040.8407" y="-70.043823" font-family="'Bitstream Vera Sans'" font-size="12.666px" opacity=".8" xml:space="preserve"><tspan x="-1040.8407" y="-70.043823"/></text>
 <text x="419.70206" y="-343.27789" font-family="'Bitstream Vera Sans'" font-size="12.666px" opacity=".8" xml:space="preserve"><tspan x="419.70206" y="-343.27789"/></text>
 <text x="-608.03253" y="-72.758072" font-family="'Bitstream Vera Sans'" font-size="12.666px" opacity=".8" xml:space="preserve"><tspan x="-608.03253" y="-72.758072"/></text>
 <text x="-2431.7185" y="672.79541" font-family="'Bitstream Vera Sans'" font-size="12.666px" opacity=".8" xml:space="preserve"><tspan x="-2431.7185" y="672.79541"/></text>
 <text x="-456.93948" y="-934.28857" font-family="'Bitstream Vera Sans'" font-size="12.666px" opacity=".8" xml:space="preserve"><tspan x="-456.93948" y="-934.28857"/></text>
 <text x="350.66266" y="-1347.7588" font-family="'Bitstream Vera Sans'" font-size="12.666px" opacity=".8" xml:space="preserve"><tspan x="350.66266" y="-1347.7588"/></text>
 <text x="374.62357" y="-1388.5005" font-family="'Bitstream Vera Sans'" font-size="12.666px" opacity=".8" xml:space="preserve"><tspan x="374.62357" y="-1388.5005"/></text>
 <text x="-1116.8396" y="-1395.7104" font-family="'Bitstream Vera Sans'" font-size="12.666px" opacity=".8" xml:space="preserve"><tspan x="-1116.8396" y="-1395.7104"/></text>
 <text x="343.70316" y="-1668.9446" font-family="'Bitstream Vera Sans'" font-size="12.666px" opacity=".8" xml:space="preserve"><tspan x="343.70316" y="-1668.9446"/></text>
 <text x="1829.8265" y="-1042.2533" font-family="'Bitstream Vera Sans'" font-size="12.666px" opacity=".8" xml:space="preserve"><tspan x="1829.8265" y="-1042.2533"/></text>
 <text x="1853.7874" y="-1082.9949" font-family="'Bitstream Vera Sans'" font-size="12.666px" opacity=".8" xml:space="preserve"><tspan x="1853.7874" y="-1082.9949"/></text>
 <text x="362.32431" y="-1090.2048" font-family="'Bitstream Vera Sans'" font-size="12.666px" opacity=".8" xml:space="preserve"><tspan x="362.32431" y="-1090.2048"/></text>
 <text x="1822.8671" y="-1363.439" font-family="'Bitstream Vera Sans'" font-size="12.666px" opacity=".8" xml:space="preserve"><tspan x="1822.8671" y="-1363.439"/></text>
 <text x="-575.492" y="-1138.2961" font-family="'Bitstream Vera Sans'" font-size="12.666px" opacity=".8" xml:space="preserve"><tspan x="-575.492" y="-1138.2961"/></text>
 <text x="-2399.1777" y="-392.74261" font-family="'Bitstream Vera Sans'" font-size="12.666px" opacity=".8" xml:space="preserve"><tspan x="-2399.1777" y="-392.74261"/></text>
 <text x="-684.42224" y="-299.87045" font-family="'Bitstream Vera Sans'" font-size="12.666px" opacity=".8" xml:space="preserve"><tspan x="-684.42224" y="-299.87045"/></text>
 <text x="155.5923" y="-58.956276" font-family="'Bitstream Vera Sans'" font-size="12.666px" opacity=".8" xml:space="preserve"><tspan x="155.5923" y="-58.956276"/></text>
 <text x="179.55324" y="-99.697998" font-family="'Bitstream Vera Sans'" font-size="12.666px" opacity=".8" xml:space="preserve"><tspan x="179.55324" y="-99.697998"/></text>
 <text x="-1090.2634" y="-293.72662" font-family="'Bitstream Vera Sans'" font-size="12.666px" opacity=".8" xml:space="preserve"><tspan x="-1090.2634" y="-293.72662"/></text>
 <text x="-282.66141" y="-707.19678" font-family="'Bitstream Vera Sans'" font-size="12.666px" opacity=".8" xml:space="preserve"><tspan x="-282.66141" y="-707.19678"/></text>
 <text x="-258.70047" y="-747.93848" font-family="'Bitstream Vera Sans'" font-size="12.666px" opacity=".8" xml:space="preserve"><tspan x="-258.70047" y="-747.93848"/></text>
 <text x="-1750.1636" y="-755.14838" font-family="'Bitstream Vera Sans'" font-size="12.666px" opacity=".8" xml:space="preserve"><tspan x="-1750.1636" y="-755.14838"/></text>
 <text x="-289.62085" y="-1028.3826" font-family="'Bitstream Vera Sans'" font-size="12.666px" opacity=".8" xml:space="preserve"><tspan x="-289.62085" y="-1028.3826"/></text>
 <text x="1196.5026" y="-401.69113" font-family="'Bitstream Vera Sans'" font-size="12.666px" opacity=".8" xml:space="preserve"><tspan x="1196.5026" y="-401.69113"/></text>
 <text x="1220.4634" y="-442.43286" font-family="'Bitstream Vera Sans'" font-size="12.666px" opacity=".8" xml:space="preserve"><tspan x="1220.4634" y="-442.43286"/></text>
 <text x="-270.99973" y="-449.64282" font-family="'Bitstream Vera Sans'" font-size="12.666px" opacity=".8" xml:space="preserve"><tspan x="-270.99973" y="-449.64282"/></text>
 <text x="1189.5431" y="-722.87689" font-family="'Bitstream Vera Sans'" font-size="12.666px" opacity=".8" xml:space="preserve"><tspan x="1189.5431" y="-722.87689"/></text>
 <text x="-1208.816" y="-497.7341" font-family="'Bitstream Vera Sans'" font-size="12.666px" opacity=".8" xml:space="preserve"><tspan x="-1208.816" y="-497.7341"/></text>
 <text x="-3032.5017" y="247.81946" font-family="'Bitstream Vera Sans'" font-size="12.666px" opacity=".8" xml:space="preserve"><tspan x="-3032.5017" y="247.81946"/></text>
 <g transform="matrix(.90475 0 0 .90475 -716.75 -708.29)">
  <text x="-664.2738" y="1159.4154" font-family="'Bitstream Vera Sans'" font-size="14px" opacity=".8" xml:space="preserve"><tspan x="-664.2738" y="1159.4154"/></text>
 </g>
 <text x="877.22626" y="-13.949411" font-family="'Bitstream Vera Sans'" font-size="12.666px" opacity=".8" xml:space="preserve"><tspan x="877.22626" y="-13.949411"/></text>
 <text x="901.18719" y="-54.691116" font-family="'Bitstream Vera Sans'" font-size="12.666px" opacity=".8" xml:space="preserve"><tspan x="901.18719" y="-54.691116"/></text>
 <text x="-569.37115" y="-84.769257" font-family="'Bitstream Vera Sans'" font-size="12.666px" opacity=".8" xml:space="preserve"><tspan x="-569.37115" y="-84.769257"/></text>
 <text x="-2393.0571" y="660.78418" font-family="'Bitstream Vera Sans'" font-size="12.666px" opacity=".8" xml:space="preserve"><tspan x="-2393.0571" y="660.78418"/></text>
 <text x="-454.88007" y="-470.09021" font-family="'Bitstream Vera Sans'" font-size="12.666px" opacity=".8" xml:space="preserve"><tspan x="-454.88007" y="-470.09021"/></text>
 <text x="352.72208" y="-883.5603" font-family="'Bitstream Vera Sans'" font-size="12.666px" opacity=".8" xml:space="preserve"><tspan x="352.72208" y="-883.5603"/></text>
 <text x="376.68301" y="-924.30206" font-family="'Bitstream Vera Sans'" font-size="12.666px" opacity=".8" xml:space="preserve"><tspan x="376.68301" y="-924.30206"/></text>
 <text x="-1114.7802" y="-931.51196" font-family="'Bitstream Vera Sans'" font-size="12.666px" opacity=".8" xml:space="preserve"><tspan x="-1114.7802" y="-931.51196"/></text>
 <text x="345.7626" y="-1204.7461" font-family="'Bitstream Vera Sans'" font-size="12.666px" opacity=".8" xml:space="preserve"><tspan x="345.7626" y="-1204.7461"/></text>
 <text x="1831.8861" y="-578.05475" font-family="'Bitstream Vera Sans'" font-size="12.666px" opacity=".8" xml:space="preserve"><tspan x="1831.8861" y="-578.05475"/></text>
 <text x="1855.8469" y="-618.79651" font-family="'Bitstream Vera Sans'" font-size="12.666px" opacity=".8" xml:space="preserve"><tspan x="1855.8469" y="-618.79651"/></text>
 <text x="364.38376" y="-626.00641" font-family="'Bitstream Vera Sans'" font-size="12.666px" opacity=".8" xml:space="preserve"><tspan x="364.38376" y="-626.00641"/></text>
 <text x="1824.9266" y="-899.24036" font-family="'Bitstream Vera Sans'" font-size="12.666px" opacity=".8" xml:space="preserve"><tspan x="1824.9266" y="-899.24036"/></text>
 <text x="-573.43256" y="-674.09772" font-family="'Bitstream Vera Sans'" font-size="12.666px" opacity=".8" xml:space="preserve"><tspan x="-573.43256" y="-674.09772"/></text>
 <text x="-2397.1182" y="71.455849" font-family="'Bitstream Vera Sans'" font-size="12.666px" opacity=".8" xml:space="preserve"><tspan x="-2397.1182" y="71.455849"/></text>
 <text x="-682.36279" y="164.32799" font-family="'Bitstream Vera Sans'" font-size="12.666px" opacity=".8" xml:space="preserve"><tspan x="-682.36279" y="164.32799"/></text>
 <text x="426.66153" y="-14.85416" font-family="'Bitstream Vera Sans'" font-size="12.666px" opacity=".8" xml:space="preserve"><tspan x="426.66153" y="-14.85416"/></text>
 <text x="450.62247" y="-55.595863" font-family="'Bitstream Vera Sans'" font-size="12.666px" opacity=".8" xml:space="preserve"><tspan x="450.62247" y="-55.595863"/></text>
 <text x="-1040.8407" y="-62.805836" font-family="'Bitstream Vera Sans'" font-size="12.666px" opacity=".8" xml:space="preserve"><tspan x="-1040.8407" y="-62.805836"/></text>
 <text x="419.70206" y="-336.03989" font-family="'Bitstream Vera Sans'" font-size="12.666px" opacity=".8" xml:space="preserve"><tspan x="419.70206" y="-336.03989"/></text>
 <text x="-608.03253" y="-65.520081" font-family="'Bitstream Vera Sans'" font-size="12.666px" opacity=".8" xml:space="preserve"><tspan x="-608.03253" y="-65.520081"/></text>
 <text x="-2431.7185" y="680.03345" font-family="'Bitstream Vera Sans'" font-size="12.666px" opacity=".8" xml:space="preserve"><tspan x="-2431.7185" y="680.03345"/></text>
 <text x="-456.93948" y="-927.0506" font-family="'Bitstream Vera Sans'" font-size="12.666px" opacity=".8" xml:space="preserve"><tspan x="-456.93948" y="-927.0506"/></text>
 <text x="350.66266" y="-1340.5208" font-family="'Bitstream Vera Sans'" font-size="12.666px" opacity=".8" xml:space="preserve"><tspan x="350.66266" y="-1340.5208"/></text>
 <text x="374.62357" y="-1381.2626" font-family="'Bitstream Vera Sans'" font-size="12.666px" opacity=".8" xml:space="preserve"><tspan x="374.62357" y="-1381.2626"/></text>
 <text x="-1116.8396" y="-1388.4724" font-family="'Bitstream Vera Sans'" font-size="12.666px" opacity=".8" xml:space="preserve"><tspan x="-1116.8396" y="-1388.4724"/></text>
 <text x="343.70316" y="-1661.7065" font-family="'Bitstream Vera Sans'" font-size="12.666px" opacity=".8" xml:space="preserve"><tspan x="343.70316" y="-1661.7065"/></text>
 <text x="1829.8265" y="-1035.0154" font-family="'Bitstream Vera Sans'" font-size="12.666px" opacity=".8" xml:space="preserve"><tspan x="1829.8265" y="-1035.0154"/></text>
 <text x="1853.7874" y="-1075.757" font-family="'Bitstream Vera Sans'" font-size="12.666px" opacity=".8" xml:space="preserve"><tspan x="1853.7874" y="-1075.757"/></text>
 <text x="362.32431" y="-1082.9668" font-family="'Bitstream Vera Sans'" font-size="12.666px" opacity=".8" xml:space="preserve"><tspan x="362.32431" y="-1082.9668"/></text>
 <text x="1822.8671" y="-1356.2009" font-family="'Bitstream Vera Sans'" font-size="12.666px" opacity=".8" xml:space="preserve"><tspan x="1822.8671" y="-1356.2009"/></text>
 <text x="-575.492" y="-1131.0581" font-family="'Bitstream Vera Sans'" font-size="12.666px" opacity=".8" xml:space="preserve"><tspan x="-575.492" y="-1131.0581"/></text>
 <text x="-2399.1777" y="-385.50461" font-family="'Bitstream Vera Sans'" font-size="12.666px" opacity=".8" xml:space="preserve"><tspan x="-2399.1777" y="-385.50461"/></text>
 <text x="-684.42224" y="-292.63245" font-family="'Bitstream Vera Sans'" font-size="12.666px" opacity=".8" xml:space="preserve"><tspan x="-684.42224" y="-292.63245"/></text>
 <text x="155.5923" y="-51.718292" font-family="'Bitstream Vera Sans'" font-size="12.666px" opacity=".8" xml:space="preserve"><tspan x="155.5923" y="-51.718292"/></text>
 <text x="179.55324" y="-92.460007" font-family="'Bitstream Vera Sans'" font-size="12.666px" opacity=".8" xml:space="preserve"><tspan x="179.55324" y="-92.460007"/></text>
 <text x="-1090.2634" y="-286.48859" font-family="'Bitstream Vera Sans'" font-size="12.666px" opacity=".8" xml:space="preserve"><tspan x="-1090.2634" y="-286.48859"/></text>
 <text x="-282.66141" y="-699.9588" font-family="'Bitstream Vera Sans'" font-size="12.666px" opacity=".8" xml:space="preserve"><tspan x="-282.66141" y="-699.9588"/></text>
 <text x="-258.70047" y="-740.7005" font-family="'Bitstream Vera Sans'" font-size="12.666px" opacity=".8" xml:space="preserve"><tspan x="-258.70047" y="-740.7005"/></text>
 <text x="-1750.1636" y="-747.91046" font-family="'Bitstream Vera Sans'" font-size="12.666px" opacity=".8" xml:space="preserve"><tspan x="-1750.1636" y="-747.91046"/></text>
 <text x="-289.62085" y="-1021.1445" font-family="'Bitstream Vera Sans'" font-size="12.666px" opacity=".8" xml:space="preserve"><tspan x="-289.62085" y="-1021.1445"/></text>
 <text x="1196.5026" y="-394.45316" font-family="'Bitstream Vera Sans'" font-size="12.666px" opacity=".8" xml:space="preserve"><tspan x="1196.5026" y="-394.45316"/></text>
 <text x="1220.4634" y="-435.19489" font-family="'Bitstream Vera Sans'" font-size="12.666px" opacity=".8" xml:space="preserve"><tspan x="1220.4634" y="-435.19489"/></text>
 <text x="-270.99973" y="-442.40482" font-family="'Bitstream Vera Sans'" font-size="12.666px" opacity=".8" xml:space="preserve"><tspan x="-270.99973" y="-442.40482"/></text>
 <text x="1189.5431" y="-715.63892" font-family="'Bitstream Vera Sans'" font-size="12.666px" opacity=".8" xml:space="preserve"><tspan x="1189.5431" y="-715.63892"/></text>
 <text x="-1208.816" y="-490.49609" font-family="'Bitstream Vera Sans'" font-size="12.666px" opacity=".8" xml:space="preserve"><tspan x="-1208.816" y="-490.49609"/></text>
 <text x="-3032.5017" y="255.05743" font-family="'Bitstream Vera Sans'" font-size="12.666px" opacity=".8" xml:space="preserve"><tspan x="-3032.5017" y="255.05743"/></text>
 <g transform="matrix(.90475 0 0 .90475 -716.75 -701.05)">
  <text x="-664.2738" y="1159.4154" font-family="'Bitstream Vera Sans'" font-size="14px" opacity=".8" xml:space="preserve"><tspan x="-664.2738" y="1159.4154"/></text>
 </g>
 <text x="435.90427" y="-393.22546" font-family="'Droid Sans'" font-size="12.666px" xml:space="preserve"><tspan x="435.90427" y="-393.22546"/><tspan x="435.90427" y="-377.3924"/></text>
 <text x="901.0882" y="-875.27002" font-family="'Bitstream Vera Sans'" font-size="12.666px" opacity=".8" xml:space="preserve"><tspan x="901.0882" y="-875.27002"/></text>
 <text x="-922.59778" y="-129.71655" font-family="'Bitstream Vera Sans'" font-size="12.666px" opacity=".8" xml:space="preserve"><tspan x="-922.59778" y="-129.71655"/></text>
 <text x="1628.1677" y="-1160.2659" font-family="'Bitstream Vera Sans'" font-size="12.666px" opacity=".8" xml:space="preserve"><tspan x="1628.1677" y="-1160.2659"/></text>
 <text x="1652.1285" y="-1201.0076" font-family="'Bitstream Vera Sans'" font-size="12.666px" opacity=".8" xml:space="preserve"><tspan x="1652.1285" y="-1201.0076"/></text>
 <text x="160.66542" y="-1208.2175" font-family="'Bitstream Vera Sans'" font-size="12.666px" opacity=".8" xml:space="preserve"><tspan x="160.66542" y="-1208.2175"/></text>
 <text x="1621.2083" y="-1481.4517" font-family="'Bitstream Vera Sans'" font-size="12.666px" opacity=".8" xml:space="preserve"><tspan x="1621.2083" y="-1481.4517"/></text>
 <text x="815.97375" y="-22.182449" font-family="'Bitstream Vera Sans'" font-size="12.666px" opacity=".8" xml:space="preserve"><tspan x="815.97375" y="-22.182449"/></text>
 <text x="839.93469" y="-62.924156" font-family="'Bitstream Vera Sans'" font-size="12.666px" opacity=".8" xml:space="preserve"><tspan x="839.93469" y="-62.924156"/></text>
 <text x="-630.62366" y="-93.002296" font-family="'Bitstream Vera Sans'" font-size="12.666px" opacity=".8" xml:space="preserve"><tspan x="-630.62366" y="-93.002296"/></text>
 <text x="-2454.3096" y="652.55115" font-family="'Bitstream Vera Sans'" font-size="12.666px" opacity=".8" xml:space="preserve"><tspan x="-2454.3096" y="652.55115"/></text>
 <text x="-516.13257" y="-478.32327" font-family="'Bitstream Vera Sans'" font-size="12.666px" opacity=".8" xml:space="preserve"><tspan x="-516.13257" y="-478.32327"/></text>
 <text x="291.4696" y="-891.7934" font-family="'Bitstream Vera Sans'" font-size="12.666px" opacity=".8" xml:space="preserve"><tspan x="291.4696" y="-891.7934"/></text>
 <text x="315.43054" y="-932.5351" font-family="'Bitstream Vera Sans'" font-size="12.666px" opacity=".8" xml:space="preserve"><tspan x="315.43054" y="-932.5351"/></text>
 <text x="-1176.0326" y="-939.745" font-family="'Bitstream Vera Sans'" font-size="12.666px" opacity=".8" xml:space="preserve"><tspan x="-1176.0326" y="-939.745"/></text>
 <text x="284.51013" y="-1212.9791" font-family="'Bitstream Vera Sans'" font-size="12.666px" opacity=".8" xml:space="preserve"><tspan x="284.51013" y="-1212.9791"/></text>
 <text x="1770.6337" y="-586.28778" font-family="'Bitstream Vera Sans'" font-size="12.666px" opacity=".8" xml:space="preserve"><tspan x="1770.6337" y="-586.28778"/></text>
 <text x="1794.5945" y="-627.02954" font-family="'Bitstream Vera Sans'" font-size="12.666px" opacity=".8" xml:space="preserve"><tspan x="1794.5945" y="-627.02954"/></text>
 <text x="303.13129" y="-634.23944" font-family="'Bitstream Vera Sans'" font-size="12.666px" opacity=".8" xml:space="preserve"><tspan x="303.13129" y="-634.23944"/></text>
 <text x="1763.6742" y="-907.47345" font-family="'Bitstream Vera Sans'" font-size="12.666px" opacity=".8" xml:space="preserve"><tspan x="1763.6742" y="-907.47345"/></text>
 <text x="-634.68506" y="-682.33075" font-family="'Bitstream Vera Sans'" font-size="12.666px" opacity=".8" xml:space="preserve"><tspan x="-634.68506" y="-682.33075"/></text>
 <text x="-2458.3706" y="63.222809" font-family="'Bitstream Vera Sans'" font-size="12.666px" opacity=".8" xml:space="preserve"><tspan x="-2458.3706" y="63.222809"/></text>
 <text x="-743.6153" y="156.09494" font-family="'Bitstream Vera Sans'" font-size="12.666px" opacity=".8" xml:space="preserve"><tspan x="-743.6153" y="156.09494"/></text>
 <text x="365.40906" y="-23.087196" font-family="'Bitstream Vera Sans'" font-size="12.666px" opacity=".8" xml:space="preserve"><tspan x="365.40906" y="-23.087196"/></text>
 <text x="389.37" y="-63.828903" font-family="'Bitstream Vera Sans'" font-size="12.666px" opacity=".8" xml:space="preserve"><tspan x="389.37" y="-63.828903"/></text>
 <text x="-1102.0931" y="-71.038879" font-family="'Bitstream Vera Sans'" font-size="12.666px" opacity=".8" xml:space="preserve"><tspan x="-1102.0931" y="-71.038879"/></text>
 <text x="358.44958" y="-344.27295" font-family="'Bitstream Vera Sans'" font-size="12.666px" opacity=".8" xml:space="preserve"><tspan x="358.44958" y="-344.27295"/></text>
 <text x="-669.28503" y="-73.75312" font-family="'Bitstream Vera Sans'" font-size="12.666px" opacity=".8" xml:space="preserve"><tspan x="-669.28503" y="-73.75312"/></text>
 <text x="-2492.9709" y="671.80035" font-family="'Bitstream Vera Sans'" font-size="12.666px" opacity=".8" xml:space="preserve"><tspan x="-2492.9709" y="671.80035"/></text>
 <text x="-518.19196" y="-935.28363" font-family="'Bitstream Vera Sans'" font-size="12.666px" opacity=".8" xml:space="preserve"><tspan x="-518.19196" y="-935.28363"/></text>
 <text x="289.41019" y="-1348.7538" font-family="'Bitstream Vera Sans'" font-size="12.666px" opacity=".8" xml:space="preserve"><tspan x="289.41019" y="-1348.7538"/></text>
 <text x="313.37109" y="-1389.4955" font-family="'Bitstream Vera Sans'" font-size="12.666px" opacity=".8" xml:space="preserve"><tspan x="313.37109" y="-1389.4955"/></text>
 <text x="-1178.092" y="-1396.7054" font-family="'Bitstream Vera Sans'" font-size="12.666px" opacity=".8" xml:space="preserve"><tspan x="-1178.092" y="-1396.7054"/></text>
 <text x="282.45068" y="-1669.9396" font-family="'Bitstream Vera Sans'" font-size="12.666px" opacity=".8" xml:space="preserve"><tspan x="282.45068" y="-1669.9396"/></text>
 <text x="1768.5741" y="-1043.2484" font-family="'Bitstream Vera Sans'" font-size="12.666px" opacity=".8" xml:space="preserve"><tspan x="1768.5741" y="-1043.2484"/></text>
 <text x="1792.5349" y="-1083.9899" font-family="'Bitstream Vera Sans'" font-size="12.666px" opacity=".8" xml:space="preserve"><tspan x="1792.5349" y="-1083.9899"/></text>
 <text x="301.07184" y="-1091.1998" font-family="'Bitstream Vera Sans'" font-size="12.666px" opacity=".8" xml:space="preserve"><tspan x="301.07184" y="-1091.1998"/></text>
 <text x="1761.6146" y="-1364.434" font-family="'Bitstream Vera Sans'" font-size="12.666px" opacity=".8" xml:space="preserve"><tspan x="1761.6146" y="-1364.434"/></text>
 <text x="-636.74451" y="-1139.2911" font-family="'Bitstream Vera Sans'" font-size="12.666px" opacity=".8" xml:space="preserve"><tspan x="-636.74451" y="-1139.2911"/></text>
 <text x="-2460.4302" y="-393.73767" font-family="'Bitstream Vera Sans'" font-size="12.666px" opacity=".8" xml:space="preserve"><tspan x="-2460.4302" y="-393.73767"/></text>
 <text x="-745.67474" y="-300.86551" font-family="'Bitstream Vera Sans'" font-size="12.666px" opacity=".8" xml:space="preserve"><tspan x="-745.67474" y="-300.86551"/></text>
 <text x="94.339828" y="-59.951328" font-family="'Bitstream Vera Sans'" font-size="12.666px" opacity=".8" xml:space="preserve"><tspan x="94.339828" y="-59.951328"/></text>
 <text x="118.30077" y="-100.69305" font-family="'Bitstream Vera Sans'" font-size="12.666px" opacity=".8" xml:space="preserve"><tspan x="118.30077" y="-100.69305"/></text>
 <text x="-1151.5159" y="-294.72168" font-family="'Bitstream Vera Sans'" font-size="12.666px" opacity=".8" xml:space="preserve"><tspan x="-1151.5159" y="-294.72168"/></text>
 <text x="-343.91388" y="-708.19183" font-family="'Bitstream Vera Sans'" font-size="12.666px" opacity=".8" xml:space="preserve"><tspan x="-343.91388" y="-708.19183"/></text>
 <text x="-319.95294" y="-748.93353" font-family="'Bitstream Vera Sans'" font-size="12.666px" opacity=".8" xml:space="preserve"><tspan x="-319.95294" y="-748.93353"/></text>
 <text x="-1811.416" y="-756.14343" font-family="'Bitstream Vera Sans'" font-size="12.666px" opacity=".8" xml:space="preserve"><tspan x="-1811.416" y="-756.14343"/></text>
 <text x="-350.87332" y="-1029.3777" font-family="'Bitstream Vera Sans'" font-size="12.666px" opacity=".8" xml:space="preserve"><tspan x="-350.87332" y="-1029.3777"/></text>
 <text x="1135.2501" y="-402.68619" font-family="'Bitstream Vera Sans'" font-size="12.666px" opacity=".8" xml:space="preserve"><tspan x="1135.2501" y="-402.68619"/></text>
 <text x="1159.2109" y="-443.42792" font-family="'Bitstream Vera Sans'" font-size="12.666px" opacity=".8" xml:space="preserve"><tspan x="1159.2109" y="-443.42792"/></text>
 <text x="-332.2522" y="-450.63788" font-family="'Bitstream Vera Sans'" font-size="12.666px" opacity=".8" xml:space="preserve"><tspan x="-332.2522" y="-450.63788"/></text>
 <text x="1128.2906" y="-723.87195" font-family="'Bitstream Vera Sans'" font-size="12.666px" opacity=".8" xml:space="preserve"><tspan x="1128.2906" y="-723.87195"/></text>
 <text x="-1270.0685" y="-498.72916" font-family="'Bitstream Vera Sans'" font-size="12.666px" opacity=".8" xml:space="preserve"><tspan x="-1270.0685" y="-498.72916"/></text>
 <text x="-3093.7542" y="246.8244" font-family="'Bitstream Vera Sans'" font-size="12.666px" opacity=".8" xml:space="preserve"><tspan x="-3093.7542" y="246.8244"/></text>
 <text x="-1378.9988" y="339.6965" font-family="'Bitstream Vera Sans'" font-size="12.666px" opacity=".8" xml:space="preserve"><tspan x="-1378.9988" y="339.6965"/></text>
 <text x="815.97375" y="-14.944462" font-family="'Bitstream Vera Sans'" font-size="12.666px" opacity=".8" xml:space="preserve"><tspan x="815.97375" y="-14.944462"/></text>
 <text x="839.93469" y="-55.686165" font-family="'Bitstream Vera Sans'" font-size="12.666px" opacity=".8" xml:space="preserve"><tspan x="839.93469" y="-55.686165"/></text>
 <text x="-630.62366" y="-85.764313" font-family="'Bitstream Vera Sans'" font-size="12.666px" opacity=".8" xml:space="preserve"><tspan x="-630.62366" y="-85.764313"/></text>
 <text x="-2454.3096" y="659.78912" font-family="'Bitstream Vera Sans'" font-size="12.666px" opacity=".8" xml:space="preserve"><tspan x="-2454.3096" y="659.78912"/></text>
 <text x="-516.13257" y="-471.08527" font-family="'Bitstream Vera Sans'" font-size="12.666px" opacity=".8" xml:space="preserve"><tspan x="-516.13257" y="-471.08527"/></text>
 <text x="291.4696" y="-884.55536" font-family="'Bitstream Vera Sans'" font-size="12.666px" opacity=".8" xml:space="preserve"><tspan x="291.4696" y="-884.55536"/></text>
 <text x="315.43054" y="-925.29712" font-family="'Bitstream Vera Sans'" font-size="12.666px" opacity=".8" xml:space="preserve"><tspan x="315.43054" y="-925.29712"/></text>
 <text x="-1176.0326" y="-932.50702" font-family="'Bitstream Vera Sans'" font-size="12.666px" opacity=".8" xml:space="preserve"><tspan x="-1176.0326" y="-932.50702"/></text>
 <text x="284.51013" y="-1205.7411" font-family="'Bitstream Vera Sans'" font-size="12.666px" opacity=".8" xml:space="preserve"><tspan x="284.51013" y="-1205.7411"/></text>
 <text x="1770.6337" y="-579.0498" font-family="'Bitstream Vera Sans'" font-size="12.666px" opacity=".8" xml:space="preserve"><tspan x="1770.6337" y="-579.0498"/></text>
 <text x="1794.5945" y="-619.79156" font-family="'Bitstream Vera Sans'" font-size="12.666px" opacity=".8" xml:space="preserve"><tspan x="1794.5945" y="-619.79156"/></text>
 <text x="303.13129" y="-627.00146" font-family="'Bitstream Vera Sans'" font-size="12.666px" opacity=".8" xml:space="preserve"><tspan x="303.13129" y="-627.00146"/></text>
 <text x="1763.6742" y="-900.23541" font-family="'Bitstream Vera Sans'" font-size="12.666px" opacity=".8" xml:space="preserve"><tspan x="1763.6742" y="-900.23541"/></text>
 <text x="-634.68506" y="-675.09277" font-family="'Bitstream Vera Sans'" font-size="12.666px" opacity=".8" xml:space="preserve"><tspan x="-634.68506" y="-675.09277"/></text>
 <text x="-2458.3706" y="70.4608" font-family="'Bitstream Vera Sans'" font-size="12.666px" opacity=".8" xml:space="preserve"><tspan x="-2458.3706" y="70.4608"/></text>
 <text x="-743.6153" y="163.33293" font-family="'Bitstream Vera Sans'" font-size="12.666px" opacity=".8" xml:space="preserve"><tspan x="-743.6153" y="163.33293"/></text>
 <text x="365.40906" y="-15.849211" font-family="'Bitstream Vera Sans'" font-size="12.666px" opacity=".8" xml:space="preserve"><tspan x="365.40906" y="-15.849211"/></text>
 <text x="389.37" y="-56.590916" font-family="'Bitstream Vera Sans'" font-size="12.666px" opacity=".8" xml:space="preserve"><tspan x="389.37" y="-56.590916"/></text>
 <text x="-1102.0931" y="-63.800888" font-family="'Bitstream Vera Sans'" font-size="12.666px" opacity=".8" xml:space="preserve"><tspan x="-1102.0931" y="-63.800888"/></text>
 <text x="358.44958" y="-337.03494" font-family="'Bitstream Vera Sans'" font-size="12.666px" opacity=".8" xml:space="preserve"><tspan x="358.44958" y="-337.03494"/></text>
 <text x="-669.28503" y="-66.515129" font-family="'Bitstream Vera Sans'" font-size="12.666px" opacity=".8" xml:space="preserve"><tspan x="-669.28503" y="-66.515129"/></text>
 <text x="-2492.9709" y="679.03839" font-family="'Bitstream Vera Sans'" font-size="12.666px" opacity=".8" xml:space="preserve"><tspan x="-2492.9709" y="679.03839"/></text>
 <text x="-518.19196" y="-928.04565" font-family="'Bitstream Vera Sans'" font-size="12.666px" opacity=".8" xml:space="preserve"><tspan x="-518.19196" y="-928.04565"/></text>
 <text x="289.41019" y="-1341.5157" font-family="'Bitstream Vera Sans'" font-size="12.666px" opacity=".8" xml:space="preserve"><tspan x="289.41019" y="-1341.5157"/></text>
 <text x="313.37109" y="-1382.2576" font-family="'Bitstream Vera Sans'" font-size="12.666px" opacity=".8" xml:space="preserve"><tspan x="313.37109" y="-1382.2576"/></text>
 <text x="-1178.092" y="-1389.4674" font-family="'Bitstream Vera Sans'" font-size="12.666px" opacity=".8" xml:space="preserve"><tspan x="-1178.092" y="-1389.4674"/></text>
 <text x="282.45068" y="-1662.7015" font-family="'Bitstream Vera Sans'" font-size="12.666px" opacity=".8" xml:space="preserve"><tspan x="282.45068" y="-1662.7015"/></text>
 <text x="1768.5741" y="-1036.0104" font-family="'Bitstream Vera Sans'" font-size="12.666px" opacity=".8" xml:space="preserve"><tspan x="1768.5741" y="-1036.0104"/></text>
 <text x="1792.5349" y="-1076.752" font-family="'Bitstream Vera Sans'" font-size="12.666px" opacity=".8" xml:space="preserve"><tspan x="1792.5349" y="-1076.752"/></text>
 <text x="301.07184" y="-1083.9618" font-family="'Bitstream Vera Sans'" font-size="12.666px" opacity=".8" xml:space="preserve"><tspan x="301.07184" y="-1083.9618"/></text>
 <text x="1761.6146" y="-1357.1959" font-family="'Bitstream Vera Sans'" font-size="12.666px" opacity=".8" xml:space="preserve"><tspan x="1761.6146" y="-1357.1959"/></text>
 <text x="-636.74451" y="-1132.0531" font-family="'Bitstream Vera Sans'" font-size="12.666px" opacity=".8" xml:space="preserve"><tspan x="-636.74451" y="-1132.0531"/></text>
 <text x="-2460.4302" y="-386.49966" font-family="'Bitstream Vera Sans'" font-size="12.666px" opacity=".8" xml:space="preserve"><tspan x="-2460.4302" y="-386.49966"/></text>
 <text x="-745.67474" y="-293.6275" font-family="'Bitstream Vera Sans'" font-size="12.666px" opacity=".8" xml:space="preserve"><tspan x="-745.67474" y="-293.6275"/></text>
 <text x="94.339828" y="-52.713341" font-family="'Bitstream Vera Sans'" font-size="12.666px" opacity=".8" xml:space="preserve"><tspan x="94.339828" y="-52.713341"/></text>
 <text x="118.30077" y="-93.455063" font-family="'Bitstream Vera Sans'" font-size="12.666px" opacity=".8" xml:space="preserve"><tspan x="118.30077" y="-93.455063"/></text>
 <text x="-1151.5159" y="-287.48364" font-family="'Bitstream Vera Sans'" font-size="12.666px" opacity=".8" xml:space="preserve"><tspan x="-1151.5159" y="-287.48364"/></text>
 <text x="-343.91388" y="-700.95386" font-family="'Bitstream Vera Sans'" font-size="12.666px" opacity=".8" xml:space="preserve"><tspan x="-343.91388" y="-700.95386"/></text>
 <text x="-319.95294" y="-741.69556" font-family="'Bitstream Vera Sans'" font-size="12.666px" opacity=".8" xml:space="preserve"><tspan x="-319.95294" y="-741.69556"/></text>
 <text x="-1811.416" y="-748.90552" font-family="'Bitstream Vera Sans'" font-size="12.666px" opacity=".8" xml:space="preserve"><tspan x="-1811.416" y="-748.90552"/></text>
 <text x="-350.87332" y="-1022.1395" font-family="'Bitstream Vera Sans'" font-size="12.666px" opacity=".8" xml:space="preserve"><tspan x="-350.87332" y="-1022.1395"/></text>
 <text x="1135.2501" y="-395.44821" font-family="'Bitstream Vera Sans'" font-size="12.666px" opacity=".8" xml:space="preserve"><tspan x="1135.2501" y="-395.44821"/></text>
 <text x="1159.2109" y="-436.18994" font-family="'Bitstream Vera Sans'" font-size="12.666px" opacity=".8" xml:space="preserve"><tspan x="1159.2109" y="-436.18994"/></text>
 <text x="-332.2522" y="-443.39987" font-family="'Bitstream Vera Sans'" font-size="12.666px" opacity=".8" xml:space="preserve"><tspan x="-332.2522" y="-443.39987"/></text>
 <text x="1128.2906" y="-716.63397" font-family="'Bitstream Vera Sans'" font-size="12.666px" opacity=".8" xml:space="preserve"><tspan x="1128.2906" y="-716.63397"/></text>
 <text x="-1270.0685" y="-491.49115" font-family="'Bitstream Vera Sans'" font-size="12.666px" opacity=".8" xml:space="preserve"><tspan x="-1270.0685" y="-491.49115"/></text>
 <text x="-3093.7542" y="254.06238" font-family="'Bitstream Vera Sans'" font-size="12.666px" opacity=".8" xml:space="preserve"><tspan x="-3093.7542" y="254.06238"/></text>
 <text x="-1378.9988" y="346.93451" font-family="'Bitstream Vera Sans'" font-size="12.666px" opacity=".8" xml:space="preserve"><tspan x="-1378.9988" y="346.93451"/></text>
 <text x="374.65179" y="-394.22052" font-family="'Droid Sans'" font-size="12.666px" xml:space="preserve"><tspan x="374.65179" y="-394.22052"/><tspan x="374.65179" y="-378.38745"/></text>
 <text x="839.83569" y="-876.26508" font-family="'Bitstream Vera Sans'" font-size="12.666px" opacity=".8" xml:space="preserve"><tspan x="839.83569" y="-876.26508"/></text>
 <text x="-983.85028" y="-130.71161" font-family="'Bitstream Vera Sans'" font-size="12.666px" opacity=".8" xml:space="preserve"><tspan x="-983.85028" y="-130.71161"/></text>
 <text x="1566.9153" y="-1161.2609" font-family="'Bitstream Vera Sans'" font-size="12.666px" opacity=".8" xml:space="preserve"><tspan x="1566.9153" y="-1161.2609"/></text>
 <text x="1590.8761" y="-1202.0026" font-family="'Bitstream Vera Sans'" font-size="12.666px" opacity=".8" xml:space="preserve"><tspan x="1590.8761" y="-1202.0026"/></text>
 <text x="99.412949" y="-1209.2125" font-family="'Bitstream Vera Sans'" font-size="12.666px" opacity=".8" xml:space="preserve"><tspan x="99.412949" y="-1209.2125"/></text>
 <text x="1559.9558" y="-1482.4467" font-family="'Bitstream Vera Sans'" font-size="12.666px" opacity=".8" xml:space="preserve"><tspan x="1559.9558" y="-1482.4467"/></text>
 <rect transform="matrix(.7071 .70711 -.7071 .70711 0 0)" x="5.423" y="-5.8908" width="11.781" height="11.781" rx=".80005" ry=".80005" fill="#67428d"/>
 <path d="m7.8926 4.0005c0.73098 0 1.3009 0.1761 1.709 0.5273 0.41162 0.3514 0.61719 0.8189 0.61719 1.4043 0 0.4898-0.14457 0.9005-0.43555 1.2305-0.29097 0.33-0.70673 0.5406-1.2461 0.6328v0.031c1.281 0.1668 1.9219 0.7854 1.9219 1.8535 0 0.7203-0.24469 1.2879-0.73438 1.7031-0.48969 0.4116-1.1969 0.6172-2.123 0.6172-0.85873 0-1.546-0.1396-2.0605-0.4199v-0.9063c0.65292 0.3407 1.3329 0.5117 2.0391 0.5117 1.2562 0 1.8828-0.5116 1.8828-1.5371 0-0.9155-0.67538-1.375-2.0273-1.375h-0.70703v-0.8027h0.70703c0.56775 0 1.008-0.1346 1.3203-0.4043 0.31226-0.2697 0.46875-0.6268 0.46875-1.0703 0-0.3619-0.12199-0.648-0.36328-0.8574-0.2413-0.2129-0.56422-0.3184-0.96875-0.3184-0.63162 0-1.241 0.2133-1.8301 0.6426l-0.4902-0.6641c0.6635-0.5322 1.4367-0.7988 2.3203-0.7988z" fill="#8b93ff"/>
</svg>
