<svg width="16" height="16" version="1.1" viewBox="0 0 16 16" xmlns="http://www.w3.org/2000/svg">
 <path d="m4.5591809 0.99999988c-0.3160015 3.232e-5 -0.5721628 0.26173772-0.5721947 0.58457752 0 2.6524924-0.4792592 4.5211835-0.9711667 5.2959526-0.2787367 0.4390184-0.4916933 0.67118-0.8270004 0.8357631-0.3353067 0.1645827-0.750334 0.266599-1.6166241 0.266599-0.31600157 3.25e-5 -0.5721635 0.2617382-0.57219491 0.5845779v4.847952c3.162963e-5 0.32284 0.2561935 0.584546 0.57219491 0.584578 3.1202567 0 5.951799-1.411648 7.5039117-3.856271 1.5242286-2.4007045 1.9238933-5.3130799 1.9238933-8.5591516-3.1e-5 -0.32284-0.2561931-0.5845454-0.5721947-0.58457752z" style="fill-rule:evenodd;fill:#115ccc"/>
 <path d="m4.6048159 0.99999988c-0.4459476 1.9422e-4 -0.7380894 0.46401672-0.5434867 0.86287342l5.7547027 11.798664c0.101122 0.207143 0.3124521 0.338609 0.5440761 0.338463h5.035365c0.445538-4.03e-4 0.737476-0.463587 0.543487-0.862287l-5.754702-11.799251c-0.10103-0.2069523-0.3120761-0.3383838-0.5434873-0.33846222z" style="fill:#3387f5"/>
</svg>
