<svg width="16" height="16" version="1" xmlns="http://www.w3.org/2000/svg">
 <path d="m8 0c-4.418 0-8 3.5816-8 8s3.582 8 8 8c4.4176 0 8-3.5816 8-8s-3.5824-8-8-8z" style="fill:#6eaa36"/>
 <path d="m7.9944 1.6c-2.45432 0-3.85696 1.00488-4.77208 2.1372 0.701344 0.192368 1.19144 0.352544 1.34936 0.404808 0.0019-0.106048 0.01886-1.06136 0.01886-1.06136l0.01378-0.03047 0.03554-0.01088c0.2158 0.0312 4.81736 0.71168 6.75544 1.8412 0.239944 0.141144 0.357792 0.28844 0.506368 0.440352 0.535608 0.553808 1.24712 2.85912 1.32248 3.33568l-0.03047 0.04934c-0.02764 0.01022-0.0953 0.05731-0.183544 0.117528-0.452144 0.3162-1.50944 1.05624-2.8648 0.93584-1.21896-0.10868-2.80928-0.80784-4.72784-2.0712 0.08446 0.1992 0.483248 1.14608 0.549896 1.30512l0.02757 0.03265c0.277832 0.14352 2.94328 1.50248 4.26568 1.47488 1.0672-0.02121 2.20648-0.542 2.6624-0.81544l0.145088-0.02757c0.04052 0.03181 0.03425 0.09371 0.02177 0.150896-0.02802 0.130648-0.09066 0.370368-0.134208 0.481704l-0.03554 0.09286c-0.05188 0.137848-0.102552 0.270872-0.199504 0.3504-0.26888 0.244624-0.699304 0.438088-1.37112 0.732712-1.03904 0.45404-2.72272 0.73964-4.28744 0.730536-0.55952-0.0136-1.102-0.0752-1.578-0.1296-0.99328-0.1128-1.80024-0.204-2.28232 0.1704 1.1724 1.32504 2.8852 2.16184 4.79384 2.16184 3.53456 0 6.40288-2.8652 6.40288-6.4 0-3.53432-2.86816-6.4-6.40288-6.4h-7.43e-4zm1.69176 3.3872c-0.489888 0.0074-0.95088 0.190496-1.31088 0.528136-0.385504 0.357096-0.607504 0.84552-0.626072 1.37112-0.03521 1.08344 0.8176 1.998 1.90144 2.03856 0.52792 0.01705 1.02736-0.170896 1.41176-0.531032 0.383256-0.358248 0.604576-0.84336 0.623896-1.36824 0.0371-1.08496-0.81568-1.99952-1.90144-2.03856-0.03288-0.0011-0.06601-4.83e-4 -0.09866 0zm-0.05223 0.580368c0.04518-0.0027 0.08838-0.0017 0.134208 0 0.757024 0.02652 1.35224 0.661176 1.32688 1.41976-0.01137 0.36508-0.166816 0.707248-0.434552 0.95832-0.268472 0.249184-0.617456 0.37772-0.9852 0.36636-0.756648-0.02804-1.34968-0.665232-1.32472-1.42264 0.01174-0.366568 0.169048-0.705488 0.435272-0.95544 0.2336-0.219032 0.531856-0.347128 0.84808-0.36636zm0.3608 0.68696c-0.337408 0-0.610112 0.18276-0.610112 0.407712 0 0.223432 0.272688 0.407712 0.610112 0.407712 0.336304 0 0.607208-0.183896 0.607208-0.407712 0-0.224944-0.27092-0.407712-0.607208-0.407712z" style="fill:#ffffff"/>
</svg>
