<svg width="16" height="16" version="1.1" viewBox="0 0 4.23 4.23" xmlns="http://www.w3.org/2000/svg">
 <path d="m2.1223185 6.9098422e-5c-0.0140115-4.1599783e-4 -0.0275478 0.0049475716-0.0372479 0.014758322-0.1399571 0.14157687-0.2822021 0.30043076-0.4107601 0.45163377-1.495e-4 1.898e-4 -2.971e-4 3.81e-4 -4.425e-4 5.72e-4 -0.3167988 0.38299261-0.5575934 0.77651541-0.7320967 1.1978621-0.16255566 0.3924985-0.25759736 0.7055169-0.34409847 1.2001332-0.0189427 0.1083129-0.0380844 0.2395607-0.0512898 0.3451731-0.006603 0.052806-0.0117292 0.099135-0.0146332 0.1333982-0.001451 0.017132-0.002299 0.031186-0.002512 0.042556-1.074e-4 0.00568-1.2439e-4 0.010424 4.425e-4 0.016334 2.8395e-4 0.00295 5.5124e-4 0.00611 0.00207 0.011463 0.001519 0.00535 2.7937e-4 0.016223 0.0224669 0.029517 0.011973 0.00717 0.0135843 0.00576 0.0165547 0.00645 0.00297 6.92e-4 0.005271 0.0012 0.007686 0.00158 0.00483 7.64e-4 0.009959 0.00126 0.0158156 0.00186 0.0117127 0.00121 0.0262162 0.00234 0.0415342 0.00316 0.68710897 0.2476468 0.95169227 0.5122303 1.4808589 0.7767053 0.5291667-0.264475 0.79375-0.5290585 1.5101956-0.7808828l0.031927-0.00258c0.025665-0.00208 0.0454-0.02289 0.045377-0.047857v-0.018187c3e-7 -0.037937-0.00931-0.116291-0.021874-0.2133511-0.0125654-0.097059-0.0286341-0.2075322-0.0431616-0.2914402-0.0863989-0.4990634-0.184627-0.8240305-0.3492719-1.2214825-0.1483221-0.358049-0.3606656-0.719732-0.6144404-1.0471254-5.7e-4 -7.36e-4 -0.00116-0.001448-0.00177-0.002152-0.1708234-0.19601573-0.3360566-0.40175178-0.5162992-0.59247999-0.0090191-0.00958211-0.0216562-0.015216444-0.0350306-0.015618042z" style="fill:#0278dc"/>
 <path transform="scale(.26458333)" d="m8.0214844 0c-0.0529573-0.0015719918-0.1039632 0.019560436-0.140625 0.056640625-0.449102 0.45429954-0.8937413 0.95844018-1.3183594 1.4492188l1.4414062 8.7519526 1.4296876-8.7460932c-0.0071613-0.0084445-0.0143218-0.0169465-0.0214844-0.0253907-0.4098377-0.4831678-0.8219006-0.96646372-1.2578125-1.4277344-0.0340876-0.036215849-0.0822636-0.057075918-0.1328125-0.05859375zm-0.0175782 10.257812l4.3906248-4.0507808c-0.301168-0.7115365-0.671599-1.4246352-1.09375-2.1210937l-3.2968748 6.1718745zl5.4335938-0.8183589c-0.13366-0.578736-0.284305-1.1207555-0.455078-1.6464843l-4.9785158 2.4648432zl5.8066408 2.783204h0.001953l0.015625-0.001954c0.097002-0.007861 0.171962-0.087277 0.171875-0.18164v-0.058594c0-0.001717 1e-5 -0.008005 0-0.009766-8.33e-4 -0.144796-0.035138-0.433642-0.082031-0.794921-0.023925-0.184124-0.053836-0.362213-0.082031-0.552735v-0.007812c-0.02133-0.144798-0.04114-0.290641-0.0625-0.419922l-5.7695318-0.75586zl2.3359378 4.398438c0.426199-0.256036 0.884608-0.511347 1.386718-0.763672l-3.7226558-3.634766zl-0.9882812 5.197266c0.3130658 0.181342 0.6208221 0.36322 0.984375 0.544922 0.3479062-0.173882 0.6417192-0.347834 0.9433594-0.521484l-0.9394532-5.220704zl-3.6777343 3.648438c0.4239286 0.218005 0.8243151 0.436362 1.1933593 0.658203l2.484375-4.306641zl-5.7597656 0.691407c-0.0657641 0.386761-0.1338222 0.829666-0.1796875 1.195312-0.0244764 0.195122-0.0435938 0.363885-0.0546875 0.492188-2.175e-4 0.002515 2.111e-4 0.007283 0 0.009765-0.0048973 0.059557-0.0090089 0.11195-0.0097656 0.152344-2.62e-5 0.001384 2.28e-5 0.00255 0 0.003906-1.16e-5 5.24e-4 1.09e-5 0.001432 0 0.001954v0.001953c-2.2e-4 0.017461 1.344e-4 0.033802 0.0019531 0.052734 0.0010725 0.01115 0.0020703 0.022714 0.0078125 0.042969 0.0028706 0.010129 0.0036316 0.025804 0.0136719 0.044922 0.0100403 0.019117 0.0283834 0.041285 0.0703125 0.066406 0.0452519 0.027099 0.0532264 0.022783 0.0644531 0.02539 0.0112252 0.0026 0.0182162 0.004424 0.0273438 0.00586 0.0182551 0.00288 0.0384128 0.005545 0.0605469 0.007812 0.0442684 0.004574 0.0983551 0.00862 0.15625 0.011719 0.0988291 0.03562 0.1810439 0.07162 0.2753906 0.107422l5.3261718-2.914063zl-4.9824218-2.4648432c-0.1639449 0.5033941-0.3101344 1.0224654-0.4394532 1.5761718l5.421875 0.8886714zl-3.2851562-6.2070308c-0.3989227 0.6542264-0.7451273 1.3243936-1.0449219 2.0117188l4.3300781 4.195312z" style="fill-rule:evenodd;fill:#48a0f8"/>
</svg>
