<svg width="16" height="16" version="1.0" xmlns="http://www.w3.org/2000/svg">
 <text x="877.22626" y="-21.187399" font-family="'Bitstream Vera Sans'" font-size="12.666px" opacity=".8" xml:space="preserve"><tspan x="877.22626" y="-21.187399"/></text>
 <text x="901.18719" y="-61.929108" font-family="'Bitstream Vera Sans'" font-size="12.666px" opacity=".8" xml:space="preserve"><tspan x="901.18719" y="-61.929108"/></text>
 <text x="-569.37115" y="-92.007248" font-family="'Bitstream Vera Sans'" font-size="12.666px" opacity=".8" xml:space="preserve"><tspan x="-569.37115" y="-92.007248"/></text>
 <text x="-2393.0571" y="653.5462" font-family="'Bitstream Vera Sans'" font-size="12.666px" opacity=".8" xml:space="preserve"><tspan x="-2393.0571" y="653.5462"/></text>
 <text x="-454.88007" y="-477.32822" font-family="'Bitstream Vera Sans'" font-size="12.666px" opacity=".8" xml:space="preserve"><tspan x="-454.88007" y="-477.32822"/></text>
 <text x="352.72208" y="-890.79834" font-family="'Bitstream Vera Sans'" font-size="12.666px" opacity=".8" xml:space="preserve"><tspan x="352.72208" y="-890.79834"/></text>
 <text x="376.68301" y="-931.54004" font-family="'Bitstream Vera Sans'" font-size="12.666px" opacity=".8" xml:space="preserve"><tspan x="376.68301" y="-931.54004"/></text>
 <text x="-1114.7802" y="-938.74994" font-family="'Bitstream Vera Sans'" font-size="12.666px" opacity=".8" xml:space="preserve"><tspan x="-1114.7802" y="-938.74994"/></text>
 <text x="345.7626" y="-1211.9841" font-family="'Bitstream Vera Sans'" font-size="12.666px" opacity=".8" xml:space="preserve"><tspan x="345.7626" y="-1211.9841"/></text>
 <text x="1831.8861" y="-585.29272" font-family="'Bitstream Vera Sans'" font-size="12.666px" opacity=".8" xml:space="preserve"><tspan x="1831.8861" y="-585.29272"/></text>
 <text x="1855.8469" y="-626.03448" font-family="'Bitstream Vera Sans'" font-size="12.666px" opacity=".8" xml:space="preserve"><tspan x="1855.8469" y="-626.03448"/></text>
 <text x="364.38376" y="-633.24438" font-family="'Bitstream Vera Sans'" font-size="12.666px" opacity=".8" xml:space="preserve"><tspan x="364.38376" y="-633.24438"/></text>
 <text x="1824.9266" y="-906.47839" font-family="'Bitstream Vera Sans'" font-size="12.666px" opacity=".8" xml:space="preserve"><tspan x="1824.9266" y="-906.47839"/></text>
 <text x="-573.43256" y="-681.33569" font-family="'Bitstream Vera Sans'" font-size="12.666px" opacity=".8" xml:space="preserve"><tspan x="-573.43256" y="-681.33569"/></text>
 <text x="-2397.1182" y="64.217857" font-family="'Bitstream Vera Sans'" font-size="12.666px" opacity=".8" xml:space="preserve"><tspan x="-2397.1182" y="64.217857"/></text>
 <text x="-682.36279" y="157.09" font-family="'Bitstream Vera Sans'" font-size="12.666px" opacity=".8" xml:space="preserve"><tspan x="-682.36279" y="157.09"/></text>
 <text x="426.66153" y="-22.092148" font-family="'Bitstream Vera Sans'" font-size="12.666px" opacity=".8" xml:space="preserve"><tspan x="426.66153" y="-22.092148"/></text>
 <text x="450.62247" y="-62.833855" font-family="'Bitstream Vera Sans'" font-size="12.666px" opacity=".8" xml:space="preserve"><tspan x="450.62247" y="-62.833855"/></text>
 <text x="-1040.8407" y="-70.043823" font-family="'Bitstream Vera Sans'" font-size="12.666px" opacity=".8" xml:space="preserve"><tspan x="-1040.8407" y="-70.043823"/></text>
 <text x="419.70206" y="-343.27789" font-family="'Bitstream Vera Sans'" font-size="12.666px" opacity=".8" xml:space="preserve"><tspan x="419.70206" y="-343.27789"/></text>
 <text x="-608.03253" y="-72.758072" font-family="'Bitstream Vera Sans'" font-size="12.666px" opacity=".8" xml:space="preserve"><tspan x="-608.03253" y="-72.758072"/></text>
 <text x="-2431.7185" y="672.79541" font-family="'Bitstream Vera Sans'" font-size="12.666px" opacity=".8" xml:space="preserve"><tspan x="-2431.7185" y="672.79541"/></text>
 <text x="-456.93948" y="-934.28857" font-family="'Bitstream Vera Sans'" font-size="12.666px" opacity=".8" xml:space="preserve"><tspan x="-456.93948" y="-934.28857"/></text>
 <text x="350.66266" y="-1347.7588" font-family="'Bitstream Vera Sans'" font-size="12.666px" opacity=".8" xml:space="preserve"><tspan x="350.66266" y="-1347.7588"/></text>
 <text x="374.62357" y="-1388.5005" font-family="'Bitstream Vera Sans'" font-size="12.666px" opacity=".8" xml:space="preserve"><tspan x="374.62357" y="-1388.5005"/></text>
 <text x="-1116.8396" y="-1395.7104" font-family="'Bitstream Vera Sans'" font-size="12.666px" opacity=".8" xml:space="preserve"><tspan x="-1116.8396" y="-1395.7104"/></text>
 <text x="343.70316" y="-1668.9446" font-family="'Bitstream Vera Sans'" font-size="12.666px" opacity=".8" xml:space="preserve"><tspan x="343.70316" y="-1668.9446"/></text>
 <text x="1829.8265" y="-1042.2533" font-family="'Bitstream Vera Sans'" font-size="12.666px" opacity=".8" xml:space="preserve"><tspan x="1829.8265" y="-1042.2533"/></text>
 <text x="1853.7874" y="-1082.9949" font-family="'Bitstream Vera Sans'" font-size="12.666px" opacity=".8" xml:space="preserve"><tspan x="1853.7874" y="-1082.9949"/></text>
 <text x="362.32431" y="-1090.2048" font-family="'Bitstream Vera Sans'" font-size="12.666px" opacity=".8" xml:space="preserve"><tspan x="362.32431" y="-1090.2048"/></text>
 <text x="1822.8671" y="-1363.439" font-family="'Bitstream Vera Sans'" font-size="12.666px" opacity=".8" xml:space="preserve"><tspan x="1822.8671" y="-1363.439"/></text>
 <text x="-575.492" y="-1138.2961" font-family="'Bitstream Vera Sans'" font-size="12.666px" opacity=".8" xml:space="preserve"><tspan x="-575.492" y="-1138.2961"/></text>
 <text x="-2399.1777" y="-392.74261" font-family="'Bitstream Vera Sans'" font-size="12.666px" opacity=".8" xml:space="preserve"><tspan x="-2399.1777" y="-392.74261"/></text>
 <text x="-684.42224" y="-299.87045" font-family="'Bitstream Vera Sans'" font-size="12.666px" opacity=".8" xml:space="preserve"><tspan x="-684.42224" y="-299.87045"/></text>
 <text x="155.5923" y="-58.956276" font-family="'Bitstream Vera Sans'" font-size="12.666px" opacity=".8" xml:space="preserve"><tspan x="155.5923" y="-58.956276"/></text>
 <text x="179.55324" y="-99.697998" font-family="'Bitstream Vera Sans'" font-size="12.666px" opacity=".8" xml:space="preserve"><tspan x="179.55324" y="-99.697998"/></text>
 <text x="-1090.2634" y="-293.72662" font-family="'Bitstream Vera Sans'" font-size="12.666px" opacity=".8" xml:space="preserve"><tspan x="-1090.2634" y="-293.72662"/></text>
 <text x="-282.66141" y="-707.19678" font-family="'Bitstream Vera Sans'" font-size="12.666px" opacity=".8" xml:space="preserve"><tspan x="-282.66141" y="-707.19678"/></text>
 <text x="-258.70047" y="-747.93848" font-family="'Bitstream Vera Sans'" font-size="12.666px" opacity=".8" xml:space="preserve"><tspan x="-258.70047" y="-747.93848"/></text>
 <text x="-1750.1636" y="-755.14838" font-family="'Bitstream Vera Sans'" font-size="12.666px" opacity=".8" xml:space="preserve"><tspan x="-1750.1636" y="-755.14838"/></text>
 <text x="-289.62085" y="-1028.3826" font-family="'Bitstream Vera Sans'" font-size="12.666px" opacity=".8" xml:space="preserve"><tspan x="-289.62085" y="-1028.3826"/></text>
 <text x="1196.5026" y="-401.69113" font-family="'Bitstream Vera Sans'" font-size="12.666px" opacity=".8" xml:space="preserve"><tspan x="1196.5026" y="-401.69113"/></text>
 <text x="1220.4634" y="-442.43286" font-family="'Bitstream Vera Sans'" font-size="12.666px" opacity=".8" xml:space="preserve"><tspan x="1220.4634" y="-442.43286"/></text>
 <text x="-270.99973" y="-449.64282" font-family="'Bitstream Vera Sans'" font-size="12.666px" opacity=".8" xml:space="preserve"><tspan x="-270.99973" y="-449.64282"/></text>
 <text x="1189.5431" y="-722.87689" font-family="'Bitstream Vera Sans'" font-size="12.666px" opacity=".8" xml:space="preserve"><tspan x="1189.5431" y="-722.87689"/></text>
 <text x="-1208.816" y="-497.7341" font-family="'Bitstream Vera Sans'" font-size="12.666px" opacity=".8" xml:space="preserve"><tspan x="-1208.816" y="-497.7341"/></text>
 <text x="-3032.5017" y="247.81946" font-family="'Bitstream Vera Sans'" font-size="12.666px" opacity=".8" xml:space="preserve"><tspan x="-3032.5017" y="247.81946"/></text>
 <g transform="matrix(.90475 0 0 .90475 -716.75 -708.29)">
  <text x="-664.2738" y="1159.4154" font-family="'Bitstream Vera Sans'" font-size="14px" opacity=".8" xml:space="preserve"><tspan x="-664.2738" y="1159.4154"/></text>
 </g>
 <text x="877.22626" y="-13.949411" font-family="'Bitstream Vera Sans'" font-size="12.666px" opacity=".8" xml:space="preserve"><tspan x="877.22626" y="-13.949411"/></text>
 <text x="901.18719" y="-54.691116" font-family="'Bitstream Vera Sans'" font-size="12.666px" opacity=".8" xml:space="preserve"><tspan x="901.18719" y="-54.691116"/></text>
 <text x="-569.37115" y="-84.769257" font-family="'Bitstream Vera Sans'" font-size="12.666px" opacity=".8" xml:space="preserve"><tspan x="-569.37115" y="-84.769257"/></text>
 <text x="-2393.0571" y="660.78418" font-family="'Bitstream Vera Sans'" font-size="12.666px" opacity=".8" xml:space="preserve"><tspan x="-2393.0571" y="660.78418"/></text>
 <text x="-454.88007" y="-470.09021" font-family="'Bitstream Vera Sans'" font-size="12.666px" opacity=".8" xml:space="preserve"><tspan x="-454.88007" y="-470.09021"/></text>
 <text x="352.72208" y="-883.5603" font-family="'Bitstream Vera Sans'" font-size="12.666px" opacity=".8" xml:space="preserve"><tspan x="352.72208" y="-883.5603"/></text>
 <text x="376.68301" y="-924.30206" font-family="'Bitstream Vera Sans'" font-size="12.666px" opacity=".8" xml:space="preserve"><tspan x="376.68301" y="-924.30206"/></text>
 <text x="-1114.7802" y="-931.51196" font-family="'Bitstream Vera Sans'" font-size="12.666px" opacity=".8" xml:space="preserve"><tspan x="-1114.7802" y="-931.51196"/></text>
 <text x="345.7626" y="-1204.7461" font-family="'Bitstream Vera Sans'" font-size="12.666px" opacity=".8" xml:space="preserve"><tspan x="345.7626" y="-1204.7461"/></text>
 <text x="1831.8861" y="-578.05475" font-family="'Bitstream Vera Sans'" font-size="12.666px" opacity=".8" xml:space="preserve"><tspan x="1831.8861" y="-578.05475"/></text>
 <text x="1855.8469" y="-618.79651" font-family="'Bitstream Vera Sans'" font-size="12.666px" opacity=".8" xml:space="preserve"><tspan x="1855.8469" y="-618.79651"/></text>
 <text x="364.38376" y="-626.00641" font-family="'Bitstream Vera Sans'" font-size="12.666px" opacity=".8" xml:space="preserve"><tspan x="364.38376" y="-626.00641"/></text>
 <text x="1824.9266" y="-899.24036" font-family="'Bitstream Vera Sans'" font-size="12.666px" opacity=".8" xml:space="preserve"><tspan x="1824.9266" y="-899.24036"/></text>
 <text x="-573.43256" y="-674.09772" font-family="'Bitstream Vera Sans'" font-size="12.666px" opacity=".8" xml:space="preserve"><tspan x="-573.43256" y="-674.09772"/></text>
 <text x="-2397.1182" y="71.455849" font-family="'Bitstream Vera Sans'" font-size="12.666px" opacity=".8" xml:space="preserve"><tspan x="-2397.1182" y="71.455849"/></text>
 <text x="-682.36279" y="164.32799" font-family="'Bitstream Vera Sans'" font-size="12.666px" opacity=".8" xml:space="preserve"><tspan x="-682.36279" y="164.32799"/></text>
 <text x="426.66153" y="-14.85416" font-family="'Bitstream Vera Sans'" font-size="12.666px" opacity=".8" xml:space="preserve"><tspan x="426.66153" y="-14.85416"/></text>
 <text x="450.62247" y="-55.595863" font-family="'Bitstream Vera Sans'" font-size="12.666px" opacity=".8" xml:space="preserve"><tspan x="450.62247" y="-55.595863"/></text>
 <text x="-1040.8407" y="-62.805836" font-family="'Bitstream Vera Sans'" font-size="12.666px" opacity=".8" xml:space="preserve"><tspan x="-1040.8407" y="-62.805836"/></text>
 <text x="419.70206" y="-336.03989" font-family="'Bitstream Vera Sans'" font-size="12.666px" opacity=".8" xml:space="preserve"><tspan x="419.70206" y="-336.03989"/></text>
 <text x="-608.03253" y="-65.520081" font-family="'Bitstream Vera Sans'" font-size="12.666px" opacity=".8" xml:space="preserve"><tspan x="-608.03253" y="-65.520081"/></text>
 <text x="-2431.7185" y="680.03345" font-family="'Bitstream Vera Sans'" font-size="12.666px" opacity=".8" xml:space="preserve"><tspan x="-2431.7185" y="680.03345"/></text>
 <text x="-456.93948" y="-927.0506" font-family="'Bitstream Vera Sans'" font-size="12.666px" opacity=".8" xml:space="preserve"><tspan x="-456.93948" y="-927.0506"/></text>
 <text x="350.66266" y="-1340.5208" font-family="'Bitstream Vera Sans'" font-size="12.666px" opacity=".8" xml:space="preserve"><tspan x="350.66266" y="-1340.5208"/></text>
 <text x="374.62357" y="-1381.2626" font-family="'Bitstream Vera Sans'" font-size="12.666px" opacity=".8" xml:space="preserve"><tspan x="374.62357" y="-1381.2626"/></text>
 <text x="-1116.8396" y="-1388.4724" font-family="'Bitstream Vera Sans'" font-size="12.666px" opacity=".8" xml:space="preserve"><tspan x="-1116.8396" y="-1388.4724"/></text>
 <text x="343.70316" y="-1661.7065" font-family="'Bitstream Vera Sans'" font-size="12.666px" opacity=".8" xml:space="preserve"><tspan x="343.70316" y="-1661.7065"/></text>
 <text x="1829.8265" y="-1035.0154" font-family="'Bitstream Vera Sans'" font-size="12.666px" opacity=".8" xml:space="preserve"><tspan x="1829.8265" y="-1035.0154"/></text>
 <text x="1853.7874" y="-1075.757" font-family="'Bitstream Vera Sans'" font-size="12.666px" opacity=".8" xml:space="preserve"><tspan x="1853.7874" y="-1075.757"/></text>
 <text x="362.32431" y="-1082.9668" font-family="'Bitstream Vera Sans'" font-size="12.666px" opacity=".8" xml:space="preserve"><tspan x="362.32431" y="-1082.9668"/></text>
 <text x="1822.8671" y="-1356.2009" font-family="'Bitstream Vera Sans'" font-size="12.666px" opacity=".8" xml:space="preserve"><tspan x="1822.8671" y="-1356.2009"/></text>
 <text x="-575.492" y="-1131.0581" font-family="'Bitstream Vera Sans'" font-size="12.666px" opacity=".8" xml:space="preserve"><tspan x="-575.492" y="-1131.0581"/></text>
 <text x="-2399.1777" y="-385.50461" font-family="'Bitstream Vera Sans'" font-size="12.666px" opacity=".8" xml:space="preserve"><tspan x="-2399.1777" y="-385.50461"/></text>
 <text x="-684.42224" y="-292.63245" font-family="'Bitstream Vera Sans'" font-size="12.666px" opacity=".8" xml:space="preserve"><tspan x="-684.42224" y="-292.63245"/></text>
 <text x="155.5923" y="-51.718292" font-family="'Bitstream Vera Sans'" font-size="12.666px" opacity=".8" xml:space="preserve"><tspan x="155.5923" y="-51.718292"/></text>
 <text x="179.55324" y="-92.460007" font-family="'Bitstream Vera Sans'" font-size="12.666px" opacity=".8" xml:space="preserve"><tspan x="179.55324" y="-92.460007"/></text>
 <text x="-1090.2634" y="-286.48859" font-family="'Bitstream Vera Sans'" font-size="12.666px" opacity=".8" xml:space="preserve"><tspan x="-1090.2634" y="-286.48859"/></text>
 <text x="-282.66141" y="-699.9588" font-family="'Bitstream Vera Sans'" font-size="12.666px" opacity=".8" xml:space="preserve"><tspan x="-282.66141" y="-699.9588"/></text>
 <text x="-258.70047" y="-740.7005" font-family="'Bitstream Vera Sans'" font-size="12.666px" opacity=".8" xml:space="preserve"><tspan x="-258.70047" y="-740.7005"/></text>
 <text x="-1750.1636" y="-747.91046" font-family="'Bitstream Vera Sans'" font-size="12.666px" opacity=".8" xml:space="preserve"><tspan x="-1750.1636" y="-747.91046"/></text>
 <text x="-289.62085" y="-1021.1445" font-family="'Bitstream Vera Sans'" font-size="12.666px" opacity=".8" xml:space="preserve"><tspan x="-289.62085" y="-1021.1445"/></text>
 <text x="1196.5026" y="-394.45316" font-family="'Bitstream Vera Sans'" font-size="12.666px" opacity=".8" xml:space="preserve"><tspan x="1196.5026" y="-394.45316"/></text>
 <text x="1220.4634" y="-435.19489" font-family="'Bitstream Vera Sans'" font-size="12.666px" opacity=".8" xml:space="preserve"><tspan x="1220.4634" y="-435.19489"/></text>
 <text x="-270.99973" y="-442.40482" font-family="'Bitstream Vera Sans'" font-size="12.666px" opacity=".8" xml:space="preserve"><tspan x="-270.99973" y="-442.40482"/></text>
 <text x="1189.5431" y="-715.63892" font-family="'Bitstream Vera Sans'" font-size="12.666px" opacity=".8" xml:space="preserve"><tspan x="1189.5431" y="-715.63892"/></text>
 <text x="-1208.816" y="-490.49609" font-family="'Bitstream Vera Sans'" font-size="12.666px" opacity=".8" xml:space="preserve"><tspan x="-1208.816" y="-490.49609"/></text>
 <text x="-3032.5017" y="255.05743" font-family="'Bitstream Vera Sans'" font-size="12.666px" opacity=".8" xml:space="preserve"><tspan x="-3032.5017" y="255.05743"/></text>
 <g transform="matrix(.90475 0 0 .90475 -716.75 -701.05)">
  <text x="-664.2738" y="1159.4154" font-family="'Bitstream Vera Sans'" font-size="14px" opacity=".8" xml:space="preserve"><tspan x="-664.2738" y="1159.4154"/></text>
 </g>
 <text x="435.90427" y="-393.22546" font-family="'Droid Sans'" font-size="12.666px" xml:space="preserve"><tspan x="435.90427" y="-393.22546"/><tspan x="435.90427" y="-377.3924"/></text>
 <text x="901.0882" y="-875.27002" font-family="'Bitstream Vera Sans'" font-size="12.666px" opacity=".8" xml:space="preserve"><tspan x="901.0882" y="-875.27002"/></text>
 <text x="-922.59778" y="-129.71655" font-family="'Bitstream Vera Sans'" font-size="12.666px" opacity=".8" xml:space="preserve"><tspan x="-922.59778" y="-129.71655"/></text>
 <text x="1628.1677" y="-1160.2659" font-family="'Bitstream Vera Sans'" font-size="12.666px" opacity=".8" xml:space="preserve"><tspan x="1628.1677" y="-1160.2659"/></text>
 <text x="1652.1285" y="-1201.0076" font-family="'Bitstream Vera Sans'" font-size="12.666px" opacity=".8" xml:space="preserve"><tspan x="1652.1285" y="-1201.0076"/></text>
 <text x="160.66542" y="-1208.2175" font-family="'Bitstream Vera Sans'" font-size="12.666px" opacity=".8" xml:space="preserve"><tspan x="160.66542" y="-1208.2175"/></text>
 <text x="1621.2083" y="-1481.4517" font-family="'Bitstream Vera Sans'" font-size="12.666px" opacity=".8" xml:space="preserve"><tspan x="1621.2083" y="-1481.4517"/></text>
 <path d="m7.7891 7.2051c-0.2554 0.1458-0.5462 0.2229-0.8417 0.2235-0.030857 0-0.06-0.00629-0.090286-8e-3v3.1857l-0.72743-0.81143a0.76189 0.76189 0 0 1 -0.60629 0.3 0.76189 0.76189 0 0 1 -0.018857 0.164l1.3526 1.4789v2.4166c-0.9395 0.301-1.1429 1.014-1.1429 1.846h4.5714c0-0.832-0.20343-1.5446-1.1429-1.8457v-0.788l1.3806-1.3337a0.76189 0.81634 0 0 1 -0.04686 -0.27714 0.76189 0.81634 0 0 1 0.10286 -0.40972 0.76189 0.81634 0 0 1 -0.0046 -0.0063 0.76189 0.81634 0 0 1 -0.09829 0.0074 0.76189 0.81634 0 0 1 -0.32171 -0.07657l-1.012 0.964v-4.8914c-0.164 0.051429-0.33371 0.085714-0.51143 0.085714-0.2962-3e-4 -0.5865-0.0774-0.8425-0.2232z" fill="#a57959"/>
 <path d="m7.7891 0c-0.4468 5.5385e-4 -0.8754 0.1888-1.1908 0.52283-0.16-0.05175-0.3263-0.07809-0.4932-0.07809-0.93029 0-1.6844 0.79575-1.6844 1.7776 5.714e-4 0.41889 0.14137 0.82418 0.39754 1.1442-0.5071 0.3209-0.8175 0.899-0.8182 1.5229 9e-4 0.8281 0.5432 1.5457 1.308 1.7309 0.1754 0.8068 0.8554 1.3785 1.6394 1.3797 0.2955-6e-4 0.5863-0.0837 0.8417-0.2406 0.256 0.1569 0.5463 0.24 0.8423 0.2406 0.6075-6e-4 1.1675-0.3458 1.4656-0.904 0.845-0.1077 1.481-0.8646 1.482-1.7631 0-0.0504-3e-3 -0.1009-8e-3 -0.1514 0.276-0.3251 0.428-0.7456 0.429-1.1815-1e-3 -0.8282-0.543-1.546-1.308-1.7308-0.159-0.7297-0.7343-1.2763-1.4389-1.3666-0.2982-0.55706-0.8577-0.90174-1.464-0.9026z" fill="#1c8d43"/>
 <path d="m5.667 9a0.66665 0.66665 0 0 0 -0.667 0.667 0.66665 0.66665 0 0 0 0.0899 0.333 0.66665 0.66665 0 0 0 -0.0899 0.333 0.66665 0.66665 0 0 0 0.667 0.667 0.66665 0.66665 0 0 0 0.666 -0.667 0.66665 0.66665 0 0 0 0.667 -0.666 0.66665 0.66665 0 0 0 -0.667 -0.667 0.66665 0.66665 0 0 0 -0.333 0.09 0.66665 0.66665 0 0 0 -0.333 -0.09z" fill="#1c8d43"/>
 <path d="m9.667 10a0.66665 0.85715 0 0 0 -0.667 0.857 0.66665 0.85715 0 0 0 0.667 0.85739 0.66665 0.85715 0 0 0 0.086 -0.0078 0.66665 0.85715 0 0 0 4e-3 0.0066 0.66665 0.85715 0 0 0 -0.09 0.43019 0.66665 0.85715 0 0 0 0.666 0.85679 0.66665 0.85715 0 0 0 0.66697 -0.85679 0.66665 0.85715 0 0 0 -0.09 -0.42899 0.66665 0.85715 0 0 0 0.09 -0.42839 0.66665 0.85715 0 0 0 -0.667 -0.85679 0.66665 0.85715 0 0 0 -0.086 0.0084 0.66665 0.85715 0 0 0 -0.58 -0.43739z" fill="#1c8d43"/>
</svg>
