<svg width="16" height="16" version="1" xmlns="http://www.w3.org/2000/svg">
 <rect y="1" width="16" height="14" rx=".8" ry=".8" style="fill:#4f4f4f"/>
 <path d="m8 1v14h7.199c0.443 0 0.801-0.358 0.801-0.801v-12.398c0-0.4434-0.358-0.801-0.801-0.801h-7.199z" style="fill:#ffffff;opacity:.15"/>
 <path d="m3 2v1h-0.5c-0.831 0-1.5 0.669-1.5 1.5s0.669 1.5 1.5 1.5h0.5v1h-1.9082c0.206 0.582 0.754 1 1.4082 1h0.5v1h1v-1h0.5c0.831 0 1.5-0.669 1.5-1.5s-0.669-1.5-1.5-1.5h-0.5v-1h1.9082c-0.206-0.582-0.754-1-1.408-1h-0.5v-1zm-0.5 2h0.5v1h-0.5c-0.277 0-0.5-0.223-0.5-0.5s0.223-0.5 0.5-0.5zm1.5 2h0.5c0.277 0 0.5 0.223 0.5 0.5s-0.2233 0.5129-0.5 0.5h-0.5z" style="fill:#ffffff"/>
 <path d="m10 2v1h-1.5v1h1.5v3h-1.5v1h1.5v1h1v-1h2v1h1v-1h1.5v-1h-1.5v-3h1.5v-1h-1.5v-1h-1v1h-2v-1zm1 2h2v3h-2z" style="fill:#ffffff"/>
</svg>
