<svg width="16" height="16" version="1" xmlns="http://www.w3.org/2000/svg">
 <path d="m8 1c-1.108 0-2 0.892-2 2v3 5c0 1.108 0.892 2 2 2s2-0.892 2-2v-5-3c0-1.108-0.892-2-2-2zm2 5a2 2 0 0 0 2 2 2 2 0 0 0 2 -2 2 2 0 0 0 -2 -2 2 2 0 0 0 -2 2zm-4 0a2 2 0 0 0 -2 -2 2 2 0 0 0 -2 2 2 2 0 0 0 2 2 2 2 0 0 0 2 -2zm-2 5a2 2 0 0 0 -2 2 2 2 0 0 0 2 2 2 2 0 0 0 2 -2 2 2 0 0 0 -2 -2zm8 0a2 2 0 0 0 -2 2 2 2 0 0 0 2 2 2 2 0 0 0 2 -2 2 2 0 0 0 -2 -2z" style="fill:#2d5a37"/>
 <rect transform="matrix(0,-1,-1,0,0,0)" x="-15" y="-13" width="11" height="10" rx="5.5" ry="5" style="fill:#6d7481"/>
</svg>
