<svg width="16" height="16" version="1" xmlns="http://www.w3.org/2000/svg">
 <path d="m9.3849724-1.9000002e-7 -2.4308504 3.309314a6.8085103 6.5306148 0 0 0 -1.9667556 1.039531c-2.4196128-0.556094-4.9873666 1.308674-4.9873666 1.308674l2.4913562 4.9381502a6.8085103 6.5306148 0 0 0 6.7001329 5.404331 6.8085103 6.5306148 0 0 0 6.8085111 -6.5306112 6.8085103 6.5306148 0 0 0 -2.729388 -5.218751c-0.414423-2.728587-3.8856396-4.250638-3.8856396-4.250638z" style="fill:#21a8e3"/>
 <path d="m5.4160056 8.4549577a1.5001325 1.5053258 0 0 0 -0.3257973 1.5545753 1.5001325 1.5053258 0 0 0 1.9227374 0.899684 1.5001325 1.5053258 0 0 0 0.8965884 -1.9293852 1.5001325 1.5053258 0 0 0 -1.2450606 -0.979835l-0.00487 0.101364-0.074279 1.6290595-1.1004325-1.2000294z" style="fill:#ffffff"/>
 <path d="m10.416005 6.454958a1.5001322 1.5053256 0 0 0 -0.325797 1.5545761 1.5001322 1.5053256 0 0 0 1.922737 0.8996832 1.5001322 1.5053256 0 0 0 0.896589 -1.9293853 1.5001322 1.5053256 0 0 0 -1.245061 -0.9798349l-0.0049 0.101364-0.07428 1.6290602-1.100431-1.2000301z" style="fill:#ffffff"/>
 <path d="m12.594921 11.500173a0.37355774 0.41564887 76.671263 0 0 -0.04092 0.0027 0.37355774 0.41564887 76.671263 0 0 -0.278982 0.139564c-0.170465 0.178581-0.511945 0.231673-0.877158 0.201916-0.326359-0.0266-0.574821-0.101279-0.630867-0.118611a0.37355774 0.41564887 76.671263 0 0 -0.193781 -0.03857 0.37355774 0.41564887 76.671263 0 0 -0.434255 0.419984c-0.01976 0.08981-0.06725 0.284777-0.1845413 0.531002-0.1489589 0.312696-0.3669946 0.566729-0.6169189 0.619481a0.37393671 0.4160705 76.671254 0 0 0.1501626 0.732707c0.6644516-0.140243 1.0247976-0.664486 1.2234836-1.081567 0.06418-0.134729 0.110372-0.259879 0.148885-0.375482 0.127027 0.0246 0.266024 0.0477 0.423107 0.06052 0.487126 0.03974 1.15258-3.5e-4 1.605779-0.475167a0.37355774 0.41564887 76.671263 0 0 -0.293994 -0.61849z" style="fill:#ffffff"/>
</svg>
