<svg width="16" height="16" version="1.1" viewBox="0 0 16 16" xmlns="http://www.w3.org/2000/svg">
 <path d="m11 12h-11s2.4 4 9.6 4c4.8 0 6.4-2.4 6.4-3.6 0-1.038124 0-1.4-0.8-1.4h-3.4c-0.8 0-0.8 0.04074-0.8 1z" style="fill:#784421"/>
 <path d="m 9,3 v 9 C 9,12 6,9.9435 6,7.4999996 6,5.0565 9,3 9,3 Z" style="fill:#cccccc"/>
 <path d="m9 3v-3l4 1.5z" style="fill:#c83737"/>
 <path d="m4 6v6s-2-1.371-2-3 2-3 2-3z" style="fill:#cccccc"/>
 <rect x="12" y="12" width="1" height="1" style="opacity:.4"/>
 <rect x="14" y="12" width="1" height="1" style="opacity:.4"/>
</svg>
