<svg width="16" height="16" version="1" xmlns="http://www.w3.org/2000/svg">
 <path d="m7.9997676 7.29e-6c-0.4190662 0-0.8384125 0.15619848-1.1516747 0.46945321l-6.3786467 6.3793576c-0.62652475 0.6265088-0.62563599 1.6749775 9.1429e-4 2.301487l6.3786467 6.3793579c0.6265247 0.626509 1.675928 0.627398 2.3024527 9.14e-4l6.3786471-6.3793572c0.626524-0.6265095 0.626524-1.6758758 0-2.3023849l-6.3786639-6.3793744c-0.3132621-0.31325469-0.7326088-0.46945321-1.1516755-0.46945321z" style="fill:#159532"/>
 <path d="m1.5 2c-0.277 0-0.5 0.223-0.5 0.5s0.223 0.5 0.5 0.5h0.5v9.5c1.444e-4 1.351007 1.6461271 2.013385 2.5820312 1.039062l10.205078-10.640624c0.125758-0.0906373 0.212891-0.2309039 0.212891-0.3984375 0-0.277-0.223-0.5-0.5-0.5h-4c-0.277 0-0.5 0.223-0.5 0.5s0.223 0.5 0.5 0.5h0.03125l-5.53125 5.7675781v-5.7675781h0.5c0.277 0 0.5-0.223 0.5-0.5s-0.223-0.5-0.5-0.5h-4z" style="fill-rule:evenodd;fill:#e4e4e4"/>
</svg>
