<svg width="16" height="16" version="1" xmlns="http://www.w3.org/2000/svg">
 <rect transform="matrix(0,-1,-1,0,0,0)" x="-16" y="-16" width="16" height="16" rx=".8" ry=".8" fill="#407ec2"/>
 <path d="m4.835 2c-0.4625 0-0.835 0.3725-0.835 0.835v6.33c0 0.4625 0.3725 0.835 0.835 0.835h6.3301c0.463 0 0.835-0.3725 0.835-0.835v-6.33c0-0.4625-0.372-0.835-0.835-0.835h-6.33zm1.165 2h4v4h-4v-4z" style="fill:#ffe270"/>
 <rect x="7" y="10" width="2" height="2" style="fill:#3f3f3f"/>
 <rect x="3" y="12" width="10" height="2" style="fill:#3f3f3f"/>
 <circle cx="3" cy="13" r="2" fill="#f7870d"/>
 <circle cx="8" cy="13" r="2" fill="#f7870d"/>
 <circle cx="13" cy="13" r="2" fill="#f7870d"/>
</svg>
