<svg width="16" height="16" version="1" xmlns="http://www.w3.org/2000/svg">
 <path d="m4 8 2-3h4l2 3z" style="fill:#3f3f3f"/>
 <rect x="1" y="7" width="14" height="6" rx=".8" ry=".8" style="fill:#8e8e8e"/>
 <rect y="8" width="4" height="7" rx=".5" ry=".5" style="fill:#4f4f4f"/>
 <rect x="12" y="8" width="4" height="7" rx=".5" ry=".5" style="fill:#4f4f4f"/>
 <rect x="3" y="1" width="10" height="5" rx=".8" ry=".8" style="fill:#8e8e8e"/>
 <g style="fill:#3f3f3f">
  <rect x="4" y="2" width="1" height="1" style="fill:#3f3f3f"/>
  <rect x="6" y="2" width="1" height="1" style="fill:#3f3f3f"/>
  <rect x="9" y="2" width="1" height="1" style="fill:#3f3f3f"/>
  <rect x="11" y="2" width="1" height="1" style="fill:#3f3f3f"/>
  <rect x="11" y="4" width="1" height="1" style="fill:#3f3f3f"/>
  <rect x="9" y="4" width="1" height="1" style="fill:#3f3f3f"/>
  <rect x="6" y="4" width="1" height="1" style="fill:#3f3f3f"/>
  <rect x="4" y="4" width="1" height="1" style="fill:#3f3f3f"/>
 </g>
 <rect y="11" width="4" height="1" style="fill:#3f3f3f"/>
 <rect y="9" width="4" height="1" style="fill:#3f3f3f"/>
 <rect y="13" width="4" height="1" style="fill:#3f3f3f"/>
 <rect x="12" y="10" width="4" height="1" style="fill:#3f3f3f"/>
 <path d="m12.5 8c-0.277 0-0.5 0.223-0.5 0.5v0.5h4v-0.5c0-0.277-0.223-0.5-0.5-0.5h-3z" style="fill:#3f3f3f"/>
 <rect x="12" y="12" width="4" height="1" style="fill:#3f3f3f"/>
 <path d="m12 14v0.5c0 0.277 0.223 0.5 0.5 0.5h3c0.277 0 0.5-0.223 0.5-0.5v-0.5h-4z" style="fill:#3f3f3f"/>
</svg>
