<svg width="16" height="16" version="1" xmlns="http://www.w3.org/2000/svg">
 <path d="m8 0h-7.2c-0.4432 0-0.8 0.3568-0.8 0.8v7.2h8z" style="fill:#14ddb1"/>
 <path d="m8 0h7.2c0.4432 0 0.8 0.3568 0.8 0.8v7.2h-8z" style="fill:#f7c73c"/>
 <path d="m8 16h-7.2c-0.4432 0-0.8-0.3568-0.8-0.8v-7.2h8z" style="fill:#2086e7"/>
 <path d="m8 16h7.2c0.4432 0 0.8-0.3568 0.8-0.8v-7.2h-8z" style="fill:#14ddb1"/>
 <rect x="2" y="2" width="12" height="12" style="fill:#3f3f3f"/>
 <path d="m3.5071212 11.5h3.9999998" style="fill:none;stroke-linecap:round;stroke:#ffffff"/>
 <path d="m7.50712 3.5-1e-6 3.000001c0 0.757339-0.521974 1.012399-0.999999 1-0.44798 0.0018-1.0000008-0.233131-1.0000008-1l2e-6 -3.000001m-2e-6 0-2e-6 3.000001c0 0.757339-0.5219735 1.012399-0.9999985 1-0.44798 0.0018-1.000001-0.233131-1.000001-1l2e-6 -3.000001" style="fill:none;stroke-linecap:round;stroke-linejoin:bevel;stroke-width:.99999994;stroke:#ffffff"/>
 <path d="m9.507179 7s0.252193 0.500483 1 0.500241c0.747806-2.4e-4 0.999999-0.500241 0.999999-1.00024 0-2.107193-1.999999 0.105581-1.994009-1.995353-0.00605-0.504648 0.235934-1.0046475 0.99401-1.0046475 0.758075 0 0.999942 0.4999995 0.999942 0.4999995" style="fill:none;stroke-linecap:round;stroke-linejoin:round;stroke-width:.99999994;stroke:#ffffff"/>
</svg>
