<svg width="16" height="16" version="1" xmlns="http://www.w3.org/2000/svg">
 <g transform="matrix(.046206 0 0 .045373 -.14762 4.9391e-8)" style="fill:#4f4f4f">
  <path d="m324.48 44.079-146.49-43.794c-1.076-0.38-2.25-0.38-3.326 0l-146.49 43.794c-1.999 0.705-3.337 10.459-3.337 12.579 0 52.278 13.834 112.71 37.956 165.8 19.566 43.069 54.751 100.52 111.25 129.62 0.719 0.37 1.504 0.555 2.29 0.555s1.571-0.185 2.29-0.555c56.496-29.106 91.68-86.556 111.25-129.62 24.121-53.094 37.955-113.53 37.955-165.8 0-2.12-1.338-11.874-3.337-12.579z" style="fill:#4f4f4f"/>
 </g>
 <g transform="matrix(.026403 0 0 .025522 3.3442 3)" style="fill:#067bff">
  <path d="m324.48 51.943-146.49-51.658c-1.076-0.38-2.25-0.38-3.326 0l-146.49 51.658c-1.999 0.705-3.337 2.595-3.337 4.715 0 52.278 13.834 112.71 37.956 165.8 19.566 43.069 54.751 100.52 111.25 129.62 0.719 0.37 1.504 0.555 2.29 0.555s1.571-0.185 2.29-0.555c56.496-29.106 91.68-86.556 111.25-129.62 24.121-53.094 37.955-113.53 37.955-165.8 0-2.12-1.338-4.01-3.337-4.715z" style="fill:#067bff"/>
 </g>
 <path d="M 4.9501975,4.234433 6.2631244,3.4764141 12.327275,13.979832 12.618336,16 11.014348,14.73785 Z" style="fill:#ffffff"/>
 <path d="m3.998617 0.00284104c-0.0474383 0.00594362-0.0942896 0.02189348-0.1384275 0.04737618l-0.6758508 0.38937295c-0.1765505 0.10193148-0.2366573 0.32608114-0.1347261 0.50263165l1.1429503 1.9786957-0.9948997 0.5744361c-0.1765506 0.1019316-0.2366573 0.3260812-0.1347257 0.5026317l0.3901128 0.6758508c0.1019316 0.1765505 0.3260812 0.2366576 0.5026317 0.1347261l3.3015277-1.906151c0.1765505-0.1019315 0.2366573-0.3260811 0.1347261-0.5026316l-0.3901133-0.6758508c-0.1019315-0.1765505-0.3260811-0.2366575-0.5026317-0.134726l-0.9941595 0.5736959-1.1422101-1.9786957c-0.0764485-0.13241289-0.2218896-0.1991931-0.3642042-0.18136192z" style="fill:#3f3f3f"/>
 <path d="M 11.068138,4.234433 9.7552107,3.4764141 3.6910598,13.979832 3.3999995,16 5.0039867,14.73785 Z" style="fill:#ffffff"/>
 <path d="m12.019718 0.00284104c0.04744 0.00594362 0.09429 0.02189348 0.138428 0.04737618l0.67585 0.38937295c0.176551 0.10193148 0.236658 0.32608114 0.134726 0.50263165l-1.14295 1.9786957 0.9949 0.5744361c0.17655 0.1019316 0.236657 0.3260812 0.134726 0.5026317l-0.390113 0.6758508c-0.101932 0.1765505-0.326081 0.2366576-0.502632 0.1347261l-3.3015276-1.906151c-0.1765505-0.1019315-0.2366573-0.3260811-0.1347261-0.5026316l0.3901133-0.6758508c0.1019315-0.1765505 0.3260811-0.2366575 0.5026317-0.134726l0.9941597 0.5736959 1.14221-1.9786957c0.07645-0.13241289 0.221889-0.1991931 0.364204-0.18136192z" style="fill:#3f3f3f"/>
</svg>
