<svg width="16" height="16" version="1" xmlns="http://www.w3.org/2000/svg">
 <defs>
  <clipPath id="clipPath5078">
   <path d="m160 247c-7.9134 0-15.037 2.8117-20.945 7.1718l20.94 22.82 20.78-22.9c-5.88-4.31-12.93-7.09-20.78-7.09z" fill="#2095f2"/>
  </clipPath>
  <filter id="filter5060" y="-.14" width="1.205" height="1.288" style="color-interpolation-filters:sRGB">
   <feGaussianBlur stdDeviation="1.443"/>
  </filter>
  <clipPath id="clipPath5085">
   <path d="m160 247c-7.9134 0-15.037 2.8117-20.945 7.1718l20.94 22.82 20.78-22.9c-5.88-4.31-12.93-7.09-20.78-7.09z" fill="#2095f2"/>
  </clipPath>
  <filter id="filter5064" x="-.14" y="-.19" width="1.274" height="1.385" style="color-interpolation-filters:sRGB">
   <feGaussianBlur stdDeviation="1.443"/>
  </filter>
 </defs>
 <path d="m8.031 3.0002c-3.0343 0-5.7655 1.031-8.031 2.63l8.031 8.3668 7.969-8.397c-2.2563-1.5811-4.9576-2.6-7.9689-2.6z" fill="#4f4f4f"/>
 <path transform="matrix(.38344 0 0 .36668 -53.315 -87.567)" d="m159.9 252.99c-6.3037 0-12.154 2.0674-16.853 5.5589l16.941 18.441 16.765-18.441c-4.71-3.49-10.56-5.56-16.86-5.56z" clip-path="url(#clipPath5078)" filter="url(#filter5060)" opacity=".2"/>
 <path d="m8 5.1971c-2.4171 0-4.6605 0.75804-6.4624 2.0383l6.4964 6.7622 6.4285-6.7622c-1.802-1.28-4.046-2.0381-6.463-2.0381z" fill="#797979"/>
 <path transform="matrix(.38344 0 0 .36668 -53.315 -87.567)" d="m159.9 258.99c-4.7278 0-9.1156 1.5505-12.64 4.1692l12.706 13.831 12.574-13.831c-3.524-2.6186-7.9119-4.1692-12.64-4.1692z" clip-path="url(#clipPath5085)" filter="url(#filter5064)" opacity=".2"/>
 <path d="m8 7.3969c-1.8129 0-3.4954 0.56856-4.8466 1.5287l4.8719 5.0724 4.8217-5.072c-1.352-0.9602-3.0343-1.5287-4.8471-1.5287z" fill="#e4e4e4"/>
</svg>
