<svg width="16" height="16" version="1" xmlns="http://www.w3.org/2000/svg">
 <rect transform="matrix(0,-1,-1,0,0,0)" x="-16" y="-16" width="16" height="16" rx=".857" ry=".857" fill="#48aeff"/>
 <path d="m11.741 4.259c-0.34541-0.34541-0.90157-0.34541-1.247 0l-2.494 2.494-2.494-2.494c-0.34541-0.34541-0.90157-0.34541-1.247 0-0.34541 0.34541-0.34541 0.90157 0 1.247l2.494 2.494-2.494 2.494c-0.34541 0.34541-0.34541 0.90157 0 1.247 0.34541 0.34541 0.90157 0.34541 1.247 0l2.494-2.494 2.494 2.494c0.34541 0.34541 0.90157 0.34541 1.247 0 0.34541-0.34541 0.34541-0.90157 0-1.247l-2.494-2.494 2.494-2.494c0.34541-0.34541 0.34541-0.90157 0-1.247z" fill="#fff"/>
</svg>
