<svg width="16" height="16" version="1" xmlns="http://www.w3.org/2000/svg">
 <path d="m1.4004 1c-0.2216 0-0.4004 0.1788-0.4004 0.4004v2.5996h-0.5c-0.277 0-0.5 0.223-0.5 0.5v10c0 0.277 0.223 0.5 0.5 0.5h15c0.277 0 0.5-0.223 0.5-0.5v-10c0-0.277-0.223-0.5-0.5-0.5h-0.5v-0.5996-1-1c0-0.2216-0.179-0.4004-0.4-0.4004h-13.1996z" style="fill:#48aeff"/>
 <rect x="4" y="4" width="3" height="3" rx=".25" ry=".25" style="fill:#ffffff"/>
 <rect x="9" y="4" width="3" height="3" rx=".25" ry=".25" style="fill:#ffffff"/>
 <rect x="9" y="9" width="3" height="3" rx=".25" ry=".25" style="fill:#ffffff"/>
 <rect x="4" y="9" width="3" height="3" rx=".25" ry=".25" style="fill:#ffffff"/>
</svg>
