<svg width="16" height="16" version="1" xmlns="http://www.w3.org/2000/svg">
 <path d="m7.4920633 2.9477146c-3.5555553 0-2.7285626 3.246893-4.5490101 4.2252854-1.846884 1.0478019-0.829345 1.8860462-0.5303547 2.898529 0.5044225 1.688245 1.9174373 0.495453 6.0952376-0.5079361 4.1775969-1.0031585 5.0759139-0.8515634 4.5714289-2.5396826-0.302495-1.001192 0.690344-1.8755553-1.468517-1.9639103-1.7547009 0.0961078-1.579102-2.1122854-4.1187847-2.1122854z" style="fill:#4f4f4f"/>
 <ellipse transform="matrix(.96845415 -.24919182 .26876302 .96320633 0 0)" cx="5.288" cy="10.712" rx="8.201" ry="3.57" style="fill:#2e72de"/>
 <ellipse transform="matrix(.97820363 -.20764794 .11454307 .99341828 0 0)" cx="7.101" cy="13.564" rx="3.571" ry="1.87" style="fill:#ffffff"/>
</svg>
