<svg width="16" height="16" version="1" xmlns="http://www.w3.org/2000/svg">
 <path d="m1.6842105 0c-0.9184865 0-1.6842105 0.76572465-1.6842105 1.6842116v12.631576c0 0.918487 0.765724 1.684212 1.6842105 1.684212h12.63158c0.918486 0 1.68421-0.765725 1.68421-1.684212v-12.631576c0-0.91848695-0.765724-1.6842116-1.68421-1.6842116h-12.63158z" style="fill:#333333"/>
 <path d="m1.6842105 0c-0.9184865 0-1.6842105 0.76572465-1.6842105 1.6842116v0.4210522c0-0.9184869 0.765724-1.6842116 1.6842105-1.6842116h12.63158c0.918486 0 1.68421 0.7657247 1.68421 1.6842116v-0.4210522c0-0.91848695-0.765724-1.6842116-1.68421-1.6842116h-12.63158z" style="fill:#ffffff;opacity:.1"/>
 <path d="m9.8800136 4.3641656-0.1504424 0.3584087-0.042032 0.2566336 0.00776 0.0973494-0.3860608 0.050878-0.017696-0.0951328-0.1073016-0.2378315-0.2367248-0.3075224-0.2422568 0.0652737-0.051992 0.3838503 0.025448 0.2599452 0.033184 0.0906983-0.36062 0.1493495-0.040928-0.0873869-0.1659296-0.2013221-0.3075216-0.2356146-0.21792 0.1261137 0.049776 0.3838475 0.091814 0.2444822 0.055312 0.0796421-0.3097288 0.2367367-0.061944-0.0730188-0.2123896-0.1526611-0.3584072-0.1471327-0.1780976 0.1769916 0.147124 0.3595143 0.1526544 0.2112842 0.074112 0.0630569-0.237832 0.3086282-0.079648-0.0541894-0.2433864-0.092916-0.3849563-0.0486609-0.1249995 0.2168125 0.2345132 0.3086283 0.2013282 0.1648127 0.088494 0.042038-0.1493363 0.3595143-0.091814-0.032076-0.2588497-0.025453-0.3849554 0.052-0.064159 0.2422652 0.3064154 0.2367369 0.237832 0.1073116 0.095133 0.017789-0.050886 0.3860618-0.096239-0.00767-0.2577429 0.042038-0.3573017 0.1493495v0.2511127l0.3573017 0.1493494 0.2577429 0.043133 0.096239-0.00767 0.050886 0.386062-0.095133 0.017786-0.237832 0.1073114-0.3064154 0.2367365 0.064159 0.2422657 0.3849554 0.05201 0.2588497-0.02545 0.091814-0.03317 0.1493363 0.360617-0.088494 0.04094-0.2013282 0.164812-0.2345132 0.308632 0.1249995 0.217934 0.3849563-0.04978 0.2433624-0.09182 0.079648-0.05531 0.237832 0.309733-0.074112 0.06194-0.1526544 0.212379-0.147124 0.358408 0.1780976 0.176993 0.3584072-0.147133 0.2123896-0.15154 0.061944-0.07411 0.3097336 0.237832-0.055304 0.07964-0.091814 0.24336-0.049776 0.384955 0.21792 0.124992 0.3075224-0.23452 0.1659296-0.202444 0.040928-0.08739 0.36062 0.149349-0.033184 0.09182-0.025448 0.258851 0.051992 0.384955 0.2422568 0.06416 0.2367256-0.306416 0.1073008-0.237832 0.017696-0.09513 0.38606 0.05088-0.00776 0.09626 0.042032 0.257728 0.1504368 0.3573h0.2500012l0.150443-0.3573 0.04203-0.257728-0.0078-0.09626 0.386062-0.05088 0.0177 0.09513 0.1073 0.237832 0.236725 0.306416 0.242258-0.06416 0.05199-0.384955-0.02544-0.258851-0.03208-0.09182 0.359513-0.149349 0.04093 0.08739 0.165929 0.202444 0.308628 0.23452 0.216815-0.124992-0.04978-0.384955-0.09181-0.24336-0.05531-0.07964 0.309734-0.237832 0.06306 0.07411 0.211283 0.15154 0.358407 0.147133 0.178097-0.176993-0.147123-0.358408-0.152656-0.212379-0.07411-0.06194 0.237832-0.309733 0.07965 0.05531 0.244468 0.09182 0.383849 0.04978 0.126107-0.217934-0.23562-0.308632-0.201327-0.164812-0.08739-0.04094 0.14823-0.360617 0.09181 0.03317 0.259956 0.02545 0.383849-0.05201 0.06526-0.2422657-0.30752-0.2367365-0.237832-0.1073114-0.09513-0.017786 0.05089-0.386062 0.09624 0.00767 0.257743-0.043133 0.358438-0.1493494v-0.2511053l-0.358407-0.1493221-0.257743-0.042038-0.09624 0.00766-0.05089-0.3860618 0.09513-0.017789 0.237829-0.1073116 0.307522-0.2367369-0.06526-0.2422652-0.38385-0.052001-0.259957 0.025453-0.09181 0.032075-0.148231-0.3595144 0.08739-0.042038 0.201327-0.1648126 0.235619-0.3086282-0.126106-0.2168127-0.38385 0.04866-0.244468 0.092915-0.07965 0.05419-0.237832-0.3086282 0.07411-0.063057 0.152656-0.2112842 0.147123-0.3595143-0.178096-0.1769915-0.358408 0.1471326-0.211283 0.152661-0.06306 0.07302-0.309733-0.2367369 0.05531-0.079642 0.09181-0.244482 0.04978-0.3838476-0.216813-0.1261137-0.308629 0.2356147-0.16593 0.2013221-0.04093 0.087388-0.359513-0.1493494 0.03208-0.090698 0.02544-0.2599453-0.05198-0.3838503-0.242255-0.065274-0.236726 0.3075227-0.107301 0.2378315-0.0177 0.095132-0.386061-0.050877 0.0078-0.097349-0.04203-0.2566337-0.150444-0.3584086zm0.1250004 3.3285418c0.677369 0 1.226769 0.5493992 1.226769 1.2267676 0 0.6773707-0.5494 1.226772-1.226769 1.226772-0.67737 0-1.2267708-0.5494013-1.2267708-1.226772 0-0.6773684 0.5494008-1.2267676 1.2267708-1.2267676z" style="opacity:.2"/>
 <path d="m4.4806777 3.6783267-0.1935846 0.3384954-0.024343 0.1238968 0.012166 0.2168126-0.3882731 0.0652736-0.060841-0.2079726-0.063054-0.109501-0.2942474-0.2566338-0.1913715 0.0884823 0.00114 0.3893814 0.042034 0.1194631 0.1172571 0.1814252-0.3031052 0.2511053-0.155984-0.1504442-0.1095131-0.0619346-0.3827433-0.0752085-0.1216817 0.1714631l0.1957966 0.3373869 0.095133 0.082953 0.193584 0.098444-0.1371659 0.3683628-0.2112833-0.052h-0.1260971l-0.3683629 0.1272092-0.019911 0.2101895 0.3384956 0.1924821 0.1238938 0.0243583 0.2168139-0.0109479 0.065266 0.388273-0.2079645 0.0597452-0.1095133 0.0641517-0.2555311 0.2931432 0.087389 0.1924819 0.3893803-0.0022058 0.119469-0.0409158 0.1814156-0.1183684 0.2511063 0.303097-0.1504429 0.1570674-0.061946 0.1095011-0.075222 0.3827419 0.1714606 0.12168 0.3373891-0.1957938 0.082965-0.0962274 0.098452-0.1924819 0.3683623 0.1371704-0.051989 0.2101895 0.00114 0.1272085 0.1261056 0.3683624 0.2101772 0.01998 0.1924815-0.3384926 0.024343-0.1238969-0.011063-0.2168126 0.3882749-0.065274 0.059734 0.2079726 0.064158 0.1095011 0.2931403 0.2555389 0.1924783-0.087388-0.00217-0.3893786-0.040926-0.1194632-0.1183628-0.18252 0.3030972-0.2500105 0.15708 0.1493495 0.1095125 0.063057 0.382744 0.075236 0.121647-0.1725851-0.1957966-0.3362844-0.095133-0.0829534-0.193584-0.0984442 0.137168-0.3683624 0.2101772 0.0508782h0.1272125l0.3683622-0.1261147 0.019914-0.2101895-0.3384966-0.1935768-0.1238931-0.0243578-0.2168143 0.0109472-0.065266-0.3871673 0.2079646-0.06084 0.1095137-0.0630569 0.2555314-0.2942488-0.087389-0.1913599-0.3893815 0.00113-0.1194828 0.04201-0.1825218 0.1172737-0.25-0.303097 0.1493366-0.1559692 0.063053-0.1095284 0.075222-0.3827363-0.1725669-0.1227748-0.3362828 0.1968884-0.082965 0.0951326-0.098451 0.1935769-0.3683629-0.1371706 0.050886-0.2112841v-0.1261685l-0.126108-0.3683625-0.2101771-0.019979zm-0.1261063 1.5132739c0.029114-2.135e-4 0.058889 0.00164 0.088495 0.00439 0.4737034 0.0448789 0.8214303 0.4654529 0.7765497 0.9391564-0.044886 0.4736943-0.4654567 0.8214211-0.9391595 0.7765396-0.4737035-0.0448842-0.8214297-0.4654576-0.7765492-0.9391583 0.042074-0.4440991 0.4139943-0.7780294 0.850664-0.7809744z" style="opacity:.2"/>
 <path d="m4.4806771 3.368423-0.193584 0.3384954-0.024343 0.1238968 0.012166 0.2168128-0.3882737 0.0652736-0.060841-0.2079726-0.063053-0.1095012-0.2942474-0.2566336-0.191372 0.0884821 0.00114 0.3893788 0.042034 0.1194631 0.117261 0.1814252-0.3030977 0.2511053-0.1559789-0.1504442-0.1095137-0.0619347-0.3827434-0.0752358-0.1216813 0.1714632l0.1957967 0.3373896 0.095133 0.082954 0.193584 0.098444-0.1371659 0.3683653-0.2112834-0.052h-0.1261292l-0.3683625 0.1272083-0.019911 0.2101895 0.3384955 0.1924821 0.1238935 0.0243576 0.2168143-0.0109478 0.065266 0.3882758-0.2079646 0.0597449-0.1095133 0.064152-0.2555309 0.2931432 0.087389 0.192482 0.3893805-0.0022 0.1194691-0.040916 0.181416-0.1183685 0.2511063 0.3030972-0.1504429 0.1570673-0.061947 0.109501-0.075221 0.3827419 0.17146 0.12168 0.3373891-0.1957936 0.082965-0.096255 0.098451-0.1924822 0.3683628 0.1371707-0.051989 0.2101894 0.00114 0.1272084 0.1261057 0.3683625 0.2101777 0.01998 0.1924771-0.3384954 0.024343-0.1238968-0.011063-0.2168126 0.3882749-0.065274 0.059734 0.2079726 0.06416 0.109501 0.2931411 0.255539 0.1924768-0.087388-0.00217-0.3893814-0.040926-0.1194632-0.1183634-0.18252 0.3030977-0.2500105 0.15708 0.1493495 0.1095125 0.063057 0.382744 0.075208 0.1216806-0.1725595-0.195796-0.3362814-0.095133-0.082954-0.193584-0.098444 0.137168-0.3683625 0.2101766 0.050878h0.1272126l0.3683625-0.1261167 0.019914-0.2101895-0.3384958-0.1935768-0.1238931-0.0243578-0.2168143 0.0109472-0.065266-0.3871699 0.2079651-0.06084 0.1095132-0.0630569 0.2555306-0.2942406-0.087389-0.1913601-0.3893813 0.0011302-0.1194822 0.0420098-0.1825223 0.1172463-0.25-0.3030969 0.1493371-0.1559711 0.063053-0.1095009 0.075221-0.3827419-0.1725669-0.1227757-0.3362829 0.1968884-0.082964 0.0951328-0.098452 0.1935768-0.3683617-0.1371705 0.050886-0.2112843v-0.1260862l-0.1261081-0.3683627-0.2101766-0.0199788zm-0.1261057 1.5132739c0.029114-2.107e-4 0.058889 0.00164 0.088495 0.00439 0.4737034 0.0448762 0.8214303 0.4654471 0.7765491 0.9391506-0.044886 0.4736975-0.4654561 0.8214243-0.9391595 0.7765427-0.4737029-0.0448841-0.8214291-0.4654547-0.7765486-0.9391582 0.042074-0.4440965 0.4139943-0.7780268 0.850664-0.7809744z" style="fill:#2c9bff"/>
 <g transform="matrix(.05137585 .01445372 -.01445373 .05137586 4.0247349 11.017266)" style="opacity:.2">
  <path transform="matrix(.63847128 -.17962306 .17962306 .63847128 -302.70316 -365.43611)" d="m281.09375 583.25-5.84375 1.09375-2.625 10.6875 0.3125 3.5625 2 5.78125-10 4.78125-3.28125-5.15625-2.5625-2.46875-9.96875-4.65625-4.53125 3.875 3.0625 10.5625 2.0625 2.90625 4.625 4.03125-6.28125 9.15625-5.40625-2.84375-3.46875-0.84375-10.96875 0.9375-2 5.625 7.96875 7.59375 3.21875 1.53125 6.03125 1.15625-0.84375 11.09375-6.125 0.21875-3.4375 1-9.03125 6.3125 1.09375 5.84375 10.71875 2.625 3.53125-0.3125 5.8125-2 4.78125 10.03125-5.15625 3.25-2.5 2.59375-4.65625 9.96875 3.875 4.53125 10.59375-3.09375 2.90625-2.0625 4.03125-4.59375 9.15625 6.25-2.84375 5.4375-0.84375 3.46875 0.9375 10.96875 5.625 1.96875 7.59375-7.9375 1.53125-3.25 1.15625-6 11.09375 0.84375 0.21875 6.125 1 3.40625 6.3125 9.03125 5.84375-1.09375 2.625-10.6875-0.3125-3.5625-2-5.78125 10.03125-4.8125 3.25 5.1875l2.59375 2.46875 9.96875 4.65625 4.53125-3.875-3.09375-10.5625-2.0625-2.9375-4.625-4 6.28125-9.1875 5.4375 2.875 3.46875 0.84375 10.96875-0.96875 1.96875-5.59375-7.96875-7.625-3.21875-1.5-6.03125-1.1875 0.875-11.0625 6.125-0.25 3.40625-1 9.03125-6.28125-1.09375-5.875-10.6875-2.59375-3.5625 0.3125-5.78125 1.96875-4.8125-10 5.1875-3.28125 2.46875-2.5625 4.65625-9.96875-3.875-4.53125-10.5625 3.0625-2.9375 2.0625-4 4.625-9.1875-6.28125 2.84375-5.40625 0.875-3.46875-0.96875-10.96875-5.625-1.96875-7.59375 7.9375-1.5 3.25-1.1875 6-11.0625-0.84375-0.25-6.125-1-3.4375zm9.96875 42.15625c2.007 0.045 4.04067 0.36869 6.0625 0.9375 12.93971 3.64037 20.48412 17.06029 16.84375 30s-17.09154 20.48412-30.03125 16.84375-20.48412-17.09154-16.84375-30.03125c3.07156-10.91788 13.13095-17.993 23.96875-17.75z"/>
 </g>
 <path d="m9.8800136 4.0542647-0.1504424 0.3584059-0.042032 0.2566338 0.00776 0.0973494-0.3860608 0.0508778-0.017696-0.0951326-0.1073016-0.2378315-0.2367248-0.3075198-0.2422568 0.0652737-0.051992 0.3838503 0.025448 0.2599452 0.033184 0.0906983-0.36062 0.1493495-0.040928-0.0873867-0.1659296-0.2013221-0.3075216-0.2356148-0.21792 0.1261137 0.049776 0.3838503 0.091814 0.2444548 0.055312 0.0796421-0.3097344 0.2367369-0.061944-0.073019-0.2123904-0.1526612-0.3584064-0.1471326-0.1780976 0.1769917 0.147124 0.3595115 0.1526544 0.2112843 0.074112 0.0630568-0.237832 0.3086281-0.079648-0.0541895-0.2433856-0.0929157-0.3849567-0.048661-0.1249994 0.2168126 0.2345131 0.3086282l0.2013278 0.1648125 0.088495 0.042038-0.1493367 0.3595143-0.091814-0.032076-0.2588497-0.025453-0.3849554 0.052-0.064159 0.2422651 0.3064154 0.2367369 0.237832 0.1073116 0.095133 0.017789-0.050886 0.3860617-0.096239-0.00767-0.2577429 0.042038-0.3573017 0.149322v0.251109l0.3573017 0.1493495 0.2577429 0.043133 0.096239-0.00767 0.050886 0.386064-0.095133 0.017786-0.237832 0.1073114-0.3064154 0.2367372 0.064159 0.2422656 0.3849554 0.052006 0.2588497-0.025453 0.091814-0.0332 0.1493367 0.3606211-0.088495 0.04094-0.2013278 0.164813-0.2345131 0.30863 0.1249994 0.217908 0.3849567-0.04978 0.2433624-0.09182 0.079648-0.05531 0.237832 0.309734-0.074112 0.06194-0.1526544 0.21238-0.147124 0.358406 0.1780976 0.176991 0.3584064-0.147133 0.2123904-0.151538 0.061944-0.07411 0.3097344 0.237832-0.055312 0.07964-0.091814 0.24336-0.049776 0.384956 0.21792 0.124992 0.3075216-0.23452 0.1659296-0.202445 0.040928-0.08739 0.36062 0.14935-0.033184 0.09182-0.025448 0.25885 0.051992 0.384955 0.2422568 0.06416 0.2367248-0.306417 0.1073016-0.237831 0.017696-0.09513 0.3860608 0.05088-0.00776 0.09626 0.042032 0.257728 0.1504424 0.357301h0.2499996l0.150444-0.357301 0.04203-0.257728-0.0078-0.09626 0.386061-0.05088 0.0177 0.09513 0.107301 0.237831 0.236725 0.306417 0.242257-0.06416 0.05199-0.384955-0.02544-0.25885-0.03208-0.09182 0.359513-0.14935 0.04093 0.08739 0.16593 0.202445 0.308628 0.23452 0.216814-0.124992-0.04978-0.384956-0.09181-0.24336-0.05531-0.07964 0.309733-0.237832 0.06306 0.07411 0.211283 0.151538 0.358408 0.147133 0.178096-0.176991-0.147123-0.358406-0.152656-0.21238-0.07411-0.06194 0.237832-0.309734 0.07965 0.05531 0.244468 0.09182 0.38385 0.04978 0.126135-0.217908-0.235619-0.30863-0.201327-0.164813-0.08739-0.04094 0.148231-0.3606211 0.09181 0.0332 0.259956 0.025453 0.38385-0.052006 0.06526-0.2422656-0.307522-0.2367094-0.237832-0.1073116-0.09513-0.017786 0.05089-0.3860644 0.09624 0.00767 0.257743-0.043133 0.358408-0.1493494v-0.251101l-0.358408-0.1493495-0.257743-0.042038-0.09624 0.00767-0.05089-0.3860617 0.09513-0.017789 0.237832-0.1073116 0.307519-0.2367369-0.06526-0.2422652-0.383849-0.052001-0.259956 0.025453-0.09181 0.032075-0.14823-0.3595143 0.08739-0.042038 0.201328-0.1648125 0.235619-0.3086282-0.126107-0.2168126-0.383849 0.04866-0.244468 0.092915-0.07965 0.054189-0.237832-0.3086309 0.07411-0.063057 0.152656-0.2112841 0.147123-0.3595116-0.178097-0.1769916-0.358407 0.1471327-0.211283 0.152661-0.06306 0.07302-0.309734-0.2367369 0.05531-0.079642 0.09181-0.2444547 0.04978-0.3838503-0.216814-0.1261137-0.308629 0.2356148-0.165929 0.2013221-0.04093 0.087388-0.359513-0.1493495 0.03208-0.090698 0.02544-0.2599453-0.05199-0.3838503-0.242257-0.065274-0.236725 0.3075227-0.107301 0.2378315-0.0177 0.095132-0.386062-0.050877 0.0078-0.097349-0.04203-0.2566337-0.150443-0.3584059zm0.1250004 3.328539c0.677369 0 1.226769 0.5493992 1.226769 1.2267704 0 0.6773684-0.5494 1.2267704-1.226769 1.2267704-0.67737 0-1.2267708-0.549402-1.2267708-1.2267704 0-0.6773712 0.5494008-1.2267704 1.2267708-1.2267704z" style="fill:#fecd38"/>
 <g transform="matrix(.05137585 .01445372 -.01445373 .05137586 4.0247349 10.707364)" style="fill:#73ba25">
  <path transform="matrix(.63847128 -.17962306 .17962306 .63847128 -302.70316 -365.43611)" d="m281.09375 583.25-5.84375 1.09375-2.625 10.6875 0.3125 3.5625 2 5.78125-10 4.78125-3.28125-5.15625-2.5625-2.46875-9.96875-4.65625-4.53125 3.875 3.0625 10.5625 2.0625 2.90625 4.625 4.03125-6.28125 9.15625-5.40625-2.84375-3.46875-0.84375-10.96875 0.9375-2 5.625 7.96875 7.59375 3.21875 1.53125 6.03125 1.15625-0.84375 11.09375-6.125 0.21875-3.4375 1-9.03125 6.3125 1.09375 5.84375 10.71875 2.625 3.53125-0.3125 5.8125-2 4.78125 10.03125-5.15625 3.25-2.5 2.59375-4.65625 9.96875 3.875 4.53125 10.59375-3.09375 2.90625-2.0625 4.03125-4.59375 9.15625 6.25-2.84375 5.4375-0.84375 3.46875 0.9375 10.96875 5.625 1.96875 7.59375-7.9375 1.53125-3.25 1.15625-6 11.09375 0.84375 0.21875 6.125 1 3.40625 6.3125 9.03125 5.84375-1.09375 2.625-10.6875-0.3125-3.5625-2-5.78125 10.03125-4.8125 3.25 5.1875l2.59375 2.46875 9.96875 4.65625 4.53125-3.875-3.09375-10.5625-2.0625-2.9375-4.625-4 6.28125-9.1875 5.4375 2.875 3.46875 0.84375 10.96875-0.96875 1.96875-5.59375-7.96875-7.625-3.21875-1.5-6.03125-1.1875 0.875-11.0625 6.125-0.25 3.40625-1 9.03125-6.28125-1.09375-5.875-10.6875-2.59375-3.5625 0.3125-5.78125 1.96875-4.8125-10 5.1875-3.28125 2.46875-2.5625 4.65625-9.96875-3.875-4.53125-10.5625 3.0625-2.9375 2.0625-4 4.625-9.1875-6.28125 2.84375-5.40625 0.875-3.46875-0.96875-10.96875-5.625-1.96875-7.59375 7.9375-1.5 3.25-1.1875 6-11.0625-0.84375-0.25-6.125-1-3.4375zm9.96875 42.15625c2.007 0.045 4.04067 0.36869 6.0625 0.9375 12.93971 3.64037 20.48412 17.06029 16.84375 30s-17.09154 20.48412-30.03125 16.84375-20.48412-17.09154-16.84375-30.03125c3.07156-10.91788 13.13095-17.993 23.96875-17.75z" style="fill:#73ba25"/>
 </g>
 <path d="m9.8802928 4.0542647-0.1507144 0.3583238-0.041768 0.2566338 0.00728 0.0974589-0.3855624 0.0508504-0.018152-0.095023-0.1071344-0.2378864-0.2366648-0.3074814l-0.2421112 0.065356-0.052056 0.383749 0.017544 0.1797558 0.034496-0.2536231 0.242112-0.065356 0.236664 0.3074814 0.1071344 0.2378863 0.018152 0.095024 0.3855632-0.050851-0.00728-0.097459 0.041768-0.2566338 0.1507144-0.3583238h0.2499804l0.150109 0.3583238 0.04237 0.2566338-0.0078 0.097459 0.386168 0.050851 0.01755-0.095024 0.107134-0.2378863 0.236664-0.3074814 0.242112 0.065356 0.0345 0.2536231 0.01755-0.1797558-0.05206-0.383749-0.242112-0.065356-0.236663 0.3074814-0.107135 0.2378864-0.01755 0.095024-0.386168-0.050851 0.0078-0.097459-0.04238-0.2566338-0.150109-0.3583238zm-2.0434216 0.5477762-0.2179008 0.1258948 0.037528 0.2881156 0.1803728-0.1041095 0.3074824 0.2354505 0.1658464 0.2009662 0.04116 0.0877706 0.3607464-0.1495137-0.033288-0.090781-0.019368-0.1973264-0.308088 0.1277011-0.04116-0.0877705-0.1658464-0.2009662zm4.3374298 0-0.308692 0.2354505-0.165847 0.2009664-0.04116 0.087771-0.308088-0.1283033-0.01937 0.1979285-0.03208 0.09078 0.359536 0.1495137 0.04116-0.087771 0.165846-0.2009664 0.308693-0.2354505 0.179161 0.1041095 0.03753-0.2881156zm-5.3010346 0.6978865-0.1779512 0.1767452 0.090186 0.2203159 0.087766-0.0871684 0.3583256 0.1470778 0.2124528 0.1525243 0.062344 0.0732379 0.3092984-0.2366548-0.05508-0.0798884-0.05508-0.1458736-0.1991376 0.1525241-0.062344-0.0732379-0.2124536-0.1525241zm6.2634276 0-0.358325 0.147078-0.211242 0.1525241-0.06295 0.073238-0.199741-0.1525241-0.05508 0.1458736-0.05508 0.079888 0.309903 0.2366548 0.06295-0.073238 0.211241-0.1525243 0.358326-0.1470778 0.08777 0.087168 0.09019-0.2203158zm-7.0133683 0.9236568-0.1246874 0.2167032 0.1016874 0.1337769 0.023-0.04056 0.3849583 0.048414 0.2433224 0.093217 0.079896 0.053861l0.2378768-0.3086905-0.074448-0.0629467-0.056288-0.0774794-0.1071344 0.1392232-0.079896-0.0538611-0.2433224-0.0932174zm7.7633093 0-0.383747 0.048414-0.244533 0.093217-0.0799 0.053861-0.107134-0.1392231-0.05629 0.077479-0.07445 0.062947 0.237874 0.3086912 0.0799-0.053861 0.244533-0.093217 0.383748-0.048414 0.02361 0.04056 0.102292-0.1337768zm-7.4691438 0.9859995-0.044182 0.1059158-0.092002-0.032075-0.2584549-0.025453-0.3849571 0.051452-0.064159 0.2427031 0.083528 0.064753 0.3655885-0.049017 0.2584549 0.025453 0.092002 0.032075 0.1495046-0.3595362-0.088371-0.042366zm7.1755838 0-0.01755 0.013958-0.08716 0.042366 0.148293 0.3595389 0.092-0.032075 0.259665-0.025453 0.364983 0.049017 0.08413-0.064753-0.06537-0.2427031-0.383746-0.051452-0.259665 0.025453-0.092 0.032075zm-7.4201161 1.0065776-0.010903 0.0835291-0.096239-0.0079304-0.2578497 0.0423663-0.3571143 0.1495137v0.2505852l0.070818 0.029668 0.2862966-0.1198463 0.2578497-0.042366 0.096239 0.00793 0.050846-0.3861685zm7.6640431 0-0.03994 0.00739 0.05085 0.3861683 0.09624-0.00793 0.257849 0.042366 0.287507 0.1198462 0.07082-0.029668v-0.2505858l-0.35834-0.1495137-0.257849-0.042366-0.09624 0.00793zm-5.0431852 0.5483865c-0.00656 0.051234-0.015736 0.101947-0.015736 0.15496 0 0.6773708 0.5495312 1.2269012 1.2269012 1.2269012 0.677369 0 1.2269-0.5495304 1.2269-1.2269012 0-0.053012-0.0092-0.1037263-0.01574-0.15496-0.07704 0.6033454-0.586926 1.0719465-1.211163 1.0719465-0.6242366 0-1.1341238-0.4686011-1.2111622-1.0719465zm-2.6208579 0.548381-0.05508 0.010397-0.2378743 0.1071196-0.3062715 0.2366556 0.064159 0.2421004 0.019971 0.00232 0.2221377-0.1712986 0.2378743-0.1071207 0.095029-0.018063zm7.6640431 0-0.03994 0.3020355 0.09503 0.018063 0.237875 0.1071476 0.222743 0.1712977 0.01937-0.00232l0.06537-0.2420995-0.307492-0.2366548-0.237874-0.1071473zm-7.4195108 1.0053682-0.1846101 0.150718-0.2342428 0.308691 0.1010817 0.176745 0.1331611-0.175541l0.2015581-0.164649 0.088371-0.04117zm7.1755838 6.24e-4 -0.104713 0.254226 0.08716 0.04117 0.201557 0.164621 0.133768 0.174939 0.101686-0.176143-0.235454-0.308692zm-6.6538326 0.929708-0.096845 0.134379-0.1470824 0.358323 0.090186 0.08957 0.056896-0.13799 0.1525304-0.212463 0.074448-0.06235zm6.1314766 0-0.130136 0.169492 0.07445 0.06235 0.152531 0.212462 0.0569 0.137992 0.09019-0.08958-0.147083-0.358324zm-5.3651942 0.759624-0.03692 0.09806-0.049632 0.384959 0.03692 0.02107 0.012712-0.09623 0.092002-0.243333 0.05508-0.07988zm4.5989112 0-0.110161 0.08473 0.05508 0.07988 0.092 0.243333 0.01271 0.09623 0.03693-0.02107-0.04963-0.384956zm-3.6449912 0.521146-0.00608 0.06235 0.017552 0.130137 0.00784-0.07929 0.033288-0.09142zm2.6910712 6.22e-4 -0.05145 0.02107 0.03207 0.09142 0.0078 0.07929 0.01755-0.130137z" style="fill:#ffffff;opacity:.2"/>
 <path d="m4.4805989 3.3686529-0.1936892 0.3383504-0.024217 0.1240885 0.012109 0.2166757-0.387984 0.0653558-0.061133-0.2082189-0.062949-0.1095559-0.2941658-0.2566336l-0.191268 0.088373 0.0012 0.3092987 0.1900572-0.08777 0.2941663 0.2566337 0.062949 0.1095558 0.061133 0.2082189 0.387984-0.065356-0.012109-0.2166758 0.024217-0.1240887 0.1936896-0.3383504 0.210032 0.0199786 0.1004755 0.2923494 0.026029-0.1077495v-0.1264967l-0.1264901-0.3680094zm1.1718194 0.3770876-0.3365343 0.1967242-0.082923 0.0950233-0.098661 0.1936863-0.3171663-0.1180402v0.079889l-0.050846 0.2112568 0.3680097 0.1367874 0.098661-0.1936863 0.082923-0.095024 0.3365343-0.1967243 0.1186354 0.084733 0.053869-0.2717684zm-3.1662141 0.5350664-0.1216611 0.171901 0.098661 0.1706968 0.023002-0.032075 0.3825362 0.075044 0.1095554 0.061743l0.1561623 0.1507175 0.3032446-0.2511874-0.117424-0.1815894-0.00847-0.0240843-0.1773446 0.1470779-0.156166-0.1508548-0.109556-0.0617431zm3.9924206 0.3783-0.3898002 0.00119-0.11924 0.042366l-0.1821886 0.1168092-0.1131874-0.1361852-0.1373983 0.1434379 0.2505857 0.3032447 0.1821886-0.1174379 0.11924-0.0423663 0.3740634-6.212e-4 0.1028968-0.1186421zm-3.7267031 0.5725939-0.039949 0.1077493-0.2112426-0.0514526h-0.1265024l-0.3680098 0.127099-0.019975 0.2100252 0.1168189 0.066587 0.2711651-0.093818h0.1265031l0.2112425 0.052055 0.1367929-0.3686143zm3.2902966 0.332904-0.049629 0.014505 0.06537 0.3867732l0.2166909-0.010948 0.1240811 0.024085 0.2215321 0.1270989 0.096846-0.033307 0.019975-0.2100255-0.3383511-0.1936863-0.1240811-0.0240842-0.2166903 0.0109474zm-0.8371006 0.3335087c-0.079372 0.4352236-0.4762811 0.7464408-0.9248663 0.7039405-0.3924731-0.0371937-0.6947743-0.3338154-0.762652-0.7033357-0.00451 0.024632-0.011509 0.048388-0.01392 0.073841-0.04488 0.4737036 0.3028703 0.8945122 0.7765726 0.9393938 0.4737034 0.044884 0.8945126-0.3028699 0.9393937-0.7765735 0.00774-0.081695-2.771e-4 -0.1603789-0.014526-0.2372843zm-2.5240137 0.3353261-0.1585831 0.0454042-0.1095559 0.0641517-0.2554273 0.292957 0.087765 0.1924821h0.014526l0.1531359-0.175541 0.1095554-0.0641517 0.208216-0.0599094zm3.2902966 0.3329012-0.096845 0.2602737 0.1936897 0.098663 0.095029 0.082926 0.096845 0.1658526l0.098661-0.1398251-0.1955051-0.335931-0.095029-0.0829263zm-2.922892 0.5477791-0.012709 0.013411-0.061739 0.1095558-0.075054 0.3825366 0.053262 0.038125 0.021789-0.11076 0.061738-0.1095559 0.150716-0.1573683zm2.3624034 0.2608756-0.1258977 0.1041095 0.1180297 0.1827937l0.04116 0.1192443 6.286e-4 0.079888 0.00183-6.24e-4 -0.0024-0.3891927zm-1.5047234 0.3099009 6.285e-4 0.046608 0.025423 0.074441 0.025423-0.1023032z" style="fill:#ffffff;opacity:.2"/>
 <path d="m3.705236 8.2035335-0.2070057 0.038754-0.092607 0.3782972 0.010897 0.1264968 0.019971 0.057502 0.061739-0.2523916 0.2070052-0.038726 0.223348 0.3183768 0.035709 0.1222547 0.00847 0.2166758 0.391616 0.029668 0.042376-0.212462 0.052657-0.1150021 0.269348-0.2808492 0.1985325 0.069598 0.01392 0.1598043 0.020583-0.08112l-0.034497-0.3885892-0.198532-0.0695978-0.2693491 0.2808493-0.052657 0.115002-0.042371 0.212461-0.391616-0.0296672-0.00847-0.2167033-0.035709-0.1216525zm-1.1318718 0.4824067-0.1603992 0.1373895 0.072029 0.2481768 0.088371-0.0756733 0.3528781 0.1646484 0.090791 0.0877705 0.1162138 0.1821915 0.354088-0.1688638-0.070818-0.2051808-0.00605-0.0683936-0.2772178 0.1325457-0.1162136-0.1821916-0.090792-0.0877705zm3.2013209 0.245741-0.3734571 0.1083516-0.104108 0.0732378-0.1416354 0.1634169-0.2136635-0.1464757l-0.010902 0.042366-0.100476 0.19188 0.3250343 0.2221491 0.1416354-0.1640186 0.104108-0.072632 0.3734571-0.1083512 0.043578 0.050854 0.093818-0.2003372zm-3.5529878 0.7045453-0.3879839 0.0332845-0.070818 0.1991323 0.1125818 0.1071203 0.3462198-0.0296738 0.1228716 0.0296738 0.1912682 0.1004644 0.2227427-0.3238231-0.1331617-0.1162061-0.089581 0.1307388-0.1912682-0.1010716zm3.3689827 0.2529938-0.1143971 0.07204 0.1700828 0.3540877 0.2051897-0.0696 0.1258983-0.01095 0.2984023 0.07263 0.1186349-0.08293-0.038737-0.207618-0.3782994-0.092006-0.1258983 0.010954-0.2051891 0.069596zm-3.2418741 0.6488587-0.00666 0.08717-0.21669 0.0079-0.1216611 0.03511-0.3195874 0.223354 0.038738 0.207014 0.080502 0.01999 0.2003477-0.140428 0.1216611-0.03571 0.2166896-0.0073 0.030265-0.392826zm2.5343027 0.171299c-0.00491 0.02738-0.00626 0.05452-0.01392 0.08173-0.1288617 0.458043-0.6054315 0.725063-1.0634749 0.596199-0.32606-0.09175-0.5515451-0.360573-0.6101211-0.672464-0.078365 0.43206 0.1788771 0.861044 0.6101211 0.982368 0.4580434 0.12885 0.9346132-0.138156 1.0634749-0.596199 0.037211-0.132245 0.037794-0.265282 0.01392-0.391615zm0.8473914 0.178551-0.024217 0.305062 0.2136628 0.04176 0.1137932 0.05325 0.1688726 0.16161 0.043577-0.0036 0.069607-0.19793-0.28206-0.269962-0.1137932-0.05325zm-3.2418747 0.648254-0.069002 0.04356-0.088371 0.09201-0.1646357 0.352877 0.093213 0.109556 0.071422-0.152525 0.088371-0.09201 0.182794-0.115002zm2.964657 0.252392-0.1331617 0.19489 0.1640308 0.141631 0.072633 0.10411 0.036926 0.125895 0.072633-0.06174-0.1095548-0.37406-0.072634-0.104109zm-2.3157983 0.506619-0.019366 0.08109 0.019366 0.230004 0.010291-0.04298 0.1004766-0.192482zm1.5307509 0.142836-0.076871 0.03692 0.050846 0.147078 0.030874-0.126497z" style="fill:#ffffff;opacity:.2"/>
</svg>
