<svg width="16px" height="16px" version="1.1" viewBox="0 0 16 16" xmlns="http://www.w3.org/2000/svg">
 <path d="M 2.75,1 C 2.3328,1 2,1.3328 2,1.75 l 0,13.5 C 2,15.667 2.3328,16 2.75,16 l 10.5,0 C 13.668,16 14,15.668 14,15.25 L 14,6 9.875,5.125 9,1 Z" style="fill:#cccccc"/>
 <path d="M 9,1 9,5.1666667 C 9,5.6250667 9.3749333,6 9.833333,6 L 14,6 Z" style="fill:#f8f8f0"/>
 <path d="m2.75 1c-0.4172 0-0.75 0.3328-0.75 0.75v0.6c0-0.4172 0.3328-0.75 0.75-0.75h6.25v-0.6z" style="fill-opacity:.2;fill:#ffffff"/>
 <path d="m5 7v1h7v-1h-7zm0 2v1h7v-1h-7zm0 2v1h7v-1h-7zm0 2v1h4v-1h-4z" opacity=".5"/>
</svg>
