<svg width="16" height="16" version="1.1" viewBox="0 0 16 16" xmlns="http://www.w3.org/2000/svg">
 <circle cx="8" cy="8" r="8" style="fill:#9aca3c"/>
 <path d="m6.000001 4a3.9999999 3.9999999 0 0 0 -4 4 3.9999999 3.9999999 0 0 0 4 4 3.9999999 3.9999999 0 0 0 4 -4 3.9999999 3.9999999 0 0 0 -4 -4zm0 2a1.9999999 1.9999999 0 0 1 2 2 1.9999999 1.9999999 0 0 1 -2 2 1.9999999 1.9999999 0 0 1 -2 -2 1.9999999 1.9999999 0 0 1 2 -2z" style="fill:#ffffff"/>
 <rect x="8" y="7" width="6" height="2" style="fill:#ffffff"/>
 <rect transform="rotate(90)" x="9" y="-13" width="2" height="1" style="fill:#ffffff"/>
</svg>
