<?xml version="1.0" encoding="UTF-8" standalone="no"?>
<svg
   xmlns:dc="http://purl.org/dc/elements/1.1/"
   xmlns:cc="http://creativecommons.org/ns#"
   xmlns:rdf="http://www.w3.org/1999/02/22-rdf-syntax-ns#"
   xmlns:svg="http://www.w3.org/2000/svg"
   xmlns="http://www.w3.org/2000/svg"
   xmlns:sodipodi="http://sodipodi.sourceforge.net/DTD/sodipodi-0.dtd"
   xmlns:inkscape="http://www.inkscape.org/namespaces/inkscape"
   width="64"
   height="64"
   version="1.1"
   viewBox="0 0 64 64"
   id="svg12"
   sodipodi:docname="pattern-mate.svg"
   inkscape:version="0.92.2 5c3e80d, 2017-08-06">
  <metadata
     id="metadata18">
    <rdf:RDF>
      <cc:Work
         rdf:about="">
        <dc:format>image/svg+xml</dc:format>
        <dc:type
           rdf:resource="http://purl.org/dc/dcmitype/StillImage" />
      </cc:Work>
    </rdf:RDF>
  </metadata>
  <defs
     id="defs16" />
  <sodipodi:namedview
     pagecolor="#ffffff"
     bordercolor="#666666"
     borderopacity="1"
     objecttolerance="10"
     gridtolerance="10"
     guidetolerance="10"
     inkscape:pageopacity="0"
     inkscape:pageshadow="2"
     inkscape:window-width="1366"
     inkscape:window-height="713"
     id="namedview14"
     showgrid="false"
     inkscape:zoom="3.6875"
     inkscape:cx="-2.4547188"
     inkscape:cy="38.098769"
     inkscape:window-x="0"
     inkscape:window-y="27"
     inkscape:window-maximized="1"
     inkscape:current-layer="svg12" />
  <circle
     style="opacity:0.2"
     cx="32"
     cy="33"
     r="28"
     id="circle2" />
  <circle
     style="fill:#7ea043"
     cx="32"
     cy="32"
     r="28"
     id="circle4" />
  <path
     style="fill:#000000;fill-opacity:1;stroke-width:0.14576381;opacity:0.2"
     d="m 30.466403,52.947707 c -3.361196,-0.228359 -6.546354,-1.357549 -9.544039,-3.383514 -1.647208,-1.113253 -4.309453,-3.723276 -4.309453,-4.224918 0,-0.282322 0.25052,-0.50752 1.294049,-1.163082 0.711728,-0.447124 1.377496,-0.812957 1.479487,-0.812957 0.102041,0 0.829277,0.615259 1.616165,1.367243 2.145509,2.05033 4.295806,3.264679 7.154079,4.040189 1.080556,0.293155 1.57378,0.335887 3.867969,0.335131 2.423265,-8.74e-4 2.744069,-0.03266 4.090322,-0.404005 9.419827,-2.599491 14.29318,-12.848315 10.308895,-21.679968 -1.766045,-3.914686 -5.335286,-7.10738 -9.432391,-8.43732 -5.896934,-1.914161 -12.290481,-0.297934 -16.543746,4.182066 -0.502084,0.528847 -0.97928,0.961538 -1.060432,0.961538 -0.190521,0 -2.669725,-1.587207 -2.801501,-1.793547 -0.1738,-0.272166 0.3468,-0.948586 1.853144,-2.407834 2.292413,-2.220723 4.624066,-3.632009 7.609035,-4.605546 3.797086,-1.238404 8.247551,-1.227608 12.039124,0.02907 6.926974,2.296117 12.043648,8.271196 13.228465,15.447795 0.30092,1.822732 0.222639,5.436134 -0.15492,7.14725 -0.934941,4.237592 -3.300053,8.179705 -6.499807,10.833708 -4.106673,3.406239 -8.846867,4.931899 -14.194441,4.568576 z M 11.500009,33.415789 c 0,-6.928123 0.04932,-12.595374 0.10956,-12.593889 0.192281,0.0048 21.246407,12.427955 21.269463,12.550279 0.0184,0.09709 -20.621455,12.333306 -21.196419,12.566226 -0.14524,0.05886 -0.1826,-2.502858 -0.182604,-12.522616 z m 18.771655,12.12611 C 28.895855,45.333811 27.102791,44.702 25.902262,44.002307 c -1.259761,-0.734218 -3.007781,-2.29154 -3.007781,-2.679655 0,-0.296739 2.379997,-1.884834 2.826201,-1.885834 0.14836,-2.95e-4 0.556308,0.250542 0.906536,0.557472 2.731713,2.394055 7.069714,2.590593 10.11908,0.458458 2.257172,-1.578234 3.571789,-4.095572 3.562641,-6.82205 -0.0076,-2.426492 -0.757921,-4.255472 -2.426345,-5.918686 -2.042005,-2.035646 -4.828105,-2.900073 -7.51279,-2.330955 -1.351633,0.286543 -2.33985,0.740689 -3.47809,1.598453 -0.493104,0.371612 -0.997185,0.675628 -1.120192,0.675628 -0.123,0 -0.820673,-0.370816 -1.550349,-0.824026 -1.704996,-1.058982 -1.713304,-1.163288 -0.194559,-2.44306 1.281492,-1.079846 3.512248,-2.247464 5.003341,-2.618852 4.942754,-1.231084 10.238567,0.825059 13.067425,5.073542 1.445104,2.170295 2.055908,4.237563 2.023476,6.848375 -0.0244,1.973673 -0.37704,3.423777 -1.272944,5.236242 -0.734508,1.485931 -1.953405,3.011349 -3.232045,4.044792 -1.056537,0.853937 -3.438937,2.026911 -4.763426,2.345268 -1.210324,0.290884 -3.424253,0.399409 -4.580786,0.224496 z"
     id="path847-3"
     inkscape:connector-curvature="0"
     sodipodi:nodetypes="ssscssscssssscsssssssscccsssscsscsssssssssssss" />
  <path
     style="opacity:0.2;fill:#ffffff"
     d="M 32 4 A 28 28 0 0 0 4 32 A 28 28 0 0 0 4.0175781 32.492188 A 28 28 0 0 1 32 5 A 28 28 0 0 1 59.974609 32.492188 A 28 28 0 0 0 60 32 A 28 28 0 0 0 32 4 z"
     id="path10" />
  <path
     style="fill:#ffffff;fill-opacity:1;stroke-width:0.14576381"
     d="m 30.466394,51.947703 c -3.361196,-0.228359 -6.546354,-1.357549 -9.544039,-3.383514 -1.647208,-1.113253 -4.309453,-3.723276 -4.309453,-4.224918 0,-0.282322 0.25052,-0.50752 1.294049,-1.163082 0.711728,-0.447124 1.377496,-0.812957 1.479487,-0.812957 0.102041,0 0.829277,0.615259 1.616165,1.367243 2.145509,2.05033 4.295806,3.264679 7.154079,4.040189 1.080556,0.293155 1.57378,0.335887 3.867969,0.335131 2.423265,-8.74e-4 2.744069,-0.03266 4.090322,-0.404005 9.419827,-2.599491 14.29318,-12.848315 10.308895,-21.679968 -1.766045,-3.914687 -5.335286,-7.107381 -9.432391,-8.437321 -5.896934,-1.914161 -12.290481,-0.297934 -16.543746,4.182066 -0.502084,0.528847 -0.97928,0.961538 -1.060432,0.961538 -0.190521,0 -2.669725,-1.587207 -2.801501,-1.793547 -0.1738,-0.272166 0.3468,-0.948586 1.853144,-2.407834 2.292413,-2.220723 4.624066,-3.632009 7.609035,-4.605546 3.797086,-1.238404 8.247551,-1.227608 12.039124,0.02907 6.926974,2.296117 12.043648,8.271196 13.228465,15.447796 0.30092,1.822732 0.222639,5.436134 -0.15492,7.14725 -0.934941,4.237592 -3.300053,8.179705 -6.499807,10.833708 -4.106673,3.406239 -8.846867,4.931899 -14.194441,4.568576 z M 11.5,32.415785 c 0,-6.928123 0.04932,-12.595375 0.10956,-12.59389 0.192281,0.0048 21.246407,12.427956 21.269463,12.55028 0.0184,0.09709 -20.621455,12.333306 -21.196419,12.566226 -0.14524,0.05886 -0.1826,-2.502858 -0.182604,-12.522616 z m 18.771655,12.12611 c -1.375809,-0.208088 -3.168873,-0.839899 -4.369402,-1.539592 -1.259761,-0.734218 -3.007781,-2.29154 -3.007781,-2.679655 0,-0.296739 2.379997,-1.884834 2.826201,-1.885834 0.14836,-2.95e-4 0.556308,0.250542 0.906536,0.557472 2.731713,2.394055 7.069714,2.590593 10.11908,0.458458 2.257172,-1.578234 3.571789,-4.095572 3.562641,-6.82205 -0.0076,-2.426492 -0.757921,-4.255472 -2.426345,-5.918686 -2.042005,-2.035646 -4.828105,-2.900073 -7.51279,-2.330955 -1.351633,0.286543 -2.33985,0.740689 -3.47809,1.598453 -0.493104,0.371612 -0.997185,0.675628 -1.120192,0.675628 -0.123,0 -0.820673,-0.370816 -1.550349,-0.824026 -1.704996,-1.058982 -1.713304,-1.163288 -0.194559,-2.44306 1.281492,-1.079847 3.512248,-2.247465 5.003341,-2.618853 4.942754,-1.231084 10.238567,0.825059 13.067425,5.073543 1.445104,2.170295 2.055908,4.237563 2.023476,6.848375 -0.0244,1.973673 -0.37704,3.423777 -1.272944,5.236242 -0.734508,1.485931 -1.953405,3.011349 -3.232045,4.044792 -1.056537,0.853937 -3.438937,2.026911 -4.763426,2.345268 -1.210324,0.290884 -3.424253,0.399409 -4.580786,0.224496 z"
     id="path847"
     inkscape:connector-curvature="0"
     sodipodi:nodetypes="ssscssscssssscsssssssscccsssscsscsssssssssssss" />
</svg>
